<?xml version="1.0" encoding="utf-8"?>
<svg xmlns="http://www.w3.org/2000/svg" xmlns:xlink="http://www.w3.org/1999/xlink" width="800" height="600" viewBox="0 0 3200 2400">
<defs>
  <clipPath id="clip6200">
    <rect x="0" y="0" width="3200" height="2400"/>
  </clipPath>
</defs>
<path clip-path="url(#clip6200)" d="
M0 2400 L3200 2400 L3200 0 L0 0  Z
  " fill="#ffffff" fill-rule="evenodd" fill-opacity="1"/>
<defs>
  <clipPath id="clip6201">
    <rect x="640" y="0" width="2241" height="2241"/>
  </clipPath>
</defs>
<path clip-path="url(#clip6200)" d="
M267.024 2204.92 L2617.92 2204.92 L2617.92 131.032 L267.024 131.032  Z
  " fill="#ffffff" fill-rule="evenodd" fill-opacity="1"/>
<defs>
  <clipPath id="clip6202">
    <rect x="267" y="131" width="2352" height="2075"/>
  </clipPath>
</defs>
<polyline clip-path="url(#clip6202)" style="stroke:#000000; stroke-width:2; stroke-opacity:0.1; fill:none" points="
  333.559,2204.92 333.559,131.032 
  "/>
<polyline clip-path="url(#clip6202)" style="stroke:#000000; stroke-width:2; stroke-opacity:0.1; fill:none" points="
  777.125,2204.92 777.125,131.032 
  "/>
<polyline clip-path="url(#clip6202)" style="stroke:#000000; stroke-width:2; stroke-opacity:0.1; fill:none" points="
  1220.69,2204.92 1220.69,131.032 
  "/>
<polyline clip-path="url(#clip6202)" style="stroke:#000000; stroke-width:2; stroke-opacity:0.1; fill:none" points="
  1664.26,2204.92 1664.26,131.032 
  "/>
<polyline clip-path="url(#clip6202)" style="stroke:#000000; stroke-width:2; stroke-opacity:0.1; fill:none" points="
  2107.82,2204.92 2107.82,131.032 
  "/>
<polyline clip-path="url(#clip6202)" style="stroke:#000000; stroke-width:2; stroke-opacity:0.1; fill:none" points="
  2551.39,2204.92 2551.39,131.032 
  "/>
<polyline clip-path="url(#clip6202)" style="stroke:#000000; stroke-width:2; stroke-opacity:0.1; fill:none" points="
  267.024,1976.36 2617.92,1976.36 
  "/>
<polyline clip-path="url(#clip6202)" style="stroke:#000000; stroke-width:2; stroke-opacity:0.1; fill:none" points="
  267.024,1381.1 2617.92,1381.1 
  "/>
<polyline clip-path="url(#clip6202)" style="stroke:#000000; stroke-width:2; stroke-opacity:0.1; fill:none" points="
  267.024,785.845 2617.92,785.845 
  "/>
<polyline clip-path="url(#clip6202)" style="stroke:#000000; stroke-width:2; stroke-opacity:0.1; fill:none" points="
  267.024,190.588 2617.92,190.588 
  "/>
<polyline clip-path="url(#clip6200)" style="stroke:#000000; stroke-width:4; stroke-opacity:1; fill:none" points="
  267.024,2204.92 2617.92,2204.92 
  "/>
<polyline clip-path="url(#clip6200)" style="stroke:#000000; stroke-width:4; stroke-opacity:1; fill:none" points="
  267.024,2204.92 267.024,131.032 
  "/>
<polyline clip-path="url(#clip6200)" style="stroke:#000000; stroke-width:4; stroke-opacity:1; fill:none" points="
  333.559,2204.92 333.559,2180.03 
  "/>
<polyline clip-path="url(#clip6200)" style="stroke:#000000; stroke-width:4; stroke-opacity:1; fill:none" points="
  777.125,2204.92 777.125,2180.03 
  "/>
<polyline clip-path="url(#clip6200)" style="stroke:#000000; stroke-width:4; stroke-opacity:1; fill:none" points="
  1220.69,2204.92 1220.69,2180.03 
  "/>
<polyline clip-path="url(#clip6200)" style="stroke:#000000; stroke-width:4; stroke-opacity:1; fill:none" points="
  1664.26,2204.92 1664.26,2180.03 
  "/>
<polyline clip-path="url(#clip6200)" style="stroke:#000000; stroke-width:4; stroke-opacity:1; fill:none" points="
  2107.82,2204.92 2107.82,2180.03 
  "/>
<polyline clip-path="url(#clip6200)" style="stroke:#000000; stroke-width:4; stroke-opacity:1; fill:none" points="
  2551.39,2204.92 2551.39,2180.03 
  "/>
<polyline clip-path="url(#clip6200)" style="stroke:#000000; stroke-width:4; stroke-opacity:1; fill:none" points="
  267.024,1976.36 295.234,1976.36 
  "/>
<polyline clip-path="url(#clip6200)" style="stroke:#000000; stroke-width:4; stroke-opacity:1; fill:none" points="
  267.024,1381.1 295.234,1381.1 
  "/>
<polyline clip-path="url(#clip6200)" style="stroke:#000000; stroke-width:4; stroke-opacity:1; fill:none" points="
  267.024,785.845 295.234,785.845 
  "/>
<polyline clip-path="url(#clip6200)" style="stroke:#000000; stroke-width:4; stroke-opacity:1; fill:none" points="
  267.024,190.588 295.234,190.588 
  "/>
<path clip-path="url(#clip6200)" d="M 0 0 M333.559 2230.91 Q329.947 2230.91 328.119 2234.48 Q326.313 2238.02 326.313 2245.15 Q326.313 2252.25 328.119 2255.82 Q329.947 2259.36 333.559 2259.36 Q337.193 2259.36 338.998 2255.82 Q340.827 2252.25 340.827 2245.15 Q340.827 2238.02 338.998 2234.48 Q337.193 2230.91 333.559 2230.91 M333.559 2227.21 Q339.369 2227.21 342.424 2231.81 Q345.503 2236.4 345.503 2245.15 Q345.503 2253.87 342.424 2258.48 Q339.369 2263.06 333.559 2263.06 Q327.748 2263.06 324.67 2258.48 Q321.614 2253.87 321.614 2245.15 Q321.614 2236.4 324.67 2231.81 Q327.748 2227.21 333.559 2227.21 Z" fill="#000000" fill-rule="evenodd" fill-opacity="1" /><path clip-path="url(#clip6200)" d="M 0 0 M767.507 2258.46 L775.145 2258.46 L775.145 2232.09 L766.835 2233.76 L766.835 2229.5 L775.099 2227.83 L779.775 2227.83 L779.775 2258.46 L787.414 2258.46 L787.414 2262.39 L767.507 2262.39 L767.507 2258.46 Z" fill="#000000" fill-rule="evenodd" fill-opacity="1" /><path clip-path="url(#clip6200)" d="M 0 0 M1215.34 2258.46 L1231.66 2258.46 L1231.66 2262.39 L1209.72 2262.39 L1209.72 2258.46 Q1212.38 2255.7 1216.96 2251.07 Q1221.57 2246.42 1222.75 2245.08 Q1225 2242.55 1225.88 2240.82 Q1226.78 2239.06 1226.78 2237.37 Q1226.78 2234.61 1224.83 2232.88 Q1222.91 2231.14 1219.81 2231.14 Q1217.61 2231.14 1215.16 2231.91 Q1212.73 2232.67 1209.95 2234.22 L1209.95 2229.5 Q1212.77 2228.36 1215.23 2227.79 Q1217.68 2227.21 1219.72 2227.21 Q1225.09 2227.21 1228.28 2229.89 Q1231.48 2232.58 1231.48 2237.07 Q1231.48 2239.2 1230.67 2241.12 Q1229.88 2243.02 1227.77 2245.61 Q1227.2 2246.28 1224.09 2249.5 Q1220.99 2252.69 1215.34 2258.46 Z" fill="#000000" fill-rule="evenodd" fill-opacity="1" /><path clip-path="url(#clip6200)" d="M 0 0 M1668.5 2243.76 Q1671.86 2244.48 1673.74 2246.74 Q1675.63 2249.01 1675.63 2252.35 Q1675.63 2257.46 1672.12 2260.26 Q1668.6 2263.06 1662.12 2263.06 Q1659.94 2263.06 1657.62 2262.62 Q1655.33 2262.21 1652.88 2261.35 L1652.88 2256.84 Q1654.82 2257.97 1657.14 2258.55 Q1659.45 2259.13 1661.98 2259.13 Q1666.37 2259.13 1668.67 2257.39 Q1670.98 2255.66 1670.98 2252.35 Q1670.98 2249.29 1668.83 2247.58 Q1666.7 2245.84 1662.88 2245.84 L1658.85 2245.84 L1658.85 2242 L1663.06 2242 Q1666.51 2242 1668.34 2240.63 Q1670.17 2239.24 1670.17 2236.65 Q1670.17 2233.99 1668.27 2232.58 Q1666.4 2231.14 1662.88 2231.14 Q1660.96 2231.14 1658.76 2231.56 Q1656.56 2231.98 1653.92 2232.85 L1653.92 2228.69 Q1656.58 2227.95 1658.9 2227.58 Q1661.24 2227.21 1663.3 2227.21 Q1668.62 2227.21 1671.72 2229.64 Q1674.82 2232.04 1674.82 2236.17 Q1674.82 2239.04 1673.18 2241.03 Q1671.54 2242.99 1668.5 2243.76 Z" fill="#000000" fill-rule="evenodd" fill-opacity="1" /><path clip-path="url(#clip6200)" d="M 0 0 M2110.83 2231.91 L2099.03 2250.35 L2110.83 2250.35 L2110.83 2231.91 M2109.6 2227.83 L2115.48 2227.83 L2115.48 2250.35 L2120.42 2250.35 L2120.42 2254.24 L2115.48 2254.24 L2115.48 2262.39 L2110.83 2262.39 L2110.83 2254.24 L2095.23 2254.24 L2095.23 2249.73 L2109.6 2227.83 Z" fill="#000000" fill-rule="evenodd" fill-opacity="1" /><path clip-path="url(#clip6200)" d="M 0 0 M2541.67 2227.83 L2560.02 2227.83 L2560.02 2231.77 L2545.95 2231.77 L2545.95 2240.24 Q2546.97 2239.89 2547.99 2239.73 Q2549 2239.54 2550.02 2239.54 Q2555.81 2239.54 2559.19 2242.72 Q2562.57 2245.89 2562.57 2251.3 Q2562.57 2256.88 2559.1 2259.98 Q2555.62 2263.06 2549.31 2263.06 Q2547.13 2263.06 2544.86 2262.69 Q2542.62 2262.32 2540.21 2261.58 L2540.21 2256.88 Q2542.29 2258.02 2544.51 2258.57 Q2546.74 2259.13 2549.21 2259.13 Q2553.22 2259.13 2555.56 2257.02 Q2557.89 2254.92 2557.89 2251.3 Q2557.89 2247.69 2555.56 2245.59 Q2553.22 2243.48 2549.21 2243.48 Q2547.34 2243.48 2545.46 2243.9 Q2543.61 2244.31 2541.67 2245.19 L2541.67 2227.83 Z" fill="#000000" fill-rule="evenodd" fill-opacity="1" /><path clip-path="url(#clip6200)" d="M 0 0 M132.2 1978.75 L144.677 1978.75 L144.677 1982.55 L132.2 1982.55 L132.2 1978.75 Z" fill="#000000" fill-rule="evenodd" fill-opacity="1" /><path clip-path="url(#clip6200)" d="M 0 0 M159.746 1962.16 Q156.135 1962.16 154.307 1965.72 Q152.501 1969.26 152.501 1976.39 Q152.501 1983.5 154.307 1987.06 Q156.135 1990.61 159.746 1990.61 Q163.381 1990.61 165.186 1987.06 Q167.015 1983.5 167.015 1976.39 Q167.015 1969.26 165.186 1965.72 Q163.381 1962.16 159.746 1962.16 M159.746 1958.45 Q165.556 1958.45 168.612 1963.06 Q171.691 1967.64 171.691 1976.39 Q171.691 1985.12 168.612 1989.73 Q165.556 1994.31 159.746 1994.31 Q153.936 1994.31 150.857 1989.73 Q147.802 1985.12 147.802 1976.39 Q147.802 1967.64 150.857 1963.06 Q153.936 1958.45 159.746 1958.45 Z" fill="#000000" fill-rule="evenodd" fill-opacity="1" /><path clip-path="url(#clip6200)" d="M 0 0 M176.76 1987.76 L181.644 1987.76 L181.644 1993.64 L176.76 1993.64 L176.76 1987.76 Z" fill="#000000" fill-rule="evenodd" fill-opacity="1" /><path clip-path="url(#clip6200)" d="M 0 0 M196.714 1962.16 Q193.103 1962.16 191.274 1965.72 Q189.468 1969.26 189.468 1976.39 Q189.468 1983.5 191.274 1987.06 Q193.103 1990.61 196.714 1990.61 Q200.348 1990.61 202.153 1987.06 Q203.982 1983.5 203.982 1976.39 Q203.982 1969.26 202.153 1965.72 Q200.348 1962.16 196.714 1962.16 M196.714 1958.45 Q202.524 1958.45 205.579 1963.06 Q208.658 1967.64 208.658 1976.39 Q208.658 1985.12 205.579 1989.73 Q202.524 1994.31 196.714 1994.31 Q190.904 1994.31 187.825 1989.73 Q184.769 1985.12 184.769 1976.39 Q184.769 1967.64 187.825 1963.06 Q190.904 1958.45 196.714 1958.45 Z" fill="#000000" fill-rule="evenodd" fill-opacity="1" /><path clip-path="url(#clip6200)" d="M 0 0 M227.894 1975 Q231.251 1975.72 233.126 1977.99 Q235.024 1980.26 235.024 1983.59 Q235.024 1988.71 231.505 1991.51 Q227.987 1994.31 221.505 1994.31 Q219.329 1994.31 217.015 1993.87 Q214.723 1993.45 212.269 1992.6 L212.269 1988.08 Q214.214 1989.22 216.528 1989.8 Q218.843 1990.37 221.366 1990.37 Q225.764 1990.37 228.056 1988.64 Q230.371 1986.9 230.371 1983.59 Q230.371 1980.54 228.218 1978.82 Q226.089 1977.09 222.269 1977.09 L218.241 1977.09 L218.241 1973.24 L222.454 1973.24 Q225.903 1973.24 227.732 1971.88 Q229.561 1970.49 229.561 1967.9 Q229.561 1965.24 227.663 1963.82 Q225.788 1962.39 222.269 1962.39 Q220.348 1962.39 218.149 1962.8 Q215.95 1963.22 213.311 1964.1 L213.311 1959.93 Q215.973 1959.19 218.288 1958.82 Q220.626 1958.45 222.686 1958.45 Q228.01 1958.45 231.112 1960.88 Q234.213 1963.29 234.213 1967.41 Q234.213 1970.28 232.57 1972.27 Q230.926 1974.24 227.894 1975 Z" fill="#000000" fill-rule="evenodd" fill-opacity="1" /><path clip-path="url(#clip6200)" d="M 0 0 M133.149 1383.5 L145.626 1383.5 L145.626 1387.29 L133.149 1387.29 L133.149 1383.5 Z" fill="#000000" fill-rule="evenodd" fill-opacity="1" /><path clip-path="url(#clip6200)" d="M 0 0 M160.695 1366.9 Q157.084 1366.9 155.256 1370.46 Q153.45 1374.01 153.45 1381.14 Q153.45 1388.24 155.256 1391.81 Q157.084 1395.35 160.695 1395.35 Q164.33 1395.35 166.135 1391.81 Q167.964 1388.24 167.964 1381.14 Q167.964 1374.01 166.135 1370.46 Q164.33 1366.9 160.695 1366.9 M160.695 1363.2 Q166.506 1363.2 169.561 1367.8 Q172.64 1372.39 172.64 1381.14 Q172.64 1389.86 169.561 1394.47 Q166.506 1399.05 160.695 1399.05 Q154.885 1399.05 151.807 1394.47 Q148.751 1389.86 148.751 1381.14 Q148.751 1372.39 151.807 1367.8 Q154.885 1363.2 160.695 1363.2 Z" fill="#000000" fill-rule="evenodd" fill-opacity="1" /><path clip-path="url(#clip6200)" d="M 0 0 M177.709 1392.5 L182.593 1392.5 L182.593 1398.38 L177.709 1398.38 L177.709 1392.5 Z" fill="#000000" fill-rule="evenodd" fill-opacity="1" /><path clip-path="url(#clip6200)" d="M 0 0 M197.663 1366.9 Q194.052 1366.9 192.223 1370.46 Q190.417 1374.01 190.417 1381.14 Q190.417 1388.24 192.223 1391.81 Q194.052 1395.35 197.663 1395.35 Q201.297 1395.35 203.103 1391.81 Q204.931 1388.24 204.931 1381.14 Q204.931 1374.01 203.103 1370.46 Q201.297 1366.9 197.663 1366.9 M197.663 1363.2 Q203.473 1363.2 206.528 1367.8 Q209.607 1372.39 209.607 1381.14 Q209.607 1389.86 206.528 1394.47 Q203.473 1399.05 197.663 1399.05 Q191.853 1399.05 188.774 1394.47 Q185.718 1389.86 185.718 1381.14 Q185.718 1372.39 188.774 1367.8 Q191.853 1363.2 197.663 1363.2 Z" fill="#000000" fill-rule="evenodd" fill-opacity="1" /><path clip-path="url(#clip6200)" d="M 0 0 M218.704 1394.45 L235.024 1394.45 L235.024 1398.38 L213.079 1398.38 L213.079 1394.45 Q215.741 1391.69 220.325 1387.06 Q224.931 1382.41 226.112 1381.07 Q228.357 1378.54 229.237 1376.81 Q230.139 1375.05 230.139 1373.36 Q230.139 1370.6 228.195 1368.87 Q226.274 1367.13 223.172 1367.13 Q220.973 1367.13 218.519 1367.9 Q216.089 1368.66 213.311 1370.21 L213.311 1365.49 Q216.135 1364.35 218.589 1363.77 Q221.042 1363.2 223.079 1363.2 Q228.45 1363.2 231.644 1365.88 Q234.838 1368.57 234.838 1373.06 Q234.838 1375.19 234.028 1377.11 Q233.241 1379.01 231.135 1381.6 Q230.556 1382.27 227.454 1385.49 Q224.352 1388.68 218.704 1394.45 Z" fill="#000000" fill-rule="evenodd" fill-opacity="1" /><path clip-path="url(#clip6200)" d="M 0 0 M132.779 788.241 L145.256 788.241 L145.256 792.037 L132.779 792.037 L132.779 788.241 Z" fill="#000000" fill-rule="evenodd" fill-opacity="1" /><path clip-path="url(#clip6200)" d="M 0 0 M160.325 771.644 Q156.714 771.644 154.885 775.208 Q153.08 778.75 153.08 785.88 Q153.08 792.986 154.885 796.551 Q156.714 800.092 160.325 800.092 Q163.959 800.092 165.765 796.551 Q167.593 792.986 167.593 785.88 Q167.593 778.75 165.765 775.208 Q163.959 771.644 160.325 771.644 M160.325 767.94 Q166.135 767.94 169.191 772.546 Q172.269 777.13 172.269 785.88 Q172.269 794.606 169.191 799.213 Q166.135 803.796 160.325 803.796 Q154.515 803.796 151.436 799.213 Q148.381 794.606 148.381 785.88 Q148.381 777.13 151.436 772.546 Q154.515 767.94 160.325 767.94 Z" fill="#000000" fill-rule="evenodd" fill-opacity="1" /><path clip-path="url(#clip6200)" d="M 0 0 M177.339 797.245 L182.223 797.245 L182.223 803.125 L177.339 803.125 L177.339 797.245 Z" fill="#000000" fill-rule="evenodd" fill-opacity="1" /><path clip-path="url(#clip6200)" d="M 0 0 M197.292 771.644 Q193.681 771.644 191.853 775.208 Q190.047 778.75 190.047 785.88 Q190.047 792.986 191.853 796.551 Q193.681 800.092 197.292 800.092 Q200.927 800.092 202.732 796.551 Q204.561 792.986 204.561 785.88 Q204.561 778.75 202.732 775.208 Q200.927 771.644 197.292 771.644 M197.292 767.94 Q203.103 767.94 206.158 772.546 Q209.237 777.13 209.237 785.88 Q209.237 794.606 206.158 799.213 Q203.103 803.796 197.292 803.796 Q191.482 803.796 188.404 799.213 Q185.348 794.606 185.348 785.88 Q185.348 777.13 188.404 772.546 Q191.482 767.94 197.292 767.94 Z" fill="#000000" fill-rule="evenodd" fill-opacity="1" /><path clip-path="url(#clip6200)" d="M 0 0 M215.116 799.19 L222.755 799.19 L222.755 772.824 L214.445 774.491 L214.445 770.231 L222.709 768.565 L227.385 768.565 L227.385 799.19 L235.024 799.19 L235.024 803.125 L215.116 803.125 L215.116 799.19 Z" fill="#000000" fill-rule="evenodd" fill-opacity="1" /><path clip-path="url(#clip6200)" d="M 0 0 M159.098 176.387 Q155.487 176.387 153.658 179.952 Q151.853 183.493 151.853 190.623 Q151.853 197.73 153.658 201.294 Q155.487 204.836 159.098 204.836 Q162.732 204.836 164.538 201.294 Q166.367 197.73 166.367 190.623 Q166.367 183.493 164.538 179.952 Q162.732 176.387 159.098 176.387 M159.098 172.683 Q164.908 172.683 167.964 177.29 Q171.043 181.873 171.043 190.623 Q171.043 199.35 167.964 203.956 Q164.908 208.54 159.098 208.54 Q153.288 208.54 150.209 203.956 Q147.154 199.35 147.154 190.623 Q147.154 181.873 150.209 177.29 Q153.288 172.683 159.098 172.683 Z" fill="#000000" fill-rule="evenodd" fill-opacity="1" /><path clip-path="url(#clip6200)" d="M 0 0 M176.112 201.989 L180.996 201.989 L180.996 207.868 L176.112 207.868 L176.112 201.989 Z" fill="#000000" fill-rule="evenodd" fill-opacity="1" /><path clip-path="url(#clip6200)" d="M 0 0 M196.066 176.387 Q192.454 176.387 190.626 179.952 Q188.82 183.493 188.82 190.623 Q188.82 197.73 190.626 201.294 Q192.454 204.836 196.066 204.836 Q199.7 204.836 201.505 201.294 Q203.334 197.73 203.334 190.623 Q203.334 183.493 201.505 179.952 Q199.7 176.387 196.066 176.387 M196.066 172.683 Q201.876 172.683 204.931 177.29 Q208.01 181.873 208.01 190.623 Q208.01 199.35 204.931 203.956 Q201.876 208.54 196.066 208.54 Q190.255 208.54 187.177 203.956 Q184.121 199.35 184.121 190.623 Q184.121 181.873 187.177 177.29 Q190.255 172.683 196.066 172.683 Z" fill="#000000" fill-rule="evenodd" fill-opacity="1" /><path clip-path="url(#clip6200)" d="M 0 0 M223.079 176.387 Q219.468 176.387 217.64 179.952 Q215.834 183.493 215.834 190.623 Q215.834 197.73 217.64 201.294 Q219.468 204.836 223.079 204.836 Q226.714 204.836 228.519 201.294 Q230.348 197.73 230.348 190.623 Q230.348 183.493 228.519 179.952 Q226.714 176.387 223.079 176.387 M223.079 172.683 Q228.889 172.683 231.945 177.29 Q235.024 181.873 235.024 190.623 Q235.024 199.35 231.945 203.956 Q228.889 208.54 223.079 208.54 Q217.269 208.54 214.19 203.956 Q211.135 199.35 211.135 190.623 Q211.135 181.873 214.19 177.29 Q217.269 172.683 223.079 172.683 Z" fill="#000000" fill-rule="evenodd" fill-opacity="1" /><path clip-path="url(#clip6200)" d="M 0 0 M476.049 12.096 L484.232 12.096 L484.232 36.8875 L513.966 36.8875 L513.966 12.096 L522.149 12.096 L522.149 72.576 L513.966 72.576 L513.966 43.7741 L484.232 43.7741 L484.232 72.576 L476.049 72.576 L476.049 12.096 Z" fill="#000000" fill-rule="evenodd" fill-opacity="1" /><path clip-path="url(#clip6200)" d="M 0 0 M547.548 32.4315 Q541.552 32.4315 538.069 37.1306 Q534.585 41.7891 534.585 49.9314 Q534.585 58.0738 538.028 62.7728 Q541.512 67.4314 547.548 67.4314 Q553.503 67.4314 556.986 62.7323 Q560.47 58.0333 560.47 49.9314 Q560.47 41.8701 556.986 37.1711 Q553.503 32.4315 547.548 32.4315 M547.548 26.1121 Q557.27 26.1121 562.82 32.4315 Q568.369 38.7509 568.369 49.9314 Q568.369 61.0714 562.82 67.4314 Q557.27 73.7508 547.548 73.7508 Q537.785 73.7508 532.235 67.4314 Q526.726 61.0714 526.726 49.9314 Q526.726 38.7509 532.235 32.4315 Q537.785 26.1121 547.548 26.1121 Z" fill="#000000" fill-rule="evenodd" fill-opacity="1" /><path clip-path="url(#clip6200)" d="M 0 0 M570.84 27.2059 L578.74 27.2059 L592.918 65.2844 L607.096 27.2059 L614.995 27.2059 L597.982 72.576 L587.854 72.576 L570.84 27.2059 Z" fill="#000000" fill-rule="evenodd" fill-opacity="1" /><path clip-path="url(#clip6200)" d="M 0 0 M661.621 48.0275 L661.621 51.6733 L627.351 51.6733 Q627.837 59.3701 631.969 63.421 Q636.141 67.4314 643.554 67.4314 Q647.848 67.4314 651.859 66.3781 Q655.909 65.3249 659.879 63.2184 L659.879 70.267 Q655.869 71.9684 651.656 72.8596 Q647.443 73.7508 643.109 73.7508 Q632.252 73.7508 625.892 67.4314 Q619.573 61.1119 619.573 50.3365 Q619.573 39.1965 625.568 32.6746 Q631.604 26.1121 641.812 26.1121 Q650.967 26.1121 656.274 32.0264 Q661.621 37.9003 661.621 48.0275 M654.168 45.84 Q654.087 39.7232 650.724 36.0774 Q647.403 32.4315 641.893 32.4315 Q635.655 32.4315 631.888 35.9558 Q628.161 39.4801 627.594 45.8805 L654.168 45.84 Z" fill="#000000" fill-rule="evenodd" fill-opacity="1" /><path clip-path="url(#clip6200)" d="M 0 0 M695.73 34.1734 Q694.474 33.4443 692.975 33.1202 Q691.517 32.7556 689.735 32.7556 Q683.415 32.7556 680.012 36.8875 Q676.65 40.9789 676.65 48.6757 L676.65 72.576 L669.156 72.576 L669.156 27.2059 L676.65 27.2059 L676.65 34.2544 Q679 30.1225 682.767 28.1376 Q686.534 26.1121 691.922 26.1121 Q692.692 26.1121 693.623 26.2337 Q694.555 26.3147 695.689 26.5172 L695.73 34.1734 Z" fill="#000000" fill-rule="evenodd" fill-opacity="1" /><path clip-path="url(#clip6200)" d="M 0 0 M703.548 27.2059 L711.002 27.2059 L711.002 72.576 L703.548 72.576 L703.548 27.2059 M703.548 9.54393 L711.002 9.54393 L711.002 18.9825 L703.548 18.9825 L703.548 9.54393 Z" fill="#000000" fill-rule="evenodd" fill-opacity="1" /><path clip-path="url(#clip6200)" d="M 0 0 M756.534 45.1919 L756.534 72.576 L749.08 72.576 L749.08 45.4349 Q749.08 38.994 746.569 35.7938 Q744.057 32.5936 739.034 32.5936 Q732.998 32.5936 729.514 36.4419 Q726.031 40.2903 726.031 46.9338 L726.031 72.576 L718.536 72.576 L718.536 27.2059 L726.031 27.2059 L726.031 34.2544 Q728.704 30.163 732.31 28.1376 Q735.955 26.1121 740.695 26.1121 Q748.513 26.1121 752.524 30.9732 Q756.534 35.7938 756.534 45.1919 Z" fill="#000000" fill-rule="evenodd" fill-opacity="1" /><path clip-path="url(#clip6200)" d="M 0 0 M794.207 49.3643 Q794.207 41.2625 790.845 36.8065 Q787.523 32.3505 781.487 32.3505 Q775.492 32.3505 772.13 36.8065 Q768.808 41.2625 768.808 49.3643 Q768.808 57.4256 772.13 61.8816 Q775.492 66.3376 781.487 66.3376 Q787.523 66.3376 790.845 61.8816 Q794.207 57.4256 794.207 49.3643 M801.661 66.9452 Q801.661 78.5308 796.516 84.1616 Q791.372 89.8329 780.758 89.8329 Q776.829 89.8329 773.345 89.2252 Q769.861 88.6581 766.58 87.4428 L766.58 80.1917 Q769.861 81.9741 773.062 82.8248 Q776.262 83.6755 779.584 83.6755 Q786.916 83.6755 790.562 79.8271 Q794.207 76.0193 794.207 68.282 L794.207 64.5957 Q791.898 68.6061 788.293 70.5911 Q784.688 72.576 779.665 72.576 Q771.32 72.576 766.216 66.2161 Q761.111 59.8562 761.111 49.3643 Q761.111 38.832 766.216 32.472 Q771.32 26.1121 779.665 26.1121 Q784.688 26.1121 788.293 28.0971 Q791.898 30.082 794.207 34.0924 L794.207 27.2059 L801.661 27.2059 L801.661 66.9452 Z" fill="#000000" fill-rule="evenodd" fill-opacity="1" /><path clip-path="url(#clip6200)" d="M 0 0 M831.516 27.2059 L838.97 27.2059 L848.287 62.6108 L857.563 27.2059 L866.354 27.2059 L875.671 62.6108 L884.948 27.2059 L892.401 27.2059 L880.532 72.576 L871.742 72.576 L861.979 35.3887 L852.176 72.576 L843.385 72.576 L831.516 27.2059 Z" fill="#000000" fill-rule="evenodd" fill-opacity="1" /><path clip-path="url(#clip6200)" d="M 0 0 M900.219 27.2059 L907.673 27.2059 L907.673 72.576 L900.219 72.576 L900.219 27.2059 M900.219 9.54393 L907.673 9.54393 L907.673 18.9825 L900.219 18.9825 L900.219 9.54393 Z" fill="#000000" fill-rule="evenodd" fill-opacity="1" /><path clip-path="url(#clip6200)" d="M 0 0 M922.864 14.324 L922.864 27.2059 L938.217 27.2059 L938.217 32.9987 L922.864 32.9987 L922.864 57.6282 Q922.864 63.1779 924.363 64.7578 Q925.902 66.3376 930.561 66.3376 L938.217 66.3376 L938.217 72.576 L930.561 72.576 Q921.932 72.576 918.651 69.3758 Q915.37 66.1351 915.37 57.6282 L915.37 32.9987 L909.901 32.9987 L909.901 27.2059 L915.37 27.2059 L915.37 14.324 L922.864 14.324 Z" fill="#000000" fill-rule="evenodd" fill-opacity="1" /><path clip-path="url(#clip6200)" d="M 0 0 M983.749 45.1919 L983.749 72.576 L976.295 72.576 L976.295 45.4349 Q976.295 38.994 973.784 35.7938 Q971.272 32.5936 966.249 32.5936 Q960.213 32.5936 956.73 36.4419 Q953.246 40.2903 953.246 46.9338 L953.246 72.576 L945.752 72.576 L945.752 9.54393 L953.246 9.54393 L953.246 34.2544 Q955.919 30.163 959.525 28.1376 Q963.171 26.1121 967.91 26.1121 Q975.728 26.1121 979.739 30.9732 Q983.749 35.7938 983.749 45.1919 Z" fill="#000000" fill-rule="evenodd" fill-opacity="1" /><path clip-path="url(#clip6200)" d="M 0 0 M1041.47 19.2256 L1020.81 51.5113 L1041.47 51.5113 L1041.47 19.2256 M1039.33 12.096 L1049.62 12.096 L1049.62 51.5113 L1058.25 51.5113 L1058.25 58.3168 L1049.62 58.3168 L1049.62 72.576 L1041.47 72.576 L1041.47 58.3168 L1014.17 58.3168 L1014.17 50.4176 L1039.33 12.096 Z" fill="#000000" fill-rule="evenodd" fill-opacity="1" /><path clip-path="url(#clip6200)" d="M 0 0 M1117.31 17.6457 Q1108.4 17.6457 1103.13 24.2892 Q1097.9 30.9327 1097.9 42.3968 Q1097.9 53.8203 1103.13 60.4638 Q1108.4 67.1073 1117.31 67.1073 Q1126.22 67.1073 1131.4 60.4638 Q1136.63 53.8203 1136.63 42.3968 Q1136.63 30.9327 1131.4 24.2892 Q1126.22 17.6457 1117.31 17.6457 M1128.77 71.4823 L1139.55 83.2704 L1129.66 83.2704 L1120.71 73.5887 Q1119.37 73.6697 1118.64 73.7103 Q1117.96 73.7508 1117.31 73.7508 Q1104.55 73.7508 1096.89 65.2439 Q1089.28 56.6965 1089.28 42.3968 Q1089.28 28.0566 1096.89 19.5497 Q1104.55 11.0023 1117.31 11.0023 Q1130.03 11.0023 1137.64 19.5497 Q1145.26 28.0566 1145.26 42.3968 Q1145.26 52.9291 1141.01 60.4233 Q1136.79 67.9175 1128.77 71.4823 Z" fill="#000000" fill-rule="evenodd" fill-opacity="1" /><path clip-path="url(#clip6200)" d="M 0 0 M1152.31 54.671 L1152.31 27.2059 L1159.76 27.2059 L1159.76 54.3874 Q1159.76 60.8284 1162.27 64.0691 Q1164.78 67.2693 1169.81 67.2693 Q1175.84 67.2693 1179.33 63.421 Q1182.85 59.5726 1182.85 52.9291 L1182.85 27.2059 L1190.3 27.2059 L1190.3 72.576 L1182.85 72.576 L1182.85 65.6084 Q1180.14 69.7404 1176.53 71.7658 Q1172.97 73.7508 1168.23 73.7508 Q1160.41 73.7508 1156.36 68.8897 Q1152.31 64.0286 1152.31 54.671 M1171.06 26.1121 L1171.06 26.1121 Z" fill="#000000" fill-rule="evenodd" fill-opacity="1" /><path clip-path="url(#clip6200)" d="M 0 0 M1218.74 49.7694 Q1209.71 49.7694 1206.22 51.8354 Q1202.74 53.9013 1202.74 58.8839 Q1202.74 62.8538 1205.33 65.2034 Q1207.97 67.5124 1212.46 67.5124 Q1218.66 67.5124 1222.39 63.1374 Q1226.16 58.7219 1226.16 51.4303 L1226.16 49.7694 L1218.74 49.7694 M1233.61 46.6907 L1233.61 72.576 L1226.16 72.576 L1226.16 65.6895 Q1223.6 69.8214 1219.8 71.8063 Q1215.99 73.7508 1210.48 73.7508 Q1203.51 73.7508 1199.38 69.8619 Q1195.29 65.9325 1195.29 59.3701 Q1195.29 51.7138 1200.39 47.825 Q1205.54 43.9361 1215.7 43.9361 L1226.16 43.9361 L1226.16 43.2069 Q1226.16 38.0623 1222.75 35.2672 Q1219.39 32.4315 1213.27 32.4315 Q1209.38 32.4315 1205.7 33.3632 Q1202.01 34.295 1198.61 36.1584 L1198.61 29.2718 Q1202.7 27.692 1206.55 26.9223 Q1210.4 26.1121 1214.04 26.1121 Q1223.89 26.1121 1228.75 31.2163 Q1233.61 36.3204 1233.61 46.6907 Z" fill="#000000" fill-rule="evenodd" fill-opacity="1" /><path clip-path="url(#clip6200)" d="M 0 0 M1271.28 34.0924 L1271.28 9.54393 L1278.74 9.54393 L1278.74 72.576 L1271.28 72.576 L1271.28 65.7705 Q1268.93 69.8214 1265.33 71.8063 Q1261.76 73.7508 1256.74 73.7508 Q1248.52 73.7508 1243.33 67.1883 Q1238.19 60.6258 1238.19 49.9314 Q1238.19 39.2371 1243.33 32.6746 Q1248.52 26.1121 1256.74 26.1121 Q1261.76 26.1121 1265.33 28.0971 Q1268.93 30.0415 1271.28 34.0924 M1245.88 49.9314 Q1245.88 58.1548 1249.25 62.8538 Q1252.65 67.5124 1258.56 67.5124 Q1264.48 67.5124 1267.88 62.8538 Q1271.28 58.1548 1271.28 49.9314 Q1271.28 41.7081 1267.88 37.0496 Q1264.48 32.3505 1258.56 32.3505 Q1252.65 32.3505 1249.25 37.0496 Q1245.88 41.7081 1245.88 49.9314 Z" fill="#000000" fill-rule="evenodd" fill-opacity="1" /><path clip-path="url(#clip6200)" d="M 0 0 M1312.84 34.1734 Q1311.59 33.4443 1310.09 33.1202 Q1308.63 32.7556 1306.85 32.7556 Q1300.53 32.7556 1297.13 36.8875 Q1293.76 40.9789 1293.76 48.6757 L1293.76 72.576 L1286.27 72.576 L1286.27 27.2059 L1293.76 27.2059 L1293.76 34.2544 Q1296.11 30.1225 1299.88 28.1376 Q1303.65 26.1121 1309.04 26.1121 Q1309.81 26.1121 1310.74 26.2337 Q1311.67 26.3147 1312.8 26.5172 L1312.84 34.1734 Z" fill="#000000" fill-rule="evenodd" fill-opacity="1" /><path clip-path="url(#clip6200)" d="M 0 0 M1336.42 32.4315 Q1330.43 32.4315 1326.94 37.1306 Q1323.46 41.7891 1323.46 49.9314 Q1323.46 58.0738 1326.9 62.7728 Q1330.39 67.4314 1336.42 67.4314 Q1342.38 67.4314 1345.86 62.7323 Q1349.34 58.0333 1349.34 49.9314 Q1349.34 41.8701 1345.86 37.1711 Q1342.38 32.4315 1336.42 32.4315 M1336.42 26.1121 Q1346.14 26.1121 1351.69 32.4315 Q1357.24 38.7509 1357.24 49.9314 Q1357.24 61.0714 1351.69 67.4314 Q1346.14 73.7508 1336.42 73.7508 Q1326.66 73.7508 1321.11 67.4314 Q1315.6 61.0714 1315.6 49.9314 Q1315.6 38.7509 1321.11 32.4315 Q1326.66 26.1121 1336.42 26.1121 Z" fill="#000000" fill-rule="evenodd" fill-opacity="1" /><path clip-path="url(#clip6200)" d="M 0 0 M1372.43 14.324 L1372.43 27.2059 L1387.79 27.2059 L1387.79 32.9987 L1372.43 32.9987 L1372.43 57.6282 Q1372.43 63.1779 1373.93 64.7578 Q1375.47 66.3376 1380.13 66.3376 L1387.79 66.3376 L1387.79 72.576 L1380.13 72.576 Q1371.5 72.576 1368.22 69.3758 Q1364.94 66.1351 1364.94 57.6282 L1364.94 32.9987 L1359.47 32.9987 L1359.47 27.2059 L1364.94 27.2059 L1364.94 14.324 L1372.43 14.324 Z" fill="#000000" fill-rule="evenodd" fill-opacity="1" /><path clip-path="url(#clip6200)" d="M 0 0 M1413.19 32.4315 Q1407.19 32.4315 1403.71 37.1306 Q1400.22 41.7891 1400.22 49.9314 Q1400.22 58.0738 1403.67 62.7728 Q1407.15 67.4314 1413.19 67.4314 Q1419.14 67.4314 1422.62 62.7323 Q1426.11 58.0333 1426.11 49.9314 Q1426.11 41.8701 1422.62 37.1711 Q1419.14 32.4315 1413.19 32.4315 M1413.19 26.1121 Q1422.91 26.1121 1428.46 32.4315 Q1434.01 38.7509 1434.01 49.9314 Q1434.01 61.0714 1428.46 67.4314 Q1422.91 73.7508 1413.19 73.7508 Q1403.42 73.7508 1397.87 67.4314 Q1392.36 61.0714 1392.36 49.9314 Q1392.36 38.7509 1397.87 32.4315 Q1403.42 26.1121 1413.19 26.1121 Z" fill="#000000" fill-rule="evenodd" fill-opacity="1" /><path clip-path="url(#clip6200)" d="M 0 0 M1468.12 34.1734 Q1466.86 33.4443 1465.36 33.1202 Q1463.9 32.7556 1462.12 32.7556 Q1455.8 32.7556 1452.4 36.8875 Q1449.04 40.9789 1449.04 48.6757 L1449.04 72.576 L1441.54 72.576 L1441.54 27.2059 L1449.04 27.2059 L1449.04 34.2544 Q1451.39 30.1225 1455.15 28.1376 Q1458.92 26.1121 1464.31 26.1121 Q1465.08 26.1121 1466.01 26.2337 Q1466.94 26.3147 1468.08 26.5172 L1468.12 34.1734 Z" fill="#000000" fill-rule="evenodd" fill-opacity="1" /><path clip-path="url(#clip6200)" d="M 0 0 M1504.86 28.5427 L1504.86 35.5912 Q1501.7 33.9709 1498.29 33.1607 Q1494.89 32.3505 1491.25 32.3505 Q1485.7 32.3505 1482.9 34.0519 Q1480.15 35.7533 1480.15 39.156 Q1480.15 41.7486 1482.13 43.2475 Q1484.12 44.7058 1490.11 46.0426 L1492.66 46.6097 Q1500.6 48.3111 1503.93 51.4303 Q1507.29 54.509 1507.29 60.0587 Q1507.29 66.3781 1502.26 70.0644 Q1497.28 73.7508 1488.53 73.7508 Q1484.89 73.7508 1480.92 73.0216 Q1476.99 72.3329 1472.61 70.9151 L1472.61 63.2184 Q1476.74 65.3654 1480.75 66.4591 Q1484.76 67.5124 1488.69 67.5124 Q1493.96 67.5124 1496.8 65.73 Q1499.63 63.9071 1499.63 60.6258 Q1499.63 57.5877 1497.57 55.9673 Q1495.54 54.3469 1488.61 52.8481 L1486.02 52.2405 Q1479.09 50.7821 1476.02 47.7845 Q1472.94 44.7463 1472.94 39.4801 Q1472.94 33.0797 1477.47 29.5959 Q1482.01 26.1121 1490.36 26.1121 Q1494.49 26.1121 1498.13 26.7198 Q1501.78 27.3274 1504.86 28.5427 Z" fill="#000000" fill-rule="evenodd" fill-opacity="1" /><path clip-path="url(#clip6200)" d="M 0 0 M1537.71 46.5287 L1559.54 46.5287 L1559.54 53.1722 L1537.71 53.1722 L1537.71 46.5287 Z" fill="#000000" fill-rule="evenodd" fill-opacity="1" /><path clip-path="url(#clip6200)" d="M 0 0 M1614.27 20.1573 L1603.17 50.2555 L1625.41 50.2555 L1614.27 20.1573 M1609.65 12.096 L1618.93 12.096 L1641.98 72.576 L1633.47 72.576 L1627.96 57.061 L1600.7 57.061 L1595.19 72.576 L1586.56 72.576 L1609.65 12.096 Z" fill="#000000" fill-rule="evenodd" fill-opacity="1" /><path clip-path="url(#clip6200)" d="M 0 0 M1679.65 49.3643 Q1679.65 41.2625 1676.29 36.8065 Q1672.97 32.3505 1666.93 32.3505 Q1660.94 32.3505 1657.58 36.8065 Q1654.25 41.2625 1654.25 49.3643 Q1654.25 57.4256 1657.58 61.8816 Q1660.94 66.3376 1666.93 66.3376 Q1672.97 66.3376 1676.29 61.8816 Q1679.65 57.4256 1679.65 49.3643 M1687.11 66.9452 Q1687.11 78.5308 1681.96 84.1616 Q1676.82 89.8329 1666.2 89.8329 Q1662.28 89.8329 1658.79 89.2252 Q1655.31 88.6581 1652.03 87.4428 L1652.03 80.1917 Q1655.31 81.9741 1658.51 82.8248 Q1661.71 83.6755 1665.03 83.6755 Q1672.36 83.6755 1676.01 79.8271 Q1679.65 76.0193 1679.65 68.282 L1679.65 64.5957 Q1677.34 68.6061 1673.74 70.5911 Q1670.13 72.576 1665.11 72.576 Q1656.77 72.576 1651.66 66.2161 Q1646.56 59.8562 1646.56 49.3643 Q1646.56 38.832 1651.66 32.472 Q1656.77 26.1121 1665.11 26.1121 Q1670.13 26.1121 1673.74 28.0971 Q1677.34 30.082 1679.65 34.0924 L1679.65 27.2059 L1687.11 27.2059 L1687.11 66.9452 Z" fill="#000000" fill-rule="evenodd" fill-opacity="1" /><path clip-path="url(#clip6200)" d="M 0 0 M1733.73 48.0275 L1733.73 51.6733 L1699.46 51.6733 Q1699.95 59.3701 1704.08 63.421 Q1708.25 67.4314 1715.67 67.4314 Q1719.96 67.4314 1723.97 66.3781 Q1728.02 65.3249 1731.99 63.2184 L1731.99 70.267 Q1727.98 71.9684 1723.77 72.8596 Q1719.56 73.7508 1715.22 73.7508 Q1704.36 73.7508 1698 67.4314 Q1691.69 61.1119 1691.69 50.3365 Q1691.69 39.1965 1697.68 32.6746 Q1703.72 26.1121 1713.92 26.1121 Q1723.08 26.1121 1728.39 32.0264 Q1733.73 37.9003 1733.73 48.0275 M1726.28 45.84 Q1726.2 39.7232 1722.84 36.0774 Q1719.51 32.4315 1714.01 32.4315 Q1707.77 32.4315 1704 35.9558 Q1700.27 39.4801 1699.71 45.8805 L1726.28 45.84 Z" fill="#000000" fill-rule="evenodd" fill-opacity="1" /><path clip-path="url(#clip6200)" d="M 0 0 M1779.27 45.1919 L1779.27 72.576 L1771.81 72.576 L1771.81 45.4349 Q1771.81 38.994 1769.3 35.7938 Q1766.79 32.5936 1761.77 32.5936 Q1755.73 32.5936 1752.25 36.4419 Q1748.76 40.2903 1748.76 46.9338 L1748.76 72.576 L1741.27 72.576 L1741.27 27.2059 L1748.76 27.2059 L1748.76 34.2544 Q1751.44 30.163 1755.04 28.1376 Q1758.69 26.1121 1763.43 26.1121 Q1771.24 26.1121 1775.26 30.9732 Q1779.27 35.7938 1779.27 45.1919 Z" fill="#000000" fill-rule="evenodd" fill-opacity="1" /><path clip-path="url(#clip6200)" d="M 0 0 M1794.46 14.324 L1794.46 27.2059 L1809.81 27.2059 L1809.81 32.9987 L1794.46 32.9987 L1794.46 57.6282 Q1794.46 63.1779 1795.96 64.7578 Q1797.49 66.3376 1802.15 66.3376 L1809.81 66.3376 L1809.81 72.576 L1802.15 72.576 Q1793.52 72.576 1790.24 69.3758 Q1786.96 66.1351 1786.96 57.6282 L1786.96 32.9987 L1781.49 32.9987 L1781.49 27.2059 L1786.96 27.2059 L1786.96 14.324 L1794.46 14.324 Z" fill="#000000" fill-rule="evenodd" fill-opacity="1" /><path clip-path="url(#clip6200)" d="M 0 0 M1880.58 14.0809 L1880.58 22.0612 Q1875.92 19.8332 1871.79 18.7395 Q1867.66 17.6457 1863.81 17.6457 Q1857.12 17.6457 1853.48 20.2383 Q1849.87 22.8309 1849.87 27.611 Q1849.87 31.6214 1852.26 33.6873 Q1854.69 35.7128 1861.42 36.9686 L1866.36 37.9813 Q1875.52 39.7232 1879.85 44.1387 Q1884.22 48.5136 1884.22 55.8863 Q1884.22 64.6767 1878.31 69.2137 Q1872.44 73.7508 1861.05 73.7508 Q1856.76 73.7508 1851.9 72.7785 Q1847.08 71.8063 1841.89 69.9024 L1841.89 61.4765 Q1846.88 64.2716 1851.66 65.6895 Q1856.44 67.1073 1861.05 67.1073 Q1868.06 67.1073 1871.87 64.3527 Q1875.68 61.598 1875.68 56.4939 Q1875.68 52.0379 1872.92 49.5264 Q1870.21 47.0148 1863.97 45.759 L1858.99 44.7868 Q1849.83 42.9639 1845.74 39.075 Q1841.65 35.1862 1841.65 28.2591 Q1841.65 20.2383 1847.28 15.6203 Q1852.95 11.0023 1862.88 11.0023 Q1867.13 11.0023 1871.55 11.7719 Q1875.96 12.5416 1880.58 14.0809 Z" fill="#000000" fill-rule="evenodd" fill-opacity="1" /><path clip-path="url(#clip6200)" d="M 0 0 M1899.42 14.324 L1899.42 27.2059 L1914.77 27.2059 L1914.77 32.9987 L1899.42 32.9987 L1899.42 57.6282 Q1899.42 63.1779 1900.91 64.7578 Q1902.45 66.3376 1907.11 66.3376 L1914.77 66.3376 L1914.77 72.576 L1907.11 72.576 Q1898.48 72.576 1895.2 69.3758 Q1891.92 66.1351 1891.92 57.6282 L1891.92 32.9987 L1886.45 32.9987 L1886.45 27.2059 L1891.92 27.2059 L1891.92 14.324 L1899.42 14.324 Z" fill="#000000" fill-rule="evenodd" fill-opacity="1" /><path clip-path="url(#clip6200)" d="M 0 0 M1943.21 49.7694 Q1934.17 49.7694 1930.69 51.8354 Q1927.2 53.9013 1927.2 58.8839 Q1927.2 62.8538 1929.8 65.2034 Q1932.43 67.5124 1936.93 67.5124 Q1943.12 67.5124 1946.85 63.1374 Q1950.62 58.7219 1950.62 51.4303 L1950.62 49.7694 L1943.21 49.7694 M1958.07 46.6907 L1958.07 72.576 L1950.62 72.576 L1950.62 65.6895 Q1948.07 69.8214 1944.26 71.8063 Q1940.45 73.7508 1934.94 73.7508 Q1927.97 73.7508 1923.84 69.8619 Q1919.75 65.9325 1919.75 59.3701 Q1919.75 51.7138 1924.86 47.825 Q1930 43.9361 1940.17 43.9361 L1950.62 43.9361 L1950.62 43.2069 Q1950.62 38.0623 1947.22 35.2672 Q1943.85 32.4315 1937.74 32.4315 Q1933.85 32.4315 1930.16 33.3632 Q1926.48 34.295 1923.07 36.1584 L1923.07 29.2718 Q1927.16 27.692 1931.01 26.9223 Q1934.86 26.1121 1938.51 26.1121 Q1948.35 26.1121 1953.21 31.2163 Q1958.07 36.3204 1958.07 46.6907 Z" fill="#000000" fill-rule="evenodd" fill-opacity="1" /><path clip-path="url(#clip6200)" d="M 0 0 M1973.26 14.324 L1973.26 27.2059 L1988.62 27.2059 L1988.62 32.9987 L1973.26 32.9987 L1973.26 57.6282 Q1973.26 63.1779 1974.76 64.7578 Q1976.3 66.3376 1980.96 66.3376 L1988.62 66.3376 L1988.62 72.576 L1980.96 72.576 Q1972.33 72.576 1969.05 69.3758 Q1965.77 66.1351 1965.77 57.6282 L1965.77 32.9987 L1960.3 32.9987 L1960.3 27.2059 L1965.77 27.2059 L1965.77 14.324 L1973.26 14.324 Z" fill="#000000" fill-rule="evenodd" fill-opacity="1" /><path clip-path="url(#clip6200)" d="M 0 0 M2035.24 48.0275 L2035.24 51.6733 L2000.97 51.6733 Q2001.46 59.3701 2005.59 63.421 Q2009.76 67.4314 2017.18 67.4314 Q2021.47 67.4314 2025.48 66.3781 Q2029.53 65.3249 2033.5 63.2184 L2033.5 70.267 Q2029.49 71.9684 2025.28 72.8596 Q2021.06 73.7508 2016.73 73.7508 Q2005.87 73.7508 1999.51 67.4314 Q1993.19 61.1119 1993.19 50.3365 Q1993.19 39.1965 1999.19 32.6746 Q2005.23 26.1121 2015.43 26.1121 Q2024.59 26.1121 2029.9 32.0264 Q2035.24 37.9003 2035.24 48.0275 M2027.79 45.84 Q2027.71 39.7232 2024.35 36.0774 Q2021.02 32.4315 2015.51 32.4315 Q2009.28 32.4315 2005.51 35.9558 Q2001.78 39.4801 2001.21 45.8805 L2027.79 45.84 Z" fill="#000000" fill-rule="evenodd" fill-opacity="1" /><path clip-path="url(#clip6200)" d="M 0 0 M2071.98 28.5427 L2071.98 35.5912 Q2068.82 33.9709 2065.42 33.1607 Q2062.02 32.3505 2058.37 32.3505 Q2052.82 32.3505 2050.03 34.0519 Q2047.27 35.7533 2047.27 39.156 Q2047.27 41.7486 2049.26 43.2475 Q2051.24 44.7058 2057.24 46.0426 L2059.79 46.6097 Q2067.73 48.3111 2071.05 51.4303 Q2074.41 54.509 2074.41 60.0587 Q2074.41 66.3781 2069.39 70.0644 Q2064.41 73.7508 2055.66 73.7508 Q2052.01 73.7508 2048.04 73.0216 Q2044.11 72.3329 2039.74 70.9151 L2039.74 63.2184 Q2043.87 65.3654 2047.88 66.4591 Q2051.89 67.5124 2055.82 67.5124 Q2061.09 67.5124 2063.92 65.73 Q2066.76 63.9071 2066.76 60.6258 Q2066.76 57.5877 2064.69 55.9673 Q2062.67 54.3469 2055.74 52.8481 L2053.15 52.2405 Q2046.22 50.7821 2043.14 47.7845 Q2040.06 44.7463 2040.06 39.4801 Q2040.06 33.0797 2044.6 29.5959 Q2049.14 26.1121 2057.48 26.1121 Q2061.61 26.1121 2065.26 26.7198 Q2068.91 27.3274 2071.98 28.5427 Z" fill="#000000" fill-rule="evenodd" fill-opacity="1" /><path clip-path="url(#clip6200)" d="M 0 0 M2133.48 17.6457 Q2124.56 17.6457 2119.3 24.2892 Q2114.07 30.9327 2114.07 42.3968 Q2114.07 53.8203 2119.3 60.4638 Q2124.56 67.1073 2133.48 67.1073 Q2142.39 67.1073 2147.57 60.4638 Q2152.8 53.8203 2152.8 42.3968 Q2152.8 30.9327 2147.57 24.2892 Q2142.39 17.6457 2133.48 17.6457 M2144.94 71.4823 L2155.72 83.2704 L2145.83 83.2704 L2136.88 73.5887 Q2135.54 73.6697 2134.81 73.7103 Q2134.12 73.7508 2133.48 73.7508 Q2120.72 73.7508 2113.06 65.2439 Q2105.44 56.6965 2105.44 42.3968 Q2105.44 28.0566 2113.06 19.5497 Q2120.72 11.0023 2133.48 11.0023 Q2146.2 11.0023 2153.81 19.5497 Q2161.43 28.0566 2161.43 42.3968 Q2161.43 52.9291 2157.17 60.4233 Q2152.96 67.9175 2144.94 71.4823 Z" fill="#000000" fill-rule="evenodd" fill-opacity="1" /><path clip-path="url(#clip6200)" d="M 0 0 M2167.75 68.12 L2176.01 68.12 L2176.01 43.369 L2166.98 45.0299 L2166.98 40.3308 L2176.29 38.7509 L2181.84 38.7509 L2181.84 68.12 L2190.15 68.12 L2190.15 72.576 L2167.75 72.576 L2167.75 68.12 Z" fill="#000000" fill-rule="evenodd" fill-opacity="1" /><path clip-path="url(#clip6200)" d="M 0 0 M2224.66 12.096 L2262.9 12.096 L2262.9 18.9825 L2232.85 18.9825 L2232.85 36.8875 L2261.65 36.8875 L2261.65 43.7741 L2232.85 43.7741 L2232.85 65.6895 L2263.63 65.6895 L2263.63 72.576 L2224.66 72.576 L2224.66 12.096 Z" fill="#000000" fill-rule="evenodd" fill-opacity="1" /><path clip-path="url(#clip6200)" d="M 0 0 M2297.74 34.1734 Q2296.49 33.4443 2294.99 33.1202 Q2293.53 32.7556 2291.75 32.7556 Q2285.43 32.7556 2282.02 36.8875 Q2278.66 40.9789 2278.66 48.6757 L2278.66 72.576 L2271.17 72.576 L2271.17 27.2059 L2278.66 27.2059 L2278.66 34.2544 Q2281.01 30.1225 2284.78 28.1376 Q2288.55 26.1121 2293.93 26.1121 Q2294.7 26.1121 2295.63 26.2337 Q2296.57 26.3147 2297.7 26.5172 L2297.74 34.1734 Z" fill="#000000" fill-rule="evenodd" fill-opacity="1" /><path clip-path="url(#clip6200)" d="M 0 0 M2330.39 34.1734 Q2329.14 33.4443 2327.64 33.1202 Q2326.18 32.7556 2324.4 32.7556 Q2318.08 32.7556 2314.67 36.8875 Q2311.31 40.9789 2311.31 48.6757 L2311.31 72.576 L2303.82 72.576 L2303.82 27.2059 L2311.31 27.2059 L2311.31 34.2544 Q2313.66 30.1225 2317.43 28.1376 Q2321.2 26.1121 2326.58 26.1121 Q2327.35 26.1121 2328.28 26.2337 Q2329.22 26.3147 2330.35 26.5172 L2330.39 34.1734 Z" fill="#000000" fill-rule="evenodd" fill-opacity="1" /><path clip-path="url(#clip6200)" d="M 0 0 M2353.97 32.4315 Q2347.97 32.4315 2344.49 37.1306 Q2341 41.7891 2341 49.9314 Q2341 58.0738 2344.45 62.7728 Q2347.93 67.4314 2353.97 67.4314 Q2359.92 67.4314 2363.41 62.7323 Q2366.89 58.0333 2366.89 49.9314 Q2366.89 41.8701 2363.41 37.1711 Q2359.92 32.4315 2353.97 32.4315 M2353.97 26.1121 Q2363.69 26.1121 2369.24 32.4315 Q2374.79 38.7509 2374.79 49.9314 Q2374.79 61.0714 2369.24 67.4314 Q2363.69 73.7508 2353.97 73.7508 Q2344.2 73.7508 2338.66 67.4314 Q2333.15 61.0714 2333.15 49.9314 Q2333.15 38.7509 2338.66 32.4315 Q2344.2 26.1121 2353.97 26.1121 Z" fill="#000000" fill-rule="evenodd" fill-opacity="1" /><path clip-path="url(#clip6200)" d="M 0 0 M2408.9 34.1734 Q2407.64 33.4443 2406.14 33.1202 Q2404.68 32.7556 2402.9 32.7556 Q2396.58 32.7556 2393.18 36.8875 Q2389.82 40.9789 2389.82 48.6757 L2389.82 72.576 L2382.32 72.576 L2382.32 27.2059 L2389.82 27.2059 L2389.82 34.2544 Q2392.17 30.1225 2395.93 28.1376 Q2399.7 26.1121 2405.09 26.1121 Q2405.86 26.1121 2406.79 26.2337 Q2407.72 26.3147 2408.86 26.5172 L2408.9 34.1734 Z" fill="#000000" fill-rule="evenodd" fill-opacity="1" /><path clip-path="url(#clip6200)" d="M 0 0 M1324.31 2298.26 L1364.51 2298.26 L1364.51 2303.67 L1347.64 2303.67 L1347.64 2345.78 L1341.18 2345.78 L1341.18 2303.67 L1324.31 2303.67 L1324.31 2298.26 Z" fill="#000000" fill-rule="evenodd" fill-opacity="1" /><path clip-path="url(#clip6200)" d="M 0 0 M1368.65 2310.14 L1374.5 2310.14 L1374.5 2345.78 L1368.65 2345.78 L1368.65 2310.14 M1368.65 2296.26 L1374.5 2296.26 L1374.5 2303.67 L1368.65 2303.67 L1368.65 2296.26 Z" fill="#000000" fill-rule="evenodd" fill-opacity="1" /><path clip-path="url(#clip6200)" d="M 0 0 M1408.4 2316.98 Q1410.6 2313.03 1413.65 2311.15 Q1416.71 2309.28 1420.85 2309.28 Q1426.42 2309.28 1429.44 2313.19 Q1432.46 2317.07 1432.46 2324.27 L1432.46 2345.78 L1426.58 2345.78 L1426.58 2324.46 Q1426.58 2319.33 1424.76 2316.85 Q1422.95 2314.37 1419.22 2314.37 Q1414.67 2314.37 1412.03 2317.39 Q1409.39 2320.42 1409.39 2325.64 L1409.39 2345.78 L1403.5 2345.78 L1403.5 2324.46 Q1403.5 2319.3 1401.69 2316.85 Q1399.87 2314.37 1396.08 2314.37 Q1391.6 2314.37 1388.95 2317.42 Q1386.31 2320.45 1386.31 2325.64 L1386.31 2345.78 L1380.42 2345.78 L1380.42 2310.14 L1386.31 2310.14 L1386.31 2315.67 Q1388.32 2312.4 1391.12 2310.84 Q1393.92 2309.28 1397.77 2309.28 Q1401.65 2309.28 1404.36 2311.25 Q1407.1 2313.22 1408.4 2316.98 Z" fill="#000000" fill-rule="evenodd" fill-opacity="1" /><path clip-path="url(#clip6200)" d="M 0 0 M1469.1 2326.5 L1469.1 2329.36 L1442.17 2329.36 Q1442.55 2335.41 1445.8 2338.59 Q1449.08 2341.74 1454.9 2341.74 Q1458.28 2341.74 1461.43 2340.91 Q1464.61 2340.09 1467.73 2338.43 L1467.73 2343.97 Q1464.58 2345.31 1461.27 2346.01 Q1457.96 2346.71 1454.55 2346.71 Q1446.02 2346.71 1441.03 2341.74 Q1436.06 2336.78 1436.06 2328.31 Q1436.06 2319.56 1440.77 2314.43 Q1445.51 2309.28 1453.53 2309.28 Q1460.73 2309.28 1464.9 2313.92 Q1469.1 2318.54 1469.1 2326.5 M1463.24 2324.78 Q1463.18 2319.97 1460.54 2317.11 Q1457.93 2314.24 1453.6 2314.24 Q1448.7 2314.24 1445.74 2317.01 Q1442.81 2319.78 1442.36 2324.81 L1463.24 2324.78 Z" fill="#000000" fill-rule="evenodd" fill-opacity="1" /><path clip-path="url(#clip6200)" d="M 0 0 M1510.03 2296.32 Q1505.76 2303.64 1503.7 2310.8 Q1501.63 2317.97 1501.63 2325.32 Q1501.63 2332.67 1503.7 2339.9 Q1505.8 2347.09 1510.03 2354.38 L1504.94 2354.38 Q1500.16 2346.9 1497.78 2339.67 Q1495.42 2332.45 1495.42 2325.32 Q1495.42 2318.22 1497.78 2311.03 Q1500.13 2303.83 1504.94 2296.32 L1510.03 2296.32 Z" fill="#000000" fill-rule="evenodd" fill-opacity="1" /><path clip-path="url(#clip6200)" d="M 0 0 M1538.9 2311.19 L1538.9 2316.72 Q1536.42 2315.45 1533.74 2314.81 Q1531.07 2314.18 1528.2 2314.18 Q1523.84 2314.18 1521.65 2315.51 Q1519.48 2316.85 1519.48 2319.53 Q1519.48 2321.56 1521.04 2322.74 Q1522.6 2323.89 1527.31 2324.94 L1529.32 2325.38 Q1535.56 2326.72 1538.17 2329.17 Q1540.81 2331.59 1540.81 2335.95 Q1540.81 2340.91 1536.86 2343.81 Q1532.95 2346.71 1526.07 2346.71 Q1523.21 2346.71 1520.09 2346.13 Q1517 2345.59 1513.56 2344.48 L1513.56 2338.43 Q1516.81 2340.12 1519.96 2340.98 Q1523.11 2341.81 1526.2 2341.81 Q1530.34 2341.81 1532.56 2340.4 Q1534.79 2338.97 1534.79 2336.39 Q1534.79 2334.01 1533.17 2332.73 Q1531.58 2331.46 1526.13 2330.28 L1524.1 2329.81 Q1518.66 2328.66 1516.24 2326.3 Q1513.82 2323.92 1513.82 2319.78 Q1513.82 2314.75 1517.38 2312.01 Q1520.95 2309.28 1527.5 2309.28 Q1530.75 2309.28 1533.61 2309.75 Q1536.48 2310.23 1538.9 2311.19 Z" fill="#000000" fill-rule="evenodd" fill-opacity="1" /><path clip-path="url(#clip6200)" d="M 0 0 M1546.03 2296.32 L1551.12 2296.32 Q1555.89 2303.83 1558.25 2311.03 Q1560.64 2318.22 1560.64 2325.32 Q1560.64 2332.45 1558.25 2339.67 Q1555.89 2346.9 1551.12 2354.38 L1546.03 2354.38 Q1550.26 2347.09 1552.33 2339.9 Q1554.43 2332.67 1554.43 2325.32 Q1554.43 2317.97 1552.33 2310.8 Q1550.26 2303.64 1546.03 2296.32 Z" fill="#000000" fill-rule="evenodd" fill-opacity="1" /><path clip-path="url(#clip6200)" d="M 0 0 M38.4242 1345.18 L38.4242 1315.14 L43.835 1315.14 L43.835 1338.75 L57.9032 1338.75 L57.9032 1316.12 L63.3141 1316.12 L63.3141 1338.75 L80.5333 1338.75 L80.5333 1314.56 L85.9442 1314.56 L85.9442 1345.18 L38.4242 1345.18 Z" fill="#000000" fill-rule="evenodd" fill-opacity="1" /><path clip-path="url(#clip6200)" d="M 0 0 M55.7707 1287.76 Q55.1978 1288.75 54.9432 1289.93 Q54.6567 1291.07 54.6567 1292.47 Q54.6567 1297.44 57.9032 1300.11 Q61.1179 1302.75 67.1653 1302.75 L85.9442 1302.75 L85.9442 1308.64 L50.2962 1308.64 L50.2962 1302.75 L55.8344 1302.75 Q52.5879 1300.91 51.0283 1297.95 Q49.4368 1294.99 49.4368 1290.75 Q49.4368 1290.15 49.5323 1289.42 Q49.596 1288.69 49.7551 1287.79 L55.7707 1287.76 Z" fill="#000000" fill-rule="evenodd" fill-opacity="1" /><path clip-path="url(#clip6200)" d="M 0 0 M55.7707 1262.11 Q55.1978 1263.1 54.9432 1264.27 Q54.6567 1265.42 54.6567 1266.82 Q54.6567 1271.78 57.9032 1274.46 Q61.1179 1277.1 67.1653 1277.1 L85.9442 1277.1 L85.9442 1282.99 L50.2962 1282.99 L50.2962 1277.1 L55.8344 1277.1 Q52.5879 1275.25 51.0283 1272.29 Q49.4368 1269.33 49.4368 1265.1 Q49.4368 1264.5 49.5323 1263.76 Q49.596 1263.03 49.7551 1262.14 L55.7707 1262.11 Z" fill="#000000" fill-rule="evenodd" fill-opacity="1" /><path clip-path="url(#clip6200)" d="M 0 0 M54.4021 1243.58 Q54.4021 1248.3 58.0942 1251.03 Q61.7545 1253.77 68.152 1253.77 Q74.5495 1253.77 78.2417 1251.06 Q81.9019 1248.33 81.9019 1243.58 Q81.9019 1238.91 78.2098 1236.17 Q74.5177 1233.43 68.152 1233.43 Q61.8181 1233.43 58.126 1236.17 Q54.4021 1238.91 54.4021 1243.58 M49.4368 1243.58 Q49.4368 1235.95 54.4021 1231.59 Q59.3673 1227.22 68.152 1227.22 Q76.9049 1227.22 81.9019 1231.59 Q86.8672 1235.95 86.8672 1243.58 Q86.8672 1251.26 81.9019 1255.62 Q76.9049 1259.94 68.152 1259.94 Q59.3673 1259.94 54.4021 1255.62 Q49.4368 1251.26 49.4368 1243.58 Z" fill="#000000" fill-rule="evenodd" fill-opacity="1" /><path clip-path="url(#clip6200)" d="M 0 0 M55.7707 1200.43 Q55.1978 1201.41 54.9432 1202.59 Q54.6567 1203.74 54.6567 1205.14 Q54.6567 1210.1 57.9032 1212.77 Q61.1179 1215.42 67.1653 1215.42 L85.9442 1215.42 L85.9442 1221.3 L50.2962 1221.3 L50.2962 1215.42 L55.8344 1215.42 Q52.5879 1213.57 51.0283 1210.61 Q49.4368 1207.65 49.4368 1203.42 Q49.4368 1202.81 49.5323 1202.08 Q49.596 1201.35 49.7551 1200.46 L55.7707 1200.43 Z" fill="#000000" fill-rule="evenodd" fill-opacity="1" /><path clip-path="url(#clip6200)" d="M 0 0 M42.7847 1154.02 Q42.7847 1161.02 48.0045 1165.16 Q53.2244 1169.27 62.2319 1169.27 Q71.2075 1169.27 76.4274 1165.16 Q81.6473 1161.02 81.6473 1154.02 Q81.6473 1147.02 76.4274 1142.94 Q71.2075 1138.84 62.2319 1138.84 Q53.2244 1138.84 48.0045 1142.94 Q42.7847 1147.02 42.7847 1154.02 M85.0848 1145.01 L94.3469 1136.55 L94.3469 1144.31 L86.7399 1151.35 Q86.8035 1152.4 86.8354 1152.97 Q86.8672 1153.51 86.8672 1154.02 Q86.8672 1164.05 80.1832 1170.06 Q73.4674 1176.04 62.2319 1176.04 Q50.9646 1176.04 44.2806 1170.06 Q37.5648 1164.05 37.5648 1154.02 Q37.5648 1144.03 44.2806 1138.04 Q50.9646 1132.06 62.2319 1132.06 Q70.5073 1132.06 76.3956 1135.4 Q82.2839 1138.71 85.0848 1145.01 Z" fill="#000000" fill-rule="evenodd" fill-opacity="1" /><path clip-path="url(#clip6200)" d="M 0 0 M82.443 1127.09 L82.443 1120.6 L62.9958 1120.6 L64.3008 1127.7 L60.6086 1127.7 L59.3673 1120.38 L59.3673 1116.02 L82.443 1116.02 L82.443 1109.49 L85.9442 1109.49 L85.9442 1127.09 L82.443 1127.09 Z" fill="#000000" fill-rule="evenodd" fill-opacity="1" /><path clip-path="url(#clip6200)" d="M 0 0 M36.4826 1068.56 Q43.8032 1072.82 50.9646 1074.89 Q58.126 1076.96 65.4784 1076.96 Q72.8308 1076.96 80.0559 1074.89 Q87.2491 1072.79 94.5379 1068.56 L94.5379 1073.65 Q87.0582 1078.43 79.8331 1080.81 Q72.608 1083.17 65.4784 1083.17 Q58.3806 1083.17 51.1874 1080.81 Q43.9942 1078.46 36.4826 1073.65 L36.4826 1068.56 Z" fill="#000000" fill-rule="evenodd" fill-opacity="1" /><path clip-path="url(#clip6200)" d="M 0 0 M57.1393 1034.66 Q53.1926 1032.47 51.3147 1029.41 Q49.4368 1026.35 49.4368 1022.22 Q49.4368 1016.65 53.3517 1013.62 Q57.2348 1010.6 64.4281 1010.6 L85.9442 1010.6 L85.9442 1016.49 L64.619 1016.49 Q59.4946 1016.49 57.012 1018.3 Q54.5294 1020.12 54.5294 1023.84 Q54.5294 1028.39 57.5531 1031.03 Q60.5768 1033.68 65.7967 1033.68 L85.9442 1033.68 L85.9442 1039.56 L64.619 1039.56 Q59.4628 1039.56 57.012 1041.38 Q54.5294 1043.19 54.5294 1046.98 Q54.5294 1051.47 57.5849 1054.11 Q60.6086 1056.75 65.7967 1056.75 L85.9442 1056.75 L85.9442 1062.64 L50.2962 1062.64 L50.2962 1056.75 L55.8344 1056.75 Q52.556 1054.75 50.9964 1051.95 Q49.4368 1049.14 49.4368 1045.29 Q49.4368 1041.41 51.4102 1038.7 Q53.3836 1035.97 57.1393 1034.66 Z" fill="#000000" fill-rule="evenodd" fill-opacity="1" /><path clip-path="url(#clip6200)" d="M 0 0 M36.4826 1005.38 L36.4826 1000.29 Q43.9942 995.513 51.1874 993.158 Q58.3806 990.771 65.4784 990.771 Q72.608 990.771 79.8331 993.158 Q87.0582 995.513 94.5379 1000.29 L94.5379 1005.38 Q87.2491 1001.15 80.0559 999.078 Q72.8308 996.977 65.4784 996.977 Q58.126 996.977 50.9646 999.078 Q43.8032 1001.15 36.4826 1005.38 Z" fill="#000000" fill-rule="evenodd" fill-opacity="1" /><polyline clip-path="url(#clip6202)" style="stroke:#009af9; stroke-width:16; stroke-opacity:1; fill:none" points="
  333.559,190.588 344.648,190.588 355.737,251.364 366.826,386.226 377.915,635.84 389.004,995.196 400.093,1394.46 411.183,1744.74 422.272,1989.23 433.361,2117.3 
  444.45,2146.22 455.539,2101.5 466.628,2006.36 477.718,1878.99 488.807,1732.91 499.896,1577.92 510.985,1421.09 522.074,1267.47 533.163,1120.58 544.252,982.782 
  555.342,855.616 566.431,739.968 577.52,636.25 588.609,544.547 599.698,464.683 610.787,396.326 621.876,338.994 632.966,292.13 644.055,255.08 655.144,227.147 
  666.233,207.565 677.322,195.546 688.411,190.262 699.501,190.889 710.59,196.593 721.679,206.573 732.768,220.044 743.857,236.281 754.946,254.595 766.035,274.368 
  777.125,295.035 788.214,316.101 799.303,337.128 810.392,357.74 821.481,377.618 832.57,396.492 843.659,414.141 854.749,430.382 865.838,445.072 876.927,458.087 
  888.016,469.344 899.105,478.759 910.194,486.291 921.284,491.876 932.373,495.504 943.462,497.118 954.551,496.731 965.64,494.285 976.729,489.816 987.818,483.258 
  998.908,474.677 1010,464.004 1021.09,451.345 1032.17,436.629 1043.26,420.018 1054.35,401.452 1065.44,381.152 1076.53,369.913 1087.62,357.069 1098.71,336.178 
  1109.8,317.879 1120.89,301.951 1131.98,288.165 1143.07,276.276 1154.16,266.069 1165.24,257.325 1176.33,249.868 1187.42,243.516 1198.51,238.132 1209.6,233.574 
  1220.69,229.736 1231.78,226.511 1242.87,223.821 1253.96,221.584 1265.05,219.744 1276.14,218.242 1287.23,217.036 1298.31,216.083 1309.4,215.351 1320.49,214.81 
  1331.58,214.436 1342.67,214.205 1353.76,214.099 1364.85,214.099 1375.94,214.19 1387.03,214.358 1398.12,214.589 1409.21,214.871 1420.3,215.191 1431.38,215.538 
  1442.47,215.903 1453.56,216.274 1464.65,216.643 1475.74,216.999 1486.83,217.335 1497.92,217.643 1509.01,217.915 1520.1,218.145 1531.19,218.327 1542.28,218.455 
  1553.37,218.525 1564.45,218.534 1575.54,218.479 1586.63,218.356 1597.72,218.166 1608.81,217.908 1619.9,217.582 1630.99,217.189 1642.08,216.731 1653.17,216.21 
  1664.26,215.629 1675.35,214.992 1686.43,214.303 1697.52,213.567 1708.61,212.788 1719.7,211.972 1730.79,211.124 1741.88,210.249 1752.97,209.355 1764.06,208.445 
  1775.15,207.526 1786.24,206.604 1797.33,205.683 1808.42,204.769 1819.5,203.867 1830.59,202.981 1841.68,202.116 1852.77,201.276 1863.86,200.463 1874.95,199.682 
  1886.04,198.934 1897.13,198.221 1908.22,197.547 1919.31,196.91 1930.4,196.314 1941.49,195.757 1952.57,195.24 1963.66,194.763 1974.75,194.325 1985.84,193.924 
  1996.93,193.561 2008.02,193.233 2019.11,192.939 2030.2,192.677 2041.29,192.445 2052.38,192.242 2063.47,192.064 2074.56,191.911 2085.64,191.78 2096.73,191.67 
  2107.82,191.578 2118.91,191.505 2130,191.447 2141.09,191.404 2152.18,191.376 2163.27,191.362 2174.36,191.361 2185.45,191.374 2196.54,191.4 2207.62,191.441 
  2218.71,191.498 2229.8,191.571 2240.89,191.662 2251.98,191.773 2263.07,191.906 2274.16,192.062 2285.25,192.243 2296.34,192.452 2307.43,192.691 2318.52,192.961 
  2329.61,193.265 2340.69,193.602 2351.78,193.975 2362.87,194.384 2373.96,194.828 2385.05,195.306 2396.14,195.817 2407.23,196.358 2418.32,196.923 2429.41,197.509 
  2440.5,198.108 2451.59,198.714 2462.68,199.315 2473.76,199.903 2484.85,200.462 2495.94,200.985 2507.03,201.45 2518.12,201.85 2529.21,202.162 2540.3,202.384 
  2551.39,202.492 
  "/>
<polyline clip-path="url(#clip6202)" style="stroke:#e26f46; stroke-width:16; stroke-opacity:1; fill:none" points="
  333.559,190.588 344.648,190.588 355.737,1120.64 366.826,1933.53 377.915,1836.01 389.004,1393.27 400.093,1027.88 411.183,794.439 422.272,656.123 433.361,574.489 
  444.45,526.337 455.539,497.592 466.628,481.192 477.718,472.418 488.807,469.058 499.896,469.294 510.985,472.317 522.074,477.316 533.163,483.915 544.252,491.707 
  555.342,500.468 566.431,509.968 577.52,520.042 588.609,530.544 599.698,541.34 610.787,552.321 621.876,563.37 632.966,574.395 644.055,585.29 655.144,595.974 
  666.233,606.347 677.322,616.336 688.411,625.852 699.501,634.826 710.59,643.182 721.679,650.861 732.768,657.799 743.857,663.946 754.946,669.251 766.035,673.676 
  777.125,677.182 788.214,679.74 799.303,681.323 810.392,681.91 821.481,681.48 832.57,680.02 843.659,677.514 854.749,673.953 865.838,669.325 876.927,663.62 
  888.016,656.83 899.105,648.944 910.194,639.955 921.284,629.852 932.373,618.629 943.462,606.277 954.551,592.793 965.64,578.17 976.729,562.416 987.818,545.531 
  998.908,527.536 1010,508.447 1021.09,488.307 1032.17,467.155 1043.26,445.064 1054.35,422.11 1065.44,398.409 1076.53,385.504 1087.62,372.257 1098.71,350.43 
  1109.8,331.168 1120.89,314.249 1131.98,299.445 1143.07,286.534 1154.16,275.306 1165.24,265.568 1176.33,257.143 1187.42,249.869 1198.51,243.603 1209.6,238.217 
  1220.69,233.598 1231.78,229.646 1242.87,226.274 1253.96,223.405 1265.05,220.974 1276.14,218.922 1287.23,217.2 1298.31,215.764 1309.4,214.578 1320.49,213.608 
  1331.58,212.828 1342.67,212.211 1353.76,211.737 1364.85,211.386 1375.94,211.142 1387.03,210.99 1398.12,210.915 1409.21,210.905 1420.3,210.949 1431.38,211.034 
  1442.47,211.151 1453.56,211.291 1464.65,211.444 1475.74,211.601 1486.83,211.754 1497.92,211.896 1509.01,212.02 1520.1,212.119 1531.19,212.187 1542.28,212.219 
  1553.37,212.211 1564.45,212.159 1575.54,212.059 1586.63,211.909 1597.72,211.707 1608.81,211.452 1619.9,211.144 1630.99,210.784 1642.08,210.372 1653.17,209.91 
  1664.26,209.401 1675.35,208.847 1686.43,208.252 1697.52,207.619 1708.61,206.953 1719.7,206.258 1730.79,205.538 1741.88,204.799 1752.97,204.044 1764.06,203.28 
  1775.15,202.51 1786.24,201.74 1797.33,200.974 1808.42,200.217 1819.5,199.472 1830.59,198.743 1841.68,198.035 1852.77,197.349 1863.86,196.689 1874.95,196.057 
  1886.04,195.456 1897.13,194.886 1908.22,194.349 1919.31,193.847 1930.4,193.378 1941.49,192.944 1952.57,192.545 1963.66,192.179 1974.75,191.846 1985.84,191.545 
  1996.93,191.274 2008.02,191.033 2019.11,190.819 2030.2,190.631 2041.29,190.467 2052.38,190.325 2063.47,190.203 2074.56,190.099 2085.64,190.012 2096.73,189.94 
  2107.82,189.881 2118.91,189.833 2130,189.796 2141.09,189.767 2152.18,189.747 2163.27,189.734 2174.36,189.727 2185.45,189.727 2196.54,189.733 2207.62,189.745 
  2218.71,189.765 2229.8,189.791 2240.89,189.825 2251.98,189.868 2263.07,189.921 2274.16,189.985 2285.25,190.061 2296.34,190.151 2307.43,190.256 2318.52,190.378 
  2329.61,190.517 2340.69,190.674 2351.78,190.85 2362.87,191.046 2373.96,191.262 2385.05,191.497 2396.14,191.75 2407.23,192.022 2418.32,192.307 2429.41,192.606 
  2440.5,192.914 2451.59,193.227 2462.68,193.538 2473.76,193.845 2484.85,194.137 2495.94,194.412 2507.03,194.656 2518.12,194.867 2529.21,195.032 2540.3,195.149 
  2551.39,195.206 
  "/>
<polyline clip-path="url(#clip6202)" style="stroke:#3da44d; stroke-width:16; stroke-opacity:1; fill:none" points="
  333.559,190.588 344.648,190.588 355.737,392.521 366.826,764.974 377.915,1173.1 389.004,1510.03 400.093,1743.66 411.183,1889.11 422.272,1965.89 433.361,1985.56 
  444.45,1956.16 455.539,1886.22 466.628,1785.47 477.718,1663.57 488.807,1529.11 499.896,1389.12 510.985,1249.05 522.074,1112.94 533.163,983.671 544.252,863.171 
  555.342,752.644 566.431,652.745 577.52,563.707 588.609,485.478 599.698,417.78 610.787,360.206 621.876,312.23 632.966,273.274 644.055,242.688 655.144,219.807 
  666.233,203.919 677.322,194.316 688.411,190.266 699.501,191.06 710.59,195.988 721.679,204.38 732.768,215.588 743.857,229.017 754.946,244.105 766.035,260.355 
  777.125,277.31 788.214,294.573 799.303,311.792 810.392,328.669 821.481,344.946 832.57,360.408 843.659,374.878 854.749,388.205 865.838,400.273 876.927,410.979 
  888.016,420.253 899.105,428.02 910.194,434.242 921.284,438.858 932.373,441.853 943.462,443.169 954.551,442.809 965.64,440.711 976.729,436.9 987.818,431.306 
  998.908,423.98 1010,414.848 1021.09,404.004 1032.17,391.375 1043.26,377.112 1054.35,361.162 1065.44,343.75 1076.53,334.152 1087.62,323.209 1098.71,305.56 
  1109.8,290.244 1120.89,277.036 1131.98,265.711 1143.07,256.037 1154.16,247.814 1165.24,240.839 1176.33,234.953 1187.42,229.992 1198.51,225.834 1209.6,222.354 
  1220.69,219.461 1231.78,217.062 1242.87,215.091 1253.96,213.48 1265.05,212.183 1276.14,211.151 1287.23,210.35 1298.31,209.746 1309.4,209.315 1320.49,209.031 
  1331.58,208.877 1342.67,208.834 1353.76,208.888 1364.85,209.023 1375.94,209.229 1387.03,209.492 1398.12,209.803 1409.21,210.149 1420.3,210.523 1431.38,210.912 
  1442.47,211.31 1453.56,211.706 1464.65,212.093 1475.74,212.461 1486.83,212.805 1497.92,213.116 1509.01,213.389 1520.1,213.616 1531.19,213.795 1542.28,213.918 
  1553.37,213.984 1564.45,213.989 1575.54,213.931 1586.63,213.808 1597.72,213.62 1608.81,213.366 1619.9,213.048 1630.99,212.667 1642.08,212.226 1653.17,211.726 
  1664.26,211.172 1675.35,210.568 1686.43,209.917 1697.52,209.224 1708.61,208.495 1719.7,207.735 1730.79,206.949 1741.88,206.142 1752.97,205.321 1764.06,204.491 
  1775.15,203.657 1786.24,202.824 1797.33,201.998 1808.42,201.184 1819.5,200.386 1830.59,199.607 1841.68,198.853 1852.77,198.126 1863.86,197.43 1874.95,196.766 
  1886.04,196.137 1897.13,195.545 1908.22,194.99 1919.31,194.474 1930.4,193.997 1941.49,193.558 1952.57,193.158 1963.66,192.795 1974.75,192.469 1985.84,192.177 
  1996.93,191.919 2008.02,191.693 2019.11,191.495 2030.2,191.325 2041.29,191.18 2052.38,191.058 2063.47,190.956 2074.56,190.872 2085.64,190.803 2096.73,190.749 
  2107.82,190.706 2118.91,190.673 2130,190.648 2141.09,190.63 2152.18,190.617 2163.27,190.609 2174.36,190.606 2185.45,190.606 2196.54,190.61 2207.62,190.618 
  2218.71,190.631 2229.8,190.648 2240.89,190.673 2251.98,190.704 2263.07,190.745 2274.16,190.797 2285.25,190.861 2296.34,190.94 2307.43,191.035 2318.52,191.148 
  2329.61,191.281 2340.69,191.436 2351.78,191.613 2362.87,191.814 2373.96,192.038 2385.05,192.287 2396.14,192.56 2407.23,192.854 2418.32,193.168 2429.41,193.5 
  2440.5,193.844 2451.59,194.197 2462.68,194.551 2473.76,194.902 2484.85,195.239 2495.94,195.556 2507.03,195.841 2518.12,196.088 2529.21,196.282 2540.3,196.421 
  2551.39,196.49 
  "/>
<polyline clip-path="url(#clip6202)" style="stroke:#c271d2; stroke-width:16; stroke-opacity:1; fill:none" points="
  333.559,190.588 344.648,190.588 355.737,902.967 366.826,1568.02 377.915,1584.8 389.004,1338.21 400.093,1097.21 411.183,901.539 422.272,742.401 433.361,607.63 
  444.45,493.025 455.539,396.483 466.628,318.555 477.718,259.235 488.807,219.081 499.896,197.571 510.985,194.208 522.074,207.368 533.163,235.408 544.252,275.74 
  555.342,326.005 566.431,383.247 577.52,445.071 588.609,508.836 599.698,572.662 610.787,634.633 621.876,693.581 632.966,748.358 644.055,798.415 655.144,843.205 
  666.233,882.599 677.322,916.45 688.411,944.883 699.501,967.992 710.59,986.04 721.679,999.256 732.768,1007.97 743.857,1012.47 754.946,1013.12 766.035,1010.21 
  777.125,1004.1 788.214,995.096 799.303,983.499 810.392,969.596 821.481,953.66 832.57,935.937 843.659,916.66 854.749,896.033 865.838,874.248 876.927,851.469 
  888.016,827.847 899.105,803.507 910.194,778.565 921.284,753.115 932.373,727.239 943.462,701.005 954.551,674.473 965.64,647.689 976.729,620.701 987.818,593.54 
  998.908,566.251 1010,538.863 1021.09,511.425 1032.17,483.971 1043.26,456.566 1054.35,429.256 1065.44,402.116 1076.53,387.672 1087.62,373.07 1098.71,349.143 
  1109.8,328.151 1120.89,309.848 1131.98,293.968 1143.07,280.245 1154.16,268.429 1165.24,258.287 1176.33,249.608 1187.42,242.202 1198.51,235.899 1209.6,230.548 
  1220.69,226.018 1231.78,222.192 1242.87,218.971 1253.96,216.268 1265.05,214.008 1276.14,212.127 1287.23,210.571 1298.31,209.293 1309.4,208.253 1320.49,207.419 
  1331.58,206.761 1342.67,206.256 1353.76,205.882 1364.85,205.623 1375.94,205.462 1387.03,205.386 1398.12,205.383 1409.21,205.441 1420.3,205.551 1431.38,205.704 
  1442.47,205.89 1453.56,206.101 1464.65,206.329 1475.74,206.566 1486.83,206.806 1497.92,207.041 1509.01,207.265 1520.1,207.471 1531.19,207.654 1542.28,207.808 
  1553.37,207.929 1564.45,208.012 1575.54,208.055 1586.63,208.053 1597.72,208.005 1608.81,207.909 1619.9,207.765 1630.99,207.572 1642.08,207.33 1653.17,207.041 
  1664.26,206.706 1675.35,206.327 1686.43,205.908 1697.52,205.45 1708.61,204.959 1719.7,204.437 1730.79,203.888 1741.88,203.318 1752.97,202.73 1764.06,202.129 
  1775.15,201.519 1786.24,200.905 1797.33,200.291 1808.42,199.681 1819.5,199.08 1830.59,198.49 1841.68,197.915 1852.77,197.359 1863.86,196.824 1874.95,196.311 
  1886.04,195.825 1897.13,195.365 1908.22,194.933 1919.31,194.53 1930.4,194.157 1941.49,193.814 1952.57,193.5 1963.66,193.216 1974.75,192.96 1985.84,192.731 
  1996.93,192.529 2008.02,192.352 2019.11,192.198 2030.2,192.066 2041.29,191.954 2052.38,191.86 2063.47,191.782 2074.56,191.719 2085.64,191.668 2096.73,191.629 
  2107.82,191.598 2118.91,191.575 2130,191.559 2141.09,191.547 2152.18,191.54 2163.27,191.535 2174.36,191.533 2185.45,191.533 2196.54,191.534 2207.62,191.537 
  2218.71,191.542 2229.8,191.548 2240.89,191.557 2251.98,191.569 2263.07,191.585 2274.16,191.606 2285.25,191.633 2296.34,191.667 2307.43,191.709 2318.52,191.761 
  2329.61,191.823 2340.69,191.897 2351.78,191.983 2362.87,192.082 2373.96,192.194 2385.05,192.32 2396.14,192.459 2407.23,192.611 2418.32,192.775 2429.41,192.949 
  2440.5,193.13 2451.59,193.317 2462.68,193.506 2473.76,193.693 2484.85,193.874 2495.94,194.044 2507.03,194.198 2518.12,194.331 2529.21,194.436 2540.3,194.511 
  2551.39,194.548 
  "/>
<polyline clip-path="url(#clip6202)" style="stroke:#ac8d18; stroke-width:16; stroke-opacity:1; fill:none" points="
  333.559,190.588 344.648,190.588 355.737,300.534 366.826,387.37 377.915,343.431 389.004,261.603 400.093,210.573 411.183,192.283 422.272,191.416 433.361,196.324 
  444.45,201.72 455.539,205.718 466.628,208.093 477.718,209.084 488.807,209.108 499.896,208.527 510.985,207.649 522.074,206.696 533.163,205.82 544.252,205.113 
  555.342,204.63 566.431,204.389 577.52,204.395 588.609,204.631 599.698,205.081 610.787,205.709 621.876,206.485 632.966,207.364 644.055,208.31 655.144,209.275 
  666.233,210.224 677.322,211.116 688.411,211.922 699.501,212.615 710.59,213.178 721.679,213.595 732.768,213.862 743.857,213.975 754.946,213.94 766.035,213.764 
  777.125,213.456 788.214,213.03 799.303,212.501 810.392,211.882 821.481,211.19 832.57,210.44 843.659,209.646 854.749,208.822 865.838,207.98 876.927,207.132 
  888.016,206.287 899.105,205.454 910.194,204.641 921.284,203.853 932.373,203.095 943.462,202.371 954.551,201.684 965.64,201.034 976.729,200.423 987.818,199.851 
  998.908,199.318 1010,198.822 1021.09,198.362 1032.17,197.936 1043.26,197.545 1054.35,197.189 1065.44,196.876 1076.53,196.63 1087.62,196.413 1098.71,196.187 
  1109.8,195.969 1120.89,195.766 1131.98,195.578 1143.07,195.402 1154.16,195.238 1165.24,195.083 1176.33,194.937 1187.42,194.798 1198.51,194.664 1209.6,194.535 
  1220.69,194.411 1231.78,194.289 1242.87,194.171 1253.96,194.054 1265.05,193.94 1276.14,193.828 1287.23,193.717 1298.31,193.608 1309.4,193.5 1320.49,193.393 
  1331.58,193.289 1342.67,193.185 1353.76,193.083 1364.85,192.983 1375.94,192.885 1387.03,192.788 1398.12,192.694 1409.21,192.601 1420.3,192.511 1431.38,192.422 
  1442.47,192.337 1453.56,192.253 1464.65,192.172 1475.74,192.094 1486.83,192.018 1497.92,191.945 1509.01,191.874 1520.1,191.806 1531.19,191.74 1542.28,191.677 
  1553.37,191.617 1564.45,191.56 1575.54,191.505 1586.63,191.452 1597.72,191.402 1608.81,191.354 1619.9,191.309 1630.99,191.265 1642.08,191.224 1653.17,191.185 
  1664.26,191.149 1675.35,191.114 1686.43,191.081 1697.52,191.05 1708.61,191.02 1719.7,190.993 1730.79,190.967 1741.88,190.942 1752.97,190.919 1764.06,190.897 
  1775.15,190.876 1786.24,190.857 1797.33,190.839 1808.42,190.822 1819.5,190.806 1830.59,190.791 1841.68,190.777 1852.77,190.763 1863.86,190.751 1874.95,190.739 
  1886.04,190.728 1897.13,190.718 1908.22,190.708 1919.31,190.699 1930.4,190.69 1941.49,190.682 1952.57,190.675 1963.66,190.668 1974.75,190.661 1985.84,190.655 
  1996.93,190.649 2008.02,190.643 2019.11,190.638 2030.2,190.633 2041.29,190.628 2052.38,190.623 2063.47,190.619 2074.56,190.615 2085.64,190.611 2096.73,190.608 
  2107.82,190.604 2118.91,190.601 2130,190.598 2141.09,190.595 2152.18,190.592 2163.27,190.59 2174.36,190.587 2185.45,190.585 2196.54,190.582 2207.62,190.58 
  2218.71,190.578 2229.8,190.576 2240.89,190.574 2251.98,190.572 2263.07,190.57 2274.16,190.569 2285.25,190.567 2296.34,190.565 2307.43,190.564 2318.52,190.562 
  2329.61,190.561 2340.69,190.56 2351.78,190.558 2362.87,190.557 2373.96,190.556 2385.05,190.555 2396.14,190.554 2407.23,190.553 2418.32,190.552 2429.41,190.551 
  2440.5,190.55 2451.59,190.549 2462.68,190.549 2473.76,190.548 2484.85,190.548 2495.94,190.547 2507.03,190.547 2518.12,190.547 2529.21,190.546 2540.3,190.546 
  2551.39,190.546 
  "/>
<path clip-path="url(#clip6200)" d="
M2713.92 625.432 L3184.76 625.432 L3184.76 262.552 L2713.92 262.552  Z
  " fill="#ffffff" fill-rule="evenodd" fill-opacity="1"/>
<polyline clip-path="url(#clip6200)" style="stroke:#000000; stroke-width:4; stroke-opacity:1; fill:none" points="
  2713.92,625.432 3184.76,625.432 3184.76,262.552 2713.92,262.552 2713.92,625.432 
  "/>
<polyline clip-path="url(#clip6200)" style="stroke:#009af9; stroke-width:16; stroke-opacity:1; fill:none" points="
  2745.92,323.032 2937.92,323.032 
  "/>
<path clip-path="url(#clip6200)" d="M 0 0 M2991.95 303.633 Q2984.95 303.633 2980.81 308.853 Q2976.7 314.072 2976.7 323.08 Q2976.7 332.056 2980.81 337.275 Q2984.95 342.495 2991.95 342.495 Q2998.95 342.495 3003.03 337.275 Q3007.13 332.056 3007.13 323.08 Q3007.13 314.072 3003.03 308.853 Q2998.95 303.633 2991.95 303.633 M3000.96 345.933 L3009.42 355.195 L3001.66 355.195 L2994.62 347.588 Q2993.57 347.651 2993 347.683 Q2992.46 347.715 2991.95 347.715 Q2981.92 347.715 2975.91 341.031 Q2969.92 334.315 2969.92 323.08 Q2969.92 311.813 2975.91 305.129 Q2981.92 298.413 2991.95 298.413 Q3001.94 298.413 3007.93 305.129 Q3013.91 311.813 3013.91 323.08 Q3013.91 331.355 3010.57 337.244 Q3007.26 343.132 3000.96 345.933 Z" fill="#000000" fill-rule="evenodd" fill-opacity="1" /><path clip-path="url(#clip6200)" d="M 0 0 M3019.45 332.724 L3019.45 311.144 L3025.31 311.144 L3025.31 332.501 Q3025.31 337.562 3027.28 340.108 Q3029.25 342.623 3033.2 342.623 Q3037.94 342.623 3040.68 339.599 Q3043.45 336.575 3043.45 331.355 L3043.45 311.144 L3049.3 311.144 L3049.3 346.792 L3043.45 346.792 L3043.45 341.318 Q3041.31 344.564 3038.48 346.156 Q3035.68 347.715 3031.96 347.715 Q3025.81 347.715 3022.63 343.896 Q3019.45 340.076 3019.45 332.724 M3034.19 310.285 L3034.19 310.285 Z" fill="#000000" fill-rule="evenodd" fill-opacity="1" /><path clip-path="url(#clip6200)" d="M 0 0 M3071.65 328.873 Q3064.55 328.873 3061.81 330.496 Q3059.08 332.119 3059.08 336.034 Q3059.08 339.153 3061.11 340.999 Q3063.18 342.814 3066.71 342.814 Q3071.58 342.814 3074.51 339.376 Q3077.47 335.907 3077.47 330.178 L3077.47 328.873 L3071.65 328.873 M3083.33 326.454 L3083.33 346.792 L3077.47 346.792 L3077.47 341.381 Q3075.47 344.628 3072.47 346.187 Q3069.48 347.715 3065.15 347.715 Q3059.68 347.715 3056.43 344.66 Q3053.22 341.572 3053.22 336.416 Q3053.22 330.4 3057.23 327.345 Q3061.27 324.289 3069.26 324.289 L3077.47 324.289 L3077.47 323.716 Q3077.47 319.674 3074.8 317.478 Q3072.16 315.25 3067.35 315.25 Q3064.29 315.25 3061.4 315.982 Q3058.5 316.714 3055.83 318.178 L3055.83 312.767 Q3059.04 311.526 3062.07 310.921 Q3065.09 310.285 3067.96 310.285 Q3075.69 310.285 3079.51 314.295 Q3083.33 318.306 3083.33 326.454 Z" fill="#000000" fill-rule="evenodd" fill-opacity="1" /><path clip-path="url(#clip6200)" d="M 0 0 M3112.93 316.555 L3112.93 297.267 L3118.79 297.267 L3118.79 346.792 L3112.93 346.792 L3112.93 341.445 Q3111.08 344.628 3108.25 346.187 Q3105.45 347.715 3101.5 347.715 Q3095.04 347.715 3090.97 342.559 Q3086.93 337.403 3086.93 329 Q3086.93 320.597 3090.97 315.441 Q3095.04 310.285 3101.5 310.285 Q3105.45 310.285 3108.25 311.844 Q3111.08 313.372 3112.93 316.555 M3092.97 329 Q3092.97 335.461 3095.61 339.153 Q3098.29 342.814 3102.93 342.814 Q3107.58 342.814 3110.26 339.153 Q3112.93 335.461 3112.93 329 Q3112.93 322.539 3110.26 318.879 Q3107.58 315.186 3102.93 315.186 Q3098.29 315.186 3095.61 318.879 Q3092.97 322.539 3092.97 329 Z" fill="#000000" fill-rule="evenodd" fill-opacity="1" /><path clip-path="url(#clip6200)" d="M 0 0 M3147.59 341.381 L3158.09 341.381 L3158.09 305.129 L3146.67 307.42 L3146.67 301.564 L3158.03 299.272 L3164.46 299.272 L3164.46 341.381 L3174.96 341.381 L3174.96 346.792 L3147.59 346.792 L3147.59 341.381 Z" fill="#000000" fill-rule="evenodd" fill-opacity="1" /><polyline clip-path="url(#clip6200)" style="stroke:#e26f46; stroke-width:16; stroke-opacity:1; fill:none" points="
  2745.92,383.512 2937.92,383.512 
  "/>
<path clip-path="url(#clip6200)" d="M 0 0 M2991.95 364.113 Q2984.95 364.113 2980.81 369.333 Q2976.7 374.552 2976.7 383.56 Q2976.7 392.536 2980.81 397.755 Q2984.95 402.975 2991.95 402.975 Q2998.95 402.975 3003.03 397.755 Q3007.13 392.536 3007.13 383.56 Q3007.13 374.552 3003.03 369.333 Q2998.95 364.113 2991.95 364.113 M3000.96 406.413 L3009.42 415.675 L3001.66 415.675 L2994.62 408.068 Q2993.57 408.131 2993 408.163 Q2992.46 408.195 2991.95 408.195 Q2981.92 408.195 2975.91 401.511 Q2969.92 394.795 2969.92 383.56 Q2969.92 372.293 2975.91 365.609 Q2981.92 358.893 2991.95 358.893 Q3001.94 358.893 3007.93 365.609 Q3013.91 372.293 3013.91 383.56 Q3013.91 391.835 3010.57 397.724 Q3007.26 403.612 3000.96 406.413 Z" fill="#000000" fill-rule="evenodd" fill-opacity="1" /><path clip-path="url(#clip6200)" d="M 0 0 M3019.45 393.204 L3019.45 371.624 L3025.31 371.624 L3025.31 392.981 Q3025.31 398.042 3027.28 400.588 Q3029.25 403.103 3033.2 403.103 Q3037.94 403.103 3040.68 400.079 Q3043.45 397.055 3043.45 391.835 L3043.45 371.624 L3049.3 371.624 L3049.3 407.272 L3043.45 407.272 L3043.45 401.798 Q3041.31 405.044 3038.48 406.636 Q3035.68 408.195 3031.96 408.195 Q3025.81 408.195 3022.63 404.376 Q3019.45 400.556 3019.45 393.204 M3034.19 370.765 L3034.19 370.765 Z" fill="#000000" fill-rule="evenodd" fill-opacity="1" /><path clip-path="url(#clip6200)" d="M 0 0 M3071.65 389.353 Q3064.55 389.353 3061.81 390.976 Q3059.08 392.599 3059.08 396.514 Q3059.08 399.633 3061.11 401.479 Q3063.18 403.294 3066.71 403.294 Q3071.58 403.294 3074.51 399.856 Q3077.47 396.387 3077.47 390.658 L3077.47 389.353 L3071.65 389.353 M3083.33 386.934 L3083.33 407.272 L3077.47 407.272 L3077.47 401.861 Q3075.47 405.108 3072.47 406.667 Q3069.48 408.195 3065.15 408.195 Q3059.68 408.195 3056.43 405.14 Q3053.22 402.052 3053.22 396.896 Q3053.22 390.88 3057.23 387.825 Q3061.27 384.769 3069.26 384.769 L3077.47 384.769 L3077.47 384.196 Q3077.47 380.154 3074.8 377.958 Q3072.16 375.73 3067.35 375.73 Q3064.29 375.73 3061.4 376.462 Q3058.5 377.194 3055.83 378.658 L3055.83 373.247 Q3059.04 372.006 3062.07 371.401 Q3065.09 370.765 3067.96 370.765 Q3075.69 370.765 3079.51 374.775 Q3083.33 378.786 3083.33 386.934 Z" fill="#000000" fill-rule="evenodd" fill-opacity="1" /><path clip-path="url(#clip6200)" d="M 0 0 M3112.93 377.035 L3112.93 357.747 L3118.79 357.747 L3118.79 407.272 L3112.93 407.272 L3112.93 401.925 Q3111.08 405.108 3108.25 406.667 Q3105.45 408.195 3101.5 408.195 Q3095.04 408.195 3090.97 403.039 Q3086.93 397.883 3086.93 389.48 Q3086.93 381.077 3090.97 375.921 Q3095.04 370.765 3101.5 370.765 Q3105.45 370.765 3108.25 372.324 Q3111.08 373.852 3112.93 377.035 M3092.97 389.48 Q3092.97 395.941 3095.61 399.633 Q3098.29 403.294 3102.93 403.294 Q3107.58 403.294 3110.26 399.633 Q3112.93 395.941 3112.93 389.48 Q3112.93 383.019 3110.26 379.359 Q3107.58 375.666 3102.93 375.666 Q3098.29 375.666 3095.61 379.359 Q3092.97 383.019 3092.97 389.48 Z" fill="#000000" fill-rule="evenodd" fill-opacity="1" /><path clip-path="url(#clip6200)" d="M 0 0 M3152.01 401.861 L3174.45 401.861 L3174.45 407.272 L3144.28 407.272 L3144.28 401.861 Q3147.94 398.074 3154.24 391.708 Q3160.58 385.31 3162.2 383.464 Q3165.29 379.995 3166.5 377.608 Q3167.74 375.189 3167.74 372.865 Q3167.74 369.078 3165.06 366.691 Q3162.42 364.304 3158.16 364.304 Q3155.13 364.304 3151.76 365.354 Q3148.42 366.404 3144.6 368.537 L3144.6 362.044 Q3148.48 360.484 3151.86 359.688 Q3155.23 358.893 3158.03 358.893 Q3165.41 358.893 3169.81 362.585 Q3174.2 366.277 3174.2 372.452 Q3174.2 375.38 3173.08 378.022 Q3172 380.632 3169.11 384.196 Q3168.31 385.119 3164.05 389.544 Q3159.78 393.936 3152.01 401.861 Z" fill="#000000" fill-rule="evenodd" fill-opacity="1" /><polyline clip-path="url(#clip6200)" style="stroke:#3da44d; stroke-width:16; stroke-opacity:1; fill:none" points="
  2745.92,443.992 2937.92,443.992 
  "/>
<path clip-path="url(#clip6200)" d="M 0 0 M2991.95 424.593 Q2984.95 424.593 2980.81 429.813 Q2976.7 435.032 2976.7 444.04 Q2976.7 453.016 2980.81 458.235 Q2984.95 463.455 2991.95 463.455 Q2998.95 463.455 3003.03 458.235 Q3007.13 453.016 3007.13 444.04 Q3007.13 435.032 3003.03 429.813 Q2998.95 424.593 2991.95 424.593 M3000.96 466.893 L3009.42 476.155 L3001.66 476.155 L2994.62 468.548 Q2993.57 468.611 2993 468.643 Q2992.46 468.675 2991.95 468.675 Q2981.92 468.675 2975.91 461.991 Q2969.92 455.275 2969.92 444.04 Q2969.92 432.773 2975.91 426.089 Q2981.92 419.373 2991.95 419.373 Q3001.94 419.373 3007.93 426.089 Q3013.91 432.773 3013.91 444.04 Q3013.91 452.315 3010.57 458.204 Q3007.26 464.092 3000.96 466.893 Z" fill="#000000" fill-rule="evenodd" fill-opacity="1" /><path clip-path="url(#clip6200)" d="M 0 0 M3019.45 453.684 L3019.45 432.104 L3025.31 432.104 L3025.31 453.461 Q3025.31 458.522 3027.28 461.068 Q3029.25 463.583 3033.2 463.583 Q3037.94 463.583 3040.68 460.559 Q3043.45 457.535 3043.45 452.315 L3043.45 432.104 L3049.3 432.104 L3049.3 467.752 L3043.45 467.752 L3043.45 462.278 Q3041.31 465.524 3038.48 467.116 Q3035.68 468.675 3031.96 468.675 Q3025.81 468.675 3022.63 464.856 Q3019.45 461.036 3019.45 453.684 M3034.19 431.245 L3034.19 431.245 Z" fill="#000000" fill-rule="evenodd" fill-opacity="1" /><path clip-path="url(#clip6200)" d="M 0 0 M3071.65 449.833 Q3064.55 449.833 3061.81 451.456 Q3059.08 453.079 3059.08 456.994 Q3059.08 460.113 3061.11 461.959 Q3063.18 463.774 3066.71 463.774 Q3071.58 463.774 3074.51 460.336 Q3077.47 456.867 3077.47 451.138 L3077.47 449.833 L3071.65 449.833 M3083.33 447.414 L3083.33 467.752 L3077.47 467.752 L3077.47 462.341 Q3075.47 465.588 3072.47 467.147 Q3069.48 468.675 3065.15 468.675 Q3059.68 468.675 3056.43 465.62 Q3053.22 462.532 3053.22 457.376 Q3053.22 451.36 3057.23 448.305 Q3061.27 445.249 3069.26 445.249 L3077.47 445.249 L3077.47 444.676 Q3077.47 440.634 3074.8 438.438 Q3072.16 436.21 3067.35 436.21 Q3064.29 436.21 3061.4 436.942 Q3058.5 437.674 3055.83 439.138 L3055.83 433.727 Q3059.04 432.486 3062.07 431.881 Q3065.09 431.245 3067.96 431.245 Q3075.69 431.245 3079.51 435.255 Q3083.33 439.266 3083.33 447.414 Z" fill="#000000" fill-rule="evenodd" fill-opacity="1" /><path clip-path="url(#clip6200)" d="M 0 0 M3112.93 437.515 L3112.93 418.227 L3118.79 418.227 L3118.79 467.752 L3112.93 467.752 L3112.93 462.405 Q3111.08 465.588 3108.25 467.147 Q3105.45 468.675 3101.5 468.675 Q3095.04 468.675 3090.97 463.519 Q3086.93 458.363 3086.93 449.96 Q3086.93 441.557 3090.97 436.401 Q3095.04 431.245 3101.5 431.245 Q3105.45 431.245 3108.25 432.804 Q3111.08 434.332 3112.93 437.515 M3092.97 449.96 Q3092.97 456.421 3095.61 460.113 Q3098.29 463.774 3102.93 463.774 Q3107.58 463.774 3110.26 460.113 Q3112.93 456.421 3112.93 449.96 Q3112.93 443.499 3110.26 439.839 Q3107.58 436.146 3102.93 436.146 Q3098.29 436.146 3095.61 439.839 Q3092.97 443.499 3092.97 449.96 Z" fill="#000000" fill-rule="evenodd" fill-opacity="1" /><path clip-path="url(#clip6200)" d="M 0 0 M3165.96 442.13 Q3170.57 443.117 3173.15 446.236 Q3175.76 449.355 3175.76 453.939 Q3175.76 460.973 3170.92 464.824 Q3166.08 468.675 3157.17 468.675 Q3154.18 468.675 3151 468.07 Q3147.84 467.497 3144.47 466.32 L3144.47 460.113 Q3147.14 461.673 3150.33 462.469 Q3153.51 463.264 3156.98 463.264 Q3163.03 463.264 3166.18 460.877 Q3169.36 458.49 3169.36 453.939 Q3169.36 449.737 3166.4 447.382 Q3163.47 444.995 3158.22 444.995 L3152.68 444.995 L3152.68 439.711 L3158.48 439.711 Q3163.22 439.711 3165.73 437.833 Q3168.25 435.924 3168.25 432.359 Q3168.25 428.699 3165.64 426.757 Q3163.06 424.784 3158.22 424.784 Q3155.58 424.784 3152.56 425.357 Q3149.53 425.929 3145.9 427.139 L3145.9 421.41 Q3149.56 420.391 3152.75 419.882 Q3155.96 419.373 3158.79 419.373 Q3166.11 419.373 3170.38 422.715 Q3174.64 426.025 3174.64 431.69 Q3174.64 435.637 3172.38 438.374 Q3170.12 441.08 3165.96 442.13 Z" fill="#000000" fill-rule="evenodd" fill-opacity="1" /><polyline clip-path="url(#clip6200)" style="stroke:#c271d2; stroke-width:16; stroke-opacity:1; fill:none" points="
  2745.92,504.472 2937.92,504.472 
  "/>
<path clip-path="url(#clip6200)" d="M 0 0 M2991.95 485.073 Q2984.95 485.073 2980.81 490.293 Q2976.7 495.512 2976.7 504.52 Q2976.7 513.496 2980.81 518.715 Q2984.95 523.935 2991.95 523.935 Q2998.95 523.935 3003.03 518.715 Q3007.13 513.496 3007.13 504.52 Q3007.13 495.512 3003.03 490.293 Q2998.95 485.073 2991.95 485.073 M3000.96 527.373 L3009.42 536.635 L3001.66 536.635 L2994.62 529.028 Q2993.57 529.091 2993 529.123 Q2992.46 529.155 2991.95 529.155 Q2981.92 529.155 2975.91 522.471 Q2969.92 515.755 2969.92 504.52 Q2969.92 493.253 2975.91 486.569 Q2981.92 479.853 2991.95 479.853 Q3001.94 479.853 3007.93 486.569 Q3013.91 493.253 3013.91 504.52 Q3013.91 512.795 3010.57 518.684 Q3007.26 524.572 3000.96 527.373 Z" fill="#000000" fill-rule="evenodd" fill-opacity="1" /><path clip-path="url(#clip6200)" d="M 0 0 M3019.45 514.164 L3019.45 492.584 L3025.31 492.584 L3025.31 513.941 Q3025.31 519.002 3027.28 521.548 Q3029.25 524.063 3033.2 524.063 Q3037.94 524.063 3040.68 521.039 Q3043.45 518.015 3043.45 512.795 L3043.45 492.584 L3049.3 492.584 L3049.3 528.232 L3043.45 528.232 L3043.45 522.758 Q3041.31 526.004 3038.48 527.596 Q3035.68 529.155 3031.96 529.155 Q3025.81 529.155 3022.63 525.336 Q3019.45 521.516 3019.45 514.164 M3034.19 491.725 L3034.19 491.725 Z" fill="#000000" fill-rule="evenodd" fill-opacity="1" /><path clip-path="url(#clip6200)" d="M 0 0 M3071.65 510.313 Q3064.55 510.313 3061.81 511.936 Q3059.08 513.559 3059.08 517.474 Q3059.08 520.593 3061.11 522.439 Q3063.18 524.254 3066.71 524.254 Q3071.58 524.254 3074.51 520.816 Q3077.47 517.347 3077.47 511.618 L3077.47 510.313 L3071.65 510.313 M3083.33 507.894 L3083.33 528.232 L3077.47 528.232 L3077.47 522.821 Q3075.47 526.068 3072.47 527.627 Q3069.48 529.155 3065.15 529.155 Q3059.68 529.155 3056.43 526.1 Q3053.22 523.012 3053.22 517.856 Q3053.22 511.84 3057.23 508.785 Q3061.27 505.729 3069.26 505.729 L3077.47 505.729 L3077.47 505.156 Q3077.47 501.114 3074.8 498.918 Q3072.16 496.69 3067.35 496.69 Q3064.29 496.69 3061.4 497.422 Q3058.5 498.154 3055.83 499.618 L3055.83 494.207 Q3059.04 492.966 3062.07 492.361 Q3065.09 491.725 3067.96 491.725 Q3075.69 491.725 3079.51 495.735 Q3083.33 499.746 3083.33 507.894 Z" fill="#000000" fill-rule="evenodd" fill-opacity="1" /><path clip-path="url(#clip6200)" d="M 0 0 M3112.93 497.995 L3112.93 478.707 L3118.79 478.707 L3118.79 528.232 L3112.93 528.232 L3112.93 522.885 Q3111.08 526.068 3108.25 527.627 Q3105.45 529.155 3101.5 529.155 Q3095.04 529.155 3090.97 523.999 Q3086.93 518.843 3086.93 510.44 Q3086.93 502.037 3090.97 496.881 Q3095.04 491.725 3101.5 491.725 Q3105.45 491.725 3108.25 493.284 Q3111.08 494.812 3112.93 497.995 M3092.97 510.44 Q3092.97 516.901 3095.61 520.593 Q3098.29 524.254 3102.93 524.254 Q3107.58 524.254 3110.26 520.593 Q3112.93 516.901 3112.93 510.44 Q3112.93 503.979 3110.26 500.319 Q3107.58 496.626 3102.93 496.626 Q3098.29 496.626 3095.61 500.319 Q3092.97 503.979 3092.97 510.44 Z" fill="#000000" fill-rule="evenodd" fill-opacity="1" /><path clip-path="url(#clip6200)" d="M 0 0 M3164.14 486.314 L3147.91 511.681 L3164.14 511.681 L3164.14 486.314 M3162.45 480.712 L3170.54 480.712 L3170.54 511.681 L3177.32 511.681 L3177.32 517.028 L3170.54 517.028 L3170.54 528.232 L3164.14 528.232 L3164.14 517.028 L3142.69 517.028 L3142.69 510.822 L3162.45 480.712 Z" fill="#000000" fill-rule="evenodd" fill-opacity="1" /><polyline clip-path="url(#clip6200)" style="stroke:#ac8d18; stroke-width:16; stroke-opacity:1; fill:none" points="
  2745.92,564.952 2937.92,564.952 
  "/>
<path clip-path="url(#clip6200)" d="M 0 0 M2969.92 541.192 L2976.35 541.192 L2976.35 583.301 L2999.49 583.301 L2999.49 588.712 L2969.92 588.712 L2969.92 541.192 Z" fill="#000000" fill-rule="evenodd" fill-opacity="1" /><path clip-path="url(#clip6200)" d="M 0 0 M3018.3 557.17 Q3013.59 557.17 3010.85 560.862 Q3008.12 564.522 3008.12 570.92 Q3008.12 577.318 3010.82 581.01 Q3013.56 584.67 3018.3 584.67 Q3022.98 584.67 3025.72 580.978 Q3028.46 577.286 3028.46 570.92 Q3028.46 564.586 3025.72 560.894 Q3022.98 557.17 3018.3 557.17 M3018.3 552.205 Q3025.94 552.205 3030.3 557.17 Q3034.66 562.135 3034.66 570.92 Q3034.66 579.673 3030.3 584.67 Q3025.94 589.635 3018.3 589.635 Q3010.63 589.635 3006.27 584.67 Q3001.94 579.673 3001.94 570.92 Q3001.94 562.135 3006.27 557.17 Q3010.63 552.205 3018.3 552.205 Z" fill="#000000" fill-rule="evenodd" fill-opacity="1" /><path clip-path="url(#clip6200)" d="M 0 0 M3057.01 570.793 Q3049.91 570.793 3047.17 572.416 Q3044.43 574.039 3044.43 577.954 Q3044.43 581.073 3046.47 582.919 Q3048.54 584.734 3052.07 584.734 Q3056.94 584.734 3059.87 581.296 Q3062.83 577.827 3062.83 572.098 L3062.83 570.793 L3057.01 570.793 M3068.69 568.374 L3068.69 588.712 L3062.83 588.712 L3062.83 583.301 Q3060.83 586.548 3057.83 588.107 Q3054.84 589.635 3050.51 589.635 Q3045.04 589.635 3041.79 586.58 Q3038.58 583.492 3038.58 578.336 Q3038.58 572.32 3042.59 569.265 Q3046.63 566.209 3054.62 566.209 L3062.83 566.209 L3062.83 565.636 Q3062.83 561.594 3060.16 559.398 Q3057.52 557.17 3052.71 557.17 Q3049.65 557.17 3046.76 557.902 Q3043.86 558.634 3041.19 560.098 L3041.19 554.687 Q3044.4 553.446 3047.43 552.841 Q3050.45 552.205 3053.31 552.205 Q3061.05 552.205 3064.87 556.215 Q3068.69 560.226 3068.69 568.374 Z" fill="#000000" fill-rule="evenodd" fill-opacity="1" /><path clip-path="url(#clip6200)" d="M 0 0 M3098.29 558.475 L3098.29 539.187 L3104.14 539.187 L3104.14 588.712 L3098.29 588.712 L3098.29 583.365 Q3096.44 586.548 3093.61 588.107 Q3090.81 589.635 3086.86 589.635 Q3080.4 589.635 3076.33 584.479 Q3072.28 579.323 3072.28 570.92 Q3072.28 562.517 3076.33 557.361 Q3080.4 552.205 3086.86 552.205 Q3090.81 552.205 3093.61 553.764 Q3096.44 555.292 3098.29 558.475 M3078.33 570.92 Q3078.33 577.381 3080.97 581.073 Q3083.65 584.734 3088.29 584.734 Q3092.94 584.734 3095.61 581.073 Q3098.29 577.381 3098.29 570.92 Q3098.29 564.459 3095.61 560.799 Q3092.94 557.106 3088.29 557.106 Q3083.65 557.106 3080.97 560.799 Q3078.33 564.459 3078.33 570.92 Z" fill="#000000" fill-rule="evenodd" fill-opacity="1" /></svg>
