<?xml version="1.0" encoding="utf-8"?>
<svg xmlns="http://www.w3.org/2000/svg" xmlns:xlink="http://www.w3.org/1999/xlink" width="800" height="600" viewBox="0 0 3200 2400">
<defs>
  <clipPath id="clip8000">
    <rect x="0" y="0" width="3200" height="2400"/>
  </clipPath>
</defs>
<path clip-path="url(#clip8000)" d="
M0 2400 L3200 2400 L3200 0 L0 0  Z
  " fill="#ffffff" fill-rule="evenodd" fill-opacity="1"/>
<defs>
  <clipPath id="clip8001">
    <rect x="640" y="0" width="2241" height="2241"/>
  </clipPath>
</defs>
<path clip-path="url(#clip8000)" d="
M204.177 2204.92 L2617.92 2204.92 L2617.92 131.032 L204.177 131.032  Z
  " fill="#ffffff" fill-rule="evenodd" fill-opacity="1"/>
<defs>
  <clipPath id="clip8002">
    <rect x="204" y="131" width="2415" height="2075"/>
  </clipPath>
</defs>
<polyline clip-path="url(#clip8002)" style="stroke:#000000; stroke-width:2; stroke-opacity:0.1; fill:none" points="
  272.49,2204.92 272.49,131.032 
  "/>
<polyline clip-path="url(#clip8002)" style="stroke:#000000; stroke-width:2; stroke-opacity:0.1; fill:none" points="
  727.914,2204.92 727.914,131.032 
  "/>
<polyline clip-path="url(#clip8002)" style="stroke:#000000; stroke-width:2; stroke-opacity:0.1; fill:none" points="
  1183.34,2204.92 1183.34,131.032 
  "/>
<polyline clip-path="url(#clip8002)" style="stroke:#000000; stroke-width:2; stroke-opacity:0.1; fill:none" points="
  1638.76,2204.92 1638.76,131.032 
  "/>
<polyline clip-path="url(#clip8002)" style="stroke:#000000; stroke-width:2; stroke-opacity:0.1; fill:none" points="
  2094.19,2204.92 2094.19,131.032 
  "/>
<polyline clip-path="url(#clip8002)" style="stroke:#000000; stroke-width:2; stroke-opacity:0.1; fill:none" points="
  2549.61,2204.92 2549.61,131.032 
  "/>
<polyline clip-path="url(#clip8002)" style="stroke:#000000; stroke-width:2; stroke-opacity:0.1; fill:none" points="
  204.177,2070.39 2617.92,2070.39 
  "/>
<polyline clip-path="url(#clip8002)" style="stroke:#000000; stroke-width:2; stroke-opacity:0.1; fill:none" points="
  204.177,1638.57 2617.92,1638.57 
  "/>
<polyline clip-path="url(#clip8002)" style="stroke:#000000; stroke-width:2; stroke-opacity:0.1; fill:none" points="
  204.177,1206.74 2617.92,1206.74 
  "/>
<polyline clip-path="url(#clip8002)" style="stroke:#000000; stroke-width:2; stroke-opacity:0.1; fill:none" points="
  204.177,774.919 2617.92,774.919 
  "/>
<polyline clip-path="url(#clip8002)" style="stroke:#000000; stroke-width:2; stroke-opacity:0.1; fill:none" points="
  204.177,343.096 2617.92,343.096 
  "/>
<polyline clip-path="url(#clip8000)" style="stroke:#000000; stroke-width:4; stroke-opacity:1; fill:none" points="
  204.177,2204.92 2617.92,2204.92 
  "/>
<polyline clip-path="url(#clip8000)" style="stroke:#000000; stroke-width:4; stroke-opacity:1; fill:none" points="
  204.177,2204.92 204.177,131.032 
  "/>
<polyline clip-path="url(#clip8000)" style="stroke:#000000; stroke-width:4; stroke-opacity:1; fill:none" points="
  272.49,2204.92 272.49,2180.03 
  "/>
<polyline clip-path="url(#clip8000)" style="stroke:#000000; stroke-width:4; stroke-opacity:1; fill:none" points="
  727.914,2204.92 727.914,2180.03 
  "/>
<polyline clip-path="url(#clip8000)" style="stroke:#000000; stroke-width:4; stroke-opacity:1; fill:none" points="
  1183.34,2204.92 1183.34,2180.03 
  "/>
<polyline clip-path="url(#clip8000)" style="stroke:#000000; stroke-width:4; stroke-opacity:1; fill:none" points="
  1638.76,2204.92 1638.76,2180.03 
  "/>
<polyline clip-path="url(#clip8000)" style="stroke:#000000; stroke-width:4; stroke-opacity:1; fill:none" points="
  2094.19,2204.92 2094.19,2180.03 
  "/>
<polyline clip-path="url(#clip8000)" style="stroke:#000000; stroke-width:4; stroke-opacity:1; fill:none" points="
  2549.61,2204.92 2549.61,2180.03 
  "/>
<polyline clip-path="url(#clip8000)" style="stroke:#000000; stroke-width:4; stroke-opacity:1; fill:none" points="
  204.177,2070.39 233.142,2070.39 
  "/>
<polyline clip-path="url(#clip8000)" style="stroke:#000000; stroke-width:4; stroke-opacity:1; fill:none" points="
  204.177,1638.57 233.142,1638.57 
  "/>
<polyline clip-path="url(#clip8000)" style="stroke:#000000; stroke-width:4; stroke-opacity:1; fill:none" points="
  204.177,1206.74 233.142,1206.74 
  "/>
<polyline clip-path="url(#clip8000)" style="stroke:#000000; stroke-width:4; stroke-opacity:1; fill:none" points="
  204.177,774.919 233.142,774.919 
  "/>
<polyline clip-path="url(#clip8000)" style="stroke:#000000; stroke-width:4; stroke-opacity:1; fill:none" points="
  204.177,343.096 233.142,343.096 
  "/>
<path clip-path="url(#clip8000)" d="M 0 0 M272.49 2230.91 Q268.879 2230.91 267.051 2234.48 Q265.245 2238.02 265.245 2245.15 Q265.245 2252.25 267.051 2255.82 Q268.879 2259.36 272.49 2259.36 Q276.125 2259.36 277.93 2255.82 Q279.759 2252.25 279.759 2245.15 Q279.759 2238.02 277.93 2234.48 Q276.125 2230.91 272.49 2230.91 M272.49 2227.21 Q278.301 2227.21 281.356 2231.81 Q284.435 2236.4 284.435 2245.15 Q284.435 2253.87 281.356 2258.48 Q278.301 2263.06 272.49 2263.06 Q266.68 2263.06 263.602 2258.48 Q260.546 2253.87 260.546 2245.15 Q260.546 2236.4 263.602 2231.81 Q266.68 2227.21 272.49 2227.21 Z" fill="#000000" fill-rule="evenodd" fill-opacity="1" /><path clip-path="url(#clip8000)" d="M 0 0 M718.296 2258.46 L725.935 2258.46 L725.935 2232.09 L717.625 2233.76 L717.625 2229.5 L725.889 2227.83 L730.565 2227.83 L730.565 2258.46 L738.204 2258.46 L738.204 2262.39 L718.296 2262.39 L718.296 2258.46 Z" fill="#000000" fill-rule="evenodd" fill-opacity="1" /><path clip-path="url(#clip8000)" d="M 0 0 M1177.99 2258.46 L1194.31 2258.46 L1194.31 2262.39 L1172.37 2262.39 L1172.37 2258.46 Q1175.03 2255.7 1179.61 2251.07 Q1184.22 2246.42 1185.4 2245.08 Q1187.64 2242.55 1188.52 2240.82 Q1189.43 2239.06 1189.43 2237.37 Q1189.43 2234.61 1187.48 2232.88 Q1185.56 2231.14 1182.46 2231.14 Q1180.26 2231.14 1177.81 2231.91 Q1175.38 2232.67 1172.6 2234.22 L1172.6 2229.5 Q1175.42 2228.36 1177.88 2227.79 Q1180.33 2227.21 1182.37 2227.21 Q1187.74 2227.21 1190.93 2229.89 Q1194.13 2232.58 1194.13 2237.07 Q1194.13 2239.2 1193.31 2241.12 Q1192.53 2243.02 1190.42 2245.61 Q1189.84 2246.28 1186.74 2249.5 Q1183.64 2252.69 1177.99 2258.46 Z" fill="#000000" fill-rule="evenodd" fill-opacity="1" /><path clip-path="url(#clip8000)" d="M 0 0 M1643.01 2243.76 Q1646.37 2244.48 1648.24 2246.74 Q1650.14 2249.01 1650.14 2252.35 Q1650.14 2257.46 1646.62 2260.26 Q1643.1 2263.06 1636.62 2263.06 Q1634.44 2263.06 1632.13 2262.62 Q1629.84 2262.21 1627.38 2261.35 L1627.38 2256.84 Q1629.33 2257.97 1631.64 2258.55 Q1633.96 2259.13 1636.48 2259.13 Q1640.88 2259.13 1643.17 2257.39 Q1645.49 2255.66 1645.49 2252.35 Q1645.49 2249.29 1643.33 2247.58 Q1641.2 2245.84 1637.38 2245.84 L1633.36 2245.84 L1633.36 2242 L1637.57 2242 Q1641.02 2242 1642.85 2240.63 Q1644.68 2239.24 1644.68 2236.65 Q1644.68 2233.99 1642.78 2232.58 Q1640.9 2231.14 1637.38 2231.14 Q1635.46 2231.14 1633.26 2231.56 Q1631.07 2231.98 1628.43 2232.85 L1628.43 2228.69 Q1631.09 2227.95 1633.4 2227.58 Q1635.74 2227.21 1637.8 2227.21 Q1643.13 2227.21 1646.23 2229.64 Q1649.33 2232.04 1649.33 2236.17 Q1649.33 2239.04 1647.69 2241.03 Q1646.04 2242.99 1643.01 2243.76 Z" fill="#000000" fill-rule="evenodd" fill-opacity="1" /><path clip-path="url(#clip8000)" d="M 0 0 M2097.2 2231.91 L2085.39 2250.35 L2097.2 2250.35 L2097.2 2231.91 M2095.97 2227.83 L2101.85 2227.83 L2101.85 2250.35 L2106.78 2250.35 L2106.78 2254.24 L2101.85 2254.24 L2101.85 2262.39 L2097.2 2262.39 L2097.2 2254.24 L2081.59 2254.24 L2081.59 2249.73 L2095.97 2227.83 Z" fill="#000000" fill-rule="evenodd" fill-opacity="1" /><path clip-path="url(#clip8000)" d="M 0 0 M2539.89 2227.83 L2558.24 2227.83 L2558.24 2231.77 L2544.17 2231.77 L2544.17 2240.24 Q2545.19 2239.89 2546.21 2239.73 Q2547.23 2239.54 2548.24 2239.54 Q2554.03 2239.54 2557.41 2242.72 Q2560.79 2245.89 2560.79 2251.3 Q2560.79 2256.88 2557.32 2259.98 Q2553.85 2263.06 2547.53 2263.06 Q2545.35 2263.06 2543.08 2262.69 Q2540.84 2262.32 2538.43 2261.58 L2538.43 2256.88 Q2540.51 2258.02 2542.73 2258.57 Q2544.96 2259.13 2547.43 2259.13 Q2551.44 2259.13 2553.78 2257.02 Q2556.11 2254.92 2556.11 2251.3 Q2556.11 2247.69 2553.78 2245.59 Q2551.44 2243.48 2547.43 2243.48 Q2545.56 2243.48 2543.68 2243.9 Q2541.83 2244.31 2539.89 2245.19 L2539.89 2227.83 Z" fill="#000000" fill-rule="evenodd" fill-opacity="1" /><path clip-path="url(#clip8000)" d="M 0 0 M132.2 2072.78 L144.677 2072.78 L144.677 2076.58 L132.2 2076.58 L132.2 2072.78 Z" fill="#000000" fill-rule="evenodd" fill-opacity="1" /><path clip-path="url(#clip8000)" d="M 0 0 M162.594 2057.18 L150.788 2075.63 L162.594 2075.63 L162.594 2057.18 M161.367 2053.11 L167.246 2053.11 L167.246 2075.63 L172.177 2075.63 L172.177 2079.52 L167.246 2079.52 L167.246 2087.67 L162.594 2087.67 L162.594 2079.52 L146.992 2079.52 L146.992 2075.01 L161.367 2053.11 Z" fill="#000000" fill-rule="evenodd" fill-opacity="1" /><path clip-path="url(#clip8000)" d="M 0 0 M134.283 1640.96 L146.76 1640.96 L146.76 1644.76 L134.283 1644.76 L134.283 1640.96 Z" fill="#000000" fill-rule="evenodd" fill-opacity="1" /><path clip-path="url(#clip8000)" d="M 0 0 M155.857 1651.91 L172.177 1651.91 L172.177 1655.85 L150.232 1655.85 L150.232 1651.91 Q152.894 1649.16 157.478 1644.53 Q162.084 1639.87 163.265 1638.53 Q165.51 1636.01 166.39 1634.27 Q167.293 1632.51 167.293 1630.82 Q167.293 1628.07 165.348 1626.33 Q163.427 1624.6 160.325 1624.6 Q158.126 1624.6 155.672 1625.36 Q153.242 1626.12 150.464 1627.67 L150.464 1622.95 Q153.288 1621.82 155.742 1621.24 Q158.195 1620.66 160.232 1620.66 Q165.603 1620.66 168.797 1623.35 Q171.992 1626.03 171.992 1630.52 Q171.992 1632.65 171.181 1634.57 Q170.394 1636.47 168.288 1639.06 Q167.709 1639.73 164.607 1642.95 Q161.506 1646.15 155.857 1651.91 Z" fill="#000000" fill-rule="evenodd" fill-opacity="1" /><path clip-path="url(#clip8000)" d="M 0 0 M160.232 1192.54 Q156.621 1192.54 154.793 1196.11 Q152.987 1199.65 152.987 1206.78 Q152.987 1213.88 154.793 1217.45 Q156.621 1220.99 160.232 1220.99 Q163.867 1220.99 165.672 1217.45 Q167.501 1213.88 167.501 1206.78 Q167.501 1199.65 165.672 1196.11 Q163.867 1192.54 160.232 1192.54 M160.232 1188.84 Q166.043 1188.84 169.098 1193.44 Q172.177 1198.03 172.177 1206.78 Q172.177 1215.5 169.098 1220.11 Q166.043 1224.69 160.232 1224.69 Q154.422 1224.69 151.344 1220.11 Q148.288 1215.5 148.288 1206.78 Q148.288 1198.03 151.344 1193.44 Q154.422 1188.84 160.232 1188.84 Z" fill="#000000" fill-rule="evenodd" fill-opacity="1" /><path clip-path="url(#clip8000)" d="M 0 0 M155.857 788.264 L172.177 788.264 L172.177 792.199 L150.232 792.199 L150.232 788.264 Q152.894 785.509 157.478 780.88 Q162.084 776.227 163.265 774.884 Q165.51 772.361 166.39 770.625 Q167.293 768.866 167.293 767.176 Q167.293 764.421 165.348 762.685 Q163.427 760.949 160.325 760.949 Q158.126 760.949 155.672 761.713 Q153.242 762.477 150.464 764.028 L150.464 759.306 Q153.288 758.172 155.742 757.593 Q158.195 757.014 160.232 757.014 Q165.603 757.014 168.797 759.699 Q171.992 762.384 171.992 766.875 Q171.992 769.005 171.181 770.926 Q170.394 772.824 168.288 775.417 Q167.709 776.088 164.607 779.306 Q161.506 782.5 155.857 788.264 Z" fill="#000000" fill-rule="evenodd" fill-opacity="1" /><path clip-path="url(#clip8000)" d="M 0 0 M162.594 329.89 L150.788 348.339 L162.594 348.339 L162.594 329.89 M161.367 325.816 L167.246 325.816 L167.246 348.339 L172.177 348.339 L172.177 352.228 L167.246 352.228 L167.246 360.376 L162.594 360.376 L162.594 352.228 L146.992 352.228 L146.992 347.714 L161.367 325.816 Z" fill="#000000" fill-rule="evenodd" fill-opacity="1" /><path clip-path="url(#clip8000)" d="M 0 0 M585.658 12.096 L593.841 12.096 L593.841 36.8875 L623.575 36.8875 L623.575 12.096 L631.757 12.096 L631.757 72.576 L623.575 72.576 L623.575 43.7741 L593.841 43.7741 L593.841 72.576 L585.658 72.576 L585.658 12.096 Z" fill="#000000" fill-rule="evenodd" fill-opacity="1" /><path clip-path="url(#clip8000)" d="M 0 0 M657.157 32.4315 Q651.161 32.4315 647.677 37.1306 Q644.194 41.7891 644.194 49.9314 Q644.194 58.0738 647.637 62.7728 Q651.121 67.4314 657.157 67.4314 Q663.111 67.4314 666.595 62.7323 Q670.079 58.0333 670.079 49.9314 Q670.079 41.8701 666.595 37.1711 Q663.111 32.4315 657.157 32.4315 M657.157 26.1121 Q666.879 26.1121 672.428 32.4315 Q677.978 38.7509 677.978 49.9314 Q677.978 61.0714 672.428 67.4314 Q666.879 73.7508 657.157 73.7508 Q647.394 73.7508 641.844 67.4314 Q636.335 61.0714 636.335 49.9314 Q636.335 38.7509 641.844 32.4315 Q647.394 26.1121 657.157 26.1121 Z" fill="#000000" fill-rule="evenodd" fill-opacity="1" /><path clip-path="url(#clip8000)" d="M 0 0 M680.449 27.2059 L688.349 27.2059 L702.527 65.2844 L716.705 27.2059 L724.604 27.2059 L707.59 72.576 L697.463 72.576 L680.449 27.2059 Z" fill="#000000" fill-rule="evenodd" fill-opacity="1" /><path clip-path="url(#clip8000)" d="M 0 0 M771.23 48.0275 L771.23 51.6733 L736.959 51.6733 Q737.445 59.3701 741.577 63.421 Q745.75 67.4314 753.163 67.4314 Q757.457 67.4314 761.467 66.3781 Q765.518 65.3249 769.488 63.2184 L769.488 70.267 Q765.478 71.9684 761.265 72.8596 Q757.052 73.7508 752.717 73.7508 Q741.861 73.7508 735.501 67.4314 Q729.182 61.1119 729.182 50.3365 Q729.182 39.1965 735.177 32.6746 Q741.213 26.1121 751.421 26.1121 Q760.576 26.1121 765.883 32.0264 Q771.23 37.9003 771.23 48.0275 M763.776 45.84 Q763.695 39.7232 760.333 36.0774 Q757.011 32.4315 751.502 32.4315 Q745.264 32.4315 741.496 35.9558 Q737.77 39.4801 737.202 45.8805 L763.776 45.84 Z" fill="#000000" fill-rule="evenodd" fill-opacity="1" /><path clip-path="url(#clip8000)" d="M 0 0 M805.339 34.1734 Q804.083 33.4443 802.584 33.1202 Q801.126 32.7556 799.343 32.7556 Q793.024 32.7556 789.621 36.8875 Q786.259 40.9789 786.259 48.6757 L786.259 72.576 L778.765 72.576 L778.765 27.2059 L786.259 27.2059 L786.259 34.2544 Q788.608 30.1225 792.376 28.1376 Q796.143 26.1121 801.531 26.1121 Q802.3 26.1121 803.232 26.2337 Q804.164 26.3147 805.298 26.5172 L805.339 34.1734 Z" fill="#000000" fill-rule="evenodd" fill-opacity="1" /><path clip-path="url(#clip8000)" d="M 0 0 M813.157 27.2059 L820.611 27.2059 L820.611 72.576 L813.157 72.576 L813.157 27.2059 M813.157 9.54393 L820.611 9.54393 L820.611 18.9825 L813.157 18.9825 L813.157 9.54393 Z" fill="#000000" fill-rule="evenodd" fill-opacity="1" /><path clip-path="url(#clip8000)" d="M 0 0 M866.143 45.1919 L866.143 72.576 L858.689 72.576 L858.689 45.4349 Q858.689 38.994 856.177 35.7938 Q853.666 32.5936 848.643 32.5936 Q842.607 32.5936 839.123 36.4419 Q835.639 40.2903 835.639 46.9338 L835.639 72.576 L828.145 72.576 L828.145 27.2059 L835.639 27.2059 L835.639 34.2544 Q838.313 30.163 841.918 28.1376 Q845.564 26.1121 850.304 26.1121 Q858.122 26.1121 862.132 30.9732 Q866.143 35.7938 866.143 45.1919 Z" fill="#000000" fill-rule="evenodd" fill-opacity="1" /><path clip-path="url(#clip8000)" d="M 0 0 M903.816 49.3643 Q903.816 41.2625 900.454 36.8065 Q897.132 32.3505 891.096 32.3505 Q885.101 32.3505 881.739 36.8065 Q878.417 41.2625 878.417 49.3643 Q878.417 57.4256 881.739 61.8816 Q885.101 66.3376 891.096 66.3376 Q897.132 66.3376 900.454 61.8816 Q903.816 57.4256 903.816 49.3643 M911.27 66.9452 Q911.27 78.5308 906.125 84.1616 Q900.98 89.8329 890.367 89.8329 Q886.438 89.8329 882.954 89.2252 Q879.47 88.6581 876.189 87.4428 L876.189 80.1917 Q879.47 81.9741 882.67 82.8248 Q885.871 83.6755 889.192 83.6755 Q896.524 83.6755 900.17 79.8271 Q903.816 76.0193 903.816 68.282 L903.816 64.5957 Q901.507 68.6061 897.902 70.5911 Q894.296 72.576 889.273 72.576 Q880.929 72.576 875.824 66.2161 Q870.72 59.8562 870.72 49.3643 Q870.72 38.832 875.824 32.472 Q880.929 26.1121 889.273 26.1121 Q894.296 26.1121 897.902 28.0971 Q901.507 30.082 903.816 34.0924 L903.816 27.2059 L911.27 27.2059 L911.27 66.9452 Z" fill="#000000" fill-rule="evenodd" fill-opacity="1" /><path clip-path="url(#clip8000)" d="M 0 0 M941.125 27.2059 L948.579 27.2059 L957.896 62.6108 L967.172 27.2059 L975.963 27.2059 L985.28 62.6108 L994.556 27.2059 L1002.01 27.2059 L990.141 72.576 L981.35 72.576 L971.588 35.3887 L961.785 72.576 L952.994 72.576 L941.125 27.2059 Z" fill="#000000" fill-rule="evenodd" fill-opacity="1" /><path clip-path="url(#clip8000)" d="M 0 0 M1009.83 27.2059 L1017.28 27.2059 L1017.28 72.576 L1009.83 72.576 L1009.83 27.2059 M1009.83 9.54393 L1017.28 9.54393 L1017.28 18.9825 L1009.83 18.9825 L1009.83 9.54393 Z" fill="#000000" fill-rule="evenodd" fill-opacity="1" /><path clip-path="url(#clip8000)" d="M 0 0 M1032.47 14.324 L1032.47 27.2059 L1047.83 27.2059 L1047.83 32.9987 L1032.47 32.9987 L1032.47 57.6282 Q1032.47 63.1779 1033.97 64.7578 Q1035.51 66.3376 1040.17 66.3376 L1047.83 66.3376 L1047.83 72.576 L1040.17 72.576 Q1031.54 72.576 1028.26 69.3758 Q1024.98 66.1351 1024.98 57.6282 L1024.98 32.9987 L1019.51 32.9987 L1019.51 27.2059 L1024.98 27.2059 L1024.98 14.324 L1032.47 14.324 Z" fill="#000000" fill-rule="evenodd" fill-opacity="1" /><path clip-path="url(#clip8000)" d="M 0 0 M1093.36 45.1919 L1093.36 72.576 L1085.9 72.576 L1085.9 45.4349 Q1085.9 38.994 1083.39 35.7938 Q1080.88 32.5936 1075.86 32.5936 Q1069.82 32.5936 1066.34 36.4419 Q1062.85 40.2903 1062.85 46.9338 L1062.85 72.576 L1055.36 72.576 L1055.36 9.54393 L1062.85 9.54393 L1062.85 34.2544 Q1065.53 30.163 1069.13 28.1376 Q1072.78 26.1121 1077.52 26.1121 Q1085.34 26.1121 1089.35 30.9732 Q1093.36 35.7938 1093.36 45.1919 Z" fill="#000000" fill-rule="evenodd" fill-opacity="1" /><path clip-path="url(#clip8000)" d="M 0 0 M1151.08 19.2256 L1130.42 51.5113 L1151.08 51.5113 L1151.08 19.2256 M1148.94 12.096 L1159.23 12.096 L1159.23 51.5113 L1167.85 51.5113 L1167.85 58.3168 L1159.23 58.3168 L1159.23 72.576 L1151.08 72.576 L1151.08 58.3168 L1123.78 58.3168 L1123.78 50.4176 L1148.94 12.096 Z" fill="#000000" fill-rule="evenodd" fill-opacity="1" /><path clip-path="url(#clip8000)" d="M 0 0 M1226.92 17.6457 Q1218 17.6457 1212.74 24.2892 Q1207.51 30.9327 1207.51 42.3968 Q1207.51 53.8203 1212.74 60.4638 Q1218 67.1073 1226.92 67.1073 Q1235.83 67.1073 1241.01 60.4638 Q1246.24 53.8203 1246.24 42.3968 Q1246.24 30.9327 1241.01 24.2892 Q1235.83 17.6457 1226.92 17.6457 M1238.38 71.4823 L1249.16 83.2704 L1239.27 83.2704 L1230.32 73.5887 Q1228.98 73.6697 1228.25 73.7103 Q1227.56 73.7508 1226.92 73.7508 Q1214.16 73.7508 1206.5 65.2439 Q1198.88 56.6965 1198.88 42.3968 Q1198.88 28.0566 1206.5 19.5497 Q1214.16 11.0023 1226.92 11.0023 Q1239.64 11.0023 1247.25 19.5497 Q1254.87 28.0566 1254.87 42.3968 Q1254.87 52.9291 1250.61 60.4233 Q1246.4 67.9175 1238.38 71.4823 Z" fill="#000000" fill-rule="evenodd" fill-opacity="1" /><path clip-path="url(#clip8000)" d="M 0 0 M1261.92 54.671 L1261.92 27.2059 L1269.37 27.2059 L1269.37 54.3874 Q1269.37 60.8284 1271.88 64.0691 Q1274.39 67.2693 1279.42 67.2693 Q1285.45 67.2693 1288.94 63.421 Q1292.46 59.5726 1292.46 52.9291 L1292.46 27.2059 L1299.91 27.2059 L1299.91 72.576 L1292.46 72.576 L1292.46 65.6084 Q1289.75 69.7404 1286.14 71.7658 Q1282.58 73.7508 1277.84 73.7508 Q1270.02 73.7508 1265.97 68.8897 Q1261.92 64.0286 1261.92 54.671 M1280.67 26.1121 L1280.67 26.1121 Z" fill="#000000" fill-rule="evenodd" fill-opacity="1" /><path clip-path="url(#clip8000)" d="M 0 0 M1328.35 49.7694 Q1319.32 49.7694 1315.83 51.8354 Q1312.35 53.9013 1312.35 58.8839 Q1312.35 62.8538 1314.94 65.2034 Q1317.58 67.5124 1322.07 67.5124 Q1328.27 67.5124 1332 63.1374 Q1335.76 58.7219 1335.76 51.4303 L1335.76 49.7694 L1328.35 49.7694 M1343.22 46.6907 L1343.22 72.576 L1335.76 72.576 L1335.76 65.6895 Q1333.21 69.8214 1329.4 71.8063 Q1325.6 73.7508 1320.09 73.7508 Q1313.12 73.7508 1308.99 69.8619 Q1304.9 65.9325 1304.9 59.3701 Q1304.9 51.7138 1310 47.825 Q1315.14 43.9361 1325.31 43.9361 L1335.76 43.9361 L1335.76 43.2069 Q1335.76 38.0623 1332.36 35.2672 Q1329 32.4315 1322.88 32.4315 Q1318.99 32.4315 1315.31 33.3632 Q1311.62 34.295 1308.22 36.1584 L1308.22 29.2718 Q1312.31 27.692 1316.16 26.9223 Q1320.01 26.1121 1323.65 26.1121 Q1333.5 26.1121 1338.36 31.2163 Q1343.22 36.3204 1343.22 46.6907 Z" fill="#000000" fill-rule="evenodd" fill-opacity="1" /><path clip-path="url(#clip8000)" d="M 0 0 M1380.89 34.0924 L1380.89 9.54393 L1388.34 9.54393 L1388.34 72.576 L1380.89 72.576 L1380.89 65.7705 Q1378.54 69.8214 1374.94 71.8063 Q1371.37 73.7508 1366.35 73.7508 Q1358.13 73.7508 1352.94 67.1883 Q1347.8 60.6258 1347.8 49.9314 Q1347.8 39.2371 1352.94 32.6746 Q1358.13 26.1121 1366.35 26.1121 Q1371.37 26.1121 1374.94 28.0971 Q1378.54 30.0415 1380.89 34.0924 M1355.49 49.9314 Q1355.49 58.1548 1358.85 62.8538 Q1362.26 67.5124 1368.17 67.5124 Q1374.09 67.5124 1377.49 62.8538 Q1380.89 58.1548 1380.89 49.9314 Q1380.89 41.7081 1377.49 37.0496 Q1374.09 32.3505 1368.17 32.3505 Q1362.26 32.3505 1358.85 37.0496 Q1355.49 41.7081 1355.49 49.9314 Z" fill="#000000" fill-rule="evenodd" fill-opacity="1" /><path clip-path="url(#clip8000)" d="M 0 0 M1422.45 34.1734 Q1421.2 33.4443 1419.7 33.1202 Q1418.24 32.7556 1416.46 32.7556 Q1410.14 32.7556 1406.74 36.8875 Q1403.37 40.9789 1403.37 48.6757 L1403.37 72.576 L1395.88 72.576 L1395.88 27.2059 L1403.37 27.2059 L1403.37 34.2544 Q1405.72 30.1225 1409.49 28.1376 Q1413.26 26.1121 1418.65 26.1121 Q1419.42 26.1121 1420.35 26.2337 Q1421.28 26.3147 1422.41 26.5172 L1422.45 34.1734 Z" fill="#000000" fill-rule="evenodd" fill-opacity="1" /><path clip-path="url(#clip8000)" d="M 0 0 M1446.03 32.4315 Q1440.03 32.4315 1436.55 37.1306 Q1433.07 41.7891 1433.07 49.9314 Q1433.07 58.0738 1436.51 62.7728 Q1439.99 67.4314 1446.03 67.4314 Q1451.98 67.4314 1455.47 62.7323 Q1458.95 58.0333 1458.95 49.9314 Q1458.95 41.8701 1455.47 37.1711 Q1451.98 32.4315 1446.03 32.4315 M1446.03 26.1121 Q1455.75 26.1121 1461.3 32.4315 Q1466.85 38.7509 1466.85 49.9314 Q1466.85 61.0714 1461.3 67.4314 Q1455.75 73.7508 1446.03 73.7508 Q1436.27 73.7508 1430.72 67.4314 Q1425.21 61.0714 1425.21 49.9314 Q1425.21 38.7509 1430.72 32.4315 Q1436.27 26.1121 1446.03 26.1121 Z" fill="#000000" fill-rule="evenodd" fill-opacity="1" /><path clip-path="url(#clip8000)" d="M 0 0 M1482.04 14.324 L1482.04 27.2059 L1497.4 27.2059 L1497.4 32.9987 L1482.04 32.9987 L1482.04 57.6282 Q1482.04 63.1779 1483.54 64.7578 Q1485.08 66.3376 1489.74 66.3376 L1497.4 66.3376 L1497.4 72.576 L1489.74 72.576 Q1481.11 72.576 1477.83 69.3758 Q1474.55 66.1351 1474.55 57.6282 L1474.55 32.9987 L1469.08 32.9987 L1469.08 27.2059 L1474.55 27.2059 L1474.55 14.324 L1482.04 14.324 Z" fill="#000000" fill-rule="evenodd" fill-opacity="1" /><path clip-path="url(#clip8000)" d="M 0 0 M1522.79 32.4315 Q1516.8 32.4315 1513.32 37.1306 Q1509.83 41.7891 1509.83 49.9314 Q1509.83 58.0738 1513.27 62.7728 Q1516.76 67.4314 1522.79 67.4314 Q1528.75 67.4314 1532.23 62.7323 Q1535.72 58.0333 1535.72 49.9314 Q1535.72 41.8701 1532.23 37.1711 Q1528.75 32.4315 1522.79 32.4315 M1522.79 26.1121 Q1532.52 26.1121 1538.07 32.4315 Q1543.62 38.7509 1543.62 49.9314 Q1543.62 61.0714 1538.07 67.4314 Q1532.52 73.7508 1522.79 73.7508 Q1513.03 73.7508 1507.48 67.4314 Q1501.97 61.0714 1501.97 49.9314 Q1501.97 38.7509 1507.48 32.4315 Q1513.03 26.1121 1522.79 26.1121 Z" fill="#000000" fill-rule="evenodd" fill-opacity="1" /><path clip-path="url(#clip8000)" d="M 0 0 M1577.72 34.1734 Q1576.47 33.4443 1574.97 33.1202 Q1573.51 32.7556 1571.73 32.7556 Q1565.41 32.7556 1562.01 36.8875 Q1558.64 40.9789 1558.64 48.6757 L1558.64 72.576 L1551.15 72.576 L1551.15 27.2059 L1558.64 27.2059 L1558.64 34.2544 Q1560.99 30.1225 1564.76 28.1376 Q1568.53 26.1121 1573.92 26.1121 Q1574.69 26.1121 1575.62 26.2337 Q1576.55 26.3147 1577.68 26.5172 L1577.72 34.1734 Z" fill="#000000" fill-rule="evenodd" fill-opacity="1" /><path clip-path="url(#clip8000)" d="M 0 0 M1614.47 28.5427 L1614.47 35.5912 Q1611.31 33.9709 1607.9 33.1607 Q1604.5 32.3505 1600.86 32.3505 Q1595.31 32.3505 1592.51 34.0519 Q1589.76 35.7533 1589.76 39.156 Q1589.76 41.7486 1591.74 43.2475 Q1593.73 44.7058 1599.72 46.0426 L1602.27 46.6097 Q1610.21 48.3111 1613.53 51.4303 Q1616.9 54.509 1616.9 60.0587 Q1616.9 66.3781 1611.87 70.0644 Q1606.89 73.7508 1598.14 73.7508 Q1594.5 73.7508 1590.53 73.0216 Q1586.6 72.3329 1582.22 70.9151 L1582.22 63.2184 Q1586.35 65.3654 1590.36 66.4591 Q1594.37 67.5124 1598.3 67.5124 Q1603.57 67.5124 1606.4 65.73 Q1609.24 63.9071 1609.24 60.6258 Q1609.24 57.5877 1607.17 55.9673 Q1605.15 54.3469 1598.22 52.8481 L1595.63 52.2405 Q1588.7 50.7821 1585.62 47.7845 Q1582.55 44.7463 1582.55 39.4801 Q1582.55 33.0797 1587.08 29.5959 Q1591.62 26.1121 1599.96 26.1121 Q1604.1 26.1121 1607.74 26.7198 Q1611.39 27.3274 1614.47 28.5427 Z" fill="#000000" fill-rule="evenodd" fill-opacity="1" /><path clip-path="url(#clip8000)" d="M 0 0 M1647.32 46.5287 L1669.15 46.5287 L1669.15 53.1722 L1647.32 53.1722 L1647.32 46.5287 Z" fill="#000000" fill-rule="evenodd" fill-opacity="1" /><path clip-path="url(#clip8000)" d="M 0 0 M1723.88 20.1573 L1712.78 50.2555 L1735.02 50.2555 L1723.88 20.1573 M1719.26 12.096 L1728.54 12.096 L1751.59 72.576 L1743.08 72.576 L1737.57 57.061 L1710.31 57.061 L1704.8 72.576 L1696.17 72.576 L1719.26 12.096 Z" fill="#000000" fill-rule="evenodd" fill-opacity="1" /><path clip-path="url(#clip8000)" d="M 0 0 M1789.26 49.3643 Q1789.26 41.2625 1785.9 36.8065 Q1782.58 32.3505 1776.54 32.3505 Q1770.55 32.3505 1767.19 36.8065 Q1763.86 41.2625 1763.86 49.3643 Q1763.86 57.4256 1767.19 61.8816 Q1770.55 66.3376 1776.54 66.3376 Q1782.58 66.3376 1785.9 61.8816 Q1789.26 57.4256 1789.26 49.3643 M1796.72 66.9452 Q1796.72 78.5308 1791.57 84.1616 Q1786.43 89.8329 1775.81 89.8329 Q1771.88 89.8329 1768.4 89.2252 Q1764.92 88.6581 1761.64 87.4428 L1761.64 80.1917 Q1764.92 81.9741 1768.12 82.8248 Q1771.32 83.6755 1774.64 83.6755 Q1781.97 83.6755 1785.62 79.8271 Q1789.26 76.0193 1789.26 68.282 L1789.26 64.5957 Q1786.95 68.6061 1783.35 70.5911 Q1779.74 72.576 1774.72 72.576 Q1766.38 72.576 1761.27 66.2161 Q1756.17 59.8562 1756.17 49.3643 Q1756.17 38.832 1761.27 32.472 Q1766.38 26.1121 1774.72 26.1121 Q1779.74 26.1121 1783.35 28.0971 Q1786.95 30.082 1789.26 34.0924 L1789.26 27.2059 L1796.72 27.2059 L1796.72 66.9452 Z" fill="#000000" fill-rule="evenodd" fill-opacity="1" /><path clip-path="url(#clip8000)" d="M 0 0 M1843.34 48.0275 L1843.34 51.6733 L1809.07 51.6733 Q1809.56 59.3701 1813.69 63.421 Q1817.86 67.4314 1825.28 67.4314 Q1829.57 67.4314 1833.58 66.3781 Q1837.63 65.3249 1841.6 63.2184 L1841.6 70.267 Q1837.59 71.9684 1833.38 72.8596 Q1829.16 73.7508 1824.83 73.7508 Q1813.97 73.7508 1807.61 67.4314 Q1801.29 61.1119 1801.29 50.3365 Q1801.29 39.1965 1807.29 32.6746 Q1813.33 26.1121 1823.53 26.1121 Q1832.69 26.1121 1838 32.0264 Q1843.34 37.9003 1843.34 48.0275 M1835.89 45.84 Q1835.81 39.7232 1832.45 36.0774 Q1829.12 32.4315 1823.61 32.4315 Q1817.38 32.4315 1813.61 35.9558 Q1809.88 39.4801 1809.31 45.8805 L1835.89 45.84 Z" fill="#000000" fill-rule="evenodd" fill-opacity="1" /><path clip-path="url(#clip8000)" d="M 0 0 M1888.87 45.1919 L1888.87 72.576 L1881.42 72.576 L1881.42 45.4349 Q1881.42 38.994 1878.91 35.7938 Q1876.4 32.5936 1871.37 32.5936 Q1865.34 32.5936 1861.85 36.4419 Q1858.37 40.2903 1858.37 46.9338 L1858.37 72.576 L1850.88 72.576 L1850.88 27.2059 L1858.37 27.2059 L1858.37 34.2544 Q1861.04 30.163 1864.65 28.1376 Q1868.3 26.1121 1873.04 26.1121 Q1880.85 26.1121 1884.86 30.9732 Q1888.87 35.7938 1888.87 45.1919 Z" fill="#000000" fill-rule="evenodd" fill-opacity="1" /><path clip-path="url(#clip8000)" d="M 0 0 M1904.07 14.324 L1904.07 27.2059 L1919.42 27.2059 L1919.42 32.9987 L1904.07 32.9987 L1904.07 57.6282 Q1904.07 63.1779 1905.56 64.7578 Q1907.1 66.3376 1911.76 66.3376 L1919.42 66.3376 L1919.42 72.576 L1911.76 72.576 Q1903.13 72.576 1899.85 69.3758 Q1896.57 66.1351 1896.57 57.6282 L1896.57 32.9987 L1891.1 32.9987 L1891.1 27.2059 L1896.57 27.2059 L1896.57 14.324 L1904.07 14.324 Z" fill="#000000" fill-rule="evenodd" fill-opacity="1" /><path clip-path="url(#clip8000)" d="M 0 0 M1969.53 72.576 L1946.44 12.096 L1954.99 12.096 L1974.15 63.0159 L1993.35 12.096 L2001.85 12.096 L1978.8 72.576 L1969.53 72.576 Z" fill="#000000" fill-rule="evenodd" fill-opacity="1" /><path clip-path="url(#clip8000)" d="M 0 0 M2042.04 48.0275 L2042.04 51.6733 L2007.77 51.6733 Q2008.25 59.3701 2012.39 63.421 Q2016.56 67.4314 2023.97 67.4314 Q2028.27 67.4314 2032.28 66.3781 Q2036.33 65.3249 2040.3 63.2184 L2040.3 70.267 Q2036.29 71.9684 2032.07 72.8596 Q2027.86 73.7508 2023.53 73.7508 Q2012.67 73.7508 2006.31 67.4314 Q1999.99 61.1119 1999.99 50.3365 Q1999.99 39.1965 2005.99 32.6746 Q2012.02 26.1121 2022.23 26.1121 Q2031.39 26.1121 2036.69 32.0264 Q2042.04 37.9003 2042.04 48.0275 M2034.59 45.84 Q2034.5 39.7232 2031.14 36.0774 Q2027.82 32.4315 2022.31 32.4315 Q2016.07 32.4315 2012.31 35.9558 Q2008.58 39.4801 2008.01 45.8805 L2034.59 45.84 Z" fill="#000000" fill-rule="evenodd" fill-opacity="1" /><path clip-path="url(#clip8000)" d="M 0 0 M2049.86 9.54393 L2057.31 9.54393 L2057.31 72.576 L2049.86 72.576 L2049.86 9.54393 Z" fill="#000000" fill-rule="evenodd" fill-opacity="1" /><path clip-path="url(#clip8000)" d="M 0 0 M2082.71 32.4315 Q2076.71 32.4315 2073.23 37.1306 Q2069.75 41.7891 2069.75 49.9314 Q2069.75 58.0738 2073.19 62.7728 Q2076.67 67.4314 2082.71 67.4314 Q2088.67 67.4314 2092.15 62.7323 Q2095.63 58.0333 2095.63 49.9314 Q2095.63 41.8701 2092.15 37.1711 Q2088.67 32.4315 2082.71 32.4315 M2082.71 26.1121 Q2092.43 26.1121 2097.98 32.4315 Q2103.53 38.7509 2103.53 49.9314 Q2103.53 61.0714 2097.98 67.4314 Q2092.43 73.7508 2082.71 73.7508 Q2072.95 73.7508 2067.4 67.4314 Q2061.89 61.0714 2061.89 49.9314 Q2061.89 38.7509 2067.4 32.4315 Q2072.95 26.1121 2082.71 26.1121 Z" fill="#000000" fill-rule="evenodd" fill-opacity="1" /><path clip-path="url(#clip8000)" d="M 0 0 M2144 28.9478 L2144 35.9153 Q2140.84 34.1734 2137.64 33.3227 Q2134.48 32.4315 2131.24 32.4315 Q2123.99 32.4315 2119.98 37.0496 Q2115.97 41.6271 2115.97 49.9314 Q2115.97 58.2358 2119.98 62.8538 Q2123.99 67.4314 2131.24 67.4314 Q2134.48 67.4314 2137.64 66.5807 Q2140.84 65.6895 2144 63.9476 L2144 70.8341 Q2140.88 72.2924 2137.52 73.0216 Q2134.2 73.7508 2130.43 73.7508 Q2120.18 73.7508 2114.15 67.3098 Q2108.11 60.8689 2108.11 49.9314 Q2108.11 38.832 2114.19 32.472 Q2120.3 26.1121 2130.92 26.1121 Q2134.36 26.1121 2137.64 26.8413 Q2140.92 27.5299 2144 28.9478 Z" fill="#000000" fill-rule="evenodd" fill-opacity="1" /><path clip-path="url(#clip8000)" d="M 0 0 M2151.82 27.2059 L2159.27 27.2059 L2159.27 72.576 L2151.82 72.576 L2151.82 27.2059 M2151.82 9.54393 L2159.27 9.54393 L2159.27 18.9825 L2151.82 18.9825 L2151.82 9.54393 Z" fill="#000000" fill-rule="evenodd" fill-opacity="1" /><path clip-path="url(#clip8000)" d="M 0 0 M2174.46 14.324 L2174.46 27.2059 L2189.82 27.2059 L2189.82 32.9987 L2174.46 32.9987 L2174.46 57.6282 Q2174.46 63.1779 2175.96 64.7578 Q2177.5 66.3376 2182.16 66.3376 L2189.82 66.3376 L2189.82 72.576 L2182.16 72.576 Q2173.53 72.576 2170.25 69.3758 Q2166.97 66.1351 2166.97 57.6282 L2166.97 32.9987 L2161.5 32.9987 L2161.5 27.2059 L2166.97 27.2059 L2166.97 14.324 L2174.46 14.324 Z" fill="#000000" fill-rule="evenodd" fill-opacity="1" /><path clip-path="url(#clip8000)" d="M 0 0 M2216.51 76.7889 Q2213.35 84.8907 2210.35 87.3618 Q2207.36 89.8329 2202.33 89.8329 L2196.38 89.8329 L2196.38 83.5945 L2200.75 83.5945 Q2203.83 83.5945 2205.53 82.1361 Q2207.24 80.6778 2209.3 75.2496 L2210.64 71.8468 L2192.29 27.2059 L2200.19 27.2059 L2214.36 62.6918 L2228.54 27.2059 L2236.44 27.2059 L2216.51 76.7889 Z" fill="#000000" fill-rule="evenodd" fill-opacity="1" /><path clip-path="url(#clip8000)" d="M 0 0 M1292.89 2298.26 L1333.09 2298.26 L1333.09 2303.67 L1316.22 2303.67 L1316.22 2345.78 L1309.76 2345.78 L1309.76 2303.67 L1292.89 2303.67 L1292.89 2298.26 Z" fill="#000000" fill-rule="evenodd" fill-opacity="1" /><path clip-path="url(#clip8000)" d="M 0 0 M1337.22 2310.14 L1343.08 2310.14 L1343.08 2345.78 L1337.22 2345.78 L1337.22 2310.14 M1337.22 2296.26 L1343.08 2296.26 L1343.08 2303.67 L1337.22 2303.67 L1337.22 2296.26 Z" fill="#000000" fill-rule="evenodd" fill-opacity="1" /><path clip-path="url(#clip8000)" d="M 0 0 M1376.98 2316.98 Q1379.17 2313.03 1382.23 2311.15 Q1385.28 2309.28 1389.42 2309.28 Q1394.99 2309.28 1398.02 2313.19 Q1401.04 2317.07 1401.04 2324.27 L1401.04 2345.78 L1395.15 2345.78 L1395.15 2324.46 Q1395.15 2319.33 1393.34 2316.85 Q1391.52 2314.37 1387.8 2314.37 Q1383.25 2314.37 1380.61 2317.39 Q1377.96 2320.42 1377.96 2325.64 L1377.96 2345.78 L1372.08 2345.78 L1372.08 2324.46 Q1372.08 2319.3 1370.26 2316.85 Q1368.45 2314.37 1364.66 2314.37 Q1360.17 2314.37 1357.53 2317.42 Q1354.89 2320.45 1354.89 2325.64 L1354.89 2345.78 L1349 2345.78 L1349 2310.14 L1354.89 2310.14 L1354.89 2315.67 Q1356.89 2312.4 1359.69 2310.84 Q1362.5 2309.28 1366.35 2309.28 Q1370.23 2309.28 1372.94 2311.25 Q1375.67 2313.22 1376.98 2316.98 Z" fill="#000000" fill-rule="evenodd" fill-opacity="1" /><path clip-path="url(#clip8000)" d="M 0 0 M1437.67 2326.5 L1437.67 2329.36 L1410.75 2329.36 Q1411.13 2335.41 1414.38 2338.59 Q1417.65 2341.74 1423.48 2341.74 Q1426.85 2341.74 1430 2340.91 Q1433.19 2340.09 1436.31 2338.43 L1436.31 2343.97 Q1433.16 2345.31 1429.84 2346.01 Q1426.53 2346.71 1423.13 2346.71 Q1414.6 2346.71 1409.6 2341.74 Q1404.64 2336.78 1404.64 2328.31 Q1404.64 2319.56 1409.35 2314.43 Q1414.09 2309.28 1422.11 2309.28 Q1429.3 2309.28 1433.47 2313.92 Q1437.67 2318.54 1437.67 2326.5 M1431.82 2324.78 Q1431.75 2319.97 1429.11 2317.11 Q1426.5 2314.24 1422.17 2314.24 Q1417.27 2314.24 1414.31 2317.01 Q1411.38 2319.78 1410.94 2324.81 L1431.82 2324.78 Z" fill="#000000" fill-rule="evenodd" fill-opacity="1" /><path clip-path="url(#clip8000)" d="M 0 0 M1478.61 2296.32 Q1474.34 2303.64 1472.27 2310.8 Q1470.2 2317.97 1470.2 2325.32 Q1470.2 2332.67 1472.27 2339.9 Q1474.37 2347.09 1478.61 2354.38 L1473.51 2354.38 Q1468.74 2346.9 1466.35 2339.67 Q1464 2332.45 1464 2325.32 Q1464 2318.22 1466.35 2311.03 Q1468.71 2303.83 1473.51 2296.32 L1478.61 2296.32 Z" fill="#000000" fill-rule="evenodd" fill-opacity="1" /><path clip-path="url(#clip8000)" d="M 0 0 M1507.47 2311.19 L1507.47 2316.72 Q1504.99 2315.45 1502.32 2314.81 Q1499.64 2314.18 1496.78 2314.18 Q1492.42 2314.18 1490.22 2315.51 Q1488.06 2316.85 1488.06 2319.53 Q1488.06 2321.56 1489.62 2322.74 Q1491.18 2323.89 1495.89 2324.94 L1497.89 2325.38 Q1504.13 2326.72 1506.74 2329.17 Q1509.38 2331.59 1509.38 2335.95 Q1509.38 2340.91 1505.44 2343.81 Q1501.52 2346.71 1494.65 2346.71 Q1491.78 2346.71 1488.66 2346.13 Q1485.58 2345.59 1482.14 2344.48 L1482.14 2338.43 Q1485.39 2340.12 1488.54 2340.98 Q1491.69 2341.81 1494.78 2341.81 Q1498.91 2341.81 1501.14 2340.4 Q1503.37 2338.97 1503.37 2336.39 Q1503.37 2334.01 1501.75 2332.73 Q1500.15 2331.46 1494.71 2330.28 L1492.67 2329.81 Q1487.23 2328.66 1484.81 2326.3 Q1482.39 2323.92 1482.39 2319.78 Q1482.39 2314.75 1485.96 2312.01 Q1489.52 2309.28 1496.08 2309.28 Q1499.33 2309.28 1502.19 2309.75 Q1505.06 2310.23 1507.47 2311.19 Z" fill="#000000" fill-rule="evenodd" fill-opacity="1" /><path clip-path="url(#clip8000)" d="M 0 0 M1514.6 2296.32 L1519.7 2296.32 Q1524.47 2303.83 1526.83 2311.03 Q1529.21 2318.22 1529.21 2325.32 Q1529.21 2332.45 1526.83 2339.67 Q1524.47 2346.9 1519.7 2354.38 L1514.6 2354.38 Q1518.84 2347.09 1520.91 2339.9 Q1523.01 2332.67 1523.01 2325.32 Q1523.01 2317.97 1520.91 2310.8 Q1518.84 2303.64 1514.6 2296.32 Z" fill="#000000" fill-rule="evenodd" fill-opacity="1" /><path clip-path="url(#clip8000)" d="M 0 0 M42.7847 1277.4 Q42.7847 1284.4 48.0045 1288.54 Q53.2244 1292.65 62.2319 1292.65 Q71.2075 1292.65 76.4274 1288.54 Q81.6473 1284.4 81.6473 1277.4 Q81.6473 1270.4 76.4274 1266.33 Q71.2075 1262.22 62.2319 1262.22 Q53.2244 1262.22 48.0045 1266.33 Q42.7847 1270.4 42.7847 1277.4 M85.0848 1268.4 L94.3469 1259.93 L94.3469 1267.69 L86.7399 1274.73 Q86.8035 1275.78 86.8354 1276.35 Q86.8672 1276.89 86.8672 1277.4 Q86.8672 1287.43 80.1832 1293.44 Q73.4674 1299.43 62.2319 1299.43 Q50.9646 1299.43 44.2806 1293.44 Q37.5648 1287.43 37.5648 1277.4 Q37.5648 1267.41 44.2806 1261.42 Q50.9646 1255.44 62.2319 1255.44 Q70.5073 1255.44 76.3956 1258.78 Q82.2839 1262.09 85.0848 1268.4 Z" fill="#000000" fill-rule="evenodd" fill-opacity="1" /><path clip-path="url(#clip8000)" d="M 0 0 M36.419 1274.73 L36.419 1268.87 L43.835 1268.87 L43.835 1274.73 L36.419 1274.73 M49.4368 1271.74 L49.4368 1271.74 Z" fill="#000000" fill-rule="evenodd" fill-opacity="1" /><path clip-path="url(#clip8000)" d="M 0 0 M82.443 1263.91 L82.443 1257.41 L62.9958 1257.41 L64.3008 1264.51 L60.6086 1264.51 L59.3673 1257.19 L59.3673 1252.83 L82.443 1252.83 L82.443 1246.31 L85.9442 1246.31 L85.9442 1263.91 L82.443 1263.91 Z" fill="#000000" fill-rule="evenodd" fill-opacity="1" /><path clip-path="url(#clip8000)" d="M 0 0 M36.4826 1205.37 Q43.8032 1209.64 50.9646 1211.71 Q58.126 1213.78 65.4784 1213.78 Q72.8308 1213.78 80.0559 1211.71 Q87.2491 1209.61 94.5379 1205.37 L94.5379 1210.47 Q87.0582 1215.24 79.8331 1217.63 Q72.608 1219.98 65.4784 1219.98 Q58.3806 1219.98 51.1874 1217.63 Q43.9942 1215.27 36.4826 1210.47 L36.4826 1205.37 Z" fill="#000000" fill-rule="evenodd" fill-opacity="1" /><path clip-path="url(#clip8000)" d="M 0 0 M55.7707 1178.57 Q55.1978 1179.56 54.9432 1180.74 Q54.6567 1181.89 54.6567 1183.29 Q54.6567 1188.25 57.9032 1190.92 Q61.1179 1193.57 67.1653 1193.57 L85.9442 1193.57 L85.9442 1199.45 L50.2962 1199.45 L50.2962 1193.57 L55.8344 1193.57 Q52.5879 1191.72 51.0283 1188.76 Q49.4368 1185.8 49.4368 1181.57 Q49.4368 1180.96 49.5323 1180.23 Q49.596 1179.5 49.7551 1178.61 L55.7707 1178.57 Z" fill="#000000" fill-rule="evenodd" fill-opacity="1" /><path clip-path="url(#clip8000)" d="M 0 0 M68.0247 1156.23 Q68.0247 1163.33 69.6479 1166.07 Q71.2712 1168.8 75.1861 1168.8 Q78.3053 1168.8 80.1514 1166.77 Q81.9656 1164.7 81.9656 1161.16 Q81.9656 1156.29 78.5281 1153.37 Q75.0588 1150.41 69.3297 1150.41 L68.0247 1150.41 L68.0247 1156.23 M65.6057 1144.55 L85.9442 1144.55 L85.9442 1150.41 L80.5333 1150.41 Q83.7798 1152.41 85.3394 1155.4 Q86.8672 1158.4 86.8672 1162.72 Q86.8672 1168.2 83.8116 1171.45 Q80.7243 1174.66 75.5681 1174.66 Q69.5525 1174.66 66.4969 1170.65 Q63.4414 1166.61 63.4414 1158.62 L63.4414 1150.41 L62.8685 1150.41 Q58.8262 1150.41 56.6301 1153.08 Q54.4021 1155.72 54.4021 1160.53 Q54.4021 1163.58 55.1341 1166.48 Q55.8662 1169.38 57.3303 1172.05 L51.9195 1172.05 Q50.6781 1168.84 50.0734 1165.81 Q49.4368 1162.79 49.4368 1159.92 Q49.4368 1152.19 53.4472 1148.37 Q57.4576 1144.55 65.6057 1144.55 Z" fill="#000000" fill-rule="evenodd" fill-opacity="1" /><path clip-path="url(#clip8000)" d="M 0 0 M55.7071 1114.95 L36.419 1114.95 L36.419 1109.09 L85.9442 1109.09 L85.9442 1114.95 L80.597 1114.95 Q83.7798 1116.8 85.3394 1119.63 Q86.8672 1122.43 86.8672 1126.38 Q86.8672 1132.84 81.711 1136.91 Q76.5547 1140.95 68.152 1140.95 Q59.7493 1140.95 54.5931 1136.91 Q49.4368 1132.84 49.4368 1126.38 Q49.4368 1122.43 50.9964 1119.63 Q52.5242 1116.8 55.7071 1114.95 M68.152 1134.91 Q74.6132 1134.91 78.3053 1132.26 Q81.9656 1129.59 81.9656 1124.94 Q81.9656 1120.3 78.3053 1117.62 Q74.6132 1114.95 68.152 1114.95 Q61.6908 1114.95 58.0305 1117.62 Q54.3384 1120.3 54.3384 1124.94 Q54.3384 1129.59 58.0305 1132.26 Q61.6908 1134.91 68.152 1134.91 Z" fill="#000000" fill-rule="evenodd" fill-opacity="1" /><path clip-path="url(#clip8000)" d="M 0 0 M38.4242 1092.54 L38.4242 1087.13 L91.9916 1103.68 L91.9916 1109.09 L38.4242 1092.54 Z" fill="#000000" fill-rule="evenodd" fill-opacity="1" /><path clip-path="url(#clip8000)" d="M 0 0 M51.3465 1058.26 L56.8847 1058.26 Q55.6116 1060.75 54.975 1063.42 Q54.3384 1066.09 54.3384 1068.96 Q54.3384 1073.32 55.6752 1075.51 Q57.012 1077.68 59.6856 1077.68 Q61.7226 1077.68 62.9003 1076.12 Q64.0461 1074.56 65.0965 1069.85 L65.5421 1067.84 Q66.8789 1061.61 69.3297 1059 Q71.7486 1056.35 76.1091 1056.35 Q81.0744 1056.35 83.9708 1060.3 Q86.8672 1064.21 86.8672 1071.09 Q86.8672 1073.95 86.2943 1077.07 Q85.7532 1080.16 84.6392 1083.6 L78.5918 1083.6 Q80.2787 1080.35 81.138 1077.2 Q81.9656 1074.05 81.9656 1070.96 Q81.9656 1066.82 80.5651 1064.6 Q79.1329 1062.37 76.5547 1062.37 Q74.1676 1062.37 72.8945 1063.99 Q71.6213 1065.58 70.4437 1071.03 L69.9662 1073.06 Q68.8204 1078.51 66.4651 1080.92 Q64.078 1083.34 59.9402 1083.34 Q54.9113 1083.34 52.1741 1079.78 Q49.4368 1076.21 49.4368 1069.66 Q49.4368 1066.41 49.9143 1063.55 Q50.3917 1060.68 51.3465 1058.26 Z" fill="#000000" fill-rule="evenodd" fill-opacity="1" /><path clip-path="url(#clip8000)" d="M 0 0 M36.4826 1051.13 L36.4826 1046.04 Q43.9942 1041.27 51.1874 1038.91 Q58.3806 1036.52 65.4784 1036.52 Q72.608 1036.52 79.8331 1038.91 Q87.0582 1041.27 94.5379 1046.04 L94.5379 1051.13 Q87.2491 1046.9 80.0559 1044.83 Q72.8308 1042.73 65.4784 1042.73 Q58.126 1042.73 50.9646 1044.83 Q43.8032 1046.9 36.4826 1051.13 Z" fill="#000000" fill-rule="evenodd" fill-opacity="1" /><polyline clip-path="url(#clip8002)" style="stroke:#009af9; stroke-width:16; stroke-opacity:1; fill:none" points="
  272.49,1206.74 283.876,1461.24 295.262,1462.12 306.647,1514.18 318.033,1545.7 329.418,1525.28 340.804,1462.87 352.19,1382.36 363.575,1306.28 374.961,1245.24 
  386.346,1199.88 397.732,1167.66 409.118,1144.67 420.503,1128.54 431.889,1117.06 443.274,1109.16 454.66,1103.79 466.046,1100.39 477.431,1098.47 488.817,1097.68 
  500.202,1097.75 511.588,1098.5 522.974,1099.75 534.359,1101.44 545.745,1103.41 557.13,1105.72 568.516,1108.21 579.901,1111.04 591.287,1113.96 602.673,1117.23 
  614.058,1120.53 625.444,1124.19 636.829,1127.79 648.215,1131.75 659.601,1135.53 670.986,1139.68 682.372,1143.53 693.757,1147.74 705.143,1151.55 716.529,1155.71 
  727.914,1159.38 739.3,1163.43 750.685,1166.89 762.071,1170.77 773.457,1173.98 784.842,1177.67 796.228,1180.63 807.613,1184.13 818.999,1186.85 830.385,1190.19 
  841.77,1192.69 853.156,1195.93 864.541,1198.24 875.927,1201.44 887.313,1203.61 898.698,1206.86 910.084,1208.95 921.469,1212.34 932.855,1214.38 944.241,1218.04 
  955.626,1220.1 967.012,1224.16 978.397,1226.29 989.783,1230.93 1001.17,1233.25 1012.55,1238.71 1023.94,1241.48 1035.33,1210.9 1046.71,1247.15 1058.1,1244.04 
  1069.48,1242.4 1080.87,1239.26 1092.25,1237.48 1103.64,1234.53 1115.02,1232.75 1126.41,1230.07 1137.8,1228.35 1149.18,1225.97 1160.57,1224.36 1171.95,1222.28 
  1183.34,1220.8 1194.72,1219 1206.11,1217.67 1217.49,1216.14 1228.88,1214.97 1240.27,1213.68 1251.65,1212.67 1263.04,1211.61 1274.42,1210.76 1285.81,1209.9 
  1297.19,1209.21 1308.58,1208.53 1319.97,1207.98 1331.35,1207.47 1342.74,1207.05 1354.12,1206.68 1365.51,1206.39 1376.89,1206.15 1388.28,1205.96 1399.66,1205.83 
  1411.05,1205.74 1422.44,1205.7 1433.82,1205.69 1445.21,1205.73 1456.59,1205.8 1467.98,1205.9 1479.36,1206.02 1490.75,1206.18 1502.13,1206.35 1513.52,1206.55 
  1524.91,1206.75 1536.29,1206.98 1547.68,1207.21 1559.06,1207.46 1570.45,1207.71 1581.83,1207.97 1593.22,1208.23 1604.61,1208.49 1615.99,1208.75 1627.38,1209.01 
  1638.76,1209.26 1650.15,1209.51 1661.53,1209.75 1672.92,1209.99 1684.3,1210.21 1695.69,1210.42 1707.08,1210.63 1718.46,1210.82 1729.85,1210.99 1741.23,1211.16 
  1752.62,1211.3 1764,1211.44 1775.39,1211.55 1786.77,1211.66 1798.16,1211.74 1809.55,1211.81 1820.93,1211.86 1832.32,1211.9 1843.7,1211.91 1855.09,1211.91 
  1866.47,1211.9 1877.86,1211.87 1889.25,1211.82 1900.63,1211.75 1912.02,1211.67 1923.4,1211.57 1934.79,1211.46 1946.17,1211.33 1957.56,1211.18 1968.94,1211.03 
  1980.33,1210.86 1991.72,1210.67 2003.1,1210.47 2014.49,1210.27 2025.87,1210.04 2037.26,1209.81 2048.64,1209.57 2060.03,1209.32 2071.41,1209.05 2082.8,1208.79 
  2094.19,1208.51 2105.57,1208.23 2116.96,1207.93 2128.34,1207.65 2139.73,1207.34 2151.11,1207.05 2162.5,1206.73 2173.89,1206.44 2185.27,1206.12 2196.66,1205.83 
  2208.04,1205.51 2219.43,1205.23 2230.81,1204.92 2242.2,1204.65 2253.58,1204.34 2264.97,1204.09 2276.36,1203.81 2287.74,1203.58 2299.13,1203.32 2310.51,1203.12 
  2321.9,1202.89 2333.28,1202.73 2344.67,1202.54 2356.05,1202.42 2367.44,1202.3 2378.83,1202.22 2390.21,1202.17 2401.6,1202.14 2412.98,1202.18 2424.37,1202.21 
  2435.75,1202.37 2447.14,1202.44 2458.53,1202.76 2469.91,1202.87 2481.3,1203.37 2492.68,1203.51 2504.07,1204.25 2515.45,1204.37 2526.84,1205.39 2538.22,1205.46 
  2549.61,1206.74 
  "/>
<polyline clip-path="url(#clip8002)" style="stroke:#e26f46; stroke-width:16; stroke-opacity:1; fill:none" points="
  272.49,1206.74 283.876,189.727 295.262,449.134 306.647,1048.41 318.033,1408.12 329.418,1443.51 340.804,1402.53 352.19,1337.57 363.575,1295.45 374.961,1260.5 
  386.346,1241.85 397.732,1226.59 409.118,1218.66 420.503,1212.05 431.889,1208.35 443.274,1205.53 454.66,1203.66 466.046,1202.61 477.431,1201.66 488.817,1201.47 
  500.202,1201.07 511.588,1201.29 522.974,1201.22 534.359,1201.63 545.745,1201.76 557.13,1202.25 568.516,1202.5 579.901,1203.02 591.287,1203.35 602.673,1203.88 
  614.058,1204.28 625.444,1204.82 636.829,1205.27 648.215,1205.83 659.601,1206.31 670.986,1206.89 682.372,1207.41 693.757,1208 705.143,1208.55 716.529,1209.17 
  727.914,1209.74 739.3,1210.37 750.685,1210.98 762.071,1211.64 773.457,1212.27 784.842,1212.96 796.228,1213.64 807.613,1214.37 818.999,1215.1 830.385,1215.89 
  841.77,1216.69 853.156,1217.56 864.541,1218.45 875.927,1219.43 887.313,1220.43 898.698,1221.56 910.084,1222.7 921.469,1223.99 932.855,1225.3 944.241,1226.8 
  955.626,1228.32 967.012,1230.08 978.397,1231.85 989.783,1233.92 1001.17,1236.02 1012.55,1238.48 1023.94,1241 1035.33,1210.48 1046.71,1242.12 1058.1,1239.95 
  1069.48,1237.91 1080.87,1235.73 1092.25,1233.73 1103.64,1231.65 1115.02,1229.75 1126.41,1227.83 1137.8,1226.07 1149.18,1224.32 1160.57,1222.72 1171.95,1221.15 
  1183.34,1219.71 1194.72,1218.32 1206.11,1217.05 1217.49,1215.83 1228.88,1214.72 1240.27,1213.67 1251.65,1212.71 1263.04,1211.82 1274.42,1211.02 1285.81,1210.28 
  1297.19,1209.62 1308.58,1209.02 1319.97,1208.49 1331.35,1208.02 1342.74,1207.62 1354.12,1207.27 1365.51,1206.98 1376.89,1206.74 1388.28,1206.55 1399.66,1206.4 
  1411.05,1206.3 1422.44,1206.25 1433.82,1206.23 1445.21,1206.24 1456.59,1206.29 1467.98,1206.37 1479.36,1206.48 1490.75,1206.61 1502.13,1206.76 1513.52,1206.93 
  1524.91,1207.12 1536.29,1207.32 1547.68,1207.54 1559.06,1207.76 1570.45,1207.99 1581.83,1208.23 1593.22,1208.47 1604.61,1208.71 1615.99,1208.95 1627.38,1209.19 
  1638.76,1209.43 1650.15,1209.66 1661.53,1209.88 1672.92,1210.09 1684.3,1210.3 1695.69,1210.49 1707.08,1210.67 1718.46,1210.85 1729.85,1211 1741.23,1211.15 
  1752.62,1211.28 1764,1211.39 1775.39,1211.49 1786.77,1211.58 1798.16,1211.64 1809.55,1211.7 1820.93,1211.73 1832.32,1211.75 1843.7,1211.76 1855.09,1211.75 
  1866.47,1211.72 1877.86,1211.68 1889.25,1211.62 1900.63,1211.54 1912.02,1211.45 1923.4,1211.35 1934.79,1211.23 1946.17,1211.1 1957.56,1210.95 1968.94,1210.8 
  1980.33,1210.62 1991.72,1210.44 2003.1,1210.25 2014.49,1210.04 2025.87,1209.82 2037.26,1209.6 2048.64,1209.36 2060.03,1209.13 2071.41,1208.87 2082.8,1208.62 
  2094.19,1208.34 2105.57,1208.08 2116.96,1207.8 2128.34,1207.53 2139.73,1207.23 2151.11,1206.96 2162.5,1206.65 2173.89,1206.38 2185.27,1206.08 2196.66,1205.81 
  2208.04,1205.5 2219.43,1205.24 2230.81,1204.94 2242.2,1204.69 2253.58,1204.4 2264.97,1204.17 2276.36,1203.9 2287.74,1203.69 2299.13,1203.44 2310.51,1203.27 
  2321.9,1203.04 2333.28,1202.91 2344.67,1202.72 2356.05,1202.63 2367.44,1202.5 2378.83,1202.45 2390.21,1202.39 2401.6,1202.39 2412.98,1202.41 2424.37,1202.46 
  2435.75,1202.6 2447.14,1202.7 2458.53,1202.97 2469.91,1203.11 2481.3,1203.56 2492.68,1203.73 2504.07,1204.39 2515.45,1204.56 2526.84,1205.47 2538.22,1205.59 
  2549.61,1206.74 
  "/>
<polyline clip-path="url(#clip8002)" style="stroke:#3da44d; stroke-width:16; stroke-opacity:1; fill:none" points="
  272.49,1206.74 283.876,1652.77 295.262,1658.01 306.647,1577.58 318.033,1470.13 329.418,1373.6 340.804,1305.98 352.19,1261.51 363.575,1228.48 374.961,1201.23 
  386.346,1177.87 397.732,1158.67 409.118,1143.47 420.503,1131.97 431.889,1123.58 443.274,1117.73 454.66,1113.88 466.046,1111.61 477.431,1110.56 488.817,1110.46 
  500.202,1111.05 511.588,1112.22 522.974,1113.75 534.359,1115.64 545.745,1117.72 557.13,1120.06 568.516,1122.47 579.901,1125.13 591.287,1127.79 602.673,1130.72 
  614.058,1133.58 625.444,1136.72 636.829,1139.71 648.215,1142.99 659.601,1146.05 670.986,1149.4 682.372,1152.45 693.757,1155.78 705.143,1158.75 716.529,1162.02 
  727.914,1164.85 739.3,1168.01 750.685,1170.68 762.071,1173.71 773.457,1176.19 784.842,1179.09 796.228,1181.4 807.613,1184.19 818.999,1186.34 830.385,1189.06 
  841.77,1191.08 853.156,1193.79 864.541,1195.7 875.927,1198.46 887.313,1200.32 898.698,1203.22 910.084,1205.06 921.469,1208.19 932.855,1210.06 944.241,1213.53 
  955.626,1215.47 967.012,1219.43 978.397,1221.48 989.783,1226.1 1001.17,1228.37 1012.55,1233.86 1023.94,1236.55 1035.33,1210.41 1046.71,1242.11 1058.1,1239.09 
  1069.48,1237.53 1080.87,1234.56 1092.25,1232.91 1103.64,1230.18 1115.02,1228.54 1126.41,1226.11 1137.8,1224.55 1149.18,1222.42 1160.57,1220.97 1171.95,1219.13 
  1183.34,1217.83 1194.72,1216.26 1206.11,1215.11 1217.49,1213.8 1228.88,1212.8 1240.27,1211.72 1251.65,1210.88 1263.04,1210.01 1274.42,1209.32 1285.81,1208.64 
  1297.19,1208.09 1308.58,1207.57 1319.97,1207.16 1331.35,1206.79 1342.74,1206.49 1354.12,1206.25 1365.51,1206.07 1376.89,1205.93 1388.28,1205.84 1399.66,1205.8 
  1411.05,1205.8 1422.44,1205.84 1433.82,1205.9 1445.21,1206.01 1456.59,1206.13 1467.98,1206.29 1479.36,1206.46 1490.75,1206.66 1502.13,1206.86 1513.52,1207.09 
  1524.91,1207.33 1536.29,1207.58 1547.68,1207.83 1559.06,1208.09 1570.45,1208.35 1581.83,1208.62 1593.22,1208.89 1604.61,1209.15 1615.99,1209.41 1627.38,1209.67 
  1638.76,1209.91 1650.15,1210.16 1661.53,1210.39 1672.92,1210.61 1684.3,1210.82 1695.69,1211.03 1707.08,1211.21 1718.46,1211.39 1729.85,1211.55 1741.23,1211.7 
  1752.62,1211.83 1764,1211.94 1775.39,1212.04 1786.77,1212.13 1798.16,1212.19 1809.55,1212.24 1820.93,1212.28 1832.32,1212.29 1843.7,1212.29 1855.09,1212.28 
  1866.47,1212.24 1877.86,1212.19 1889.25,1212.13 1900.63,1212.05 1912.02,1211.95 1923.4,1211.84 1934.79,1211.71 1946.17,1211.56 1957.56,1211.41 1968.94,1211.24 
  1980.33,1211.05 1991.72,1210.85 2003.1,1210.64 2014.49,1210.42 2025.87,1210.19 2037.26,1209.94 2048.64,1209.69 2060.03,1209.43 2071.41,1209.15 2082.8,1208.88 
  2094.19,1208.58 2105.57,1208.3 2116.96,1207.99 2128.34,1207.7 2139.73,1207.38 2151.11,1207.08 2162.5,1206.75 2173.89,1206.45 2185.27,1206.12 2196.66,1205.83 
  2208.04,1205.5 2219.43,1205.21 2230.81,1204.89 2242.2,1204.61 2253.58,1204.3 2264.97,1204.04 2276.36,1203.75 2287.74,1203.51 2299.13,1203.24 2310.51,1203.04 
  2321.9,1202.81 2333.28,1202.64 2344.67,1202.45 2356.05,1202.33 2367.44,1202.2 2378.83,1202.12 2390.21,1202.07 2401.6,1202.04 2412.98,1202.08 2424.37,1202.1 
  2435.75,1202.27 2447.14,1202.34 2458.53,1202.67 2469.91,1202.78 2481.3,1203.3 2492.68,1203.43 2504.07,1204.19 2515.45,1204.32 2526.84,1205.36 2538.22,1205.43 
  2549.61,1206.74 
  "/>
<polyline clip-path="url(#clip8002)" style="stroke:#c271d2; stroke-width:16; stroke-opacity:1; fill:none" points="
  272.49,1206.74 283.876,2146.22 295.262,1932.21 306.647,1381.61 318.033,1075.84 329.418,1033.58 340.804,1044.15 352.19,1067.34 363.575,1076.42 374.961,1082.73 
  386.346,1083.89 397.732,1084 409.118,1084.38 420.503,1083.52 431.889,1085.16 443.274,1085.16 454.66,1088.57 466.046,1090.2 477.431,1095.37 488.817,1098.75 
  500.202,1105.28 511.588,1110.08 522.974,1117.31 534.359,1122.93 545.745,1130.21 557.13,1136.06 568.516,1142.91 579.901,1148.55 591.287,1154.74 602.673,1159.97 
  614.058,1165.44 625.444,1170.18 636.829,1174.98 648.215,1179.21 659.601,1183.4 670.986,1187.14 682.372,1190.79 693.757,1194.09 705.143,1197.25 716.529,1200.15 
  727.914,1202.89 739.3,1205.42 750.685,1207.79 762.071,1210.01 773.457,1212.07 784.842,1214.02 796.228,1215.83 807.613,1217.56 818.999,1219.16 830.385,1220.73 
  841.77,1222.19 853.156,1223.65 864.541,1225.02 875.927,1226.43 887.313,1227.76 898.698,1229.17 910.084,1230.51 921.469,1231.99 932.855,1233.4 944.241,1235 
  955.626,1236.53 967.012,1238.32 978.397,1240.03 989.783,1242.08 1001.17,1244.07 1012.55,1246.5 1023.94,1248.94 1035.33,1211.29 1046.71,1250.3 1058.1,1247.84 
  1069.48,1245.56 1080.87,1242.98 1092.25,1240.68 1103.64,1238.19 1115.02,1235.98 1126.41,1233.66 1137.8,1231.6 1149.18,1229.47 1160.57,1227.58 1171.95,1225.65 
  1183.34,1223.93 1194.72,1222.22 1206.11,1220.68 1217.49,1219.16 1228.88,1217.8 1240.27,1216.48 1251.65,1215.3 1263.04,1214.16 1274.42,1213.15 1285.81,1212.19 
  1297.19,1211.34 1308.58,1210.54 1319.97,1209.84 1331.35,1209.2 1342.74,1208.64 1354.12,1208.14 1365.51,1207.71 1376.89,1207.33 1388.28,1207.02 1399.66,1206.76 
  1411.05,1206.56 1422.44,1206.4 1433.82,1206.29 1445.21,1206.22 1456.59,1206.19 1467.98,1206.19 1479.36,1206.23 1490.75,1206.3 1502.13,1206.4 1513.52,1206.52 
  1524.91,1206.67 1536.29,1206.83 1547.68,1207.01 1559.06,1207.2 1570.45,1207.41 1581.83,1207.62 1593.22,1207.84 1604.61,1208.07 1615.99,1208.3 1627.38,1208.53 
  1638.76,1208.76 1650.15,1208.98 1661.53,1209.21 1672.92,1209.42 1684.3,1209.63 1695.69,1209.83 1707.08,1210.02 1718.46,1210.2 1729.85,1210.37 1741.23,1210.53 
  1752.62,1210.68 1764,1210.81 1775.39,1210.93 1786.77,1211.03 1798.16,1211.12 1809.55,1211.19 1820.93,1211.25 1832.32,1211.3 1843.7,1211.33 1855.09,1211.34 
  1866.47,1211.34 1877.86,1211.33 1889.25,1211.3 1900.63,1211.26 1912.02,1211.2 1923.4,1211.13 1934.79,1211.05 1946.17,1210.95 1957.56,1210.85 1968.94,1210.73 
  1980.33,1210.6 1991.72,1210.46 2003.1,1210.3 2014.49,1210.15 2025.87,1209.97 2037.26,1209.8 2048.64,1209.61 2060.03,1209.42 2071.41,1209.22 2082.8,1209.02 
  2094.19,1208.81 2105.57,1208.6 2116.96,1208.37 2128.34,1208.16 2139.73,1207.93 2151.11,1207.71 2162.5,1207.48 2173.89,1207.26 2185.27,1207.03 2196.66,1206.81 
  2208.04,1206.58 2219.43,1206.37 2230.81,1206.15 2242.2,1205.95 2253.58,1205.74 2264.97,1205.55 2276.36,1205.35 2287.74,1205.18 2299.13,1205 2310.51,1204.85 
  2321.9,1204.69 2333.28,1204.56 2344.67,1204.44 2356.05,1204.34 2367.44,1204.25 2378.83,1204.18 2390.21,1204.15 2401.6,1204.1 2412.98,1204.13 2424.37,1204.1 
  2435.75,1204.21 2447.14,1204.22 2458.53,1204.42 2469.91,1204.45 2481.3,1204.77 2492.68,1204.8 2504.07,1205.28 2515.45,1205.3 2526.84,1205.94 2538.22,1205.93 
  2549.61,1206.74 
  "/>
<polyline clip-path="url(#clip8002)" style="stroke:#ac8d18; stroke-width:16; stroke-opacity:1; fill:none" points="
  272.49,1206.74 283.876,419.301 295.262,614.335 306.647,1183.05 318.033,1540.95 329.418,1618.83 340.804,1554.84 352.19,1468.52 363.575,1385.39 374.961,1327.91 
  386.346,1281.32 397.732,1252.95 409.118,1229.08 420.503,1216.28 431.889,1204.79 443.274,1200.5 454.66,1196.26 466.046,1196.9 477.431,1196.93 488.817,1200.14 
  500.202,1202.23 511.588,1206.21 522.974,1208.69 534.359,1212.18 545.745,1214.01 557.13,1216.33 568.516,1217.08 579.901,1218.11 591.287,1217.82 602.673,1217.75 
  614.058,1216.68 625.444,1215.84 636.829,1214.29 648.215,1213.02 659.601,1211.28 670.986,1209.83 682.372,1208.1 693.757,1206.66 705.143,1205.08 716.529,1203.78 
  727.914,1202.42 739.3,1201.31 750.685,1200.21 762.071,1199.33 773.457,1198.49 784.842,1197.83 796.228,1197.23 807.613,1196.78 818.999,1196.41 830.385,1196.14 
  841.77,1195.95 853.156,1195.84 864.541,1195.82 875.927,1195.83 887.313,1195.93 898.698,1196.04 910.084,1196.24 921.469,1196.41 932.855,1196.68 944.241,1196.89 
  955.626,1197.2 967.012,1197.44 978.397,1197.77 989.783,1198.03 1001.17,1198.44 1012.55,1198.89 1023.94,1199.88 1035.33,1201.85 1046.71,1200.84 1058.1,1200.55 
  1069.48,1200.74 1080.87,1200.9 1092.25,1201.24 1103.64,1201.45 1115.02,1201.78 1126.41,1201.97 1137.8,1202.25 1149.18,1202.43 1160.57,1202.67 1171.95,1202.82 
  1183.34,1203.02 1194.72,1203.14 1206.11,1203.32 1217.49,1203.42 1228.88,1203.56 1240.27,1203.64 1251.65,1203.76 1263.04,1203.83 1274.42,1203.93 1285.81,1203.99 
  1297.19,1204.07 1308.58,1204.11 1319.97,1204.18 1331.35,1204.22 1342.74,1204.28 1354.12,1204.32 1365.51,1204.37 1376.89,1204.4 1388.28,1204.45 1399.66,1204.48 
  1411.05,1204.52 1422.44,1204.55 1433.82,1204.6 1445.21,1204.62 1456.59,1204.66 1467.98,1204.7 1479.36,1204.73 1490.75,1204.77 1502.13,1204.81 1513.52,1204.84 
  1524.91,1204.88 1536.29,1204.91 1547.68,1204.95 1559.06,1204.98 1570.45,1205.02 1581.83,1205.06 1593.22,1205.1 1604.61,1205.13 1615.99,1205.17 1627.38,1205.21 
  1638.76,1205.25 1650.15,1205.29 1661.53,1205.32 1672.92,1205.36 1684.3,1205.4 1695.69,1205.44 1707.08,1205.47 1718.46,1205.51 1729.85,1205.54 1741.23,1205.58 
  1752.62,1205.61 1764,1205.65 1775.39,1205.68 1786.77,1205.71 1798.16,1205.75 1809.55,1205.78 1820.93,1205.81 1832.32,1205.84 1843.7,1205.87 1855.09,1205.9 
  1866.47,1205.92 1877.86,1205.95 1889.25,1205.98 1900.63,1206 1912.02,1206.03 1923.4,1206.05 1934.79,1206.07 1946.17,1206.09 1957.56,1206.12 1968.94,1206.14 
  1980.33,1206.15 1991.72,1206.17 2003.1,1206.19 2014.49,1206.21 2025.87,1206.22 2037.26,1206.23 2048.64,1206.25 2060.03,1206.26 2071.41,1206.27 2082.8,1206.28 
  2094.19,1206.29 2105.57,1206.3 2116.96,1206.31 2128.34,1206.32 2139.73,1206.33 2151.11,1206.33 2162.5,1206.34 2173.89,1206.34 2185.27,1206.35 2196.66,1206.35 
  2208.04,1206.36 2219.43,1206.36 2230.81,1206.36 2242.2,1206.37 2253.58,1206.37 2264.97,1206.37 2276.36,1206.37 2287.74,1206.37 2299.13,1206.37 2310.51,1206.38 
  2321.9,1206.38 2333.28,1206.38 2344.67,1206.38 2356.05,1206.39 2367.44,1206.39 2378.83,1206.39 2390.21,1206.39 2401.6,1206.4 2412.98,1206.4 2424.37,1206.41 
  2435.75,1206.41 2447.14,1206.42 2458.53,1206.42 2469.91,1206.43 2481.3,1206.43 2492.68,1206.45 2504.07,1206.45 2515.45,1206.47 2526.84,1206.49 2538.22,1206.57 
  2549.61,1206.72 
  "/>
<path clip-path="url(#clip8000)" d="
M2713.92 625.432 L3184.76 625.432 L3184.76 262.552 L2713.92 262.552  Z
  " fill="#ffffff" fill-rule="evenodd" fill-opacity="1"/>
<polyline clip-path="url(#clip8000)" style="stroke:#000000; stroke-width:4; stroke-opacity:1; fill:none" points="
  2713.92,625.432 3184.76,625.432 3184.76,262.552 2713.92,262.552 2713.92,625.432 
  "/>
<polyline clip-path="url(#clip8000)" style="stroke:#009af9; stroke-width:16; stroke-opacity:1; fill:none" points="
  2745.92,323.032 2937.92,323.032 
  "/>
<path clip-path="url(#clip8000)" d="M 0 0 M2991.95 303.633 Q2984.95 303.633 2980.81 308.853 Q2976.7 314.072 2976.7 323.08 Q2976.7 332.056 2980.81 337.275 Q2984.95 342.495 2991.95 342.495 Q2998.95 342.495 3003.03 337.275 Q3007.13 332.056 3007.13 323.08 Q3007.13 314.072 3003.03 308.853 Q2998.95 303.633 2991.95 303.633 M3000.96 345.933 L3009.42 355.195 L3001.66 355.195 L2994.62 347.588 Q2993.57 347.651 2993 347.683 Q2992.46 347.715 2991.95 347.715 Q2981.92 347.715 2975.91 341.031 Q2969.92 334.315 2969.92 323.08 Q2969.92 311.813 2975.91 305.129 Q2981.92 298.413 2991.95 298.413 Q3001.94 298.413 3007.93 305.129 Q3013.91 311.813 3013.91 323.08 Q3013.91 331.355 3010.57 337.244 Q3007.26 343.132 3000.96 345.933 Z" fill="#000000" fill-rule="evenodd" fill-opacity="1" /><path clip-path="url(#clip8000)" d="M 0 0 M3019.45 332.724 L3019.45 311.144 L3025.31 311.144 L3025.31 332.501 Q3025.31 337.562 3027.28 340.108 Q3029.25 342.623 3033.2 342.623 Q3037.94 342.623 3040.68 339.599 Q3043.45 336.575 3043.45 331.355 L3043.45 311.144 L3049.3 311.144 L3049.3 346.792 L3043.45 346.792 L3043.45 341.318 Q3041.31 344.564 3038.48 346.156 Q3035.68 347.715 3031.96 347.715 Q3025.81 347.715 3022.63 343.896 Q3019.45 340.076 3019.45 332.724 M3034.19 310.285 L3034.19 310.285 Z" fill="#000000" fill-rule="evenodd" fill-opacity="1" /><path clip-path="url(#clip8000)" d="M 0 0 M3071.65 328.873 Q3064.55 328.873 3061.81 330.496 Q3059.08 332.119 3059.08 336.034 Q3059.08 339.153 3061.11 340.999 Q3063.18 342.814 3066.71 342.814 Q3071.58 342.814 3074.51 339.376 Q3077.47 335.907 3077.47 330.178 L3077.47 328.873 L3071.65 328.873 M3083.33 326.454 L3083.33 346.792 L3077.47 346.792 L3077.47 341.381 Q3075.47 344.628 3072.47 346.187 Q3069.48 347.715 3065.15 347.715 Q3059.68 347.715 3056.43 344.66 Q3053.22 341.572 3053.22 336.416 Q3053.22 330.4 3057.23 327.345 Q3061.27 324.289 3069.26 324.289 L3077.47 324.289 L3077.47 323.716 Q3077.47 319.674 3074.8 317.478 Q3072.16 315.25 3067.35 315.25 Q3064.29 315.25 3061.4 315.982 Q3058.5 316.714 3055.83 318.178 L3055.83 312.767 Q3059.04 311.526 3062.07 310.921 Q3065.09 310.285 3067.96 310.285 Q3075.69 310.285 3079.51 314.295 Q3083.33 318.306 3083.33 326.454 Z" fill="#000000" fill-rule="evenodd" fill-opacity="1" /><path clip-path="url(#clip8000)" d="M 0 0 M3112.93 316.555 L3112.93 297.267 L3118.79 297.267 L3118.79 346.792 L3112.93 346.792 L3112.93 341.445 Q3111.08 344.628 3108.25 346.187 Q3105.45 347.715 3101.5 347.715 Q3095.04 347.715 3090.97 342.559 Q3086.93 337.403 3086.93 329 Q3086.93 320.597 3090.97 315.441 Q3095.04 310.285 3101.5 310.285 Q3105.45 310.285 3108.25 311.844 Q3111.08 313.372 3112.93 316.555 M3092.97 329 Q3092.97 335.461 3095.61 339.153 Q3098.29 342.814 3102.93 342.814 Q3107.58 342.814 3110.26 339.153 Q3112.93 335.461 3112.93 329 Q3112.93 322.539 3110.26 318.879 Q3107.58 315.186 3102.93 315.186 Q3098.29 315.186 3095.61 318.879 Q3092.97 322.539 3092.97 329 Z" fill="#000000" fill-rule="evenodd" fill-opacity="1" /><path clip-path="url(#clip8000)" d="M 0 0 M3147.59 341.381 L3158.09 341.381 L3158.09 305.129 L3146.67 307.42 L3146.67 301.564 L3158.03 299.272 L3164.46 299.272 L3164.46 341.381 L3174.96 341.381 L3174.96 346.792 L3147.59 346.792 L3147.59 341.381 Z" fill="#000000" fill-rule="evenodd" fill-opacity="1" /><polyline clip-path="url(#clip8000)" style="stroke:#e26f46; stroke-width:16; stroke-opacity:1; fill:none" points="
  2745.92,383.512 2937.92,383.512 
  "/>
<path clip-path="url(#clip8000)" d="M 0 0 M2991.95 364.113 Q2984.95 364.113 2980.81 369.333 Q2976.7 374.552 2976.7 383.56 Q2976.7 392.536 2980.81 397.755 Q2984.95 402.975 2991.95 402.975 Q2998.95 402.975 3003.03 397.755 Q3007.13 392.536 3007.13 383.56 Q3007.13 374.552 3003.03 369.333 Q2998.95 364.113 2991.95 364.113 M3000.96 406.413 L3009.42 415.675 L3001.66 415.675 L2994.62 408.068 Q2993.57 408.131 2993 408.163 Q2992.46 408.195 2991.95 408.195 Q2981.92 408.195 2975.91 401.511 Q2969.92 394.795 2969.92 383.56 Q2969.92 372.293 2975.91 365.609 Q2981.92 358.893 2991.95 358.893 Q3001.94 358.893 3007.93 365.609 Q3013.91 372.293 3013.91 383.56 Q3013.91 391.835 3010.57 397.724 Q3007.26 403.612 3000.96 406.413 Z" fill="#000000" fill-rule="evenodd" fill-opacity="1" /><path clip-path="url(#clip8000)" d="M 0 0 M3019.45 393.204 L3019.45 371.624 L3025.31 371.624 L3025.31 392.981 Q3025.31 398.042 3027.28 400.588 Q3029.25 403.103 3033.2 403.103 Q3037.94 403.103 3040.68 400.079 Q3043.45 397.055 3043.45 391.835 L3043.45 371.624 L3049.3 371.624 L3049.3 407.272 L3043.45 407.272 L3043.45 401.798 Q3041.31 405.044 3038.48 406.636 Q3035.68 408.195 3031.96 408.195 Q3025.81 408.195 3022.63 404.376 Q3019.45 400.556 3019.45 393.204 M3034.19 370.765 L3034.19 370.765 Z" fill="#000000" fill-rule="evenodd" fill-opacity="1" /><path clip-path="url(#clip8000)" d="M 0 0 M3071.65 389.353 Q3064.55 389.353 3061.81 390.976 Q3059.08 392.599 3059.08 396.514 Q3059.08 399.633 3061.11 401.479 Q3063.18 403.294 3066.71 403.294 Q3071.58 403.294 3074.51 399.856 Q3077.47 396.387 3077.47 390.658 L3077.47 389.353 L3071.65 389.353 M3083.33 386.934 L3083.33 407.272 L3077.47 407.272 L3077.47 401.861 Q3075.47 405.108 3072.47 406.667 Q3069.48 408.195 3065.15 408.195 Q3059.68 408.195 3056.43 405.14 Q3053.22 402.052 3053.22 396.896 Q3053.22 390.88 3057.23 387.825 Q3061.27 384.769 3069.26 384.769 L3077.47 384.769 L3077.47 384.196 Q3077.47 380.154 3074.8 377.958 Q3072.16 375.73 3067.35 375.73 Q3064.29 375.73 3061.4 376.462 Q3058.5 377.194 3055.83 378.658 L3055.83 373.247 Q3059.04 372.006 3062.07 371.401 Q3065.09 370.765 3067.96 370.765 Q3075.69 370.765 3079.51 374.775 Q3083.33 378.786 3083.33 386.934 Z" fill="#000000" fill-rule="evenodd" fill-opacity="1" /><path clip-path="url(#clip8000)" d="M 0 0 M3112.93 377.035 L3112.93 357.747 L3118.79 357.747 L3118.79 407.272 L3112.93 407.272 L3112.93 401.925 Q3111.08 405.108 3108.25 406.667 Q3105.45 408.195 3101.5 408.195 Q3095.04 408.195 3090.97 403.039 Q3086.93 397.883 3086.93 389.48 Q3086.93 381.077 3090.97 375.921 Q3095.04 370.765 3101.5 370.765 Q3105.45 370.765 3108.25 372.324 Q3111.08 373.852 3112.93 377.035 M3092.97 389.48 Q3092.97 395.941 3095.61 399.633 Q3098.29 403.294 3102.93 403.294 Q3107.58 403.294 3110.26 399.633 Q3112.93 395.941 3112.93 389.48 Q3112.93 383.019 3110.26 379.359 Q3107.58 375.666 3102.93 375.666 Q3098.29 375.666 3095.61 379.359 Q3092.97 383.019 3092.97 389.48 Z" fill="#000000" fill-rule="evenodd" fill-opacity="1" /><path clip-path="url(#clip8000)" d="M 0 0 M3152.01 401.861 L3174.45 401.861 L3174.45 407.272 L3144.28 407.272 L3144.28 401.861 Q3147.94 398.074 3154.24 391.708 Q3160.58 385.31 3162.2 383.464 Q3165.29 379.995 3166.5 377.608 Q3167.74 375.189 3167.74 372.865 Q3167.74 369.078 3165.06 366.691 Q3162.42 364.304 3158.16 364.304 Q3155.13 364.304 3151.76 365.354 Q3148.42 366.404 3144.6 368.537 L3144.6 362.044 Q3148.48 360.484 3151.86 359.688 Q3155.23 358.893 3158.03 358.893 Q3165.41 358.893 3169.81 362.585 Q3174.2 366.277 3174.2 372.452 Q3174.2 375.38 3173.08 378.022 Q3172 380.632 3169.11 384.196 Q3168.31 385.119 3164.05 389.544 Q3159.78 393.936 3152.01 401.861 Z" fill="#000000" fill-rule="evenodd" fill-opacity="1" /><polyline clip-path="url(#clip8000)" style="stroke:#3da44d; stroke-width:16; stroke-opacity:1; fill:none" points="
  2745.92,443.992 2937.92,443.992 
  "/>
<path clip-path="url(#clip8000)" d="M 0 0 M2991.95 424.593 Q2984.95 424.593 2980.81 429.813 Q2976.7 435.032 2976.7 444.04 Q2976.7 453.016 2980.81 458.235 Q2984.95 463.455 2991.95 463.455 Q2998.95 463.455 3003.03 458.235 Q3007.13 453.016 3007.13 444.04 Q3007.13 435.032 3003.03 429.813 Q2998.95 424.593 2991.95 424.593 M3000.96 466.893 L3009.42 476.155 L3001.66 476.155 L2994.62 468.548 Q2993.57 468.611 2993 468.643 Q2992.46 468.675 2991.95 468.675 Q2981.92 468.675 2975.91 461.991 Q2969.92 455.275 2969.92 444.04 Q2969.92 432.773 2975.91 426.089 Q2981.92 419.373 2991.95 419.373 Q3001.94 419.373 3007.93 426.089 Q3013.91 432.773 3013.91 444.04 Q3013.91 452.315 3010.57 458.204 Q3007.26 464.092 3000.96 466.893 Z" fill="#000000" fill-rule="evenodd" fill-opacity="1" /><path clip-path="url(#clip8000)" d="M 0 0 M3019.45 453.684 L3019.45 432.104 L3025.31 432.104 L3025.31 453.461 Q3025.31 458.522 3027.28 461.068 Q3029.25 463.583 3033.2 463.583 Q3037.94 463.583 3040.68 460.559 Q3043.45 457.535 3043.45 452.315 L3043.45 432.104 L3049.3 432.104 L3049.3 467.752 L3043.45 467.752 L3043.45 462.278 Q3041.31 465.524 3038.48 467.116 Q3035.68 468.675 3031.96 468.675 Q3025.81 468.675 3022.63 464.856 Q3019.45 461.036 3019.45 453.684 M3034.19 431.245 L3034.19 431.245 Z" fill="#000000" fill-rule="evenodd" fill-opacity="1" /><path clip-path="url(#clip8000)" d="M 0 0 M3071.65 449.833 Q3064.55 449.833 3061.81 451.456 Q3059.08 453.079 3059.08 456.994 Q3059.08 460.113 3061.11 461.959 Q3063.18 463.774 3066.71 463.774 Q3071.58 463.774 3074.51 460.336 Q3077.47 456.867 3077.47 451.138 L3077.47 449.833 L3071.65 449.833 M3083.33 447.414 L3083.33 467.752 L3077.47 467.752 L3077.47 462.341 Q3075.47 465.588 3072.47 467.147 Q3069.48 468.675 3065.15 468.675 Q3059.68 468.675 3056.43 465.62 Q3053.22 462.532 3053.22 457.376 Q3053.22 451.36 3057.23 448.305 Q3061.27 445.249 3069.26 445.249 L3077.47 445.249 L3077.47 444.676 Q3077.47 440.634 3074.8 438.438 Q3072.16 436.21 3067.35 436.21 Q3064.29 436.21 3061.4 436.942 Q3058.5 437.674 3055.83 439.138 L3055.83 433.727 Q3059.04 432.486 3062.07 431.881 Q3065.09 431.245 3067.96 431.245 Q3075.69 431.245 3079.51 435.255 Q3083.33 439.266 3083.33 447.414 Z" fill="#000000" fill-rule="evenodd" fill-opacity="1" /><path clip-path="url(#clip8000)" d="M 0 0 M3112.93 437.515 L3112.93 418.227 L3118.79 418.227 L3118.79 467.752 L3112.93 467.752 L3112.93 462.405 Q3111.08 465.588 3108.25 467.147 Q3105.45 468.675 3101.5 468.675 Q3095.04 468.675 3090.97 463.519 Q3086.93 458.363 3086.93 449.96 Q3086.93 441.557 3090.97 436.401 Q3095.04 431.245 3101.5 431.245 Q3105.45 431.245 3108.25 432.804 Q3111.08 434.332 3112.93 437.515 M3092.97 449.96 Q3092.97 456.421 3095.61 460.113 Q3098.29 463.774 3102.93 463.774 Q3107.58 463.774 3110.26 460.113 Q3112.93 456.421 3112.93 449.96 Q3112.93 443.499 3110.26 439.839 Q3107.58 436.146 3102.93 436.146 Q3098.29 436.146 3095.61 439.839 Q3092.97 443.499 3092.97 449.96 Z" fill="#000000" fill-rule="evenodd" fill-opacity="1" /><path clip-path="url(#clip8000)" d="M 0 0 M3165.96 442.13 Q3170.57 443.117 3173.15 446.236 Q3175.76 449.355 3175.76 453.939 Q3175.76 460.973 3170.92 464.824 Q3166.08 468.675 3157.17 468.675 Q3154.18 468.675 3151 468.07 Q3147.84 467.497 3144.47 466.32 L3144.47 460.113 Q3147.14 461.673 3150.33 462.469 Q3153.51 463.264 3156.98 463.264 Q3163.03 463.264 3166.18 460.877 Q3169.36 458.49 3169.36 453.939 Q3169.36 449.737 3166.4 447.382 Q3163.47 444.995 3158.22 444.995 L3152.68 444.995 L3152.68 439.711 L3158.48 439.711 Q3163.22 439.711 3165.73 437.833 Q3168.25 435.924 3168.25 432.359 Q3168.25 428.699 3165.64 426.757 Q3163.06 424.784 3158.22 424.784 Q3155.58 424.784 3152.56 425.357 Q3149.53 425.929 3145.9 427.139 L3145.9 421.41 Q3149.56 420.391 3152.75 419.882 Q3155.96 419.373 3158.79 419.373 Q3166.11 419.373 3170.38 422.715 Q3174.64 426.025 3174.64 431.69 Q3174.64 435.637 3172.38 438.374 Q3170.12 441.08 3165.96 442.13 Z" fill="#000000" fill-rule="evenodd" fill-opacity="1" /><polyline clip-path="url(#clip8000)" style="stroke:#c271d2; stroke-width:16; stroke-opacity:1; fill:none" points="
  2745.92,504.472 2937.92,504.472 
  "/>
<path clip-path="url(#clip8000)" d="M 0 0 M2991.95 485.073 Q2984.95 485.073 2980.81 490.293 Q2976.7 495.512 2976.7 504.52 Q2976.7 513.496 2980.81 518.715 Q2984.95 523.935 2991.95 523.935 Q2998.95 523.935 3003.03 518.715 Q3007.13 513.496 3007.13 504.52 Q3007.13 495.512 3003.03 490.293 Q2998.95 485.073 2991.95 485.073 M3000.96 527.373 L3009.42 536.635 L3001.66 536.635 L2994.62 529.028 Q2993.57 529.091 2993 529.123 Q2992.46 529.155 2991.95 529.155 Q2981.92 529.155 2975.91 522.471 Q2969.92 515.755 2969.92 504.52 Q2969.92 493.253 2975.91 486.569 Q2981.92 479.853 2991.95 479.853 Q3001.94 479.853 3007.93 486.569 Q3013.91 493.253 3013.91 504.52 Q3013.91 512.795 3010.57 518.684 Q3007.26 524.572 3000.96 527.373 Z" fill="#000000" fill-rule="evenodd" fill-opacity="1" /><path clip-path="url(#clip8000)" d="M 0 0 M3019.45 514.164 L3019.45 492.584 L3025.31 492.584 L3025.31 513.941 Q3025.31 519.002 3027.28 521.548 Q3029.25 524.063 3033.2 524.063 Q3037.94 524.063 3040.68 521.039 Q3043.45 518.015 3043.45 512.795 L3043.45 492.584 L3049.3 492.584 L3049.3 528.232 L3043.45 528.232 L3043.45 522.758 Q3041.31 526.004 3038.48 527.596 Q3035.68 529.155 3031.96 529.155 Q3025.81 529.155 3022.63 525.336 Q3019.45 521.516 3019.45 514.164 M3034.19 491.725 L3034.19 491.725 Z" fill="#000000" fill-rule="evenodd" fill-opacity="1" /><path clip-path="url(#clip8000)" d="M 0 0 M3071.65 510.313 Q3064.55 510.313 3061.81 511.936 Q3059.08 513.559 3059.08 517.474 Q3059.08 520.593 3061.11 522.439 Q3063.18 524.254 3066.71 524.254 Q3071.58 524.254 3074.51 520.816 Q3077.47 517.347 3077.47 511.618 L3077.47 510.313 L3071.65 510.313 M3083.33 507.894 L3083.33 528.232 L3077.47 528.232 L3077.47 522.821 Q3075.47 526.068 3072.47 527.627 Q3069.48 529.155 3065.15 529.155 Q3059.68 529.155 3056.43 526.1 Q3053.22 523.012 3053.22 517.856 Q3053.22 511.84 3057.23 508.785 Q3061.27 505.729 3069.26 505.729 L3077.47 505.729 L3077.47 505.156 Q3077.47 501.114 3074.8 498.918 Q3072.16 496.69 3067.35 496.69 Q3064.29 496.69 3061.4 497.422 Q3058.5 498.154 3055.83 499.618 L3055.83 494.207 Q3059.04 492.966 3062.07 492.361 Q3065.09 491.725 3067.96 491.725 Q3075.69 491.725 3079.51 495.735 Q3083.33 499.746 3083.33 507.894 Z" fill="#000000" fill-rule="evenodd" fill-opacity="1" /><path clip-path="url(#clip8000)" d="M 0 0 M3112.93 497.995 L3112.93 478.707 L3118.79 478.707 L3118.79 528.232 L3112.93 528.232 L3112.93 522.885 Q3111.08 526.068 3108.25 527.627 Q3105.45 529.155 3101.5 529.155 Q3095.04 529.155 3090.97 523.999 Q3086.93 518.843 3086.93 510.44 Q3086.93 502.037 3090.97 496.881 Q3095.04 491.725 3101.5 491.725 Q3105.45 491.725 3108.25 493.284 Q3111.08 494.812 3112.93 497.995 M3092.97 510.44 Q3092.97 516.901 3095.61 520.593 Q3098.29 524.254 3102.93 524.254 Q3107.58 524.254 3110.26 520.593 Q3112.93 516.901 3112.93 510.44 Q3112.93 503.979 3110.26 500.319 Q3107.58 496.626 3102.93 496.626 Q3098.29 496.626 3095.61 500.319 Q3092.97 503.979 3092.97 510.44 Z" fill="#000000" fill-rule="evenodd" fill-opacity="1" /><path clip-path="url(#clip8000)" d="M 0 0 M3164.14 486.314 L3147.91 511.681 L3164.14 511.681 L3164.14 486.314 M3162.45 480.712 L3170.54 480.712 L3170.54 511.681 L3177.32 511.681 L3177.32 517.028 L3170.54 517.028 L3170.54 528.232 L3164.14 528.232 L3164.14 517.028 L3142.69 517.028 L3142.69 510.822 L3162.45 480.712 Z" fill="#000000" fill-rule="evenodd" fill-opacity="1" /><polyline clip-path="url(#clip8000)" style="stroke:#ac8d18; stroke-width:16; stroke-opacity:1; fill:none" points="
  2745.92,564.952 2937.92,564.952 
  "/>
<path clip-path="url(#clip8000)" d="M 0 0 M2969.92 541.192 L2976.35 541.192 L2976.35 583.301 L2999.49 583.301 L2999.49 588.712 L2969.92 588.712 L2969.92 541.192 Z" fill="#000000" fill-rule="evenodd" fill-opacity="1" /><path clip-path="url(#clip8000)" d="M 0 0 M3018.3 557.17 Q3013.59 557.17 3010.85 560.862 Q3008.12 564.522 3008.12 570.92 Q3008.12 577.318 3010.82 581.01 Q3013.56 584.67 3018.3 584.67 Q3022.98 584.67 3025.72 580.978 Q3028.46 577.286 3028.46 570.92 Q3028.46 564.586 3025.72 560.894 Q3022.98 557.17 3018.3 557.17 M3018.3 552.205 Q3025.94 552.205 3030.3 557.17 Q3034.66 562.135 3034.66 570.92 Q3034.66 579.673 3030.3 584.67 Q3025.94 589.635 3018.3 589.635 Q3010.63 589.635 3006.27 584.67 Q3001.94 579.673 3001.94 570.92 Q3001.94 562.135 3006.27 557.17 Q3010.63 552.205 3018.3 552.205 Z" fill="#000000" fill-rule="evenodd" fill-opacity="1" /><path clip-path="url(#clip8000)" d="M 0 0 M3057.01 570.793 Q3049.91 570.793 3047.17 572.416 Q3044.43 574.039 3044.43 577.954 Q3044.43 581.073 3046.47 582.919 Q3048.54 584.734 3052.07 584.734 Q3056.94 584.734 3059.87 581.296 Q3062.83 577.827 3062.83 572.098 L3062.83 570.793 L3057.01 570.793 M3068.69 568.374 L3068.69 588.712 L3062.83 588.712 L3062.83 583.301 Q3060.83 586.548 3057.83 588.107 Q3054.84 589.635 3050.51 589.635 Q3045.04 589.635 3041.79 586.58 Q3038.58 583.492 3038.58 578.336 Q3038.58 572.32 3042.59 569.265 Q3046.63 566.209 3054.62 566.209 L3062.83 566.209 L3062.83 565.636 Q3062.83 561.594 3060.16 559.398 Q3057.52 557.17 3052.71 557.17 Q3049.65 557.17 3046.76 557.902 Q3043.86 558.634 3041.19 560.098 L3041.19 554.687 Q3044.4 553.446 3047.43 552.841 Q3050.45 552.205 3053.31 552.205 Q3061.05 552.205 3064.87 556.215 Q3068.69 560.226 3068.69 568.374 Z" fill="#000000" fill-rule="evenodd" fill-opacity="1" /><path clip-path="url(#clip8000)" d="M 0 0 M3098.29 558.475 L3098.29 539.187 L3104.14 539.187 L3104.14 588.712 L3098.29 588.712 L3098.29 583.365 Q3096.44 586.548 3093.61 588.107 Q3090.81 589.635 3086.86 589.635 Q3080.4 589.635 3076.33 584.479 Q3072.28 579.323 3072.28 570.92 Q3072.28 562.517 3076.33 557.361 Q3080.4 552.205 3086.86 552.205 Q3090.81 552.205 3093.61 553.764 Q3096.44 555.292 3098.29 558.475 M3078.33 570.92 Q3078.33 577.381 3080.97 581.073 Q3083.65 584.734 3088.29 584.734 Q3092.94 584.734 3095.61 581.073 Q3098.29 577.381 3098.29 570.92 Q3098.29 564.459 3095.61 560.799 Q3092.94 557.106 3088.29 557.106 Q3083.65 557.106 3080.97 560.799 Q3078.33 564.459 3078.33 570.92 Z" fill="#000000" fill-rule="evenodd" fill-opacity="1" /></svg>
