<?xml version="1.0" encoding="utf-8"?>
<svg xmlns="http://www.w3.org/2000/svg" xmlns:xlink="http://www.w3.org/1999/xlink" width="800" height="600" viewBox="0 0 3200 2400">
<defs>
  <clipPath id="clip6500">
    <rect x="0" y="0" width="3200" height="2400"/>
  </clipPath>
</defs>
<path clip-path="url(#clip6500)" d="
M0 2400 L3200 2400 L3200 0 L0 0  Z
  " fill="#ffffff" fill-rule="evenodd" fill-opacity="1"/>
<defs>
  <clipPath id="clip6501">
    <rect x="640" y="0" width="2241" height="2241"/>
  </clipPath>
</defs>
<path clip-path="url(#clip6500)" d="
M266.676 2204.92 L2617.92 2204.92 L2617.92 131.032 L266.676 131.032  Z
  " fill="#ffffff" fill-rule="evenodd" fill-opacity="1"/>
<defs>
  <clipPath id="clip6502">
    <rect x="266" y="131" width="2352" height="2075"/>
  </clipPath>
</defs>
<polyline clip-path="url(#clip6502)" style="stroke:#000000; stroke-width:2; stroke-opacity:0.1; fill:none" points="
  333.221,2204.92 333.221,131.032 
  "/>
<polyline clip-path="url(#clip6502)" style="stroke:#000000; stroke-width:2; stroke-opacity:0.1; fill:none" points="
  776.853,2204.92 776.853,131.032 
  "/>
<polyline clip-path="url(#clip6502)" style="stroke:#000000; stroke-width:2; stroke-opacity:0.1; fill:none" points="
  1220.48,2204.92 1220.48,131.032 
  "/>
<polyline clip-path="url(#clip6502)" style="stroke:#000000; stroke-width:2; stroke-opacity:0.1; fill:none" points="
  1664.12,2204.92 1664.12,131.032 
  "/>
<polyline clip-path="url(#clip6502)" style="stroke:#000000; stroke-width:2; stroke-opacity:0.1; fill:none" points="
  2107.75,2204.92 2107.75,131.032 
  "/>
<polyline clip-path="url(#clip6502)" style="stroke:#000000; stroke-width:2; stroke-opacity:0.1; fill:none" points="
  2551.38,2204.92 2551.38,131.032 
  "/>
<polyline clip-path="url(#clip6502)" style="stroke:#000000; stroke-width:2; stroke-opacity:0.1; fill:none" points="
  266.676,1998.33 2617.92,1998.33 
  "/>
<polyline clip-path="url(#clip6502)" style="stroke:#000000; stroke-width:2; stroke-opacity:0.1; fill:none" points="
  266.676,1559.65 2617.92,1559.65 
  "/>
<polyline clip-path="url(#clip6502)" style="stroke:#000000; stroke-width:2; stroke-opacity:0.1; fill:none" points="
  266.676,1120.98 2617.92,1120.98 
  "/>
<polyline clip-path="url(#clip6502)" style="stroke:#000000; stroke-width:2; stroke-opacity:0.1; fill:none" points="
  266.676,682.306 2617.92,682.306 
  "/>
<polyline clip-path="url(#clip6502)" style="stroke:#000000; stroke-width:2; stroke-opacity:0.1; fill:none" points="
  266.676,243.632 2617.92,243.632 
  "/>
<polyline clip-path="url(#clip6500)" style="stroke:#000000; stroke-width:4; stroke-opacity:1; fill:none" points="
  266.676,2204.92 2617.92,2204.92 
  "/>
<polyline clip-path="url(#clip6500)" style="stroke:#000000; stroke-width:4; stroke-opacity:1; fill:none" points="
  266.676,2204.92 266.676,131.032 
  "/>
<polyline clip-path="url(#clip6500)" style="stroke:#000000; stroke-width:4; stroke-opacity:1; fill:none" points="
  333.221,2204.92 333.221,2180.03 
  "/>
<polyline clip-path="url(#clip6500)" style="stroke:#000000; stroke-width:4; stroke-opacity:1; fill:none" points="
  776.853,2204.92 776.853,2180.03 
  "/>
<polyline clip-path="url(#clip6500)" style="stroke:#000000; stroke-width:4; stroke-opacity:1; fill:none" points="
  1220.48,2204.92 1220.48,2180.03 
  "/>
<polyline clip-path="url(#clip6500)" style="stroke:#000000; stroke-width:4; stroke-opacity:1; fill:none" points="
  1664.12,2204.92 1664.12,2180.03 
  "/>
<polyline clip-path="url(#clip6500)" style="stroke:#000000; stroke-width:4; stroke-opacity:1; fill:none" points="
  2107.75,2204.92 2107.75,2180.03 
  "/>
<polyline clip-path="url(#clip6500)" style="stroke:#000000; stroke-width:4; stroke-opacity:1; fill:none" points="
  2551.38,2204.92 2551.38,2180.03 
  "/>
<polyline clip-path="url(#clip6500)" style="stroke:#000000; stroke-width:4; stroke-opacity:1; fill:none" points="
  266.676,1998.33 294.891,1998.33 
  "/>
<polyline clip-path="url(#clip6500)" style="stroke:#000000; stroke-width:4; stroke-opacity:1; fill:none" points="
  266.676,1559.65 294.891,1559.65 
  "/>
<polyline clip-path="url(#clip6500)" style="stroke:#000000; stroke-width:4; stroke-opacity:1; fill:none" points="
  266.676,1120.98 294.891,1120.98 
  "/>
<polyline clip-path="url(#clip6500)" style="stroke:#000000; stroke-width:4; stroke-opacity:1; fill:none" points="
  266.676,682.306 294.891,682.306 
  "/>
<polyline clip-path="url(#clip6500)" style="stroke:#000000; stroke-width:4; stroke-opacity:1; fill:none" points="
  266.676,243.632 294.891,243.632 
  "/>
<path clip-path="url(#clip6500)" d="M 0 0 M333.221 2230.91 Q329.61 2230.91 327.781 2234.48 Q325.976 2238.02 325.976 2245.15 Q325.976 2252.25 327.781 2255.82 Q329.61 2259.36 333.221 2259.36 Q336.855 2259.36 338.661 2255.82 Q340.49 2252.25 340.49 2245.15 Q340.49 2238.02 338.661 2234.48 Q336.855 2230.91 333.221 2230.91 M333.221 2227.21 Q339.031 2227.21 342.087 2231.81 Q345.166 2236.4 345.166 2245.15 Q345.166 2253.87 342.087 2258.48 Q339.031 2263.06 333.221 2263.06 Q327.411 2263.06 324.332 2258.48 Q321.277 2253.87 321.277 2245.15 Q321.277 2236.4 324.332 2231.81 Q327.411 2227.21 333.221 2227.21 Z" fill="#000000" fill-rule="evenodd" fill-opacity="1" /><path clip-path="url(#clip6500)" d="M 0 0 M767.235 2258.46 L774.874 2258.46 L774.874 2232.09 L766.563 2233.76 L766.563 2229.5 L774.827 2227.83 L779.503 2227.83 L779.503 2258.46 L787.142 2258.46 L787.142 2262.39 L767.235 2262.39 L767.235 2258.46 Z" fill="#000000" fill-rule="evenodd" fill-opacity="1" /><path clip-path="url(#clip6500)" d="M 0 0 M1215.14 2258.46 L1231.46 2258.46 L1231.46 2262.39 L1209.51 2262.39 L1209.51 2258.46 Q1212.17 2255.7 1216.76 2251.07 Q1221.36 2246.42 1222.54 2245.08 Q1224.79 2242.55 1225.67 2240.82 Q1226.57 2239.06 1226.57 2237.37 Q1226.57 2234.61 1224.63 2232.88 Q1222.71 2231.14 1219.6 2231.14 Q1217.41 2231.14 1214.95 2231.91 Q1212.52 2232.67 1209.74 2234.22 L1209.74 2229.5 Q1212.57 2228.36 1215.02 2227.79 Q1217.47 2227.21 1219.51 2227.21 Q1224.88 2227.21 1228.08 2229.89 Q1231.27 2232.58 1231.27 2237.07 Q1231.27 2239.2 1230.46 2241.12 Q1229.67 2243.02 1227.57 2245.61 Q1226.99 2246.28 1223.89 2249.5 Q1220.79 2252.69 1215.14 2258.46 Z" fill="#000000" fill-rule="evenodd" fill-opacity="1" /><path clip-path="url(#clip6500)" d="M 0 0 M1668.36 2243.76 Q1671.72 2244.48 1673.59 2246.74 Q1675.49 2249.01 1675.49 2252.35 Q1675.49 2257.46 1671.97 2260.26 Q1668.46 2263.06 1661.97 2263.06 Q1659.8 2263.06 1657.48 2262.62 Q1655.19 2262.21 1652.74 2261.35 L1652.74 2256.84 Q1654.68 2257.97 1657 2258.55 Q1659.31 2259.13 1661.84 2259.13 Q1666.23 2259.13 1668.53 2257.39 Q1670.84 2255.66 1670.84 2252.35 Q1670.84 2249.29 1668.69 2247.58 Q1666.56 2245.84 1662.74 2245.84 L1658.71 2245.84 L1658.71 2242 L1662.92 2242 Q1666.37 2242 1668.2 2240.63 Q1670.03 2239.24 1670.03 2236.65 Q1670.03 2233.99 1668.13 2232.58 Q1666.26 2231.14 1662.74 2231.14 Q1660.82 2231.14 1658.62 2231.56 Q1656.42 2231.98 1653.78 2232.85 L1653.78 2228.69 Q1656.44 2227.95 1658.76 2227.58 Q1661.09 2227.21 1663.16 2227.21 Q1668.48 2227.21 1671.58 2229.64 Q1674.68 2232.04 1674.68 2236.17 Q1674.68 2239.04 1673.04 2241.03 Q1671.4 2242.99 1668.36 2243.76 Z" fill="#000000" fill-rule="evenodd" fill-opacity="1" /><path clip-path="url(#clip6500)" d="M 0 0 M2110.76 2231.91 L2098.95 2250.35 L2110.76 2250.35 L2110.76 2231.91 M2109.53 2227.83 L2115.41 2227.83 L2115.41 2250.35 L2120.34 2250.35 L2120.34 2254.24 L2115.41 2254.24 L2115.41 2262.39 L2110.76 2262.39 L2110.76 2254.24 L2095.15 2254.24 L2095.15 2249.73 L2109.53 2227.83 Z" fill="#000000" fill-rule="evenodd" fill-opacity="1" /><path clip-path="url(#clip6500)" d="M 0 0 M2541.66 2227.83 L2560.01 2227.83 L2560.01 2231.77 L2545.94 2231.77 L2545.94 2240.24 Q2546.96 2239.89 2547.98 2239.73 Q2548.99 2239.54 2550.01 2239.54 Q2555.8 2239.54 2559.18 2242.72 Q2562.56 2245.89 2562.56 2251.3 Q2562.56 2256.88 2559.09 2259.98 Q2555.61 2263.06 2549.3 2263.06 Q2547.12 2263.06 2544.85 2262.69 Q2542.61 2262.32 2540.2 2261.58 L2540.2 2256.88 Q2542.28 2258.02 2544.5 2258.57 Q2546.73 2259.13 2549.2 2259.13 Q2553.21 2259.13 2555.55 2257.02 Q2557.88 2254.92 2557.88 2251.3 Q2557.88 2247.69 2555.55 2245.59 Q2553.21 2243.48 2549.2 2243.48 Q2547.33 2243.48 2545.45 2243.9 Q2543.6 2244.31 2541.66 2245.19 L2541.66 2227.83 Z" fill="#000000" fill-rule="evenodd" fill-opacity="1" /><path clip-path="url(#clip6500)" d="M 0 0 M132.432 2000.72 L144.908 2000.72 L144.908 2004.52 L132.432 2004.52 L132.432 2000.72 Z" fill="#000000" fill-rule="evenodd" fill-opacity="1" /><path clip-path="url(#clip6500)" d="M 0 0 M159.978 1984.12 Q156.367 1984.12 154.538 1987.69 Q152.732 1991.23 152.732 1998.36 Q152.732 2005.47 154.538 2009.03 Q156.367 2012.57 159.978 2012.57 Q163.612 2012.57 165.418 2009.03 Q167.246 2005.47 167.246 1998.36 Q167.246 1991.23 165.418 1987.69 Q163.612 1984.12 159.978 1984.12 M159.978 1980.42 Q165.788 1980.42 168.843 1985.03 Q171.922 1989.61 171.922 1998.36 Q171.922 2007.09 168.843 2011.69 Q165.788 2016.28 159.978 2016.28 Q154.168 2016.28 151.089 2011.69 Q148.033 2007.09 148.033 1998.36 Q148.033 1989.61 151.089 1985.03 Q154.168 1980.42 159.978 1980.42 Z" fill="#000000" fill-rule="evenodd" fill-opacity="1" /><path clip-path="url(#clip6500)" d="M 0 0 M176.992 2009.73 L181.876 2009.73 L181.876 2015.61 L176.992 2015.61 L176.992 2009.73 Z" fill="#000000" fill-rule="evenodd" fill-opacity="1" /><path clip-path="url(#clip6500)" d="M 0 0 M187.755 2011.67 L195.394 2011.67 L195.394 1985.31 L187.084 1986.97 L187.084 1982.71 L195.348 1981.05 L200.024 1981.05 L200.024 2011.67 L207.663 2011.67 L207.663 2015.61 L187.755 2015.61 L187.755 2011.67 Z" fill="#000000" fill-rule="evenodd" fill-opacity="1" /><path clip-path="url(#clip6500)" d="M 0 0 M222.732 1984.12 Q219.121 1984.12 217.292 1987.69 Q215.487 1991.23 215.487 1998.36 Q215.487 2005.47 217.292 2009.03 Q219.121 2012.57 222.732 2012.57 Q226.366 2012.57 228.172 2009.03 Q230.001 2005.47 230.001 1998.36 Q230.001 1991.23 228.172 1987.69 Q226.366 1984.12 222.732 1984.12 M222.732 1980.42 Q228.542 1980.42 231.598 1985.03 Q234.676 1989.61 234.676 1998.36 Q234.676 2007.09 231.598 2011.69 Q228.542 2016.28 222.732 2016.28 Q216.922 2016.28 213.843 2011.69 Q210.788 2007.09 210.788 1998.36 Q210.788 1989.61 213.843 1985.03 Q216.922 1980.42 222.732 1980.42 Z" fill="#000000" fill-rule="evenodd" fill-opacity="1" /><path clip-path="url(#clip6500)" d="M 0 0 M132.2 1562.05 L144.677 1562.05 L144.677 1565.84 L132.2 1565.84 L132.2 1562.05 Z" fill="#000000" fill-rule="evenodd" fill-opacity="1" /><path clip-path="url(#clip6500)" d="M 0 0 M159.746 1545.45 Q156.135 1545.45 154.307 1549.02 Q152.501 1552.56 152.501 1559.69 Q152.501 1566.79 154.307 1570.36 Q156.135 1573.9 159.746 1573.9 Q163.381 1573.9 165.186 1570.36 Q167.015 1566.79 167.015 1559.69 Q167.015 1552.56 165.186 1549.02 Q163.381 1545.45 159.746 1545.45 M159.746 1541.75 Q165.556 1541.75 168.612 1546.35 Q171.691 1550.94 171.691 1559.69 Q171.691 1568.41 168.612 1573.02 Q165.556 1577.6 159.746 1577.6 Q153.936 1577.6 150.857 1573.02 Q147.802 1568.41 147.802 1559.69 Q147.802 1550.94 150.857 1546.35 Q153.936 1541.75 159.746 1541.75 Z" fill="#000000" fill-rule="evenodd" fill-opacity="1" /><path clip-path="url(#clip6500)" d="M 0 0 M176.76 1571.05 L181.644 1571.05 L181.644 1576.93 L176.76 1576.93 L176.76 1571.05 Z" fill="#000000" fill-rule="evenodd" fill-opacity="1" /><path clip-path="url(#clip6500)" d="M 0 0 M196.714 1545.45 Q193.103 1545.45 191.274 1549.02 Q189.468 1552.56 189.468 1559.69 Q189.468 1566.79 191.274 1570.36 Q193.103 1573.9 196.714 1573.9 Q200.348 1573.9 202.153 1570.36 Q203.982 1566.79 203.982 1559.69 Q203.982 1552.56 202.153 1549.02 Q200.348 1545.45 196.714 1545.45 M196.714 1541.75 Q202.524 1541.75 205.579 1546.35 Q208.658 1550.94 208.658 1559.69 Q208.658 1568.41 205.579 1573.02 Q202.524 1577.6 196.714 1577.6 Q190.904 1577.6 187.825 1573.02 Q184.769 1568.41 184.769 1559.69 Q184.769 1550.94 187.825 1546.35 Q190.904 1541.75 196.714 1541.75 Z" fill="#000000" fill-rule="evenodd" fill-opacity="1" /><path clip-path="url(#clip6500)" d="M 0 0 M213.774 1542.37 L232.13 1542.37 L232.13 1546.31 L218.056 1546.31 L218.056 1554.78 Q219.075 1554.43 220.093 1554.27 Q221.112 1554.09 222.13 1554.09 Q227.917 1554.09 231.297 1557.26 Q234.676 1560.43 234.676 1565.84 Q234.676 1571.42 231.204 1574.53 Q227.732 1577.6 221.413 1577.6 Q219.237 1577.6 216.968 1577.23 Q214.723 1576.86 212.315 1576.12 L212.315 1571.42 Q214.399 1572.56 216.621 1573.11 Q218.843 1573.67 221.32 1573.67 Q225.325 1573.67 227.663 1571.56 Q230.001 1569.46 230.001 1565.84 Q230.001 1562.23 227.663 1560.13 Q225.325 1558.02 221.32 1558.02 Q219.445 1558.02 217.57 1558.44 Q215.718 1558.85 213.774 1559.73 L213.774 1542.37 Z" fill="#000000" fill-rule="evenodd" fill-opacity="1" /><path clip-path="url(#clip6500)" d="M 0 0 M158.751 1106.78 Q155.14 1106.78 153.311 1110.34 Q151.506 1113.88 151.506 1121.01 Q151.506 1128.12 153.311 1131.69 Q155.14 1135.23 158.751 1135.23 Q162.385 1135.23 164.191 1131.69 Q166.019 1128.12 166.019 1121.01 Q166.019 1113.88 164.191 1110.34 Q162.385 1106.78 158.751 1106.78 M158.751 1103.07 Q164.561 1103.07 167.617 1107.68 Q170.695 1112.26 170.695 1121.01 Q170.695 1129.74 167.617 1134.35 Q164.561 1138.93 158.751 1138.93 Q152.941 1138.93 149.862 1134.35 Q146.807 1129.74 146.807 1121.01 Q146.807 1112.26 149.862 1107.68 Q152.941 1103.07 158.751 1103.07 Z" fill="#000000" fill-rule="evenodd" fill-opacity="1" /><path clip-path="url(#clip6500)" d="M 0 0 M175.765 1132.38 L180.649 1132.38 L180.649 1138.26 L175.765 1138.26 L175.765 1132.38 Z" fill="#000000" fill-rule="evenodd" fill-opacity="1" /><path clip-path="url(#clip6500)" d="M 0 0 M195.718 1106.78 Q192.107 1106.78 190.279 1110.34 Q188.473 1113.88 188.473 1121.01 Q188.473 1128.12 190.279 1131.69 Q192.107 1135.23 195.718 1135.23 Q199.353 1135.23 201.158 1131.69 Q202.987 1128.12 202.987 1121.01 Q202.987 1113.88 201.158 1110.34 Q199.353 1106.78 195.718 1106.78 M195.718 1103.07 Q201.528 1103.07 204.584 1107.68 Q207.663 1112.26 207.663 1121.01 Q207.663 1129.74 204.584 1134.35 Q201.528 1138.93 195.718 1138.93 Q189.908 1138.93 186.829 1134.35 Q183.774 1129.74 183.774 1121.01 Q183.774 1112.26 186.829 1107.68 Q189.908 1103.07 195.718 1103.07 Z" fill="#000000" fill-rule="evenodd" fill-opacity="1" /><path clip-path="url(#clip6500)" d="M 0 0 M222.732 1106.78 Q219.121 1106.78 217.292 1110.34 Q215.487 1113.88 215.487 1121.01 Q215.487 1128.12 217.292 1131.69 Q219.121 1135.23 222.732 1135.23 Q226.366 1135.23 228.172 1131.69 Q230.001 1128.12 230.001 1121.01 Q230.001 1113.88 228.172 1110.34 Q226.366 1106.78 222.732 1106.78 M222.732 1103.07 Q228.542 1103.07 231.598 1107.68 Q234.676 1112.26 234.676 1121.01 Q234.676 1129.74 231.598 1134.35 Q228.542 1138.93 222.732 1138.93 Q216.922 1138.93 213.843 1134.35 Q210.788 1129.74 210.788 1121.01 Q210.788 1112.26 213.843 1107.68 Q216.922 1103.07 222.732 1103.07 Z" fill="#000000" fill-rule="evenodd" fill-opacity="1" /><path clip-path="url(#clip6500)" d="M 0 0 M159.746 668.104 Q156.135 668.104 154.307 671.669 Q152.501 675.211 152.501 682.341 Q152.501 689.447 154.307 693.012 Q156.135 696.553 159.746 696.553 Q163.381 696.553 165.186 693.012 Q167.015 689.447 167.015 682.341 Q167.015 675.211 165.186 671.669 Q163.381 668.104 159.746 668.104 M159.746 664.401 Q165.556 664.401 168.612 669.007 Q171.691 673.591 171.691 682.341 Q171.691 691.067 168.612 695.674 Q165.556 700.257 159.746 700.257 Q153.936 700.257 150.857 695.674 Q147.802 691.067 147.802 682.341 Q147.802 673.591 150.857 669.007 Q153.936 664.401 159.746 664.401 Z" fill="#000000" fill-rule="evenodd" fill-opacity="1" /><path clip-path="url(#clip6500)" d="M 0 0 M176.76 693.706 L181.644 693.706 L181.644 699.586 L176.76 699.586 L176.76 693.706 Z" fill="#000000" fill-rule="evenodd" fill-opacity="1" /><path clip-path="url(#clip6500)" d="M 0 0 M196.714 668.104 Q193.103 668.104 191.274 671.669 Q189.468 675.211 189.468 682.341 Q189.468 689.447 191.274 693.012 Q193.103 696.553 196.714 696.553 Q200.348 696.553 202.153 693.012 Q203.982 689.447 203.982 682.341 Q203.982 675.211 202.153 671.669 Q200.348 668.104 196.714 668.104 M196.714 664.401 Q202.524 664.401 205.579 669.007 Q208.658 673.591 208.658 682.341 Q208.658 691.067 205.579 695.674 Q202.524 700.257 196.714 700.257 Q190.904 700.257 187.825 695.674 Q184.769 691.067 184.769 682.341 Q184.769 673.591 187.825 669.007 Q190.904 664.401 196.714 664.401 Z" fill="#000000" fill-rule="evenodd" fill-opacity="1" /><path clip-path="url(#clip6500)" d="M 0 0 M213.774 665.026 L232.13 665.026 L232.13 668.961 L218.056 668.961 L218.056 677.433 Q219.075 677.086 220.093 676.924 Q221.112 676.739 222.13 676.739 Q227.917 676.739 231.297 679.91 Q234.676 683.081 234.676 688.498 Q234.676 694.077 231.204 697.178 Q227.732 700.257 221.413 700.257 Q219.237 700.257 216.968 699.887 Q214.723 699.516 212.315 698.776 L212.315 694.077 Q214.399 695.211 216.621 695.766 Q218.843 696.322 221.32 696.322 Q225.325 696.322 227.663 694.215 Q230.001 692.109 230.001 688.498 Q230.001 684.887 227.663 682.78 Q225.325 680.674 221.32 680.674 Q219.445 680.674 217.57 681.091 Q215.718 681.507 213.774 682.387 L213.774 665.026 Z" fill="#000000" fill-rule="evenodd" fill-opacity="1" /><path clip-path="url(#clip6500)" d="M 0 0 M159.978 229.431 Q156.367 229.431 154.538 232.996 Q152.732 236.538 152.732 243.667 Q152.732 250.774 154.538 254.338 Q156.367 257.88 159.978 257.88 Q163.612 257.88 165.418 254.338 Q167.246 250.774 167.246 243.667 Q167.246 236.538 165.418 232.996 Q163.612 229.431 159.978 229.431 M159.978 225.727 Q165.788 225.727 168.843 230.334 Q171.922 234.917 171.922 243.667 Q171.922 252.394 168.843 257 Q165.788 261.584 159.978 261.584 Q154.168 261.584 151.089 257 Q148.033 252.394 148.033 243.667 Q148.033 234.917 151.089 230.334 Q154.168 225.727 159.978 225.727 Z" fill="#000000" fill-rule="evenodd" fill-opacity="1" /><path clip-path="url(#clip6500)" d="M 0 0 M176.992 255.033 L181.876 255.033 L181.876 260.912 L176.992 260.912 L176.992 255.033 Z" fill="#000000" fill-rule="evenodd" fill-opacity="1" /><path clip-path="url(#clip6500)" d="M 0 0 M187.755 256.977 L195.394 256.977 L195.394 230.612 L187.084 232.278 L187.084 228.019 L195.348 226.352 L200.024 226.352 L200.024 256.977 L207.663 256.977 L207.663 260.912 L187.755 260.912 L187.755 256.977 Z" fill="#000000" fill-rule="evenodd" fill-opacity="1" /><path clip-path="url(#clip6500)" d="M 0 0 M222.732 229.431 Q219.121 229.431 217.292 232.996 Q215.487 236.538 215.487 243.667 Q215.487 250.774 217.292 254.338 Q219.121 257.88 222.732 257.88 Q226.366 257.88 228.172 254.338 Q230.001 250.774 230.001 243.667 Q230.001 236.538 228.172 232.996 Q226.366 229.431 222.732 229.431 M222.732 225.727 Q228.542 225.727 231.598 230.334 Q234.676 234.917 234.676 243.667 Q234.676 252.394 231.598 257 Q228.542 261.584 222.732 261.584 Q216.922 261.584 213.843 257 Q210.788 252.394 210.788 243.667 Q210.788 234.917 213.843 230.334 Q216.922 225.727 222.732 225.727 Z" fill="#000000" fill-rule="evenodd" fill-opacity="1" /><path clip-path="url(#clip6500)" d="M 0 0 M476.22 12.096 L484.403 12.096 L484.403 36.8875 L514.136 36.8875 L514.136 12.096 L522.319 12.096 L522.319 72.576 L514.136 72.576 L514.136 43.7741 L484.403 43.7741 L484.403 72.576 L476.22 72.576 L476.22 12.096 Z" fill="#000000" fill-rule="evenodd" fill-opacity="1" /><path clip-path="url(#clip6500)" d="M 0 0 M547.718 32.4315 Q541.723 32.4315 538.239 37.1306 Q534.756 41.7891 534.756 49.9314 Q534.756 58.0738 538.199 62.7728 Q541.683 67.4314 547.718 67.4314 Q553.673 67.4314 557.157 62.7323 Q560.641 58.0333 560.641 49.9314 Q560.641 41.8701 557.157 37.1711 Q553.673 32.4315 547.718 32.4315 M547.718 26.1121 Q557.441 26.1121 562.99 32.4315 Q568.54 38.7509 568.54 49.9314 Q568.54 61.0714 562.99 67.4314 Q557.441 73.7508 547.718 73.7508 Q537.956 73.7508 532.406 67.4314 Q526.897 61.0714 526.897 49.9314 Q526.897 38.7509 532.406 32.4315 Q537.956 26.1121 547.718 26.1121 Z" fill="#000000" fill-rule="evenodd" fill-opacity="1" /><path clip-path="url(#clip6500)" d="M 0 0 M571.011 27.2059 L578.91 27.2059 L593.089 65.2844 L607.267 27.2059 L615.166 27.2059 L598.152 72.576 L588.025 72.576 L571.011 27.2059 Z" fill="#000000" fill-rule="evenodd" fill-opacity="1" /><path clip-path="url(#clip6500)" d="M 0 0 M661.792 48.0275 L661.792 51.6733 L627.521 51.6733 Q628.007 59.3701 632.139 63.421 Q636.312 67.4314 643.725 67.4314 Q648.019 67.4314 652.029 66.3781 Q656.08 65.3249 660.05 63.2184 L660.05 70.267 Q656.04 71.9684 651.827 72.8596 Q647.614 73.7508 643.279 73.7508 Q632.423 73.7508 626.063 67.4314 Q619.744 61.1119 619.744 50.3365 Q619.744 39.1965 625.739 32.6746 Q631.775 26.1121 641.983 26.1121 Q651.138 26.1121 656.445 32.0264 Q661.792 37.9003 661.792 48.0275 M654.338 45.84 Q654.257 39.7232 650.895 36.0774 Q647.573 32.4315 642.064 32.4315 Q635.826 32.4315 632.058 35.9558 Q628.331 39.4801 627.764 45.8805 L654.338 45.84 Z" fill="#000000" fill-rule="evenodd" fill-opacity="1" /><path clip-path="url(#clip6500)" d="M 0 0 M695.901 34.1734 Q694.645 33.4443 693.146 33.1202 Q691.688 32.7556 689.905 32.7556 Q683.586 32.7556 680.183 36.8875 Q676.821 40.9789 676.821 48.6757 L676.821 72.576 L669.327 72.576 L669.327 27.2059 L676.821 27.2059 L676.821 34.2544 Q679.17 30.1225 682.938 28.1376 Q686.705 26.1121 692.093 26.1121 Q692.862 26.1121 693.794 26.2337 Q694.726 26.3147 695.86 26.5172 L695.901 34.1734 Z" fill="#000000" fill-rule="evenodd" fill-opacity="1" /><path clip-path="url(#clip6500)" d="M 0 0 M703.719 27.2059 L711.172 27.2059 L711.172 72.576 L703.719 72.576 L703.719 27.2059 M703.719 9.54393 L711.172 9.54393 L711.172 18.9825 L703.719 18.9825 L703.719 9.54393 Z" fill="#000000" fill-rule="evenodd" fill-opacity="1" /><path clip-path="url(#clip6500)" d="M 0 0 M756.705 45.1919 L756.705 72.576 L749.251 72.576 L749.251 45.4349 Q749.251 38.994 746.739 35.7938 Q744.228 32.5936 739.205 32.5936 Q733.169 32.5936 729.685 36.4419 Q726.201 40.2903 726.201 46.9338 L726.201 72.576 L718.707 72.576 L718.707 27.2059 L726.201 27.2059 L726.201 34.2544 Q728.875 30.163 732.48 28.1376 Q736.126 26.1121 740.866 26.1121 Q748.684 26.1121 752.694 30.9732 Q756.705 35.7938 756.705 45.1919 Z" fill="#000000" fill-rule="evenodd" fill-opacity="1" /><path clip-path="url(#clip6500)" d="M 0 0 M794.378 49.3643 Q794.378 41.2625 791.016 36.8065 Q787.694 32.3505 781.658 32.3505 Q775.663 32.3505 772.301 36.8065 Q768.979 41.2625 768.979 49.3643 Q768.979 57.4256 772.301 61.8816 Q775.663 66.3376 781.658 66.3376 Q787.694 66.3376 791.016 61.8816 Q794.378 57.4256 794.378 49.3643 M801.832 66.9452 Q801.832 78.5308 796.687 84.1616 Q791.542 89.8329 780.929 89.8329 Q777 89.8329 773.516 89.2252 Q770.032 88.6581 766.751 87.4428 L766.751 80.1917 Q770.032 81.9741 773.232 82.8248 Q776.433 83.6755 779.754 83.6755 Q787.086 83.6755 790.732 79.8271 Q794.378 76.0193 794.378 68.282 L794.378 64.5957 Q792.069 68.6061 788.464 70.5911 Q784.858 72.576 779.835 72.576 Q771.49 72.576 766.386 66.2161 Q761.282 59.8562 761.282 49.3643 Q761.282 38.832 766.386 32.472 Q771.49 26.1121 779.835 26.1121 Q784.858 26.1121 788.464 28.0971 Q792.069 30.082 794.378 34.0924 L794.378 27.2059 L801.832 27.2059 L801.832 66.9452 Z" fill="#000000" fill-rule="evenodd" fill-opacity="1" /><path clip-path="url(#clip6500)" d="M 0 0 M831.687 27.2059 L839.141 27.2059 L848.458 62.6108 L857.734 27.2059 L866.525 27.2059 L875.842 62.6108 L885.118 27.2059 L892.572 27.2059 L880.703 72.576 L871.912 72.576 L862.15 35.3887 L852.346 72.576 L843.556 72.576 L831.687 27.2059 Z" fill="#000000" fill-rule="evenodd" fill-opacity="1" /><path clip-path="url(#clip6500)" d="M 0 0 M900.39 27.2059 L907.844 27.2059 L907.844 72.576 L900.39 72.576 L900.39 27.2059 M900.39 9.54393 L907.844 9.54393 L907.844 18.9825 L900.39 18.9825 L900.39 9.54393 Z" fill="#000000" fill-rule="evenodd" fill-opacity="1" /><path clip-path="url(#clip6500)" d="M 0 0 M923.035 14.324 L923.035 27.2059 L938.388 27.2059 L938.388 32.9987 L923.035 32.9987 L923.035 57.6282 Q923.035 63.1779 924.534 64.7578 Q926.073 66.3376 930.731 66.3376 L938.388 66.3376 L938.388 72.576 L930.731 72.576 Q922.103 72.576 918.822 69.3758 Q915.541 66.1351 915.541 57.6282 L915.541 32.9987 L910.072 32.9987 L910.072 27.2059 L915.541 27.2059 L915.541 14.324 L923.035 14.324 Z" fill="#000000" fill-rule="evenodd" fill-opacity="1" /><path clip-path="url(#clip6500)" d="M 0 0 M983.92 45.1919 L983.92 72.576 L976.466 72.576 L976.466 45.4349 Q976.466 38.994 973.955 35.7938 Q971.443 32.5936 966.42 32.5936 Q960.384 32.5936 956.9 36.4419 Q953.417 40.2903 953.417 46.9338 L953.417 72.576 L945.922 72.576 L945.922 9.54393 L953.417 9.54393 L953.417 34.2544 Q956.09 30.163 959.695 28.1376 Q963.341 26.1121 968.081 26.1121 Q975.899 26.1121 979.909 30.9732 Q983.92 35.7938 983.92 45.1919 Z" fill="#000000" fill-rule="evenodd" fill-opacity="1" /><path clip-path="url(#clip6500)" d="M 0 0 M1041.65 19.2256 L1020.99 51.5113 L1041.65 51.5113 L1041.65 19.2256 M1039.5 12.096 L1049.79 12.096 L1049.79 51.5113 L1058.42 51.5113 L1058.42 58.3168 L1049.79 58.3168 L1049.79 72.576 L1041.65 72.576 L1041.65 58.3168 L1014.34 58.3168 L1014.34 50.4176 L1039.5 12.096 Z" fill="#000000" fill-rule="evenodd" fill-opacity="1" /><path clip-path="url(#clip6500)" d="M 0 0 M1117.48 17.6457 Q1108.57 17.6457 1103.3 24.2892 Q1098.07 30.9327 1098.07 42.3968 Q1098.07 53.8203 1103.3 60.4638 Q1108.57 67.1073 1117.48 67.1073 Q1126.39 67.1073 1131.58 60.4638 Q1136.8 53.8203 1136.8 42.3968 Q1136.8 30.9327 1131.58 24.2892 Q1126.39 17.6457 1117.48 17.6457 M1128.94 71.4823 L1139.72 83.2704 L1129.83 83.2704 L1120.88 73.5887 Q1119.54 73.6697 1118.81 73.7103 Q1118.13 73.7508 1117.48 73.7508 Q1104.72 73.7508 1097.06 65.2439 Q1089.45 56.6965 1089.45 42.3968 Q1089.45 28.0566 1097.06 19.5497 Q1104.72 11.0023 1117.48 11.0023 Q1130.2 11.0023 1137.81 19.5497 Q1145.43 28.0566 1145.43 42.3968 Q1145.43 52.9291 1141.18 60.4233 Q1136.96 67.9175 1128.94 71.4823 Z" fill="#000000" fill-rule="evenodd" fill-opacity="1" /><path clip-path="url(#clip6500)" d="M 0 0 M1152.48 54.671 L1152.48 27.2059 L1159.93 27.2059 L1159.93 54.3874 Q1159.93 60.8284 1162.44 64.0691 Q1164.95 67.2693 1169.98 67.2693 Q1176.01 67.2693 1179.5 63.421 Q1183.02 59.5726 1183.02 52.9291 L1183.02 27.2059 L1190.48 27.2059 L1190.48 72.576 L1183.02 72.576 L1183.02 65.6084 Q1180.31 69.7404 1176.7 71.7658 Q1173.14 73.7508 1168.4 73.7508 Q1160.58 73.7508 1156.53 68.8897 Q1152.48 64.0286 1152.48 54.671 M1171.23 26.1121 L1171.23 26.1121 Z" fill="#000000" fill-rule="evenodd" fill-opacity="1" /><path clip-path="url(#clip6500)" d="M 0 0 M1218.91 49.7694 Q1209.88 49.7694 1206.4 51.8354 Q1202.91 53.9013 1202.91 58.8839 Q1202.91 62.8538 1205.5 65.2034 Q1208.14 67.5124 1212.63 67.5124 Q1218.83 67.5124 1222.56 63.1374 Q1226.33 58.7219 1226.33 51.4303 L1226.33 49.7694 L1218.91 49.7694 M1233.78 46.6907 L1233.78 72.576 L1226.33 72.576 L1226.33 65.6895 Q1223.77 69.8214 1219.97 71.8063 Q1216.16 73.7508 1210.65 73.7508 Q1203.68 73.7508 1199.55 69.8619 Q1195.46 65.9325 1195.46 59.3701 Q1195.46 51.7138 1200.56 47.825 Q1205.71 43.9361 1215.87 43.9361 L1226.33 43.9361 L1226.33 43.2069 Q1226.33 38.0623 1222.92 35.2672 Q1219.56 32.4315 1213.44 32.4315 Q1209.56 32.4315 1205.87 33.3632 Q1202.18 34.295 1198.78 36.1584 L1198.78 29.2718 Q1202.87 27.692 1206.72 26.9223 Q1210.57 26.1121 1214.21 26.1121 Q1224.06 26.1121 1228.92 31.2163 Q1233.78 36.3204 1233.78 46.6907 Z" fill="#000000" fill-rule="evenodd" fill-opacity="1" /><path clip-path="url(#clip6500)" d="M 0 0 M1271.45 34.0924 L1271.45 9.54393 L1278.91 9.54393 L1278.91 72.576 L1271.45 72.576 L1271.45 65.7705 Q1269.1 69.8214 1265.5 71.8063 Q1261.93 73.7508 1256.91 73.7508 Q1248.69 73.7508 1243.5 67.1883 Q1238.36 60.6258 1238.36 49.9314 Q1238.36 39.2371 1243.5 32.6746 Q1248.69 26.1121 1256.91 26.1121 Q1261.93 26.1121 1265.5 28.0971 Q1269.1 30.0415 1271.45 34.0924 M1246.05 49.9314 Q1246.05 58.1548 1249.42 62.8538 Q1252.82 67.5124 1258.73 67.5124 Q1264.65 67.5124 1268.05 62.8538 Q1271.45 58.1548 1271.45 49.9314 Q1271.45 41.7081 1268.05 37.0496 Q1264.65 32.3505 1258.73 32.3505 Q1252.82 32.3505 1249.42 37.0496 Q1246.05 41.7081 1246.05 49.9314 Z" fill="#000000" fill-rule="evenodd" fill-opacity="1" /><path clip-path="url(#clip6500)" d="M 0 0 M1313.02 34.1734 Q1311.76 33.4443 1310.26 33.1202 Q1308.8 32.7556 1307.02 32.7556 Q1300.7 32.7556 1297.3 36.8875 Q1293.94 40.9789 1293.94 48.6757 L1293.94 72.576 L1286.44 72.576 L1286.44 27.2059 L1293.94 27.2059 L1293.94 34.2544 Q1296.29 30.1225 1300.05 28.1376 Q1303.82 26.1121 1309.21 26.1121 Q1309.98 26.1121 1310.91 26.2337 Q1311.84 26.3147 1312.97 26.5172 L1313.02 34.1734 Z" fill="#000000" fill-rule="evenodd" fill-opacity="1" /><path clip-path="url(#clip6500)" d="M 0 0 M1336.59 32.4315 Q1330.6 32.4315 1327.11 37.1306 Q1323.63 41.7891 1323.63 49.9314 Q1323.63 58.0738 1327.07 62.7728 Q1330.56 67.4314 1336.59 67.4314 Q1342.55 67.4314 1346.03 62.7323 Q1349.51 58.0333 1349.51 49.9314 Q1349.51 41.8701 1346.03 37.1711 Q1342.55 32.4315 1336.59 32.4315 M1336.59 26.1121 Q1346.31 26.1121 1351.86 32.4315 Q1357.41 38.7509 1357.41 49.9314 Q1357.41 61.0714 1351.86 67.4314 Q1346.31 73.7508 1336.59 73.7508 Q1326.83 73.7508 1321.28 67.4314 Q1315.77 61.0714 1315.77 49.9314 Q1315.77 38.7509 1321.28 32.4315 Q1326.83 26.1121 1336.59 26.1121 Z" fill="#000000" fill-rule="evenodd" fill-opacity="1" /><path clip-path="url(#clip6500)" d="M 0 0 M1372.6 14.324 L1372.6 27.2059 L1387.96 27.2059 L1387.96 32.9987 L1372.6 32.9987 L1372.6 57.6282 Q1372.6 63.1779 1374.1 64.7578 Q1375.64 66.3376 1380.3 66.3376 L1387.96 66.3376 L1387.96 72.576 L1380.3 72.576 Q1371.67 72.576 1368.39 69.3758 Q1365.11 66.1351 1365.11 57.6282 L1365.11 32.9987 L1359.64 32.9987 L1359.64 27.2059 L1365.11 27.2059 L1365.11 14.324 L1372.6 14.324 Z" fill="#000000" fill-rule="evenodd" fill-opacity="1" /><path clip-path="url(#clip6500)" d="M 0 0 M1413.36 32.4315 Q1407.36 32.4315 1403.88 37.1306 Q1400.39 41.7891 1400.39 49.9314 Q1400.39 58.0738 1403.84 62.7728 Q1407.32 67.4314 1413.36 67.4314 Q1419.31 67.4314 1422.79 62.7323 Q1426.28 58.0333 1426.28 49.9314 Q1426.28 41.8701 1422.79 37.1711 Q1419.31 32.4315 1413.36 32.4315 M1413.36 26.1121 Q1423.08 26.1121 1428.63 32.4315 Q1434.18 38.7509 1434.18 49.9314 Q1434.18 61.0714 1428.63 67.4314 Q1423.08 73.7508 1413.36 73.7508 Q1403.59 73.7508 1398.04 67.4314 Q1392.53 61.0714 1392.53 49.9314 Q1392.53 38.7509 1398.04 32.4315 Q1403.59 26.1121 1413.36 26.1121 Z" fill="#000000" fill-rule="evenodd" fill-opacity="1" /><path clip-path="url(#clip6500)" d="M 0 0 M1468.29 34.1734 Q1467.03 33.4443 1465.53 33.1202 Q1464.07 32.7556 1462.29 32.7556 Q1455.97 32.7556 1452.57 36.8875 Q1449.21 40.9789 1449.21 48.6757 L1449.21 72.576 L1441.71 72.576 L1441.71 27.2059 L1449.21 27.2059 L1449.21 34.2544 Q1451.56 30.1225 1455.32 28.1376 Q1459.09 26.1121 1464.48 26.1121 Q1465.25 26.1121 1466.18 26.2337 Q1467.11 26.3147 1468.25 26.5172 L1468.29 34.1734 Z" fill="#000000" fill-rule="evenodd" fill-opacity="1" /><path clip-path="url(#clip6500)" d="M 0 0 M1505.03 28.5427 L1505.03 35.5912 Q1501.87 33.9709 1498.47 33.1607 Q1495.06 32.3505 1491.42 32.3505 Q1485.87 32.3505 1483.07 34.0519 Q1480.32 35.7533 1480.32 39.156 Q1480.32 41.7486 1482.3 43.2475 Q1484.29 44.7058 1490.28 46.0426 L1492.83 46.6097 Q1500.77 48.3111 1504.1 51.4303 Q1507.46 54.509 1507.46 60.0587 Q1507.46 66.3781 1502.44 70.0644 Q1497.45 73.7508 1488.7 73.7508 Q1485.06 73.7508 1481.09 73.0216 Q1477.16 72.3329 1472.78 70.9151 L1472.78 63.2184 Q1476.91 65.3654 1480.93 66.4591 Q1484.94 67.5124 1488.87 67.5124 Q1494.13 67.5124 1496.97 65.73 Q1499.8 63.9071 1499.8 60.6258 Q1499.8 57.5877 1497.74 55.9673 Q1495.71 54.3469 1488.78 52.8481 L1486.19 52.2405 Q1479.26 50.7821 1476.19 47.7845 Q1473.11 44.7463 1473.11 39.4801 Q1473.11 33.0797 1477.64 29.5959 Q1482.18 26.1121 1490.53 26.1121 Q1494.66 26.1121 1498.3 26.7198 Q1501.95 27.3274 1505.03 28.5427 Z" fill="#000000" fill-rule="evenodd" fill-opacity="1" /><path clip-path="url(#clip6500)" d="M 0 0 M1537.88 46.5287 L1559.72 46.5287 L1559.72 53.1722 L1537.88 53.1722 L1537.88 46.5287 Z" fill="#000000" fill-rule="evenodd" fill-opacity="1" /><path clip-path="url(#clip6500)" d="M 0 0 M1614.44 20.1573 L1603.34 50.2555 L1625.58 50.2555 L1614.44 20.1573 M1609.83 12.096 L1619.1 12.096 L1642.15 72.576 L1633.64 72.576 L1628.14 57.061 L1600.87 57.061 L1595.36 72.576 L1586.73 72.576 L1609.83 12.096 Z" fill="#000000" fill-rule="evenodd" fill-opacity="1" /><path clip-path="url(#clip6500)" d="M 0 0 M1679.82 49.3643 Q1679.82 41.2625 1676.46 36.8065 Q1673.14 32.3505 1667.1 32.3505 Q1661.11 32.3505 1657.75 36.8065 Q1654.43 41.2625 1654.43 49.3643 Q1654.43 57.4256 1657.75 61.8816 Q1661.11 66.3376 1667.1 66.3376 Q1673.14 66.3376 1676.46 61.8816 Q1679.82 57.4256 1679.82 49.3643 M1687.28 66.9452 Q1687.28 78.5308 1682.13 84.1616 Q1676.99 89.8329 1666.38 89.8329 Q1662.45 89.8329 1658.96 89.2252 Q1655.48 88.6581 1652.2 87.4428 L1652.2 80.1917 Q1655.48 81.9741 1658.68 82.8248 Q1661.88 83.6755 1665.2 83.6755 Q1672.53 83.6755 1676.18 79.8271 Q1679.82 76.0193 1679.82 68.282 L1679.82 64.5957 Q1677.52 68.6061 1673.91 70.5911 Q1670.31 72.576 1665.28 72.576 Q1656.94 72.576 1651.83 66.2161 Q1646.73 59.8562 1646.73 49.3643 Q1646.73 38.832 1651.83 32.472 Q1656.94 26.1121 1665.28 26.1121 Q1670.31 26.1121 1673.91 28.0971 Q1677.52 30.082 1679.82 34.0924 L1679.82 27.2059 L1687.28 27.2059 L1687.28 66.9452 Z" fill="#000000" fill-rule="evenodd" fill-opacity="1" /><path clip-path="url(#clip6500)" d="M 0 0 M1733.9 48.0275 L1733.9 51.6733 L1699.63 51.6733 Q1700.12 59.3701 1704.25 63.421 Q1708.42 67.4314 1715.84 67.4314 Q1720.13 67.4314 1724.14 66.3781 Q1728.19 65.3249 1732.16 63.2184 L1732.16 70.267 Q1728.15 71.9684 1723.94 72.8596 Q1719.73 73.7508 1715.39 73.7508 Q1704.54 73.7508 1698.18 67.4314 Q1691.86 61.1119 1691.86 50.3365 Q1691.86 39.1965 1697.85 32.6746 Q1703.89 26.1121 1714.1 26.1121 Q1723.25 26.1121 1728.56 32.0264 Q1733.9 37.9003 1733.9 48.0275 M1726.45 45.84 Q1726.37 39.7232 1723.01 36.0774 Q1719.69 32.4315 1714.18 32.4315 Q1707.94 32.4315 1704.17 35.9558 Q1700.44 39.4801 1699.88 45.8805 L1726.45 45.84 Z" fill="#000000" fill-rule="evenodd" fill-opacity="1" /><path clip-path="url(#clip6500)" d="M 0 0 M1779.44 45.1919 L1779.44 72.576 L1771.98 72.576 L1771.98 45.4349 Q1771.98 38.994 1769.47 35.7938 Q1766.96 32.5936 1761.94 32.5936 Q1755.9 32.5936 1752.42 36.4419 Q1748.93 40.2903 1748.93 46.9338 L1748.93 72.576 L1741.44 72.576 L1741.44 27.2059 L1748.93 27.2059 L1748.93 34.2544 Q1751.61 30.163 1755.21 28.1376 Q1758.86 26.1121 1763.6 26.1121 Q1771.42 26.1121 1775.43 30.9732 Q1779.44 35.7938 1779.44 45.1919 Z" fill="#000000" fill-rule="evenodd" fill-opacity="1" /><path clip-path="url(#clip6500)" d="M 0 0 M1794.63 14.324 L1794.63 27.2059 L1809.98 27.2059 L1809.98 32.9987 L1794.63 32.9987 L1794.63 57.6282 Q1794.63 63.1779 1796.13 64.7578 Q1797.67 66.3376 1802.32 66.3376 L1809.98 66.3376 L1809.98 72.576 L1802.32 72.576 Q1793.7 72.576 1790.41 69.3758 Q1787.13 66.1351 1787.13 57.6282 L1787.13 32.9987 L1781.66 32.9987 L1781.66 27.2059 L1787.13 27.2059 L1787.13 14.324 L1794.63 14.324 Z" fill="#000000" fill-rule="evenodd" fill-opacity="1" /><path clip-path="url(#clip6500)" d="M 0 0 M1880.75 14.0809 L1880.75 22.0612 Q1876.09 19.8332 1871.96 18.7395 Q1867.83 17.6457 1863.98 17.6457 Q1857.29 17.6457 1853.65 20.2383 Q1850.04 22.8309 1850.04 27.611 Q1850.04 31.6214 1852.43 33.6873 Q1854.86 35.7128 1861.59 36.9686 L1866.53 37.9813 Q1875.69 39.7232 1880.02 44.1387 Q1884.4 48.5136 1884.4 55.8863 Q1884.4 64.6767 1878.48 69.2137 Q1872.61 73.7508 1861.22 73.7508 Q1856.93 73.7508 1852.07 72.7785 Q1847.25 71.8063 1842.06 69.9024 L1842.06 61.4765 Q1847.05 64.2716 1851.83 65.6895 Q1856.61 67.1073 1861.22 67.1073 Q1868.23 67.1073 1872.04 64.3527 Q1875.85 61.598 1875.85 56.4939 Q1875.85 52.0379 1873.09 49.5264 Q1870.38 47.0148 1864.14 45.759 L1859.16 44.7868 Q1850 42.9639 1845.91 39.075 Q1841.82 35.1862 1841.82 28.2591 Q1841.82 20.2383 1847.45 15.6203 Q1853.12 11.0023 1863.05 11.0023 Q1867.3 11.0023 1871.72 11.7719 Q1876.13 12.5416 1880.75 14.0809 Z" fill="#000000" fill-rule="evenodd" fill-opacity="1" /><path clip-path="url(#clip6500)" d="M 0 0 M1899.59 14.324 L1899.59 27.2059 L1914.94 27.2059 L1914.94 32.9987 L1899.59 32.9987 L1899.59 57.6282 Q1899.59 63.1779 1901.09 64.7578 Q1902.62 66.3376 1907.28 66.3376 L1914.94 66.3376 L1914.94 72.576 L1907.28 72.576 Q1898.65 72.576 1895.37 69.3758 Q1892.09 66.1351 1892.09 57.6282 L1892.09 32.9987 L1886.62 32.9987 L1886.62 27.2059 L1892.09 27.2059 L1892.09 14.324 L1899.59 14.324 Z" fill="#000000" fill-rule="evenodd" fill-opacity="1" /><path clip-path="url(#clip6500)" d="M 0 0 M1943.38 49.7694 Q1934.34 49.7694 1930.86 51.8354 Q1927.38 53.9013 1927.38 58.8839 Q1927.38 62.8538 1929.97 65.2034 Q1932.6 67.5124 1937.1 67.5124 Q1943.3 67.5124 1947.02 63.1374 Q1950.79 58.7219 1950.79 51.4303 L1950.79 49.7694 L1943.38 49.7694 M1958.24 46.6907 L1958.24 72.576 L1950.79 72.576 L1950.79 65.6895 Q1948.24 69.8214 1944.43 71.8063 Q1940.62 73.7508 1935.11 73.7508 Q1928.15 73.7508 1924.01 69.8619 Q1919.92 65.9325 1919.92 59.3701 Q1919.92 51.7138 1925.03 47.825 Q1930.17 43.9361 1940.34 43.9361 L1950.79 43.9361 L1950.79 43.2069 Q1950.79 38.0623 1947.39 35.2672 Q1944.02 32.4315 1937.91 32.4315 Q1934.02 32.4315 1930.33 33.3632 Q1926.65 34.295 1923.24 36.1584 L1923.24 29.2718 Q1927.33 27.692 1931.18 26.9223 Q1935.03 26.1121 1938.68 26.1121 Q1948.52 26.1121 1953.38 31.2163 Q1958.24 36.3204 1958.24 46.6907 Z" fill="#000000" fill-rule="evenodd" fill-opacity="1" /><path clip-path="url(#clip6500)" d="M 0 0 M1973.43 14.324 L1973.43 27.2059 L1988.79 27.2059 L1988.79 32.9987 L1973.43 32.9987 L1973.43 57.6282 Q1973.43 63.1779 1974.93 64.7578 Q1976.47 66.3376 1981.13 66.3376 L1988.79 66.3376 L1988.79 72.576 L1981.13 72.576 Q1972.5 72.576 1969.22 69.3758 Q1965.94 66.1351 1965.94 57.6282 L1965.94 32.9987 L1960.47 32.9987 L1960.47 27.2059 L1965.94 27.2059 L1965.94 14.324 L1973.43 14.324 Z" fill="#000000" fill-rule="evenodd" fill-opacity="1" /><path clip-path="url(#clip6500)" d="M 0 0 M2035.41 48.0275 L2035.41 51.6733 L2001.14 51.6733 Q2001.63 59.3701 2005.76 63.421 Q2009.93 67.4314 2017.35 67.4314 Q2021.64 67.4314 2025.65 66.3781 Q2029.7 65.3249 2033.67 63.2184 L2033.67 70.267 Q2029.66 71.9684 2025.45 72.8596 Q2021.23 73.7508 2016.9 73.7508 Q2006.04 73.7508 1999.68 67.4314 Q1993.36 61.1119 1993.36 50.3365 Q1993.36 39.1965 1999.36 32.6746 Q2005.4 26.1121 2015.6 26.1121 Q2024.76 26.1121 2030.07 32.0264 Q2035.41 37.9003 2035.41 48.0275 M2027.96 45.84 Q2027.88 39.7232 2024.52 36.0774 Q2021.19 32.4315 2015.69 32.4315 Q2009.45 32.4315 2005.68 35.9558 Q2001.95 39.4801 2001.39 45.8805 L2027.96 45.84 Z" fill="#000000" fill-rule="evenodd" fill-opacity="1" /><path clip-path="url(#clip6500)" d="M 0 0 M2072.15 28.5427 L2072.15 35.5912 Q2069 33.9709 2065.59 33.1607 Q2062.19 32.3505 2058.54 32.3505 Q2052.99 32.3505 2050.2 34.0519 Q2047.44 35.7533 2047.44 39.156 Q2047.44 41.7486 2049.43 43.2475 Q2051.41 44.7058 2057.41 46.0426 L2059.96 46.6097 Q2067.9 48.3111 2071.22 51.4303 Q2074.59 54.509 2074.59 60.0587 Q2074.59 66.3781 2069.56 70.0644 Q2064.58 73.7508 2055.83 73.7508 Q2052.18 73.7508 2048.21 73.0216 Q2044.28 72.3329 2039.91 70.9151 L2039.91 63.2184 Q2044.04 65.3654 2048.05 66.4591 Q2052.06 67.5124 2055.99 67.5124 Q2061.26 67.5124 2064.09 65.73 Q2066.93 63.9071 2066.93 60.6258 Q2066.93 57.5877 2064.86 55.9673 Q2062.84 54.3469 2055.91 52.8481 L2053.32 52.2405 Q2046.39 50.7821 2043.31 47.7845 Q2040.23 44.7463 2040.23 39.4801 Q2040.23 33.0797 2044.77 29.5959 Q2049.31 26.1121 2057.65 26.1121 Q2061.78 26.1121 2065.43 26.7198 Q2069.08 27.3274 2072.15 28.5427 Z" fill="#000000" fill-rule="evenodd" fill-opacity="1" /><path clip-path="url(#clip6500)" d="M 0 0 M2133.65 17.6457 Q2124.74 17.6457 2119.47 24.2892 Q2114.24 30.9327 2114.24 42.3968 Q2114.24 53.8203 2119.47 60.4638 Q2124.74 67.1073 2133.65 67.1073 Q2142.56 67.1073 2147.74 60.4638 Q2152.97 53.8203 2152.97 42.3968 Q2152.97 30.9327 2147.74 24.2892 Q2142.56 17.6457 2133.65 17.6457 M2145.11 71.4823 L2155.89 83.2704 L2146 83.2704 L2137.05 73.5887 Q2135.71 73.6697 2134.98 73.7103 Q2134.3 73.7508 2133.65 73.7508 Q2120.89 73.7508 2113.23 65.2439 Q2105.62 56.6965 2105.62 42.3968 Q2105.62 28.0566 2113.23 19.5497 Q2120.89 11.0023 2133.65 11.0023 Q2146.37 11.0023 2153.98 19.5497 Q2161.6 28.0566 2161.6 42.3968 Q2161.6 52.9291 2157.35 60.4233 Q2153.13 67.9175 2145.11 71.4823 Z" fill="#000000" fill-rule="evenodd" fill-opacity="1" /><path clip-path="url(#clip6500)" d="M 0 0 M2172.46 67.958 L2189.63 67.958 L2189.63 72.576 L2165.41 72.576 L2165.41 68.12 Q2166.78 66.8642 2169.34 64.5957 Q2183.27 52.2405 2183.27 48.4326 Q2183.27 45.759 2181.16 44.1387 Q2179.06 42.4778 2175.61 42.4778 Q2173.51 42.4778 2171.04 43.2069 Q2168.57 43.8956 2165.65 45.3134 L2165.65 40.3308 Q2168.77 39.1965 2171.44 38.6294 Q2174.16 38.0623 2176.47 38.0623 Q2182.34 38.0623 2185.86 40.7359 Q2189.39 43.4095 2189.39 47.7845 Q2189.39 53.4152 2175.98 64.9198 Q2173.71 66.8642 2172.46 67.958 Z" fill="#000000" fill-rule="evenodd" fill-opacity="1" /><path clip-path="url(#clip6500)" d="M 0 0 M2224.14 12.096 L2262.39 12.096 L2262.39 18.9825 L2232.33 18.9825 L2232.33 36.8875 L2261.13 36.8875 L2261.13 43.7741 L2232.33 43.7741 L2232.33 65.6895 L2263.11 65.6895 L2263.11 72.576 L2224.14 72.576 L2224.14 12.096 Z" fill="#000000" fill-rule="evenodd" fill-opacity="1" /><path clip-path="url(#clip6500)" d="M 0 0 M2297.22 34.1734 Q2295.97 33.4443 2294.47 33.1202 Q2293.01 32.7556 2291.23 32.7556 Q2284.91 32.7556 2281.51 36.8875 Q2278.14 40.9789 2278.14 48.6757 L2278.14 72.576 L2270.65 72.576 L2270.65 27.2059 L2278.14 27.2059 L2278.14 34.2544 Q2280.49 30.1225 2284.26 28.1376 Q2288.03 26.1121 2293.42 26.1121 Q2294.18 26.1121 2295.12 26.2337 Q2296.05 26.3147 2297.18 26.5172 L2297.22 34.1734 Z" fill="#000000" fill-rule="evenodd" fill-opacity="1" /><path clip-path="url(#clip6500)" d="M 0 0 M2329.87 34.1734 Q2328.62 33.4443 2327.12 33.1202 Q2325.66 32.7556 2323.88 32.7556 Q2317.56 32.7556 2314.16 36.8875 Q2310.79 40.9789 2310.79 48.6757 L2310.79 72.576 L2303.3 72.576 L2303.3 27.2059 L2310.79 27.2059 L2310.79 34.2544 Q2313.14 30.1225 2316.91 28.1376 Q2320.68 26.1121 2326.07 26.1121 Q2326.84 26.1121 2327.77 26.2337 Q2328.7 26.3147 2329.83 26.5172 L2329.87 34.1734 Z" fill="#000000" fill-rule="evenodd" fill-opacity="1" /><path clip-path="url(#clip6500)" d="M 0 0 M2353.45 32.4315 Q2347.45 32.4315 2343.97 37.1306 Q2340.49 41.7891 2340.49 49.9314 Q2340.49 58.0738 2343.93 62.7728 Q2347.41 67.4314 2353.45 67.4314 Q2359.4 67.4314 2362.89 62.7323 Q2366.37 58.0333 2366.37 49.9314 Q2366.37 41.8701 2362.89 37.1711 Q2359.4 32.4315 2353.45 32.4315 M2353.45 26.1121 Q2363.17 26.1121 2368.72 32.4315 Q2374.27 38.7509 2374.27 49.9314 Q2374.27 61.0714 2368.72 67.4314 Q2363.17 73.7508 2353.45 73.7508 Q2343.69 73.7508 2338.14 67.4314 Q2332.63 61.0714 2332.63 49.9314 Q2332.63 38.7509 2338.14 32.4315 Q2343.69 26.1121 2353.45 26.1121 Z" fill="#000000" fill-rule="evenodd" fill-opacity="1" /><path clip-path="url(#clip6500)" d="M 0 0 M2408.38 34.1734 Q2407.12 33.4443 2405.63 33.1202 Q2404.17 32.7556 2402.38 32.7556 Q2396.07 32.7556 2392.66 36.8875 Q2389.3 40.9789 2389.3 48.6757 L2389.3 72.576 L2381.81 72.576 L2381.81 27.2059 L2389.3 27.2059 L2389.3 34.2544 Q2391.65 30.1225 2395.42 28.1376 Q2399.18 26.1121 2404.57 26.1121 Q2405.34 26.1121 2406.27 26.2337 Q2407.21 26.3147 2408.34 26.5172 L2408.38 34.1734 Z" fill="#000000" fill-rule="evenodd" fill-opacity="1" /><path clip-path="url(#clip6500)" d="M 0 0 M1324.14 2298.26 L1364.34 2298.26 L1364.34 2303.67 L1347.47 2303.67 L1347.47 2345.78 L1341.01 2345.78 L1341.01 2303.67 L1324.14 2303.67 L1324.14 2298.26 Z" fill="#000000" fill-rule="evenodd" fill-opacity="1" /><path clip-path="url(#clip6500)" d="M 0 0 M1368.47 2310.14 L1374.33 2310.14 L1374.33 2345.78 L1368.47 2345.78 L1368.47 2310.14 M1368.47 2296.26 L1374.33 2296.26 L1374.33 2303.67 L1368.47 2303.67 L1368.47 2296.26 Z" fill="#000000" fill-rule="evenodd" fill-opacity="1" /><path clip-path="url(#clip6500)" d="M 0 0 M1408.23 2316.98 Q1410.42 2313.03 1413.48 2311.15 Q1416.53 2309.28 1420.67 2309.28 Q1426.24 2309.28 1429.27 2313.19 Q1432.29 2317.07 1432.29 2324.27 L1432.29 2345.78 L1426.4 2345.78 L1426.4 2324.46 Q1426.4 2319.33 1424.59 2316.85 Q1422.77 2314.37 1419.05 2314.37 Q1414.5 2314.37 1411.86 2317.39 Q1409.21 2320.42 1409.21 2325.64 L1409.21 2345.78 L1403.33 2345.78 L1403.33 2324.46 Q1403.33 2319.3 1401.51 2316.85 Q1399.7 2314.37 1395.91 2314.37 Q1391.42 2314.37 1388.78 2317.42 Q1386.14 2320.45 1386.14 2325.64 L1386.14 2345.78 L1380.25 2345.78 L1380.25 2310.14 L1386.14 2310.14 L1386.14 2315.67 Q1388.14 2312.4 1390.94 2310.84 Q1393.75 2309.28 1397.6 2309.28 Q1401.48 2309.28 1404.19 2311.25 Q1406.92 2313.22 1408.23 2316.98 Z" fill="#000000" fill-rule="evenodd" fill-opacity="1" /><path clip-path="url(#clip6500)" d="M 0 0 M1468.92 2326.5 L1468.92 2329.36 L1442 2329.36 Q1442.38 2335.41 1445.63 2338.59 Q1448.9 2341.74 1454.73 2341.74 Q1458.1 2341.74 1461.25 2340.91 Q1464.44 2340.09 1467.56 2338.43 L1467.56 2343.97 Q1464.4 2345.31 1461.09 2346.01 Q1457.78 2346.71 1454.38 2346.71 Q1445.85 2346.71 1440.85 2341.74 Q1435.89 2336.78 1435.89 2328.31 Q1435.89 2319.56 1440.6 2314.43 Q1445.34 2309.28 1453.36 2309.28 Q1460.55 2309.28 1464.72 2313.92 Q1468.92 2318.54 1468.92 2326.5 M1463.07 2324.78 Q1463 2319.97 1460.36 2317.11 Q1457.75 2314.24 1453.42 2314.24 Q1448.52 2314.24 1445.56 2317.01 Q1442.63 2319.78 1442.19 2324.81 L1463.07 2324.78 Z" fill="#000000" fill-rule="evenodd" fill-opacity="1" /><path clip-path="url(#clip6500)" d="M 0 0 M1509.86 2296.32 Q1505.59 2303.64 1503.52 2310.8 Q1501.45 2317.97 1501.45 2325.32 Q1501.45 2332.67 1503.52 2339.9 Q1505.62 2347.09 1509.86 2354.38 L1504.76 2354.38 Q1499.99 2346.9 1497.6 2339.67 Q1495.25 2332.45 1495.25 2325.32 Q1495.25 2318.22 1497.6 2311.03 Q1499.96 2303.83 1504.76 2296.32 L1509.86 2296.32 Z" fill="#000000" fill-rule="evenodd" fill-opacity="1" /><path clip-path="url(#clip6500)" d="M 0 0 M1538.72 2311.19 L1538.72 2316.72 Q1536.24 2315.45 1533.57 2314.81 Q1530.89 2314.18 1528.03 2314.18 Q1523.67 2314.18 1521.47 2315.51 Q1519.31 2316.85 1519.31 2319.53 Q1519.31 2321.56 1520.87 2322.74 Q1522.43 2323.89 1527.14 2324.94 L1529.14 2325.38 Q1535.38 2326.72 1537.99 2329.17 Q1540.63 2331.59 1540.63 2335.95 Q1540.63 2340.91 1536.69 2343.81 Q1532.77 2346.71 1525.9 2346.71 Q1523.03 2346.71 1519.91 2346.13 Q1516.83 2345.59 1513.39 2344.48 L1513.39 2338.43 Q1516.64 2340.12 1519.79 2340.98 Q1522.94 2341.81 1526.02 2341.81 Q1530.16 2341.81 1532.39 2340.4 Q1534.62 2338.97 1534.62 2336.39 Q1534.62 2334.01 1533 2332.73 Q1531.4 2331.46 1525.96 2330.28 L1523.92 2329.81 Q1518.48 2328.66 1516.06 2326.3 Q1513.64 2323.92 1513.64 2319.78 Q1513.64 2314.75 1517.21 2312.01 Q1520.77 2309.28 1527.33 2309.28 Q1530.58 2309.28 1533.44 2309.75 Q1536.31 2310.23 1538.72 2311.19 Z" fill="#000000" fill-rule="evenodd" fill-opacity="1" /><path clip-path="url(#clip6500)" d="M 0 0 M1545.85 2296.32 L1550.95 2296.32 Q1555.72 2303.83 1558.08 2311.03 Q1560.46 2318.22 1560.46 2325.32 Q1560.46 2332.45 1558.08 2339.67 Q1555.72 2346.9 1550.95 2354.38 L1545.85 2354.38 Q1550.09 2347.09 1552.16 2339.9 Q1554.26 2332.67 1554.26 2325.32 Q1554.26 2317.97 1552.16 2310.8 Q1550.09 2303.64 1545.85 2296.32 Z" fill="#000000" fill-rule="evenodd" fill-opacity="1" /><path clip-path="url(#clip6500)" d="M 0 0 M38.4242 1364.07 L38.4242 1334.03 L43.835 1334.03 L43.835 1357.64 L57.9032 1357.64 L57.9032 1335.01 L63.3141 1335.01 L63.3141 1357.64 L80.5333 1357.64 L80.5333 1333.45 L85.9442 1333.45 L85.9442 1364.07 L38.4242 1364.07 Z" fill="#000000" fill-rule="evenodd" fill-opacity="1" /><path clip-path="url(#clip6500)" d="M 0 0 M55.7707 1306.65 Q55.1978 1307.64 54.9432 1308.82 Q54.6567 1309.96 54.6567 1311.36 Q54.6567 1316.33 57.9032 1319 Q61.1179 1321.64 67.1653 1321.64 L85.9442 1321.64 L85.9442 1327.53 L50.2962 1327.53 L50.2962 1321.64 L55.8344 1321.64 Q52.5879 1319.8 51.0283 1316.84 Q49.4368 1313.88 49.4368 1309.64 Q49.4368 1309.04 49.5323 1308.31 Q49.596 1307.58 49.7551 1306.68 L55.7707 1306.65 Z" fill="#000000" fill-rule="evenodd" fill-opacity="1" /><path clip-path="url(#clip6500)" d="M 0 0 M55.7707 1281 Q55.1978 1281.99 54.9432 1283.16 Q54.6567 1284.31 54.6567 1285.71 Q54.6567 1290.67 57.9032 1293.35 Q61.1179 1295.99 67.1653 1295.99 L85.9442 1295.99 L85.9442 1301.88 L50.2962 1301.88 L50.2962 1295.99 L55.8344 1295.99 Q52.5879 1294.14 51.0283 1291.18 Q49.4368 1288.22 49.4368 1283.99 Q49.4368 1283.39 49.5323 1282.65 Q49.596 1281.92 49.7551 1281.03 L55.7707 1281 Z" fill="#000000" fill-rule="evenodd" fill-opacity="1" /><path clip-path="url(#clip6500)" d="M 0 0 M54.4021 1262.47 Q54.4021 1267.19 58.0942 1269.92 Q61.7545 1272.66 68.152 1272.66 Q74.5495 1272.66 78.2417 1269.95 Q81.9019 1267.22 81.9019 1262.47 Q81.9019 1257.8 78.2098 1255.06 Q74.5177 1252.32 68.152 1252.32 Q61.8181 1252.32 58.126 1255.06 Q54.4021 1257.8 54.4021 1262.47 M49.4368 1262.47 Q49.4368 1254.84 54.4021 1250.48 Q59.3673 1246.12 68.152 1246.12 Q76.9049 1246.12 81.9019 1250.48 Q86.8672 1254.84 86.8672 1262.47 Q86.8672 1270.15 81.9019 1274.51 Q76.9049 1278.83 68.152 1278.83 Q59.3673 1278.83 54.4021 1274.51 Q49.4368 1270.15 49.4368 1262.47 Z" fill="#000000" fill-rule="evenodd" fill-opacity="1" /><path clip-path="url(#clip6500)" d="M 0 0 M55.7707 1219.32 Q55.1978 1220.3 54.9432 1221.48 Q54.6567 1222.63 54.6567 1224.03 Q54.6567 1228.99 57.9032 1231.66 Q61.1179 1234.31 67.1653 1234.31 L85.9442 1234.31 L85.9442 1240.19 L50.2962 1240.19 L50.2962 1234.31 L55.8344 1234.31 Q52.5879 1232.46 51.0283 1229.5 Q49.4368 1226.54 49.4368 1222.31 Q49.4368 1221.7 49.5323 1220.97 Q49.596 1220.24 49.7551 1219.35 L55.7707 1219.32 Z" fill="#000000" fill-rule="evenodd" fill-opacity="1" /><path clip-path="url(#clip6500)" d="M 0 0 M42.7847 1172.91 Q42.7847 1179.91 48.0045 1184.05 Q53.2244 1188.16 62.2319 1188.16 Q71.2075 1188.16 76.4274 1184.05 Q81.6473 1179.91 81.6473 1172.91 Q81.6473 1165.91 76.4274 1161.83 Q71.2075 1157.73 62.2319 1157.73 Q53.2244 1157.73 48.0045 1161.83 Q42.7847 1165.91 42.7847 1172.91 M85.0848 1163.9 L94.3469 1155.44 L94.3469 1163.2 L86.7399 1170.24 Q86.8035 1171.29 86.8354 1171.86 Q86.8672 1172.4 86.8672 1172.91 Q86.8672 1182.94 80.1832 1188.95 Q73.4674 1194.93 62.2319 1194.93 Q50.9646 1194.93 44.2806 1188.95 Q37.5648 1182.94 37.5648 1172.91 Q37.5648 1162.92 44.2806 1156.93 Q50.9646 1150.95 62.2319 1150.95 Q70.5073 1150.95 76.3956 1154.29 Q82.2839 1157.6 85.0848 1163.9 Z" fill="#000000" fill-rule="evenodd" fill-opacity="1" /><path clip-path="url(#clip6500)" d="M 0 0 M82.3157 1142.42 L82.3157 1128.92 L85.9442 1128.92 L85.9442 1147.96 L82.443 1147.96 Q81.4563 1146.87 79.6739 1144.87 Q69.9662 1133.92 66.9744 1133.92 Q64.8737 1133.92 63.6005 1135.57 Q62.2956 1137.23 62.2956 1139.94 Q62.2956 1141.59 62.8685 1143.53 Q63.4096 1145.47 64.5236 1147.76 L60.6086 1147.76 Q59.7174 1145.31 59.2718 1143.21 Q58.8262 1141.08 58.8262 1139.27 Q58.8262 1134.65 60.9269 1131.88 Q63.0276 1129.11 66.4651 1129.11 Q70.8893 1129.11 79.9286 1139.65 Q81.4563 1141.43 82.3157 1142.42 Z" fill="#000000" fill-rule="evenodd" fill-opacity="1" /><path clip-path="url(#clip6500)" d="M 0 0 M36.4826 1087.99 Q43.8032 1092.26 50.9646 1094.32 Q58.126 1096.39 65.4784 1096.39 Q72.8308 1096.39 80.0559 1094.32 Q87.2491 1092.22 94.5379 1087.99 L94.5379 1093.08 Q87.0582 1097.86 79.8331 1100.24 Q72.608 1102.6 65.4784 1102.6 Q58.3806 1102.6 51.1874 1100.24 Q43.9942 1097.89 36.4826 1093.08 L36.4826 1087.99 Z" fill="#000000" fill-rule="evenodd" fill-opacity="1" /><path clip-path="url(#clip6500)" d="M 0 0 M55.7707 1061.19 Q55.1978 1062.18 54.9432 1063.36 Q54.6567 1064.5 54.6567 1065.9 Q54.6567 1070.87 57.9032 1073.54 Q61.1179 1076.18 67.1653 1076.18 L85.9442 1076.18 L85.9442 1082.07 L50.2962 1082.07 L50.2962 1076.18 L55.8344 1076.18 Q52.5879 1074.34 51.0283 1071.38 Q49.4368 1068.42 49.4368 1064.18 Q49.4368 1063.58 49.5323 1062.85 Q49.596 1062.11 49.7551 1061.22 L55.7707 1061.19 Z" fill="#000000" fill-rule="evenodd" fill-opacity="1" /><path clip-path="url(#clip6500)" d="M 0 0 M68.0247 1038.85 Q68.0247 1045.95 69.6479 1048.68 Q71.2712 1051.42 75.1861 1051.42 Q78.3053 1051.42 80.1514 1049.38 Q81.9656 1047.31 81.9656 1043.78 Q81.9656 1038.91 78.5281 1035.98 Q75.0588 1033.02 69.3297 1033.02 L68.0247 1033.02 L68.0247 1038.85 M65.6057 1027.17 L85.9442 1027.17 L85.9442 1033.02 L80.5333 1033.02 Q83.7798 1035.03 85.3394 1038.02 Q86.8672 1041.01 86.8672 1045.34 Q86.8672 1050.82 83.8116 1054.06 Q80.7243 1057.28 75.5681 1057.28 Q69.5525 1057.28 66.4969 1053.27 Q63.4414 1049.22 63.4414 1041.23 L63.4414 1033.02 L62.8685 1033.02 Q58.8262 1033.02 56.6301 1035.7 Q54.4021 1038.34 54.4021 1043.14 Q54.4021 1046.2 55.1341 1049.1 Q55.8662 1051.99 57.3303 1054.67 L51.9195 1054.67 Q50.6781 1051.45 50.0734 1048.43 Q49.4368 1045.4 49.4368 1042.54 Q49.4368 1034.81 53.4472 1030.99 Q57.4576 1027.17 65.6057 1027.17 Z" fill="#000000" fill-rule="evenodd" fill-opacity="1" /><path clip-path="url(#clip6500)" d="M 0 0 M55.7071 997.566 L36.419 997.566 L36.419 991.71 L85.9442 991.71 L85.9442 997.566 L80.597 997.566 Q83.7798 999.412 85.3394 1002.24 Q86.8672 1005.05 86.8672 1008.99 Q86.8672 1015.45 81.711 1019.53 Q76.5547 1023.57 68.152 1023.57 Q59.7493 1023.57 54.5931 1019.53 Q49.4368 1015.45 49.4368 1008.99 Q49.4368 1005.05 50.9964 1002.24 Q52.5242 999.412 55.7071 997.566 M68.152 1017.52 Q74.6132 1017.52 78.3053 1014.88 Q81.9656 1012.21 81.9656 1007.56 Q81.9656 1002.91 78.3053 1000.24 Q74.6132 997.566 68.152 997.566 Q61.6908 997.566 58.0305 1000.24 Q54.3384 1002.91 54.3384 1007.56 Q54.3384 1012.21 58.0305 1014.88 Q61.6908 1017.52 68.152 1017.52 Z" fill="#000000" fill-rule="evenodd" fill-opacity="1" /><path clip-path="url(#clip6500)" d="M 0 0 M36.4826 986.49 L36.4826 981.397 Q43.9942 976.623 51.1874 974.268 Q58.3806 971.88 65.4784 971.88 Q72.608 971.88 79.8331 974.268 Q87.0582 976.623 94.5379 981.397 L94.5379 986.49 Q87.2491 982.256 80.0559 980.188 Q72.8308 978.087 65.4784 978.087 Q58.126 978.087 50.9646 980.188 Q43.8032 982.256 36.4826 986.49 Z" fill="#000000" fill-rule="evenodd" fill-opacity="1" /><polyline clip-path="url(#clip6502)" style="stroke:#009af9; stroke-width:16; stroke-opacity:1; fill:none" points="
  333.221,1120.98 344.312,1185.61 355.403,1315.04 366.494,1457.68 377.584,1620.98 388.675,1786.18 399.766,1929.6 410.857,2036.65 421.947,2104.52 433.038,2138.46 
  444.129,2146.22 455.22,2134.94 466.311,2110.06 477.401,2075.48 488.492,2034.01 499.583,1987.62 510.674,1937.81 521.765,1885.68 532.855,1832.09 543.946,1777.69 
  555.037,1722.99 566.128,1668.38 577.219,1614.18 588.309,1560.62 599.4,1507.91 610.491,1456.22 621.582,1405.69 632.672,1356.47 643.763,1308.66 654.854,1262.41 
  665.945,1217.8 677.036,1174.95 688.126,1133.93 699.217,1094.84 710.308,1057.71 721.399,1022.6 732.49,989.532 743.58,958.516 754.671,929.542 765.762,902.601 
  776.853,877.656 787.943,854.675 799.034,833.604 810.125,814.399 821.216,796.996 832.307,781.346 843.397,767.383 854.488,755.058 865.579,744.309 876.67,735.094 
  887.761,727.357 898.851,721.071 909.942,716.19 921.033,712.702 932.124,710.572 943.214,709.812 954.305,710.399 965.396,712.369 976.487,715.713 987.578,720.498 
  998.668,726.727 1009.76,734.503 1020.85,743.846 1031.94,754.903 1043.03,767.724 1054.12,782.518 1065.21,799.398 1076.3,809.244 1087.39,820.526 1098.49,840.202 
  1109.58,858.682 1120.67,875.956 1131.76,891.987 1142.85,906.823 1153.94,920.462 1165.03,932.972 1176.12,944.37 1187.21,954.73 1198.3,964.078 1209.39,972.489 
  1220.48,979.997 1231.57,986.674 1242.67,992.557 1253.76,997.714 1264.85,1002.19 1275.94,1006.03 1287.03,1009.3 1298.12,1012.04 1309.21,1014.29 1320.3,1016.11 
  1331.39,1017.54 1342.48,1018.62 1353.57,1019.39 1364.66,1019.89 1375.76,1020.15 1386.85,1020.21 1397.94,1020.11 1409.03,1019.87 1420.12,1019.52 1431.21,1019.09 
  1442.3,1018.61 1453.39,1018.09 1464.48,1017.56 1475.57,1017.03 1486.66,1016.54 1497.75,1016.08 1508.84,1015.69 1519.94,1015.36 1531.03,1015.12 1542.12,1014.97 
  1553.21,1014.92 1564.3,1014.99 1575.39,1015.17 1586.48,1015.47 1597.57,1015.89 1608.66,1016.45 1619.75,1017.14 1630.84,1017.96 1641.93,1018.91 1653.02,1019.99 
  1664.12,1021.21 1675.21,1022.55 1686.3,1024.01 1697.39,1025.6 1708.48,1027.3 1719.57,1029.12 1730.66,1031.04 1741.75,1033.05 1752.84,1035.17 1763.93,1037.36 
  1775.02,1039.64 1786.11,1041.99 1797.21,1044.4 1808.3,1046.87 1819.39,1049.39 1830.48,1051.94 1841.57,1054.53 1852.66,1057.13 1863.75,1059.75 1874.84,1062.38 
  1885.93,1065 1897.02,1067.61 1908.11,1070.2 1919.2,1072.76 1930.29,1075.28 1941.39,1077.75 1952.48,1080.18 1963.57,1082.54 1974.66,1084.83 1985.75,1087.04 
  1996.84,1089.18 2007.93,1091.22 2019.02,1093.16 2030.11,1095 2041.2,1096.74 2052.29,1098.35 2063.38,1099.85 2074.47,1101.22 2085.57,1102.46 2096.66,1103.57 
  2107.75,1104.54 2118.84,1105.36 2129.93,1106.04 2141.02,1106.57 2152.11,1106.96 2163.2,1107.19 2174.29,1107.26 2185.38,1107.18 2196.47,1106.95 2207.56,1106.56 
  2218.66,1106.02 2229.75,1105.32 2240.84,1104.47 2251.93,1103.48 2263.02,1102.34 2274.11,1101.05 2285.2,1099.64 2296.29,1098.09 2307.38,1096.41 2318.47,1094.62 
  2329.56,1092.73 2340.65,1090.73 2351.74,1088.64 2362.84,1086.48 2373.93,1084.26 2385.02,1081.98 2396.11,1079.67 2407.2,1077.34 2418.29,1075.02 2429.38,1072.71 
  2440.47,1070.45 2451.56,1068.25 2462.65,1066.15 2473.74,1064.15 2484.83,1062.31 2495.92,1060.64 2507.02,1059.18 2518.11,1057.95 2529.2,1057 2540.29,1056.33 
  2551.38,1056.01 
  "/>
<polyline clip-path="url(#clip6502)" style="stroke:#e26f46; stroke-width:16; stroke-opacity:1; fill:none" points="
  333.221,1120.98 344.312,862.673 355.403,416.046 366.494,189.727 377.584,200.256 388.675,309.011 399.766,417.407 410.857,499.82 421.947,555.453 433.038,591.66 
  444.129,614.287 455.22,628.299 466.311,636.406 477.401,640.805 488.492,642.57 499.583,642.67 510.674,641.568 521.765,639.718 532.855,637.356 543.946,634.702 
  555.037,631.894 566.128,629.038 577.219,626.22 588.309,623.487 599.4,620.893 610.491,618.455 621.582,616.207 632.672,614.156 643.763,612.323 654.854,610.71 
  665.945,609.334 677.036,608.197 688.126,607.313 699.217,606.684 710.308,606.321 721.399,606.229 732.49,606.416 743.58,606.886 754.671,607.646 765.762,608.702 
  776.853,610.06 787.943,611.724 799.034,613.702 810.125,615.999 821.216,618.624 832.307,621.584 843.397,624.89 854.488,628.552 865.579,632.584 876.67,637.002 
  887.761,641.823 898.851,647.067 909.942,652.759 921.033,658.924 932.124,665.593 943.214,672.8 954.305,680.581 965.396,688.98 976.487,698.041 987.578,707.817 
  998.668,718.362 1009.76,729.74 1020.85,742.018 1031.94,755.273 1043.03,769.59 1054.12,785.07 1065.21,801.822 1076.3,811.469 1087.39,821.4 1098.49,838.823 
  1109.58,855.184 1120.67,870.477 1131.76,884.711 1142.85,897.909 1153.94,910.1 1165.03,921.32 1176.12,931.606 1187.21,941 1198.3,949.543 1209.39,957.28 
  1220.48,964.251 1231.57,970.502 1242.67,976.075 1253.76,981.013 1264.85,985.359 1275.94,989.154 1287.03,992.439 1298.12,995.254 1309.21,997.637 1320.3,999.627 
  1331.39,1001.26 1342.48,1002.57 1353.57,1003.6 1364.66,1004.37 1375.76,1004.92 1386.85,1005.27 1397.94,1005.47 1409.03,1005.52 1420.12,1005.47 1431.21,1005.33 
  1442.3,1005.14 1453.39,1004.9 1464.48,1004.64 1475.57,1004.38 1486.66,1004.14 1497.75,1003.93 1508.84,1003.76 1519.94,1003.66 1531.03,1003.63 1542.12,1003.68 
  1553.21,1003.83 1564.3,1004.07 1575.39,1004.42 1586.48,1004.88 1597.57,1005.46 1608.66,1006.16 1619.75,1006.97 1630.84,1007.92 1641.93,1008.98 1653.02,1010.17 
  1664.12,1011.47 1675.21,1012.9 1686.3,1014.44 1697.39,1016.09 1708.48,1017.85 1719.57,1019.71 1730.66,1021.67 1741.75,1023.71 1752.84,1025.84 1763.93,1028.05 
  1775.02,1030.33 1786.11,1032.67 1797.21,1035.06 1808.3,1037.5 1819.39,1039.98 1830.48,1042.5 1841.57,1045.03 1852.66,1047.58 1863.75,1050.13 1874.84,1052.69 
  1885.93,1055.23 1897.02,1057.75 1908.11,1060.25 1919.2,1062.72 1930.29,1065.14 1941.39,1067.52 1952.48,1069.83 1963.57,1072.09 1974.66,1074.27 1985.75,1076.38 
  1996.84,1078.4 2007.93,1080.33 2019.02,1082.17 2030.11,1083.9 2041.2,1085.53 2052.29,1087.04 2063.38,1088.44 2074.47,1089.72 2085.57,1090.87 2096.66,1091.89 
  2107.75,1092.77 2118.84,1093.52 2129.93,1094.13 2141.02,1094.6 2152.11,1094.93 2163.2,1095.11 2174.29,1095.14 2185.38,1095.03 2196.47,1094.77 2207.56,1094.36 
  2218.66,1093.81 2229.75,1093.11 2240.84,1092.27 2251.93,1091.29 2263.02,1090.17 2274.11,1088.92 2285.2,1087.54 2296.29,1086.04 2307.38,1084.42 2318.47,1082.7 
  2329.56,1080.87 2340.65,1078.95 2351.74,1076.95 2362.84,1074.88 2373.93,1072.75 2385.02,1070.58 2396.11,1068.38 2407.2,1066.16 2418.29,1063.95 2429.38,1061.75 
  2440.47,1059.61 2451.56,1057.52 2462.65,1055.53 2473.74,1053.65 2484.83,1051.91 2495.92,1050.33 2507.02,1048.97 2518.11,1047.81 2529.2,1046.94 2540.29,1046.32 
  2551.38,1046.03 
  "/>
<polyline clip-path="url(#clip6502)" style="stroke:#3da44d; stroke-width:16; stroke-opacity:1; fill:none" points="
  333.221,1120.98 344.312,1234.26 355.403,1461.75 366.494,1669.12 377.584,1827.99 388.675,1935.07 399.766,2000.97 410.857,2038.99 421.947,2057.85 433.038,2061.84 
  444.129,2053.38 455.22,2034.42 466.311,2006.95 477.401,1972.81 488.492,1933.68 499.583,1890.91 510.674,1845.63 521.765,1798.71 532.855,1750.84 543.946,1702.59 
  555.037,1654.36 566.128,1606.49 577.219,1559.21 588.309,1512.73 599.4,1467.2 610.491,1422.73 621.582,1379.42 632.672,1337.37 643.763,1296.64 654.854,1257.31 
  665.945,1219.43 677.036,1183.06 688.126,1148.25 699.217,1115.03 710.308,1083.42 721.399,1053.44 732.49,1025.09 743.58,998.365 754.671,973.245 765.762,949.714 
  776.853,927.738 787.943,907.287 799.034,888.319 810.125,870.8 821.216,854.683 832.307,839.935 843.397,826.51 854.488,814.379 865.579,803.502 876.67,793.86 
  887.761,785.418 898.851,778.173 909.942,772.1 921.033,767.211 932.124,763.491 943.214,760.975 954.305,759.659 965.396,759.601 976.487,760.807 987.578,763.367 
  998.668,767.298 1009.76,772.723 1020.85,779.673 1031.94,788.314 1043.03,798.701 1054.12,811.059 1065.21,825.494 1076.3,833.985 1087.39,843.888 1098.49,861.074 
  1109.58,877.101 1120.67,891.984 1131.76,905.698 1142.85,918.3 1153.94,929.795 1165.03,940.256 1176.12,949.703 1187.21,958.213 1198.3,965.814 1209.39,972.582 
  1220.48,978.55 1231.57,983.789 1242.67,988.337 1253.76,992.258 1264.85,995.593 1275.94,998.4 1287.03,1000.72 1298.12,1002.6 1309.21,1004.09 1320.3,1005.22 
  1331.39,1006.05 1342.48,1006.6 1353.57,1006.92 1364.66,1007.03 1375.76,1006.98 1386.85,1006.79 1397.94,1006.49 1409.03,1006.11 1420.12,1005.68 1431.21,1005.21 
  1442.3,1004.73 1453.39,1004.26 1464.48,1003.81 1475.57,1003.41 1486.66,1003.07 1497.75,1002.8 1508.84,1002.61 1519.94,1002.51 1531.03,1002.52 1542.12,1002.64 
  1553.21,1002.88 1564.3,1003.24 1575.39,1003.73 1586.48,1004.35 1597.57,1005.1 1608.66,1005.99 1619.75,1007.01 1630.84,1008.17 1641.93,1009.46 1653.02,1010.88 
  1664.12,1012.43 1675.21,1014.1 1686.3,1015.9 1697.39,1017.81 1708.48,1019.83 1719.57,1021.95 1730.66,1024.18 1741.75,1026.5 1752.84,1028.9 1763.93,1031.38 
  1775.02,1033.94 1786.11,1036.55 1797.21,1039.22 1808.3,1041.94 1819.39,1044.7 1830.48,1047.48 1841.57,1050.29 1852.66,1053.11 1863.75,1055.93 1874.84,1058.75 
  1885.93,1061.56 1897.02,1064.35 1908.11,1067.1 1919.2,1069.82 1930.29,1072.49 1941.39,1075.11 1952.48,1077.67 1963.57,1080.16 1974.66,1082.57 1985.75,1084.9 
  1996.84,1087.14 2007.93,1089.28 2019.02,1091.32 2030.11,1093.25 2041.2,1095.06 2052.29,1096.75 2063.38,1098.31 2074.47,1099.75 2085.57,1101.04 2096.66,1102.2 
  2107.75,1103.21 2118.84,1104.07 2129.93,1104.79 2141.02,1105.35 2152.11,1105.75 2163.2,1106 2174.29,1106.09 2185.38,1106.02 2196.47,1105.79 2207.56,1105.4 
  2218.66,1104.85 2229.75,1104.14 2240.84,1103.28 2251.93,1102.27 2263.02,1101.1 2274.11,1099.8 2285.2,1098.35 2296.29,1096.76 2307.38,1095.05 2318.47,1093.22 
  2329.56,1091.28 2340.65,1089.24 2351.74,1087.1 2362.84,1084.89 2373.93,1082.61 2385.02,1080.28 2396.11,1077.91 2407.2,1075.53 2418.29,1073.15 2429.38,1070.78 
  2440.47,1068.46 2451.56,1066.21 2462.65,1064.05 2473.74,1062.01 2484.83,1060.12 2495.92,1058.41 2507.02,1056.92 2518.11,1055.65 2529.2,1054.68 2540.29,1054 
  2551.38,1053.67 
  "/>
<polyline clip-path="url(#clip6502)" style="stroke:#c271d2; stroke-width:16; stroke-opacity:1; fill:none" points="
  333.221,1120.98 344.312,1359.58 355.403,1779.55 366.494,2003.42 377.584,2014.33 388.675,1938.75 399.766,1854.89 410.857,1779.14 421.947,1711.26 433.038,1647.06 
  444.129,1584.58 455.22,1522.28 466.311,1459.98 477.401,1397.44 488.492,1335.02 499.583,1272.96 510.674,1211.72 521.765,1151.75 532.855,1093.51 543.946,1037.47 
  555.037,983.984 566.128,933.425 577.219,885.977 588.309,841.845 599.4,801.04 610.491,763.61 621.582,729.441 632.672,698.476 643.763,670.541 654.854,645.523 
  665.945,623.237 677.036,603.553 688.126,586.295 699.217,571.333 710.308,558.509 721.399,547.699 732.49,538.763 743.58,531.588 754.671,526.05 765.762,522.047 
  776.853,519.471 787.943,518.23 799.034,518.233 810.125,519.399 821.216,521.65 832.307,524.919 843.397,529.143 854.488,534.266 865.579,540.238 876.67,547.019 
  887.761,554.571 898.851,562.869 909.942,571.888 921.033,581.617 932.124,592.046 943.214,603.176 954.305,615.013 965.396,627.573 976.487,640.874 987.578,654.949 
  998.668,669.829 1009.76,685.564 1020.85,702.2 1031.94,719.808 1043.03,738.456 1054.12,758.244 1065.21,779.287 1076.3,791.293 1087.39,803.646 1098.49,825.395 
  1109.58,845.933 1120.67,865.226 1131.76,883.269 1142.85,900.083 1153.94,915.692 1165.03,930.138 1176.12,943.457 1187.21,955.699 1198.3,966.906 1209.39,977.131 
  1220.48,986.418 1231.57,994.82 1242.67,1002.38 1253.76,1009.16 1264.85,1015.2 1275.94,1020.55 1287.03,1025.25 1298.12,1029.35 1309.21,1032.9 1320.3,1035.95 
  1331.39,1038.52 1342.48,1040.67 1353.57,1042.44 1364.66,1043.86 1375.76,1044.97 1386.85,1045.81 1397.94,1046.4 1409.03,1046.79 1420.12,1047.01 1431.21,1047.08 
  1442.3,1047.02 1453.39,1046.88 1464.48,1046.66 1475.57,1046.4 1486.66,1046.11 1497.75,1045.82 1508.84,1045.54 1519.94,1045.29 1531.03,1045.08 1542.12,1044.93 
  1553.21,1044.85 1564.3,1044.85 1575.39,1044.94 1586.48,1045.13 1597.57,1045.41 1608.66,1045.81 1619.75,1046.32 1630.84,1046.94 1641.93,1047.69 1653.02,1048.55 
  1664.12,1049.53 1675.21,1050.63 1686.3,1051.84 1697.39,1053.17 1708.48,1054.6 1719.57,1056.14 1730.66,1057.79 1741.75,1059.53 1752.84,1061.36 1763.93,1063.28 
  1775.02,1065.27 1786.11,1067.33 1797.21,1069.46 1808.3,1071.65 1819.39,1073.89 1830.48,1076.17 1841.57,1078.48 1852.66,1080.82 1863.75,1083.18 1874.84,1085.56 
  1885.93,1087.93 1897.02,1090.31 1908.11,1092.67 1919.2,1095.01 1930.29,1097.33 1941.39,1099.61 1952.48,1101.86 1963.57,1104.06 1974.66,1106.2 1985.75,1108.29 
  1996.84,1110.31 2007.93,1112.27 2019.02,1114.14 2030.11,1115.94 2041.2,1117.65 2052.29,1119.28 2063.38,1120.8 2074.47,1122.24 2085.57,1123.57 2096.66,1124.79 
  2107.75,1125.91 2118.84,1126.92 2129.93,1127.82 2141.02,1128.6 2152.11,1129.27 2163.2,1129.82 2174.29,1130.26 2185.38,1130.58 2196.47,1130.79 2207.56,1130.88 
  2218.66,1130.85 2229.75,1130.71 2240.84,1130.46 2251.93,1130.1 2263.02,1129.63 2274.11,1129.06 2285.2,1128.39 2296.29,1127.62 2307.38,1126.76 2318.47,1125.82 
  2329.56,1124.8 2340.65,1123.7 2351.74,1122.54 2362.84,1121.32 2373.93,1120.05 2385.02,1118.74 2396.11,1117.4 2407.2,1116.05 2418.29,1114.68 2429.38,1113.32 
  2440.47,1111.98 2451.56,1110.68 2462.65,1109.42 2473.74,1108.23 2484.83,1107.12 2495.92,1106.11 2507.02,1105.23 2518.11,1104.48 2529.2,1103.9 2540.29,1103.48 
  2551.38,1103.27 
  "/>
<polyline clip-path="url(#clip6502)" style="stroke:#ac8d18; stroke-width:16; stroke-opacity:1; fill:none" points="
  333.221,1120.98 344.312,920.996 355.403,570.944 366.494,415.065 377.584,493.782 388.675,683.172 399.766,876.277 410.857,1031.31 421.947,1143.29 433.038,1219.58 
  444.129,1269.4 455.22,1300.2 466.311,1317.69 477.401,1325.87 488.492,1327.84 499.583,1325.81 510.674,1321.57 521.765,1316.41 532.855,1311.4 543.946,1307.2 
  555.037,1304.34 566.128,1303.02 577.219,1303.33 588.309,1305.16 599.4,1308.34 610.491,1312.58 621.582,1317.61 632.672,1323.1 643.763,1328.78 654.854,1334.37 
  665.945,1339.68 677.036,1344.51 688.126,1348.74 699.217,1352.25 710.308,1355 721.399,1356.94 732.49,1358.07 743.58,1358.39 754.671,1357.95 765.762,1356.78 
  776.853,1354.92 787.943,1352.44 799.034,1349.4 810.125,1345.85 821.216,1341.87 832.307,1337.5 843.397,1332.81 854.488,1327.86 865.579,1322.69 876.67,1317.36 
  887.761,1311.91 898.851,1306.39 909.942,1300.83 921.033,1295.27 932.124,1289.73 943.214,1284.25 954.305,1278.85 965.396,1273.54 976.487,1268.35 987.578,1263.28 
  998.668,1258.34 1009.76,1253.53 1020.85,1248.88 1031.94,1244.37 1043.03,1240.03 1054.12,1235.92 1065.21,1232.16 1076.3,1229.16 1087.39,1226.41 1098.49,1223.32 
  1109.58,1220.22 1120.67,1217.2 1131.76,1214.31 1142.85,1211.56 1153.94,1208.95 1165.03,1206.47 1176.12,1204.11 1187.21,1201.87 1198.3,1199.73 1209.39,1197.7 
  1220.48,1195.75 1231.57,1193.89 1242.67,1192.1 1253.76,1190.38 1264.85,1188.73 1275.94,1187.13 1287.03,1185.58 1298.12,1184.09 1309.21,1182.63 1320.3,1181.21 
  1331.39,1179.83 1342.48,1178.48 1353.57,1177.17 1364.66,1175.87 1375.76,1174.61 1386.85,1173.37 1397.94,1172.15 1409.03,1170.95 1420.12,1169.77 1431.21,1168.62 
  1442.3,1167.48 1453.39,1166.36 1464.48,1165.26 1475.57,1164.17 1486.66,1163.11 1497.75,1162.06 1508.84,1161.03 1519.94,1160.01 1531.03,1159.02 1542.12,1158.04 
  1553.21,1157.09 1564.3,1156.15 1575.39,1155.23 1586.48,1154.32 1597.57,1153.44 1608.66,1152.58 1619.75,1151.73 1630.84,1150.91 1641.93,1150.1 1653.02,1149.31 
  1664.12,1148.54 1675.21,1147.79 1686.3,1147.06 1697.39,1146.35 1708.48,1145.66 1719.57,1144.99 1730.66,1144.33 1741.75,1143.7 1752.84,1143.08 1763.93,1142.48 
  1775.02,1141.9 1786.11,1141.33 1797.21,1140.78 1808.3,1140.25 1819.39,1139.74 1830.48,1139.24 1841.57,1138.76 1852.66,1138.29 1863.75,1137.84 1874.84,1137.41 
  1885.93,1136.98 1897.02,1136.58 1908.11,1136.18 1919.2,1135.8 1930.29,1135.43 1941.39,1135.07 1952.48,1134.73 1963.57,1134.39 1974.66,1134.07 1985.75,1133.75 
  1996.84,1133.45 2007.93,1133.16 2019.02,1132.87 2030.11,1132.59 2041.2,1132.32 2052.29,1132.06 2063.38,1131.81 2074.47,1131.56 2085.57,1131.32 2096.66,1131.08 
  2107.75,1130.85 2118.84,1130.63 2129.93,1130.41 2141.02,1130.19 2152.11,1129.98 2163.2,1129.77 2174.29,1129.56 2185.38,1129.36 2196.47,1129.15 2207.56,1128.96 
  2218.66,1128.76 2229.75,1128.56 2240.84,1128.37 2251.93,1128.18 2263.02,1127.99 2274.11,1127.8 2285.2,1127.61 2296.29,1127.42 2307.38,1127.23 2318.47,1127.05 
  2329.56,1126.86 2340.65,1126.68 2351.74,1126.5 2362.84,1126.31 2373.93,1126.13 2385.02,1125.96 2396.11,1125.78 2407.2,1125.6 2418.29,1125.43 2429.38,1125.26 
  2440.47,1125.09 2451.56,1124.93 2462.65,1124.76 2473.74,1124.61 2484.83,1124.45 2495.92,1124.3 2507.02,1124.15 2518.11,1124 2529.2,1123.87 2540.29,1123.76 
  2551.38,1123.71 
  "/>
<path clip-path="url(#clip6500)" d="
M2713.92 625.432 L3184.76 625.432 L3184.76 262.552 L2713.92 262.552  Z
  " fill="#ffffff" fill-rule="evenodd" fill-opacity="1"/>
<polyline clip-path="url(#clip6500)" style="stroke:#000000; stroke-width:4; stroke-opacity:1; fill:none" points="
  2713.92,625.432 3184.76,625.432 3184.76,262.552 2713.92,262.552 2713.92,625.432 
  "/>
<polyline clip-path="url(#clip6500)" style="stroke:#009af9; stroke-width:16; stroke-opacity:1; fill:none" points="
  2745.92,323.032 2937.92,323.032 
  "/>
<path clip-path="url(#clip6500)" d="M 0 0 M2991.95 303.633 Q2984.95 303.633 2980.81 308.853 Q2976.7 314.072 2976.7 323.08 Q2976.7 332.056 2980.81 337.275 Q2984.95 342.495 2991.95 342.495 Q2998.95 342.495 3003.03 337.275 Q3007.13 332.056 3007.13 323.08 Q3007.13 314.072 3003.03 308.853 Q2998.95 303.633 2991.95 303.633 M3000.96 345.933 L3009.42 355.195 L3001.66 355.195 L2994.62 347.588 Q2993.57 347.651 2993 347.683 Q2992.46 347.715 2991.95 347.715 Q2981.92 347.715 2975.91 341.031 Q2969.92 334.315 2969.92 323.08 Q2969.92 311.813 2975.91 305.129 Q2981.92 298.413 2991.95 298.413 Q3001.94 298.413 3007.93 305.129 Q3013.91 311.813 3013.91 323.08 Q3013.91 331.355 3010.57 337.244 Q3007.26 343.132 3000.96 345.933 Z" fill="#000000" fill-rule="evenodd" fill-opacity="1" /><path clip-path="url(#clip6500)" d="M 0 0 M3019.45 332.724 L3019.45 311.144 L3025.31 311.144 L3025.31 332.501 Q3025.31 337.562 3027.28 340.108 Q3029.25 342.623 3033.2 342.623 Q3037.94 342.623 3040.68 339.599 Q3043.45 336.575 3043.45 331.355 L3043.45 311.144 L3049.3 311.144 L3049.3 346.792 L3043.45 346.792 L3043.45 341.318 Q3041.31 344.564 3038.48 346.156 Q3035.68 347.715 3031.96 347.715 Q3025.81 347.715 3022.63 343.896 Q3019.45 340.076 3019.45 332.724 M3034.19 310.285 L3034.19 310.285 Z" fill="#000000" fill-rule="evenodd" fill-opacity="1" /><path clip-path="url(#clip6500)" d="M 0 0 M3071.65 328.873 Q3064.55 328.873 3061.81 330.496 Q3059.08 332.119 3059.08 336.034 Q3059.08 339.153 3061.11 340.999 Q3063.18 342.814 3066.71 342.814 Q3071.58 342.814 3074.51 339.376 Q3077.47 335.907 3077.47 330.178 L3077.47 328.873 L3071.65 328.873 M3083.33 326.454 L3083.33 346.792 L3077.47 346.792 L3077.47 341.381 Q3075.47 344.628 3072.47 346.187 Q3069.48 347.715 3065.15 347.715 Q3059.68 347.715 3056.43 344.66 Q3053.22 341.572 3053.22 336.416 Q3053.22 330.4 3057.23 327.345 Q3061.27 324.289 3069.26 324.289 L3077.47 324.289 L3077.47 323.716 Q3077.47 319.674 3074.8 317.478 Q3072.16 315.25 3067.35 315.25 Q3064.29 315.25 3061.4 315.982 Q3058.5 316.714 3055.83 318.178 L3055.83 312.767 Q3059.04 311.526 3062.07 310.921 Q3065.09 310.285 3067.96 310.285 Q3075.69 310.285 3079.51 314.295 Q3083.33 318.306 3083.33 326.454 Z" fill="#000000" fill-rule="evenodd" fill-opacity="1" /><path clip-path="url(#clip6500)" d="M 0 0 M3112.93 316.555 L3112.93 297.267 L3118.79 297.267 L3118.79 346.792 L3112.93 346.792 L3112.93 341.445 Q3111.08 344.628 3108.25 346.187 Q3105.45 347.715 3101.5 347.715 Q3095.04 347.715 3090.97 342.559 Q3086.93 337.403 3086.93 329 Q3086.93 320.597 3090.97 315.441 Q3095.04 310.285 3101.5 310.285 Q3105.45 310.285 3108.25 311.844 Q3111.08 313.372 3112.93 316.555 M3092.97 329 Q3092.97 335.461 3095.61 339.153 Q3098.29 342.814 3102.93 342.814 Q3107.58 342.814 3110.26 339.153 Q3112.93 335.461 3112.93 329 Q3112.93 322.539 3110.26 318.879 Q3107.58 315.186 3102.93 315.186 Q3098.29 315.186 3095.61 318.879 Q3092.97 322.539 3092.97 329 Z" fill="#000000" fill-rule="evenodd" fill-opacity="1" /><path clip-path="url(#clip6500)" d="M 0 0 M3147.59 341.381 L3158.09 341.381 L3158.09 305.129 L3146.67 307.42 L3146.67 301.564 L3158.03 299.272 L3164.46 299.272 L3164.46 341.381 L3174.96 341.381 L3174.96 346.792 L3147.59 346.792 L3147.59 341.381 Z" fill="#000000" fill-rule="evenodd" fill-opacity="1" /><polyline clip-path="url(#clip6500)" style="stroke:#e26f46; stroke-width:16; stroke-opacity:1; fill:none" points="
  2745.92,383.512 2937.92,383.512 
  "/>
<path clip-path="url(#clip6500)" d="M 0 0 M2991.95 364.113 Q2984.95 364.113 2980.81 369.333 Q2976.7 374.552 2976.7 383.56 Q2976.7 392.536 2980.81 397.755 Q2984.95 402.975 2991.95 402.975 Q2998.95 402.975 3003.03 397.755 Q3007.13 392.536 3007.13 383.56 Q3007.13 374.552 3003.03 369.333 Q2998.95 364.113 2991.95 364.113 M3000.96 406.413 L3009.42 415.675 L3001.66 415.675 L2994.62 408.068 Q2993.57 408.131 2993 408.163 Q2992.46 408.195 2991.95 408.195 Q2981.92 408.195 2975.91 401.511 Q2969.92 394.795 2969.92 383.56 Q2969.92 372.293 2975.91 365.609 Q2981.92 358.893 2991.95 358.893 Q3001.94 358.893 3007.93 365.609 Q3013.91 372.293 3013.91 383.56 Q3013.91 391.835 3010.57 397.724 Q3007.26 403.612 3000.96 406.413 Z" fill="#000000" fill-rule="evenodd" fill-opacity="1" /><path clip-path="url(#clip6500)" d="M 0 0 M3019.45 393.204 L3019.45 371.624 L3025.31 371.624 L3025.31 392.981 Q3025.31 398.042 3027.28 400.588 Q3029.25 403.103 3033.2 403.103 Q3037.94 403.103 3040.68 400.079 Q3043.45 397.055 3043.45 391.835 L3043.45 371.624 L3049.3 371.624 L3049.3 407.272 L3043.45 407.272 L3043.45 401.798 Q3041.31 405.044 3038.48 406.636 Q3035.68 408.195 3031.96 408.195 Q3025.81 408.195 3022.63 404.376 Q3019.45 400.556 3019.45 393.204 M3034.19 370.765 L3034.19 370.765 Z" fill="#000000" fill-rule="evenodd" fill-opacity="1" /><path clip-path="url(#clip6500)" d="M 0 0 M3071.65 389.353 Q3064.55 389.353 3061.81 390.976 Q3059.08 392.599 3059.08 396.514 Q3059.08 399.633 3061.11 401.479 Q3063.18 403.294 3066.71 403.294 Q3071.58 403.294 3074.51 399.856 Q3077.47 396.387 3077.47 390.658 L3077.47 389.353 L3071.65 389.353 M3083.33 386.934 L3083.33 407.272 L3077.47 407.272 L3077.47 401.861 Q3075.47 405.108 3072.47 406.667 Q3069.48 408.195 3065.15 408.195 Q3059.68 408.195 3056.43 405.14 Q3053.22 402.052 3053.22 396.896 Q3053.22 390.88 3057.23 387.825 Q3061.27 384.769 3069.26 384.769 L3077.47 384.769 L3077.47 384.196 Q3077.47 380.154 3074.8 377.958 Q3072.16 375.73 3067.35 375.73 Q3064.29 375.73 3061.4 376.462 Q3058.5 377.194 3055.83 378.658 L3055.83 373.247 Q3059.04 372.006 3062.07 371.401 Q3065.09 370.765 3067.96 370.765 Q3075.69 370.765 3079.51 374.775 Q3083.33 378.786 3083.33 386.934 Z" fill="#000000" fill-rule="evenodd" fill-opacity="1" /><path clip-path="url(#clip6500)" d="M 0 0 M3112.93 377.035 L3112.93 357.747 L3118.79 357.747 L3118.79 407.272 L3112.93 407.272 L3112.93 401.925 Q3111.08 405.108 3108.25 406.667 Q3105.45 408.195 3101.5 408.195 Q3095.04 408.195 3090.97 403.039 Q3086.93 397.883 3086.93 389.48 Q3086.93 381.077 3090.97 375.921 Q3095.04 370.765 3101.5 370.765 Q3105.45 370.765 3108.25 372.324 Q3111.08 373.852 3112.93 377.035 M3092.97 389.48 Q3092.97 395.941 3095.61 399.633 Q3098.29 403.294 3102.93 403.294 Q3107.58 403.294 3110.26 399.633 Q3112.93 395.941 3112.93 389.48 Q3112.93 383.019 3110.26 379.359 Q3107.58 375.666 3102.93 375.666 Q3098.29 375.666 3095.61 379.359 Q3092.97 383.019 3092.97 389.48 Z" fill="#000000" fill-rule="evenodd" fill-opacity="1" /><path clip-path="url(#clip6500)" d="M 0 0 M3152.01 401.861 L3174.45 401.861 L3174.45 407.272 L3144.28 407.272 L3144.28 401.861 Q3147.94 398.074 3154.24 391.708 Q3160.58 385.31 3162.2 383.464 Q3165.29 379.995 3166.5 377.608 Q3167.74 375.189 3167.74 372.865 Q3167.74 369.078 3165.06 366.691 Q3162.42 364.304 3158.16 364.304 Q3155.13 364.304 3151.76 365.354 Q3148.42 366.404 3144.6 368.537 L3144.6 362.044 Q3148.48 360.484 3151.86 359.688 Q3155.23 358.893 3158.03 358.893 Q3165.41 358.893 3169.81 362.585 Q3174.2 366.277 3174.2 372.452 Q3174.2 375.38 3173.08 378.022 Q3172 380.632 3169.11 384.196 Q3168.31 385.119 3164.05 389.544 Q3159.78 393.936 3152.01 401.861 Z" fill="#000000" fill-rule="evenodd" fill-opacity="1" /><polyline clip-path="url(#clip6500)" style="stroke:#3da44d; stroke-width:16; stroke-opacity:1; fill:none" points="
  2745.92,443.992 2937.92,443.992 
  "/>
<path clip-path="url(#clip6500)" d="M 0 0 M2991.95 424.593 Q2984.95 424.593 2980.81 429.813 Q2976.7 435.032 2976.7 444.04 Q2976.7 453.016 2980.81 458.235 Q2984.95 463.455 2991.95 463.455 Q2998.95 463.455 3003.03 458.235 Q3007.13 453.016 3007.13 444.04 Q3007.13 435.032 3003.03 429.813 Q2998.95 424.593 2991.95 424.593 M3000.96 466.893 L3009.42 476.155 L3001.66 476.155 L2994.62 468.548 Q2993.57 468.611 2993 468.643 Q2992.46 468.675 2991.95 468.675 Q2981.92 468.675 2975.91 461.991 Q2969.92 455.275 2969.92 444.04 Q2969.92 432.773 2975.91 426.089 Q2981.92 419.373 2991.95 419.373 Q3001.94 419.373 3007.93 426.089 Q3013.91 432.773 3013.91 444.04 Q3013.91 452.315 3010.57 458.204 Q3007.26 464.092 3000.96 466.893 Z" fill="#000000" fill-rule="evenodd" fill-opacity="1" /><path clip-path="url(#clip6500)" d="M 0 0 M3019.45 453.684 L3019.45 432.104 L3025.31 432.104 L3025.31 453.461 Q3025.31 458.522 3027.28 461.068 Q3029.25 463.583 3033.2 463.583 Q3037.94 463.583 3040.68 460.559 Q3043.45 457.535 3043.45 452.315 L3043.45 432.104 L3049.3 432.104 L3049.3 467.752 L3043.45 467.752 L3043.45 462.278 Q3041.31 465.524 3038.48 467.116 Q3035.68 468.675 3031.96 468.675 Q3025.81 468.675 3022.63 464.856 Q3019.45 461.036 3019.45 453.684 M3034.19 431.245 L3034.19 431.245 Z" fill="#000000" fill-rule="evenodd" fill-opacity="1" /><path clip-path="url(#clip6500)" d="M 0 0 M3071.65 449.833 Q3064.55 449.833 3061.81 451.456 Q3059.08 453.079 3059.08 456.994 Q3059.08 460.113 3061.11 461.959 Q3063.18 463.774 3066.71 463.774 Q3071.58 463.774 3074.51 460.336 Q3077.47 456.867 3077.47 451.138 L3077.47 449.833 L3071.65 449.833 M3083.33 447.414 L3083.33 467.752 L3077.47 467.752 L3077.47 462.341 Q3075.47 465.588 3072.47 467.147 Q3069.48 468.675 3065.15 468.675 Q3059.68 468.675 3056.43 465.62 Q3053.22 462.532 3053.22 457.376 Q3053.22 451.36 3057.23 448.305 Q3061.27 445.249 3069.26 445.249 L3077.47 445.249 L3077.47 444.676 Q3077.47 440.634 3074.8 438.438 Q3072.16 436.21 3067.35 436.21 Q3064.29 436.21 3061.4 436.942 Q3058.5 437.674 3055.83 439.138 L3055.83 433.727 Q3059.04 432.486 3062.07 431.881 Q3065.09 431.245 3067.96 431.245 Q3075.69 431.245 3079.51 435.255 Q3083.33 439.266 3083.33 447.414 Z" fill="#000000" fill-rule="evenodd" fill-opacity="1" /><path clip-path="url(#clip6500)" d="M 0 0 M3112.93 437.515 L3112.93 418.227 L3118.79 418.227 L3118.79 467.752 L3112.93 467.752 L3112.93 462.405 Q3111.08 465.588 3108.25 467.147 Q3105.45 468.675 3101.5 468.675 Q3095.04 468.675 3090.97 463.519 Q3086.93 458.363 3086.93 449.96 Q3086.93 441.557 3090.97 436.401 Q3095.04 431.245 3101.5 431.245 Q3105.45 431.245 3108.25 432.804 Q3111.08 434.332 3112.93 437.515 M3092.97 449.96 Q3092.97 456.421 3095.61 460.113 Q3098.29 463.774 3102.93 463.774 Q3107.58 463.774 3110.26 460.113 Q3112.93 456.421 3112.93 449.96 Q3112.93 443.499 3110.26 439.839 Q3107.58 436.146 3102.93 436.146 Q3098.29 436.146 3095.61 439.839 Q3092.97 443.499 3092.97 449.96 Z" fill="#000000" fill-rule="evenodd" fill-opacity="1" /><path clip-path="url(#clip6500)" d="M 0 0 M3165.96 442.13 Q3170.57 443.117 3173.15 446.236 Q3175.76 449.355 3175.76 453.939 Q3175.76 460.973 3170.92 464.824 Q3166.08 468.675 3157.17 468.675 Q3154.18 468.675 3151 468.07 Q3147.84 467.497 3144.47 466.32 L3144.47 460.113 Q3147.14 461.673 3150.33 462.469 Q3153.51 463.264 3156.98 463.264 Q3163.03 463.264 3166.18 460.877 Q3169.36 458.49 3169.36 453.939 Q3169.36 449.737 3166.4 447.382 Q3163.47 444.995 3158.22 444.995 L3152.68 444.995 L3152.68 439.711 L3158.48 439.711 Q3163.22 439.711 3165.73 437.833 Q3168.25 435.924 3168.25 432.359 Q3168.25 428.699 3165.64 426.757 Q3163.06 424.784 3158.22 424.784 Q3155.58 424.784 3152.56 425.357 Q3149.53 425.929 3145.9 427.139 L3145.9 421.41 Q3149.56 420.391 3152.75 419.882 Q3155.96 419.373 3158.79 419.373 Q3166.11 419.373 3170.38 422.715 Q3174.64 426.025 3174.64 431.69 Q3174.64 435.637 3172.38 438.374 Q3170.12 441.08 3165.96 442.13 Z" fill="#000000" fill-rule="evenodd" fill-opacity="1" /><polyline clip-path="url(#clip6500)" style="stroke:#c271d2; stroke-width:16; stroke-opacity:1; fill:none" points="
  2745.92,504.472 2937.92,504.472 
  "/>
<path clip-path="url(#clip6500)" d="M 0 0 M2991.95 485.073 Q2984.95 485.073 2980.81 490.293 Q2976.7 495.512 2976.7 504.52 Q2976.7 513.496 2980.81 518.715 Q2984.95 523.935 2991.95 523.935 Q2998.95 523.935 3003.03 518.715 Q3007.13 513.496 3007.13 504.52 Q3007.13 495.512 3003.03 490.293 Q2998.95 485.073 2991.95 485.073 M3000.96 527.373 L3009.42 536.635 L3001.66 536.635 L2994.62 529.028 Q2993.57 529.091 2993 529.123 Q2992.46 529.155 2991.95 529.155 Q2981.92 529.155 2975.91 522.471 Q2969.92 515.755 2969.92 504.52 Q2969.92 493.253 2975.91 486.569 Q2981.92 479.853 2991.95 479.853 Q3001.94 479.853 3007.93 486.569 Q3013.91 493.253 3013.91 504.52 Q3013.91 512.795 3010.57 518.684 Q3007.26 524.572 3000.96 527.373 Z" fill="#000000" fill-rule="evenodd" fill-opacity="1" /><path clip-path="url(#clip6500)" d="M 0 0 M3019.45 514.164 L3019.45 492.584 L3025.31 492.584 L3025.31 513.941 Q3025.31 519.002 3027.28 521.548 Q3029.25 524.063 3033.2 524.063 Q3037.94 524.063 3040.68 521.039 Q3043.45 518.015 3043.45 512.795 L3043.45 492.584 L3049.3 492.584 L3049.3 528.232 L3043.45 528.232 L3043.45 522.758 Q3041.31 526.004 3038.48 527.596 Q3035.68 529.155 3031.96 529.155 Q3025.81 529.155 3022.63 525.336 Q3019.45 521.516 3019.45 514.164 M3034.19 491.725 L3034.19 491.725 Z" fill="#000000" fill-rule="evenodd" fill-opacity="1" /><path clip-path="url(#clip6500)" d="M 0 0 M3071.65 510.313 Q3064.55 510.313 3061.81 511.936 Q3059.08 513.559 3059.08 517.474 Q3059.08 520.593 3061.11 522.439 Q3063.18 524.254 3066.71 524.254 Q3071.58 524.254 3074.51 520.816 Q3077.47 517.347 3077.47 511.618 L3077.47 510.313 L3071.65 510.313 M3083.33 507.894 L3083.33 528.232 L3077.47 528.232 L3077.47 522.821 Q3075.47 526.068 3072.47 527.627 Q3069.48 529.155 3065.15 529.155 Q3059.68 529.155 3056.43 526.1 Q3053.22 523.012 3053.22 517.856 Q3053.22 511.84 3057.23 508.785 Q3061.27 505.729 3069.26 505.729 L3077.47 505.729 L3077.47 505.156 Q3077.47 501.114 3074.8 498.918 Q3072.16 496.69 3067.35 496.69 Q3064.29 496.69 3061.4 497.422 Q3058.5 498.154 3055.83 499.618 L3055.83 494.207 Q3059.04 492.966 3062.07 492.361 Q3065.09 491.725 3067.96 491.725 Q3075.69 491.725 3079.51 495.735 Q3083.33 499.746 3083.33 507.894 Z" fill="#000000" fill-rule="evenodd" fill-opacity="1" /><path clip-path="url(#clip6500)" d="M 0 0 M3112.93 497.995 L3112.93 478.707 L3118.79 478.707 L3118.79 528.232 L3112.93 528.232 L3112.93 522.885 Q3111.08 526.068 3108.25 527.627 Q3105.45 529.155 3101.5 529.155 Q3095.04 529.155 3090.97 523.999 Q3086.93 518.843 3086.93 510.44 Q3086.93 502.037 3090.97 496.881 Q3095.04 491.725 3101.5 491.725 Q3105.45 491.725 3108.25 493.284 Q3111.08 494.812 3112.93 497.995 M3092.97 510.44 Q3092.97 516.901 3095.61 520.593 Q3098.29 524.254 3102.93 524.254 Q3107.58 524.254 3110.26 520.593 Q3112.93 516.901 3112.93 510.44 Q3112.93 503.979 3110.26 500.319 Q3107.58 496.626 3102.93 496.626 Q3098.29 496.626 3095.61 500.319 Q3092.97 503.979 3092.97 510.44 Z" fill="#000000" fill-rule="evenodd" fill-opacity="1" /><path clip-path="url(#clip6500)" d="M 0 0 M3164.14 486.314 L3147.91 511.681 L3164.14 511.681 L3164.14 486.314 M3162.45 480.712 L3170.54 480.712 L3170.54 511.681 L3177.32 511.681 L3177.32 517.028 L3170.54 517.028 L3170.54 528.232 L3164.14 528.232 L3164.14 517.028 L3142.69 517.028 L3142.69 510.822 L3162.45 480.712 Z" fill="#000000" fill-rule="evenodd" fill-opacity="1" /><polyline clip-path="url(#clip6500)" style="stroke:#ac8d18; stroke-width:16; stroke-opacity:1; fill:none" points="
  2745.92,564.952 2937.92,564.952 
  "/>
<path clip-path="url(#clip6500)" d="M 0 0 M2969.92 541.192 L2976.35 541.192 L2976.35 583.301 L2999.49 583.301 L2999.49 588.712 L2969.92 588.712 L2969.92 541.192 Z" fill="#000000" fill-rule="evenodd" fill-opacity="1" /><path clip-path="url(#clip6500)" d="M 0 0 M3018.3 557.17 Q3013.59 557.17 3010.85 560.862 Q3008.12 564.522 3008.12 570.92 Q3008.12 577.318 3010.82 581.01 Q3013.56 584.67 3018.3 584.67 Q3022.98 584.67 3025.72 580.978 Q3028.46 577.286 3028.46 570.92 Q3028.46 564.586 3025.72 560.894 Q3022.98 557.17 3018.3 557.17 M3018.3 552.205 Q3025.94 552.205 3030.3 557.17 Q3034.66 562.135 3034.66 570.92 Q3034.66 579.673 3030.3 584.67 Q3025.94 589.635 3018.3 589.635 Q3010.63 589.635 3006.27 584.67 Q3001.94 579.673 3001.94 570.92 Q3001.94 562.135 3006.27 557.17 Q3010.63 552.205 3018.3 552.205 Z" fill="#000000" fill-rule="evenodd" fill-opacity="1" /><path clip-path="url(#clip6500)" d="M 0 0 M3057.01 570.793 Q3049.91 570.793 3047.17 572.416 Q3044.43 574.039 3044.43 577.954 Q3044.43 581.073 3046.47 582.919 Q3048.54 584.734 3052.07 584.734 Q3056.94 584.734 3059.87 581.296 Q3062.83 577.827 3062.83 572.098 L3062.83 570.793 L3057.01 570.793 M3068.69 568.374 L3068.69 588.712 L3062.83 588.712 L3062.83 583.301 Q3060.83 586.548 3057.83 588.107 Q3054.84 589.635 3050.51 589.635 Q3045.04 589.635 3041.79 586.58 Q3038.58 583.492 3038.58 578.336 Q3038.58 572.32 3042.59 569.265 Q3046.63 566.209 3054.62 566.209 L3062.83 566.209 L3062.83 565.636 Q3062.83 561.594 3060.16 559.398 Q3057.52 557.17 3052.71 557.17 Q3049.65 557.17 3046.76 557.902 Q3043.86 558.634 3041.19 560.098 L3041.19 554.687 Q3044.4 553.446 3047.43 552.841 Q3050.45 552.205 3053.31 552.205 Q3061.05 552.205 3064.87 556.215 Q3068.69 560.226 3068.69 568.374 Z" fill="#000000" fill-rule="evenodd" fill-opacity="1" /><path clip-path="url(#clip6500)" d="M 0 0 M3098.29 558.475 L3098.29 539.187 L3104.14 539.187 L3104.14 588.712 L3098.29 588.712 L3098.29 583.365 Q3096.44 586.548 3093.61 588.107 Q3090.81 589.635 3086.86 589.635 Q3080.4 589.635 3076.33 584.479 Q3072.28 579.323 3072.28 570.92 Q3072.28 562.517 3076.33 557.361 Q3080.4 552.205 3086.86 552.205 Q3090.81 552.205 3093.61 553.764 Q3096.44 555.292 3098.29 558.475 M3078.33 570.92 Q3078.33 577.381 3080.97 581.073 Q3083.65 584.734 3088.29 584.734 Q3092.94 584.734 3095.61 581.073 Q3098.29 577.381 3098.29 570.92 Q3098.29 564.459 3095.61 560.799 Q3092.94 557.106 3088.29 557.106 Q3083.65 557.106 3080.97 560.799 Q3078.33 564.459 3078.33 570.92 Z" fill="#000000" fill-rule="evenodd" fill-opacity="1" /></svg>
