<?xml version="1.0" encoding="utf-8"?>
<svg xmlns="http://www.w3.org/2000/svg" xmlns:xlink="http://www.w3.org/1999/xlink" width="800" height="600" viewBox="0 0 3200 2400">
<defs>
  <clipPath id="clip7400">
    <rect x="0" y="0" width="3200" height="2400"/>
  </clipPath>
</defs>
<path clip-path="url(#clip7400)" d="
M0 2400 L3200 2400 L3200 0 L0 0  Z
  " fill="#ffffff" fill-rule="evenodd" fill-opacity="1"/>
<defs>
  <clipPath id="clip7401">
    <rect x="640" y="0" width="2241" height="2241"/>
  </clipPath>
</defs>
<path clip-path="url(#clip7400)" d="
M225.056 2204.92 L2617.92 2204.92 L2617.92 131.032 L225.056 131.032  Z
  " fill="#ffffff" fill-rule="evenodd" fill-opacity="1"/>
<defs>
  <clipPath id="clip7402">
    <rect x="225" y="131" width="2394" height="2075"/>
  </clipPath>
</defs>
<polyline clip-path="url(#clip7402)" style="stroke:#000000; stroke-width:2; stroke-opacity:0.1; fill:none" points="
  292.779,2204.92 292.779,131.032 
  "/>
<polyline clip-path="url(#clip7402)" style="stroke:#000000; stroke-width:2; stroke-opacity:0.1; fill:none" points="
  744.263,2204.92 744.263,131.032 
  "/>
<polyline clip-path="url(#clip7402)" style="stroke:#000000; stroke-width:2; stroke-opacity:0.1; fill:none" points="
  1195.75,2204.92 1195.75,131.032 
  "/>
<polyline clip-path="url(#clip7402)" style="stroke:#000000; stroke-width:2; stroke-opacity:0.1; fill:none" points="
  1647.23,2204.92 1647.23,131.032 
  "/>
<polyline clip-path="url(#clip7402)" style="stroke:#000000; stroke-width:2; stroke-opacity:0.1; fill:none" points="
  2098.72,2204.92 2098.72,131.032 
  "/>
<polyline clip-path="url(#clip7402)" style="stroke:#000000; stroke-width:2; stroke-opacity:0.1; fill:none" points="
  2550.2,2204.92 2550.2,131.032 
  "/>
<polyline clip-path="url(#clip7402)" style="stroke:#000000; stroke-width:2; stroke-opacity:0.1; fill:none" points="
  225.056,2033.12 2617.92,2033.12 
  "/>
<polyline clip-path="url(#clip7402)" style="stroke:#000000; stroke-width:2; stroke-opacity:0.1; fill:none" points="
  225.056,1560.64 2617.92,1560.64 
  "/>
<polyline clip-path="url(#clip7402)" style="stroke:#000000; stroke-width:2; stroke-opacity:0.1; fill:none" points="
  225.056,1088.16 2617.92,1088.16 
  "/>
<polyline clip-path="url(#clip7402)" style="stroke:#000000; stroke-width:2; stroke-opacity:0.1; fill:none" points="
  225.056,615.676 2617.92,615.676 
  "/>
<polyline clip-path="url(#clip7402)" style="stroke:#000000; stroke-width:2; stroke-opacity:0.1; fill:none" points="
  225.056,143.196 2617.92,143.196 
  "/>
<polyline clip-path="url(#clip7400)" style="stroke:#000000; stroke-width:4; stroke-opacity:1; fill:none" points="
  225.056,2204.92 2617.92,2204.92 
  "/>
<polyline clip-path="url(#clip7400)" style="stroke:#000000; stroke-width:4; stroke-opacity:1; fill:none" points="
  225.056,2204.92 225.056,131.032 
  "/>
<polyline clip-path="url(#clip7400)" style="stroke:#000000; stroke-width:4; stroke-opacity:1; fill:none" points="
  292.779,2204.92 292.779,2180.03 
  "/>
<polyline clip-path="url(#clip7400)" style="stroke:#000000; stroke-width:4; stroke-opacity:1; fill:none" points="
  744.263,2204.92 744.263,2180.03 
  "/>
<polyline clip-path="url(#clip7400)" style="stroke:#000000; stroke-width:4; stroke-opacity:1; fill:none" points="
  1195.75,2204.92 1195.75,2180.03 
  "/>
<polyline clip-path="url(#clip7400)" style="stroke:#000000; stroke-width:4; stroke-opacity:1; fill:none" points="
  1647.23,2204.92 1647.23,2180.03 
  "/>
<polyline clip-path="url(#clip7400)" style="stroke:#000000; stroke-width:4; stroke-opacity:1; fill:none" points="
  2098.72,2204.92 2098.72,2180.03 
  "/>
<polyline clip-path="url(#clip7400)" style="stroke:#000000; stroke-width:4; stroke-opacity:1; fill:none" points="
  2550.2,2204.92 2550.2,2180.03 
  "/>
<polyline clip-path="url(#clip7400)" style="stroke:#000000; stroke-width:4; stroke-opacity:1; fill:none" points="
  225.056,2033.12 253.771,2033.12 
  "/>
<polyline clip-path="url(#clip7400)" style="stroke:#000000; stroke-width:4; stroke-opacity:1; fill:none" points="
  225.056,1560.64 253.771,1560.64 
  "/>
<polyline clip-path="url(#clip7400)" style="stroke:#000000; stroke-width:4; stroke-opacity:1; fill:none" points="
  225.056,1088.16 253.771,1088.16 
  "/>
<polyline clip-path="url(#clip7400)" style="stroke:#000000; stroke-width:4; stroke-opacity:1; fill:none" points="
  225.056,615.676 253.771,615.676 
  "/>
<polyline clip-path="url(#clip7400)" style="stroke:#000000; stroke-width:4; stroke-opacity:1; fill:none" points="
  225.056,143.196 253.771,143.196 
  "/>
<path clip-path="url(#clip7400)" d="M 0 0 M292.779 2230.91 Q289.168 2230.91 287.339 2234.48 Q285.534 2238.02 285.534 2245.15 Q285.534 2252.25 287.339 2255.82 Q289.168 2259.36 292.779 2259.36 Q296.413 2259.36 298.219 2255.82 Q300.047 2252.25 300.047 2245.15 Q300.047 2238.02 298.219 2234.48 Q296.413 2230.91 292.779 2230.91 M292.779 2227.21 Q298.589 2227.21 301.645 2231.81 Q304.723 2236.4 304.723 2245.15 Q304.723 2253.87 301.645 2258.48 Q298.589 2263.06 292.779 2263.06 Q286.969 2263.06 283.89 2258.48 Q280.835 2253.87 280.835 2245.15 Q280.835 2236.4 283.89 2231.81 Q286.969 2227.21 292.779 2227.21 Z" fill="#000000" fill-rule="evenodd" fill-opacity="1" /><path clip-path="url(#clip7400)" d="M 0 0 M734.645 2258.46 L742.284 2258.46 L742.284 2232.09 L733.974 2233.76 L733.974 2229.5 L742.238 2227.83 L746.914 2227.83 L746.914 2258.46 L754.553 2258.46 L754.553 2262.39 L734.645 2262.39 L734.645 2258.46 Z" fill="#000000" fill-rule="evenodd" fill-opacity="1" /><path clip-path="url(#clip7400)" d="M 0 0 M1190.4 2258.46 L1206.72 2258.46 L1206.72 2262.39 L1184.78 2262.39 L1184.78 2258.46 Q1187.44 2255.7 1192.02 2251.07 Q1196.63 2246.42 1197.81 2245.08 Q1200.05 2242.55 1200.93 2240.82 Q1201.84 2239.06 1201.84 2237.37 Q1201.84 2234.61 1199.89 2232.88 Q1197.97 2231.14 1194.87 2231.14 Q1192.67 2231.14 1190.22 2231.91 Q1187.78 2232.67 1185.01 2234.22 L1185.01 2229.5 Q1187.83 2228.36 1190.28 2227.79 Q1192.74 2227.21 1194.78 2227.21 Q1200.15 2227.21 1203.34 2229.89 Q1206.53 2232.58 1206.53 2237.07 Q1206.53 2239.2 1205.72 2241.12 Q1204.94 2243.02 1202.83 2245.61 Q1202.25 2246.28 1199.15 2249.5 Q1196.05 2252.69 1190.4 2258.46 Z" fill="#000000" fill-rule="evenodd" fill-opacity="1" /><path clip-path="url(#clip7400)" d="M 0 0 M1651.48 2243.76 Q1654.84 2244.48 1656.71 2246.74 Q1658.61 2249.01 1658.61 2252.35 Q1658.61 2257.46 1655.09 2260.26 Q1651.57 2263.06 1645.09 2263.06 Q1642.91 2263.06 1640.6 2262.62 Q1638.31 2262.21 1635.85 2261.35 L1635.85 2256.84 Q1637.8 2257.97 1640.11 2258.55 Q1642.43 2259.13 1644.95 2259.13 Q1649.35 2259.13 1651.64 2257.39 Q1653.96 2255.66 1653.96 2252.35 Q1653.96 2249.29 1651.8 2247.58 Q1649.67 2245.84 1645.85 2245.84 L1641.83 2245.84 L1641.83 2242 L1646.04 2242 Q1649.49 2242 1651.32 2240.63 Q1653.15 2239.24 1653.15 2236.65 Q1653.15 2233.99 1651.25 2232.58 Q1649.37 2231.14 1645.85 2231.14 Q1643.93 2231.14 1641.73 2231.56 Q1639.54 2231.98 1636.9 2232.85 L1636.9 2228.69 Q1639.56 2227.95 1641.87 2227.58 Q1644.21 2227.21 1646.27 2227.21 Q1651.6 2227.21 1654.7 2229.64 Q1657.8 2232.04 1657.8 2236.17 Q1657.8 2239.04 1656.16 2241.03 Q1654.51 2242.99 1651.48 2243.76 Z" fill="#000000" fill-rule="evenodd" fill-opacity="1" /><path clip-path="url(#clip7400)" d="M 0 0 M2101.73 2231.91 L2089.92 2250.35 L2101.73 2250.35 L2101.73 2231.91 M2100.5 2227.83 L2106.38 2227.83 L2106.38 2250.35 L2111.31 2250.35 L2111.31 2254.24 L2106.38 2254.24 L2106.38 2262.39 L2101.73 2262.39 L2101.73 2254.24 L2086.12 2254.24 L2086.12 2249.73 L2100.5 2227.83 Z" fill="#000000" fill-rule="evenodd" fill-opacity="1" /><path clip-path="url(#clip7400)" d="M 0 0 M2540.48 2227.83 L2558.83 2227.83 L2558.83 2231.77 L2544.76 2231.77 L2544.76 2240.24 Q2545.78 2239.89 2546.8 2239.73 Q2547.82 2239.54 2548.83 2239.54 Q2554.62 2239.54 2558 2242.72 Q2561.38 2245.89 2561.38 2251.3 Q2561.38 2256.88 2557.91 2259.98 Q2554.44 2263.06 2548.12 2263.06 Q2545.94 2263.06 2543.67 2262.69 Q2541.43 2262.32 2539.02 2261.58 L2539.02 2256.88 Q2541.1 2258.02 2543.33 2258.57 Q2545.55 2259.13 2548.02 2259.13 Q2552.03 2259.13 2554.37 2257.02 Q2556.71 2254.92 2556.71 2251.3 Q2556.71 2247.69 2554.37 2245.59 Q2552.03 2243.48 2548.02 2243.48 Q2546.15 2243.48 2544.27 2243.9 Q2542.42 2244.31 2540.48 2245.19 L2540.48 2227.83 Z" fill="#000000" fill-rule="evenodd" fill-opacity="1" /><path clip-path="url(#clip7400)" d="M 0 0 M144.145 2018.91 Q140.533 2018.91 138.705 2022.48 Q136.899 2026.02 136.899 2033.15 Q136.899 2040.26 138.705 2043.82 Q140.533 2047.36 144.145 2047.36 Q147.779 2047.36 149.584 2043.82 Q151.413 2040.26 151.413 2033.15 Q151.413 2026.02 149.584 2022.48 Q147.779 2018.91 144.145 2018.91 M144.145 2015.21 Q149.955 2015.21 153.01 2019.82 Q156.089 2024.4 156.089 2033.15 Q156.089 2041.88 153.01 2046.48 Q149.955 2051.07 144.145 2051.07 Q138.334 2051.07 135.256 2046.48 Q132.2 2041.88 132.2 2033.15 Q132.2 2024.4 135.256 2019.82 Q138.334 2015.21 144.145 2015.21 Z" fill="#000000" fill-rule="evenodd" fill-opacity="1" /><path clip-path="url(#clip7400)" d="M 0 0 M161.158 2044.52 L166.043 2044.52 L166.043 2050.4 L161.158 2050.4 L161.158 2044.52 Z" fill="#000000" fill-rule="evenodd" fill-opacity="1" /><path clip-path="url(#clip7400)" d="M 0 0 M181.112 2018.91 Q177.501 2018.91 175.672 2022.48 Q173.867 2026.02 173.867 2033.15 Q173.867 2040.26 175.672 2043.82 Q177.501 2047.36 181.112 2047.36 Q184.746 2047.36 186.552 2043.82 Q188.38 2040.26 188.38 2033.15 Q188.38 2026.02 186.552 2022.48 Q184.746 2018.91 181.112 2018.91 M181.112 2015.21 Q186.922 2015.21 189.978 2019.82 Q193.056 2024.4 193.056 2033.15 Q193.056 2041.88 189.978 2046.48 Q186.922 2051.07 181.112 2051.07 Q175.302 2051.07 172.223 2046.48 Q169.168 2041.88 169.168 2033.15 Q169.168 2024.4 172.223 2019.82 Q175.302 2015.21 181.112 2015.21 Z" fill="#000000" fill-rule="evenodd" fill-opacity="1" /><path clip-path="url(#clip7400)" d="M 0 0 M145.14 1546.43 Q141.529 1546.43 139.7 1550 Q137.895 1553.54 137.895 1560.67 Q137.895 1567.78 139.7 1571.34 Q141.529 1574.88 145.14 1574.88 Q148.774 1574.88 150.58 1571.34 Q152.408 1567.78 152.408 1560.67 Q152.408 1553.54 150.58 1550 Q148.774 1546.43 145.14 1546.43 M145.14 1542.73 Q150.95 1542.73 154.006 1547.34 Q157.084 1551.92 157.084 1560.67 Q157.084 1569.4 154.006 1574 Q150.95 1578.59 145.14 1578.59 Q139.33 1578.59 136.251 1574 Q133.196 1569.4 133.196 1560.67 Q133.196 1551.92 136.251 1547.34 Q139.33 1542.73 145.14 1542.73 Z" fill="#000000" fill-rule="evenodd" fill-opacity="1" /><path clip-path="url(#clip7400)" d="M 0 0 M162.154 1572.04 L167.038 1572.04 L167.038 1577.92 L162.154 1577.92 L162.154 1572.04 Z" fill="#000000" fill-rule="evenodd" fill-opacity="1" /><path clip-path="url(#clip7400)" d="M 0 0 M172.154 1543.36 L190.51 1543.36 L190.51 1547.29 L176.436 1547.29 L176.436 1555.76 Q177.455 1555.42 178.473 1555.25 Q179.492 1555.07 180.51 1555.07 Q186.297 1555.07 189.677 1558.24 Q193.056 1561.41 193.056 1566.83 Q193.056 1572.41 189.584 1575.51 Q186.112 1578.59 179.792 1578.59 Q177.617 1578.59 175.348 1578.22 Q173.103 1577.85 170.695 1577.11 L170.695 1572.41 Q172.779 1573.54 175.001 1574.1 Q177.223 1574.65 179.7 1574.65 Q183.705 1574.65 186.042 1572.55 Q188.38 1570.44 188.38 1566.83 Q188.38 1563.22 186.042 1561.11 Q183.705 1559 179.7 1559 Q177.825 1559 175.95 1559.42 Q174.098 1559.84 172.154 1560.72 L172.154 1543.36 Z" fill="#000000" fill-rule="evenodd" fill-opacity="1" /><path clip-path="url(#clip7400)" d="M 0 0 M136.182 1101.5 L143.82 1101.5 L143.82 1075.14 L135.51 1076.8 L135.51 1072.54 L143.774 1070.88 L148.45 1070.88 L148.45 1101.5 L156.089 1101.5 L156.089 1105.44 L136.182 1105.44 L136.182 1101.5 Z" fill="#000000" fill-rule="evenodd" fill-opacity="1" /><path clip-path="url(#clip7400)" d="M 0 0 M161.158 1099.56 L166.043 1099.56 L166.043 1105.44 L161.158 1105.44 L161.158 1099.56 Z" fill="#000000" fill-rule="evenodd" fill-opacity="1" /><path clip-path="url(#clip7400)" d="M 0 0 M181.112 1073.95 Q177.501 1073.95 175.672 1077.52 Q173.867 1081.06 173.867 1088.19 Q173.867 1095.3 175.672 1098.86 Q177.501 1102.4 181.112 1102.4 Q184.746 1102.4 186.552 1098.86 Q188.38 1095.3 188.38 1088.19 Q188.38 1081.06 186.552 1077.52 Q184.746 1073.95 181.112 1073.95 M181.112 1070.25 Q186.922 1070.25 189.978 1074.86 Q193.056 1079.44 193.056 1088.19 Q193.056 1096.92 189.978 1101.52 Q186.922 1106.11 181.112 1106.11 Q175.302 1106.11 172.223 1101.52 Q169.168 1096.92 169.168 1088.19 Q169.168 1079.44 172.223 1074.86 Q175.302 1070.25 181.112 1070.25 Z" fill="#000000" fill-rule="evenodd" fill-opacity="1" /><path clip-path="url(#clip7400)" d="M 0 0 M137.177 629.021 L144.816 629.021 L144.816 602.655 L136.506 604.322 L136.506 600.063 L144.77 598.396 L149.445 598.396 L149.445 629.021 L157.084 629.021 L157.084 632.956 L137.177 632.956 L137.177 629.021 Z" fill="#000000" fill-rule="evenodd" fill-opacity="1" /><path clip-path="url(#clip7400)" d="M 0 0 M162.154 627.077 L167.038 627.077 L167.038 632.956 L162.154 632.956 L162.154 627.077 Z" fill="#000000" fill-rule="evenodd" fill-opacity="1" /><path clip-path="url(#clip7400)" d="M 0 0 M172.154 598.396 L190.51 598.396 L190.51 602.331 L176.436 602.331 L176.436 610.803 Q177.455 610.456 178.473 610.294 Q179.492 610.109 180.51 610.109 Q186.297 610.109 189.677 613.28 Q193.056 616.452 193.056 621.868 Q193.056 627.447 189.584 630.549 Q186.112 633.627 179.792 633.627 Q177.617 633.627 175.348 633.257 Q173.103 632.887 170.695 632.146 L170.695 627.447 Q172.779 628.581 175.001 629.137 Q177.223 629.692 179.7 629.692 Q183.705 629.692 186.042 627.586 Q188.38 625.479 188.38 621.868 Q188.38 618.257 186.042 616.151 Q183.705 614.044 179.7 614.044 Q177.825 614.044 175.95 614.461 Q174.098 614.878 172.154 615.757 L172.154 598.396 Z" fill="#000000" fill-rule="evenodd" fill-opacity="1" /><path clip-path="url(#clip7400)" d="M 0 0 M139.77 156.541 L156.089 156.541 L156.089 160.476 L134.145 160.476 L134.145 156.541 Q136.807 153.787 141.39 149.157 Q145.996 144.504 147.177 143.162 Q149.422 140.639 150.302 138.902 Q151.205 137.143 151.205 135.453 Q151.205 132.699 149.26 130.963 Q147.339 129.227 144.237 129.227 Q142.038 129.227 139.584 129.99 Q137.154 130.754 134.376 132.305 L134.376 127.583 Q137.2 126.449 139.654 125.87 Q142.108 125.291 144.145 125.291 Q149.515 125.291 152.709 127.977 Q155.904 130.662 155.904 135.152 Q155.904 137.282 155.094 139.203 Q154.307 141.102 152.2 143.694 Q151.621 144.365 148.52 147.583 Q145.418 150.777 139.77 156.541 Z" fill="#000000" fill-rule="evenodd" fill-opacity="1" /><path clip-path="url(#clip7400)" d="M 0 0 M161.158 154.597 L166.043 154.597 L166.043 160.476 L161.158 160.476 L161.158 154.597 Z" fill="#000000" fill-rule="evenodd" fill-opacity="1" /><path clip-path="url(#clip7400)" d="M 0 0 M181.112 128.995 Q177.501 128.995 175.672 132.56 Q173.867 136.102 173.867 143.231 Q173.867 150.338 175.672 153.902 Q177.501 157.444 181.112 157.444 Q184.746 157.444 186.552 153.902 Q188.38 150.338 188.38 143.231 Q188.38 136.102 186.552 132.56 Q184.746 128.995 181.112 128.995 M181.112 125.291 Q186.922 125.291 189.978 129.898 Q193.056 134.481 193.056 143.231 Q193.056 151.958 189.978 156.564 Q186.922 161.148 181.112 161.148 Q175.302 161.148 172.223 156.564 Q169.168 151.958 169.168 143.231 Q169.168 134.481 172.223 129.898 Q175.302 125.291 181.112 125.291 Z" fill="#000000" fill-rule="evenodd" fill-opacity="1" /><path clip-path="url(#clip7400)" d="M 0 0 M596.098 12.096 L604.281 12.096 L604.281 36.8875 L634.014 36.8875 L634.014 12.096 L642.197 12.096 L642.197 72.576 L634.014 72.576 L634.014 43.7741 L604.281 43.7741 L604.281 72.576 L596.098 72.576 L596.098 12.096 Z" fill="#000000" fill-rule="evenodd" fill-opacity="1" /><path clip-path="url(#clip7400)" d="M 0 0 M667.596 32.4315 Q661.601 32.4315 658.117 37.1306 Q654.633 41.7891 654.633 49.9314 Q654.633 58.0738 658.077 62.7728 Q661.56 67.4314 667.596 67.4314 Q673.551 67.4314 677.035 62.7323 Q680.519 58.0333 680.519 49.9314 Q680.519 41.8701 677.035 37.1711 Q673.551 32.4315 667.596 32.4315 M667.596 26.1121 Q677.318 26.1121 682.868 32.4315 Q688.418 38.7509 688.418 49.9314 Q688.418 61.0714 682.868 67.4314 Q677.318 73.7508 667.596 73.7508 Q657.834 73.7508 652.284 67.4314 Q646.775 61.0714 646.775 49.9314 Q646.775 38.7509 652.284 32.4315 Q657.834 26.1121 667.596 26.1121 Z" fill="#000000" fill-rule="evenodd" fill-opacity="1" /><path clip-path="url(#clip7400)" d="M 0 0 M690.889 27.2059 L698.788 27.2059 L712.966 65.2844 L727.145 27.2059 L735.044 27.2059 L718.03 72.576 L707.903 72.576 L690.889 27.2059 Z" fill="#000000" fill-rule="evenodd" fill-opacity="1" /><path clip-path="url(#clip7400)" d="M 0 0 M781.67 48.0275 L781.67 51.6733 L747.399 51.6733 Q747.885 59.3701 752.017 63.421 Q756.19 67.4314 763.603 67.4314 Q767.897 67.4314 771.907 66.3781 Q775.958 65.3249 779.928 63.2184 L779.928 70.267 Q775.917 71.9684 771.705 72.8596 Q767.492 73.7508 763.157 73.7508 Q752.301 73.7508 745.941 67.4314 Q739.621 61.1119 739.621 50.3365 Q739.621 39.1965 745.617 32.6746 Q751.653 26.1121 761.861 26.1121 Q771.016 26.1121 776.323 32.0264 Q781.67 37.9003 781.67 48.0275 M774.216 45.84 Q774.135 39.7232 770.773 36.0774 Q767.451 32.4315 761.942 32.4315 Q755.703 32.4315 751.936 35.9558 Q748.209 39.4801 747.642 45.8805 L774.216 45.84 Z" fill="#000000" fill-rule="evenodd" fill-opacity="1" /><path clip-path="url(#clip7400)" d="M 0 0 M815.778 34.1734 Q814.523 33.4443 813.024 33.1202 Q811.565 32.7556 809.783 32.7556 Q803.464 32.7556 800.061 36.8875 Q796.699 40.9789 796.699 48.6757 L796.699 72.576 L789.204 72.576 L789.204 27.2059 L796.699 27.2059 L796.699 34.2544 Q799.048 30.1225 802.815 28.1376 Q806.583 26.1121 811.971 26.1121 Q812.74 26.1121 813.672 26.2337 Q814.604 26.3147 815.738 26.5172 L815.778 34.1734 Z" fill="#000000" fill-rule="evenodd" fill-opacity="1" /><path clip-path="url(#clip7400)" d="M 0 0 M823.597 27.2059 L831.05 27.2059 L831.05 72.576 L823.597 72.576 L823.597 27.2059 M823.597 9.54393 L831.05 9.54393 L831.05 18.9825 L823.597 18.9825 L823.597 9.54393 Z" fill="#000000" fill-rule="evenodd" fill-opacity="1" /><path clip-path="url(#clip7400)" d="M 0 0 M876.582 45.1919 L876.582 72.576 L869.129 72.576 L869.129 45.4349 Q869.129 38.994 866.617 35.7938 Q864.106 32.5936 859.083 32.5936 Q853.047 32.5936 849.563 36.4419 Q846.079 40.2903 846.079 46.9338 L846.079 72.576 L838.585 72.576 L838.585 27.2059 L846.079 27.2059 L846.079 34.2544 Q848.753 30.163 852.358 28.1376 Q856.004 26.1121 860.743 26.1121 Q868.562 26.1121 872.572 30.9732 Q876.582 35.7938 876.582 45.1919 Z" fill="#000000" fill-rule="evenodd" fill-opacity="1" /><path clip-path="url(#clip7400)" d="M 0 0 M914.256 49.3643 Q914.256 41.2625 910.894 36.8065 Q907.572 32.3505 901.536 32.3505 Q895.541 32.3505 892.178 36.8065 Q888.857 41.2625 888.857 49.3643 Q888.857 57.4256 892.178 61.8816 Q895.541 66.3376 901.536 66.3376 Q907.572 66.3376 910.894 61.8816 Q914.256 57.4256 914.256 49.3643 M921.71 66.9452 Q921.71 78.5308 916.565 84.1616 Q911.42 89.8329 900.807 89.8329 Q896.877 89.8329 893.394 89.2252 Q889.91 88.6581 886.629 87.4428 L886.629 80.1917 Q889.91 81.9741 893.11 82.8248 Q896.31 83.6755 899.632 83.6755 Q906.964 83.6755 910.61 79.8271 Q914.256 76.0193 914.256 68.282 L914.256 64.5957 Q911.947 68.6061 908.342 70.5911 Q904.736 72.576 899.713 72.576 Q891.368 72.576 886.264 66.2161 Q881.16 59.8562 881.16 49.3643 Q881.16 38.832 886.264 32.472 Q891.368 26.1121 899.713 26.1121 Q904.736 26.1121 908.342 28.0971 Q911.947 30.082 914.256 34.0924 L914.256 27.2059 L921.71 27.2059 L921.71 66.9452 Z" fill="#000000" fill-rule="evenodd" fill-opacity="1" /><path clip-path="url(#clip7400)" d="M 0 0 M951.565 27.2059 L959.018 27.2059 L968.335 62.6108 L977.612 27.2059 L986.402 27.2059 L995.72 62.6108 L1005 27.2059 L1012.45 27.2059 L1000.58 72.576 L991.79 72.576 L982.028 35.3887 L972.224 72.576 L963.434 72.576 L951.565 27.2059 Z" fill="#000000" fill-rule="evenodd" fill-opacity="1" /><path clip-path="url(#clip7400)" d="M 0 0 M1020.27 27.2059 L1027.72 27.2059 L1027.72 72.576 L1020.27 72.576 L1020.27 27.2059 M1020.27 9.54393 L1027.72 9.54393 L1027.72 18.9825 L1020.27 18.9825 L1020.27 9.54393 Z" fill="#000000" fill-rule="evenodd" fill-opacity="1" /><path clip-path="url(#clip7400)" d="M 0 0 M1042.91 14.324 L1042.91 27.2059 L1058.27 27.2059 L1058.27 32.9987 L1042.91 32.9987 L1042.91 57.6282 Q1042.91 63.1779 1044.41 64.7578 Q1045.95 66.3376 1050.61 66.3376 L1058.27 66.3376 L1058.27 72.576 L1050.61 72.576 Q1041.98 72.576 1038.7 69.3758 Q1035.42 66.1351 1035.42 57.6282 L1035.42 32.9987 L1029.95 32.9987 L1029.95 27.2059 L1035.42 27.2059 L1035.42 14.324 L1042.91 14.324 Z" fill="#000000" fill-rule="evenodd" fill-opacity="1" /><path clip-path="url(#clip7400)" d="M 0 0 M1103.8 45.1919 L1103.8 72.576 L1096.34 72.576 L1096.34 45.4349 Q1096.34 38.994 1093.83 35.7938 Q1091.32 32.5936 1086.3 32.5936 Q1080.26 32.5936 1076.78 36.4419 Q1073.29 40.2903 1073.29 46.9338 L1073.29 72.576 L1065.8 72.576 L1065.8 9.54393 L1073.29 9.54393 L1073.29 34.2544 Q1075.97 30.163 1079.57 28.1376 Q1083.22 26.1121 1087.96 26.1121 Q1095.78 26.1121 1099.79 30.9732 Q1103.8 35.7938 1103.8 45.1919 Z" fill="#000000" fill-rule="evenodd" fill-opacity="1" /><path clip-path="url(#clip7400)" d="M 0 0 M1161.52 19.2256 L1140.86 51.5113 L1161.52 51.5113 L1161.52 19.2256 M1159.38 12.096 L1169.67 12.096 L1169.67 51.5113 L1178.29 51.5113 L1178.29 58.3168 L1169.67 58.3168 L1169.67 72.576 L1161.52 72.576 L1161.52 58.3168 L1134.22 58.3168 L1134.22 50.4176 L1159.38 12.096 Z" fill="#000000" fill-rule="evenodd" fill-opacity="1" /><path clip-path="url(#clip7400)" d="M 0 0 M1237.36 17.6457 Q1228.44 17.6457 1223.18 24.2892 Q1217.95 30.9327 1217.95 42.3968 Q1217.95 53.8203 1223.18 60.4638 Q1228.44 67.1073 1237.36 67.1073 Q1246.27 67.1073 1251.45 60.4638 Q1256.68 53.8203 1256.68 42.3968 Q1256.68 30.9327 1251.45 24.2892 Q1246.27 17.6457 1237.36 17.6457 M1248.82 71.4823 L1259.6 83.2704 L1249.71 83.2704 L1240.76 73.5887 Q1239.42 73.6697 1238.69 73.7103 Q1238 73.7508 1237.36 73.7508 Q1224.6 73.7508 1216.94 65.2439 Q1209.32 56.6965 1209.32 42.3968 Q1209.32 28.0566 1216.94 19.5497 Q1224.6 11.0023 1237.36 11.0023 Q1250.08 11.0023 1257.69 19.5497 Q1265.31 28.0566 1265.31 42.3968 Q1265.31 52.9291 1261.05 60.4233 Q1256.84 67.9175 1248.82 71.4823 Z" fill="#000000" fill-rule="evenodd" fill-opacity="1" /><path clip-path="url(#clip7400)" d="M 0 0 M1272.36 54.671 L1272.36 27.2059 L1279.81 27.2059 L1279.81 54.3874 Q1279.81 60.8284 1282.32 64.0691 Q1284.83 67.2693 1289.86 67.2693 Q1295.89 67.2693 1299.38 63.421 Q1302.9 59.5726 1302.9 52.9291 L1302.9 27.2059 L1310.35 27.2059 L1310.35 72.576 L1302.9 72.576 L1302.9 65.6084 Q1300.19 69.7404 1296.58 71.7658 Q1293.02 73.7508 1288.28 73.7508 Q1280.46 73.7508 1276.41 68.8897 Q1272.36 64.0286 1272.36 54.671 M1291.11 26.1121 L1291.11 26.1121 Z" fill="#000000" fill-rule="evenodd" fill-opacity="1" /><path clip-path="url(#clip7400)" d="M 0 0 M1338.79 49.7694 Q1329.76 49.7694 1326.27 51.8354 Q1322.79 53.9013 1322.79 58.8839 Q1322.79 62.8538 1325.38 65.2034 Q1328.02 67.5124 1332.51 67.5124 Q1338.71 67.5124 1342.44 63.1374 Q1346.2 58.7219 1346.2 51.4303 L1346.2 49.7694 L1338.79 49.7694 M1353.66 46.6907 L1353.66 72.576 L1346.2 72.576 L1346.2 65.6895 Q1343.65 69.8214 1339.84 71.8063 Q1336.04 73.7508 1330.53 73.7508 Q1323.56 73.7508 1319.43 69.8619 Q1315.34 65.9325 1315.34 59.3701 Q1315.34 51.7138 1320.44 47.825 Q1325.58 43.9361 1335.75 43.9361 L1346.2 43.9361 L1346.2 43.2069 Q1346.2 38.0623 1342.8 35.2672 Q1339.44 32.4315 1333.32 32.4315 Q1329.43 32.4315 1325.75 33.3632 Q1322.06 34.295 1318.66 36.1584 L1318.66 29.2718 Q1322.75 27.692 1326.6 26.9223 Q1330.45 26.1121 1334.09 26.1121 Q1343.94 26.1121 1348.8 31.2163 Q1353.66 36.3204 1353.66 46.6907 Z" fill="#000000" fill-rule="evenodd" fill-opacity="1" /><path clip-path="url(#clip7400)" d="M 0 0 M1391.33 34.0924 L1391.33 9.54393 L1398.78 9.54393 L1398.78 72.576 L1391.33 72.576 L1391.33 65.7705 Q1388.98 69.8214 1385.38 71.8063 Q1381.81 73.7508 1376.79 73.7508 Q1368.56 73.7508 1363.38 67.1883 Q1358.23 60.6258 1358.23 49.9314 Q1358.23 39.2371 1363.38 32.6746 Q1368.56 26.1121 1376.79 26.1121 Q1381.81 26.1121 1385.38 28.0971 Q1388.98 30.0415 1391.33 34.0924 M1365.93 49.9314 Q1365.93 58.1548 1369.29 62.8538 Q1372.7 67.5124 1378.61 67.5124 Q1384.53 67.5124 1387.93 62.8538 Q1391.33 58.1548 1391.33 49.9314 Q1391.33 41.7081 1387.93 37.0496 Q1384.53 32.3505 1378.61 32.3505 Q1372.7 32.3505 1369.29 37.0496 Q1365.93 41.7081 1365.93 49.9314 Z" fill="#000000" fill-rule="evenodd" fill-opacity="1" /><path clip-path="url(#clip7400)" d="M 0 0 M1432.89 34.1734 Q1431.64 33.4443 1430.14 33.1202 Q1428.68 32.7556 1426.9 32.7556 Q1420.58 32.7556 1417.18 36.8875 Q1413.81 40.9789 1413.81 48.6757 L1413.81 72.576 L1406.32 72.576 L1406.32 27.2059 L1413.81 27.2059 L1413.81 34.2544 Q1416.16 30.1225 1419.93 28.1376 Q1423.7 26.1121 1429.09 26.1121 Q1429.85 26.1121 1430.79 26.2337 Q1431.72 26.3147 1432.85 26.5172 L1432.89 34.1734 Z" fill="#000000" fill-rule="evenodd" fill-opacity="1" /><path clip-path="url(#clip7400)" d="M 0 0 M1456.47 32.4315 Q1450.47 32.4315 1446.99 37.1306 Q1443.51 41.7891 1443.51 49.9314 Q1443.51 58.0738 1446.95 62.7728 Q1450.43 67.4314 1456.47 67.4314 Q1462.42 67.4314 1465.91 62.7323 Q1469.39 58.0333 1469.39 49.9314 Q1469.39 41.8701 1465.91 37.1711 Q1462.42 32.4315 1456.47 32.4315 M1456.47 26.1121 Q1466.19 26.1121 1471.74 32.4315 Q1477.29 38.7509 1477.29 49.9314 Q1477.29 61.0714 1471.74 67.4314 Q1466.19 73.7508 1456.47 73.7508 Q1446.71 73.7508 1441.16 67.4314 Q1435.65 61.0714 1435.65 49.9314 Q1435.65 38.7509 1441.16 32.4315 Q1446.71 26.1121 1456.47 26.1121 Z" fill="#000000" fill-rule="evenodd" fill-opacity="1" /><path clip-path="url(#clip7400)" d="M 0 0 M1492.48 14.324 L1492.48 27.2059 L1507.83 27.2059 L1507.83 32.9987 L1492.48 32.9987 L1492.48 57.6282 Q1492.48 63.1779 1493.98 64.7578 Q1495.52 66.3376 1500.18 66.3376 L1507.83 66.3376 L1507.83 72.576 L1500.18 72.576 Q1491.55 72.576 1488.27 69.3758 Q1484.99 66.1351 1484.99 57.6282 L1484.99 32.9987 L1479.52 32.9987 L1479.52 27.2059 L1484.99 27.2059 L1484.99 14.324 L1492.48 14.324 Z" fill="#000000" fill-rule="evenodd" fill-opacity="1" /><path clip-path="url(#clip7400)" d="M 0 0 M1533.23 32.4315 Q1527.24 32.4315 1523.75 37.1306 Q1520.27 41.7891 1520.27 49.9314 Q1520.27 58.0738 1523.71 62.7728 Q1527.2 67.4314 1533.23 67.4314 Q1539.19 67.4314 1542.67 62.7323 Q1546.16 58.0333 1546.16 49.9314 Q1546.16 41.8701 1542.67 37.1711 Q1539.19 32.4315 1533.23 32.4315 M1533.23 26.1121 Q1542.96 26.1121 1548.51 32.4315 Q1554.06 38.7509 1554.06 49.9314 Q1554.06 61.0714 1548.51 67.4314 Q1542.96 73.7508 1533.23 73.7508 Q1523.47 73.7508 1517.92 67.4314 Q1512.41 61.0714 1512.41 49.9314 Q1512.41 38.7509 1517.92 32.4315 Q1523.47 26.1121 1533.23 26.1121 Z" fill="#000000" fill-rule="evenodd" fill-opacity="1" /><path clip-path="url(#clip7400)" d="M 0 0 M1588.16 34.1734 Q1586.91 33.4443 1585.41 33.1202 Q1583.95 32.7556 1582.17 32.7556 Q1575.85 32.7556 1572.45 36.8875 Q1569.08 40.9789 1569.08 48.6757 L1569.08 72.576 L1561.59 72.576 L1561.59 27.2059 L1569.08 27.2059 L1569.08 34.2544 Q1571.43 30.1225 1575.2 28.1376 Q1578.97 26.1121 1584.36 26.1121 Q1585.13 26.1121 1586.06 26.2337 Q1586.99 26.3147 1588.12 26.5172 L1588.16 34.1734 Z" fill="#000000" fill-rule="evenodd" fill-opacity="1" /><path clip-path="url(#clip7400)" d="M 0 0 M1624.91 28.5427 L1624.91 35.5912 Q1621.75 33.9709 1618.34 33.1607 Q1614.94 32.3505 1611.29 32.3505 Q1605.75 32.3505 1602.95 34.0519 Q1600.2 35.7533 1600.2 39.156 Q1600.2 41.7486 1602.18 43.2475 Q1604.17 44.7058 1610.16 46.0426 L1612.71 46.6097 Q1620.65 48.3111 1623.97 51.4303 Q1627.34 54.509 1627.34 60.0587 Q1627.34 66.3781 1622.31 70.0644 Q1617.33 73.7508 1608.58 73.7508 Q1604.94 73.7508 1600.97 73.0216 Q1597.04 72.3329 1592.66 70.9151 L1592.66 63.2184 Q1596.79 65.3654 1600.8 66.4591 Q1604.81 67.5124 1608.74 67.5124 Q1614.01 67.5124 1616.84 65.73 Q1619.68 63.9071 1619.68 60.6258 Q1619.68 57.5877 1617.61 55.9673 Q1615.59 54.3469 1608.66 52.8481 L1606.07 52.2405 Q1599.14 50.7821 1596.06 47.7845 Q1592.98 44.7463 1592.98 39.4801 Q1592.98 33.0797 1597.52 29.5959 Q1602.06 26.1121 1610.4 26.1121 Q1614.54 26.1121 1618.18 26.7198 Q1621.83 27.3274 1624.91 28.5427 Z" fill="#000000" fill-rule="evenodd" fill-opacity="1" /><path clip-path="url(#clip7400)" d="M 0 0 M1657.76 46.5287 L1679.59 46.5287 L1679.59 53.1722 L1657.76 53.1722 L1657.76 46.5287 Z" fill="#000000" fill-rule="evenodd" fill-opacity="1" /><path clip-path="url(#clip7400)" d="M 0 0 M1734.32 20.1573 L1723.22 50.2555 L1745.46 50.2555 L1734.32 20.1573 M1729.7 12.096 L1738.98 12.096 L1762.03 72.576 L1753.52 72.576 L1748.01 57.061 L1720.75 57.061 L1715.24 72.576 L1706.61 72.576 L1729.7 12.096 Z" fill="#000000" fill-rule="evenodd" fill-opacity="1" /><path clip-path="url(#clip7400)" d="M 0 0 M1799.7 49.3643 Q1799.7 41.2625 1796.34 36.8065 Q1793.02 32.3505 1786.98 32.3505 Q1780.99 32.3505 1777.63 36.8065 Q1774.3 41.2625 1774.3 49.3643 Q1774.3 57.4256 1777.63 61.8816 Q1780.99 66.3376 1786.98 66.3376 Q1793.02 66.3376 1796.34 61.8816 Q1799.7 57.4256 1799.7 49.3643 M1807.16 66.9452 Q1807.16 78.5308 1802.01 84.1616 Q1796.87 89.8329 1786.25 89.8329 Q1782.32 89.8329 1778.84 89.2252 Q1775.36 88.6581 1772.08 87.4428 L1772.08 80.1917 Q1775.36 81.9741 1778.56 82.8248 Q1781.76 83.6755 1785.08 83.6755 Q1792.41 83.6755 1796.06 79.8271 Q1799.7 76.0193 1799.7 68.282 L1799.7 64.5957 Q1797.39 68.6061 1793.79 70.5911 Q1790.18 72.576 1785.16 72.576 Q1776.81 72.576 1771.71 66.2161 Q1766.61 59.8562 1766.61 49.3643 Q1766.61 38.832 1771.71 32.472 Q1776.81 26.1121 1785.16 26.1121 Q1790.18 26.1121 1793.79 28.0971 Q1797.39 30.082 1799.7 34.0924 L1799.7 27.2059 L1807.16 27.2059 L1807.16 66.9452 Z" fill="#000000" fill-rule="evenodd" fill-opacity="1" /><path clip-path="url(#clip7400)" d="M 0 0 M1853.78 48.0275 L1853.78 51.6733 L1819.51 51.6733 Q1820 59.3701 1824.13 63.421 Q1828.3 67.4314 1835.72 67.4314 Q1840.01 67.4314 1844.02 66.3781 Q1848.07 65.3249 1852.04 63.2184 L1852.04 70.267 Q1848.03 71.9684 1843.82 72.8596 Q1839.6 73.7508 1835.27 73.7508 Q1824.41 73.7508 1818.05 67.4314 Q1811.73 61.1119 1811.73 50.3365 Q1811.73 39.1965 1817.73 32.6746 Q1823.76 26.1121 1833.97 26.1121 Q1843.13 26.1121 1848.43 32.0264 Q1853.78 37.9003 1853.78 48.0275 M1846.33 45.84 Q1846.25 39.7232 1842.89 36.0774 Q1839.56 32.4315 1834.05 32.4315 Q1827.82 32.4315 1824.05 35.9558 Q1820.32 39.4801 1819.75 45.8805 L1846.33 45.84 Z" fill="#000000" fill-rule="evenodd" fill-opacity="1" /><path clip-path="url(#clip7400)" d="M 0 0 M1899.31 45.1919 L1899.31 72.576 L1891.86 72.576 L1891.86 45.4349 Q1891.86 38.994 1889.35 35.7938 Q1886.84 32.5936 1881.81 32.5936 Q1875.78 32.5936 1872.29 36.4419 Q1868.81 40.2903 1868.81 46.9338 L1868.81 72.576 L1861.32 72.576 L1861.32 27.2059 L1868.81 27.2059 L1868.81 34.2544 Q1871.48 30.163 1875.09 28.1376 Q1878.74 26.1121 1883.48 26.1121 Q1891.29 26.1121 1895.3 30.9732 Q1899.31 35.7938 1899.31 45.1919 Z" fill="#000000" fill-rule="evenodd" fill-opacity="1" /><path clip-path="url(#clip7400)" d="M 0 0 M1914.51 14.324 L1914.51 27.2059 L1929.86 27.2059 L1929.86 32.9987 L1914.51 32.9987 L1914.51 57.6282 Q1914.51 63.1779 1916 64.7578 Q1917.54 66.3376 1922.2 66.3376 L1929.86 66.3376 L1929.86 72.576 L1922.2 72.576 Q1913.57 72.576 1910.29 69.3758 Q1907.01 66.1351 1907.01 57.6282 L1907.01 32.9987 L1901.54 32.9987 L1901.54 27.2059 L1907.01 27.2059 L1907.01 14.324 L1914.51 14.324 Z" fill="#000000" fill-rule="evenodd" fill-opacity="1" /><path clip-path="url(#clip7400)" d="M 0 0 M1979.97 72.576 L1956.88 12.096 L1965.43 12.096 L1984.59 63.0159 L2003.79 12.096 L2012.29 12.096 L1989.24 72.576 L1979.97 72.576 Z" fill="#000000" fill-rule="evenodd" fill-opacity="1" /><path clip-path="url(#clip7400)" d="M 0 0 M2052.48 48.0275 L2052.48 51.6733 L2018.21 51.6733 Q2018.69 59.3701 2022.83 63.421 Q2027 67.4314 2034.41 67.4314 Q2038.71 67.4314 2042.72 66.3781 Q2046.77 65.3249 2050.74 63.2184 L2050.74 70.267 Q2046.73 71.9684 2042.51 72.8596 Q2038.3 73.7508 2033.97 73.7508 Q2023.11 73.7508 2016.75 67.4314 Q2010.43 61.1119 2010.43 50.3365 Q2010.43 39.1965 2016.43 32.6746 Q2022.46 26.1121 2032.67 26.1121 Q2041.83 26.1121 2047.13 32.0264 Q2052.48 37.9003 2052.48 48.0275 M2045.03 45.84 Q2044.94 39.7232 2041.58 36.0774 Q2038.26 32.4315 2032.75 32.4315 Q2026.51 32.4315 2022.75 35.9558 Q2019.02 39.4801 2018.45 45.8805 L2045.03 45.84 Z" fill="#000000" fill-rule="evenodd" fill-opacity="1" /><path clip-path="url(#clip7400)" d="M 0 0 M2060.3 9.54393 L2067.75 9.54393 L2067.75 72.576 L2060.3 72.576 L2060.3 9.54393 Z" fill="#000000" fill-rule="evenodd" fill-opacity="1" /><path clip-path="url(#clip7400)" d="M 0 0 M2093.15 32.4315 Q2087.15 32.4315 2083.67 37.1306 Q2080.19 41.7891 2080.19 49.9314 Q2080.19 58.0738 2083.63 62.7728 Q2087.11 67.4314 2093.15 67.4314 Q2099.1 67.4314 2102.59 62.7323 Q2106.07 58.0333 2106.07 49.9314 Q2106.07 41.8701 2102.59 37.1711 Q2099.1 32.4315 2093.15 32.4315 M2093.15 26.1121 Q2102.87 26.1121 2108.42 32.4315 Q2113.97 38.7509 2113.97 49.9314 Q2113.97 61.0714 2108.42 67.4314 Q2102.87 73.7508 2093.15 73.7508 Q2083.39 73.7508 2077.84 67.4314 Q2072.33 61.0714 2072.33 49.9314 Q2072.33 38.7509 2077.84 32.4315 Q2083.39 26.1121 2093.15 26.1121 Z" fill="#000000" fill-rule="evenodd" fill-opacity="1" /><path clip-path="url(#clip7400)" d="M 0 0 M2154.44 28.9478 L2154.44 35.9153 Q2151.28 34.1734 2148.08 33.3227 Q2144.92 32.4315 2141.68 32.4315 Q2134.43 32.4315 2130.42 37.0496 Q2126.41 41.6271 2126.41 49.9314 Q2126.41 58.2358 2130.42 62.8538 Q2134.43 67.4314 2141.68 67.4314 Q2144.92 67.4314 2148.08 66.5807 Q2151.28 65.6895 2154.44 63.9476 L2154.44 70.8341 Q2151.32 72.2924 2147.96 73.0216 Q2144.64 73.7508 2140.87 73.7508 Q2130.62 73.7508 2124.59 67.3098 Q2118.55 60.8689 2118.55 49.9314 Q2118.55 38.832 2124.63 32.472 Q2130.74 26.1121 2141.36 26.1121 Q2144.8 26.1121 2148.08 26.8413 Q2151.36 27.5299 2154.44 28.9478 Z" fill="#000000" fill-rule="evenodd" fill-opacity="1" /><path clip-path="url(#clip7400)" d="M 0 0 M2162.26 27.2059 L2169.71 27.2059 L2169.71 72.576 L2162.26 72.576 L2162.26 27.2059 M2162.26 9.54393 L2169.71 9.54393 L2169.71 18.9825 L2162.26 18.9825 L2162.26 9.54393 Z" fill="#000000" fill-rule="evenodd" fill-opacity="1" /><path clip-path="url(#clip7400)" d="M 0 0 M2184.9 14.324 L2184.9 27.2059 L2200.26 27.2059 L2200.26 32.9987 L2184.9 32.9987 L2184.9 57.6282 Q2184.9 63.1779 2186.4 64.7578 Q2187.94 66.3376 2192.6 66.3376 L2200.26 66.3376 L2200.26 72.576 L2192.6 72.576 Q2183.97 72.576 2180.69 69.3758 Q2177.41 66.1351 2177.41 57.6282 L2177.41 32.9987 L2171.94 32.9987 L2171.94 27.2059 L2177.41 27.2059 L2177.41 14.324 L2184.9 14.324 Z" fill="#000000" fill-rule="evenodd" fill-opacity="1" /><path clip-path="url(#clip7400)" d="M 0 0 M2226.95 76.7889 Q2223.79 84.8907 2220.79 87.3618 Q2217.8 89.8329 2212.77 89.8329 L2206.82 89.8329 L2206.82 83.5945 L2211.19 83.5945 Q2214.27 83.5945 2215.97 82.1361 Q2217.67 80.6778 2219.74 75.2496 L2221.08 71.8468 L2202.73 27.2059 L2210.63 27.2059 L2224.8 62.6918 L2238.98 27.2059 L2246.88 27.2059 L2226.95 76.7889 Z" fill="#000000" fill-rule="evenodd" fill-opacity="1" /><path clip-path="url(#clip7400)" d="M 0 0 M1303.33 2298.26 L1343.53 2298.26 L1343.53 2303.67 L1326.66 2303.67 L1326.66 2345.78 L1320.2 2345.78 L1320.2 2303.67 L1303.33 2303.67 L1303.33 2298.26 Z" fill="#000000" fill-rule="evenodd" fill-opacity="1" /><path clip-path="url(#clip7400)" d="M 0 0 M1347.66 2310.14 L1353.52 2310.14 L1353.52 2345.78 L1347.66 2345.78 L1347.66 2310.14 M1347.66 2296.26 L1353.52 2296.26 L1353.52 2303.67 L1347.66 2303.67 L1347.66 2296.26 Z" fill="#000000" fill-rule="evenodd" fill-opacity="1" /><path clip-path="url(#clip7400)" d="M 0 0 M1387.42 2316.98 Q1389.61 2313.03 1392.67 2311.15 Q1395.72 2309.28 1399.86 2309.28 Q1405.43 2309.28 1408.46 2313.19 Q1411.48 2317.07 1411.48 2324.27 L1411.48 2345.78 L1405.59 2345.78 L1405.59 2324.46 Q1405.59 2319.33 1403.78 2316.85 Q1401.96 2314.37 1398.24 2314.37 Q1393.69 2314.37 1391.05 2317.39 Q1388.4 2320.42 1388.4 2325.64 L1388.4 2345.78 L1382.52 2345.78 L1382.52 2324.46 Q1382.52 2319.3 1380.7 2316.85 Q1378.89 2314.37 1375.1 2314.37 Q1370.61 2314.37 1367.97 2317.42 Q1365.33 2320.45 1365.33 2325.64 L1365.33 2345.78 L1359.44 2345.78 L1359.44 2310.14 L1365.33 2310.14 L1365.33 2315.67 Q1367.33 2312.4 1370.13 2310.84 Q1372.94 2309.28 1376.79 2309.28 Q1380.67 2309.28 1383.38 2311.25 Q1386.11 2313.22 1387.42 2316.98 Z" fill="#000000" fill-rule="evenodd" fill-opacity="1" /><path clip-path="url(#clip7400)" d="M 0 0 M1448.11 2326.5 L1448.11 2329.36 L1421.19 2329.36 Q1421.57 2335.41 1424.82 2338.59 Q1428.09 2341.74 1433.92 2341.74 Q1437.29 2341.74 1440.44 2340.91 Q1443.63 2340.09 1446.75 2338.43 L1446.75 2343.97 Q1443.59 2345.31 1440.28 2346.01 Q1436.97 2346.71 1433.57 2346.71 Q1425.04 2346.71 1420.04 2341.74 Q1415.08 2336.78 1415.08 2328.31 Q1415.08 2319.56 1419.79 2314.43 Q1424.53 2309.28 1432.55 2309.28 Q1439.74 2309.28 1443.91 2313.92 Q1448.11 2318.54 1448.11 2326.5 M1442.26 2324.78 Q1442.19 2319.97 1439.55 2317.11 Q1436.94 2314.24 1432.61 2314.24 Q1427.71 2314.24 1424.75 2317.01 Q1421.82 2319.78 1421.38 2324.81 L1442.26 2324.78 Z" fill="#000000" fill-rule="evenodd" fill-opacity="1" /><path clip-path="url(#clip7400)" d="M 0 0 M1489.05 2296.32 Q1484.78 2303.64 1482.71 2310.8 Q1480.64 2317.97 1480.64 2325.32 Q1480.64 2332.67 1482.71 2339.9 Q1484.81 2347.09 1489.05 2354.38 L1483.95 2354.38 Q1479.18 2346.9 1476.79 2339.67 Q1474.44 2332.45 1474.44 2325.32 Q1474.44 2318.22 1476.79 2311.03 Q1479.15 2303.83 1483.95 2296.32 L1489.05 2296.32 Z" fill="#000000" fill-rule="evenodd" fill-opacity="1" /><path clip-path="url(#clip7400)" d="M 0 0 M1517.91 2311.19 L1517.91 2316.72 Q1515.43 2315.45 1512.76 2314.81 Q1510.08 2314.18 1507.22 2314.18 Q1502.86 2314.18 1500.66 2315.51 Q1498.5 2316.85 1498.5 2319.53 Q1498.5 2321.56 1500.06 2322.74 Q1501.62 2323.89 1506.33 2324.94 L1508.33 2325.38 Q1514.57 2326.72 1517.18 2329.17 Q1519.82 2331.59 1519.82 2335.95 Q1519.82 2340.91 1515.88 2343.81 Q1511.96 2346.71 1505.09 2346.71 Q1502.22 2346.71 1499.1 2346.13 Q1496.02 2345.59 1492.58 2344.48 L1492.58 2338.43 Q1495.83 2340.12 1498.98 2340.98 Q1502.13 2341.81 1505.21 2341.81 Q1509.35 2341.81 1511.58 2340.4 Q1513.81 2338.97 1513.81 2336.39 Q1513.81 2334.01 1512.19 2332.73 Q1510.59 2331.46 1505.15 2330.28 L1503.11 2329.81 Q1497.67 2328.66 1495.25 2326.3 Q1492.83 2323.92 1492.83 2319.78 Q1492.83 2314.75 1496.4 2312.01 Q1499.96 2309.28 1506.52 2309.28 Q1509.77 2309.28 1512.63 2309.75 Q1515.5 2310.23 1517.91 2311.19 Z" fill="#000000" fill-rule="evenodd" fill-opacity="1" /><path clip-path="url(#clip7400)" d="M 0 0 M1525.04 2296.32 L1530.14 2296.32 Q1534.91 2303.83 1537.27 2311.03 Q1539.65 2318.22 1539.65 2325.32 Q1539.65 2332.45 1537.27 2339.67 Q1534.91 2346.9 1530.14 2354.38 L1525.04 2354.38 Q1529.28 2347.09 1531.35 2339.9 Q1533.45 2332.67 1533.45 2325.32 Q1533.45 2317.97 1531.35 2310.8 Q1529.28 2303.64 1525.04 2296.32 Z" fill="#000000" fill-rule="evenodd" fill-opacity="1" /><path clip-path="url(#clip7400)" d="M 0 0 M38.4242 1267.03 L38.4242 1260.12 L57.9669 1246.94 L38.4242 1233.86 L38.4242 1226.95 L63.3141 1243.76 L85.9442 1243.76 L85.9442 1250.22 L63.3141 1250.22 L38.4242 1267.03 Z" fill="#000000" fill-rule="evenodd" fill-opacity="1" /><path clip-path="url(#clip7400)" d="M 0 0 M36.419 1246.24 L36.419 1240.39 L43.835 1240.39 L43.835 1246.24 L36.419 1246.24 M49.4368 1243.25 L49.4368 1243.25 Z" fill="#000000" fill-rule="evenodd" fill-opacity="1" /><path clip-path="url(#clip7400)" d="M 0 0 M36.4826 1199.45 Q43.8032 1203.72 50.9646 1205.79 Q58.126 1207.86 65.4784 1207.86 Q72.8308 1207.86 80.0559 1205.79 Q87.2491 1203.69 94.5379 1199.45 L94.5379 1204.55 Q87.0582 1209.32 79.8331 1211.71 Q72.608 1214.06 65.4784 1214.06 Q58.3806 1214.06 51.1874 1211.71 Q43.9942 1209.35 36.4826 1204.55 L36.4826 1199.45 Z" fill="#000000" fill-rule="evenodd" fill-opacity="1" /><path clip-path="url(#clip7400)" d="M 0 0 M57.1393 1165.56 Q53.1926 1163.36 51.3147 1160.31 Q49.4368 1157.25 49.4368 1153.11 Q49.4368 1147.54 53.3517 1144.52 Q57.2348 1141.49 64.4281 1141.49 L85.9442 1141.49 L85.9442 1147.38 L64.619 1147.38 Q59.4946 1147.38 57.012 1149.2 Q54.5294 1151.01 54.5294 1154.74 Q54.5294 1159.29 57.5531 1161.93 Q60.5768 1164.57 65.7967 1164.57 L85.9442 1164.57 L85.9442 1170.46 L64.619 1170.46 Q59.4628 1170.46 57.012 1172.27 Q54.5294 1174.09 54.5294 1177.87 Q54.5294 1182.36 57.5849 1185 Q60.6086 1187.65 65.7967 1187.65 L85.9442 1187.65 L85.9442 1193.53 L50.2962 1193.53 L50.2962 1187.65 L55.8344 1187.65 Q52.556 1185.64 50.9964 1182.84 Q49.4368 1180.04 49.4368 1176.19 Q49.4368 1172.3 51.4102 1169.6 Q53.3836 1166.86 57.1393 1165.56 Z" fill="#000000" fill-rule="evenodd" fill-opacity="1" /><path clip-path="url(#clip7400)" d="M 0 0 M38.4242 1124.94 L38.4242 1119.53 L91.9916 1136.08 L91.9916 1141.49 L38.4242 1124.94 Z" fill="#000000" fill-rule="evenodd" fill-opacity="1" /><path clip-path="url(#clip7400)" d="M 0 0 M51.3465 1090.66 L56.8847 1090.66 Q55.6116 1093.15 54.975 1095.82 Q54.3384 1098.49 54.3384 1101.36 Q54.3384 1105.72 55.6752 1107.92 Q57.012 1110.08 59.6856 1110.08 Q61.7226 1110.08 62.9003 1108.52 Q64.0461 1106.96 65.0965 1102.25 L65.5421 1100.24 Q66.8789 1094.01 69.3297 1091.4 Q71.7486 1088.75 76.1091 1088.75 Q81.0744 1088.75 83.9708 1092.7 Q86.8672 1096.62 86.8672 1103.49 Q86.8672 1106.36 86.2943 1109.48 Q85.7532 1112.56 84.6392 1116 L78.5918 1116 Q80.2787 1112.75 81.138 1109.6 Q81.9656 1106.45 81.9656 1103.36 Q81.9656 1099.23 80.5651 1097 Q79.1329 1094.77 76.5547 1094.77 Q74.1676 1094.77 72.8945 1096.39 Q71.6213 1097.99 70.4437 1103.43 L69.9662 1105.46 Q68.8204 1110.91 66.4651 1113.33 Q64.078 1115.75 59.9402 1115.75 Q54.9113 1115.75 52.1741 1112.18 Q49.4368 1108.62 49.4368 1102.06 Q49.4368 1098.81 49.9143 1095.95 Q50.3917 1093.08 51.3465 1090.66 Z" fill="#000000" fill-rule="evenodd" fill-opacity="1" /><path clip-path="url(#clip7400)" d="M 0 0 M36.4826 1083.53 L36.4826 1078.44 Q43.9942 1073.67 51.1874 1071.31 Q58.3806 1068.93 65.4784 1068.93 Q72.608 1068.93 79.8331 1071.31 Q87.0582 1073.67 94.5379 1078.44 L94.5379 1083.53 Q87.2491 1079.3 80.0559 1077.23 Q72.8308 1075.13 65.4784 1075.13 Q58.126 1075.13 50.9646 1077.23 Q43.8032 1079.3 36.4826 1083.53 Z" fill="#000000" fill-rule="evenodd" fill-opacity="1" /><polyline clip-path="url(#clip7402)" style="stroke:#009af9; stroke-width:16; stroke-opacity:1; fill:none" points="
  292.779,2033.12 304.066,2033.12 315.353,2033.19 326.64,2054.5 337.927,2077.81 349.215,2056.46 360.502,1964.4 371.789,1811.56 383.076,1636.74 394.363,1471.59 
  405.65,1330.2 416.937,1214.89 428.224,1120.72 439.511,1044.37 450.798,980.845 462.086,928.297 473.373,883.778 484.66,846.317 495.947,814.321 507.234,787.039 
  518.521,763.716 529.808,743.59 541.095,726.448 552.382,711.505 563.67,698.913 574.957,687.941 586.244,678.975 597.531,671.402 608.818,665.713 620.105,661.447 
  631.392,659.057 642.679,658.25 653.966,659.302 665.254,662.127 676.541,666.703 687.828,673.221 699.115,681.253 710.402,691.363 721.689,702.623 732.976,716.086 
  744.263,730.22 755.55,746.702 766.838,763.284 778.125,782.405 789.412,800.977 800.699,822.353 811.986,842.456 823.273,865.724 834.56,886.924 845.847,911.753 
  857.134,933.645 868.422,959.744 879.709,981.957 890.996,1009.07 902.283,1031.27 913.57,1059.17 924.857,1081.05 936.144,1109.52 947.431,1130.82 958.718,1159.66 
  970.005,1180.18 981.293,1209.19 992.58,1228.85 1003.87,1257.84 1015.15,1276.78 1026.44,1305.7 1037.73,1324.55 1049.02,1353.78 1060.3,1364.36 1071.59,1385.12 
  1082.88,1397.68 1094.16,1417.45 1105.45,1430.17 1116.74,1448.06 1128.03,1460.29 1139.31,1476.26 1150.6,1487.81 1161.89,1502.05 1173.17,1512.87 1184.46,1525.63 
  1195.75,1535.76 1207.03,1547.31 1218.32,1556.8 1229.61,1567.35 1240.9,1576.29 1252.18,1586.03 1263.47,1594.51 1274.76,1603.59 1286.04,1611.68 1297.33,1620.25 
  1308.62,1628.03 1319.91,1636.19 1331.19,1643.72 1342.48,1651.57 1353.77,1658.89 1365.05,1666.5 1376.34,1673.67 1387.63,1681.09 1398.92,1688.14 1410.2,1695.4 
  1421.49,1702.35 1432.78,1709.48 1444.06,1716.35 1455.35,1723.36 1466.64,1730.15 1477.93,1737.06 1489.21,1743.77 1500.5,1750.56 1511.79,1757.18 1523.07,1763.85 
  1534.36,1770.36 1545.65,1776.9 1556.94,1783.29 1568.22,1789.68 1579.51,1795.93 1590.8,1802.16 1602.08,1808.24 1613.37,1814.28 1624.66,1820.18 1635.94,1826.02 
  1647.23,1831.71 1658.52,1837.32 1669.81,1842.79 1681.09,1848.16 1692.38,1853.39 1703.67,1858.5 1714.95,1863.47 1726.24,1868.31 1737.53,1873.01 1748.82,1877.57 
  1760.1,1881.99 1771.39,1886.26 1782.68,1890.4 1793.96,1894.38 1805.25,1898.22 1816.54,1901.91 1827.83,1905.47 1839.11,1908.87 1850.4,1912.15 1861.69,1915.26 
  1872.97,1918.26 1884.26,1921.1 1895.55,1923.82 1906.84,1926.4 1918.12,1928.87 1929.41,1931.19 1940.7,1933.42 1951.98,1935.5 1963.27,1937.51 1974.56,1939.38 
  1985.85,1941.17 1997.13,1942.84 2008.42,1944.45 2019.71,1945.94 2030.99,1947.39 2042.28,1948.73 2053.57,1950.04 2064.86,1951.25 2076.14,1952.44 2087.43,1953.54 
  2098.72,1954.65 2110,1955.68 2121.29,1956.72 2132.58,1957.69 2143.86,1958.7 2155.15,1959.65 2166.44,1960.66 2177.73,1961.61 2189.01,1962.64 2200.3,1963.62 
  2211.59,1964.71 2222.87,1965.73 2234.16,1966.91 2245.45,1968.01 2256.74,1969.3 2268.02,1970.49 2279.31,1971.94 2290.6,1973.23 2301.88,1974.86 2313.17,1976.27 
  2324.46,1978.12 2335.75,1979.64 2347.03,1981.76 2358.32,1983.38 2369.61,1985.79 2380.89,1987.51 2392.18,1990.26 2403.47,1992.04 2414.76,1995.17 2426.04,1996.98 
  2437.33,2000.52 2448.62,2002.31 2459.9,2006.29 2471.19,2007.99 2482.48,2012.43 2493.77,2013.97 2505.05,2018.85 2516.34,2020.12 2527.63,2025.33 2538.91,2026.18 
  2550.2,2031.45 
  "/>
<polyline clip-path="url(#clip7402)" style="stroke:#e26f46; stroke-width:16; stroke-opacity:1; fill:none" points="
  292.779,2033.12 304.066,2063.4 315.353,1881.89 326.64,998.378 337.927,292.247 349.215,189.727 360.502,248.547 371.789,374.378 383.076,443.038 394.363,507.908 
  405.65,525.592 416.937,547.414 428.224,540.553 439.511,543.779 450.798,529.109 462.086,526.297 473.373,512.045 484.66,509.486 495.947,499.818 507.234,500.89 
  518.521,497.912 529.808,504.365 541.095,508.823 552.382,521.197 563.67,532.753 574.957,550.638 586.244,568.211 597.531,590.617 608.818,612.81 620.105,638.575 
  631.392,664.042 642.679,692.101 653.966,719.725 665.254,749.213 676.541,778.131 687.828,808.387 699.115,837.954 710.402,868.485 721.689,898.229 732.976,928.674 
  744.263,958.249 755.55,988.351 766.838,1017.5 778.125,1047.08 789.412,1075.63 800.699,1104.54 811.986,1132.36 823.273,1160.52 834.56,1187.49 845.847,1214.83 
  857.134,1240.88 868.422,1267.35 879.709,1292.4 890.996,1317.94 902.283,1341.93 913.57,1366.48 924.857,1389.35 936.144,1412.86 947.431,1434.54 958.718,1456.94 
  970.005,1477.37 981.293,1498.61 992.58,1517.77 1003.87,1537.78 1015.15,1555.68 1026.44,1574.42 1037.73,1591.05 1049.02,1608.13 1060.3,1619.45 1071.59,1631.75 
  1082.88,1642.41 1094.16,1653.74 1105.45,1663.45 1116.74,1673.53 1128.03,1682.18 1139.31,1691.05 1150.6,1698.74 1161.89,1706.55 1173.17,1713.41 1184.46,1720.34 
  1195.75,1726.52 1207.03,1732.75 1218.32,1738.38 1229.61,1744.06 1240.9,1749.27 1252.18,1754.53 1263.47,1759.42 1274.76,1764.36 1286.04,1769.01 1297.33,1773.72 
  1308.62,1778.22 1319.91,1782.77 1331.19,1787.16 1342.48,1791.6 1353.77,1795.93 1365.05,1800.31 1376.34,1804.6 1387.63,1808.94 1398.92,1813.22 1410.2,1817.55 
  1421.49,1821.82 1432.78,1826.14 1444.06,1830.42 1455.35,1834.74 1466.64,1839.02 1477.93,1843.32 1489.21,1847.59 1500.5,1851.88 1511.79,1856.14 1523.07,1860.4 
  1534.36,1864.62 1545.65,1868.83 1556.94,1873 1568.22,1877.15 1579.51,1881.24 1590.8,1885.31 1602.08,1889.32 1613.37,1893.28 1624.66,1897.18 1635.94,1901.01 
  1647.23,1904.78 1658.52,1908.48 1669.81,1912.09 1681.09,1915.63 1692.38,1919.08 1703.67,1922.44 1714.95,1925.71 1726.24,1928.87 1737.53,1931.95 1748.82,1934.91 
  1760.1,1937.78 1771.39,1940.53 1782.68,1943.19 1793.96,1945.72 1805.25,1948.15 1816.54,1950.46 1827.83,1952.68 1839.11,1954.76 1850.4,1956.76 1861.69,1958.63 
  1872.97,1960.41 1884.26,1962.06 1895.55,1963.63 1906.84,1965.07 1918.12,1966.44 1929.41,1967.68 1940.7,1968.87 1951.98,1969.93 1963.27,1970.94 1974.56,1971.82 
  1985.85,1972.68 1997.13,1973.41 2008.42,1974.12 2019.71,1974.72 2030.99,1975.32 2042.28,1975.8 2053.57,1976.3 2064.86,1976.69 2076.14,1977.11 2087.43,1977.43 
  2098.72,1977.8 2110,1978.08 2121.29,1978.42 2132.58,1978.67 2143.86,1979.02 2155.15,1979.27 2166.44,1979.64 2177.73,1979.91 2189.01,1980.34 2200.3,1980.65 
  2211.59,1981.17 2222.87,1981.54 2234.16,1982.17 2245.45,1982.63 2256.74,1983.4 2268.02,1983.95 2279.31,1984.9 2290.6,1985.56 2301.88,1986.72 2313.17,1987.48 
  2324.46,1988.89 2335.75,1989.76 2347.03,1991.45 2358.32,1992.41 2369.61,1994.42 2380.89,1995.46 2392.18,1997.83 2403.47,1998.91 2414.76,2001.68 2426.04,2002.76 
  2437.33,2005.97 2448.62,2006.99 2459.9,2010.68 2471.19,2011.57 2482.48,2015.76 2493.77,2016.44 2505.05,2021.11 2516.34,2021.49 2527.63,2026.54 2538.91,2026.48 
  2550.2,2031.64 
  "/>
<polyline clip-path="url(#clip7402)" style="stroke:#3da44d; stroke-width:16; stroke-opacity:1; fill:none" points="
  292.779,2033.12 304.066,2033.12 315.353,2035.3 326.64,1976.37 337.927,1854.93 349.215,1711.65 360.502,1589.25 371.789,1495.11 383.076,1414.57 394.363,1338.53 
  405.65,1263.66 416.937,1192.74 428.224,1127.41 439.511,1069.21 450.798,1017.99 462.086,973.378 473.373,934.684 484.66,901.066 495.947,872.053 507.234,846.756 
  518.521,825.019 529.808,805.953 541.095,789.66 552.382,775.277 563.67,763.116 574.957,752.393 586.244,743.574 597.531,736 608.818,730.199 620.105,725.667 
  631.392,722.879 642.679,721.499 653.966,721.838 665.254,723.755 676.541,727.299 687.828,732.575 699.115,739.284 710.402,747.852 721.689,757.552 732.976,769.224 
  744.263,781.629 755.55,796.133 766.838,810.882 778.125,827.895 789.412,844.59 800.699,863.777 811.986,882.008 823.273,903.046 834.56,922.413 845.847,944.999 
  857.134,965.122 868.422,988.986 879.709,1009.51 890.996,1034.41 902.283,1055.01 913.57,1080.73 924.857,1101.09 936.144,1127.43 947.431,1147.31 958.718,1174.07 
  970.005,1193.24 981.293,1220.22 992.58,1238.58 1003.87,1265.6 1015.15,1283.23 1026.44,1310.16 1037.73,1327.5 1049.02,1354.42 1060.3,1364.72 1071.59,1384.37 
  1082.88,1396.08 1094.16,1414.64 1105.45,1426.45 1116.74,1443.29 1128.03,1454.69 1139.31,1469.79 1150.6,1480.62 1161.89,1494.18 1173.17,1504.4 1184.46,1516.66 
  1195.75,1526.32 1207.03,1537.52 1218.32,1546.67 1229.61,1557.01 1240.9,1565.72 1252.18,1575.37 1263.47,1583.72 1274.76,1592.82 1286.04,1600.88 1297.33,1609.54 
  1308.62,1617.37 1319.91,1625.69 1331.19,1633.34 1342.48,1641.4 1353.77,1648.9 1365.05,1656.76 1376.34,1664.15 1387.63,1671.85 1398.92,1679.15 1410.2,1686.71 
  1421.49,1693.93 1432.78,1701.37 1444.06,1708.52 1455.35,1715.85 1466.64,1722.93 1477.93,1730.14 1489.21,1737.13 1500.5,1744.22 1511.79,1751.12 1523.07,1758.07 
  1534.36,1764.85 1545.65,1771.66 1556.94,1778.3 1568.22,1784.94 1579.51,1791.42 1590.8,1797.88 1602.08,1804.18 1613.37,1810.43 1624.66,1816.52 1635.94,1822.55 
  1647.23,1828.41 1658.52,1834.19 1669.81,1839.82 1681.09,1845.33 1692.38,1850.69 1703.67,1855.93 1714.95,1861.02 1726.24,1865.97 1737.53,1870.77 1748.82,1875.42 
  1760.1,1879.92 1771.39,1884.27 1782.68,1888.47 1793.96,1892.52 1805.25,1896.42 1816.54,1900.16 1827.83,1903.76 1839.11,1907.2 1850.4,1910.5 1861.69,1913.64 
  1872.97,1916.66 1884.26,1919.52 1895.55,1922.26 1906.84,1924.85 1918.12,1927.33 1929.41,1929.65 1940.7,1931.89 1951.98,1933.97 1963.27,1935.97 1974.56,1937.83 
  1985.85,1939.63 1997.13,1941.29 2008.42,1942.89 2019.71,1944.37 2030.99,1945.81 2042.28,1947.14 2053.57,1948.43 2064.86,1949.63 2076.14,1950.81 2087.43,1951.91 
  2098.72,1953 2110,1954.02 2121.29,1955.06 2132.58,1956.02 2143.86,1957.03 2155.15,1957.97 2166.44,1958.98 2177.73,1959.92 2189.01,1960.96 2200.3,1961.93 
  2211.59,1963.03 2222.87,1964.06 2234.16,1965.25 2245.45,1966.36 2256.74,1967.67 2268.02,1968.87 2279.31,1970.35 2290.6,1971.66 2301.88,1973.33 2313.17,1974.75 
  2324.46,1976.66 2335.75,1978.2 2347.03,1980.37 2358.32,1982.03 2369.61,1984.51 2380.89,1986.26 2392.18,1989.09 2403.47,1990.91 2414.76,1994.13 2426.04,1995.98 
  2437.33,1999.63 2448.62,2001.45 2459.9,2005.56 2471.19,2007.29 2482.48,2011.87 2493.77,2013.43 2505.05,2018.47 2516.34,2019.75 2527.63,2025.13 2538.91,2025.97 
  2550.2,2031.4 
  "/>
<polyline clip-path="url(#clip7402)" style="stroke:#c271d2; stroke-width:16; stroke-opacity:1; fill:none" points="
  292.779,2033.12 304.066,2059.38 315.353,1911.86 326.64,1066.96 337.927,439.431 349.215,337.311 360.502,362.177 371.789,437.599 383.076,464.397 394.363,492.249 
  405.65,484.402 416.937,482.775 428.224,461.398 439.511,447.306 450.798,423.193 462.086,405.108 473.373,383.958 484.66,367.443 495.947,353.127 507.234,342.331 
  518.521,337.251 529.808,334.706 541.095,339.518 552.382,345.88 563.67,359.626 574.957,374.025 586.244,394.853 597.531,415.69 608.818,441.665 620.105,467.309 
  631.392,496.845 642.679,525.935 653.966,557.858 665.254,589.331 676.541,622.769 687.828,655.798 699.115,690.088 710.402,724.022 721.689,758.642 732.976,792.969 
  744.263,827.503 755.55,861.824 766.838,895.946 778.125,929.95 789.412,963.399 800.699,996.848 811.986,1029.42 823.273,1062.13 834.56,1093.66 845.847,1125.49 
  857.134,1155.84 868.422,1186.67 879.709,1215.73 890.996,1245.45 902.283,1273.13 913.57,1301.65 924.857,1327.84 936.144,1355.07 947.431,1379.72 958.718,1405.57 
  970.005,1428.61 981.293,1453.02 992.58,1474.46 1003.87,1497.41 1015.15,1517.44 1026.44,1539.17 1037.73,1558.49 1049.02,1580.15 1060.3,1591.18 1071.59,1604.95 
  1082.88,1616.91 1094.16,1630.08 1105.45,1641.18 1116.74,1652.89 1128.03,1662.78 1139.31,1673.01 1150.6,1681.74 1161.89,1690.65 1173.17,1698.39 1184.46,1706.21 
  1195.75,1713.11 1207.03,1720.05 1218.32,1726.28 1229.61,1732.52 1240.9,1738.23 1252.18,1743.94 1263.47,1749.23 1274.76,1754.54 1286.04,1759.54 1297.33,1764.55 
  1308.62,1769.33 1319.91,1774.13 1331.19,1778.77 1342.48,1783.43 1353.77,1787.97 1365.05,1792.55 1376.34,1797.03 1387.63,1801.56 1398.92,1806.01 1410.2,1810.51 
  1421.49,1814.95 1432.78,1819.44 1444.06,1823.88 1455.35,1828.36 1466.64,1832.8 1477.93,1837.27 1489.21,1841.71 1500.5,1846.17 1511.79,1850.59 1523.07,1855.02 
  1534.36,1859.41 1545.65,1863.8 1556.94,1868.14 1568.22,1872.47 1579.51,1876.75 1590.8,1881 1602.08,1885.2 1613.37,1889.36 1624.66,1893.45 1635.94,1897.49 
  1647.23,1901.46 1658.52,1905.36 1669.81,1909.19 1681.09,1912.94 1692.38,1916.61 1703.67,1920.2 1714.95,1923.69 1726.24,1927.09 1737.53,1930.4 1748.82,1933.6 
  1760.1,1936.71 1771.39,1939.71 1782.68,1942.62 1793.96,1945.41 1805.25,1948.1 1816.54,1950.68 1827.83,1953.16 1839.11,1955.52 1850.4,1957.78 1861.69,1959.93 
  1872.97,1961.99 1884.26,1963.93 1895.55,1965.79 1906.84,1967.53 1918.12,1969.18 1929.41,1970.73 1940.7,1972.2 1951.98,1973.57 1963.27,1974.87 1974.56,1976.08 
  1985.85,1977.22 1997.13,1978.27 2008.42,1979.27 2019.71,1980.19 2030.99,1981.06 2042.28,1981.87 2053.57,1982.63 2064.86,1983.35 2076.14,1984.02 2087.43,1984.66 
  2098.72,1985.26 2110,1985.84 2121.29,1986.39 2132.58,1986.95 2143.86,1987.46 2155.15,1988.01 2166.44,1988.51 2177.73,1989.07 2189.01,1989.58 2200.3,1990.17 
  2211.59,1990.71 2222.87,1991.35 2234.16,1991.94 2245.45,1992.64 2256.74,1993.3 2268.02,1994.08 2279.31,1994.82 2290.6,1995.71 2301.88,1996.55 2313.17,1997.55 
  2324.46,1998.51 2335.75,1999.62 2347.03,2000.73 2358.32,2001.95 2369.61,2003.21 2380.89,2004.55 2392.18,2005.99 2403.47,2007.43 2414.76,2009.06 2426.04,2010.59 
  2437.33,2012.42 2448.62,2014.01 2459.9,2016.05 2471.19,2017.68 2482.48,2019.93 2493.77,2021.55 2505.05,2023.99 2516.34,2025.54 2527.63,2028.09 2538.91,2029.48 
  2550.2,2031.97 
  "/>
<polyline clip-path="url(#clip7402)" style="stroke:#ac8d18; stroke-width:16; stroke-opacity:1; fill:none" points="
  292.779,2033.12 304.066,2146.22 315.353,2116.96 326.64,2022.44 337.927,1956.75 349.215,1921.48 360.502,1884.98 371.789,1827.86 383.076,1751.83 394.363,1658.92 
  405.65,1557.2 416.937,1449.18 428.224,1340.33 439.511,1231.52 450.798,1126.05 462.086,1024.04 473.373,927.532 484.66,836.485 495.947,752.252 507.234,674.741 
  518.521,604.852 529.808,542.388 541.095,487.868 552.382,440.911 563.67,401.705 574.957,369.693 586.244,344.816 597.531,326.422 608.818,314.306 620.105,307.814 
  631.392,306.669 642.679,310.276 653.966,318.325 665.254,330.303 676.541,345.889 687.828,364.651 699.115,386.272 710.402,410.396 721.689,436.718 732.976,464.95 
  744.263,494.806 755.55,526.059 766.838,558.448 778.125,591.797 789.412,625.875 800.699,660.547 811.986,695.613 823.273,730.971 834.56,766.453 845.847,801.982 
  857.134,837.42 868.422,872.709 879.709,907.742 890.996,942.467 902.283,976.815 913.57,1010.73 924.857,1044.19 936.144,1077.12 947.431,1109.53 958.718,1141.36 
  970.005,1172.65 981.293,1203.31 992.58,1233.47 1003.87,1263 1015.15,1292.12 1026.44,1320.71 1037.73,1349.11 1049.02,1377.26 1060.3,1395.88 1071.59,1414.45 
  1082.88,1433.13 1094.16,1451.45 1105.45,1469.65 1116.74,1487.37 1128.03,1504.86 1139.31,1521.84 1150.6,1538.57 1161.89,1554.79 1173.17,1570.75 1184.46,1586.22 
  1195.75,1601.44 1207.03,1616.2 1218.32,1630.7 1229.61,1644.77 1240.9,1658.57 1252.18,1671.98 1263.47,1685.11 1274.76,1697.87 1286.04,1710.35 1297.33,1722.46 
  1308.62,1734.3 1319.91,1745.79 1331.19,1756.99 1342.48,1767.84 1353.77,1778.4 1365.05,1788.62 1376.34,1798.55 1387.63,1808.13 1398.92,1817.41 1410.2,1826.35 
  1421.49,1834.98 1432.78,1843.26 1444.06,1851.23 1455.35,1858.86 1466.64,1866.16 1477.93,1873.13 1489.21,1879.76 1500.5,1886.05 1511.79,1892.02 1523.07,1897.65 
  1534.36,1902.94 1545.65,1907.91 1556.94,1912.55 1568.22,1916.87 1579.51,1920.87 1590.8,1924.55 1602.08,1927.93 1613.37,1931.01 1624.66,1933.79 1635.94,1936.29 
  1647.23,1938.51 1658.52,1940.47 1669.81,1942.16 1681.09,1943.62 1692.38,1944.83 1703.67,1945.83 1714.95,1946.61 1726.24,1947.2 1737.53,1947.61 1748.82,1947.84 
  1760.1,1947.91 1771.39,1947.84 1782.68,1947.65 1793.96,1947.33 1805.25,1946.91 1816.54,1946.41 1827.83,1945.83 1839.11,1945.19 1850.4,1944.5 1861.69,1943.77 
  1872.97,1943.03 1884.26,1942.27 1895.55,1941.52 1906.84,1940.78 1918.12,1940.06 1929.41,1939.38 1940.7,1938.74 1951.98,1938.16 1963.27,1937.64 1974.56,1937.19 
  1985.85,1936.82 1997.13,1936.54 2008.42,1936.34 2019.71,1936.25 2030.99,1936.26 2042.28,1936.37 2053.57,1936.59 2064.86,1936.93 2076.14,1937.38 2087.43,1937.95 
  2098.72,1938.64 2110,1939.45 2121.29,1940.37 2132.58,1941.41 2143.86,1942.57 2155.15,1943.84 2166.44,1945.22 2177.73,1946.71 2189.01,1948.31 2200.3,1950.01 
  2211.59,1951.8 2222.87,1953.7 2234.16,1955.67 2245.45,1957.75 2256.74,1959.88 2268.02,1962.11 2279.31,1964.39 2290.6,1966.76 2301.88,1969.16 2313.17,1971.65 
  2324.46,1974.16 2335.75,1976.75 2347.03,1979.34 2358.32,1982.01 2369.61,1984.66 2380.89,1987.4 2392.18,1990.1 2403.47,1992.89 2414.76,1995.62 2426.04,1998.46 
  2437.33,2001.21 2448.62,2004.08 2459.9,2006.84 2471.19,2009.73 2482.48,2012.48 2493.77,2015.38 2505.05,2018.1 2516.34,2020.96 2527.63,2023.58 2538.91,2026.31 
  2550.2,2028.66 
  "/>
<path clip-path="url(#clip7400)" d="
M2713.92 625.432 L3184.76 625.432 L3184.76 262.552 L2713.92 262.552  Z
  " fill="#ffffff" fill-rule="evenodd" fill-opacity="1"/>
<polyline clip-path="url(#clip7400)" style="stroke:#000000; stroke-width:4; stroke-opacity:1; fill:none" points="
  2713.92,625.432 3184.76,625.432 3184.76,262.552 2713.92,262.552 2713.92,625.432 
  "/>
<polyline clip-path="url(#clip7400)" style="stroke:#009af9; stroke-width:16; stroke-opacity:1; fill:none" points="
  2745.92,323.032 2937.92,323.032 
  "/>
<path clip-path="url(#clip7400)" d="M 0 0 M2991.95 303.633 Q2984.95 303.633 2980.81 308.853 Q2976.7 314.072 2976.7 323.08 Q2976.7 332.056 2980.81 337.275 Q2984.95 342.495 2991.95 342.495 Q2998.95 342.495 3003.03 337.275 Q3007.13 332.056 3007.13 323.08 Q3007.13 314.072 3003.03 308.853 Q2998.95 303.633 2991.95 303.633 M3000.96 345.933 L3009.42 355.195 L3001.66 355.195 L2994.62 347.588 Q2993.57 347.651 2993 347.683 Q2992.46 347.715 2991.95 347.715 Q2981.92 347.715 2975.91 341.031 Q2969.92 334.315 2969.92 323.08 Q2969.92 311.813 2975.91 305.129 Q2981.92 298.413 2991.95 298.413 Q3001.94 298.413 3007.93 305.129 Q3013.91 311.813 3013.91 323.08 Q3013.91 331.355 3010.57 337.244 Q3007.26 343.132 3000.96 345.933 Z" fill="#000000" fill-rule="evenodd" fill-opacity="1" /><path clip-path="url(#clip7400)" d="M 0 0 M3019.45 332.724 L3019.45 311.144 L3025.31 311.144 L3025.31 332.501 Q3025.31 337.562 3027.28 340.108 Q3029.25 342.623 3033.2 342.623 Q3037.94 342.623 3040.68 339.599 Q3043.45 336.575 3043.45 331.355 L3043.45 311.144 L3049.3 311.144 L3049.3 346.792 L3043.45 346.792 L3043.45 341.318 Q3041.31 344.564 3038.48 346.156 Q3035.68 347.715 3031.96 347.715 Q3025.81 347.715 3022.63 343.896 Q3019.45 340.076 3019.45 332.724 M3034.19 310.285 L3034.19 310.285 Z" fill="#000000" fill-rule="evenodd" fill-opacity="1" /><path clip-path="url(#clip7400)" d="M 0 0 M3071.65 328.873 Q3064.55 328.873 3061.81 330.496 Q3059.08 332.119 3059.08 336.034 Q3059.08 339.153 3061.11 340.999 Q3063.18 342.814 3066.71 342.814 Q3071.58 342.814 3074.51 339.376 Q3077.47 335.907 3077.47 330.178 L3077.47 328.873 L3071.65 328.873 M3083.33 326.454 L3083.33 346.792 L3077.47 346.792 L3077.47 341.381 Q3075.47 344.628 3072.47 346.187 Q3069.48 347.715 3065.15 347.715 Q3059.68 347.715 3056.43 344.66 Q3053.22 341.572 3053.22 336.416 Q3053.22 330.4 3057.23 327.345 Q3061.27 324.289 3069.26 324.289 L3077.47 324.289 L3077.47 323.716 Q3077.47 319.674 3074.8 317.478 Q3072.16 315.25 3067.35 315.25 Q3064.29 315.25 3061.4 315.982 Q3058.5 316.714 3055.83 318.178 L3055.83 312.767 Q3059.04 311.526 3062.07 310.921 Q3065.09 310.285 3067.96 310.285 Q3075.69 310.285 3079.51 314.295 Q3083.33 318.306 3083.33 326.454 Z" fill="#000000" fill-rule="evenodd" fill-opacity="1" /><path clip-path="url(#clip7400)" d="M 0 0 M3112.93 316.555 L3112.93 297.267 L3118.79 297.267 L3118.79 346.792 L3112.93 346.792 L3112.93 341.445 Q3111.08 344.628 3108.25 346.187 Q3105.45 347.715 3101.5 347.715 Q3095.04 347.715 3090.97 342.559 Q3086.93 337.403 3086.93 329 Q3086.93 320.597 3090.97 315.441 Q3095.04 310.285 3101.5 310.285 Q3105.45 310.285 3108.25 311.844 Q3111.08 313.372 3112.93 316.555 M3092.97 329 Q3092.97 335.461 3095.61 339.153 Q3098.29 342.814 3102.93 342.814 Q3107.58 342.814 3110.26 339.153 Q3112.93 335.461 3112.93 329 Q3112.93 322.539 3110.26 318.879 Q3107.58 315.186 3102.93 315.186 Q3098.29 315.186 3095.61 318.879 Q3092.97 322.539 3092.97 329 Z" fill="#000000" fill-rule="evenodd" fill-opacity="1" /><path clip-path="url(#clip7400)" d="M 0 0 M3147.59 341.381 L3158.09 341.381 L3158.09 305.129 L3146.67 307.42 L3146.67 301.564 L3158.03 299.272 L3164.46 299.272 L3164.46 341.381 L3174.96 341.381 L3174.96 346.792 L3147.59 346.792 L3147.59 341.381 Z" fill="#000000" fill-rule="evenodd" fill-opacity="1" /><polyline clip-path="url(#clip7400)" style="stroke:#e26f46; stroke-width:16; stroke-opacity:1; fill:none" points="
  2745.92,383.512 2937.92,383.512 
  "/>
<path clip-path="url(#clip7400)" d="M 0 0 M2991.95 364.113 Q2984.95 364.113 2980.81 369.333 Q2976.7 374.552 2976.7 383.56 Q2976.7 392.536 2980.81 397.755 Q2984.95 402.975 2991.95 402.975 Q2998.95 402.975 3003.03 397.755 Q3007.13 392.536 3007.13 383.56 Q3007.13 374.552 3003.03 369.333 Q2998.95 364.113 2991.95 364.113 M3000.96 406.413 L3009.42 415.675 L3001.66 415.675 L2994.62 408.068 Q2993.57 408.131 2993 408.163 Q2992.46 408.195 2991.95 408.195 Q2981.92 408.195 2975.91 401.511 Q2969.92 394.795 2969.92 383.56 Q2969.92 372.293 2975.91 365.609 Q2981.92 358.893 2991.95 358.893 Q3001.94 358.893 3007.93 365.609 Q3013.91 372.293 3013.91 383.56 Q3013.91 391.835 3010.57 397.724 Q3007.26 403.612 3000.96 406.413 Z" fill="#000000" fill-rule="evenodd" fill-opacity="1" /><path clip-path="url(#clip7400)" d="M 0 0 M3019.45 393.204 L3019.45 371.624 L3025.31 371.624 L3025.31 392.981 Q3025.31 398.042 3027.28 400.588 Q3029.25 403.103 3033.2 403.103 Q3037.94 403.103 3040.68 400.079 Q3043.45 397.055 3043.45 391.835 L3043.45 371.624 L3049.3 371.624 L3049.3 407.272 L3043.45 407.272 L3043.45 401.798 Q3041.31 405.044 3038.48 406.636 Q3035.68 408.195 3031.96 408.195 Q3025.81 408.195 3022.63 404.376 Q3019.45 400.556 3019.45 393.204 M3034.19 370.765 L3034.19 370.765 Z" fill="#000000" fill-rule="evenodd" fill-opacity="1" /><path clip-path="url(#clip7400)" d="M 0 0 M3071.65 389.353 Q3064.55 389.353 3061.81 390.976 Q3059.08 392.599 3059.08 396.514 Q3059.08 399.633 3061.11 401.479 Q3063.18 403.294 3066.71 403.294 Q3071.58 403.294 3074.51 399.856 Q3077.47 396.387 3077.47 390.658 L3077.47 389.353 L3071.65 389.353 M3083.33 386.934 L3083.33 407.272 L3077.47 407.272 L3077.47 401.861 Q3075.47 405.108 3072.47 406.667 Q3069.48 408.195 3065.15 408.195 Q3059.68 408.195 3056.43 405.14 Q3053.22 402.052 3053.22 396.896 Q3053.22 390.88 3057.23 387.825 Q3061.27 384.769 3069.26 384.769 L3077.47 384.769 L3077.47 384.196 Q3077.47 380.154 3074.8 377.958 Q3072.16 375.73 3067.35 375.73 Q3064.29 375.73 3061.4 376.462 Q3058.5 377.194 3055.83 378.658 L3055.83 373.247 Q3059.04 372.006 3062.07 371.401 Q3065.09 370.765 3067.96 370.765 Q3075.69 370.765 3079.51 374.775 Q3083.33 378.786 3083.33 386.934 Z" fill="#000000" fill-rule="evenodd" fill-opacity="1" /><path clip-path="url(#clip7400)" d="M 0 0 M3112.93 377.035 L3112.93 357.747 L3118.79 357.747 L3118.79 407.272 L3112.93 407.272 L3112.93 401.925 Q3111.08 405.108 3108.25 406.667 Q3105.45 408.195 3101.5 408.195 Q3095.04 408.195 3090.97 403.039 Q3086.93 397.883 3086.93 389.48 Q3086.93 381.077 3090.97 375.921 Q3095.04 370.765 3101.5 370.765 Q3105.45 370.765 3108.25 372.324 Q3111.08 373.852 3112.93 377.035 M3092.97 389.48 Q3092.97 395.941 3095.61 399.633 Q3098.29 403.294 3102.93 403.294 Q3107.58 403.294 3110.26 399.633 Q3112.93 395.941 3112.93 389.48 Q3112.93 383.019 3110.26 379.359 Q3107.58 375.666 3102.93 375.666 Q3098.29 375.666 3095.61 379.359 Q3092.97 383.019 3092.97 389.48 Z" fill="#000000" fill-rule="evenodd" fill-opacity="1" /><path clip-path="url(#clip7400)" d="M 0 0 M3152.01 401.861 L3174.45 401.861 L3174.45 407.272 L3144.28 407.272 L3144.28 401.861 Q3147.94 398.074 3154.24 391.708 Q3160.58 385.31 3162.2 383.464 Q3165.29 379.995 3166.5 377.608 Q3167.74 375.189 3167.74 372.865 Q3167.74 369.078 3165.06 366.691 Q3162.42 364.304 3158.16 364.304 Q3155.13 364.304 3151.76 365.354 Q3148.42 366.404 3144.6 368.537 L3144.6 362.044 Q3148.48 360.484 3151.86 359.688 Q3155.23 358.893 3158.03 358.893 Q3165.41 358.893 3169.81 362.585 Q3174.2 366.277 3174.2 372.452 Q3174.2 375.38 3173.08 378.022 Q3172 380.632 3169.11 384.196 Q3168.31 385.119 3164.05 389.544 Q3159.78 393.936 3152.01 401.861 Z" fill="#000000" fill-rule="evenodd" fill-opacity="1" /><polyline clip-path="url(#clip7400)" style="stroke:#3da44d; stroke-width:16; stroke-opacity:1; fill:none" points="
  2745.92,443.992 2937.92,443.992 
  "/>
<path clip-path="url(#clip7400)" d="M 0 0 M2991.95 424.593 Q2984.95 424.593 2980.81 429.813 Q2976.7 435.032 2976.7 444.04 Q2976.7 453.016 2980.81 458.235 Q2984.95 463.455 2991.95 463.455 Q2998.95 463.455 3003.03 458.235 Q3007.13 453.016 3007.13 444.04 Q3007.13 435.032 3003.03 429.813 Q2998.95 424.593 2991.95 424.593 M3000.96 466.893 L3009.42 476.155 L3001.66 476.155 L2994.62 468.548 Q2993.57 468.611 2993 468.643 Q2992.46 468.675 2991.95 468.675 Q2981.92 468.675 2975.91 461.991 Q2969.92 455.275 2969.92 444.04 Q2969.92 432.773 2975.91 426.089 Q2981.92 419.373 2991.95 419.373 Q3001.94 419.373 3007.93 426.089 Q3013.91 432.773 3013.91 444.04 Q3013.91 452.315 3010.57 458.204 Q3007.26 464.092 3000.96 466.893 Z" fill="#000000" fill-rule="evenodd" fill-opacity="1" /><path clip-path="url(#clip7400)" d="M 0 0 M3019.45 453.684 L3019.45 432.104 L3025.31 432.104 L3025.31 453.461 Q3025.31 458.522 3027.28 461.068 Q3029.25 463.583 3033.2 463.583 Q3037.94 463.583 3040.68 460.559 Q3043.45 457.535 3043.45 452.315 L3043.45 432.104 L3049.3 432.104 L3049.3 467.752 L3043.45 467.752 L3043.45 462.278 Q3041.31 465.524 3038.48 467.116 Q3035.68 468.675 3031.96 468.675 Q3025.81 468.675 3022.63 464.856 Q3019.45 461.036 3019.45 453.684 M3034.19 431.245 L3034.19 431.245 Z" fill="#000000" fill-rule="evenodd" fill-opacity="1" /><path clip-path="url(#clip7400)" d="M 0 0 M3071.65 449.833 Q3064.55 449.833 3061.81 451.456 Q3059.08 453.079 3059.08 456.994 Q3059.08 460.113 3061.11 461.959 Q3063.18 463.774 3066.71 463.774 Q3071.58 463.774 3074.51 460.336 Q3077.47 456.867 3077.47 451.138 L3077.47 449.833 L3071.65 449.833 M3083.33 447.414 L3083.33 467.752 L3077.47 467.752 L3077.47 462.341 Q3075.47 465.588 3072.47 467.147 Q3069.48 468.675 3065.15 468.675 Q3059.68 468.675 3056.43 465.62 Q3053.22 462.532 3053.22 457.376 Q3053.22 451.36 3057.23 448.305 Q3061.27 445.249 3069.26 445.249 L3077.47 445.249 L3077.47 444.676 Q3077.47 440.634 3074.8 438.438 Q3072.16 436.21 3067.35 436.21 Q3064.29 436.21 3061.4 436.942 Q3058.5 437.674 3055.83 439.138 L3055.83 433.727 Q3059.04 432.486 3062.07 431.881 Q3065.09 431.245 3067.96 431.245 Q3075.69 431.245 3079.51 435.255 Q3083.33 439.266 3083.33 447.414 Z" fill="#000000" fill-rule="evenodd" fill-opacity="1" /><path clip-path="url(#clip7400)" d="M 0 0 M3112.93 437.515 L3112.93 418.227 L3118.79 418.227 L3118.79 467.752 L3112.93 467.752 L3112.93 462.405 Q3111.08 465.588 3108.25 467.147 Q3105.45 468.675 3101.5 468.675 Q3095.04 468.675 3090.97 463.519 Q3086.93 458.363 3086.93 449.96 Q3086.93 441.557 3090.97 436.401 Q3095.04 431.245 3101.5 431.245 Q3105.45 431.245 3108.25 432.804 Q3111.08 434.332 3112.93 437.515 M3092.97 449.96 Q3092.97 456.421 3095.61 460.113 Q3098.29 463.774 3102.93 463.774 Q3107.58 463.774 3110.26 460.113 Q3112.93 456.421 3112.93 449.96 Q3112.93 443.499 3110.26 439.839 Q3107.58 436.146 3102.93 436.146 Q3098.29 436.146 3095.61 439.839 Q3092.97 443.499 3092.97 449.96 Z" fill="#000000" fill-rule="evenodd" fill-opacity="1" /><path clip-path="url(#clip7400)" d="M 0 0 M3165.96 442.13 Q3170.57 443.117 3173.15 446.236 Q3175.76 449.355 3175.76 453.939 Q3175.76 460.973 3170.92 464.824 Q3166.08 468.675 3157.17 468.675 Q3154.18 468.675 3151 468.07 Q3147.84 467.497 3144.47 466.32 L3144.47 460.113 Q3147.14 461.673 3150.33 462.469 Q3153.51 463.264 3156.98 463.264 Q3163.03 463.264 3166.18 460.877 Q3169.36 458.49 3169.36 453.939 Q3169.36 449.737 3166.4 447.382 Q3163.47 444.995 3158.22 444.995 L3152.68 444.995 L3152.68 439.711 L3158.48 439.711 Q3163.22 439.711 3165.73 437.833 Q3168.25 435.924 3168.25 432.359 Q3168.25 428.699 3165.64 426.757 Q3163.06 424.784 3158.22 424.784 Q3155.58 424.784 3152.56 425.357 Q3149.53 425.929 3145.9 427.139 L3145.9 421.41 Q3149.56 420.391 3152.75 419.882 Q3155.96 419.373 3158.79 419.373 Q3166.11 419.373 3170.38 422.715 Q3174.64 426.025 3174.64 431.69 Q3174.64 435.637 3172.38 438.374 Q3170.12 441.08 3165.96 442.13 Z" fill="#000000" fill-rule="evenodd" fill-opacity="1" /><polyline clip-path="url(#clip7400)" style="stroke:#c271d2; stroke-width:16; stroke-opacity:1; fill:none" points="
  2745.92,504.472 2937.92,504.472 
  "/>
<path clip-path="url(#clip7400)" d="M 0 0 M2991.95 485.073 Q2984.95 485.073 2980.81 490.293 Q2976.7 495.512 2976.7 504.52 Q2976.7 513.496 2980.81 518.715 Q2984.95 523.935 2991.95 523.935 Q2998.95 523.935 3003.03 518.715 Q3007.13 513.496 3007.13 504.52 Q3007.13 495.512 3003.03 490.293 Q2998.95 485.073 2991.95 485.073 M3000.96 527.373 L3009.42 536.635 L3001.66 536.635 L2994.62 529.028 Q2993.57 529.091 2993 529.123 Q2992.46 529.155 2991.95 529.155 Q2981.92 529.155 2975.91 522.471 Q2969.92 515.755 2969.92 504.52 Q2969.92 493.253 2975.91 486.569 Q2981.92 479.853 2991.95 479.853 Q3001.94 479.853 3007.93 486.569 Q3013.91 493.253 3013.91 504.52 Q3013.91 512.795 3010.57 518.684 Q3007.26 524.572 3000.96 527.373 Z" fill="#000000" fill-rule="evenodd" fill-opacity="1" /><path clip-path="url(#clip7400)" d="M 0 0 M3019.45 514.164 L3019.45 492.584 L3025.31 492.584 L3025.31 513.941 Q3025.31 519.002 3027.28 521.548 Q3029.25 524.063 3033.2 524.063 Q3037.94 524.063 3040.68 521.039 Q3043.45 518.015 3043.45 512.795 L3043.45 492.584 L3049.3 492.584 L3049.3 528.232 L3043.45 528.232 L3043.45 522.758 Q3041.31 526.004 3038.48 527.596 Q3035.68 529.155 3031.96 529.155 Q3025.81 529.155 3022.63 525.336 Q3019.45 521.516 3019.45 514.164 M3034.19 491.725 L3034.19 491.725 Z" fill="#000000" fill-rule="evenodd" fill-opacity="1" /><path clip-path="url(#clip7400)" d="M 0 0 M3071.65 510.313 Q3064.55 510.313 3061.81 511.936 Q3059.08 513.559 3059.08 517.474 Q3059.08 520.593 3061.11 522.439 Q3063.18 524.254 3066.71 524.254 Q3071.58 524.254 3074.51 520.816 Q3077.47 517.347 3077.47 511.618 L3077.47 510.313 L3071.65 510.313 M3083.33 507.894 L3083.33 528.232 L3077.47 528.232 L3077.47 522.821 Q3075.47 526.068 3072.47 527.627 Q3069.48 529.155 3065.15 529.155 Q3059.68 529.155 3056.43 526.1 Q3053.22 523.012 3053.22 517.856 Q3053.22 511.84 3057.23 508.785 Q3061.27 505.729 3069.26 505.729 L3077.47 505.729 L3077.47 505.156 Q3077.47 501.114 3074.8 498.918 Q3072.16 496.69 3067.35 496.69 Q3064.29 496.69 3061.4 497.422 Q3058.5 498.154 3055.83 499.618 L3055.83 494.207 Q3059.04 492.966 3062.07 492.361 Q3065.09 491.725 3067.96 491.725 Q3075.69 491.725 3079.51 495.735 Q3083.33 499.746 3083.33 507.894 Z" fill="#000000" fill-rule="evenodd" fill-opacity="1" /><path clip-path="url(#clip7400)" d="M 0 0 M3112.93 497.995 L3112.93 478.707 L3118.79 478.707 L3118.79 528.232 L3112.93 528.232 L3112.93 522.885 Q3111.08 526.068 3108.25 527.627 Q3105.45 529.155 3101.5 529.155 Q3095.04 529.155 3090.97 523.999 Q3086.93 518.843 3086.93 510.44 Q3086.93 502.037 3090.97 496.881 Q3095.04 491.725 3101.5 491.725 Q3105.45 491.725 3108.25 493.284 Q3111.08 494.812 3112.93 497.995 M3092.97 510.44 Q3092.97 516.901 3095.61 520.593 Q3098.29 524.254 3102.93 524.254 Q3107.58 524.254 3110.26 520.593 Q3112.93 516.901 3112.93 510.44 Q3112.93 503.979 3110.26 500.319 Q3107.58 496.626 3102.93 496.626 Q3098.29 496.626 3095.61 500.319 Q3092.97 503.979 3092.97 510.44 Z" fill="#000000" fill-rule="evenodd" fill-opacity="1" /><path clip-path="url(#clip7400)" d="M 0 0 M3164.14 486.314 L3147.91 511.681 L3164.14 511.681 L3164.14 486.314 M3162.45 480.712 L3170.54 480.712 L3170.54 511.681 L3177.32 511.681 L3177.32 517.028 L3170.54 517.028 L3170.54 528.232 L3164.14 528.232 L3164.14 517.028 L3142.69 517.028 L3142.69 510.822 L3162.45 480.712 Z" fill="#000000" fill-rule="evenodd" fill-opacity="1" /><polyline clip-path="url(#clip7400)" style="stroke:#ac8d18; stroke-width:16; stroke-opacity:1; fill:none" points="
  2745.92,564.952 2937.92,564.952 
  "/>
<path clip-path="url(#clip7400)" d="M 0 0 M2969.92 541.192 L2976.35 541.192 L2976.35 583.301 L2999.49 583.301 L2999.49 588.712 L2969.92 588.712 L2969.92 541.192 Z" fill="#000000" fill-rule="evenodd" fill-opacity="1" /><path clip-path="url(#clip7400)" d="M 0 0 M3018.3 557.17 Q3013.59 557.17 3010.85 560.862 Q3008.12 564.522 3008.12 570.92 Q3008.12 577.318 3010.82 581.01 Q3013.56 584.67 3018.3 584.67 Q3022.98 584.67 3025.72 580.978 Q3028.46 577.286 3028.46 570.92 Q3028.46 564.586 3025.72 560.894 Q3022.98 557.17 3018.3 557.17 M3018.3 552.205 Q3025.94 552.205 3030.3 557.17 Q3034.66 562.135 3034.66 570.92 Q3034.66 579.673 3030.3 584.67 Q3025.94 589.635 3018.3 589.635 Q3010.63 589.635 3006.27 584.67 Q3001.94 579.673 3001.94 570.92 Q3001.94 562.135 3006.27 557.17 Q3010.63 552.205 3018.3 552.205 Z" fill="#000000" fill-rule="evenodd" fill-opacity="1" /><path clip-path="url(#clip7400)" d="M 0 0 M3057.01 570.793 Q3049.91 570.793 3047.17 572.416 Q3044.43 574.039 3044.43 577.954 Q3044.43 581.073 3046.47 582.919 Q3048.54 584.734 3052.07 584.734 Q3056.94 584.734 3059.87 581.296 Q3062.83 577.827 3062.83 572.098 L3062.83 570.793 L3057.01 570.793 M3068.69 568.374 L3068.69 588.712 L3062.83 588.712 L3062.83 583.301 Q3060.83 586.548 3057.83 588.107 Q3054.84 589.635 3050.51 589.635 Q3045.04 589.635 3041.79 586.58 Q3038.58 583.492 3038.58 578.336 Q3038.58 572.32 3042.59 569.265 Q3046.63 566.209 3054.62 566.209 L3062.83 566.209 L3062.83 565.636 Q3062.83 561.594 3060.16 559.398 Q3057.52 557.17 3052.71 557.17 Q3049.65 557.17 3046.76 557.902 Q3043.86 558.634 3041.19 560.098 L3041.19 554.687 Q3044.4 553.446 3047.43 552.841 Q3050.45 552.205 3053.31 552.205 Q3061.05 552.205 3064.87 556.215 Q3068.69 560.226 3068.69 568.374 Z" fill="#000000" fill-rule="evenodd" fill-opacity="1" /><path clip-path="url(#clip7400)" d="M 0 0 M3098.29 558.475 L3098.29 539.187 L3104.14 539.187 L3104.14 588.712 L3098.29 588.712 L3098.29 583.365 Q3096.44 586.548 3093.61 588.107 Q3090.81 589.635 3086.86 589.635 Q3080.4 589.635 3076.33 584.479 Q3072.28 579.323 3072.28 570.92 Q3072.28 562.517 3076.33 557.361 Q3080.4 552.205 3086.86 552.205 Q3090.81 552.205 3093.61 553.764 Q3096.44 555.292 3098.29 558.475 M3078.33 570.92 Q3078.33 577.381 3080.97 581.073 Q3083.65 584.734 3088.29 584.734 Q3092.94 584.734 3095.61 581.073 Q3098.29 577.381 3098.29 570.92 Q3098.29 564.459 3095.61 560.799 Q3092.94 557.106 3088.29 557.106 Q3083.65 557.106 3080.97 560.799 Q3078.33 564.459 3078.33 570.92 Z" fill="#000000" fill-rule="evenodd" fill-opacity="1" /></svg>
