<?xml version="1.0" encoding="utf-8"?>
<svg xmlns="http://www.w3.org/2000/svg" xmlns:xlink="http://www.w3.org/1999/xlink" width="800" height="600" viewBox="0 0 3200 2400">
<defs>
  <clipPath id="clip7700">
    <rect x="0" y="0" width="3200" height="2400"/>
  </clipPath>
</defs>
<path clip-path="url(#clip7700)" d="
M0 2400 L3200 2400 L3200 0 L0 0  Z
  " fill="#ffffff" fill-rule="evenodd" fill-opacity="1"/>
<defs>
  <clipPath id="clip7701">
    <rect x="640" y="0" width="2241" height="2241"/>
  </clipPath>
</defs>
<path clip-path="url(#clip7700)" d="
M239.663 2204.92 L2617.92 2204.92 L2617.92 131.032 L239.663 131.032  Z
  " fill="#ffffff" fill-rule="evenodd" fill-opacity="1"/>
<defs>
  <clipPath id="clip7702">
    <rect x="239" y="131" width="2379" height="2075"/>
  </clipPath>
</defs>
<polyline clip-path="url(#clip7702)" style="stroke:#000000; stroke-width:2; stroke-opacity:0.1; fill:none" points="
  306.972,2204.92 306.972,131.032 
  "/>
<polyline clip-path="url(#clip7702)" style="stroke:#000000; stroke-width:2; stroke-opacity:0.1; fill:none" points="
  755.7,2204.92 755.7,131.032 
  "/>
<polyline clip-path="url(#clip7702)" style="stroke:#000000; stroke-width:2; stroke-opacity:0.1; fill:none" points="
  1204.43,2204.92 1204.43,131.032 
  "/>
<polyline clip-path="url(#clip7702)" style="stroke:#000000; stroke-width:2; stroke-opacity:0.1; fill:none" points="
  1653.16,2204.92 1653.16,131.032 
  "/>
<polyline clip-path="url(#clip7702)" style="stroke:#000000; stroke-width:2; stroke-opacity:0.1; fill:none" points="
  2101.89,2204.92 2101.89,131.032 
  "/>
<polyline clip-path="url(#clip7702)" style="stroke:#000000; stroke-width:2; stroke-opacity:0.1; fill:none" points="
  2550.61,2204.92 2550.61,131.032 
  "/>
<polyline clip-path="url(#clip7702)" style="stroke:#000000; stroke-width:2; stroke-opacity:0.1; fill:none" points="
  239.663,1983.73 2617.92,1983.73 
  "/>
<polyline clip-path="url(#clip7702)" style="stroke:#000000; stroke-width:2; stroke-opacity:0.1; fill:none" points="
  239.663,1535.59 2617.92,1535.59 
  "/>
<polyline clip-path="url(#clip7702)" style="stroke:#000000; stroke-width:2; stroke-opacity:0.1; fill:none" points="
  239.663,1087.46 2617.92,1087.46 
  "/>
<polyline clip-path="url(#clip7702)" style="stroke:#000000; stroke-width:2; stroke-opacity:0.1; fill:none" points="
  239.663,639.329 2617.92,639.329 
  "/>
<polyline clip-path="url(#clip7702)" style="stroke:#000000; stroke-width:2; stroke-opacity:0.1; fill:none" points="
  239.663,191.197 2617.92,191.197 
  "/>
<polyline clip-path="url(#clip7700)" style="stroke:#000000; stroke-width:4; stroke-opacity:1; fill:none" points="
  239.663,2204.92 2617.92,2204.92 
  "/>
<polyline clip-path="url(#clip7700)" style="stroke:#000000; stroke-width:4; stroke-opacity:1; fill:none" points="
  239.663,2204.92 239.663,131.032 
  "/>
<polyline clip-path="url(#clip7700)" style="stroke:#000000; stroke-width:4; stroke-opacity:1; fill:none" points="
  306.972,2204.92 306.972,2180.03 
  "/>
<polyline clip-path="url(#clip7700)" style="stroke:#000000; stroke-width:4; stroke-opacity:1; fill:none" points="
  755.7,2204.92 755.7,2180.03 
  "/>
<polyline clip-path="url(#clip7700)" style="stroke:#000000; stroke-width:4; stroke-opacity:1; fill:none" points="
  1204.43,2204.92 1204.43,2180.03 
  "/>
<polyline clip-path="url(#clip7700)" style="stroke:#000000; stroke-width:4; stroke-opacity:1; fill:none" points="
  1653.16,2204.92 1653.16,2180.03 
  "/>
<polyline clip-path="url(#clip7700)" style="stroke:#000000; stroke-width:4; stroke-opacity:1; fill:none" points="
  2101.89,2204.92 2101.89,2180.03 
  "/>
<polyline clip-path="url(#clip7700)" style="stroke:#000000; stroke-width:4; stroke-opacity:1; fill:none" points="
  2550.61,2204.92 2550.61,2180.03 
  "/>
<polyline clip-path="url(#clip7700)" style="stroke:#000000; stroke-width:4; stroke-opacity:1; fill:none" points="
  239.663,1983.73 268.202,1983.73 
  "/>
<polyline clip-path="url(#clip7700)" style="stroke:#000000; stroke-width:4; stroke-opacity:1; fill:none" points="
  239.663,1535.59 268.202,1535.59 
  "/>
<polyline clip-path="url(#clip7700)" style="stroke:#000000; stroke-width:4; stroke-opacity:1; fill:none" points="
  239.663,1087.46 268.202,1087.46 
  "/>
<polyline clip-path="url(#clip7700)" style="stroke:#000000; stroke-width:4; stroke-opacity:1; fill:none" points="
  239.663,639.329 268.202,639.329 
  "/>
<polyline clip-path="url(#clip7700)" style="stroke:#000000; stroke-width:4; stroke-opacity:1; fill:none" points="
  239.663,191.197 268.202,191.197 
  "/>
<path clip-path="url(#clip7700)" d="M 0 0 M306.972 2230.91 Q303.361 2230.91 301.532 2234.48 Q299.727 2238.02 299.727 2245.15 Q299.727 2252.25 301.532 2255.82 Q303.361 2259.36 306.972 2259.36 Q310.606 2259.36 312.412 2255.82 Q314.24 2252.25 314.24 2245.15 Q314.24 2238.02 312.412 2234.48 Q310.606 2230.91 306.972 2230.91 M306.972 2227.21 Q312.782 2227.21 315.838 2231.81 Q318.916 2236.4 318.916 2245.15 Q318.916 2253.87 315.838 2258.48 Q312.782 2263.06 306.972 2263.06 Q301.162 2263.06 298.083 2258.48 Q295.028 2253.87 295.028 2245.15 Q295.028 2236.4 298.083 2231.81 Q301.162 2227.21 306.972 2227.21 Z" fill="#000000" fill-rule="evenodd" fill-opacity="1" /><path clip-path="url(#clip7700)" d="M 0 0 M746.082 2258.46 L753.721 2258.46 L753.721 2232.09 L745.411 2233.76 L745.411 2229.5 L753.675 2227.83 L758.351 2227.83 L758.351 2258.46 L765.99 2258.46 L765.99 2262.39 L746.082 2262.39 L746.082 2258.46 Z" fill="#000000" fill-rule="evenodd" fill-opacity="1" /><path clip-path="url(#clip7700)" d="M 0 0 M1199.08 2258.46 L1215.4 2258.46 L1215.4 2262.39 L1193.46 2262.39 L1193.46 2258.46 Q1196.12 2255.7 1200.7 2251.07 Q1205.31 2246.42 1206.49 2245.08 Q1208.73 2242.55 1209.61 2240.82 Q1210.52 2239.06 1210.52 2237.37 Q1210.52 2234.61 1208.57 2232.88 Q1206.65 2231.14 1203.55 2231.14 Q1201.35 2231.14 1198.9 2231.91 Q1196.47 2232.67 1193.69 2234.22 L1193.69 2229.5 Q1196.51 2228.36 1198.97 2227.79 Q1201.42 2227.21 1203.46 2227.21 Q1208.83 2227.21 1212.02 2229.89 Q1215.22 2232.58 1215.22 2237.07 Q1215.22 2239.2 1214.41 2241.12 Q1213.62 2243.02 1211.51 2245.61 Q1210.93 2246.28 1207.83 2249.5 Q1204.73 2252.69 1199.08 2258.46 Z" fill="#000000" fill-rule="evenodd" fill-opacity="1" /><path clip-path="url(#clip7700)" d="M 0 0 M1657.4 2243.76 Q1660.76 2244.48 1662.64 2246.74 Q1664.53 2249.01 1664.53 2252.35 Q1664.53 2257.46 1661.02 2260.26 Q1657.5 2263.06 1651.02 2263.06 Q1648.84 2263.06 1646.53 2262.62 Q1644.23 2262.21 1641.78 2261.35 L1641.78 2256.84 Q1643.72 2257.97 1646.04 2258.55 Q1648.35 2259.13 1650.88 2259.13 Q1655.28 2259.13 1657.57 2257.39 Q1659.88 2255.66 1659.88 2252.35 Q1659.88 2249.29 1657.73 2247.58 Q1655.6 2245.84 1651.78 2245.84 L1647.75 2245.84 L1647.75 2242 L1651.97 2242 Q1655.41 2242 1657.24 2240.63 Q1659.07 2239.24 1659.07 2236.65 Q1659.07 2233.99 1657.17 2232.58 Q1655.3 2231.14 1651.78 2231.14 Q1649.86 2231.14 1647.66 2231.56 Q1645.46 2231.98 1642.82 2232.85 L1642.82 2228.69 Q1645.48 2227.95 1647.8 2227.58 Q1650.14 2227.21 1652.2 2227.21 Q1657.52 2227.21 1660.62 2229.64 Q1663.72 2232.04 1663.72 2236.17 Q1663.72 2239.04 1662.08 2241.03 Q1660.44 2242.99 1657.4 2243.76 Z" fill="#000000" fill-rule="evenodd" fill-opacity="1" /><path clip-path="url(#clip7700)" d="M 0 0 M2104.89 2231.91 L2093.09 2250.35 L2104.89 2250.35 L2104.89 2231.91 M2103.67 2227.83 L2109.55 2227.83 L2109.55 2250.35 L2114.48 2250.35 L2114.48 2254.24 L2109.55 2254.24 L2109.55 2262.39 L2104.89 2262.39 L2104.89 2254.24 L2089.29 2254.24 L2089.29 2249.73 L2103.67 2227.83 Z" fill="#000000" fill-rule="evenodd" fill-opacity="1" /><path clip-path="url(#clip7700)" d="M 0 0 M2540.89 2227.83 L2559.25 2227.83 L2559.25 2231.77 L2545.17 2231.77 L2545.17 2240.24 Q2546.19 2239.89 2547.21 2239.73 Q2548.23 2239.54 2549.25 2239.54 Q2555.04 2239.54 2558.42 2242.72 Q2561.79 2245.89 2561.79 2251.3 Q2561.79 2256.88 2558.32 2259.98 Q2554.85 2263.06 2548.53 2263.06 Q2546.35 2263.06 2544.09 2262.69 Q2541.84 2262.32 2539.43 2261.58 L2539.43 2256.88 Q2541.52 2258.02 2543.74 2258.57 Q2545.96 2259.13 2548.44 2259.13 Q2552.44 2259.13 2554.78 2257.02 Q2557.12 2254.92 2557.12 2251.3 Q2557.12 2247.69 2554.78 2245.59 Q2552.44 2243.48 2548.44 2243.48 Q2546.56 2243.48 2544.69 2243.9 Q2542.84 2244.31 2540.89 2245.19 L2540.89 2227.83 Z" fill="#000000" fill-rule="evenodd" fill-opacity="1" /><path clip-path="url(#clip7700)" d="M 0 0 M132.2 1986.12 L144.677 1986.12 L144.677 1989.92 L132.2 1989.92 L132.2 1986.12 Z" fill="#000000" fill-rule="evenodd" fill-opacity="1" /><path clip-path="url(#clip7700)" d="M 0 0 M149.793 1966.45 L168.149 1966.45 L168.149 1970.38 L154.075 1970.38 L154.075 1978.85 Q155.094 1978.51 156.112 1978.34 Q157.131 1978.16 158.149 1978.16 Q163.936 1978.16 167.316 1981.33 Q170.695 1984.5 170.695 1989.92 Q170.695 1995.5 167.223 1998.6 Q163.751 2001.68 157.432 2001.68 Q155.256 2001.68 152.987 2001.31 Q150.742 2000.94 148.334 2000.2 L148.334 1995.5 Q150.418 1996.63 152.64 1997.19 Q154.862 1997.74 157.339 1997.74 Q161.344 1997.74 163.681 1995.64 Q166.019 1993.53 166.019 1989.92 Q166.019 1986.31 163.681 1984.2 Q161.344 1982.09 157.339 1982.09 Q155.464 1982.09 153.589 1982.51 Q151.737 1982.93 149.793 1983.81 L149.793 1966.45 Z" fill="#000000" fill-rule="evenodd" fill-opacity="1" /><path clip-path="url(#clip7700)" d="M 0 0 M175.765 1995.13 L180.649 1995.13 L180.649 2001.01 L175.765 2001.01 L175.765 1995.13 Z" fill="#000000" fill-rule="evenodd" fill-opacity="1" /><path clip-path="url(#clip7700)" d="M 0 0 M195.718 1969.53 Q192.107 1969.53 190.279 1973.09 Q188.473 1976.63 188.473 1983.76 Q188.473 1990.87 190.279 1994.43 Q192.107 1997.97 195.718 1997.97 Q199.353 1997.97 201.158 1994.43 Q202.987 1990.87 202.987 1983.76 Q202.987 1976.63 201.158 1973.09 Q199.353 1969.53 195.718 1969.53 M195.718 1965.82 Q201.528 1965.82 204.584 1970.43 Q207.663 1975.01 207.663 1983.76 Q207.663 1992.49 204.584 1997.09 Q201.528 2001.68 195.718 2001.68 Q189.908 2001.68 186.829 1997.09 Q183.774 1992.49 183.774 1983.76 Q183.774 1975.01 186.829 1970.43 Q189.908 1965.82 195.718 1965.82 Z" fill="#000000" fill-rule="evenodd" fill-opacity="1" /><path clip-path="url(#clip7700)" d="M 0 0 M133.797 1537.99 L146.274 1537.99 L146.274 1541.79 L133.797 1541.79 L133.797 1537.99 Z" fill="#000000" fill-rule="evenodd" fill-opacity="1" /><path clip-path="url(#clip7700)" d="M 0 0 M155.371 1548.94 L171.691 1548.94 L171.691 1552.87 L149.746 1552.87 L149.746 1548.94 Q152.408 1546.18 156.992 1541.55 Q161.598 1536.9 162.779 1535.56 Q165.024 1533.04 165.904 1531.3 Q166.806 1529.54 166.806 1527.85 Q166.806 1525.1 164.862 1523.36 Q162.941 1521.62 159.839 1521.62 Q157.64 1521.62 155.186 1522.39 Q152.756 1523.15 149.978 1524.7 L149.978 1519.98 Q152.802 1518.85 155.256 1518.27 Q157.709 1517.69 159.746 1517.69 Q165.117 1517.69 168.311 1520.37 Q171.506 1523.06 171.506 1527.55 Q171.506 1529.68 170.695 1531.6 Q169.908 1533.5 167.802 1536.09 Q167.223 1536.76 164.121 1539.98 Q161.019 1543.17 155.371 1548.94 Z" fill="#000000" fill-rule="evenodd" fill-opacity="1" /><path clip-path="url(#clip7700)" d="M 0 0 M176.76 1546.99 L181.644 1546.99 L181.644 1552.87 L176.76 1552.87 L176.76 1546.99 Z" fill="#000000" fill-rule="evenodd" fill-opacity="1" /><path clip-path="url(#clip7700)" d="M 0 0 M186.76 1518.31 L205.116 1518.31 L205.116 1522.25 L191.042 1522.25 L191.042 1530.72 Q192.061 1530.37 193.079 1530.21 Q194.098 1530.03 195.116 1530.03 Q200.903 1530.03 204.283 1533.2 Q207.663 1536.37 207.663 1541.79 Q207.663 1547.36 204.191 1550.47 Q200.718 1553.55 194.399 1553.55 Q192.223 1553.55 189.954 1553.17 Q187.709 1552.8 185.302 1552.06 L185.302 1547.36 Q187.385 1548.5 189.607 1549.05 Q191.829 1549.61 194.306 1549.61 Q198.311 1549.61 200.649 1547.5 Q202.987 1545.4 202.987 1541.79 Q202.987 1538.18 200.649 1536.07 Q198.311 1533.96 194.306 1533.96 Q192.431 1533.96 190.556 1534.38 Q188.704 1534.8 186.76 1535.68 L186.76 1518.31 Z" fill="#000000" fill-rule="evenodd" fill-opacity="1" /><path clip-path="url(#clip7700)" d="M 0 0 M158.751 1073.26 Q155.14 1073.26 153.311 1076.83 Q151.506 1080.37 151.506 1087.5 Q151.506 1094.6 153.311 1098.17 Q155.14 1101.71 158.751 1101.71 Q162.385 1101.71 164.191 1098.17 Q166.019 1094.6 166.019 1087.5 Q166.019 1080.37 164.191 1076.83 Q162.385 1073.26 158.751 1073.26 M158.751 1069.56 Q164.561 1069.56 167.617 1074.16 Q170.695 1078.75 170.695 1087.5 Q170.695 1096.22 167.617 1100.83 Q164.561 1105.41 158.751 1105.41 Q152.941 1105.41 149.862 1100.83 Q146.807 1096.22 146.807 1087.5 Q146.807 1078.75 149.862 1074.16 Q152.941 1069.56 158.751 1069.56 Z" fill="#000000" fill-rule="evenodd" fill-opacity="1" /><path clip-path="url(#clip7700)" d="M 0 0 M175.765 1098.86 L180.649 1098.86 L180.649 1104.74 L175.765 1104.74 L175.765 1098.86 Z" fill="#000000" fill-rule="evenodd" fill-opacity="1" /><path clip-path="url(#clip7700)" d="M 0 0 M195.718 1073.26 Q192.107 1073.26 190.279 1076.83 Q188.473 1080.37 188.473 1087.5 Q188.473 1094.6 190.279 1098.17 Q192.107 1101.71 195.718 1101.71 Q199.353 1101.71 201.158 1098.17 Q202.987 1094.6 202.987 1087.5 Q202.987 1080.37 201.158 1076.83 Q199.353 1073.26 195.718 1073.26 M195.718 1069.56 Q201.528 1069.56 204.584 1074.16 Q207.663 1078.75 207.663 1087.5 Q207.663 1096.22 204.584 1100.83 Q201.528 1105.41 195.718 1105.41 Q189.908 1105.41 186.829 1100.83 Q183.774 1096.22 183.774 1087.5 Q183.774 1078.75 186.829 1074.16 Q189.908 1069.56 195.718 1069.56 Z" fill="#000000" fill-rule="evenodd" fill-opacity="1" /><path clip-path="url(#clip7700)" d="M 0 0 M155.371 652.674 L171.691 652.674 L171.691 656.609 L149.746 656.609 L149.746 652.674 Q152.408 649.919 156.992 645.29 Q161.598 640.637 162.779 639.294 Q165.024 636.771 165.904 635.035 Q166.806 633.276 166.806 631.586 Q166.806 628.832 164.862 627.095 Q162.941 625.359 159.839 625.359 Q157.64 625.359 155.186 626.123 Q152.756 626.887 149.978 628.438 L149.978 623.716 Q152.802 622.582 155.256 622.003 Q157.709 621.424 159.746 621.424 Q165.117 621.424 168.311 624.109 Q171.506 626.795 171.506 631.285 Q171.506 633.415 170.695 635.336 Q169.908 637.234 167.802 639.827 Q167.223 640.498 164.121 643.716 Q161.019 646.91 155.371 652.674 Z" fill="#000000" fill-rule="evenodd" fill-opacity="1" /><path clip-path="url(#clip7700)" d="M 0 0 M176.76 650.73 L181.644 650.73 L181.644 656.609 L176.76 656.609 L176.76 650.73 Z" fill="#000000" fill-rule="evenodd" fill-opacity="1" /><path clip-path="url(#clip7700)" d="M 0 0 M186.76 622.049 L205.116 622.049 L205.116 625.984 L191.042 625.984 L191.042 634.457 Q192.061 634.109 193.079 633.947 Q194.098 633.762 195.116 633.762 Q200.903 633.762 204.283 636.933 Q207.663 640.105 207.663 645.521 Q207.663 651.1 204.191 654.202 Q200.718 657.28 194.399 657.28 Q192.223 657.28 189.954 656.91 Q187.709 656.54 185.302 655.799 L185.302 651.1 Q187.385 652.234 189.607 652.79 Q191.829 653.345 194.306 653.345 Q198.311 653.345 200.649 651.239 Q202.987 649.132 202.987 645.521 Q202.987 641.91 200.649 639.804 Q198.311 637.697 194.306 637.697 Q192.431 637.697 190.556 638.114 Q188.704 638.531 186.76 639.41 L186.76 622.049 Z" fill="#000000" fill-rule="evenodd" fill-opacity="1" /><path clip-path="url(#clip7700)" d="M 0 0 M149.793 173.917 L168.149 173.917 L168.149 177.852 L154.075 177.852 L154.075 186.324 Q155.094 185.977 156.112 185.815 Q157.131 185.63 158.149 185.63 Q163.936 185.63 167.316 188.801 Q170.695 191.972 170.695 197.389 Q170.695 202.968 167.223 206.069 Q163.751 209.148 157.432 209.148 Q155.256 209.148 152.987 208.778 Q150.742 208.407 148.334 207.667 L148.334 202.968 Q150.418 204.102 152.64 204.657 Q154.862 205.213 157.339 205.213 Q161.344 205.213 163.681 203.106 Q166.019 201 166.019 197.389 Q166.019 193.778 163.681 191.671 Q161.344 189.565 157.339 189.565 Q155.464 189.565 153.589 189.982 Q151.737 190.398 149.793 191.278 L149.793 173.917 Z" fill="#000000" fill-rule="evenodd" fill-opacity="1" /><path clip-path="url(#clip7700)" d="M 0 0 M175.765 202.597 L180.649 202.597 L180.649 208.477 L175.765 208.477 L175.765 202.597 Z" fill="#000000" fill-rule="evenodd" fill-opacity="1" /><path clip-path="url(#clip7700)" d="M 0 0 M195.718 176.995 Q192.107 176.995 190.279 180.56 Q188.473 184.102 188.473 191.232 Q188.473 198.338 190.279 201.903 Q192.107 205.444 195.718 205.444 Q199.353 205.444 201.158 201.903 Q202.987 198.338 202.987 191.232 Q202.987 184.102 201.158 180.56 Q199.353 176.995 195.718 176.995 M195.718 173.292 Q201.528 173.292 204.584 177.898 Q207.663 182.482 207.663 191.232 Q207.663 199.958 204.584 204.565 Q201.528 209.148 195.718 209.148 Q189.908 209.148 186.829 204.565 Q183.774 199.958 183.774 191.232 Q183.774 182.482 186.829 177.898 Q189.908 173.292 195.718 173.292 Z" fill="#000000" fill-rule="evenodd" fill-opacity="1" /><path clip-path="url(#clip7700)" d="M 0 0 M603.401 12.096 L611.584 12.096 L611.584 36.8875 L641.318 36.8875 L641.318 12.096 L649.5 12.096 L649.5 72.576 L641.318 72.576 L641.318 43.7741 L611.584 43.7741 L611.584 72.576 L603.401 72.576 L603.401 12.096 Z" fill="#000000" fill-rule="evenodd" fill-opacity="1" /><path clip-path="url(#clip7700)" d="M 0 0 M674.9 32.4315 Q668.904 32.4315 665.42 37.1306 Q661.937 41.7891 661.937 49.9314 Q661.937 58.0738 665.38 62.7728 Q668.864 67.4314 674.9 67.4314 Q680.854 67.4314 684.338 62.7323 Q687.822 58.0333 687.822 49.9314 Q687.822 41.8701 684.338 37.1711 Q680.854 32.4315 674.9 32.4315 M674.9 26.1121 Q684.622 26.1121 690.171 32.4315 Q695.721 38.7509 695.721 49.9314 Q695.721 61.0714 690.171 67.4314 Q684.622 73.7508 674.9 73.7508 Q665.137 73.7508 659.587 67.4314 Q654.078 61.0714 654.078 49.9314 Q654.078 38.7509 659.587 32.4315 Q665.137 26.1121 674.9 26.1121 Z" fill="#000000" fill-rule="evenodd" fill-opacity="1" /><path clip-path="url(#clip7700)" d="M 0 0 M698.192 27.2059 L706.091 27.2059 L720.27 65.2844 L734.448 27.2059 L742.347 27.2059 L725.333 72.576 L715.206 72.576 L698.192 27.2059 Z" fill="#000000" fill-rule="evenodd" fill-opacity="1" /><path clip-path="url(#clip7700)" d="M 0 0 M788.973 48.0275 L788.973 51.6733 L754.702 51.6733 Q755.188 59.3701 759.32 63.421 Q763.493 67.4314 770.906 67.4314 Q775.2 67.4314 779.21 66.3781 Q783.261 65.3249 787.231 63.2184 L787.231 70.267 Q783.221 71.9684 779.008 72.8596 Q774.795 73.7508 770.46 73.7508 Q759.604 73.7508 753.244 67.4314 Q746.925 61.1119 746.925 50.3365 Q746.925 39.1965 752.92 32.6746 Q758.956 26.1121 769.164 26.1121 Q778.319 26.1121 783.626 32.0264 Q788.973 37.9003 788.973 48.0275 M781.519 45.84 Q781.438 39.7232 778.076 36.0774 Q774.754 32.4315 769.245 32.4315 Q763.007 32.4315 759.239 35.9558 Q755.513 39.4801 754.945 45.8805 L781.519 45.84 Z" fill="#000000" fill-rule="evenodd" fill-opacity="1" /><path clip-path="url(#clip7700)" d="M 0 0 M823.082 34.1734 Q821.826 33.4443 820.327 33.1202 Q818.869 32.7556 817.086 32.7556 Q810.767 32.7556 807.364 36.8875 Q804.002 40.9789 804.002 48.6757 L804.002 72.576 L796.508 72.576 L796.508 27.2059 L804.002 27.2059 L804.002 34.2544 Q806.351 30.1225 810.119 28.1376 Q813.886 26.1121 819.274 26.1121 Q820.043 26.1121 820.975 26.2337 Q821.907 26.3147 823.041 26.5172 L823.082 34.1734 Z" fill="#000000" fill-rule="evenodd" fill-opacity="1" /><path clip-path="url(#clip7700)" d="M 0 0 M830.9 27.2059 L838.354 27.2059 L838.354 72.576 L830.9 72.576 L830.9 27.2059 M830.9 9.54393 L838.354 9.54393 L838.354 18.9825 L830.9 18.9825 L830.9 9.54393 Z" fill="#000000" fill-rule="evenodd" fill-opacity="1" /><path clip-path="url(#clip7700)" d="M 0 0 M883.886 45.1919 L883.886 72.576 L876.432 72.576 L876.432 45.4349 Q876.432 38.994 873.92 35.7938 Q871.409 32.5936 866.386 32.5936 Q860.35 32.5936 856.866 36.4419 Q853.382 40.2903 853.382 46.9338 L853.382 72.576 L845.888 72.576 L845.888 27.2059 L853.382 27.2059 L853.382 34.2544 Q856.056 30.163 859.661 28.1376 Q863.307 26.1121 868.047 26.1121 Q875.865 26.1121 879.875 30.9732 Q883.886 35.7938 883.886 45.1919 Z" fill="#000000" fill-rule="evenodd" fill-opacity="1" /><path clip-path="url(#clip7700)" d="M 0 0 M921.559 49.3643 Q921.559 41.2625 918.197 36.8065 Q914.875 32.3505 908.839 32.3505 Q902.844 32.3505 899.482 36.8065 Q896.16 41.2625 896.16 49.3643 Q896.16 57.4256 899.482 61.8816 Q902.844 66.3376 908.839 66.3376 Q914.875 66.3376 918.197 61.8816 Q921.559 57.4256 921.559 49.3643 M929.013 66.9452 Q929.013 78.5308 923.868 84.1616 Q918.723 89.8329 908.11 89.8329 Q904.181 89.8329 900.697 89.2252 Q897.213 88.6581 893.932 87.4428 L893.932 80.1917 Q897.213 81.9741 900.413 82.8248 Q903.614 83.6755 906.935 83.6755 Q914.267 83.6755 917.913 79.8271 Q921.559 76.0193 921.559 68.282 L921.559 64.5957 Q919.25 68.6061 915.645 70.5911 Q912.039 72.576 907.016 72.576 Q898.671 72.576 893.567 66.2161 Q888.463 59.8562 888.463 49.3643 Q888.463 38.832 893.567 32.472 Q898.671 26.1121 907.016 26.1121 Q912.039 26.1121 915.645 28.0971 Q919.25 30.082 921.559 34.0924 L921.559 27.2059 L929.013 27.2059 L929.013 66.9452 Z" fill="#000000" fill-rule="evenodd" fill-opacity="1" /><path clip-path="url(#clip7700)" d="M 0 0 M958.868 27.2059 L966.322 27.2059 L975.639 62.6108 L984.915 27.2059 L993.706 27.2059 L1003.02 62.6108 L1012.3 27.2059 L1019.75 27.2059 L1007.88 72.576 L999.093 72.576 L989.331 35.3887 L979.528 72.576 L970.737 72.576 L958.868 27.2059 Z" fill="#000000" fill-rule="evenodd" fill-opacity="1" /><path clip-path="url(#clip7700)" d="M 0 0 M1027.57 27.2059 L1035.02 27.2059 L1035.02 72.576 L1027.57 72.576 L1027.57 27.2059 M1027.57 9.54393 L1035.02 9.54393 L1035.02 18.9825 L1027.57 18.9825 L1027.57 9.54393 Z" fill="#000000" fill-rule="evenodd" fill-opacity="1" /><path clip-path="url(#clip7700)" d="M 0 0 M1050.22 14.324 L1050.22 27.2059 L1065.57 27.2059 L1065.57 32.9987 L1050.22 32.9987 L1050.22 57.6282 Q1050.22 63.1779 1051.71 64.7578 Q1053.25 66.3376 1057.91 66.3376 L1065.57 66.3376 L1065.57 72.576 L1057.91 72.576 Q1049.28 72.576 1046 69.3758 Q1042.72 66.1351 1042.72 57.6282 L1042.72 32.9987 L1037.25 32.9987 L1037.25 27.2059 L1042.72 27.2059 L1042.72 14.324 L1050.22 14.324 Z" fill="#000000" fill-rule="evenodd" fill-opacity="1" /><path clip-path="url(#clip7700)" d="M 0 0 M1111.1 45.1919 L1111.1 72.576 L1103.65 72.576 L1103.65 45.4349 Q1103.65 38.994 1101.14 35.7938 Q1098.62 32.5936 1093.6 32.5936 Q1087.57 32.5936 1084.08 36.4419 Q1080.6 40.2903 1080.6 46.9338 L1080.6 72.576 L1073.1 72.576 L1073.1 9.54393 L1080.6 9.54393 L1080.6 34.2544 Q1083.27 30.163 1086.88 28.1376 Q1090.52 26.1121 1095.26 26.1121 Q1103.08 26.1121 1107.09 30.9732 Q1111.1 35.7938 1111.1 45.1919 Z" fill="#000000" fill-rule="evenodd" fill-opacity="1" /><path clip-path="url(#clip7700)" d="M 0 0 M1168.83 19.2256 L1148.17 51.5113 L1168.83 51.5113 L1168.83 19.2256 M1166.68 12.096 L1176.97 12.096 L1176.97 51.5113 L1185.6 51.5113 L1185.6 58.3168 L1176.97 58.3168 L1176.97 72.576 L1168.83 72.576 L1168.83 58.3168 L1141.52 58.3168 L1141.52 50.4176 L1166.68 12.096 Z" fill="#000000" fill-rule="evenodd" fill-opacity="1" /><path clip-path="url(#clip7700)" d="M 0 0 M1244.66 17.6457 Q1235.75 17.6457 1230.48 24.2892 Q1225.26 30.9327 1225.26 42.3968 Q1225.26 53.8203 1230.48 60.4638 Q1235.75 67.1073 1244.66 67.1073 Q1253.57 67.1073 1258.76 60.4638 Q1263.98 53.8203 1263.98 42.3968 Q1263.98 30.9327 1258.76 24.2892 Q1253.57 17.6457 1244.66 17.6457 M1256.12 71.4823 L1266.9 83.2704 L1257.01 83.2704 L1248.06 73.5887 Q1246.73 73.6697 1246 73.7103 Q1245.31 73.7508 1244.66 73.7508 Q1231.9 73.7508 1224.24 65.2439 Q1216.63 56.6965 1216.63 42.3968 Q1216.63 28.0566 1224.24 19.5497 Q1231.9 11.0023 1244.66 11.0023 Q1257.38 11.0023 1264.99 19.5497 Q1272.61 28.0566 1272.61 42.3968 Q1272.61 52.9291 1268.36 60.4233 Q1264.14 67.9175 1256.12 71.4823 Z" fill="#000000" fill-rule="evenodd" fill-opacity="1" /><path clip-path="url(#clip7700)" d="M 0 0 M1279.66 54.671 L1279.66 27.2059 L1287.11 27.2059 L1287.11 54.3874 Q1287.11 60.8284 1289.62 64.0691 Q1292.14 67.2693 1297.16 67.2693 Q1303.19 67.2693 1306.68 63.421 Q1310.2 59.5726 1310.2 52.9291 L1310.2 27.2059 L1317.66 27.2059 L1317.66 72.576 L1310.2 72.576 L1310.2 65.6084 Q1307.49 69.7404 1303.88 71.7658 Q1300.32 73.7508 1295.58 73.7508 Q1287.76 73.7508 1283.71 68.8897 Q1279.66 64.0286 1279.66 54.671 M1298.41 26.1121 L1298.41 26.1121 Z" fill="#000000" fill-rule="evenodd" fill-opacity="1" /><path clip-path="url(#clip7700)" d="M 0 0 M1346.09 49.7694 Q1337.06 49.7694 1333.58 51.8354 Q1330.09 53.9013 1330.09 58.8839 Q1330.09 62.8538 1332.69 65.2034 Q1335.32 67.5124 1339.81 67.5124 Q1346.01 67.5124 1349.74 63.1374 Q1353.51 58.7219 1353.51 51.4303 L1353.51 49.7694 L1346.09 49.7694 M1360.96 46.6907 L1360.96 72.576 L1353.51 72.576 L1353.51 65.6895 Q1350.95 69.8214 1347.15 71.8063 Q1343.34 73.7508 1337.83 73.7508 Q1330.86 73.7508 1326.73 69.8619 Q1322.64 65.9325 1322.64 59.3701 Q1322.64 51.7138 1327.74 47.825 Q1332.89 43.9361 1343.06 43.9361 L1353.51 43.9361 L1353.51 43.2069 Q1353.51 38.0623 1350.1 35.2672 Q1346.74 32.4315 1340.63 32.4315 Q1336.74 32.4315 1333.05 33.3632 Q1329.36 34.295 1325.96 36.1584 L1325.96 29.2718 Q1330.05 27.692 1333.9 26.9223 Q1337.75 26.1121 1341.39 26.1121 Q1351.24 26.1121 1356.1 31.2163 Q1360.96 36.3204 1360.96 46.6907 Z" fill="#000000" fill-rule="evenodd" fill-opacity="1" /><path clip-path="url(#clip7700)" d="M 0 0 M1398.63 34.0924 L1398.63 9.54393 L1406.09 9.54393 L1406.09 72.576 L1398.63 72.576 L1398.63 65.7705 Q1396.28 69.8214 1392.68 71.8063 Q1389.11 73.7508 1384.09 73.7508 Q1375.87 73.7508 1370.68 67.1883 Q1365.54 60.6258 1365.54 49.9314 Q1365.54 39.2371 1370.68 32.6746 Q1375.87 26.1121 1384.09 26.1121 Q1389.11 26.1121 1392.68 28.0971 Q1396.28 30.0415 1398.63 34.0924 M1373.23 49.9314 Q1373.23 58.1548 1376.6 62.8538 Q1380 67.5124 1385.91 67.5124 Q1391.83 67.5124 1395.23 62.8538 Q1398.63 58.1548 1398.63 49.9314 Q1398.63 41.7081 1395.23 37.0496 Q1391.83 32.3505 1385.91 32.3505 Q1380 32.3505 1376.6 37.0496 Q1373.23 41.7081 1373.23 49.9314 Z" fill="#000000" fill-rule="evenodd" fill-opacity="1" /><path clip-path="url(#clip7700)" d="M 0 0 M1440.2 34.1734 Q1438.94 33.4443 1437.44 33.1202 Q1435.98 32.7556 1434.2 32.7556 Q1427.88 32.7556 1424.48 36.8875 Q1421.12 40.9789 1421.12 48.6757 L1421.12 72.576 L1413.62 72.576 L1413.62 27.2059 L1421.12 27.2059 L1421.12 34.2544 Q1423.47 30.1225 1427.23 28.1376 Q1431 26.1121 1436.39 26.1121 Q1437.16 26.1121 1438.09 26.2337 Q1439.02 26.3147 1440.16 26.5172 L1440.2 34.1734 Z" fill="#000000" fill-rule="evenodd" fill-opacity="1" /><path clip-path="url(#clip7700)" d="M 0 0 M1463.77 32.4315 Q1457.78 32.4315 1454.29 37.1306 Q1450.81 41.7891 1450.81 49.9314 Q1450.81 58.0738 1454.25 62.7728 Q1457.74 67.4314 1463.77 67.4314 Q1469.73 67.4314 1473.21 62.7323 Q1476.69 58.0333 1476.69 49.9314 Q1476.69 41.8701 1473.21 37.1711 Q1469.73 32.4315 1463.77 32.4315 M1463.77 26.1121 Q1473.49 26.1121 1479.04 32.4315 Q1484.59 38.7509 1484.59 49.9314 Q1484.59 61.0714 1479.04 67.4314 Q1473.49 73.7508 1463.77 73.7508 Q1454.01 73.7508 1448.46 67.4314 Q1442.95 61.0714 1442.95 49.9314 Q1442.95 38.7509 1448.46 32.4315 Q1454.01 26.1121 1463.77 26.1121 Z" fill="#000000" fill-rule="evenodd" fill-opacity="1" /><path clip-path="url(#clip7700)" d="M 0 0 M1499.79 14.324 L1499.79 27.2059 L1515.14 27.2059 L1515.14 32.9987 L1499.79 32.9987 L1499.79 57.6282 Q1499.79 63.1779 1501.28 64.7578 Q1502.82 66.3376 1507.48 66.3376 L1515.14 66.3376 L1515.14 72.576 L1507.48 72.576 Q1498.85 72.576 1495.57 69.3758 Q1492.29 66.1351 1492.29 57.6282 L1492.29 32.9987 L1486.82 32.9987 L1486.82 27.2059 L1492.29 27.2059 L1492.29 14.324 L1499.79 14.324 Z" fill="#000000" fill-rule="evenodd" fill-opacity="1" /><path clip-path="url(#clip7700)" d="M 0 0 M1540.54 32.4315 Q1534.54 32.4315 1531.06 37.1306 Q1527.57 41.7891 1527.57 49.9314 Q1527.57 58.0738 1531.02 62.7728 Q1534.5 67.4314 1540.54 67.4314 Q1546.49 67.4314 1549.98 62.7323 Q1553.46 58.0333 1553.46 49.9314 Q1553.46 41.8701 1549.98 37.1711 Q1546.49 32.4315 1540.54 32.4315 M1540.54 26.1121 Q1550.26 26.1121 1555.81 32.4315 Q1561.36 38.7509 1561.36 49.9314 Q1561.36 61.0714 1555.81 67.4314 Q1550.26 73.7508 1540.54 73.7508 Q1530.77 73.7508 1525.22 67.4314 Q1519.72 61.0714 1519.72 49.9314 Q1519.72 38.7509 1525.22 32.4315 Q1530.77 26.1121 1540.54 26.1121 Z" fill="#000000" fill-rule="evenodd" fill-opacity="1" /><path clip-path="url(#clip7700)" d="M 0 0 M1595.47 34.1734 Q1594.21 33.4443 1592.71 33.1202 Q1591.25 32.7556 1589.47 32.7556 Q1583.15 32.7556 1579.75 36.8875 Q1576.39 40.9789 1576.39 48.6757 L1576.39 72.576 L1568.89 72.576 L1568.89 27.2059 L1576.39 27.2059 L1576.39 34.2544 Q1578.74 30.1225 1582.5 28.1376 Q1586.27 26.1121 1591.66 26.1121 Q1592.43 26.1121 1593.36 26.2337 Q1594.29 26.3147 1595.43 26.5172 L1595.47 34.1734 Z" fill="#000000" fill-rule="evenodd" fill-opacity="1" /><path clip-path="url(#clip7700)" d="M 0 0 M1632.21 28.5427 L1632.21 35.5912 Q1629.05 33.9709 1625.65 33.1607 Q1622.24 32.3505 1618.6 32.3505 Q1613.05 32.3505 1610.25 34.0519 Q1607.5 35.7533 1607.5 39.156 Q1607.5 41.7486 1609.48 43.2475 Q1611.47 44.7058 1617.46 46.0426 L1620.02 46.6097 Q1627.96 48.3111 1631.28 51.4303 Q1634.64 54.509 1634.64 60.0587 Q1634.64 66.3781 1629.62 70.0644 Q1624.63 73.7508 1615.88 73.7508 Q1612.24 73.7508 1608.27 73.0216 Q1604.34 72.3329 1599.96 70.9151 L1599.96 63.2184 Q1604.1 65.3654 1608.11 66.4591 Q1612.12 67.5124 1616.05 67.5124 Q1621.31 67.5124 1624.15 65.73 Q1626.98 63.9071 1626.98 60.6258 Q1626.98 57.5877 1624.92 55.9673 Q1622.89 54.3469 1615.97 52.8481 L1613.37 52.2405 Q1606.45 50.7821 1603.37 47.7845 Q1600.29 44.7463 1600.29 39.4801 Q1600.29 33.0797 1604.83 29.5959 Q1609.36 26.1121 1617.71 26.1121 Q1621.84 26.1121 1625.48 26.7198 Q1629.13 27.3274 1632.21 28.5427 Z" fill="#000000" fill-rule="evenodd" fill-opacity="1" /><path clip-path="url(#clip7700)" d="M 0 0 M1665.06 46.5287 L1686.9 46.5287 L1686.9 53.1722 L1665.06 53.1722 L1665.06 46.5287 Z" fill="#000000" fill-rule="evenodd" fill-opacity="1" /><path clip-path="url(#clip7700)" d="M 0 0 M1741.62 20.1573 L1730.52 50.2555 L1752.76 50.2555 L1741.62 20.1573 M1737.01 12.096 L1746.28 12.096 L1769.33 72.576 L1760.83 72.576 L1755.32 57.061 L1728.05 57.061 L1722.54 72.576 L1713.92 72.576 L1737.01 12.096 Z" fill="#000000" fill-rule="evenodd" fill-opacity="1" /><path clip-path="url(#clip7700)" d="M 0 0 M1807.01 49.3643 Q1807.01 41.2625 1803.64 36.8065 Q1800.32 32.3505 1794.29 32.3505 Q1788.29 32.3505 1784.93 36.8065 Q1781.61 41.2625 1781.61 49.3643 Q1781.61 57.4256 1784.93 61.8816 Q1788.29 66.3376 1794.29 66.3376 Q1800.32 66.3376 1803.64 61.8816 Q1807.01 57.4256 1807.01 49.3643 M1814.46 66.9452 Q1814.46 78.5308 1809.31 84.1616 Q1804.17 89.8329 1793.56 89.8329 Q1789.63 89.8329 1786.14 89.2252 Q1782.66 88.6581 1779.38 87.4428 L1779.38 80.1917 Q1782.66 81.9741 1785.86 82.8248 Q1789.06 83.6755 1792.38 83.6755 Q1799.71 83.6755 1803.36 79.8271 Q1807.01 76.0193 1807.01 68.282 L1807.01 64.5957 Q1804.7 68.6061 1801.09 70.5911 Q1797.49 72.576 1792.46 72.576 Q1784.12 72.576 1779.01 66.2161 Q1773.91 59.8562 1773.91 49.3643 Q1773.91 38.832 1779.01 32.472 Q1784.12 26.1121 1792.46 26.1121 Q1797.49 26.1121 1801.09 28.0971 Q1804.7 30.082 1807.01 34.0924 L1807.01 27.2059 L1814.46 27.2059 L1814.46 66.9452 Z" fill="#000000" fill-rule="evenodd" fill-opacity="1" /><path clip-path="url(#clip7700)" d="M 0 0 M1861.09 48.0275 L1861.09 51.6733 L1826.81 51.6733 Q1827.3 59.3701 1831.43 63.421 Q1835.61 67.4314 1843.02 67.4314 Q1847.31 67.4314 1851.32 66.3781 Q1855.37 65.3249 1859.34 63.2184 L1859.34 70.267 Q1855.33 71.9684 1851.12 72.8596 Q1846.91 73.7508 1842.57 73.7508 Q1831.72 73.7508 1825.36 67.4314 Q1819.04 61.1119 1819.04 50.3365 Q1819.04 39.1965 1825.03 32.6746 Q1831.07 26.1121 1841.28 26.1121 Q1850.43 26.1121 1855.74 32.0264 Q1861.09 37.9003 1861.09 48.0275 M1853.63 45.84 Q1853.55 39.7232 1850.19 36.0774 Q1846.87 32.4315 1841.36 32.4315 Q1835.12 32.4315 1831.35 35.9558 Q1827.62 39.4801 1827.06 45.8805 L1853.63 45.84 Z" fill="#000000" fill-rule="evenodd" fill-opacity="1" /><path clip-path="url(#clip7700)" d="M 0 0 M1906.62 45.1919 L1906.62 72.576 L1899.16 72.576 L1899.16 45.4349 Q1899.16 38.994 1896.65 35.7938 Q1894.14 32.5936 1889.12 32.5936 Q1883.08 32.5936 1879.6 36.4419 Q1876.11 40.2903 1876.11 46.9338 L1876.11 72.576 L1868.62 72.576 L1868.62 27.2059 L1876.11 27.2059 L1876.11 34.2544 Q1878.79 30.163 1882.39 28.1376 Q1886.04 26.1121 1890.78 26.1121 Q1898.6 26.1121 1902.61 30.9732 Q1906.62 35.7938 1906.62 45.1919 Z" fill="#000000" fill-rule="evenodd" fill-opacity="1" /><path clip-path="url(#clip7700)" d="M 0 0 M1921.81 14.324 L1921.81 27.2059 L1937.16 27.2059 L1937.16 32.9987 L1921.81 32.9987 L1921.81 57.6282 Q1921.81 63.1779 1923.31 64.7578 Q1924.85 66.3376 1929.51 66.3376 L1937.16 66.3376 L1937.16 72.576 L1929.51 72.576 Q1920.88 72.576 1917.6 69.3758 Q1914.31 66.1351 1914.31 57.6282 L1914.31 32.9987 L1908.85 32.9987 L1908.85 27.2059 L1914.31 27.2059 L1914.31 14.324 L1921.81 14.324 Z" fill="#000000" fill-rule="evenodd" fill-opacity="1" /><path clip-path="url(#clip7700)" d="M 0 0 M1987.27 72.576 L1964.18 12.096 L1972.73 12.096 L1991.89 63.0159 L2011.09 12.096 L2019.6 12.096 L1996.55 72.576 L1987.27 72.576 Z" fill="#000000" fill-rule="evenodd" fill-opacity="1" /><path clip-path="url(#clip7700)" d="M 0 0 M2059.78 48.0275 L2059.78 51.6733 L2025.51 51.6733 Q2026 59.3701 2030.13 63.421 Q2034.3 67.4314 2041.72 67.4314 Q2046.01 67.4314 2050.02 66.3781 Q2054.07 65.3249 2058.04 63.2184 L2058.04 70.267 Q2054.03 71.9684 2049.82 72.8596 Q2045.6 73.7508 2041.27 73.7508 Q2030.41 73.7508 2024.05 67.4314 Q2017.73 61.1119 2017.73 50.3365 Q2017.73 39.1965 2023.73 32.6746 Q2029.76 26.1121 2039.97 26.1121 Q2049.13 26.1121 2054.43 32.0264 Q2059.78 37.9003 2059.78 48.0275 M2052.33 45.84 Q2052.25 39.7232 2048.89 36.0774 Q2045.56 32.4315 2040.05 32.4315 Q2033.82 32.4315 2030.05 35.9558 Q2026.32 39.4801 2025.75 45.8805 L2052.33 45.84 Z" fill="#000000" fill-rule="evenodd" fill-opacity="1" /><path clip-path="url(#clip7700)" d="M 0 0 M2067.6 9.54393 L2075.05 9.54393 L2075.05 72.576 L2067.6 72.576 L2067.6 9.54393 Z" fill="#000000" fill-rule="evenodd" fill-opacity="1" /><path clip-path="url(#clip7700)" d="M 0 0 M2100.45 32.4315 Q2094.46 32.4315 2090.97 37.1306 Q2087.49 41.7891 2087.49 49.9314 Q2087.49 58.0738 2090.93 62.7728 Q2094.42 67.4314 2100.45 67.4314 Q2106.41 67.4314 2109.89 62.7323 Q2113.38 58.0333 2113.38 49.9314 Q2113.38 41.8701 2109.89 37.1711 Q2106.41 32.4315 2100.45 32.4315 M2100.45 26.1121 Q2110.18 26.1121 2115.73 32.4315 Q2121.27 38.7509 2121.27 49.9314 Q2121.27 61.0714 2115.73 67.4314 Q2110.18 73.7508 2100.45 73.7508 Q2090.69 73.7508 2085.14 67.4314 Q2079.63 61.0714 2079.63 49.9314 Q2079.63 38.7509 2085.14 32.4315 Q2090.69 26.1121 2100.45 26.1121 Z" fill="#000000" fill-rule="evenodd" fill-opacity="1" /><path clip-path="url(#clip7700)" d="M 0 0 M2161.74 28.9478 L2161.74 35.9153 Q2158.58 34.1734 2155.38 33.3227 Q2152.22 32.4315 2148.98 32.4315 Q2141.73 32.4315 2137.72 37.0496 Q2133.71 41.6271 2133.71 49.9314 Q2133.71 58.2358 2137.72 62.8538 Q2141.73 67.4314 2148.98 67.4314 Q2152.22 67.4314 2155.38 66.5807 Q2158.58 65.6895 2161.74 63.9476 L2161.74 70.8341 Q2158.62 72.2924 2155.26 73.0216 Q2151.94 73.7508 2148.17 73.7508 Q2137.92 73.7508 2131.89 67.3098 Q2125.85 60.8689 2125.85 49.9314 Q2125.85 38.832 2131.93 32.472 Q2138.05 26.1121 2148.66 26.1121 Q2152.1 26.1121 2155.38 26.8413 Q2158.66 27.5299 2161.74 28.9478 Z" fill="#000000" fill-rule="evenodd" fill-opacity="1" /><path clip-path="url(#clip7700)" d="M 0 0 M2169.56 27.2059 L2177.02 27.2059 L2177.02 72.576 L2169.56 72.576 L2169.56 27.2059 M2169.56 9.54393 L2177.02 9.54393 L2177.02 18.9825 L2169.56 18.9825 L2169.56 9.54393 Z" fill="#000000" fill-rule="evenodd" fill-opacity="1" /><path clip-path="url(#clip7700)" d="M 0 0 M2192.21 14.324 L2192.21 27.2059 L2207.56 27.2059 L2207.56 32.9987 L2192.21 32.9987 L2192.21 57.6282 Q2192.21 63.1779 2193.71 64.7578 Q2195.24 66.3376 2199.9 66.3376 L2207.56 66.3376 L2207.56 72.576 L2199.9 72.576 Q2191.27 72.576 2187.99 69.3758 Q2184.71 66.1351 2184.71 57.6282 L2184.71 32.9987 L2179.24 32.9987 L2179.24 27.2059 L2184.71 27.2059 L2184.71 14.324 L2192.21 14.324 Z" fill="#000000" fill-rule="evenodd" fill-opacity="1" /><path clip-path="url(#clip7700)" d="M 0 0 M2234.25 76.7889 Q2231.09 84.8907 2228.1 87.3618 Q2225.1 89.8329 2220.08 89.8329 L2214.12 89.8329 L2214.12 83.5945 L2218.5 83.5945 Q2221.58 83.5945 2223.28 82.1361 Q2224.98 80.6778 2227.04 75.2496 L2228.38 71.8468 L2210.03 27.2059 L2217.93 27.2059 L2232.11 62.6918 L2246.29 27.2059 L2254.19 27.2059 L2234.25 76.7889 Z" fill="#000000" fill-rule="evenodd" fill-opacity="1" /><path clip-path="url(#clip7700)" d="M 0 0 M1310.63 2298.26 L1350.83 2298.26 L1350.83 2303.67 L1333.96 2303.67 L1333.96 2345.78 L1327.5 2345.78 L1327.5 2303.67 L1310.63 2303.67 L1310.63 2298.26 Z" fill="#000000" fill-rule="evenodd" fill-opacity="1" /><path clip-path="url(#clip7700)" d="M 0 0 M1354.97 2310.14 L1360.82 2310.14 L1360.82 2345.78 L1354.97 2345.78 L1354.97 2310.14 M1354.97 2296.26 L1360.82 2296.26 L1360.82 2303.67 L1354.97 2303.67 L1354.97 2296.26 Z" fill="#000000" fill-rule="evenodd" fill-opacity="1" /><path clip-path="url(#clip7700)" d="M 0 0 M1394.72 2316.98 Q1396.92 2313.03 1399.97 2311.15 Q1403.03 2309.28 1407.17 2309.28 Q1412.74 2309.28 1415.76 2313.19 Q1418.78 2317.07 1418.78 2324.27 L1418.78 2345.78 L1412.89 2345.78 L1412.89 2324.46 Q1412.89 2319.33 1411.08 2316.85 Q1409.27 2314.37 1405.54 2314.37 Q1400.99 2314.37 1398.35 2317.39 Q1395.71 2320.42 1395.71 2325.64 L1395.71 2345.78 L1389.82 2345.78 L1389.82 2324.46 Q1389.82 2319.3 1388 2316.85 Q1386.19 2314.37 1382.4 2314.37 Q1377.92 2314.37 1375.27 2317.42 Q1372.63 2320.45 1372.63 2325.64 L1372.63 2345.78 L1366.74 2345.78 L1366.74 2310.14 L1372.63 2310.14 L1372.63 2315.67 Q1374.64 2312.4 1377.44 2310.84 Q1380.24 2309.28 1384.09 2309.28 Q1387.97 2309.28 1390.68 2311.25 Q1393.42 2313.22 1394.72 2316.98 Z" fill="#000000" fill-rule="evenodd" fill-opacity="1" /><path clip-path="url(#clip7700)" d="M 0 0 M1455.42 2326.5 L1455.42 2329.36 L1428.49 2329.36 Q1428.87 2335.41 1432.12 2338.59 Q1435.4 2341.74 1441.22 2341.74 Q1444.6 2341.74 1447.75 2340.91 Q1450.93 2340.09 1454.05 2338.43 L1454.05 2343.97 Q1450.9 2345.31 1447.59 2346.01 Q1444.28 2346.71 1440.87 2346.71 Q1432.34 2346.71 1427.34 2341.74 Q1422.38 2336.78 1422.38 2328.31 Q1422.38 2319.56 1427.09 2314.43 Q1431.83 2309.28 1439.85 2309.28 Q1447.05 2309.28 1451.22 2313.92 Q1455.42 2318.54 1455.42 2326.5 M1449.56 2324.78 Q1449.5 2319.97 1446.86 2317.11 Q1444.25 2314.24 1439.92 2314.24 Q1435.02 2314.24 1432.06 2317.01 Q1429.13 2319.78 1428.68 2324.81 L1449.56 2324.78 Z" fill="#000000" fill-rule="evenodd" fill-opacity="1" /><path clip-path="url(#clip7700)" d="M 0 0 M1496.35 2296.32 Q1492.08 2303.64 1490.02 2310.8 Q1487.95 2317.97 1487.95 2325.32 Q1487.95 2332.67 1490.02 2339.9 Q1492.12 2347.09 1496.35 2354.38 L1491.26 2354.38 Q1486.48 2346.9 1484.1 2339.67 Q1481.74 2332.45 1481.74 2325.32 Q1481.74 2318.22 1484.1 2311.03 Q1486.45 2303.83 1491.26 2296.32 L1496.35 2296.32 Z" fill="#000000" fill-rule="evenodd" fill-opacity="1" /><path clip-path="url(#clip7700)" d="M 0 0 M1525.22 2311.19 L1525.22 2316.72 Q1522.73 2315.45 1520.06 2314.81 Q1517.39 2314.18 1514.52 2314.18 Q1510.16 2314.18 1507.97 2315.51 Q1505.8 2316.85 1505.8 2319.53 Q1505.8 2321.56 1507.36 2322.74 Q1508.92 2323.89 1513.63 2324.94 L1515.64 2325.38 Q1521.88 2326.72 1524.49 2329.17 Q1527.13 2331.59 1527.13 2335.95 Q1527.13 2340.91 1523.18 2343.81 Q1519.27 2346.71 1512.39 2346.71 Q1509.53 2346.71 1506.41 2346.13 Q1503.32 2345.59 1499.88 2344.48 L1499.88 2338.43 Q1503.13 2340.12 1506.28 2340.98 Q1509.43 2341.81 1512.52 2341.81 Q1516.66 2341.81 1518.88 2340.4 Q1521.11 2338.97 1521.11 2336.39 Q1521.11 2334.01 1519.49 2332.73 Q1517.9 2331.46 1512.45 2330.28 L1510.42 2329.81 Q1504.97 2328.66 1502.56 2326.3 Q1500.14 2323.92 1500.14 2319.78 Q1500.14 2314.75 1503.7 2312.01 Q1507.27 2309.28 1513.82 2309.28 Q1517.07 2309.28 1519.93 2309.75 Q1522.8 2310.23 1525.22 2311.19 Z" fill="#000000" fill-rule="evenodd" fill-opacity="1" /><path clip-path="url(#clip7700)" d="M 0 0 M1532.35 2296.32 L1537.44 2296.32 Q1542.21 2303.83 1544.57 2311.03 Q1546.96 2318.22 1546.96 2325.32 Q1546.96 2332.45 1544.57 2339.67 Q1542.21 2346.9 1537.44 2354.38 L1532.35 2354.38 Q1536.58 2347.09 1538.65 2339.9 Q1540.75 2332.67 1540.75 2325.32 Q1540.75 2317.97 1538.65 2310.8 Q1536.58 2303.64 1532.35 2296.32 Z" fill="#000000" fill-rule="evenodd" fill-opacity="1" /><path clip-path="url(#clip7700)" d="M 0 0 M38.4242 1265.66 L38.4242 1228.32 L43.3258 1228.32 L80.5333 1258.37 L80.5333 1227.59 L85.9442 1227.59 L85.9442 1266.39 L81.0426 1266.39 L43.835 1236.34 L43.835 1265.66 L38.4242 1265.66 Z" fill="#000000" fill-rule="evenodd" fill-opacity="1" /><path clip-path="url(#clip7700)" d="M 0 0 M36.419 1246.88 L36.419 1241.02 L43.835 1241.02 L43.835 1246.88 L36.419 1246.88 M49.4368 1243.89 L49.4368 1243.89 Z" fill="#000000" fill-rule="evenodd" fill-opacity="1" /><path clip-path="url(#clip7700)" d="M 0 0 M36.4826 1200.09 Q43.8032 1204.36 50.9646 1206.42 Q58.126 1208.49 65.4784 1208.49 Q72.8308 1208.49 80.0559 1206.42 Q87.2491 1204.32 94.5379 1200.09 L94.5379 1205.18 Q87.0582 1209.96 79.8331 1212.34 Q72.608 1214.7 65.4784 1214.7 Q58.3806 1214.7 51.1874 1212.34 Q43.9942 1209.99 36.4826 1205.18 L36.4826 1200.09 Z" fill="#000000" fill-rule="evenodd" fill-opacity="1" /><path clip-path="url(#clip7700)" d="M 0 0 M57.1393 1166.19 Q53.1926 1164 51.3147 1160.94 Q49.4368 1157.89 49.4368 1153.75 Q49.4368 1148.18 53.3517 1145.15 Q57.2348 1142.13 64.4281 1142.13 L85.9442 1142.13 L85.9442 1148.02 L64.619 1148.02 Q59.4946 1148.02 57.012 1149.83 Q54.5294 1151.65 54.5294 1155.37 Q54.5294 1159.92 57.5531 1162.57 Q60.5768 1165.21 65.7967 1165.21 L85.9442 1165.21 L85.9442 1171.1 L64.619 1171.1 Q59.4628 1171.1 57.012 1172.91 Q54.5294 1174.72 54.5294 1178.51 Q54.5294 1183 57.5849 1185.64 Q60.6086 1188.28 65.7967 1188.28 L85.9442 1188.28 L85.9442 1194.17 L50.2962 1194.17 L50.2962 1188.28 L55.8344 1188.28 Q52.556 1186.28 50.9964 1183.48 Q49.4368 1180.68 49.4368 1176.82 Q49.4368 1172.94 51.4102 1170.24 Q53.3836 1167.5 57.1393 1166.19 Z" fill="#000000" fill-rule="evenodd" fill-opacity="1" /><path clip-path="url(#clip7700)" d="M 0 0 M38.4242 1125.58 L38.4242 1120.17 L91.9916 1136.72 L91.9916 1142.13 L38.4242 1125.58 Z" fill="#000000" fill-rule="evenodd" fill-opacity="1" /><path clip-path="url(#clip7700)" d="M 0 0 M51.3465 1091.3 L56.8847 1091.3 Q55.6116 1093.78 54.975 1096.46 Q54.3384 1099.13 54.3384 1102 Q54.3384 1106.36 55.6752 1108.55 Q57.012 1110.72 59.6856 1110.72 Q61.7226 1110.72 62.9003 1109.16 Q64.0461 1107.6 65.0965 1102.89 L65.5421 1100.88 Q66.8789 1094.64 69.3297 1092.03 Q71.7486 1089.39 76.1091 1089.39 Q81.0744 1089.39 83.9708 1093.34 Q86.8672 1097.25 86.8672 1104.13 Q86.8672 1106.99 86.2943 1110.11 Q85.7532 1113.2 84.6392 1116.64 L78.5918 1116.64 Q80.2787 1113.39 81.138 1110.24 Q81.9656 1107.09 81.9656 1104 Q81.9656 1099.86 80.5651 1097.63 Q79.1329 1095.41 76.5547 1095.41 Q74.1676 1095.41 72.8945 1097.03 Q71.6213 1098.62 70.4437 1104.06 L69.9662 1106.1 Q68.8204 1111.54 66.4651 1113.96 Q64.078 1116.38 59.9402 1116.38 Q54.9113 1116.38 52.1741 1112.82 Q49.4368 1109.25 49.4368 1102.7 Q49.4368 1099.45 49.9143 1096.58 Q50.3917 1093.72 51.3465 1091.3 Z" fill="#000000" fill-rule="evenodd" fill-opacity="1" /><path clip-path="url(#clip7700)" d="M 0 0 M36.4826 1084.17 L36.4826 1079.08 Q43.9942 1074.3 51.1874 1071.95 Q58.3806 1069.56 65.4784 1069.56 Q72.608 1069.56 79.8331 1071.95 Q87.0582 1074.3 94.5379 1079.08 L94.5379 1084.17 Q87.2491 1079.94 80.0559 1077.87 Q72.8308 1075.77 65.4784 1075.77 Q58.126 1075.77 50.9646 1077.87 Q43.8032 1079.94 36.4826 1084.17 Z" fill="#000000" fill-rule="evenodd" fill-opacity="1" /><polyline clip-path="url(#clip7702)" style="stroke:#009af9; stroke-width:16; stroke-opacity:1; fill:none" points="
  306.972,1087.46 318.19,1054.62 329.408,1101.84 340.627,1210.87 351.845,1296.16 363.063,1308.02 374.281,1256.22 385.499,1170.71 396.718,1084.72 407.936,1015.3 
  419.154,966.329 430.372,935.877 441.591,918.744 452.809,912.022 464.027,911.886 475.245,917.162 486.463,925.719 497.682,937.15 508.9,950.354 520.118,965.012 
  531.336,980.684 542.554,996.814 553.773,1013.45 564.991,1029.67 576.209,1045.96 587.427,1061.02 598.645,1075.81 609.864,1088.67 621.082,1101.11 632.3,1111.13 
  643.518,1120.81 654.737,1127.78 665.955,1134.75 677.173,1138.82 688.391,1143.4 699.609,1144.98 710.828,1147.67 722.046,1147.23 733.264,1148.6 744.482,1146.62 
  755.7,1147.17 766.919,1144.05 778.137,1144.25 789.355,1140.28 800.573,1140.48 811.791,1135.89 823.01,1136.39 834.228,1131.27 845.446,1132.29 856.664,1126.68 
  867.883,1128.39 879.101,1122.25 890.319,1124.8 901.537,1118.02 912.755,1121.53 923.974,1113.95 935.192,1118.51 946.41,1109.91 957.628,1115.57 968.846,1105.69 
  980.065,1112.41 991.283,1100.87 1002.5,1108.42 1013.72,1094.65 1024.94,1102.26 1036.16,1085.12 1047.37,1090.72 1058.59,1067.44 1069.81,1089.97 1081.03,1082.67 
  1092.25,1097.48 1103.46,1087.05 1114.68,1097.96 1125.9,1087.32 1137.12,1095.9 1148.34,1086.09 1159.56,1093.05 1170.77,1084.41 1181.99,1090.14 1193.21,1082.71 
  1204.43,1087.48 1215.65,1081.19 1226.87,1085.19 1238.08,1079.92 1249.3,1083.31 1260.52,1078.95 1271.74,1081.85 1282.96,1078.28 1294.17,1080.78 1305.39,1077.9 
  1316.61,1080.08 1327.83,1077.77 1339.05,1079.69 1350.27,1077.88 1361.48,1079.59 1372.7,1078.18 1383.92,1079.7 1395.14,1078.63 1406.36,1080 1417.57,1079.2 
  1428.79,1080.44 1440.01,1079.85 1451.23,1080.96 1462.45,1080.55 1473.67,1081.54 1484.88,1081.26 1496.1,1082.15 1507.32,1081.97 1518.54,1082.75 1529.76,1082.64 
  1540.98,1083.32 1552.19,1083.27 1563.41,1083.86 1574.63,1083.83 1585.85,1084.34 1597.07,1084.34 1608.28,1084.77 1619.5,1084.78 1630.72,1085.14 1641.94,1085.16 
  1653.16,1085.45 1664.38,1085.48 1675.59,1085.71 1686.81,1085.75 1698.03,1085.93 1709.25,1085.98 1720.47,1086.11 1731.68,1086.17 1742.9,1086.26 1754.12,1086.33 
  1765.34,1086.39 1776.56,1086.47 1787.78,1086.49 1798.99,1086.6 1810.21,1086.59 1821.43,1086.71 1832.65,1086.67 1843.87,1086.82 1855.09,1086.75 1866.3,1086.93 
  1877.52,1086.82 1888.74,1087.03 1899.96,1086.88 1911.18,1087.13 1922.39,1086.93 1933.61,1087.22 1944.83,1086.96 1956.05,1087.31 1967.27,1086.98 1978.49,1087.39 
  1989.7,1086.99 2000.92,1087.46 2012.14,1086.97 2023.36,1087.53 2034.58,1086.92 2045.79,1087.59 2057.01,1086.86 2068.23,1087.65 2079.45,1086.76 2090.67,1087.7 
  2101.89,1086.63 2113.1,1087.75 2124.32,1086.48 2135.54,1087.81 2146.76,1086.29 2157.98,1087.89 2169.19,1086.07 2180.41,1087.98 2191.63,1085.82 2202.85,1088.11 
  2214.07,1085.53 2225.29,1088.28 2236.5,1085.21 2247.72,1088.49 2258.94,1084.84 2270.16,1088.77 2281.38,1084.43 2292.6,1089.13 2303.81,1083.96 2315.03,1089.59 
  2326.25,1083.43 2337.47,1090.15 2348.69,1082.82 2359.9,1090.84 2371.12,1082.13 2382.34,1091.67 2393.56,1081.32 2404.78,1092.68 2416,1080.41 2427.21,1093.9 
  2438.43,1079.39 2449.65,1095.38 2460.87,1078.32 2472.09,1097.25 2483.3,1077.41 2494.52,1099.83 2505.74,1077.24 2516.96,1103.96 2528.18,1079.35 2539.4,1111.92 
  2550.61,1088.01 
  "/>
<polyline clip-path="url(#clip7702)" style="stroke:#e26f46; stroke-width:16; stroke-opacity:1; fill:none" points="
  306.972,1087.46 318.19,189.727 329.408,490.783 340.627,1217.71 351.845,1747.54 363.063,1834.93 374.281,1772.61 385.499,1607.41 396.718,1491.24 407.936,1359.92 
  419.154,1292.06 430.372,1211.1 441.591,1178.35 452.809,1128.97 464.027,1114.78 475.245,1083.74 486.463,1078.61 497.682,1058.43 508.9,1057.32 520.118,1043.66 
  531.336,1043.91 542.554,1034.19 553.773,1034.54 564.991,1027.27 576.209,1027.36 587.427,1021.84 598.645,1021.8 609.864,1017.71 621.082,1017.82 632.3,1015.02 
  643.518,1015.49 654.737,1013.8 665.955,1014.71 677.173,1013.95 688.391,1015.32 699.609,1015.33 710.828,1017.1 722.046,1017.73 733.264,1019.88 744.482,1021 
  755.7,1023.47 766.919,1024.97 778.137,1027.73 789.355,1029.5 800.573,1032.49 811.791,1034.45 823.01,1037.62 834.228,1039.67 845.446,1042.98 856.664,1045.02 
  867.883,1048.41 879.101,1050.36 890.319,1053.78 901.537,1055.54 912.755,1058.93 923.974,1060.4 935.192,1063.69 946.41,1064.74 957.628,1067.85 968.846,1068.33 
  980.065,1071.07 991.283,1070.75 1002.5,1072.8 1013.72,1071.24 1024.94,1071.93 1036.16,1068.32 1047.37,1066.51 1058.59,1059.92 1069.81,1070.4 1081.03,1074.74 
  1092.25,1080.4 1103.46,1081.26 1114.68,1084.46 1125.9,1083.96 1137.12,1086.03 1148.34,1085.09 1159.56,1086.62 1170.77,1085.63 1181.99,1086.85 1193.21,1085.95 
  1204.43,1086.99 1215.65,1086.23 1226.87,1087.13 1238.08,1086.51 1249.3,1087.32 1260.52,1086.83 1271.74,1087.55 1282.96,1087.17 1294.17,1087.82 1305.39,1087.54 
  1316.61,1088.13 1327.83,1087.93 1339.05,1088.45 1350.27,1088.3 1361.48,1088.77 1372.7,1088.66 1383.92,1089.06 1395.14,1088.98 1406.36,1089.33 1417.57,1089.26 
  1428.79,1089.54 1440.01,1089.48 1451.23,1089.7 1462.45,1089.63 1473.67,1089.79 1484.88,1089.7 1496.1,1089.81 1507.32,1089.71 1518.54,1089.75 1529.76,1089.63 
  1540.98,1089.63 1552.19,1089.49 1563.41,1089.44 1574.63,1089.29 1585.85,1089.2 1597.07,1089.03 1608.28,1088.91 1619.5,1088.73 1630.72,1088.58 1641.94,1088.41 
  1653.16,1088.24 1664.38,1088.06 1675.59,1087.88 1686.81,1087.72 1698.03,1087.52 1709.25,1087.38 1720.47,1087.18 1731.68,1087.06 1742.9,1086.87 1754.12,1086.78 
  1765.34,1086.58 1776.56,1086.53 1787.78,1086.34 1798.99,1086.32 1810.21,1086.13 1821.43,1086.16 1832.65,1085.97 1843.87,1086.04 1855.09,1085.85 1866.3,1085.97 
  1877.52,1085.77 1888.74,1085.94 1899.96,1085.72 1911.18,1085.95 1922.39,1085.71 1933.61,1085.99 1944.83,1085.71 1956.05,1086.06 1967.27,1085.73 1978.49,1086.15 
  1989.7,1085.75 2000.92,1086.26 2012.14,1085.78 2023.36,1086.38 2034.58,1085.8 2045.79,1086.5 2057.01,1085.8 2068.23,1086.64 2079.45,1085.79 2090.67,1086.77 
  2101.89,1085.75 2113.1,1086.92 2124.32,1085.68 2135.54,1087.07 2146.76,1085.58 2157.98,1087.23 2169.19,1085.45 2180.41,1087.4 2191.63,1085.28 2202.85,1087.61 
  2214.07,1085.06 2225.29,1087.84 2236.5,1084.8 2247.72,1088.12 2258.94,1084.49 2270.16,1088.45 2281.38,1084.12 2292.6,1088.84 2303.81,1083.69 2315.03,1089.32 
  2326.25,1083.18 2337.47,1089.9 2348.69,1082.58 2359.9,1090.59 2371.12,1081.89 2382.34,1091.42 2393.56,1081.08 2404.78,1092.42 2416,1080.15 2427.21,1093.62 
  2438.43,1079.1 2449.65,1095.07 2460.87,1078.01 2472.09,1096.91 2483.3,1077.07 2494.52,1099.46 2505.74,1076.87 2516.96,1103.58 2528.18,1079.01 2539.4,1111.66 
  2550.61,1088.02 
  "/>
<polyline clip-path="url(#clip7702)" style="stroke:#3da44d; stroke-width:16; stroke-opacity:1; fill:none" points="
  306.972,1087.46 318.19,1277.17 329.408,1331.51 340.627,1276.73 351.845,1176.15 363.063,1078.97 374.281,1014.84 385.499,981.626 396.718,963.627 407.936,951.802 
  419.154,942.001 430.372,935.006 441.591,931.01 452.809,930.647 464.027,933.489 475.245,939.227 486.463,947.363 497.682,957.342 508.9,968.996 520.118,981.641 
  531.336,995.462 542.554,1009.54 553.773,1024.39 564.991,1038.76 576.209,1053.51 587.427,1067.05 598.645,1080.67 609.864,1092.42 621.082,1104.11 632.3,1113.44 
  643.518,1122.79 654.737,1129.45 665.955,1136.41 677.173,1140.48 688.391,1145.3 699.609,1147.08 710.828,1150.16 722.046,1150.03 733.264,1151.83 744.482,1150.17 
  755.7,1151.15 766.919,1148.31 778.137,1148.87 789.355,1145.1 800.573,1145.59 811.791,1141.09 823.01,1141.78 834.228,1136.67 845.446,1137.81 856.664,1132.1 
  867.883,1133.88 879.101,1127.56 890.319,1130.13 901.537,1123.09 912.755,1126.6 923.974,1118.71 935.192,1123.27 946.41,1114.32 957.628,1120 968.846,1109.72 
  980.065,1116.51 991.283,1104.55 1002.5,1112.23 1013.72,1098.06 1024.94,1105.96 1036.16,1088.6 1047.37,1095.03 1058.59,1072.57 1069.81,1093.78 1081.03,1085.29 
  1092.25,1100.02 1103.46,1089.04 1114.68,1100.08 1125.9,1089.08 1137.12,1097.81 1148.34,1087.74 1159.56,1094.84 1170.77,1086.01 1181.99,1091.85 1193.21,1084.28 
  1204.43,1089.12 1215.65,1082.73 1226.87,1086.78 1238.08,1081.44 1249.3,1084.85 1260.52,1080.44 1271.74,1083.34 1282.96,1079.73 1294.17,1082.22 1305.39,1079.29 
  1316.61,1081.45 1327.83,1079.1 1339.05,1081 1350.27,1079.14 1361.48,1080.81 1372.7,1079.36 1383.92,1080.85 1395.14,1079.73 1406.36,1081.06 1417.57,1080.21 
  1428.79,1081.4 1440.01,1080.78 1451.23,1081.84 1462.45,1081.39 1473.67,1082.33 1484.88,1082.01 1496.1,1082.85 1507.32,1082.64 1518.54,1083.37 1529.76,1083.23 
  1540.98,1083.87 1552.19,1083.79 1563.41,1084.34 1574.63,1084.29 1585.85,1084.77 1597.07,1084.75 1608.28,1085.14 1619.5,1085.14 1630.72,1085.47 1641.94,1085.48 
  1653.16,1085.75 1664.38,1085.77 1675.59,1085.99 1686.81,1086.02 1698.03,1086.19 1709.25,1086.23 1720.47,1086.36 1731.68,1086.41 1742.9,1086.5 1754.12,1086.57 
  1765.34,1086.63 1776.56,1086.71 1787.78,1086.74 1798.99,1086.85 1810.21,1086.85 1821.43,1086.98 1832.65,1086.95 1843.87,1087.11 1855.09,1087.04 1866.3,1087.23 
  1877.52,1087.13 1888.74,1087.36 1899.96,1087.21 1911.18,1087.48 1922.39,1087.29 1933.61,1087.6 1944.83,1087.35 1956.05,1087.71 1967.27,1087.4 1978.49,1087.82 
  1989.7,1087.42 2000.92,1087.91 2012.14,1087.43 2023.36,1088 2034.58,1087.4 2045.79,1088.08 2057.01,1087.35 2068.23,1088.15 2079.45,1087.27 2090.67,1088.22 
  2101.89,1087.16 2113.1,1088.29 2124.32,1087.01 2135.54,1088.36 2146.76,1086.83 2157.98,1088.44 2169.19,1086.61 2180.41,1088.53 2191.63,1086.36 2202.85,1088.65 
  2214.07,1086.06 2225.29,1088.81 2236.5,1085.73 2247.72,1089.01 2258.94,1085.34 2270.16,1089.28 2281.38,1084.9 2292.6,1089.61 2303.81,1084.41 2315.03,1090.03 
  2326.25,1083.84 2337.47,1090.55 2348.69,1083.18 2359.9,1091.2 2371.12,1082.43 2382.34,1091.99 2393.56,1081.57 2404.78,1092.94 2416,1080.58 2427.21,1094.09 
  2438.43,1079.49 2449.65,1095.51 2460.87,1078.35 2472.09,1097.31 2483.3,1077.36 2494.52,1099.83 2505.74,1077.11 2516.96,1103.91 2528.18,1079.19 2539.4,1111.91 
  2550.61,1088.02 
  "/>
<polyline clip-path="url(#clip7702)" style="stroke:#c271d2; stroke-width:16; stroke-opacity:1; fill:none" points="
  306.972,1087.46 318.19,2146.22 329.408,1962.47 340.627,1278.3 351.845,821.547 363.063,753.77 374.281,787.605 385.499,884.313 396.718,935.815 407.936,1002.94 
  419.154,1026.25 430.372,1069.41 441.591,1078.7 452.809,1109.09 464.027,1110.79 475.245,1131.64 486.463,1127.19 497.682,1139.17 508.9,1129.24 520.118,1133.26 
  531.336,1119.27 542.554,1117.27 553.773,1101.48 564.991,1096.05 576.209,1080.84 587.427,1074.45 598.645,1061.55 609.864,1055.85 621.082,1045.98 632.3,1041.73 
  643.518,1034.85 654.737,1032.2 665.955,1027.89 677.173,1026.68 688.391,1024.45 699.609,1024.43 710.828,1023.84 722.046,1024.76 733.264,1025.43 744.482,1027.06 
  755.7,1028.7 766.919,1030.84 778.137,1033.22 789.355,1035.69 800.573,1038.61 811.791,1041.25 823.01,1044.57 834.228,1047.23 845.446,1050.83 856.664,1053.38 
  867.883,1057.14 879.101,1059.46 890.319,1063.31 901.537,1065.29 912.755,1069.16 923.974,1070.69 935.192,1074.51 946.41,1075.46 957.628,1079.14 968.846,1079.38 
  980.065,1082.77 991.283,1082.07 1002.5,1084.83 1013.72,1082.7 1024.94,1084 1036.16,1079.18 1047.37,1076.54 1058.59,1064.77 1069.81,1079.45 1081.03,1084.25 
  1092.25,1090.95 1103.46,1091.13 1114.68,1094.85 1125.9,1093.54 1137.12,1096 1148.34,1094.3 1159.56,1096.14 1170.77,1094.46 1181.99,1095.94 1193.21,1094.42 
  1204.43,1095.66 1215.65,1094.34 1226.87,1095.4 1238.08,1094.28 1249.3,1095.2 1260.52,1094.27 1271.74,1095.07 1282.96,1094.31 1294.17,1095.01 1305.39,1094.38 
  1316.61,1094.99 1327.83,1094.47 1339.05,1095 1350.27,1094.57 1361.48,1095.03 1372.7,1094.66 1383.92,1095.04 1395.14,1094.73 1406.36,1095.04 1417.57,1094.76 
  1428.79,1094.99 1440.01,1094.73 1451.23,1094.9 1462.45,1094.65 1473.67,1094.75 1484.88,1094.5 1496.1,1094.54 1507.32,1094.28 1518.54,1094.26 1529.76,1094 
  1540.98,1093.92 1552.19,1093.65 1563.41,1093.53 1574.63,1093.25 1585.85,1093.09 1597.07,1092.81 1608.28,1092.62 1619.5,1092.33 1630.72,1092.11 1641.94,1091.84 
  1653.16,1091.6 1664.38,1091.33 1675.59,1091.08 1686.81,1090.83 1698.03,1090.58 1709.25,1090.36 1720.47,1090.1 1731.68,1089.91 1742.9,1089.65 1754.12,1089.49 
  1765.34,1089.25 1776.56,1089.13 1787.78,1088.89 1798.99,1088.81 1810.21,1088.58 1821.43,1088.55 1832.65,1088.32 1843.87,1088.34 1855.09,1088.11 1866.3,1088.18 
  1877.52,1087.94 1888.74,1088.07 1899.96,1087.82 1911.18,1088.01 1922.39,1087.73 1933.61,1087.98 1944.83,1087.66 1956.05,1087.98 1967.27,1087.62 1978.49,1088.01 
  1989.7,1087.58 2000.92,1088.06 2012.14,1087.55 2023.36,1088.13 2034.58,1087.52 2045.79,1088.2 2057.01,1087.47 2068.23,1088.28 2079.45,1087.41 2090.67,1088.38 
  2101.89,1087.32 2113.1,1088.47 2124.32,1087.21 2135.54,1088.58 2146.76,1087.07 2157.98,1088.7 2169.19,1086.9 2180.41,1088.84 2191.63,1086.69 2202.85,1089 
  2214.07,1086.43 2225.29,1089.2 2236.5,1086.13 2247.72,1089.44 2258.94,1085.78 2270.16,1089.73 2281.38,1085.37 2292.6,1090.09 2303.81,1084.89 2315.03,1090.53 
  2326.25,1084.34 2337.47,1091.06 2348.69,1083.69 2359.9,1091.72 2371.12,1082.95 2382.34,1092.51 2393.56,1082.09 2404.78,1093.46 2416,1081.1 2427.21,1094.61 
  2438.43,1080 2449.65,1096.02 2460.87,1078.85 2472.09,1097.82 2483.3,1077.86 2494.52,1100.32 2505.74,1077.59 2516.96,1104.37 2528.18,1079.6 2539.4,1112.21 
  2550.61,1088.03 
  "/>
<polyline clip-path="url(#clip7702)" style="stroke:#ac8d18; stroke-width:16; stroke-opacity:1; fill:none" points="
  306.972,1087.46 318.19,1166.02 329.408,1216.16 340.627,1244.63 351.845,1239.24 363.063,1198.09 374.281,1139.28 385.499,1077.88 396.718,1023.73 407.936,980.758 
  419.154,949.706 430.372,929.659 441.591,918.807 452.809,915.603 464.027,918.167 475.245,925.386 486.463,935.814 497.682,948.787 508.9,963.269 520.118,978.871 
  531.336,994.862 542.554,1010.99 553.773,1026.73 564.991,1041.9 576.209,1056.15 587.427,1069.33 598.645,1081.24 609.864,1091.82 621.082,1100.97 632.3,1108.74 
  643.518,1115.12 654.737,1120.23 665.955,1124.13 677.173,1126.99 688.391,1128.87 699.609,1129.99 710.828,1130.39 722.046,1130.28 733.264,1129.68 744.482,1128.8 
  755.7,1127.6 766.919,1126.32 778.137,1124.83 789.355,1123.4 800.573,1121.85 811.791,1120.45 823.01,1118.96 834.228,1117.7 845.446,1116.34 856.664,1115.26 
  867.883,1114.05 879.101,1113.16 890.319,1112.09 901.537,1111.36 912.755,1110.36 923.974,1109.74 935.192,1108.76 946.41,1108.16 957.628,1107.07 968.846,1106.36 
  980.065,1104.98 991.283,1103.93 1002.5,1101.93 1013.72,1100.05 1024.94,1096.69 1036.16,1092.87 1047.37,1086.44 1058.59,1077.95 1069.81,1086.69 1081.03,1092.44 
  1092.25,1094.95 1103.46,1096.67 1114.68,1096.79 1125.9,1097.01 1137.12,1096.31 1148.34,1096.04 1159.56,1095.16 1170.77,1094.77 1181.99,1093.95 1193.21,1093.6 
  1204.43,1092.93 1215.65,1092.68 1226.87,1092.17 1238.08,1092.03 1249.3,1091.67 1260.52,1091.63 1271.74,1091.4 1282.96,1091.44 1294.17,1091.32 1305.39,1091.42 
  1316.61,1091.38 1327.83,1091.52 1339.05,1091.53 1350.27,1091.69 1361.48,1091.73 1372.7,1091.88 1383.92,1091.93 1395.14,1092.06 1406.36,1092.1 1417.57,1092.19 
  1428.79,1092.21 1440.01,1092.27 1451.23,1092.25 1462.45,1092.26 1473.67,1092.2 1484.88,1092.16 1496.1,1092.06 1507.32,1091.97 1518.54,1091.84 1529.76,1091.71 
  1540.98,1091.54 1552.19,1091.37 1563.41,1091.17 1574.63,1090.98 1585.85,1090.76 1597.07,1090.54 1608.28,1090.31 1619.5,1090.09 1630.72,1089.85 1641.94,1089.63 
  1653.16,1089.4 1664.38,1089.19 1675.59,1088.98 1686.81,1088.78 1698.03,1088.58 1709.25,1088.4 1720.47,1088.23 1731.68,1088.08 1742.9,1087.94 1754.12,1087.81 
  1765.34,1087.7 1776.56,1087.6 1787.78,1087.52 1798.99,1087.45 1810.21,1087.39 1821.43,1087.34 1832.65,1087.31 1843.87,1087.28 1855.09,1087.27 1866.3,1087.25 
  1877.52,1087.26 1888.74,1087.26 1899.96,1087.28 1911.18,1087.27 1922.39,1087.3 1933.61,1087.3 1944.83,1087.33 1956.05,1087.33 1967.27,1087.36 1978.49,1087.35 
  1989.7,1087.39 2000.92,1087.36 2012.14,1087.4 2023.36,1087.36 2034.58,1087.39 2045.79,1087.34 2057.01,1087.37 2068.23,1087.31 2079.45,1087.33 2090.67,1087.25 
  2101.89,1087.28 2113.1,1087.19 2124.32,1087.23 2135.54,1087.11 2146.76,1087.16 2157.98,1087.03 2169.19,1087.1 2180.41,1086.95 2191.63,1087.03 2202.85,1086.87 
  2214.07,1086.98 2225.29,1086.79 2236.5,1086.93 2247.72,1086.72 2258.94,1086.9 2270.16,1086.66 2281.38,1086.88 2292.6,1086.61 2303.81,1086.89 2315.03,1086.57 
  2326.25,1086.91 2337.47,1086.54 2348.69,1086.96 2359.9,1086.52 2371.12,1087.03 2382.34,1086.52 2393.56,1087.13 2404.78,1086.53 2416,1087.27 2427.21,1086.57 
  2438.43,1087.48 2449.65,1086.69 2460.87,1087.82 2472.09,1087 2483.3,1088.5 2494.52,1087.84 2505.74,1090.07 2516.96,1090.12 2528.18,1094.01 2539.4,1096.27 
  2550.61,1104.31 
  "/>
<path clip-path="url(#clip7700)" d="
M2713.92 625.432 L3184.76 625.432 L3184.76 262.552 L2713.92 262.552  Z
  " fill="#ffffff" fill-rule="evenodd" fill-opacity="1"/>
<polyline clip-path="url(#clip7700)" style="stroke:#000000; stroke-width:4; stroke-opacity:1; fill:none" points="
  2713.92,625.432 3184.76,625.432 3184.76,262.552 2713.92,262.552 2713.92,625.432 
  "/>
<polyline clip-path="url(#clip7700)" style="stroke:#009af9; stroke-width:16; stroke-opacity:1; fill:none" points="
  2745.92,323.032 2937.92,323.032 
  "/>
<path clip-path="url(#clip7700)" d="M 0 0 M2991.95 303.633 Q2984.95 303.633 2980.81 308.853 Q2976.7 314.072 2976.7 323.08 Q2976.7 332.056 2980.81 337.275 Q2984.95 342.495 2991.95 342.495 Q2998.95 342.495 3003.03 337.275 Q3007.13 332.056 3007.13 323.08 Q3007.13 314.072 3003.03 308.853 Q2998.95 303.633 2991.95 303.633 M3000.96 345.933 L3009.42 355.195 L3001.66 355.195 L2994.62 347.588 Q2993.57 347.651 2993 347.683 Q2992.46 347.715 2991.95 347.715 Q2981.92 347.715 2975.91 341.031 Q2969.92 334.315 2969.92 323.08 Q2969.92 311.813 2975.91 305.129 Q2981.92 298.413 2991.95 298.413 Q3001.94 298.413 3007.93 305.129 Q3013.91 311.813 3013.91 323.08 Q3013.91 331.355 3010.57 337.244 Q3007.26 343.132 3000.96 345.933 Z" fill="#000000" fill-rule="evenodd" fill-opacity="1" /><path clip-path="url(#clip7700)" d="M 0 0 M3019.45 332.724 L3019.45 311.144 L3025.31 311.144 L3025.31 332.501 Q3025.31 337.562 3027.28 340.108 Q3029.25 342.623 3033.2 342.623 Q3037.94 342.623 3040.68 339.599 Q3043.45 336.575 3043.45 331.355 L3043.45 311.144 L3049.3 311.144 L3049.3 346.792 L3043.45 346.792 L3043.45 341.318 Q3041.31 344.564 3038.48 346.156 Q3035.68 347.715 3031.96 347.715 Q3025.81 347.715 3022.63 343.896 Q3019.45 340.076 3019.45 332.724 M3034.19 310.285 L3034.19 310.285 Z" fill="#000000" fill-rule="evenodd" fill-opacity="1" /><path clip-path="url(#clip7700)" d="M 0 0 M3071.65 328.873 Q3064.55 328.873 3061.81 330.496 Q3059.08 332.119 3059.08 336.034 Q3059.08 339.153 3061.11 340.999 Q3063.18 342.814 3066.71 342.814 Q3071.58 342.814 3074.51 339.376 Q3077.47 335.907 3077.47 330.178 L3077.47 328.873 L3071.65 328.873 M3083.33 326.454 L3083.33 346.792 L3077.47 346.792 L3077.47 341.381 Q3075.47 344.628 3072.47 346.187 Q3069.48 347.715 3065.15 347.715 Q3059.68 347.715 3056.43 344.66 Q3053.22 341.572 3053.22 336.416 Q3053.22 330.4 3057.23 327.345 Q3061.27 324.289 3069.26 324.289 L3077.47 324.289 L3077.47 323.716 Q3077.47 319.674 3074.8 317.478 Q3072.16 315.25 3067.35 315.25 Q3064.29 315.25 3061.4 315.982 Q3058.5 316.714 3055.83 318.178 L3055.83 312.767 Q3059.04 311.526 3062.07 310.921 Q3065.09 310.285 3067.96 310.285 Q3075.69 310.285 3079.51 314.295 Q3083.33 318.306 3083.33 326.454 Z" fill="#000000" fill-rule="evenodd" fill-opacity="1" /><path clip-path="url(#clip7700)" d="M 0 0 M3112.93 316.555 L3112.93 297.267 L3118.79 297.267 L3118.79 346.792 L3112.93 346.792 L3112.93 341.445 Q3111.08 344.628 3108.25 346.187 Q3105.45 347.715 3101.5 347.715 Q3095.04 347.715 3090.97 342.559 Q3086.93 337.403 3086.93 329 Q3086.93 320.597 3090.97 315.441 Q3095.04 310.285 3101.5 310.285 Q3105.45 310.285 3108.25 311.844 Q3111.08 313.372 3112.93 316.555 M3092.97 329 Q3092.97 335.461 3095.61 339.153 Q3098.29 342.814 3102.93 342.814 Q3107.58 342.814 3110.26 339.153 Q3112.93 335.461 3112.93 329 Q3112.93 322.539 3110.26 318.879 Q3107.58 315.186 3102.93 315.186 Q3098.29 315.186 3095.61 318.879 Q3092.97 322.539 3092.97 329 Z" fill="#000000" fill-rule="evenodd" fill-opacity="1" /><path clip-path="url(#clip7700)" d="M 0 0 M3147.59 341.381 L3158.09 341.381 L3158.09 305.129 L3146.67 307.42 L3146.67 301.564 L3158.03 299.272 L3164.46 299.272 L3164.46 341.381 L3174.96 341.381 L3174.96 346.792 L3147.59 346.792 L3147.59 341.381 Z" fill="#000000" fill-rule="evenodd" fill-opacity="1" /><polyline clip-path="url(#clip7700)" style="stroke:#e26f46; stroke-width:16; stroke-opacity:1; fill:none" points="
  2745.92,383.512 2937.92,383.512 
  "/>
<path clip-path="url(#clip7700)" d="M 0 0 M2991.95 364.113 Q2984.95 364.113 2980.81 369.333 Q2976.7 374.552 2976.7 383.56 Q2976.7 392.536 2980.81 397.755 Q2984.95 402.975 2991.95 402.975 Q2998.95 402.975 3003.03 397.755 Q3007.13 392.536 3007.13 383.56 Q3007.13 374.552 3003.03 369.333 Q2998.95 364.113 2991.95 364.113 M3000.96 406.413 L3009.42 415.675 L3001.66 415.675 L2994.62 408.068 Q2993.57 408.131 2993 408.163 Q2992.46 408.195 2991.95 408.195 Q2981.92 408.195 2975.91 401.511 Q2969.92 394.795 2969.92 383.56 Q2969.92 372.293 2975.91 365.609 Q2981.92 358.893 2991.95 358.893 Q3001.94 358.893 3007.93 365.609 Q3013.91 372.293 3013.91 383.56 Q3013.91 391.835 3010.57 397.724 Q3007.26 403.612 3000.96 406.413 Z" fill="#000000" fill-rule="evenodd" fill-opacity="1" /><path clip-path="url(#clip7700)" d="M 0 0 M3019.45 393.204 L3019.45 371.624 L3025.31 371.624 L3025.31 392.981 Q3025.31 398.042 3027.28 400.588 Q3029.25 403.103 3033.2 403.103 Q3037.94 403.103 3040.68 400.079 Q3043.45 397.055 3043.45 391.835 L3043.45 371.624 L3049.3 371.624 L3049.3 407.272 L3043.45 407.272 L3043.45 401.798 Q3041.31 405.044 3038.48 406.636 Q3035.68 408.195 3031.96 408.195 Q3025.81 408.195 3022.63 404.376 Q3019.45 400.556 3019.45 393.204 M3034.19 370.765 L3034.19 370.765 Z" fill="#000000" fill-rule="evenodd" fill-opacity="1" /><path clip-path="url(#clip7700)" d="M 0 0 M3071.65 389.353 Q3064.55 389.353 3061.81 390.976 Q3059.08 392.599 3059.08 396.514 Q3059.08 399.633 3061.11 401.479 Q3063.18 403.294 3066.71 403.294 Q3071.58 403.294 3074.51 399.856 Q3077.47 396.387 3077.47 390.658 L3077.47 389.353 L3071.65 389.353 M3083.33 386.934 L3083.33 407.272 L3077.47 407.272 L3077.47 401.861 Q3075.47 405.108 3072.47 406.667 Q3069.48 408.195 3065.15 408.195 Q3059.68 408.195 3056.43 405.14 Q3053.22 402.052 3053.22 396.896 Q3053.22 390.88 3057.23 387.825 Q3061.27 384.769 3069.26 384.769 L3077.47 384.769 L3077.47 384.196 Q3077.47 380.154 3074.8 377.958 Q3072.16 375.73 3067.35 375.73 Q3064.29 375.73 3061.4 376.462 Q3058.5 377.194 3055.83 378.658 L3055.83 373.247 Q3059.04 372.006 3062.07 371.401 Q3065.09 370.765 3067.96 370.765 Q3075.69 370.765 3079.51 374.775 Q3083.33 378.786 3083.33 386.934 Z" fill="#000000" fill-rule="evenodd" fill-opacity="1" /><path clip-path="url(#clip7700)" d="M 0 0 M3112.93 377.035 L3112.93 357.747 L3118.79 357.747 L3118.79 407.272 L3112.93 407.272 L3112.93 401.925 Q3111.08 405.108 3108.25 406.667 Q3105.45 408.195 3101.5 408.195 Q3095.04 408.195 3090.97 403.039 Q3086.93 397.883 3086.93 389.48 Q3086.93 381.077 3090.97 375.921 Q3095.04 370.765 3101.5 370.765 Q3105.45 370.765 3108.25 372.324 Q3111.08 373.852 3112.93 377.035 M3092.97 389.48 Q3092.97 395.941 3095.61 399.633 Q3098.29 403.294 3102.93 403.294 Q3107.58 403.294 3110.26 399.633 Q3112.93 395.941 3112.93 389.48 Q3112.93 383.019 3110.26 379.359 Q3107.58 375.666 3102.93 375.666 Q3098.29 375.666 3095.61 379.359 Q3092.97 383.019 3092.97 389.48 Z" fill="#000000" fill-rule="evenodd" fill-opacity="1" /><path clip-path="url(#clip7700)" d="M 0 0 M3152.01 401.861 L3174.45 401.861 L3174.45 407.272 L3144.28 407.272 L3144.28 401.861 Q3147.94 398.074 3154.24 391.708 Q3160.58 385.31 3162.2 383.464 Q3165.29 379.995 3166.5 377.608 Q3167.74 375.189 3167.74 372.865 Q3167.74 369.078 3165.06 366.691 Q3162.42 364.304 3158.16 364.304 Q3155.13 364.304 3151.76 365.354 Q3148.42 366.404 3144.6 368.537 L3144.6 362.044 Q3148.48 360.484 3151.86 359.688 Q3155.23 358.893 3158.03 358.893 Q3165.41 358.893 3169.81 362.585 Q3174.2 366.277 3174.2 372.452 Q3174.2 375.38 3173.08 378.022 Q3172 380.632 3169.11 384.196 Q3168.31 385.119 3164.05 389.544 Q3159.78 393.936 3152.01 401.861 Z" fill="#000000" fill-rule="evenodd" fill-opacity="1" /><polyline clip-path="url(#clip7700)" style="stroke:#3da44d; stroke-width:16; stroke-opacity:1; fill:none" points="
  2745.92,443.992 2937.92,443.992 
  "/>
<path clip-path="url(#clip7700)" d="M 0 0 M2991.95 424.593 Q2984.95 424.593 2980.81 429.813 Q2976.7 435.032 2976.7 444.04 Q2976.7 453.016 2980.81 458.235 Q2984.95 463.455 2991.95 463.455 Q2998.95 463.455 3003.03 458.235 Q3007.13 453.016 3007.13 444.04 Q3007.13 435.032 3003.03 429.813 Q2998.95 424.593 2991.95 424.593 M3000.96 466.893 L3009.42 476.155 L3001.66 476.155 L2994.62 468.548 Q2993.57 468.611 2993 468.643 Q2992.46 468.675 2991.95 468.675 Q2981.92 468.675 2975.91 461.991 Q2969.92 455.275 2969.92 444.04 Q2969.92 432.773 2975.91 426.089 Q2981.92 419.373 2991.95 419.373 Q3001.94 419.373 3007.93 426.089 Q3013.91 432.773 3013.91 444.04 Q3013.91 452.315 3010.57 458.204 Q3007.26 464.092 3000.96 466.893 Z" fill="#000000" fill-rule="evenodd" fill-opacity="1" /><path clip-path="url(#clip7700)" d="M 0 0 M3019.45 453.684 L3019.45 432.104 L3025.31 432.104 L3025.31 453.461 Q3025.31 458.522 3027.28 461.068 Q3029.25 463.583 3033.2 463.583 Q3037.94 463.583 3040.68 460.559 Q3043.45 457.535 3043.45 452.315 L3043.45 432.104 L3049.3 432.104 L3049.3 467.752 L3043.45 467.752 L3043.45 462.278 Q3041.31 465.524 3038.48 467.116 Q3035.68 468.675 3031.96 468.675 Q3025.81 468.675 3022.63 464.856 Q3019.45 461.036 3019.45 453.684 M3034.19 431.245 L3034.19 431.245 Z" fill="#000000" fill-rule="evenodd" fill-opacity="1" /><path clip-path="url(#clip7700)" d="M 0 0 M3071.65 449.833 Q3064.55 449.833 3061.81 451.456 Q3059.08 453.079 3059.08 456.994 Q3059.08 460.113 3061.11 461.959 Q3063.18 463.774 3066.71 463.774 Q3071.58 463.774 3074.51 460.336 Q3077.47 456.867 3077.47 451.138 L3077.47 449.833 L3071.65 449.833 M3083.33 447.414 L3083.33 467.752 L3077.47 467.752 L3077.47 462.341 Q3075.47 465.588 3072.47 467.147 Q3069.48 468.675 3065.15 468.675 Q3059.68 468.675 3056.43 465.62 Q3053.22 462.532 3053.22 457.376 Q3053.22 451.36 3057.23 448.305 Q3061.27 445.249 3069.26 445.249 L3077.47 445.249 L3077.47 444.676 Q3077.47 440.634 3074.8 438.438 Q3072.16 436.21 3067.35 436.21 Q3064.29 436.21 3061.4 436.942 Q3058.5 437.674 3055.83 439.138 L3055.83 433.727 Q3059.04 432.486 3062.07 431.881 Q3065.09 431.245 3067.96 431.245 Q3075.69 431.245 3079.51 435.255 Q3083.33 439.266 3083.33 447.414 Z" fill="#000000" fill-rule="evenodd" fill-opacity="1" /><path clip-path="url(#clip7700)" d="M 0 0 M3112.93 437.515 L3112.93 418.227 L3118.79 418.227 L3118.79 467.752 L3112.93 467.752 L3112.93 462.405 Q3111.08 465.588 3108.25 467.147 Q3105.45 468.675 3101.5 468.675 Q3095.04 468.675 3090.97 463.519 Q3086.93 458.363 3086.93 449.96 Q3086.93 441.557 3090.97 436.401 Q3095.04 431.245 3101.5 431.245 Q3105.45 431.245 3108.25 432.804 Q3111.08 434.332 3112.93 437.515 M3092.97 449.96 Q3092.97 456.421 3095.61 460.113 Q3098.29 463.774 3102.93 463.774 Q3107.58 463.774 3110.26 460.113 Q3112.93 456.421 3112.93 449.96 Q3112.93 443.499 3110.26 439.839 Q3107.58 436.146 3102.93 436.146 Q3098.29 436.146 3095.61 439.839 Q3092.97 443.499 3092.97 449.96 Z" fill="#000000" fill-rule="evenodd" fill-opacity="1" /><path clip-path="url(#clip7700)" d="M 0 0 M3165.96 442.13 Q3170.57 443.117 3173.15 446.236 Q3175.76 449.355 3175.76 453.939 Q3175.76 460.973 3170.92 464.824 Q3166.08 468.675 3157.17 468.675 Q3154.18 468.675 3151 468.07 Q3147.84 467.497 3144.47 466.32 L3144.47 460.113 Q3147.14 461.673 3150.33 462.469 Q3153.51 463.264 3156.98 463.264 Q3163.03 463.264 3166.18 460.877 Q3169.36 458.49 3169.36 453.939 Q3169.36 449.737 3166.4 447.382 Q3163.47 444.995 3158.22 444.995 L3152.68 444.995 L3152.68 439.711 L3158.48 439.711 Q3163.22 439.711 3165.73 437.833 Q3168.25 435.924 3168.25 432.359 Q3168.25 428.699 3165.64 426.757 Q3163.06 424.784 3158.22 424.784 Q3155.58 424.784 3152.56 425.357 Q3149.53 425.929 3145.9 427.139 L3145.9 421.41 Q3149.56 420.391 3152.75 419.882 Q3155.96 419.373 3158.79 419.373 Q3166.11 419.373 3170.38 422.715 Q3174.64 426.025 3174.64 431.69 Q3174.64 435.637 3172.38 438.374 Q3170.12 441.08 3165.96 442.13 Z" fill="#000000" fill-rule="evenodd" fill-opacity="1" /><polyline clip-path="url(#clip7700)" style="stroke:#c271d2; stroke-width:16; stroke-opacity:1; fill:none" points="
  2745.92,504.472 2937.92,504.472 
  "/>
<path clip-path="url(#clip7700)" d="M 0 0 M2991.95 485.073 Q2984.95 485.073 2980.81 490.293 Q2976.7 495.512 2976.7 504.52 Q2976.7 513.496 2980.81 518.715 Q2984.95 523.935 2991.95 523.935 Q2998.95 523.935 3003.03 518.715 Q3007.13 513.496 3007.13 504.52 Q3007.13 495.512 3003.03 490.293 Q2998.95 485.073 2991.95 485.073 M3000.96 527.373 L3009.42 536.635 L3001.66 536.635 L2994.62 529.028 Q2993.57 529.091 2993 529.123 Q2992.46 529.155 2991.95 529.155 Q2981.92 529.155 2975.91 522.471 Q2969.92 515.755 2969.92 504.52 Q2969.92 493.253 2975.91 486.569 Q2981.92 479.853 2991.95 479.853 Q3001.94 479.853 3007.93 486.569 Q3013.91 493.253 3013.91 504.52 Q3013.91 512.795 3010.57 518.684 Q3007.26 524.572 3000.96 527.373 Z" fill="#000000" fill-rule="evenodd" fill-opacity="1" /><path clip-path="url(#clip7700)" d="M 0 0 M3019.45 514.164 L3019.45 492.584 L3025.31 492.584 L3025.31 513.941 Q3025.31 519.002 3027.28 521.548 Q3029.25 524.063 3033.2 524.063 Q3037.94 524.063 3040.68 521.039 Q3043.45 518.015 3043.45 512.795 L3043.45 492.584 L3049.3 492.584 L3049.3 528.232 L3043.45 528.232 L3043.45 522.758 Q3041.31 526.004 3038.48 527.596 Q3035.68 529.155 3031.96 529.155 Q3025.81 529.155 3022.63 525.336 Q3019.45 521.516 3019.45 514.164 M3034.19 491.725 L3034.19 491.725 Z" fill="#000000" fill-rule="evenodd" fill-opacity="1" /><path clip-path="url(#clip7700)" d="M 0 0 M3071.65 510.313 Q3064.55 510.313 3061.81 511.936 Q3059.08 513.559 3059.08 517.474 Q3059.08 520.593 3061.11 522.439 Q3063.18 524.254 3066.71 524.254 Q3071.58 524.254 3074.51 520.816 Q3077.47 517.347 3077.47 511.618 L3077.47 510.313 L3071.65 510.313 M3083.33 507.894 L3083.33 528.232 L3077.47 528.232 L3077.47 522.821 Q3075.47 526.068 3072.47 527.627 Q3069.48 529.155 3065.15 529.155 Q3059.68 529.155 3056.43 526.1 Q3053.22 523.012 3053.22 517.856 Q3053.22 511.84 3057.23 508.785 Q3061.27 505.729 3069.26 505.729 L3077.47 505.729 L3077.47 505.156 Q3077.47 501.114 3074.8 498.918 Q3072.16 496.69 3067.35 496.69 Q3064.29 496.69 3061.4 497.422 Q3058.5 498.154 3055.83 499.618 L3055.83 494.207 Q3059.04 492.966 3062.07 492.361 Q3065.09 491.725 3067.96 491.725 Q3075.69 491.725 3079.51 495.735 Q3083.33 499.746 3083.33 507.894 Z" fill="#000000" fill-rule="evenodd" fill-opacity="1" /><path clip-path="url(#clip7700)" d="M 0 0 M3112.93 497.995 L3112.93 478.707 L3118.79 478.707 L3118.79 528.232 L3112.93 528.232 L3112.93 522.885 Q3111.08 526.068 3108.25 527.627 Q3105.45 529.155 3101.5 529.155 Q3095.04 529.155 3090.97 523.999 Q3086.93 518.843 3086.93 510.44 Q3086.93 502.037 3090.97 496.881 Q3095.04 491.725 3101.5 491.725 Q3105.45 491.725 3108.25 493.284 Q3111.08 494.812 3112.93 497.995 M3092.97 510.44 Q3092.97 516.901 3095.61 520.593 Q3098.29 524.254 3102.93 524.254 Q3107.58 524.254 3110.26 520.593 Q3112.93 516.901 3112.93 510.44 Q3112.93 503.979 3110.26 500.319 Q3107.58 496.626 3102.93 496.626 Q3098.29 496.626 3095.61 500.319 Q3092.97 503.979 3092.97 510.44 Z" fill="#000000" fill-rule="evenodd" fill-opacity="1" /><path clip-path="url(#clip7700)" d="M 0 0 M3164.14 486.314 L3147.91 511.681 L3164.14 511.681 L3164.14 486.314 M3162.45 480.712 L3170.54 480.712 L3170.54 511.681 L3177.32 511.681 L3177.32 517.028 L3170.54 517.028 L3170.54 528.232 L3164.14 528.232 L3164.14 517.028 L3142.69 517.028 L3142.69 510.822 L3162.45 480.712 Z" fill="#000000" fill-rule="evenodd" fill-opacity="1" /><polyline clip-path="url(#clip7700)" style="stroke:#ac8d18; stroke-width:16; stroke-opacity:1; fill:none" points="
  2745.92,564.952 2937.92,564.952 
  "/>
<path clip-path="url(#clip7700)" d="M 0 0 M2969.92 541.192 L2976.35 541.192 L2976.35 583.301 L2999.49 583.301 L2999.49 588.712 L2969.92 588.712 L2969.92 541.192 Z" fill="#000000" fill-rule="evenodd" fill-opacity="1" /><path clip-path="url(#clip7700)" d="M 0 0 M3018.3 557.17 Q3013.59 557.17 3010.85 560.862 Q3008.12 564.522 3008.12 570.92 Q3008.12 577.318 3010.82 581.01 Q3013.56 584.67 3018.3 584.67 Q3022.98 584.67 3025.72 580.978 Q3028.46 577.286 3028.46 570.92 Q3028.46 564.586 3025.72 560.894 Q3022.98 557.17 3018.3 557.17 M3018.3 552.205 Q3025.94 552.205 3030.3 557.17 Q3034.66 562.135 3034.66 570.92 Q3034.66 579.673 3030.3 584.67 Q3025.94 589.635 3018.3 589.635 Q3010.63 589.635 3006.27 584.67 Q3001.94 579.673 3001.94 570.92 Q3001.94 562.135 3006.27 557.17 Q3010.63 552.205 3018.3 552.205 Z" fill="#000000" fill-rule="evenodd" fill-opacity="1" /><path clip-path="url(#clip7700)" d="M 0 0 M3057.01 570.793 Q3049.91 570.793 3047.17 572.416 Q3044.43 574.039 3044.43 577.954 Q3044.43 581.073 3046.47 582.919 Q3048.54 584.734 3052.07 584.734 Q3056.94 584.734 3059.87 581.296 Q3062.83 577.827 3062.83 572.098 L3062.83 570.793 L3057.01 570.793 M3068.69 568.374 L3068.69 588.712 L3062.83 588.712 L3062.83 583.301 Q3060.83 586.548 3057.83 588.107 Q3054.84 589.635 3050.51 589.635 Q3045.04 589.635 3041.79 586.58 Q3038.58 583.492 3038.58 578.336 Q3038.58 572.32 3042.59 569.265 Q3046.63 566.209 3054.62 566.209 L3062.83 566.209 L3062.83 565.636 Q3062.83 561.594 3060.16 559.398 Q3057.52 557.17 3052.71 557.17 Q3049.65 557.17 3046.76 557.902 Q3043.86 558.634 3041.19 560.098 L3041.19 554.687 Q3044.4 553.446 3047.43 552.841 Q3050.45 552.205 3053.31 552.205 Q3061.05 552.205 3064.87 556.215 Q3068.69 560.226 3068.69 568.374 Z" fill="#000000" fill-rule="evenodd" fill-opacity="1" /><path clip-path="url(#clip7700)" d="M 0 0 M3098.29 558.475 L3098.29 539.187 L3104.14 539.187 L3104.14 588.712 L3098.29 588.712 L3098.29 583.365 Q3096.44 586.548 3093.61 588.107 Q3090.81 589.635 3086.86 589.635 Q3080.4 589.635 3076.33 584.479 Q3072.28 579.323 3072.28 570.92 Q3072.28 562.517 3076.33 557.361 Q3080.4 552.205 3086.86 552.205 Q3090.81 552.205 3093.61 553.764 Q3096.44 555.292 3098.29 558.475 M3078.33 570.92 Q3078.33 577.381 3080.97 581.073 Q3083.65 584.734 3088.29 584.734 Q3092.94 584.734 3095.61 581.073 Q3098.29 577.381 3098.29 570.92 Q3098.29 564.459 3095.61 560.799 Q3092.94 557.106 3088.29 557.106 Q3083.65 557.106 3080.97 560.799 Q3078.33 564.459 3078.33 570.92 Z" fill="#000000" fill-rule="evenodd" fill-opacity="1" /></svg>
