<?xml version="1.0" encoding="utf-8"?>
<svg xmlns="http://www.w3.org/2000/svg" xmlns:xlink="http://www.w3.org/1999/xlink" width="800" height="600" viewBox="0 0 3200 2400">
<defs>
  <clipPath id="clip8600">
    <rect x="0" y="0" width="3200" height="2400"/>
  </clipPath>
</defs>
<path clip-path="url(#clip8600)" d="
M0 2400 L3200 2400 L3200 0 L0 0  Z
  " fill="#ffffff" fill-rule="evenodd" fill-opacity="1"/>
<defs>
  <clipPath id="clip8601">
    <rect x="640" y="0" width="2241" height="2241"/>
  </clipPath>
</defs>
<path clip-path="url(#clip8600)" d="
M293.69 2204.92 L2617.92 2204.92 L2617.92 131.032 L293.69 131.032  Z
  " fill="#ffffff" fill-rule="evenodd" fill-opacity="1"/>
<defs>
  <clipPath id="clip8602">
    <rect x="293" y="131" width="2325" height="2075"/>
  </clipPath>
</defs>
<polyline clip-path="url(#clip8602)" style="stroke:#000000; stroke-width:2; stroke-opacity:0.1; fill:none" points="
  359.47,2204.92 359.47,131.032 
  "/>
<polyline clip-path="url(#clip8602)" style="stroke:#000000; stroke-width:2; stroke-opacity:0.1; fill:none" points="
  798.005,2204.92 798.005,131.032 
  "/>
<polyline clip-path="url(#clip8602)" style="stroke:#000000; stroke-width:2; stroke-opacity:0.1; fill:none" points="
  1236.54,2204.92 1236.54,131.032 
  "/>
<polyline clip-path="url(#clip8602)" style="stroke:#000000; stroke-width:2; stroke-opacity:0.1; fill:none" points="
  1675.07,2204.92 1675.07,131.032 
  "/>
<polyline clip-path="url(#clip8602)" style="stroke:#000000; stroke-width:2; stroke-opacity:0.1; fill:none" points="
  2113.61,2204.92 2113.61,131.032 
  "/>
<polyline clip-path="url(#clip8602)" style="stroke:#000000; stroke-width:2; stroke-opacity:0.1; fill:none" points="
  2552.14,2204.92 2552.14,131.032 
  "/>
<polyline clip-path="url(#clip8602)" style="stroke:#000000; stroke-width:2; stroke-opacity:0.1; fill:none" points="
  293.69,2133 2617.92,2133 
  "/>
<polyline clip-path="url(#clip8602)" style="stroke:#000000; stroke-width:2; stroke-opacity:0.1; fill:none" points="
  293.69,1693.76 2617.92,1693.76 
  "/>
<polyline clip-path="url(#clip8602)" style="stroke:#000000; stroke-width:2; stroke-opacity:0.1; fill:none" points="
  293.69,1254.52 2617.92,1254.52 
  "/>
<polyline clip-path="url(#clip8602)" style="stroke:#000000; stroke-width:2; stroke-opacity:0.1; fill:none" points="
  293.69,815.277 2617.92,815.277 
  "/>
<polyline clip-path="url(#clip8602)" style="stroke:#000000; stroke-width:2; stroke-opacity:0.1; fill:none" points="
  293.69,376.036 2617.92,376.036 
  "/>
<polyline clip-path="url(#clip8600)" style="stroke:#000000; stroke-width:4; stroke-opacity:1; fill:none" points="
  293.69,2204.92 2617.92,2204.92 
  "/>
<polyline clip-path="url(#clip8600)" style="stroke:#000000; stroke-width:4; stroke-opacity:1; fill:none" points="
  293.69,2204.92 293.69,131.032 
  "/>
<polyline clip-path="url(#clip8600)" style="stroke:#000000; stroke-width:4; stroke-opacity:1; fill:none" points="
  359.47,2204.92 359.47,2180.03 
  "/>
<polyline clip-path="url(#clip8600)" style="stroke:#000000; stroke-width:4; stroke-opacity:1; fill:none" points="
  798.005,2204.92 798.005,2180.03 
  "/>
<polyline clip-path="url(#clip8600)" style="stroke:#000000; stroke-width:4; stroke-opacity:1; fill:none" points="
  1236.54,2204.92 1236.54,2180.03 
  "/>
<polyline clip-path="url(#clip8600)" style="stroke:#000000; stroke-width:4; stroke-opacity:1; fill:none" points="
  1675.07,2204.92 1675.07,2180.03 
  "/>
<polyline clip-path="url(#clip8600)" style="stroke:#000000; stroke-width:4; stroke-opacity:1; fill:none" points="
  2113.61,2204.92 2113.61,2180.03 
  "/>
<polyline clip-path="url(#clip8600)" style="stroke:#000000; stroke-width:4; stroke-opacity:1; fill:none" points="
  2552.14,2204.92 2552.14,2180.03 
  "/>
<polyline clip-path="url(#clip8600)" style="stroke:#000000; stroke-width:4; stroke-opacity:1; fill:none" points="
  293.69,2133 321.581,2133 
  "/>
<polyline clip-path="url(#clip8600)" style="stroke:#000000; stroke-width:4; stroke-opacity:1; fill:none" points="
  293.69,1693.76 321.581,1693.76 
  "/>
<polyline clip-path="url(#clip8600)" style="stroke:#000000; stroke-width:4; stroke-opacity:1; fill:none" points="
  293.69,1254.52 321.581,1254.52 
  "/>
<polyline clip-path="url(#clip8600)" style="stroke:#000000; stroke-width:4; stroke-opacity:1; fill:none" points="
  293.69,815.277 321.581,815.277 
  "/>
<polyline clip-path="url(#clip8600)" style="stroke:#000000; stroke-width:4; stroke-opacity:1; fill:none" points="
  293.69,376.036 321.581,376.036 
  "/>
<path clip-path="url(#clip8600)" d="M 0 0 M359.47 2230.91 Q355.859 2230.91 354.031 2234.48 Q352.225 2238.02 352.225 2245.15 Q352.225 2252.25 354.031 2255.82 Q355.859 2259.36 359.47 2259.36 Q363.105 2259.36 364.91 2255.82 Q366.739 2252.25 366.739 2245.15 Q366.739 2238.02 364.91 2234.48 Q363.105 2230.91 359.47 2230.91 M359.47 2227.21 Q365.281 2227.21 368.336 2231.81 Q371.415 2236.4 371.415 2245.15 Q371.415 2253.87 368.336 2258.48 Q365.281 2263.06 359.47 2263.06 Q353.66 2263.06 350.582 2258.48 Q347.526 2253.87 347.526 2245.15 Q347.526 2236.4 350.582 2231.81 Q353.66 2227.21 359.47 2227.21 Z" fill="#000000" fill-rule="evenodd" fill-opacity="1" /><path clip-path="url(#clip8600)" d="M 0 0 M788.387 2258.46 L796.026 2258.46 L796.026 2232.09 L787.716 2233.76 L787.716 2229.5 L795.979 2227.83 L800.655 2227.83 L800.655 2258.46 L808.294 2258.46 L808.294 2262.39 L788.387 2262.39 L788.387 2258.46 Z" fill="#000000" fill-rule="evenodd" fill-opacity="1" /><path clip-path="url(#clip8600)" d="M 0 0 M1231.19 2258.46 L1247.51 2258.46 L1247.51 2262.39 L1225.57 2262.39 L1225.57 2258.46 Q1228.23 2255.7 1232.81 2251.07 Q1237.42 2246.42 1238.6 2245.08 Q1240.85 2242.55 1241.72 2240.82 Q1242.63 2239.06 1242.63 2237.37 Q1242.63 2234.61 1240.68 2232.88 Q1238.76 2231.14 1235.66 2231.14 Q1233.46 2231.14 1231.01 2231.91 Q1228.58 2232.67 1225.8 2234.22 L1225.8 2229.5 Q1228.62 2228.36 1231.08 2227.79 Q1233.53 2227.21 1235.57 2227.21 Q1240.94 2227.21 1244.13 2229.89 Q1247.33 2232.58 1247.33 2237.07 Q1247.33 2239.2 1246.52 2241.12 Q1245.73 2243.02 1243.62 2245.61 Q1243.04 2246.28 1239.94 2249.5 Q1236.84 2252.69 1231.19 2258.46 Z" fill="#000000" fill-rule="evenodd" fill-opacity="1" /><path clip-path="url(#clip8600)" d="M 0 0 M1679.32 2243.76 Q1682.68 2244.48 1684.55 2246.74 Q1686.45 2249.01 1686.45 2252.35 Q1686.45 2257.46 1682.93 2260.26 Q1679.41 2263.06 1672.93 2263.06 Q1670.76 2263.06 1668.44 2262.62 Q1666.15 2262.21 1663.7 2261.35 L1663.7 2256.84 Q1665.64 2257.97 1667.96 2258.55 Q1670.27 2259.13 1672.79 2259.13 Q1677.19 2259.13 1679.48 2257.39 Q1681.8 2255.66 1681.8 2252.35 Q1681.8 2249.29 1679.65 2247.58 Q1677.52 2245.84 1673.7 2245.84 L1669.67 2245.84 L1669.67 2242 L1673.88 2242 Q1677.33 2242 1679.16 2240.63 Q1680.99 2239.24 1680.99 2236.65 Q1680.99 2233.99 1679.09 2232.58 Q1677.22 2231.14 1673.7 2231.14 Q1671.78 2231.14 1669.58 2231.56 Q1667.38 2231.98 1664.74 2232.85 L1664.74 2228.69 Q1667.4 2227.95 1669.72 2227.58 Q1672.05 2227.21 1674.11 2227.21 Q1679.44 2227.21 1682.54 2229.64 Q1685.64 2232.04 1685.64 2236.17 Q1685.64 2239.04 1684 2241.03 Q1682.35 2242.99 1679.32 2243.76 Z" fill="#000000" fill-rule="evenodd" fill-opacity="1" /><path clip-path="url(#clip8600)" d="M 0 0 M2116.62 2231.91 L2104.81 2250.35 L2116.62 2250.35 L2116.62 2231.91 M2115.39 2227.83 L2121.27 2227.83 L2121.27 2250.35 L2126.2 2250.35 L2126.2 2254.24 L2121.27 2254.24 L2121.27 2262.39 L2116.62 2262.39 L2116.62 2254.24 L2101.02 2254.24 L2101.02 2249.73 L2115.39 2227.83 Z" fill="#000000" fill-rule="evenodd" fill-opacity="1" /><path clip-path="url(#clip8600)" d="M 0 0 M2542.42 2227.83 L2560.78 2227.83 L2560.78 2231.77 L2546.7 2231.77 L2546.7 2240.24 Q2547.72 2239.89 2548.74 2239.73 Q2549.76 2239.54 2550.78 2239.54 Q2556.56 2239.54 2559.94 2242.72 Q2563.32 2245.89 2563.32 2251.3 Q2563.32 2256.88 2559.85 2259.98 Q2556.38 2263.06 2550.06 2263.06 Q2547.88 2263.06 2545.62 2262.69 Q2543.37 2262.32 2540.96 2261.58 L2540.96 2256.88 Q2543.05 2258.02 2545.27 2258.57 Q2547.49 2259.13 2549.97 2259.13 Q2553.97 2259.13 2556.31 2257.02 Q2558.65 2254.92 2558.65 2251.3 Q2558.65 2247.69 2556.31 2245.59 Q2553.97 2243.48 2549.97 2243.48 Q2548.09 2243.48 2546.22 2243.9 Q2544.37 2244.31 2542.42 2245.19 L2542.42 2227.83 Z" fill="#000000" fill-rule="evenodd" fill-opacity="1" /><path clip-path="url(#clip8600)" d="M 0 0 M132.2 2135.4 L144.677 2135.4 L144.677 2139.19 L132.2 2139.19 L132.2 2135.4 Z" fill="#000000" fill-rule="evenodd" fill-opacity="1" /><path clip-path="url(#clip8600)" d="M 0 0 M159.746 2118.8 Q156.135 2118.8 154.307 2122.36 Q152.501 2125.91 152.501 2133.03 Q152.501 2140.14 154.307 2143.71 Q156.135 2147.25 159.746 2147.25 Q163.381 2147.25 165.186 2143.71 Q167.015 2140.14 167.015 2133.03 Q167.015 2125.91 165.186 2122.36 Q163.381 2118.8 159.746 2118.8 M159.746 2115.1 Q165.556 2115.1 168.612 2119.7 Q171.691 2124.29 171.691 2133.03 Q171.691 2141.76 168.612 2146.37 Q165.556 2150.95 159.746 2150.95 Q153.936 2150.95 150.857 2146.37 Q147.802 2141.76 147.802 2133.03 Q147.802 2124.29 150.857 2119.7 Q153.936 2115.1 159.746 2115.1 Z" fill="#000000" fill-rule="evenodd" fill-opacity="1" /><path clip-path="url(#clip8600)" d="M 0 0 M176.76 2144.4 L181.644 2144.4 L181.644 2150.28 L176.76 2150.28 L176.76 2144.4 Z" fill="#000000" fill-rule="evenodd" fill-opacity="1" /><path clip-path="url(#clip8600)" d="M 0 0 M196.714 2118.8 Q193.103 2118.8 191.274 2122.36 Q189.468 2125.91 189.468 2133.03 Q189.468 2140.14 191.274 2143.71 Q193.103 2147.25 196.714 2147.25 Q200.348 2147.25 202.153 2143.71 Q203.982 2140.14 203.982 2133.03 Q203.982 2125.91 202.153 2122.36 Q200.348 2118.8 196.714 2118.8 M196.714 2115.1 Q202.524 2115.1 205.579 2119.7 Q208.658 2124.29 208.658 2133.03 Q208.658 2141.76 205.579 2146.37 Q202.524 2150.95 196.714 2150.95 Q190.904 2150.95 187.825 2146.37 Q184.769 2141.76 184.769 2133.03 Q184.769 2124.29 187.825 2119.7 Q190.904 2115.1 196.714 2115.1 Z" fill="#000000" fill-rule="evenodd" fill-opacity="1" /><path clip-path="url(#clip8600)" d="M 0 0 M213.774 2115.72 L232.13 2115.72 L232.13 2119.66 L218.056 2119.66 L218.056 2128.13 Q219.075 2127.78 220.093 2127.62 Q221.112 2127.43 222.13 2127.43 Q227.917 2127.43 231.297 2130.6 Q234.676 2133.78 234.676 2139.19 Q234.676 2144.77 231.204 2147.87 Q227.732 2150.95 221.413 2150.95 Q219.237 2150.95 216.968 2150.58 Q214.723 2150.21 212.315 2149.47 L212.315 2144.77 Q214.399 2145.91 216.621 2146.46 Q218.843 2147.02 221.32 2147.02 Q225.325 2147.02 227.663 2144.91 Q230.001 2142.8 230.001 2139.19 Q230.001 2135.58 227.663 2133.47 Q225.325 2131.37 221.32 2131.37 Q219.445 2131.37 217.57 2131.79 Q215.718 2132.2 213.774 2133.08 L213.774 2115.72 Z" fill="#000000" fill-rule="evenodd" fill-opacity="1" /><path clip-path="url(#clip8600)" d="M 0 0 M249.746 2118.8 Q246.135 2118.8 244.306 2122.36 Q242.5 2125.91 242.5 2133.03 Q242.5 2140.14 244.306 2143.71 Q246.135 2147.25 249.746 2147.25 Q253.38 2147.25 255.186 2143.71 Q257.014 2140.14 257.014 2133.03 Q257.014 2125.91 255.186 2122.36 Q253.38 2118.8 249.746 2118.8 M249.746 2115.1 Q255.556 2115.1 258.612 2119.7 Q261.69 2124.29 261.69 2133.03 Q261.69 2141.76 258.612 2146.37 Q255.556 2150.95 249.746 2150.95 Q243.936 2150.95 240.857 2146.37 Q237.801 2141.76 237.801 2133.03 Q237.801 2124.29 240.857 2119.7 Q243.936 2115.1 249.746 2115.1 Z" fill="#000000" fill-rule="evenodd" fill-opacity="1" /><path clip-path="url(#clip8600)" d="M 0 0 M133.797 1696.15 L146.274 1696.15 L146.274 1699.95 L133.797 1699.95 L133.797 1696.15 Z" fill="#000000" fill-rule="evenodd" fill-opacity="1" /><path clip-path="url(#clip8600)" d="M 0 0 M161.344 1679.56 Q157.732 1679.56 155.904 1683.12 Q154.098 1686.66 154.098 1693.79 Q154.098 1700.9 155.904 1704.47 Q157.732 1708.01 161.344 1708.01 Q164.978 1708.01 166.783 1704.47 Q168.612 1700.9 168.612 1693.79 Q168.612 1686.66 166.783 1683.12 Q164.978 1679.56 161.344 1679.56 M161.344 1675.85 Q167.154 1675.85 170.209 1680.46 Q173.288 1685.04 173.288 1693.79 Q173.288 1702.52 170.209 1707.13 Q167.154 1711.71 161.344 1711.71 Q155.533 1711.71 152.455 1707.13 Q149.399 1702.52 149.399 1693.79 Q149.399 1685.04 152.455 1680.46 Q155.533 1675.85 161.344 1675.85 Z" fill="#000000" fill-rule="evenodd" fill-opacity="1" /><path clip-path="url(#clip8600)" d="M 0 0 M178.357 1705.16 L183.242 1705.16 L183.242 1711.04 L178.357 1711.04 L178.357 1705.16 Z" fill="#000000" fill-rule="evenodd" fill-opacity="1" /><path clip-path="url(#clip8600)" d="M 0 0 M198.311 1679.56 Q194.7 1679.56 192.871 1683.12 Q191.066 1686.66 191.066 1693.79 Q191.066 1700.9 192.871 1704.47 Q194.7 1708.01 198.311 1708.01 Q201.945 1708.01 203.751 1704.47 Q205.579 1700.9 205.579 1693.79 Q205.579 1686.66 203.751 1683.12 Q201.945 1679.56 198.311 1679.56 M198.311 1675.85 Q204.121 1675.85 207.177 1680.46 Q210.255 1685.04 210.255 1693.79 Q210.255 1702.52 207.177 1707.13 Q204.121 1711.71 198.311 1711.71 Q192.501 1711.71 189.422 1707.13 Q186.367 1702.52 186.367 1693.79 Q186.367 1685.04 189.422 1680.46 Q192.501 1675.85 198.311 1675.85 Z" fill="#000000" fill-rule="evenodd" fill-opacity="1" /><path clip-path="url(#clip8600)" d="M 0 0 M219.352 1707.1 L235.672 1707.1 L235.672 1711.04 L213.727 1711.04 L213.727 1707.1 Q216.39 1704.35 220.973 1699.72 Q225.579 1695.07 226.76 1693.72 Q229.005 1691.2 229.885 1689.47 Q230.788 1687.71 230.788 1686.02 Q230.788 1683.26 228.843 1681.53 Q226.922 1679.79 223.82 1679.79 Q221.621 1679.79 219.167 1680.55 Q216.737 1681.32 213.959 1682.87 L213.959 1678.15 Q216.783 1677.01 219.237 1676.43 Q221.69 1675.85 223.727 1675.85 Q229.098 1675.85 232.292 1678.54 Q235.487 1681.22 235.487 1685.72 Q235.487 1687.84 234.676 1689.77 Q233.889 1691.66 231.783 1694.26 Q231.204 1694.93 228.102 1698.15 Q225.001 1701.34 219.352 1707.1 Z" fill="#000000" fill-rule="evenodd" fill-opacity="1" /><path clip-path="url(#clip8600)" d="M 0 0 M240.788 1676.48 L259.144 1676.48 L259.144 1680.41 L245.07 1680.41 L245.07 1688.89 Q246.088 1688.54 247.107 1688.38 Q248.125 1688.19 249.144 1688.19 Q254.931 1688.19 258.311 1691.36 Q261.69 1694.53 261.69 1699.95 Q261.69 1705.53 258.218 1708.63 Q254.746 1711.71 248.426 1711.71 Q246.25 1711.71 243.982 1711.34 Q241.737 1710.97 239.329 1710.23 L239.329 1705.53 Q241.413 1706.66 243.635 1707.22 Q245.857 1707.78 248.334 1707.78 Q252.338 1707.78 254.676 1705.67 Q257.014 1703.56 257.014 1699.95 Q257.014 1696.34 254.676 1694.23 Q252.338 1692.13 248.334 1692.13 Q246.459 1692.13 244.584 1692.54 Q242.732 1692.96 240.788 1693.84 L240.788 1676.48 Z" fill="#000000" fill-rule="evenodd" fill-opacity="1" /><path clip-path="url(#clip8600)" d="M 0 0 M158.751 1240.32 Q155.14 1240.32 153.311 1243.88 Q151.506 1247.42 151.506 1254.55 Q151.506 1261.66 153.311 1265.22 Q155.14 1268.77 158.751 1268.77 Q162.385 1268.77 164.191 1265.22 Q166.019 1261.66 166.019 1254.55 Q166.019 1247.42 164.191 1243.88 Q162.385 1240.32 158.751 1240.32 M158.751 1236.61 Q164.561 1236.61 167.617 1241.22 Q170.695 1245.8 170.695 1254.55 Q170.695 1263.28 167.617 1267.89 Q164.561 1272.47 158.751 1272.47 Q152.941 1272.47 149.862 1267.89 Q146.807 1263.28 146.807 1254.55 Q146.807 1245.8 149.862 1241.22 Q152.941 1236.61 158.751 1236.61 Z" fill="#000000" fill-rule="evenodd" fill-opacity="1" /><path clip-path="url(#clip8600)" d="M 0 0 M175.765 1265.92 L180.649 1265.92 L180.649 1271.8 L175.765 1271.8 L175.765 1265.92 Z" fill="#000000" fill-rule="evenodd" fill-opacity="1" /><path clip-path="url(#clip8600)" d="M 0 0 M195.718 1240.32 Q192.107 1240.32 190.279 1243.88 Q188.473 1247.42 188.473 1254.55 Q188.473 1261.66 190.279 1265.22 Q192.107 1268.77 195.718 1268.77 Q199.353 1268.77 201.158 1265.22 Q202.987 1261.66 202.987 1254.55 Q202.987 1247.42 201.158 1243.88 Q199.353 1240.32 195.718 1240.32 M195.718 1236.61 Q201.528 1236.61 204.584 1241.22 Q207.663 1245.8 207.663 1254.55 Q207.663 1263.28 204.584 1267.89 Q201.528 1272.47 195.718 1272.47 Q189.908 1272.47 186.829 1267.89 Q183.774 1263.28 183.774 1254.55 Q183.774 1245.8 186.829 1241.22 Q189.908 1236.61 195.718 1236.61 Z" fill="#000000" fill-rule="evenodd" fill-opacity="1" /><path clip-path="url(#clip8600)" d="M 0 0 M222.732 1240.32 Q219.121 1240.32 217.292 1243.88 Q215.487 1247.42 215.487 1254.55 Q215.487 1261.66 217.292 1265.22 Q219.121 1268.77 222.732 1268.77 Q226.366 1268.77 228.172 1265.22 Q230.001 1261.66 230.001 1254.55 Q230.001 1247.42 228.172 1243.88 Q226.366 1240.32 222.732 1240.32 M222.732 1236.61 Q228.542 1236.61 231.598 1241.22 Q234.676 1245.8 234.676 1254.55 Q234.676 1263.28 231.598 1267.89 Q228.542 1272.47 222.732 1272.47 Q216.922 1272.47 213.843 1267.89 Q210.788 1263.28 210.788 1254.55 Q210.788 1245.8 213.843 1241.22 Q216.922 1236.61 222.732 1236.61 Z" fill="#000000" fill-rule="evenodd" fill-opacity="1" /><path clip-path="url(#clip8600)" d="M 0 0 M249.746 1240.32 Q246.135 1240.32 244.306 1243.88 Q242.5 1247.42 242.5 1254.55 Q242.5 1261.66 244.306 1265.22 Q246.135 1268.77 249.746 1268.77 Q253.38 1268.77 255.186 1265.22 Q257.014 1261.66 257.014 1254.55 Q257.014 1247.42 255.186 1243.88 Q253.38 1240.32 249.746 1240.32 M249.746 1236.61 Q255.556 1236.61 258.612 1241.22 Q261.69 1245.8 261.69 1254.55 Q261.69 1263.28 258.612 1267.89 Q255.556 1272.47 249.746 1272.47 Q243.936 1272.47 240.857 1267.89 Q237.801 1263.28 237.801 1254.55 Q237.801 1245.8 240.857 1241.22 Q243.936 1236.61 249.746 1236.61 Z" fill="#000000" fill-rule="evenodd" fill-opacity="1" /><path clip-path="url(#clip8600)" d="M 0 0 M161.344 801.075 Q157.732 801.075 155.904 804.64 Q154.098 808.182 154.098 815.311 Q154.098 822.418 155.904 825.983 Q157.732 829.524 161.344 829.524 Q164.978 829.524 166.783 825.983 Q168.612 822.418 168.612 815.311 Q168.612 808.182 166.783 804.64 Q164.978 801.075 161.344 801.075 M161.344 797.372 Q167.154 797.372 170.209 801.978 Q173.288 806.562 173.288 815.311 Q173.288 824.038 170.209 828.645 Q167.154 833.228 161.344 833.228 Q155.533 833.228 152.455 828.645 Q149.399 824.038 149.399 815.311 Q149.399 806.562 152.455 801.978 Q155.533 797.372 161.344 797.372 Z" fill="#000000" fill-rule="evenodd" fill-opacity="1" /><path clip-path="url(#clip8600)" d="M 0 0 M178.357 826.677 L183.242 826.677 L183.242 832.557 L178.357 832.557 L178.357 826.677 Z" fill="#000000" fill-rule="evenodd" fill-opacity="1" /><path clip-path="url(#clip8600)" d="M 0 0 M198.311 801.075 Q194.7 801.075 192.871 804.64 Q191.066 808.182 191.066 815.311 Q191.066 822.418 192.871 825.983 Q194.7 829.524 198.311 829.524 Q201.945 829.524 203.751 825.983 Q205.579 822.418 205.579 815.311 Q205.579 808.182 203.751 804.64 Q201.945 801.075 198.311 801.075 M198.311 797.372 Q204.121 797.372 207.177 801.978 Q210.255 806.562 210.255 815.311 Q210.255 824.038 207.177 828.645 Q204.121 833.228 198.311 833.228 Q192.501 833.228 189.422 828.645 Q186.367 824.038 186.367 815.311 Q186.367 806.562 189.422 801.978 Q192.501 797.372 198.311 797.372 Z" fill="#000000" fill-rule="evenodd" fill-opacity="1" /><path clip-path="url(#clip8600)" d="M 0 0 M219.352 828.622 L235.672 828.622 L235.672 832.557 L213.727 832.557 L213.727 828.622 Q216.39 825.867 220.973 821.237 Q225.579 816.585 226.76 815.242 Q229.005 812.719 229.885 810.983 Q230.788 809.224 230.788 807.534 Q230.788 804.779 228.843 803.043 Q226.922 801.307 223.82 801.307 Q221.621 801.307 219.167 802.071 Q216.737 802.835 213.959 804.386 L213.959 799.663 Q216.783 798.529 219.237 797.95 Q221.69 797.372 223.727 797.372 Q229.098 797.372 232.292 800.057 Q235.487 802.742 235.487 807.233 Q235.487 809.362 234.676 811.284 Q233.889 813.182 231.783 815.774 Q231.204 816.446 228.102 819.663 Q225.001 822.858 219.352 828.622 Z" fill="#000000" fill-rule="evenodd" fill-opacity="1" /><path clip-path="url(#clip8600)" d="M 0 0 M240.788 797.997 L259.144 797.997 L259.144 801.932 L245.07 801.932 L245.07 810.404 Q246.088 810.057 247.107 809.895 Q248.125 809.71 249.144 809.71 Q254.931 809.71 258.311 812.881 Q261.69 816.052 261.69 821.469 Q261.69 827.048 258.218 830.149 Q254.746 833.228 248.426 833.228 Q246.25 833.228 243.982 832.858 Q241.737 832.487 239.329 831.747 L239.329 827.048 Q241.413 828.182 243.635 828.737 Q245.857 829.293 248.334 829.293 Q252.338 829.293 254.676 827.186 Q257.014 825.08 257.014 821.469 Q257.014 817.858 254.676 815.751 Q252.338 813.645 248.334 813.645 Q246.459 813.645 244.584 814.061 Q242.732 814.478 240.788 815.358 L240.788 797.997 Z" fill="#000000" fill-rule="evenodd" fill-opacity="1" /><path clip-path="url(#clip8600)" d="M 0 0 M159.746 361.834 Q156.135 361.834 154.307 365.399 Q152.501 368.941 152.501 376.07 Q152.501 383.177 154.307 386.742 Q156.135 390.283 159.746 390.283 Q163.381 390.283 165.186 386.742 Q167.015 383.177 167.015 376.07 Q167.015 368.941 165.186 365.399 Q163.381 361.834 159.746 361.834 M159.746 358.131 Q165.556 358.131 168.612 362.737 Q171.691 367.32 171.691 376.07 Q171.691 384.797 168.612 389.404 Q165.556 393.987 159.746 393.987 Q153.936 393.987 150.857 389.404 Q147.802 384.797 147.802 376.07 Q147.802 367.32 150.857 362.737 Q153.936 358.131 159.746 358.131 Z" fill="#000000" fill-rule="evenodd" fill-opacity="1" /><path clip-path="url(#clip8600)" d="M 0 0 M176.76 387.436 L181.644 387.436 L181.644 393.316 L176.76 393.316 L176.76 387.436 Z" fill="#000000" fill-rule="evenodd" fill-opacity="1" /><path clip-path="url(#clip8600)" d="M 0 0 M196.714 361.834 Q193.103 361.834 191.274 365.399 Q189.468 368.941 189.468 376.07 Q189.468 383.177 191.274 386.742 Q193.103 390.283 196.714 390.283 Q200.348 390.283 202.153 386.742 Q203.982 383.177 203.982 376.07 Q203.982 368.941 202.153 365.399 Q200.348 361.834 196.714 361.834 M196.714 358.131 Q202.524 358.131 205.579 362.737 Q208.658 367.32 208.658 376.07 Q208.658 384.797 205.579 389.404 Q202.524 393.987 196.714 393.987 Q190.904 393.987 187.825 389.404 Q184.769 384.797 184.769 376.07 Q184.769 367.32 187.825 362.737 Q190.904 358.131 196.714 358.131 Z" fill="#000000" fill-rule="evenodd" fill-opacity="1" /><path clip-path="url(#clip8600)" d="M 0 0 M213.774 358.756 L232.13 358.756 L232.13 362.691 L218.056 362.691 L218.056 371.163 Q219.075 370.816 220.093 370.654 Q221.112 370.468 222.13 370.468 Q227.917 370.468 231.297 373.64 Q234.676 376.811 234.676 382.228 Q234.676 387.806 231.204 390.908 Q227.732 393.987 221.413 393.987 Q219.237 393.987 216.968 393.616 Q214.723 393.246 212.315 392.505 L212.315 387.806 Q214.399 388.941 216.621 389.496 Q218.843 390.052 221.32 390.052 Q225.325 390.052 227.663 387.945 Q230.001 385.839 230.001 382.228 Q230.001 378.617 227.663 376.51 Q225.325 374.404 221.32 374.404 Q219.445 374.404 217.57 374.82 Q215.718 375.237 213.774 376.117 L213.774 358.756 Z" fill="#000000" fill-rule="evenodd" fill-opacity="1" /><path clip-path="url(#clip8600)" d="M 0 0 M249.746 361.834 Q246.135 361.834 244.306 365.399 Q242.5 368.941 242.5 376.07 Q242.5 383.177 244.306 386.742 Q246.135 390.283 249.746 390.283 Q253.38 390.283 255.186 386.742 Q257.014 383.177 257.014 376.07 Q257.014 368.941 255.186 365.399 Q253.38 361.834 249.746 361.834 M249.746 358.131 Q255.556 358.131 258.612 362.737 Q261.69 367.32 261.69 376.07 Q261.69 384.797 258.612 389.404 Q255.556 393.987 249.746 393.987 Q243.936 393.987 240.857 389.404 Q237.801 384.797 237.801 376.07 Q237.801 367.32 240.857 362.737 Q243.936 358.131 249.746 358.131 Z" fill="#000000" fill-rule="evenodd" fill-opacity="1" /><path clip-path="url(#clip8600)" d="M 0 0 M630.415 12.096 L638.598 12.096 L638.598 36.8875 L668.331 36.8875 L668.331 12.096 L676.514 12.096 L676.514 72.576 L668.331 72.576 L668.331 43.7741 L638.598 43.7741 L638.598 72.576 L630.415 72.576 L630.415 12.096 Z" fill="#000000" fill-rule="evenodd" fill-opacity="1" /><path clip-path="url(#clip8600)" d="M 0 0 M701.913 32.4315 Q695.918 32.4315 692.434 37.1306 Q688.95 41.7891 688.95 49.9314 Q688.95 58.0738 692.394 62.7728 Q695.877 67.4314 701.913 67.4314 Q707.868 67.4314 711.352 62.7323 Q714.836 58.0333 714.836 49.9314 Q714.836 41.8701 711.352 37.1711 Q707.868 32.4315 701.913 32.4315 M701.913 26.1121 Q711.635 26.1121 717.185 32.4315 Q722.735 38.7509 722.735 49.9314 Q722.735 61.0714 717.185 67.4314 Q711.635 73.7508 701.913 73.7508 Q692.151 73.7508 686.601 67.4314 Q681.092 61.0714 681.092 49.9314 Q681.092 38.7509 686.601 32.4315 Q692.151 26.1121 701.913 26.1121 Z" fill="#000000" fill-rule="evenodd" fill-opacity="1" /><path clip-path="url(#clip8600)" d="M 0 0 M725.206 27.2059 L733.105 27.2059 L747.283 65.2844 L761.462 27.2059 L769.361 27.2059 L752.347 72.576 L742.22 72.576 L725.206 27.2059 Z" fill="#000000" fill-rule="evenodd" fill-opacity="1" /><path clip-path="url(#clip8600)" d="M 0 0 M815.987 48.0275 L815.987 51.6733 L781.716 51.6733 Q782.202 59.3701 786.334 63.421 Q790.507 67.4314 797.92 67.4314 Q802.214 67.4314 806.224 66.3781 Q810.275 65.3249 814.245 63.2184 L814.245 70.267 Q810.234 71.9684 806.022 72.8596 Q801.809 73.7508 797.474 73.7508 Q786.618 73.7508 780.258 67.4314 Q773.938 61.1119 773.938 50.3365 Q773.938 39.1965 779.934 32.6746 Q785.97 26.1121 796.178 26.1121 Q805.333 26.1121 810.64 32.0264 Q815.987 37.9003 815.987 48.0275 M808.533 45.84 Q808.452 39.7232 805.09 36.0774 Q801.768 32.4315 796.259 32.4315 Q790.02 32.4315 786.253 35.9558 Q782.526 39.4801 781.959 45.8805 L808.533 45.84 Z" fill="#000000" fill-rule="evenodd" fill-opacity="1" /><path clip-path="url(#clip8600)" d="M 0 0 M850.095 34.1734 Q848.84 33.4443 847.341 33.1202 Q845.882 32.7556 844.1 32.7556 Q837.781 32.7556 834.378 36.8875 Q831.016 40.9789 831.016 48.6757 L831.016 72.576 L823.521 72.576 L823.521 27.2059 L831.016 27.2059 L831.016 34.2544 Q833.365 30.1225 837.132 28.1376 Q840.9 26.1121 846.287 26.1121 Q847.057 26.1121 847.989 26.2337 Q848.921 26.3147 850.055 26.5172 L850.095 34.1734 Z" fill="#000000" fill-rule="evenodd" fill-opacity="1" /><path clip-path="url(#clip8600)" d="M 0 0 M857.914 27.2059 L865.367 27.2059 L865.367 72.576 L857.914 72.576 L857.914 27.2059 M857.914 9.54393 L865.367 9.54393 L865.367 18.9825 L857.914 18.9825 L857.914 9.54393 Z" fill="#000000" fill-rule="evenodd" fill-opacity="1" /><path clip-path="url(#clip8600)" d="M 0 0 M910.899 45.1919 L910.899 72.576 L903.446 72.576 L903.446 45.4349 Q903.446 38.994 900.934 35.7938 Q898.423 32.5936 893.4 32.5936 Q887.364 32.5936 883.88 36.4419 Q880.396 40.2903 880.396 46.9338 L880.396 72.576 L872.902 72.576 L872.902 27.2059 L880.396 27.2059 L880.396 34.2544 Q883.07 30.163 886.675 28.1376 Q890.321 26.1121 895.06 26.1121 Q902.879 26.1121 906.889 30.9732 Q910.899 35.7938 910.899 45.1919 Z" fill="#000000" fill-rule="evenodd" fill-opacity="1" /><path clip-path="url(#clip8600)" d="M 0 0 M948.573 49.3643 Q948.573 41.2625 945.211 36.8065 Q941.889 32.3505 935.853 32.3505 Q929.858 32.3505 926.495 36.8065 Q923.174 41.2625 923.174 49.3643 Q923.174 57.4256 926.495 61.8816 Q929.858 66.3376 935.853 66.3376 Q941.889 66.3376 945.211 61.8816 Q948.573 57.4256 948.573 49.3643 M956.026 66.9452 Q956.026 78.5308 950.882 84.1616 Q945.737 89.8329 935.124 89.8329 Q931.194 89.8329 927.711 89.2252 Q924.227 88.6581 920.946 87.4428 L920.946 80.1917 Q924.227 81.9741 927.427 82.8248 Q930.627 83.6755 933.949 83.6755 Q941.281 83.6755 944.927 79.8271 Q948.573 76.0193 948.573 68.282 L948.573 64.5957 Q946.264 68.6061 942.659 70.5911 Q939.053 72.576 934.03 72.576 Q925.685 72.576 920.581 66.2161 Q915.477 59.8562 915.477 49.3643 Q915.477 38.832 920.581 32.472 Q925.685 26.1121 934.03 26.1121 Q939.053 26.1121 942.659 28.0971 Q946.264 30.082 948.573 34.0924 L948.573 27.2059 L956.026 27.2059 L956.026 66.9452 Z" fill="#000000" fill-rule="evenodd" fill-opacity="1" /><path clip-path="url(#clip8600)" d="M 0 0 M985.882 27.2059 L993.335 27.2059 L1002.65 62.6108 L1011.93 27.2059 L1020.72 27.2059 L1030.04 62.6108 L1039.31 27.2059 L1046.77 27.2059 L1034.9 72.576 L1026.11 72.576 L1016.34 35.3887 L1006.54 72.576 L997.751 72.576 L985.882 27.2059 Z" fill="#000000" fill-rule="evenodd" fill-opacity="1" /><path clip-path="url(#clip8600)" d="M 0 0 M1054.58 27.2059 L1062.04 27.2059 L1062.04 72.576 L1054.58 72.576 L1054.58 27.2059 M1054.58 9.54393 L1062.04 9.54393 L1062.04 18.9825 L1054.58 18.9825 L1054.58 9.54393 Z" fill="#000000" fill-rule="evenodd" fill-opacity="1" /><path clip-path="url(#clip8600)" d="M 0 0 M1077.23 14.324 L1077.23 27.2059 L1092.58 27.2059 L1092.58 32.9987 L1077.23 32.9987 L1077.23 57.6282 Q1077.23 63.1779 1078.73 64.7578 Q1080.27 66.3376 1084.93 66.3376 L1092.58 66.3376 L1092.58 72.576 L1084.93 72.576 Q1076.3 72.576 1073.02 69.3758 Q1069.74 66.1351 1069.74 57.6282 L1069.74 32.9987 L1064.27 32.9987 L1064.27 27.2059 L1069.74 27.2059 L1069.74 14.324 L1077.23 14.324 Z" fill="#000000" fill-rule="evenodd" fill-opacity="1" /><path clip-path="url(#clip8600)" d="M 0 0 M1138.11 45.1919 L1138.11 72.576 L1130.66 72.576 L1130.66 45.4349 Q1130.66 38.994 1128.15 35.7938 Q1125.64 32.5936 1120.61 32.5936 Q1114.58 32.5936 1111.1 36.4419 Q1107.61 40.2903 1107.61 46.9338 L1107.61 72.576 L1100.12 72.576 L1100.12 9.54393 L1107.61 9.54393 L1107.61 34.2544 Q1110.28 30.163 1113.89 28.1376 Q1117.54 26.1121 1122.28 26.1121 Q1130.09 26.1121 1134.1 30.9732 Q1138.11 35.7938 1138.11 45.1919 Z" fill="#000000" fill-rule="evenodd" fill-opacity="1" /><path clip-path="url(#clip8600)" d="M 0 0 M1195.84 19.2256 L1175.18 51.5113 L1195.84 51.5113 L1195.84 19.2256 M1193.69 12.096 L1203.98 12.096 L1203.98 51.5113 L1212.61 51.5113 L1212.61 58.3168 L1203.98 58.3168 L1203.98 72.576 L1195.84 72.576 L1195.84 58.3168 L1168.54 58.3168 L1168.54 50.4176 L1193.69 12.096 Z" fill="#000000" fill-rule="evenodd" fill-opacity="1" /><path clip-path="url(#clip8600)" d="M 0 0 M1271.67 17.6457 Q1262.76 17.6457 1257.49 24.2892 Q1252.27 30.9327 1252.27 42.3968 Q1252.27 53.8203 1257.49 60.4638 Q1262.76 67.1073 1271.67 67.1073 Q1280.58 67.1073 1285.77 60.4638 Q1291 53.8203 1291 42.3968 Q1291 30.9327 1285.77 24.2892 Q1280.58 17.6457 1271.67 17.6457 M1283.14 71.4823 L1293.91 83.2704 L1284.03 83.2704 L1275.08 73.5887 Q1273.74 73.6697 1273.01 73.7103 Q1272.32 73.7508 1271.67 73.7508 Q1258.91 73.7508 1251.26 65.2439 Q1243.64 56.6965 1243.64 42.3968 Q1243.64 28.0566 1251.26 19.5497 Q1258.91 11.0023 1271.67 11.0023 Q1284.39 11.0023 1292.01 19.5497 Q1299.62 28.0566 1299.62 42.3968 Q1299.62 52.9291 1295.37 60.4233 Q1291.16 67.9175 1283.14 71.4823 Z" fill="#000000" fill-rule="evenodd" fill-opacity="1" /><path clip-path="url(#clip8600)" d="M 0 0 M1306.67 54.671 L1306.67 27.2059 L1314.13 27.2059 L1314.13 54.3874 Q1314.13 60.8284 1316.64 64.0691 Q1319.15 67.2693 1324.17 67.2693 Q1330.21 67.2693 1333.69 63.421 Q1337.22 59.5726 1337.22 52.9291 L1337.22 27.2059 L1344.67 27.2059 L1344.67 72.576 L1337.22 72.576 L1337.22 65.6084 Q1334.5 69.7404 1330.9 71.7658 Q1327.33 73.7508 1322.59 73.7508 Q1314.77 73.7508 1310.72 68.8897 Q1306.67 64.0286 1306.67 54.671 M1325.43 26.1121 L1325.43 26.1121 Z" fill="#000000" fill-rule="evenodd" fill-opacity="1" /><path clip-path="url(#clip8600)" d="M 0 0 M1373.11 49.7694 Q1364.07 49.7694 1360.59 51.8354 Q1357.11 53.9013 1357.11 58.8839 Q1357.11 62.8538 1359.7 65.2034 Q1362.33 67.5124 1366.83 67.5124 Q1373.03 67.5124 1376.75 63.1374 Q1380.52 58.7219 1380.52 51.4303 L1380.52 49.7694 L1373.11 49.7694 M1387.97 46.6907 L1387.97 72.576 L1380.52 72.576 L1380.52 65.6895 Q1377.97 69.8214 1374.16 71.8063 Q1370.35 73.7508 1364.84 73.7508 Q1357.88 73.7508 1353.74 69.8619 Q1349.65 65.9325 1349.65 59.3701 Q1349.65 51.7138 1354.76 47.825 Q1359.9 43.9361 1370.07 43.9361 L1380.52 43.9361 L1380.52 43.2069 Q1380.52 38.0623 1377.12 35.2672 Q1373.76 32.4315 1367.64 32.4315 Q1363.75 32.4315 1360.06 33.3632 Q1356.38 34.295 1352.97 36.1584 L1352.97 29.2718 Q1357.07 27.692 1360.91 26.9223 Q1364.76 26.1121 1368.41 26.1121 Q1378.25 26.1121 1383.11 31.2163 Q1387.97 36.3204 1387.97 46.6907 Z" fill="#000000" fill-rule="evenodd" fill-opacity="1" /><path clip-path="url(#clip8600)" d="M 0 0 M1425.65 34.0924 L1425.65 9.54393 L1433.1 9.54393 L1433.1 72.576 L1425.65 72.576 L1425.65 65.7705 Q1423.3 69.8214 1419.69 71.8063 Q1416.13 73.7508 1411.11 73.7508 Q1402.88 73.7508 1397.7 67.1883 Q1392.55 60.6258 1392.55 49.9314 Q1392.55 39.2371 1397.7 32.6746 Q1402.88 26.1121 1411.11 26.1121 Q1416.13 26.1121 1419.69 28.0971 Q1423.3 30.0415 1425.65 34.0924 M1400.25 49.9314 Q1400.25 58.1548 1403.61 62.8538 Q1407.01 67.5124 1412.93 67.5124 Q1418.84 67.5124 1422.25 62.8538 Q1425.65 58.1548 1425.65 49.9314 Q1425.65 41.7081 1422.25 37.0496 Q1418.84 32.3505 1412.93 32.3505 Q1407.01 32.3505 1403.61 37.0496 Q1400.25 41.7081 1400.25 49.9314 Z" fill="#000000" fill-rule="evenodd" fill-opacity="1" /><path clip-path="url(#clip8600)" d="M 0 0 M1467.21 34.1734 Q1465.95 33.4443 1464.46 33.1202 Q1463 32.7556 1461.21 32.7556 Q1454.9 32.7556 1451.49 36.8875 Q1448.13 40.9789 1448.13 48.6757 L1448.13 72.576 L1440.64 72.576 L1440.64 27.2059 L1448.13 27.2059 L1448.13 34.2544 Q1450.48 30.1225 1454.25 28.1376 Q1458.01 26.1121 1463.4 26.1121 Q1464.17 26.1121 1465.1 26.2337 Q1466.04 26.3147 1467.17 26.5172 L1467.21 34.1734 Z" fill="#000000" fill-rule="evenodd" fill-opacity="1" /><path clip-path="url(#clip8600)" d="M 0 0 M1490.79 32.4315 Q1484.79 32.4315 1481.31 37.1306 Q1477.82 41.7891 1477.82 49.9314 Q1477.82 58.0738 1481.27 62.7728 Q1484.75 67.4314 1490.79 67.4314 Q1496.74 67.4314 1500.22 62.7323 Q1503.71 58.0333 1503.71 49.9314 Q1503.71 41.8701 1500.22 37.1711 Q1496.74 32.4315 1490.79 32.4315 M1490.79 26.1121 Q1500.51 26.1121 1506.06 32.4315 Q1511.61 38.7509 1511.61 49.9314 Q1511.61 61.0714 1506.06 67.4314 Q1500.51 73.7508 1490.79 73.7508 Q1481.02 73.7508 1475.47 67.4314 Q1469.96 61.0714 1469.96 49.9314 Q1469.96 38.7509 1475.47 32.4315 Q1481.02 26.1121 1490.79 26.1121 Z" fill="#000000" fill-rule="evenodd" fill-opacity="1" /><path clip-path="url(#clip8600)" d="M 0 0 M1526.8 14.324 L1526.8 27.2059 L1542.15 27.2059 L1542.15 32.9987 L1526.8 32.9987 L1526.8 57.6282 Q1526.8 63.1779 1528.3 64.7578 Q1529.84 66.3376 1534.5 66.3376 L1542.15 66.3376 L1542.15 72.576 L1534.5 72.576 Q1525.87 72.576 1522.59 69.3758 Q1519.3 66.1351 1519.3 57.6282 L1519.3 32.9987 L1513.84 32.9987 L1513.84 27.2059 L1519.3 27.2059 L1519.3 14.324 L1526.8 14.324 Z" fill="#000000" fill-rule="evenodd" fill-opacity="1" /><path clip-path="url(#clip8600)" d="M 0 0 M1567.55 32.4315 Q1561.56 32.4315 1558.07 37.1306 Q1554.59 41.7891 1554.59 49.9314 Q1554.59 58.0738 1558.03 62.7728 Q1561.52 67.4314 1567.55 67.4314 Q1573.51 67.4314 1576.99 62.7323 Q1580.47 58.0333 1580.47 49.9314 Q1580.47 41.8701 1576.99 37.1711 Q1573.51 32.4315 1567.55 32.4315 M1567.55 26.1121 Q1577.27 26.1121 1582.82 32.4315 Q1588.37 38.7509 1588.37 49.9314 Q1588.37 61.0714 1582.82 67.4314 Q1577.27 73.7508 1567.55 73.7508 Q1557.79 73.7508 1552.24 67.4314 Q1546.73 61.0714 1546.73 49.9314 Q1546.73 38.7509 1552.24 32.4315 Q1557.79 26.1121 1567.55 26.1121 Z" fill="#000000" fill-rule="evenodd" fill-opacity="1" /><path clip-path="url(#clip8600)" d="M 0 0 M1622.48 34.1734 Q1621.23 33.4443 1619.73 33.1202 Q1618.27 32.7556 1616.49 32.7556 Q1610.17 32.7556 1606.76 36.8875 Q1603.4 40.9789 1603.4 48.6757 L1603.4 72.576 L1595.91 72.576 L1595.91 27.2059 L1603.4 27.2059 L1603.4 34.2544 Q1605.75 30.1225 1609.52 28.1376 Q1613.29 26.1121 1618.67 26.1121 Q1619.44 26.1121 1620.37 26.2337 Q1621.31 26.3147 1622.44 26.5172 L1622.48 34.1734 Z" fill="#000000" fill-rule="evenodd" fill-opacity="1" /><path clip-path="url(#clip8600)" d="M 0 0 M1659.22 28.5427 L1659.22 35.5912 Q1656.06 33.9709 1652.66 33.1607 Q1649.26 32.3505 1645.61 32.3505 Q1640.06 32.3505 1637.27 34.0519 Q1634.51 35.7533 1634.51 39.156 Q1634.51 41.7486 1636.5 43.2475 Q1638.48 44.7058 1644.48 46.0426 L1647.03 46.6097 Q1654.97 48.3111 1658.29 51.4303 Q1661.65 54.509 1661.65 60.0587 Q1661.65 66.3781 1656.63 70.0644 Q1651.65 73.7508 1642.9 73.7508 Q1639.25 73.7508 1635.28 73.0216 Q1631.35 72.3329 1626.98 70.9151 L1626.98 63.2184 Q1631.11 65.3654 1635.12 66.4591 Q1639.13 67.5124 1643.06 67.5124 Q1648.33 67.5124 1651.16 65.73 Q1654 63.9071 1654 60.6258 Q1654 57.5877 1651.93 55.9673 Q1649.91 54.3469 1642.98 52.8481 L1640.39 52.2405 Q1633.46 50.7821 1630.38 47.7845 Q1627.3 44.7463 1627.3 39.4801 Q1627.3 33.0797 1631.84 29.5959 Q1636.38 26.1121 1644.72 26.1121 Q1648.85 26.1121 1652.5 26.7198 Q1656.14 27.3274 1659.22 28.5427 Z" fill="#000000" fill-rule="evenodd" fill-opacity="1" /><path clip-path="url(#clip8600)" d="M 0 0 M1692.08 46.5287 L1713.91 46.5287 L1713.91 53.1722 L1692.08 53.1722 L1692.08 46.5287 Z" fill="#000000" fill-rule="evenodd" fill-opacity="1" /><path clip-path="url(#clip8600)" d="M 0 0 M1768.64 20.1573 L1757.54 50.2555 L1779.78 50.2555 L1768.64 20.1573 M1764.02 12.096 L1773.3 12.096 L1796.35 72.576 L1787.84 72.576 L1782.33 57.061 L1755.07 57.061 L1749.56 72.576 L1740.93 72.576 L1764.02 12.096 Z" fill="#000000" fill-rule="evenodd" fill-opacity="1" /><path clip-path="url(#clip8600)" d="M 0 0 M1834.02 49.3643 Q1834.02 41.2625 1830.66 36.8065 Q1827.34 32.3505 1821.3 32.3505 Q1815.3 32.3505 1811.94 36.8065 Q1808.62 41.2625 1808.62 49.3643 Q1808.62 57.4256 1811.94 61.8816 Q1815.3 66.3376 1821.3 66.3376 Q1827.34 66.3376 1830.66 61.8816 Q1834.02 57.4256 1834.02 49.3643 M1841.47 66.9452 Q1841.47 78.5308 1836.33 84.1616 Q1831.18 89.8329 1820.57 89.8329 Q1816.64 89.8329 1813.16 89.2252 Q1809.67 88.6581 1806.39 87.4428 L1806.39 80.1917 Q1809.67 81.9741 1812.87 82.8248 Q1816.07 83.6755 1819.4 83.6755 Q1826.73 83.6755 1830.37 79.8271 Q1834.02 76.0193 1834.02 68.282 L1834.02 64.5957 Q1831.71 68.6061 1828.11 70.5911 Q1824.5 72.576 1819.48 72.576 Q1811.13 72.576 1806.03 66.2161 Q1800.92 59.8562 1800.92 49.3643 Q1800.92 38.832 1806.03 32.472 Q1811.13 26.1121 1819.48 26.1121 Q1824.5 26.1121 1828.11 28.0971 Q1831.71 30.082 1834.02 34.0924 L1834.02 27.2059 L1841.47 27.2059 L1841.47 66.9452 Z" fill="#000000" fill-rule="evenodd" fill-opacity="1" /><path clip-path="url(#clip8600)" d="M 0 0 M1888.1 48.0275 L1888.1 51.6733 L1853.83 51.6733 Q1854.31 59.3701 1858.45 63.421 Q1862.62 67.4314 1870.03 67.4314 Q1874.33 67.4314 1878.34 66.3781 Q1882.39 65.3249 1886.36 63.2184 L1886.36 70.267 Q1882.35 71.9684 1878.13 72.8596 Q1873.92 73.7508 1869.59 73.7508 Q1858.73 73.7508 1852.37 67.4314 Q1846.05 61.1119 1846.05 50.3365 Q1846.05 39.1965 1852.05 32.6746 Q1858.08 26.1121 1868.29 26.1121 Q1877.45 26.1121 1882.75 32.0264 Q1888.1 37.9003 1888.1 48.0275 M1880.65 45.84 Q1880.56 39.7232 1877.2 36.0774 Q1873.88 32.4315 1868.37 32.4315 Q1862.13 32.4315 1858.37 35.9558 Q1854.64 39.4801 1854.07 45.8805 L1880.65 45.84 Z" fill="#000000" fill-rule="evenodd" fill-opacity="1" /><path clip-path="url(#clip8600)" d="M 0 0 M1933.63 45.1919 L1933.63 72.576 L1926.18 72.576 L1926.18 45.4349 Q1926.18 38.994 1923.67 35.7938 Q1921.15 32.5936 1916.13 32.5936 Q1910.1 32.5936 1906.61 36.4419 Q1903.13 40.2903 1903.13 46.9338 L1903.13 72.576 L1895.63 72.576 L1895.63 27.2059 L1903.13 27.2059 L1903.13 34.2544 Q1905.8 30.163 1909.41 28.1376 Q1913.05 26.1121 1917.79 26.1121 Q1925.61 26.1121 1929.62 30.9732 Q1933.63 35.7938 1933.63 45.1919 Z" fill="#000000" fill-rule="evenodd" fill-opacity="1" /><path clip-path="url(#clip8600)" d="M 0 0 M1948.82 14.324 L1948.82 27.2059 L1964.18 27.2059 L1964.18 32.9987 L1948.82 32.9987 L1948.82 57.6282 Q1948.82 63.1779 1950.32 64.7578 Q1951.86 66.3376 1956.52 66.3376 L1964.18 66.3376 L1964.18 72.576 L1956.52 72.576 Q1947.89 72.576 1944.61 69.3758 Q1941.33 66.1351 1941.33 57.6282 L1941.33 32.9987 L1935.86 32.9987 L1935.86 27.2059 L1941.33 27.2059 L1941.33 14.324 L1948.82 14.324 Z" fill="#000000" fill-rule="evenodd" fill-opacity="1" /><path clip-path="url(#clip8600)" d="M 0 0 M2014.28 72.576 L1991.19 12.096 L1999.74 12.096 L2018.9 63.0159 L2038.1 12.096 L2046.61 12.096 L2023.56 72.576 L2014.28 72.576 Z" fill="#000000" fill-rule="evenodd" fill-opacity="1" /><path clip-path="url(#clip8600)" d="M 0 0 M2086.8 48.0275 L2086.8 51.6733 L2052.53 51.6733 Q2053.01 59.3701 2057.14 63.421 Q2061.32 67.4314 2068.73 67.4314 Q2073.02 67.4314 2077.03 66.3781 Q2081.08 65.3249 2085.05 63.2184 L2085.05 70.267 Q2081.04 71.9684 2076.83 72.8596 Q2072.62 73.7508 2068.28 73.7508 Q2057.43 73.7508 2051.07 67.4314 Q2044.75 61.1119 2044.75 50.3365 Q2044.75 39.1965 2050.74 32.6746 Q2056.78 26.1121 2066.99 26.1121 Q2076.14 26.1121 2081.45 32.0264 Q2086.8 37.9003 2086.8 48.0275 M2079.34 45.84 Q2079.26 39.7232 2075.9 36.0774 Q2072.58 32.4315 2067.07 32.4315 Q2060.83 32.4315 2057.06 35.9558 Q2053.34 39.4801 2052.77 45.8805 L2079.34 45.84 Z" fill="#000000" fill-rule="evenodd" fill-opacity="1" /><path clip-path="url(#clip8600)" d="M 0 0 M2094.61 9.54393 L2102.07 9.54393 L2102.07 72.576 L2094.61 72.576 L2094.61 9.54393 Z" fill="#000000" fill-rule="evenodd" fill-opacity="1" /><path clip-path="url(#clip8600)" d="M 0 0 M2127.47 32.4315 Q2121.47 32.4315 2117.99 37.1306 Q2114.5 41.7891 2114.5 49.9314 Q2114.5 58.0738 2117.95 62.7728 Q2121.43 67.4314 2127.47 67.4314 Q2133.42 67.4314 2136.91 62.7323 Q2140.39 58.0333 2140.39 49.9314 Q2140.39 41.8701 2136.91 37.1711 Q2133.42 32.4315 2127.47 32.4315 M2127.47 26.1121 Q2137.19 26.1121 2142.74 32.4315 Q2148.29 38.7509 2148.29 49.9314 Q2148.29 61.0714 2142.74 67.4314 Q2137.19 73.7508 2127.47 73.7508 Q2117.7 73.7508 2112.15 67.4314 Q2106.65 61.0714 2106.65 49.9314 Q2106.65 38.7509 2112.15 32.4315 Q2117.7 26.1121 2127.47 26.1121 Z" fill="#000000" fill-rule="evenodd" fill-opacity="1" /><path clip-path="url(#clip8600)" d="M 0 0 M2188.76 28.9478 L2188.76 35.9153 Q2185.6 34.1734 2182.4 33.3227 Q2179.24 32.4315 2176 32.4315 Q2168.75 32.4315 2164.74 37.0496 Q2160.72 41.6271 2160.72 49.9314 Q2160.72 58.2358 2164.74 62.8538 Q2168.75 67.4314 2176 67.4314 Q2179.24 67.4314 2182.4 66.5807 Q2185.6 65.6895 2188.76 63.9476 L2188.76 70.8341 Q2185.64 72.2924 2182.28 73.0216 Q2178.95 73.7508 2175.19 73.7508 Q2164.94 73.7508 2158.9 67.3098 Q2152.87 60.8689 2152.87 49.9314 Q2152.87 38.832 2158.94 32.472 Q2165.06 26.1121 2175.67 26.1121 Q2179.12 26.1121 2182.4 26.8413 Q2185.68 27.5299 2188.76 28.9478 Z" fill="#000000" fill-rule="evenodd" fill-opacity="1" /><path clip-path="url(#clip8600)" d="M 0 0 M2196.58 27.2059 L2204.03 27.2059 L2204.03 72.576 L2196.58 72.576 L2196.58 27.2059 M2196.58 9.54393 L2204.03 9.54393 L2204.03 18.9825 L2196.58 18.9825 L2196.58 9.54393 Z" fill="#000000" fill-rule="evenodd" fill-opacity="1" /><path clip-path="url(#clip8600)" d="M 0 0 M2219.22 14.324 L2219.22 27.2059 L2234.57 27.2059 L2234.57 32.9987 L2219.22 32.9987 L2219.22 57.6282 Q2219.22 63.1779 2220.72 64.7578 Q2222.26 66.3376 2226.92 66.3376 L2234.57 66.3376 L2234.57 72.576 L2226.92 72.576 Q2218.29 72.576 2215.01 69.3758 Q2211.73 66.1351 2211.73 57.6282 L2211.73 32.9987 L2206.26 32.9987 L2206.26 27.2059 L2211.73 27.2059 L2211.73 14.324 L2219.22 14.324 Z" fill="#000000" fill-rule="evenodd" fill-opacity="1" /><path clip-path="url(#clip8600)" d="M 0 0 M2261.27 76.7889 Q2258.11 84.8907 2255.11 87.3618 Q2252.11 89.8329 2247.09 89.8329 L2241.14 89.8329 L2241.14 83.5945 L2245.51 83.5945 Q2248.59 83.5945 2250.29 82.1361 Q2251.99 80.6778 2254.06 75.2496 L2255.39 71.8468 L2237.04 27.2059 L2244.94 27.2059 L2259.12 62.6918 L2273.3 27.2059 L2281.2 27.2059 L2261.27 76.7889 Z" fill="#000000" fill-rule="evenodd" fill-opacity="1" /><path clip-path="url(#clip8600)" d="M 0 0 M1337.64 2298.26 L1377.84 2298.26 L1377.84 2303.67 L1360.97 2303.67 L1360.97 2345.78 L1354.51 2345.78 L1354.51 2303.67 L1337.64 2303.67 L1337.64 2298.26 Z" fill="#000000" fill-rule="evenodd" fill-opacity="1" /><path clip-path="url(#clip8600)" d="M 0 0 M1381.98 2310.14 L1387.84 2310.14 L1387.84 2345.78 L1381.98 2345.78 L1381.98 2310.14 M1381.98 2296.26 L1387.84 2296.26 L1387.84 2303.67 L1381.98 2303.67 L1381.98 2296.26 Z" fill="#000000" fill-rule="evenodd" fill-opacity="1" /><path clip-path="url(#clip8600)" d="M 0 0 M1421.73 2316.98 Q1423.93 2313.03 1426.99 2311.15 Q1430.04 2309.28 1434.18 2309.28 Q1439.75 2309.28 1442.77 2313.19 Q1445.8 2317.07 1445.8 2324.27 L1445.8 2345.78 L1439.91 2345.78 L1439.91 2324.46 Q1439.91 2319.33 1438.09 2316.85 Q1436.28 2314.37 1432.56 2314.37 Q1428 2314.37 1425.36 2317.39 Q1422.72 2320.42 1422.72 2325.64 L1422.72 2345.78 L1416.83 2345.78 L1416.83 2324.46 Q1416.83 2319.3 1415.02 2316.85 Q1413.2 2314.37 1409.42 2314.37 Q1404.93 2314.37 1402.29 2317.42 Q1399.65 2320.45 1399.65 2325.64 L1399.65 2345.78 L1393.76 2345.78 L1393.76 2310.14 L1399.65 2310.14 L1399.65 2315.67 Q1401.65 2312.4 1404.45 2310.84 Q1407.25 2309.28 1411.1 2309.28 Q1414.99 2309.28 1417.69 2311.25 Q1420.43 2313.22 1421.73 2316.98 Z" fill="#000000" fill-rule="evenodd" fill-opacity="1" /><path clip-path="url(#clip8600)" d="M 0 0 M1482.43 2326.5 L1482.43 2329.36 L1455.5 2329.36 Q1455.89 2335.41 1459.13 2338.59 Q1462.41 2341.74 1468.24 2341.74 Q1471.61 2341.74 1474.76 2340.91 Q1477.94 2340.09 1481.06 2338.43 L1481.06 2343.97 Q1477.91 2345.31 1474.6 2346.01 Q1471.29 2346.71 1467.89 2346.71 Q1459.36 2346.71 1454.36 2341.74 Q1449.39 2336.78 1449.39 2328.31 Q1449.39 2319.56 1454.1 2314.43 Q1458.85 2309.28 1466.87 2309.28 Q1474.06 2309.28 1478.23 2313.92 Q1482.43 2318.54 1482.43 2326.5 M1476.57 2324.78 Q1476.51 2319.97 1473.87 2317.11 Q1471.26 2314.24 1466.93 2314.24 Q1462.03 2314.24 1459.07 2317.01 Q1456.14 2319.78 1455.7 2324.81 L1476.57 2324.78 Z" fill="#000000" fill-rule="evenodd" fill-opacity="1" /><path clip-path="url(#clip8600)" d="M 0 0 M1523.36 2296.32 Q1519.1 2303.64 1517.03 2310.8 Q1514.96 2317.97 1514.96 2325.32 Q1514.96 2332.67 1517.03 2339.9 Q1519.13 2347.09 1523.36 2354.38 L1518.27 2354.38 Q1513.5 2346.9 1511.11 2339.67 Q1508.75 2332.45 1508.75 2325.32 Q1508.75 2318.22 1511.11 2311.03 Q1513.46 2303.83 1518.27 2296.32 L1523.36 2296.32 Z" fill="#000000" fill-rule="evenodd" fill-opacity="1" /><path clip-path="url(#clip8600)" d="M 0 0 M1552.23 2311.19 L1552.23 2316.72 Q1549.75 2315.45 1547.08 2314.81 Q1544.4 2314.18 1541.54 2314.18 Q1537.18 2314.18 1534.98 2315.51 Q1532.82 2316.85 1532.82 2319.53 Q1532.82 2321.56 1534.38 2322.74 Q1535.94 2323.89 1540.65 2324.94 L1542.65 2325.38 Q1548.89 2326.72 1551.5 2329.17 Q1554.14 2331.59 1554.14 2335.95 Q1554.14 2340.91 1550.19 2343.81 Q1546.28 2346.71 1539.4 2346.71 Q1536.54 2346.71 1533.42 2346.13 Q1530.33 2345.59 1526.9 2344.48 L1526.9 2338.43 Q1530.14 2340.12 1533.29 2340.98 Q1536.44 2341.81 1539.53 2341.81 Q1543.67 2341.81 1545.9 2340.4 Q1548.13 2338.97 1548.13 2336.39 Q1548.13 2334.01 1546.5 2332.73 Q1544.91 2331.46 1539.47 2330.28 L1537.43 2329.81 Q1531.99 2328.66 1529.57 2326.3 Q1527.15 2323.92 1527.15 2319.78 Q1527.15 2314.75 1530.72 2312.01 Q1534.28 2309.28 1540.84 2309.28 Q1544.08 2309.28 1546.95 2309.75 Q1549.81 2310.23 1552.23 2311.19 Z" fill="#000000" fill-rule="evenodd" fill-opacity="1" /><path clip-path="url(#clip8600)" d="M 0 0 M1559.36 2296.32 L1564.45 2296.32 Q1569.23 2303.83 1571.58 2311.03 Q1573.97 2318.22 1573.97 2325.32 Q1573.97 2332.45 1571.58 2339.67 Q1569.23 2346.9 1564.45 2354.38 L1559.36 2354.38 Q1563.59 2347.09 1565.66 2339.9 Q1567.76 2332.67 1567.76 2325.32 Q1567.76 2317.97 1565.66 2310.8 Q1563.59 2303.64 1559.36 2296.32 Z" fill="#000000" fill-rule="evenodd" fill-opacity="1" /><path clip-path="url(#clip8600)" d="M 0 0 M42.7847 1277.53 Q42.7847 1284.53 48.0045 1288.67 Q53.2244 1292.78 62.2319 1292.78 Q71.2075 1292.78 76.4274 1288.67 Q81.6473 1284.53 81.6473 1277.53 Q81.6473 1270.53 76.4274 1266.45 Q71.2075 1262.35 62.2319 1262.35 Q53.2244 1262.35 48.0045 1266.45 Q42.7847 1270.53 42.7847 1277.53 M85.0848 1268.52 L94.3469 1260.06 L94.3469 1267.82 L86.7399 1274.86 Q86.8035 1275.91 86.8354 1276.48 Q86.8672 1277.02 86.8672 1277.53 Q86.8672 1287.56 80.1832 1293.57 Q73.4674 1299.56 62.2319 1299.56 Q50.9646 1299.56 44.2806 1293.57 Q37.5648 1287.56 37.5648 1277.53 Q37.5648 1267.54 44.2806 1261.55 Q50.9646 1255.57 62.2319 1255.57 Q70.5073 1255.57 76.3956 1258.91 Q82.2839 1262.22 85.0848 1268.52 Z" fill="#000000" fill-rule="evenodd" fill-opacity="1" /><path clip-path="url(#clip8600)" d="M 0 0 M36.419 1274.86 L36.419 1269 L43.835 1269 L43.835 1274.86 L36.419 1274.86 M49.4368 1271.86 L49.4368 1271.86 Z" fill="#000000" fill-rule="evenodd" fill-opacity="1" /><path clip-path="url(#clip8600)" d="M 0 0 M71.5577 1252.32 Q72.1306 1249.39 73.8811 1247.8 Q75.5999 1246.18 78.2098 1246.18 Q82.1566 1246.18 84.2891 1249.2 Q86.4216 1252.23 86.4216 1257.86 Q86.4216 1259.67 86.0715 1261.68 Q85.7532 1263.65 85.1166 1265.88 L81.2654 1265.88 Q82.1247 1264.23 82.5385 1262.35 Q82.9523 1260.44 82.9523 1258.31 Q82.9523 1254.84 81.711 1252.93 Q80.4378 1251.02 78.2098 1251.02 Q75.8545 1251.02 74.645 1252.8 Q73.4355 1254.55 73.4355 1257.99 L73.4355 1260.72 L69.9981 1260.72 L69.9981 1257.73 Q69.9981 1254.74 69.0114 1253.21 Q67.9929 1251.65 66.0832 1251.65 Q64.2371 1251.65 63.2822 1253.24 Q62.2956 1254.84 62.2956 1257.86 Q62.2956 1259.13 62.582 1260.76 Q62.8685 1262.38 63.6005 1264.96 L59.9402 1264.96 Q59.3992 1262.63 59.1127 1260.6 Q58.8262 1258.56 58.8262 1256.81 Q58.8262 1252.23 60.7041 1249.55 Q62.582 1246.85 65.733 1246.85 Q67.9292 1246.85 69.457 1248.28 Q70.9847 1249.71 71.5577 1252.32 Z" fill="#000000" fill-rule="evenodd" fill-opacity="1" /><path clip-path="url(#clip8600)" d="M 0 0 M36.4826 1205.25 Q43.8032 1209.51 50.9646 1211.58 Q58.126 1213.65 65.4784 1213.65 Q72.8308 1213.65 80.0559 1211.58 Q87.2491 1209.48 94.5379 1205.25 L94.5379 1210.34 Q87.0582 1215.11 79.8331 1217.5 Q72.608 1219.86 65.4784 1219.86 Q58.3806 1219.86 51.1874 1217.5 Q43.9942 1215.15 36.4826 1210.34 L36.4826 1205.25 Z" fill="#000000" fill-rule="evenodd" fill-opacity="1" /><path clip-path="url(#clip8600)" d="M 0 0 M55.7707 1178.45 Q55.1978 1179.43 54.9432 1180.61 Q54.6567 1181.76 54.6567 1183.16 Q54.6567 1188.12 57.9032 1190.8 Q61.1179 1193.44 67.1653 1193.44 L85.9442 1193.44 L85.9442 1199.33 L50.2962 1199.33 L50.2962 1193.44 L55.8344 1193.44 Q52.5879 1191.59 51.0283 1188.63 Q49.4368 1185.67 49.4368 1181.44 Q49.4368 1180.83 49.5323 1180.1 Q49.596 1179.37 49.7551 1178.48 L55.7707 1178.45 Z" fill="#000000" fill-rule="evenodd" fill-opacity="1" /><path clip-path="url(#clip8600)" d="M 0 0 M68.0247 1156.1 Q68.0247 1163.2 69.6479 1165.94 Q71.2712 1168.68 75.1861 1168.68 Q78.3053 1168.68 80.1514 1166.64 Q81.9656 1164.57 81.9656 1161.04 Q81.9656 1156.17 78.5281 1153.24 Q75.0588 1150.28 69.3297 1150.28 L68.0247 1150.28 L68.0247 1156.1 M65.6057 1144.42 L85.9442 1144.42 L85.9442 1150.28 L80.5333 1150.28 Q83.7798 1152.28 85.3394 1155.28 Q86.8672 1158.27 86.8672 1162.6 Q86.8672 1168.07 83.8116 1171.32 Q80.7243 1174.53 75.5681 1174.53 Q69.5525 1174.53 66.4969 1170.52 Q63.4414 1166.48 63.4414 1158.49 L63.4414 1150.28 L62.8685 1150.28 Q58.8262 1150.28 56.6301 1152.95 Q54.4021 1155.59 54.4021 1160.4 Q54.4021 1163.46 55.1341 1166.35 Q55.8662 1169.25 57.3303 1171.92 L51.9195 1171.92 Q50.6781 1168.71 50.0734 1165.68 Q49.4368 1162.66 49.4368 1159.8 Q49.4368 1152.06 53.4472 1148.24 Q57.4576 1144.42 65.6057 1144.42 Z" fill="#000000" fill-rule="evenodd" fill-opacity="1" /><path clip-path="url(#clip8600)" d="M 0 0 M55.7071 1114.82 L36.419 1114.82 L36.419 1108.97 L85.9442 1108.97 L85.9442 1114.82 L80.597 1114.82 Q83.7798 1116.67 85.3394 1119.5 Q86.8672 1122.3 86.8672 1126.25 Q86.8672 1132.71 81.711 1136.78 Q76.5547 1140.83 68.152 1140.83 Q59.7493 1140.83 54.5931 1136.78 Q49.4368 1132.71 49.4368 1126.25 Q49.4368 1122.3 50.9964 1119.5 Q52.5242 1116.67 55.7071 1114.82 M68.152 1134.78 Q74.6132 1134.78 78.3053 1132.14 Q81.9656 1129.46 81.9656 1124.82 Q81.9656 1120.17 78.3053 1117.5 Q74.6132 1114.82 68.152 1114.82 Q61.6908 1114.82 58.0305 1117.5 Q54.3384 1120.17 54.3384 1124.82 Q54.3384 1129.46 58.0305 1132.14 Q61.6908 1134.78 68.152 1134.78 Z" fill="#000000" fill-rule="evenodd" fill-opacity="1" /><path clip-path="url(#clip8600)" d="M 0 0 M38.4242 1092.42 L38.4242 1087 L91.9916 1103.56 L91.9916 1108.97 L38.4242 1092.42 Z" fill="#000000" fill-rule="evenodd" fill-opacity="1" /><path clip-path="url(#clip8600)" d="M 0 0 M51.3465 1058.14 L56.8847 1058.14 Q55.6116 1060.62 54.975 1063.29 Q54.3384 1065.97 54.3384 1068.83 Q54.3384 1073.19 55.6752 1075.39 Q57.012 1077.55 59.6856 1077.55 Q61.7226 1077.55 62.9003 1075.99 Q64.0461 1074.43 65.0965 1069.72 L65.5421 1067.72 Q66.8789 1061.48 69.3297 1058.87 Q71.7486 1056.23 76.1091 1056.23 Q81.0744 1056.23 83.9708 1060.17 Q86.8672 1064.09 86.8672 1070.96 Q86.8672 1073.83 86.2943 1076.95 Q85.7532 1080.03 84.6392 1083.47 L78.5918 1083.47 Q80.2787 1080.22 81.138 1077.07 Q81.9656 1073.92 81.9656 1070.84 Q81.9656 1066.7 80.5651 1064.47 Q79.1329 1062.24 76.5547 1062.24 Q74.1676 1062.24 72.8945 1063.86 Q71.6213 1065.46 70.4437 1070.9 L69.9662 1072.94 Q68.8204 1078.38 66.4651 1080.8 Q64.078 1083.22 59.9402 1083.22 Q54.9113 1083.22 52.1741 1079.65 Q49.4368 1076.09 49.4368 1069.53 Q49.4368 1066.28 49.9143 1063.42 Q50.3917 1060.55 51.3465 1058.14 Z" fill="#000000" fill-rule="evenodd" fill-opacity="1" /><path clip-path="url(#clip8600)" d="M 0 0 M36.4826 1051.01 L36.4826 1045.91 Q43.9942 1041.14 51.1874 1038.78 Q58.3806 1036.4 65.4784 1036.4 Q72.608 1036.4 79.8331 1038.78 Q87.0582 1041.14 94.5379 1045.91 L94.5379 1051.01 Q87.2491 1046.77 80.0559 1044.7 Q72.8308 1042.6 65.4784 1042.6 Q58.126 1042.6 50.9646 1044.7 Q43.8032 1046.77 36.4826 1051.01 Z" fill="#000000" fill-rule="evenodd" fill-opacity="1" /><polyline clip-path="url(#clip8602)" style="stroke:#009af9; stroke-width:16; stroke-opacity:1; fill:none" points="
  359.47,1254.52 370.434,1253.94 381.397,1257.24 392.36,1255.67 403.324,1255.8 414.287,1256.29 425.251,1256.26 436.214,1255.84 447.177,1255.42 458.141,1255.12 
  469.104,1254.95 480.067,1254.82 491.031,1254.74 501.994,1254.67 512.957,1254.62 523.921,1254.58 534.884,1254.55 545.848,1254.52 556.811,1254.5 567.774,1254.47 
  578.738,1254.45 589.701,1254.43 600.664,1254.42 611.628,1254.4 622.591,1254.38 633.554,1254.37 644.518,1254.35 655.481,1254.34 666.445,1254.33 677.408,1254.31 
  688.371,1254.31 699.335,1254.3 710.298,1254.29 721.261,1254.29 732.225,1254.29 743.188,1254.29 754.151,1254.29 765.115,1254.29 776.078,1254.3 787.042,1254.31 
  798.005,1254.32 808.968,1254.33 819.932,1254.34 830.895,1254.35 841.858,1254.36 852.822,1254.37 863.785,1254.39 874.748,1254.4 885.712,1254.41 896.675,1254.42 
  907.639,1254.43 918.602,1254.44 929.565,1254.46 940.529,1254.46 951.492,1254.48 962.455,1254.49 973.419,1254.5 984.382,1254.51 995.346,1254.53 1006.31,1254.54 
  1017.27,1254.56 1028.24,1254.57 1039.2,1254.6 1050.16,1254.61 1061.13,1254.66 1072.09,1254.66 1083.05,1254.73 1094.02,1254.54 1104.98,1254.72 1115.94,1254.73 
  1126.91,1254.69 1137.87,1254.69 1148.83,1254.66 1159.8,1254.66 1170.76,1254.63 1181.72,1254.63 1192.69,1254.6 1203.65,1254.6 1214.61,1254.58 1225.58,1254.58 
  1236.54,1254.57 1247.5,1254.56 1258.47,1254.55 1269.43,1254.55 1280.39,1254.54 1291.36,1254.54 1302.32,1254.54 1313.28,1254.53 1324.25,1254.53 1335.21,1254.53 
  1346.17,1254.53 1357.14,1254.53 1368.1,1254.52 1379.06,1254.52 1390.03,1254.52 1400.99,1254.52 1411.95,1254.52 1422.92,1254.52 1433.88,1254.52 1444.84,1254.52 
  1455.81,1254.52 1466.77,1254.52 1477.73,1254.52 1488.7,1254.52 1499.66,1254.52 1510.62,1254.53 1521.59,1254.53 1532.55,1254.53 1543.51,1254.53 1554.48,1254.53 
  1565.44,1254.53 1576.4,1254.53 1587.37,1254.53 1598.33,1254.53 1609.29,1254.53 1620.26,1254.53 1631.22,1254.53 1642.18,1254.53 1653.15,1254.53 1664.11,1254.53 
  1675.07,1254.53 1686.04,1254.53 1697,1254.53 1707.96,1254.53 1718.93,1254.53 1729.89,1254.53 1740.85,1254.53 1751.82,1254.53 1762.78,1254.53 1773.74,1254.53 
  1784.71,1254.53 1795.67,1254.53 1806.63,1254.53 1817.6,1254.53 1828.56,1254.53 1839.52,1254.53 1850.49,1254.53 1861.45,1254.53 1872.41,1254.53 1883.38,1254.53 
  1894.34,1254.53 1905.3,1254.53 1916.27,1254.53 1927.23,1254.53 1938.19,1254.53 1949.16,1254.53 1960.12,1254.53 1971.08,1254.53 1982.05,1254.53 1993.01,1254.52 
  2003.97,1254.52 2014.94,1254.52 2025.9,1254.52 2036.87,1254.52 2047.83,1254.52 2058.79,1254.52 2069.76,1254.52 2080.72,1254.52 2091.68,1254.52 2102.65,1254.52 
  2113.61,1254.52 2124.57,1254.52 2135.54,1254.52 2146.5,1254.52 2157.46,1254.52 2168.43,1254.52 2179.39,1254.52 2190.35,1254.52 2201.32,1254.52 2212.28,1254.52 
  2223.24,1254.52 2234.21,1254.52 2245.17,1254.52 2256.13,1254.52 2267.1,1254.52 2278.06,1254.52 2289.02,1254.52 2299.99,1254.52 2310.95,1254.52 2321.91,1254.52 
  2332.88,1254.52 2343.84,1254.52 2354.8,1254.52 2365.77,1254.52 2376.73,1254.52 2387.69,1254.52 2398.66,1254.52 2409.62,1254.52 2420.58,1254.52 2431.55,1254.52 
  2442.51,1254.52 2453.47,1254.52 2464.44,1254.52 2475.4,1254.52 2486.36,1254.52 2497.33,1254.52 2508.29,1254.52 2519.25,1254.52 2530.22,1254.52 2541.18,1254.52 
  2552.14,1254.52 
  "/>
<polyline clip-path="url(#clip8602)" style="stroke:#e26f46; stroke-width:16; stroke-opacity:1; fill:none" points="
  359.47,1254.52 370.434,1388.3 381.397,1336.71 392.36,1318.82 403.324,1294.7 414.287,1254.24 425.251,1250.84 436.214,1249.79 447.177,1251.64 458.141,1251.7 
  469.104,1252.04 480.067,1251.94 491.031,1251.93 501.994,1251.88 512.957,1251.84 523.921,1251.83 534.884,1251.83 545.848,1251.84 556.811,1251.89 567.774,1251.91 
  578.738,1251.98 589.701,1252.02 600.664,1252.1 611.628,1252.16 622.591,1252.24 633.554,1252.31 644.518,1252.39 655.481,1252.46 666.445,1252.54 677.408,1252.61 
  688.371,1252.69 699.335,1252.77 710.298,1252.84 721.261,1252.91 732.225,1252.99 743.188,1253.05 754.151,1253.12 765.115,1253.19 776.078,1253.25 787.042,1253.31 
  798.005,1253.37 808.968,1253.43 819.932,1253.49 830.895,1253.54 841.858,1253.59 852.822,1253.64 863.785,1253.69 874.748,1253.74 885.712,1253.79 896.675,1253.83 
  907.639,1253.88 918.602,1253.92 929.565,1253.96 940.529,1254 951.492,1254.04 962.455,1254.08 973.419,1254.12 984.382,1254.15 995.346,1254.19 1006.31,1254.22 
  1017.27,1254.25 1028.24,1254.28 1039.2,1254.31 1050.16,1254.34 1061.13,1254.36 1072.09,1254.38 1083.05,1254.4 1094.02,1254.51 1104.98,1254.43 1115.94,1254.43 
  1126.91,1254.44 1137.87,1254.45 1148.83,1254.46 1159.8,1254.47 1170.76,1254.47 1181.72,1254.48 1192.69,1254.48 1203.65,1254.48 1214.61,1254.49 1225.58,1254.49 
  1236.54,1254.49 1247.5,1254.49 1258.47,1254.49 1269.43,1254.49 1280.39,1254.49 1291.36,1254.49 1302.32,1254.49 1313.28,1254.49 1324.25,1254.49 1335.21,1254.49 
  1346.17,1254.49 1357.14,1254.49 1368.1,1254.49 1379.06,1254.49 1390.03,1254.49 1400.99,1254.49 1411.95,1254.49 1422.92,1254.49 1433.88,1254.49 1444.84,1254.49 
  1455.81,1254.49 1466.77,1254.49 1477.73,1254.49 1488.7,1254.49 1499.66,1254.49 1510.62,1254.49 1521.59,1254.49 1532.55,1254.49 1543.51,1254.49 1554.48,1254.49 
  1565.44,1254.49 1576.4,1254.49 1587.37,1254.49 1598.33,1254.49 1609.29,1254.49 1620.26,1254.5 1631.22,1254.5 1642.18,1254.5 1653.15,1254.5 1664.11,1254.5 
  1675.07,1254.5 1686.04,1254.5 1697,1254.5 1707.96,1254.5 1718.93,1254.5 1729.89,1254.5 1740.85,1254.5 1751.82,1254.5 1762.78,1254.5 1773.74,1254.5 
  1784.71,1254.5 1795.67,1254.5 1806.63,1254.5 1817.6,1254.5 1828.56,1254.5 1839.52,1254.5 1850.49,1254.5 1861.45,1254.5 1872.41,1254.5 1883.38,1254.51 
  1894.34,1254.51 1905.3,1254.51 1916.27,1254.51 1927.23,1254.51 1938.19,1254.51 1949.16,1254.51 1960.12,1254.51 1971.08,1254.51 1982.05,1254.51 1993.01,1254.51 
  2003.97,1254.51 2014.94,1254.51 2025.9,1254.51 2036.87,1254.51 2047.83,1254.51 2058.79,1254.51 2069.76,1254.51 2080.72,1254.51 2091.68,1254.51 2102.65,1254.51 
  2113.61,1254.51 2124.57,1254.51 2135.54,1254.51 2146.5,1254.51 2157.46,1254.51 2168.43,1254.51 2179.39,1254.51 2190.35,1254.51 2201.32,1254.52 2212.28,1254.52 
  2223.24,1254.52 2234.21,1254.52 2245.17,1254.52 2256.13,1254.52 2267.1,1254.52 2278.06,1254.52 2289.02,1254.52 2299.99,1254.52 2310.95,1254.52 2321.91,1254.52 
  2332.88,1254.52 2343.84,1254.52 2354.8,1254.52 2365.77,1254.52 2376.73,1254.52 2387.69,1254.52 2398.66,1254.52 2409.62,1254.52 2420.58,1254.52 2431.55,1254.52 
  2442.51,1254.52 2453.47,1254.52 2464.44,1254.52 2475.4,1254.52 2486.36,1254.52 2497.33,1254.52 2508.29,1254.52 2519.25,1254.52 2530.22,1254.52 2541.18,1254.52 
  2552.14,1254.52 
  "/>
<polyline clip-path="url(#clip8602)" style="stroke:#3da44d; stroke-width:16; stroke-opacity:1; fill:none" points="
  359.47,1254.52 370.434,1244.5 381.397,1250.58 392.36,1249.07 403.324,1250.88 414.287,1252.66 425.251,1253.96 436.214,1254.76 447.177,1255.24 458.141,1255.59 
  469.104,1255.87 480.067,1256.13 491.031,1256.36 501.994,1256.58 512.957,1256.78 523.921,1256.96 534.884,1257.12 545.848,1257.26 556.811,1257.37 567.774,1257.46 
  578.738,1257.53 589.701,1257.58 600.664,1257.62 611.628,1257.63 622.591,1257.63 633.554,1257.62 644.518,1257.59 655.481,1257.56 666.445,1257.51 677.408,1257.45 
  688.371,1257.38 699.335,1257.31 710.298,1257.23 721.261,1257.15 732.225,1257.05 743.188,1256.97 754.151,1256.86 765.115,1256.78 776.078,1256.67 787.042,1256.59 
  798.005,1256.48 808.968,1256.41 819.932,1256.31 830.895,1256.24 841.858,1256.14 852.822,1256.09 863.785,1256 874.748,1255.95 885.712,1255.87 896.675,1255.82 
  907.639,1255.75 918.602,1255.71 929.565,1255.63 940.529,1255.6 951.492,1255.52 962.455,1255.49 973.419,1255.41 984.382,1255.39 995.346,1255.3 1006.31,1255.27 
  1017.27,1255.17 1028.24,1255.15 1039.2,1255.03 1050.16,1255.01 1061.13,1254.87 1072.09,1254.85 1083.05,1254.68 1094.02,1254.54 1104.98,1254.63 1115.94,1254.63 
  1126.91,1254.61 1137.87,1254.6 1148.83,1254.58 1159.8,1254.58 1170.76,1254.56 1181.72,1254.55 1192.69,1254.54 1203.65,1254.53 1214.61,1254.52 1225.58,1254.51 
  1236.54,1254.5 1247.5,1254.49 1258.47,1254.49 1269.43,1254.48 1280.39,1254.47 1291.36,1254.47 1302.32,1254.47 1313.28,1254.46 1324.25,1254.46 1335.21,1254.46 
  1346.17,1254.46 1357.14,1254.45 1368.1,1254.45 1379.06,1254.45 1390.03,1254.45 1400.99,1254.45 1411.95,1254.45 1422.92,1254.45 1433.88,1254.46 1444.84,1254.46 
  1455.81,1254.46 1466.77,1254.46 1477.73,1254.46 1488.7,1254.46 1499.66,1254.46 1510.62,1254.47 1521.59,1254.47 1532.55,1254.47 1543.51,1254.47 1554.48,1254.47 
  1565.44,1254.48 1576.4,1254.48 1587.37,1254.48 1598.33,1254.48 1609.29,1254.48 1620.26,1254.49 1631.22,1254.49 1642.18,1254.49 1653.15,1254.49 1664.11,1254.49 
  1675.07,1254.5 1686.04,1254.5 1697,1254.5 1707.96,1254.5 1718.93,1254.5 1729.89,1254.5 1740.85,1254.5 1751.82,1254.5 1762.78,1254.51 1773.74,1254.51 
  1784.71,1254.51 1795.67,1254.51 1806.63,1254.51 1817.6,1254.51 1828.56,1254.51 1839.52,1254.51 1850.49,1254.51 1861.45,1254.51 1872.41,1254.51 1883.38,1254.51 
  1894.34,1254.51 1905.3,1254.51 1916.27,1254.51 1927.23,1254.51 1938.19,1254.51 1949.16,1254.51 1960.12,1254.51 1971.08,1254.51 1982.05,1254.51 1993.01,1254.51 
  2003.97,1254.51 2014.94,1254.51 2025.9,1254.51 2036.87,1254.51 2047.83,1254.51 2058.79,1254.51 2069.76,1254.51 2080.72,1254.51 2091.68,1254.51 2102.65,1254.51 
  2113.61,1254.52 2124.57,1254.52 2135.54,1254.52 2146.5,1254.52 2157.46,1254.52 2168.43,1254.52 2179.39,1254.52 2190.35,1254.52 2201.32,1254.52 2212.28,1254.52 
  2223.24,1254.52 2234.21,1254.52 2245.17,1254.52 2256.13,1254.52 2267.1,1254.52 2278.06,1254.52 2289.02,1254.52 2299.99,1254.52 2310.95,1254.52 2321.91,1254.52 
  2332.88,1254.52 2343.84,1254.52 2354.8,1254.52 2365.77,1254.52 2376.73,1254.52 2387.69,1254.52 2398.66,1254.52 2409.62,1254.52 2420.58,1254.52 2431.55,1254.52 
  2442.51,1254.52 2453.47,1254.52 2464.44,1254.52 2475.4,1254.52 2486.36,1254.52 2497.33,1254.52 2508.29,1254.52 2519.25,1254.52 2530.22,1254.52 2541.18,1254.52 
  2552.14,1254.52 
  "/>
<polyline clip-path="url(#clip8602)" style="stroke:#c271d2; stroke-width:16; stroke-opacity:1; fill:none" points="
  359.47,1254.52 370.434,1290.74 381.397,1279.29 392.36,1292 403.324,1278.53 414.287,1266.35 425.251,1267.17 436.214,1266.31 447.177,1271.31 458.141,1270.99 
  469.104,1274.43 480.067,1273.09 491.031,1275.01 501.994,1273.24 512.957,1274.2 523.921,1272.34 534.884,1272.64 545.848,1270.82 556.811,1270.66 567.774,1268.99 
  578.738,1268.54 589.701,1267.08 600.664,1266.49 611.628,1265.29 622.591,1264.68 633.554,1263.71 644.518,1263.14 655.481,1262.39 666.445,1261.89 677.408,1261.31 
  688.371,1260.89 699.335,1260.43 710.298,1260.07 721.261,1259.7 732.225,1259.4 743.188,1259.1 754.151,1258.84 765.115,1258.59 776.078,1258.37 787.042,1258.16 
  798.005,1257.97 808.968,1257.79 819.932,1257.62 830.895,1257.46 841.858,1257.31 852.822,1257.17 863.785,1257.04 874.748,1256.91 885.712,1256.79 896.675,1256.67 
  907.639,1256.56 918.602,1256.45 929.565,1256.34 940.529,1256.24 951.492,1256.13 962.455,1256.04 973.419,1255.93 984.382,1255.84 995.346,1255.73 1006.31,1255.65 
  1017.27,1255.54 1028.24,1255.45 1039.2,1255.34 1050.16,1255.26 1061.13,1255.14 1072.09,1255.06 1083.05,1254.93 1094.02,1254.56 1104.98,1254.83 1115.94,1254.83 
  1126.91,1254.8 1137.87,1254.78 1148.83,1254.76 1159.8,1254.74 1170.76,1254.72 1181.72,1254.7 1192.69,1254.68 1203.65,1254.67 1214.61,1254.65 1225.58,1254.64 
  1236.54,1254.62 1247.5,1254.61 1258.47,1254.6 1269.43,1254.59 1280.39,1254.58 1291.36,1254.57 1302.32,1254.56 1313.28,1254.56 1324.25,1254.55 1335.21,1254.55 
  1346.17,1254.54 1357.14,1254.54 1368.1,1254.53 1379.06,1254.53 1390.03,1254.53 1400.99,1254.53 1411.95,1254.52 1422.92,1254.52 1433.88,1254.52 1444.84,1254.52 
  1455.81,1254.52 1466.77,1254.52 1477.73,1254.52 1488.7,1254.52 1499.66,1254.52 1510.62,1254.52 1521.59,1254.52 1532.55,1254.52 1543.51,1254.53 1554.48,1254.53 
  1565.44,1254.53 1576.4,1254.53 1587.37,1254.53 1598.33,1254.53 1609.29,1254.53 1620.26,1254.53 1631.22,1254.53 1642.18,1254.53 1653.15,1254.53 1664.11,1254.53 
  1675.07,1254.53 1686.04,1254.53 1697,1254.53 1707.96,1254.53 1718.93,1254.53 1729.89,1254.54 1740.85,1254.54 1751.82,1254.54 1762.78,1254.54 1773.74,1254.54 
  1784.71,1254.54 1795.67,1254.54 1806.63,1254.54 1817.6,1254.54 1828.56,1254.54 1839.52,1254.54 1850.49,1254.54 1861.45,1254.53 1872.41,1254.53 1883.38,1254.53 
  1894.34,1254.53 1905.3,1254.53 1916.27,1254.53 1927.23,1254.53 1938.19,1254.53 1949.16,1254.53 1960.12,1254.53 1971.08,1254.53 1982.05,1254.53 1993.01,1254.53 
  2003.97,1254.53 2014.94,1254.53 2025.9,1254.53 2036.87,1254.53 2047.83,1254.53 2058.79,1254.53 2069.76,1254.53 2080.72,1254.53 2091.68,1254.53 2102.65,1254.53 
  2113.61,1254.53 2124.57,1254.53 2135.54,1254.52 2146.5,1254.52 2157.46,1254.52 2168.43,1254.52 2179.39,1254.52 2190.35,1254.52 2201.32,1254.52 2212.28,1254.52 
  2223.24,1254.52 2234.21,1254.52 2245.17,1254.52 2256.13,1254.52 2267.1,1254.52 2278.06,1254.52 2289.02,1254.52 2299.99,1254.52 2310.95,1254.52 2321.91,1254.52 
  2332.88,1254.52 2343.84,1254.52 2354.8,1254.52 2365.77,1254.52 2376.73,1254.52 2387.69,1254.52 2398.66,1254.52 2409.62,1254.52 2420.58,1254.52 2431.55,1254.52 
  2442.51,1254.52 2453.47,1254.52 2464.44,1254.52 2475.4,1254.52 2486.36,1254.52 2497.33,1254.52 2508.29,1254.52 2519.25,1254.52 2530.22,1254.52 2541.18,1254.52 
  2552.14,1254.52 
  "/>
<polyline clip-path="url(#clip8602)" style="stroke:#ac8d18; stroke-width:16; stroke-opacity:1; fill:none" points="
  359.47,1254.52 370.434,1254.52 381.397,1251.43 392.36,1145.75 403.324,591.036 414.287,189.727 425.251,375.468 436.214,802.798 447.177,1330.11 458.141,1666.85 
  469.104,1963.87 480.067,2052.52 491.031,2146.22 501.994,2081.94 512.957,2058.61 523.921,1917.27 534.884,1833.56 545.848,1664.1 556.811,1561.5 567.774,1401.83 
  578.738,1314.71 589.701,1193.58 600.664,1144.87 611.628,1075.86 622.591,1070.96 633.554,1049.8 644.518,1077.89 655.481,1087.98 666.445,1130.78 677.408,1152.96 
  688.371,1193.94 699.335,1213.64 710.298,1242.63 721.261,1252.04 732.225,1265.39 743.188,1262.46 754.151,1261.09 765.115,1247.3 776.078,1234.46 787.042,1212.92 
  798.005,1192.56 808.968,1166.67 819.932,1142.49 830.895,1115.24 841.858,1090.23 852.822,1063.93 863.785,1040.25 874.748,1016.5 885.712,995.587 896.675,975.359 
  907.639,958.058 918.602,941.842 929.565,928.528 940.529,916.455 951.492,907.184 962.455,899.144 973.419,893.769 984.382,889.517 995.346,887.788 1006.31,887.058 
  1017.27,888.758 1028.24,891.415 1039.2,896.549 1050.16,902.816 1061.13,911.847 1072.09,922.419 1083.05,935.874 1094.02,950.001 1104.98,964.331 1115.94,983.07 
  1126.91,1005.35 1137.87,1029.06 1148.83,1053.55 1159.8,1077.72 1170.76,1101.51 1181.72,1124.36 1192.69,1146.39 1203.65,1167.31 1214.61,1187.26 1225.58,1206.07 
  1236.54,1223.88 1247.5,1240.58 1258.47,1256.28 1269.43,1270.93 1280.39,1284.62 1291.36,1297.31 1302.32,1309.08 1313.28,1319.92 1324.25,1329.89 1335.21,1339 
  1346.17,1347.3 1357.14,1354.81 1368.1,1361.57 1379.06,1367.6 1390.03,1372.94 1400.99,1377.63 1411.95,1381.69 1422.92,1385.16 1433.88,1388.07 1444.84,1390.46 
  1455.81,1392.34 1466.77,1393.76 1477.73,1394.75 1488.7,1395.33 1499.66,1395.53 1510.62,1395.38 1521.59,1394.92 1532.55,1394.16 1543.51,1393.13 1554.48,1391.86 
  1565.44,1390.36 1576.4,1388.68 1587.37,1386.81 1598.33,1384.8 1609.29,1382.65 1620.26,1380.38 1631.22,1378.02 1642.18,1375.58 1653.15,1373.07 1664.11,1370.52 
  1675.07,1367.92 1686.04,1365.31 1697,1362.68 1707.96,1360.05 1718.93,1357.43 1729.89,1354.82 1740.85,1352.24 1751.82,1349.7 1762.78,1347.19 1773.74,1344.72 
  1784.71,1342.31 1795.67,1339.94 1806.63,1337.64 1817.6,1335.39 1828.56,1333.2 1839.52,1331.08 1850.49,1329.02 1861.45,1327.02 1872.41,1325.09 1883.38,1323.23 
  1894.34,1321.43 1905.3,1319.69 1916.27,1318.02 1927.23,1316.41 1938.19,1314.86 1949.16,1313.37 1960.12,1311.94 1971.08,1310.56 1982.05,1309.24 1993.01,1307.96 
  2003.97,1306.74 2014.94,1305.55 2025.9,1304.42 2036.87,1303.32 2047.83,1302.25 2058.79,1301.23 2069.76,1300.23 2080.72,1299.26 2091.68,1298.32 2102.65,1297.41 
  2113.61,1296.51 2124.57,1295.63 2135.54,1294.76 2146.5,1293.91 2157.46,1293.07 2168.43,1292.23 2179.39,1291.39 2190.35,1290.56 2201.32,1289.73 2212.28,1288.89 
  2223.24,1288.05 2234.21,1287.19 2245.17,1286.34 2256.13,1285.46 2267.1,1284.58 2278.06,1283.67 2289.02,1282.75 2299.99,1281.81 2310.95,1280.85 2321.91,1279.86 
  2332.88,1278.86 2343.84,1277.83 2354.8,1276.78 2365.77,1275.69 2376.73,1274.6 2387.69,1273.45 2398.66,1272.31 2409.62,1271.11 2420.58,1269.91 2431.55,1268.66 
  2442.51,1267.42 2453.47,1266.11 2464.44,1264.83 2475.4,1263.48 2486.36,1262.16 2497.33,1260.77 2508.29,1259.44 2519.25,1258.05 2530.22,1256.77 2541.18,1255.49 
  2552.14,1254.49 
  "/>
<path clip-path="url(#clip8600)" d="
M2713.92 625.432 L3184.76 625.432 L3184.76 262.552 L2713.92 262.552  Z
  " fill="#ffffff" fill-rule="evenodd" fill-opacity="1"/>
<polyline clip-path="url(#clip8600)" style="stroke:#000000; stroke-width:4; stroke-opacity:1; fill:none" points="
  2713.92,625.432 3184.76,625.432 3184.76,262.552 2713.92,262.552 2713.92,625.432 
  "/>
<polyline clip-path="url(#clip8600)" style="stroke:#009af9; stroke-width:16; stroke-opacity:1; fill:none" points="
  2745.92,323.032 2937.92,323.032 
  "/>
<path clip-path="url(#clip8600)" d="M 0 0 M2991.95 303.633 Q2984.95 303.633 2980.81 308.853 Q2976.7 314.072 2976.7 323.08 Q2976.7 332.056 2980.81 337.275 Q2984.95 342.495 2991.95 342.495 Q2998.95 342.495 3003.03 337.275 Q3007.13 332.056 3007.13 323.08 Q3007.13 314.072 3003.03 308.853 Q2998.95 303.633 2991.95 303.633 M3000.96 345.933 L3009.42 355.195 L3001.66 355.195 L2994.62 347.588 Q2993.57 347.651 2993 347.683 Q2992.46 347.715 2991.95 347.715 Q2981.92 347.715 2975.91 341.031 Q2969.92 334.315 2969.92 323.08 Q2969.92 311.813 2975.91 305.129 Q2981.92 298.413 2991.95 298.413 Q3001.94 298.413 3007.93 305.129 Q3013.91 311.813 3013.91 323.08 Q3013.91 331.355 3010.57 337.244 Q3007.26 343.132 3000.96 345.933 Z" fill="#000000" fill-rule="evenodd" fill-opacity="1" /><path clip-path="url(#clip8600)" d="M 0 0 M3019.45 332.724 L3019.45 311.144 L3025.31 311.144 L3025.31 332.501 Q3025.31 337.562 3027.28 340.108 Q3029.25 342.623 3033.2 342.623 Q3037.94 342.623 3040.68 339.599 Q3043.45 336.575 3043.45 331.355 L3043.45 311.144 L3049.3 311.144 L3049.3 346.792 L3043.45 346.792 L3043.45 341.318 Q3041.31 344.564 3038.48 346.156 Q3035.68 347.715 3031.96 347.715 Q3025.81 347.715 3022.63 343.896 Q3019.45 340.076 3019.45 332.724 M3034.19 310.285 L3034.19 310.285 Z" fill="#000000" fill-rule="evenodd" fill-opacity="1" /><path clip-path="url(#clip8600)" d="M 0 0 M3071.65 328.873 Q3064.55 328.873 3061.81 330.496 Q3059.08 332.119 3059.08 336.034 Q3059.08 339.153 3061.11 340.999 Q3063.18 342.814 3066.71 342.814 Q3071.58 342.814 3074.51 339.376 Q3077.47 335.907 3077.47 330.178 L3077.47 328.873 L3071.65 328.873 M3083.33 326.454 L3083.33 346.792 L3077.47 346.792 L3077.47 341.381 Q3075.47 344.628 3072.47 346.187 Q3069.48 347.715 3065.15 347.715 Q3059.68 347.715 3056.43 344.66 Q3053.22 341.572 3053.22 336.416 Q3053.22 330.4 3057.23 327.345 Q3061.27 324.289 3069.26 324.289 L3077.47 324.289 L3077.47 323.716 Q3077.47 319.674 3074.8 317.478 Q3072.16 315.25 3067.35 315.25 Q3064.29 315.25 3061.4 315.982 Q3058.5 316.714 3055.83 318.178 L3055.83 312.767 Q3059.04 311.526 3062.07 310.921 Q3065.09 310.285 3067.96 310.285 Q3075.69 310.285 3079.51 314.295 Q3083.33 318.306 3083.33 326.454 Z" fill="#000000" fill-rule="evenodd" fill-opacity="1" /><path clip-path="url(#clip8600)" d="M 0 0 M3112.93 316.555 L3112.93 297.267 L3118.79 297.267 L3118.79 346.792 L3112.93 346.792 L3112.93 341.445 Q3111.08 344.628 3108.25 346.187 Q3105.45 347.715 3101.5 347.715 Q3095.04 347.715 3090.97 342.559 Q3086.93 337.403 3086.93 329 Q3086.93 320.597 3090.97 315.441 Q3095.04 310.285 3101.5 310.285 Q3105.45 310.285 3108.25 311.844 Q3111.08 313.372 3112.93 316.555 M3092.97 329 Q3092.97 335.461 3095.61 339.153 Q3098.29 342.814 3102.93 342.814 Q3107.58 342.814 3110.26 339.153 Q3112.93 335.461 3112.93 329 Q3112.93 322.539 3110.26 318.879 Q3107.58 315.186 3102.93 315.186 Q3098.29 315.186 3095.61 318.879 Q3092.97 322.539 3092.97 329 Z" fill="#000000" fill-rule="evenodd" fill-opacity="1" /><path clip-path="url(#clip8600)" d="M 0 0 M3147.59 341.381 L3158.09 341.381 L3158.09 305.129 L3146.67 307.42 L3146.67 301.564 L3158.03 299.272 L3164.46 299.272 L3164.46 341.381 L3174.96 341.381 L3174.96 346.792 L3147.59 346.792 L3147.59 341.381 Z" fill="#000000" fill-rule="evenodd" fill-opacity="1" /><polyline clip-path="url(#clip8600)" style="stroke:#e26f46; stroke-width:16; stroke-opacity:1; fill:none" points="
  2745.92,383.512 2937.92,383.512 
  "/>
<path clip-path="url(#clip8600)" d="M 0 0 M2991.95 364.113 Q2984.95 364.113 2980.81 369.333 Q2976.7 374.552 2976.7 383.56 Q2976.7 392.536 2980.81 397.755 Q2984.95 402.975 2991.95 402.975 Q2998.95 402.975 3003.03 397.755 Q3007.13 392.536 3007.13 383.56 Q3007.13 374.552 3003.03 369.333 Q2998.95 364.113 2991.95 364.113 M3000.96 406.413 L3009.42 415.675 L3001.66 415.675 L2994.62 408.068 Q2993.57 408.131 2993 408.163 Q2992.46 408.195 2991.95 408.195 Q2981.92 408.195 2975.91 401.511 Q2969.92 394.795 2969.92 383.56 Q2969.92 372.293 2975.91 365.609 Q2981.92 358.893 2991.95 358.893 Q3001.94 358.893 3007.93 365.609 Q3013.91 372.293 3013.91 383.56 Q3013.91 391.835 3010.57 397.724 Q3007.26 403.612 3000.96 406.413 Z" fill="#000000" fill-rule="evenodd" fill-opacity="1" /><path clip-path="url(#clip8600)" d="M 0 0 M3019.45 393.204 L3019.45 371.624 L3025.31 371.624 L3025.31 392.981 Q3025.31 398.042 3027.28 400.588 Q3029.25 403.103 3033.2 403.103 Q3037.94 403.103 3040.68 400.079 Q3043.45 397.055 3043.45 391.835 L3043.45 371.624 L3049.3 371.624 L3049.3 407.272 L3043.45 407.272 L3043.45 401.798 Q3041.31 405.044 3038.48 406.636 Q3035.68 408.195 3031.96 408.195 Q3025.81 408.195 3022.63 404.376 Q3019.45 400.556 3019.45 393.204 M3034.19 370.765 L3034.19 370.765 Z" fill="#000000" fill-rule="evenodd" fill-opacity="1" /><path clip-path="url(#clip8600)" d="M 0 0 M3071.65 389.353 Q3064.55 389.353 3061.81 390.976 Q3059.08 392.599 3059.08 396.514 Q3059.08 399.633 3061.11 401.479 Q3063.18 403.294 3066.71 403.294 Q3071.58 403.294 3074.51 399.856 Q3077.47 396.387 3077.47 390.658 L3077.47 389.353 L3071.65 389.353 M3083.33 386.934 L3083.33 407.272 L3077.47 407.272 L3077.47 401.861 Q3075.47 405.108 3072.47 406.667 Q3069.48 408.195 3065.15 408.195 Q3059.68 408.195 3056.43 405.14 Q3053.22 402.052 3053.22 396.896 Q3053.22 390.88 3057.23 387.825 Q3061.27 384.769 3069.26 384.769 L3077.47 384.769 L3077.47 384.196 Q3077.47 380.154 3074.8 377.958 Q3072.16 375.73 3067.35 375.73 Q3064.29 375.73 3061.4 376.462 Q3058.5 377.194 3055.83 378.658 L3055.83 373.247 Q3059.04 372.006 3062.07 371.401 Q3065.09 370.765 3067.96 370.765 Q3075.69 370.765 3079.51 374.775 Q3083.33 378.786 3083.33 386.934 Z" fill="#000000" fill-rule="evenodd" fill-opacity="1" /><path clip-path="url(#clip8600)" d="M 0 0 M3112.93 377.035 L3112.93 357.747 L3118.79 357.747 L3118.79 407.272 L3112.93 407.272 L3112.93 401.925 Q3111.08 405.108 3108.25 406.667 Q3105.45 408.195 3101.5 408.195 Q3095.04 408.195 3090.97 403.039 Q3086.93 397.883 3086.93 389.48 Q3086.93 381.077 3090.97 375.921 Q3095.04 370.765 3101.5 370.765 Q3105.45 370.765 3108.25 372.324 Q3111.08 373.852 3112.93 377.035 M3092.97 389.48 Q3092.97 395.941 3095.61 399.633 Q3098.29 403.294 3102.93 403.294 Q3107.58 403.294 3110.26 399.633 Q3112.93 395.941 3112.93 389.48 Q3112.93 383.019 3110.26 379.359 Q3107.58 375.666 3102.93 375.666 Q3098.29 375.666 3095.61 379.359 Q3092.97 383.019 3092.97 389.48 Z" fill="#000000" fill-rule="evenodd" fill-opacity="1" /><path clip-path="url(#clip8600)" d="M 0 0 M3152.01 401.861 L3174.45 401.861 L3174.45 407.272 L3144.28 407.272 L3144.28 401.861 Q3147.94 398.074 3154.24 391.708 Q3160.58 385.31 3162.2 383.464 Q3165.29 379.995 3166.5 377.608 Q3167.74 375.189 3167.74 372.865 Q3167.74 369.078 3165.06 366.691 Q3162.42 364.304 3158.16 364.304 Q3155.13 364.304 3151.76 365.354 Q3148.42 366.404 3144.6 368.537 L3144.6 362.044 Q3148.48 360.484 3151.86 359.688 Q3155.23 358.893 3158.03 358.893 Q3165.41 358.893 3169.81 362.585 Q3174.2 366.277 3174.2 372.452 Q3174.2 375.38 3173.08 378.022 Q3172 380.632 3169.11 384.196 Q3168.31 385.119 3164.05 389.544 Q3159.78 393.936 3152.01 401.861 Z" fill="#000000" fill-rule="evenodd" fill-opacity="1" /><polyline clip-path="url(#clip8600)" style="stroke:#3da44d; stroke-width:16; stroke-opacity:1; fill:none" points="
  2745.92,443.992 2937.92,443.992 
  "/>
<path clip-path="url(#clip8600)" d="M 0 0 M2991.95 424.593 Q2984.95 424.593 2980.81 429.813 Q2976.7 435.032 2976.7 444.04 Q2976.7 453.016 2980.81 458.235 Q2984.95 463.455 2991.95 463.455 Q2998.95 463.455 3003.03 458.235 Q3007.13 453.016 3007.13 444.04 Q3007.13 435.032 3003.03 429.813 Q2998.95 424.593 2991.95 424.593 M3000.96 466.893 L3009.42 476.155 L3001.66 476.155 L2994.62 468.548 Q2993.57 468.611 2993 468.643 Q2992.46 468.675 2991.95 468.675 Q2981.92 468.675 2975.91 461.991 Q2969.92 455.275 2969.92 444.04 Q2969.92 432.773 2975.91 426.089 Q2981.92 419.373 2991.95 419.373 Q3001.94 419.373 3007.93 426.089 Q3013.91 432.773 3013.91 444.04 Q3013.91 452.315 3010.57 458.204 Q3007.26 464.092 3000.96 466.893 Z" fill="#000000" fill-rule="evenodd" fill-opacity="1" /><path clip-path="url(#clip8600)" d="M 0 0 M3019.45 453.684 L3019.45 432.104 L3025.31 432.104 L3025.31 453.461 Q3025.31 458.522 3027.28 461.068 Q3029.25 463.583 3033.2 463.583 Q3037.94 463.583 3040.68 460.559 Q3043.45 457.535 3043.45 452.315 L3043.45 432.104 L3049.3 432.104 L3049.3 467.752 L3043.45 467.752 L3043.45 462.278 Q3041.31 465.524 3038.48 467.116 Q3035.68 468.675 3031.96 468.675 Q3025.81 468.675 3022.63 464.856 Q3019.45 461.036 3019.45 453.684 M3034.19 431.245 L3034.19 431.245 Z" fill="#000000" fill-rule="evenodd" fill-opacity="1" /><path clip-path="url(#clip8600)" d="M 0 0 M3071.65 449.833 Q3064.55 449.833 3061.81 451.456 Q3059.08 453.079 3059.08 456.994 Q3059.08 460.113 3061.11 461.959 Q3063.18 463.774 3066.71 463.774 Q3071.58 463.774 3074.51 460.336 Q3077.47 456.867 3077.47 451.138 L3077.47 449.833 L3071.65 449.833 M3083.33 447.414 L3083.33 467.752 L3077.47 467.752 L3077.47 462.341 Q3075.47 465.588 3072.47 467.147 Q3069.48 468.675 3065.15 468.675 Q3059.68 468.675 3056.43 465.62 Q3053.22 462.532 3053.22 457.376 Q3053.22 451.36 3057.23 448.305 Q3061.27 445.249 3069.26 445.249 L3077.47 445.249 L3077.47 444.676 Q3077.47 440.634 3074.8 438.438 Q3072.16 436.21 3067.35 436.21 Q3064.29 436.21 3061.4 436.942 Q3058.5 437.674 3055.83 439.138 L3055.83 433.727 Q3059.04 432.486 3062.07 431.881 Q3065.09 431.245 3067.96 431.245 Q3075.69 431.245 3079.51 435.255 Q3083.33 439.266 3083.33 447.414 Z" fill="#000000" fill-rule="evenodd" fill-opacity="1" /><path clip-path="url(#clip8600)" d="M 0 0 M3112.93 437.515 L3112.93 418.227 L3118.79 418.227 L3118.79 467.752 L3112.93 467.752 L3112.93 462.405 Q3111.08 465.588 3108.25 467.147 Q3105.45 468.675 3101.5 468.675 Q3095.04 468.675 3090.97 463.519 Q3086.93 458.363 3086.93 449.96 Q3086.93 441.557 3090.97 436.401 Q3095.04 431.245 3101.5 431.245 Q3105.45 431.245 3108.25 432.804 Q3111.08 434.332 3112.93 437.515 M3092.97 449.96 Q3092.97 456.421 3095.61 460.113 Q3098.29 463.774 3102.93 463.774 Q3107.58 463.774 3110.26 460.113 Q3112.93 456.421 3112.93 449.96 Q3112.93 443.499 3110.26 439.839 Q3107.58 436.146 3102.93 436.146 Q3098.29 436.146 3095.61 439.839 Q3092.97 443.499 3092.97 449.96 Z" fill="#000000" fill-rule="evenodd" fill-opacity="1" /><path clip-path="url(#clip8600)" d="M 0 0 M3165.96 442.13 Q3170.57 443.117 3173.15 446.236 Q3175.76 449.355 3175.76 453.939 Q3175.76 460.973 3170.92 464.824 Q3166.08 468.675 3157.17 468.675 Q3154.18 468.675 3151 468.07 Q3147.84 467.497 3144.47 466.32 L3144.47 460.113 Q3147.14 461.673 3150.33 462.469 Q3153.51 463.264 3156.98 463.264 Q3163.03 463.264 3166.18 460.877 Q3169.36 458.49 3169.36 453.939 Q3169.36 449.737 3166.4 447.382 Q3163.47 444.995 3158.22 444.995 L3152.68 444.995 L3152.68 439.711 L3158.48 439.711 Q3163.22 439.711 3165.73 437.833 Q3168.25 435.924 3168.25 432.359 Q3168.25 428.699 3165.64 426.757 Q3163.06 424.784 3158.22 424.784 Q3155.58 424.784 3152.56 425.357 Q3149.53 425.929 3145.9 427.139 L3145.9 421.41 Q3149.56 420.391 3152.75 419.882 Q3155.96 419.373 3158.79 419.373 Q3166.11 419.373 3170.38 422.715 Q3174.64 426.025 3174.64 431.69 Q3174.64 435.637 3172.38 438.374 Q3170.12 441.08 3165.96 442.13 Z" fill="#000000" fill-rule="evenodd" fill-opacity="1" /><polyline clip-path="url(#clip8600)" style="stroke:#c271d2; stroke-width:16; stroke-opacity:1; fill:none" points="
  2745.92,504.472 2937.92,504.472 
  "/>
<path clip-path="url(#clip8600)" d="M 0 0 M2991.95 485.073 Q2984.95 485.073 2980.81 490.293 Q2976.7 495.512 2976.7 504.52 Q2976.7 513.496 2980.81 518.715 Q2984.95 523.935 2991.95 523.935 Q2998.95 523.935 3003.03 518.715 Q3007.13 513.496 3007.13 504.52 Q3007.13 495.512 3003.03 490.293 Q2998.95 485.073 2991.95 485.073 M3000.96 527.373 L3009.42 536.635 L3001.66 536.635 L2994.62 529.028 Q2993.57 529.091 2993 529.123 Q2992.46 529.155 2991.95 529.155 Q2981.92 529.155 2975.91 522.471 Q2969.92 515.755 2969.92 504.52 Q2969.92 493.253 2975.91 486.569 Q2981.92 479.853 2991.95 479.853 Q3001.94 479.853 3007.93 486.569 Q3013.91 493.253 3013.91 504.52 Q3013.91 512.795 3010.57 518.684 Q3007.26 524.572 3000.96 527.373 Z" fill="#000000" fill-rule="evenodd" fill-opacity="1" /><path clip-path="url(#clip8600)" d="M 0 0 M3019.45 514.164 L3019.45 492.584 L3025.31 492.584 L3025.31 513.941 Q3025.31 519.002 3027.28 521.548 Q3029.25 524.063 3033.2 524.063 Q3037.94 524.063 3040.68 521.039 Q3043.45 518.015 3043.45 512.795 L3043.45 492.584 L3049.3 492.584 L3049.3 528.232 L3043.45 528.232 L3043.45 522.758 Q3041.31 526.004 3038.48 527.596 Q3035.68 529.155 3031.96 529.155 Q3025.81 529.155 3022.63 525.336 Q3019.45 521.516 3019.45 514.164 M3034.19 491.725 L3034.19 491.725 Z" fill="#000000" fill-rule="evenodd" fill-opacity="1" /><path clip-path="url(#clip8600)" d="M 0 0 M3071.65 510.313 Q3064.55 510.313 3061.81 511.936 Q3059.08 513.559 3059.08 517.474 Q3059.08 520.593 3061.11 522.439 Q3063.18 524.254 3066.71 524.254 Q3071.58 524.254 3074.51 520.816 Q3077.47 517.347 3077.47 511.618 L3077.47 510.313 L3071.65 510.313 M3083.33 507.894 L3083.33 528.232 L3077.47 528.232 L3077.47 522.821 Q3075.47 526.068 3072.47 527.627 Q3069.48 529.155 3065.15 529.155 Q3059.68 529.155 3056.43 526.1 Q3053.22 523.012 3053.22 517.856 Q3053.22 511.84 3057.23 508.785 Q3061.27 505.729 3069.26 505.729 L3077.47 505.729 L3077.47 505.156 Q3077.47 501.114 3074.8 498.918 Q3072.16 496.69 3067.35 496.69 Q3064.29 496.69 3061.4 497.422 Q3058.5 498.154 3055.83 499.618 L3055.83 494.207 Q3059.04 492.966 3062.07 492.361 Q3065.09 491.725 3067.96 491.725 Q3075.69 491.725 3079.51 495.735 Q3083.33 499.746 3083.33 507.894 Z" fill="#000000" fill-rule="evenodd" fill-opacity="1" /><path clip-path="url(#clip8600)" d="M 0 0 M3112.93 497.995 L3112.93 478.707 L3118.79 478.707 L3118.79 528.232 L3112.93 528.232 L3112.93 522.885 Q3111.08 526.068 3108.25 527.627 Q3105.45 529.155 3101.5 529.155 Q3095.04 529.155 3090.97 523.999 Q3086.93 518.843 3086.93 510.44 Q3086.93 502.037 3090.97 496.881 Q3095.04 491.725 3101.5 491.725 Q3105.45 491.725 3108.25 493.284 Q3111.08 494.812 3112.93 497.995 M3092.97 510.44 Q3092.97 516.901 3095.61 520.593 Q3098.29 524.254 3102.93 524.254 Q3107.58 524.254 3110.26 520.593 Q3112.93 516.901 3112.93 510.44 Q3112.93 503.979 3110.26 500.319 Q3107.58 496.626 3102.93 496.626 Q3098.29 496.626 3095.61 500.319 Q3092.97 503.979 3092.97 510.44 Z" fill="#000000" fill-rule="evenodd" fill-opacity="1" /><path clip-path="url(#clip8600)" d="M 0 0 M3164.14 486.314 L3147.91 511.681 L3164.14 511.681 L3164.14 486.314 M3162.45 480.712 L3170.54 480.712 L3170.54 511.681 L3177.32 511.681 L3177.32 517.028 L3170.54 517.028 L3170.54 528.232 L3164.14 528.232 L3164.14 517.028 L3142.69 517.028 L3142.69 510.822 L3162.45 480.712 Z" fill="#000000" fill-rule="evenodd" fill-opacity="1" /><polyline clip-path="url(#clip8600)" style="stroke:#ac8d18; stroke-width:16; stroke-opacity:1; fill:none" points="
  2745.92,564.952 2937.92,564.952 
  "/>
<path clip-path="url(#clip8600)" d="M 0 0 M2969.92 541.192 L2976.35 541.192 L2976.35 583.301 L2999.49 583.301 L2999.49 588.712 L2969.92 588.712 L2969.92 541.192 Z" fill="#000000" fill-rule="evenodd" fill-opacity="1" /><path clip-path="url(#clip8600)" d="M 0 0 M3018.3 557.17 Q3013.59 557.17 3010.85 560.862 Q3008.12 564.522 3008.12 570.92 Q3008.12 577.318 3010.82 581.01 Q3013.56 584.67 3018.3 584.67 Q3022.98 584.67 3025.72 580.978 Q3028.46 577.286 3028.46 570.92 Q3028.46 564.586 3025.72 560.894 Q3022.98 557.17 3018.3 557.17 M3018.3 552.205 Q3025.94 552.205 3030.3 557.17 Q3034.66 562.135 3034.66 570.92 Q3034.66 579.673 3030.3 584.67 Q3025.94 589.635 3018.3 589.635 Q3010.63 589.635 3006.27 584.67 Q3001.94 579.673 3001.94 570.92 Q3001.94 562.135 3006.27 557.17 Q3010.63 552.205 3018.3 552.205 Z" fill="#000000" fill-rule="evenodd" fill-opacity="1" /><path clip-path="url(#clip8600)" d="M 0 0 M3057.01 570.793 Q3049.91 570.793 3047.17 572.416 Q3044.43 574.039 3044.43 577.954 Q3044.43 581.073 3046.47 582.919 Q3048.54 584.734 3052.07 584.734 Q3056.94 584.734 3059.87 581.296 Q3062.83 577.827 3062.83 572.098 L3062.83 570.793 L3057.01 570.793 M3068.69 568.374 L3068.69 588.712 L3062.83 588.712 L3062.83 583.301 Q3060.83 586.548 3057.83 588.107 Q3054.84 589.635 3050.51 589.635 Q3045.04 589.635 3041.79 586.58 Q3038.58 583.492 3038.58 578.336 Q3038.58 572.32 3042.59 569.265 Q3046.63 566.209 3054.62 566.209 L3062.83 566.209 L3062.83 565.636 Q3062.83 561.594 3060.16 559.398 Q3057.52 557.17 3052.71 557.17 Q3049.65 557.17 3046.76 557.902 Q3043.86 558.634 3041.19 560.098 L3041.19 554.687 Q3044.4 553.446 3047.43 552.841 Q3050.45 552.205 3053.31 552.205 Q3061.05 552.205 3064.87 556.215 Q3068.69 560.226 3068.69 568.374 Z" fill="#000000" fill-rule="evenodd" fill-opacity="1" /><path clip-path="url(#clip8600)" d="M 0 0 M3098.29 558.475 L3098.29 539.187 L3104.14 539.187 L3104.14 588.712 L3098.29 588.712 L3098.29 583.365 Q3096.44 586.548 3093.61 588.107 Q3090.81 589.635 3086.86 589.635 Q3080.4 589.635 3076.33 584.479 Q3072.28 579.323 3072.28 570.92 Q3072.28 562.517 3076.33 557.361 Q3080.4 552.205 3086.86 552.205 Q3090.81 552.205 3093.61 553.764 Q3096.44 555.292 3098.29 558.475 M3078.33 570.92 Q3078.33 577.381 3080.97 581.073 Q3083.65 584.734 3088.29 584.734 Q3092.94 584.734 3095.61 581.073 Q3098.29 577.381 3098.29 570.92 Q3098.29 564.459 3095.61 560.799 Q3092.94 557.106 3088.29 557.106 Q3083.65 557.106 3080.97 560.799 Q3078.33 564.459 3078.33 570.92 Z" fill="#000000" fill-rule="evenodd" fill-opacity="1" /></svg>
