<?xml version="1.0" encoding="utf-8"?>
<svg xmlns="http://www.w3.org/2000/svg" xmlns:xlink="http://www.w3.org/1999/xlink" width="800" height="600" viewBox="0 0 3200 2400">
<defs>
  <clipPath id="clip5900">
    <rect x="0" y="0" width="3200" height="2400"/>
  </clipPath>
</defs>
<path clip-path="url(#clip5900)" d="
M0 2400 L3200 2400 L3200 0 L0 0  Z
  " fill="#ffffff" fill-rule="evenodd" fill-opacity="1"/>
<defs>
  <clipPath id="clip5901">
    <rect x="640" y="0" width="2241" height="2241"/>
  </clipPath>
</defs>
<path clip-path="url(#clip5900)" d="
M240.01 2204.92 L2617.92 2204.92 L2617.92 131.032 L240.01 131.032  Z
  " fill="#ffffff" fill-rule="evenodd" fill-opacity="1"/>
<defs>
  <clipPath id="clip5902">
    <rect x="240" y="131" width="2379" height="2075"/>
  </clipPath>
</defs>
<polyline clip-path="url(#clip5902)" style="stroke:#000000; stroke-width:2; stroke-opacity:0.1; fill:none" points="
  307.309,2204.92 307.309,131.032 
  "/>
<polyline clip-path="url(#clip5902)" style="stroke:#000000; stroke-width:2; stroke-opacity:0.1; fill:none" points="
  755.972,2204.92 755.972,131.032 
  "/>
<polyline clip-path="url(#clip5902)" style="stroke:#000000; stroke-width:2; stroke-opacity:0.1; fill:none" points="
  1204.64,2204.92 1204.64,131.032 
  "/>
<polyline clip-path="url(#clip5902)" style="stroke:#000000; stroke-width:2; stroke-opacity:0.1; fill:none" points="
  1653.3,2204.92 1653.3,131.032 
  "/>
<polyline clip-path="url(#clip5902)" style="stroke:#000000; stroke-width:2; stroke-opacity:0.1; fill:none" points="
  2101.96,2204.92 2101.96,131.032 
  "/>
<polyline clip-path="url(#clip5902)" style="stroke:#000000; stroke-width:2; stroke-opacity:0.1; fill:none" points="
  2550.62,2204.92 2550.62,131.032 
  "/>
<polyline clip-path="url(#clip5902)" style="stroke:#000000; stroke-width:2; stroke-opacity:0.1; fill:none" points="
  240.01,1987.72 2617.92,1987.72 
  "/>
<polyline clip-path="url(#clip5902)" style="stroke:#000000; stroke-width:2; stroke-opacity:0.1; fill:none" points="
  240.01,1629.85 2617.92,1629.85 
  "/>
<polyline clip-path="url(#clip5902)" style="stroke:#000000; stroke-width:2; stroke-opacity:0.1; fill:none" points="
  240.01,1271.97 2617.92,1271.97 
  "/>
<polyline clip-path="url(#clip5902)" style="stroke:#000000; stroke-width:2; stroke-opacity:0.1; fill:none" points="
  240.01,914.102 2617.92,914.102 
  "/>
<polyline clip-path="url(#clip5902)" style="stroke:#000000; stroke-width:2; stroke-opacity:0.1; fill:none" points="
  240.01,556.23 2617.92,556.23 
  "/>
<polyline clip-path="url(#clip5902)" style="stroke:#000000; stroke-width:2; stroke-opacity:0.1; fill:none" points="
  240.01,198.359 2617.92,198.359 
  "/>
<polyline clip-path="url(#clip5900)" style="stroke:#000000; stroke-width:4; stroke-opacity:1; fill:none" points="
  240.01,2204.92 2617.92,2204.92 
  "/>
<polyline clip-path="url(#clip5900)" style="stroke:#000000; stroke-width:4; stroke-opacity:1; fill:none" points="
  240.01,2204.92 240.01,131.032 
  "/>
<polyline clip-path="url(#clip5900)" style="stroke:#000000; stroke-width:4; stroke-opacity:1; fill:none" points="
  307.309,2204.92 307.309,2180.03 
  "/>
<polyline clip-path="url(#clip5900)" style="stroke:#000000; stroke-width:4; stroke-opacity:1; fill:none" points="
  755.972,2204.92 755.972,2180.03 
  "/>
<polyline clip-path="url(#clip5900)" style="stroke:#000000; stroke-width:4; stroke-opacity:1; fill:none" points="
  1204.64,2204.92 1204.64,2180.03 
  "/>
<polyline clip-path="url(#clip5900)" style="stroke:#000000; stroke-width:4; stroke-opacity:1; fill:none" points="
  1653.3,2204.92 1653.3,2180.03 
  "/>
<polyline clip-path="url(#clip5900)" style="stroke:#000000; stroke-width:4; stroke-opacity:1; fill:none" points="
  2101.96,2204.92 2101.96,2180.03 
  "/>
<polyline clip-path="url(#clip5900)" style="stroke:#000000; stroke-width:4; stroke-opacity:1; fill:none" points="
  2550.62,2204.92 2550.62,2180.03 
  "/>
<polyline clip-path="url(#clip5900)" style="stroke:#000000; stroke-width:4; stroke-opacity:1; fill:none" points="
  240.01,1987.72 268.545,1987.72 
  "/>
<polyline clip-path="url(#clip5900)" style="stroke:#000000; stroke-width:4; stroke-opacity:1; fill:none" points="
  240.01,1629.85 268.545,1629.85 
  "/>
<polyline clip-path="url(#clip5900)" style="stroke:#000000; stroke-width:4; stroke-opacity:1; fill:none" points="
  240.01,1271.97 268.545,1271.97 
  "/>
<polyline clip-path="url(#clip5900)" style="stroke:#000000; stroke-width:4; stroke-opacity:1; fill:none" points="
  240.01,914.102 268.545,914.102 
  "/>
<polyline clip-path="url(#clip5900)" style="stroke:#000000; stroke-width:4; stroke-opacity:1; fill:none" points="
  240.01,556.23 268.545,556.23 
  "/>
<polyline clip-path="url(#clip5900)" style="stroke:#000000; stroke-width:4; stroke-opacity:1; fill:none" points="
  240.01,198.359 268.545,198.359 
  "/>
<path clip-path="url(#clip5900)" d="M 0 0 M307.309 2230.91 Q303.698 2230.91 301.87 2234.48 Q300.064 2238.02 300.064 2245.15 Q300.064 2252.25 301.87 2255.82 Q303.698 2259.36 307.309 2259.36 Q310.944 2259.36 312.749 2255.82 Q314.578 2252.25 314.578 2245.15 Q314.578 2238.02 312.749 2234.48 Q310.944 2230.91 307.309 2230.91 M307.309 2227.21 Q313.12 2227.21 316.175 2231.81 Q319.254 2236.4 319.254 2245.15 Q319.254 2253.87 316.175 2258.48 Q313.12 2263.06 307.309 2263.06 Q301.499 2263.06 298.421 2258.48 Q295.365 2253.87 295.365 2245.15 Q295.365 2236.4 298.421 2231.81 Q301.499 2227.21 307.309 2227.21 Z" fill="#000000" fill-rule="evenodd" fill-opacity="1" /><path clip-path="url(#clip5900)" d="M 0 0 M746.354 2258.46 L753.993 2258.46 L753.993 2232.09 L745.683 2233.76 L745.683 2229.5 L753.947 2227.83 L758.623 2227.83 L758.623 2258.46 L766.262 2258.46 L766.262 2262.39 L746.354 2262.39 L746.354 2258.46 Z" fill="#000000" fill-rule="evenodd" fill-opacity="1" /><path clip-path="url(#clip5900)" d="M 0 0 M1199.29 2258.46 L1215.61 2258.46 L1215.61 2262.39 L1193.66 2262.39 L1193.66 2258.46 Q1196.33 2255.7 1200.91 2251.07 Q1205.51 2246.42 1206.7 2245.08 Q1208.94 2242.55 1209.82 2240.82 Q1210.72 2239.06 1210.72 2237.37 Q1210.72 2234.61 1208.78 2232.88 Q1206.86 2231.14 1203.76 2231.14 Q1201.56 2231.14 1199.1 2231.91 Q1196.67 2232.67 1193.89 2234.22 L1193.89 2229.5 Q1196.72 2228.36 1199.17 2227.79 Q1201.63 2227.21 1203.66 2227.21 Q1209.03 2227.21 1212.23 2229.89 Q1215.42 2232.58 1215.42 2237.07 Q1215.42 2239.2 1214.61 2241.12 Q1213.82 2243.02 1211.72 2245.61 Q1211.14 2246.28 1208.04 2249.5 Q1204.94 2252.69 1199.29 2258.46 Z" fill="#000000" fill-rule="evenodd" fill-opacity="1" /><path clip-path="url(#clip5900)" d="M 0 0 M1657.55 2243.76 Q1660.9 2244.48 1662.78 2246.74 Q1664.68 2249.01 1664.68 2252.35 Q1664.68 2257.46 1661.16 2260.26 Q1657.64 2263.06 1651.16 2263.06 Q1648.98 2263.06 1646.67 2262.62 Q1644.37 2262.21 1641.92 2261.35 L1641.92 2256.84 Q1643.87 2257.97 1646.18 2258.55 Q1648.49 2259.13 1651.02 2259.13 Q1655.42 2259.13 1657.71 2257.39 Q1660.02 2255.66 1660.02 2252.35 Q1660.02 2249.29 1657.87 2247.58 Q1655.74 2245.84 1651.92 2245.84 L1647.89 2245.84 L1647.89 2242 L1652.11 2242 Q1655.56 2242 1657.38 2240.63 Q1659.21 2239.24 1659.21 2236.65 Q1659.21 2233.99 1657.31 2232.58 Q1655.44 2231.14 1651.92 2231.14 Q1650 2231.14 1647.8 2231.56 Q1645.6 2231.98 1642.96 2232.85 L1642.96 2228.69 Q1645.62 2227.95 1647.94 2227.58 Q1650.28 2227.21 1652.34 2227.21 Q1657.66 2227.21 1660.76 2229.64 Q1663.87 2232.04 1663.87 2236.17 Q1663.87 2239.04 1662.22 2241.03 Q1660.58 2242.99 1657.55 2243.76 Z" fill="#000000" fill-rule="evenodd" fill-opacity="1" /><path clip-path="url(#clip5900)" d="M 0 0 M2104.97 2231.91 L2093.16 2250.35 L2104.97 2250.35 L2104.97 2231.91 M2103.74 2227.83 L2109.62 2227.83 L2109.62 2250.35 L2114.55 2250.35 L2114.55 2254.24 L2109.62 2254.24 L2109.62 2262.39 L2104.97 2262.39 L2104.97 2254.24 L2089.37 2254.24 L2089.37 2249.73 L2103.74 2227.83 Z" fill="#000000" fill-rule="evenodd" fill-opacity="1" /><path clip-path="url(#clip5900)" d="M 0 0 M2540.9 2227.83 L2559.26 2227.83 L2559.26 2231.77 L2545.18 2231.77 L2545.18 2240.24 Q2546.2 2239.89 2547.22 2239.73 Q2548.24 2239.54 2549.26 2239.54 Q2555.05 2239.54 2558.42 2242.72 Q2561.8 2245.89 2561.8 2251.3 Q2561.8 2256.88 2558.33 2259.98 Q2554.86 2263.06 2548.54 2263.06 Q2546.36 2263.06 2544.1 2262.69 Q2541.85 2262.32 2539.44 2261.58 L2539.44 2256.88 Q2541.53 2258.02 2543.75 2258.57 Q2545.97 2259.13 2548.45 2259.13 Q2552.45 2259.13 2554.79 2257.02 Q2557.13 2254.92 2557.13 2251.3 Q2557.13 2247.69 2554.79 2245.59 Q2552.45 2243.48 2548.45 2243.48 Q2546.57 2243.48 2544.7 2243.9 Q2542.85 2244.31 2540.9 2245.19 L2540.9 2227.83 Z" fill="#000000" fill-rule="evenodd" fill-opacity="1" /><path clip-path="url(#clip5900)" d="M 0 0 M132.2 1990.11 L144.677 1990.11 L144.677 1993.91 L132.2 1993.91 L132.2 1990.11 Z" fill="#000000" fill-rule="evenodd" fill-opacity="1" /><path clip-path="url(#clip5900)" d="M 0 0 M159.746 1973.52 Q156.135 1973.52 154.307 1977.08 Q152.501 1980.62 152.501 1987.75 Q152.501 1994.86 154.307 1998.42 Q156.135 2001.96 159.746 2001.96 Q163.381 2001.96 165.186 1998.42 Q167.015 1994.86 167.015 1987.75 Q167.015 1980.62 165.186 1977.08 Q163.381 1973.52 159.746 1973.52 M159.746 1969.81 Q165.556 1969.81 168.612 1974.42 Q171.691 1979 171.691 1987.75 Q171.691 1996.48 168.612 2001.08 Q165.556 2005.67 159.746 2005.67 Q153.936 2005.67 150.857 2001.08 Q147.802 1996.48 147.802 1987.75 Q147.802 1979 150.857 1974.42 Q153.936 1969.81 159.746 1969.81 Z" fill="#000000" fill-rule="evenodd" fill-opacity="1" /><path clip-path="url(#clip5900)" d="M 0 0 M176.76 1999.12 L181.644 1999.12 L181.644 2005 L176.76 2005 L176.76 1999.12 Z" fill="#000000" fill-rule="evenodd" fill-opacity="1" /><path clip-path="url(#clip5900)" d="M 0 0 M200.88 1986.36 Q204.237 1987.08 206.112 1989.35 Q208.01 1991.62 208.01 1994.95 Q208.01 2000.07 204.491 2002.87 Q200.973 2005.67 194.491 2005.67 Q192.316 2005.67 190.001 2005.23 Q187.709 2004.81 185.255 2003.95 L185.255 1999.44 Q187.2 2000.58 189.515 2001.15 Q191.829 2001.73 194.353 2001.73 Q198.751 2001.73 201.042 2000 Q203.357 1998.26 203.357 1994.95 Q203.357 1991.89 201.204 1990.18 Q199.075 1988.45 195.255 1988.45 L191.228 1988.45 L191.228 1984.6 L195.441 1984.6 Q198.89 1984.6 200.718 1983.24 Q202.547 1981.85 202.547 1979.26 Q202.547 1976.59 200.649 1975.18 Q198.774 1973.75 195.255 1973.75 Q193.334 1973.75 191.135 1974.16 Q188.936 1974.58 186.297 1975.46 L186.297 1971.29 Q188.959 1970.55 191.274 1970.18 Q193.612 1969.81 195.672 1969.81 Q200.996 1969.81 204.098 1972.24 Q207.2 1974.65 207.2 1978.77 Q207.2 1981.64 205.556 1983.63 Q203.913 1985.6 200.88 1986.36 Z" fill="#000000" fill-rule="evenodd" fill-opacity="1" /><path clip-path="url(#clip5900)" d="M 0 0 M133.149 1632.24 L145.626 1632.24 L145.626 1636.04 L133.149 1636.04 L133.149 1632.24 Z" fill="#000000" fill-rule="evenodd" fill-opacity="1" /><path clip-path="url(#clip5900)" d="M 0 0 M160.695 1615.64 Q157.084 1615.64 155.256 1619.21 Q153.45 1622.75 153.45 1629.88 Q153.45 1636.99 155.256 1640.55 Q157.084 1644.09 160.695 1644.09 Q164.33 1644.09 166.135 1640.55 Q167.964 1636.99 167.964 1629.88 Q167.964 1622.75 166.135 1619.21 Q164.33 1615.64 160.695 1615.64 M160.695 1611.94 Q166.506 1611.94 169.561 1616.55 Q172.64 1621.13 172.64 1629.88 Q172.64 1638.61 169.561 1643.21 Q166.506 1647.8 160.695 1647.8 Q154.885 1647.8 151.807 1643.21 Q148.751 1638.61 148.751 1629.88 Q148.751 1621.13 151.807 1616.55 Q154.885 1611.94 160.695 1611.94 Z" fill="#000000" fill-rule="evenodd" fill-opacity="1" /><path clip-path="url(#clip5900)" d="M 0 0 M177.709 1641.25 L182.593 1641.25 L182.593 1647.13 L177.709 1647.13 L177.709 1641.25 Z" fill="#000000" fill-rule="evenodd" fill-opacity="1" /><path clip-path="url(#clip5900)" d="M 0 0 M191.691 1643.19 L208.01 1643.19 L208.01 1647.13 L186.066 1647.13 L186.066 1643.19 Q188.728 1640.44 193.311 1635.81 Q197.917 1631.15 199.098 1629.81 Q201.343 1627.29 202.223 1625.55 Q203.126 1623.79 203.126 1622.1 Q203.126 1619.35 201.181 1617.61 Q199.26 1615.88 196.158 1615.88 Q193.959 1615.88 191.505 1616.64 Q189.075 1617.4 186.297 1618.95 L186.297 1614.23 Q189.121 1613.1 191.575 1612.52 Q194.029 1611.94 196.066 1611.94 Q201.436 1611.94 204.63 1614.63 Q207.825 1617.31 207.825 1621.8 Q207.825 1623.93 207.015 1625.85 Q206.228 1627.75 204.121 1630.34 Q203.542 1631.01 200.441 1634.23 Q197.339 1637.43 191.691 1643.19 Z" fill="#000000" fill-rule="evenodd" fill-opacity="1" /><path clip-path="url(#clip5900)" d="M 0 0 M132.779 1274.37 L145.256 1274.37 L145.256 1278.17 L132.779 1278.17 L132.779 1274.37 Z" fill="#000000" fill-rule="evenodd" fill-opacity="1" /><path clip-path="url(#clip5900)" d="M 0 0 M160.325 1257.77 Q156.714 1257.77 154.885 1261.34 Q153.08 1264.88 153.08 1272.01 Q153.08 1279.11 154.885 1282.68 Q156.714 1286.22 160.325 1286.22 Q163.959 1286.22 165.765 1282.68 Q167.593 1279.11 167.593 1272.01 Q167.593 1264.88 165.765 1261.34 Q163.959 1257.77 160.325 1257.77 M160.325 1254.07 Q166.135 1254.07 169.191 1258.67 Q172.269 1263.26 172.269 1272.01 Q172.269 1280.74 169.191 1285.34 Q166.135 1289.92 160.325 1289.92 Q154.515 1289.92 151.436 1285.34 Q148.381 1280.74 148.381 1272.01 Q148.381 1263.26 151.436 1258.67 Q154.515 1254.07 160.325 1254.07 Z" fill="#000000" fill-rule="evenodd" fill-opacity="1" /><path clip-path="url(#clip5900)" d="M 0 0 M177.339 1283.37 L182.223 1283.37 L182.223 1289.25 L177.339 1289.25 L177.339 1283.37 Z" fill="#000000" fill-rule="evenodd" fill-opacity="1" /><path clip-path="url(#clip5900)" d="M 0 0 M188.103 1285.32 L195.741 1285.32 L195.741 1258.95 L187.431 1260.62 L187.431 1256.36 L195.695 1254.69 L200.371 1254.69 L200.371 1285.32 L208.01 1285.32 L208.01 1289.25 L188.103 1289.25 L188.103 1285.32 Z" fill="#000000" fill-rule="evenodd" fill-opacity="1" /><path clip-path="url(#clip5900)" d="M 0 0 M159.098 899.901 Q155.487 899.901 153.658 903.465 Q151.853 907.007 151.853 914.137 Q151.853 921.243 153.658 924.808 Q155.487 928.35 159.098 928.35 Q162.732 928.35 164.538 924.808 Q166.367 921.243 166.367 914.137 Q166.367 907.007 164.538 903.465 Q162.732 899.901 159.098 899.901 M159.098 896.197 Q164.908 896.197 167.964 900.803 Q171.043 905.387 171.043 914.137 Q171.043 922.863 167.964 927.47 Q164.908 932.053 159.098 932.053 Q153.288 932.053 150.209 927.47 Q147.154 922.863 147.154 914.137 Q147.154 905.387 150.209 900.803 Q153.288 896.197 159.098 896.197 Z" fill="#000000" fill-rule="evenodd" fill-opacity="1" /><path clip-path="url(#clip5900)" d="M 0 0 M176.112 925.502 L180.996 925.502 L180.996 931.382 L176.112 931.382 L176.112 925.502 Z" fill="#000000" fill-rule="evenodd" fill-opacity="1" /><path clip-path="url(#clip5900)" d="M 0 0 M196.066 899.901 Q192.454 899.901 190.626 903.465 Q188.82 907.007 188.82 914.137 Q188.82 921.243 190.626 924.808 Q192.454 928.35 196.066 928.35 Q199.7 928.35 201.505 924.808 Q203.334 921.243 203.334 914.137 Q203.334 907.007 201.505 903.465 Q199.7 899.901 196.066 899.901 M196.066 896.197 Q201.876 896.197 204.931 900.803 Q208.01 905.387 208.01 914.137 Q208.01 922.863 204.931 927.47 Q201.876 932.053 196.066 932.053 Q190.255 932.053 187.177 927.47 Q184.121 922.863 184.121 914.137 Q184.121 905.387 187.177 900.803 Q190.255 896.197 196.066 896.197 Z" fill="#000000" fill-rule="evenodd" fill-opacity="1" /><path clip-path="url(#clip5900)" d="M 0 0 M160.325 542.029 Q156.714 542.029 154.885 545.594 Q153.08 549.136 153.08 556.265 Q153.08 563.372 154.885 566.936 Q156.714 570.478 160.325 570.478 Q163.959 570.478 165.765 566.936 Q167.593 563.372 167.593 556.265 Q167.593 549.136 165.765 545.594 Q163.959 542.029 160.325 542.029 M160.325 538.325 Q166.135 538.325 169.191 542.932 Q172.269 547.515 172.269 556.265 Q172.269 564.992 169.191 569.598 Q166.135 574.182 160.325 574.182 Q154.515 574.182 151.436 569.598 Q148.381 564.992 148.381 556.265 Q148.381 547.515 151.436 542.932 Q154.515 538.325 160.325 538.325 Z" fill="#000000" fill-rule="evenodd" fill-opacity="1" /><path clip-path="url(#clip5900)" d="M 0 0 M177.339 567.631 L182.223 567.631 L182.223 573.51 L177.339 573.51 L177.339 567.631 Z" fill="#000000" fill-rule="evenodd" fill-opacity="1" /><path clip-path="url(#clip5900)" d="M 0 0 M188.103 569.575 L195.741 569.575 L195.741 543.21 L187.431 544.876 L187.431 540.617 L195.695 538.95 L200.371 538.95 L200.371 569.575 L208.01 569.575 L208.01 573.51 L188.103 573.51 L188.103 569.575 Z" fill="#000000" fill-rule="evenodd" fill-opacity="1" /><path clip-path="url(#clip5900)" d="M 0 0 M160.695 184.158 Q157.084 184.158 155.256 187.722 Q153.45 191.264 153.45 198.394 Q153.45 205.5 155.256 209.065 Q157.084 212.606 160.695 212.606 Q164.33 212.606 166.135 209.065 Q167.964 205.5 167.964 198.394 Q167.964 191.264 166.135 187.722 Q164.33 184.158 160.695 184.158 M160.695 180.454 Q166.506 180.454 169.561 185.06 Q172.64 189.644 172.64 198.394 Q172.64 207.12 169.561 211.727 Q166.506 216.31 160.695 216.31 Q154.885 216.31 151.807 211.727 Q148.751 207.12 148.751 198.394 Q148.751 189.644 151.807 185.06 Q154.885 180.454 160.695 180.454 Z" fill="#000000" fill-rule="evenodd" fill-opacity="1" /><path clip-path="url(#clip5900)" d="M 0 0 M177.709 209.759 L182.593 209.759 L182.593 215.639 L177.709 215.639 L177.709 209.759 Z" fill="#000000" fill-rule="evenodd" fill-opacity="1" /><path clip-path="url(#clip5900)" d="M 0 0 M191.691 211.704 L208.01 211.704 L208.01 215.639 L186.066 215.639 L186.066 211.704 Q188.728 208.949 193.311 204.319 Q197.917 199.667 199.098 198.324 Q201.343 195.801 202.223 194.065 Q203.126 192.306 203.126 190.616 Q203.126 187.861 201.181 186.125 Q199.26 184.389 196.158 184.389 Q193.959 184.389 191.505 185.153 Q189.075 185.917 186.297 187.468 L186.297 182.746 Q189.121 181.611 191.575 181.033 Q194.029 180.454 196.066 180.454 Q201.436 180.454 204.63 183.139 Q207.825 185.824 207.825 190.315 Q207.825 192.445 207.015 194.366 Q206.228 196.264 204.121 198.857 Q203.542 199.528 200.441 202.745 Q197.339 205.94 191.691 211.704 Z" fill="#000000" fill-rule="evenodd" fill-opacity="1" /><path clip-path="url(#clip5900)" d="M 0 0 M480.67 12.096 L488.853 12.096 L488.853 36.8875 L518.587 36.8875 L518.587 12.096 L526.77 12.096 L526.77 72.576 L518.587 72.576 L518.587 43.7741 L488.853 43.7741 L488.853 72.576 L480.67 72.576 L480.67 12.096 Z" fill="#000000" fill-rule="evenodd" fill-opacity="1" /><path clip-path="url(#clip5900)" d="M 0 0 M552.169 32.4315 Q546.173 32.4315 542.69 37.1306 Q539.206 41.7891 539.206 49.9314 Q539.206 58.0738 542.649 62.7728 Q546.133 67.4314 552.169 67.4314 Q558.124 67.4314 561.607 62.7323 Q565.091 58.0333 565.091 49.9314 Q565.091 41.8701 561.607 37.1711 Q558.124 32.4315 552.169 32.4315 M552.169 26.1121 Q561.891 26.1121 567.441 32.4315 Q572.99 38.7509 572.99 49.9314 Q572.99 61.0714 567.441 67.4314 Q561.891 73.7508 552.169 73.7508 Q542.406 73.7508 536.856 67.4314 Q531.347 61.0714 531.347 49.9314 Q531.347 38.7509 536.856 32.4315 Q542.406 26.1121 552.169 26.1121 Z" fill="#000000" fill-rule="evenodd" fill-opacity="1" /><path clip-path="url(#clip5900)" d="M 0 0 M575.461 27.2059 L583.361 27.2059 L597.539 65.2844 L611.717 27.2059 L619.616 27.2059 L602.602 72.576 L592.475 72.576 L575.461 27.2059 Z" fill="#000000" fill-rule="evenodd" fill-opacity="1" /><path clip-path="url(#clip5900)" d="M 0 0 M666.242 48.0275 L666.242 51.6733 L631.972 51.6733 Q632.458 59.3701 636.59 63.421 Q640.762 67.4314 648.175 67.4314 Q652.469 67.4314 656.479 66.3781 Q660.53 65.3249 664.5 63.2184 L664.5 70.267 Q660.49 71.9684 656.277 72.8596 Q652.064 73.7508 647.73 73.7508 Q636.873 73.7508 630.513 67.4314 Q624.194 61.1119 624.194 50.3365 Q624.194 39.1965 630.189 32.6746 Q636.225 26.1121 646.433 26.1121 Q655.588 26.1121 660.895 32.0264 Q666.242 37.9003 666.242 48.0275 M658.788 45.84 Q658.707 39.7232 655.345 36.0774 Q652.023 32.4315 646.514 32.4315 Q640.276 32.4315 636.509 35.9558 Q632.782 39.4801 632.215 45.8805 L658.788 45.84 Z" fill="#000000" fill-rule="evenodd" fill-opacity="1" /><path clip-path="url(#clip5900)" d="M 0 0 M700.351 34.1734 Q699.095 33.4443 697.596 33.1202 Q696.138 32.7556 694.355 32.7556 Q688.036 32.7556 684.633 36.8875 Q681.271 40.9789 681.271 48.6757 L681.271 72.576 L673.777 72.576 L673.777 27.2059 L681.271 27.2059 L681.271 34.2544 Q683.621 30.1225 687.388 28.1376 Q691.155 26.1121 696.543 26.1121 Q697.313 26.1121 698.244 26.2337 Q699.176 26.3147 700.31 26.5172 L700.351 34.1734 Z" fill="#000000" fill-rule="evenodd" fill-opacity="1" /><path clip-path="url(#clip5900)" d="M 0 0 M708.169 27.2059 L715.623 27.2059 L715.623 72.576 L708.169 72.576 L708.169 27.2059 M708.169 9.54393 L715.623 9.54393 L715.623 18.9825 L708.169 18.9825 L708.169 9.54393 Z" fill="#000000" fill-rule="evenodd" fill-opacity="1" /><path clip-path="url(#clip5900)" d="M 0 0 M761.155 45.1919 L761.155 72.576 L753.701 72.576 L753.701 45.4349 Q753.701 38.994 751.19 35.7938 Q748.678 32.5936 743.655 32.5936 Q737.619 32.5936 734.135 36.4419 Q730.652 40.2903 730.652 46.9338 L730.652 72.576 L723.157 72.576 L723.157 27.2059 L730.652 27.2059 L730.652 34.2544 Q733.325 30.163 736.93 28.1376 Q740.576 26.1121 745.316 26.1121 Q753.134 26.1121 757.144 30.9732 Q761.155 35.7938 761.155 45.1919 Z" fill="#000000" fill-rule="evenodd" fill-opacity="1" /><path clip-path="url(#clip5900)" d="M 0 0 M798.828 49.3643 Q798.828 41.2625 795.466 36.8065 Q792.144 32.3505 786.108 32.3505 Q780.113 32.3505 776.751 36.8065 Q773.429 41.2625 773.429 49.3643 Q773.429 57.4256 776.751 61.8816 Q780.113 66.3376 786.108 66.3376 Q792.144 66.3376 795.466 61.8816 Q798.828 57.4256 798.828 49.3643 M806.282 66.9452 Q806.282 78.5308 801.137 84.1616 Q795.993 89.8329 785.379 89.8329 Q781.45 89.8329 777.966 89.2252 Q774.482 88.6581 771.201 87.4428 L771.201 80.1917 Q774.482 81.9741 777.683 82.8248 Q780.883 83.6755 784.204 83.6755 Q791.537 83.6755 795.182 79.8271 Q798.828 76.0193 798.828 68.282 L798.828 64.5957 Q796.519 68.6061 792.914 70.5911 Q789.309 72.576 784.286 72.576 Q775.941 72.576 770.837 66.2161 Q765.732 59.8562 765.732 49.3643 Q765.732 38.832 770.837 32.472 Q775.941 26.1121 784.286 26.1121 Q789.309 26.1121 792.914 28.0971 Q796.519 30.082 798.828 34.0924 L798.828 27.2059 L806.282 27.2059 L806.282 66.9452 Z" fill="#000000" fill-rule="evenodd" fill-opacity="1" /><path clip-path="url(#clip5900)" d="M 0 0 M836.137 27.2059 L843.591 27.2059 L852.908 62.6108 L862.184 27.2059 L870.975 27.2059 L880.292 62.6108 L889.569 27.2059 L897.022 27.2059 L885.153 72.576 L876.363 72.576 L866.6 35.3887 L856.797 72.576 L848.006 72.576 L836.137 27.2059 Z" fill="#000000" fill-rule="evenodd" fill-opacity="1" /><path clip-path="url(#clip5900)" d="M 0 0 M904.84 27.2059 L912.294 27.2059 L912.294 72.576 L904.84 72.576 L904.84 27.2059 M904.84 9.54393 L912.294 9.54393 L912.294 18.9825 L904.84 18.9825 L904.84 9.54393 Z" fill="#000000" fill-rule="evenodd" fill-opacity="1" /><path clip-path="url(#clip5900)" d="M 0 0 M927.485 14.324 L927.485 27.2059 L942.838 27.2059 L942.838 32.9987 L927.485 32.9987 L927.485 57.6282 Q927.485 63.1779 928.984 64.7578 Q930.523 66.3376 935.182 66.3376 L942.838 66.3376 L942.838 72.576 L935.182 72.576 Q926.553 72.576 923.272 69.3758 Q919.991 66.1351 919.991 57.6282 L919.991 32.9987 L914.522 32.9987 L914.522 27.2059 L919.991 27.2059 L919.991 14.324 L927.485 14.324 Z" fill="#000000" fill-rule="evenodd" fill-opacity="1" /><path clip-path="url(#clip5900)" d="M 0 0 M988.37 45.1919 L988.37 72.576 L980.916 72.576 L980.916 45.4349 Q980.916 38.994 978.405 35.7938 Q975.893 32.5936 970.87 32.5936 Q964.834 32.5936 961.351 36.4419 Q957.867 40.2903 957.867 46.9338 L957.867 72.576 L950.373 72.576 L950.373 9.54393 L957.867 9.54393 L957.867 34.2544 Q960.54 30.163 964.146 28.1376 Q967.791 26.1121 972.531 26.1121 Q980.349 26.1121 984.36 30.9732 Q988.37 35.7938 988.37 45.1919 Z" fill="#000000" fill-rule="evenodd" fill-opacity="1" /><path clip-path="url(#clip5900)" d="M 0 0 M1046.1 19.2256 L1025.44 51.5113 L1046.1 51.5113 L1046.1 19.2256 M1043.95 12.096 L1054.24 12.096 L1054.24 51.5113 L1062.87 51.5113 L1062.87 58.3168 L1054.24 58.3168 L1054.24 72.576 L1046.1 72.576 L1046.1 58.3168 L1018.79 58.3168 L1018.79 50.4176 L1043.95 12.096 Z" fill="#000000" fill-rule="evenodd" fill-opacity="1" /><path clip-path="url(#clip5900)" d="M 0 0 M1121.93 17.6457 Q1113.02 17.6457 1107.75 24.2892 Q1102.52 30.9327 1102.52 42.3968 Q1102.52 53.8203 1107.75 60.4638 Q1113.02 67.1073 1121.93 67.1073 Q1130.84 67.1073 1136.03 60.4638 Q1141.25 53.8203 1141.25 42.3968 Q1141.25 30.9327 1136.03 24.2892 Q1130.84 17.6457 1121.93 17.6457 M1133.39 71.4823 L1144.17 83.2704 L1134.28 83.2704 L1125.33 73.5887 Q1123.99 73.6697 1123.27 73.7103 Q1122.58 73.7508 1121.93 73.7508 Q1109.17 73.7508 1101.51 65.2439 Q1093.9 56.6965 1093.9 42.3968 Q1093.9 28.0566 1101.51 19.5497 Q1109.17 11.0023 1121.93 11.0023 Q1134.65 11.0023 1142.26 19.5497 Q1149.88 28.0566 1149.88 42.3968 Q1149.88 52.9291 1145.63 60.4233 Q1141.41 67.9175 1133.39 71.4823 Z" fill="#000000" fill-rule="evenodd" fill-opacity="1" /><path clip-path="url(#clip5900)" d="M 0 0 M1156.93 54.671 L1156.93 27.2059 L1164.38 27.2059 L1164.38 54.3874 Q1164.38 60.8284 1166.89 64.0691 Q1169.4 67.2693 1174.43 67.2693 Q1180.46 67.2693 1183.95 63.421 Q1187.47 59.5726 1187.47 52.9291 L1187.47 27.2059 L1194.93 27.2059 L1194.93 72.576 L1187.47 72.576 L1187.47 65.6084 Q1184.76 69.7404 1181.15 71.7658 Q1177.59 73.7508 1172.85 73.7508 Q1165.03 73.7508 1160.98 68.8897 Q1156.93 64.0286 1156.93 54.671 M1175.68 26.1121 L1175.68 26.1121 Z" fill="#000000" fill-rule="evenodd" fill-opacity="1" /><path clip-path="url(#clip5900)" d="M 0 0 M1223.36 49.7694 Q1214.33 49.7694 1210.85 51.8354 Q1207.36 53.9013 1207.36 58.8839 Q1207.36 62.8538 1209.95 65.2034 Q1212.59 67.5124 1217.08 67.5124 Q1223.28 67.5124 1227.01 63.1374 Q1230.78 58.7219 1230.78 51.4303 L1230.78 49.7694 L1223.36 49.7694 M1238.23 46.6907 L1238.23 72.576 L1230.78 72.576 L1230.78 65.6895 Q1228.22 69.8214 1224.42 71.8063 Q1220.61 73.7508 1215.1 73.7508 Q1208.13 73.7508 1204 69.8619 Q1199.91 65.9325 1199.91 59.3701 Q1199.91 51.7138 1205.01 47.825 Q1210.16 43.9361 1220.32 43.9361 L1230.78 43.9361 L1230.78 43.2069 Q1230.78 38.0623 1227.37 35.2672 Q1224.01 32.4315 1217.89 32.4315 Q1214.01 32.4315 1210.32 33.3632 Q1206.63 34.295 1203.23 36.1584 L1203.23 29.2718 Q1207.32 27.692 1211.17 26.9223 Q1215.02 26.1121 1218.66 26.1121 Q1228.51 26.1121 1233.37 31.2163 Q1238.23 36.3204 1238.23 46.6907 Z" fill="#000000" fill-rule="evenodd" fill-opacity="1" /><path clip-path="url(#clip5900)" d="M 0 0 M1275.9 34.0924 L1275.9 9.54393 L1283.36 9.54393 L1283.36 72.576 L1275.9 72.576 L1275.9 65.7705 Q1273.55 69.8214 1269.95 71.8063 Q1266.38 73.7508 1261.36 73.7508 Q1253.14 73.7508 1247.95 67.1883 Q1242.81 60.6258 1242.81 49.9314 Q1242.81 39.2371 1247.95 32.6746 Q1253.14 26.1121 1261.36 26.1121 Q1266.38 26.1121 1269.95 28.0971 Q1273.55 30.0415 1275.9 34.0924 M1250.5 49.9314 Q1250.5 58.1548 1253.87 62.8538 Q1257.27 67.5124 1263.18 67.5124 Q1269.1 67.5124 1272.5 62.8538 Q1275.9 58.1548 1275.9 49.9314 Q1275.9 41.7081 1272.5 37.0496 Q1269.1 32.3505 1263.18 32.3505 Q1257.27 32.3505 1253.87 37.0496 Q1250.5 41.7081 1250.5 49.9314 Z" fill="#000000" fill-rule="evenodd" fill-opacity="1" /><path clip-path="url(#clip5900)" d="M 0 0 M1317.47 34.1734 Q1316.21 33.4443 1314.71 33.1202 Q1313.25 32.7556 1311.47 32.7556 Q1305.15 32.7556 1301.75 36.8875 Q1298.39 40.9789 1298.39 48.6757 L1298.39 72.576 L1290.89 72.576 L1290.89 27.2059 L1298.39 27.2059 L1298.39 34.2544 Q1300.74 30.1225 1304.5 28.1376 Q1308.27 26.1121 1313.66 26.1121 Q1314.43 26.1121 1315.36 26.2337 Q1316.29 26.3147 1317.43 26.5172 L1317.47 34.1734 Z" fill="#000000" fill-rule="evenodd" fill-opacity="1" /><path clip-path="url(#clip5900)" d="M 0 0 M1341.04 32.4315 Q1335.05 32.4315 1331.56 37.1306 Q1328.08 41.7891 1328.08 49.9314 Q1328.08 58.0738 1331.52 62.7728 Q1335.01 67.4314 1341.04 67.4314 Q1347 67.4314 1350.48 62.7323 Q1353.96 58.0333 1353.96 49.9314 Q1353.96 41.8701 1350.48 37.1711 Q1347 32.4315 1341.04 32.4315 M1341.04 26.1121 Q1350.76 26.1121 1356.31 32.4315 Q1361.86 38.7509 1361.86 49.9314 Q1361.86 61.0714 1356.31 67.4314 Q1350.76 73.7508 1341.04 73.7508 Q1331.28 73.7508 1325.73 67.4314 Q1320.22 61.0714 1320.22 49.9314 Q1320.22 38.7509 1325.73 32.4315 Q1331.28 26.1121 1341.04 26.1121 Z" fill="#000000" fill-rule="evenodd" fill-opacity="1" /><path clip-path="url(#clip5900)" d="M 0 0 M1377.05 14.324 L1377.05 27.2059 L1392.41 27.2059 L1392.41 32.9987 L1377.05 32.9987 L1377.05 57.6282 Q1377.05 63.1779 1378.55 64.7578 Q1380.09 66.3376 1384.75 66.3376 L1392.41 66.3376 L1392.41 72.576 L1384.75 72.576 Q1376.12 72.576 1372.84 69.3758 Q1369.56 66.1351 1369.56 57.6282 L1369.56 32.9987 L1364.09 32.9987 L1364.09 27.2059 L1369.56 27.2059 L1369.56 14.324 L1377.05 14.324 Z" fill="#000000" fill-rule="evenodd" fill-opacity="1" /><path clip-path="url(#clip5900)" d="M 0 0 M1417.81 32.4315 Q1411.81 32.4315 1408.33 37.1306 Q1404.84 41.7891 1404.84 49.9314 Q1404.84 58.0738 1408.29 62.7728 Q1411.77 67.4314 1417.81 67.4314 Q1423.76 67.4314 1427.25 62.7323 Q1430.73 58.0333 1430.73 49.9314 Q1430.73 41.8701 1427.25 37.1711 Q1423.76 32.4315 1417.81 32.4315 M1417.81 26.1121 Q1427.53 26.1121 1433.08 32.4315 Q1438.63 38.7509 1438.63 49.9314 Q1438.63 61.0714 1433.08 67.4314 Q1427.53 73.7508 1417.81 73.7508 Q1408.04 73.7508 1402.49 67.4314 Q1396.98 61.0714 1396.98 49.9314 Q1396.98 38.7509 1402.49 32.4315 Q1408.04 26.1121 1417.81 26.1121 Z" fill="#000000" fill-rule="evenodd" fill-opacity="1" /><path clip-path="url(#clip5900)" d="M 0 0 M1472.74 34.1734 Q1471.48 33.4443 1469.98 33.1202 Q1468.52 32.7556 1466.74 32.7556 Q1460.42 32.7556 1457.02 36.8875 Q1453.66 40.9789 1453.66 48.6757 L1453.66 72.576 L1446.16 72.576 L1446.16 27.2059 L1453.66 27.2059 L1453.66 34.2544 Q1456.01 30.1225 1459.77 28.1376 Q1463.54 26.1121 1468.93 26.1121 Q1469.7 26.1121 1470.63 26.2337 Q1471.56 26.3147 1472.7 26.5172 L1472.74 34.1734 Z" fill="#000000" fill-rule="evenodd" fill-opacity="1" /><path clip-path="url(#clip5900)" d="M 0 0 M1509.48 28.5427 L1509.48 35.5912 Q1506.32 33.9709 1502.92 33.1607 Q1499.51 32.3505 1495.87 32.3505 Q1490.32 32.3505 1487.52 34.0519 Q1484.77 35.7533 1484.77 39.156 Q1484.77 41.7486 1486.75 43.2475 Q1488.74 44.7058 1494.73 46.0426 L1497.29 46.6097 Q1505.22 48.3111 1508.55 51.4303 Q1511.91 54.509 1511.91 60.0587 Q1511.91 66.3781 1506.89 70.0644 Q1501.9 73.7508 1493.15 73.7508 Q1489.51 73.7508 1485.54 73.0216 Q1481.61 72.3329 1477.23 70.9151 L1477.23 63.2184 Q1481.37 65.3654 1485.38 66.4591 Q1489.39 67.5124 1493.32 67.5124 Q1498.58 67.5124 1501.42 65.73 Q1504.25 63.9071 1504.25 60.6258 Q1504.25 57.5877 1502.19 55.9673 Q1500.16 54.3469 1493.23 52.8481 L1490.64 52.2405 Q1483.71 50.7821 1480.64 47.7845 Q1477.56 44.7463 1477.56 39.4801 Q1477.56 33.0797 1482.09 29.5959 Q1486.63 26.1121 1494.98 26.1121 Q1499.11 26.1121 1502.75 26.7198 Q1506.4 27.3274 1509.48 28.5427 Z" fill="#000000" fill-rule="evenodd" fill-opacity="1" /><path clip-path="url(#clip5900)" d="M 0 0 M1542.33 46.5287 L1564.17 46.5287 L1564.17 53.1722 L1542.33 53.1722 L1542.33 46.5287 Z" fill="#000000" fill-rule="evenodd" fill-opacity="1" /><path clip-path="url(#clip5900)" d="M 0 0 M1618.89 20.1573 L1607.79 50.2555 L1630.03 50.2555 L1618.89 20.1573 M1614.28 12.096 L1623.55 12.096 L1646.6 72.576 L1638.09 72.576 L1632.59 57.061 L1605.32 57.061 L1599.81 72.576 L1591.19 72.576 L1614.28 12.096 Z" fill="#000000" fill-rule="evenodd" fill-opacity="1" /><path clip-path="url(#clip5900)" d="M 0 0 M1684.27 49.3643 Q1684.27 41.2625 1680.91 36.8065 Q1677.59 32.3505 1671.56 32.3505 Q1665.56 32.3505 1662.2 36.8065 Q1658.88 41.2625 1658.88 49.3643 Q1658.88 57.4256 1662.2 61.8816 Q1665.56 66.3376 1671.56 66.3376 Q1677.59 66.3376 1680.91 61.8816 Q1684.27 57.4256 1684.27 49.3643 M1691.73 66.9452 Q1691.73 78.5308 1686.58 84.1616 Q1681.44 89.8329 1670.83 89.8329 Q1666.9 89.8329 1663.41 89.2252 Q1659.93 88.6581 1656.65 87.4428 L1656.65 80.1917 Q1659.93 81.9741 1663.13 82.8248 Q1666.33 83.6755 1669.65 83.6755 Q1676.98 83.6755 1680.63 79.8271 Q1684.27 76.0193 1684.27 68.282 L1684.27 64.5957 Q1681.97 68.6061 1678.36 70.5911 Q1674.76 72.576 1669.73 72.576 Q1661.39 72.576 1656.28 66.2161 Q1651.18 59.8562 1651.18 49.3643 Q1651.18 38.832 1656.28 32.472 Q1661.39 26.1121 1669.73 26.1121 Q1674.76 26.1121 1678.36 28.0971 Q1681.97 30.082 1684.27 34.0924 L1684.27 27.2059 L1691.73 27.2059 L1691.73 66.9452 Z" fill="#000000" fill-rule="evenodd" fill-opacity="1" /><path clip-path="url(#clip5900)" d="M 0 0 M1738.35 48.0275 L1738.35 51.6733 L1704.08 51.6733 Q1704.57 59.3701 1708.7 63.421 Q1712.87 67.4314 1720.29 67.4314 Q1724.58 67.4314 1728.59 66.3781 Q1732.64 65.3249 1736.61 63.2184 L1736.61 70.267 Q1732.6 71.9684 1728.39 72.8596 Q1724.18 73.7508 1719.84 73.7508 Q1708.99 73.7508 1702.63 67.4314 Q1696.31 61.1119 1696.31 50.3365 Q1696.31 39.1965 1702.3 32.6746 Q1708.34 26.1121 1718.55 26.1121 Q1727.7 26.1121 1733.01 32.0264 Q1738.35 37.9003 1738.35 48.0275 M1730.9 45.84 Q1730.82 39.7232 1727.46 36.0774 Q1724.14 32.4315 1718.63 32.4315 Q1712.39 32.4315 1708.62 35.9558 Q1704.89 39.4801 1704.33 45.8805 L1730.9 45.84 Z" fill="#000000" fill-rule="evenodd" fill-opacity="1" /><path clip-path="url(#clip5900)" d="M 0 0 M1783.89 45.1919 L1783.89 72.576 L1776.43 72.576 L1776.43 45.4349 Q1776.43 38.994 1773.92 35.7938 Q1771.41 32.5936 1766.39 32.5936 Q1760.35 32.5936 1756.87 36.4419 Q1753.38 40.2903 1753.38 46.9338 L1753.38 72.576 L1745.89 72.576 L1745.89 27.2059 L1753.38 27.2059 L1753.38 34.2544 Q1756.06 30.163 1759.66 28.1376 Q1763.31 26.1121 1768.05 26.1121 Q1775.87 26.1121 1779.88 30.9732 Q1783.89 35.7938 1783.89 45.1919 Z" fill="#000000" fill-rule="evenodd" fill-opacity="1" /><path clip-path="url(#clip5900)" d="M 0 0 M1799.08 14.324 L1799.08 27.2059 L1814.43 27.2059 L1814.43 32.9987 L1799.08 32.9987 L1799.08 57.6282 Q1799.08 63.1779 1800.58 64.7578 Q1802.12 66.3376 1806.77 66.3376 L1814.43 66.3376 L1814.43 72.576 L1806.77 72.576 Q1798.15 72.576 1794.86 69.3758 Q1791.58 66.1351 1791.58 57.6282 L1791.58 32.9987 L1786.11 32.9987 L1786.11 27.2059 L1791.58 27.2059 L1791.58 14.324 L1799.08 14.324 Z" fill="#000000" fill-rule="evenodd" fill-opacity="1" /><path clip-path="url(#clip5900)" d="M 0 0 M1885.2 14.0809 L1885.2 22.0612 Q1880.54 19.8332 1876.41 18.7395 Q1872.28 17.6457 1868.43 17.6457 Q1861.75 17.6457 1858.1 20.2383 Q1854.49 22.8309 1854.49 27.611 Q1854.49 31.6214 1856.88 33.6873 Q1859.31 35.7128 1866.04 36.9686 L1870.98 37.9813 Q1880.14 39.7232 1884.47 44.1387 Q1888.85 48.5136 1888.85 55.8863 Q1888.85 64.6767 1882.93 69.2137 Q1877.06 73.7508 1865.67 73.7508 Q1861.38 73.7508 1856.52 72.7785 Q1851.7 71.8063 1846.51 69.9024 L1846.51 61.4765 Q1851.5 64.2716 1856.28 65.6895 Q1861.06 67.1073 1865.67 67.1073 Q1872.68 67.1073 1876.49 64.3527 Q1880.3 61.598 1880.3 56.4939 Q1880.3 52.0379 1877.54 49.5264 Q1874.83 47.0148 1868.59 45.759 L1863.61 44.7868 Q1854.45 42.9639 1850.36 39.075 Q1846.27 35.1862 1846.27 28.2591 Q1846.27 20.2383 1851.9 15.6203 Q1857.57 11.0023 1867.5 11.0023 Q1871.75 11.0023 1876.17 11.7719 Q1880.58 12.5416 1885.2 14.0809 Z" fill="#000000" fill-rule="evenodd" fill-opacity="1" /><path clip-path="url(#clip5900)" d="M 0 0 M1904.04 14.324 L1904.04 27.2059 L1919.39 27.2059 L1919.39 32.9987 L1904.04 32.9987 L1904.04 57.6282 Q1904.04 63.1779 1905.54 64.7578 Q1907.07 66.3376 1911.73 66.3376 L1919.39 66.3376 L1919.39 72.576 L1911.73 72.576 Q1903.1 72.576 1899.82 69.3758 Q1896.54 66.1351 1896.54 57.6282 L1896.54 32.9987 L1891.07 32.9987 L1891.07 27.2059 L1896.54 27.2059 L1896.54 14.324 L1904.04 14.324 Z" fill="#000000" fill-rule="evenodd" fill-opacity="1" /><path clip-path="url(#clip5900)" d="M 0 0 M1947.83 49.7694 Q1938.79 49.7694 1935.31 51.8354 Q1931.83 53.9013 1931.83 58.8839 Q1931.83 62.8538 1934.42 65.2034 Q1937.05 67.5124 1941.55 67.5124 Q1947.75 67.5124 1951.47 63.1374 Q1955.24 58.7219 1955.24 51.4303 L1955.24 49.7694 L1947.83 49.7694 M1962.69 46.6907 L1962.69 72.576 L1955.24 72.576 L1955.24 65.6895 Q1952.69 69.8214 1948.88 71.8063 Q1945.07 73.7508 1939.56 73.7508 Q1932.6 73.7508 1928.46 69.8619 Q1924.37 65.9325 1924.37 59.3701 Q1924.37 51.7138 1929.48 47.825 Q1934.62 43.9361 1944.79 43.9361 L1955.24 43.9361 L1955.24 43.2069 Q1955.24 38.0623 1951.84 35.2672 Q1948.47 32.4315 1942.36 32.4315 Q1938.47 32.4315 1934.78 33.3632 Q1931.1 34.295 1927.69 36.1584 L1927.69 29.2718 Q1931.79 27.692 1935.63 26.9223 Q1939.48 26.1121 1943.13 26.1121 Q1952.97 26.1121 1957.83 31.2163 Q1962.69 36.3204 1962.69 46.6907 Z" fill="#000000" fill-rule="evenodd" fill-opacity="1" /><path clip-path="url(#clip5900)" d="M 0 0 M1977.88 14.324 L1977.88 27.2059 L1993.24 27.2059 L1993.24 32.9987 L1977.88 32.9987 L1977.88 57.6282 Q1977.88 63.1779 1979.38 64.7578 Q1980.92 66.3376 1985.58 66.3376 L1993.24 66.3376 L1993.24 72.576 L1985.58 72.576 Q1976.95 72.576 1973.67 69.3758 Q1970.39 66.1351 1970.39 57.6282 L1970.39 32.9987 L1964.92 32.9987 L1964.92 27.2059 L1970.39 27.2059 L1970.39 14.324 L1977.88 14.324 Z" fill="#000000" fill-rule="evenodd" fill-opacity="1" /><path clip-path="url(#clip5900)" d="M 0 0 M2039.86 48.0275 L2039.86 51.6733 L2005.59 51.6733 Q2006.08 59.3701 2010.21 63.421 Q2014.38 67.4314 2021.8 67.4314 Q2026.09 67.4314 2030.1 66.3781 Q2034.15 65.3249 2038.12 63.2184 L2038.12 70.267 Q2034.11 71.9684 2029.9 72.8596 Q2025.69 73.7508 2021.35 73.7508 Q2010.49 73.7508 2004.13 67.4314 Q1997.81 61.1119 1997.81 50.3365 Q1997.81 39.1965 2003.81 32.6746 Q2009.85 26.1121 2020.05 26.1121 Q2029.21 26.1121 2034.52 32.0264 Q2039.86 37.9003 2039.86 48.0275 M2032.41 45.84 Q2032.33 39.7232 2028.97 36.0774 Q2025.64 32.4315 2020.14 32.4315 Q2013.9 32.4315 2010.13 35.9558 Q2006.4 39.4801 2005.84 45.8805 L2032.41 45.84 Z" fill="#000000" fill-rule="evenodd" fill-opacity="1" /><path clip-path="url(#clip5900)" d="M 0 0 M2076.6 28.5427 L2076.6 35.5912 Q2073.45 33.9709 2070.04 33.1607 Q2066.64 32.3505 2062.99 32.3505 Q2057.44 32.3505 2054.65 34.0519 Q2051.89 35.7533 2051.89 39.156 Q2051.89 41.7486 2053.88 43.2475 Q2055.86 44.7058 2061.86 46.0426 L2064.41 46.6097 Q2072.35 48.3111 2075.67 51.4303 Q2079.04 54.509 2079.04 60.0587 Q2079.04 66.3781 2074.01 70.0644 Q2069.03 73.7508 2060.28 73.7508 Q2056.63 73.7508 2052.66 73.0216 Q2048.73 72.3329 2044.36 70.9151 L2044.36 63.2184 Q2048.49 65.3654 2052.5 66.4591 Q2056.51 67.5124 2060.44 67.5124 Q2065.71 67.5124 2068.54 65.73 Q2071.38 63.9071 2071.38 60.6258 Q2071.38 57.5877 2069.31 55.9673 Q2067.29 54.3469 2060.36 52.8481 L2057.77 52.2405 Q2050.84 50.7821 2047.76 47.7845 Q2044.68 44.7463 2044.68 39.4801 Q2044.68 33.0797 2049.22 29.5959 Q2053.76 26.1121 2062.1 26.1121 Q2066.23 26.1121 2069.88 26.7198 Q2073.53 27.3274 2076.6 28.5427 Z" fill="#000000" fill-rule="evenodd" fill-opacity="1" /><path clip-path="url(#clip5900)" d="M 0 0 M2110.07 12.096 L2157.58 12.096 L2157.58 18.3344 L2119.34 65.6895 L2158.51 65.6895 L2158.51 72.576 L2109.13 72.576 L2109.13 66.3376 L2147.37 18.9825 L2110.07 18.9825 L2110.07 12.096 Z" fill="#000000" fill-rule="evenodd" fill-opacity="1" /><path clip-path="url(#clip5900)" d="M 0 0 M2193.03 12.096 L2231.27 12.096 L2231.27 18.9825 L2201.21 18.9825 L2201.21 36.8875 L2230.01 36.8875 L2230.01 43.7741 L2201.21 43.7741 L2201.21 65.6895 L2232 65.6895 L2232 72.576 L2193.03 72.576 L2193.03 12.096 Z" fill="#000000" fill-rule="evenodd" fill-opacity="1" /><path clip-path="url(#clip5900)" d="M 0 0 M2266.11 34.1734 Q2264.85 33.4443 2263.35 33.1202 Q2261.89 32.7556 2260.11 32.7556 Q2253.79 32.7556 2250.39 36.8875 Q2247.03 40.9789 2247.03 48.6757 L2247.03 72.576 L2239.53 72.576 L2239.53 27.2059 L2247.03 27.2059 L2247.03 34.2544 Q2249.38 30.1225 2253.14 28.1376 Q2256.91 26.1121 2262.3 26.1121 Q2263.07 26.1121 2264 26.2337 Q2264.93 26.3147 2266.07 26.5172 L2266.11 34.1734 Z" fill="#000000" fill-rule="evenodd" fill-opacity="1" /><path clip-path="url(#clip5900)" d="M 0 0 M2298.76 34.1734 Q2297.5 33.4443 2296 33.1202 Q2294.54 32.7556 2292.76 32.7556 Q2286.44 32.7556 2283.04 36.8875 Q2279.68 40.9789 2279.68 48.6757 L2279.68 72.576 L2272.18 72.576 L2272.18 27.2059 L2279.68 27.2059 L2279.68 34.2544 Q2282.03 30.1225 2285.79 28.1376 Q2289.56 26.1121 2294.95 26.1121 Q2295.72 26.1121 2296.65 26.2337 Q2297.58 26.3147 2298.72 26.5172 L2298.76 34.1734 Z" fill="#000000" fill-rule="evenodd" fill-opacity="1" /><path clip-path="url(#clip5900)" d="M 0 0 M2322.33 32.4315 Q2316.34 32.4315 2312.85 37.1306 Q2309.37 41.7891 2309.37 49.9314 Q2309.37 58.0738 2312.81 62.7728 Q2316.3 67.4314 2322.33 67.4314 Q2328.29 67.4314 2331.77 62.7323 Q2335.26 58.0333 2335.26 49.9314 Q2335.26 41.8701 2331.77 37.1711 Q2328.29 32.4315 2322.33 32.4315 M2322.33 26.1121 Q2332.05 26.1121 2337.6 32.4315 Q2343.15 38.7509 2343.15 49.9314 Q2343.15 61.0714 2337.6 67.4314 Q2332.05 73.7508 2322.33 73.7508 Q2312.57 73.7508 2307.02 67.4314 Q2301.51 61.0714 2301.51 49.9314 Q2301.51 38.7509 2307.02 32.4315 Q2312.57 26.1121 2322.33 26.1121 Z" fill="#000000" fill-rule="evenodd" fill-opacity="1" /><path clip-path="url(#clip5900)" d="M 0 0 M2377.26 34.1734 Q2376.01 33.4443 2374.51 33.1202 Q2373.05 32.7556 2371.27 32.7556 Q2364.95 32.7556 2361.55 36.8875 Q2358.18 40.9789 2358.18 48.6757 L2358.18 72.576 L2350.69 72.576 L2350.69 27.2059 L2358.18 27.2059 L2358.18 34.2544 Q2360.53 30.1225 2364.3 28.1376 Q2368.07 26.1121 2373.46 26.1121 Q2374.22 26.1121 2375.16 26.2337 Q2376.09 26.3147 2377.22 26.5172 L2377.26 34.1734 Z" fill="#000000" fill-rule="evenodd" fill-opacity="1" /><path clip-path="url(#clip5900)" d="M 0 0 M1310.8 2298.26 L1351 2298.26 L1351 2303.67 L1334.13 2303.67 L1334.13 2345.78 L1327.67 2345.78 L1327.67 2303.67 L1310.8 2303.67 L1310.8 2298.26 Z" fill="#000000" fill-rule="evenodd" fill-opacity="1" /><path clip-path="url(#clip5900)" d="M 0 0 M1355.14 2310.14 L1361 2310.14 L1361 2345.78 L1355.14 2345.78 L1355.14 2310.14 M1355.14 2296.26 L1361 2296.26 L1361 2303.67 L1355.14 2303.67 L1355.14 2296.26 Z" fill="#000000" fill-rule="evenodd" fill-opacity="1" /><path clip-path="url(#clip5900)" d="M 0 0 M1394.89 2316.98 Q1397.09 2313.03 1400.15 2311.15 Q1403.2 2309.28 1407.34 2309.28 Q1412.91 2309.28 1415.93 2313.19 Q1418.96 2317.07 1418.96 2324.27 L1418.96 2345.78 L1413.07 2345.78 L1413.07 2324.46 Q1413.07 2319.33 1411.25 2316.85 Q1409.44 2314.37 1405.72 2314.37 Q1401.16 2314.37 1398.52 2317.39 Q1395.88 2320.42 1395.88 2325.64 L1395.88 2345.78 L1389.99 2345.78 L1389.99 2324.46 Q1389.99 2319.3 1388.18 2316.85 Q1386.36 2314.37 1382.58 2314.37 Q1378.09 2314.37 1375.45 2317.42 Q1372.81 2320.45 1372.81 2325.64 L1372.81 2345.78 L1366.92 2345.78 L1366.92 2310.14 L1372.81 2310.14 L1372.81 2315.67 Q1374.81 2312.4 1377.61 2310.84 Q1380.41 2309.28 1384.26 2309.28 Q1388.15 2309.28 1390.85 2311.25 Q1393.59 2313.22 1394.89 2316.98 Z" fill="#000000" fill-rule="evenodd" fill-opacity="1" /><path clip-path="url(#clip5900)" d="M 0 0 M1455.59 2326.5 L1455.59 2329.36 L1428.66 2329.36 Q1429.05 2335.41 1432.29 2338.59 Q1435.57 2341.74 1441.4 2341.74 Q1444.77 2341.74 1447.92 2340.91 Q1451.1 2340.09 1454.22 2338.43 L1454.22 2343.97 Q1451.07 2345.31 1447.76 2346.01 Q1444.45 2346.71 1441.05 2346.71 Q1432.52 2346.71 1427.52 2341.74 Q1422.55 2336.78 1422.55 2328.31 Q1422.55 2319.56 1427.26 2314.43 Q1432.01 2309.28 1440.03 2309.28 Q1447.22 2309.28 1451.39 2313.92 Q1455.59 2318.54 1455.59 2326.5 M1449.73 2324.78 Q1449.67 2319.97 1447.03 2317.11 Q1444.42 2314.24 1440.09 2314.24 Q1435.19 2314.24 1432.23 2317.01 Q1429.3 2319.78 1428.86 2324.81 L1449.73 2324.78 Z" fill="#000000" fill-rule="evenodd" fill-opacity="1" /><path clip-path="url(#clip5900)" d="M 0 0 M1496.52 2296.32 Q1492.26 2303.64 1490.19 2310.8 Q1488.12 2317.97 1488.12 2325.32 Q1488.12 2332.67 1490.19 2339.9 Q1492.29 2347.09 1496.52 2354.38 L1491.43 2354.38 Q1486.66 2346.9 1484.27 2339.67 Q1481.91 2332.45 1481.91 2325.32 Q1481.91 2318.22 1484.27 2311.03 Q1486.62 2303.83 1491.43 2296.32 L1496.52 2296.32 Z" fill="#000000" fill-rule="evenodd" fill-opacity="1" /><path clip-path="url(#clip5900)" d="M 0 0 M1525.39 2311.19 L1525.39 2316.72 Q1522.91 2315.45 1520.23 2314.81 Q1517.56 2314.18 1514.7 2314.18 Q1510.34 2314.18 1508.14 2315.51 Q1505.98 2316.85 1505.98 2319.53 Q1505.98 2321.56 1507.54 2322.74 Q1509.09 2323.89 1513.81 2324.94 L1515.81 2325.38 Q1522.05 2326.72 1524.66 2329.17 Q1527.3 2331.59 1527.3 2335.95 Q1527.3 2340.91 1523.35 2343.81 Q1519.44 2346.71 1512.56 2346.71 Q1509.7 2346.71 1506.58 2346.13 Q1503.49 2345.59 1500.06 2344.48 L1500.06 2338.43 Q1503.3 2340.12 1506.45 2340.98 Q1509.6 2341.81 1512.69 2341.81 Q1516.83 2341.81 1519.06 2340.4 Q1521.29 2338.97 1521.29 2336.39 Q1521.29 2334.01 1519.66 2332.73 Q1518.07 2331.46 1512.63 2330.28 L1510.59 2329.81 Q1505.15 2328.66 1502.73 2326.3 Q1500.31 2323.92 1500.31 2319.78 Q1500.31 2314.75 1503.88 2312.01 Q1507.44 2309.28 1514 2309.28 Q1517.24 2309.28 1520.11 2309.75 Q1522.97 2310.23 1525.39 2311.19 Z" fill="#000000" fill-rule="evenodd" fill-opacity="1" /><path clip-path="url(#clip5900)" d="M 0 0 M1532.52 2296.32 L1537.61 2296.32 Q1542.39 2303.83 1544.74 2311.03 Q1547.13 2318.22 1547.13 2325.32 Q1547.13 2332.45 1544.74 2339.67 Q1542.39 2346.9 1537.61 2354.38 L1532.52 2354.38 Q1536.75 2347.09 1538.82 2339.9 Q1540.92 2332.67 1540.92 2325.32 Q1540.92 2317.97 1538.82 2310.8 Q1536.75 2303.64 1532.52 2296.32 Z" fill="#000000" fill-rule="evenodd" fill-opacity="1" /><path clip-path="url(#clip5900)" d="M 0 0 M38.4242 1330.94 L38.4242 1300.89 L43.835 1300.89 L43.835 1324.51 L57.9032 1324.51 L57.9032 1301.88 L63.3141 1301.88 L63.3141 1324.51 L80.5333 1324.51 L80.5333 1300.32 L85.9442 1300.32 L85.9442 1330.94 L38.4242 1330.94 Z" fill="#000000" fill-rule="evenodd" fill-opacity="1" /><path clip-path="url(#clip5900)" d="M 0 0 M55.7707 1273.52 Q55.1978 1274.51 54.9432 1275.68 Q54.6567 1276.83 54.6567 1278.23 Q54.6567 1283.2 57.9032 1285.87 Q61.1179 1288.51 67.1653 1288.51 L85.9442 1288.51 L85.9442 1294.4 L50.2962 1294.4 L50.2962 1288.51 L55.8344 1288.51 Q52.5879 1286.66 51.0283 1283.7 Q49.4368 1280.74 49.4368 1276.51 Q49.4368 1275.91 49.5323 1275.17 Q49.596 1274.44 49.7551 1273.55 L55.7707 1273.52 Z" fill="#000000" fill-rule="evenodd" fill-opacity="1" /><path clip-path="url(#clip5900)" d="M 0 0 M55.7707 1247.87 Q55.1978 1248.85 54.9432 1250.03 Q54.6567 1251.18 54.6567 1252.58 Q54.6567 1257.54 57.9032 1260.22 Q61.1179 1262.86 67.1653 1262.86 L85.9442 1262.86 L85.9442 1268.75 L50.2962 1268.75 L50.2962 1262.86 L55.8344 1262.86 Q52.5879 1261.01 51.0283 1258.05 Q49.4368 1255.09 49.4368 1250.86 Q49.4368 1250.25 49.5323 1249.52 Q49.596 1248.79 49.7551 1247.9 L55.7707 1247.87 Z" fill="#000000" fill-rule="evenodd" fill-opacity="1" /><path clip-path="url(#clip5900)" d="M 0 0 M54.4021 1229.34 Q54.4021 1234.05 58.0942 1236.79 Q61.7545 1239.53 68.152 1239.53 Q74.5495 1239.53 78.2417 1236.82 Q81.9019 1234.08 81.9019 1229.34 Q81.9019 1224.66 78.2098 1221.93 Q74.5177 1219.19 68.152 1219.19 Q61.8181 1219.19 58.126 1221.93 Q54.4021 1224.66 54.4021 1229.34 M49.4368 1229.34 Q49.4368 1221.7 54.4021 1217.34 Q59.3673 1212.98 68.152 1212.98 Q76.9049 1212.98 81.9019 1217.34 Q86.8672 1221.7 86.8672 1229.34 Q86.8672 1237.01 81.9019 1241.37 Q76.9049 1245.7 68.152 1245.7 Q59.3673 1245.7 54.4021 1241.37 Q49.4368 1237.01 49.4368 1229.34 Z" fill="#000000" fill-rule="evenodd" fill-opacity="1" /><path clip-path="url(#clip5900)" d="M 0 0 M55.7707 1186.18 Q55.1978 1187.17 54.9432 1188.35 Q54.6567 1189.49 54.6567 1190.89 Q54.6567 1195.86 57.9032 1198.53 Q61.1179 1201.17 67.1653 1201.17 L85.9442 1201.17 L85.9442 1207.06 L50.2962 1207.06 L50.2962 1201.17 L55.8344 1201.17 Q52.5879 1199.33 51.0283 1196.37 Q49.4368 1193.41 49.4368 1189.17 Q49.4368 1188.57 49.5323 1187.84 Q49.596 1187.1 49.7551 1186.21 L55.7707 1186.18 Z" fill="#000000" fill-rule="evenodd" fill-opacity="1" /><path clip-path="url(#clip5900)" d="M 0 0 M38.4242 1161.8 L38.4242 1124.47 L43.3258 1124.47 L80.5333 1154.51 L80.5333 1123.73 L85.9442 1123.73 L85.9442 1162.53 L81.0426 1162.53 L43.835 1132.49 L43.835 1161.8 L38.4242 1161.8 Z" fill="#000000" fill-rule="evenodd" fill-opacity="1" /><path clip-path="url(#clip5900)" d="M 0 0 M36.4826 1082.8 Q43.8032 1087.07 50.9646 1089.14 Q58.126 1091.21 65.4784 1091.21 Q72.8308 1091.21 80.0559 1089.14 Q87.2491 1087.04 94.5379 1082.8 L94.5379 1087.9 Q87.0582 1092.67 79.8331 1095.06 Q72.608 1097.41 65.4784 1097.41 Q58.3806 1097.41 51.1874 1095.06 Q43.9942 1092.7 36.4826 1087.9 L36.4826 1082.8 Z" fill="#000000" fill-rule="evenodd" fill-opacity="1" /><path clip-path="url(#clip5900)" d="M 0 0 M57.1393 1048.91 Q53.1926 1046.71 51.3147 1043.65 Q49.4368 1040.6 49.4368 1036.46 Q49.4368 1030.89 53.3517 1027.87 Q57.2348 1024.84 64.4281 1024.84 L85.9442 1024.84 L85.9442 1030.73 L64.619 1030.73 Q59.4946 1030.73 57.012 1032.55 Q54.5294 1034.36 54.5294 1038.08 Q54.5294 1042.64 57.5531 1045.28 Q60.5768 1047.92 65.7967 1047.92 L85.9442 1047.92 L85.9442 1053.81 L64.619 1053.81 Q59.4628 1053.81 57.012 1055.62 Q54.5294 1057.44 54.5294 1061.22 Q54.5294 1065.71 57.5849 1068.35 Q60.6086 1070.99 65.7967 1070.99 L85.9442 1070.99 L85.9442 1076.88 L50.2962 1076.88 L50.2962 1070.99 L55.8344 1070.99 Q52.556 1068.99 50.9964 1066.19 Q49.4368 1063.39 49.4368 1059.54 Q49.4368 1055.65 51.4102 1052.95 Q53.3836 1050.21 57.1393 1048.91 Z" fill="#000000" fill-rule="evenodd" fill-opacity="1" /><path clip-path="url(#clip5900)" d="M 0 0 M36.4826 1019.62 L36.4826 1014.53 Q43.9942 1009.76 51.1874 1007.4 Q58.3806 1005.01 65.4784 1005.01 Q72.608 1005.01 79.8331 1007.4 Q87.0582 1009.76 94.5379 1014.53 L94.5379 1019.62 Q87.2491 1015.39 80.0559 1013.32 Q72.8308 1011.22 65.4784 1011.22 Q58.126 1011.22 50.9646 1013.32 Q43.8032 1015.39 36.4826 1019.62 Z" fill="#000000" fill-rule="evenodd" fill-opacity="1" /><polyline clip-path="url(#clip5902)" style="stroke:#009af9; stroke-width:16; stroke-opacity:1; fill:none" points="
  307.309,931.259 318.526,923.063 329.743,918.456 340.959,952.903 352.176,1035.87 363.392,1142.9 374.609,1239.7 385.825,1302.1 397.042,1321.81 408.259,1302.9 
  419.475,1254.6 430.692,1186.55 441.908,1106.67 453.125,1020.84 464.341,933.311 475.558,847.058 486.775,764.253 497.991,686.43 509.208,614.747 520.424,550.012 
  531.641,492.84 542.857,443.6 554.074,402.533 565.291,369.662 576.507,344.901 587.724,327.961 598.94,318.467 610.157,315.87 621.373,319.586 632.59,328.905 
  643.807,343.14 655.023,361.53 666.24,383.393 677.456,408.01 688.673,434.785 699.889,463.094 711.106,492.469 722.323,522.405 733.539,552.572 744.756,582.584 
  755.972,612.24 767.189,641.255 778.405,669.539 789.622,696.882 800.839,723.288 812.055,748.596 823.272,772.883 834.488,796.017 845.705,818.129 856.921,839.095 
  868.138,859.09 879.355,877.979 890.571,895.975 901.788,912.915 913.004,929.039 924.221,944.149 935.437,958.504 946.654,971.854 957.871,984.471 969.087,996.036 
  980.304,1006.81 991.52,1016.39 1002.74,1024.97 1013.95,1032 1025.17,1037.49 1036.39,1040.6 1047.6,1040.84 1058.82,1036.66 1070.04,1032.29 1081.25,1031.73 
  1092.47,1033.03 1103.69,1035.44 1114.9,1037.96 1126.12,1040.55 1137.34,1042.62 1148.55,1044.39 1159.77,1045.44 1170.99,1046.08 1182.2,1045.99 1193.42,1045.48 
  1204.64,1044.3 1215.85,1042.74 1227.07,1040.6 1238.28,1038.16 1249.5,1035.24 1260.72,1032.08 1271.93,1028.56 1283.15,1024.87 1294.37,1020.91 1305.58,1016.86 
  1316.8,1012.63 1328.02,1008.37 1339.23,1004.02 1350.45,999.686 1361.67,995.33 1372.88,991.048 1384.1,986.796 1395.32,982.656 1406.53,978.592 1417.75,974.67 
  1428.97,970.856 1440.18,967.204 1451.4,963.684 1462.62,960.337 1473.83,957.136 1485.05,954.113 1496.27,951.24 1507.48,948.543 1518.7,945.996 1529.92,943.616 
  1541.13,941.38 1552.35,939.3 1563.57,937.354 1574.78,935.549 1586,933.865 1597.22,932.308 1608.43,930.857 1619.65,929.517 1630.86,928.269 1642.08,927.115 
  1653.3,926.04 1664.51,925.045 1675.73,924.115 1686.95,923.253 1698.16,922.445 1709.38,921.693 1720.6,920.986 1731.81,920.327 1743.03,919.705 1754.25,919.123 
  1765.46,918.572 1776.68,918.057 1787.9,917.569 1799.11,917.111 1810.33,916.678 1821.55,916.273 1832.76,915.89 1843.98,915.533 1855.2,915.196 1866.41,914.885 
  1877.63,914.591 1888.85,914.322 1900.06,914.069 1911.28,913.839 1922.5,913.622 1933.71,913.429 1944.93,913.244 1956.15,913.082 1967.36,912.924 1978.58,912.787 
  1989.8,912.651 2001.01,912.533 2012.23,912.411 2023.45,912.305 2034.66,912.189 2045.88,912.087 2057.09,911.969 2068.31,911.864 2079.53,911.734 2090.74,911.618 
  2101.96,911.471 2113.18,911.337 2124.39,911.164 2135.61,911.006 2146.83,910.801 2158.04,910.615 2169.26,910.375 2180.48,910.158 2191.69,909.878 2202.91,909.63 
  2214.13,909.31 2225.34,909.032 2236.56,908.672 2247.78,908.367 2258.99,907.971 2270.21,907.644 2281.43,907.215 2292.64,906.876 2303.86,906.419 2315.08,906.076 
  2326.29,905.6 2337.51,905.264 2348.73,904.776 2359.94,904.461 2371.16,903.971 2382.38,903.69 2393.59,903.208 2404.81,902.979 2416.03,902.521 2427.24,902.367 
  2438.46,901.957 2449.67,901.918 2460.89,901.612 2472.11,901.774 2483.32,901.709 2494.54,902.288 2505.76,902.823 2516.97,904.389 2528.19,906.481 2539.41,910.56 
  2550.62,916.801 
  "/>
<polyline clip-path="url(#clip5902)" style="stroke:#e26f46; stroke-width:16; stroke-opacity:1; fill:none" points="
  307.309,931.259 318.526,707.223 329.743,336.168 340.959,228.016 352.176,426.54 363.392,777.498 374.609,1135.28 385.825,1436.43 397.042,1667.09 408.259,1835.91 
  419.475,1954.93 430.692,2036.8 441.908,2090.28 453.125,2123.26 464.341,2140.38 475.558,2146.22 486.775,2143.05 497.991,2133.56 509.208,2118.77 520.424,2100.3 
  531.641,2078.48 542.857,2054.31 554.074,2027.8 565.291,1999.57 576.507,1969.55 587.724,1938.17 598.94,1905.4 610.157,1871.61 621.373,1836.82 632.59,1801.36 
  643.807,1765.32 655.023,1728.97 666.24,1692.43 677.456,1655.92 688.673,1619.57 699.889,1583.56 711.106,1547.99 722.323,1513.03 733.539,1478.76 744.756,1445.3 
  755.972,1412.74 767.189,1381.18 778.405,1350.67 789.622,1321.3 800.839,1293.11 812.055,1266.16 823.272,1240.49 834.488,1216.13 845.705,1193.1 856.921,1171.41 
  868.138,1151.07 879.355,1132.07 890.571,1114.41 901.788,1098.04 913.004,1082.96 924.221,1069.09 935.437,1056.4 946.654,1044.81 957.871,1034.25 969.087,1024.59 
  980.304,1015.73 991.52,1007.47 1002.74,999.653 1013.95,991.953 1025.17,984.037 1036.39,975.393 1047.6,965.395 1058.82,953.303 1070.04,942.173 1081.25,934.747 
  1092.47,929.814 1103.69,926.511 1114.9,924.222 1126.12,922.605 1137.34,921.377 1148.55,920.433 1159.77,919.635 1170.99,918.97 1182.2,918.363 1193.42,917.837 
  1204.64,917.345 1215.85,916.921 1227.07,916.533 1238.28,916.215 1249.5,915.943 1260.72,915.749 1271.93,915.614 1283.15,915.564 1294.37,915.583 1305.58,915.695 
  1316.8,915.883 1328.02,916.165 1339.23,916.528 1350.45,916.984 1361.67,917.52 1372.88,918.145 1384.1,918.844 1395.32,919.624 1406.53,920.47 1417.75,921.384 
  1428.97,922.352 1440.18,923.374 1451.4,924.435 1462.62,925.534 1473.83,926.655 1485.05,927.795 1496.27,928.939 1507.48,930.085 1518.7,931.217 1529.92,932.331 
  1541.13,933.414 1552.35,934.462 1563.57,935.464 1574.78,936.414 1586,937.304 1597.22,938.13 1608.43,938.883 1619.65,939.561 1630.86,940.159 1642.08,940.675 
  1653.3,941.103 1664.51,941.447 1675.73,941.701 1686.95,941.868 1698.16,941.947 1709.38,941.942 1720.6,941.853 1731.81,941.684 1743.03,941.436 1754.25,941.117 
  1765.46,940.727 1776.68,940.274 1787.9,939.761 1799.11,939.195 1810.33,938.579 1821.55,937.922 1832.76,937.225 1843.98,936.5 1855.2,935.744 1866.41,934.971 
  1877.63,934.177 1888.85,933.376 1900.06,932.564 1911.28,931.754 1922.5,930.939 1933.71,930.135 1944.93,929.331 1956.15,928.545 1967.36,927.764 1978.58,927.005 
  1989.8,926.252 2001.01,925.525 2012.23,924.805 2023.45,924.115 2034.66,923.429 2045.88,922.774 2057.09,922.121 2068.31,921.5 2079.53,920.876 2090.74,920.287 
  2101.96,919.687 2113.18,919.123 2124.39,918.543 2135.61,918 2146.83,917.432 2158.04,916.905 2169.26,916.344 2180.48,915.828 2191.69,915.269 2202.91,914.761 
  2214.13,914.199 2225.34,913.695 2236.56,913.126 2247.78,912.626 2258.99,912.049 2270.21,911.553 2281.43,910.966 2292.64,910.477 2303.86,909.88 2315.08,909.402 
  2326.29,908.798 2337.51,908.337 2348.73,907.727 2359.94,907.291 2371.16,906.68 2382.38,906.278 2393.59,905.673 2404.81,905.317 2416.03,904.728 2427.24,904.438 
  2438.46,903.888 2449.67,903.7 2460.89,903.24 2472.11,903.239 2483.32,903.003 2494.54,903.404 2505.76,903.755 2516.97,905.134 2528.19,907.045 2539.41,910.973 
  2550.62,917.152 
  "/>
<polyline clip-path="url(#clip5902)" style="stroke:#3da44d; stroke-width:16; stroke-opacity:1; fill:none" points="
  307.309,931.259 318.526,978.601 329.743,1086.86 340.959,1194.67 352.176,1263.45 363.392,1282.95 374.609,1262.43 385.825,1217.76 397.042,1160.38 408.259,1095.59 
  419.475,1025.44 430.692,951.122 441.908,874.078 453.125,795.955 464.341,718.453 475.558,643.091 486.775,571.188 497.991,503.801 509.208,441.806 520.424,385.871 
  531.641,336.534 542.857,294.157 554.074,258.993 565.291,231.117 576.507,210.505 587.724,196.953 598.94,190.175 610.157,189.727 621.373,195.127 632.59,205.771 
  643.807,221.073 655.023,240.368 666.24,263.06 677.456,288.506 688.673,316.17 699.889,345.479 711.106,376 722.323,407.255 733.539,438.927 744.756,470.633 
  755.972,502.17 767.189,533.24 778.405,563.74 789.622,593.44 800.839,622.322 812.055,650.203 823.272,677.137 834.488,702.967 845.705,727.805 856.921,751.503 
  868.138,774.222 879.355,795.806 890.571,816.454 901.788,835.99 913.004,854.647 924.221,872.211 935.437,888.944 946.654,904.58 957.871,919.401 969.087,933.075 
  980.304,945.879 991.52,957.393 1002.74,967.84 1013.95,976.669 1025.17,983.933 1036.39,988.841 1047.6,991.02 1058.82,989.202 1070.04,987.063 1081.25,988.104 
  1092.47,990.697 1103.69,994.229 1114.9,997.773 1126.12,1001.33 1137.34,1004.32 1148.55,1006.97 1159.77,1008.88 1170.99,1010.36 1182.2,1011.1 1193.42,1011.4 
  1204.64,1011.02 1215.85,1010.25 1227.07,1008.9 1238.28,1007.23 1249.5,1005.08 1260.72,1002.68 1271.93,999.899 1283.15,996.941 1294.37,993.704 1305.58,990.357 
  1316.8,986.819 1328.02,983.235 1339.23,979.537 1350.45,975.847 1361.67,972.111 1372.88,968.43 1384.1,964.758 1395.32,961.178 1406.53,957.651 1417.75,954.244 
  1428.97,950.923 1440.18,947.743 1451.4,944.671 1462.62,941.751 1473.83,938.955 1485.05,936.316 1496.27,933.806 1507.48,931.451 1518.7,929.227 1529.92,927.151 
  1541.13,925.201 1552.35,923.389 1563.57,921.695 1574.78,920.127 1586,918.665 1597.22,917.315 1608.43,916.06 1619.65,914.904 1630.86,913.828 1642.08,912.838 
  1653.3,911.918 1664.51,911.07 1675.73,910.281 1686.95,909.554 1698.16,908.876 1709.38,908.251 1720.6,907.667 1731.81,907.129 1743.03,906.627 1754.25,906.165 
  1765.46,905.734 1776.68,905.34 1787.9,904.974 1799.11,904.641 1810.33,904.335 1821.55,904.062 1832.76,903.813 1843.98,903.596 1855.2,903.403 1866.41,903.24 
  1877.63,903.101 1888.85,902.992 1900.06,902.904 1911.28,902.846 1922.5,902.807 1933.71,902.797 1944.93,902.803 1956.15,902.837 1967.36,902.882 1978.58,902.954 
  1989.8,903.033 2001.01,903.136 2012.23,903.24 2023.45,903.366 2034.66,903.487 2045.88,903.627 2057.09,903.755 2068.31,903.902 2079.53,904.028 2090.74,904.17 
  2101.96,904.285 2113.18,904.416 2124.39,904.51 2135.61,904.622 2146.83,904.688 2158.04,904.774 2169.26,904.805 2180.48,904.86 2191.69,904.852 2202.91,904.874 
  2214.13,904.823 2225.34,904.811 2236.56,904.714 2247.78,904.669 2258.99,904.527 2270.21,904.451 2281.43,904.265 2292.64,904.163 2303.86,903.937 2315.08,903.816 
  2326.29,903.552 2337.51,903.419 2348.73,903.123 2359.94,902.988 2371.16,902.666 2382.38,902.54 2393.59,902.198 2404.81,902.094 2416.03,901.745 2427.24,901.684 
  2438.46,901.349 2449.67,901.368 2460.89,901.101 2472.11,901.284 2483.32,901.222 2494.54,901.787 2505.76,902.29 2516.97,903.813 2528.19,905.854 2539.41,909.892 
  2550.62,916.134 
  "/>
<polyline clip-path="url(#clip5902)" style="stroke:#c271d2; stroke-width:16; stroke-opacity:1; fill:none" points="
  307.309,931.259 318.526,1195.48 329.743,1676.82 340.959,1936.13 352.176,1916.17 363.392,1766.72 374.609,1608.54 385.825,1482.79 397.042,1394.13 408.259,1335.06 
  419.475,1298.62 430.692,1278.75 441.908,1272 453.125,1275.15 464.341,1286.32 475.558,1303.12 486.775,1324.02 497.991,1346.81 509.208,1370.1 520.424,1391.92 
  531.641,1411.25 542.857,1426.6 554.074,1437.49 565.291,1443.11 576.507,1443.56 587.724,1438.64 598.94,1428.89 610.157,1414.51 621.373,1396.25 632.59,1374.46 
  643.807,1349.9 655.023,1322.97 666.24,1294.3 677.456,1264.25 688.673,1233.35 699.889,1201.89 711.106,1170.28 722.323,1138.75 733.539,1107.62 744.756,1077.06 
  755.972,1047.32 767.189,1018.52 778.405,990.859 789.622,964.404 800.839,939.297 812.055,915.579 823.272,893.349 834.488,872.613 845.705,853.438 856.921,835.797 
  868.138,819.732 879.355,805.186 890.571,792.18 901.788,780.63 913.004,770.539 924.221,761.795 935.437,754.384 946.654,748.166 957.871,743.105 969.087,739.023 
  980.304,735.847 991.52,733.342 1002.74,731.349 1013.95,729.516 1025.17,727.474 1036.39,724.554 1047.6,719.771 1058.82,711.393 1070.04,703.732 1081.25,700.941 
  1092.47,701.018 1103.69,702.811 1114.9,705.575 1126.12,708.941 1137.34,712.593 1148.55,716.437 1159.77,720.314 1170.99,724.231 1182.2,728.096 1193.42,731.951 
  1204.64,735.734 1215.85,739.496 1227.07,743.194 1238.28,746.877 1249.5,750.511 1260.72,754.142 1271.93,757.741 1283.15,761.348 1294.37,764.939 1305.58,768.548 
  1316.8,772.152 1328.02,775.78 1339.23,779.411 1350.45,783.068 1361.67,786.73 1372.88,790.415 1384.1,794.104 1395.32,797.81 1406.53,801.514 1417.75,805.224 
  1428.97,808.924 1440.18,812.617 1451.4,816.288 1462.62,819.937 1473.83,823.548 1485.05,827.123 1496.27,830.644 1507.48,834.111 1518.7,837.509 1529.92,840.837 
  1541.13,844.081 1552.35,847.239 1563.57,850.299 1574.78,853.259 1586,856.11 1597.22,858.85 1608.43,861.471 1619.65,863.973 1630.86,866.349 1642.08,868.602 
  1653.3,870.726 1664.51,872.725 1675.73,874.594 1686.95,876.34 1698.16,877.96 1709.38,879.46 1720.6,880.841 1731.81,882.109 1743.03,883.266 1754.25,884.321 
  1765.46,885.274 1776.68,886.136 1787.9,886.908 1799.11,887.601 1810.33,888.218 1821.55,888.768 1832.76,889.254 1843.98,889.688 1855.2,890.069 1866.41,890.411 
  1877.63,890.712 1888.85,890.985 1900.06,891.227 1911.28,891.453 1922.5,891.656 1933.71,891.852 1944.93,892.031 1956.15,892.212 1967.36,892.381 1978.58,892.558 
  1989.8,892.726 2001.01,892.906 2012.23,893.078 2023.45,893.267 2034.66,893.446 2045.88,893.645 2057.09,893.832 2068.31,894.039 2079.53,894.232 2090.74,894.447 
  2101.96,894.641 2113.18,894.859 2124.39,895.05 2135.61,895.268 2146.83,895.45 2158.04,895.663 2169.26,895.832 2180.48,896.035 2191.69,896.186 2202.91,896.377 
  2214.13,896.504 2225.34,896.68 2236.56,896.782 2247.78,896.942 2258.99,897.015 2270.21,897.161 2281.43,897.204 2292.64,897.336 2303.86,897.35 2315.08,897.473 
  2326.29,897.458 2337.51,897.577 2348.73,897.535 2359.94,897.657 2371.16,897.593 2382.38,897.726 2393.59,897.644 2404.81,897.8 2416.03,897.71 2427.24,897.908 
  2438.46,897.832 2449.67,898.107 2460.89,898.096 2472.11,898.533 2483.32,898.722 2494.54,899.535 2505.76,900.283 2516.97,902.041 2528.19,904.3 2539.41,908.515 
  2550.62,914.834 
  "/>
<polyline clip-path="url(#clip5902)" style="stroke:#ac8d18; stroke-width:16; stroke-opacity:1; fill:none" points="
  307.309,914.102 318.526,933.706 329.743,985.426 340.959,1056.75 352.176,1133.82 363.392,1199.23 374.609,1239.64 385.825,1249.97 397.042,1231.43 408.259,1188.61 
  419.475,1127.33 430.692,1053.29 441.908,971.561 453.125,886.345 464.341,800.996 475.558,718.115 486.775,639.666 497.991,567.084 509.208,501.379 520.424,443.206 
  531.641,392.938 542.857,350.704 554.074,316.439 565.291,289.9 576.507,270.712 587.724,258.375 598.94,252.303 610.157,251.844 621.373,256.308 632.59,264.994 
  643.807,277.207 655.023,292.285 666.24,309.608 677.456,328.615 688.673,348.803 699.889,369.739 711.106,391.05 722.323,412.431 733.539,433.634 744.756,454.465 
  755.972,474.778 767.189,494.47 778.405,513.471 789.622,531.746 800.839,549.276 812.055,566.071 823.272,582.145 834.488,597.535 845.705,612.271 856.921,626.401 
  868.138,639.961 879.355,652.999 890.571,665.548 901.788,677.647 913.004,689.318 924.221,700.587 935.437,711.455 946.654,721.929 957.871,731.983 969.087,741.588 
  980.304,750.674 991.52,759.155 1002.74,766.875 1013.95,773.627 1025.17,779.073 1036.39,782.728 1047.6,783.826 1058.82,781.198 1070.04,778.633 1081.25,779.685 
  1092.47,782.798 1103.69,786.967 1114.9,791.595 1126.12,796.306 1137.34,800.901 1148.55,805.252 1159.77,809.315 1170.99,813.062 1182.2,816.508 1193.42,819.663 
  1204.64,822.563 1215.85,825.233 1227.07,827.712 1238.28,830.028 1249.5,832.22 1260.72,834.311 1271.93,836.336 1283.15,838.315 1294.37,840.274 1305.58,842.229 
  1316.8,844.199 1328.02,846.193 1339.23,848.225 1350.45,850.299 1361.67,852.421 1372.88,854.592 1384.1,856.812 1395.32,859.076 1406.53,861.383 1417.75,863.723 
  1428.97,866.092 1440.18,868.478 1451.4,870.873 1462.62,873.266 1473.83,875.647 1485.05,878.004 1496.27,880.326 1507.48,882.602 1518.7,884.822 1529.92,886.975 
  1541.13,889.054 1552.35,891.048 1563.57,892.95 1574.78,894.754 1586,896.455 1597.22,898.047 1608.43,899.528 1619.65,900.896 1630.86,902.15 1642.08,903.29 
  1653.3,904.317 1664.51,905.233 1675.73,906.043 1686.95,906.749 1698.16,907.357 1709.38,907.872 1720.6,908.3 1731.81,908.648 1743.03,908.922 1754.25,909.129 
  1765.46,909.277 1776.68,909.372 1787.9,909.422 1799.11,909.432 1810.33,909.411 1821.55,909.363 1832.76,909.296 1843.98,909.212 1855.2,909.119 1866.41,909.02 
  1877.63,908.918 1888.85,908.817 1900.06,908.719 1911.28,908.626 1922.5,908.539 1933.71,908.46 1944.93,908.388 1956.15,908.324 1967.36,908.267 1978.58,908.216 
  1989.8,908.17 2001.01,908.127 2012.23,908.086 2023.45,908.045 2034.66,908.002 2045.88,907.954 2057.09,907.901 2068.31,907.839 2079.53,907.768 2090.74,907.684 
  2101.96,907.588 2113.18,907.475 2124.39,907.349 2135.61,907.203 2146.83,907.042 2158.04,906.861 2169.26,906.663 2180.48,906.444 2191.69,906.209 2202.91,905.954 
  2214.13,905.685 2225.34,905.397 2236.56,905.097 2247.78,904.779 2258.99,904.453 2270.21,904.112 2281.43,903.767 2292.64,903.41 2303.86,903.053 2315.08,902.686 
  2326.29,902.326 2337.51,901.958 2348.73,901.602 2359.94,901.243 2371.16,900.901 2382.38,900.558 2393.59,900.241 2404.81,899.926 2416.03,899.647 2427.24,899.378 
  2438.46,899.16 2449.67,898.971 2460.89,898.868 2472.11,898.842 2483.32,898.987 2494.54,899.341 2505.76,900.088 2516.97,901.402 2528.19,903.7 2539.41,907.533 
  2550.62,913.935 
  "/>
<path clip-path="url(#clip5900)" d="
M2713.92 625.432 L3184.76 625.432 L3184.76 262.552 L2713.92 262.552  Z
  " fill="#ffffff" fill-rule="evenodd" fill-opacity="1"/>
<polyline clip-path="url(#clip5900)" style="stroke:#000000; stroke-width:4; stroke-opacity:1; fill:none" points="
  2713.92,625.432 3184.76,625.432 3184.76,262.552 2713.92,262.552 2713.92,625.432 
  "/>
<polyline clip-path="url(#clip5900)" style="stroke:#009af9; stroke-width:16; stroke-opacity:1; fill:none" points="
  2745.92,323.032 2937.92,323.032 
  "/>
<path clip-path="url(#clip5900)" d="M 0 0 M2991.95 303.633 Q2984.95 303.633 2980.81 308.853 Q2976.7 314.072 2976.7 323.08 Q2976.7 332.056 2980.81 337.275 Q2984.95 342.495 2991.95 342.495 Q2998.95 342.495 3003.03 337.275 Q3007.13 332.056 3007.13 323.08 Q3007.13 314.072 3003.03 308.853 Q2998.95 303.633 2991.95 303.633 M3000.96 345.933 L3009.42 355.195 L3001.66 355.195 L2994.62 347.588 Q2993.57 347.651 2993 347.683 Q2992.46 347.715 2991.95 347.715 Q2981.92 347.715 2975.91 341.031 Q2969.92 334.315 2969.92 323.08 Q2969.92 311.813 2975.91 305.129 Q2981.92 298.413 2991.95 298.413 Q3001.94 298.413 3007.93 305.129 Q3013.91 311.813 3013.91 323.08 Q3013.91 331.355 3010.57 337.244 Q3007.26 343.132 3000.96 345.933 Z" fill="#000000" fill-rule="evenodd" fill-opacity="1" /><path clip-path="url(#clip5900)" d="M 0 0 M3019.45 332.724 L3019.45 311.144 L3025.31 311.144 L3025.31 332.501 Q3025.31 337.562 3027.28 340.108 Q3029.25 342.623 3033.2 342.623 Q3037.94 342.623 3040.68 339.599 Q3043.45 336.575 3043.45 331.355 L3043.45 311.144 L3049.3 311.144 L3049.3 346.792 L3043.45 346.792 L3043.45 341.318 Q3041.31 344.564 3038.48 346.156 Q3035.68 347.715 3031.96 347.715 Q3025.81 347.715 3022.63 343.896 Q3019.45 340.076 3019.45 332.724 M3034.19 310.285 L3034.19 310.285 Z" fill="#000000" fill-rule="evenodd" fill-opacity="1" /><path clip-path="url(#clip5900)" d="M 0 0 M3071.65 328.873 Q3064.55 328.873 3061.81 330.496 Q3059.08 332.119 3059.08 336.034 Q3059.08 339.153 3061.11 340.999 Q3063.18 342.814 3066.71 342.814 Q3071.58 342.814 3074.51 339.376 Q3077.47 335.907 3077.47 330.178 L3077.47 328.873 L3071.65 328.873 M3083.33 326.454 L3083.33 346.792 L3077.47 346.792 L3077.47 341.381 Q3075.47 344.628 3072.47 346.187 Q3069.48 347.715 3065.15 347.715 Q3059.68 347.715 3056.43 344.66 Q3053.22 341.572 3053.22 336.416 Q3053.22 330.4 3057.23 327.345 Q3061.27 324.289 3069.26 324.289 L3077.47 324.289 L3077.47 323.716 Q3077.47 319.674 3074.8 317.478 Q3072.16 315.25 3067.35 315.25 Q3064.29 315.25 3061.4 315.982 Q3058.5 316.714 3055.83 318.178 L3055.83 312.767 Q3059.04 311.526 3062.07 310.921 Q3065.09 310.285 3067.96 310.285 Q3075.69 310.285 3079.51 314.295 Q3083.33 318.306 3083.33 326.454 Z" fill="#000000" fill-rule="evenodd" fill-opacity="1" /><path clip-path="url(#clip5900)" d="M 0 0 M3112.93 316.555 L3112.93 297.267 L3118.79 297.267 L3118.79 346.792 L3112.93 346.792 L3112.93 341.445 Q3111.08 344.628 3108.25 346.187 Q3105.45 347.715 3101.5 347.715 Q3095.04 347.715 3090.97 342.559 Q3086.93 337.403 3086.93 329 Q3086.93 320.597 3090.97 315.441 Q3095.04 310.285 3101.5 310.285 Q3105.45 310.285 3108.25 311.844 Q3111.08 313.372 3112.93 316.555 M3092.97 329 Q3092.97 335.461 3095.61 339.153 Q3098.29 342.814 3102.93 342.814 Q3107.58 342.814 3110.26 339.153 Q3112.93 335.461 3112.93 329 Q3112.93 322.539 3110.26 318.879 Q3107.58 315.186 3102.93 315.186 Q3098.29 315.186 3095.61 318.879 Q3092.97 322.539 3092.97 329 Z" fill="#000000" fill-rule="evenodd" fill-opacity="1" /><path clip-path="url(#clip5900)" d="M 0 0 M3147.59 341.381 L3158.09 341.381 L3158.09 305.129 L3146.67 307.42 L3146.67 301.564 L3158.03 299.272 L3164.46 299.272 L3164.46 341.381 L3174.96 341.381 L3174.96 346.792 L3147.59 346.792 L3147.59 341.381 Z" fill="#000000" fill-rule="evenodd" fill-opacity="1" /><polyline clip-path="url(#clip5900)" style="stroke:#e26f46; stroke-width:16; stroke-opacity:1; fill:none" points="
  2745.92,383.512 2937.92,383.512 
  "/>
<path clip-path="url(#clip5900)" d="M 0 0 M2991.95 364.113 Q2984.95 364.113 2980.81 369.333 Q2976.7 374.552 2976.7 383.56 Q2976.7 392.536 2980.81 397.755 Q2984.95 402.975 2991.95 402.975 Q2998.95 402.975 3003.03 397.755 Q3007.13 392.536 3007.13 383.56 Q3007.13 374.552 3003.03 369.333 Q2998.95 364.113 2991.95 364.113 M3000.96 406.413 L3009.42 415.675 L3001.66 415.675 L2994.62 408.068 Q2993.57 408.131 2993 408.163 Q2992.46 408.195 2991.95 408.195 Q2981.92 408.195 2975.91 401.511 Q2969.92 394.795 2969.92 383.56 Q2969.92 372.293 2975.91 365.609 Q2981.92 358.893 2991.95 358.893 Q3001.94 358.893 3007.93 365.609 Q3013.91 372.293 3013.91 383.56 Q3013.91 391.835 3010.57 397.724 Q3007.26 403.612 3000.96 406.413 Z" fill="#000000" fill-rule="evenodd" fill-opacity="1" /><path clip-path="url(#clip5900)" d="M 0 0 M3019.45 393.204 L3019.45 371.624 L3025.31 371.624 L3025.31 392.981 Q3025.31 398.042 3027.28 400.588 Q3029.25 403.103 3033.2 403.103 Q3037.94 403.103 3040.68 400.079 Q3043.45 397.055 3043.45 391.835 L3043.45 371.624 L3049.3 371.624 L3049.3 407.272 L3043.45 407.272 L3043.45 401.798 Q3041.31 405.044 3038.48 406.636 Q3035.68 408.195 3031.96 408.195 Q3025.81 408.195 3022.63 404.376 Q3019.45 400.556 3019.45 393.204 M3034.19 370.765 L3034.19 370.765 Z" fill="#000000" fill-rule="evenodd" fill-opacity="1" /><path clip-path="url(#clip5900)" d="M 0 0 M3071.65 389.353 Q3064.55 389.353 3061.81 390.976 Q3059.08 392.599 3059.08 396.514 Q3059.08 399.633 3061.11 401.479 Q3063.18 403.294 3066.71 403.294 Q3071.58 403.294 3074.51 399.856 Q3077.47 396.387 3077.47 390.658 L3077.47 389.353 L3071.65 389.353 M3083.33 386.934 L3083.33 407.272 L3077.47 407.272 L3077.47 401.861 Q3075.47 405.108 3072.47 406.667 Q3069.48 408.195 3065.15 408.195 Q3059.68 408.195 3056.43 405.14 Q3053.22 402.052 3053.22 396.896 Q3053.22 390.88 3057.23 387.825 Q3061.27 384.769 3069.26 384.769 L3077.47 384.769 L3077.47 384.196 Q3077.47 380.154 3074.8 377.958 Q3072.16 375.73 3067.35 375.73 Q3064.29 375.73 3061.4 376.462 Q3058.5 377.194 3055.83 378.658 L3055.83 373.247 Q3059.04 372.006 3062.07 371.401 Q3065.09 370.765 3067.96 370.765 Q3075.69 370.765 3079.51 374.775 Q3083.33 378.786 3083.33 386.934 Z" fill="#000000" fill-rule="evenodd" fill-opacity="1" /><path clip-path="url(#clip5900)" d="M 0 0 M3112.93 377.035 L3112.93 357.747 L3118.79 357.747 L3118.79 407.272 L3112.93 407.272 L3112.93 401.925 Q3111.08 405.108 3108.25 406.667 Q3105.45 408.195 3101.5 408.195 Q3095.04 408.195 3090.97 403.039 Q3086.93 397.883 3086.93 389.48 Q3086.93 381.077 3090.97 375.921 Q3095.04 370.765 3101.5 370.765 Q3105.45 370.765 3108.25 372.324 Q3111.08 373.852 3112.93 377.035 M3092.97 389.48 Q3092.97 395.941 3095.61 399.633 Q3098.29 403.294 3102.93 403.294 Q3107.58 403.294 3110.26 399.633 Q3112.93 395.941 3112.93 389.48 Q3112.93 383.019 3110.26 379.359 Q3107.58 375.666 3102.93 375.666 Q3098.29 375.666 3095.61 379.359 Q3092.97 383.019 3092.97 389.48 Z" fill="#000000" fill-rule="evenodd" fill-opacity="1" /><path clip-path="url(#clip5900)" d="M 0 0 M3152.01 401.861 L3174.45 401.861 L3174.45 407.272 L3144.28 407.272 L3144.28 401.861 Q3147.94 398.074 3154.24 391.708 Q3160.58 385.31 3162.2 383.464 Q3165.29 379.995 3166.5 377.608 Q3167.74 375.189 3167.74 372.865 Q3167.74 369.078 3165.06 366.691 Q3162.42 364.304 3158.16 364.304 Q3155.13 364.304 3151.76 365.354 Q3148.42 366.404 3144.6 368.537 L3144.6 362.044 Q3148.48 360.484 3151.86 359.688 Q3155.23 358.893 3158.03 358.893 Q3165.41 358.893 3169.81 362.585 Q3174.2 366.277 3174.2 372.452 Q3174.2 375.38 3173.08 378.022 Q3172 380.632 3169.11 384.196 Q3168.31 385.119 3164.05 389.544 Q3159.78 393.936 3152.01 401.861 Z" fill="#000000" fill-rule="evenodd" fill-opacity="1" /><polyline clip-path="url(#clip5900)" style="stroke:#3da44d; stroke-width:16; stroke-opacity:1; fill:none" points="
  2745.92,443.992 2937.92,443.992 
  "/>
<path clip-path="url(#clip5900)" d="M 0 0 M2991.95 424.593 Q2984.95 424.593 2980.81 429.813 Q2976.7 435.032 2976.7 444.04 Q2976.7 453.016 2980.81 458.235 Q2984.95 463.455 2991.95 463.455 Q2998.95 463.455 3003.03 458.235 Q3007.13 453.016 3007.13 444.04 Q3007.13 435.032 3003.03 429.813 Q2998.95 424.593 2991.95 424.593 M3000.96 466.893 L3009.42 476.155 L3001.66 476.155 L2994.62 468.548 Q2993.57 468.611 2993 468.643 Q2992.46 468.675 2991.95 468.675 Q2981.92 468.675 2975.91 461.991 Q2969.92 455.275 2969.92 444.04 Q2969.92 432.773 2975.91 426.089 Q2981.92 419.373 2991.95 419.373 Q3001.94 419.373 3007.93 426.089 Q3013.91 432.773 3013.91 444.04 Q3013.91 452.315 3010.57 458.204 Q3007.26 464.092 3000.96 466.893 Z" fill="#000000" fill-rule="evenodd" fill-opacity="1" /><path clip-path="url(#clip5900)" d="M 0 0 M3019.45 453.684 L3019.45 432.104 L3025.31 432.104 L3025.31 453.461 Q3025.31 458.522 3027.28 461.068 Q3029.25 463.583 3033.2 463.583 Q3037.94 463.583 3040.68 460.559 Q3043.45 457.535 3043.45 452.315 L3043.45 432.104 L3049.3 432.104 L3049.3 467.752 L3043.45 467.752 L3043.45 462.278 Q3041.31 465.524 3038.48 467.116 Q3035.68 468.675 3031.96 468.675 Q3025.81 468.675 3022.63 464.856 Q3019.45 461.036 3019.45 453.684 M3034.19 431.245 L3034.19 431.245 Z" fill="#000000" fill-rule="evenodd" fill-opacity="1" /><path clip-path="url(#clip5900)" d="M 0 0 M3071.65 449.833 Q3064.55 449.833 3061.81 451.456 Q3059.08 453.079 3059.08 456.994 Q3059.08 460.113 3061.11 461.959 Q3063.18 463.774 3066.71 463.774 Q3071.58 463.774 3074.51 460.336 Q3077.47 456.867 3077.47 451.138 L3077.47 449.833 L3071.65 449.833 M3083.33 447.414 L3083.33 467.752 L3077.47 467.752 L3077.47 462.341 Q3075.47 465.588 3072.47 467.147 Q3069.48 468.675 3065.15 468.675 Q3059.68 468.675 3056.43 465.62 Q3053.22 462.532 3053.22 457.376 Q3053.22 451.36 3057.23 448.305 Q3061.27 445.249 3069.26 445.249 L3077.47 445.249 L3077.47 444.676 Q3077.47 440.634 3074.8 438.438 Q3072.16 436.21 3067.35 436.21 Q3064.29 436.21 3061.4 436.942 Q3058.5 437.674 3055.83 439.138 L3055.83 433.727 Q3059.04 432.486 3062.07 431.881 Q3065.09 431.245 3067.96 431.245 Q3075.69 431.245 3079.51 435.255 Q3083.33 439.266 3083.33 447.414 Z" fill="#000000" fill-rule="evenodd" fill-opacity="1" /><path clip-path="url(#clip5900)" d="M 0 0 M3112.93 437.515 L3112.93 418.227 L3118.79 418.227 L3118.79 467.752 L3112.93 467.752 L3112.93 462.405 Q3111.08 465.588 3108.25 467.147 Q3105.45 468.675 3101.5 468.675 Q3095.04 468.675 3090.97 463.519 Q3086.93 458.363 3086.93 449.96 Q3086.93 441.557 3090.97 436.401 Q3095.04 431.245 3101.5 431.245 Q3105.45 431.245 3108.25 432.804 Q3111.08 434.332 3112.93 437.515 M3092.97 449.96 Q3092.97 456.421 3095.61 460.113 Q3098.29 463.774 3102.93 463.774 Q3107.58 463.774 3110.26 460.113 Q3112.93 456.421 3112.93 449.96 Q3112.93 443.499 3110.26 439.839 Q3107.58 436.146 3102.93 436.146 Q3098.29 436.146 3095.61 439.839 Q3092.97 443.499 3092.97 449.96 Z" fill="#000000" fill-rule="evenodd" fill-opacity="1" /><path clip-path="url(#clip5900)" d="M 0 0 M3165.96 442.13 Q3170.57 443.117 3173.15 446.236 Q3175.76 449.355 3175.76 453.939 Q3175.76 460.973 3170.92 464.824 Q3166.08 468.675 3157.17 468.675 Q3154.18 468.675 3151 468.07 Q3147.84 467.497 3144.47 466.32 L3144.47 460.113 Q3147.14 461.673 3150.33 462.469 Q3153.51 463.264 3156.98 463.264 Q3163.03 463.264 3166.18 460.877 Q3169.36 458.49 3169.36 453.939 Q3169.36 449.737 3166.4 447.382 Q3163.47 444.995 3158.22 444.995 L3152.68 444.995 L3152.68 439.711 L3158.48 439.711 Q3163.22 439.711 3165.73 437.833 Q3168.25 435.924 3168.25 432.359 Q3168.25 428.699 3165.64 426.757 Q3163.06 424.784 3158.22 424.784 Q3155.58 424.784 3152.56 425.357 Q3149.53 425.929 3145.9 427.139 L3145.9 421.41 Q3149.56 420.391 3152.75 419.882 Q3155.96 419.373 3158.79 419.373 Q3166.11 419.373 3170.38 422.715 Q3174.64 426.025 3174.64 431.69 Q3174.64 435.637 3172.38 438.374 Q3170.12 441.08 3165.96 442.13 Z" fill="#000000" fill-rule="evenodd" fill-opacity="1" /><polyline clip-path="url(#clip5900)" style="stroke:#c271d2; stroke-width:16; stroke-opacity:1; fill:none" points="
  2745.92,504.472 2937.92,504.472 
  "/>
<path clip-path="url(#clip5900)" d="M 0 0 M2991.95 485.073 Q2984.95 485.073 2980.81 490.293 Q2976.7 495.512 2976.7 504.52 Q2976.7 513.496 2980.81 518.715 Q2984.95 523.935 2991.95 523.935 Q2998.95 523.935 3003.03 518.715 Q3007.13 513.496 3007.13 504.52 Q3007.13 495.512 3003.03 490.293 Q2998.95 485.073 2991.95 485.073 M3000.96 527.373 L3009.42 536.635 L3001.66 536.635 L2994.62 529.028 Q2993.57 529.091 2993 529.123 Q2992.46 529.155 2991.95 529.155 Q2981.92 529.155 2975.91 522.471 Q2969.92 515.755 2969.92 504.52 Q2969.92 493.253 2975.91 486.569 Q2981.92 479.853 2991.95 479.853 Q3001.94 479.853 3007.93 486.569 Q3013.91 493.253 3013.91 504.52 Q3013.91 512.795 3010.57 518.684 Q3007.26 524.572 3000.96 527.373 Z" fill="#000000" fill-rule="evenodd" fill-opacity="1" /><path clip-path="url(#clip5900)" d="M 0 0 M3019.45 514.164 L3019.45 492.584 L3025.31 492.584 L3025.31 513.941 Q3025.31 519.002 3027.28 521.548 Q3029.25 524.063 3033.2 524.063 Q3037.94 524.063 3040.68 521.039 Q3043.45 518.015 3043.45 512.795 L3043.45 492.584 L3049.3 492.584 L3049.3 528.232 L3043.45 528.232 L3043.45 522.758 Q3041.31 526.004 3038.48 527.596 Q3035.68 529.155 3031.96 529.155 Q3025.81 529.155 3022.63 525.336 Q3019.45 521.516 3019.45 514.164 M3034.19 491.725 L3034.19 491.725 Z" fill="#000000" fill-rule="evenodd" fill-opacity="1" /><path clip-path="url(#clip5900)" d="M 0 0 M3071.65 510.313 Q3064.55 510.313 3061.81 511.936 Q3059.08 513.559 3059.08 517.474 Q3059.08 520.593 3061.11 522.439 Q3063.18 524.254 3066.71 524.254 Q3071.58 524.254 3074.51 520.816 Q3077.47 517.347 3077.47 511.618 L3077.47 510.313 L3071.65 510.313 M3083.33 507.894 L3083.33 528.232 L3077.47 528.232 L3077.47 522.821 Q3075.47 526.068 3072.47 527.627 Q3069.48 529.155 3065.15 529.155 Q3059.68 529.155 3056.43 526.1 Q3053.22 523.012 3053.22 517.856 Q3053.22 511.84 3057.23 508.785 Q3061.27 505.729 3069.26 505.729 L3077.47 505.729 L3077.47 505.156 Q3077.47 501.114 3074.8 498.918 Q3072.16 496.69 3067.35 496.69 Q3064.29 496.69 3061.4 497.422 Q3058.5 498.154 3055.83 499.618 L3055.83 494.207 Q3059.04 492.966 3062.07 492.361 Q3065.09 491.725 3067.96 491.725 Q3075.69 491.725 3079.51 495.735 Q3083.33 499.746 3083.33 507.894 Z" fill="#000000" fill-rule="evenodd" fill-opacity="1" /><path clip-path="url(#clip5900)" d="M 0 0 M3112.93 497.995 L3112.93 478.707 L3118.79 478.707 L3118.79 528.232 L3112.93 528.232 L3112.93 522.885 Q3111.08 526.068 3108.25 527.627 Q3105.45 529.155 3101.5 529.155 Q3095.04 529.155 3090.97 523.999 Q3086.93 518.843 3086.93 510.44 Q3086.93 502.037 3090.97 496.881 Q3095.04 491.725 3101.5 491.725 Q3105.45 491.725 3108.25 493.284 Q3111.08 494.812 3112.93 497.995 M3092.97 510.44 Q3092.97 516.901 3095.61 520.593 Q3098.29 524.254 3102.93 524.254 Q3107.58 524.254 3110.26 520.593 Q3112.93 516.901 3112.93 510.44 Q3112.93 503.979 3110.26 500.319 Q3107.58 496.626 3102.93 496.626 Q3098.29 496.626 3095.61 500.319 Q3092.97 503.979 3092.97 510.44 Z" fill="#000000" fill-rule="evenodd" fill-opacity="1" /><path clip-path="url(#clip5900)" d="M 0 0 M3164.14 486.314 L3147.91 511.681 L3164.14 511.681 L3164.14 486.314 M3162.45 480.712 L3170.54 480.712 L3170.54 511.681 L3177.32 511.681 L3177.32 517.028 L3170.54 517.028 L3170.54 528.232 L3164.14 528.232 L3164.14 517.028 L3142.69 517.028 L3142.69 510.822 L3162.45 480.712 Z" fill="#000000" fill-rule="evenodd" fill-opacity="1" /><polyline clip-path="url(#clip5900)" style="stroke:#ac8d18; stroke-width:16; stroke-opacity:1; fill:none" points="
  2745.92,564.952 2937.92,564.952 
  "/>
<path clip-path="url(#clip5900)" d="M 0 0 M2969.92 541.192 L2976.35 541.192 L2976.35 583.301 L2999.49 583.301 L2999.49 588.712 L2969.92 588.712 L2969.92 541.192 Z" fill="#000000" fill-rule="evenodd" fill-opacity="1" /><path clip-path="url(#clip5900)" d="M 0 0 M3018.3 557.17 Q3013.59 557.17 3010.85 560.862 Q3008.12 564.522 3008.12 570.92 Q3008.12 577.318 3010.82 581.01 Q3013.56 584.67 3018.3 584.67 Q3022.98 584.67 3025.72 580.978 Q3028.46 577.286 3028.46 570.92 Q3028.46 564.586 3025.72 560.894 Q3022.98 557.17 3018.3 557.17 M3018.3 552.205 Q3025.94 552.205 3030.3 557.17 Q3034.66 562.135 3034.66 570.92 Q3034.66 579.673 3030.3 584.67 Q3025.94 589.635 3018.3 589.635 Q3010.63 589.635 3006.27 584.67 Q3001.94 579.673 3001.94 570.92 Q3001.94 562.135 3006.27 557.17 Q3010.63 552.205 3018.3 552.205 Z" fill="#000000" fill-rule="evenodd" fill-opacity="1" /><path clip-path="url(#clip5900)" d="M 0 0 M3057.01 570.793 Q3049.91 570.793 3047.17 572.416 Q3044.43 574.039 3044.43 577.954 Q3044.43 581.073 3046.47 582.919 Q3048.54 584.734 3052.07 584.734 Q3056.94 584.734 3059.87 581.296 Q3062.83 577.827 3062.83 572.098 L3062.83 570.793 L3057.01 570.793 M3068.69 568.374 L3068.69 588.712 L3062.83 588.712 L3062.83 583.301 Q3060.83 586.548 3057.83 588.107 Q3054.84 589.635 3050.51 589.635 Q3045.04 589.635 3041.79 586.58 Q3038.58 583.492 3038.58 578.336 Q3038.58 572.32 3042.59 569.265 Q3046.63 566.209 3054.62 566.209 L3062.83 566.209 L3062.83 565.636 Q3062.83 561.594 3060.16 559.398 Q3057.52 557.17 3052.71 557.17 Q3049.65 557.17 3046.76 557.902 Q3043.86 558.634 3041.19 560.098 L3041.19 554.687 Q3044.4 553.446 3047.43 552.841 Q3050.45 552.205 3053.31 552.205 Q3061.05 552.205 3064.87 556.215 Q3068.69 560.226 3068.69 568.374 Z" fill="#000000" fill-rule="evenodd" fill-opacity="1" /><path clip-path="url(#clip5900)" d="M 0 0 M3098.29 558.475 L3098.29 539.187 L3104.14 539.187 L3104.14 588.712 L3098.29 588.712 L3098.29 583.365 Q3096.44 586.548 3093.61 588.107 Q3090.81 589.635 3086.86 589.635 Q3080.4 589.635 3076.33 584.479 Q3072.28 579.323 3072.28 570.92 Q3072.28 562.517 3076.33 557.361 Q3080.4 552.205 3086.86 552.205 Q3090.81 552.205 3093.61 553.764 Q3096.44 555.292 3098.29 558.475 M3078.33 570.92 Q3078.33 577.381 3080.97 581.073 Q3083.65 584.734 3088.29 584.734 Q3092.94 584.734 3095.61 581.073 Q3098.29 577.381 3098.29 570.92 Q3098.29 564.459 3095.61 560.799 Q3092.94 557.106 3088.29 557.106 Q3083.65 557.106 3080.97 560.799 Q3078.33 564.459 3078.33 570.92 Z" fill="#000000" fill-rule="evenodd" fill-opacity="1" /></svg>
