<?xml version="1.0" encoding="utf-8"?>
<svg xmlns="http://www.w3.org/2000/svg" xmlns:xlink="http://www.w3.org/1999/xlink" width="800" height="600" viewBox="0 0 3200 2400">
<defs>
  <clipPath id="clip5600">
    <rect x="0" y="0" width="3200" height="2400"/>
  </clipPath>
</defs>
<path clip-path="url(#clip5600)" d="
M0 2400 L3200 2400 L3200 0 L0 0  Z
  " fill="#ffffff" fill-rule="evenodd" fill-opacity="1"/>
<defs>
  <clipPath id="clip5601">
    <rect x="640" y="0" width="2241" height="2241"/>
  </clipPath>
</defs>
<path clip-path="url(#clip5600)" d="
M239.663 2204.92 L2617.92 2204.92 L2617.92 131.032 L239.663 131.032  Z
  " fill="#ffffff" fill-rule="evenodd" fill-opacity="1"/>
<defs>
  <clipPath id="clip5602">
    <rect x="239" y="131" width="2379" height="2075"/>
  </clipPath>
</defs>
<polyline clip-path="url(#clip5602)" style="stroke:#000000; stroke-width:2; stroke-opacity:0.1; fill:none" points="
  306.972,2204.92 306.972,131.032 
  "/>
<polyline clip-path="url(#clip5602)" style="stroke:#000000; stroke-width:2; stroke-opacity:0.1; fill:none" points="
  755.7,2204.92 755.7,131.032 
  "/>
<polyline clip-path="url(#clip5602)" style="stroke:#000000; stroke-width:2; stroke-opacity:0.1; fill:none" points="
  1204.43,2204.92 1204.43,131.032 
  "/>
<polyline clip-path="url(#clip5602)" style="stroke:#000000; stroke-width:2; stroke-opacity:0.1; fill:none" points="
  1653.16,2204.92 1653.16,131.032 
  "/>
<polyline clip-path="url(#clip5602)" style="stroke:#000000; stroke-width:2; stroke-opacity:0.1; fill:none" points="
  2101.89,2204.92 2101.89,131.032 
  "/>
<polyline clip-path="url(#clip5602)" style="stroke:#000000; stroke-width:2; stroke-opacity:0.1; fill:none" points="
  2550.61,2204.92 2550.61,131.032 
  "/>
<polyline clip-path="url(#clip5602)" style="stroke:#000000; stroke-width:2; stroke-opacity:0.1; fill:none" points="
  239.663,2086.76 2617.92,2086.76 
  "/>
<polyline clip-path="url(#clip5602)" style="stroke:#000000; stroke-width:2; stroke-opacity:0.1; fill:none" points="
  239.663,1709.13 2617.92,1709.13 
  "/>
<polyline clip-path="url(#clip5602)" style="stroke:#000000; stroke-width:2; stroke-opacity:0.1; fill:none" points="
  239.663,1331.5 2617.92,1331.5 
  "/>
<polyline clip-path="url(#clip5602)" style="stroke:#000000; stroke-width:2; stroke-opacity:0.1; fill:none" points="
  239.663,953.864 2617.92,953.864 
  "/>
<polyline clip-path="url(#clip5602)" style="stroke:#000000; stroke-width:2; stroke-opacity:0.1; fill:none" points="
  239.663,576.231 2617.92,576.231 
  "/>
<polyline clip-path="url(#clip5602)" style="stroke:#000000; stroke-width:2; stroke-opacity:0.1; fill:none" points="
  239.663,198.598 2617.92,198.598 
  "/>
<polyline clip-path="url(#clip5600)" style="stroke:#000000; stroke-width:4; stroke-opacity:1; fill:none" points="
  239.663,2204.92 2617.92,2204.92 
  "/>
<polyline clip-path="url(#clip5600)" style="stroke:#000000; stroke-width:4; stroke-opacity:1; fill:none" points="
  239.663,2204.92 239.663,131.032 
  "/>
<polyline clip-path="url(#clip5600)" style="stroke:#000000; stroke-width:4; stroke-opacity:1; fill:none" points="
  306.972,2204.92 306.972,2180.03 
  "/>
<polyline clip-path="url(#clip5600)" style="stroke:#000000; stroke-width:4; stroke-opacity:1; fill:none" points="
  755.7,2204.92 755.7,2180.03 
  "/>
<polyline clip-path="url(#clip5600)" style="stroke:#000000; stroke-width:4; stroke-opacity:1; fill:none" points="
  1204.43,2204.92 1204.43,2180.03 
  "/>
<polyline clip-path="url(#clip5600)" style="stroke:#000000; stroke-width:4; stroke-opacity:1; fill:none" points="
  1653.16,2204.92 1653.16,2180.03 
  "/>
<polyline clip-path="url(#clip5600)" style="stroke:#000000; stroke-width:4; stroke-opacity:1; fill:none" points="
  2101.89,2204.92 2101.89,2180.03 
  "/>
<polyline clip-path="url(#clip5600)" style="stroke:#000000; stroke-width:4; stroke-opacity:1; fill:none" points="
  2550.61,2204.92 2550.61,2180.03 
  "/>
<polyline clip-path="url(#clip5600)" style="stroke:#000000; stroke-width:4; stroke-opacity:1; fill:none" points="
  239.663,2086.76 268.202,2086.76 
  "/>
<polyline clip-path="url(#clip5600)" style="stroke:#000000; stroke-width:4; stroke-opacity:1; fill:none" points="
  239.663,1709.13 268.202,1709.13 
  "/>
<polyline clip-path="url(#clip5600)" style="stroke:#000000; stroke-width:4; stroke-opacity:1; fill:none" points="
  239.663,1331.5 268.202,1331.5 
  "/>
<polyline clip-path="url(#clip5600)" style="stroke:#000000; stroke-width:4; stroke-opacity:1; fill:none" points="
  239.663,953.864 268.202,953.864 
  "/>
<polyline clip-path="url(#clip5600)" style="stroke:#000000; stroke-width:4; stroke-opacity:1; fill:none" points="
  239.663,576.231 268.202,576.231 
  "/>
<polyline clip-path="url(#clip5600)" style="stroke:#000000; stroke-width:4; stroke-opacity:1; fill:none" points="
  239.663,198.598 268.202,198.598 
  "/>
<path clip-path="url(#clip5600)" d="M 0 0 M306.972 2230.91 Q303.361 2230.91 301.532 2234.48 Q299.727 2238.02 299.727 2245.15 Q299.727 2252.25 301.532 2255.82 Q303.361 2259.36 306.972 2259.36 Q310.606 2259.36 312.412 2255.82 Q314.24 2252.25 314.24 2245.15 Q314.24 2238.02 312.412 2234.48 Q310.606 2230.91 306.972 2230.91 M306.972 2227.21 Q312.782 2227.21 315.838 2231.81 Q318.916 2236.4 318.916 2245.15 Q318.916 2253.87 315.838 2258.48 Q312.782 2263.06 306.972 2263.06 Q301.162 2263.06 298.083 2258.48 Q295.028 2253.87 295.028 2245.15 Q295.028 2236.4 298.083 2231.81 Q301.162 2227.21 306.972 2227.21 Z" fill="#000000" fill-rule="evenodd" fill-opacity="1" /><path clip-path="url(#clip5600)" d="M 0 0 M746.082 2258.46 L753.721 2258.46 L753.721 2232.09 L745.411 2233.76 L745.411 2229.5 L753.675 2227.83 L758.351 2227.83 L758.351 2258.46 L765.99 2258.46 L765.99 2262.39 L746.082 2262.39 L746.082 2258.46 Z" fill="#000000" fill-rule="evenodd" fill-opacity="1" /><path clip-path="url(#clip5600)" d="M 0 0 M1199.08 2258.46 L1215.4 2258.46 L1215.4 2262.39 L1193.46 2262.39 L1193.46 2258.46 Q1196.12 2255.7 1200.7 2251.07 Q1205.31 2246.42 1206.49 2245.08 Q1208.73 2242.55 1209.61 2240.82 Q1210.52 2239.06 1210.52 2237.37 Q1210.52 2234.61 1208.57 2232.88 Q1206.65 2231.14 1203.55 2231.14 Q1201.35 2231.14 1198.9 2231.91 Q1196.47 2232.67 1193.69 2234.22 L1193.69 2229.5 Q1196.51 2228.36 1198.97 2227.79 Q1201.42 2227.21 1203.46 2227.21 Q1208.83 2227.21 1212.02 2229.89 Q1215.22 2232.58 1215.22 2237.07 Q1215.22 2239.2 1214.41 2241.12 Q1213.62 2243.02 1211.51 2245.61 Q1210.93 2246.28 1207.83 2249.5 Q1204.73 2252.69 1199.08 2258.46 Z" fill="#000000" fill-rule="evenodd" fill-opacity="1" /><path clip-path="url(#clip5600)" d="M 0 0 M1657.4 2243.76 Q1660.76 2244.48 1662.64 2246.74 Q1664.53 2249.01 1664.53 2252.35 Q1664.53 2257.46 1661.02 2260.26 Q1657.5 2263.06 1651.02 2263.06 Q1648.84 2263.06 1646.53 2262.62 Q1644.23 2262.21 1641.78 2261.35 L1641.78 2256.84 Q1643.72 2257.97 1646.04 2258.55 Q1648.35 2259.13 1650.88 2259.13 Q1655.28 2259.13 1657.57 2257.39 Q1659.88 2255.66 1659.88 2252.35 Q1659.88 2249.29 1657.73 2247.58 Q1655.6 2245.84 1651.78 2245.84 L1647.75 2245.84 L1647.75 2242 L1651.97 2242 Q1655.41 2242 1657.24 2240.63 Q1659.07 2239.24 1659.07 2236.65 Q1659.07 2233.99 1657.17 2232.58 Q1655.3 2231.14 1651.78 2231.14 Q1649.86 2231.14 1647.66 2231.56 Q1645.46 2231.98 1642.82 2232.85 L1642.82 2228.69 Q1645.48 2227.95 1647.8 2227.58 Q1650.14 2227.21 1652.2 2227.21 Q1657.52 2227.21 1660.62 2229.64 Q1663.72 2232.04 1663.72 2236.17 Q1663.72 2239.04 1662.08 2241.03 Q1660.44 2242.99 1657.4 2243.76 Z" fill="#000000" fill-rule="evenodd" fill-opacity="1" /><path clip-path="url(#clip5600)" d="M 0 0 M2104.89 2231.91 L2093.09 2250.35 L2104.89 2250.35 L2104.89 2231.91 M2103.67 2227.83 L2109.55 2227.83 L2109.55 2250.35 L2114.48 2250.35 L2114.48 2254.24 L2109.55 2254.24 L2109.55 2262.39 L2104.89 2262.39 L2104.89 2254.24 L2089.29 2254.24 L2089.29 2249.73 L2103.67 2227.83 Z" fill="#000000" fill-rule="evenodd" fill-opacity="1" /><path clip-path="url(#clip5600)" d="M 0 0 M2540.89 2227.83 L2559.25 2227.83 L2559.25 2231.77 L2545.17 2231.77 L2545.17 2240.24 Q2546.19 2239.89 2547.21 2239.73 Q2548.23 2239.54 2549.25 2239.54 Q2555.04 2239.54 2558.42 2242.72 Q2561.79 2245.89 2561.79 2251.3 Q2561.79 2256.88 2558.32 2259.98 Q2554.85 2263.06 2548.53 2263.06 Q2546.35 2263.06 2544.09 2262.69 Q2541.84 2262.32 2539.43 2261.58 L2539.43 2256.88 Q2541.52 2258.02 2543.74 2258.57 Q2545.96 2259.13 2548.44 2259.13 Q2552.44 2259.13 2554.78 2257.02 Q2557.12 2254.92 2557.12 2251.3 Q2557.12 2247.69 2554.78 2245.59 Q2552.44 2243.48 2548.44 2243.48 Q2546.56 2243.48 2544.69 2243.9 Q2542.84 2244.31 2540.89 2245.19 L2540.89 2227.83 Z" fill="#000000" fill-rule="evenodd" fill-opacity="1" /><path clip-path="url(#clip5600)" d="M 0 0 M133.797 2089.16 L146.274 2089.16 L146.274 2092.95 L133.797 2092.95 L133.797 2089.16 Z" fill="#000000" fill-rule="evenodd" fill-opacity="1" /><path clip-path="url(#clip5600)" d="M 0 0 M155.371 2100.11 L171.691 2100.11 L171.691 2104.04 L149.746 2104.04 L149.746 2100.11 Q152.408 2097.35 156.992 2092.72 Q161.598 2088.07 162.779 2086.73 Q165.024 2084.2 165.904 2082.47 Q166.806 2080.71 166.806 2079.02 Q166.806 2076.26 164.862 2074.53 Q162.941 2072.79 159.839 2072.79 Q157.64 2072.79 155.186 2073.56 Q152.756 2074.32 149.978 2075.87 L149.978 2071.15 Q152.802 2070.01 155.256 2069.44 Q157.709 2068.86 159.746 2068.86 Q165.117 2068.86 168.311 2071.54 Q171.506 2074.23 171.506 2078.72 Q171.506 2080.85 170.695 2082.77 Q169.908 2084.67 167.802 2087.26 Q167.223 2087.93 164.121 2091.15 Q161.019 2094.34 155.371 2100.11 Z" fill="#000000" fill-rule="evenodd" fill-opacity="1" /><path clip-path="url(#clip5600)" d="M 0 0 M176.76 2098.16 L181.644 2098.16 L181.644 2104.04 L176.76 2104.04 L176.76 2098.16 Z" fill="#000000" fill-rule="evenodd" fill-opacity="1" /><path clip-path="url(#clip5600)" d="M 0 0 M186.76 2069.48 L205.116 2069.48 L205.116 2073.42 L191.042 2073.42 L191.042 2081.89 Q192.061 2081.54 193.079 2081.38 Q194.098 2081.19 195.116 2081.19 Q200.903 2081.19 204.283 2084.37 Q207.663 2087.54 207.663 2092.95 Q207.663 2098.53 204.191 2101.63 Q200.718 2104.71 194.399 2104.71 Q192.223 2104.71 189.954 2104.34 Q187.709 2103.97 185.302 2103.23 L185.302 2098.53 Q187.385 2099.67 189.607 2100.22 Q191.829 2100.78 194.306 2100.78 Q198.311 2100.78 200.649 2098.67 Q202.987 2096.56 202.987 2092.95 Q202.987 2089.34 200.649 2087.24 Q198.311 2085.13 194.306 2085.13 Q192.431 2085.13 190.556 2085.55 Q188.704 2085.96 186.76 2086.84 L186.76 2069.48 Z" fill="#000000" fill-rule="evenodd" fill-opacity="1" /><path clip-path="url(#clip5600)" d="M 0 0 M132.802 1711.52 L145.279 1711.52 L145.279 1715.32 L132.802 1715.32 L132.802 1711.52 Z" fill="#000000" fill-rule="evenodd" fill-opacity="1" /><path clip-path="url(#clip5600)" d="M 0 0 M154.376 1722.47 L170.695 1722.47 L170.695 1726.41 L148.751 1726.41 L148.751 1722.47 Q151.413 1719.72 155.996 1715.09 Q160.603 1710.44 161.783 1709.09 Q164.029 1706.57 164.908 1704.83 Q165.811 1703.08 165.811 1701.39 Q165.811 1698.63 163.867 1696.9 Q161.945 1695.16 158.844 1695.16 Q156.644 1695.16 154.191 1695.92 Q151.76 1696.69 148.982 1698.24 L148.982 1693.52 Q151.807 1692.38 154.26 1691.8 Q156.714 1691.22 158.751 1691.22 Q164.121 1691.22 167.316 1693.91 Q170.51 1696.59 170.51 1701.08 Q170.51 1703.21 169.7 1705.14 Q168.913 1707.03 166.806 1709.63 Q166.228 1710.3 163.126 1713.52 Q160.024 1716.71 154.376 1722.47 Z" fill="#000000" fill-rule="evenodd" fill-opacity="1" /><path clip-path="url(#clip5600)" d="M 0 0 M175.765 1720.53 L180.649 1720.53 L180.649 1726.41 L175.765 1726.41 L175.765 1720.53 Z" fill="#000000" fill-rule="evenodd" fill-opacity="1" /><path clip-path="url(#clip5600)" d="M 0 0 M195.718 1694.93 Q192.107 1694.93 190.279 1698.49 Q188.473 1702.03 188.473 1709.16 Q188.473 1716.27 190.279 1719.83 Q192.107 1723.38 195.718 1723.38 Q199.353 1723.38 201.158 1719.83 Q202.987 1716.27 202.987 1709.16 Q202.987 1702.03 201.158 1698.49 Q199.353 1694.93 195.718 1694.93 M195.718 1691.22 Q201.528 1691.22 204.584 1695.83 Q207.663 1700.41 207.663 1709.16 Q207.663 1717.89 204.584 1722.5 Q201.528 1727.08 195.718 1727.08 Q189.908 1727.08 186.829 1722.5 Q183.774 1717.89 183.774 1709.16 Q183.774 1700.41 186.829 1695.83 Q189.908 1691.22 195.718 1691.22 Z" fill="#000000" fill-rule="evenodd" fill-opacity="1" /><path clip-path="url(#clip5600)" d="M 0 0 M133.427 1333.89 L145.904 1333.89 L145.904 1337.69 L133.427 1337.69 L133.427 1333.89 Z" fill="#000000" fill-rule="evenodd" fill-opacity="1" /><path clip-path="url(#clip5600)" d="M 0 0 M151.783 1344.84 L159.422 1344.84 L159.422 1318.48 L151.112 1320.14 L151.112 1315.88 L159.376 1314.22 L164.052 1314.22 L164.052 1344.84 L171.691 1344.84 L171.691 1348.78 L151.783 1348.78 L151.783 1344.84 Z" fill="#000000" fill-rule="evenodd" fill-opacity="1" /><path clip-path="url(#clip5600)" d="M 0 0 M176.76 1342.9 L181.644 1342.9 L181.644 1348.78 L176.76 1348.78 L176.76 1342.9 Z" fill="#000000" fill-rule="evenodd" fill-opacity="1" /><path clip-path="url(#clip5600)" d="M 0 0 M186.76 1314.22 L205.116 1314.22 L205.116 1318.15 L191.042 1318.15 L191.042 1326.62 Q192.061 1326.28 193.079 1326.11 Q194.098 1325.93 195.116 1325.93 Q200.903 1325.93 204.283 1329.1 Q207.663 1332.27 207.663 1337.69 Q207.663 1343.27 204.191 1346.37 Q200.718 1349.45 194.399 1349.45 Q192.223 1349.45 189.954 1349.08 Q187.709 1348.71 185.302 1347.97 L185.302 1343.27 Q187.385 1344.4 189.607 1344.96 Q191.829 1345.51 194.306 1345.51 Q198.311 1345.51 200.649 1343.41 Q202.987 1341.3 202.987 1337.69 Q202.987 1334.08 200.649 1331.97 Q198.311 1329.86 194.306 1329.86 Q192.431 1329.86 190.556 1330.28 Q188.704 1330.7 186.76 1331.58 L186.76 1314.22 Z" fill="#000000" fill-rule="evenodd" fill-opacity="1" /><path clip-path="url(#clip5600)" d="M 0 0 M132.432 956.26 L144.908 956.26 L144.908 960.056 L132.432 960.056 L132.432 956.26 Z" fill="#000000" fill-rule="evenodd" fill-opacity="1" /><path clip-path="url(#clip5600)" d="M 0 0 M150.788 967.209 L158.427 967.209 L158.427 940.843 L150.117 942.51 L150.117 938.25 L158.381 936.584 L163.056 936.584 L163.056 967.209 L170.695 967.209 L170.695 971.144 L150.788 971.144 L150.788 967.209 Z" fill="#000000" fill-rule="evenodd" fill-opacity="1" /><path clip-path="url(#clip5600)" d="M 0 0 M175.765 965.264 L180.649 965.264 L180.649 971.144 L175.765 971.144 L175.765 965.264 Z" fill="#000000" fill-rule="evenodd" fill-opacity="1" /><path clip-path="url(#clip5600)" d="M 0 0 M195.718 939.662 Q192.107 939.662 190.279 943.227 Q188.473 946.769 188.473 953.898 Q188.473 961.005 190.279 964.57 Q192.107 968.111 195.718 968.111 Q199.353 968.111 201.158 964.57 Q202.987 961.005 202.987 953.898 Q202.987 946.769 201.158 943.227 Q199.353 939.662 195.718 939.662 M195.718 935.959 Q201.528 935.959 204.584 940.565 Q207.663 945.148 207.663 953.898 Q207.663 962.625 204.584 967.232 Q201.528 971.815 195.718 971.815 Q189.908 971.815 186.829 967.232 Q183.774 962.625 183.774 953.898 Q183.774 945.148 186.829 940.565 Q189.908 935.959 195.718 935.959 Z" fill="#000000" fill-rule="evenodd" fill-opacity="1" /><path clip-path="url(#clip5600)" d="M 0 0 M132.2 578.627 L144.677 578.627 L144.677 582.423 L132.2 582.423 L132.2 578.627 Z" fill="#000000" fill-rule="evenodd" fill-opacity="1" /><path clip-path="url(#clip5600)" d="M 0 0 M159.746 562.03 Q156.135 562.03 154.307 565.595 Q152.501 569.136 152.501 576.266 Q152.501 583.372 154.307 586.937 Q156.135 590.479 159.746 590.479 Q163.381 590.479 165.186 586.937 Q167.015 583.372 167.015 576.266 Q167.015 569.136 165.186 565.595 Q163.381 562.03 159.746 562.03 M159.746 558.326 Q165.556 558.326 168.612 562.933 Q171.691 567.516 171.691 576.266 Q171.691 584.993 168.612 589.599 Q165.556 594.182 159.746 594.182 Q153.936 594.182 150.857 589.599 Q147.802 584.993 147.802 576.266 Q147.802 567.516 150.857 562.933 Q153.936 558.326 159.746 558.326 Z" fill="#000000" fill-rule="evenodd" fill-opacity="1" /><path clip-path="url(#clip5600)" d="M 0 0 M176.76 587.631 L181.644 587.631 L181.644 593.511 L176.76 593.511 L176.76 587.631 Z" fill="#000000" fill-rule="evenodd" fill-opacity="1" /><path clip-path="url(#clip5600)" d="M 0 0 M186.76 558.951 L205.116 558.951 L205.116 562.886 L191.042 562.886 L191.042 571.358 Q192.061 571.011 193.079 570.849 Q194.098 570.664 195.116 570.664 Q200.903 570.664 204.283 573.835 Q207.663 577.007 207.663 582.423 Q207.663 588.002 204.191 591.104 Q200.718 594.182 194.399 594.182 Q192.223 594.182 189.954 593.812 Q187.709 593.442 185.302 592.701 L185.302 588.002 Q187.385 589.136 189.607 589.692 Q191.829 590.247 194.306 590.247 Q198.311 590.247 200.649 588.141 Q202.987 586.034 202.987 582.423 Q202.987 578.812 200.649 576.706 Q198.311 574.599 194.306 574.599 Q192.431 574.599 190.556 575.016 Q188.704 575.432 186.76 576.312 L186.76 558.951 Z" fill="#000000" fill-rule="evenodd" fill-opacity="1" /><path clip-path="url(#clip5600)" d="M 0 0 M158.751 184.397 Q155.14 184.397 153.311 187.962 Q151.506 191.504 151.506 198.633 Q151.506 205.74 153.311 209.304 Q155.14 212.846 158.751 212.846 Q162.385 212.846 164.191 209.304 Q166.019 205.74 166.019 198.633 Q166.019 191.504 164.191 187.962 Q162.385 184.397 158.751 184.397 M158.751 180.693 Q164.561 180.693 167.617 185.3 Q170.695 189.883 170.695 198.633 Q170.695 207.36 167.617 211.966 Q164.561 216.55 158.751 216.55 Q152.941 216.55 149.862 211.966 Q146.807 207.36 146.807 198.633 Q146.807 189.883 149.862 185.3 Q152.941 180.693 158.751 180.693 Z" fill="#000000" fill-rule="evenodd" fill-opacity="1" /><path clip-path="url(#clip5600)" d="M 0 0 M175.765 209.999 L180.649 209.999 L180.649 215.878 L175.765 215.878 L175.765 209.999 Z" fill="#000000" fill-rule="evenodd" fill-opacity="1" /><path clip-path="url(#clip5600)" d="M 0 0 M195.718 184.397 Q192.107 184.397 190.279 187.962 Q188.473 191.504 188.473 198.633 Q188.473 205.74 190.279 209.304 Q192.107 212.846 195.718 212.846 Q199.353 212.846 201.158 209.304 Q202.987 205.74 202.987 198.633 Q202.987 191.504 201.158 187.962 Q199.353 184.397 195.718 184.397 M195.718 180.693 Q201.528 180.693 204.584 185.3 Q207.663 189.883 207.663 198.633 Q207.663 207.36 204.584 211.966 Q201.528 216.55 195.718 216.55 Q189.908 216.55 186.829 211.966 Q183.774 207.36 183.774 198.633 Q183.774 189.883 186.829 185.3 Q189.908 180.693 195.718 180.693 Z" fill="#000000" fill-rule="evenodd" fill-opacity="1" /><path clip-path="url(#clip5600)" d="M 0 0 M481.631 12.096 L489.814 12.096 L489.814 36.8875 L519.547 36.8875 L519.547 12.096 L527.73 12.096 L527.73 72.576 L519.547 72.576 L519.547 43.7741 L489.814 43.7741 L489.814 72.576 L481.631 72.576 L481.631 12.096 Z" fill="#000000" fill-rule="evenodd" fill-opacity="1" /><path clip-path="url(#clip5600)" d="M 0 0 M553.129 32.4315 Q547.134 32.4315 543.65 37.1306 Q540.166 41.7891 540.166 49.9314 Q540.166 58.0738 543.61 62.7728 Q547.093 67.4314 553.129 67.4314 Q559.084 67.4314 562.568 62.7323 Q566.052 58.0333 566.052 49.9314 Q566.052 41.8701 562.568 37.1711 Q559.084 32.4315 553.129 32.4315 M553.129 26.1121 Q562.852 26.1121 568.401 32.4315 Q573.951 38.7509 573.951 49.9314 Q573.951 61.0714 568.401 67.4314 Q562.852 73.7508 553.129 73.7508 Q543.367 73.7508 537.817 67.4314 Q532.308 61.0714 532.308 49.9314 Q532.308 38.7509 537.817 32.4315 Q543.367 26.1121 553.129 26.1121 Z" fill="#000000" fill-rule="evenodd" fill-opacity="1" /><path clip-path="url(#clip5600)" d="M 0 0 M576.422 27.2059 L584.321 27.2059 L598.499 65.2844 L612.678 27.2059 L620.577 27.2059 L603.563 72.576 L593.436 72.576 L576.422 27.2059 Z" fill="#000000" fill-rule="evenodd" fill-opacity="1" /><path clip-path="url(#clip5600)" d="M 0 0 M667.203 48.0275 L667.203 51.6733 L632.932 51.6733 Q633.418 59.3701 637.55 63.421 Q641.723 67.4314 649.136 67.4314 Q653.43 67.4314 657.44 66.3781 Q661.491 65.3249 665.461 63.2184 L665.461 70.267 Q661.451 71.9684 657.238 72.8596 Q653.025 73.7508 648.69 73.7508 Q637.834 73.7508 631.474 67.4314 Q625.154 61.1119 625.154 50.3365 Q625.154 39.1965 631.15 32.6746 Q637.186 26.1121 647.394 26.1121 Q656.549 26.1121 661.856 32.0264 Q667.203 37.9003 667.203 48.0275 M659.749 45.84 Q659.668 39.7232 656.306 36.0774 Q652.984 32.4315 647.475 32.4315 Q641.237 32.4315 637.469 35.9558 Q633.742 39.4801 633.175 45.8805 L659.749 45.84 Z" fill="#000000" fill-rule="evenodd" fill-opacity="1" /><path clip-path="url(#clip5600)" d="M 0 0 M701.311 34.1734 Q700.056 33.4443 698.557 33.1202 Q697.098 32.7556 695.316 32.7556 Q688.997 32.7556 685.594 36.8875 Q682.232 40.9789 682.232 48.6757 L682.232 72.576 L674.737 72.576 L674.737 27.2059 L682.232 27.2059 L682.232 34.2544 Q684.581 30.1225 688.349 28.1376 Q692.116 26.1121 697.504 26.1121 Q698.273 26.1121 699.205 26.2337 Q700.137 26.3147 701.271 26.5172 L701.311 34.1734 Z" fill="#000000" fill-rule="evenodd" fill-opacity="1" /><path clip-path="url(#clip5600)" d="M 0 0 M709.13 27.2059 L716.583 27.2059 L716.583 72.576 L709.13 72.576 L709.13 27.2059 M709.13 9.54393 L716.583 9.54393 L716.583 18.9825 L709.13 18.9825 L709.13 9.54393 Z" fill="#000000" fill-rule="evenodd" fill-opacity="1" /><path clip-path="url(#clip5600)" d="M 0 0 M762.115 45.1919 L762.115 72.576 L754.662 72.576 L754.662 45.4349 Q754.662 38.994 752.15 35.7938 Q749.639 32.5936 744.616 32.5936 Q738.58 32.5936 735.096 36.4419 Q731.612 40.2903 731.612 46.9338 L731.612 72.576 L724.118 72.576 L724.118 27.2059 L731.612 27.2059 L731.612 34.2544 Q734.286 30.163 737.891 28.1376 Q741.537 26.1121 746.276 26.1121 Q754.095 26.1121 758.105 30.9732 Q762.115 35.7938 762.115 45.1919 Z" fill="#000000" fill-rule="evenodd" fill-opacity="1" /><path clip-path="url(#clip5600)" d="M 0 0 M799.789 49.3643 Q799.789 41.2625 796.427 36.8065 Q793.105 32.3505 787.069 32.3505 Q781.074 32.3505 777.711 36.8065 Q774.39 41.2625 774.39 49.3643 Q774.39 57.4256 777.711 61.8816 Q781.074 66.3376 787.069 66.3376 Q793.105 66.3376 796.427 61.8816 Q799.789 57.4256 799.789 49.3643 M807.243 66.9452 Q807.243 78.5308 802.098 84.1616 Q796.953 89.8329 786.34 89.8329 Q782.411 89.8329 778.927 89.2252 Q775.443 88.6581 772.162 87.4428 L772.162 80.1917 Q775.443 81.9741 778.643 82.8248 Q781.843 83.6755 785.165 83.6755 Q792.497 83.6755 796.143 79.8271 Q799.789 76.0193 799.789 68.282 L799.789 64.5957 Q797.48 68.6061 793.875 70.5911 Q790.269 72.576 785.246 72.576 Q776.901 72.576 771.797 66.2161 Q766.693 59.8562 766.693 49.3643 Q766.693 38.832 771.797 32.472 Q776.901 26.1121 785.246 26.1121 Q790.269 26.1121 793.875 28.0971 Q797.48 30.082 799.789 34.0924 L799.789 27.2059 L807.243 27.2059 L807.243 66.9452 Z" fill="#000000" fill-rule="evenodd" fill-opacity="1" /><path clip-path="url(#clip5600)" d="M 0 0 M837.098 27.2059 L844.551 27.2059 L853.868 62.6108 L863.145 27.2059 L871.935 27.2059 L881.253 62.6108 L890.529 27.2059 L897.983 27.2059 L886.114 72.576 L877.323 72.576 L867.561 35.3887 L857.757 72.576 L848.967 72.576 L837.098 27.2059 Z" fill="#000000" fill-rule="evenodd" fill-opacity="1" /><path clip-path="url(#clip5600)" d="M 0 0 M905.801 27.2059 L913.255 27.2059 L913.255 72.576 L905.801 72.576 L905.801 27.2059 M905.801 9.54393 L913.255 9.54393 L913.255 18.9825 L905.801 18.9825 L905.801 9.54393 Z" fill="#000000" fill-rule="evenodd" fill-opacity="1" /><path clip-path="url(#clip5600)" d="M 0 0 M928.446 14.324 L928.446 27.2059 L943.799 27.2059 L943.799 32.9987 L928.446 32.9987 L928.446 57.6282 Q928.446 63.1779 929.944 64.7578 Q931.484 66.3376 936.142 66.3376 L943.799 66.3376 L943.799 72.576 L936.142 72.576 Q927.514 72.576 924.233 69.3758 Q920.951 66.1351 920.951 57.6282 L920.951 32.9987 L915.483 32.9987 L915.483 27.2059 L920.951 27.2059 L920.951 14.324 L928.446 14.324 Z" fill="#000000" fill-rule="evenodd" fill-opacity="1" /><path clip-path="url(#clip5600)" d="M 0 0 M989.331 45.1919 L989.331 72.576 L981.877 72.576 L981.877 45.4349 Q981.877 38.994 979.365 35.7938 Q976.854 32.5936 971.831 32.5936 Q965.795 32.5936 962.311 36.4419 Q958.827 40.2903 958.827 46.9338 L958.827 72.576 L951.333 72.576 L951.333 9.54393 L958.827 9.54393 L958.827 34.2544 Q961.501 30.163 965.106 28.1376 Q968.752 26.1121 973.492 26.1121 Q981.31 26.1121 985.32 30.9732 Q989.331 35.7938 989.331 45.1919 Z" fill="#000000" fill-rule="evenodd" fill-opacity="1" /><path clip-path="url(#clip5600)" d="M 0 0 M1047.06 19.2256 L1026.4 51.5113 L1047.06 51.5113 L1047.06 19.2256 M1044.91 12.096 L1055.2 12.096 L1055.2 51.5113 L1063.83 51.5113 L1063.83 58.3168 L1055.2 58.3168 L1055.2 72.576 L1047.06 72.576 L1047.06 58.3168 L1019.75 58.3168 L1019.75 50.4176 L1044.91 12.096 Z" fill="#000000" fill-rule="evenodd" fill-opacity="1" /><path clip-path="url(#clip5600)" d="M 0 0 M1122.89 17.6457 Q1113.98 17.6457 1108.71 24.2892 Q1103.49 30.9327 1103.49 42.3968 Q1103.49 53.8203 1108.71 60.4638 Q1113.98 67.1073 1122.89 67.1073 Q1131.8 67.1073 1136.99 60.4638 Q1142.21 53.8203 1142.21 42.3968 Q1142.21 30.9327 1136.99 24.2892 Q1131.8 17.6457 1122.89 17.6457 M1134.35 71.4823 L1145.13 83.2704 L1135.24 83.2704 L1126.29 73.5887 Q1124.95 73.6697 1124.23 73.7103 Q1123.54 73.7508 1122.89 73.7508 Q1110.13 73.7508 1102.47 65.2439 Q1094.86 56.6965 1094.86 42.3968 Q1094.86 28.0566 1102.47 19.5497 Q1110.13 11.0023 1122.89 11.0023 Q1135.61 11.0023 1143.22 19.5497 Q1150.84 28.0566 1150.84 42.3968 Q1150.84 52.9291 1146.59 60.4233 Q1142.37 67.9175 1134.35 71.4823 Z" fill="#000000" fill-rule="evenodd" fill-opacity="1" /><path clip-path="url(#clip5600)" d="M 0 0 M1157.89 54.671 L1157.89 27.2059 L1165.34 27.2059 L1165.34 54.3874 Q1165.34 60.8284 1167.85 64.0691 Q1170.37 67.2693 1175.39 67.2693 Q1181.42 67.2693 1184.91 63.421 Q1188.43 59.5726 1188.43 52.9291 L1188.43 27.2059 L1195.89 27.2059 L1195.89 72.576 L1188.43 72.576 L1188.43 65.6084 Q1185.72 69.7404 1182.11 71.7658 Q1178.55 73.7508 1173.81 73.7508 Q1165.99 73.7508 1161.94 68.8897 Q1157.89 64.0286 1157.89 54.671 M1176.64 26.1121 L1176.64 26.1121 Z" fill="#000000" fill-rule="evenodd" fill-opacity="1" /><path clip-path="url(#clip5600)" d="M 0 0 M1224.32 49.7694 Q1215.29 49.7694 1211.81 51.8354 Q1208.32 53.9013 1208.32 58.8839 Q1208.32 62.8538 1210.92 65.2034 Q1213.55 67.5124 1218.04 67.5124 Q1224.24 67.5124 1227.97 63.1374 Q1231.74 58.7219 1231.74 51.4303 L1231.74 49.7694 L1224.32 49.7694 M1239.19 46.6907 L1239.19 72.576 L1231.74 72.576 L1231.74 65.6895 Q1229.18 69.8214 1225.38 71.8063 Q1221.57 73.7508 1216.06 73.7508 Q1209.09 73.7508 1204.96 69.8619 Q1200.87 65.9325 1200.87 59.3701 Q1200.87 51.7138 1205.97 47.825 Q1211.12 43.9361 1221.29 43.9361 L1231.74 43.9361 L1231.74 43.2069 Q1231.74 38.0623 1228.33 35.2672 Q1224.97 32.4315 1218.85 32.4315 Q1214.97 32.4315 1211.28 33.3632 Q1207.59 34.295 1204.19 36.1584 L1204.19 29.2718 Q1208.28 27.692 1212.13 26.9223 Q1215.98 26.1121 1219.62 26.1121 Q1229.47 26.1121 1234.33 31.2163 Q1239.19 36.3204 1239.19 46.6907 Z" fill="#000000" fill-rule="evenodd" fill-opacity="1" /><path clip-path="url(#clip5600)" d="M 0 0 M1276.86 34.0924 L1276.86 9.54393 L1284.32 9.54393 L1284.32 72.576 L1276.86 72.576 L1276.86 65.7705 Q1274.51 69.8214 1270.91 71.8063 Q1267.34 73.7508 1262.32 73.7508 Q1254.1 73.7508 1248.91 67.1883 Q1243.77 60.6258 1243.77 49.9314 Q1243.77 39.2371 1248.91 32.6746 Q1254.1 26.1121 1262.32 26.1121 Q1267.34 26.1121 1270.91 28.0971 Q1274.51 30.0415 1276.86 34.0924 M1251.46 49.9314 Q1251.46 58.1548 1254.83 62.8538 Q1258.23 67.5124 1264.14 67.5124 Q1270.06 67.5124 1273.46 62.8538 Q1276.86 58.1548 1276.86 49.9314 Q1276.86 41.7081 1273.46 37.0496 Q1270.06 32.3505 1264.14 32.3505 Q1258.23 32.3505 1254.83 37.0496 Q1251.46 41.7081 1251.46 49.9314 Z" fill="#000000" fill-rule="evenodd" fill-opacity="1" /><path clip-path="url(#clip5600)" d="M 0 0 M1318.43 34.1734 Q1317.17 33.4443 1315.67 33.1202 Q1314.21 32.7556 1312.43 32.7556 Q1306.11 32.7556 1302.71 36.8875 Q1299.35 40.9789 1299.35 48.6757 L1299.35 72.576 L1291.85 72.576 L1291.85 27.2059 L1299.35 27.2059 L1299.35 34.2544 Q1301.7 30.1225 1305.46 28.1376 Q1309.23 26.1121 1314.62 26.1121 Q1315.39 26.1121 1316.32 26.2337 Q1317.25 26.3147 1318.39 26.5172 L1318.43 34.1734 Z" fill="#000000" fill-rule="evenodd" fill-opacity="1" /><path clip-path="url(#clip5600)" d="M 0 0 M1342 32.4315 Q1336.01 32.4315 1332.52 37.1306 Q1329.04 41.7891 1329.04 49.9314 Q1329.04 58.0738 1332.48 62.7728 Q1335.97 67.4314 1342 67.4314 Q1347.96 67.4314 1351.44 62.7323 Q1354.92 58.0333 1354.92 49.9314 Q1354.92 41.8701 1351.44 37.1711 Q1347.96 32.4315 1342 32.4315 M1342 26.1121 Q1351.72 26.1121 1357.27 32.4315 Q1362.82 38.7509 1362.82 49.9314 Q1362.82 61.0714 1357.27 67.4314 Q1351.72 73.7508 1342 73.7508 Q1332.24 73.7508 1326.69 67.4314 Q1321.18 61.0714 1321.18 49.9314 Q1321.18 38.7509 1326.69 32.4315 Q1332.24 26.1121 1342 26.1121 Z" fill="#000000" fill-rule="evenodd" fill-opacity="1" /><path clip-path="url(#clip5600)" d="M 0 0 M1378.01 14.324 L1378.01 27.2059 L1393.37 27.2059 L1393.37 32.9987 L1378.01 32.9987 L1378.01 57.6282 Q1378.01 63.1779 1379.51 64.7578 Q1381.05 66.3376 1385.71 66.3376 L1393.37 66.3376 L1393.37 72.576 L1385.71 72.576 Q1377.08 72.576 1373.8 69.3758 Q1370.52 66.1351 1370.52 57.6282 L1370.52 32.9987 L1365.05 32.9987 L1365.05 27.2059 L1370.52 27.2059 L1370.52 14.324 L1378.01 14.324 Z" fill="#000000" fill-rule="evenodd" fill-opacity="1" /><path clip-path="url(#clip5600)" d="M 0 0 M1418.77 32.4315 Q1412.77 32.4315 1409.29 37.1306 Q1405.8 41.7891 1405.8 49.9314 Q1405.8 58.0738 1409.25 62.7728 Q1412.73 67.4314 1418.77 67.4314 Q1424.72 67.4314 1428.21 62.7323 Q1431.69 58.0333 1431.69 49.9314 Q1431.69 41.8701 1428.21 37.1711 Q1424.72 32.4315 1418.77 32.4315 M1418.77 26.1121 Q1428.49 26.1121 1434.04 32.4315 Q1439.59 38.7509 1439.59 49.9314 Q1439.59 61.0714 1434.04 67.4314 Q1428.49 73.7508 1418.77 73.7508 Q1409 73.7508 1403.45 67.4314 Q1397.95 61.0714 1397.95 49.9314 Q1397.95 38.7509 1403.45 32.4315 Q1409 26.1121 1418.77 26.1121 Z" fill="#000000" fill-rule="evenodd" fill-opacity="1" /><path clip-path="url(#clip5600)" d="M 0 0 M1473.7 34.1734 Q1472.44 33.4443 1470.94 33.1202 Q1469.48 32.7556 1467.7 32.7556 Q1461.38 32.7556 1457.98 36.8875 Q1454.62 40.9789 1454.62 48.6757 L1454.62 72.576 L1447.12 72.576 L1447.12 27.2059 L1454.62 27.2059 L1454.62 34.2544 Q1456.97 30.1225 1460.73 28.1376 Q1464.5 26.1121 1469.89 26.1121 Q1470.66 26.1121 1471.59 26.2337 Q1472.52 26.3147 1473.66 26.5172 L1473.7 34.1734 Z" fill="#000000" fill-rule="evenodd" fill-opacity="1" /><path clip-path="url(#clip5600)" d="M 0 0 M1510.44 28.5427 L1510.44 35.5912 Q1507.28 33.9709 1503.88 33.1607 Q1500.47 32.3505 1496.83 32.3505 Q1491.28 32.3505 1488.48 34.0519 Q1485.73 35.7533 1485.73 39.156 Q1485.73 41.7486 1487.71 43.2475 Q1489.7 44.7058 1495.69 46.0426 L1498.25 46.6097 Q1506.19 48.3111 1509.51 51.4303 Q1512.87 54.509 1512.87 60.0587 Q1512.87 66.3781 1507.85 70.0644 Q1502.86 73.7508 1494.11 73.7508 Q1490.47 73.7508 1486.5 73.0216 Q1482.57 72.3329 1478.19 70.9151 L1478.19 63.2184 Q1482.33 65.3654 1486.34 66.4591 Q1490.35 67.5124 1494.28 67.5124 Q1499.54 67.5124 1502.38 65.73 Q1505.21 63.9071 1505.21 60.6258 Q1505.21 57.5877 1503.15 55.9673 Q1501.12 54.3469 1494.19 52.8481 L1491.6 52.2405 Q1484.68 50.7821 1481.6 47.7845 Q1478.52 44.7463 1478.52 39.4801 Q1478.52 33.0797 1483.05 29.5959 Q1487.59 26.1121 1495.94 26.1121 Q1500.07 26.1121 1503.71 26.7198 Q1507.36 27.3274 1510.44 28.5427 Z" fill="#000000" fill-rule="evenodd" fill-opacity="1" /><path clip-path="url(#clip5600)" d="M 0 0 M1543.29 46.5287 L1565.13 46.5287 L1565.13 53.1722 L1543.29 53.1722 L1543.29 46.5287 Z" fill="#000000" fill-rule="evenodd" fill-opacity="1" /><path clip-path="url(#clip5600)" d="M 0 0 M1619.85 20.1573 L1608.75 50.2555 L1630.99 50.2555 L1619.85 20.1573 M1615.24 12.096 L1624.51 12.096 L1647.56 72.576 L1639.06 72.576 L1633.55 57.061 L1606.28 57.061 L1600.77 72.576 L1592.15 72.576 L1615.24 12.096 Z" fill="#000000" fill-rule="evenodd" fill-opacity="1" /><path clip-path="url(#clip5600)" d="M 0 0 M1685.24 49.3643 Q1685.24 41.2625 1681.87 36.8065 Q1678.55 32.3505 1672.52 32.3505 Q1666.52 32.3505 1663.16 36.8065 Q1659.84 41.2625 1659.84 49.3643 Q1659.84 57.4256 1663.16 61.8816 Q1666.52 66.3376 1672.52 66.3376 Q1678.55 66.3376 1681.87 61.8816 Q1685.24 57.4256 1685.24 49.3643 M1692.69 66.9452 Q1692.69 78.5308 1687.54 84.1616 Q1682.4 89.8329 1671.79 89.8329 Q1667.86 89.8329 1664.37 89.2252 Q1660.89 88.6581 1657.61 87.4428 L1657.61 80.1917 Q1660.89 81.9741 1664.09 82.8248 Q1667.29 83.6755 1670.61 83.6755 Q1677.94 83.6755 1681.59 79.8271 Q1685.24 76.0193 1685.24 68.282 L1685.24 64.5957 Q1682.93 68.6061 1679.32 70.5911 Q1675.72 72.576 1670.69 72.576 Q1662.35 72.576 1657.24 66.2161 Q1652.14 59.8562 1652.14 49.3643 Q1652.14 38.832 1657.24 32.472 Q1662.35 26.1121 1670.69 26.1121 Q1675.72 26.1121 1679.32 28.0971 Q1682.93 30.082 1685.24 34.0924 L1685.24 27.2059 L1692.69 27.2059 L1692.69 66.9452 Z" fill="#000000" fill-rule="evenodd" fill-opacity="1" /><path clip-path="url(#clip5600)" d="M 0 0 M1739.32 48.0275 L1739.32 51.6733 L1705.04 51.6733 Q1705.53 59.3701 1709.66 63.421 Q1713.83 67.4314 1721.25 67.4314 Q1725.54 67.4314 1729.55 66.3781 Q1733.6 65.3249 1737.57 63.2184 L1737.57 70.267 Q1733.56 71.9684 1729.35 72.8596 Q1725.14 73.7508 1720.8 73.7508 Q1709.95 73.7508 1703.59 67.4314 Q1697.27 61.1119 1697.27 50.3365 Q1697.27 39.1965 1703.26 32.6746 Q1709.3 26.1121 1719.51 26.1121 Q1728.66 26.1121 1733.97 32.0264 Q1739.32 37.9003 1739.32 48.0275 M1731.86 45.84 Q1731.78 39.7232 1728.42 36.0774 Q1725.1 32.4315 1719.59 32.4315 Q1713.35 32.4315 1709.58 35.9558 Q1705.85 39.4801 1705.29 45.8805 L1731.86 45.84 Z" fill="#000000" fill-rule="evenodd" fill-opacity="1" /><path clip-path="url(#clip5600)" d="M 0 0 M1784.85 45.1919 L1784.85 72.576 L1777.39 72.576 L1777.39 45.4349 Q1777.39 38.994 1774.88 35.7938 Q1772.37 32.5936 1767.35 32.5936 Q1761.31 32.5936 1757.83 36.4419 Q1754.34 40.2903 1754.34 46.9338 L1754.34 72.576 L1746.85 72.576 L1746.85 27.2059 L1754.34 27.2059 L1754.34 34.2544 Q1757.02 30.163 1760.62 28.1376 Q1764.27 26.1121 1769.01 26.1121 Q1776.83 26.1121 1780.84 30.9732 Q1784.85 35.7938 1784.85 45.1919 Z" fill="#000000" fill-rule="evenodd" fill-opacity="1" /><path clip-path="url(#clip5600)" d="M 0 0 M1800.04 14.324 L1800.04 27.2059 L1815.39 27.2059 L1815.39 32.9987 L1800.04 32.9987 L1800.04 57.6282 Q1800.04 63.1779 1801.54 64.7578 Q1803.08 66.3376 1807.73 66.3376 L1815.39 66.3376 L1815.39 72.576 L1807.73 72.576 Q1799.11 72.576 1795.83 69.3758 Q1792.54 66.1351 1792.54 57.6282 L1792.54 32.9987 L1787.08 32.9987 L1787.08 27.2059 L1792.54 27.2059 L1792.54 14.324 L1800.04 14.324 Z" fill="#000000" fill-rule="evenodd" fill-opacity="1" /><path clip-path="url(#clip5600)" d="M 0 0 M1886.16 14.0809 L1886.16 22.0612 Q1881.5 19.8332 1877.37 18.7395 Q1873.24 17.6457 1869.39 17.6457 Q1862.71 17.6457 1859.06 20.2383 Q1855.45 22.8309 1855.45 27.611 Q1855.45 31.6214 1857.84 33.6873 Q1860.28 35.7128 1867 36.9686 L1871.94 37.9813 Q1881.1 39.7232 1885.43 44.1387 Q1889.81 48.5136 1889.81 55.8863 Q1889.81 64.6767 1883.89 69.2137 Q1878.02 73.7508 1866.64 73.7508 Q1862.34 73.7508 1857.48 72.7785 Q1852.66 71.8063 1847.47 69.9024 L1847.47 61.4765 Q1852.46 64.2716 1857.24 65.6895 Q1862.02 67.1073 1866.64 67.1073 Q1873.64 67.1073 1877.45 64.3527 Q1881.26 61.598 1881.26 56.4939 Q1881.26 52.0379 1878.5 49.5264 Q1875.79 47.0148 1869.55 45.759 L1864.57 44.7868 Q1855.41 42.9639 1851.32 39.075 Q1847.23 35.1862 1847.23 28.2591 Q1847.23 20.2383 1852.86 15.6203 Q1858.53 11.0023 1868.46 11.0023 Q1872.71 11.0023 1877.13 11.7719 Q1881.54 12.5416 1886.16 14.0809 Z" fill="#000000" fill-rule="evenodd" fill-opacity="1" /><path clip-path="url(#clip5600)" d="M 0 0 M1905 14.324 L1905 27.2059 L1920.35 27.2059 L1920.35 32.9987 L1905 32.9987 L1905 57.6282 Q1905 63.1779 1906.5 64.7578 Q1908.04 66.3376 1912.69 66.3376 L1920.35 66.3376 L1920.35 72.576 L1912.69 72.576 Q1904.07 72.576 1900.78 69.3758 Q1897.5 66.1351 1897.5 57.6282 L1897.5 32.9987 L1892.03 32.9987 L1892.03 27.2059 L1897.5 27.2059 L1897.5 14.324 L1905 14.324 Z" fill="#000000" fill-rule="evenodd" fill-opacity="1" /><path clip-path="url(#clip5600)" d="M 0 0 M1948.79 49.7694 Q1939.75 49.7694 1936.27 51.8354 Q1932.79 53.9013 1932.79 58.8839 Q1932.79 62.8538 1935.38 65.2034 Q1938.01 67.5124 1942.51 67.5124 Q1948.71 67.5124 1952.43 63.1374 Q1956.2 58.7219 1956.2 51.4303 L1956.2 49.7694 L1948.79 49.7694 M1963.65 46.6907 L1963.65 72.576 L1956.2 72.576 L1956.2 65.6895 Q1953.65 69.8214 1949.84 71.8063 Q1946.03 73.7508 1940.52 73.7508 Q1933.56 73.7508 1929.42 69.8619 Q1925.33 65.9325 1925.33 59.3701 Q1925.33 51.7138 1930.44 47.825 Q1935.58 43.9361 1945.75 43.9361 L1956.2 43.9361 L1956.2 43.2069 Q1956.2 38.0623 1952.8 35.2672 Q1949.44 32.4315 1943.32 32.4315 Q1939.43 32.4315 1935.74 33.3632 Q1932.06 34.295 1928.65 36.1584 L1928.65 29.2718 Q1932.75 27.692 1936.59 26.9223 Q1940.44 26.1121 1944.09 26.1121 Q1953.93 26.1121 1958.79 31.2163 Q1963.65 36.3204 1963.65 46.6907 Z" fill="#000000" fill-rule="evenodd" fill-opacity="1" /><path clip-path="url(#clip5600)" d="M 0 0 M1978.85 14.324 L1978.85 27.2059 L1994.2 27.2059 L1994.2 32.9987 L1978.85 32.9987 L1978.85 57.6282 Q1978.85 63.1779 1980.34 64.7578 Q1981.88 66.3376 1986.54 66.3376 L1994.2 66.3376 L1994.2 72.576 L1986.54 72.576 Q1977.91 72.576 1974.63 69.3758 Q1971.35 66.1351 1971.35 57.6282 L1971.35 32.9987 L1965.88 32.9987 L1965.88 27.2059 L1971.35 27.2059 L1971.35 14.324 L1978.85 14.324 Z" fill="#000000" fill-rule="evenodd" fill-opacity="1" /><path clip-path="url(#clip5600)" d="M 0 0 M2040.82 48.0275 L2040.82 51.6733 L2006.55 51.6733 Q2007.04 59.3701 2011.17 63.421 Q2015.34 67.4314 2022.76 67.4314 Q2027.05 67.4314 2031.06 66.3781 Q2035.11 65.3249 2039.08 63.2184 L2039.08 70.267 Q2035.07 71.9684 2030.86 72.8596 Q2026.65 73.7508 2022.31 73.7508 Q2011.45 73.7508 2005.09 67.4314 Q1998.78 61.1119 1998.78 50.3365 Q1998.78 39.1965 2004.77 32.6746 Q2010.81 26.1121 2021.01 26.1121 Q2030.17 26.1121 2035.48 32.0264 Q2040.82 37.9003 2040.82 48.0275 M2033.37 45.84 Q2033.29 39.7232 2029.93 36.0774 Q2026.61 32.4315 2021.1 32.4315 Q2014.86 32.4315 2011.09 35.9558 Q2007.36 39.4801 2006.8 45.8805 L2033.37 45.84 Z" fill="#000000" fill-rule="evenodd" fill-opacity="1" /><path clip-path="url(#clip5600)" d="M 0 0 M2077.57 28.5427 L2077.57 35.5912 Q2074.41 33.9709 2071 33.1607 Q2067.6 32.3505 2063.95 32.3505 Q2058.4 32.3505 2055.61 34.0519 Q2052.86 35.7533 2052.86 39.156 Q2052.86 41.7486 2054.84 43.2475 Q2056.82 44.7058 2062.82 46.0426 L2065.37 46.6097 Q2073.31 48.3111 2076.63 51.4303 Q2080 54.509 2080 60.0587 Q2080 66.3781 2074.97 70.0644 Q2069.99 73.7508 2061.24 73.7508 Q2057.59 73.7508 2053.62 73.0216 Q2049.7 72.3329 2045.32 70.9151 L2045.32 63.2184 Q2049.45 65.3654 2053.46 66.4591 Q2057.47 67.5124 2061.4 67.5124 Q2066.67 67.5124 2069.5 65.73 Q2072.34 63.9071 2072.34 60.6258 Q2072.34 57.5877 2070.27 55.9673 Q2068.25 54.3469 2061.32 52.8481 L2058.73 52.2405 Q2051.8 50.7821 2048.72 47.7845 Q2045.64 44.7463 2045.64 39.4801 Q2045.64 33.0797 2050.18 29.5959 Q2054.72 26.1121 2063.06 26.1121 Q2067.2 26.1121 2070.84 26.7198 Q2074.49 27.3274 2077.57 28.5427 Z" fill="#000000" fill-rule="evenodd" fill-opacity="1" /><path clip-path="url(#clip5600)" d="M 0 0 M2106.21 12.096 L2115 12.096 L2131.77 36.9686 L2148.42 12.096 L2157.21 12.096 L2135.82 43.7741 L2135.82 72.576 L2127.59 72.576 L2127.59 43.7741 L2106.21 12.096 Z" fill="#000000" fill-rule="evenodd" fill-opacity="1" /><path clip-path="url(#clip5600)" d="M 0 0 M2191.72 12.096 L2229.96 12.096 L2229.96 18.9825 L2199.9 18.9825 L2199.9 36.8875 L2228.7 36.8875 L2228.7 43.7741 L2199.9 43.7741 L2199.9 65.6895 L2230.69 65.6895 L2230.69 72.576 L2191.72 72.576 L2191.72 12.096 Z" fill="#000000" fill-rule="evenodd" fill-opacity="1" /><path clip-path="url(#clip5600)" d="M 0 0 M2264.8 34.1734 Q2263.54 33.4443 2262.04 33.1202 Q2260.59 32.7556 2258.8 32.7556 Q2252.48 32.7556 2249.08 36.8875 Q2245.72 40.9789 2245.72 48.6757 L2245.72 72.576 L2238.22 72.576 L2238.22 27.2059 L2245.72 27.2059 L2245.72 34.2544 Q2248.07 30.1225 2251.84 28.1376 Q2255.6 26.1121 2260.99 26.1121 Q2261.76 26.1121 2262.69 26.2337 Q2263.62 26.3147 2264.76 26.5172 L2264.8 34.1734 Z" fill="#000000" fill-rule="evenodd" fill-opacity="1" /><path clip-path="url(#clip5600)" d="M 0 0 M2297.45 34.1734 Q2296.19 33.4443 2294.69 33.1202 Q2293.24 32.7556 2291.45 32.7556 Q2285.13 32.7556 2281.73 36.8875 Q2278.37 40.9789 2278.37 48.6757 L2278.37 72.576 L2270.87 72.576 L2270.87 27.2059 L2278.37 27.2059 L2278.37 34.2544 Q2280.72 30.1225 2284.49 28.1376 Q2288.25 26.1121 2293.64 26.1121 Q2294.41 26.1121 2295.34 26.2337 Q2296.27 26.3147 2297.41 26.5172 L2297.45 34.1734 Z" fill="#000000" fill-rule="evenodd" fill-opacity="1" /><path clip-path="url(#clip5600)" d="M 0 0 M2321.02 32.4315 Q2315.03 32.4315 2311.55 37.1306 Q2308.06 41.7891 2308.06 49.9314 Q2308.06 58.0738 2311.51 62.7728 Q2314.99 67.4314 2321.02 67.4314 Q2326.98 67.4314 2330.46 62.7323 Q2333.95 58.0333 2333.95 49.9314 Q2333.95 41.8701 2330.46 37.1711 Q2326.98 32.4315 2321.02 32.4315 M2321.02 26.1121 Q2330.75 26.1121 2336.3 32.4315 Q2341.85 38.7509 2341.85 49.9314 Q2341.85 61.0714 2336.3 67.4314 Q2330.75 73.7508 2321.02 73.7508 Q2311.26 73.7508 2305.71 67.4314 Q2300.2 61.0714 2300.2 49.9314 Q2300.2 38.7509 2305.71 32.4315 Q2311.26 26.1121 2321.02 26.1121 Z" fill="#000000" fill-rule="evenodd" fill-opacity="1" /><path clip-path="url(#clip5600)" d="M 0 0 M2375.96 34.1734 Q2374.7 33.4443 2373.2 33.1202 Q2371.74 32.7556 2369.96 32.7556 Q2363.64 32.7556 2360.24 36.8875 Q2356.88 40.9789 2356.88 48.6757 L2356.88 72.576 L2349.38 72.576 L2349.38 27.2059 L2356.88 27.2059 L2356.88 34.2544 Q2359.22 30.1225 2362.99 28.1376 Q2366.76 26.1121 2372.15 26.1121 Q2372.92 26.1121 2373.85 26.2337 Q2374.78 26.3147 2375.91 26.5172 L2375.96 34.1734 Z" fill="#000000" fill-rule="evenodd" fill-opacity="1" /><path clip-path="url(#clip5600)" d="M 0 0 M1310.63 2298.26 L1350.83 2298.26 L1350.83 2303.67 L1333.96 2303.67 L1333.96 2345.78 L1327.5 2345.78 L1327.5 2303.67 L1310.63 2303.67 L1310.63 2298.26 Z" fill="#000000" fill-rule="evenodd" fill-opacity="1" /><path clip-path="url(#clip5600)" d="M 0 0 M1354.97 2310.14 L1360.82 2310.14 L1360.82 2345.78 L1354.97 2345.78 L1354.97 2310.14 M1354.97 2296.26 L1360.82 2296.26 L1360.82 2303.67 L1354.97 2303.67 L1354.97 2296.26 Z" fill="#000000" fill-rule="evenodd" fill-opacity="1" /><path clip-path="url(#clip5600)" d="M 0 0 M1394.72 2316.98 Q1396.92 2313.03 1399.97 2311.15 Q1403.03 2309.28 1407.17 2309.28 Q1412.74 2309.28 1415.76 2313.19 Q1418.78 2317.07 1418.78 2324.27 L1418.78 2345.78 L1412.89 2345.78 L1412.89 2324.46 Q1412.89 2319.33 1411.08 2316.85 Q1409.27 2314.37 1405.54 2314.37 Q1400.99 2314.37 1398.35 2317.39 Q1395.71 2320.42 1395.71 2325.64 L1395.71 2345.78 L1389.82 2345.78 L1389.82 2324.46 Q1389.82 2319.3 1388 2316.85 Q1386.19 2314.37 1382.4 2314.37 Q1377.92 2314.37 1375.27 2317.42 Q1372.63 2320.45 1372.63 2325.64 L1372.63 2345.78 L1366.74 2345.78 L1366.74 2310.14 L1372.63 2310.14 L1372.63 2315.67 Q1374.64 2312.4 1377.44 2310.84 Q1380.24 2309.28 1384.09 2309.28 Q1387.97 2309.28 1390.68 2311.25 Q1393.42 2313.22 1394.72 2316.98 Z" fill="#000000" fill-rule="evenodd" fill-opacity="1" /><path clip-path="url(#clip5600)" d="M 0 0 M1455.42 2326.5 L1455.42 2329.36 L1428.49 2329.36 Q1428.87 2335.41 1432.12 2338.59 Q1435.4 2341.74 1441.22 2341.74 Q1444.6 2341.74 1447.75 2340.91 Q1450.93 2340.09 1454.05 2338.43 L1454.05 2343.97 Q1450.9 2345.31 1447.59 2346.01 Q1444.28 2346.71 1440.87 2346.71 Q1432.34 2346.71 1427.34 2341.74 Q1422.38 2336.78 1422.38 2328.31 Q1422.38 2319.56 1427.09 2314.43 Q1431.83 2309.28 1439.85 2309.28 Q1447.05 2309.28 1451.22 2313.92 Q1455.42 2318.54 1455.42 2326.5 M1449.56 2324.78 Q1449.5 2319.97 1446.86 2317.11 Q1444.25 2314.24 1439.92 2314.24 Q1435.02 2314.24 1432.06 2317.01 Q1429.13 2319.78 1428.68 2324.81 L1449.56 2324.78 Z" fill="#000000" fill-rule="evenodd" fill-opacity="1" /><path clip-path="url(#clip5600)" d="M 0 0 M1496.35 2296.32 Q1492.08 2303.64 1490.02 2310.8 Q1487.95 2317.97 1487.95 2325.32 Q1487.95 2332.67 1490.02 2339.9 Q1492.12 2347.09 1496.35 2354.38 L1491.26 2354.38 Q1486.48 2346.9 1484.1 2339.67 Q1481.74 2332.45 1481.74 2325.32 Q1481.74 2318.22 1484.1 2311.03 Q1486.45 2303.83 1491.26 2296.32 L1496.35 2296.32 Z" fill="#000000" fill-rule="evenodd" fill-opacity="1" /><path clip-path="url(#clip5600)" d="M 0 0 M1525.22 2311.19 L1525.22 2316.72 Q1522.73 2315.45 1520.06 2314.81 Q1517.39 2314.18 1514.52 2314.18 Q1510.16 2314.18 1507.97 2315.51 Q1505.8 2316.85 1505.8 2319.53 Q1505.8 2321.56 1507.36 2322.74 Q1508.92 2323.89 1513.63 2324.94 L1515.64 2325.38 Q1521.88 2326.72 1524.49 2329.17 Q1527.13 2331.59 1527.13 2335.95 Q1527.13 2340.91 1523.18 2343.81 Q1519.27 2346.71 1512.39 2346.71 Q1509.53 2346.71 1506.41 2346.13 Q1503.32 2345.59 1499.88 2344.48 L1499.88 2338.43 Q1503.13 2340.12 1506.28 2340.98 Q1509.43 2341.81 1512.52 2341.81 Q1516.66 2341.81 1518.88 2340.4 Q1521.11 2338.97 1521.11 2336.39 Q1521.11 2334.01 1519.49 2332.73 Q1517.9 2331.46 1512.45 2330.28 L1510.42 2329.81 Q1504.97 2328.66 1502.56 2326.3 Q1500.14 2323.92 1500.14 2319.78 Q1500.14 2314.75 1503.7 2312.01 Q1507.27 2309.28 1513.82 2309.28 Q1517.07 2309.28 1519.93 2309.75 Q1522.8 2310.23 1525.22 2311.19 Z" fill="#000000" fill-rule="evenodd" fill-opacity="1" /><path clip-path="url(#clip5600)" d="M 0 0 M1532.35 2296.32 L1537.44 2296.32 Q1542.21 2303.83 1544.57 2311.03 Q1546.96 2318.22 1546.96 2325.32 Q1546.96 2332.45 1544.57 2339.67 Q1542.21 2346.9 1537.44 2354.38 L1532.35 2354.38 Q1536.58 2347.09 1538.65 2339.9 Q1540.75 2332.67 1540.75 2325.32 Q1540.75 2317.97 1538.65 2310.8 Q1536.58 2303.64 1532.35 2296.32 Z" fill="#000000" fill-rule="evenodd" fill-opacity="1" /><path clip-path="url(#clip5600)" d="M 0 0 M38.4242 1330.05 L38.4242 1300 L43.835 1300 L43.835 1323.62 L57.9032 1323.62 L57.9032 1300.99 L63.3141 1300.99 L63.3141 1323.62 L80.5333 1323.62 L80.5333 1299.43 L85.9442 1299.43 L85.9442 1330.05 L38.4242 1330.05 Z" fill="#000000" fill-rule="evenodd" fill-opacity="1" /><path clip-path="url(#clip5600)" d="M 0 0 M55.7707 1272.63 Q55.1978 1273.61 54.9432 1274.79 Q54.6567 1275.94 54.6567 1277.34 Q54.6567 1282.3 57.9032 1284.98 Q61.1179 1287.62 67.1653 1287.62 L85.9442 1287.62 L85.9442 1293.51 L50.2962 1293.51 L50.2962 1287.62 L55.8344 1287.62 Q52.5879 1285.77 51.0283 1282.81 Q49.4368 1279.85 49.4368 1275.62 Q49.4368 1275.02 49.5323 1274.28 Q49.596 1273.55 49.7551 1272.66 L55.7707 1272.63 Z" fill="#000000" fill-rule="evenodd" fill-opacity="1" /><path clip-path="url(#clip5600)" d="M 0 0 M55.7707 1246.97 Q55.1978 1247.96 54.9432 1249.14 Q54.6567 1250.28 54.6567 1251.69 Q54.6567 1256.65 57.9032 1259.32 Q61.1179 1261.97 67.1653 1261.97 L85.9442 1261.97 L85.9442 1267.85 L50.2962 1267.85 L50.2962 1261.97 L55.8344 1261.97 Q52.5879 1260.12 51.0283 1257.16 Q49.4368 1254.2 49.4368 1249.97 Q49.4368 1249.36 49.5323 1248.63 Q49.596 1247.9 49.7551 1247.01 L55.7707 1246.97 Z" fill="#000000" fill-rule="evenodd" fill-opacity="1" /><path clip-path="url(#clip5600)" d="M 0 0 M54.4021 1228.45 Q54.4021 1233.16 58.0942 1235.9 Q61.7545 1238.64 68.152 1238.64 Q74.5495 1238.64 78.2417 1235.93 Q81.9019 1233.19 81.9019 1228.45 Q81.9019 1223.77 78.2098 1221.03 Q74.5177 1218.3 68.152 1218.3 Q61.8181 1218.3 58.126 1221.03 Q54.4021 1223.77 54.4021 1228.45 M49.4368 1228.45 Q49.4368 1220.81 54.4021 1216.45 Q59.3673 1212.09 68.152 1212.09 Q76.9049 1212.09 81.9019 1216.45 Q86.8672 1220.81 86.8672 1228.45 Q86.8672 1236.12 81.9019 1240.48 Q76.9049 1244.81 68.152 1244.81 Q59.3673 1244.81 54.4021 1240.48 Q49.4368 1236.12 49.4368 1228.45 Z" fill="#000000" fill-rule="evenodd" fill-opacity="1" /><path clip-path="url(#clip5600)" d="M 0 0 M55.7707 1185.29 Q55.1978 1186.28 54.9432 1187.46 Q54.6567 1188.6 54.6567 1190 Q54.6567 1194.97 57.9032 1197.64 Q61.1179 1200.28 67.1653 1200.28 L85.9442 1200.28 L85.9442 1206.17 L50.2962 1206.17 L50.2962 1200.28 L55.8344 1200.28 Q52.5879 1198.44 51.0283 1195.48 Q49.4368 1192.52 49.4368 1188.28 Q49.4368 1187.68 49.5323 1186.95 Q49.596 1186.21 49.7551 1185.32 L55.7707 1185.29 Z" fill="#000000" fill-rule="evenodd" fill-opacity="1" /><path clip-path="url(#clip5600)" d="M 0 0 M38.4242 1164.7 L38.4242 1157.79 L57.9669 1144.61 L38.4242 1131.53 L38.4242 1124.63 L63.3141 1141.43 L85.9442 1141.43 L85.9442 1147.89 L63.3141 1147.89 L38.4242 1164.7 Z" fill="#000000" fill-rule="evenodd" fill-opacity="1" /><path clip-path="url(#clip5600)" d="M 0 0 M36.4826 1083.69 Q43.8032 1087.96 50.9646 1090.03 Q58.126 1092.1 65.4784 1092.1 Q72.8308 1092.1 80.0559 1090.03 Q87.2491 1087.93 94.5379 1083.69 L94.5379 1088.79 Q87.0582 1093.56 79.8331 1095.95 Q72.608 1098.3 65.4784 1098.3 Q58.3806 1098.3 51.1874 1095.95 Q43.9942 1093.59 36.4826 1088.79 L36.4826 1083.69 Z" fill="#000000" fill-rule="evenodd" fill-opacity="1" /><path clip-path="url(#clip5600)" d="M 0 0 M57.1393 1049.8 Q53.1926 1047.6 51.3147 1044.54 Q49.4368 1041.49 49.4368 1037.35 Q49.4368 1031.78 53.3517 1028.76 Q57.2348 1025.73 64.4281 1025.73 L85.9442 1025.73 L85.9442 1031.62 L64.619 1031.62 Q59.4946 1031.62 57.012 1033.44 Q54.5294 1035.25 54.5294 1038.97 Q54.5294 1043.53 57.5531 1046.17 Q60.5768 1048.81 65.7967 1048.81 L85.9442 1048.81 L85.9442 1054.7 L64.619 1054.7 Q59.4628 1054.7 57.012 1056.51 Q54.5294 1058.33 54.5294 1062.11 Q54.5294 1066.6 57.5849 1069.24 Q60.6086 1071.89 65.7967 1071.89 L85.9442 1071.89 L85.9442 1077.77 L50.2962 1077.77 L50.2962 1071.89 L55.8344 1071.89 Q52.556 1069.88 50.9964 1067.08 Q49.4368 1064.28 49.4368 1060.43 Q49.4368 1056.54 51.4102 1053.84 Q53.3836 1051.1 57.1393 1049.8 Z" fill="#000000" fill-rule="evenodd" fill-opacity="1" /><path clip-path="url(#clip5600)" d="M 0 0 M36.4826 1020.51 L36.4826 1015.42 Q43.9942 1010.65 51.1874 1008.29 Q58.3806 1005.91 65.4784 1005.91 Q72.608 1005.91 79.8331 1008.29 Q87.0582 1010.65 94.5379 1015.42 L94.5379 1020.51 Q87.2491 1016.28 80.0559 1014.21 Q72.8308 1012.11 65.4784 1012.11 Q58.126 1012.11 50.9646 1014.21 Q43.8032 1016.28 36.4826 1020.51 Z" fill="#000000" fill-rule="evenodd" fill-opacity="1" /><polyline clip-path="url(#clip5602)" style="stroke:#009af9; stroke-width:16; stroke-opacity:1; fill:none" points="
  306.972,2086.76 318.19,2086.76 329.408,2086.76 340.627,2086.92 351.845,2087.54 363.063,2088.25 374.281,2087.89 385.499,2085.1 396.718,2079 407.936,2069.47 
  419.154,2056.85 430.372,2041.64 441.591,2024.34 452.809,2005.34 464.027,1984.93 475.245,1963.37 486.463,1940.84 497.682,1917.48 508.9,1893.44 520.118,1868.8 
  531.336,1843.66 542.554,1818.09 553.773,1792.14 564.991,1765.87 576.209,1739.33 587.427,1712.55 598.645,1685.58 609.864,1658.44 621.082,1631.16 632.3,1603.79 
  643.518,1576.35 654.737,1548.88 665.955,1521.41 677.173,1493.97 688.391,1466.62 699.609,1439.37 710.828,1412.27 722.046,1385.35 733.264,1358.65 744.482,1332.19 
  755.7,1306.01 766.919,1280.13 778.137,1254.59 789.355,1229.4 800.573,1204.59 811.791,1180.18 823.01,1156.18 834.228,1132.62 845.446,1109.51 856.664,1086.85 
  867.883,1064.66 879.101,1042.95 890.319,1021.72 901.537,1000.99 912.755,980.744 923.974,961.004 935.192,941.761 946.41,923.022 957.628,904.78 968.846,887.04 
  980.065,869.793 991.283,853.041 1002.5,836.776 1013.72,820.998 1024.94,805.697 1036.16,790.878 1047.37,776.534 1058.59,762.674 1069.81,749.205 1081.03,736.056 
  1092.25,723.236 1103.46,710.741 1114.68,698.569 1125.9,686.705 1137.12,675.139 1148.34,663.857 1159.56,652.847 1170.77,642.097 1181.99,631.595 1193.21,621.33 
  1204.43,611.293 1215.65,601.473 1226.87,591.862 1238.08,582.451 1249.3,573.235 1260.52,564.206 1271.74,555.358 1282.96,546.686 1294.17,538.185 1305.39,529.851 
  1316.61,521.679 1327.83,513.667 1339.05,505.812 1350.27,498.11 1361.48,490.56 1372.7,483.159 1383.92,475.905 1395.14,468.797 1406.36,461.834 1417.57,455.014 
  1428.79,448.335 1440.01,441.797 1451.23,435.4 1462.45,429.14 1473.67,423.019 1484.88,417.035 1496.1,411.186 1507.32,405.473 1518.54,399.893 1529.76,394.447 
  1540.98,389.132 1552.19,383.947 1563.41,378.892 1574.63,373.964 1585.85,369.163 1597.07,364.486 1608.28,359.933 1619.5,355.5 1630.72,351.187 1641.94,346.991 
  1653.16,342.91 1664.38,338.943 1675.59,335.086 1686.81,331.337 1698.03,327.694 1709.25,324.155 1720.47,320.716 1731.68,317.375 1742.9,314.13 1754.12,310.977 
  1765.34,307.913 1776.56,304.937 1787.78,302.045 1798.99,299.234 1810.21,296.5 1821.43,293.843 1832.65,291.257 1843.87,288.742 1855.09,286.293 1866.3,283.907 
  1877.52,281.583 1888.74,279.317 1899.96,277.107 1911.18,274.949 1922.39,272.842 1933.61,270.783 1944.83,268.769 1956.05,266.799 1967.27,264.869 1978.49,262.978 
  1989.7,261.123 2000.92,259.303 2012.14,257.516 2023.36,255.759 2034.58,254.033 2045.79,252.333 2057.01,250.661 2068.23,249.013 2079.45,247.389 2090.67,245.789 
  2101.89,244.21 2113.1,242.652 2124.32,241.116 2135.54,239.599 2146.76,238.102 2157.98,236.625 2169.19,235.167 2180.41,233.729 2191.63,232.31 2202.85,230.912 
  2214.07,229.534 2225.29,228.177 2236.5,226.842 2247.72,225.53 2258.94,224.242 2270.16,222.978 2281.38,221.741 2292.6,220.531 2303.81,219.351 2315.03,218.2 
  2326.25,217.082 2337.47,215.998 2348.69,214.95 2359.9,213.94 2371.12,212.97 2382.34,212.041 2393.56,211.157 2404.78,210.318 2416,209.528 2427.21,208.787 
  2438.43,208.1 2449.65,207.466 2460.87,206.889 2472.09,206.37 2483.3,205.912 2494.52,205.514 2505.74,205.179 2516.96,204.907 2528.18,204.699 2539.4,204.552 
  2550.61,204.466 
  "/>
<polyline clip-path="url(#clip5602)" style="stroke:#e26f46; stroke-width:16; stroke-opacity:1; fill:none" points="
  306.972,2027.56 318.19,2027.86 329.408,2027.52 340.627,2017.41 351.845,1989.96 363.063,1954.13 374.281,1917.96 385.499,1883.68 396.718,1851.3 407.936,1820.23 
  419.154,1789.96 430.372,1760.08 441.591,1730.34 452.809,1700.56 464.027,1670.66 475.245,1640.59 486.463,1610.34 497.682,1579.93 508.9,1549.39 520.118,1518.76 
  531.336,1488.12 542.554,1457.5 553.773,1427 564.991,1396.67 576.209,1366.57 587.427,1336.77 598.645,1307.32 609.864,1278.27 621.082,1249.67 632.3,1221.55 
  643.518,1193.94 654.737,1166.86 665.955,1140.34 677.173,1114.39 688.391,1089.03 699.609,1064.25 710.828,1040.08 722.046,1016.5 733.264,993.529 744.482,971.158 
  755.7,949.385 766.919,928.21 778.137,907.626 789.355,887.629 800.573,868.213 811.791,849.371 823.01,831.096 834.228,813.38 845.446,796.215 856.664,779.593 
  867.883,763.504 879.101,747.94 890.319,732.891 901.537,718.347 912.755,704.298 923.974,690.734 935.192,677.645 946.41,665.018 957.628,652.844 968.846,641.109 
  980.065,629.803 991.283,618.914 1002.5,608.428 1013.72,598.334 1024.94,588.619 1036.16,579.27 1047.37,570.275 1058.59,561.617 1069.81,553.239 1081.03,545.1 
  1092.25,537.19 1103.46,529.5 1114.68,522.019 1125.9,514.737 1137.12,507.641 1148.34,500.72 1159.56,493.964 1170.77,487.363 1181.99,480.908 1193.21,474.59 
  1204.43,468.404 1215.65,462.341 1226.87,456.397 1238.08,450.565 1249.3,444.843 1260.52,439.224 1271.74,433.707 1282.96,428.288 1294.17,422.965 1305.39,417.735 
  1316.61,412.597 1327.83,407.55 1339.05,402.592 1350.27,397.722 1361.48,392.939 1372.7,388.244 1383.92,383.635 1395.14,379.112 1406.36,374.675 1417.57,370.325 
  1428.79,366.06 1440.01,361.881 1451.23,357.788 1462.45,353.781 1473.67,349.86 1484.88,346.025 1496.1,342.275 1507.32,338.611 1518.54,335.033 1529.76,331.539 
  1540.98,328.13 1552.19,324.805 1563.41,321.565 1574.63,318.407 1585.85,315.332 1597.07,312.338 1608.28,309.425 1619.5,306.591 1630.72,303.836 1641.94,301.159 
  1653.16,298.557 1664.38,296.03 1675.59,293.576 1686.81,291.194 1698.03,288.881 1709.25,286.637 1720.47,284.459 1731.68,282.345 1742.9,280.293 1754.12,278.302 
  1765.34,276.369 1776.56,274.492 1787.78,272.669 1798.99,270.898 1810.21,269.176 1821.43,267.502 1832.65,265.874 1843.87,264.288 1855.09,262.743 1866.3,261.236 
  1877.52,259.766 1888.74,258.33 1899.96,256.927 1911.18,255.553 1922.39,254.208 1933.61,252.888 1944.83,251.593 1956.05,250.321 1967.27,249.068 1978.49,247.835 
  1989.7,246.62 2000.92,245.42 2012.14,244.234 2023.36,243.062 2034.58,241.901 2045.79,240.751 2057.01,239.611 2068.23,238.48 2079.45,237.357 2090.67,236.241 
  2101.89,235.133 2113.1,234.03 2124.32,232.934 2135.54,231.844 2146.76,230.759 2157.98,229.681 2169.19,228.608 2180.41,227.543 2191.63,226.484 2202.85,225.432 
  2214.07,224.389 2225.29,223.354 2236.5,222.33 2247.72,221.316 2258.94,220.315 2270.16,219.326 2281.38,218.353 2292.6,217.396 2303.81,216.457 2315.03,215.537 
  2326.25,214.639 2337.47,213.764 2348.69,212.914 2359.9,212.09 2371.12,211.296 2382.34,210.533 2393.56,209.804 2404.78,209.109 2416,208.453 2427.21,207.835 
  2438.43,207.26 2449.65,206.727 2460.87,206.241 2472.09,205.802 2483.3,205.413 2494.52,205.072 2505.74,204.785 2516.96,204.549 2528.18,204.367 2539.4,204.235 
  2550.61,204.154 
  "/>
<polyline clip-path="url(#clip5602)" style="stroke:#3da44d; stroke-width:16; stroke-opacity:1; fill:none" points="
  306.972,2086.76 318.19,2086.76 329.408,2086.77 340.627,2086.37 351.845,2084.2 363.063,2079.32 374.281,2071.73 385.499,2061.95 396.718,2050.4 407.936,2037.29 
  419.154,2022.66 430.372,2006.57 441.591,1989.11 452.809,1970.43 464.027,1950.64 475.245,1929.9 486.463,1908.33 497.682,1886.03 508.9,1863.11 520.118,1839.65 
  531.336,1815.72 542.554,1791.38 553.773,1766.69 564.991,1741.69 576.209,1716.43 587.427,1690.94 598.645,1665.25 609.864,1639.4 621.082,1613.42 632.3,1587.33 
  643.518,1561.17 654.737,1534.97 665.955,1508.75 677.173,1482.56 688.391,1456.43 699.609,1430.38 710.828,1404.46 722.046,1378.68 733.264,1353.09 744.482,1327.71 
  755.7,1302.58 766.919,1277.71 778.137,1253.13 789.355,1228.88 800.573,1204.96 811.791,1181.4 823.01,1158.21 834.228,1135.41 845.446,1113.02 856.664,1091.05 
  867.883,1069.51 879.101,1048.41 890.319,1027.75 901.537,1007.54 912.755,987.789 923.974,968.501 935.192,949.674 946.41,931.314 957.628,913.415 968.846,895.983 
  980.065,879.011 991.283,862.499 1002.5,846.441 1013.72,830.838 1024.94,815.679 1036.16,800.968 1047.37,786.698 1058.59,772.873 1069.81,759.415 1081.03,746.261 
  1092.25,733.417 1103.46,720.878 1114.68,708.641 1125.9,696.691 1137.12,685.022 1148.34,673.618 1159.56,662.472 1170.77,651.571 1181.99,640.906 1193.21,630.466 
  1204.43,620.245 1215.65,610.232 1226.87,600.422 1238.08,590.807 1249.3,581.381 1260.52,572.14 1271.74,563.077 1282.96,554.189 1294.17,545.473 1305.39,536.923 
  1316.61,528.538 1327.83,520.315 1339.05,512.251 1350.27,504.343 1361.48,496.592 1372.7,488.993 1383.92,481.547 1395.14,474.252 1406.36,467.107 1417.57,460.11 
  1428.79,453.26 1440.01,446.557 1451.23,440 1462.45,433.588 1473.67,427.319 1484.88,421.194 1496.1,415.21 1507.32,409.367 1518.54,403.663 1529.76,398.098 
  1540.98,392.671 1552.19,387.379 1563.41,382.221 1574.63,377.196 1585.85,372.303 1597.07,367.538 1608.28,362.902 1619.5,358.39 1630.72,354.002 1641.94,349.735 
  1653.16,345.587 1664.38,341.555 1675.59,337.637 1686.81,333.83 1698.03,330.132 1709.25,326.54 1720.47,323.051 1731.68,319.663 1742.9,316.371 1754.12,313.175 
  1765.34,310.069 1776.56,307.053 1787.78,304.121 1798.99,301.272 1810.21,298.503 1821.43,295.809 1832.65,293.189 1843.87,290.64 1855.09,288.157 1866.3,285.74 
  1877.52,283.383 1888.74,281.086 1899.96,278.844 1911.18,276.656 1922.39,274.518 1933.61,272.428 1944.83,270.383 1956.05,268.382 1967.27,266.422 1978.49,264.5 
  1989.7,262.614 2000.92,260.763 2012.14,258.945 2023.36,257.157 2034.58,255.399 2045.79,253.668 2057.01,251.963 2068.23,250.283 2079.45,248.627 2090.67,246.994 
  2101.89,245.383 2113.1,243.792 2124.32,242.222 2135.54,240.672 2146.76,239.142 2157.98,237.631 2169.19,236.139 2180.41,234.667 2191.63,233.215 2202.85,231.783 
  2214.07,230.372 2225.29,228.981 2236.5,227.613 2247.72,226.268 2258.94,224.947 2270.16,223.651 2281.38,222.382 2292.6,221.14 2303.81,219.929 2315.03,218.748 
  2326.25,217.6 2337.47,216.487 2348.69,215.411 2359.9,214.373 2371.12,213.376 2382.34,212.422 2393.56,211.514 2404.78,210.652 2416,209.84 2427.21,209.079 
  2438.43,208.373 2449.65,207.721 2460.87,207.129 2472.09,206.595 2483.3,206.124 2494.52,205.715 2505.74,205.372 2516.96,205.092 2528.18,204.878 2539.4,204.727 
  2550.61,204.638 
  "/>
<polyline clip-path="url(#clip5602)" style="stroke:#c271d2; stroke-width:16; stroke-opacity:1; fill:none" points="
  306.972,2145.96 318.19,2146.22 329.408,2145.98 340.627,2136.84 351.845,2111.54 363.063,2078.65 374.281,2045.05 385.499,2012.49 396.718,1980.92 407.936,1949.9 
  419.154,1919.06 430.372,1888.12 441.591,1856.94 452.809,1825.4 464.027,1793.47 475.245,1761.13 486.463,1728.38 497.682,1695.26 508.9,1661.82 520.118,1628.14 
  531.336,1594.29 542.554,1560.37 553.773,1526.46 564.991,1492.67 576.209,1459.08 587.427,1425.78 598.645,1392.82 609.864,1360.29 621.082,1328.22 632.3,1296.67 
  643.518,1265.67 654.737,1235.26 665.955,1205.45 677.173,1176.29 688.391,1147.77 699.609,1119.91 710.828,1092.73 722.046,1066.23 733.264,1040.42 744.482,1015.3 
  755.7,990.861 766.919,967.114 778.137,944.05 789.355,921.668 800.573,899.96 811.791,878.921 823.01,858.541 834.228,838.814 845.446,819.729 856.664,801.278 
  867.883,783.447 879.101,766.228 890.319,749.608 901.537,733.575 912.755,718.115 923.974,703.217 935.192,688.866 946.41,675.049 957.628,661.75 968.846,648.957 
  980.065,636.651 991.283,624.82 1002.5,613.447 1013.72,602.519 1024.94,592.019 1036.16,581.938 1047.37,572.266 1058.59,563.006 1069.81,554.065 1081.03,545.377 
  1092.25,536.946 1103.46,528.766 1114.68,520.827 1125.9,513.117 1137.12,505.622 1148.34,498.328 1159.56,491.222 1170.77,484.293 1181.99,477.53 1193.21,470.922 
  1204.43,464.461 1215.65,458.138 1226.87,451.947 1238.08,445.88 1249.3,439.932 1260.52,434.098 1271.74,428.373 1282.96,422.755 1294.17,417.239 1305.39,411.823 
  1316.61,406.505 1327.83,401.283 1339.05,396.155 1350.27,391.119 1361.48,386.176 1372.7,381.324 1383.92,376.562 1395.14,371.89 1406.36,367.307 1417.57,362.814 
  1428.79,358.411 1440.01,354.097 1451.23,349.872 1462.45,345.736 1473.67,341.689 1484.88,337.731 1496.1,333.862 1507.32,330.082 1518.54,326.391 1529.76,322.788 
  1540.98,319.273 1552.19,315.846 1563.41,312.507 1574.63,309.254 1585.85,306.087 1597.07,303.005 1608.28,300.008 1619.5,297.094 1630.72,294.263 1641.94,291.512 
  1653.16,288.842 1664.38,286.251 1675.59,283.737 1686.81,281.299 1698.03,278.935 1709.25,276.643 1720.47,274.422 1731.68,272.27 1742.9,270.185 1754.12,268.165 
  1765.34,266.208 1776.56,264.313 1787.78,262.476 1798.99,260.696 1810.21,258.971 1821.43,257.298 1832.65,255.676 1843.87,254.103 1855.09,252.575 1866.3,251.092 
  1877.52,249.651 1888.74,248.25 1899.96,246.886 1911.18,245.559 1922.39,244.265 1933.61,243.004 1944.83,241.773 1956.05,240.57 1967.27,239.393 1978.49,238.242 
  1989.7,237.114 2000.92,236.008 2012.14,234.923 2023.36,233.856 2034.58,232.808 2045.79,231.776 2057.01,230.76 2068.23,229.758 2079.45,228.771 2090.67,227.796 
  2101.89,226.834 2113.1,225.884 2124.32,224.945 2135.54,224.017 2146.76,223.1 2157.98,222.193 2169.19,221.297 2180.41,220.411 2191.63,219.536 2202.85,218.672 
  2214.07,217.819 2225.29,216.978 2236.5,216.149 2247.72,215.333 2258.94,214.531 2270.16,213.743 2281.38,212.97 2292.6,212.214 2303.81,211.474 2315.03,210.754 
  2326.25,210.052 2337.47,209.372 2348.69,208.713 2359.9,208.078 2371.12,207.467 2382.34,206.883 2393.56,206.326 2404.78,205.798 2416,205.301 2427.21,204.835 
  2438.43,204.403 2449.65,204.005 2460.87,203.643 2472.09,203.318 2483.3,203.032 2494.52,202.784 2505.74,202.577 2516.96,202.41 2528.18,202.284 2539.4,202.197 
  2550.61,202.15 
  "/>
<polyline clip-path="url(#clip5602)" style="stroke:#ac8d18; stroke-width:16; stroke-opacity:1; fill:none" points="
  306.972,2086.76 318.19,2087.89 329.408,2089.87 340.627,2090.65 351.845,2089.81 363.063,2087.99 374.281,2085.48 385.499,2082.04 396.718,2077.27 407.936,2070.79 
  419.154,2062.36 430.372,2051.82 441.591,2039.1 452.809,2024.21 464.027,2007.17 475.245,1988.05 486.463,1966.94 497.682,1943.95 508.9,1919.21 520.118,1892.85 
  531.336,1865.02 542.554,1835.86 553.773,1805.53 564.991,1774.18 576.209,1741.97 587.427,1709.05 598.645,1675.56 609.864,1641.64 621.082,1607.41 632.3,1572.99 
  643.518,1538.5 654.737,1504.04 665.955,1469.68 677.173,1435.53 688.391,1401.66 699.609,1368.12 710.828,1334.99 722.046,1302.32 733.264,1270.16 744.482,1238.53 
  755.7,1207.49 766.919,1177.06 778.137,1147.27 789.355,1118.13 800.573,1089.67 811.791,1061.89 823.01,1034.81 834.228,1008.44 845.446,982.771 856.664,957.814 
  867.883,933.566 879.101,910.025 890.319,887.187 901.537,865.046 912.755,843.595 923.974,822.826 935.192,802.731 946.41,783.299 957.628,764.52 968.846,746.382 
  980.065,728.876 991.283,711.988 1002.5,695.709 1013.72,680.025 1024.94,664.928 1036.16,650.407 1047.37,636.455 1058.59,623.069 1069.81,610.149 1081.03,597.602 
  1092.25,585.426 1103.46,573.62 1114.68,562.178 1125.9,551.096 1137.12,540.365 1148.34,529.979 1159.56,519.93 1170.77,510.209 1181.99,500.811 1193.21,491.726 
  1204.43,482.949 1215.65,474.47 1226.87,466.284 1238.08,458.384 1249.3,450.762 1260.52,443.413 1271.74,436.328 1282.96,429.502 1294.17,422.929 1305.39,416.601 
  1316.61,410.513 1327.83,404.657 1339.05,399.029 1350.27,393.621 1361.48,388.427 1372.7,383.44 1383.92,378.655 1395.14,374.065 1406.36,369.664 1417.57,365.444 
  1428.79,361.401 1440.01,357.526 1451.23,353.813 1462.45,350.257 1473.67,346.85 1484.88,343.585 1496.1,340.456 1507.32,337.456 1518.54,334.579 1529.76,331.818 
  1540.98,329.165 1552.19,326.616 1563.41,324.162 1574.63,321.798 1585.85,319.517 1597.07,317.312 1608.28,315.179 1619.5,313.109 1630.72,311.098 1641.94,309.14 
  1653.16,307.229 1664.38,305.36 1675.59,303.527 1686.81,301.725 1698.03,299.95 1709.25,298.197 1720.47,296.462 1731.68,294.741 1742.9,293.029 1754.12,291.324 
  1765.34,289.622 1776.56,287.919 1787.78,286.214 1798.99,284.504 1810.21,282.786 1821.43,281.059 1832.65,279.321 1843.87,277.571 1855.09,275.808 1866.3,274.03 
  1877.52,272.237 1888.74,270.43 1899.96,268.607 1911.18,266.769 1922.39,264.917 1933.61,263.051 1944.83,261.171 1956.05,259.279 1967.27,257.376 1978.49,255.464 
  1989.7,253.543 2000.92,251.616 2012.14,249.683 2023.36,247.748 2034.58,245.812 2045.79,243.878 2057.01,241.946 2068.23,240.02 2079.45,238.102 2090.67,236.195 
  2101.89,234.299 2113.1,232.419 2124.32,230.556 2135.54,228.713 2146.76,226.891 2157.98,225.094 2169.19,223.324 2180.41,221.582 2191.63,219.871 2202.85,218.192 
  2214.07,216.549 2225.29,214.943 2236.5,213.375 2247.72,211.848 2258.94,210.363 2270.16,208.922 2281.38,207.526 2292.6,206.176 2303.81,204.874 2315.03,203.62 
  2326.25,202.417 2337.47,201.265 2348.69,200.164 2359.9,199.116 2371.12,198.121 2382.34,197.18 2393.56,196.293 2404.78,195.462 2416,194.685 2427.21,193.964 
  2438.43,193.299 2449.65,192.69 2460.87,192.138 2472.09,191.642 2483.3,191.202 2494.52,190.818 2505.74,190.491 2516.96,190.22 2528.18,190.003 2539.4,189.84 
  2550.61,189.727 
  "/>
<path clip-path="url(#clip5600)" d="
M2713.92 625.432 L3184.76 625.432 L3184.76 262.552 L2713.92 262.552  Z
  " fill="#ffffff" fill-rule="evenodd" fill-opacity="1"/>
<polyline clip-path="url(#clip5600)" style="stroke:#000000; stroke-width:4; stroke-opacity:1; fill:none" points="
  2713.92,625.432 3184.76,625.432 3184.76,262.552 2713.92,262.552 2713.92,625.432 
  "/>
<polyline clip-path="url(#clip5600)" style="stroke:#009af9; stroke-width:16; stroke-opacity:1; fill:none" points="
  2745.92,323.032 2937.92,323.032 
  "/>
<path clip-path="url(#clip5600)" d="M 0 0 M2991.95 303.633 Q2984.95 303.633 2980.81 308.853 Q2976.7 314.072 2976.7 323.08 Q2976.7 332.056 2980.81 337.275 Q2984.95 342.495 2991.95 342.495 Q2998.95 342.495 3003.03 337.275 Q3007.13 332.056 3007.13 323.08 Q3007.13 314.072 3003.03 308.853 Q2998.95 303.633 2991.95 303.633 M3000.96 345.933 L3009.42 355.195 L3001.66 355.195 L2994.62 347.588 Q2993.57 347.651 2993 347.683 Q2992.46 347.715 2991.95 347.715 Q2981.92 347.715 2975.91 341.031 Q2969.92 334.315 2969.92 323.08 Q2969.92 311.813 2975.91 305.129 Q2981.92 298.413 2991.95 298.413 Q3001.94 298.413 3007.93 305.129 Q3013.91 311.813 3013.91 323.08 Q3013.91 331.355 3010.57 337.244 Q3007.26 343.132 3000.96 345.933 Z" fill="#000000" fill-rule="evenodd" fill-opacity="1" /><path clip-path="url(#clip5600)" d="M 0 0 M3019.45 332.724 L3019.45 311.144 L3025.31 311.144 L3025.31 332.501 Q3025.31 337.562 3027.28 340.108 Q3029.25 342.623 3033.2 342.623 Q3037.94 342.623 3040.68 339.599 Q3043.45 336.575 3043.45 331.355 L3043.45 311.144 L3049.3 311.144 L3049.3 346.792 L3043.45 346.792 L3043.45 341.318 Q3041.31 344.564 3038.48 346.156 Q3035.68 347.715 3031.96 347.715 Q3025.81 347.715 3022.63 343.896 Q3019.45 340.076 3019.45 332.724 M3034.19 310.285 L3034.19 310.285 Z" fill="#000000" fill-rule="evenodd" fill-opacity="1" /><path clip-path="url(#clip5600)" d="M 0 0 M3071.65 328.873 Q3064.55 328.873 3061.81 330.496 Q3059.08 332.119 3059.08 336.034 Q3059.08 339.153 3061.11 340.999 Q3063.18 342.814 3066.71 342.814 Q3071.58 342.814 3074.51 339.376 Q3077.47 335.907 3077.47 330.178 L3077.47 328.873 L3071.65 328.873 M3083.33 326.454 L3083.33 346.792 L3077.47 346.792 L3077.47 341.381 Q3075.47 344.628 3072.47 346.187 Q3069.48 347.715 3065.15 347.715 Q3059.68 347.715 3056.43 344.66 Q3053.22 341.572 3053.22 336.416 Q3053.22 330.4 3057.23 327.345 Q3061.27 324.289 3069.26 324.289 L3077.47 324.289 L3077.47 323.716 Q3077.47 319.674 3074.8 317.478 Q3072.16 315.25 3067.35 315.25 Q3064.29 315.25 3061.4 315.982 Q3058.5 316.714 3055.83 318.178 L3055.83 312.767 Q3059.04 311.526 3062.07 310.921 Q3065.09 310.285 3067.96 310.285 Q3075.69 310.285 3079.51 314.295 Q3083.33 318.306 3083.33 326.454 Z" fill="#000000" fill-rule="evenodd" fill-opacity="1" /><path clip-path="url(#clip5600)" d="M 0 0 M3112.93 316.555 L3112.93 297.267 L3118.79 297.267 L3118.79 346.792 L3112.93 346.792 L3112.93 341.445 Q3111.08 344.628 3108.25 346.187 Q3105.45 347.715 3101.5 347.715 Q3095.04 347.715 3090.97 342.559 Q3086.93 337.403 3086.93 329 Q3086.93 320.597 3090.97 315.441 Q3095.04 310.285 3101.5 310.285 Q3105.45 310.285 3108.25 311.844 Q3111.08 313.372 3112.93 316.555 M3092.97 329 Q3092.97 335.461 3095.61 339.153 Q3098.29 342.814 3102.93 342.814 Q3107.58 342.814 3110.26 339.153 Q3112.93 335.461 3112.93 329 Q3112.93 322.539 3110.26 318.879 Q3107.58 315.186 3102.93 315.186 Q3098.29 315.186 3095.61 318.879 Q3092.97 322.539 3092.97 329 Z" fill="#000000" fill-rule="evenodd" fill-opacity="1" /><path clip-path="url(#clip5600)" d="M 0 0 M3147.59 341.381 L3158.09 341.381 L3158.09 305.129 L3146.67 307.42 L3146.67 301.564 L3158.03 299.272 L3164.46 299.272 L3164.46 341.381 L3174.96 341.381 L3174.96 346.792 L3147.59 346.792 L3147.59 341.381 Z" fill="#000000" fill-rule="evenodd" fill-opacity="1" /><polyline clip-path="url(#clip5600)" style="stroke:#e26f46; stroke-width:16; stroke-opacity:1; fill:none" points="
  2745.92,383.512 2937.92,383.512 
  "/>
<path clip-path="url(#clip5600)" d="M 0 0 M2991.95 364.113 Q2984.95 364.113 2980.81 369.333 Q2976.7 374.552 2976.7 383.56 Q2976.7 392.536 2980.81 397.755 Q2984.95 402.975 2991.95 402.975 Q2998.95 402.975 3003.03 397.755 Q3007.13 392.536 3007.13 383.56 Q3007.13 374.552 3003.03 369.333 Q2998.95 364.113 2991.95 364.113 M3000.96 406.413 L3009.42 415.675 L3001.66 415.675 L2994.62 408.068 Q2993.57 408.131 2993 408.163 Q2992.46 408.195 2991.95 408.195 Q2981.92 408.195 2975.91 401.511 Q2969.92 394.795 2969.92 383.56 Q2969.92 372.293 2975.91 365.609 Q2981.92 358.893 2991.95 358.893 Q3001.94 358.893 3007.93 365.609 Q3013.91 372.293 3013.91 383.56 Q3013.91 391.835 3010.57 397.724 Q3007.26 403.612 3000.96 406.413 Z" fill="#000000" fill-rule="evenodd" fill-opacity="1" /><path clip-path="url(#clip5600)" d="M 0 0 M3019.45 393.204 L3019.45 371.624 L3025.31 371.624 L3025.31 392.981 Q3025.31 398.042 3027.28 400.588 Q3029.25 403.103 3033.2 403.103 Q3037.94 403.103 3040.68 400.079 Q3043.45 397.055 3043.45 391.835 L3043.45 371.624 L3049.3 371.624 L3049.3 407.272 L3043.45 407.272 L3043.45 401.798 Q3041.31 405.044 3038.48 406.636 Q3035.68 408.195 3031.96 408.195 Q3025.81 408.195 3022.63 404.376 Q3019.45 400.556 3019.45 393.204 M3034.19 370.765 L3034.19 370.765 Z" fill="#000000" fill-rule="evenodd" fill-opacity="1" /><path clip-path="url(#clip5600)" d="M 0 0 M3071.65 389.353 Q3064.55 389.353 3061.81 390.976 Q3059.08 392.599 3059.08 396.514 Q3059.08 399.633 3061.11 401.479 Q3063.18 403.294 3066.71 403.294 Q3071.58 403.294 3074.51 399.856 Q3077.47 396.387 3077.47 390.658 L3077.47 389.353 L3071.65 389.353 M3083.33 386.934 L3083.33 407.272 L3077.47 407.272 L3077.47 401.861 Q3075.47 405.108 3072.47 406.667 Q3069.48 408.195 3065.15 408.195 Q3059.68 408.195 3056.43 405.14 Q3053.22 402.052 3053.22 396.896 Q3053.22 390.88 3057.23 387.825 Q3061.27 384.769 3069.26 384.769 L3077.47 384.769 L3077.47 384.196 Q3077.47 380.154 3074.8 377.958 Q3072.16 375.73 3067.35 375.73 Q3064.29 375.73 3061.4 376.462 Q3058.5 377.194 3055.83 378.658 L3055.83 373.247 Q3059.04 372.006 3062.07 371.401 Q3065.09 370.765 3067.96 370.765 Q3075.69 370.765 3079.51 374.775 Q3083.33 378.786 3083.33 386.934 Z" fill="#000000" fill-rule="evenodd" fill-opacity="1" /><path clip-path="url(#clip5600)" d="M 0 0 M3112.93 377.035 L3112.93 357.747 L3118.79 357.747 L3118.79 407.272 L3112.93 407.272 L3112.93 401.925 Q3111.08 405.108 3108.25 406.667 Q3105.45 408.195 3101.5 408.195 Q3095.04 408.195 3090.97 403.039 Q3086.93 397.883 3086.93 389.48 Q3086.93 381.077 3090.97 375.921 Q3095.04 370.765 3101.5 370.765 Q3105.45 370.765 3108.25 372.324 Q3111.08 373.852 3112.93 377.035 M3092.97 389.48 Q3092.97 395.941 3095.61 399.633 Q3098.29 403.294 3102.93 403.294 Q3107.58 403.294 3110.26 399.633 Q3112.93 395.941 3112.93 389.48 Q3112.93 383.019 3110.26 379.359 Q3107.58 375.666 3102.93 375.666 Q3098.29 375.666 3095.61 379.359 Q3092.97 383.019 3092.97 389.48 Z" fill="#000000" fill-rule="evenodd" fill-opacity="1" /><path clip-path="url(#clip5600)" d="M 0 0 M3152.01 401.861 L3174.45 401.861 L3174.45 407.272 L3144.28 407.272 L3144.28 401.861 Q3147.94 398.074 3154.24 391.708 Q3160.58 385.31 3162.2 383.464 Q3165.29 379.995 3166.5 377.608 Q3167.74 375.189 3167.74 372.865 Q3167.74 369.078 3165.06 366.691 Q3162.42 364.304 3158.16 364.304 Q3155.13 364.304 3151.76 365.354 Q3148.42 366.404 3144.6 368.537 L3144.6 362.044 Q3148.48 360.484 3151.86 359.688 Q3155.23 358.893 3158.03 358.893 Q3165.41 358.893 3169.81 362.585 Q3174.2 366.277 3174.2 372.452 Q3174.2 375.38 3173.08 378.022 Q3172 380.632 3169.11 384.196 Q3168.31 385.119 3164.05 389.544 Q3159.78 393.936 3152.01 401.861 Z" fill="#000000" fill-rule="evenodd" fill-opacity="1" /><polyline clip-path="url(#clip5600)" style="stroke:#3da44d; stroke-width:16; stroke-opacity:1; fill:none" points="
  2745.92,443.992 2937.92,443.992 
  "/>
<path clip-path="url(#clip5600)" d="M 0 0 M2991.95 424.593 Q2984.95 424.593 2980.81 429.813 Q2976.7 435.032 2976.7 444.04 Q2976.7 453.016 2980.81 458.235 Q2984.95 463.455 2991.95 463.455 Q2998.95 463.455 3003.03 458.235 Q3007.13 453.016 3007.13 444.04 Q3007.13 435.032 3003.03 429.813 Q2998.95 424.593 2991.95 424.593 M3000.96 466.893 L3009.42 476.155 L3001.66 476.155 L2994.62 468.548 Q2993.57 468.611 2993 468.643 Q2992.46 468.675 2991.95 468.675 Q2981.92 468.675 2975.91 461.991 Q2969.92 455.275 2969.92 444.04 Q2969.92 432.773 2975.91 426.089 Q2981.92 419.373 2991.95 419.373 Q3001.94 419.373 3007.93 426.089 Q3013.91 432.773 3013.91 444.04 Q3013.91 452.315 3010.57 458.204 Q3007.26 464.092 3000.96 466.893 Z" fill="#000000" fill-rule="evenodd" fill-opacity="1" /><path clip-path="url(#clip5600)" d="M 0 0 M3019.45 453.684 L3019.45 432.104 L3025.31 432.104 L3025.31 453.461 Q3025.31 458.522 3027.28 461.068 Q3029.25 463.583 3033.2 463.583 Q3037.94 463.583 3040.68 460.559 Q3043.45 457.535 3043.45 452.315 L3043.45 432.104 L3049.3 432.104 L3049.3 467.752 L3043.45 467.752 L3043.45 462.278 Q3041.31 465.524 3038.48 467.116 Q3035.68 468.675 3031.96 468.675 Q3025.81 468.675 3022.63 464.856 Q3019.45 461.036 3019.45 453.684 M3034.19 431.245 L3034.19 431.245 Z" fill="#000000" fill-rule="evenodd" fill-opacity="1" /><path clip-path="url(#clip5600)" d="M 0 0 M3071.65 449.833 Q3064.55 449.833 3061.81 451.456 Q3059.08 453.079 3059.08 456.994 Q3059.08 460.113 3061.11 461.959 Q3063.18 463.774 3066.71 463.774 Q3071.58 463.774 3074.51 460.336 Q3077.47 456.867 3077.47 451.138 L3077.47 449.833 L3071.65 449.833 M3083.33 447.414 L3083.33 467.752 L3077.47 467.752 L3077.47 462.341 Q3075.47 465.588 3072.47 467.147 Q3069.48 468.675 3065.15 468.675 Q3059.68 468.675 3056.43 465.62 Q3053.22 462.532 3053.22 457.376 Q3053.22 451.36 3057.23 448.305 Q3061.27 445.249 3069.26 445.249 L3077.47 445.249 L3077.47 444.676 Q3077.47 440.634 3074.8 438.438 Q3072.16 436.21 3067.35 436.21 Q3064.29 436.21 3061.4 436.942 Q3058.5 437.674 3055.83 439.138 L3055.83 433.727 Q3059.04 432.486 3062.07 431.881 Q3065.09 431.245 3067.96 431.245 Q3075.69 431.245 3079.51 435.255 Q3083.33 439.266 3083.33 447.414 Z" fill="#000000" fill-rule="evenodd" fill-opacity="1" /><path clip-path="url(#clip5600)" d="M 0 0 M3112.93 437.515 L3112.93 418.227 L3118.79 418.227 L3118.79 467.752 L3112.93 467.752 L3112.93 462.405 Q3111.08 465.588 3108.25 467.147 Q3105.45 468.675 3101.5 468.675 Q3095.04 468.675 3090.97 463.519 Q3086.93 458.363 3086.93 449.96 Q3086.93 441.557 3090.97 436.401 Q3095.04 431.245 3101.5 431.245 Q3105.45 431.245 3108.25 432.804 Q3111.08 434.332 3112.93 437.515 M3092.97 449.96 Q3092.97 456.421 3095.61 460.113 Q3098.29 463.774 3102.93 463.774 Q3107.58 463.774 3110.26 460.113 Q3112.93 456.421 3112.93 449.96 Q3112.93 443.499 3110.26 439.839 Q3107.58 436.146 3102.93 436.146 Q3098.29 436.146 3095.61 439.839 Q3092.97 443.499 3092.97 449.96 Z" fill="#000000" fill-rule="evenodd" fill-opacity="1" /><path clip-path="url(#clip5600)" d="M 0 0 M3165.96 442.13 Q3170.57 443.117 3173.15 446.236 Q3175.76 449.355 3175.76 453.939 Q3175.76 460.973 3170.92 464.824 Q3166.08 468.675 3157.17 468.675 Q3154.18 468.675 3151 468.07 Q3147.84 467.497 3144.47 466.32 L3144.47 460.113 Q3147.14 461.673 3150.33 462.469 Q3153.51 463.264 3156.98 463.264 Q3163.03 463.264 3166.18 460.877 Q3169.36 458.49 3169.36 453.939 Q3169.36 449.737 3166.4 447.382 Q3163.47 444.995 3158.22 444.995 L3152.68 444.995 L3152.68 439.711 L3158.48 439.711 Q3163.22 439.711 3165.73 437.833 Q3168.25 435.924 3168.25 432.359 Q3168.25 428.699 3165.64 426.757 Q3163.06 424.784 3158.22 424.784 Q3155.58 424.784 3152.56 425.357 Q3149.53 425.929 3145.9 427.139 L3145.9 421.41 Q3149.56 420.391 3152.75 419.882 Q3155.96 419.373 3158.79 419.373 Q3166.11 419.373 3170.38 422.715 Q3174.64 426.025 3174.64 431.69 Q3174.64 435.637 3172.38 438.374 Q3170.12 441.08 3165.96 442.13 Z" fill="#000000" fill-rule="evenodd" fill-opacity="1" /><polyline clip-path="url(#clip5600)" style="stroke:#c271d2; stroke-width:16; stroke-opacity:1; fill:none" points="
  2745.92,504.472 2937.92,504.472 
  "/>
<path clip-path="url(#clip5600)" d="M 0 0 M2991.95 485.073 Q2984.95 485.073 2980.81 490.293 Q2976.7 495.512 2976.7 504.52 Q2976.7 513.496 2980.81 518.715 Q2984.95 523.935 2991.95 523.935 Q2998.95 523.935 3003.03 518.715 Q3007.13 513.496 3007.13 504.52 Q3007.13 495.512 3003.03 490.293 Q2998.95 485.073 2991.95 485.073 M3000.96 527.373 L3009.42 536.635 L3001.66 536.635 L2994.62 529.028 Q2993.57 529.091 2993 529.123 Q2992.46 529.155 2991.95 529.155 Q2981.92 529.155 2975.91 522.471 Q2969.92 515.755 2969.92 504.52 Q2969.92 493.253 2975.91 486.569 Q2981.92 479.853 2991.95 479.853 Q3001.94 479.853 3007.93 486.569 Q3013.91 493.253 3013.91 504.52 Q3013.91 512.795 3010.57 518.684 Q3007.26 524.572 3000.96 527.373 Z" fill="#000000" fill-rule="evenodd" fill-opacity="1" /><path clip-path="url(#clip5600)" d="M 0 0 M3019.45 514.164 L3019.45 492.584 L3025.31 492.584 L3025.31 513.941 Q3025.31 519.002 3027.28 521.548 Q3029.25 524.063 3033.2 524.063 Q3037.94 524.063 3040.68 521.039 Q3043.45 518.015 3043.45 512.795 L3043.45 492.584 L3049.3 492.584 L3049.3 528.232 L3043.45 528.232 L3043.45 522.758 Q3041.31 526.004 3038.48 527.596 Q3035.68 529.155 3031.96 529.155 Q3025.81 529.155 3022.63 525.336 Q3019.45 521.516 3019.45 514.164 M3034.19 491.725 L3034.19 491.725 Z" fill="#000000" fill-rule="evenodd" fill-opacity="1" /><path clip-path="url(#clip5600)" d="M 0 0 M3071.65 510.313 Q3064.55 510.313 3061.81 511.936 Q3059.08 513.559 3059.08 517.474 Q3059.08 520.593 3061.11 522.439 Q3063.18 524.254 3066.71 524.254 Q3071.58 524.254 3074.51 520.816 Q3077.47 517.347 3077.47 511.618 L3077.47 510.313 L3071.65 510.313 M3083.33 507.894 L3083.33 528.232 L3077.47 528.232 L3077.47 522.821 Q3075.47 526.068 3072.47 527.627 Q3069.48 529.155 3065.15 529.155 Q3059.68 529.155 3056.43 526.1 Q3053.22 523.012 3053.22 517.856 Q3053.22 511.84 3057.23 508.785 Q3061.27 505.729 3069.26 505.729 L3077.47 505.729 L3077.47 505.156 Q3077.47 501.114 3074.8 498.918 Q3072.16 496.69 3067.35 496.69 Q3064.29 496.69 3061.4 497.422 Q3058.5 498.154 3055.83 499.618 L3055.83 494.207 Q3059.04 492.966 3062.07 492.361 Q3065.09 491.725 3067.96 491.725 Q3075.69 491.725 3079.51 495.735 Q3083.33 499.746 3083.33 507.894 Z" fill="#000000" fill-rule="evenodd" fill-opacity="1" /><path clip-path="url(#clip5600)" d="M 0 0 M3112.93 497.995 L3112.93 478.707 L3118.79 478.707 L3118.79 528.232 L3112.93 528.232 L3112.93 522.885 Q3111.08 526.068 3108.25 527.627 Q3105.45 529.155 3101.5 529.155 Q3095.04 529.155 3090.97 523.999 Q3086.93 518.843 3086.93 510.44 Q3086.93 502.037 3090.97 496.881 Q3095.04 491.725 3101.5 491.725 Q3105.45 491.725 3108.25 493.284 Q3111.08 494.812 3112.93 497.995 M3092.97 510.44 Q3092.97 516.901 3095.61 520.593 Q3098.29 524.254 3102.93 524.254 Q3107.58 524.254 3110.26 520.593 Q3112.93 516.901 3112.93 510.44 Q3112.93 503.979 3110.26 500.319 Q3107.58 496.626 3102.93 496.626 Q3098.29 496.626 3095.61 500.319 Q3092.97 503.979 3092.97 510.44 Z" fill="#000000" fill-rule="evenodd" fill-opacity="1" /><path clip-path="url(#clip5600)" d="M 0 0 M3164.14 486.314 L3147.91 511.681 L3164.14 511.681 L3164.14 486.314 M3162.45 480.712 L3170.54 480.712 L3170.54 511.681 L3177.32 511.681 L3177.32 517.028 L3170.54 517.028 L3170.54 528.232 L3164.14 528.232 L3164.14 517.028 L3142.69 517.028 L3142.69 510.822 L3162.45 480.712 Z" fill="#000000" fill-rule="evenodd" fill-opacity="1" /><polyline clip-path="url(#clip5600)" style="stroke:#ac8d18; stroke-width:16; stroke-opacity:1; fill:none" points="
  2745.92,564.952 2937.92,564.952 
  "/>
<path clip-path="url(#clip5600)" d="M 0 0 M2969.92 541.192 L2976.35 541.192 L2976.35 583.301 L2999.49 583.301 L2999.49 588.712 L2969.92 588.712 L2969.92 541.192 Z" fill="#000000" fill-rule="evenodd" fill-opacity="1" /><path clip-path="url(#clip5600)" d="M 0 0 M3018.3 557.17 Q3013.59 557.17 3010.85 560.862 Q3008.12 564.522 3008.12 570.92 Q3008.12 577.318 3010.82 581.01 Q3013.56 584.67 3018.3 584.67 Q3022.98 584.67 3025.72 580.978 Q3028.46 577.286 3028.46 570.92 Q3028.46 564.586 3025.72 560.894 Q3022.98 557.17 3018.3 557.17 M3018.3 552.205 Q3025.94 552.205 3030.3 557.17 Q3034.66 562.135 3034.66 570.92 Q3034.66 579.673 3030.3 584.67 Q3025.94 589.635 3018.3 589.635 Q3010.63 589.635 3006.27 584.67 Q3001.94 579.673 3001.94 570.92 Q3001.94 562.135 3006.27 557.17 Q3010.63 552.205 3018.3 552.205 Z" fill="#000000" fill-rule="evenodd" fill-opacity="1" /><path clip-path="url(#clip5600)" d="M 0 0 M3057.01 570.793 Q3049.91 570.793 3047.17 572.416 Q3044.43 574.039 3044.43 577.954 Q3044.43 581.073 3046.47 582.919 Q3048.54 584.734 3052.07 584.734 Q3056.94 584.734 3059.87 581.296 Q3062.83 577.827 3062.83 572.098 L3062.83 570.793 L3057.01 570.793 M3068.69 568.374 L3068.69 588.712 L3062.83 588.712 L3062.83 583.301 Q3060.83 586.548 3057.83 588.107 Q3054.84 589.635 3050.51 589.635 Q3045.04 589.635 3041.79 586.58 Q3038.58 583.492 3038.58 578.336 Q3038.58 572.32 3042.59 569.265 Q3046.63 566.209 3054.62 566.209 L3062.83 566.209 L3062.83 565.636 Q3062.83 561.594 3060.16 559.398 Q3057.52 557.17 3052.71 557.17 Q3049.65 557.17 3046.76 557.902 Q3043.86 558.634 3041.19 560.098 L3041.19 554.687 Q3044.4 553.446 3047.43 552.841 Q3050.45 552.205 3053.31 552.205 Q3061.05 552.205 3064.87 556.215 Q3068.69 560.226 3068.69 568.374 Z" fill="#000000" fill-rule="evenodd" fill-opacity="1" /><path clip-path="url(#clip5600)" d="M 0 0 M3098.29 558.475 L3098.29 539.187 L3104.14 539.187 L3104.14 588.712 L3098.29 588.712 L3098.29 583.365 Q3096.44 586.548 3093.61 588.107 Q3090.81 589.635 3086.86 589.635 Q3080.4 589.635 3076.33 584.479 Q3072.28 579.323 3072.28 570.92 Q3072.28 562.517 3076.33 557.361 Q3080.4 552.205 3086.86 552.205 Q3090.81 552.205 3093.61 553.764 Q3096.44 555.292 3098.29 558.475 M3078.33 570.92 Q3078.33 577.381 3080.97 581.073 Q3083.65 584.734 3088.29 584.734 Q3092.94 584.734 3095.61 581.073 Q3098.29 577.381 3098.29 570.92 Q3098.29 564.459 3095.61 560.799 Q3092.94 557.106 3088.29 557.106 Q3083.65 557.106 3080.97 560.799 Q3078.33 564.459 3078.33 570.92 Z" fill="#000000" fill-rule="evenodd" fill-opacity="1" /></svg>
