<?xml version="1.0" encoding="utf-8"?>
<svg xmlns="http://www.w3.org/2000/svg" xmlns:xlink="http://www.w3.org/1999/xlink" width="800" height="600" viewBox="0 0 3200 2400">
<defs>
  <clipPath id="clip5300">
    <rect x="0" y="0" width="3200" height="2400"/>
  </clipPath>
</defs>
<path clip-path="url(#clip5300)" d="
M0 2400 L3200 2400 L3200 0 L0 0  Z
  " fill="#ffffff" fill-rule="evenodd" fill-opacity="1"/>
<defs>
  <clipPath id="clip5301">
    <rect x="640" y="0" width="2241" height="2241"/>
  </clipPath>
</defs>
<path clip-path="url(#clip5300)" d="
M204.177 2204.92 L2617.92 2204.92 L2617.92 131.032 L204.177 131.032  Z
  " fill="#ffffff" fill-rule="evenodd" fill-opacity="1"/>
<defs>
  <clipPath id="clip5302">
    <rect x="204" y="131" width="2415" height="2075"/>
  </clipPath>
</defs>
<polyline clip-path="url(#clip5302)" style="stroke:#000000; stroke-width:2; stroke-opacity:0.1; fill:none" points="
  272.49,2204.92 272.49,131.032 
  "/>
<polyline clip-path="url(#clip5302)" style="stroke:#000000; stroke-width:2; stroke-opacity:0.1; fill:none" points="
  727.914,2204.92 727.914,131.032 
  "/>
<polyline clip-path="url(#clip5302)" style="stroke:#000000; stroke-width:2; stroke-opacity:0.1; fill:none" points="
  1183.34,2204.92 1183.34,131.032 
  "/>
<polyline clip-path="url(#clip5302)" style="stroke:#000000; stroke-width:2; stroke-opacity:0.1; fill:none" points="
  1638.76,2204.92 1638.76,131.032 
  "/>
<polyline clip-path="url(#clip5302)" style="stroke:#000000; stroke-width:2; stroke-opacity:0.1; fill:none" points="
  2094.19,2204.92 2094.19,131.032 
  "/>
<polyline clip-path="url(#clip5302)" style="stroke:#000000; stroke-width:2; stroke-opacity:0.1; fill:none" points="
  2549.61,2204.92 2549.61,131.032 
  "/>
<polyline clip-path="url(#clip5302)" style="stroke:#000000; stroke-width:2; stroke-opacity:0.1; fill:none" points="
  204.177,2116.17 2617.92,2116.17 
  "/>
<polyline clip-path="url(#clip5302)" style="stroke:#000000; stroke-width:2; stroke-opacity:0.1; fill:none" points="
  204.177,1733 2617.92,1733 
  "/>
<polyline clip-path="url(#clip5302)" style="stroke:#000000; stroke-width:2; stroke-opacity:0.1; fill:none" points="
  204.177,1349.84 2617.92,1349.84 
  "/>
<polyline clip-path="url(#clip5302)" style="stroke:#000000; stroke-width:2; stroke-opacity:0.1; fill:none" points="
  204.177,966.677 2617.92,966.677 
  "/>
<polyline clip-path="url(#clip5302)" style="stroke:#000000; stroke-width:2; stroke-opacity:0.1; fill:none" points="
  204.177,583.513 2617.92,583.513 
  "/>
<polyline clip-path="url(#clip5302)" style="stroke:#000000; stroke-width:2; stroke-opacity:0.1; fill:none" points="
  204.177,200.35 2617.92,200.35 
  "/>
<polyline clip-path="url(#clip5300)" style="stroke:#000000; stroke-width:4; stroke-opacity:1; fill:none" points="
  204.177,2204.92 2617.92,2204.92 
  "/>
<polyline clip-path="url(#clip5300)" style="stroke:#000000; stroke-width:4; stroke-opacity:1; fill:none" points="
  204.177,2204.92 204.177,131.032 
  "/>
<polyline clip-path="url(#clip5300)" style="stroke:#000000; stroke-width:4; stroke-opacity:1; fill:none" points="
  272.49,2204.92 272.49,2180.03 
  "/>
<polyline clip-path="url(#clip5300)" style="stroke:#000000; stroke-width:4; stroke-opacity:1; fill:none" points="
  727.914,2204.92 727.914,2180.03 
  "/>
<polyline clip-path="url(#clip5300)" style="stroke:#000000; stroke-width:4; stroke-opacity:1; fill:none" points="
  1183.34,2204.92 1183.34,2180.03 
  "/>
<polyline clip-path="url(#clip5300)" style="stroke:#000000; stroke-width:4; stroke-opacity:1; fill:none" points="
  1638.76,2204.92 1638.76,2180.03 
  "/>
<polyline clip-path="url(#clip5300)" style="stroke:#000000; stroke-width:4; stroke-opacity:1; fill:none" points="
  2094.19,2204.92 2094.19,2180.03 
  "/>
<polyline clip-path="url(#clip5300)" style="stroke:#000000; stroke-width:4; stroke-opacity:1; fill:none" points="
  2549.61,2204.92 2549.61,2180.03 
  "/>
<polyline clip-path="url(#clip5300)" style="stroke:#000000; stroke-width:4; stroke-opacity:1; fill:none" points="
  204.177,2116.17 233.142,2116.17 
  "/>
<polyline clip-path="url(#clip5300)" style="stroke:#000000; stroke-width:4; stroke-opacity:1; fill:none" points="
  204.177,1733 233.142,1733 
  "/>
<polyline clip-path="url(#clip5300)" style="stroke:#000000; stroke-width:4; stroke-opacity:1; fill:none" points="
  204.177,1349.84 233.142,1349.84 
  "/>
<polyline clip-path="url(#clip5300)" style="stroke:#000000; stroke-width:4; stroke-opacity:1; fill:none" points="
  204.177,966.677 233.142,966.677 
  "/>
<polyline clip-path="url(#clip5300)" style="stroke:#000000; stroke-width:4; stroke-opacity:1; fill:none" points="
  204.177,583.513 233.142,583.513 
  "/>
<polyline clip-path="url(#clip5300)" style="stroke:#000000; stroke-width:4; stroke-opacity:1; fill:none" points="
  204.177,200.35 233.142,200.35 
  "/>
<path clip-path="url(#clip5300)" d="M 0 0 M272.49 2230.91 Q268.879 2230.91 267.051 2234.48 Q265.245 2238.02 265.245 2245.15 Q265.245 2252.25 267.051 2255.82 Q268.879 2259.36 272.49 2259.36 Q276.125 2259.36 277.93 2255.82 Q279.759 2252.25 279.759 2245.15 Q279.759 2238.02 277.93 2234.48 Q276.125 2230.91 272.49 2230.91 M272.49 2227.21 Q278.301 2227.21 281.356 2231.81 Q284.435 2236.4 284.435 2245.15 Q284.435 2253.87 281.356 2258.48 Q278.301 2263.06 272.49 2263.06 Q266.68 2263.06 263.602 2258.48 Q260.546 2253.87 260.546 2245.15 Q260.546 2236.4 263.602 2231.81 Q266.68 2227.21 272.49 2227.21 Z" fill="#000000" fill-rule="evenodd" fill-opacity="1" /><path clip-path="url(#clip5300)" d="M 0 0 M718.296 2258.46 L725.935 2258.46 L725.935 2232.09 L717.625 2233.76 L717.625 2229.5 L725.889 2227.83 L730.565 2227.83 L730.565 2258.46 L738.204 2258.46 L738.204 2262.39 L718.296 2262.39 L718.296 2258.46 Z" fill="#000000" fill-rule="evenodd" fill-opacity="1" /><path clip-path="url(#clip5300)" d="M 0 0 M1177.99 2258.46 L1194.31 2258.46 L1194.31 2262.39 L1172.37 2262.39 L1172.37 2258.46 Q1175.03 2255.7 1179.61 2251.07 Q1184.22 2246.42 1185.4 2245.08 Q1187.64 2242.55 1188.52 2240.82 Q1189.43 2239.06 1189.43 2237.37 Q1189.43 2234.61 1187.48 2232.88 Q1185.56 2231.14 1182.46 2231.14 Q1180.26 2231.14 1177.81 2231.91 Q1175.38 2232.67 1172.6 2234.22 L1172.6 2229.5 Q1175.42 2228.36 1177.88 2227.79 Q1180.33 2227.21 1182.37 2227.21 Q1187.74 2227.21 1190.93 2229.89 Q1194.13 2232.58 1194.13 2237.07 Q1194.13 2239.2 1193.31 2241.12 Q1192.53 2243.02 1190.42 2245.61 Q1189.84 2246.28 1186.74 2249.5 Q1183.64 2252.69 1177.99 2258.46 Z" fill="#000000" fill-rule="evenodd" fill-opacity="1" /><path clip-path="url(#clip5300)" d="M 0 0 M1643.01 2243.76 Q1646.37 2244.48 1648.24 2246.74 Q1650.14 2249.01 1650.14 2252.35 Q1650.14 2257.46 1646.62 2260.26 Q1643.1 2263.06 1636.62 2263.06 Q1634.44 2263.06 1632.13 2262.62 Q1629.84 2262.21 1627.38 2261.35 L1627.38 2256.84 Q1629.33 2257.97 1631.64 2258.55 Q1633.96 2259.13 1636.48 2259.13 Q1640.88 2259.13 1643.17 2257.39 Q1645.49 2255.66 1645.49 2252.35 Q1645.49 2249.29 1643.33 2247.58 Q1641.2 2245.84 1637.38 2245.84 L1633.36 2245.84 L1633.36 2242 L1637.57 2242 Q1641.02 2242 1642.85 2240.63 Q1644.68 2239.24 1644.68 2236.65 Q1644.68 2233.99 1642.78 2232.58 Q1640.9 2231.14 1637.38 2231.14 Q1635.46 2231.14 1633.26 2231.56 Q1631.07 2231.98 1628.43 2232.85 L1628.43 2228.69 Q1631.09 2227.95 1633.4 2227.58 Q1635.74 2227.21 1637.8 2227.21 Q1643.13 2227.21 1646.23 2229.64 Q1649.33 2232.04 1649.33 2236.17 Q1649.33 2239.04 1647.69 2241.03 Q1646.04 2242.99 1643.01 2243.76 Z" fill="#000000" fill-rule="evenodd" fill-opacity="1" /><path clip-path="url(#clip5300)" d="M 0 0 M2097.2 2231.91 L2085.39 2250.35 L2097.2 2250.35 L2097.2 2231.91 M2095.97 2227.83 L2101.85 2227.83 L2101.85 2250.35 L2106.78 2250.35 L2106.78 2254.24 L2101.85 2254.24 L2101.85 2262.39 L2097.2 2262.39 L2097.2 2254.24 L2081.59 2254.24 L2081.59 2249.73 L2095.97 2227.83 Z" fill="#000000" fill-rule="evenodd" fill-opacity="1" /><path clip-path="url(#clip5300)" d="M 0 0 M2539.89 2227.83 L2558.24 2227.83 L2558.24 2231.77 L2544.17 2231.77 L2544.17 2240.24 Q2545.19 2239.89 2546.21 2239.73 Q2547.23 2239.54 2548.24 2239.54 Q2554.03 2239.54 2557.41 2242.72 Q2560.79 2245.89 2560.79 2251.3 Q2560.79 2256.88 2557.32 2259.98 Q2553.85 2263.06 2547.53 2263.06 Q2545.35 2263.06 2543.08 2262.69 Q2540.84 2262.32 2538.43 2261.58 L2538.43 2256.88 Q2540.51 2258.02 2542.73 2258.57 Q2544.96 2259.13 2547.43 2259.13 Q2551.44 2259.13 2553.78 2257.02 Q2556.11 2254.92 2556.11 2251.3 Q2556.11 2247.69 2553.78 2245.59 Q2551.44 2243.48 2547.43 2243.48 Q2545.56 2243.48 2543.68 2243.9 Q2541.83 2244.31 2539.89 2245.19 L2539.89 2227.83 Z" fill="#000000" fill-rule="evenodd" fill-opacity="1" /><path clip-path="url(#clip5300)" d="M 0 0 M133.682 2118.56 L146.158 2118.56 L146.158 2122.36 L133.682 2122.36 L133.682 2118.56 Z" fill="#000000" fill-rule="evenodd" fill-opacity="1" /><path clip-path="url(#clip5300)" d="M 0 0 M151.274 2098.89 L169.631 2098.89 L169.631 2102.82 L155.557 2102.82 L155.557 2111.29 Q156.575 2110.95 157.594 2110.78 Q158.612 2110.6 159.631 2110.6 Q165.418 2110.6 168.797 2113.77 Q172.177 2116.94 172.177 2122.36 Q172.177 2127.94 168.705 2131.04 Q165.232 2134.12 158.913 2134.12 Q156.737 2134.12 154.469 2133.75 Q152.223 2133.38 149.816 2132.64 L149.816 2127.94 Q151.899 2129.07 154.121 2129.63 Q156.344 2130.18 158.82 2130.18 Q162.825 2130.18 165.163 2128.08 Q167.501 2125.97 167.501 2122.36 Q167.501 2118.75 165.163 2116.64 Q162.825 2114.53 158.82 2114.53 Q156.945 2114.53 155.07 2114.95 Q153.219 2115.37 151.274 2116.25 L151.274 2098.89 Z" fill="#000000" fill-rule="evenodd" fill-opacity="1" /><path clip-path="url(#clip5300)" d="M 0 0 M132.2 1735.4 L144.677 1735.4 L144.677 1739.2 L132.2 1739.2 L132.2 1735.4 Z" fill="#000000" fill-rule="evenodd" fill-opacity="1" /><path clip-path="url(#clip5300)" d="M 0 0 M162.594 1719.8 L150.788 1738.25 L162.594 1738.25 L162.594 1719.8 M161.367 1715.72 L167.246 1715.72 L167.246 1738.25 L172.177 1738.25 L172.177 1742.14 L167.246 1742.14 L167.246 1750.28 L162.594 1750.28 L162.594 1742.14 L146.992 1742.14 L146.992 1737.62 L161.367 1715.72 Z" fill="#000000" fill-rule="evenodd" fill-opacity="1" /><path clip-path="url(#clip5300)" d="M 0 0 M133.334 1352.24 L145.811 1352.24 L145.811 1356.03 L133.334 1356.03 L133.334 1352.24 Z" fill="#000000" fill-rule="evenodd" fill-opacity="1" /><path clip-path="url(#clip5300)" d="M 0 0 M165.047 1348.49 Q168.404 1349.2 170.279 1351.47 Q172.177 1353.74 172.177 1357.07 Q172.177 1362.19 168.658 1364.99 Q165.14 1367.79 158.658 1367.79 Q156.482 1367.79 154.168 1367.35 Q151.876 1366.93 149.422 1366.08 L149.422 1361.56 Q151.367 1362.7 153.682 1363.28 Q155.996 1363.86 158.519 1363.86 Q162.918 1363.86 165.209 1362.12 Q167.524 1360.38 167.524 1357.07 Q167.524 1354.02 165.371 1352.31 Q163.242 1350.57 159.422 1350.57 L155.394 1350.57 L155.394 1346.73 L159.607 1346.73 Q163.056 1346.73 164.885 1345.36 Q166.714 1343.97 166.714 1341.38 Q166.714 1338.72 164.816 1337.31 Q162.941 1335.87 159.422 1335.87 Q157.501 1335.87 155.302 1336.29 Q153.103 1336.7 150.464 1337.58 L150.464 1333.42 Q153.126 1332.68 155.441 1332.31 Q157.779 1331.94 159.839 1331.94 Q165.163 1331.94 168.265 1334.37 Q171.367 1336.77 171.367 1340.89 Q171.367 1343.76 169.723 1345.75 Q168.08 1347.72 165.047 1348.49 Z" fill="#000000" fill-rule="evenodd" fill-opacity="1" /><path clip-path="url(#clip5300)" d="M 0 0 M134.283 969.073 L146.76 969.073 L146.76 972.869 L134.283 972.869 L134.283 969.073 Z" fill="#000000" fill-rule="evenodd" fill-opacity="1" /><path clip-path="url(#clip5300)" d="M 0 0 M155.857 980.022 L172.177 980.022 L172.177 983.957 L150.232 983.957 L150.232 980.022 Q152.894 977.267 157.478 972.637 Q162.084 967.985 163.265 966.642 Q165.51 964.119 166.39 962.383 Q167.293 960.624 167.293 958.934 Q167.293 956.179 165.348 954.443 Q163.427 952.707 160.325 952.707 Q158.126 952.707 155.672 953.471 Q153.242 954.235 150.464 955.786 L150.464 951.063 Q153.288 949.929 155.742 949.35 Q158.195 948.772 160.232 948.772 Q165.603 948.772 168.797 951.457 Q171.992 954.142 171.992 958.633 Q171.992 960.762 171.181 962.684 Q170.394 964.582 168.288 967.174 Q167.709 967.846 164.607 971.063 Q161.506 974.258 155.857 980.022 Z" fill="#000000" fill-rule="evenodd" fill-opacity="1" /><path clip-path="url(#clip5300)" d="M 0 0 M133.913 585.909 L146.39 585.909 L146.39 589.706 L133.913 589.706 L133.913 585.909 Z" fill="#000000" fill-rule="evenodd" fill-opacity="1" /><path clip-path="url(#clip5300)" d="M 0 0 M152.269 596.858 L159.908 596.858 L159.908 570.493 L151.598 572.159 L151.598 567.9 L159.862 566.233 L164.538 566.233 L164.538 596.858 L172.177 596.858 L172.177 600.793 L152.269 600.793 L152.269 596.858 Z" fill="#000000" fill-rule="evenodd" fill-opacity="1" /><path clip-path="url(#clip5300)" d="M 0 0 M160.232 186.149 Q156.621 186.149 154.793 189.714 Q152.987 193.255 152.987 200.385 Q152.987 207.491 154.793 211.056 Q156.621 214.598 160.232 214.598 Q163.867 214.598 165.672 211.056 Q167.501 207.491 167.501 200.385 Q167.501 193.255 165.672 189.714 Q163.867 186.149 160.232 186.149 M160.232 182.445 Q166.043 182.445 169.098 187.052 Q172.177 191.635 172.177 200.385 Q172.177 209.112 169.098 213.718 Q166.043 218.301 160.232 218.301 Q154.422 218.301 151.344 213.718 Q148.288 209.112 148.288 200.385 Q148.288 191.635 151.344 187.052 Q154.422 182.445 160.232 182.445 Z" fill="#000000" fill-rule="evenodd" fill-opacity="1" /><path clip-path="url(#clip5300)" d="M 0 0 M481.773 12.096 L489.955 12.096 L489.955 36.8875 L519.689 36.8875 L519.689 12.096 L527.872 12.096 L527.872 72.576 L519.689 72.576 L519.689 43.7741 L489.955 43.7741 L489.955 72.576 L481.773 72.576 L481.773 12.096 Z" fill="#000000" fill-rule="evenodd" fill-opacity="1" /><path clip-path="url(#clip5300)" d="M 0 0 M553.271 32.4315 Q547.276 32.4315 543.792 37.1306 Q540.308 41.7891 540.308 49.9314 Q540.308 58.0738 543.751 62.7728 Q547.235 67.4314 553.271 67.4314 Q559.226 67.4314 562.71 62.7323 Q566.194 58.0333 566.194 49.9314 Q566.194 41.8701 562.71 37.1711 Q559.226 32.4315 553.271 32.4315 M553.271 26.1121 Q562.993 26.1121 568.543 32.4315 Q574.093 38.7509 574.093 49.9314 Q574.093 61.0714 568.543 67.4314 Q562.993 73.7508 553.271 73.7508 Q543.508 73.7508 537.959 67.4314 Q532.449 61.0714 532.449 49.9314 Q532.449 38.7509 537.959 32.4315 Q543.508 26.1121 553.271 26.1121 Z" fill="#000000" fill-rule="evenodd" fill-opacity="1" /><path clip-path="url(#clip5300)" d="M 0 0 M576.564 27.2059 L584.463 27.2059 L598.641 65.2844 L612.819 27.2059 L620.719 27.2059 L603.705 72.576 L593.578 72.576 L576.564 27.2059 Z" fill="#000000" fill-rule="evenodd" fill-opacity="1" /><path clip-path="url(#clip5300)" d="M 0 0 M667.345 48.0275 L667.345 51.6733 L633.074 51.6733 Q633.56 59.3701 637.692 63.421 Q641.864 67.4314 649.278 67.4314 Q653.572 67.4314 657.582 66.3781 Q661.633 65.3249 665.603 63.2184 L665.603 70.267 Q661.592 71.9684 657.379 72.8596 Q653.166 73.7508 648.832 73.7508 Q637.976 73.7508 631.616 67.4314 Q625.296 61.1119 625.296 50.3365 Q625.296 39.1965 631.292 32.6746 Q637.327 26.1121 647.536 26.1121 Q656.691 26.1121 661.997 32.0264 Q667.345 37.9003 667.345 48.0275 M659.891 45.84 Q659.81 39.7232 656.448 36.0774 Q653.126 32.4315 647.617 32.4315 Q641.378 32.4315 637.611 35.9558 Q633.884 39.4801 633.317 45.8805 L659.891 45.84 Z" fill="#000000" fill-rule="evenodd" fill-opacity="1" /><path clip-path="url(#clip5300)" d="M 0 0 M701.453 34.1734 Q700.197 33.4443 698.699 33.1202 Q697.24 32.7556 695.458 32.7556 Q689.138 32.7556 685.736 36.8875 Q682.373 40.9789 682.373 48.6757 L682.373 72.576 L674.879 72.576 L674.879 27.2059 L682.373 27.2059 L682.373 34.2544 Q684.723 30.1225 688.49 28.1376 Q692.258 26.1121 697.645 26.1121 Q698.415 26.1121 699.347 26.2337 Q700.278 26.3147 701.413 26.5172 L701.453 34.1734 Z" fill="#000000" fill-rule="evenodd" fill-opacity="1" /><path clip-path="url(#clip5300)" d="M 0 0 M709.271 27.2059 L716.725 27.2059 L716.725 72.576 L709.271 72.576 L709.271 27.2059 M709.271 9.54393 L716.725 9.54393 L716.725 18.9825 L709.271 18.9825 L709.271 9.54393 Z" fill="#000000" fill-rule="evenodd" fill-opacity="1" /><path clip-path="url(#clip5300)" d="M 0 0 M762.257 45.1919 L762.257 72.576 L754.804 72.576 L754.804 45.4349 Q754.804 38.994 752.292 35.7938 Q749.78 32.5936 744.757 32.5936 Q738.722 32.5936 735.238 36.4419 Q731.754 40.2903 731.754 46.9338 L731.754 72.576 L724.26 72.576 L724.26 27.2059 L731.754 27.2059 L731.754 34.2544 Q734.428 30.163 738.033 28.1376 Q741.679 26.1121 746.418 26.1121 Q754.236 26.1121 758.247 30.9732 Q762.257 35.7938 762.257 45.1919 Z" fill="#000000" fill-rule="evenodd" fill-opacity="1" /><path clip-path="url(#clip5300)" d="M 0 0 M799.931 49.3643 Q799.931 41.2625 796.568 36.8065 Q793.247 32.3505 787.211 32.3505 Q781.215 32.3505 777.853 36.8065 Q774.532 41.2625 774.532 49.3643 Q774.532 57.4256 777.853 61.8816 Q781.215 66.3376 787.211 66.3376 Q793.247 66.3376 796.568 61.8816 Q799.931 57.4256 799.931 49.3643 M807.384 66.9452 Q807.384 78.5308 802.24 84.1616 Q797.095 89.8329 786.482 89.8329 Q782.552 89.8329 779.069 89.2252 Q775.585 88.6581 772.304 87.4428 L772.304 80.1917 Q775.585 81.9741 778.785 82.8248 Q781.985 83.6755 785.307 83.6755 Q792.639 83.6755 796.285 79.8271 Q799.931 76.0193 799.931 68.282 L799.931 64.5957 Q797.622 68.6061 794.016 70.5911 Q790.411 72.576 785.388 72.576 Q777.043 72.576 771.939 66.2161 Q766.835 59.8562 766.835 49.3643 Q766.835 38.832 771.939 32.472 Q777.043 26.1121 785.388 26.1121 Q790.411 26.1121 794.016 28.0971 Q797.622 30.082 799.931 34.0924 L799.931 27.2059 L807.384 27.2059 L807.384 66.9452 Z" fill="#000000" fill-rule="evenodd" fill-opacity="1" /><path clip-path="url(#clip5300)" d="M 0 0 M837.24 27.2059 L844.693 27.2059 L854.01 62.6108 L863.287 27.2059 L872.077 27.2059 L881.394 62.6108 L890.671 27.2059 L898.125 27.2059 L886.255 72.576 L877.465 72.576 L867.702 35.3887 L857.899 72.576 L849.109 72.576 L837.24 27.2059 Z" fill="#000000" fill-rule="evenodd" fill-opacity="1" /><path clip-path="url(#clip5300)" d="M 0 0 M905.943 27.2059 L913.397 27.2059 L913.397 72.576 L905.943 72.576 L905.943 27.2059 M905.943 9.54393 L913.397 9.54393 L913.397 18.9825 L905.943 18.9825 L905.943 9.54393 Z" fill="#000000" fill-rule="evenodd" fill-opacity="1" /><path clip-path="url(#clip5300)" d="M 0 0 M928.587 14.324 L928.587 27.2059 L943.94 27.2059 L943.94 32.9987 L928.587 32.9987 L928.587 57.6282 Q928.587 63.1779 930.086 64.7578 Q931.626 66.3376 936.284 66.3376 L943.94 66.3376 L943.94 72.576 L936.284 72.576 Q927.656 72.576 924.374 69.3758 Q921.093 66.1351 921.093 57.6282 L921.093 32.9987 L915.625 32.9987 L915.625 27.2059 L921.093 27.2059 L921.093 14.324 L928.587 14.324 Z" fill="#000000" fill-rule="evenodd" fill-opacity="1" /><path clip-path="url(#clip5300)" d="M 0 0 M989.472 45.1919 L989.472 72.576 L982.019 72.576 L982.019 45.4349 Q982.019 38.994 979.507 35.7938 Q976.996 32.5936 971.973 32.5936 Q965.937 32.5936 962.453 36.4419 Q958.969 40.2903 958.969 46.9338 L958.969 72.576 L951.475 72.576 L951.475 9.54393 L958.969 9.54393 L958.969 34.2544 Q961.643 30.163 965.248 28.1376 Q968.894 26.1121 973.633 26.1121 Q981.452 26.1121 985.462 30.9732 Q989.472 35.7938 989.472 45.1919 Z" fill="#000000" fill-rule="evenodd" fill-opacity="1" /><path clip-path="url(#clip5300)" d="M 0 0 M1047.2 19.2256 L1026.54 51.5113 L1047.2 51.5113 L1047.2 19.2256 M1045.05 12.096 L1055.34 12.096 L1055.34 51.5113 L1063.97 51.5113 L1063.97 58.3168 L1055.34 58.3168 L1055.34 72.576 L1047.2 72.576 L1047.2 58.3168 L1019.89 58.3168 L1019.89 50.4176 L1045.05 12.096 Z" fill="#000000" fill-rule="evenodd" fill-opacity="1" /><path clip-path="url(#clip5300)" d="M 0 0 M1123.03 17.6457 Q1114.12 17.6457 1108.85 24.2892 Q1103.63 30.9327 1103.63 42.3968 Q1103.63 53.8203 1108.85 60.4638 Q1114.12 67.1073 1123.03 67.1073 Q1131.94 67.1073 1137.13 60.4638 Q1142.35 53.8203 1142.35 42.3968 Q1142.35 30.9327 1137.13 24.2892 Q1131.94 17.6457 1123.03 17.6457 M1134.49 71.4823 L1145.27 83.2704 L1135.39 83.2704 L1126.43 73.5887 Q1125.1 73.6697 1124.37 73.7103 Q1123.68 73.7508 1123.03 73.7508 Q1110.27 73.7508 1102.61 65.2439 Q1095 56.6965 1095 42.3968 Q1095 28.0566 1102.61 19.5497 Q1110.27 11.0023 1123.03 11.0023 Q1135.75 11.0023 1143.37 19.5497 Q1150.98 28.0566 1150.98 42.3968 Q1150.98 52.9291 1146.73 60.4233 Q1142.52 67.9175 1134.49 71.4823 Z" fill="#000000" fill-rule="evenodd" fill-opacity="1" /><path clip-path="url(#clip5300)" d="M 0 0 M1158.03 54.671 L1158.03 27.2059 L1165.48 27.2059 L1165.48 54.3874 Q1165.48 60.8284 1168 64.0691 Q1170.51 67.2693 1175.53 67.2693 Q1181.57 67.2693 1185.05 63.421 Q1188.57 59.5726 1188.57 52.9291 L1188.57 27.2059 L1196.03 27.2059 L1196.03 72.576 L1188.57 72.576 L1188.57 65.6084 Q1185.86 69.7404 1182.26 71.7658 Q1178.69 73.7508 1173.95 73.7508 Q1166.13 73.7508 1162.08 68.8897 Q1158.03 64.0286 1158.03 54.671 M1176.79 26.1121 L1176.79 26.1121 Z" fill="#000000" fill-rule="evenodd" fill-opacity="1" /><path clip-path="url(#clip5300)" d="M 0 0 M1224.47 49.7694 Q1215.43 49.7694 1211.95 51.8354 Q1208.46 53.9013 1208.46 58.8839 Q1208.46 62.8538 1211.06 65.2034 Q1213.69 67.5124 1218.19 67.5124 Q1224.38 67.5124 1228.11 63.1374 Q1231.88 58.7219 1231.88 51.4303 L1231.88 49.7694 L1224.47 49.7694 M1239.33 46.6907 L1239.33 72.576 L1231.88 72.576 L1231.88 65.6895 Q1229.33 69.8214 1225.52 71.8063 Q1221.71 73.7508 1216.2 73.7508 Q1209.23 73.7508 1205.1 69.8619 Q1201.01 65.9325 1201.01 59.3701 Q1201.01 51.7138 1206.11 47.825 Q1211.26 43.9361 1221.43 43.9361 L1231.88 43.9361 L1231.88 43.2069 Q1231.88 38.0623 1228.48 35.2672 Q1225.11 32.4315 1219 32.4315 Q1215.11 32.4315 1211.42 33.3632 Q1207.74 34.295 1204.33 36.1584 L1204.33 29.2718 Q1208.42 27.692 1212.27 26.9223 Q1216.12 26.1121 1219.77 26.1121 Q1229.61 26.1121 1234.47 31.2163 Q1239.33 36.3204 1239.33 46.6907 Z" fill="#000000" fill-rule="evenodd" fill-opacity="1" /><path clip-path="url(#clip5300)" d="M 0 0 M1277.01 34.0924 L1277.01 9.54393 L1284.46 9.54393 L1284.46 72.576 L1277.01 72.576 L1277.01 65.7705 Q1274.66 69.8214 1271.05 71.8063 Q1267.49 73.7508 1262.46 73.7508 Q1254.24 73.7508 1249.05 67.1883 Q1243.91 60.6258 1243.91 49.9314 Q1243.91 39.2371 1249.05 32.6746 Q1254.24 26.1121 1262.46 26.1121 Q1267.49 26.1121 1271.05 28.0971 Q1274.66 30.0415 1277.01 34.0924 M1251.61 49.9314 Q1251.61 58.1548 1254.97 62.8538 Q1258.37 67.5124 1264.29 67.5124 Q1270.2 67.5124 1273.6 62.8538 Q1277.01 58.1548 1277.01 49.9314 Q1277.01 41.7081 1273.6 37.0496 Q1270.2 32.3505 1264.29 32.3505 Q1258.37 32.3505 1254.97 37.0496 Q1251.61 41.7081 1251.61 49.9314 Z" fill="#000000" fill-rule="evenodd" fill-opacity="1" /><path clip-path="url(#clip5300)" d="M 0 0 M1318.57 34.1734 Q1317.31 33.4443 1315.81 33.1202 Q1314.36 32.7556 1312.57 32.7556 Q1306.25 32.7556 1302.85 36.8875 Q1299.49 40.9789 1299.49 48.6757 L1299.49 72.576 L1291.99 72.576 L1291.99 27.2059 L1299.49 27.2059 L1299.49 34.2544 Q1301.84 30.1225 1305.61 28.1376 Q1309.37 26.1121 1314.76 26.1121 Q1315.53 26.1121 1316.46 26.2337 Q1317.39 26.3147 1318.53 26.5172 L1318.57 34.1734 Z" fill="#000000" fill-rule="evenodd" fill-opacity="1" /><path clip-path="url(#clip5300)" d="M 0 0 M1342.14 32.4315 Q1336.15 32.4315 1332.67 37.1306 Q1329.18 41.7891 1329.18 49.9314 Q1329.18 58.0738 1332.62 62.7728 Q1336.11 67.4314 1342.14 67.4314 Q1348.1 67.4314 1351.58 62.7323 Q1355.07 58.0333 1355.07 49.9314 Q1355.07 41.8701 1351.58 37.1711 Q1348.1 32.4315 1342.14 32.4315 M1342.14 26.1121 Q1351.87 26.1121 1357.42 32.4315 Q1362.97 38.7509 1362.97 49.9314 Q1362.97 61.0714 1357.42 67.4314 Q1351.87 73.7508 1342.14 73.7508 Q1332.38 73.7508 1326.83 67.4314 Q1321.32 61.0714 1321.32 49.9314 Q1321.32 38.7509 1326.83 32.4315 Q1332.38 26.1121 1342.14 26.1121 Z" fill="#000000" fill-rule="evenodd" fill-opacity="1" /><path clip-path="url(#clip5300)" d="M 0 0 M1378.16 14.324 L1378.16 27.2059 L1393.51 27.2059 L1393.51 32.9987 L1378.16 32.9987 L1378.16 57.6282 Q1378.16 63.1779 1379.66 64.7578 Q1381.19 66.3376 1385.85 66.3376 L1393.51 66.3376 L1393.51 72.576 L1385.85 72.576 Q1377.23 72.576 1373.94 69.3758 Q1370.66 66.1351 1370.66 57.6282 L1370.66 32.9987 L1365.19 32.9987 L1365.19 27.2059 L1370.66 27.2059 L1370.66 14.324 L1378.16 14.324 Z" fill="#000000" fill-rule="evenodd" fill-opacity="1" /><path clip-path="url(#clip5300)" d="M 0 0 M1418.91 32.4315 Q1412.91 32.4315 1409.43 37.1306 Q1405.95 41.7891 1405.95 49.9314 Q1405.95 58.0738 1409.39 62.7728 Q1412.87 67.4314 1418.91 67.4314 Q1424.86 67.4314 1428.35 62.7323 Q1431.83 58.0333 1431.83 49.9314 Q1431.83 41.8701 1428.35 37.1711 Q1424.86 32.4315 1418.91 32.4315 M1418.91 26.1121 Q1428.63 26.1121 1434.18 32.4315 Q1439.73 38.7509 1439.73 49.9314 Q1439.73 61.0714 1434.18 67.4314 Q1428.63 73.7508 1418.91 73.7508 Q1409.15 73.7508 1403.6 67.4314 Q1398.09 61.0714 1398.09 49.9314 Q1398.09 38.7509 1403.6 32.4315 Q1409.15 26.1121 1418.91 26.1121 Z" fill="#000000" fill-rule="evenodd" fill-opacity="1" /><path clip-path="url(#clip5300)" d="M 0 0 M1473.84 34.1734 Q1472.58 33.4443 1471.08 33.1202 Q1469.63 32.7556 1467.84 32.7556 Q1461.52 32.7556 1458.12 36.8875 Q1454.76 40.9789 1454.76 48.6757 L1454.76 72.576 L1447.27 72.576 L1447.27 27.2059 L1454.76 27.2059 L1454.76 34.2544 Q1457.11 30.1225 1460.88 28.1376 Q1464.64 26.1121 1470.03 26.1121 Q1470.8 26.1121 1471.73 26.2337 Q1472.66 26.3147 1473.8 26.5172 L1473.84 34.1734 Z" fill="#000000" fill-rule="evenodd" fill-opacity="1" /><path clip-path="url(#clip5300)" d="M 0 0 M1510.58 28.5427 L1510.58 35.5912 Q1507.42 33.9709 1504.02 33.1607 Q1500.62 32.3505 1496.97 32.3505 Q1491.42 32.3505 1488.62 34.0519 Q1485.87 35.7533 1485.87 39.156 Q1485.87 41.7486 1487.86 43.2475 Q1489.84 44.7058 1495.84 46.0426 L1498.39 46.6097 Q1506.33 48.3111 1509.65 51.4303 Q1513.01 54.509 1513.01 60.0587 Q1513.01 66.3781 1507.99 70.0644 Q1503.01 73.7508 1494.26 73.7508 Q1490.61 73.7508 1486.64 73.0216 Q1482.71 72.3329 1478.34 70.9151 L1478.34 63.2184 Q1482.47 65.3654 1486.48 66.4591 Q1490.49 67.5124 1494.42 67.5124 Q1499.68 67.5124 1502.52 65.73 Q1505.36 63.9071 1505.36 60.6258 Q1505.36 57.5877 1503.29 55.9673 Q1501.26 54.3469 1494.34 52.8481 L1491.74 52.2405 Q1484.82 50.7821 1481.74 47.7845 Q1478.66 44.7463 1478.66 39.4801 Q1478.66 33.0797 1483.2 29.5959 Q1487.73 26.1121 1496.08 26.1121 Q1500.21 26.1121 1503.86 26.7198 Q1507.5 27.3274 1510.58 28.5427 Z" fill="#000000" fill-rule="evenodd" fill-opacity="1" /><path clip-path="url(#clip5300)" d="M 0 0 M1543.43 46.5287 L1565.27 46.5287 L1565.27 53.1722 L1543.43 53.1722 L1543.43 46.5287 Z" fill="#000000" fill-rule="evenodd" fill-opacity="1" /><path clip-path="url(#clip5300)" d="M 0 0 M1620 20.1573 L1608.9 50.2555 L1631.14 50.2555 L1620 20.1573 M1615.38 12.096 L1624.65 12.096 L1647.7 72.576 L1639.2 72.576 L1633.69 57.061 L1606.43 57.061 L1600.92 72.576 L1592.29 72.576 L1615.38 12.096 Z" fill="#000000" fill-rule="evenodd" fill-opacity="1" /><path clip-path="url(#clip5300)" d="M 0 0 M1685.38 49.3643 Q1685.38 41.2625 1682.02 36.8065 Q1678.69 32.3505 1672.66 32.3505 Q1666.66 32.3505 1663.3 36.8065 Q1659.98 41.2625 1659.98 49.3643 Q1659.98 57.4256 1663.3 61.8816 Q1666.66 66.3376 1672.66 66.3376 Q1678.69 66.3376 1682.02 61.8816 Q1685.38 57.4256 1685.38 49.3643 M1692.83 66.9452 Q1692.83 78.5308 1687.69 84.1616 Q1682.54 89.8329 1671.93 89.8329 Q1668 89.8329 1664.52 89.2252 Q1661.03 88.6581 1657.75 87.4428 L1657.75 80.1917 Q1661.03 81.9741 1664.23 82.8248 Q1667.43 83.6755 1670.75 83.6755 Q1678.09 83.6755 1681.73 79.8271 Q1685.38 76.0193 1685.38 68.282 L1685.38 64.5957 Q1683.07 68.6061 1679.46 70.5911 Q1675.86 72.576 1670.83 72.576 Q1662.49 72.576 1657.39 66.2161 Q1652.28 59.8562 1652.28 49.3643 Q1652.28 38.832 1657.39 32.472 Q1662.49 26.1121 1670.83 26.1121 Q1675.86 26.1121 1679.46 28.0971 Q1683.07 30.082 1685.38 34.0924 L1685.38 27.2059 L1692.83 27.2059 L1692.83 66.9452 Z" fill="#000000" fill-rule="evenodd" fill-opacity="1" /><path clip-path="url(#clip5300)" d="M 0 0 M1739.46 48.0275 L1739.46 51.6733 L1705.19 51.6733 Q1705.67 59.3701 1709.8 63.421 Q1713.98 67.4314 1721.39 67.4314 Q1725.68 67.4314 1729.69 66.3781 Q1733.75 65.3249 1737.72 63.2184 L1737.72 70.267 Q1733.7 71.9684 1729.49 72.8596 Q1725.28 73.7508 1720.94 73.7508 Q1710.09 73.7508 1703.73 67.4314 Q1697.41 61.1119 1697.41 50.3365 Q1697.41 39.1965 1703.4 32.6746 Q1709.44 26.1121 1719.65 26.1121 Q1728.8 26.1121 1734.11 32.0264 Q1739.46 37.9003 1739.46 48.0275 M1732 45.84 Q1731.92 39.7232 1728.56 36.0774 Q1725.24 32.4315 1719.73 32.4315 Q1713.49 32.4315 1709.72 35.9558 Q1706 39.4801 1705.43 45.8805 L1732 45.84 Z" fill="#000000" fill-rule="evenodd" fill-opacity="1" /><path clip-path="url(#clip5300)" d="M 0 0 M1784.99 45.1919 L1784.99 72.576 L1777.54 72.576 L1777.54 45.4349 Q1777.54 38.994 1775.02 35.7938 Q1772.51 32.5936 1767.49 32.5936 Q1761.45 32.5936 1757.97 36.4419 Q1754.49 40.2903 1754.49 46.9338 L1754.49 72.576 L1746.99 72.576 L1746.99 27.2059 L1754.49 27.2059 L1754.49 34.2544 Q1757.16 30.163 1760.76 28.1376 Q1764.41 26.1121 1769.15 26.1121 Q1776.97 26.1121 1780.98 30.9732 Q1784.99 35.7938 1784.99 45.1919 Z" fill="#000000" fill-rule="evenodd" fill-opacity="1" /><path clip-path="url(#clip5300)" d="M 0 0 M1800.18 14.324 L1800.18 27.2059 L1815.53 27.2059 L1815.53 32.9987 L1800.18 32.9987 L1800.18 57.6282 Q1800.18 63.1779 1801.68 64.7578 Q1803.22 66.3376 1807.88 66.3376 L1815.53 66.3376 L1815.53 72.576 L1807.88 72.576 Q1799.25 72.576 1795.97 69.3758 Q1792.69 66.1351 1792.69 57.6282 L1792.69 32.9987 L1787.22 32.9987 L1787.22 27.2059 L1792.69 27.2059 L1792.69 14.324 L1800.18 14.324 Z" fill="#000000" fill-rule="evenodd" fill-opacity="1" /><path clip-path="url(#clip5300)" d="M 0 0 M1886.3 14.0809 L1886.3 22.0612 Q1881.64 19.8332 1877.51 18.7395 Q1873.38 17.6457 1869.53 17.6457 Q1862.85 17.6457 1859.2 20.2383 Q1855.6 22.8309 1855.6 27.611 Q1855.6 31.6214 1857.99 33.6873 Q1860.42 35.7128 1867.14 36.9686 L1872.08 37.9813 Q1881.24 39.7232 1885.57 44.1387 Q1889.95 48.5136 1889.95 55.8863 Q1889.95 64.6767 1884.03 69.2137 Q1878.16 73.7508 1866.78 73.7508 Q1862.48 73.7508 1857.62 72.7785 Q1852.8 71.8063 1847.62 69.9024 L1847.62 61.4765 Q1852.6 64.2716 1857.38 65.6895 Q1862.16 67.1073 1866.78 67.1073 Q1873.78 67.1073 1877.59 64.3527 Q1881.4 61.598 1881.4 56.4939 Q1881.4 52.0379 1878.65 49.5264 Q1875.93 47.0148 1869.69 45.759 L1864.71 44.7868 Q1855.56 42.9639 1851.46 39.075 Q1847.37 35.1862 1847.37 28.2591 Q1847.37 20.2383 1853 15.6203 Q1858.68 11.0023 1868.6 11.0023 Q1872.85 11.0023 1877.27 11.7719 Q1881.68 12.5416 1886.3 14.0809 Z" fill="#000000" fill-rule="evenodd" fill-opacity="1" /><path clip-path="url(#clip5300)" d="M 0 0 M1905.14 14.324 L1905.14 27.2059 L1920.49 27.2059 L1920.49 32.9987 L1905.14 32.9987 L1905.14 57.6282 Q1905.14 63.1779 1906.64 64.7578 Q1908.18 66.3376 1912.84 66.3376 L1920.49 66.3376 L1920.49 72.576 L1912.84 72.576 Q1904.21 72.576 1900.93 69.3758 Q1897.64 66.1351 1897.64 57.6282 L1897.64 32.9987 L1892.18 32.9987 L1892.18 27.2059 L1897.64 27.2059 L1897.64 14.324 L1905.14 14.324 Z" fill="#000000" fill-rule="evenodd" fill-opacity="1" /><path clip-path="url(#clip5300)" d="M 0 0 M1948.93 49.7694 Q1939.9 49.7694 1936.41 51.8354 Q1932.93 53.9013 1932.93 58.8839 Q1932.93 62.8538 1935.52 65.2034 Q1938.15 67.5124 1942.65 67.5124 Q1948.85 67.5124 1952.57 63.1374 Q1956.34 58.7219 1956.34 51.4303 L1956.34 49.7694 L1948.93 49.7694 M1963.8 46.6907 L1963.8 72.576 L1956.34 72.576 L1956.34 65.6895 Q1953.79 69.8214 1949.98 71.8063 Q1946.17 73.7508 1940.67 73.7508 Q1933.7 73.7508 1929.57 69.8619 Q1925.47 65.9325 1925.47 59.3701 Q1925.47 51.7138 1930.58 47.825 Q1935.72 43.9361 1945.89 43.9361 L1956.34 43.9361 L1956.34 43.2069 Q1956.34 38.0623 1952.94 35.2672 Q1949.58 32.4315 1943.46 32.4315 Q1939.57 32.4315 1935.89 33.3632 Q1932.2 34.295 1928.8 36.1584 L1928.8 29.2718 Q1932.89 27.692 1936.74 26.9223 Q1940.58 26.1121 1944.23 26.1121 Q1954.07 26.1121 1958.93 31.2163 Q1963.8 36.3204 1963.8 46.6907 Z" fill="#000000" fill-rule="evenodd" fill-opacity="1" /><path clip-path="url(#clip5300)" d="M 0 0 M1978.99 14.324 L1978.99 27.2059 L1994.34 27.2059 L1994.34 32.9987 L1978.99 32.9987 L1978.99 57.6282 Q1978.99 63.1779 1980.49 64.7578 Q1982.03 66.3376 1986.68 66.3376 L1994.34 66.3376 L1994.34 72.576 L1986.68 72.576 Q1978.06 72.576 1974.77 69.3758 Q1971.49 66.1351 1971.49 57.6282 L1971.49 32.9987 L1966.02 32.9987 L1966.02 27.2059 L1971.49 27.2059 L1971.49 14.324 L1978.99 14.324 Z" fill="#000000" fill-rule="evenodd" fill-opacity="1" /><path clip-path="url(#clip5300)" d="M 0 0 M2040.97 48.0275 L2040.97 51.6733 L2006.7 51.6733 Q2007.18 59.3701 2011.31 63.421 Q2015.49 67.4314 2022.9 67.4314 Q2027.19 67.4314 2031.2 66.3781 Q2035.25 65.3249 2039.22 63.2184 L2039.22 70.267 Q2035.21 71.9684 2031 72.8596 Q2026.79 73.7508 2022.45 73.7508 Q2011.6 73.7508 2005.24 67.4314 Q1998.92 61.1119 1998.92 50.3365 Q1998.92 39.1965 2004.91 32.6746 Q2010.95 26.1121 2021.16 26.1121 Q2030.31 26.1121 2035.62 32.0264 Q2040.97 37.9003 2040.97 48.0275 M2033.51 45.84 Q2033.43 39.7232 2030.07 36.0774 Q2026.75 32.4315 2021.24 32.4315 Q2015 32.4315 2011.23 35.9558 Q2007.51 39.4801 2006.94 45.8805 L2033.51 45.84 Z" fill="#000000" fill-rule="evenodd" fill-opacity="1" /><path clip-path="url(#clip5300)" d="M 0 0 M2072.56 12.096 L2081.35 12.096 L2096.38 34.5785 L2111.49 12.096 L2120.28 12.096 L2100.84 41.141 L2121.58 72.576 L2112.79 72.576 L2095.77 46.8528 L2078.64 72.576 L2069.81 72.576 L2091.4 40.2903 L2072.56 12.096 Z" fill="#000000" fill-rule="evenodd" fill-opacity="1" /><path clip-path="url(#clip5300)" d="M 0 0 M2156.09 12.096 L2194.33 12.096 L2194.33 18.9825 L2164.28 18.9825 L2164.28 36.8875 L2193.08 36.8875 L2193.08 43.7741 L2164.28 43.7741 L2164.28 65.6895 L2195.06 65.6895 L2195.06 72.576 L2156.09 72.576 L2156.09 12.096 Z" fill="#000000" fill-rule="evenodd" fill-opacity="1" /><path clip-path="url(#clip5300)" d="M 0 0 M2229.17 34.1734 Q2227.91 33.4443 2226.42 33.1202 Q2224.96 32.7556 2223.18 32.7556 Q2216.86 32.7556 2213.45 36.8875 Q2210.09 40.9789 2210.09 48.6757 L2210.09 72.576 L2202.6 72.576 L2202.6 27.2059 L2210.09 27.2059 L2210.09 34.2544 Q2212.44 30.1225 2216.21 28.1376 Q2219.98 26.1121 2225.36 26.1121 Q2226.13 26.1121 2227.06 26.2337 Q2228 26.3147 2229.13 26.5172 L2229.17 34.1734 Z" fill="#000000" fill-rule="evenodd" fill-opacity="1" /><path clip-path="url(#clip5300)" d="M 0 0 M2261.82 34.1734 Q2260.57 33.4443 2259.07 33.1202 Q2257.61 32.7556 2255.83 32.7556 Q2249.51 32.7556 2246.1 36.8875 Q2242.74 40.9789 2242.74 48.6757 L2242.74 72.576 L2235.25 72.576 L2235.25 27.2059 L2242.74 27.2059 L2242.74 34.2544 Q2245.09 30.1225 2248.86 28.1376 Q2252.63 26.1121 2258.01 26.1121 Q2258.78 26.1121 2259.71 26.2337 Q2260.65 26.3147 2261.78 26.5172 L2261.82 34.1734 Z" fill="#000000" fill-rule="evenodd" fill-opacity="1" /><path clip-path="url(#clip5300)" d="M 0 0 M2285.4 32.4315 Q2279.4 32.4315 2275.92 37.1306 Q2272.43 41.7891 2272.43 49.9314 Q2272.43 58.0738 2275.88 62.7728 Q2279.36 67.4314 2285.4 67.4314 Q2291.35 67.4314 2294.84 62.7323 Q2298.32 58.0333 2298.32 49.9314 Q2298.32 41.8701 2294.84 37.1711 Q2291.35 32.4315 2285.4 32.4315 M2285.4 26.1121 Q2295.12 26.1121 2300.67 32.4315 Q2306.22 38.7509 2306.22 49.9314 Q2306.22 61.0714 2300.67 67.4314 Q2295.12 73.7508 2285.4 73.7508 Q2275.63 73.7508 2270.08 67.4314 Q2264.58 61.0714 2264.58 49.9314 Q2264.58 38.7509 2270.08 32.4315 Q2275.63 26.1121 2285.4 26.1121 Z" fill="#000000" fill-rule="evenodd" fill-opacity="1" /><path clip-path="url(#clip5300)" d="M 0 0 M2340.33 34.1734 Q2339.07 33.4443 2337.57 33.1202 Q2336.11 32.7556 2334.33 32.7556 Q2328.01 32.7556 2324.61 36.8875 Q2321.25 40.9789 2321.25 48.6757 L2321.25 72.576 L2313.75 72.576 L2313.75 27.2059 L2321.25 27.2059 L2321.25 34.2544 Q2323.6 30.1225 2327.36 28.1376 Q2331.13 26.1121 2336.52 26.1121 Q2337.29 26.1121 2338.22 26.2337 Q2339.15 26.3147 2340.29 26.5172 L2340.33 34.1734 Z" fill="#000000" fill-rule="evenodd" fill-opacity="1" /><path clip-path="url(#clip5300)" d="M 0 0 M1292.89 2298.26 L1333.09 2298.26 L1333.09 2303.67 L1316.22 2303.67 L1316.22 2345.78 L1309.76 2345.78 L1309.76 2303.67 L1292.89 2303.67 L1292.89 2298.26 Z" fill="#000000" fill-rule="evenodd" fill-opacity="1" /><path clip-path="url(#clip5300)" d="M 0 0 M1337.22 2310.14 L1343.08 2310.14 L1343.08 2345.78 L1337.22 2345.78 L1337.22 2310.14 M1337.22 2296.26 L1343.08 2296.26 L1343.08 2303.67 L1337.22 2303.67 L1337.22 2296.26 Z" fill="#000000" fill-rule="evenodd" fill-opacity="1" /><path clip-path="url(#clip5300)" d="M 0 0 M1376.98 2316.98 Q1379.17 2313.03 1382.23 2311.15 Q1385.28 2309.28 1389.42 2309.28 Q1394.99 2309.28 1398.02 2313.19 Q1401.04 2317.07 1401.04 2324.27 L1401.04 2345.78 L1395.15 2345.78 L1395.15 2324.46 Q1395.15 2319.33 1393.34 2316.85 Q1391.52 2314.37 1387.8 2314.37 Q1383.25 2314.37 1380.61 2317.39 Q1377.96 2320.42 1377.96 2325.64 L1377.96 2345.78 L1372.08 2345.78 L1372.08 2324.46 Q1372.08 2319.3 1370.26 2316.85 Q1368.45 2314.37 1364.66 2314.37 Q1360.17 2314.37 1357.53 2317.42 Q1354.89 2320.45 1354.89 2325.64 L1354.89 2345.78 L1349 2345.78 L1349 2310.14 L1354.89 2310.14 L1354.89 2315.67 Q1356.89 2312.4 1359.69 2310.84 Q1362.5 2309.28 1366.35 2309.28 Q1370.23 2309.28 1372.94 2311.25 Q1375.67 2313.22 1376.98 2316.98 Z" fill="#000000" fill-rule="evenodd" fill-opacity="1" /><path clip-path="url(#clip5300)" d="M 0 0 M1437.67 2326.5 L1437.67 2329.36 L1410.75 2329.36 Q1411.13 2335.41 1414.38 2338.59 Q1417.65 2341.74 1423.48 2341.74 Q1426.85 2341.74 1430 2340.91 Q1433.19 2340.09 1436.31 2338.43 L1436.31 2343.97 Q1433.16 2345.31 1429.84 2346.01 Q1426.53 2346.71 1423.13 2346.71 Q1414.6 2346.71 1409.6 2341.74 Q1404.64 2336.78 1404.64 2328.31 Q1404.64 2319.56 1409.35 2314.43 Q1414.09 2309.28 1422.11 2309.28 Q1429.3 2309.28 1433.47 2313.92 Q1437.67 2318.54 1437.67 2326.5 M1431.82 2324.78 Q1431.75 2319.97 1429.11 2317.11 Q1426.5 2314.24 1422.17 2314.24 Q1417.27 2314.24 1414.31 2317.01 Q1411.38 2319.78 1410.94 2324.81 L1431.82 2324.78 Z" fill="#000000" fill-rule="evenodd" fill-opacity="1" /><path clip-path="url(#clip5300)" d="M 0 0 M1478.61 2296.32 Q1474.34 2303.64 1472.27 2310.8 Q1470.2 2317.97 1470.2 2325.32 Q1470.2 2332.67 1472.27 2339.9 Q1474.37 2347.09 1478.61 2354.38 L1473.51 2354.38 Q1468.74 2346.9 1466.35 2339.67 Q1464 2332.45 1464 2325.32 Q1464 2318.22 1466.35 2311.03 Q1468.71 2303.83 1473.51 2296.32 L1478.61 2296.32 Z" fill="#000000" fill-rule="evenodd" fill-opacity="1" /><path clip-path="url(#clip5300)" d="M 0 0 M1507.47 2311.19 L1507.47 2316.72 Q1504.99 2315.45 1502.32 2314.81 Q1499.64 2314.18 1496.78 2314.18 Q1492.42 2314.18 1490.22 2315.51 Q1488.06 2316.85 1488.06 2319.53 Q1488.06 2321.56 1489.62 2322.74 Q1491.18 2323.89 1495.89 2324.94 L1497.89 2325.38 Q1504.13 2326.72 1506.74 2329.17 Q1509.38 2331.59 1509.38 2335.95 Q1509.38 2340.91 1505.44 2343.81 Q1501.52 2346.71 1494.65 2346.71 Q1491.78 2346.71 1488.66 2346.13 Q1485.58 2345.59 1482.14 2344.48 L1482.14 2338.43 Q1485.39 2340.12 1488.54 2340.98 Q1491.69 2341.81 1494.78 2341.81 Q1498.91 2341.81 1501.14 2340.4 Q1503.37 2338.97 1503.37 2336.39 Q1503.37 2334.01 1501.75 2332.73 Q1500.15 2331.46 1494.71 2330.28 L1492.67 2329.81 Q1487.23 2328.66 1484.81 2326.3 Q1482.39 2323.92 1482.39 2319.78 Q1482.39 2314.75 1485.96 2312.01 Q1489.52 2309.28 1496.08 2309.28 Q1499.33 2309.28 1502.19 2309.75 Q1505.06 2310.23 1507.47 2311.19 Z" fill="#000000" fill-rule="evenodd" fill-opacity="1" /><path clip-path="url(#clip5300)" d="M 0 0 M1514.6 2296.32 L1519.7 2296.32 Q1524.47 2303.83 1526.83 2311.03 Q1529.21 2318.22 1529.21 2325.32 Q1529.21 2332.45 1526.83 2339.67 Q1524.47 2346.9 1519.7 2354.38 L1514.6 2354.38 Q1518.84 2347.09 1520.91 2339.9 Q1523.01 2332.67 1523.01 2325.32 Q1523.01 2317.97 1520.91 2310.8 Q1518.84 2303.64 1514.6 2296.32 Z" fill="#000000" fill-rule="evenodd" fill-opacity="1" /><path clip-path="url(#clip5300)" d="M 0 0 M38.4242 1331.38 L38.4242 1301.34 L43.835 1301.34 L43.835 1324.95 L57.9032 1324.95 L57.9032 1302.32 L63.3141 1302.32 L63.3141 1324.95 L80.5333 1324.95 L80.5333 1300.76 L85.9442 1300.76 L85.9442 1331.38 L38.4242 1331.38 Z" fill="#000000" fill-rule="evenodd" fill-opacity="1" /><path clip-path="url(#clip5300)" d="M 0 0 M55.7707 1273.96 Q55.1978 1274.95 54.9432 1276.13 Q54.6567 1277.28 54.6567 1278.68 Q54.6567 1283.64 57.9032 1286.31 Q61.1179 1288.96 67.1653 1288.96 L85.9442 1288.96 L85.9442 1294.84 L50.2962 1294.84 L50.2962 1288.96 L55.8344 1288.96 Q52.5879 1287.11 51.0283 1284.15 Q49.4368 1281.19 49.4368 1276.96 Q49.4368 1276.35 49.5323 1275.62 Q49.596 1274.89 49.7551 1274 L55.7707 1273.96 Z" fill="#000000" fill-rule="evenodd" fill-opacity="1" /><path clip-path="url(#clip5300)" d="M 0 0 M55.7707 1248.31 Q55.1978 1249.3 54.9432 1250.48 Q54.6567 1251.62 54.6567 1253.02 Q54.6567 1257.99 57.9032 1260.66 Q61.1179 1263.3 67.1653 1263.3 L85.9442 1263.3 L85.9442 1269.19 L50.2962 1269.19 L50.2962 1263.3 L55.8344 1263.3 Q52.5879 1261.46 51.0283 1258.5 Q49.4368 1255.54 49.4368 1251.3 Q49.4368 1250.7 49.5323 1249.97 Q49.596 1249.23 49.7551 1248.34 L55.7707 1248.31 Z" fill="#000000" fill-rule="evenodd" fill-opacity="1" /><path clip-path="url(#clip5300)" d="M 0 0 M54.4021 1229.79 Q54.4021 1234.5 58.0942 1237.23 Q61.7545 1239.97 68.152 1239.97 Q74.5495 1239.97 78.2417 1237.27 Q81.9019 1234.53 81.9019 1229.79 Q81.9019 1225.11 78.2098 1222.37 Q74.5177 1219.63 68.152 1219.63 Q61.8181 1219.63 58.126 1222.37 Q54.4021 1225.11 54.4021 1229.79 M49.4368 1229.79 Q49.4368 1222.15 54.4021 1217.79 Q59.3673 1213.43 68.152 1213.43 Q76.9049 1213.43 81.9019 1217.79 Q86.8672 1222.15 86.8672 1229.79 Q86.8672 1237.46 81.9019 1241.82 Q76.9049 1246.15 68.152 1246.15 Q59.3673 1246.15 54.4021 1241.82 Q49.4368 1237.46 49.4368 1229.79 Z" fill="#000000" fill-rule="evenodd" fill-opacity="1" /><path clip-path="url(#clip5300)" d="M 0 0 M55.7707 1186.63 Q55.1978 1187.61 54.9432 1188.79 Q54.6567 1189.94 54.6567 1191.34 Q54.6567 1196.3 57.9032 1198.98 Q61.1179 1201.62 67.1653 1201.62 L85.9442 1201.62 L85.9442 1207.51 L50.2962 1207.51 L50.2962 1201.62 L55.8344 1201.62 Q52.5879 1199.77 51.0283 1196.81 Q49.4368 1193.85 49.4368 1189.62 Q49.4368 1189.01 49.5323 1188.28 Q49.596 1187.55 49.7551 1186.66 L55.7707 1186.63 Z" fill="#000000" fill-rule="evenodd" fill-opacity="1" /><path clip-path="url(#clip5300)" d="M 0 0 M38.4242 1161.8 L38.4242 1154.89 L56.089 1143.09 L38.4242 1131.21 L38.4242 1124.31 L61.2452 1139.58 L85.9442 1123.29 L85.9442 1130.2 L65.733 1143.56 L85.9442 1157.03 L85.9442 1163.97 L60.5768 1147 L38.4242 1161.8 Z" fill="#000000" fill-rule="evenodd" fill-opacity="1" /><path clip-path="url(#clip5300)" d="M 0 0 M36.4826 1082.36 Q43.8032 1086.62 50.9646 1088.69 Q58.126 1090.76 65.4784 1090.76 Q72.8308 1090.76 80.0559 1088.69 Q87.2491 1086.59 94.5379 1082.36 L94.5379 1087.45 Q87.0582 1092.22 79.8331 1094.61 Q72.608 1096.97 65.4784 1096.97 Q58.3806 1096.97 51.1874 1094.61 Q43.9942 1092.26 36.4826 1087.45 L36.4826 1082.36 Z" fill="#000000" fill-rule="evenodd" fill-opacity="1" /><path clip-path="url(#clip5300)" d="M 0 0 M57.1393 1048.46 Q53.1926 1046.26 51.3147 1043.21 Q49.4368 1040.15 49.4368 1036.01 Q49.4368 1030.44 53.3517 1027.42 Q57.2348 1024.4 64.4281 1024.4 L85.9442 1024.4 L85.9442 1030.29 L64.619 1030.29 Q59.4946 1030.29 57.012 1032.1 Q54.5294 1033.91 54.5294 1037.64 Q54.5294 1042.19 57.5531 1044.83 Q60.5768 1047.47 65.7967 1047.47 L85.9442 1047.47 L85.9442 1053.36 L64.619 1053.36 Q59.4628 1053.36 57.012 1055.18 Q54.5294 1056.99 54.5294 1060.78 Q54.5294 1065.27 57.5849 1067.91 Q60.6086 1070.55 65.7967 1070.55 L85.9442 1070.55 L85.9442 1076.44 L50.2962 1076.44 L50.2962 1070.55 L55.8344 1070.55 Q52.556 1068.54 50.9964 1065.74 Q49.4368 1062.94 49.4368 1059.09 Q49.4368 1055.21 51.4102 1052.5 Q53.3836 1049.76 57.1393 1048.46 Z" fill="#000000" fill-rule="evenodd" fill-opacity="1" /><path clip-path="url(#clip5300)" d="M 0 0 M36.4826 1019.18 L36.4826 1014.09 Q43.9942 1009.31 51.1874 1006.96 Q58.3806 1004.57 65.4784 1004.57 Q72.608 1004.57 79.8331 1006.96 Q87.0582 1009.31 94.5379 1014.09 L94.5379 1019.18 Q87.2491 1014.94 80.0559 1012.88 Q72.8308 1010.77 65.4784 1010.77 Q58.126 1010.77 50.9646 1012.88 Q43.8032 1014.94 36.4826 1019.18 Z" fill="#000000" fill-rule="evenodd" fill-opacity="1" /><polyline clip-path="url(#clip5302)" style="stroke:#009af9; stroke-width:16; stroke-opacity:1; fill:none" points="
  272.49,2086.13 283.876,2086.16 295.262,2086.22 306.647,2086.44 318.033,2087.08 329.418,2087.8 340.804,2087.47 352.19,2084.76 363.575,2078.85 374.961,2069.62 
  386.346,2057.41 397.732,2042.72 409.118,2026.03 420.503,2007.72 431.889,1988.09 443.274,1967.36 454.66,1945.71 466.046,1923.29 477.431,1900.21 488.817,1876.56 
  500.202,1852.44 511.588,1827.89 522.974,1802.98 534.359,1777.74 545.745,1752.23 557.13,1726.48 568.516,1700.51 579.901,1674.35 591.287,1648.05 602.673,1621.61 
  614.058,1595.08 625.444,1568.49 636.829,1541.86 648.215,1515.24 659.601,1488.66 670.986,1462.15 682.372,1435.75 693.757,1409.49 705.143,1383.4 716.529,1357.52 
  727.914,1331.88 739.3,1306.51 750.685,1281.43 762.071,1256.67 773.457,1232.25 784.842,1208.2 796.228,1184.52 807.613,1161.24 818.999,1138.38 830.385,1115.94 
  841.77,1093.93 853.156,1072.38 864.541,1051.27 875.927,1030.63 887.313,1010.46 898.698,990.755 910.084,971.522 921.469,952.765 932.855,934.481 944.241,916.672 
  955.626,899.333 967.012,882.465 978.397,866.061 989.783,850.121 1001.17,834.637 1012.55,819.613 1023.94,805.042 1035.33,790.935 1046.71,777.202 1058.1,763.773 
  1069.48,750.659 1080.87,737.857 1092.25,725.363 1103.64,713.164 1115.02,701.251 1126.41,689.61 1137.8,678.231 1149.18,667.101 1160.57,656.212 1171.95,645.55 
  1183.34,635.11 1194.72,624.88 1206.11,614.854 1217.49,605.025 1228.88,595.387 1240.27,585.933 1251.65,576.659 1263.04,567.56 1274.42,558.632 1285.81,549.872 
  1297.19,541.277 1308.58,532.843 1319.97,524.569 1331.35,516.453 1342.74,508.493 1354.12,500.687 1365.51,493.034 1376.89,485.533 1388.28,478.183 1399.66,470.984 
  1411.05,463.934 1422.44,457.033 1433.82,450.28 1445.21,443.675 1456.59,437.216 1467.98,430.903 1479.36,424.736 1490.75,418.714 1502.13,412.835 1513.52,407.098 
  1524.91,401.503 1536.29,396.049 1547.68,390.734 1559.06,385.556 1570.45,380.514 1581.83,375.607 1593.22,370.832 1604.61,366.188 1615.99,361.673 1627.38,357.284 
  1638.76,353.019 1650.15,348.875 1661.53,344.851 1672.92,340.942 1684.3,337.148 1695.69,333.464 1707.08,329.888 1718.46,326.417 1729.85,323.047 1741.23,319.776 
  1752.62,316.601 1764,313.518 1775.39,310.523 1786.77,307.614 1798.16,304.788 1809.55,302.04 1820.93,299.369 1832.32,296.77 1843.7,294.24 1855.09,291.776 
  1866.47,289.375 1877.86,287.034 1889.25,284.75 1900.63,282.52 1912.02,280.341 1923.4,278.209 1934.79,276.123 1946.17,274.08 1957.56,272.077 1968.94,270.112 
  1980.33,268.182 1991.72,266.286 2003.1,264.421 2014.49,262.585 2025.87,260.777 2037.26,258.995 2048.64,257.237 2060.03,255.502 2071.41,253.789 2082.8,252.096 
  2094.19,250.423 2105.57,248.769 2116.96,247.134 2128.34,245.516 2139.73,243.916 2151.11,242.334 2162.5,240.769 2173.89,239.222 2185.27,237.693 2196.66,236.182 
  2208.04,234.69 2219.43,233.219 2230.81,231.769 2242.2,230.34 2253.58,228.935 2264.97,227.555 2276.36,226.201 2287.74,224.875 2299.13,223.579 2310.51,222.315 
  2321.9,221.084 2333.28,219.889 2344.67,218.732 2356.05,217.616 2367.44,216.542 2378.83,215.513 2390.21,214.533 2401.6,213.602 2412.98,212.724 2424.37,211.9 
  2435.75,211.135 2447.14,210.428 2458.53,209.785 2469.91,209.205 2481.3,208.692 2492.68,208.246 2504.07,207.871 2515.45,207.564 2526.84,207.329 2538.22,207.161 
  2549.61,207.061 
  "/>
<polyline clip-path="url(#clip5302)" style="stroke:#e26f46; stroke-width:16; stroke-opacity:1; fill:none" points="
  272.49,2116.17 283.876,2116.17 295.262,2115.26 306.647,2104.56 318.033,2076.42 329.418,2040.12 340.804,2003.72 352.19,1969.27 363.575,1936.62 374.961,1905.19 
  386.346,1874.47 397.732,1844.11 409.118,1813.87 420.503,1783.59 431.889,1753.22 443.274,1722.69 454.66,1692.01 466.046,1661.18 477.431,1630.23 488.817,1599.19 
  500.202,1568.13 511.588,1537.08 522.974,1506.1 534.359,1475.26 545.745,1444.61 557.13,1414.21 568.516,1384.1 579.901,1354.33 591.287,1324.95 602.673,1295.98 
  614.058,1267.47 625.444,1239.44 636.829,1211.91 648.215,1184.89 659.601,1158.41 670.986,1132.48 682.372,1107.11 693.757,1082.3 705.143,1058.06 716.529,1034.4 
  727.914,1011.31 739.3,988.798 750.685,966.866 762.071,945.51 773.457,924.728 784.842,904.517 796.228,884.874 807.613,865.793 818.999,847.269 830.385,829.298 
  841.77,811.871 853.156,794.984 864.541,778.627 875.927,762.793 887.313,747.474 898.698,732.662 910.084,718.345 921.469,704.515 932.855,691.16 944.241,678.272 
  955.626,665.836 967.012,653.842 978.397,642.278 989.783,631.132 1001.17,620.39 1012.55,610.042 1023.94,600.073 1035.33,590.469 1046.71,581.167 1058.1,572.124 
  1069.48,563.332 1080.87,554.78 1092.25,546.46 1103.64,538.358 1115.02,530.462 1126.41,522.761 1137.8,515.243 1149.18,507.897 1160.57,500.714 1171.95,493.685 
  1183.34,486.802 1194.72,480.057 1206.11,473.446 1217.49,466.961 1228.88,460.598 1240.27,454.353 1251.65,448.222 1263.04,442.203 1274.42,436.291 1285.81,430.486 
  1297.19,424.785 1308.58,419.186 1319.97,413.689 1331.35,408.293 1342.74,402.996 1354.12,397.799 1365.51,392.7 1376.89,387.7 1388.28,382.799 1399.66,377.996 
  1411.05,373.291 1422.44,368.685 1433.82,364.177 1445.21,359.768 1456.59,355.457 1467.98,351.244 1479.36,347.13 1490.75,343.114 1502.13,339.195 1513.52,335.375 
  1524.91,331.651 1536.29,328.024 1547.68,324.493 1559.06,321.058 1570.45,317.717 1581.83,314.47 1593.22,311.315 1604.61,308.252 1615.99,305.278 1627.38,302.394 
  1638.76,299.596 1650.15,296.884 1661.53,294.256 1672.92,291.71 1684.3,289.243 1695.69,286.855 1707.08,284.543 1718.46,282.305 1729.85,280.138 1741.23,278.041 
  1752.62,276.01 1764,274.044 1775.39,272.14 1786.77,270.295 1798.16,268.508 1809.55,266.775 1820.93,265.094 1832.32,263.463 1843.7,261.878 1855.09,260.338 
  1866.47,258.841 1877.86,257.383 1889.25,255.962 1900.63,254.576 1912.02,253.223 1923.4,251.901 1934.79,250.606 1946.17,249.338 1957.56,248.095 1968.94,246.873 
  1980.33,245.673 1991.72,244.491 2003.1,243.326 2014.49,242.177 2025.87,241.043 2037.26,239.921 2048.64,238.812 2060.03,237.713 2071.41,236.625 2082.8,235.545 
  2094.19,234.475 2105.57,233.412 2116.96,232.356 2128.34,231.308 2139.73,230.267 2151.11,229.233 2162.5,228.207 2173.89,227.188 2185.27,226.176 2196.66,225.173 
  2208.04,224.179 2219.43,223.194 2230.81,222.22 2242.2,221.257 2253.58,220.306 2264.97,219.369 2276.36,218.448 2287.74,217.542 2299.13,216.654 2310.51,215.786 
  2321.9,214.938 2333.28,214.114 2344.67,213.313 2356.05,212.539 2367.44,211.794 2378.83,211.078 2390.21,210.394 2401.6,209.744 2412.98,209.13 2424.37,208.554 
  2435.75,208.018 2447.14,207.523 2458.53,207.072 2469.91,206.665 2481.3,206.305 2492.68,205.993 2504.07,205.73 2515.45,205.515 2526.84,205.351 2538.22,205.235 
  2549.61,205.166 
  "/>
<polyline clip-path="url(#clip5302)" style="stroke:#3da44d; stroke-width:16; stroke-opacity:1; fill:none" points="
  272.49,2146.2 283.876,2146.21 295.262,2146.22 306.647,2145.8 318.033,2143.53 329.418,2138.46 340.804,2130.58 352.19,2120.43 363.575,2108.45 374.961,2094.82 
  386.346,2079.58 397.732,2062.8 409.118,2044.56 420.503,2025 431.889,2004.27 443.274,1982.51 454.66,1959.87 466.046,1936.46 477.431,1912.38 488.817,1887.74 
  500.202,1862.61 511.588,1837.06 522.974,1811.14 534.359,1784.92 545.745,1758.43 557.13,1731.72 568.516,1704.82 579.901,1677.77 591.287,1650.6 602.673,1623.34 
  614.058,1596.03 625.444,1568.7 636.829,1541.38 648.215,1514.11 659.601,1486.92 670.986,1459.84 682.372,1432.91 693.757,1406.17 705.143,1379.63 716.529,1353.34 
  727.914,1327.32 739.3,1301.6 750.685,1276.2 762.071,1251.15 773.457,1226.46 784.842,1202.16 796.228,1178.27 807.613,1154.8 818.999,1131.76 830.385,1109.16 
  841.77,1087.02 853.156,1065.35 864.541,1044.14 875.927,1023.41 887.313,1003.16 898.698,983.402 910.084,964.123 921.469,945.333 932.855,927.025 944.241,909.204 
  955.626,891.861 967.012,874.999 978.397,858.607 989.783,842.687 1001.17,827.228 1012.55,812.232 1023.94,797.691 1035.33,783.609 1046.71,769.905 1058.1,756.513 
  1069.48,743.439 1080.87,730.676 1092.25,718.22 1103.64,706.057 1115.02,694.178 1126.41,682.568 1137.8,671.217 1149.18,660.113 1160.57,649.246 1171.95,638.604 
  1183.34,628.181 1194.72,617.966 1206.11,607.953 1217.49,598.134 1228.88,588.503 1240.27,579.054 1251.65,569.784 1263.04,560.686 1274.42,551.759 1285.81,542.996 
  1297.19,534.398 1308.58,525.959 1319.97,517.679 1331.35,509.556 1342.74,501.587 1354.12,493.772 1365.51,486.109 1376.89,478.598 1388.28,471.238 1399.66,464.027 
  1411.05,456.966 1422.44,450.053 1433.82,443.289 1445.21,436.672 1456.59,430.203 1467.98,423.88 1479.36,417.702 1490.75,411.67 1502.13,405.783 1513.52,400.039 
  1524.91,394.437 1536.29,388.977 1547.68,383.657 1559.06,378.476 1570.45,373.432 1581.83,368.524 1593.22,363.75 1604.61,359.108 1615.99,354.596 1627.38,350.212 
  1638.76,345.954 1650.15,341.819 1661.53,337.805 1672.92,333.91 1684.3,330.13 1695.69,326.462 1707.08,322.905 1718.46,319.454 1729.85,316.107 1741.23,312.861 
  1752.62,309.713 1764,306.659 1775.39,303.696 1786.77,300.821 1798.16,298.031 1809.55,295.322 1820.93,292.692 1832.32,290.137 1843.7,287.653 1855.09,285.238 
  1866.47,282.889 1877.86,280.601 1889.25,278.374 1900.63,276.203 1912.02,274.085 1923.4,272.018 1934.79,269.999 1946.17,268.026 1957.56,266.095 1968.94,264.205 
  1980.33,262.354 1991.72,260.538 2003.1,258.756 2014.49,257.006 2025.87,255.286 2037.26,253.595 2048.64,251.93 2060.03,250.292 2071.41,248.677 2082.8,247.085 
  2094.19,245.515 2105.57,243.967 2116.96,242.439 2128.34,240.931 2139.73,239.442 2151.11,237.973 2162.5,236.523 2173.89,235.092 2185.27,233.681 2196.66,232.289 
  2208.04,230.917 2219.43,229.567 2230.81,228.238 2242.2,226.931 2253.58,225.648 2264.97,224.389 2276.36,223.157 2287.74,221.951 2299.13,220.775 2310.51,219.629 
  2321.9,218.515 2333.28,217.435 2344.67,216.391 2356.05,215.385 2367.44,214.419 2378.83,213.494 2390.21,212.614 2401.6,211.779 2412.98,210.993 2424.37,210.257 
  2435.75,209.574 2447.14,208.945 2458.53,208.373 2469.91,207.859 2481.3,207.405 2492.68,207.012 2504.07,206.682 2515.45,206.415 2526.84,206.211 2538.22,206.069 
  2549.61,205.987 
  "/>
<polyline clip-path="url(#clip5302)" style="stroke:#c271d2; stroke-width:16; stroke-opacity:1; fill:none" points="
  272.49,2116.17 283.876,2116.17 295.262,2115.48 306.647,2106.51 318.033,2082.36 329.418,2051.02 340.804,2018.81 352.19,1987.24 363.575,1956.23 374.961,1925.38 
  386.346,1894.34 397.732,1862.89 409.118,1830.92 420.503,1798.35 431.889,1765.18 443.274,1731.43 454.66,1697.15 466.046,1662.4 477.431,1627.28 488.817,1591.9 
  500.202,1556.37 511.588,1520.82 522.974,1485.36 534.359,1450.12 545.745,1415.19 557.13,1380.67 568.516,1346.64 579.901,1313.16 591.287,1280.3 602.673,1248.09 
  614.058,1216.57 625.444,1185.78 636.829,1155.73 648.215,1126.45 659.601,1097.93 670.986,1070.2 682.372,1043.25 693.757,1017.08 705.143,991.701 716.529,967.099 
  727.914,943.27 739.3,920.207 750.685,897.898 762.071,876.334 773.457,855.502 784.842,835.39 796.228,815.982 807.613,797.266 818.999,779.225 830.385,761.845 
  841.77,745.109 853.156,729.002 864.541,713.505 875.927,698.605 887.313,684.281 898.698,670.52 910.084,657.301 921.469,644.609 932.855,632.424 944.241,620.732 
  955.626,609.512 967.012,598.748 978.397,588.421 989.783,578.516 1001.17,569.016 1012.55,559.907 1023.94,551.179 1035.33,542.83 1046.71,534.774 1058.1,526.946 
  1069.48,519.348 1080.87,511.973 1092.25,504.811 1103.64,497.847 1115.02,491.07 1126.41,484.465 1137.8,478.022 1149.18,471.728 1160.57,465.574 1171.95,459.551 
  1183.34,453.649 1194.72,447.863 1206.11,442.185 1217.49,436.61 1228.88,431.134 1240.27,425.751 1251.65,420.459 1263.04,415.255 1274.42,410.136 1285.81,405.101 
  1297.19,400.147 1308.58,395.275 1319.97,390.482 1331.35,385.769 1342.74,381.135 1354.12,376.58 1365.51,372.104 1376.89,367.708 1388.28,363.391 1399.66,359.155 
  1411.05,354.999 1422.44,350.924 1433.82,346.931 1445.21,343.02 1456.59,339.192 1467.98,335.447 1479.36,331.786 1490.75,328.208 1502.13,324.714 1513.52,321.305 
  1524.91,317.98 1536.29,314.739 1547.68,311.582 1559.06,308.508 1570.45,305.518 1581.83,302.611 1593.22,299.786 1604.61,297.042 1615.99,294.378 1627.38,291.794 
  1638.76,289.288 1650.15,286.859 1661.53,284.506 1672.92,282.226 1684.3,280.019 1695.69,277.883 1707.08,275.815 1718.46,273.815 1729.85,271.88 1741.23,270.008 
  1752.62,268.196 1764,266.444 1775.39,264.748 1786.77,263.106 1798.16,261.517 1809.55,259.977 1820.93,258.484 1832.32,257.037 1843.7,255.632 1855.09,254.268 
  1866.47,252.942 1877.86,251.652 1889.25,250.396 1900.63,249.171 1912.02,247.975 1923.4,246.807 1934.79,245.664 1946.17,244.544 1957.56,243.446 1968.94,242.367 
  1980.33,241.307 1991.72,240.262 2003.1,239.233 2014.49,238.217 2025.87,237.213 2037.26,236.219 2048.64,235.236 2060.03,234.261 2071.41,233.294 2082.8,232.335 
  2094.19,231.381 2105.57,230.434 2116.96,229.493 2128.34,228.556 2139.73,227.625 2151.11,226.699 2162.5,225.779 2173.89,224.864 2185.27,223.954 2196.66,223.051 
  2208.04,222.155 2219.43,221.267 2230.81,220.386 2242.2,219.515 2253.58,218.655 2264.97,217.806 2276.36,216.969 2287.74,216.147 2299.13,215.34 2310.51,214.549 
  2321.9,213.777 2333.28,213.025 2344.67,212.295 2356.05,211.588 2367.44,210.907 2378.83,210.252 2390.21,209.627 2401.6,209.031 2412.98,208.469 2424.37,207.941 
  2435.75,207.449 2447.14,206.995 2458.53,206.58 2469.91,206.206 2481.3,205.876 2492.68,205.588 2504.07,205.346 2515.45,205.148 2526.84,204.996 2538.22,204.889 
  2549.61,204.825 
  "/>
<polyline clip-path="url(#clip5302)" style="stroke:#ac8d18; stroke-width:16; stroke-opacity:1; fill:none" points="
  272.49,2116.17 283.876,2116.23 295.262,2116.36 306.647,2116.44 318.033,2116.36 329.418,2115.95 340.804,2114.85 352.19,2112.63 363.575,2108.89 374.961,2103.32 
  386.346,2095.68 397.732,2085.85 409.118,2073.78 420.503,2059.48 431.889,2042.98 443.274,2024.37 454.66,2003.72 466.046,1981.16 477.431,1956.81 488.817,1930.79 
  500.202,1903.26 511.588,1874.36 522.974,1844.25 534.359,1813.07 545.745,1780.99 557.13,1748.13 568.516,1714.66 579.901,1680.7 591.287,1646.38 602.673,1611.83 
  614.058,1577.14 625.444,1542.43 636.829,1507.78 648.215,1473.29 659.601,1439.03 670.986,1405.06 682.372,1371.46 693.757,1338.28 705.143,1305.57 716.529,1273.37 
  727.914,1241.72 739.3,1210.65 750.685,1180.19 762.071,1150.37 773.457,1121.19 784.842,1092.69 796.228,1064.87 807.613,1037.73 818.999,1011.29 830.385,985.551 
  841.77,960.511 853.156,936.172 864.541,912.531 875.927,889.585 887.313,867.328 898.698,845.753 910.084,824.854 921.469,804.623 932.855,785.05 944.241,766.125 
  955.626,747.84 967.012,730.183 978.397,713.145 989.783,696.715 1001.17,680.885 1012.55,665.645 1023.94,650.99 1035.33,636.918 1046.71,623.328 1058.1,610.12 
  1069.48,597.295 1080.87,584.853 1092.25,572.789 1103.64,561.099 1115.02,549.775 1126.41,538.813 1137.8,528.205 1149.18,517.944 1160.57,508.023 1171.95,498.435 
  1183.34,489.174 1194.72,480.233 1206.11,471.605 1217.49,463.284 1228.88,455.262 1240.27,447.535 1251.65,440.094 1263.04,432.934 1274.42,426.049 1285.81,419.431 
  1297.19,413.075 1308.58,406.974 1319.97,401.122 1331.35,395.512 1342.74,390.137 1354.12,384.991 1365.51,380.067 1376.89,375.359 1388.28,370.859 1399.66,366.561 
  1411.05,362.456 1422.44,358.54 1433.82,354.803 1445.21,351.239 1456.59,347.841 1467.98,344.6 1479.36,341.51 1490.75,338.563 1502.13,335.752 1513.52,333.069 
  1524.91,330.506 1536.29,328.055 1547.68,325.711 1559.06,323.464 1570.45,321.308 1581.83,319.235 1593.22,317.238 1604.61,315.311 1615.99,313.445 1627.38,311.635 
  1638.76,309.874 1650.15,308.156 1661.53,306.474 1672.92,304.823 1684.3,303.197 1695.69,301.59 1707.08,299.998 1718.46,298.416 1729.85,296.838 1741.23,295.262 
  1752.62,293.683 1764,292.097 1775.39,290.501 1786.77,288.893 1798.16,287.269 1809.55,285.627 1820.93,283.966 1832.32,282.283 1843.7,280.578 1855.09,278.848 
  1866.47,277.094 1877.86,275.315 1889.25,273.511 1900.63,271.682 1912.02,269.828 1923.4,267.95 1934.79,266.049 1946.17,264.126 1957.56,262.182 1968.94,260.219 
  1980.33,258.238 1991.72,256.243 2003.1,254.233 2014.49,252.213 2025.87,250.184 2037.26,248.149 2048.64,246.11 2060.03,244.071 2071.41,242.033 2082.8,240 
  2094.19,237.974 2105.57,235.959 2116.96,233.957 2128.34,231.971 2139.73,230.004 2151.11,228.059 2162.5,226.139 2173.89,224.247 2185.27,222.385 2196.66,220.555 
  2208.04,218.762 2219.43,217.006 2230.81,215.29 2242.2,213.617 2253.58,211.988 2264.97,210.407 2276.36,208.874 2287.74,207.391 2299.13,205.961 2310.51,204.584 
  2321.9,203.263 2333.28,201.999 2344.67,200.792 2356.05,199.644 2367.44,198.556 2378.83,197.529 2390.21,196.564 2401.6,195.661 2412.98,194.821 2424.37,194.044 
  2435.75,193.331 2447.14,192.683 2458.53,192.098 2469.91,191.579 2481.3,191.124 2492.68,190.734 2504.07,190.408 2515.45,190.146 2526.84,189.946 2538.22,189.808 
  2549.61,189.727 
  "/>
<path clip-path="url(#clip5300)" d="
M2713.92 625.432 L3184.76 625.432 L3184.76 262.552 L2713.92 262.552  Z
  " fill="#ffffff" fill-rule="evenodd" fill-opacity="1"/>
<polyline clip-path="url(#clip5300)" style="stroke:#000000; stroke-width:4; stroke-opacity:1; fill:none" points="
  2713.92,625.432 3184.76,625.432 3184.76,262.552 2713.92,262.552 2713.92,625.432 
  "/>
<polyline clip-path="url(#clip5300)" style="stroke:#009af9; stroke-width:16; stroke-opacity:1; fill:none" points="
  2745.92,323.032 2937.92,323.032 
  "/>
<path clip-path="url(#clip5300)" d="M 0 0 M2991.95 303.633 Q2984.95 303.633 2980.81 308.853 Q2976.7 314.072 2976.7 323.08 Q2976.7 332.056 2980.81 337.275 Q2984.95 342.495 2991.95 342.495 Q2998.95 342.495 3003.03 337.275 Q3007.13 332.056 3007.13 323.08 Q3007.13 314.072 3003.03 308.853 Q2998.95 303.633 2991.95 303.633 M3000.96 345.933 L3009.42 355.195 L3001.66 355.195 L2994.62 347.588 Q2993.57 347.651 2993 347.683 Q2992.46 347.715 2991.95 347.715 Q2981.92 347.715 2975.91 341.031 Q2969.92 334.315 2969.92 323.08 Q2969.92 311.813 2975.91 305.129 Q2981.92 298.413 2991.95 298.413 Q3001.94 298.413 3007.93 305.129 Q3013.91 311.813 3013.91 323.08 Q3013.91 331.355 3010.57 337.244 Q3007.26 343.132 3000.96 345.933 Z" fill="#000000" fill-rule="evenodd" fill-opacity="1" /><path clip-path="url(#clip5300)" d="M 0 0 M3019.45 332.724 L3019.45 311.144 L3025.31 311.144 L3025.31 332.501 Q3025.31 337.562 3027.28 340.108 Q3029.25 342.623 3033.2 342.623 Q3037.94 342.623 3040.68 339.599 Q3043.45 336.575 3043.45 331.355 L3043.45 311.144 L3049.3 311.144 L3049.3 346.792 L3043.45 346.792 L3043.45 341.318 Q3041.31 344.564 3038.48 346.156 Q3035.68 347.715 3031.96 347.715 Q3025.81 347.715 3022.63 343.896 Q3019.45 340.076 3019.45 332.724 M3034.19 310.285 L3034.19 310.285 Z" fill="#000000" fill-rule="evenodd" fill-opacity="1" /><path clip-path="url(#clip5300)" d="M 0 0 M3071.65 328.873 Q3064.55 328.873 3061.81 330.496 Q3059.08 332.119 3059.08 336.034 Q3059.08 339.153 3061.11 340.999 Q3063.18 342.814 3066.71 342.814 Q3071.58 342.814 3074.51 339.376 Q3077.47 335.907 3077.47 330.178 L3077.47 328.873 L3071.65 328.873 M3083.33 326.454 L3083.33 346.792 L3077.47 346.792 L3077.47 341.381 Q3075.47 344.628 3072.47 346.187 Q3069.48 347.715 3065.15 347.715 Q3059.68 347.715 3056.43 344.66 Q3053.22 341.572 3053.22 336.416 Q3053.22 330.4 3057.23 327.345 Q3061.27 324.289 3069.26 324.289 L3077.47 324.289 L3077.47 323.716 Q3077.47 319.674 3074.8 317.478 Q3072.16 315.25 3067.35 315.25 Q3064.29 315.25 3061.4 315.982 Q3058.5 316.714 3055.83 318.178 L3055.83 312.767 Q3059.04 311.526 3062.07 310.921 Q3065.09 310.285 3067.96 310.285 Q3075.69 310.285 3079.51 314.295 Q3083.33 318.306 3083.33 326.454 Z" fill="#000000" fill-rule="evenodd" fill-opacity="1" /><path clip-path="url(#clip5300)" d="M 0 0 M3112.93 316.555 L3112.93 297.267 L3118.79 297.267 L3118.79 346.792 L3112.93 346.792 L3112.93 341.445 Q3111.08 344.628 3108.25 346.187 Q3105.45 347.715 3101.5 347.715 Q3095.04 347.715 3090.97 342.559 Q3086.93 337.403 3086.93 329 Q3086.93 320.597 3090.97 315.441 Q3095.04 310.285 3101.5 310.285 Q3105.45 310.285 3108.25 311.844 Q3111.08 313.372 3112.93 316.555 M3092.97 329 Q3092.97 335.461 3095.61 339.153 Q3098.29 342.814 3102.93 342.814 Q3107.58 342.814 3110.26 339.153 Q3112.93 335.461 3112.93 329 Q3112.93 322.539 3110.26 318.879 Q3107.58 315.186 3102.93 315.186 Q3098.29 315.186 3095.61 318.879 Q3092.97 322.539 3092.97 329 Z" fill="#000000" fill-rule="evenodd" fill-opacity="1" /><path clip-path="url(#clip5300)" d="M 0 0 M3147.59 341.381 L3158.09 341.381 L3158.09 305.129 L3146.67 307.42 L3146.67 301.564 L3158.03 299.272 L3164.46 299.272 L3164.46 341.381 L3174.96 341.381 L3174.96 346.792 L3147.59 346.792 L3147.59 341.381 Z" fill="#000000" fill-rule="evenodd" fill-opacity="1" /><polyline clip-path="url(#clip5300)" style="stroke:#e26f46; stroke-width:16; stroke-opacity:1; fill:none" points="
  2745.92,383.512 2937.92,383.512 
  "/>
<path clip-path="url(#clip5300)" d="M 0 0 M2991.95 364.113 Q2984.95 364.113 2980.81 369.333 Q2976.7 374.552 2976.7 383.56 Q2976.7 392.536 2980.81 397.755 Q2984.95 402.975 2991.95 402.975 Q2998.95 402.975 3003.03 397.755 Q3007.13 392.536 3007.13 383.56 Q3007.13 374.552 3003.03 369.333 Q2998.95 364.113 2991.95 364.113 M3000.96 406.413 L3009.42 415.675 L3001.66 415.675 L2994.62 408.068 Q2993.57 408.131 2993 408.163 Q2992.46 408.195 2991.95 408.195 Q2981.92 408.195 2975.91 401.511 Q2969.92 394.795 2969.92 383.56 Q2969.92 372.293 2975.91 365.609 Q2981.92 358.893 2991.95 358.893 Q3001.94 358.893 3007.93 365.609 Q3013.91 372.293 3013.91 383.56 Q3013.91 391.835 3010.57 397.724 Q3007.26 403.612 3000.96 406.413 Z" fill="#000000" fill-rule="evenodd" fill-opacity="1" /><path clip-path="url(#clip5300)" d="M 0 0 M3019.45 393.204 L3019.45 371.624 L3025.31 371.624 L3025.31 392.981 Q3025.31 398.042 3027.28 400.588 Q3029.25 403.103 3033.2 403.103 Q3037.94 403.103 3040.68 400.079 Q3043.45 397.055 3043.45 391.835 L3043.45 371.624 L3049.3 371.624 L3049.3 407.272 L3043.45 407.272 L3043.45 401.798 Q3041.31 405.044 3038.48 406.636 Q3035.68 408.195 3031.96 408.195 Q3025.81 408.195 3022.63 404.376 Q3019.45 400.556 3019.45 393.204 M3034.19 370.765 L3034.19 370.765 Z" fill="#000000" fill-rule="evenodd" fill-opacity="1" /><path clip-path="url(#clip5300)" d="M 0 0 M3071.65 389.353 Q3064.55 389.353 3061.81 390.976 Q3059.08 392.599 3059.08 396.514 Q3059.08 399.633 3061.11 401.479 Q3063.18 403.294 3066.71 403.294 Q3071.58 403.294 3074.51 399.856 Q3077.47 396.387 3077.47 390.658 L3077.47 389.353 L3071.65 389.353 M3083.33 386.934 L3083.33 407.272 L3077.47 407.272 L3077.47 401.861 Q3075.47 405.108 3072.47 406.667 Q3069.48 408.195 3065.15 408.195 Q3059.68 408.195 3056.43 405.14 Q3053.22 402.052 3053.22 396.896 Q3053.22 390.88 3057.23 387.825 Q3061.27 384.769 3069.26 384.769 L3077.47 384.769 L3077.47 384.196 Q3077.47 380.154 3074.8 377.958 Q3072.16 375.73 3067.35 375.73 Q3064.29 375.73 3061.4 376.462 Q3058.5 377.194 3055.83 378.658 L3055.83 373.247 Q3059.04 372.006 3062.07 371.401 Q3065.09 370.765 3067.96 370.765 Q3075.69 370.765 3079.51 374.775 Q3083.33 378.786 3083.33 386.934 Z" fill="#000000" fill-rule="evenodd" fill-opacity="1" /><path clip-path="url(#clip5300)" d="M 0 0 M3112.93 377.035 L3112.93 357.747 L3118.79 357.747 L3118.79 407.272 L3112.93 407.272 L3112.93 401.925 Q3111.08 405.108 3108.25 406.667 Q3105.45 408.195 3101.5 408.195 Q3095.04 408.195 3090.97 403.039 Q3086.93 397.883 3086.93 389.48 Q3086.93 381.077 3090.97 375.921 Q3095.04 370.765 3101.5 370.765 Q3105.45 370.765 3108.25 372.324 Q3111.08 373.852 3112.93 377.035 M3092.97 389.48 Q3092.97 395.941 3095.61 399.633 Q3098.29 403.294 3102.93 403.294 Q3107.58 403.294 3110.26 399.633 Q3112.93 395.941 3112.93 389.48 Q3112.93 383.019 3110.26 379.359 Q3107.58 375.666 3102.93 375.666 Q3098.29 375.666 3095.61 379.359 Q3092.97 383.019 3092.97 389.48 Z" fill="#000000" fill-rule="evenodd" fill-opacity="1" /><path clip-path="url(#clip5300)" d="M 0 0 M3152.01 401.861 L3174.45 401.861 L3174.45 407.272 L3144.28 407.272 L3144.28 401.861 Q3147.94 398.074 3154.24 391.708 Q3160.58 385.31 3162.2 383.464 Q3165.29 379.995 3166.5 377.608 Q3167.74 375.189 3167.74 372.865 Q3167.74 369.078 3165.06 366.691 Q3162.42 364.304 3158.16 364.304 Q3155.13 364.304 3151.76 365.354 Q3148.42 366.404 3144.6 368.537 L3144.6 362.044 Q3148.48 360.484 3151.86 359.688 Q3155.23 358.893 3158.03 358.893 Q3165.41 358.893 3169.81 362.585 Q3174.2 366.277 3174.2 372.452 Q3174.2 375.38 3173.08 378.022 Q3172 380.632 3169.11 384.196 Q3168.31 385.119 3164.05 389.544 Q3159.78 393.936 3152.01 401.861 Z" fill="#000000" fill-rule="evenodd" fill-opacity="1" /><polyline clip-path="url(#clip5300)" style="stroke:#3da44d; stroke-width:16; stroke-opacity:1; fill:none" points="
  2745.92,443.992 2937.92,443.992 
  "/>
<path clip-path="url(#clip5300)" d="M 0 0 M2991.95 424.593 Q2984.95 424.593 2980.81 429.813 Q2976.7 435.032 2976.7 444.04 Q2976.7 453.016 2980.81 458.235 Q2984.95 463.455 2991.95 463.455 Q2998.95 463.455 3003.03 458.235 Q3007.13 453.016 3007.13 444.04 Q3007.13 435.032 3003.03 429.813 Q2998.95 424.593 2991.95 424.593 M3000.96 466.893 L3009.42 476.155 L3001.66 476.155 L2994.62 468.548 Q2993.57 468.611 2993 468.643 Q2992.46 468.675 2991.95 468.675 Q2981.92 468.675 2975.91 461.991 Q2969.92 455.275 2969.92 444.04 Q2969.92 432.773 2975.91 426.089 Q2981.92 419.373 2991.95 419.373 Q3001.94 419.373 3007.93 426.089 Q3013.91 432.773 3013.91 444.04 Q3013.91 452.315 3010.57 458.204 Q3007.26 464.092 3000.96 466.893 Z" fill="#000000" fill-rule="evenodd" fill-opacity="1" /><path clip-path="url(#clip5300)" d="M 0 0 M3019.45 453.684 L3019.45 432.104 L3025.31 432.104 L3025.31 453.461 Q3025.31 458.522 3027.28 461.068 Q3029.25 463.583 3033.2 463.583 Q3037.94 463.583 3040.68 460.559 Q3043.45 457.535 3043.45 452.315 L3043.45 432.104 L3049.3 432.104 L3049.3 467.752 L3043.45 467.752 L3043.45 462.278 Q3041.31 465.524 3038.48 467.116 Q3035.68 468.675 3031.96 468.675 Q3025.81 468.675 3022.63 464.856 Q3019.45 461.036 3019.45 453.684 M3034.19 431.245 L3034.19 431.245 Z" fill="#000000" fill-rule="evenodd" fill-opacity="1" /><path clip-path="url(#clip5300)" d="M 0 0 M3071.65 449.833 Q3064.55 449.833 3061.81 451.456 Q3059.08 453.079 3059.08 456.994 Q3059.08 460.113 3061.11 461.959 Q3063.18 463.774 3066.71 463.774 Q3071.58 463.774 3074.51 460.336 Q3077.47 456.867 3077.47 451.138 L3077.47 449.833 L3071.65 449.833 M3083.33 447.414 L3083.33 467.752 L3077.47 467.752 L3077.47 462.341 Q3075.47 465.588 3072.47 467.147 Q3069.48 468.675 3065.15 468.675 Q3059.68 468.675 3056.43 465.62 Q3053.22 462.532 3053.22 457.376 Q3053.22 451.36 3057.23 448.305 Q3061.27 445.249 3069.26 445.249 L3077.47 445.249 L3077.47 444.676 Q3077.47 440.634 3074.8 438.438 Q3072.16 436.21 3067.35 436.21 Q3064.29 436.21 3061.4 436.942 Q3058.5 437.674 3055.83 439.138 L3055.83 433.727 Q3059.04 432.486 3062.07 431.881 Q3065.09 431.245 3067.96 431.245 Q3075.69 431.245 3079.51 435.255 Q3083.33 439.266 3083.33 447.414 Z" fill="#000000" fill-rule="evenodd" fill-opacity="1" /><path clip-path="url(#clip5300)" d="M 0 0 M3112.93 437.515 L3112.93 418.227 L3118.79 418.227 L3118.79 467.752 L3112.93 467.752 L3112.93 462.405 Q3111.08 465.588 3108.25 467.147 Q3105.45 468.675 3101.5 468.675 Q3095.04 468.675 3090.97 463.519 Q3086.93 458.363 3086.93 449.96 Q3086.93 441.557 3090.97 436.401 Q3095.04 431.245 3101.5 431.245 Q3105.45 431.245 3108.25 432.804 Q3111.08 434.332 3112.93 437.515 M3092.97 449.96 Q3092.97 456.421 3095.61 460.113 Q3098.29 463.774 3102.93 463.774 Q3107.58 463.774 3110.26 460.113 Q3112.93 456.421 3112.93 449.96 Q3112.93 443.499 3110.26 439.839 Q3107.58 436.146 3102.93 436.146 Q3098.29 436.146 3095.61 439.839 Q3092.97 443.499 3092.97 449.96 Z" fill="#000000" fill-rule="evenodd" fill-opacity="1" /><path clip-path="url(#clip5300)" d="M 0 0 M3165.96 442.13 Q3170.57 443.117 3173.15 446.236 Q3175.76 449.355 3175.76 453.939 Q3175.76 460.973 3170.92 464.824 Q3166.08 468.675 3157.17 468.675 Q3154.18 468.675 3151 468.07 Q3147.84 467.497 3144.47 466.32 L3144.47 460.113 Q3147.14 461.673 3150.33 462.469 Q3153.51 463.264 3156.98 463.264 Q3163.03 463.264 3166.18 460.877 Q3169.36 458.49 3169.36 453.939 Q3169.36 449.737 3166.4 447.382 Q3163.47 444.995 3158.22 444.995 L3152.68 444.995 L3152.68 439.711 L3158.48 439.711 Q3163.22 439.711 3165.73 437.833 Q3168.25 435.924 3168.25 432.359 Q3168.25 428.699 3165.64 426.757 Q3163.06 424.784 3158.22 424.784 Q3155.58 424.784 3152.56 425.357 Q3149.53 425.929 3145.9 427.139 L3145.9 421.41 Q3149.56 420.391 3152.75 419.882 Q3155.96 419.373 3158.79 419.373 Q3166.11 419.373 3170.38 422.715 Q3174.64 426.025 3174.64 431.69 Q3174.64 435.637 3172.38 438.374 Q3170.12 441.08 3165.96 442.13 Z" fill="#000000" fill-rule="evenodd" fill-opacity="1" /><polyline clip-path="url(#clip5300)" style="stroke:#c271d2; stroke-width:16; stroke-opacity:1; fill:none" points="
  2745.92,504.472 2937.92,504.472 
  "/>
<path clip-path="url(#clip5300)" d="M 0 0 M2991.95 485.073 Q2984.95 485.073 2980.81 490.293 Q2976.7 495.512 2976.7 504.52 Q2976.7 513.496 2980.81 518.715 Q2984.95 523.935 2991.95 523.935 Q2998.95 523.935 3003.03 518.715 Q3007.13 513.496 3007.13 504.52 Q3007.13 495.512 3003.03 490.293 Q2998.95 485.073 2991.95 485.073 M3000.96 527.373 L3009.42 536.635 L3001.66 536.635 L2994.62 529.028 Q2993.57 529.091 2993 529.123 Q2992.46 529.155 2991.95 529.155 Q2981.92 529.155 2975.91 522.471 Q2969.92 515.755 2969.92 504.52 Q2969.92 493.253 2975.91 486.569 Q2981.92 479.853 2991.95 479.853 Q3001.94 479.853 3007.93 486.569 Q3013.91 493.253 3013.91 504.52 Q3013.91 512.795 3010.57 518.684 Q3007.26 524.572 3000.96 527.373 Z" fill="#000000" fill-rule="evenodd" fill-opacity="1" /><path clip-path="url(#clip5300)" d="M 0 0 M3019.45 514.164 L3019.45 492.584 L3025.31 492.584 L3025.31 513.941 Q3025.31 519.002 3027.28 521.548 Q3029.25 524.063 3033.2 524.063 Q3037.94 524.063 3040.68 521.039 Q3043.45 518.015 3043.45 512.795 L3043.45 492.584 L3049.3 492.584 L3049.3 528.232 L3043.45 528.232 L3043.45 522.758 Q3041.31 526.004 3038.48 527.596 Q3035.68 529.155 3031.96 529.155 Q3025.81 529.155 3022.63 525.336 Q3019.45 521.516 3019.45 514.164 M3034.19 491.725 L3034.19 491.725 Z" fill="#000000" fill-rule="evenodd" fill-opacity="1" /><path clip-path="url(#clip5300)" d="M 0 0 M3071.65 510.313 Q3064.55 510.313 3061.81 511.936 Q3059.08 513.559 3059.08 517.474 Q3059.08 520.593 3061.11 522.439 Q3063.18 524.254 3066.71 524.254 Q3071.58 524.254 3074.51 520.816 Q3077.47 517.347 3077.47 511.618 L3077.47 510.313 L3071.65 510.313 M3083.33 507.894 L3083.33 528.232 L3077.47 528.232 L3077.47 522.821 Q3075.47 526.068 3072.47 527.627 Q3069.48 529.155 3065.15 529.155 Q3059.68 529.155 3056.43 526.1 Q3053.22 523.012 3053.22 517.856 Q3053.22 511.84 3057.23 508.785 Q3061.27 505.729 3069.26 505.729 L3077.47 505.729 L3077.47 505.156 Q3077.47 501.114 3074.8 498.918 Q3072.16 496.69 3067.35 496.69 Q3064.29 496.69 3061.4 497.422 Q3058.5 498.154 3055.83 499.618 L3055.83 494.207 Q3059.04 492.966 3062.07 492.361 Q3065.09 491.725 3067.96 491.725 Q3075.69 491.725 3079.51 495.735 Q3083.33 499.746 3083.33 507.894 Z" fill="#000000" fill-rule="evenodd" fill-opacity="1" /><path clip-path="url(#clip5300)" d="M 0 0 M3112.93 497.995 L3112.93 478.707 L3118.79 478.707 L3118.79 528.232 L3112.93 528.232 L3112.93 522.885 Q3111.08 526.068 3108.25 527.627 Q3105.45 529.155 3101.5 529.155 Q3095.04 529.155 3090.97 523.999 Q3086.93 518.843 3086.93 510.44 Q3086.93 502.037 3090.97 496.881 Q3095.04 491.725 3101.5 491.725 Q3105.45 491.725 3108.25 493.284 Q3111.08 494.812 3112.93 497.995 M3092.97 510.44 Q3092.97 516.901 3095.61 520.593 Q3098.29 524.254 3102.93 524.254 Q3107.58 524.254 3110.26 520.593 Q3112.93 516.901 3112.93 510.44 Q3112.93 503.979 3110.26 500.319 Q3107.58 496.626 3102.93 496.626 Q3098.29 496.626 3095.61 500.319 Q3092.97 503.979 3092.97 510.44 Z" fill="#000000" fill-rule="evenodd" fill-opacity="1" /><path clip-path="url(#clip5300)" d="M 0 0 M3164.14 486.314 L3147.91 511.681 L3164.14 511.681 L3164.14 486.314 M3162.45 480.712 L3170.54 480.712 L3170.54 511.681 L3177.32 511.681 L3177.32 517.028 L3170.54 517.028 L3170.54 528.232 L3164.14 528.232 L3164.14 517.028 L3142.69 517.028 L3142.69 510.822 L3162.45 480.712 Z" fill="#000000" fill-rule="evenodd" fill-opacity="1" /><polyline clip-path="url(#clip5300)" style="stroke:#ac8d18; stroke-width:16; stroke-opacity:1; fill:none" points="
  2745.92,564.952 2937.92,564.952 
  "/>
<path clip-path="url(#clip5300)" d="M 0 0 M2969.92 541.192 L2976.35 541.192 L2976.35 583.301 L2999.49 583.301 L2999.49 588.712 L2969.92 588.712 L2969.92 541.192 Z" fill="#000000" fill-rule="evenodd" fill-opacity="1" /><path clip-path="url(#clip5300)" d="M 0 0 M3018.3 557.17 Q3013.59 557.17 3010.85 560.862 Q3008.12 564.522 3008.12 570.92 Q3008.12 577.318 3010.82 581.01 Q3013.56 584.67 3018.3 584.67 Q3022.98 584.67 3025.72 580.978 Q3028.46 577.286 3028.46 570.92 Q3028.46 564.586 3025.72 560.894 Q3022.98 557.17 3018.3 557.17 M3018.3 552.205 Q3025.94 552.205 3030.3 557.17 Q3034.66 562.135 3034.66 570.92 Q3034.66 579.673 3030.3 584.67 Q3025.94 589.635 3018.3 589.635 Q3010.63 589.635 3006.27 584.67 Q3001.94 579.673 3001.94 570.92 Q3001.94 562.135 3006.27 557.17 Q3010.63 552.205 3018.3 552.205 Z" fill="#000000" fill-rule="evenodd" fill-opacity="1" /><path clip-path="url(#clip5300)" d="M 0 0 M3057.01 570.793 Q3049.91 570.793 3047.17 572.416 Q3044.43 574.039 3044.43 577.954 Q3044.43 581.073 3046.47 582.919 Q3048.54 584.734 3052.07 584.734 Q3056.94 584.734 3059.87 581.296 Q3062.83 577.827 3062.83 572.098 L3062.83 570.793 L3057.01 570.793 M3068.69 568.374 L3068.69 588.712 L3062.83 588.712 L3062.83 583.301 Q3060.83 586.548 3057.83 588.107 Q3054.84 589.635 3050.51 589.635 Q3045.04 589.635 3041.79 586.58 Q3038.58 583.492 3038.58 578.336 Q3038.58 572.32 3042.59 569.265 Q3046.63 566.209 3054.62 566.209 L3062.83 566.209 L3062.83 565.636 Q3062.83 561.594 3060.16 559.398 Q3057.52 557.17 3052.71 557.17 Q3049.65 557.17 3046.76 557.902 Q3043.86 558.634 3041.19 560.098 L3041.19 554.687 Q3044.4 553.446 3047.43 552.841 Q3050.45 552.205 3053.31 552.205 Q3061.05 552.205 3064.87 556.215 Q3068.69 560.226 3068.69 568.374 Z" fill="#000000" fill-rule="evenodd" fill-opacity="1" /><path clip-path="url(#clip5300)" d="M 0 0 M3098.29 558.475 L3098.29 539.187 L3104.14 539.187 L3104.14 588.712 L3098.29 588.712 L3098.29 583.365 Q3096.44 586.548 3093.61 588.107 Q3090.81 589.635 3086.86 589.635 Q3080.4 589.635 3076.33 584.479 Q3072.28 579.323 3072.28 570.92 Q3072.28 562.517 3076.33 557.361 Q3080.4 552.205 3086.86 552.205 Q3090.81 552.205 3093.61 553.764 Q3096.44 555.292 3098.29 558.475 M3078.33 570.92 Q3078.33 577.381 3080.97 581.073 Q3083.65 584.734 3088.29 584.734 Q3092.94 584.734 3095.61 581.073 Q3098.29 577.381 3098.29 570.92 Q3098.29 564.459 3095.61 560.799 Q3092.94 557.106 3088.29 557.106 Q3083.65 557.106 3080.97 560.799 Q3078.33 564.459 3078.33 570.92 Z" fill="#000000" fill-rule="evenodd" fill-opacity="1" /></svg>
