<?xml version="1.0" encoding="utf-8"?>
<svg xmlns="http://www.w3.org/2000/svg" xmlns:xlink="http://www.w3.org/1999/xlink" width="800" height="600" viewBox="0 0 3200 2400">
<defs>
  <clipPath id="clip7100">
    <rect x="0" y="0" width="3200" height="2400"/>
  </clipPath>
</defs>
<path clip-path="url(#clip7100)" d="
M0 2400 L3200 2400 L3200 0 L0 0  Z
  " fill="#ffffff" fill-rule="evenodd" fill-opacity="1"/>
<defs>
  <clipPath id="clip7101">
    <rect x="640" y="0" width="2241" height="2241"/>
  </clipPath>
</defs>
<path clip-path="url(#clip7100)" d="
M188.089 2204.92 L2617.92 2204.92 L2617.92 131.032 L188.089 131.032  Z
  " fill="#ffffff" fill-rule="evenodd" fill-opacity="1"/>
<defs>
  <clipPath id="clip7102">
    <rect x="188" y="131" width="2431" height="2075"/>
  </clipPath>
</defs>
<polyline clip-path="url(#clip7102)" style="stroke:#000000; stroke-width:2; stroke-opacity:0.1; fill:none" points="
  256.858,2204.92 256.858,131.032 
  "/>
<polyline clip-path="url(#clip7102)" style="stroke:#000000; stroke-width:2; stroke-opacity:0.1; fill:none" points="
  715.317,2204.92 715.317,131.032 
  "/>
<polyline clip-path="url(#clip7102)" style="stroke:#000000; stroke-width:2; stroke-opacity:0.1; fill:none" points="
  1173.78,2204.92 1173.78,131.032 
  "/>
<polyline clip-path="url(#clip7102)" style="stroke:#000000; stroke-width:2; stroke-opacity:0.1; fill:none" points="
  1632.24,2204.92 1632.24,131.032 
  "/>
<polyline clip-path="url(#clip7102)" style="stroke:#000000; stroke-width:2; stroke-opacity:0.1; fill:none" points="
  2090.7,2204.92 2090.7,131.032 
  "/>
<polyline clip-path="url(#clip7102)" style="stroke:#000000; stroke-width:2; stroke-opacity:0.1; fill:none" points="
  2549.15,2204.92 2549.15,131.032 
  "/>
<polyline clip-path="url(#clip7102)" style="stroke:#000000; stroke-width:2; stroke-opacity:0.1; fill:none" points="
  188.089,2099.73 2617.92,2099.73 
  "/>
<polyline clip-path="url(#clip7102)" style="stroke:#000000; stroke-width:2; stroke-opacity:0.1; fill:none" points="
  188.089,1607.21 2617.92,1607.21 
  "/>
<polyline clip-path="url(#clip7102)" style="stroke:#000000; stroke-width:2; stroke-opacity:0.1; fill:none" points="
  188.089,1114.69 2617.92,1114.69 
  "/>
<polyline clip-path="url(#clip7102)" style="stroke:#000000; stroke-width:2; stroke-opacity:0.1; fill:none" points="
  188.089,622.163 2617.92,622.163 
  "/>
<polyline clip-path="url(#clip7100)" style="stroke:#000000; stroke-width:4; stroke-opacity:1; fill:none" points="
  188.089,2204.92 2617.92,2204.92 
  "/>
<polyline clip-path="url(#clip7100)" style="stroke:#000000; stroke-width:4; stroke-opacity:1; fill:none" points="
  188.089,2204.92 188.089,131.032 
  "/>
<polyline clip-path="url(#clip7100)" style="stroke:#000000; stroke-width:4; stroke-opacity:1; fill:none" points="
  256.858,2204.92 256.858,2180.03 
  "/>
<polyline clip-path="url(#clip7100)" style="stroke:#000000; stroke-width:4; stroke-opacity:1; fill:none" points="
  715.317,2204.92 715.317,2180.03 
  "/>
<polyline clip-path="url(#clip7100)" style="stroke:#000000; stroke-width:4; stroke-opacity:1; fill:none" points="
  1173.78,2204.92 1173.78,2180.03 
  "/>
<polyline clip-path="url(#clip7100)" style="stroke:#000000; stroke-width:4; stroke-opacity:1; fill:none" points="
  1632.24,2204.92 1632.24,2180.03 
  "/>
<polyline clip-path="url(#clip7100)" style="stroke:#000000; stroke-width:4; stroke-opacity:1; fill:none" points="
  2090.7,2204.92 2090.7,2180.03 
  "/>
<polyline clip-path="url(#clip7100)" style="stroke:#000000; stroke-width:4; stroke-opacity:1; fill:none" points="
  2549.15,2204.92 2549.15,2180.03 
  "/>
<polyline clip-path="url(#clip7100)" style="stroke:#000000; stroke-width:4; stroke-opacity:1; fill:none" points="
  188.089,2099.73 217.247,2099.73 
  "/>
<polyline clip-path="url(#clip7100)" style="stroke:#000000; stroke-width:4; stroke-opacity:1; fill:none" points="
  188.089,1607.21 217.247,1607.21 
  "/>
<polyline clip-path="url(#clip7100)" style="stroke:#000000; stroke-width:4; stroke-opacity:1; fill:none" points="
  188.089,1114.69 217.247,1114.69 
  "/>
<polyline clip-path="url(#clip7100)" style="stroke:#000000; stroke-width:4; stroke-opacity:1; fill:none" points="
  188.089,622.163 217.247,622.163 
  "/>
<path clip-path="url(#clip7100)" d="M 0 0 M256.858 2230.91 Q253.247 2230.91 251.418 2234.48 Q249.612 2238.02 249.612 2245.15 Q249.612 2252.25 251.418 2255.82 Q253.247 2259.36 256.858 2259.36 Q260.492 2259.36 262.298 2255.82 Q264.126 2252.25 264.126 2245.15 Q264.126 2238.02 262.298 2234.48 Q260.492 2230.91 256.858 2230.91 M256.858 2227.21 Q262.668 2227.21 265.724 2231.81 Q268.802 2236.4 268.802 2245.15 Q268.802 2253.87 265.724 2258.48 Q262.668 2263.06 256.858 2263.06 Q251.048 2263.06 247.969 2258.48 Q244.913 2253.87 244.913 2245.15 Q244.913 2236.4 247.969 2231.81 Q251.048 2227.21 256.858 2227.21 Z" fill="#000000" fill-rule="evenodd" fill-opacity="1" /><path clip-path="url(#clip7100)" d="M 0 0 M705.699 2258.46 L713.338 2258.46 L713.338 2232.09 L705.028 2233.76 L705.028 2229.5 L713.292 2227.83 L717.968 2227.83 L717.968 2258.46 L725.606 2258.46 L725.606 2262.39 L705.699 2262.39 L705.699 2258.46 Z" fill="#000000" fill-rule="evenodd" fill-opacity="1" /><path clip-path="url(#clip7100)" d="M 0 0 M1168.43 2258.46 L1184.75 2258.46 L1184.75 2262.39 L1162.8 2262.39 L1162.8 2258.46 Q1165.47 2255.7 1170.05 2251.07 Q1174.66 2246.42 1175.84 2245.08 Q1178.08 2242.55 1178.96 2240.82 Q1179.86 2239.06 1179.86 2237.37 Q1179.86 2234.61 1177.92 2232.88 Q1176 2231.14 1172.9 2231.14 Q1170.7 2231.14 1168.24 2231.91 Q1165.81 2232.67 1163.04 2234.22 L1163.04 2229.5 Q1165.86 2228.36 1168.31 2227.79 Q1170.77 2227.21 1172.8 2227.21 Q1178.17 2227.21 1181.37 2229.89 Q1184.56 2232.58 1184.56 2237.07 Q1184.56 2239.2 1183.75 2241.12 Q1182.97 2243.02 1180.86 2245.61 Q1180.28 2246.28 1177.18 2249.5 Q1174.08 2252.69 1168.43 2258.46 Z" fill="#000000" fill-rule="evenodd" fill-opacity="1" /><path clip-path="url(#clip7100)" d="M 0 0 M1636.48 2243.76 Q1639.84 2244.48 1641.71 2246.74 Q1643.61 2249.01 1643.61 2252.35 Q1643.61 2257.46 1640.09 2260.26 Q1636.58 2263.06 1630.09 2263.06 Q1627.92 2263.06 1625.6 2262.62 Q1623.31 2262.21 1620.86 2261.35 L1620.86 2256.84 Q1622.8 2257.97 1625.12 2258.55 Q1627.43 2259.13 1629.96 2259.13 Q1634.35 2259.13 1636.65 2257.39 Q1638.96 2255.66 1638.96 2252.35 Q1638.96 2249.29 1636.81 2247.58 Q1634.68 2245.84 1630.86 2245.84 L1626.83 2245.84 L1626.83 2242 L1631.04 2242 Q1634.49 2242 1636.32 2240.63 Q1638.15 2239.24 1638.15 2236.65 Q1638.15 2233.99 1636.25 2232.58 Q1634.38 2231.14 1630.86 2231.14 Q1628.94 2231.14 1626.74 2231.56 Q1624.54 2231.98 1621.9 2232.85 L1621.9 2228.69 Q1624.56 2227.95 1626.88 2227.58 Q1629.21 2227.21 1631.28 2227.21 Q1636.6 2227.21 1639.7 2229.64 Q1642.8 2232.04 1642.8 2236.17 Q1642.8 2239.04 1641.16 2241.03 Q1639.52 2242.99 1636.48 2243.76 Z" fill="#000000" fill-rule="evenodd" fill-opacity="1" /><path clip-path="url(#clip7100)" d="M 0 0 M2093.7 2231.91 L2081.9 2250.35 L2093.7 2250.35 L2093.7 2231.91 M2092.48 2227.83 L2098.36 2227.83 L2098.36 2250.35 L2103.29 2250.35 L2103.29 2254.24 L2098.36 2254.24 L2098.36 2262.39 L2093.7 2262.39 L2093.7 2254.24 L2078.1 2254.24 L2078.1 2249.73 L2092.48 2227.83 Z" fill="#000000" fill-rule="evenodd" fill-opacity="1" /><path clip-path="url(#clip7100)" d="M 0 0 M2539.43 2227.83 L2557.79 2227.83 L2557.79 2231.77 L2543.71 2231.77 L2543.71 2240.24 Q2544.73 2239.89 2545.75 2239.73 Q2546.77 2239.54 2547.79 2239.54 Q2553.58 2239.54 2556.96 2242.72 Q2560.33 2245.89 2560.33 2251.3 Q2560.33 2256.88 2556.86 2259.98 Q2553.39 2263.06 2547.07 2263.06 Q2544.9 2263.06 2542.63 2262.69 Q2540.38 2262.32 2537.97 2261.58 L2537.97 2256.88 Q2540.06 2258.02 2542.28 2258.57 Q2544.5 2259.13 2546.98 2259.13 Q2550.98 2259.13 2553.32 2257.02 Q2555.66 2254.92 2555.66 2251.3 Q2555.66 2247.69 2553.32 2245.59 Q2550.98 2243.48 2546.98 2243.48 Q2545.1 2243.48 2543.23 2243.9 Q2541.38 2244.31 2539.43 2245.19 L2539.43 2227.83 Z" fill="#000000" fill-rule="evenodd" fill-opacity="1" /><path clip-path="url(#clip7100)" d="M 0 0 M144.145 2085.53 Q140.533 2085.53 138.705 2089.1 Q136.899 2092.64 136.899 2099.77 Q136.899 2106.87 138.705 2110.44 Q140.533 2113.98 144.145 2113.98 Q147.779 2113.98 149.584 2110.44 Q151.413 2106.87 151.413 2099.77 Q151.413 2092.64 149.584 2089.1 Q147.779 2085.53 144.145 2085.53 M144.145 2081.83 Q149.955 2081.83 153.01 2086.44 Q156.089 2091.02 156.089 2099.77 Q156.089 2108.5 153.01 2113.1 Q149.955 2117.69 144.145 2117.69 Q138.334 2117.69 135.256 2113.1 Q132.2 2108.5 132.2 2099.77 Q132.2 2091.02 135.256 2086.44 Q138.334 2081.83 144.145 2081.83 Z" fill="#000000" fill-rule="evenodd" fill-opacity="1" /><path clip-path="url(#clip7100)" d="M 0 0 M136.182 1620.56 L143.82 1620.56 L143.82 1594.19 L135.51 1595.86 L135.51 1591.6 L143.774 1589.93 L148.45 1589.93 L148.45 1620.56 L156.089 1620.56 L156.089 1624.49 L136.182 1624.49 L136.182 1620.56 Z" fill="#000000" fill-rule="evenodd" fill-opacity="1" /><path clip-path="url(#clip7100)" d="M 0 0 M139.77 1128.03 L156.089 1128.03 L156.089 1131.97 L134.145 1131.97 L134.145 1128.03 Q136.807 1125.28 141.39 1120.65 Q145.996 1115.99 147.177 1114.65 Q149.422 1112.13 150.302 1110.39 Q151.205 1108.63 151.205 1106.94 Q151.205 1104.19 149.26 1102.45 Q147.339 1100.72 144.237 1100.72 Q142.038 1100.72 139.584 1101.48 Q137.154 1102.24 134.376 1103.8 L134.376 1099.07 Q137.2 1097.94 139.654 1097.36 Q142.108 1096.78 144.145 1096.78 Q149.515 1096.78 152.709 1099.47 Q155.904 1102.15 155.904 1106.64 Q155.904 1108.77 155.094 1110.69 Q154.307 1112.59 152.2 1115.18 Q151.621 1115.86 148.52 1119.07 Q145.418 1122.27 139.77 1128.03 Z" fill="#000000" fill-rule="evenodd" fill-opacity="1" /><path clip-path="url(#clip7100)" d="M 0 0 M148.959 620.809 Q152.316 621.527 154.191 623.795 Q156.089 626.064 156.089 629.397 Q156.089 634.513 152.57 637.314 Q149.052 640.114 142.57 640.114 Q140.395 640.114 138.08 639.675 Q135.788 639.258 133.334 638.401 L133.334 633.888 Q135.279 635.022 137.594 635.601 Q139.908 636.179 142.432 636.179 Q146.83 636.179 149.121 634.443 Q151.436 632.707 151.436 629.397 Q151.436 626.341 149.283 624.628 Q147.154 622.892 143.334 622.892 L139.307 622.892 L139.307 619.05 L143.52 619.05 Q146.969 619.05 148.797 617.684 Q150.626 616.295 150.626 613.703 Q150.626 611.04 148.728 609.628 Q146.853 608.193 143.334 608.193 Q141.413 608.193 139.214 608.61 Q137.015 609.027 134.376 609.906 L134.376 605.74 Q137.038 604.999 139.353 604.628 Q141.691 604.258 143.751 604.258 Q149.075 604.258 152.177 606.689 Q155.279 609.096 155.279 613.216 Q155.279 616.087 153.635 618.077 Q151.992 620.045 148.959 620.809 Z" fill="#000000" fill-rule="evenodd" fill-opacity="1" /><path clip-path="url(#clip7100)" d="M 0 0 M577.614 12.096 L585.797 12.096 L585.797 36.8875 L615.531 36.8875 L615.531 12.096 L623.713 12.096 L623.713 72.576 L615.531 72.576 L615.531 43.7741 L585.797 43.7741 L585.797 72.576 L577.614 72.576 L577.614 12.096 Z" fill="#000000" fill-rule="evenodd" fill-opacity="1" /><path clip-path="url(#clip7100)" d="M 0 0 M649.113 32.4315 Q643.117 32.4315 639.634 37.1306 Q636.15 41.7891 636.15 49.9314 Q636.15 58.0738 639.593 62.7728 Q643.077 67.4314 649.113 67.4314 Q655.067 67.4314 658.551 62.7323 Q662.035 58.0333 662.035 49.9314 Q662.035 41.8701 658.551 37.1711 Q655.067 32.4315 649.113 32.4315 M649.113 26.1121 Q658.835 26.1121 664.385 32.4315 Q669.934 38.7509 669.934 49.9314 Q669.934 61.0714 664.385 67.4314 Q658.835 73.7508 649.113 73.7508 Q639.35 73.7508 633.8 67.4314 Q628.291 61.0714 628.291 49.9314 Q628.291 38.7509 633.8 32.4315 Q639.35 26.1121 649.113 26.1121 Z" fill="#000000" fill-rule="evenodd" fill-opacity="1" /><path clip-path="url(#clip7100)" d="M 0 0 M672.405 27.2059 L680.305 27.2059 L694.483 65.2844 L708.661 27.2059 L716.56 27.2059 L699.546 72.576 L689.419 72.576 L672.405 27.2059 Z" fill="#000000" fill-rule="evenodd" fill-opacity="1" /><path clip-path="url(#clip7100)" d="M 0 0 M763.186 48.0275 L763.186 51.6733 L728.915 51.6733 Q729.402 59.3701 733.533 63.421 Q737.706 67.4314 745.119 67.4314 Q749.413 67.4314 753.423 66.3781 Q757.474 65.3249 761.444 63.2184 L761.444 70.267 Q757.434 71.9684 753.221 72.8596 Q749.008 73.7508 744.673 73.7508 Q733.817 73.7508 727.457 67.4314 Q721.138 61.1119 721.138 50.3365 Q721.138 39.1965 727.133 32.6746 Q733.169 26.1121 743.377 26.1121 Q752.532 26.1121 757.839 32.0264 Q763.186 37.9003 763.186 48.0275 M755.732 45.84 Q755.651 39.7232 752.289 36.0774 Q748.967 32.4315 743.458 32.4315 Q737.22 32.4315 733.452 35.9558 Q729.726 39.4801 729.158 45.8805 L755.732 45.84 Z" fill="#000000" fill-rule="evenodd" fill-opacity="1" /><path clip-path="url(#clip7100)" d="M 0 0 M797.295 34.1734 Q796.039 33.4443 794.54 33.1202 Q793.082 32.7556 791.299 32.7556 Q784.98 32.7556 781.577 36.8875 Q778.215 40.9789 778.215 48.6757 L778.215 72.576 L770.721 72.576 L770.721 27.2059 L778.215 27.2059 L778.215 34.2544 Q780.564 30.1225 784.332 28.1376 Q788.099 26.1121 793.487 26.1121 Q794.257 26.1121 795.188 26.2337 Q796.12 26.3147 797.254 26.5172 L797.295 34.1734 Z" fill="#000000" fill-rule="evenodd" fill-opacity="1" /><path clip-path="url(#clip7100)" d="M 0 0 M805.113 27.2059 L812.567 27.2059 L812.567 72.576 L805.113 72.576 L805.113 27.2059 M805.113 9.54393 L812.567 9.54393 L812.567 18.9825 L805.113 18.9825 L805.113 9.54393 Z" fill="#000000" fill-rule="evenodd" fill-opacity="1" /><path clip-path="url(#clip7100)" d="M 0 0 M858.099 45.1919 L858.099 72.576 L850.645 72.576 L850.645 45.4349 Q850.645 38.994 848.134 35.7938 Q845.622 32.5936 840.599 32.5936 Q834.563 32.5936 831.079 36.4419 Q827.595 40.2903 827.595 46.9338 L827.595 72.576 L820.101 72.576 L820.101 27.2059 L827.595 27.2059 L827.595 34.2544 Q830.269 30.163 833.874 28.1376 Q837.52 26.1121 842.26 26.1121 Q850.078 26.1121 854.088 30.9732 Q858.099 35.7938 858.099 45.1919 Z" fill="#000000" fill-rule="evenodd" fill-opacity="1" /><path clip-path="url(#clip7100)" d="M 0 0 M895.772 49.3643 Q895.772 41.2625 892.41 36.8065 Q889.088 32.3505 883.052 32.3505 Q877.057 32.3505 873.695 36.8065 Q870.373 41.2625 870.373 49.3643 Q870.373 57.4256 873.695 61.8816 Q877.057 66.3376 883.052 66.3376 Q889.088 66.3376 892.41 61.8816 Q895.772 57.4256 895.772 49.3643 M903.226 66.9452 Q903.226 78.5308 898.081 84.1616 Q892.937 89.8329 882.323 89.8329 Q878.394 89.8329 874.91 89.2252 Q871.426 88.6581 868.145 87.4428 L868.145 80.1917 Q871.426 81.9741 874.626 82.8248 Q877.827 83.6755 881.148 83.6755 Q888.481 83.6755 892.126 79.8271 Q895.772 76.0193 895.772 68.282 L895.772 64.5957 Q893.463 68.6061 889.858 70.5911 Q886.253 72.576 881.229 72.576 Q872.885 72.576 867.78 66.2161 Q862.676 59.8562 862.676 49.3643 Q862.676 38.832 867.78 32.472 Q872.885 26.1121 881.229 26.1121 Q886.253 26.1121 889.858 28.0971 Q893.463 30.082 895.772 34.0924 L895.772 27.2059 L903.226 27.2059 L903.226 66.9452 Z" fill="#000000" fill-rule="evenodd" fill-opacity="1" /><path clip-path="url(#clip7100)" d="M 0 0 M933.081 27.2059 L940.535 27.2059 L949.852 62.6108 L959.128 27.2059 L967.919 27.2059 L977.236 62.6108 L986.512 27.2059 L993.966 27.2059 L982.097 72.576 L973.306 72.576 L963.544 35.3887 L953.741 72.576 L944.95 72.576 L933.081 27.2059 Z" fill="#000000" fill-rule="evenodd" fill-opacity="1" /><path clip-path="url(#clip7100)" d="M 0 0 M1001.78 27.2059 L1009.24 27.2059 L1009.24 72.576 L1001.78 72.576 L1001.78 27.2059 M1001.78 9.54393 L1009.24 9.54393 L1009.24 18.9825 L1001.78 18.9825 L1001.78 9.54393 Z" fill="#000000" fill-rule="evenodd" fill-opacity="1" /><path clip-path="url(#clip7100)" d="M 0 0 M1024.43 14.324 L1024.43 27.2059 L1039.78 27.2059 L1039.78 32.9987 L1024.43 32.9987 L1024.43 57.6282 Q1024.43 63.1779 1025.93 64.7578 Q1027.47 66.3376 1032.13 66.3376 L1039.78 66.3376 L1039.78 72.576 L1032.13 72.576 Q1023.5 72.576 1020.22 69.3758 Q1016.93 66.1351 1016.93 57.6282 L1016.93 32.9987 L1011.47 32.9987 L1011.47 27.2059 L1016.93 27.2059 L1016.93 14.324 L1024.43 14.324 Z" fill="#000000" fill-rule="evenodd" fill-opacity="1" /><path clip-path="url(#clip7100)" d="M 0 0 M1085.31 45.1919 L1085.31 72.576 L1077.86 72.576 L1077.86 45.4349 Q1077.86 38.994 1075.35 35.7938 Q1072.84 32.5936 1067.81 32.5936 Q1061.78 32.5936 1058.29 36.4419 Q1054.81 40.2903 1054.81 46.9338 L1054.81 72.576 L1047.32 72.576 L1047.32 9.54393 L1054.81 9.54393 L1054.81 34.2544 Q1057.48 30.163 1061.09 28.1376 Q1064.74 26.1121 1069.47 26.1121 Q1077.29 26.1121 1081.3 30.9732 Q1085.31 35.7938 1085.31 45.1919 Z" fill="#000000" fill-rule="evenodd" fill-opacity="1" /><path clip-path="url(#clip7100)" d="M 0 0 M1143.04 19.2256 L1122.38 51.5113 L1143.04 51.5113 L1143.04 19.2256 M1140.89 12.096 L1151.18 12.096 L1151.18 51.5113 L1159.81 51.5113 L1159.81 58.3168 L1151.18 58.3168 L1151.18 72.576 L1143.04 72.576 L1143.04 58.3168 L1115.74 58.3168 L1115.74 50.4176 L1140.89 12.096 Z" fill="#000000" fill-rule="evenodd" fill-opacity="1" /><path clip-path="url(#clip7100)" d="M 0 0 M1218.87 17.6457 Q1209.96 17.6457 1204.69 24.2892 Q1199.47 30.9327 1199.47 42.3968 Q1199.47 53.8203 1204.69 60.4638 Q1209.96 67.1073 1218.87 67.1073 Q1227.78 67.1073 1232.97 60.4638 Q1238.2 53.8203 1238.2 42.3968 Q1238.2 30.9327 1232.97 24.2892 Q1227.78 17.6457 1218.87 17.6457 M1230.34 71.4823 L1241.11 83.2704 L1231.23 83.2704 L1222.28 73.5887 Q1220.94 73.6697 1220.21 73.7103 Q1219.52 73.7508 1218.87 73.7508 Q1206.11 73.7508 1198.46 65.2439 Q1190.84 56.6965 1190.84 42.3968 Q1190.84 28.0566 1198.46 19.5497 Q1206.11 11.0023 1218.87 11.0023 Q1231.59 11.0023 1239.21 19.5497 Q1246.82 28.0566 1246.82 42.3968 Q1246.82 52.9291 1242.57 60.4233 Q1238.36 67.9175 1230.34 71.4823 Z" fill="#000000" fill-rule="evenodd" fill-opacity="1" /><path clip-path="url(#clip7100)" d="M 0 0 M1253.87 54.671 L1253.87 27.2059 L1261.33 27.2059 L1261.33 54.3874 Q1261.33 60.8284 1263.84 64.0691 Q1266.35 67.2693 1271.37 67.2693 Q1277.41 67.2693 1280.89 63.421 Q1284.42 59.5726 1284.42 52.9291 L1284.42 27.2059 L1291.87 27.2059 L1291.87 72.576 L1284.42 72.576 L1284.42 65.6084 Q1281.7 69.7404 1278.1 71.7658 Q1274.53 73.7508 1269.79 73.7508 Q1261.97 73.7508 1257.92 68.8897 Q1253.87 64.0286 1253.87 54.671 M1272.63 26.1121 L1272.63 26.1121 Z" fill="#000000" fill-rule="evenodd" fill-opacity="1" /><path clip-path="url(#clip7100)" d="M 0 0 M1320.31 49.7694 Q1311.27 49.7694 1307.79 51.8354 Q1304.31 53.9013 1304.31 58.8839 Q1304.31 62.8538 1306.9 65.2034 Q1309.53 67.5124 1314.03 67.5124 Q1320.23 67.5124 1323.95 63.1374 Q1327.72 58.7219 1327.72 51.4303 L1327.72 49.7694 L1320.31 49.7694 M1335.17 46.6907 L1335.17 72.576 L1327.72 72.576 L1327.72 65.6895 Q1325.17 69.8214 1321.36 71.8063 Q1317.55 73.7508 1312.04 73.7508 Q1305.08 73.7508 1300.94 69.8619 Q1296.85 65.9325 1296.85 59.3701 Q1296.85 51.7138 1301.96 47.825 Q1307.1 43.9361 1317.27 43.9361 L1327.72 43.9361 L1327.72 43.2069 Q1327.72 38.0623 1324.32 35.2672 Q1320.96 32.4315 1314.84 32.4315 Q1310.95 32.4315 1307.26 33.3632 Q1303.58 34.295 1300.17 36.1584 L1300.17 29.2718 Q1304.27 27.692 1308.11 26.9223 Q1311.96 26.1121 1315.61 26.1121 Q1325.45 26.1121 1330.31 31.2163 Q1335.17 36.3204 1335.17 46.6907 Z" fill="#000000" fill-rule="evenodd" fill-opacity="1" /><path clip-path="url(#clip7100)" d="M 0 0 M1372.85 34.0924 L1372.85 9.54393 L1380.3 9.54393 L1380.3 72.576 L1372.85 72.576 L1372.85 65.7705 Q1370.5 69.8214 1366.89 71.8063 Q1363.33 73.7508 1358.3 73.7508 Q1350.08 73.7508 1344.9 67.1883 Q1339.75 60.6258 1339.75 49.9314 Q1339.75 39.2371 1344.9 32.6746 Q1350.08 26.1121 1358.3 26.1121 Q1363.33 26.1121 1366.89 28.0971 Q1370.5 30.0415 1372.85 34.0924 M1347.45 49.9314 Q1347.45 58.1548 1350.81 62.8538 Q1354.21 67.5124 1360.13 67.5124 Q1366.04 67.5124 1369.44 62.8538 Q1372.85 58.1548 1372.85 49.9314 Q1372.85 41.7081 1369.44 37.0496 Q1366.04 32.3505 1360.13 32.3505 Q1354.21 32.3505 1350.81 37.0496 Q1347.45 41.7081 1347.45 49.9314 Z" fill="#000000" fill-rule="evenodd" fill-opacity="1" /><path clip-path="url(#clip7100)" d="M 0 0 M1414.41 34.1734 Q1413.15 33.4443 1411.65 33.1202 Q1410.2 32.7556 1408.41 32.7556 Q1402.09 32.7556 1398.69 36.8875 Q1395.33 40.9789 1395.33 48.6757 L1395.33 72.576 L1387.84 72.576 L1387.84 27.2059 L1395.33 27.2059 L1395.33 34.2544 Q1397.68 30.1225 1401.45 28.1376 Q1405.21 26.1121 1410.6 26.1121 Q1411.37 26.1121 1412.3 26.2337 Q1413.23 26.3147 1414.37 26.5172 L1414.41 34.1734 Z" fill="#000000" fill-rule="evenodd" fill-opacity="1" /><path clip-path="url(#clip7100)" d="M 0 0 M1437.99 32.4315 Q1431.99 32.4315 1428.51 37.1306 Q1425.02 41.7891 1425.02 49.9314 Q1425.02 58.0738 1428.47 62.7728 Q1431.95 67.4314 1437.99 67.4314 Q1443.94 67.4314 1447.42 62.7323 Q1450.91 58.0333 1450.91 49.9314 Q1450.91 41.8701 1447.42 37.1711 Q1443.94 32.4315 1437.99 32.4315 M1437.99 26.1121 Q1447.71 26.1121 1453.26 32.4315 Q1458.81 38.7509 1458.81 49.9314 Q1458.81 61.0714 1453.26 67.4314 Q1447.71 73.7508 1437.99 73.7508 Q1428.22 73.7508 1422.67 67.4314 Q1417.16 61.0714 1417.16 49.9314 Q1417.16 38.7509 1422.67 32.4315 Q1428.22 26.1121 1437.99 26.1121 Z" fill="#000000" fill-rule="evenodd" fill-opacity="1" /><path clip-path="url(#clip7100)" d="M 0 0 M1474 14.324 L1474 27.2059 L1489.35 27.2059 L1489.35 32.9987 L1474 32.9987 L1474 57.6282 Q1474 63.1779 1475.5 64.7578 Q1477.04 66.3376 1481.69 66.3376 L1489.35 66.3376 L1489.35 72.576 L1481.69 72.576 Q1473.07 72.576 1469.79 69.3758 Q1466.5 66.1351 1466.5 57.6282 L1466.5 32.9987 L1461.04 32.9987 L1461.04 27.2059 L1466.5 27.2059 L1466.5 14.324 L1474 14.324 Z" fill="#000000" fill-rule="evenodd" fill-opacity="1" /><path clip-path="url(#clip7100)" d="M 0 0 M1514.75 32.4315 Q1508.76 32.4315 1505.27 37.1306 Q1501.79 41.7891 1501.79 49.9314 Q1501.79 58.0738 1505.23 62.7728 Q1508.71 67.4314 1514.75 67.4314 Q1520.71 67.4314 1524.19 62.7323 Q1527.67 58.0333 1527.67 49.9314 Q1527.67 41.8701 1524.19 37.1711 Q1520.71 32.4315 1514.75 32.4315 M1514.75 26.1121 Q1524.47 26.1121 1530.02 32.4315 Q1535.57 38.7509 1535.57 49.9314 Q1535.57 61.0714 1530.02 67.4314 Q1524.47 73.7508 1514.75 73.7508 Q1504.99 73.7508 1499.44 67.4314 Q1493.93 61.0714 1493.93 49.9314 Q1493.93 38.7509 1499.44 32.4315 Q1504.99 26.1121 1514.75 26.1121 Z" fill="#000000" fill-rule="evenodd" fill-opacity="1" /><path clip-path="url(#clip7100)" d="M 0 0 M1569.68 34.1734 Q1568.42 33.4443 1566.93 33.1202 Q1565.47 32.7556 1563.69 32.7556 Q1557.37 32.7556 1553.96 36.8875 Q1550.6 40.9789 1550.6 48.6757 L1550.6 72.576 L1543.11 72.576 L1543.11 27.2059 L1550.6 27.2059 L1550.6 34.2544 Q1552.95 30.1225 1556.72 28.1376 Q1560.49 26.1121 1565.87 26.1121 Q1566.64 26.1121 1567.57 26.2337 Q1568.51 26.3147 1569.64 26.5172 L1569.68 34.1734 Z" fill="#000000" fill-rule="evenodd" fill-opacity="1" /><path clip-path="url(#clip7100)" d="M 0 0 M1606.42 28.5427 L1606.42 35.5912 Q1603.26 33.9709 1599.86 33.1607 Q1596.46 32.3505 1592.81 32.3505 Q1587.26 32.3505 1584.47 34.0519 Q1581.71 35.7533 1581.71 39.156 Q1581.71 41.7486 1583.7 43.2475 Q1585.68 44.7058 1591.68 46.0426 L1594.23 46.6097 Q1602.17 48.3111 1605.49 51.4303 Q1608.85 54.509 1608.85 60.0587 Q1608.85 66.3781 1603.83 70.0644 Q1598.85 73.7508 1590.1 73.7508 Q1586.45 73.7508 1582.48 73.0216 Q1578.55 72.3329 1574.18 70.9151 L1574.18 63.2184 Q1578.31 65.3654 1582.32 66.4591 Q1586.33 67.5124 1590.26 67.5124 Q1595.53 67.5124 1598.36 65.73 Q1601.2 63.9071 1601.2 60.6258 Q1601.2 57.5877 1599.13 55.9673 Q1597.11 54.3469 1590.18 52.8481 L1587.59 52.2405 Q1580.66 50.7821 1577.58 47.7845 Q1574.5 44.7463 1574.5 39.4801 Q1574.5 33.0797 1579.04 29.5959 Q1583.58 26.1121 1591.92 26.1121 Q1596.05 26.1121 1599.7 26.7198 Q1603.34 27.3274 1606.42 28.5427 Z" fill="#000000" fill-rule="evenodd" fill-opacity="1" /><path clip-path="url(#clip7100)" d="M 0 0 M1639.28 46.5287 L1661.11 46.5287 L1661.11 53.1722 L1639.28 53.1722 L1639.28 46.5287 Z" fill="#000000" fill-rule="evenodd" fill-opacity="1" /><path clip-path="url(#clip7100)" d="M 0 0 M1715.84 20.1573 L1704.74 50.2555 L1726.98 50.2555 L1715.84 20.1573 M1711.22 12.096 L1720.5 12.096 L1743.55 72.576 L1735.04 72.576 L1729.53 57.061 L1702.27 57.061 L1696.76 72.576 L1688.13 72.576 L1711.22 12.096 Z" fill="#000000" fill-rule="evenodd" fill-opacity="1" /><path clip-path="url(#clip7100)" d="M 0 0 M1781.22 49.3643 Q1781.22 41.2625 1777.86 36.8065 Q1774.53 32.3505 1768.5 32.3505 Q1762.5 32.3505 1759.14 36.8065 Q1755.82 41.2625 1755.82 49.3643 Q1755.82 57.4256 1759.14 61.8816 Q1762.5 66.3376 1768.5 66.3376 Q1774.53 66.3376 1777.86 61.8816 Q1781.22 57.4256 1781.22 49.3643 M1788.67 66.9452 Q1788.67 78.5308 1783.53 84.1616 Q1778.38 89.8329 1767.77 89.8329 Q1763.84 89.8329 1760.36 89.2252 Q1756.87 88.6581 1753.59 87.4428 L1753.59 80.1917 Q1756.87 81.9741 1760.07 82.8248 Q1763.27 83.6755 1766.6 83.6755 Q1773.93 83.6755 1777.57 79.8271 Q1781.22 76.0193 1781.22 68.282 L1781.22 64.5957 Q1778.91 68.6061 1775.3 70.5911 Q1771.7 72.576 1766.68 72.576 Q1758.33 72.576 1753.23 66.2161 Q1748.12 59.8562 1748.12 49.3643 Q1748.12 38.832 1753.23 32.472 Q1758.33 26.1121 1766.68 26.1121 Q1771.7 26.1121 1775.3 28.0971 Q1778.91 30.082 1781.22 34.0924 L1781.22 27.2059 L1788.67 27.2059 L1788.67 66.9452 Z" fill="#000000" fill-rule="evenodd" fill-opacity="1" /><path clip-path="url(#clip7100)" d="M 0 0 M1835.3 48.0275 L1835.3 51.6733 L1801.03 51.6733 Q1801.51 59.3701 1805.65 63.421 Q1809.82 67.4314 1817.23 67.4314 Q1821.53 67.4314 1825.54 66.3781 Q1829.59 65.3249 1833.56 63.2184 L1833.56 70.267 Q1829.55 71.9684 1825.33 72.8596 Q1821.12 73.7508 1816.79 73.7508 Q1805.93 73.7508 1799.57 67.4314 Q1793.25 61.1119 1793.25 50.3365 Q1793.25 39.1965 1799.25 32.6746 Q1805.28 26.1121 1815.49 26.1121 Q1824.64 26.1121 1829.95 32.0264 Q1835.3 37.9003 1835.3 48.0275 M1827.84 45.84 Q1827.76 39.7232 1824.4 36.0774 Q1821.08 32.4315 1815.57 32.4315 Q1809.33 32.4315 1805.56 35.9558 Q1801.84 39.4801 1801.27 45.8805 L1827.84 45.84 Z" fill="#000000" fill-rule="evenodd" fill-opacity="1" /><path clip-path="url(#clip7100)" d="M 0 0 M1880.83 45.1919 L1880.83 72.576 L1873.38 72.576 L1873.38 45.4349 Q1873.38 38.994 1870.87 35.7938 Q1868.35 32.5936 1863.33 32.5936 Q1857.29 32.5936 1853.81 36.4419 Q1850.33 40.2903 1850.33 46.9338 L1850.33 72.576 L1842.83 72.576 L1842.83 27.2059 L1850.33 27.2059 L1850.33 34.2544 Q1853 30.163 1856.61 28.1376 Q1860.25 26.1121 1864.99 26.1121 Q1872.81 26.1121 1876.82 30.9732 Q1880.83 35.7938 1880.83 45.1919 Z" fill="#000000" fill-rule="evenodd" fill-opacity="1" /><path clip-path="url(#clip7100)" d="M 0 0 M1896.02 14.324 L1896.02 27.2059 L1911.37 27.2059 L1911.37 32.9987 L1896.02 32.9987 L1896.02 57.6282 Q1896.02 63.1779 1897.52 64.7578 Q1899.06 66.3376 1903.72 66.3376 L1911.37 66.3376 L1911.37 72.576 L1903.72 72.576 Q1895.09 72.576 1891.81 69.3758 Q1888.53 66.1351 1888.53 57.6282 L1888.53 32.9987 L1883.06 32.9987 L1883.06 27.2059 L1888.53 27.2059 L1888.53 14.324 L1896.02 14.324 Z" fill="#000000" fill-rule="evenodd" fill-opacity="1" /><path clip-path="url(#clip7100)" d="M 0 0 M1961.48 72.576 L1938.39 12.096 L1946.94 12.096 L1966.1 63.0159 L1985.3 12.096 L1993.81 12.096 L1970.76 72.576 L1961.48 72.576 Z" fill="#000000" fill-rule="evenodd" fill-opacity="1" /><path clip-path="url(#clip7100)" d="M 0 0 M2034 48.0275 L2034 51.6733 L1999.72 51.6733 Q2000.21 59.3701 2004.34 63.421 Q2008.52 67.4314 2015.93 67.4314 Q2020.22 67.4314 2024.23 66.3781 Q2028.28 65.3249 2032.25 63.2184 L2032.25 70.267 Q2028.24 71.9684 2024.03 72.8596 Q2019.82 73.7508 2015.48 73.7508 Q2004.63 73.7508 1998.27 67.4314 Q1991.95 61.1119 1991.95 50.3365 Q1991.95 39.1965 1997.94 32.6746 Q2003.98 26.1121 2014.19 26.1121 Q2023.34 26.1121 2028.65 32.0264 Q2034 37.9003 2034 48.0275 M2026.54 45.84 Q2026.46 39.7232 2023.1 36.0774 Q2019.78 32.4315 2014.27 32.4315 Q2008.03 32.4315 2004.26 35.9558 Q2000.53 39.4801 1999.97 45.8805 L2026.54 45.84 Z" fill="#000000" fill-rule="evenodd" fill-opacity="1" /><path clip-path="url(#clip7100)" d="M 0 0 M2041.81 9.54393 L2049.27 9.54393 L2049.27 72.576 L2041.81 72.576 L2041.81 9.54393 Z" fill="#000000" fill-rule="evenodd" fill-opacity="1" /><path clip-path="url(#clip7100)" d="M 0 0 M2074.67 32.4315 Q2068.67 32.4315 2065.19 37.1306 Q2061.7 41.7891 2061.7 49.9314 Q2061.7 58.0738 2065.15 62.7728 Q2068.63 67.4314 2074.67 67.4314 Q2080.62 67.4314 2084.1 62.7323 Q2087.59 58.0333 2087.59 49.9314 Q2087.59 41.8701 2084.1 37.1711 Q2080.62 32.4315 2074.67 32.4315 M2074.67 26.1121 Q2084.39 26.1121 2089.94 32.4315 Q2095.49 38.7509 2095.49 49.9314 Q2095.49 61.0714 2089.94 67.4314 Q2084.39 73.7508 2074.67 73.7508 Q2064.9 73.7508 2059.35 67.4314 Q2053.84 61.0714 2053.84 49.9314 Q2053.84 38.7509 2059.35 32.4315 Q2064.9 26.1121 2074.67 26.1121 Z" fill="#000000" fill-rule="evenodd" fill-opacity="1" /><path clip-path="url(#clip7100)" d="M 0 0 M2135.96 28.9478 L2135.96 35.9153 Q2132.8 34.1734 2129.6 33.3227 Q2126.44 32.4315 2123.2 32.4315 Q2115.95 32.4315 2111.93 37.0496 Q2107.92 41.6271 2107.92 49.9314 Q2107.92 58.2358 2111.93 62.8538 Q2115.95 67.4314 2123.2 67.4314 Q2126.44 67.4314 2129.6 66.5807 Q2132.8 65.6895 2135.96 63.9476 L2135.96 70.8341 Q2132.84 72.2924 2129.48 73.0216 Q2126.15 73.7508 2122.39 73.7508 Q2112.14 73.7508 2106.1 67.3098 Q2100.07 60.8689 2100.07 49.9314 Q2100.07 38.832 2106.14 32.472 Q2112.26 26.1121 2122.87 26.1121 Q2126.32 26.1121 2129.6 26.8413 Q2132.88 27.5299 2135.96 28.9478 Z" fill="#000000" fill-rule="evenodd" fill-opacity="1" /><path clip-path="url(#clip7100)" d="M 0 0 M2143.77 27.2059 L2151.23 27.2059 L2151.23 72.576 L2143.77 72.576 L2143.77 27.2059 M2143.77 9.54393 L2151.23 9.54393 L2151.23 18.9825 L2143.77 18.9825 L2143.77 9.54393 Z" fill="#000000" fill-rule="evenodd" fill-opacity="1" /><path clip-path="url(#clip7100)" d="M 0 0 M2166.42 14.324 L2166.42 27.2059 L2181.77 27.2059 L2181.77 32.9987 L2166.42 32.9987 L2166.42 57.6282 Q2166.42 63.1779 2167.92 64.7578 Q2169.46 66.3376 2174.12 66.3376 L2181.77 66.3376 L2181.77 72.576 L2174.12 72.576 Q2165.49 72.576 2162.21 69.3758 Q2158.93 66.1351 2158.93 57.6282 L2158.93 32.9987 L2153.46 32.9987 L2153.46 27.2059 L2158.93 27.2059 L2158.93 14.324 L2166.42 14.324 Z" fill="#000000" fill-rule="evenodd" fill-opacity="1" /><path clip-path="url(#clip7100)" d="M 0 0 M2208.47 76.7889 Q2205.31 84.8907 2202.31 87.3618 Q2199.31 89.8329 2194.29 89.8329 L2188.33 89.8329 L2188.33 83.5945 L2192.71 83.5945 Q2195.79 83.5945 2197.49 82.1361 Q2199.19 80.6778 2201.26 75.2496 L2202.59 71.8468 L2184.24 27.2059 L2192.14 27.2059 L2206.32 62.6918 L2220.5 27.2059 L2228.4 27.2059 L2208.47 76.7889 Z" fill="#000000" fill-rule="evenodd" fill-opacity="1" /><path clip-path="url(#clip7100)" d="M 0 0 M1284.84 2298.26 L1325.04 2298.26 L1325.04 2303.67 L1308.17 2303.67 L1308.17 2345.78 L1301.71 2345.78 L1301.71 2303.67 L1284.84 2303.67 L1284.84 2298.26 Z" fill="#000000" fill-rule="evenodd" fill-opacity="1" /><path clip-path="url(#clip7100)" d="M 0 0 M1329.18 2310.14 L1335.04 2310.14 L1335.04 2345.78 L1329.18 2345.78 L1329.18 2310.14 M1329.18 2296.26 L1335.04 2296.26 L1335.04 2303.67 L1329.18 2303.67 L1329.18 2296.26 Z" fill="#000000" fill-rule="evenodd" fill-opacity="1" /><path clip-path="url(#clip7100)" d="M 0 0 M1368.93 2316.98 Q1371.13 2313.03 1374.19 2311.15 Q1377.24 2309.28 1381.38 2309.28 Q1386.95 2309.28 1389.97 2313.19 Q1393 2317.07 1393 2324.27 L1393 2345.78 L1387.11 2345.78 L1387.11 2324.46 Q1387.11 2319.33 1385.29 2316.85 Q1383.48 2314.37 1379.76 2314.37 Q1375.2 2314.37 1372.56 2317.39 Q1369.92 2320.42 1369.92 2325.64 L1369.92 2345.78 L1364.03 2345.78 L1364.03 2324.46 Q1364.03 2319.3 1362.22 2316.85 Q1360.4 2314.37 1356.62 2314.37 Q1352.13 2314.37 1349.49 2317.42 Q1346.84 2320.45 1346.84 2325.64 L1346.84 2345.78 L1340.96 2345.78 L1340.96 2310.14 L1346.84 2310.14 L1346.84 2315.67 Q1348.85 2312.4 1351.65 2310.84 Q1354.45 2309.28 1358.3 2309.28 Q1362.19 2309.28 1364.89 2311.25 Q1367.63 2313.22 1368.93 2316.98 Z" fill="#000000" fill-rule="evenodd" fill-opacity="1" /><path clip-path="url(#clip7100)" d="M 0 0 M1429.63 2326.5 L1429.63 2329.36 L1402.7 2329.36 Q1403.09 2335.41 1406.33 2338.59 Q1409.61 2341.74 1415.44 2341.74 Q1418.81 2341.74 1421.96 2340.91 Q1425.14 2340.09 1428.26 2338.43 L1428.26 2343.97 Q1425.11 2345.31 1421.8 2346.01 Q1418.49 2346.71 1415.09 2346.71 Q1406.56 2346.71 1401.56 2341.74 Q1396.59 2336.78 1396.59 2328.31 Q1396.59 2319.56 1401.3 2314.43 Q1406.05 2309.28 1414.07 2309.28 Q1421.26 2309.28 1425.43 2313.92 Q1429.63 2318.54 1429.63 2326.5 M1423.77 2324.78 Q1423.71 2319.97 1421.07 2317.11 Q1418.46 2314.24 1414.13 2314.24 Q1409.23 2314.24 1406.27 2317.01 Q1403.34 2319.78 1402.89 2324.81 L1423.77 2324.78 Z" fill="#000000" fill-rule="evenodd" fill-opacity="1" /><path clip-path="url(#clip7100)" d="M 0 0 M1470.56 2296.32 Q1466.3 2303.64 1464.23 2310.8 Q1462.16 2317.97 1462.16 2325.32 Q1462.16 2332.67 1464.23 2339.9 Q1466.33 2347.09 1470.56 2354.38 L1465.47 2354.38 Q1460.7 2346.9 1458.31 2339.67 Q1455.95 2332.45 1455.95 2325.32 Q1455.95 2318.22 1458.31 2311.03 Q1460.66 2303.83 1465.47 2296.32 L1470.56 2296.32 Z" fill="#000000" fill-rule="evenodd" fill-opacity="1" /><path clip-path="url(#clip7100)" d="M 0 0 M1499.43 2311.19 L1499.43 2316.72 Q1496.95 2315.45 1494.27 2314.81 Q1491.6 2314.18 1488.74 2314.18 Q1484.38 2314.18 1482.18 2315.51 Q1480.02 2316.85 1480.02 2319.53 Q1480.02 2321.56 1481.57 2322.74 Q1483.13 2323.89 1487.85 2324.94 L1489.85 2325.38 Q1496.09 2326.72 1498.7 2329.17 Q1501.34 2331.59 1501.34 2335.95 Q1501.34 2340.91 1497.39 2343.81 Q1493.48 2346.71 1486.6 2346.71 Q1483.74 2346.71 1480.62 2346.13 Q1477.53 2345.59 1474.1 2344.48 L1474.1 2338.43 Q1477.34 2340.12 1480.49 2340.98 Q1483.64 2341.81 1486.73 2341.81 Q1490.87 2341.81 1493.1 2340.4 Q1495.32 2338.97 1495.32 2336.39 Q1495.32 2334.01 1493.7 2332.73 Q1492.11 2331.46 1486.67 2330.28 L1484.63 2329.81 Q1479.19 2328.66 1476.77 2326.3 Q1474.35 2323.92 1474.35 2319.78 Q1474.35 2314.75 1477.91 2312.01 Q1481.48 2309.28 1488.04 2309.28 Q1491.28 2309.28 1494.15 2309.75 Q1497.01 2310.23 1499.43 2311.19 Z" fill="#000000" fill-rule="evenodd" fill-opacity="1" /><path clip-path="url(#clip7100)" d="M 0 0 M1506.56 2296.32 L1511.65 2296.32 Q1516.43 2303.83 1518.78 2311.03 Q1521.17 2318.22 1521.17 2325.32 Q1521.17 2332.45 1518.78 2339.67 Q1516.43 2346.9 1511.65 2354.38 L1506.56 2354.38 Q1510.79 2347.09 1512.86 2339.9 Q1514.96 2332.67 1514.96 2325.32 Q1514.96 2317.97 1512.86 2310.8 Q1510.79 2303.64 1506.56 2296.32 Z" fill="#000000" fill-rule="evenodd" fill-opacity="1" /><path clip-path="url(#clip7100)" d="M 0 0 M38.4242 1265.16 L38.4242 1258.26 L56.089 1246.45 L38.4242 1234.58 L38.4242 1227.67 L61.2452 1242.95 L85.9442 1226.65 L85.9442 1233.56 L65.733 1246.93 L85.9442 1260.39 L85.9442 1267.33 L60.5768 1250.36 L38.4242 1265.16 Z" fill="#000000" fill-rule="evenodd" fill-opacity="1" /><path clip-path="url(#clip7100)" d="M 0 0 M36.419 1245.94 L36.419 1240.08 L43.835 1240.08 L43.835 1245.94 L36.419 1245.94 M49.4368 1242.95 L49.4368 1242.95 Z" fill="#000000" fill-rule="evenodd" fill-opacity="1" /><path clip-path="url(#clip7100)" d="M 0 0 M36.4826 1199.15 Q43.8032 1203.42 50.9646 1205.49 Q58.126 1207.55 65.4784 1207.55 Q72.8308 1207.55 80.0559 1205.49 Q87.2491 1203.39 94.5379 1199.15 L94.5379 1204.24 Q87.0582 1209.02 79.8331 1211.41 Q72.608 1213.76 65.4784 1213.76 Q58.3806 1213.76 51.1874 1211.41 Q43.9942 1209.05 36.4826 1204.24 L36.4826 1199.15 Z" fill="#000000" fill-rule="evenodd" fill-opacity="1" /><path clip-path="url(#clip7100)" d="M 0 0 M57.1393 1165.25 Q53.1926 1163.06 51.3147 1160 Q49.4368 1156.95 49.4368 1152.81 Q49.4368 1147.24 53.3517 1144.22 Q57.2348 1141.19 64.4281 1141.19 L85.9442 1141.19 L85.9442 1147.08 L64.619 1147.08 Q59.4946 1147.08 57.012 1148.89 Q54.5294 1150.71 54.5294 1154.43 Q54.5294 1158.98 57.5531 1161.63 Q60.5768 1164.27 65.7967 1164.27 L85.9442 1164.27 L85.9442 1170.16 L64.619 1170.16 Q59.4628 1170.16 57.012 1171.97 Q54.5294 1173.78 54.5294 1177.57 Q54.5294 1182.06 57.5849 1184.7 Q60.6086 1187.34 65.7967 1187.34 L85.9442 1187.34 L85.9442 1193.23 L50.2962 1193.23 L50.2962 1187.34 L55.8344 1187.34 Q52.556 1185.34 50.9964 1182.54 Q49.4368 1179.74 49.4368 1175.89 Q49.4368 1172 51.4102 1169.3 Q53.3836 1166.56 57.1393 1165.25 Z" fill="#000000" fill-rule="evenodd" fill-opacity="1" /><path clip-path="url(#clip7100)" d="M 0 0 M38.4242 1124.64 L38.4242 1119.23 L91.9916 1135.78 L91.9916 1141.19 L38.4242 1124.64 Z" fill="#000000" fill-rule="evenodd" fill-opacity="1" /><path clip-path="url(#clip7100)" d="M 0 0 M51.3465 1090.36 L56.8847 1090.36 Q55.6116 1092.84 54.975 1095.52 Q54.3384 1098.19 54.3384 1101.06 Q54.3384 1105.42 55.6752 1107.61 Q57.012 1109.78 59.6856 1109.78 Q61.7226 1109.78 62.9003 1108.22 Q64.0461 1106.66 65.0965 1101.95 L65.5421 1099.94 Q66.8789 1093.7 69.3297 1091.09 Q71.7486 1088.45 76.1091 1088.45 Q81.0744 1088.45 83.9708 1092.4 Q86.8672 1096.31 86.8672 1103.19 Q86.8672 1106.05 86.2943 1109.17 Q85.7532 1112.26 84.6392 1115.7 L78.5918 1115.7 Q80.2787 1112.45 81.138 1109.3 Q81.9656 1106.15 81.9656 1103.06 Q81.9656 1098.92 80.5651 1096.7 Q79.1329 1094.47 76.5547 1094.47 Q74.1676 1094.47 72.8945 1096.09 Q71.6213 1097.68 70.4437 1103.13 L69.9662 1105.16 Q68.8204 1110.61 66.4651 1113.02 Q64.078 1115.44 59.9402 1115.44 Q54.9113 1115.44 52.1741 1111.88 Q49.4368 1108.31 49.4368 1101.76 Q49.4368 1098.51 49.9143 1095.65 Q50.3917 1092.78 51.3465 1090.36 Z" fill="#000000" fill-rule="evenodd" fill-opacity="1" /><path clip-path="url(#clip7100)" d="M 0 0 M36.4826 1083.23 L36.4826 1078.14 Q43.9942 1073.37 51.1874 1071.01 Q58.3806 1068.62 65.4784 1068.62 Q72.608 1068.62 79.8331 1071.01 Q87.0582 1073.37 94.5379 1078.14 L94.5379 1083.23 Q87.2491 1079 80.0559 1076.93 Q72.8308 1074.83 65.4784 1074.83 Q58.126 1074.83 50.9646 1076.93 Q43.8032 1079 36.4826 1083.23 Z" fill="#000000" fill-rule="evenodd" fill-opacity="1" /><polyline clip-path="url(#clip7102)" style="stroke:#009af9; stroke-width:16; stroke-opacity:1; fill:none" points="
  256.858,2099.73 268.319,2102.44 279.781,2103.21 291.242,2123.85 302.704,2146.22 314.165,2124.09 325.627,2031.65 337.088,1879 348.55,1705 360.011,1541.22 
  371.473,1401.59 382.934,1288.26 394.396,1196.1 405.857,1121.69 417.319,1059.93 428.78,1008.92 440.242,965.694 451.703,929.257 463.165,898.012 474.626,871.215 
  486.087,848.116 497.549,827.963 509.01,810.553 520.472,795.113 531.933,781.809 543.395,769.922 554.856,759.858 566.318,751.019 577.779,743.924 589.241,738.127 
  600.702,734.111 612.164,731.6 623.625,730.901 635.087,731.941 646.548,734.726 658.01,739.452 669.471,745.721 680.933,754.092 692.394,763.665 703.856,775.48 
  715.317,788.034 726.779,802.981 738.24,818.105 749.702,835.815 761.163,853.054 772.625,873.144 784.086,892.042 795.548,914.144 807.009,934.257 818.471,958.036 
  829.932,978.952 841.393,1004.11 852.855,1025.45 864.316,1051.72 875.778,1073.13 887.239,1100.28 898.701,1121.46 910.162,1149.27 921.624,1169.93 933.085,1198.2 
  944.547,1218.14 956.008,1246.64 967.47,1265.77 978.931,1294.31 990.393,1312.75 1001.85,1341.28 1013.32,1359.63 1024.78,1388.5 1036.24,1398.73 1047.7,1419.25 
  1059.16,1431.47 1070.62,1451.01 1082.08,1463.42 1093.55,1481.12 1105.01,1493.08 1116.47,1508.91 1127.93,1520.24 1139.39,1534.39 1150.85,1545.06 1162.31,1557.81 
  1173.78,1567.85 1185.24,1579.45 1196.7,1588.94 1208.16,1599.61 1219.62,1608.62 1231.08,1618.55 1242.55,1627.17 1254.01,1636.53 1265.47,1644.83 1276.93,1653.74 
  1288.39,1661.8 1299.85,1670.37 1311.31,1678.25 1322.78,1686.56 1334.24,1694.3 1345.7,1702.42 1357.16,1710.07 1368.62,1718.05 1380.08,1725.63 1391.54,1733.49 
  1403.01,1741.01 1414.47,1748.78 1425.93,1756.26 1437.39,1763.93 1448.85,1771.36 1460.31,1778.95 1471.78,1786.31 1483.24,1793.8 1494.7,1801.09 1506.16,1808.46 
  1517.62,1815.65 1529.08,1822.89 1540.54,1829.95 1552.01,1837.03 1563.47,1843.95 1574.93,1850.85 1586.39,1857.58 1597.85,1864.27 1609.31,1870.8 1620.77,1877.26 
  1632.24,1883.55 1643.7,1889.75 1655.16,1895.79 1666.62,1901.72 1678.08,1907.47 1689.54,1913.1 1701,1918.56 1712.47,1923.87 1723.93,1929.02 1735.39,1934.01 
  1746.85,1938.83 1758.31,1943.48 1769.77,1947.97 1781.24,1952.29 1792.7,1956.44 1804.16,1960.42 1815.62,1964.24 1827.08,1967.87 1838.54,1971.37 1850,1974.67 
  1861.47,1977.84 1872.93,1980.82 1884.39,1983.68 1895.85,1986.36 1907.31,1988.92 1918.77,1991.31 1930.23,1993.59 1941.7,1995.7 1953.16,1997.73 1964.62,1999.59 
  1976.08,2001.39 1987.54,2003.02 1999,2004.6 2010.46,2006.04 2021.93,2007.44 2033.39,2008.7 2044.85,2009.95 2056.31,2011.07 2067.77,2012.19 2079.23,2013.2 
  2090.7,2014.23 2102.16,2015.15 2113.62,2016.12 2125.08,2017 2136.54,2017.94 2148,2018.8 2159.46,2019.75 2170.93,2020.61 2182.39,2021.62 2193.85,2022.52 
  2205.31,2023.6 2216.77,2024.57 2228.23,2025.78 2239.69,2026.83 2251.16,2028.2 2262.62,2029.37 2274.08,2030.93 2285.54,2032.22 2297,2034.02 2308.46,2035.45 
  2319.92,2037.54 2331.39,2039.09 2342.85,2041.51 2354.31,2043.18 2365.77,2045.97 2377.23,2047.75 2388.69,2050.96 2400.16,2052.8 2411.62,2056.48 2423.08,2058.33 
  2434.54,2062.53 2446,2064.33 2457.46,2069.08 2468.92,2070.76 2480.39,2076.08 2491.85,2077.53 2503.31,2083.41 2514.77,2084.5 2526.23,2090.83 2537.69,2091.39 
  2549.15,2097.82 
  "/>
<polyline clip-path="url(#clip7102)" style="stroke:#e26f46; stroke-width:16; stroke-opacity:1; fill:none" points="
  256.858,2099.73 268.319,2099.73 279.781,1914.28 291.242,1000.5 302.704,280.184 314.165,189.727 325.627,257.258 337.088,382.635 348.55,450.08 360.011,509.839 
  371.473,527.489 382.934,546.403 394.396,541.581 405.857,543.622 417.319,531.527 428.78,528.112 440.242,515.923 451.703,512.646 463.165,504.042 474.626,503.933 
  486.087,500.893 497.549,505.589 509.01,508.965 520.472,519.078 531.933,528.801 543.395,544.116 554.856,559.433 566.318,579.196 577.779,599.022 589.241,622.281 
  600.702,645.509 612.164,671.354 623.625,697.029 635.087,724.693 646.548,752.047 658.01,780.922 669.471,809.359 680.933,838.971 692.394,868.03 703.856,898.013 
  715.317,927.336 726.779,957.408 738.24,986.718 749.702,1016.66 761.163,1045.73 772.625,1075.37 784.086,1104.04 795.548,1133.23 807.009,1161.33 818.471,1189.97 
  829.932,1217.38 841.393,1245.36 852.855,1271.95 864.316,1299.17 875.778,1324.84 887.239,1351.2 898.701,1375.84 910.162,1401.24 921.624,1424.73 933.085,1449.07 
  944.547,1471.33 956.008,1494.5 967.47,1515.47 978.931,1537.4 990.393,1557.1 1001.85,1577.73 1013.32,1596.16 1024.78,1615.16 1036.24,1627.71 1047.7,1641.43 
  1059.16,1653.47 1070.62,1666.22 1082.08,1677.27 1093.55,1688.67 1105.01,1698.57 1116.47,1708.64 1127.93,1717.46 1139.39,1726.35 1150.85,1734.25 1162.31,1742.17 
  1173.78,1749.31 1185.24,1756.45 1196.7,1762.98 1208.16,1769.51 1219.62,1775.56 1231.08,1781.62 1242.55,1787.32 1254.01,1793.04 1265.47,1798.48 1276.93,1803.95 
  1288.39,1809.21 1299.85,1814.51 1311.31,1819.66 1322.78,1824.85 1334.24,1829.93 1345.7,1835.06 1357.16,1840.11 1368.62,1845.2 1380.08,1850.24 1391.54,1855.32 
  1403.01,1860.35 1414.47,1865.44 1425.93,1870.48 1437.39,1875.56 1448.85,1880.6 1460.31,1885.67 1471.78,1890.71 1483.24,1895.76 1494.7,1900.77 1506.16,1905.79 
  1517.62,1910.76 1529.08,1915.73 1540.54,1920.64 1552.01,1925.53 1563.47,1930.36 1574.93,1935.15 1586.39,1939.87 1597.85,1944.54 1609.31,1949.13 1620.77,1953.65 
  1632.24,1958.09 1643.7,1962.45 1655.16,1966.71 1666.62,1970.87 1678.08,1974.94 1689.54,1978.9 1701,1982.75 1712.47,1986.48 1723.93,1990.11 1735.39,1993.6 
  1746.85,1996.99 1758.31,2000.23 1769.77,2003.37 1781.24,2006.36 1792.7,2009.23 1804.16,2011.97 1815.62,2014.59 1827.08,2017.06 1838.54,2019.43 1850,2021.64 
  1861.47,2023.75 1872.93,2025.72 1884.39,2027.59 1895.85,2029.32 1907.31,2030.95 1918.77,2032.45 1930.23,2033.87 1941.7,2035.15 1953.16,2036.37 1964.62,2037.46 
  1976.08,2038.49 1987.54,2039.4 1999,2040.27 2010.46,2041.02 2021.93,2041.75 2033.39,2042.37 2044.85,2042.98 2056.31,2043.5 2067.77,2044.01 2079.23,2044.45 
  2090.7,2044.88 2102.16,2045.27 2113.62,2045.67 2125.08,2046.02 2136.54,2046.4 2148,2046.75 2159.46,2047.14 2170.93,2047.52 2182.39,2047.95 2193.85,2048.37 
  2205.31,2048.87 2216.77,2049.36 2228.23,2049.95 2239.69,2050.52 2251.16,2051.24 2262.62,2051.92 2274.08,2052.79 2285.54,2053.59 2297,2054.63 2308.46,2055.56 
  2319.92,2056.82 2331.39,2057.87 2342.85,2059.36 2354.31,2060.54 2365.77,2062.3 2377.23,2063.59 2388.69,2065.65 2400.16,2067.02 2411.62,2069.4 2423.08,2070.83 
  2434.54,2073.57 2446,2075.01 2457.46,2078.13 2468.92,2079.52 2480.39,2083.02 2491.85,2084.3 2503.31,2088.17 2514.77,2089.25 2526.23,2093.38 2537.69,2094.13 
  2549.15,2098.29 
  "/>
<polyline clip-path="url(#clip7102)" style="stroke:#3da44d; stroke-width:16; stroke-opacity:1; fill:none" points="
  256.858,2099.73 268.319,2100.38 279.781,2102.07 291.242,2038.4 302.704,1908.92 314.165,1756.76 325.627,1626.75 337.088,1526.36 348.55,1439.83 360.011,1357.43 
  371.473,1275.84 382.934,1198.22 394.396,1126.53 405.857,1062.57 417.319,1006.28 428.78,957.33 440.242,914.98 451.703,878.335 463.165,846.877 474.626,819.636 
  486.087,796.418 497.549,776.252 509.01,759.218 520.472,744.385 531.933,732.051 543.395,721.384 554.856,712.839 566.318,705.731 577.779,700.569 589.241,696.849 
  600.702,695.009 612.164,694.74 623.625,696.288 635.087,699.573 646.548,704.545 658.01,711.404 669.471,719.714 680.933,730.04 692.394,741.471 703.856,755.037 
  715.317,769.262 726.779,785.758 738.24,802.38 749.702,821.45 761.163,840.04 772.625,861.318 784.086,881.44 795.548,904.577 807.009,925.809 818.471,950.48 
  829.932,972.427 841.393,998.342 852.855,1020.64 864.316,1047.54 875.778,1069.84 887.239,1097.49 898.701,1119.51 910.162,1147.69 921.624,1169.15 933.085,1197.65 
  944.547,1218.35 956.008,1246.95 967.47,1266.78 978.931,1295.28 990.393,1314.35 1001.85,1342.6 1013.32,1361.37 1024.78,1389.46 1036.24,1400.74 1047.7,1421.05 
  1059.16,1433.72 1070.62,1452.83 1082.08,1465.51 1093.55,1482.75 1105.01,1494.9 1116.47,1510.3 1127.93,1521.75 1139.39,1535.53 1150.85,1546.27 1162.31,1558.69 
  1173.78,1568.77 1185.24,1580.08 1196.7,1589.59 1208.16,1600 1219.62,1609.02 1231.08,1618.74 1242.55,1627.35 1254.01,1636.52 1265.47,1644.81 1276.93,1653.57 
  1288.39,1661.62 1299.85,1670.06 1311.31,1677.93 1322.78,1686.14 1334.24,1693.88 1345.7,1701.92 1357.16,1709.57 1368.62,1717.49 1380.08,1725.07 1391.54,1732.89 
  1403.01,1740.44 1414.47,1748.18 1425.93,1755.69 1437.39,1763.36 1448.85,1770.82 1460.31,1778.41 1471.78,1785.82 1483.24,1793.33 1494.7,1800.67 1506.16,1808.08 
  1517.62,1815.33 1529.08,1822.61 1540.54,1829.75 1552.01,1836.88 1563.47,1843.87 1574.93,1850.84 1586.39,1857.65 1597.85,1864.42 1609.31,1871.03 1620.77,1877.57 
  1632.24,1883.96 1643.7,1890.25 1655.16,1896.39 1666.62,1902.41 1678.08,1908.27 1689.54,1914 1701,1919.56 1712.47,1924.98 1723.93,1930.24 1735.39,1935.34 
  1746.85,1940.28 1758.31,1945.05 1769.77,1949.66 1781.24,1954.1 1792.7,1958.37 1804.16,1962.47 1815.62,1966.42 1827.08,1970.18 1838.54,1973.8 1850,1977.24 
  1861.47,1980.54 1872.93,1983.66 1884.39,1986.65 1895.85,1989.47 1907.31,1992.16 1918.77,1994.69 1930.23,1997.11 1941.7,1999.36 1953.16,2001.52 1964.62,2003.53 
  1976.08,2005.45 1987.54,2007.24 1999,2008.94 2010.46,2010.53 2021.93,2012.05 2033.39,2013.46 2044.85,2014.81 2056.31,2016.08 2067.77,2017.3 2079.23,2018.45 
  2090.7,2019.57 2102.16,2020.64 2113.62,2021.69 2125.08,2022.69 2136.54,2023.7 2148,2024.68 2159.46,2025.67 2170.93,2026.66 2182.39,2027.67 2193.85,2028.69 
  2205.31,2029.75 2216.77,2030.83 2228.23,2031.98 2239.69,2033.14 2251.16,2034.41 2262.62,2035.67 2274.08,2037.09 2285.54,2038.47 2297,2040.07 2308.46,2041.58 
  2319.92,2043.4 2331.39,2045.05 2342.85,2047.12 2354.31,2048.91 2365.77,2051.26 2377.23,2053.17 2388.69,2055.84 2400.16,2057.84 2411.62,2060.88 2423.08,2062.94 
  2434.54,2066.37 2446,2068.44 2457.46,2072.28 2468.92,2074.31 2480.39,2078.57 2491.85,2080.48 2503.31,2085.14 2514.77,2086.82 2526.23,2091.76 2537.69,2093.06 
  2549.15,2098 
  "/>
<polyline clip-path="url(#clip7102)" style="stroke:#c271d2; stroke-width:16; stroke-opacity:1; fill:none" points="
  256.858,2099.73 268.319,2099.73 279.781,1960.36 291.242,1148.01 302.704,543.365 314.165,437.086 325.627,445.776 337.088,499.873 348.55,506.916 360.011,514.737 
  371.473,490.555 382.934,472.173 394.396,438.297 405.857,410.809 417.319,378.04 428.78,350.212 440.242,324.411 451.703,302.171 463.165,287.222 474.626,274.782 
  486.087,272.68 497.549,272.118 509.01,282.672 520.472,293.763 531.933,314.973 543.395,335.837 554.856,364.921 566.318,393.103 577.779,427.482 589.241,460.749 
  600.702,498.457 612.164,535.068 623.625,574.715 635.087,613.364 646.548,653.954 658.01,693.66 669.471,734.453 680.933,774.467 692.394,814.895 703.856,854.649 
  715.317,894.281 726.779,933.349 738.24,971.857 749.702,1009.93 761.163,1047.07 772.625,1083.93 784.086,1119.53 795.548,1155.02 807.009,1188.96 818.471,1222.96 
  829.932,1255.16 841.393,1287.61 852.855,1318 864.316,1348.84 875.778,1377.37 887.239,1406.57 898.701,1433.2 910.162,1460.71 921.624,1485.44 933.085,1511.23 
  944.547,1534.04 956.008,1558.09 967.47,1579.04 978.931,1601.37 990.393,1620.68 1001.85,1641.54 1013.32,1659.87 1024.78,1680.39 1036.24,1690.63 1047.7,1703.43 
  1059.16,1714.31 1070.62,1726.32 1082.08,1736.24 1093.55,1746.76 1105.01,1755.46 1116.47,1764.52 1127.93,1772.1 1139.39,1779.9 1150.85,1786.53 1162.31,1793.29 
  1173.78,1799.15 1185.24,1805.11 1196.7,1810.37 1208.16,1815.7 1219.62,1820.5 1231.08,1825.37 1242.55,1829.85 1254.01,1834.39 1265.47,1838.65 1276.93,1842.97 
  1288.39,1847.09 1299.85,1851.28 1311.31,1855.33 1322.78,1859.46 1334.24,1863.48 1345.7,1867.59 1357.16,1871.63 1368.62,1875.76 1380.08,1879.83 1391.54,1884 
  1403.01,1888.13 1414.47,1892.34 1425.93,1896.53 1437.39,1900.79 1448.85,1905.03 1460.31,1909.33 1471.78,1913.62 1483.24,1917.95 1494.7,1922.26 1506.16,1926.6 
  1517.62,1930.92 1529.08,1935.25 1540.54,1939.55 1552.01,1943.86 1563.47,1948.12 1574.93,1952.36 1586.39,1956.56 1597.85,1960.72 1609.31,1964.82 1620.77,1968.88 
  1632.24,1972.86 1643.7,1976.78 1655.16,1980.63 1666.62,1984.39 1678.08,1988.08 1689.54,1991.66 1701,1995.16 1712.47,1998.55 1723.93,2001.85 1735.39,2005.03 
  1746.85,2008.12 1758.31,2011.08 1769.77,2013.93 1781.24,2016.66 1792.7,2019.28 1804.16,2021.77 1815.62,2024.16 1827.08,2026.41 1838.54,2028.56 1850,2030.57 
  1861.47,2032.49 1872.93,2034.26 1884.39,2035.95 1895.85,2037.5 1907.31,2038.97 1918.77,2040.31 1930.23,2041.57 1941.7,2042.71 1953.16,2043.78 1964.62,2044.73 
  1976.08,2045.63 1987.54,2046.41 1999,2047.15 2010.46,2047.79 2021.93,2048.39 2033.39,2048.91 2044.85,2049.4 2056.31,2049.81 2067.77,2050.21 2079.23,2050.55 
  2090.7,2050.88 2102.16,2051.17 2113.62,2051.46 2125.08,2051.72 2136.54,2052 2148,2052.26 2159.46,2052.54 2170.93,2052.82 2182.39,2053.15 2193.85,2053.47 
  2205.31,2053.86 2216.77,2054.25 2228.23,2054.73 2239.69,2055.2 2251.16,2055.8 2262.62,2056.37 2274.08,2057.11 2285.54,2057.8 2297,2058.71 2308.46,2059.52 
  2319.92,2060.62 2331.39,2061.56 2342.85,2062.88 2354.31,2063.94 2365.77,2065.51 2377.23,2066.67 2388.69,2068.52 2400.16,2069.78 2411.62,2071.93 2423.08,2073.24 
  2434.54,2075.72 2446,2077.05 2457.46,2079.88 2468.92,2081.17 2480.39,2084.35 2491.85,2085.54 2503.31,2089.06 2514.77,2090.08 2526.23,2093.85 2537.69,2094.57 
  2549.15,2098.39 
  "/>
<polyline clip-path="url(#clip7102)" style="stroke:#ac8d18; stroke-width:16; stroke-opacity:1; fill:none" points="
  256.858,2099.73 268.319,2106.43 279.781,2106.64 291.242,2100.3 302.704,2087.99 314.165,2061.75 325.627,2015.37 337.088,1946.84 348.55,1859.78 360.011,1758.57 
  371.473,1648.89 382.934,1534.64 394.396,1419.43 405.857,1305.45 417.319,1194.5 428.78,1087.9 440.242,986.481 451.703,891.202 463.165,802.435 474.626,720.934 
  486.087,646.794 497.549,580.525 509.01,521.991 520.472,471.406 531.933,428.433 543.395,393.007 554.856,364.653 566.318,343.122 577.779,327.877 589.241,318.587 
  600.702,314.708 612.164,315.898 623.625,321.635 635.087,331.596 646.548,345.295 658.01,362.443 669.471,382.589 680.933,405.486 692.394,430.721 703.856,458.087 
  715.317,487.213 726.779,517.933 738.24,549.915 749.702,583.032 761.163,616.993 772.625,651.703 784.086,686.911 795.548,722.549 807.009,758.404 818.471,794.429 
  829.932,830.446 841.393,866.423 852.855,902.218 864.316,937.804 875.778,973.078 887.239,1008.01 898.701,1042.54 910.162,1076.61 921.624,1110.23 933.085,1143.32 
  944.547,1175.93 956.008,1207.96 967.47,1239.53 978.931,1270.51 990.393,1301.14 1001.85,1331.27 1013.32,1361.31 1024.78,1391.23 1036.24,1410.83 1047.7,1430.47 
  1059.16,1450.29 1070.62,1469.79 1082.08,1489.22 1093.55,1508.19 1105.01,1526.99 1116.47,1545.3 1127.93,1563.39 1139.39,1580.99 1150.85,1598.36 1162.31,1615.26 
  1173.78,1631.93 1185.24,1648.14 1196.7,1664.12 1208.16,1679.66 1219.62,1694.96 1231.08,1709.84 1242.55,1724.47 1254.01,1738.71 1265.47,1752.67 1276.93,1766.25 
  1288.39,1779.55 1299.85,1792.47 1311.31,1805.1 1322.78,1817.36 1334.24,1829.31 1345.7,1840.88 1357.16,1852.14 1368.62,1863.02 1380.08,1873.56 1391.54,1883.73 
  1403.01,1893.55 1414.47,1902.98 1425.93,1912.06 1437.39,1920.75 1448.85,1929.06 1460.31,1936.99 1471.78,1944.54 1483.24,1951.7 1494.7,1958.47 1506.16,1964.85 
  1517.62,1970.85 1529.08,1976.46 1540.54,1981.69 1552.01,1986.54 1563.47,1991.01 1574.93,1995.1 1586.39,1998.84 1597.85,2002.21 1609.31,2005.24 1620.77,2007.93 
  1632.24,2010.28 1643.7,2012.31 1655.16,2014.04 1666.62,2015.47 1678.08,2016.62 1689.54,2017.49 1701,2018.12 1712.47,2018.5 1723.93,2018.66 1735.39,2018.6 
  1746.85,2018.36 1758.31,2017.94 1769.77,2017.36 1781.24,2016.63 1792.7,2015.78 1804.16,2014.81 1815.62,2013.76 1827.08,2012.62 1838.54,2011.42 1850,2010.18 
  1861.47,2008.9 1872.93,2007.61 1884.39,2006.32 1895.85,2005.04 1907.31,2003.79 1918.77,2002.58 1930.23,2001.42 1941.7,2000.32 1953.16,1999.29 1964.62,1998.36 
  1976.08,1997.51 1987.54,1996.77 1999,1996.15 2010.46,1995.64 2021.93,1995.25 2033.39,1995 2044.85,1994.88 2056.31,1994.91 2067.77,1995.07 2079.23,1995.39 
  2090.7,1995.85 2102.16,1996.46 2113.62,1997.21 2125.08,1998.12 2136.54,1999.18 2148,2000.38 2159.46,2001.72 2170.93,2003.21 2182.39,2004.83 2193.85,2006.59 
  2205.31,2008.47 2216.77,2010.49 2228.23,2012.61 2239.69,2014.86 2251.16,2017.2 2262.62,2019.67 2274.08,2022.21 2285.54,2024.86 2297,2027.57 2308.46,2030.39 
  2319.92,2033.25 2331.39,2036.21 2342.85,2039.19 2354.31,2042.28 2365.77,2045.35 2377.23,2048.53 2388.69,2051.68 2400.16,2054.94 2411.62,2058.14 2423.08,2061.47 
  2434.54,2064.7 2446,2068.08 2457.46,2071.32 2468.92,2074.73 2480.39,2077.97 2491.85,2081.38 2503.31,2084.57 2514.77,2087.94 2526.23,2091.01 2537.69,2094.21 
  2549.15,2096.97 
  "/>
<path clip-path="url(#clip7100)" d="
M2713.92 625.432 L3184.76 625.432 L3184.76 262.552 L2713.92 262.552  Z
  " fill="#ffffff" fill-rule="evenodd" fill-opacity="1"/>
<polyline clip-path="url(#clip7100)" style="stroke:#000000; stroke-width:4; stroke-opacity:1; fill:none" points="
  2713.92,625.432 3184.76,625.432 3184.76,262.552 2713.92,262.552 2713.92,625.432 
  "/>
<polyline clip-path="url(#clip7100)" style="stroke:#009af9; stroke-width:16; stroke-opacity:1; fill:none" points="
  2745.92,323.032 2937.92,323.032 
  "/>
<path clip-path="url(#clip7100)" d="M 0 0 M2991.95 303.633 Q2984.95 303.633 2980.81 308.853 Q2976.7 314.072 2976.7 323.08 Q2976.7 332.056 2980.81 337.275 Q2984.95 342.495 2991.95 342.495 Q2998.95 342.495 3003.03 337.275 Q3007.13 332.056 3007.13 323.08 Q3007.13 314.072 3003.03 308.853 Q2998.95 303.633 2991.95 303.633 M3000.96 345.933 L3009.42 355.195 L3001.66 355.195 L2994.62 347.588 Q2993.57 347.651 2993 347.683 Q2992.46 347.715 2991.95 347.715 Q2981.92 347.715 2975.91 341.031 Q2969.92 334.315 2969.92 323.08 Q2969.92 311.813 2975.91 305.129 Q2981.92 298.413 2991.95 298.413 Q3001.94 298.413 3007.93 305.129 Q3013.91 311.813 3013.91 323.08 Q3013.91 331.355 3010.57 337.244 Q3007.26 343.132 3000.96 345.933 Z" fill="#000000" fill-rule="evenodd" fill-opacity="1" /><path clip-path="url(#clip7100)" d="M 0 0 M3019.45 332.724 L3019.45 311.144 L3025.31 311.144 L3025.31 332.501 Q3025.31 337.562 3027.28 340.108 Q3029.25 342.623 3033.2 342.623 Q3037.94 342.623 3040.68 339.599 Q3043.45 336.575 3043.45 331.355 L3043.45 311.144 L3049.3 311.144 L3049.3 346.792 L3043.45 346.792 L3043.45 341.318 Q3041.31 344.564 3038.48 346.156 Q3035.68 347.715 3031.96 347.715 Q3025.81 347.715 3022.63 343.896 Q3019.45 340.076 3019.45 332.724 M3034.19 310.285 L3034.19 310.285 Z" fill="#000000" fill-rule="evenodd" fill-opacity="1" /><path clip-path="url(#clip7100)" d="M 0 0 M3071.65 328.873 Q3064.55 328.873 3061.81 330.496 Q3059.08 332.119 3059.08 336.034 Q3059.08 339.153 3061.11 340.999 Q3063.18 342.814 3066.71 342.814 Q3071.58 342.814 3074.51 339.376 Q3077.47 335.907 3077.47 330.178 L3077.47 328.873 L3071.65 328.873 M3083.33 326.454 L3083.33 346.792 L3077.47 346.792 L3077.47 341.381 Q3075.47 344.628 3072.47 346.187 Q3069.48 347.715 3065.15 347.715 Q3059.68 347.715 3056.43 344.66 Q3053.22 341.572 3053.22 336.416 Q3053.22 330.4 3057.23 327.345 Q3061.27 324.289 3069.26 324.289 L3077.47 324.289 L3077.47 323.716 Q3077.47 319.674 3074.8 317.478 Q3072.16 315.25 3067.35 315.25 Q3064.29 315.25 3061.4 315.982 Q3058.5 316.714 3055.83 318.178 L3055.83 312.767 Q3059.04 311.526 3062.07 310.921 Q3065.09 310.285 3067.96 310.285 Q3075.69 310.285 3079.51 314.295 Q3083.33 318.306 3083.33 326.454 Z" fill="#000000" fill-rule="evenodd" fill-opacity="1" /><path clip-path="url(#clip7100)" d="M 0 0 M3112.93 316.555 L3112.93 297.267 L3118.79 297.267 L3118.79 346.792 L3112.93 346.792 L3112.93 341.445 Q3111.08 344.628 3108.25 346.187 Q3105.45 347.715 3101.5 347.715 Q3095.04 347.715 3090.97 342.559 Q3086.93 337.403 3086.93 329 Q3086.93 320.597 3090.97 315.441 Q3095.04 310.285 3101.5 310.285 Q3105.45 310.285 3108.25 311.844 Q3111.08 313.372 3112.93 316.555 M3092.97 329 Q3092.97 335.461 3095.61 339.153 Q3098.29 342.814 3102.93 342.814 Q3107.58 342.814 3110.26 339.153 Q3112.93 335.461 3112.93 329 Q3112.93 322.539 3110.26 318.879 Q3107.58 315.186 3102.93 315.186 Q3098.29 315.186 3095.61 318.879 Q3092.97 322.539 3092.97 329 Z" fill="#000000" fill-rule="evenodd" fill-opacity="1" /><path clip-path="url(#clip7100)" d="M 0 0 M3147.59 341.381 L3158.09 341.381 L3158.09 305.129 L3146.67 307.42 L3146.67 301.564 L3158.03 299.272 L3164.46 299.272 L3164.46 341.381 L3174.96 341.381 L3174.96 346.792 L3147.59 346.792 L3147.59 341.381 Z" fill="#000000" fill-rule="evenodd" fill-opacity="1" /><polyline clip-path="url(#clip7100)" style="stroke:#e26f46; stroke-width:16; stroke-opacity:1; fill:none" points="
  2745.92,383.512 2937.92,383.512 
  "/>
<path clip-path="url(#clip7100)" d="M 0 0 M2991.95 364.113 Q2984.95 364.113 2980.81 369.333 Q2976.7 374.552 2976.7 383.56 Q2976.7 392.536 2980.81 397.755 Q2984.95 402.975 2991.95 402.975 Q2998.95 402.975 3003.03 397.755 Q3007.13 392.536 3007.13 383.56 Q3007.13 374.552 3003.03 369.333 Q2998.95 364.113 2991.95 364.113 M3000.96 406.413 L3009.42 415.675 L3001.66 415.675 L2994.62 408.068 Q2993.57 408.131 2993 408.163 Q2992.46 408.195 2991.95 408.195 Q2981.92 408.195 2975.91 401.511 Q2969.92 394.795 2969.92 383.56 Q2969.92 372.293 2975.91 365.609 Q2981.92 358.893 2991.95 358.893 Q3001.94 358.893 3007.93 365.609 Q3013.91 372.293 3013.91 383.56 Q3013.91 391.835 3010.57 397.724 Q3007.26 403.612 3000.96 406.413 Z" fill="#000000" fill-rule="evenodd" fill-opacity="1" /><path clip-path="url(#clip7100)" d="M 0 0 M3019.45 393.204 L3019.45 371.624 L3025.31 371.624 L3025.31 392.981 Q3025.31 398.042 3027.28 400.588 Q3029.25 403.103 3033.2 403.103 Q3037.94 403.103 3040.68 400.079 Q3043.45 397.055 3043.45 391.835 L3043.45 371.624 L3049.3 371.624 L3049.3 407.272 L3043.45 407.272 L3043.45 401.798 Q3041.31 405.044 3038.48 406.636 Q3035.68 408.195 3031.96 408.195 Q3025.81 408.195 3022.63 404.376 Q3019.45 400.556 3019.45 393.204 M3034.19 370.765 L3034.19 370.765 Z" fill="#000000" fill-rule="evenodd" fill-opacity="1" /><path clip-path="url(#clip7100)" d="M 0 0 M3071.65 389.353 Q3064.55 389.353 3061.81 390.976 Q3059.08 392.599 3059.08 396.514 Q3059.08 399.633 3061.11 401.479 Q3063.18 403.294 3066.71 403.294 Q3071.58 403.294 3074.51 399.856 Q3077.47 396.387 3077.47 390.658 L3077.47 389.353 L3071.65 389.353 M3083.33 386.934 L3083.33 407.272 L3077.47 407.272 L3077.47 401.861 Q3075.47 405.108 3072.47 406.667 Q3069.48 408.195 3065.15 408.195 Q3059.68 408.195 3056.43 405.14 Q3053.22 402.052 3053.22 396.896 Q3053.22 390.88 3057.23 387.825 Q3061.27 384.769 3069.26 384.769 L3077.47 384.769 L3077.47 384.196 Q3077.47 380.154 3074.8 377.958 Q3072.16 375.73 3067.35 375.73 Q3064.29 375.73 3061.4 376.462 Q3058.5 377.194 3055.83 378.658 L3055.83 373.247 Q3059.04 372.006 3062.07 371.401 Q3065.09 370.765 3067.96 370.765 Q3075.69 370.765 3079.51 374.775 Q3083.33 378.786 3083.33 386.934 Z" fill="#000000" fill-rule="evenodd" fill-opacity="1" /><path clip-path="url(#clip7100)" d="M 0 0 M3112.93 377.035 L3112.93 357.747 L3118.79 357.747 L3118.79 407.272 L3112.93 407.272 L3112.93 401.925 Q3111.08 405.108 3108.25 406.667 Q3105.45 408.195 3101.5 408.195 Q3095.04 408.195 3090.97 403.039 Q3086.93 397.883 3086.93 389.48 Q3086.93 381.077 3090.97 375.921 Q3095.04 370.765 3101.5 370.765 Q3105.45 370.765 3108.25 372.324 Q3111.08 373.852 3112.93 377.035 M3092.97 389.48 Q3092.97 395.941 3095.61 399.633 Q3098.29 403.294 3102.93 403.294 Q3107.58 403.294 3110.26 399.633 Q3112.93 395.941 3112.93 389.48 Q3112.93 383.019 3110.26 379.359 Q3107.58 375.666 3102.93 375.666 Q3098.29 375.666 3095.61 379.359 Q3092.97 383.019 3092.97 389.48 Z" fill="#000000" fill-rule="evenodd" fill-opacity="1" /><path clip-path="url(#clip7100)" d="M 0 0 M3152.01 401.861 L3174.45 401.861 L3174.45 407.272 L3144.28 407.272 L3144.28 401.861 Q3147.94 398.074 3154.24 391.708 Q3160.58 385.31 3162.2 383.464 Q3165.29 379.995 3166.5 377.608 Q3167.74 375.189 3167.74 372.865 Q3167.74 369.078 3165.06 366.691 Q3162.42 364.304 3158.16 364.304 Q3155.13 364.304 3151.76 365.354 Q3148.42 366.404 3144.6 368.537 L3144.6 362.044 Q3148.48 360.484 3151.86 359.688 Q3155.23 358.893 3158.03 358.893 Q3165.41 358.893 3169.81 362.585 Q3174.2 366.277 3174.2 372.452 Q3174.2 375.38 3173.08 378.022 Q3172 380.632 3169.11 384.196 Q3168.31 385.119 3164.05 389.544 Q3159.78 393.936 3152.01 401.861 Z" fill="#000000" fill-rule="evenodd" fill-opacity="1" /><polyline clip-path="url(#clip7100)" style="stroke:#3da44d; stroke-width:16; stroke-opacity:1; fill:none" points="
  2745.92,443.992 2937.92,443.992 
  "/>
<path clip-path="url(#clip7100)" d="M 0 0 M2991.95 424.593 Q2984.95 424.593 2980.81 429.813 Q2976.7 435.032 2976.7 444.04 Q2976.7 453.016 2980.81 458.235 Q2984.95 463.455 2991.95 463.455 Q2998.95 463.455 3003.03 458.235 Q3007.13 453.016 3007.13 444.04 Q3007.13 435.032 3003.03 429.813 Q2998.95 424.593 2991.95 424.593 M3000.96 466.893 L3009.42 476.155 L3001.66 476.155 L2994.62 468.548 Q2993.57 468.611 2993 468.643 Q2992.46 468.675 2991.95 468.675 Q2981.92 468.675 2975.91 461.991 Q2969.92 455.275 2969.92 444.04 Q2969.92 432.773 2975.91 426.089 Q2981.92 419.373 2991.95 419.373 Q3001.94 419.373 3007.93 426.089 Q3013.91 432.773 3013.91 444.04 Q3013.91 452.315 3010.57 458.204 Q3007.26 464.092 3000.96 466.893 Z" fill="#000000" fill-rule="evenodd" fill-opacity="1" /><path clip-path="url(#clip7100)" d="M 0 0 M3019.45 453.684 L3019.45 432.104 L3025.31 432.104 L3025.31 453.461 Q3025.31 458.522 3027.28 461.068 Q3029.25 463.583 3033.2 463.583 Q3037.94 463.583 3040.68 460.559 Q3043.45 457.535 3043.45 452.315 L3043.45 432.104 L3049.3 432.104 L3049.3 467.752 L3043.45 467.752 L3043.45 462.278 Q3041.31 465.524 3038.48 467.116 Q3035.68 468.675 3031.96 468.675 Q3025.81 468.675 3022.63 464.856 Q3019.45 461.036 3019.45 453.684 M3034.19 431.245 L3034.19 431.245 Z" fill="#000000" fill-rule="evenodd" fill-opacity="1" /><path clip-path="url(#clip7100)" d="M 0 0 M3071.65 449.833 Q3064.55 449.833 3061.81 451.456 Q3059.08 453.079 3059.08 456.994 Q3059.08 460.113 3061.11 461.959 Q3063.18 463.774 3066.71 463.774 Q3071.58 463.774 3074.51 460.336 Q3077.47 456.867 3077.47 451.138 L3077.47 449.833 L3071.65 449.833 M3083.33 447.414 L3083.33 467.752 L3077.47 467.752 L3077.47 462.341 Q3075.47 465.588 3072.47 467.147 Q3069.48 468.675 3065.15 468.675 Q3059.68 468.675 3056.43 465.62 Q3053.22 462.532 3053.22 457.376 Q3053.22 451.36 3057.23 448.305 Q3061.27 445.249 3069.26 445.249 L3077.47 445.249 L3077.47 444.676 Q3077.47 440.634 3074.8 438.438 Q3072.16 436.21 3067.35 436.21 Q3064.29 436.21 3061.4 436.942 Q3058.5 437.674 3055.83 439.138 L3055.83 433.727 Q3059.04 432.486 3062.07 431.881 Q3065.09 431.245 3067.96 431.245 Q3075.69 431.245 3079.51 435.255 Q3083.33 439.266 3083.33 447.414 Z" fill="#000000" fill-rule="evenodd" fill-opacity="1" /><path clip-path="url(#clip7100)" d="M 0 0 M3112.93 437.515 L3112.93 418.227 L3118.79 418.227 L3118.79 467.752 L3112.93 467.752 L3112.93 462.405 Q3111.08 465.588 3108.25 467.147 Q3105.45 468.675 3101.5 468.675 Q3095.04 468.675 3090.97 463.519 Q3086.93 458.363 3086.93 449.96 Q3086.93 441.557 3090.97 436.401 Q3095.04 431.245 3101.5 431.245 Q3105.45 431.245 3108.25 432.804 Q3111.08 434.332 3112.93 437.515 M3092.97 449.96 Q3092.97 456.421 3095.61 460.113 Q3098.29 463.774 3102.93 463.774 Q3107.58 463.774 3110.26 460.113 Q3112.93 456.421 3112.93 449.96 Q3112.93 443.499 3110.26 439.839 Q3107.58 436.146 3102.93 436.146 Q3098.29 436.146 3095.61 439.839 Q3092.97 443.499 3092.97 449.96 Z" fill="#000000" fill-rule="evenodd" fill-opacity="1" /><path clip-path="url(#clip7100)" d="M 0 0 M3165.96 442.13 Q3170.57 443.117 3173.15 446.236 Q3175.76 449.355 3175.76 453.939 Q3175.76 460.973 3170.92 464.824 Q3166.08 468.675 3157.17 468.675 Q3154.18 468.675 3151 468.07 Q3147.84 467.497 3144.47 466.32 L3144.47 460.113 Q3147.14 461.673 3150.33 462.469 Q3153.51 463.264 3156.98 463.264 Q3163.03 463.264 3166.18 460.877 Q3169.36 458.49 3169.36 453.939 Q3169.36 449.737 3166.4 447.382 Q3163.47 444.995 3158.22 444.995 L3152.68 444.995 L3152.68 439.711 L3158.48 439.711 Q3163.22 439.711 3165.73 437.833 Q3168.25 435.924 3168.25 432.359 Q3168.25 428.699 3165.64 426.757 Q3163.06 424.784 3158.22 424.784 Q3155.58 424.784 3152.56 425.357 Q3149.53 425.929 3145.9 427.139 L3145.9 421.41 Q3149.56 420.391 3152.75 419.882 Q3155.96 419.373 3158.79 419.373 Q3166.11 419.373 3170.38 422.715 Q3174.64 426.025 3174.64 431.69 Q3174.64 435.637 3172.38 438.374 Q3170.12 441.08 3165.96 442.13 Z" fill="#000000" fill-rule="evenodd" fill-opacity="1" /><polyline clip-path="url(#clip7100)" style="stroke:#c271d2; stroke-width:16; stroke-opacity:1; fill:none" points="
  2745.92,504.472 2937.92,504.472 
  "/>
<path clip-path="url(#clip7100)" d="M 0 0 M2991.95 485.073 Q2984.95 485.073 2980.81 490.293 Q2976.7 495.512 2976.7 504.52 Q2976.7 513.496 2980.81 518.715 Q2984.95 523.935 2991.95 523.935 Q2998.95 523.935 3003.03 518.715 Q3007.13 513.496 3007.13 504.52 Q3007.13 495.512 3003.03 490.293 Q2998.95 485.073 2991.95 485.073 M3000.96 527.373 L3009.42 536.635 L3001.66 536.635 L2994.62 529.028 Q2993.57 529.091 2993 529.123 Q2992.46 529.155 2991.95 529.155 Q2981.92 529.155 2975.91 522.471 Q2969.92 515.755 2969.92 504.52 Q2969.92 493.253 2975.91 486.569 Q2981.92 479.853 2991.95 479.853 Q3001.94 479.853 3007.93 486.569 Q3013.91 493.253 3013.91 504.52 Q3013.91 512.795 3010.57 518.684 Q3007.26 524.572 3000.96 527.373 Z" fill="#000000" fill-rule="evenodd" fill-opacity="1" /><path clip-path="url(#clip7100)" d="M 0 0 M3019.45 514.164 L3019.45 492.584 L3025.31 492.584 L3025.31 513.941 Q3025.31 519.002 3027.28 521.548 Q3029.25 524.063 3033.2 524.063 Q3037.94 524.063 3040.68 521.039 Q3043.45 518.015 3043.45 512.795 L3043.45 492.584 L3049.3 492.584 L3049.3 528.232 L3043.45 528.232 L3043.45 522.758 Q3041.31 526.004 3038.48 527.596 Q3035.68 529.155 3031.96 529.155 Q3025.81 529.155 3022.63 525.336 Q3019.45 521.516 3019.45 514.164 M3034.19 491.725 L3034.19 491.725 Z" fill="#000000" fill-rule="evenodd" fill-opacity="1" /><path clip-path="url(#clip7100)" d="M 0 0 M3071.65 510.313 Q3064.55 510.313 3061.81 511.936 Q3059.08 513.559 3059.08 517.474 Q3059.08 520.593 3061.11 522.439 Q3063.18 524.254 3066.71 524.254 Q3071.58 524.254 3074.51 520.816 Q3077.47 517.347 3077.47 511.618 L3077.47 510.313 L3071.65 510.313 M3083.33 507.894 L3083.33 528.232 L3077.47 528.232 L3077.47 522.821 Q3075.47 526.068 3072.47 527.627 Q3069.48 529.155 3065.15 529.155 Q3059.68 529.155 3056.43 526.1 Q3053.22 523.012 3053.22 517.856 Q3053.22 511.84 3057.23 508.785 Q3061.27 505.729 3069.26 505.729 L3077.47 505.729 L3077.47 505.156 Q3077.47 501.114 3074.8 498.918 Q3072.16 496.69 3067.35 496.69 Q3064.29 496.69 3061.4 497.422 Q3058.5 498.154 3055.83 499.618 L3055.83 494.207 Q3059.04 492.966 3062.07 492.361 Q3065.09 491.725 3067.96 491.725 Q3075.69 491.725 3079.51 495.735 Q3083.33 499.746 3083.33 507.894 Z" fill="#000000" fill-rule="evenodd" fill-opacity="1" /><path clip-path="url(#clip7100)" d="M 0 0 M3112.93 497.995 L3112.93 478.707 L3118.79 478.707 L3118.79 528.232 L3112.93 528.232 L3112.93 522.885 Q3111.08 526.068 3108.25 527.627 Q3105.45 529.155 3101.5 529.155 Q3095.04 529.155 3090.97 523.999 Q3086.93 518.843 3086.93 510.44 Q3086.93 502.037 3090.97 496.881 Q3095.04 491.725 3101.5 491.725 Q3105.45 491.725 3108.25 493.284 Q3111.08 494.812 3112.93 497.995 M3092.97 510.44 Q3092.97 516.901 3095.61 520.593 Q3098.29 524.254 3102.93 524.254 Q3107.58 524.254 3110.26 520.593 Q3112.93 516.901 3112.93 510.44 Q3112.93 503.979 3110.26 500.319 Q3107.58 496.626 3102.93 496.626 Q3098.29 496.626 3095.61 500.319 Q3092.97 503.979 3092.97 510.44 Z" fill="#000000" fill-rule="evenodd" fill-opacity="1" /><path clip-path="url(#clip7100)" d="M 0 0 M3164.14 486.314 L3147.91 511.681 L3164.14 511.681 L3164.14 486.314 M3162.45 480.712 L3170.54 480.712 L3170.54 511.681 L3177.32 511.681 L3177.32 517.028 L3170.54 517.028 L3170.54 528.232 L3164.14 528.232 L3164.14 517.028 L3142.69 517.028 L3142.69 510.822 L3162.45 480.712 Z" fill="#000000" fill-rule="evenodd" fill-opacity="1" /><polyline clip-path="url(#clip7100)" style="stroke:#ac8d18; stroke-width:16; stroke-opacity:1; fill:none" points="
  2745.92,564.952 2937.92,564.952 
  "/>
<path clip-path="url(#clip7100)" d="M 0 0 M2969.92 541.192 L2976.35 541.192 L2976.35 583.301 L2999.49 583.301 L2999.49 588.712 L2969.92 588.712 L2969.92 541.192 Z" fill="#000000" fill-rule="evenodd" fill-opacity="1" /><path clip-path="url(#clip7100)" d="M 0 0 M3018.3 557.17 Q3013.59 557.17 3010.85 560.862 Q3008.12 564.522 3008.12 570.92 Q3008.12 577.318 3010.82 581.01 Q3013.56 584.67 3018.3 584.67 Q3022.98 584.67 3025.72 580.978 Q3028.46 577.286 3028.46 570.92 Q3028.46 564.586 3025.72 560.894 Q3022.98 557.17 3018.3 557.17 M3018.3 552.205 Q3025.94 552.205 3030.3 557.17 Q3034.66 562.135 3034.66 570.92 Q3034.66 579.673 3030.3 584.67 Q3025.94 589.635 3018.3 589.635 Q3010.63 589.635 3006.27 584.67 Q3001.94 579.673 3001.94 570.92 Q3001.94 562.135 3006.27 557.17 Q3010.63 552.205 3018.3 552.205 Z" fill="#000000" fill-rule="evenodd" fill-opacity="1" /><path clip-path="url(#clip7100)" d="M 0 0 M3057.01 570.793 Q3049.91 570.793 3047.17 572.416 Q3044.43 574.039 3044.43 577.954 Q3044.43 581.073 3046.47 582.919 Q3048.54 584.734 3052.07 584.734 Q3056.94 584.734 3059.87 581.296 Q3062.83 577.827 3062.83 572.098 L3062.83 570.793 L3057.01 570.793 M3068.69 568.374 L3068.69 588.712 L3062.83 588.712 L3062.83 583.301 Q3060.83 586.548 3057.83 588.107 Q3054.84 589.635 3050.51 589.635 Q3045.04 589.635 3041.79 586.58 Q3038.58 583.492 3038.58 578.336 Q3038.58 572.32 3042.59 569.265 Q3046.63 566.209 3054.62 566.209 L3062.83 566.209 L3062.83 565.636 Q3062.83 561.594 3060.16 559.398 Q3057.52 557.17 3052.71 557.17 Q3049.65 557.17 3046.76 557.902 Q3043.86 558.634 3041.19 560.098 L3041.19 554.687 Q3044.4 553.446 3047.43 552.841 Q3050.45 552.205 3053.31 552.205 Q3061.05 552.205 3064.87 556.215 Q3068.69 560.226 3068.69 568.374 Z" fill="#000000" fill-rule="evenodd" fill-opacity="1" /><path clip-path="url(#clip7100)" d="M 0 0 M3098.29 558.475 L3098.29 539.187 L3104.14 539.187 L3104.14 588.712 L3098.29 588.712 L3098.29 583.365 Q3096.44 586.548 3093.61 588.107 Q3090.81 589.635 3086.86 589.635 Q3080.4 589.635 3076.33 584.479 Q3072.28 579.323 3072.28 570.92 Q3072.28 562.517 3076.33 557.361 Q3080.4 552.205 3086.86 552.205 Q3090.81 552.205 3093.61 553.764 Q3096.44 555.292 3098.29 558.475 M3078.33 570.92 Q3078.33 577.381 3080.97 581.073 Q3083.65 584.734 3088.29 584.734 Q3092.94 584.734 3095.61 581.073 Q3098.29 577.381 3098.29 570.92 Q3098.29 564.459 3095.61 560.799 Q3092.94 557.106 3088.29 557.106 Q3083.65 557.106 3080.97 560.799 Q3078.33 564.459 3078.33 570.92 Z" fill="#000000" fill-rule="evenodd" fill-opacity="1" /></svg>
