<?xml version="1.0" encoding="utf-8"?>
<svg xmlns="http://www.w3.org/2000/svg" xmlns:xlink="http://www.w3.org/1999/xlink" width="800" height="600" viewBox="0 0 3200 2400">
<defs>
  <clipPath id="clip6800">
    <rect x="0" y="0" width="3200" height="2400"/>
  </clipPath>
</defs>
<path clip-path="url(#clip6800)" d="
M0 2400 L3200 2400 L3200 0 L0 0  Z
  " fill="#ffffff" fill-rule="evenodd" fill-opacity="1"/>
<defs>
  <clipPath id="clip6801">
    <rect x="640" y="0" width="2241" height="2241"/>
  </clipPath>
</defs>
<path clip-path="url(#clip6800)" d="
M239.431 2204.92 L2617.92 2204.92 L2617.92 131.032 L239.431 131.032  Z
  " fill="#ffffff" fill-rule="evenodd" fill-opacity="1"/>
<defs>
  <clipPath id="clip6802">
    <rect x="239" y="131" width="2379" height="2075"/>
  </clipPath>
</defs>
<polyline clip-path="url(#clip6802)" style="stroke:#000000; stroke-width:2; stroke-opacity:0.1; fill:none" points="
  306.747,2204.92 306.747,131.032 
  "/>
<polyline clip-path="url(#clip6802)" style="stroke:#000000; stroke-width:2; stroke-opacity:0.1; fill:none" points="
  755.519,2204.92 755.519,131.032 
  "/>
<polyline clip-path="url(#clip6802)" style="stroke:#000000; stroke-width:2; stroke-opacity:0.1; fill:none" points="
  1204.29,2204.92 1204.29,131.032 
  "/>
<polyline clip-path="url(#clip6802)" style="stroke:#000000; stroke-width:2; stroke-opacity:0.1; fill:none" points="
  1653.06,2204.92 1653.06,131.032 
  "/>
<polyline clip-path="url(#clip6802)" style="stroke:#000000; stroke-width:2; stroke-opacity:0.1; fill:none" points="
  2101.84,2204.92 2101.84,131.032 
  "/>
<polyline clip-path="url(#clip6802)" style="stroke:#000000; stroke-width:2; stroke-opacity:0.1; fill:none" points="
  2550.61,2204.92 2550.61,131.032 
  "/>
<polyline clip-path="url(#clip6802)" style="stroke:#000000; stroke-width:2; stroke-opacity:0.1; fill:none" points="
  239.431,2076.27 2617.92,2076.27 
  "/>
<polyline clip-path="url(#clip6802)" style="stroke:#000000; stroke-width:2; stroke-opacity:0.1; fill:none" points="
  239.431,1633.19 2617.92,1633.19 
  "/>
<polyline clip-path="url(#clip6802)" style="stroke:#000000; stroke-width:2; stroke-opacity:0.1; fill:none" points="
  239.431,1190.1 2617.92,1190.1 
  "/>
<polyline clip-path="url(#clip6802)" style="stroke:#000000; stroke-width:2; stroke-opacity:0.1; fill:none" points="
  239.431,747.015 2617.92,747.015 
  "/>
<polyline clip-path="url(#clip6802)" style="stroke:#000000; stroke-width:2; stroke-opacity:0.1; fill:none" points="
  239.431,303.929 2617.92,303.929 
  "/>
<polyline clip-path="url(#clip6800)" style="stroke:#000000; stroke-width:4; stroke-opacity:1; fill:none" points="
  239.431,2204.92 2617.92,2204.92 
  "/>
<polyline clip-path="url(#clip6800)" style="stroke:#000000; stroke-width:4; stroke-opacity:1; fill:none" points="
  239.431,2204.92 239.431,131.032 
  "/>
<polyline clip-path="url(#clip6800)" style="stroke:#000000; stroke-width:4; stroke-opacity:1; fill:none" points="
  306.747,2204.92 306.747,2180.03 
  "/>
<polyline clip-path="url(#clip6800)" style="stroke:#000000; stroke-width:4; stroke-opacity:1; fill:none" points="
  755.519,2204.92 755.519,2180.03 
  "/>
<polyline clip-path="url(#clip6800)" style="stroke:#000000; stroke-width:4; stroke-opacity:1; fill:none" points="
  1204.29,2204.92 1204.29,2180.03 
  "/>
<polyline clip-path="url(#clip6800)" style="stroke:#000000; stroke-width:4; stroke-opacity:1; fill:none" points="
  1653.06,2204.92 1653.06,2180.03 
  "/>
<polyline clip-path="url(#clip6800)" style="stroke:#000000; stroke-width:4; stroke-opacity:1; fill:none" points="
  2101.84,2204.92 2101.84,2180.03 
  "/>
<polyline clip-path="url(#clip6800)" style="stroke:#000000; stroke-width:4; stroke-opacity:1; fill:none" points="
  2550.61,2204.92 2550.61,2180.03 
  "/>
<polyline clip-path="url(#clip6800)" style="stroke:#000000; stroke-width:4; stroke-opacity:1; fill:none" points="
  239.431,2076.27 267.973,2076.27 
  "/>
<polyline clip-path="url(#clip6800)" style="stroke:#000000; stroke-width:4; stroke-opacity:1; fill:none" points="
  239.431,1633.19 267.973,1633.19 
  "/>
<polyline clip-path="url(#clip6800)" style="stroke:#000000; stroke-width:4; stroke-opacity:1; fill:none" points="
  239.431,1190.1 267.973,1190.1 
  "/>
<polyline clip-path="url(#clip6800)" style="stroke:#000000; stroke-width:4; stroke-opacity:1; fill:none" points="
  239.431,747.015 267.973,747.015 
  "/>
<polyline clip-path="url(#clip6800)" style="stroke:#000000; stroke-width:4; stroke-opacity:1; fill:none" points="
  239.431,303.929 267.973,303.929 
  "/>
<path clip-path="url(#clip6800)" d="M 0 0 M306.747 2230.91 Q303.136 2230.91 301.307 2234.48 Q299.502 2238.02 299.502 2245.15 Q299.502 2252.25 301.307 2255.82 Q303.136 2259.36 306.747 2259.36 Q310.381 2259.36 312.187 2255.82 Q314.016 2252.25 314.016 2245.15 Q314.016 2238.02 312.187 2234.48 Q310.381 2230.91 306.747 2230.91 M306.747 2227.21 Q312.557 2227.21 315.613 2231.81 Q318.691 2236.4 318.691 2245.15 Q318.691 2253.87 315.613 2258.48 Q312.557 2263.06 306.747 2263.06 Q300.937 2263.06 297.858 2258.48 Q294.803 2253.87 294.803 2245.15 Q294.803 2236.4 297.858 2231.81 Q300.937 2227.21 306.747 2227.21 Z" fill="#000000" fill-rule="evenodd" fill-opacity="1" /><path clip-path="url(#clip6800)" d="M 0 0 M745.901 2258.46 L753.54 2258.46 L753.54 2232.09 L745.23 2233.76 L745.23 2229.5 L753.494 2227.83 L758.17 2227.83 L758.17 2258.46 L765.808 2258.46 L765.808 2262.39 L745.901 2262.39 L745.901 2258.46 Z" fill="#000000" fill-rule="evenodd" fill-opacity="1" /><path clip-path="url(#clip6800)" d="M 0 0 M1198.94 2258.46 L1215.26 2258.46 L1215.26 2262.39 L1193.32 2262.39 L1193.32 2258.46 Q1195.98 2255.7 1200.56 2251.07 Q1205.17 2246.42 1206.35 2245.08 Q1208.6 2242.55 1209.48 2240.82 Q1210.38 2239.06 1210.38 2237.37 Q1210.38 2234.61 1208.43 2232.88 Q1206.51 2231.14 1203.41 2231.14 Q1201.21 2231.14 1198.76 2231.91 Q1196.33 2232.67 1193.55 2234.22 L1193.55 2229.5 Q1196.37 2228.36 1198.83 2227.79 Q1201.28 2227.21 1203.32 2227.21 Q1208.69 2227.21 1211.88 2229.89 Q1215.08 2232.58 1215.08 2237.07 Q1215.08 2239.2 1214.27 2241.12 Q1213.48 2243.02 1211.37 2245.61 Q1210.8 2246.28 1207.69 2249.5 Q1204.59 2252.69 1198.94 2258.46 Z" fill="#000000" fill-rule="evenodd" fill-opacity="1" /><path clip-path="url(#clip6800)" d="M 0 0 M1657.31 2243.76 Q1660.67 2244.48 1662.54 2246.74 Q1664.44 2249.01 1664.44 2252.35 Q1664.44 2257.46 1660.92 2260.26 Q1657.4 2263.06 1650.92 2263.06 Q1648.75 2263.06 1646.43 2262.62 Q1644.14 2262.21 1641.69 2261.35 L1641.69 2256.84 Q1643.63 2257.97 1645.95 2258.55 Q1648.26 2259.13 1650.78 2259.13 Q1655.18 2259.13 1657.47 2257.39 Q1659.79 2255.66 1659.79 2252.35 Q1659.79 2249.29 1657.64 2247.58 Q1655.51 2245.84 1651.69 2245.84 L1647.66 2245.84 L1647.66 2242 L1651.87 2242 Q1655.32 2242 1657.15 2240.63 Q1658.98 2239.24 1658.98 2236.65 Q1658.98 2233.99 1657.08 2232.58 Q1655.2 2231.14 1651.69 2231.14 Q1649.76 2231.14 1647.57 2231.56 Q1645.37 2231.98 1642.73 2232.85 L1642.73 2228.69 Q1645.39 2227.95 1647.7 2227.58 Q1650.04 2227.21 1652.1 2227.21 Q1657.43 2227.21 1660.53 2229.64 Q1663.63 2232.04 1663.63 2236.17 Q1663.63 2239.04 1661.99 2241.03 Q1660.34 2242.99 1657.31 2243.76 Z" fill="#000000" fill-rule="evenodd" fill-opacity="1" /><path clip-path="url(#clip6800)" d="M 0 0 M2104.84 2231.91 L2093.04 2250.35 L2104.84 2250.35 L2104.84 2231.91 M2103.62 2227.83 L2109.5 2227.83 L2109.5 2250.35 L2114.43 2250.35 L2114.43 2254.24 L2109.5 2254.24 L2109.5 2262.39 L2104.84 2262.39 L2104.84 2254.24 L2089.24 2254.24 L2089.24 2249.73 L2103.62 2227.83 Z" fill="#000000" fill-rule="evenodd" fill-opacity="1" /><path clip-path="url(#clip6800)" d="M 0 0 M2540.89 2227.83 L2559.24 2227.83 L2559.24 2231.77 L2545.17 2231.77 L2545.17 2240.24 Q2546.19 2239.89 2547.2 2239.73 Q2548.22 2239.54 2549.24 2239.54 Q2555.03 2239.54 2558.41 2242.72 Q2561.79 2245.89 2561.79 2251.3 Q2561.79 2256.88 2558.32 2259.98 Q2554.84 2263.06 2548.52 2263.06 Q2546.35 2263.06 2544.08 2262.69 Q2541.83 2262.32 2539.43 2261.58 L2539.43 2256.88 Q2541.51 2258.02 2543.73 2258.57 Q2545.95 2259.13 2548.43 2259.13 Q2552.44 2259.13 2554.77 2257.02 Q2557.11 2254.92 2557.11 2251.3 Q2557.11 2247.69 2554.77 2245.59 Q2552.44 2243.48 2548.43 2243.48 Q2546.56 2243.48 2544.68 2243.9 Q2542.83 2244.31 2540.89 2245.19 L2540.89 2227.83 Z" fill="#000000" fill-rule="evenodd" fill-opacity="1" /><path clip-path="url(#clip6800)" d="M 0 0 M132.571 2078.67 L145.047 2078.67 L145.047 2082.47 L132.571 2082.47 L132.571 2078.67 Z" fill="#000000" fill-rule="evenodd" fill-opacity="1" /><path clip-path="url(#clip6800)" d="M 0 0 M160.117 2062.07 Q156.506 2062.07 154.677 2065.64 Q152.871 2069.18 152.871 2076.31 Q152.871 2083.42 154.677 2086.98 Q156.506 2090.52 160.117 2090.52 Q163.751 2090.52 165.556 2086.98 Q167.385 2083.42 167.385 2076.31 Q167.385 2069.18 165.556 2065.64 Q163.751 2062.07 160.117 2062.07 M160.117 2058.37 Q165.927 2058.37 168.982 2062.98 Q172.061 2067.56 172.061 2076.31 Q172.061 2085.04 168.982 2089.64 Q165.927 2094.23 160.117 2094.23 Q154.307 2094.23 151.228 2089.64 Q148.172 2085.04 148.172 2076.31 Q148.172 2067.56 151.228 2062.98 Q154.307 2058.37 160.117 2058.37 Z" fill="#000000" fill-rule="evenodd" fill-opacity="1" /><path clip-path="url(#clip6800)" d="M 0 0 M177.13 2087.67 L182.015 2087.67 L182.015 2093.55 L177.13 2093.55 L177.13 2087.67 Z" fill="#000000" fill-rule="evenodd" fill-opacity="1" /><path clip-path="url(#clip6800)" d="M 0 0 M191.112 2089.62 L207.431 2089.62 L207.431 2093.55 L185.487 2093.55 L185.487 2089.62 Q188.149 2086.86 192.732 2082.23 Q197.339 2077.58 198.519 2076.24 Q200.765 2073.72 201.644 2071.98 Q202.547 2070.22 202.547 2068.53 Q202.547 2065.78 200.603 2064.04 Q198.681 2062.3 195.579 2062.3 Q193.38 2062.3 190.927 2063.07 Q188.496 2063.83 185.718 2065.38 L185.718 2060.66 Q188.542 2059.53 190.996 2058.95 Q193.45 2058.37 195.487 2058.37 Q200.857 2058.37 204.052 2061.05 Q207.246 2063.74 207.246 2068.23 Q207.246 2070.36 206.436 2072.28 Q205.649 2074.18 203.542 2076.77 Q202.964 2077.44 199.862 2080.66 Q196.76 2083.86 191.112 2089.62 Z" fill="#000000" fill-rule="evenodd" fill-opacity="1" /><path clip-path="url(#clip6800)" d="M 0 0 M132.2 1635.58 L144.677 1635.58 L144.677 1639.38 L132.2 1639.38 L132.2 1635.58 Z" fill="#000000" fill-rule="evenodd" fill-opacity="1" /><path clip-path="url(#clip6800)" d="M 0 0 M159.746 1618.99 Q156.135 1618.99 154.307 1622.55 Q152.501 1626.09 152.501 1633.22 Q152.501 1640.33 154.307 1643.89 Q156.135 1647.44 159.746 1647.44 Q163.381 1647.44 165.186 1643.89 Q167.015 1640.33 167.015 1633.22 Q167.015 1626.09 165.186 1622.55 Q163.381 1618.99 159.746 1618.99 M159.746 1615.28 Q165.556 1615.28 168.612 1619.89 Q171.691 1624.47 171.691 1633.22 Q171.691 1641.95 168.612 1646.56 Q165.556 1651.14 159.746 1651.14 Q153.936 1651.14 150.857 1646.56 Q147.802 1641.95 147.802 1633.22 Q147.802 1624.47 150.857 1619.89 Q153.936 1615.28 159.746 1615.28 Z" fill="#000000" fill-rule="evenodd" fill-opacity="1" /><path clip-path="url(#clip6800)" d="M 0 0 M176.76 1644.59 L181.644 1644.59 L181.644 1650.47 L176.76 1650.47 L176.76 1644.59 Z" fill="#000000" fill-rule="evenodd" fill-opacity="1" /><path clip-path="url(#clip6800)" d="M 0 0 M187.524 1646.53 L195.163 1646.53 L195.163 1620.17 L186.853 1621.83 L186.853 1617.57 L195.116 1615.91 L199.792 1615.91 L199.792 1646.53 L207.431 1646.53 L207.431 1650.47 L187.524 1650.47 L187.524 1646.53 Z" fill="#000000" fill-rule="evenodd" fill-opacity="1" /><path clip-path="url(#clip6800)" d="M 0 0 M158.519 1175.9 Q154.908 1175.9 153.08 1179.46 Q151.274 1183.01 151.274 1190.14 Q151.274 1197.24 153.08 1200.81 Q154.908 1204.35 158.519 1204.35 Q162.154 1204.35 163.959 1200.81 Q165.788 1197.24 165.788 1190.14 Q165.788 1183.01 163.959 1179.46 Q162.154 1175.9 158.519 1175.9 M158.519 1172.2 Q164.33 1172.2 167.385 1176.8 Q170.464 1181.39 170.464 1190.14 Q170.464 1198.86 167.385 1203.47 Q164.33 1208.05 158.519 1208.05 Q152.709 1208.05 149.631 1203.47 Q146.575 1198.86 146.575 1190.14 Q146.575 1181.39 149.631 1176.8 Q152.709 1172.2 158.519 1172.2 Z" fill="#000000" fill-rule="evenodd" fill-opacity="1" /><path clip-path="url(#clip6800)" d="M 0 0 M175.533 1201.5 L180.417 1201.5 L180.417 1207.38 L175.533 1207.38 L175.533 1201.5 Z" fill="#000000" fill-rule="evenodd" fill-opacity="1" /><path clip-path="url(#clip6800)" d="M 0 0 M195.487 1175.9 Q191.876 1175.9 190.047 1179.46 Q188.242 1183.01 188.242 1190.14 Q188.242 1197.24 190.047 1200.81 Q191.876 1204.35 195.487 1204.35 Q199.121 1204.35 200.927 1200.81 Q202.755 1197.24 202.755 1190.14 Q202.755 1183.01 200.927 1179.46 Q199.121 1175.9 195.487 1175.9 M195.487 1172.2 Q201.297 1172.2 204.353 1176.8 Q207.431 1181.39 207.431 1190.14 Q207.431 1198.86 204.353 1203.47 Q201.297 1208.05 195.487 1208.05 Q189.677 1208.05 186.598 1203.47 Q183.542 1198.86 183.542 1190.14 Q183.542 1181.39 186.598 1176.8 Q189.677 1172.2 195.487 1172.2 Z" fill="#000000" fill-rule="evenodd" fill-opacity="1" /><path clip-path="url(#clip6800)" d="M 0 0 M159.746 732.814 Q156.135 732.814 154.307 736.379 Q152.501 739.92 152.501 747.05 Q152.501 754.156 154.307 757.721 Q156.135 761.263 159.746 761.263 Q163.381 761.263 165.186 757.721 Q167.015 754.156 167.015 747.05 Q167.015 739.92 165.186 736.379 Q163.381 732.814 159.746 732.814 M159.746 729.11 Q165.556 729.11 168.612 733.717 Q171.691 738.3 171.691 747.05 Q171.691 755.777 168.612 760.383 Q165.556 764.966 159.746 764.966 Q153.936 764.966 150.857 760.383 Q147.802 755.777 147.802 747.05 Q147.802 738.3 150.857 733.717 Q153.936 729.11 159.746 729.11 Z" fill="#000000" fill-rule="evenodd" fill-opacity="1" /><path clip-path="url(#clip6800)" d="M 0 0 M176.76 758.415 L181.644 758.415 L181.644 764.295 L176.76 764.295 L176.76 758.415 Z" fill="#000000" fill-rule="evenodd" fill-opacity="1" /><path clip-path="url(#clip6800)" d="M 0 0 M187.524 760.36 L195.163 760.36 L195.163 733.994 L186.853 735.661 L186.853 731.402 L195.116 729.735 L199.792 729.735 L199.792 760.36 L207.431 760.36 L207.431 764.295 L187.524 764.295 L187.524 760.36 Z" fill="#000000" fill-rule="evenodd" fill-opacity="1" /><path clip-path="url(#clip6800)" d="M 0 0 M160.117 289.727 Q156.506 289.727 154.677 293.292 Q152.871 296.834 152.871 303.963 Q152.871 311.07 154.677 314.635 Q156.506 318.176 160.117 318.176 Q163.751 318.176 165.556 314.635 Q167.385 311.07 167.385 303.963 Q167.385 296.834 165.556 293.292 Q163.751 289.727 160.117 289.727 M160.117 286.024 Q165.927 286.024 168.982 290.63 Q172.061 295.213 172.061 303.963 Q172.061 312.69 168.982 317.297 Q165.927 321.88 160.117 321.88 Q154.307 321.88 151.228 317.297 Q148.172 312.69 148.172 303.963 Q148.172 295.213 151.228 290.63 Q154.307 286.024 160.117 286.024 Z" fill="#000000" fill-rule="evenodd" fill-opacity="1" /><path clip-path="url(#clip6800)" d="M 0 0 M177.13 315.329 L182.015 315.329 L182.015 321.209 L177.13 321.209 L177.13 315.329 Z" fill="#000000" fill-rule="evenodd" fill-opacity="1" /><path clip-path="url(#clip6800)" d="M 0 0 M191.112 317.274 L207.431 317.274 L207.431 321.209 L185.487 321.209 L185.487 317.274 Q188.149 314.519 192.732 309.889 Q197.339 305.237 198.519 303.894 Q200.765 301.371 201.644 299.635 Q202.547 297.875 202.547 296.186 Q202.547 293.431 200.603 291.695 Q198.681 289.959 195.579 289.959 Q193.38 289.959 190.927 290.723 Q188.496 291.487 185.718 293.038 L185.718 288.315 Q188.542 287.181 190.996 286.602 Q193.45 286.024 195.487 286.024 Q200.857 286.024 204.052 288.709 Q207.246 291.394 207.246 295.885 Q207.246 298.014 206.436 299.936 Q205.649 301.834 203.542 304.426 Q202.964 305.098 199.862 308.315 Q196.76 311.51 191.112 317.274 Z" fill="#000000" fill-rule="evenodd" fill-opacity="1" /><path clip-path="url(#clip6800)" d="M 0 0 M462.091 12.096 L470.274 12.096 L470.274 36.8875 L500.008 36.8875 L500.008 12.096 L508.19 12.096 L508.19 72.576 L500.008 72.576 L500.008 43.7741 L470.274 43.7741 L470.274 72.576 L462.091 72.576 L462.091 12.096 Z" fill="#000000" fill-rule="evenodd" fill-opacity="1" /><path clip-path="url(#clip6800)" d="M 0 0 M533.59 32.4315 Q527.594 32.4315 524.11 37.1306 Q520.627 41.7891 520.627 49.9314 Q520.627 58.0738 524.07 62.7728 Q527.554 67.4314 533.59 67.4314 Q539.544 67.4314 543.028 62.7323 Q546.512 58.0333 546.512 49.9314 Q546.512 41.8701 543.028 37.1711 Q539.544 32.4315 533.59 32.4315 M533.59 26.1121 Q543.312 26.1121 548.861 32.4315 Q554.411 38.7509 554.411 49.9314 Q554.411 61.0714 548.861 67.4314 Q543.312 73.7508 533.59 73.7508 Q523.827 73.7508 518.277 67.4314 Q512.768 61.0714 512.768 49.9314 Q512.768 38.7509 518.277 32.4315 Q523.827 26.1121 533.59 26.1121 Z" fill="#000000" fill-rule="evenodd" fill-opacity="1" /><path clip-path="url(#clip6800)" d="M 0 0 M556.882 27.2059 L564.781 27.2059 L578.96 65.2844 L593.138 27.2059 L601.037 27.2059 L584.023 72.576 L573.896 72.576 L556.882 27.2059 Z" fill="#000000" fill-rule="evenodd" fill-opacity="1" /><path clip-path="url(#clip6800)" d="M 0 0 M647.663 48.0275 L647.663 51.6733 L613.392 51.6733 Q613.878 59.3701 618.01 63.421 Q622.183 67.4314 629.596 67.4314 Q633.89 67.4314 637.9 66.3781 Q641.951 65.3249 645.921 63.2184 L645.921 70.267 Q641.911 71.9684 637.698 72.8596 Q633.485 73.7508 629.15 73.7508 Q618.294 73.7508 611.934 67.4314 Q605.615 61.1119 605.615 50.3365 Q605.615 39.1965 611.61 32.6746 Q617.646 26.1121 627.854 26.1121 Q637.009 26.1121 642.316 32.0264 Q647.663 37.9003 647.663 48.0275 M640.209 45.84 Q640.128 39.7232 636.766 36.0774 Q633.444 32.4315 627.935 32.4315 Q621.697 32.4315 617.929 35.9558 Q614.203 39.4801 613.635 45.8805 L640.209 45.84 Z" fill="#000000" fill-rule="evenodd" fill-opacity="1" /><path clip-path="url(#clip6800)" d="M 0 0 M681.772 34.1734 Q680.516 33.4443 679.017 33.1202 Q677.559 32.7556 675.776 32.7556 Q669.457 32.7556 666.054 36.8875 Q662.692 40.9789 662.692 48.6757 L662.692 72.576 L655.198 72.576 L655.198 27.2059 L662.692 27.2059 L662.692 34.2544 Q665.041 30.1225 668.809 28.1376 Q672.576 26.1121 677.964 26.1121 Q678.733 26.1121 679.665 26.2337 Q680.597 26.3147 681.731 26.5172 L681.772 34.1734 Z" fill="#000000" fill-rule="evenodd" fill-opacity="1" /><path clip-path="url(#clip6800)" d="M 0 0 M689.59 27.2059 L697.043 27.2059 L697.043 72.576 L689.59 72.576 L689.59 27.2059 M689.59 9.54393 L697.043 9.54393 L697.043 18.9825 L689.59 18.9825 L689.59 9.54393 Z" fill="#000000" fill-rule="evenodd" fill-opacity="1" /><path clip-path="url(#clip6800)" d="M 0 0 M742.576 45.1919 L742.576 72.576 L735.122 72.576 L735.122 45.4349 Q735.122 38.994 732.61 35.7938 Q730.099 32.5936 725.076 32.5936 Q719.04 32.5936 715.556 36.4419 Q712.072 40.2903 712.072 46.9338 L712.072 72.576 L704.578 72.576 L704.578 27.2059 L712.072 27.2059 L712.072 34.2544 Q714.746 30.163 718.351 28.1376 Q721.997 26.1121 726.737 26.1121 Q734.555 26.1121 738.565 30.9732 Q742.576 35.7938 742.576 45.1919 Z" fill="#000000" fill-rule="evenodd" fill-opacity="1" /><path clip-path="url(#clip6800)" d="M 0 0 M780.249 49.3643 Q780.249 41.2625 776.887 36.8065 Q773.565 32.3505 767.529 32.3505 Q761.534 32.3505 758.172 36.8065 Q754.85 41.2625 754.85 49.3643 Q754.85 57.4256 758.172 61.8816 Q761.534 66.3376 767.529 66.3376 Q773.565 66.3376 776.887 61.8816 Q780.249 57.4256 780.249 49.3643 M787.703 66.9452 Q787.703 78.5308 782.558 84.1616 Q777.413 89.8329 766.8 89.8329 Q762.871 89.8329 759.387 89.2252 Q755.903 88.6581 752.622 87.4428 L752.622 80.1917 Q755.903 81.9741 759.103 82.8248 Q762.304 83.6755 765.625 83.6755 Q772.957 83.6755 776.603 79.8271 Q780.249 76.0193 780.249 68.282 L780.249 64.5957 Q777.94 68.6061 774.335 70.5911 Q770.729 72.576 765.706 72.576 Q757.361 72.576 752.257 66.2161 Q747.153 59.8562 747.153 49.3643 Q747.153 38.832 752.257 32.472 Q757.361 26.1121 765.706 26.1121 Q770.729 26.1121 774.335 28.0971 Q777.94 30.082 780.249 34.0924 L780.249 27.2059 L787.703 27.2059 L787.703 66.9452 Z" fill="#000000" fill-rule="evenodd" fill-opacity="1" /><path clip-path="url(#clip6800)" d="M 0 0 M817.558 27.2059 L825.012 27.2059 L834.329 62.6108 L843.605 27.2059 L852.396 27.2059 L861.713 62.6108 L870.989 27.2059 L878.443 27.2059 L866.574 72.576 L857.783 72.576 L848.021 35.3887 L838.218 72.576 L829.427 72.576 L817.558 27.2059 Z" fill="#000000" fill-rule="evenodd" fill-opacity="1" /><path clip-path="url(#clip6800)" d="M 0 0 M886.261 27.2059 L893.715 27.2059 L893.715 72.576 L886.261 72.576 L886.261 27.2059 M886.261 9.54393 L893.715 9.54393 L893.715 18.9825 L886.261 18.9825 L886.261 9.54393 Z" fill="#000000" fill-rule="evenodd" fill-opacity="1" /><path clip-path="url(#clip6800)" d="M 0 0 M908.906 14.324 L908.906 27.2059 L924.259 27.2059 L924.259 32.9987 L908.906 32.9987 L908.906 57.6282 Q908.906 63.1779 910.405 64.7578 Q911.944 66.3376 916.603 66.3376 L924.259 66.3376 L924.259 72.576 L916.603 72.576 Q907.974 72.576 904.693 69.3758 Q901.412 66.1351 901.412 57.6282 L901.412 32.9987 L895.943 32.9987 L895.943 27.2059 L901.412 27.2059 L901.412 14.324 L908.906 14.324 Z" fill="#000000" fill-rule="evenodd" fill-opacity="1" /><path clip-path="url(#clip6800)" d="M 0 0 M969.791 45.1919 L969.791 72.576 L962.337 72.576 L962.337 45.4349 Q962.337 38.994 959.826 35.7938 Q957.314 32.5936 952.291 32.5936 Q946.255 32.5936 942.771 36.4419 Q939.288 40.2903 939.288 46.9338 L939.288 72.576 L931.793 72.576 L931.793 9.54393 L939.288 9.54393 L939.288 34.2544 Q941.961 30.163 945.566 28.1376 Q949.212 26.1121 953.952 26.1121 Q961.77 26.1121 965.78 30.9732 Q969.791 35.7938 969.791 45.1919 Z" fill="#000000" fill-rule="evenodd" fill-opacity="1" /><path clip-path="url(#clip6800)" d="M 0 0 M1027.52 19.2256 L1006.86 51.5113 L1027.52 51.5113 L1027.52 19.2256 M1025.37 12.096 L1035.66 12.096 L1035.66 51.5113 L1044.29 51.5113 L1044.29 58.3168 L1035.66 58.3168 L1035.66 72.576 L1027.52 72.576 L1027.52 58.3168 L1000.21 58.3168 L1000.21 50.4176 L1025.37 12.096 Z" fill="#000000" fill-rule="evenodd" fill-opacity="1" /><path clip-path="url(#clip6800)" d="M 0 0 M1103.35 17.6457 Q1094.44 17.6457 1089.17 24.2892 Q1083.95 30.9327 1083.95 42.3968 Q1083.95 53.8203 1089.17 60.4638 Q1094.44 67.1073 1103.35 67.1073 Q1112.26 67.1073 1117.45 60.4638 Q1122.67 53.8203 1122.67 42.3968 Q1122.67 30.9327 1117.45 24.2892 Q1112.26 17.6457 1103.35 17.6457 M1114.81 71.4823 L1125.59 83.2704 L1115.7 83.2704 L1106.75 73.5887 Q1105.42 73.6697 1104.69 73.7103 Q1104 73.7508 1103.35 73.7508 Q1090.59 73.7508 1082.93 65.2439 Q1075.32 56.6965 1075.32 42.3968 Q1075.32 28.0566 1082.93 19.5497 Q1090.59 11.0023 1103.35 11.0023 Q1116.07 11.0023 1123.68 19.5497 Q1131.3 28.0566 1131.3 42.3968 Q1131.3 52.9291 1127.05 60.4233 Q1122.83 67.9175 1114.81 71.4823 Z" fill="#000000" fill-rule="evenodd" fill-opacity="1" /><path clip-path="url(#clip6800)" d="M 0 0 M1138.35 54.671 L1138.35 27.2059 L1145.8 27.2059 L1145.8 54.3874 Q1145.8 60.8284 1148.31 64.0691 Q1150.83 67.2693 1155.85 67.2693 Q1161.88 67.2693 1165.37 63.421 Q1168.89 59.5726 1168.89 52.9291 L1168.89 27.2059 L1176.35 27.2059 L1176.35 72.576 L1168.89 72.576 L1168.89 65.6084 Q1166.18 69.7404 1162.57 71.7658 Q1159.01 73.7508 1154.27 73.7508 Q1146.45 73.7508 1142.4 68.8897 Q1138.35 64.0286 1138.35 54.671 M1157.1 26.1121 L1157.1 26.1121 Z" fill="#000000" fill-rule="evenodd" fill-opacity="1" /><path clip-path="url(#clip6800)" d="M 0 0 M1204.78 49.7694 Q1195.75 49.7694 1192.27 51.8354 Q1188.78 53.9013 1188.78 58.8839 Q1188.78 62.8538 1191.38 65.2034 Q1194.01 67.5124 1198.5 67.5124 Q1204.7 67.5124 1208.43 63.1374 Q1212.2 58.7219 1212.2 51.4303 L1212.2 49.7694 L1204.78 49.7694 M1219.65 46.6907 L1219.65 72.576 L1212.2 72.576 L1212.2 65.6895 Q1209.64 69.8214 1205.84 71.8063 Q1202.03 73.7508 1196.52 73.7508 Q1189.55 73.7508 1185.42 69.8619 Q1181.33 65.9325 1181.33 59.3701 Q1181.33 51.7138 1186.43 47.825 Q1191.58 43.9361 1201.75 43.9361 L1212.2 43.9361 L1212.2 43.2069 Q1212.2 38.0623 1208.79 35.2672 Q1205.43 32.4315 1199.32 32.4315 Q1195.43 32.4315 1191.74 33.3632 Q1188.05 34.295 1184.65 36.1584 L1184.65 29.2718 Q1188.74 27.692 1192.59 26.9223 Q1196.44 26.1121 1200.08 26.1121 Q1209.93 26.1121 1214.79 31.2163 Q1219.65 36.3204 1219.65 46.6907 Z" fill="#000000" fill-rule="evenodd" fill-opacity="1" /><path clip-path="url(#clip6800)" d="M 0 0 M1257.32 34.0924 L1257.32 9.54393 L1264.78 9.54393 L1264.78 72.576 L1257.32 72.576 L1257.32 65.7705 Q1254.97 69.8214 1251.37 71.8063 Q1247.8 73.7508 1242.78 73.7508 Q1234.56 73.7508 1229.37 67.1883 Q1224.23 60.6258 1224.23 49.9314 Q1224.23 39.2371 1229.37 32.6746 Q1234.56 26.1121 1242.78 26.1121 Q1247.8 26.1121 1251.37 28.0971 Q1254.97 30.0415 1257.32 34.0924 M1231.92 49.9314 Q1231.92 58.1548 1235.29 62.8538 Q1238.69 67.5124 1244.6 67.5124 Q1250.52 67.5124 1253.92 62.8538 Q1257.32 58.1548 1257.32 49.9314 Q1257.32 41.7081 1253.92 37.0496 Q1250.52 32.3505 1244.6 32.3505 Q1238.69 32.3505 1235.29 37.0496 Q1231.92 41.7081 1231.92 49.9314 Z" fill="#000000" fill-rule="evenodd" fill-opacity="1" /><path clip-path="url(#clip6800)" d="M 0 0 M1298.89 34.1734 Q1297.63 33.4443 1296.13 33.1202 Q1294.67 32.7556 1292.89 32.7556 Q1286.57 32.7556 1283.17 36.8875 Q1279.81 40.9789 1279.81 48.6757 L1279.81 72.576 L1272.31 72.576 L1272.31 27.2059 L1279.81 27.2059 L1279.81 34.2544 Q1282.16 30.1225 1285.92 28.1376 Q1289.69 26.1121 1295.08 26.1121 Q1295.85 26.1121 1296.78 26.2337 Q1297.71 26.3147 1298.85 26.5172 L1298.89 34.1734 Z" fill="#000000" fill-rule="evenodd" fill-opacity="1" /><path clip-path="url(#clip6800)" d="M 0 0 M1322.46 32.4315 Q1316.47 32.4315 1312.98 37.1306 Q1309.5 41.7891 1309.5 49.9314 Q1309.5 58.0738 1312.94 62.7728 Q1316.43 67.4314 1322.46 67.4314 Q1328.42 67.4314 1331.9 62.7323 Q1335.38 58.0333 1335.38 49.9314 Q1335.38 41.8701 1331.9 37.1711 Q1328.42 32.4315 1322.46 32.4315 M1322.46 26.1121 Q1332.18 26.1121 1337.73 32.4315 Q1343.28 38.7509 1343.28 49.9314 Q1343.28 61.0714 1337.73 67.4314 Q1332.18 73.7508 1322.46 73.7508 Q1312.7 73.7508 1307.15 67.4314 Q1301.64 61.0714 1301.64 49.9314 Q1301.64 38.7509 1307.15 32.4315 Q1312.7 26.1121 1322.46 26.1121 Z" fill="#000000" fill-rule="evenodd" fill-opacity="1" /><path clip-path="url(#clip6800)" d="M 0 0 M1358.48 14.324 L1358.48 27.2059 L1373.83 27.2059 L1373.83 32.9987 L1358.48 32.9987 L1358.48 57.6282 Q1358.48 63.1779 1359.97 64.7578 Q1361.51 66.3376 1366.17 66.3376 L1373.83 66.3376 L1373.83 72.576 L1366.17 72.576 Q1357.54 72.576 1354.26 69.3758 Q1350.98 66.1351 1350.98 57.6282 L1350.98 32.9987 L1345.51 32.9987 L1345.51 27.2059 L1350.98 27.2059 L1350.98 14.324 L1358.48 14.324 Z" fill="#000000" fill-rule="evenodd" fill-opacity="1" /><path clip-path="url(#clip6800)" d="M 0 0 M1399.23 32.4315 Q1393.23 32.4315 1389.75 37.1306 Q1386.26 41.7891 1386.26 49.9314 Q1386.26 58.0738 1389.71 62.7728 Q1393.19 67.4314 1399.23 67.4314 Q1405.18 67.4314 1408.67 62.7323 Q1412.15 58.0333 1412.15 49.9314 Q1412.15 41.8701 1408.67 37.1711 Q1405.18 32.4315 1399.23 32.4315 M1399.23 26.1121 Q1408.95 26.1121 1414.5 32.4315 Q1420.05 38.7509 1420.05 49.9314 Q1420.05 61.0714 1414.5 67.4314 Q1408.95 73.7508 1399.23 73.7508 Q1389.46 73.7508 1383.91 67.4314 Q1378.41 61.0714 1378.41 49.9314 Q1378.41 38.7509 1383.91 32.4315 Q1389.46 26.1121 1399.23 26.1121 Z" fill="#000000" fill-rule="evenodd" fill-opacity="1" /><path clip-path="url(#clip6800)" d="M 0 0 M1454.16 34.1734 Q1452.9 33.4443 1451.4 33.1202 Q1449.94 32.7556 1448.16 32.7556 Q1441.84 32.7556 1438.44 36.8875 Q1435.08 40.9789 1435.08 48.6757 L1435.08 72.576 L1427.58 72.576 L1427.58 27.2059 L1435.08 27.2059 L1435.08 34.2544 Q1437.43 30.1225 1441.19 28.1376 Q1444.96 26.1121 1450.35 26.1121 Q1451.12 26.1121 1452.05 26.2337 Q1452.98 26.3147 1454.12 26.5172 L1454.16 34.1734 Z" fill="#000000" fill-rule="evenodd" fill-opacity="1" /><path clip-path="url(#clip6800)" d="M 0 0 M1490.9 28.5427 L1490.9 35.5912 Q1487.74 33.9709 1484.34 33.1607 Q1480.93 32.3505 1477.29 32.3505 Q1471.74 32.3505 1468.94 34.0519 Q1466.19 35.7533 1466.19 39.156 Q1466.19 41.7486 1468.17 43.2475 Q1470.16 44.7058 1476.15 46.0426 L1478.71 46.6097 Q1486.65 48.3111 1489.97 51.4303 Q1493.33 54.509 1493.33 60.0587 Q1493.33 66.3781 1488.31 70.0644 Q1483.32 73.7508 1474.57 73.7508 Q1470.93 73.7508 1466.96 73.0216 Q1463.03 72.3329 1458.65 70.9151 L1458.65 63.2184 Q1462.79 65.3654 1466.8 66.4591 Q1470.81 67.5124 1474.74 67.5124 Q1480 67.5124 1482.84 65.73 Q1485.67 63.9071 1485.67 60.6258 Q1485.67 57.5877 1483.61 55.9673 Q1481.58 54.3469 1474.66 52.8481 L1472.06 52.2405 Q1465.14 50.7821 1462.06 47.7845 Q1458.98 44.7463 1458.98 39.4801 Q1458.98 33.0797 1463.52 29.5959 Q1468.05 26.1121 1476.4 26.1121 Q1480.53 26.1121 1484.17 26.7198 Q1487.82 27.3274 1490.9 28.5427 Z" fill="#000000" fill-rule="evenodd" fill-opacity="1" /><path clip-path="url(#clip6800)" d="M 0 0 M1523.75 46.5287 L1545.59 46.5287 L1545.59 53.1722 L1523.75 53.1722 L1523.75 46.5287 Z" fill="#000000" fill-rule="evenodd" fill-opacity="1" /><path clip-path="url(#clip6800)" d="M 0 0 M1600.31 20.1573 L1589.21 50.2555 L1611.45 50.2555 L1600.31 20.1573 M1595.7 12.096 L1604.97 12.096 L1628.02 72.576 L1619.52 72.576 L1614.01 57.061 L1586.74 57.061 L1581.23 72.576 L1572.61 72.576 L1595.7 12.096 Z" fill="#000000" fill-rule="evenodd" fill-opacity="1" /><path clip-path="url(#clip6800)" d="M 0 0 M1665.7 49.3643 Q1665.7 41.2625 1662.33 36.8065 Q1659.01 32.3505 1652.98 32.3505 Q1646.98 32.3505 1643.62 36.8065 Q1640.3 41.2625 1640.3 49.3643 Q1640.3 57.4256 1643.62 61.8816 Q1646.98 66.3376 1652.98 66.3376 Q1659.01 66.3376 1662.33 61.8816 Q1665.7 57.4256 1665.7 49.3643 M1673.15 66.9452 Q1673.15 78.5308 1668 84.1616 Q1662.86 89.8329 1652.25 89.8329 Q1648.32 89.8329 1644.83 89.2252 Q1641.35 88.6581 1638.07 87.4428 L1638.07 80.1917 Q1641.35 81.9741 1644.55 82.8248 Q1647.75 83.6755 1651.07 83.6755 Q1658.4 83.6755 1662.05 79.8271 Q1665.7 76.0193 1665.7 68.282 L1665.7 64.5957 Q1663.39 68.6061 1659.78 70.5911 Q1656.18 72.576 1651.15 72.576 Q1642.81 72.576 1637.7 66.2161 Q1632.6 59.8562 1632.6 49.3643 Q1632.6 38.832 1637.7 32.472 Q1642.81 26.1121 1651.15 26.1121 Q1656.18 26.1121 1659.78 28.0971 Q1663.39 30.082 1665.7 34.0924 L1665.7 27.2059 L1673.15 27.2059 L1673.15 66.9452 Z" fill="#000000" fill-rule="evenodd" fill-opacity="1" /><path clip-path="url(#clip6800)" d="M 0 0 M1719.78 48.0275 L1719.78 51.6733 L1685.5 51.6733 Q1685.99 59.3701 1690.12 63.421 Q1694.3 67.4314 1701.71 67.4314 Q1706 67.4314 1710.01 66.3781 Q1714.06 65.3249 1718.03 63.2184 L1718.03 70.267 Q1714.02 71.9684 1709.81 72.8596 Q1705.6 73.7508 1701.26 73.7508 Q1690.41 73.7508 1684.05 67.4314 Q1677.73 61.1119 1677.73 50.3365 Q1677.73 39.1965 1683.72 32.6746 Q1689.76 26.1121 1699.97 26.1121 Q1709.12 26.1121 1714.43 32.0264 Q1719.78 37.9003 1719.78 48.0275 M1712.32 45.84 Q1712.24 39.7232 1708.88 36.0774 Q1705.56 32.4315 1700.05 32.4315 Q1693.81 32.4315 1690.04 35.9558 Q1686.31 39.4801 1685.75 45.8805 L1712.32 45.84 Z" fill="#000000" fill-rule="evenodd" fill-opacity="1" /><path clip-path="url(#clip6800)" d="M 0 0 M1765.31 45.1919 L1765.31 72.576 L1757.85 72.576 L1757.85 45.4349 Q1757.85 38.994 1755.34 35.7938 Q1752.83 32.5936 1747.81 32.5936 Q1741.77 32.5936 1738.29 36.4419 Q1734.8 40.2903 1734.8 46.9338 L1734.8 72.576 L1727.31 72.576 L1727.31 27.2059 L1734.8 27.2059 L1734.8 34.2544 Q1737.48 30.163 1741.08 28.1376 Q1744.73 26.1121 1749.47 26.1121 Q1757.29 26.1121 1761.3 30.9732 Q1765.31 35.7938 1765.31 45.1919 Z" fill="#000000" fill-rule="evenodd" fill-opacity="1" /><path clip-path="url(#clip6800)" d="M 0 0 M1780.5 14.324 L1780.5 27.2059 L1795.85 27.2059 L1795.85 32.9987 L1780.5 32.9987 L1780.5 57.6282 Q1780.5 63.1779 1782 64.7578 Q1783.54 66.3376 1788.2 66.3376 L1795.85 66.3376 L1795.85 72.576 L1788.2 72.576 Q1779.57 72.576 1776.29 69.3758 Q1773 66.1351 1773 57.6282 L1773 32.9987 L1767.54 32.9987 L1767.54 27.2059 L1773 27.2059 L1773 14.324 L1780.5 14.324 Z" fill="#000000" fill-rule="evenodd" fill-opacity="1" /><path clip-path="url(#clip6800)" d="M 0 0 M1866.62 14.0809 L1866.62 22.0612 Q1861.96 19.8332 1857.83 18.7395 Q1853.7 17.6457 1849.85 17.6457 Q1843.17 17.6457 1839.52 20.2383 Q1835.91 22.8309 1835.91 27.611 Q1835.91 31.6214 1838.3 33.6873 Q1840.74 35.7128 1847.46 36.9686 L1852.4 37.9813 Q1861.56 39.7232 1865.89 44.1387 Q1870.27 48.5136 1870.27 55.8863 Q1870.27 64.6767 1864.35 69.2137 Q1858.48 73.7508 1847.1 73.7508 Q1842.8 73.7508 1837.94 72.7785 Q1833.12 71.8063 1827.93 69.9024 L1827.93 61.4765 Q1832.92 64.2716 1837.7 65.6895 Q1842.48 67.1073 1847.1 67.1073 Q1854.1 67.1073 1857.91 64.3527 Q1861.72 61.598 1861.72 56.4939 Q1861.72 52.0379 1858.96 49.5264 Q1856.25 47.0148 1850.01 45.759 L1845.03 44.7868 Q1835.87 42.9639 1831.78 39.075 Q1827.69 35.1862 1827.69 28.2591 Q1827.69 20.2383 1833.32 15.6203 Q1838.99 11.0023 1848.92 11.0023 Q1853.17 11.0023 1857.59 11.7719 Q1862 12.5416 1866.62 14.0809 Z" fill="#000000" fill-rule="evenodd" fill-opacity="1" /><path clip-path="url(#clip6800)" d="M 0 0 M1885.46 14.324 L1885.46 27.2059 L1900.81 27.2059 L1900.81 32.9987 L1885.46 32.9987 L1885.46 57.6282 Q1885.46 63.1779 1886.96 64.7578 Q1888.5 66.3376 1893.15 66.3376 L1900.81 66.3376 L1900.81 72.576 L1893.15 72.576 Q1884.53 72.576 1881.24 69.3758 Q1877.96 66.1351 1877.96 57.6282 L1877.96 32.9987 L1872.49 32.9987 L1872.49 27.2059 L1877.96 27.2059 L1877.96 14.324 L1885.46 14.324 Z" fill="#000000" fill-rule="evenodd" fill-opacity="1" /><path clip-path="url(#clip6800)" d="M 0 0 M1929.25 49.7694 Q1920.21 49.7694 1916.73 51.8354 Q1913.25 53.9013 1913.25 58.8839 Q1913.25 62.8538 1915.84 65.2034 Q1918.47 67.5124 1922.97 67.5124 Q1929.17 67.5124 1932.89 63.1374 Q1936.66 58.7219 1936.66 51.4303 L1936.66 49.7694 L1929.25 49.7694 M1944.11 46.6907 L1944.11 72.576 L1936.66 72.576 L1936.66 65.6895 Q1934.11 69.8214 1930.3 71.8063 Q1926.49 73.7508 1920.98 73.7508 Q1914.02 73.7508 1909.88 69.8619 Q1905.79 65.9325 1905.79 59.3701 Q1905.79 51.7138 1910.9 47.825 Q1916.04 43.9361 1926.21 43.9361 L1936.66 43.9361 L1936.66 43.2069 Q1936.66 38.0623 1933.26 35.2672 Q1929.9 32.4315 1923.78 32.4315 Q1919.89 32.4315 1916.2 33.3632 Q1912.52 34.295 1909.11 36.1584 L1909.11 29.2718 Q1913.21 27.692 1917.05 26.9223 Q1920.9 26.1121 1924.55 26.1121 Q1934.39 26.1121 1939.25 31.2163 Q1944.11 36.3204 1944.11 46.6907 Z" fill="#000000" fill-rule="evenodd" fill-opacity="1" /><path clip-path="url(#clip6800)" d="M 0 0 M1959.31 14.324 L1959.31 27.2059 L1974.66 27.2059 L1974.66 32.9987 L1959.31 32.9987 L1959.31 57.6282 Q1959.31 63.1779 1960.8 64.7578 Q1962.34 66.3376 1967 66.3376 L1974.66 66.3376 L1974.66 72.576 L1967 72.576 Q1958.37 72.576 1955.09 69.3758 Q1951.81 66.1351 1951.81 57.6282 L1951.81 32.9987 L1946.34 32.9987 L1946.34 27.2059 L1951.81 27.2059 L1951.81 14.324 L1959.31 14.324 Z" fill="#000000" fill-rule="evenodd" fill-opacity="1" /><path clip-path="url(#clip6800)" d="M 0 0 M2021.28 48.0275 L2021.28 51.6733 L1987.01 51.6733 Q1987.5 59.3701 1991.63 63.421 Q1995.8 67.4314 2003.22 67.4314 Q2007.51 67.4314 2011.52 66.3781 Q2015.57 65.3249 2019.54 63.2184 L2019.54 70.267 Q2015.53 71.9684 2011.32 72.8596 Q2007.11 73.7508 2002.77 73.7508 Q1991.92 73.7508 1985.56 67.4314 Q1979.24 61.1119 1979.24 50.3365 Q1979.24 39.1965 1985.23 32.6746 Q1991.27 26.1121 2001.48 26.1121 Q2010.63 26.1121 2015.94 32.0264 Q2021.28 37.9003 2021.28 48.0275 M2013.83 45.84 Q2013.75 39.7232 2010.39 36.0774 Q2007.07 32.4315 2001.56 32.4315 Q1995.32 32.4315 1991.55 35.9558 Q1987.82 39.4801 1987.26 45.8805 L2013.83 45.84 Z" fill="#000000" fill-rule="evenodd" fill-opacity="1" /><path clip-path="url(#clip6800)" d="M 0 0 M2058.03 28.5427 L2058.03 35.5912 Q2054.87 33.9709 2051.46 33.1607 Q2048.06 32.3505 2044.41 32.3505 Q2038.87 32.3505 2036.07 34.0519 Q2033.32 35.7533 2033.32 39.156 Q2033.32 41.7486 2035.3 43.2475 Q2037.29 44.7058 2043.28 46.0426 L2045.83 46.6097 Q2053.77 48.3111 2057.09 51.4303 Q2060.46 54.509 2060.46 60.0587 Q2060.46 66.3781 2055.43 70.0644 Q2050.45 73.7508 2041.7 73.7508 Q2038.05 73.7508 2034.08 73.0216 Q2030.16 72.3329 2025.78 70.9151 L2025.78 63.2184 Q2029.91 65.3654 2033.92 66.4591 Q2037.93 67.5124 2041.86 67.5124 Q2047.13 67.5124 2049.96 65.73 Q2052.8 63.9071 2052.8 60.6258 Q2052.8 57.5877 2050.73 55.9673 Q2048.71 54.3469 2041.78 52.8481 L2039.19 52.2405 Q2032.26 50.7821 2029.18 47.7845 Q2026.1 44.7463 2026.1 39.4801 Q2026.1 33.0797 2030.64 29.5959 Q2035.18 26.1121 2043.52 26.1121 Q2047.66 26.1121 2051.3 26.7198 Q2054.95 27.3274 2058.03 28.5427 Z" fill="#000000" fill-rule="evenodd" fill-opacity="1" /><path clip-path="url(#clip6800)" d="M 0 0 M2119.52 17.6457 Q2110.61 17.6457 2105.34 24.2892 Q2100.11 30.9327 2100.11 42.3968 Q2100.11 53.8203 2105.34 60.4638 Q2110.61 67.1073 2119.52 67.1073 Q2128.43 67.1073 2133.62 60.4638 Q2138.84 53.8203 2138.84 42.3968 Q2138.84 30.9327 2133.62 24.2892 Q2128.43 17.6457 2119.52 17.6457 M2130.98 71.4823 L2141.76 83.2704 L2131.87 83.2704 L2122.92 73.5887 Q2121.58 73.6697 2120.86 73.7103 Q2120.17 73.7508 2119.52 73.7508 Q2106.76 73.7508 2099.1 65.2439 Q2091.49 56.6965 2091.49 42.3968 Q2091.49 28.0566 2099.1 19.5497 Q2106.76 11.0023 2119.52 11.0023 Q2132.24 11.0023 2139.85 19.5497 Q2147.47 28.0566 2147.47 42.3968 Q2147.47 52.9291 2143.22 60.4233 Q2139 67.9175 2130.98 71.4823 Z" fill="#000000" fill-rule="evenodd" fill-opacity="1" /><path clip-path="url(#clip6800)" d="M 0 0 M2168.7 54.2659 Q2172.42 54.9951 2174.45 57.2231 Q2176.51 59.4106 2176.51 62.7323 Q2176.51 67.7554 2172.67 70.4695 Q2168.82 73.1836 2161.65 73.1836 Q2159.34 73.1836 2156.79 72.738 Q2154.28 72.3329 2151.44 71.5228 L2151.44 66.6212 Q2153.55 67.7149 2155.94 68.2415 Q2158.37 68.7682 2161.08 68.7682 Q2165.5 68.7682 2167.93 67.1883 Q2170.36 65.5679 2170.36 62.7323 Q2170.36 59.7346 2168.09 58.1953 Q2165.86 56.6559 2161.49 56.6559 L2158 56.6559 L2158 52.281 L2161.81 52.281 Q2165.62 52.281 2167.56 51.0252 Q2169.55 49.7289 2169.55 47.2984 Q2169.55 44.9488 2167.52 43.7336 Q2165.5 42.4778 2161.65 42.4778 Q2160.03 42.4778 2157.96 42.8424 Q2155.9 43.2069 2152.61 44.1387 L2152.61 39.4801 Q2155.57 38.7915 2158.16 38.4269 Q2160.76 38.0623 2162.98 38.0623 Q2168.82 38.0623 2172.22 40.4523 Q2175.66 42.8424 2175.66 46.8528 Q2175.66 49.6479 2173.84 51.5923 Q2172.02 53.5368 2168.7 54.2659 Z" fill="#000000" fill-rule="evenodd" fill-opacity="1" /><path clip-path="url(#clip6800)" d="M 0 0 M2211.03 12.096 L2249.27 12.096 L2249.27 18.9825 L2219.21 18.9825 L2219.21 36.8875 L2248.01 36.8875 L2248.01 43.7741 L2219.21 43.7741 L2219.21 65.6895 L2250 65.6895 L2250 72.576 L2211.03 72.576 L2211.03 12.096 Z" fill="#000000" fill-rule="evenodd" fill-opacity="1" /><path clip-path="url(#clip6800)" d="M 0 0 M2284.11 34.1734 Q2282.85 33.4443 2281.35 33.1202 Q2279.89 32.7556 2278.11 32.7556 Q2271.79 32.7556 2268.39 36.8875 Q2265.03 40.9789 2265.03 48.6757 L2265.03 72.576 L2257.53 72.576 L2257.53 27.2059 L2265.03 27.2059 L2265.03 34.2544 Q2267.38 30.1225 2271.14 28.1376 Q2274.91 26.1121 2280.3 26.1121 Q2281.07 26.1121 2282 26.2337 Q2282.93 26.3147 2284.07 26.5172 L2284.11 34.1734 Z" fill="#000000" fill-rule="evenodd" fill-opacity="1" /><path clip-path="url(#clip6800)" d="M 0 0 M2316.76 34.1734 Q2315.5 33.4443 2314 33.1202 Q2312.54 32.7556 2310.76 32.7556 Q2304.44 32.7556 2301.04 36.8875 Q2297.68 40.9789 2297.68 48.6757 L2297.68 72.576 L2290.18 72.576 L2290.18 27.2059 L2297.68 27.2059 L2297.68 34.2544 Q2300.03 30.1225 2303.79 28.1376 Q2307.56 26.1121 2312.95 26.1121 Q2313.72 26.1121 2314.65 26.2337 Q2315.58 26.3147 2316.72 26.5172 L2316.76 34.1734 Z" fill="#000000" fill-rule="evenodd" fill-opacity="1" /><path clip-path="url(#clip6800)" d="M 0 0 M2340.33 32.4315 Q2334.34 32.4315 2330.85 37.1306 Q2327.37 41.7891 2327.37 49.9314 Q2327.37 58.0738 2330.81 62.7728 Q2334.3 67.4314 2340.33 67.4314 Q2346.29 67.4314 2349.77 62.7323 Q2353.26 58.0333 2353.26 49.9314 Q2353.26 41.8701 2349.77 37.1711 Q2346.29 32.4315 2340.33 32.4315 M2340.33 26.1121 Q2350.06 26.1121 2355.61 32.4315 Q2361.15 38.7509 2361.15 49.9314 Q2361.15 61.0714 2355.61 67.4314 Q2350.06 73.7508 2340.33 73.7508 Q2330.57 73.7508 2325.02 67.4314 Q2319.51 61.0714 2319.51 49.9314 Q2319.51 38.7509 2325.02 32.4315 Q2330.57 26.1121 2340.33 26.1121 Z" fill="#000000" fill-rule="evenodd" fill-opacity="1" /><path clip-path="url(#clip6800)" d="M 0 0 M2395.26 34.1734 Q2394.01 33.4443 2392.51 33.1202 Q2391.05 32.7556 2389.27 32.7556 Q2382.95 32.7556 2379.55 36.8875 Q2376.18 40.9789 2376.18 48.6757 L2376.18 72.576 L2368.69 72.576 L2368.69 27.2059 L2376.18 27.2059 L2376.18 34.2544 Q2378.53 30.1225 2382.3 28.1376 Q2386.07 26.1121 2391.46 26.1121 Q2392.23 26.1121 2393.16 26.2337 Q2394.09 26.3147 2395.22 26.5172 L2395.26 34.1734 Z" fill="#000000" fill-rule="evenodd" fill-opacity="1" /><path clip-path="url(#clip6800)" d="M 0 0 M1310.51 2298.26 L1350.71 2298.26 L1350.71 2303.67 L1333.84 2303.67 L1333.84 2345.78 L1327.38 2345.78 L1327.38 2303.67 L1310.51 2303.67 L1310.51 2298.26 Z" fill="#000000" fill-rule="evenodd" fill-opacity="1" /><path clip-path="url(#clip6800)" d="M 0 0 M1354.85 2310.14 L1360.71 2310.14 L1360.71 2345.78 L1354.85 2345.78 L1354.85 2310.14 M1354.85 2296.26 L1360.71 2296.26 L1360.71 2303.67 L1354.85 2303.67 L1354.85 2296.26 Z" fill="#000000" fill-rule="evenodd" fill-opacity="1" /><path clip-path="url(#clip6800)" d="M 0 0 M1394.6 2316.98 Q1396.8 2313.03 1399.86 2311.15 Q1402.91 2309.28 1407.05 2309.28 Q1412.62 2309.28 1415.64 2313.19 Q1418.67 2317.07 1418.67 2324.27 L1418.67 2345.78 L1412.78 2345.78 L1412.78 2324.46 Q1412.78 2319.33 1410.96 2316.85 Q1409.15 2314.37 1405.43 2314.37 Q1400.88 2314.37 1398.23 2317.39 Q1395.59 2320.42 1395.59 2325.64 L1395.59 2345.78 L1389.7 2345.78 L1389.7 2324.46 Q1389.7 2319.3 1387.89 2316.85 Q1386.07 2314.37 1382.29 2314.37 Q1377.8 2314.37 1375.16 2317.42 Q1372.52 2320.45 1372.52 2325.64 L1372.52 2345.78 L1366.63 2345.78 L1366.63 2310.14 L1372.52 2310.14 L1372.52 2315.67 Q1374.52 2312.4 1377.32 2310.84 Q1380.12 2309.28 1383.97 2309.28 Q1387.86 2309.28 1390.56 2311.25 Q1393.3 2313.22 1394.6 2316.98 Z" fill="#000000" fill-rule="evenodd" fill-opacity="1" /><path clip-path="url(#clip6800)" d="M 0 0 M1455.3 2326.5 L1455.3 2329.36 L1428.37 2329.36 Q1428.76 2335.41 1432 2338.59 Q1435.28 2341.74 1441.11 2341.74 Q1444.48 2341.74 1447.63 2340.91 Q1450.81 2340.09 1453.93 2338.43 L1453.93 2343.97 Q1450.78 2345.31 1447.47 2346.01 Q1444.16 2346.71 1440.76 2346.71 Q1432.23 2346.71 1427.23 2341.74 Q1422.26 2336.78 1422.26 2328.31 Q1422.26 2319.56 1426.97 2314.43 Q1431.72 2309.28 1439.74 2309.28 Q1446.93 2309.28 1451.1 2313.92 Q1455.3 2318.54 1455.3 2326.5 M1449.45 2324.78 Q1449.38 2319.97 1446.74 2317.11 Q1444.13 2314.24 1439.8 2314.24 Q1434.9 2314.24 1431.94 2317.01 Q1429.01 2319.78 1428.57 2324.81 L1449.45 2324.78 Z" fill="#000000" fill-rule="evenodd" fill-opacity="1" /><path clip-path="url(#clip6800)" d="M 0 0 M1496.23 2296.32 Q1491.97 2303.64 1489.9 2310.8 Q1487.83 2317.97 1487.83 2325.32 Q1487.83 2332.67 1489.9 2339.9 Q1492 2347.09 1496.23 2354.38 L1491.14 2354.38 Q1486.37 2346.9 1483.98 2339.67 Q1481.62 2332.45 1481.62 2325.32 Q1481.62 2318.22 1483.98 2311.03 Q1486.33 2303.83 1491.14 2296.32 L1496.23 2296.32 Z" fill="#000000" fill-rule="evenodd" fill-opacity="1" /><path clip-path="url(#clip6800)" d="M 0 0 M1525.1 2311.19 L1525.1 2316.72 Q1522.62 2315.45 1519.95 2314.81 Q1517.27 2314.18 1514.41 2314.18 Q1510.05 2314.18 1507.85 2315.51 Q1505.69 2316.85 1505.69 2319.53 Q1505.69 2321.56 1507.25 2322.74 Q1508.81 2323.89 1513.52 2324.94 L1515.52 2325.38 Q1521.76 2326.72 1524.37 2329.17 Q1527.01 2331.59 1527.01 2335.95 Q1527.01 2340.91 1523.06 2343.81 Q1519.15 2346.71 1512.27 2346.71 Q1509.41 2346.71 1506.29 2346.13 Q1503.2 2345.59 1499.77 2344.48 L1499.77 2338.43 Q1503.01 2340.12 1506.16 2340.98 Q1509.31 2341.81 1512.4 2341.81 Q1516.54 2341.81 1518.77 2340.4 Q1521 2338.97 1521 2336.39 Q1521 2334.01 1519.37 2332.73 Q1517.78 2331.46 1512.34 2330.28 L1510.3 2329.81 Q1504.86 2328.66 1502.44 2326.3 Q1500.02 2323.92 1500.02 2319.78 Q1500.02 2314.75 1503.59 2312.01 Q1507.15 2309.28 1513.71 2309.28 Q1516.95 2309.28 1519.82 2309.75 Q1522.68 2310.23 1525.1 2311.19 Z" fill="#000000" fill-rule="evenodd" fill-opacity="1" /><path clip-path="url(#clip6800)" d="M 0 0 M1532.23 2296.32 L1537.32 2296.32 Q1542.1 2303.83 1544.45 2311.03 Q1546.84 2318.22 1546.84 2325.32 Q1546.84 2332.45 1544.45 2339.67 Q1542.1 2346.9 1537.32 2354.38 L1532.23 2354.38 Q1536.46 2347.09 1538.53 2339.9 Q1540.63 2332.67 1540.63 2325.32 Q1540.63 2317.97 1538.53 2310.8 Q1536.46 2303.64 1532.23 2296.32 Z" fill="#000000" fill-rule="evenodd" fill-opacity="1" /><path clip-path="url(#clip6800)" d="M 0 0 M38.4242 1364.47 L38.4242 1334.42 L43.835 1334.42 L43.835 1358.04 L57.9032 1358.04 L57.9032 1335.41 L63.3141 1335.41 L63.3141 1358.04 L80.5333 1358.04 L80.5333 1333.85 L85.9442 1333.85 L85.9442 1364.47 L38.4242 1364.47 Z" fill="#000000" fill-rule="evenodd" fill-opacity="1" /><path clip-path="url(#clip6800)" d="M 0 0 M55.7707 1307.05 Q55.1978 1308.04 54.9432 1309.22 Q54.6567 1310.36 54.6567 1311.76 Q54.6567 1316.73 57.9032 1319.4 Q61.1179 1322.04 67.1653 1322.04 L85.9442 1322.04 L85.9442 1327.93 L50.2962 1327.93 L50.2962 1322.04 L55.8344 1322.04 Q52.5879 1320.2 51.0283 1317.24 Q49.4368 1314.28 49.4368 1310.04 Q49.4368 1309.44 49.5323 1308.71 Q49.596 1307.97 49.7551 1307.08 L55.7707 1307.05 Z" fill="#000000" fill-rule="evenodd" fill-opacity="1" /><path clip-path="url(#clip6800)" d="M 0 0 M55.7707 1281.4 Q55.1978 1282.38 54.9432 1283.56 Q54.6567 1284.71 54.6567 1286.11 Q54.6567 1291.07 57.9032 1293.75 Q61.1179 1296.39 67.1653 1296.39 L85.9442 1296.39 L85.9442 1302.28 L50.2962 1302.28 L50.2962 1296.39 L55.8344 1296.39 Q52.5879 1294.54 51.0283 1291.58 Q49.4368 1288.62 49.4368 1284.39 Q49.4368 1283.78 49.5323 1283.05 Q49.596 1282.32 49.7551 1281.43 L55.7707 1281.4 Z" fill="#000000" fill-rule="evenodd" fill-opacity="1" /><path clip-path="url(#clip6800)" d="M 0 0 M54.4021 1262.87 Q54.4021 1267.58 58.0942 1270.32 Q61.7545 1273.06 68.152 1273.06 Q74.5495 1273.06 78.2417 1270.35 Q81.9019 1267.62 81.9019 1262.87 Q81.9019 1258.19 78.2098 1255.46 Q74.5177 1252.72 68.152 1252.72 Q61.8181 1252.72 58.126 1255.46 Q54.4021 1258.19 54.4021 1262.87 M49.4368 1262.87 Q49.4368 1255.23 54.4021 1250.87 Q59.3673 1246.51 68.152 1246.51 Q76.9049 1246.51 81.9019 1250.87 Q86.8672 1255.23 86.8672 1262.87 Q86.8672 1270.54 81.9019 1274.9 Q76.9049 1279.23 68.152 1279.23 Q59.3673 1279.23 54.4021 1274.9 Q49.4368 1270.54 49.4368 1262.87 Z" fill="#000000" fill-rule="evenodd" fill-opacity="1" /><path clip-path="url(#clip6800)" d="M 0 0 M55.7707 1219.71 Q55.1978 1220.7 54.9432 1221.88 Q54.6567 1223.02 54.6567 1224.42 Q54.6567 1229.39 57.9032 1232.06 Q61.1179 1234.7 67.1653 1234.7 L85.9442 1234.7 L85.9442 1240.59 L50.2962 1240.59 L50.2962 1234.7 L55.8344 1234.7 Q52.5879 1232.86 51.0283 1229.9 Q49.4368 1226.94 49.4368 1222.71 Q49.4368 1222.1 49.5323 1221.37 Q49.596 1220.64 49.7551 1219.75 L55.7707 1219.71 Z" fill="#000000" fill-rule="evenodd" fill-opacity="1" /><path clip-path="url(#clip6800)" d="M 0 0 M42.7847 1173.31 Q42.7847 1180.31 48.0045 1184.45 Q53.2244 1188.55 62.2319 1188.55 Q71.2075 1188.55 76.4274 1184.45 Q81.6473 1180.31 81.6473 1173.31 Q81.6473 1166.3 76.4274 1162.23 Q71.2075 1158.13 62.2319 1158.13 Q53.2244 1158.13 48.0045 1162.23 Q42.7847 1166.3 42.7847 1173.31 M85.0848 1164.3 L94.3469 1155.83 L94.3469 1163.6 L86.7399 1170.63 Q86.8035 1171.68 86.8354 1172.26 Q86.8672 1172.8 86.8672 1173.31 Q86.8672 1183.33 80.1832 1189.35 Q73.4674 1195.33 62.2319 1195.33 Q50.9646 1195.33 44.2806 1189.35 Q37.5648 1183.33 37.5648 1173.31 Q37.5648 1163.31 44.2806 1157.33 Q50.9646 1151.35 62.2319 1151.35 Q70.5073 1151.35 76.3956 1154.69 Q82.2839 1158 85.0848 1164.3 Z" fill="#000000" fill-rule="evenodd" fill-opacity="1" /><path clip-path="url(#clip6800)" d="M 0 0 M71.5577 1134.67 Q72.1306 1131.74 73.8811 1130.15 Q75.5999 1128.52 78.2098 1128.52 Q82.1566 1128.52 84.2891 1131.55 Q86.4216 1134.57 86.4216 1140.21 Q86.4216 1142.02 86.0715 1144.03 Q85.7532 1146 85.1166 1148.23 L81.2654 1148.23 Q82.1247 1146.57 82.5385 1144.69 Q82.9523 1142.78 82.9523 1140.65 Q82.9523 1137.18 81.711 1135.27 Q80.4378 1133.36 78.2098 1133.36 Q75.8545 1133.36 74.645 1135.14 Q73.4355 1136.9 73.4355 1140.33 L73.4355 1143.07 L69.9981 1143.07 L69.9981 1140.08 Q69.9981 1137.09 69.0114 1135.56 Q67.9929 1134 66.0832 1134 Q64.2371 1134 63.2822 1135.59 Q62.2956 1137.18 62.2956 1140.21 Q62.2956 1141.48 62.582 1143.1 Q62.8685 1144.73 63.6005 1147.3 L59.9402 1147.3 Q59.3992 1144.98 59.1127 1142.94 Q58.8262 1140.91 58.8262 1139.16 Q58.8262 1134.57 60.7041 1131.9 Q62.582 1129.19 65.733 1129.19 Q67.9292 1129.19 69.457 1130.63 Q70.9847 1132.06 71.5577 1134.67 Z" fill="#000000" fill-rule="evenodd" fill-opacity="1" /><path clip-path="url(#clip6800)" d="M 0 0 M36.4826 1087.59 Q43.8032 1091.86 50.9646 1093.93 Q58.126 1096 65.4784 1096 Q72.8308 1096 80.0559 1093.93 Q87.2491 1091.83 94.5379 1087.59 L94.5379 1092.69 Q87.0582 1097.46 79.8331 1099.85 Q72.608 1102.2 65.4784 1102.2 Q58.3806 1102.2 51.1874 1099.85 Q43.9942 1097.49 36.4826 1092.69 L36.4826 1087.59 Z" fill="#000000" fill-rule="evenodd" fill-opacity="1" /><path clip-path="url(#clip6800)" d="M 0 0 M55.7707 1060.79 Q55.1978 1061.78 54.9432 1062.96 Q54.6567 1064.1 54.6567 1065.5 Q54.6567 1070.47 57.9032 1073.14 Q61.1179 1075.78 67.1653 1075.78 L85.9442 1075.78 L85.9442 1081.67 L50.2962 1081.67 L50.2962 1075.78 L55.8344 1075.78 Q52.5879 1073.94 51.0283 1070.98 Q49.4368 1068.02 49.4368 1063.79 Q49.4368 1063.18 49.5323 1062.45 Q49.596 1061.72 49.7551 1060.83 L55.7707 1060.79 Z" fill="#000000" fill-rule="evenodd" fill-opacity="1" /><path clip-path="url(#clip6800)" d="M 0 0 M68.0247 1038.45 Q68.0247 1045.55 69.6479 1048.28 Q71.2712 1051.02 75.1861 1051.02 Q78.3053 1051.02 80.1514 1048.99 Q81.9656 1046.92 81.9656 1043.38 Q81.9656 1038.51 78.5281 1035.59 Q75.0588 1032.63 69.3297 1032.63 L68.0247 1032.63 L68.0247 1038.45 M65.6057 1026.77 L85.9442 1026.77 L85.9442 1032.63 L80.5333 1032.63 Q83.7798 1034.63 85.3394 1037.62 Q86.8672 1040.61 86.8672 1044.94 Q86.8672 1050.42 83.8116 1053.66 Q80.7243 1056.88 75.5681 1056.88 Q69.5525 1056.88 66.4969 1052.87 Q63.4414 1048.83 63.4414 1040.84 L63.4414 1032.63 L62.8685 1032.63 Q58.8262 1032.63 56.6301 1035.3 Q54.4021 1037.94 54.4021 1042.75 Q54.4021 1045.8 55.1341 1048.7 Q55.8662 1051.59 57.3303 1054.27 L51.9195 1054.27 Q50.6781 1051.05 50.0734 1048.03 Q49.4368 1045.01 49.4368 1042.14 Q49.4368 1034.41 53.4472 1030.59 Q57.4576 1026.77 65.6057 1026.77 Z" fill="#000000" fill-rule="evenodd" fill-opacity="1" /><path clip-path="url(#clip6800)" d="M 0 0 M55.7071 997.168 L36.419 997.168 L36.419 991.312 L85.9442 991.312 L85.9442 997.168 L80.597 997.168 Q83.7798 999.014 85.3394 1001.85 Q86.8672 1004.65 86.8672 1008.59 Q86.8672 1015.06 81.711 1019.13 Q76.5547 1023.17 68.152 1023.17 Q59.7493 1023.17 54.5931 1019.13 Q49.4368 1015.06 49.4368 1008.59 Q49.4368 1004.65 50.9964 1001.85 Q52.5242 999.014 55.7071 997.168 M68.152 1017.12 Q74.6132 1017.12 78.3053 1014.48 Q81.9656 1011.81 81.9656 1007.16 Q81.9656 1002.52 78.3053 999.842 Q74.6132 997.168 68.152 997.168 Q61.6908 997.168 58.0305 999.842 Q54.3384 1002.52 54.3384 1007.16 Q54.3384 1011.81 58.0305 1014.48 Q61.6908 1017.12 68.152 1017.12 Z" fill="#000000" fill-rule="evenodd" fill-opacity="1" /><path clip-path="url(#clip6800)" d="M 0 0 M36.4826 986.092 L36.4826 980.999 Q43.9942 976.225 51.1874 973.87 Q58.3806 971.483 65.4784 971.483 Q72.608 971.483 79.8331 973.87 Q87.0582 976.225 94.5379 980.999 L94.5379 986.092 Q87.2491 981.859 80.0559 979.79 Q72.8308 977.689 65.4784 977.689 Q58.126 977.689 50.9646 979.79 Q43.8032 981.859 36.4826 986.092 Z" fill="#000000" fill-rule="evenodd" fill-opacity="1" /><polyline clip-path="url(#clip6802)" style="stroke:#009af9; stroke-width:16; stroke-opacity:1; fill:none" points="
  306.747,1190.1 317.966,1127.35 329.186,1001.66 340.405,862.493 351.624,702.365 362.844,540.274 374.063,399.879 385.282,295.475 396.501,229.589 407.721,196.903 
  418.94,189.727 430.159,201.067 441.379,225.585 452.598,259.478 463.817,300.032 475.037,345.312 486.256,393.88 497.475,444.663 508.694,496.835 519.914,549.764 
  531.133,602.959 542.352,656.037 553.572,708.701 564.791,760.711 576.01,811.878 587.23,862.034 598.449,911.043 609.668,958.77 620.888,1005.1 632.107,1049.91 
  643.326,1093.12 654.545,1134.6 665.765,1174.3 676.984,1212.13 688.203,1248.05 699.423,1282.02 710.642,1314.01 721.861,1344.03 733.081,1372.07 744.3,1398.17 
  755.519,1422.35 766.738,1444.64 777.958,1465.11 789.177,1483.8 800.396,1500.77 811.616,1516.08 822.835,1529.78 834.054,1541.92 845.274,1552.57 856.493,1561.75 
  867.712,1569.54 878.931,1575.95 890.151,1581.02 901.37,1584.76 912.589,1587.2 923.809,1588.33 935.028,1588.17 946.247,1586.67 957.467,1583.84 968.686,1579.6 
  979.905,1573.96 991.125,1566.79 1002.34,1558.08 1013.56,1547.67 1024.78,1535.5 1036,1521.36 1047.22,1505.13 1058.44,1495.64 1069.66,1484.71 1080.88,1465.69 
  1092.1,1447.89 1103.32,1431.32 1114.54,1416.02 1125.76,1401.93 1136.98,1389.05 1148.19,1377.32 1159.41,1366.71 1170.63,1357.14 1181.85,1348.6 1193.07,1340.99 
  1204.29,1334.28 1215.51,1328.4 1226.73,1323.31 1237.95,1318.94 1249.17,1315.24 1260.39,1312.16 1271.61,1309.65 1282.83,1307.64 1294.05,1306.11 1305.26,1304.98 
  1316.48,1304.24 1327.7,1303.82 1338.92,1303.68 1350.14,1303.8 1361.36,1304.12 1372.58,1304.62 1383.8,1305.26 1395.02,1306.01 1406.24,1306.84 1417.46,1307.72 
  1428.68,1308.63 1439.9,1309.55 1451.12,1310.45 1462.34,1311.3 1473.55,1312.11 1484.77,1312.84 1495.99,1313.48 1507.21,1314.02 1518.43,1314.45 1529.65,1314.76 
  1540.87,1314.93 1552.09,1314.97 1563.31,1314.86 1574.53,1314.61 1585.75,1314.19 1596.97,1313.63 1608.19,1312.9 1619.41,1312.02 1630.62,1310.98 1641.84,1309.79 
  1653.06,1308.44 1664.28,1306.94 1675.5,1305.3 1686.72,1303.52 1697.94,1301.6 1709.16,1299.55 1720.38,1297.39 1731.6,1295.1 1742.82,1292.71 1754.04,1290.22 
  1765.26,1287.64 1776.48,1284.98 1787.69,1282.24 1798.91,1279.45 1810.13,1276.6 1821.35,1273.7 1832.57,1270.77 1843.79,1267.82 1855.01,1264.85 1866.23,1261.88 
  1877.45,1258.92 1888.67,1255.97 1899.89,1253.05 1911.11,1250.16 1922.33,1247.32 1933.55,1244.53 1944.77,1241.81 1955.98,1239.16 1967.2,1236.59 1978.42,1234.11 
  1989.64,1231.73 2000.86,1229.45 2012.08,1227.29 2023.3,1225.24 2034.52,1223.33 2045.74,1221.55 2056.96,1219.91 2068.18,1218.41 2079.4,1217.07 2090.62,1215.88 
  2101.84,1214.85 2113.05,1213.98 2124.27,1213.29 2135.49,1212.76 2146.71,1212.41 2157.93,1212.23 2169.15,1212.23 2180.37,1212.41 2191.59,1212.76 2202.81,1213.29 
  2214.03,1214 2225.25,1214.88 2236.47,1215.94 2247.69,1217.16 2258.91,1218.55 2270.13,1220.09 2281.34,1221.8 2292.56,1223.64 2303.78,1225.63 2315,1227.75 
  2326.22,1229.99 2337.44,1232.34 2348.66,1234.79 2359.88,1237.33 2371.1,1239.93 2382.32,1242.58 2393.54,1245.27 2404.76,1247.98 2415.98,1250.68 2427.2,1253.36 
  2438.41,1255.97 2449.63,1258.52 2460.85,1260.94 2472.07,1263.24 2483.29,1265.36 2494.51,1267.29 2505.73,1268.96 2516.95,1270.37 2528.17,1271.45 2539.39,1272.21 
  2550.61,1272.58 
  "/>
<polyline clip-path="url(#clip6802)" style="stroke:#e26f46; stroke-width:16; stroke-opacity:1; fill:none" points="
  306.747,1190.1 317.966,1457.55 329.186,1919.06 340.405,2146.22 351.624,2117.4 362.844,1980.4 374.063,1844.01 385.282,1738.55 396.501,1665.56 407.721,1616.75 
  418.94,1585.32 430.159,1565.3 441.379,1553.39 452.598,1546.86 463.817,1544.36 475.037,1544.61 486.256,1547.03 497.475,1550.98 508.694,1556.15 519.914,1562.2 
  531.133,1568.94 542.352,1576.17 553.572,1583.75 564.791,1591.55 576.01,1599.48 587.23,1607.44 598.449,1615.37 609.668,1623.18 620.888,1630.81 632.107,1638.22 
  643.326,1645.36 654.545,1652.17 665.765,1658.63 676.984,1664.69 688.203,1670.32 699.423,1675.51 710.642,1680.22 721.861,1684.43 733.081,1688.13 744.3,1691.31 
  755.519,1693.95 766.738,1696.04 777.958,1697.57 789.177,1698.53 800.396,1698.92 811.616,1698.73 822.835,1697.94 834.054,1696.56 845.274,1694.56 856.493,1691.95 
  867.712,1688.69 878.931,1684.78 890.151,1680.2 901.37,1674.91 912.589,1668.91 923.809,1662.15 935.028,1654.61 946.247,1646.24 957.467,1637 968.686,1626.83 
  979.905,1615.7 991.125,1603.53 1002.34,1590.26 1013.56,1575.81 1024.78,1560.09 1036,1543.01 1047.22,1524.44 1058.44,1513.73 1069.66,1502.65 1080.88,1483.19 
  1092.1,1464.87 1103.32,1447.71 1114.54,1431.71 1125.76,1416.83 1136.98,1403.06 1148.19,1390.36 1159.41,1378.69 1170.63,1368.01 1181.85,1358.27 1193.07,1349.44 
  1204.29,1341.46 1215.51,1334.29 1226.73,1327.88 1237.95,1322.19 1249.17,1317.18 1260.39,1312.79 1271.61,1308.99 1282.83,1305.73 1294.05,1302.96 1305.26,1300.65 
  1316.48,1298.76 1327.7,1297.24 1338.92,1296.07 1350.14,1295.19 1361.36,1294.58 1372.58,1294.19 1383.8,1294.01 1395.02,1294 1406.24,1294.12 1417.46,1294.35 
  1428.68,1294.67 1439.9,1295.04 1451.12,1295.44 1462.34,1295.86 1473.55,1296.27 1484.77,1296.65 1495.99,1296.99 1507.21,1297.27 1518.43,1297.47 1529.65,1297.58 
  1540.87,1297.6 1552.09,1297.5 1563.31,1297.29 1574.53,1296.96 1585.75,1296.49 1596.97,1295.9 1608.19,1295.16 1619.41,1294.29 1630.62,1293.27 1641.84,1292.12 
  1653.06,1290.82 1664.28,1289.39 1675.5,1287.83 1686.72,1286.14 1697.94,1284.32 1709.16,1282.38 1720.38,1280.33 1731.6,1278.17 1742.82,1275.91 1754.04,1273.56 
  1765.26,1271.12 1776.48,1268.61 1787.69,1266.02 1798.91,1263.38 1810.13,1260.69 1821.35,1257.96 1832.57,1255.19 1843.79,1252.4 1855.01,1249.6 1866.23,1246.8 
  1877.45,1243.99 1888.67,1241.2 1899.89,1238.44 1911.11,1235.7 1922.33,1233.01 1933.55,1230.36 1944.77,1227.77 1955.98,1225.24 1967.2,1222.78 1978.42,1220.4 
  1989.64,1218.11 2000.86,1215.91 2012.08,1213.81 2023.3,1211.82 2034.52,1209.93 2045.74,1208.16 2056.96,1206.51 2068.18,1204.99 2079.4,1203.6 2090.62,1202.34 
  2101.84,1201.21 2113.05,1200.23 2124.27,1199.38 2135.49,1198.68 2146.71,1198.13 2157.93,1197.73 2169.15,1197.47 2180.37,1197.35 2191.59,1197.39 2202.81,1197.57 
  2214.03,1197.9 2225.25,1198.37 2236.47,1198.98 2247.69,1199.73 2258.91,1200.61 2270.13,1201.63 2281.34,1202.76 2292.56,1204.02 2303.78,1205.39 2315,1206.86 
  2326.22,1208.43 2337.44,1210.09 2348.66,1211.83 2359.88,1213.64 2371.1,1215.5 2382.32,1217.41 2393.54,1219.35 2404.76,1221.3 2415.98,1223.25 2427.2,1225.19 
  2438.41,1227.08 2449.63,1228.93 2460.85,1230.69 2472.07,1232.36 2483.29,1233.9 2494.51,1235.3 2505.73,1236.52 2516.95,1237.55 2528.17,1238.34 2539.39,1238.89 
  2550.61,1239.16 
  "/>
<polyline clip-path="url(#clip6802)" style="stroke:#3da44d; stroke-width:16; stroke-opacity:1; fill:none" points="
  306.747,1190.1 317.966,1074.79 329.186,843.19 340.405,631.487 351.624,468.129 362.844,356.939 374.063,287.587 385.282,246.801 396.501,225.822 407.721,220.327 
  418.94,227.94 430.159,246.699 441.379,274.598 452.598,309.716 463.817,350.331 475.037,394.994 486.256,442.518 497.475,491.947 508.694,542.522 519.914,593.639 
  531.133,644.827 542.352,695.714 553.572,746.016 564.791,795.504 576.01,844.002 587.23,891.361 598.449,937.461 609.668,982.19 620.888,1025.46 632.107,1067.17 
  643.326,1107.25 654.545,1145.62 665.765,1182.24 676.984,1217.05 688.203,1250.02 699.423,1281.12 710.642,1310.36 721.861,1337.73 733.081,1363.25 744.3,1386.94 
  755.519,1408.84 766.738,1429 777.958,1447.46 789.177,1464.26 800.396,1479.48 811.616,1493.15 822.835,1505.33 834.054,1516.08 845.274,1525.45 856.493,1533.47 
  867.712,1540.19 878.931,1545.64 890.151,1549.85 901.37,1552.83 912.589,1554.61 923.809,1555.16 935.028,1554.5 946.247,1552.6 957.467,1549.44 968.686,1544.95 
  979.905,1539.13 991.125,1531.86 1002.34,1523.12 1013.56,1512.75 1024.78,1500.69 1036,1486.73 1047.22,1470.78 1058.44,1461.47 1069.66,1450.83 1080.88,1432.37 
  1092.1,1415.18 1103.32,1399.24 1114.54,1384.59 1125.76,1371.16 1136.98,1358.95 1148.19,1347.89 1159.41,1337.95 1170.63,1329.05 1181.85,1321.17 1193.07,1314.21 
  1204.29,1308.15 1215.51,1302.91 1226.73,1298.44 1237.95,1294.67 1249.17,1291.56 1260.39,1289.04 1271.61,1287.08 1282.83,1285.6 1294.05,1284.57 1305.26,1283.94 
  1316.48,1283.65 1327.7,1283.67 1338.92,1283.96 1350.14,1284.47 1361.36,1285.17 1372.58,1286.03 1383.8,1287 1395.02,1288.06 1406.24,1289.18 1417.46,1290.33 
  1428.68,1291.49 1439.9,1292.63 1451.12,1293.74 1462.34,1294.79 1473.55,1295.77 1484.77,1296.66 1495.99,1297.45 1507.21,1298.12 1518.43,1298.66 1529.65,1299.07 
  1540.87,1299.34 1552.09,1299.45 1563.31,1299.41 1574.53,1299.21 1585.75,1298.84 1596.97,1298.31 1608.19,1297.62 1619.41,1296.76 1630.62,1295.74 1641.84,1294.55 
  1653.06,1293.21 1664.28,1291.71 1675.5,1290.06 1686.72,1288.27 1697.94,1286.34 1709.16,1284.28 1720.38,1282.09 1731.6,1279.79 1742.82,1277.38 1754.04,1274.86 
  1765.26,1272.26 1776.48,1269.57 1787.69,1266.81 1798.91,1263.98 1810.13,1261.1 1821.35,1258.17 1832.57,1255.21 1843.79,1252.23 1855.01,1249.23 1866.23,1246.23 
  1877.45,1243.23 1888.67,1240.24 1899.89,1237.28 1911.11,1234.35 1922.33,1231.47 1933.55,1228.63 1944.77,1225.86 1955.98,1223.16 1967.2,1220.53 1978.42,1217.99 
  1989.64,1215.55 2000.86,1213.2 2012.08,1210.96 2023.3,1208.84 2034.52,1206.83 2045.74,1204.96 2056.96,1203.21 2068.18,1201.6 2079.4,1200.14 2090.62,1198.82 
  2101.84,1197.65 2113.05,1196.63 2124.27,1195.77 2135.49,1195.07 2146.71,1194.53 2157.93,1194.15 2169.15,1193.94 2180.37,1193.89 2191.59,1194 2202.81,1194.28 
  2214.03,1194.71 2225.25,1195.31 2236.47,1196.07 2247.69,1196.97 2258.91,1198.03 2270.13,1199.24 2281.34,1200.58 2292.56,1202.06 2303.78,1203.66 2315,1205.39 
  2326.22,1207.22 2337.44,1209.16 2348.66,1211.18 2359.88,1213.28 2371.1,1215.45 2382.32,1217.66 2393.54,1219.91 2404.76,1222.18 2415.98,1224.45 2427.2,1226.7 
  2438.41,1228.9 2449.63,1231.05 2460.85,1233.1 2472.07,1235.04 2483.29,1236.83 2494.51,1238.47 2505.73,1239.88 2516.95,1241.09 2528.17,1242.01 2539.39,1242.67 
  2550.61,1242.99 
  "/>
<polyline clip-path="url(#clip6802)" style="stroke:#c271d2; stroke-width:16; stroke-opacity:1; fill:none" points="
  306.747,1190.1 317.966,961.409 329.186,560.785 340.405,352.281 351.624,349.064 362.844,427.127 374.063,512.735 385.282,591.837 396.501,665.203 407.721,736.726 
  418.94,807.795 430.159,879.43 441.379,951.39 452.598,1023.52 463.817,1095.21 475.037,1165.93 486.256,1235.01 497.475,1301.79 508.694,1365.69 519.914,1426.11 
  531.133,1482.68 542.352,1534.97 553.572,1582.88 564.791,1626.25 576.01,1665.18 587.23,1699.73 598.449,1730.15 609.668,1756.63 620.888,1779.46 632.107,1798.87 
  643.326,1815.16 654.545,1828.55 665.765,1839.3 676.984,1847.61 688.203,1853.72 699.423,1857.81 710.642,1860.05 721.861,1860.62 733.081,1859.66 744.3,1857.32 
  755.519,1853.72 766.738,1848.99 777.958,1843.22 789.177,1836.52 800.396,1828.97 811.616,1820.65 822.835,1811.62 834.054,1801.96 845.274,1791.71 856.493,1780.92 
  867.712,1769.62 878.931,1757.84 890.151,1745.59 901.37,1732.91 912.589,1719.78 923.809,1706.22 935.028,1692.2 946.247,1677.72 957.467,1662.76 968.686,1647.28 
  979.905,1631.25 991.125,1614.62 1002.34,1597.34 1013.56,1579.35 1024.78,1560.59 1036,1540.95 1047.22,1520.33 1058.44,1508.64 1069.66,1496.78 1080.88,1475.93 
  1092.1,1456.29 1103.32,1437.91 1114.54,1420.78 1125.76,1404.87 1136.98,1390.18 1148.19,1376.65 1159.41,1364.24 1170.63,1352.91 1181.85,1342.61 1193.07,1333.29 
  1204.29,1324.91 1215.51,1317.4 1226.73,1310.73 1237.95,1304.84 1249.17,1299.69 1260.39,1295.21 1271.61,1291.38 1282.83,1288.13 1294.05,1285.43 1305.26,1283.22 
  1316.48,1281.46 1327.7,1280.12 1338.92,1279.15 1350.14,1278.5 1361.36,1278.15 1372.58,1278.05 1383.8,1278.17 1395.02,1278.48 1406.24,1278.93 1417.46,1279.51 
  1428.68,1280.19 1439.9,1280.93 1451.12,1281.71 1462.34,1282.51 1473.55,1283.3 1484.77,1284.07 1495.99,1284.8 1507.21,1285.47 1518.43,1286.05 1529.65,1286.55 
  1540.87,1286.95 1552.09,1287.23 1563.31,1287.4 1574.53,1287.43 1585.75,1287.32 1596.97,1287.08 1608.19,1286.69 1619.41,1286.15 1630.62,1285.46 1641.84,1284.63 
  1653.06,1283.65 1664.28,1282.52 1675.5,1281.25 1686.72,1279.84 1697.94,1278.3 1709.16,1276.62 1720.38,1274.83 1731.6,1272.91 1742.82,1270.89 1754.04,1268.76 
  1765.26,1266.55 1776.48,1264.24 1787.69,1261.86 1798.91,1259.41 1810.13,1256.9 1821.35,1254.34 1832.57,1251.74 1843.79,1249.11 1855.01,1246.46 1866.23,1243.8 
  1877.45,1241.13 1888.67,1238.47 1899.89,1235.82 1911.11,1233.2 1922.33,1230.61 1933.55,1228.06 1944.77,1225.56 1955.98,1223.12 1967.2,1220.74 1978.42,1218.43 
  1989.64,1216.21 2000.86,1214.07 2012.08,1212.02 2023.3,1210.07 2034.52,1208.22 2045.74,1206.49 2056.96,1204.87 2068.18,1203.37 2079.4,1201.99 2090.62,1200.74 
  2101.84,1199.62 2113.05,1198.63 2124.27,1197.78 2135.49,1197.07 2146.71,1196.49 2157.93,1196.06 2169.15,1195.77 2180.37,1195.61 2191.59,1195.6 2202.81,1195.73 
  2214.03,1196 2225.25,1196.41 2236.47,1196.95 2247.69,1197.62 2258.91,1198.42 2270.13,1199.34 2281.34,1200.39 2292.56,1201.54 2303.78,1202.81 2315,1204.17 
  2326.22,1205.63 2337.44,1207.17 2348.66,1208.79 2359.88,1210.48 2371.1,1212.21 2382.32,1213.99 2393.54,1215.8 2404.76,1217.63 2415.98,1219.45 2427.2,1221.26 
  2438.41,1223.04 2449.63,1224.76 2460.85,1226.41 2472.07,1227.98 2483.29,1229.42 2494.51,1230.73 2505.73,1231.87 2516.95,1232.84 2528.17,1233.58 2539.39,1234.1 
  2550.61,1234.35 
  "/>
<polyline clip-path="url(#clip6802)" style="stroke:#ac8d18; stroke-width:16; stroke-opacity:1; fill:none" points="
  306.747,1190.1 317.966,1201.58 329.186,1224.99 340.405,1240.32 351.624,1237.53 362.844,1219.73 374.063,1196.13 385.282,1174.92 396.501,1159.97 407.721,1151.45 
  418.94,1147.84 430.159,1147.39 441.379,1148.74 452.598,1150.97 463.817,1153.54 475.037,1156.12 486.256,1158.51 497.475,1160.63 508.694,1162.4 519.914,1163.81 
  531.133,1164.86 542.352,1165.58 553.572,1165.98 564.791,1166.12 576.01,1166.02 587.23,1165.72 598.449,1165.26 609.668,1164.68 620.888,1164 632.107,1163.26 
  643.326,1162.48 654.545,1161.68 665.765,1160.89 676.984,1160.12 688.203,1159.39 699.423,1158.71 710.642,1158.09 721.861,1157.55 733.081,1157.08 744.3,1156.68 
  755.519,1156.37 766.738,1156.14 777.958,1155.99 789.177,1155.91 800.396,1155.9 811.616,1155.96 822.835,1156.08 834.054,1156.25 845.274,1156.47 856.493,1156.74 
  867.712,1157.04 878.931,1157.37 890.151,1157.73 901.37,1158.12 912.589,1158.51 923.809,1158.93 935.028,1159.35 946.247,1159.78 957.467,1160.21 968.686,1160.65 
  979.905,1161.08 991.125,1161.52 1002.34,1161.95 1013.56,1162.39 1024.78,1162.84 1036,1163.3 1047.22,1163.8 1058.44,1164.41 1069.66,1165 1080.88,1165.45 
  1092.1,1165.84 1103.32,1166.19 1114.54,1166.52 1125.76,1166.84 1136.98,1167.15 1148.19,1167.45 1159.41,1167.76 1170.63,1168.07 1181.85,1168.37 1193.07,1168.69 
  1204.29,1169 1215.51,1169.32 1226.73,1169.65 1237.95,1169.98 1249.17,1170.32 1260.39,1170.66 1271.61,1171.01 1282.83,1171.36 1294.05,1171.72 1305.26,1172.09 
  1316.48,1172.45 1327.7,1172.83 1338.92,1173.2 1350.14,1173.58 1361.36,1173.97 1372.58,1174.35 1383.8,1174.74 1395.02,1175.12 1406.24,1175.51 1417.46,1175.9 
  1428.68,1176.29 1439.9,1176.67 1451.12,1177.06 1462.34,1177.44 1473.55,1177.82 1484.77,1178.19 1495.99,1178.56 1507.21,1178.93 1518.43,1179.3 1529.65,1179.65 
  1540.87,1180.01 1552.09,1180.35 1563.31,1180.69 1574.53,1181.03 1585.75,1181.35 1596.97,1181.67 1608.19,1181.99 1619.41,1182.29 1630.62,1182.59 1641.84,1182.87 
  1653.06,1183.15 1664.28,1183.42 1675.5,1183.68 1686.72,1183.93 1697.94,1184.18 1709.16,1184.41 1720.38,1184.63 1731.6,1184.85 1742.82,1185.05 1754.04,1185.25 
  1765.26,1185.43 1776.48,1185.61 1787.69,1185.77 1798.91,1185.93 1810.13,1186.08 1821.35,1186.21 1832.57,1186.34 1843.79,1186.46 1855.01,1186.57 1866.23,1186.68 
  1877.45,1186.77 1888.67,1186.86 1899.89,1186.94 1911.11,1187.01 1922.33,1187.08 1933.55,1187.14 1944.77,1187.19 1955.98,1187.24 1967.2,1187.28 1978.42,1187.31 
  1989.64,1187.34 2000.86,1187.37 2012.08,1187.39 2023.3,1187.41 2034.52,1187.43 2045.74,1187.44 2056.96,1187.45 2068.18,1187.46 2079.4,1187.46 2090.62,1187.46 
  2101.84,1187.47 2113.05,1187.47 2124.27,1187.47 2135.49,1187.47 2146.71,1187.47 2157.93,1187.47 2169.15,1187.47 2180.37,1187.48 2191.59,1187.48 2202.81,1187.48 
  2214.03,1187.49 2225.25,1187.49 2236.47,1187.5 2247.69,1187.51 2258.91,1187.52 2270.13,1187.53 2281.34,1187.55 2292.56,1187.56 2303.78,1187.58 2315,1187.59 
  2326.22,1187.61 2337.44,1187.63 2348.66,1187.65 2359.88,1187.67 2371.1,1187.69 2382.32,1187.71 2393.54,1187.73 2404.76,1187.74 2415.98,1187.76 2427.2,1187.77 
  2438.41,1187.79 2449.63,1187.79 2460.85,1187.8 2472.07,1187.81 2483.29,1187.81 2494.51,1187.8 2505.73,1187.8 2516.95,1187.79 2528.17,1187.78 2539.39,1187.77 
  2550.61,1187.77 
  "/>
<path clip-path="url(#clip6800)" d="
M2713.92 625.432 L3184.76 625.432 L3184.76 262.552 L2713.92 262.552  Z
  " fill="#ffffff" fill-rule="evenodd" fill-opacity="1"/>
<polyline clip-path="url(#clip6800)" style="stroke:#000000; stroke-width:4; stroke-opacity:1; fill:none" points="
  2713.92,625.432 3184.76,625.432 3184.76,262.552 2713.92,262.552 2713.92,625.432 
  "/>
<polyline clip-path="url(#clip6800)" style="stroke:#009af9; stroke-width:16; stroke-opacity:1; fill:none" points="
  2745.92,323.032 2937.92,323.032 
  "/>
<path clip-path="url(#clip6800)" d="M 0 0 M2991.95 303.633 Q2984.95 303.633 2980.81 308.853 Q2976.7 314.072 2976.7 323.08 Q2976.7 332.056 2980.81 337.275 Q2984.95 342.495 2991.95 342.495 Q2998.95 342.495 3003.03 337.275 Q3007.13 332.056 3007.13 323.08 Q3007.13 314.072 3003.03 308.853 Q2998.95 303.633 2991.95 303.633 M3000.96 345.933 L3009.42 355.195 L3001.66 355.195 L2994.62 347.588 Q2993.57 347.651 2993 347.683 Q2992.46 347.715 2991.95 347.715 Q2981.92 347.715 2975.91 341.031 Q2969.92 334.315 2969.92 323.08 Q2969.92 311.813 2975.91 305.129 Q2981.92 298.413 2991.95 298.413 Q3001.94 298.413 3007.93 305.129 Q3013.91 311.813 3013.91 323.08 Q3013.91 331.355 3010.57 337.244 Q3007.26 343.132 3000.96 345.933 Z" fill="#000000" fill-rule="evenodd" fill-opacity="1" /><path clip-path="url(#clip6800)" d="M 0 0 M3019.45 332.724 L3019.45 311.144 L3025.31 311.144 L3025.31 332.501 Q3025.31 337.562 3027.28 340.108 Q3029.25 342.623 3033.2 342.623 Q3037.94 342.623 3040.68 339.599 Q3043.45 336.575 3043.45 331.355 L3043.45 311.144 L3049.3 311.144 L3049.3 346.792 L3043.45 346.792 L3043.45 341.318 Q3041.31 344.564 3038.48 346.156 Q3035.68 347.715 3031.96 347.715 Q3025.81 347.715 3022.63 343.896 Q3019.45 340.076 3019.45 332.724 M3034.19 310.285 L3034.19 310.285 Z" fill="#000000" fill-rule="evenodd" fill-opacity="1" /><path clip-path="url(#clip6800)" d="M 0 0 M3071.65 328.873 Q3064.55 328.873 3061.81 330.496 Q3059.08 332.119 3059.08 336.034 Q3059.08 339.153 3061.11 340.999 Q3063.18 342.814 3066.71 342.814 Q3071.58 342.814 3074.51 339.376 Q3077.47 335.907 3077.47 330.178 L3077.47 328.873 L3071.65 328.873 M3083.33 326.454 L3083.33 346.792 L3077.47 346.792 L3077.47 341.381 Q3075.47 344.628 3072.47 346.187 Q3069.48 347.715 3065.15 347.715 Q3059.68 347.715 3056.43 344.66 Q3053.22 341.572 3053.22 336.416 Q3053.22 330.4 3057.23 327.345 Q3061.27 324.289 3069.26 324.289 L3077.47 324.289 L3077.47 323.716 Q3077.47 319.674 3074.8 317.478 Q3072.16 315.25 3067.35 315.25 Q3064.29 315.25 3061.4 315.982 Q3058.5 316.714 3055.83 318.178 L3055.83 312.767 Q3059.04 311.526 3062.07 310.921 Q3065.09 310.285 3067.96 310.285 Q3075.69 310.285 3079.51 314.295 Q3083.33 318.306 3083.33 326.454 Z" fill="#000000" fill-rule="evenodd" fill-opacity="1" /><path clip-path="url(#clip6800)" d="M 0 0 M3112.93 316.555 L3112.93 297.267 L3118.79 297.267 L3118.79 346.792 L3112.93 346.792 L3112.93 341.445 Q3111.08 344.628 3108.25 346.187 Q3105.45 347.715 3101.5 347.715 Q3095.04 347.715 3090.97 342.559 Q3086.93 337.403 3086.93 329 Q3086.93 320.597 3090.97 315.441 Q3095.04 310.285 3101.5 310.285 Q3105.45 310.285 3108.25 311.844 Q3111.08 313.372 3112.93 316.555 M3092.97 329 Q3092.97 335.461 3095.61 339.153 Q3098.29 342.814 3102.93 342.814 Q3107.58 342.814 3110.26 339.153 Q3112.93 335.461 3112.93 329 Q3112.93 322.539 3110.26 318.879 Q3107.58 315.186 3102.93 315.186 Q3098.29 315.186 3095.61 318.879 Q3092.97 322.539 3092.97 329 Z" fill="#000000" fill-rule="evenodd" fill-opacity="1" /><path clip-path="url(#clip6800)" d="M 0 0 M3147.59 341.381 L3158.09 341.381 L3158.09 305.129 L3146.67 307.42 L3146.67 301.564 L3158.03 299.272 L3164.46 299.272 L3164.46 341.381 L3174.96 341.381 L3174.96 346.792 L3147.59 346.792 L3147.59 341.381 Z" fill="#000000" fill-rule="evenodd" fill-opacity="1" /><polyline clip-path="url(#clip6800)" style="stroke:#e26f46; stroke-width:16; stroke-opacity:1; fill:none" points="
  2745.92,383.512 2937.92,383.512 
  "/>
<path clip-path="url(#clip6800)" d="M 0 0 M2991.95 364.113 Q2984.95 364.113 2980.81 369.333 Q2976.7 374.552 2976.7 383.56 Q2976.7 392.536 2980.81 397.755 Q2984.95 402.975 2991.95 402.975 Q2998.95 402.975 3003.03 397.755 Q3007.13 392.536 3007.13 383.56 Q3007.13 374.552 3003.03 369.333 Q2998.95 364.113 2991.95 364.113 M3000.96 406.413 L3009.42 415.675 L3001.66 415.675 L2994.62 408.068 Q2993.57 408.131 2993 408.163 Q2992.46 408.195 2991.95 408.195 Q2981.92 408.195 2975.91 401.511 Q2969.92 394.795 2969.92 383.56 Q2969.92 372.293 2975.91 365.609 Q2981.92 358.893 2991.95 358.893 Q3001.94 358.893 3007.93 365.609 Q3013.91 372.293 3013.91 383.56 Q3013.91 391.835 3010.57 397.724 Q3007.26 403.612 3000.96 406.413 Z" fill="#000000" fill-rule="evenodd" fill-opacity="1" /><path clip-path="url(#clip6800)" d="M 0 0 M3019.45 393.204 L3019.45 371.624 L3025.31 371.624 L3025.31 392.981 Q3025.31 398.042 3027.28 400.588 Q3029.25 403.103 3033.2 403.103 Q3037.94 403.103 3040.68 400.079 Q3043.45 397.055 3043.45 391.835 L3043.45 371.624 L3049.3 371.624 L3049.3 407.272 L3043.45 407.272 L3043.45 401.798 Q3041.31 405.044 3038.48 406.636 Q3035.68 408.195 3031.96 408.195 Q3025.81 408.195 3022.63 404.376 Q3019.45 400.556 3019.45 393.204 M3034.19 370.765 L3034.19 370.765 Z" fill="#000000" fill-rule="evenodd" fill-opacity="1" /><path clip-path="url(#clip6800)" d="M 0 0 M3071.65 389.353 Q3064.55 389.353 3061.81 390.976 Q3059.08 392.599 3059.08 396.514 Q3059.08 399.633 3061.11 401.479 Q3063.18 403.294 3066.71 403.294 Q3071.58 403.294 3074.51 399.856 Q3077.47 396.387 3077.47 390.658 L3077.47 389.353 L3071.65 389.353 M3083.33 386.934 L3083.33 407.272 L3077.47 407.272 L3077.47 401.861 Q3075.47 405.108 3072.47 406.667 Q3069.48 408.195 3065.15 408.195 Q3059.68 408.195 3056.43 405.14 Q3053.22 402.052 3053.22 396.896 Q3053.22 390.88 3057.23 387.825 Q3061.27 384.769 3069.26 384.769 L3077.47 384.769 L3077.47 384.196 Q3077.47 380.154 3074.8 377.958 Q3072.16 375.73 3067.35 375.73 Q3064.29 375.73 3061.4 376.462 Q3058.5 377.194 3055.83 378.658 L3055.83 373.247 Q3059.04 372.006 3062.07 371.401 Q3065.09 370.765 3067.96 370.765 Q3075.69 370.765 3079.51 374.775 Q3083.33 378.786 3083.33 386.934 Z" fill="#000000" fill-rule="evenodd" fill-opacity="1" /><path clip-path="url(#clip6800)" d="M 0 0 M3112.93 377.035 L3112.93 357.747 L3118.79 357.747 L3118.79 407.272 L3112.93 407.272 L3112.93 401.925 Q3111.08 405.108 3108.25 406.667 Q3105.45 408.195 3101.5 408.195 Q3095.04 408.195 3090.97 403.039 Q3086.93 397.883 3086.93 389.48 Q3086.93 381.077 3090.97 375.921 Q3095.04 370.765 3101.5 370.765 Q3105.45 370.765 3108.25 372.324 Q3111.08 373.852 3112.93 377.035 M3092.97 389.48 Q3092.97 395.941 3095.61 399.633 Q3098.29 403.294 3102.93 403.294 Q3107.58 403.294 3110.26 399.633 Q3112.93 395.941 3112.93 389.48 Q3112.93 383.019 3110.26 379.359 Q3107.58 375.666 3102.93 375.666 Q3098.29 375.666 3095.61 379.359 Q3092.97 383.019 3092.97 389.48 Z" fill="#000000" fill-rule="evenodd" fill-opacity="1" /><path clip-path="url(#clip6800)" d="M 0 0 M3152.01 401.861 L3174.45 401.861 L3174.45 407.272 L3144.28 407.272 L3144.28 401.861 Q3147.94 398.074 3154.24 391.708 Q3160.58 385.31 3162.2 383.464 Q3165.29 379.995 3166.5 377.608 Q3167.74 375.189 3167.74 372.865 Q3167.74 369.078 3165.06 366.691 Q3162.42 364.304 3158.16 364.304 Q3155.13 364.304 3151.76 365.354 Q3148.42 366.404 3144.6 368.537 L3144.6 362.044 Q3148.48 360.484 3151.86 359.688 Q3155.23 358.893 3158.03 358.893 Q3165.41 358.893 3169.81 362.585 Q3174.2 366.277 3174.2 372.452 Q3174.2 375.38 3173.08 378.022 Q3172 380.632 3169.11 384.196 Q3168.31 385.119 3164.05 389.544 Q3159.78 393.936 3152.01 401.861 Z" fill="#000000" fill-rule="evenodd" fill-opacity="1" /><polyline clip-path="url(#clip6800)" style="stroke:#3da44d; stroke-width:16; stroke-opacity:1; fill:none" points="
  2745.92,443.992 2937.92,443.992 
  "/>
<path clip-path="url(#clip6800)" d="M 0 0 M2991.95 424.593 Q2984.95 424.593 2980.81 429.813 Q2976.7 435.032 2976.7 444.04 Q2976.7 453.016 2980.81 458.235 Q2984.95 463.455 2991.95 463.455 Q2998.95 463.455 3003.03 458.235 Q3007.13 453.016 3007.13 444.04 Q3007.13 435.032 3003.03 429.813 Q2998.95 424.593 2991.95 424.593 M3000.96 466.893 L3009.42 476.155 L3001.66 476.155 L2994.62 468.548 Q2993.57 468.611 2993 468.643 Q2992.46 468.675 2991.95 468.675 Q2981.92 468.675 2975.91 461.991 Q2969.92 455.275 2969.92 444.04 Q2969.92 432.773 2975.91 426.089 Q2981.92 419.373 2991.95 419.373 Q3001.94 419.373 3007.93 426.089 Q3013.91 432.773 3013.91 444.04 Q3013.91 452.315 3010.57 458.204 Q3007.26 464.092 3000.96 466.893 Z" fill="#000000" fill-rule="evenodd" fill-opacity="1" /><path clip-path="url(#clip6800)" d="M 0 0 M3019.45 453.684 L3019.45 432.104 L3025.31 432.104 L3025.31 453.461 Q3025.31 458.522 3027.28 461.068 Q3029.25 463.583 3033.2 463.583 Q3037.94 463.583 3040.68 460.559 Q3043.45 457.535 3043.45 452.315 L3043.45 432.104 L3049.3 432.104 L3049.3 467.752 L3043.45 467.752 L3043.45 462.278 Q3041.31 465.524 3038.48 467.116 Q3035.68 468.675 3031.96 468.675 Q3025.81 468.675 3022.63 464.856 Q3019.45 461.036 3019.45 453.684 M3034.19 431.245 L3034.19 431.245 Z" fill="#000000" fill-rule="evenodd" fill-opacity="1" /><path clip-path="url(#clip6800)" d="M 0 0 M3071.65 449.833 Q3064.55 449.833 3061.81 451.456 Q3059.08 453.079 3059.08 456.994 Q3059.08 460.113 3061.11 461.959 Q3063.18 463.774 3066.71 463.774 Q3071.58 463.774 3074.51 460.336 Q3077.47 456.867 3077.47 451.138 L3077.47 449.833 L3071.65 449.833 M3083.33 447.414 L3083.33 467.752 L3077.47 467.752 L3077.47 462.341 Q3075.47 465.588 3072.47 467.147 Q3069.48 468.675 3065.15 468.675 Q3059.68 468.675 3056.43 465.62 Q3053.22 462.532 3053.22 457.376 Q3053.22 451.36 3057.23 448.305 Q3061.27 445.249 3069.26 445.249 L3077.47 445.249 L3077.47 444.676 Q3077.47 440.634 3074.8 438.438 Q3072.16 436.21 3067.35 436.21 Q3064.29 436.21 3061.4 436.942 Q3058.5 437.674 3055.83 439.138 L3055.83 433.727 Q3059.04 432.486 3062.07 431.881 Q3065.09 431.245 3067.96 431.245 Q3075.69 431.245 3079.51 435.255 Q3083.33 439.266 3083.33 447.414 Z" fill="#000000" fill-rule="evenodd" fill-opacity="1" /><path clip-path="url(#clip6800)" d="M 0 0 M3112.93 437.515 L3112.93 418.227 L3118.79 418.227 L3118.79 467.752 L3112.93 467.752 L3112.93 462.405 Q3111.08 465.588 3108.25 467.147 Q3105.45 468.675 3101.5 468.675 Q3095.04 468.675 3090.97 463.519 Q3086.93 458.363 3086.93 449.96 Q3086.93 441.557 3090.97 436.401 Q3095.04 431.245 3101.5 431.245 Q3105.45 431.245 3108.25 432.804 Q3111.08 434.332 3112.93 437.515 M3092.97 449.96 Q3092.97 456.421 3095.61 460.113 Q3098.29 463.774 3102.93 463.774 Q3107.58 463.774 3110.26 460.113 Q3112.93 456.421 3112.93 449.96 Q3112.93 443.499 3110.26 439.839 Q3107.58 436.146 3102.93 436.146 Q3098.29 436.146 3095.61 439.839 Q3092.97 443.499 3092.97 449.96 Z" fill="#000000" fill-rule="evenodd" fill-opacity="1" /><path clip-path="url(#clip6800)" d="M 0 0 M3165.96 442.13 Q3170.57 443.117 3173.15 446.236 Q3175.76 449.355 3175.76 453.939 Q3175.76 460.973 3170.92 464.824 Q3166.08 468.675 3157.17 468.675 Q3154.18 468.675 3151 468.07 Q3147.84 467.497 3144.47 466.32 L3144.47 460.113 Q3147.14 461.673 3150.33 462.469 Q3153.51 463.264 3156.98 463.264 Q3163.03 463.264 3166.18 460.877 Q3169.36 458.49 3169.36 453.939 Q3169.36 449.737 3166.4 447.382 Q3163.47 444.995 3158.22 444.995 L3152.68 444.995 L3152.68 439.711 L3158.48 439.711 Q3163.22 439.711 3165.73 437.833 Q3168.25 435.924 3168.25 432.359 Q3168.25 428.699 3165.64 426.757 Q3163.06 424.784 3158.22 424.784 Q3155.58 424.784 3152.56 425.357 Q3149.53 425.929 3145.9 427.139 L3145.9 421.41 Q3149.56 420.391 3152.75 419.882 Q3155.96 419.373 3158.79 419.373 Q3166.11 419.373 3170.38 422.715 Q3174.64 426.025 3174.64 431.69 Q3174.64 435.637 3172.38 438.374 Q3170.12 441.08 3165.96 442.13 Z" fill="#000000" fill-rule="evenodd" fill-opacity="1" /><polyline clip-path="url(#clip6800)" style="stroke:#c271d2; stroke-width:16; stroke-opacity:1; fill:none" points="
  2745.92,504.472 2937.92,504.472 
  "/>
<path clip-path="url(#clip6800)" d="M 0 0 M2991.95 485.073 Q2984.95 485.073 2980.81 490.293 Q2976.7 495.512 2976.7 504.52 Q2976.7 513.496 2980.81 518.715 Q2984.95 523.935 2991.95 523.935 Q2998.95 523.935 3003.03 518.715 Q3007.13 513.496 3007.13 504.52 Q3007.13 495.512 3003.03 490.293 Q2998.95 485.073 2991.95 485.073 M3000.96 527.373 L3009.42 536.635 L3001.66 536.635 L2994.62 529.028 Q2993.57 529.091 2993 529.123 Q2992.46 529.155 2991.95 529.155 Q2981.92 529.155 2975.91 522.471 Q2969.92 515.755 2969.92 504.52 Q2969.92 493.253 2975.91 486.569 Q2981.92 479.853 2991.95 479.853 Q3001.94 479.853 3007.93 486.569 Q3013.91 493.253 3013.91 504.52 Q3013.91 512.795 3010.57 518.684 Q3007.26 524.572 3000.96 527.373 Z" fill="#000000" fill-rule="evenodd" fill-opacity="1" /><path clip-path="url(#clip6800)" d="M 0 0 M3019.45 514.164 L3019.45 492.584 L3025.31 492.584 L3025.31 513.941 Q3025.31 519.002 3027.28 521.548 Q3029.25 524.063 3033.2 524.063 Q3037.94 524.063 3040.68 521.039 Q3043.45 518.015 3043.45 512.795 L3043.45 492.584 L3049.3 492.584 L3049.3 528.232 L3043.45 528.232 L3043.45 522.758 Q3041.31 526.004 3038.48 527.596 Q3035.68 529.155 3031.96 529.155 Q3025.81 529.155 3022.63 525.336 Q3019.45 521.516 3019.45 514.164 M3034.19 491.725 L3034.19 491.725 Z" fill="#000000" fill-rule="evenodd" fill-opacity="1" /><path clip-path="url(#clip6800)" d="M 0 0 M3071.65 510.313 Q3064.55 510.313 3061.81 511.936 Q3059.08 513.559 3059.08 517.474 Q3059.08 520.593 3061.11 522.439 Q3063.18 524.254 3066.71 524.254 Q3071.58 524.254 3074.51 520.816 Q3077.47 517.347 3077.47 511.618 L3077.47 510.313 L3071.65 510.313 M3083.33 507.894 L3083.33 528.232 L3077.47 528.232 L3077.47 522.821 Q3075.47 526.068 3072.47 527.627 Q3069.48 529.155 3065.15 529.155 Q3059.68 529.155 3056.43 526.1 Q3053.22 523.012 3053.22 517.856 Q3053.22 511.84 3057.23 508.785 Q3061.27 505.729 3069.26 505.729 L3077.47 505.729 L3077.47 505.156 Q3077.47 501.114 3074.8 498.918 Q3072.16 496.69 3067.35 496.69 Q3064.29 496.69 3061.4 497.422 Q3058.5 498.154 3055.83 499.618 L3055.83 494.207 Q3059.04 492.966 3062.07 492.361 Q3065.09 491.725 3067.96 491.725 Q3075.69 491.725 3079.51 495.735 Q3083.33 499.746 3083.33 507.894 Z" fill="#000000" fill-rule="evenodd" fill-opacity="1" /><path clip-path="url(#clip6800)" d="M 0 0 M3112.93 497.995 L3112.93 478.707 L3118.79 478.707 L3118.79 528.232 L3112.93 528.232 L3112.93 522.885 Q3111.08 526.068 3108.25 527.627 Q3105.45 529.155 3101.5 529.155 Q3095.04 529.155 3090.97 523.999 Q3086.93 518.843 3086.93 510.44 Q3086.93 502.037 3090.97 496.881 Q3095.04 491.725 3101.5 491.725 Q3105.45 491.725 3108.25 493.284 Q3111.08 494.812 3112.93 497.995 M3092.97 510.44 Q3092.97 516.901 3095.61 520.593 Q3098.29 524.254 3102.93 524.254 Q3107.58 524.254 3110.26 520.593 Q3112.93 516.901 3112.93 510.44 Q3112.93 503.979 3110.26 500.319 Q3107.58 496.626 3102.93 496.626 Q3098.29 496.626 3095.61 500.319 Q3092.97 503.979 3092.97 510.44 Z" fill="#000000" fill-rule="evenodd" fill-opacity="1" /><path clip-path="url(#clip6800)" d="M 0 0 M3164.14 486.314 L3147.91 511.681 L3164.14 511.681 L3164.14 486.314 M3162.45 480.712 L3170.54 480.712 L3170.54 511.681 L3177.32 511.681 L3177.32 517.028 L3170.54 517.028 L3170.54 528.232 L3164.14 528.232 L3164.14 517.028 L3142.69 517.028 L3142.69 510.822 L3162.45 480.712 Z" fill="#000000" fill-rule="evenodd" fill-opacity="1" /><polyline clip-path="url(#clip6800)" style="stroke:#ac8d18; stroke-width:16; stroke-opacity:1; fill:none" points="
  2745.92,564.952 2937.92,564.952 
  "/>
<path clip-path="url(#clip6800)" d="M 0 0 M2969.92 541.192 L2976.35 541.192 L2976.35 583.301 L2999.49 583.301 L2999.49 588.712 L2969.92 588.712 L2969.92 541.192 Z" fill="#000000" fill-rule="evenodd" fill-opacity="1" /><path clip-path="url(#clip6800)" d="M 0 0 M3018.3 557.17 Q3013.59 557.17 3010.85 560.862 Q3008.12 564.522 3008.12 570.92 Q3008.12 577.318 3010.82 581.01 Q3013.56 584.67 3018.3 584.67 Q3022.98 584.67 3025.72 580.978 Q3028.46 577.286 3028.46 570.92 Q3028.46 564.586 3025.72 560.894 Q3022.98 557.17 3018.3 557.17 M3018.3 552.205 Q3025.94 552.205 3030.3 557.17 Q3034.66 562.135 3034.66 570.92 Q3034.66 579.673 3030.3 584.67 Q3025.94 589.635 3018.3 589.635 Q3010.63 589.635 3006.27 584.67 Q3001.94 579.673 3001.94 570.92 Q3001.94 562.135 3006.27 557.17 Q3010.63 552.205 3018.3 552.205 Z" fill="#000000" fill-rule="evenodd" fill-opacity="1" /><path clip-path="url(#clip6800)" d="M 0 0 M3057.01 570.793 Q3049.91 570.793 3047.17 572.416 Q3044.43 574.039 3044.43 577.954 Q3044.43 581.073 3046.47 582.919 Q3048.54 584.734 3052.07 584.734 Q3056.94 584.734 3059.87 581.296 Q3062.83 577.827 3062.83 572.098 L3062.83 570.793 L3057.01 570.793 M3068.69 568.374 L3068.69 588.712 L3062.83 588.712 L3062.83 583.301 Q3060.83 586.548 3057.83 588.107 Q3054.84 589.635 3050.51 589.635 Q3045.04 589.635 3041.79 586.58 Q3038.58 583.492 3038.58 578.336 Q3038.58 572.32 3042.59 569.265 Q3046.63 566.209 3054.62 566.209 L3062.83 566.209 L3062.83 565.636 Q3062.83 561.594 3060.16 559.398 Q3057.52 557.17 3052.71 557.17 Q3049.65 557.17 3046.76 557.902 Q3043.86 558.634 3041.19 560.098 L3041.19 554.687 Q3044.4 553.446 3047.43 552.841 Q3050.45 552.205 3053.31 552.205 Q3061.05 552.205 3064.87 556.215 Q3068.69 560.226 3068.69 568.374 Z" fill="#000000" fill-rule="evenodd" fill-opacity="1" /><path clip-path="url(#clip6800)" d="M 0 0 M3098.29 558.475 L3098.29 539.187 L3104.14 539.187 L3104.14 588.712 L3098.29 588.712 L3098.29 583.365 Q3096.44 586.548 3093.61 588.107 Q3090.81 589.635 3086.86 589.635 Q3080.4 589.635 3076.33 584.479 Q3072.28 579.323 3072.28 570.92 Q3072.28 562.517 3076.33 557.361 Q3080.4 552.205 3086.86 552.205 Q3090.81 552.205 3093.61 553.764 Q3096.44 555.292 3098.29 558.475 M3078.33 570.92 Q3078.33 577.381 3080.97 581.073 Q3083.65 584.734 3088.29 584.734 Q3092.94 584.734 3095.61 581.073 Q3098.29 577.381 3098.29 570.92 Q3098.29 564.459 3095.61 560.799 Q3092.94 557.106 3088.29 557.106 Q3083.65 557.106 3080.97 560.799 Q3078.33 564.459 3078.33 570.92 Z" fill="#000000" fill-rule="evenodd" fill-opacity="1" /></svg>
