<?xml version="1.0" encoding="utf-8"?>
<svg xmlns="http://www.w3.org/2000/svg" xmlns:xlink="http://www.w3.org/1999/xlink" width="800" height="600" viewBox="0 0 3200 2400">
<defs>
  <clipPath id="clip8300">
    <rect x="0" y="0" width="3200" height="2400"/>
  </clipPath>
</defs>
<path clip-path="url(#clip8300)" d="
M0 2400 L3200 2400 L3200 0 L0 0  Z
  " fill="#ffffff" fill-rule="evenodd" fill-opacity="1"/>
<defs>
  <clipPath id="clip8301">
    <rect x="640" y="0" width="2241" height="2241"/>
  </clipPath>
</defs>
<path clip-path="url(#clip8300)" d="
M229.478 2204.92 L2617.92 2204.92 L2617.92 131.032 L229.478 131.032  Z
  " fill="#ffffff" fill-rule="evenodd" fill-opacity="1"/>
<defs>
  <clipPath id="clip8302">
    <rect x="229" y="131" width="2389" height="2075"/>
  </clipPath>
</defs>
<polyline clip-path="url(#clip8302)" style="stroke:#000000; stroke-width:2; stroke-opacity:0.1; fill:none" points="
  297.075,2204.92 297.075,131.032 
  "/>
<polyline clip-path="url(#clip8302)" style="stroke:#000000; stroke-width:2; stroke-opacity:0.1; fill:none" points="
  747.725,2204.92 747.725,131.032 
  "/>
<polyline clip-path="url(#clip8302)" style="stroke:#000000; stroke-width:2; stroke-opacity:0.1; fill:none" points="
  1198.38,2204.92 1198.38,131.032 
  "/>
<polyline clip-path="url(#clip8302)" style="stroke:#000000; stroke-width:2; stroke-opacity:0.1; fill:none" points="
  1649.03,2204.92 1649.03,131.032 
  "/>
<polyline clip-path="url(#clip8302)" style="stroke:#000000; stroke-width:2; stroke-opacity:0.1; fill:none" points="
  2099.68,2204.92 2099.68,131.032 
  "/>
<polyline clip-path="url(#clip8302)" style="stroke:#000000; stroke-width:2; stroke-opacity:0.1; fill:none" points="
  2550.33,2204.92 2550.33,131.032 
  "/>
<polyline clip-path="url(#clip8302)" style="stroke:#000000; stroke-width:2; stroke-opacity:0.1; fill:none" points="
  229.478,2183.59 2617.92,2183.59 
  "/>
<polyline clip-path="url(#clip8302)" style="stroke:#000000; stroke-width:2; stroke-opacity:0.1; fill:none" points="
  229.478,1637.57 2617.92,1637.57 
  "/>
<polyline clip-path="url(#clip8302)" style="stroke:#000000; stroke-width:2; stroke-opacity:0.1; fill:none" points="
  229.478,1091.55 2617.92,1091.55 
  "/>
<polyline clip-path="url(#clip8302)" style="stroke:#000000; stroke-width:2; stroke-opacity:0.1; fill:none" points="
  229.478,545.533 2617.92,545.533 
  "/>
<polyline clip-path="url(#clip8300)" style="stroke:#000000; stroke-width:4; stroke-opacity:1; fill:none" points="
  229.478,2204.92 2617.92,2204.92 
  "/>
<polyline clip-path="url(#clip8300)" style="stroke:#000000; stroke-width:4; stroke-opacity:1; fill:none" points="
  229.478,2204.92 229.478,131.032 
  "/>
<polyline clip-path="url(#clip8300)" style="stroke:#000000; stroke-width:4; stroke-opacity:1; fill:none" points="
  297.075,2204.92 297.075,2180.03 
  "/>
<polyline clip-path="url(#clip8300)" style="stroke:#000000; stroke-width:4; stroke-opacity:1; fill:none" points="
  747.725,2204.92 747.725,2180.03 
  "/>
<polyline clip-path="url(#clip8300)" style="stroke:#000000; stroke-width:4; stroke-opacity:1; fill:none" points="
  1198.38,2204.92 1198.38,2180.03 
  "/>
<polyline clip-path="url(#clip8300)" style="stroke:#000000; stroke-width:4; stroke-opacity:1; fill:none" points="
  1649.03,2204.92 1649.03,2180.03 
  "/>
<polyline clip-path="url(#clip8300)" style="stroke:#000000; stroke-width:4; stroke-opacity:1; fill:none" points="
  2099.68,2204.92 2099.68,2180.03 
  "/>
<polyline clip-path="url(#clip8300)" style="stroke:#000000; stroke-width:4; stroke-opacity:1; fill:none" points="
  2550.33,2204.92 2550.33,2180.03 
  "/>
<polyline clip-path="url(#clip8300)" style="stroke:#000000; stroke-width:4; stroke-opacity:1; fill:none" points="
  229.478,2183.59 258.139,2183.59 
  "/>
<polyline clip-path="url(#clip8300)" style="stroke:#000000; stroke-width:4; stroke-opacity:1; fill:none" points="
  229.478,1637.57 258.139,1637.57 
  "/>
<polyline clip-path="url(#clip8300)" style="stroke:#000000; stroke-width:4; stroke-opacity:1; fill:none" points="
  229.478,1091.55 258.139,1091.55 
  "/>
<polyline clip-path="url(#clip8300)" style="stroke:#000000; stroke-width:4; stroke-opacity:1; fill:none" points="
  229.478,545.533 258.139,545.533 
  "/>
<path clip-path="url(#clip8300)" d="M 0 0 M297.075 2230.91 Q293.464 2230.91 291.635 2234.48 Q289.83 2238.02 289.83 2245.15 Q289.83 2252.25 291.635 2255.82 Q293.464 2259.36 297.075 2259.36 Q300.709 2259.36 302.515 2255.82 Q304.344 2252.25 304.344 2245.15 Q304.344 2238.02 302.515 2234.48 Q300.709 2230.91 297.075 2230.91 M297.075 2227.21 Q302.885 2227.21 305.941 2231.81 Q309.019 2236.4 309.019 2245.15 Q309.019 2253.87 305.941 2258.48 Q302.885 2263.06 297.075 2263.06 Q291.265 2263.06 288.186 2258.48 Q285.131 2253.87 285.131 2245.15 Q285.131 2236.4 288.186 2231.81 Q291.265 2227.21 297.075 2227.21 Z" fill="#000000" fill-rule="evenodd" fill-opacity="1" /><path clip-path="url(#clip8300)" d="M 0 0 M738.107 2258.46 L745.746 2258.46 L745.746 2232.09 L737.436 2233.76 L737.436 2229.5 L745.7 2227.83 L750.376 2227.83 L750.376 2258.46 L758.015 2258.46 L758.015 2262.39 L738.107 2262.39 L738.107 2258.46 Z" fill="#000000" fill-rule="evenodd" fill-opacity="1" /><path clip-path="url(#clip8300)" d="M 0 0 M1193.03 2258.46 L1209.35 2258.46 L1209.35 2262.39 L1187.4 2262.39 L1187.4 2258.46 Q1190.07 2255.7 1194.65 2251.07 Q1199.26 2246.42 1200.44 2245.08 Q1202.68 2242.55 1203.56 2240.82 Q1204.46 2239.06 1204.46 2237.37 Q1204.46 2234.61 1202.52 2232.88 Q1200.6 2231.14 1197.5 2231.14 Q1195.3 2231.14 1192.84 2231.91 Q1190.41 2232.67 1187.63 2234.22 L1187.63 2229.5 Q1190.46 2228.36 1192.91 2227.79 Q1195.37 2227.21 1197.4 2227.21 Q1202.77 2227.21 1205.97 2229.89 Q1209.16 2232.58 1209.16 2237.07 Q1209.16 2239.2 1208.35 2241.12 Q1207.57 2243.02 1205.46 2245.61 Q1204.88 2246.28 1201.78 2249.5 Q1198.68 2252.69 1193.03 2258.46 Z" fill="#000000" fill-rule="evenodd" fill-opacity="1" /><path clip-path="url(#clip8300)" d="M 0 0 M1653.27 2243.76 Q1656.63 2244.48 1658.5 2246.74 Q1660.4 2249.01 1660.4 2252.35 Q1660.4 2257.46 1656.88 2260.26 Q1653.37 2263.06 1646.88 2263.06 Q1644.71 2263.06 1642.39 2262.62 Q1640.1 2262.21 1637.65 2261.35 L1637.65 2256.84 Q1639.59 2257.97 1641.91 2258.55 Q1644.22 2259.13 1646.75 2259.13 Q1651.14 2259.13 1653.44 2257.39 Q1655.75 2255.66 1655.75 2252.35 Q1655.75 2249.29 1653.6 2247.58 Q1651.47 2245.84 1647.65 2245.84 L1643.62 2245.84 L1643.62 2242 L1647.83 2242 Q1651.28 2242 1653.11 2240.63 Q1654.94 2239.24 1654.94 2236.65 Q1654.94 2233.99 1653.04 2232.58 Q1651.17 2231.14 1647.65 2231.14 Q1645.73 2231.14 1643.53 2231.56 Q1641.33 2231.98 1638.69 2232.85 L1638.69 2228.69 Q1641.35 2227.95 1643.67 2227.58 Q1646 2227.21 1648.06 2227.21 Q1653.39 2227.21 1656.49 2229.64 Q1659.59 2232.04 1659.59 2236.17 Q1659.59 2239.04 1657.95 2241.03 Q1656.31 2242.99 1653.27 2243.76 Z" fill="#000000" fill-rule="evenodd" fill-opacity="1" /><path clip-path="url(#clip8300)" d="M 0 0 M2102.68 2231.91 L2090.88 2250.35 L2102.68 2250.35 L2102.68 2231.91 M2101.46 2227.83 L2107.34 2227.83 L2107.34 2250.35 L2112.27 2250.35 L2112.27 2254.24 L2107.34 2254.24 L2107.34 2262.39 L2102.68 2262.39 L2102.68 2254.24 L2087.08 2254.24 L2087.08 2249.73 L2101.46 2227.83 Z" fill="#000000" fill-rule="evenodd" fill-opacity="1" /><path clip-path="url(#clip8300)" d="M 0 0 M2540.6 2227.83 L2558.96 2227.83 L2558.96 2231.77 L2544.89 2231.77 L2544.89 2240.24 Q2545.9 2239.89 2546.92 2239.73 Q2547.94 2239.54 2548.96 2239.54 Q2554.75 2239.54 2558.13 2242.72 Q2561.51 2245.89 2561.51 2251.3 Q2561.51 2256.88 2558.03 2259.98 Q2554.56 2263.06 2548.24 2263.06 Q2546.07 2263.06 2543.8 2262.69 Q2541.55 2262.32 2539.15 2261.58 L2539.15 2256.88 Q2541.23 2258.02 2543.45 2258.57 Q2545.67 2259.13 2548.15 2259.13 Q2552.15 2259.13 2554.49 2257.02 Q2556.83 2254.92 2556.83 2251.3 Q2556.83 2247.69 2554.49 2245.59 Q2552.15 2243.48 2548.15 2243.48 Q2546.27 2243.48 2544.4 2243.9 Q2542.55 2244.31 2540.6 2245.19 L2540.6 2227.83 Z" fill="#000000" fill-rule="evenodd" fill-opacity="1" /><path clip-path="url(#clip8300)" d="M 0 0 M132.2 2185.98 L144.677 2185.98 L144.677 2189.78 L132.2 2189.78 L132.2 2185.98 Z" fill="#000000" fill-rule="evenodd" fill-opacity="1" /><path clip-path="url(#clip8300)" d="M 0 0 M150.557 2196.93 L158.195 2196.93 L158.195 2170.56 L149.885 2172.23 L149.885 2167.97 L158.149 2166.31 L162.825 2166.31 L162.825 2196.93 L170.464 2196.93 L170.464 2200.87 L150.557 2200.87 L150.557 2196.93 Z" fill="#000000" fill-rule="evenodd" fill-opacity="1" /><path clip-path="url(#clip8300)" d="M 0 0 M185.533 2169.38 Q181.922 2169.38 180.093 2172.95 Q178.288 2176.49 178.288 2183.62 Q178.288 2190.73 180.093 2194.29 Q181.922 2197.83 185.533 2197.83 Q189.167 2197.83 190.973 2194.29 Q192.802 2190.73 192.802 2183.62 Q192.802 2176.49 190.973 2172.95 Q189.167 2169.38 185.533 2169.38 M185.533 2165.68 Q191.343 2165.68 194.399 2170.29 Q197.478 2174.87 197.478 2183.62 Q197.478 2192.35 194.399 2196.95 Q191.343 2201.54 185.533 2201.54 Q179.723 2201.54 176.644 2196.95 Q173.589 2192.35 173.589 2183.62 Q173.589 2174.87 176.644 2170.29 Q179.723 2165.68 185.533 2165.68 Z" fill="#000000" fill-rule="evenodd" fill-opacity="1" /><path clip-path="url(#clip8300)" d="M 0 0 M158.982 1639.96 L171.459 1639.96 L171.459 1643.76 L158.982 1643.76 L158.982 1639.96 Z" fill="#000000" fill-rule="evenodd" fill-opacity="1" /><path clip-path="url(#clip8300)" d="M 0 0 M176.575 1620.29 L194.931 1620.29 L194.931 1624.22 L180.857 1624.22 L180.857 1632.7 Q181.876 1632.35 182.894 1632.19 Q183.913 1632 184.931 1632 Q190.718 1632 194.098 1635.17 Q197.478 1638.34 197.478 1643.76 Q197.478 1649.34 194.005 1652.44 Q190.533 1655.52 184.214 1655.52 Q182.038 1655.52 179.769 1655.15 Q177.524 1654.78 175.117 1654.04 L175.117 1649.34 Q177.2 1650.47 179.422 1651.03 Q181.644 1651.58 184.121 1651.58 Q188.126 1651.58 190.464 1649.48 Q192.802 1647.37 192.802 1643.76 Q192.802 1640.15 190.464 1638.04 Q188.126 1635.94 184.121 1635.94 Q182.246 1635.94 180.371 1636.35 Q178.519 1636.77 176.575 1637.65 L176.575 1620.29 Z" fill="#000000" fill-rule="evenodd" fill-opacity="1" /><path clip-path="url(#clip8300)" d="M 0 0 M185.533 1077.35 Q181.922 1077.35 180.093 1080.91 Q178.288 1084.46 178.288 1091.59 Q178.288 1098.69 180.093 1102.26 Q181.922 1105.8 185.533 1105.8 Q189.167 1105.8 190.973 1102.26 Q192.802 1098.69 192.802 1091.59 Q192.802 1084.46 190.973 1080.91 Q189.167 1077.35 185.533 1077.35 M185.533 1073.65 Q191.343 1073.65 194.399 1078.25 Q197.478 1082.84 197.478 1091.59 Q197.478 1100.31 194.399 1104.92 Q191.343 1109.5 185.533 1109.5 Q179.723 1109.5 176.644 1104.92 Q173.589 1100.31 173.589 1091.59 Q173.589 1082.84 176.644 1078.25 Q179.723 1073.65 185.533 1073.65 Z" fill="#000000" fill-rule="evenodd" fill-opacity="1" /><path clip-path="url(#clip8300)" d="M 0 0 M176.575 528.253 L194.931 528.253 L194.931 532.189 L180.857 532.189 L180.857 540.661 Q181.876 540.313 182.894 540.151 Q183.913 539.966 184.931 539.966 Q190.718 539.966 194.098 543.138 Q197.478 546.309 197.478 551.725 Q197.478 557.304 194.005 560.406 Q190.533 563.485 184.214 563.485 Q182.038 563.485 179.769 563.114 Q177.524 562.744 175.117 562.003 L175.117 557.304 Q177.2 558.438 179.422 558.994 Q181.644 559.55 184.121 559.55 Q188.126 559.55 190.464 557.443 Q192.802 555.337 192.802 551.725 Q192.802 548.114 190.464 546.008 Q188.126 543.901 184.121 543.901 Q182.246 543.901 180.371 544.318 Q178.519 544.735 176.575 545.614 L176.575 528.253 Z" fill="#000000" fill-rule="evenodd" fill-opacity="1" /><path clip-path="url(#clip8300)" d="M 0 0 M598.308 12.096 L606.491 12.096 L606.491 36.8875 L636.225 36.8875 L636.225 12.096 L644.408 12.096 L644.408 72.576 L636.225 72.576 L636.225 43.7741 L606.491 43.7741 L606.491 72.576 L598.308 72.576 L598.308 12.096 Z" fill="#000000" fill-rule="evenodd" fill-opacity="1" /><path clip-path="url(#clip8300)" d="M 0 0 M669.807 32.4315 Q663.812 32.4315 660.328 37.1306 Q656.844 41.7891 656.844 49.9314 Q656.844 58.0738 660.287 62.7728 Q663.771 67.4314 669.807 67.4314 Q675.762 67.4314 679.246 62.7323 Q682.729 58.0333 682.729 49.9314 Q682.729 41.8701 679.246 37.1711 Q675.762 32.4315 669.807 32.4315 M669.807 26.1121 Q679.529 26.1121 685.079 32.4315 Q690.629 38.7509 690.629 49.9314 Q690.629 61.0714 685.079 67.4314 Q679.529 73.7508 669.807 73.7508 Q660.044 73.7508 654.495 67.4314 Q648.985 61.0714 648.985 49.9314 Q648.985 38.7509 654.495 32.4315 Q660.044 26.1121 669.807 26.1121 Z" fill="#000000" fill-rule="evenodd" fill-opacity="1" /><path clip-path="url(#clip8300)" d="M 0 0 M693.1 27.2059 L700.999 27.2059 L715.177 65.2844 L729.355 27.2059 L737.255 27.2059 L720.241 72.576 L710.113 72.576 L693.1 27.2059 Z" fill="#000000" fill-rule="evenodd" fill-opacity="1" /><path clip-path="url(#clip8300)" d="M 0 0 M783.88 48.0275 L783.88 51.6733 L749.61 51.6733 Q750.096 59.3701 754.228 63.421 Q758.4 67.4314 765.813 67.4314 Q770.107 67.4314 774.118 66.3781 Q778.169 65.3249 782.139 63.2184 L782.139 70.267 Q778.128 71.9684 773.915 72.8596 Q769.702 73.7508 765.368 73.7508 Q754.511 73.7508 748.151 67.4314 Q741.832 61.1119 741.832 50.3365 Q741.832 39.1965 747.827 32.6746 Q753.863 26.1121 764.071 26.1121 Q773.227 26.1121 778.533 32.0264 Q783.88 37.9003 783.88 48.0275 M776.427 45.84 Q776.346 39.7232 772.983 36.0774 Q769.662 32.4315 764.153 32.4315 Q757.914 32.4315 754.147 35.9558 Q750.42 39.4801 749.853 45.8805 L776.427 45.84 Z" fill="#000000" fill-rule="evenodd" fill-opacity="1" /><path clip-path="url(#clip8300)" d="M 0 0 M817.989 34.1734 Q816.733 33.4443 815.234 33.1202 Q813.776 32.7556 811.994 32.7556 Q805.674 32.7556 802.272 36.8875 Q798.909 40.9789 798.909 48.6757 L798.909 72.576 L791.415 72.576 L791.415 27.2059 L798.909 27.2059 L798.909 34.2544 Q801.259 30.1225 805.026 28.1376 Q808.793 26.1121 814.181 26.1121 Q814.951 26.1121 815.883 26.2337 Q816.814 26.3147 817.949 26.5172 L817.989 34.1734 Z" fill="#000000" fill-rule="evenodd" fill-opacity="1" /><path clip-path="url(#clip8300)" d="M 0 0 M825.807 27.2059 L833.261 27.2059 L833.261 72.576 L825.807 72.576 L825.807 27.2059 M825.807 9.54393 L833.261 9.54393 L833.261 18.9825 L825.807 18.9825 L825.807 9.54393 Z" fill="#000000" fill-rule="evenodd" fill-opacity="1" /><path clip-path="url(#clip8300)" d="M 0 0 M878.793 45.1919 L878.793 72.576 L871.339 72.576 L871.339 45.4349 Q871.339 38.994 868.828 35.7938 Q866.316 32.5936 861.293 32.5936 Q855.257 32.5936 851.774 36.4419 Q848.29 40.2903 848.29 46.9338 L848.29 72.576 L840.796 72.576 L840.796 27.2059 L848.29 27.2059 L848.29 34.2544 Q850.963 30.163 854.569 28.1376 Q858.215 26.1121 862.954 26.1121 Q870.772 26.1121 874.783 30.9732 Q878.793 35.7938 878.793 45.1919 Z" fill="#000000" fill-rule="evenodd" fill-opacity="1" /><path clip-path="url(#clip8300)" d="M 0 0 M916.467 49.3643 Q916.467 41.2625 913.104 36.8065 Q909.783 32.3505 903.747 32.3505 Q897.751 32.3505 894.389 36.8065 Q891.067 41.2625 891.067 49.3643 Q891.067 57.4256 894.389 61.8816 Q897.751 66.3376 903.747 66.3376 Q909.783 66.3376 913.104 61.8816 Q916.467 57.4256 916.467 49.3643 M923.92 66.9452 Q923.92 78.5308 918.776 84.1616 Q913.631 89.8329 903.018 89.8329 Q899.088 89.8329 895.604 89.2252 Q892.121 88.6581 888.839 87.4428 L888.839 80.1917 Q892.121 81.9741 895.321 82.8248 Q898.521 83.6755 901.843 83.6755 Q909.175 83.6755 912.821 79.8271 Q916.467 76.0193 916.467 68.282 L916.467 64.5957 Q914.157 68.6061 910.552 70.5911 Q906.947 72.576 901.924 72.576 Q893.579 72.576 888.475 66.2161 Q883.371 59.8562 883.371 49.3643 Q883.371 38.832 888.475 32.472 Q893.579 26.1121 901.924 26.1121 Q906.947 26.1121 910.552 28.0971 Q914.157 30.082 916.467 34.0924 L916.467 27.2059 L923.92 27.2059 L923.92 66.9452 Z" fill="#000000" fill-rule="evenodd" fill-opacity="1" /><path clip-path="url(#clip8300)" d="M 0 0 M953.775 27.2059 L961.229 27.2059 L970.546 62.6108 L979.823 27.2059 L988.613 27.2059 L997.93 62.6108 L1007.21 27.2059 L1014.66 27.2059 L1002.79 72.576 L994.001 72.576 L984.238 35.3887 L974.435 72.576 L965.644 72.576 L953.775 27.2059 Z" fill="#000000" fill-rule="evenodd" fill-opacity="1" /><path clip-path="url(#clip8300)" d="M 0 0 M1022.48 27.2059 L1029.93 27.2059 L1029.93 72.576 L1022.48 72.576 L1022.48 27.2059 M1022.48 9.54393 L1029.93 9.54393 L1029.93 18.9825 L1022.48 18.9825 L1022.48 9.54393 Z" fill="#000000" fill-rule="evenodd" fill-opacity="1" /><path clip-path="url(#clip8300)" d="M 0 0 M1045.12 14.324 L1045.12 27.2059 L1060.48 27.2059 L1060.48 32.9987 L1045.12 32.9987 L1045.12 57.6282 Q1045.12 63.1779 1046.62 64.7578 Q1048.16 66.3376 1052.82 66.3376 L1060.48 66.3376 L1060.48 72.576 L1052.82 72.576 Q1044.19 72.576 1040.91 69.3758 Q1037.63 66.1351 1037.63 57.6282 L1037.63 32.9987 L1032.16 32.9987 L1032.16 27.2059 L1037.63 27.2059 L1037.63 14.324 L1045.12 14.324 Z" fill="#000000" fill-rule="evenodd" fill-opacity="1" /><path clip-path="url(#clip8300)" d="M 0 0 M1106.01 45.1919 L1106.01 72.576 L1098.55 72.576 L1098.55 45.4349 Q1098.55 38.994 1096.04 35.7938 Q1093.53 32.5936 1088.51 32.5936 Q1082.47 32.5936 1078.99 36.4419 Q1075.51 40.2903 1075.51 46.9338 L1075.51 72.576 L1068.01 72.576 L1068.01 9.54393 L1075.51 9.54393 L1075.51 34.2544 Q1078.18 30.163 1081.78 28.1376 Q1085.43 26.1121 1090.17 26.1121 Q1097.99 26.1121 1102 30.9732 Q1106.01 35.7938 1106.01 45.1919 Z" fill="#000000" fill-rule="evenodd" fill-opacity="1" /><path clip-path="url(#clip8300)" d="M 0 0 M1163.73 19.2256 L1143.07 51.5113 L1163.73 51.5113 L1163.73 19.2256 M1161.59 12.096 L1171.88 12.096 L1171.88 51.5113 L1180.5 51.5113 L1180.5 58.3168 L1171.88 58.3168 L1171.88 72.576 L1163.73 72.576 L1163.73 58.3168 L1136.43 58.3168 L1136.43 50.4176 L1161.59 12.096 Z" fill="#000000" fill-rule="evenodd" fill-opacity="1" /><path clip-path="url(#clip8300)" d="M 0 0 M1239.57 17.6457 Q1230.65 17.6457 1225.39 24.2892 Q1220.16 30.9327 1220.16 42.3968 Q1220.16 53.8203 1225.39 60.4638 Q1230.65 67.1073 1239.57 67.1073 Q1248.48 67.1073 1253.66 60.4638 Q1258.89 53.8203 1258.89 42.3968 Q1258.89 30.9327 1253.66 24.2892 Q1248.48 17.6457 1239.57 17.6457 M1251.03 71.4823 L1261.81 83.2704 L1251.92 83.2704 L1242.97 73.5887 Q1241.63 73.6697 1240.9 73.7103 Q1240.21 73.7508 1239.57 73.7508 Q1226.81 73.7508 1219.15 65.2439 Q1211.53 56.6965 1211.53 42.3968 Q1211.53 28.0566 1219.15 19.5497 Q1226.81 11.0023 1239.57 11.0023 Q1252.29 11.0023 1259.9 19.5497 Q1267.52 28.0566 1267.52 42.3968 Q1267.52 52.9291 1263.26 60.4233 Q1259.05 67.9175 1251.03 71.4823 Z" fill="#000000" fill-rule="evenodd" fill-opacity="1" /><path clip-path="url(#clip8300)" d="M 0 0 M1274.57 54.671 L1274.57 27.2059 L1282.02 27.2059 L1282.02 54.3874 Q1282.02 60.8284 1284.53 64.0691 Q1287.04 67.2693 1292.07 67.2693 Q1298.1 67.2693 1301.59 63.421 Q1305.11 59.5726 1305.11 52.9291 L1305.11 27.2059 L1312.56 27.2059 L1312.56 72.576 L1305.11 72.576 L1305.11 65.6084 Q1302.4 69.7404 1298.79 71.7658 Q1295.23 73.7508 1290.49 73.7508 Q1282.67 73.7508 1278.62 68.8897 Q1274.57 64.0286 1274.57 54.671 M1293.32 26.1121 L1293.32 26.1121 Z" fill="#000000" fill-rule="evenodd" fill-opacity="1" /><path clip-path="url(#clip8300)" d="M 0 0 M1341 49.7694 Q1331.97 49.7694 1328.48 51.8354 Q1325 53.9013 1325 58.8839 Q1325 62.8538 1327.59 65.2034 Q1330.23 67.5124 1334.72 67.5124 Q1340.92 67.5124 1344.65 63.1374 Q1348.41 58.7219 1348.41 51.4303 L1348.41 49.7694 L1341 49.7694 M1355.87 46.6907 L1355.87 72.576 L1348.41 72.576 L1348.41 65.6895 Q1345.86 69.8214 1342.05 71.8063 Q1338.25 73.7508 1332.74 73.7508 Q1325.77 73.7508 1321.64 69.8619 Q1317.55 65.9325 1317.55 59.3701 Q1317.55 51.7138 1322.65 47.825 Q1327.8 43.9361 1337.96 43.9361 L1348.41 43.9361 L1348.41 43.2069 Q1348.41 38.0623 1345.01 35.2672 Q1341.65 32.4315 1335.53 32.4315 Q1331.64 32.4315 1327.96 33.3632 Q1324.27 34.295 1320.87 36.1584 L1320.87 29.2718 Q1324.96 27.692 1328.81 26.9223 Q1332.66 26.1121 1336.3 26.1121 Q1346.15 26.1121 1351.01 31.2163 Q1355.87 36.3204 1355.87 46.6907 Z" fill="#000000" fill-rule="evenodd" fill-opacity="1" /><path clip-path="url(#clip8300)" d="M 0 0 M1393.54 34.0924 L1393.54 9.54393 L1401 9.54393 L1401 72.576 L1393.54 72.576 L1393.54 65.7705 Q1391.19 69.8214 1387.59 71.8063 Q1384.02 73.7508 1379 73.7508 Q1370.78 73.7508 1365.59 67.1883 Q1360.45 60.6258 1360.45 49.9314 Q1360.45 39.2371 1365.59 32.6746 Q1370.78 26.1121 1379 26.1121 Q1384.02 26.1121 1387.59 28.0971 Q1391.19 30.0415 1393.54 34.0924 M1368.14 49.9314 Q1368.14 58.1548 1371.5 62.8538 Q1374.91 67.5124 1380.82 67.5124 Q1386.74 67.5124 1390.14 62.8538 Q1393.54 58.1548 1393.54 49.9314 Q1393.54 41.7081 1390.14 37.0496 Q1386.74 32.3505 1380.82 32.3505 Q1374.91 32.3505 1371.5 37.0496 Q1368.14 41.7081 1368.14 49.9314 Z" fill="#000000" fill-rule="evenodd" fill-opacity="1" /><path clip-path="url(#clip8300)" d="M 0 0 M1435.1 34.1734 Q1433.85 33.4443 1432.35 33.1202 Q1430.89 32.7556 1429.11 32.7556 Q1422.79 32.7556 1419.39 36.8875 Q1416.02 40.9789 1416.02 48.6757 L1416.02 72.576 L1408.53 72.576 L1408.53 27.2059 L1416.02 27.2059 L1416.02 34.2544 Q1418.37 30.1225 1422.14 28.1376 Q1425.91 26.1121 1431.3 26.1121 Q1432.07 26.1121 1433 26.2337 Q1433.93 26.3147 1435.06 26.5172 L1435.1 34.1734 Z" fill="#000000" fill-rule="evenodd" fill-opacity="1" /><path clip-path="url(#clip8300)" d="M 0 0 M1458.68 32.4315 Q1452.68 32.4315 1449.2 37.1306 Q1445.72 41.7891 1445.72 49.9314 Q1445.72 58.0738 1449.16 62.7728 Q1452.64 67.4314 1458.68 67.4314 Q1464.63 67.4314 1468.12 62.7323 Q1471.6 58.0333 1471.6 49.9314 Q1471.6 41.8701 1468.12 37.1711 Q1464.63 32.4315 1458.68 32.4315 M1458.68 26.1121 Q1468.4 26.1121 1473.95 32.4315 Q1479.5 38.7509 1479.5 49.9314 Q1479.5 61.0714 1473.95 67.4314 Q1468.4 73.7508 1458.68 73.7508 Q1448.92 73.7508 1443.37 67.4314 Q1437.86 61.0714 1437.86 49.9314 Q1437.86 38.7509 1443.37 32.4315 Q1448.92 26.1121 1458.68 26.1121 Z" fill="#000000" fill-rule="evenodd" fill-opacity="1" /><path clip-path="url(#clip8300)" d="M 0 0 M1494.69 14.324 L1494.69 27.2059 L1510.05 27.2059 L1510.05 32.9987 L1494.69 32.9987 L1494.69 57.6282 Q1494.69 63.1779 1496.19 64.7578 Q1497.73 66.3376 1502.39 66.3376 L1510.05 66.3376 L1510.05 72.576 L1502.39 72.576 Q1493.76 72.576 1490.48 69.3758 Q1487.2 66.1351 1487.2 57.6282 L1487.2 32.9987 L1481.73 32.9987 L1481.73 27.2059 L1487.2 27.2059 L1487.2 14.324 L1494.69 14.324 Z" fill="#000000" fill-rule="evenodd" fill-opacity="1" /><path clip-path="url(#clip8300)" d="M 0 0 M1535.44 32.4315 Q1529.45 32.4315 1525.97 37.1306 Q1522.48 41.7891 1522.48 49.9314 Q1522.48 58.0738 1525.93 62.7728 Q1529.41 67.4314 1535.44 67.4314 Q1541.4 67.4314 1544.88 62.7323 Q1548.37 58.0333 1548.37 49.9314 Q1548.37 41.8701 1544.88 37.1711 Q1541.4 32.4315 1535.44 32.4315 M1535.44 26.1121 Q1545.17 26.1121 1550.72 32.4315 Q1556.27 38.7509 1556.27 49.9314 Q1556.27 61.0714 1550.72 67.4314 Q1545.17 73.7508 1535.44 73.7508 Q1525.68 73.7508 1520.13 67.4314 Q1514.62 61.0714 1514.62 49.9314 Q1514.62 38.7509 1520.13 32.4315 Q1525.68 26.1121 1535.44 26.1121 Z" fill="#000000" fill-rule="evenodd" fill-opacity="1" /><path clip-path="url(#clip8300)" d="M 0 0 M1590.37 34.1734 Q1589.12 33.4443 1587.62 33.1202 Q1586.16 32.7556 1584.38 32.7556 Q1578.06 32.7556 1574.66 36.8875 Q1571.3 40.9789 1571.3 48.6757 L1571.3 72.576 L1563.8 72.576 L1563.8 27.2059 L1571.3 27.2059 L1571.3 34.2544 Q1573.64 30.1225 1577.41 28.1376 Q1581.18 26.1121 1586.57 26.1121 Q1587.34 26.1121 1588.27 26.2337 Q1589.2 26.3147 1590.33 26.5172 L1590.37 34.1734 Z" fill="#000000" fill-rule="evenodd" fill-opacity="1" /><path clip-path="url(#clip8300)" d="M 0 0 M1627.12 28.5427 L1627.12 35.5912 Q1623.96 33.9709 1620.55 33.1607 Q1617.15 32.3505 1613.51 32.3505 Q1607.96 32.3505 1605.16 34.0519 Q1602.41 35.7533 1602.41 39.156 Q1602.41 41.7486 1604.39 43.2475 Q1606.38 44.7058 1612.37 46.0426 L1614.92 46.6097 Q1622.86 48.3111 1626.18 51.4303 Q1629.55 54.509 1629.55 60.0587 Q1629.55 66.3781 1624.52 70.0644 Q1619.54 73.7508 1610.79 73.7508 Q1607.15 73.7508 1603.18 73.0216 Q1599.25 72.3329 1594.87 70.9151 L1594.87 63.2184 Q1599 65.3654 1603.01 66.4591 Q1607.02 67.5124 1610.95 67.5124 Q1616.22 67.5124 1619.06 65.73 Q1621.89 63.9071 1621.89 60.6258 Q1621.89 57.5877 1619.83 55.9673 Q1617.8 54.3469 1610.87 52.8481 L1608.28 52.2405 Q1601.35 50.7821 1598.27 47.7845 Q1595.2 44.7463 1595.2 39.4801 Q1595.2 33.0797 1599.73 29.5959 Q1604.27 26.1121 1612.61 26.1121 Q1616.75 26.1121 1620.39 26.7198 Q1624.04 27.3274 1627.12 28.5427 Z" fill="#000000" fill-rule="evenodd" fill-opacity="1" /><path clip-path="url(#clip8300)" d="M 0 0 M1659.97 46.5287 L1681.8 46.5287 L1681.8 53.1722 L1659.97 53.1722 L1659.97 46.5287 Z" fill="#000000" fill-rule="evenodd" fill-opacity="1" /><path clip-path="url(#clip8300)" d="M 0 0 M1736.53 20.1573 L1725.43 50.2555 L1747.67 50.2555 L1736.53 20.1573 M1731.91 12.096 L1741.19 12.096 L1764.24 72.576 L1755.73 72.576 L1750.22 57.061 L1722.96 57.061 L1717.45 72.576 L1708.82 72.576 L1731.91 12.096 Z" fill="#000000" fill-rule="evenodd" fill-opacity="1" /><path clip-path="url(#clip8300)" d="M 0 0 M1801.91 49.3643 Q1801.91 41.2625 1798.55 36.8065 Q1795.23 32.3505 1789.19 32.3505 Q1783.2 32.3505 1779.84 36.8065 Q1776.51 41.2625 1776.51 49.3643 Q1776.51 57.4256 1779.84 61.8816 Q1783.2 66.3376 1789.19 66.3376 Q1795.23 66.3376 1798.55 61.8816 Q1801.91 57.4256 1801.91 49.3643 M1809.37 66.9452 Q1809.37 78.5308 1804.22 84.1616 Q1799.08 89.8329 1788.46 89.8329 Q1784.53 89.8329 1781.05 89.2252 Q1777.57 88.6581 1774.29 87.4428 L1774.29 80.1917 Q1777.57 81.9741 1780.77 82.8248 Q1783.97 83.6755 1787.29 83.6755 Q1794.62 83.6755 1798.27 79.8271 Q1801.91 76.0193 1801.91 68.282 L1801.91 64.5957 Q1799.6 68.6061 1796 70.5911 Q1792.39 72.576 1787.37 72.576 Q1779.03 72.576 1773.92 66.2161 Q1768.82 59.8562 1768.82 49.3643 Q1768.82 38.832 1773.92 32.472 Q1779.03 26.1121 1787.37 26.1121 Q1792.39 26.1121 1796 28.0971 Q1799.6 30.082 1801.91 34.0924 L1801.91 27.2059 L1809.37 27.2059 L1809.37 66.9452 Z" fill="#000000" fill-rule="evenodd" fill-opacity="1" /><path clip-path="url(#clip8300)" d="M 0 0 M1855.99 48.0275 L1855.99 51.6733 L1821.72 51.6733 Q1822.21 59.3701 1826.34 63.421 Q1830.51 67.4314 1837.93 67.4314 Q1842.22 67.4314 1846.23 66.3781 Q1850.28 65.3249 1854.25 63.2184 L1854.25 70.267 Q1850.24 71.9684 1846.03 72.8596 Q1841.81 73.7508 1837.48 73.7508 Q1826.62 73.7508 1820.26 67.4314 Q1813.94 61.1119 1813.94 50.3365 Q1813.94 39.1965 1819.94 32.6746 Q1825.98 26.1121 1836.18 26.1121 Q1845.34 26.1121 1850.65 32.0264 Q1855.99 37.9003 1855.99 48.0275 M1848.54 45.84 Q1848.46 39.7232 1845.1 36.0774 Q1841.77 32.4315 1836.26 32.4315 Q1830.03 32.4315 1826.26 35.9558 Q1822.53 39.4801 1821.97 45.8805 L1848.54 45.84 Z" fill="#000000" fill-rule="evenodd" fill-opacity="1" /><path clip-path="url(#clip8300)" d="M 0 0 M1901.52 45.1919 L1901.52 72.576 L1894.07 72.576 L1894.07 45.4349 Q1894.07 38.994 1891.56 35.7938 Q1889.05 32.5936 1884.02 32.5936 Q1877.99 32.5936 1874.51 36.4419 Q1871.02 40.2903 1871.02 46.9338 L1871.02 72.576 L1863.53 72.576 L1863.53 27.2059 L1871.02 27.2059 L1871.02 34.2544 Q1873.7 30.163 1877.3 28.1376 Q1880.95 26.1121 1885.69 26.1121 Q1893.5 26.1121 1897.51 30.9732 Q1901.52 35.7938 1901.52 45.1919 Z" fill="#000000" fill-rule="evenodd" fill-opacity="1" /><path clip-path="url(#clip8300)" d="M 0 0 M1916.72 14.324 L1916.72 27.2059 L1932.07 27.2059 L1932.07 32.9987 L1916.72 32.9987 L1916.72 57.6282 Q1916.72 63.1779 1918.21 64.7578 Q1919.75 66.3376 1924.41 66.3376 L1932.07 66.3376 L1932.07 72.576 L1924.41 72.576 Q1915.78 72.576 1912.5 69.3758 Q1909.22 66.1351 1909.22 57.6282 L1909.22 32.9987 L1903.75 32.9987 L1903.75 27.2059 L1909.22 27.2059 L1909.22 14.324 L1916.72 14.324 Z" fill="#000000" fill-rule="evenodd" fill-opacity="1" /><path clip-path="url(#clip8300)" d="M 0 0 M1982.18 72.576 L1959.09 12.096 L1967.64 12.096 L1986.8 63.0159 L2006 12.096 L2014.5 12.096 L1991.45 72.576 L1982.18 72.576 Z" fill="#000000" fill-rule="evenodd" fill-opacity="1" /><path clip-path="url(#clip8300)" d="M 0 0 M2054.69 48.0275 L2054.69 51.6733 L2020.42 51.6733 Q2020.91 59.3701 2025.04 63.421 Q2029.21 67.4314 2036.62 67.4314 Q2040.92 67.4314 2044.93 66.3781 Q2048.98 65.3249 2052.95 63.2184 L2052.95 70.267 Q2048.94 71.9684 2044.72 72.8596 Q2040.51 73.7508 2036.18 73.7508 Q2025.32 73.7508 2018.96 67.4314 Q2012.64 61.1119 2012.64 50.3365 Q2012.64 39.1965 2018.64 32.6746 Q2024.67 26.1121 2034.88 26.1121 Q2044.04 26.1121 2049.34 32.0264 Q2054.69 37.9003 2054.69 48.0275 M2047.24 45.84 Q2047.15 39.7232 2043.79 36.0774 Q2040.47 32.4315 2034.96 32.4315 Q2028.72 32.4315 2024.96 35.9558 Q2021.23 39.4801 2020.66 45.8805 L2047.24 45.84 Z" fill="#000000" fill-rule="evenodd" fill-opacity="1" /><path clip-path="url(#clip8300)" d="M 0 0 M2062.51 9.54393 L2069.96 9.54393 L2069.96 72.576 L2062.51 72.576 L2062.51 9.54393 Z" fill="#000000" fill-rule="evenodd" fill-opacity="1" /><path clip-path="url(#clip8300)" d="M 0 0 M2095.36 32.4315 Q2089.37 32.4315 2085.88 37.1306 Q2082.4 41.7891 2082.4 49.9314 Q2082.4 58.0738 2085.84 62.7728 Q2089.32 67.4314 2095.36 67.4314 Q2101.32 67.4314 2104.8 62.7323 Q2108.28 58.0333 2108.28 49.9314 Q2108.28 41.8701 2104.8 37.1711 Q2101.32 32.4315 2095.36 32.4315 M2095.36 26.1121 Q2105.08 26.1121 2110.63 32.4315 Q2116.18 38.7509 2116.18 49.9314 Q2116.18 61.0714 2110.63 67.4314 Q2105.08 73.7508 2095.36 73.7508 Q2085.6 73.7508 2080.05 67.4314 Q2074.54 61.0714 2074.54 49.9314 Q2074.54 38.7509 2080.05 32.4315 Q2085.6 26.1121 2095.36 26.1121 Z" fill="#000000" fill-rule="evenodd" fill-opacity="1" /><path clip-path="url(#clip8300)" d="M 0 0 M2156.65 28.9478 L2156.65 35.9153 Q2153.49 34.1734 2150.29 33.3227 Q2147.13 32.4315 2143.89 32.4315 Q2136.64 32.4315 2132.63 37.0496 Q2128.62 41.6271 2128.62 49.9314 Q2128.62 58.2358 2132.63 62.8538 Q2136.64 67.4314 2143.89 67.4314 Q2147.13 67.4314 2150.29 66.5807 Q2153.49 65.6895 2156.65 63.9476 L2156.65 70.8341 Q2153.53 72.2924 2150.17 73.0216 Q2146.85 73.7508 2143.08 73.7508 Q2132.83 73.7508 2126.8 67.3098 Q2120.76 60.8689 2120.76 49.9314 Q2120.76 38.832 2126.84 32.472 Q2132.95 26.1121 2143.57 26.1121 Q2147.01 26.1121 2150.29 26.8413 Q2153.57 27.5299 2156.65 28.9478 Z" fill="#000000" fill-rule="evenodd" fill-opacity="1" /><path clip-path="url(#clip8300)" d="M 0 0 M2164.47 27.2059 L2171.92 27.2059 L2171.92 72.576 L2164.47 72.576 L2164.47 27.2059 M2164.47 9.54393 L2171.92 9.54393 L2171.92 18.9825 L2164.47 18.9825 L2164.47 9.54393 Z" fill="#000000" fill-rule="evenodd" fill-opacity="1" /><path clip-path="url(#clip8300)" d="M 0 0 M2187.11 14.324 L2187.11 27.2059 L2202.47 27.2059 L2202.47 32.9987 L2187.11 32.9987 L2187.11 57.6282 Q2187.11 63.1779 2188.61 64.7578 Q2190.15 66.3376 2194.81 66.3376 L2202.47 66.3376 L2202.47 72.576 L2194.81 72.576 Q2186.18 72.576 2182.9 69.3758 Q2179.62 66.1351 2179.62 57.6282 L2179.62 32.9987 L2174.15 32.9987 L2174.15 27.2059 L2179.62 27.2059 L2179.62 14.324 L2187.11 14.324 Z" fill="#000000" fill-rule="evenodd" fill-opacity="1" /><path clip-path="url(#clip8300)" d="M 0 0 M2229.16 76.7889 Q2226 84.8907 2223 87.3618 Q2220.01 89.8329 2214.98 89.8329 L2209.03 89.8329 L2209.03 83.5945 L2213.4 83.5945 Q2216.48 83.5945 2218.18 82.1361 Q2219.89 80.6778 2221.95 75.2496 L2223.29 71.8468 L2204.94 27.2059 L2212.84 27.2059 L2227.02 62.6918 L2241.19 27.2059 L2249.09 27.2059 L2229.16 76.7889 Z" fill="#000000" fill-rule="evenodd" fill-opacity="1" /><path clip-path="url(#clip8300)" d="M 0 0 M1305.54 2298.26 L1345.74 2298.26 L1345.74 2303.67 L1328.87 2303.67 L1328.87 2345.78 L1322.41 2345.78 L1322.41 2303.67 L1305.54 2303.67 L1305.54 2298.26 Z" fill="#000000" fill-rule="evenodd" fill-opacity="1" /><path clip-path="url(#clip8300)" d="M 0 0 M1349.87 2310.14 L1355.73 2310.14 L1355.73 2345.78 L1349.87 2345.78 L1349.87 2310.14 M1349.87 2296.26 L1355.73 2296.26 L1355.73 2303.67 L1349.87 2303.67 L1349.87 2296.26 Z" fill="#000000" fill-rule="evenodd" fill-opacity="1" /><path clip-path="url(#clip8300)" d="M 0 0 M1389.63 2316.98 Q1391.82 2313.03 1394.88 2311.15 Q1397.94 2309.28 1402.07 2309.28 Q1407.64 2309.28 1410.67 2313.19 Q1413.69 2317.07 1413.69 2324.27 L1413.69 2345.78 L1407.8 2345.78 L1407.8 2324.46 Q1407.8 2319.33 1405.99 2316.85 Q1404.17 2314.37 1400.45 2314.37 Q1395.9 2314.37 1393.26 2317.39 Q1390.61 2320.42 1390.61 2325.64 L1390.61 2345.78 L1384.73 2345.78 L1384.73 2324.46 Q1384.73 2319.3 1382.91 2316.85 Q1381.1 2314.37 1377.31 2314.37 Q1372.82 2314.37 1370.18 2317.42 Q1367.54 2320.45 1367.54 2325.64 L1367.54 2345.78 L1361.65 2345.78 L1361.65 2310.14 L1367.54 2310.14 L1367.54 2315.67 Q1369.54 2312.4 1372.35 2310.84 Q1375.15 2309.28 1379 2309.28 Q1382.88 2309.28 1385.59 2311.25 Q1388.32 2313.22 1389.63 2316.98 Z" fill="#000000" fill-rule="evenodd" fill-opacity="1" /><path clip-path="url(#clip8300)" d="M 0 0 M1450.33 2326.5 L1450.33 2329.36 L1423.4 2329.36 Q1423.78 2335.41 1427.03 2338.59 Q1430.3 2341.74 1436.13 2341.74 Q1439.5 2341.74 1442.65 2340.91 Q1445.84 2340.09 1448.96 2338.43 L1448.96 2343.97 Q1445.81 2345.31 1442.5 2346.01 Q1439.19 2346.71 1435.78 2346.71 Q1427.25 2346.71 1422.25 2341.74 Q1417.29 2336.78 1417.29 2328.31 Q1417.29 2319.56 1422 2314.43 Q1426.74 2309.28 1434.76 2309.28 Q1441.95 2309.28 1446.12 2313.92 Q1450.33 2318.54 1450.33 2326.5 M1444.47 2324.78 Q1444.4 2319.97 1441.76 2317.11 Q1439.15 2314.24 1434.82 2314.24 Q1429.92 2314.24 1426.96 2317.01 Q1424.03 2319.78 1423.59 2324.81 L1444.47 2324.78 Z" fill="#000000" fill-rule="evenodd" fill-opacity="1" /><path clip-path="url(#clip8300)" d="M 0 0 M1491.26 2296.32 Q1486.99 2303.64 1484.92 2310.8 Q1482.85 2317.97 1482.85 2325.32 Q1482.85 2332.67 1484.92 2339.9 Q1487.02 2347.09 1491.26 2354.38 L1486.16 2354.38 Q1481.39 2346.9 1479 2339.67 Q1476.65 2332.45 1476.65 2325.32 Q1476.65 2318.22 1479 2311.03 Q1481.36 2303.83 1486.16 2296.32 L1491.26 2296.32 Z" fill="#000000" fill-rule="evenodd" fill-opacity="1" /><path clip-path="url(#clip8300)" d="M 0 0 M1520.13 2311.19 L1520.13 2316.72 Q1517.64 2315.45 1514.97 2314.81 Q1512.3 2314.18 1509.43 2314.18 Q1505.07 2314.18 1502.87 2315.51 Q1500.71 2316.85 1500.71 2319.53 Q1500.71 2321.56 1502.27 2322.74 Q1503.83 2323.89 1508.54 2324.94 L1510.54 2325.38 Q1516.78 2326.72 1519.39 2329.17 Q1522.03 2331.59 1522.03 2335.95 Q1522.03 2340.91 1518.09 2343.81 Q1514.17 2346.71 1507.3 2346.71 Q1504.43 2346.71 1501.31 2346.13 Q1498.23 2345.59 1494.79 2344.48 L1494.79 2338.43 Q1498.04 2340.12 1501.19 2340.98 Q1504.34 2341.81 1507.43 2341.81 Q1511.56 2341.81 1513.79 2340.4 Q1516.02 2338.97 1516.02 2336.39 Q1516.02 2334.01 1514.4 2332.73 Q1512.8 2331.46 1507.36 2330.28 L1505.32 2329.81 Q1499.88 2328.66 1497.46 2326.3 Q1495.04 2323.92 1495.04 2319.78 Q1495.04 2314.75 1498.61 2312.01 Q1502.17 2309.28 1508.73 2309.28 Q1511.98 2309.28 1514.84 2309.75 Q1517.71 2310.23 1520.13 2311.19 Z" fill="#000000" fill-rule="evenodd" fill-opacity="1" /><path clip-path="url(#clip8300)" d="M 0 0 M1527.25 2296.32 L1532.35 2296.32 Q1537.12 2303.83 1539.48 2311.03 Q1541.86 2318.22 1541.86 2325.32 Q1541.86 2332.45 1539.48 2339.67 Q1537.12 2346.9 1532.35 2354.38 L1527.25 2354.38 Q1531.49 2347.09 1533.56 2339.9 Q1535.66 2332.67 1535.66 2325.32 Q1535.66 2317.97 1533.56 2310.8 Q1531.49 2303.64 1527.25 2296.32 Z" fill="#000000" fill-rule="evenodd" fill-opacity="1" /><path clip-path="url(#clip8300)" d="M 0 0 M42.7847 1277.13 Q42.7847 1284.13 48.0045 1288.27 Q53.2244 1292.38 62.2319 1292.38 Q71.2075 1292.38 76.4274 1288.27 Q81.6473 1284.13 81.6473 1277.13 Q81.6473 1270.13 76.4274 1266.06 Q71.2075 1261.95 62.2319 1261.95 Q53.2244 1261.95 48.0045 1266.06 Q42.7847 1270.13 42.7847 1277.13 M85.0848 1268.12 L94.3469 1259.66 L94.3469 1267.42 L86.7399 1274.46 Q86.8035 1275.51 86.8354 1276.08 Q86.8672 1276.62 86.8672 1277.13 Q86.8672 1287.16 80.1832 1293.17 Q73.4674 1299.16 62.2319 1299.16 Q50.9646 1299.16 44.2806 1293.17 Q37.5648 1287.16 37.5648 1277.13 Q37.5648 1267.14 44.2806 1261.15 Q50.9646 1255.17 62.2319 1255.17 Q70.5073 1255.17 76.3956 1258.51 Q82.2839 1261.82 85.0848 1268.12 Z" fill="#000000" fill-rule="evenodd" fill-opacity="1" /><path clip-path="url(#clip8300)" d="M 0 0 M36.419 1274.46 L36.419 1268.6 L43.835 1268.6 L43.835 1274.46 L36.419 1274.46 M49.4368 1271.47 L49.4368 1271.47 Z" fill="#000000" fill-rule="evenodd" fill-opacity="1" /><path clip-path="url(#clip8300)" d="M 0 0 M82.3157 1260.07 L82.3157 1246.58 L85.9442 1246.58 L85.9442 1265.61 L82.443 1265.61 Q81.4563 1264.53 79.6739 1262.52 Q69.9662 1251.57 66.9744 1251.57 Q64.8737 1251.57 63.6005 1253.23 Q62.2956 1254.88 62.2956 1257.59 Q62.2956 1259.24 62.8685 1261.19 Q63.4096 1263.13 64.5236 1265.42 L60.6086 1265.42 Q59.7174 1262.97 59.2718 1260.87 Q58.8262 1258.74 58.8262 1256.92 Q58.8262 1252.31 60.9269 1249.54 Q63.0276 1246.77 66.4651 1246.77 Q70.8893 1246.77 79.9286 1257.3 Q81.4563 1259.09 82.3157 1260.07 Z" fill="#000000" fill-rule="evenodd" fill-opacity="1" /><path clip-path="url(#clip8300)" d="M 0 0 M36.4826 1205.65 Q43.8032 1209.91 50.9646 1211.98 Q58.126 1214.05 65.4784 1214.05 Q72.8308 1214.05 80.0559 1211.98 Q87.2491 1209.88 94.5379 1205.65 L94.5379 1210.74 Q87.0582 1215.51 79.8331 1217.9 Q72.608 1220.25 65.4784 1220.25 Q58.3806 1220.25 51.1874 1217.9 Q43.9942 1215.54 36.4826 1210.74 L36.4826 1205.65 Z" fill="#000000" fill-rule="evenodd" fill-opacity="1" /><path clip-path="url(#clip8300)" d="M 0 0 M55.7707 1178.85 Q55.1978 1179.83 54.9432 1181.01 Q54.6567 1182.16 54.6567 1183.56 Q54.6567 1188.52 57.9032 1191.19 Q61.1179 1193.84 67.1653 1193.84 L85.9442 1193.84 L85.9442 1199.72 L50.2962 1199.72 L50.2962 1193.84 L55.8344 1193.84 Q52.5879 1191.99 51.0283 1189.03 Q49.4368 1186.07 49.4368 1181.84 Q49.4368 1181.23 49.5323 1180.5 Q49.596 1179.77 49.7551 1178.88 L55.7707 1178.85 Z" fill="#000000" fill-rule="evenodd" fill-opacity="1" /><path clip-path="url(#clip8300)" d="M 0 0 M68.0247 1156.5 Q68.0247 1163.6 69.6479 1166.34 Q71.2712 1169.07 75.1861 1169.07 Q78.3053 1169.07 80.1514 1167.04 Q81.9656 1164.97 81.9656 1161.44 Q81.9656 1156.57 78.5281 1153.64 Q75.0588 1150.68 69.3297 1150.68 L68.0247 1150.68 L68.0247 1156.5 M65.6057 1144.82 L85.9442 1144.82 L85.9442 1150.68 L80.5333 1150.68 Q83.7798 1152.68 85.3394 1155.67 Q86.8672 1158.67 86.8672 1162.99 Q86.8672 1168.47 83.8116 1171.72 Q80.7243 1174.93 75.5681 1174.93 Q69.5525 1174.93 66.4969 1170.92 Q63.4414 1166.88 63.4414 1158.89 L63.4414 1150.68 L62.8685 1150.68 Q58.8262 1150.68 56.6301 1153.35 Q54.4021 1155.99 54.4021 1160.8 Q54.4021 1163.85 55.1341 1166.75 Q55.8662 1169.65 57.3303 1172.32 L51.9195 1172.32 Q50.6781 1169.11 50.0734 1166.08 Q49.4368 1163.06 49.4368 1160.19 Q49.4368 1152.46 53.4472 1148.64 Q57.4576 1144.82 65.6057 1144.82 Z" fill="#000000" fill-rule="evenodd" fill-opacity="1" /><path clip-path="url(#clip8300)" d="M 0 0 M55.7071 1115.22 L36.419 1115.22 L36.419 1109.36 L85.9442 1109.36 L85.9442 1115.22 L80.597 1115.22 Q83.7798 1117.07 85.3394 1119.9 Q86.8672 1122.7 86.8672 1126.65 Q86.8672 1133.11 81.711 1137.18 Q76.5547 1141.22 68.152 1141.22 Q59.7493 1141.22 54.5931 1137.18 Q49.4368 1133.11 49.4368 1126.65 Q49.4368 1122.7 50.9964 1119.9 Q52.5242 1117.07 55.7071 1115.22 M68.152 1135.18 Q74.6132 1135.18 78.3053 1132.53 Q81.9656 1129.86 81.9656 1125.21 Q81.9656 1120.57 78.3053 1117.89 Q74.6132 1115.22 68.152 1115.22 Q61.6908 1115.22 58.0305 1117.89 Q54.3384 1120.57 54.3384 1125.21 Q54.3384 1129.86 58.0305 1132.53 Q61.6908 1135.18 68.152 1135.18 Z" fill="#000000" fill-rule="evenodd" fill-opacity="1" /><path clip-path="url(#clip8300)" d="M 0 0 M38.4242 1092.81 L38.4242 1087.4 L91.9916 1103.95 L91.9916 1109.36 L38.4242 1092.81 Z" fill="#000000" fill-rule="evenodd" fill-opacity="1" /><path clip-path="url(#clip8300)" d="M 0 0 M51.3465 1058.53 L56.8847 1058.53 Q55.6116 1061.02 54.975 1063.69 Q54.3384 1066.36 54.3384 1069.23 Q54.3384 1073.59 55.6752 1075.78 Q57.012 1077.95 59.6856 1077.95 Q61.7226 1077.95 62.9003 1076.39 Q64.0461 1074.83 65.0965 1070.12 L65.5421 1068.11 Q66.8789 1061.88 69.3297 1059.27 Q71.7486 1056.62 76.1091 1056.62 Q81.0744 1056.62 83.9708 1060.57 Q86.8672 1064.49 86.8672 1071.36 Q86.8672 1074.23 86.2943 1077.34 Q85.7532 1080.43 84.6392 1083.87 L78.5918 1083.87 Q80.2787 1080.62 81.138 1077.47 Q81.9656 1074.32 81.9656 1071.23 Q81.9656 1067.1 80.5651 1064.87 Q79.1329 1062.64 76.5547 1062.64 Q74.1676 1062.64 72.8945 1064.26 Q71.6213 1065.85 70.4437 1071.3 L69.9662 1073.33 Q68.8204 1078.78 66.4651 1081.2 Q64.078 1083.61 59.9402 1083.61 Q54.9113 1083.61 52.1741 1080.05 Q49.4368 1076.48 49.4368 1069.93 Q49.4368 1066.68 49.9143 1063.82 Q50.3917 1060.95 51.3465 1058.53 Z" fill="#000000" fill-rule="evenodd" fill-opacity="1" /><path clip-path="url(#clip8300)" d="M 0 0 M36.4826 1051.4 L36.4826 1046.31 Q43.9942 1041.54 51.1874 1039.18 Q58.3806 1036.79 65.4784 1036.79 Q72.608 1036.79 79.8331 1039.18 Q87.0582 1041.54 94.5379 1046.31 L94.5379 1051.4 Q87.2491 1047.17 80.0559 1045.1 Q72.8308 1043 65.4784 1043 Q58.126 1043 50.9646 1045.1 Q43.8032 1047.17 36.4826 1051.4 Z" fill="#000000" fill-rule="evenodd" fill-opacity="1" /><polyline clip-path="url(#clip8302)" style="stroke:#009af9; stroke-width:16; stroke-opacity:1; fill:none" points="
  297.075,1091.55 308.341,844.1 319.608,843.117 330.874,790.058 342.14,758.252 353.406,778.826 364.673,840.944 375.939,920.455 387.205,995.151 398.471,1054.83 
  409.738,1099.01 421.004,1130.32 432.27,1152.61 443.536,1168.21 454.803,1179.29 466.069,1186.89 477.335,1192.04 488.601,1195.28 499.868,1197.09 511.134,1197.8 
  522.4,1197.67 533.666,1196.89 544.933,1195.63 556.199,1193.95 567.465,1191.99 578.731,1189.7 589.998,1187.24 601.264,1184.46 612.53,1181.59 623.796,1178.38 
  635.063,1175.15 646.329,1171.57 657.595,1168.07 668.861,1164.22 680.128,1160.54 691.394,1156.52 702.66,1152.8 713.926,1148.73 725.193,1145.06 736.459,1141.06 
  747.725,1137.54 758.992,1133.66 770.258,1130.35 781.524,1126.65 792.79,1123.58 804.057,1120.07 815.323,1117.25 826.589,1113.92 837.855,1111.34 849.122,1108.16 
  860.388,1105.78 871.654,1102.7 882.92,1100.5 894.187,1097.43 905.453,1095.35 916.719,1092.23 927.985,1090.22 939.252,1086.93 950.518,1084.95 961.784,1081.37 
  973.05,1079.36 984.317,1075.36 995.583,1073.24 1006.85,1068.63 1018.12,1066.31 1029.38,1060.84 1040.65,1058.05 1051.91,1087.51 1063.18,1052.36 1074.45,1055.54 
  1085.71,1057.22 1096.98,1060.42 1108.25,1062.24 1119.51,1065.23 1130.78,1067.04 1142.04,1069.74 1153.31,1071.48 1164.58,1073.87 1175.84,1075.5 1187.11,1077.58 
  1198.38,1079.06 1209.64,1080.85 1220.91,1082.17 1232.17,1083.68 1243.44,1084.84 1254.71,1086.1 1265.97,1087.08 1277.24,1088.11 1288.51,1088.93 1299.77,1089.75 
  1311.04,1090.41 1322.3,1091.04 1333.57,1091.54 1344.84,1092.01 1356.1,1092.38 1367.37,1092.69 1378.64,1092.94 1389.9,1093.12 1401.17,1093.25 1412.43,1093.33 
  1423.7,1093.36 1434.97,1093.34 1446.23,1093.29 1457.5,1093.2 1468.77,1093.07 1480.03,1092.91 1491.3,1092.73 1502.56,1092.51 1513.83,1092.28 1525.1,1092.03 
  1536.36,1091.77 1547.63,1091.48 1558.9,1091.19 1570.16,1090.89 1581.43,1090.59 1592.69,1090.28 1603.96,1089.97 1615.23,1089.65 1626.49,1089.35 1637.76,1089.04 
  1649.03,1088.74 1660.29,1088.45 1671.56,1088.17 1682.82,1087.9 1694.09,1087.64 1705.36,1087.39 1716.62,1087.16 1727.89,1086.94 1739.16,1086.73 1750.42,1086.55 
  1761.69,1086.38 1772.95,1086.23 1784.22,1086.09 1795.49,1085.98 1806.75,1085.88 1818.02,1085.8 1829.29,1085.75 1840.55,1085.71 1851.82,1085.69 1863.08,1085.7 
  1874.35,1085.72 1885.62,1085.76 1896.88,1085.82 1908.15,1085.9 1919.42,1086 1930.68,1086.11 1941.95,1086.25 1953.21,1086.4 1964.48,1086.57 1975.75,1086.75 
  1987.01,1086.96 1998.28,1087.17 2009.55,1087.4 2020.81,1087.64 2032.08,1087.91 2043.34,1088.17 2054.61,1088.46 2065.88,1088.74 2077.14,1089.05 2088.41,1089.36 
  2099.68,1089.69 2110.94,1090.01 2122.21,1090.35 2133.47,1090.68 2144.74,1091.03 2156.01,1091.37 2167.27,1091.73 2178.54,1092.07 2189.81,1092.43 2201.07,1092.76 
  2212.34,1093.13 2223.6,1093.45 2234.87,1093.81 2246.14,1094.11 2257.4,1094.46 2268.67,1094.74 2279.94,1095.07 2291.2,1095.32 2302.47,1095.62 2313.73,1095.84 
  2325,1096.1 2336.27,1096.27 2347.53,1096.48 2358.8,1096.61 2370.07,1096.75 2381.33,1096.82 2392.6,1096.88 2403.86,1096.9 2415.13,1096.85 2426.4,1096.8 
  2437.66,1096.62 2448.93,1096.52 2460.2,1096.16 2471.46,1096.01 2482.73,1095.44 2493.99,1095.26 2505.26,1094.43 2516.53,1094.25 2527.79,1093.11 2539.06,1092.99 
  2550.33,1091.55 
  "/>
<polyline clip-path="url(#clip8302)" style="stroke:#e26f46; stroke-width:16; stroke-opacity:1; fill:none" points="
  297.075,1091.55 308.341,2146.22 319.608,1873.19 330.874,1230.75 342.14,835.048 353.406,794.265 364.673,841.443 375.939,920.474 387.205,971.969 398.471,1017.11 
  409.738,1041.15 421.004,1062.48 432.27,1073.39 443.536,1083.8 454.803,1089.37 466.069,1094.74 477.335,1097.95 488.601,1100.81 499.868,1102.8 511.134,1104.3 
  522.4,1105.53 533.666,1106.24 544.933,1106.93 556.199,1107.14 567.465,1107.42 578.731,1107.29 589.998,1107.25 601.264,1106.87 612.53,1106.56 623.796,1105.98 
  635.063,1105.45 646.329,1104.72 657.595,1104.02 668.861,1103.16 680.128,1102.33 691.394,1101.37 702.66,1100.44 713.926,1099.41 725.193,1098.41 736.459,1097.32 
  747.725,1096.26 758.992,1095.14 770.258,1094.04 781.524,1092.88 792.79,1091.76 804.057,1090.57 815.323,1089.41 826.589,1088.18 837.855,1086.98 849.122,1085.7 
  860.388,1084.45 871.654,1083.1 882.92,1081.77 894.187,1080.33 905.453,1078.9 916.719,1077.34 927.985,1075.78 939.252,1074.06 950.518,1072.34 961.784,1070.41 
  973.05,1068.5 984.317,1066.32 995.583,1064.15 1006.85,1061.65 1018.12,1059.16 1029.38,1056.25 1040.65,1053.31 1051.91,1087.37 1063.18,1051.87 1074.45,1054.22 
  1085.71,1056.43 1096.98,1058.81 1108.25,1061.01 1119.51,1063.3 1130.78,1065.39 1142.04,1067.53 1153.31,1069.47 1164.58,1071.43 1175.84,1073.22 1187.11,1074.99 
  1198.38,1076.6 1209.64,1078.19 1220.91,1079.62 1232.17,1081.02 1243.44,1082.29 1254.71,1083.5 1265.97,1084.59 1277.24,1085.63 1288.51,1086.56 1299.77,1087.43 
  1311.04,1088.2 1322.3,1088.91 1333.57,1089.54 1344.84,1090.1 1356.1,1090.59 1367.37,1091.01 1378.64,1091.37 1389.9,1091.67 1401.17,1091.91 1412.43,1092.1 
  1423.7,1092.24 1434.97,1092.33 1446.23,1092.37 1457.5,1092.38 1468.77,1092.34 1480.03,1092.27 1491.3,1092.16 1502.56,1092.03 1513.83,1091.87 1525.1,1091.68 
  1536.36,1091.48 1547.63,1091.25 1558.9,1091.02 1570.16,1090.76 1581.43,1090.5 1592.69,1090.24 1603.96,1089.96 1615.23,1089.69 1626.49,1089.41 1637.76,1089.13 
  1649.03,1088.86 1660.29,1088.59 1671.56,1088.33 1682.82,1088.08 1694.09,1087.84 1705.36,1087.61 1716.62,1087.39 1727.89,1087.19 1739.16,1087 1750.42,1086.82 
  1761.69,1086.66 1772.95,1086.52 1784.22,1086.39 1795.49,1086.28 1806.75,1086.19 1818.02,1086.12 1829.29,1086.07 1840.55,1086.03 1851.82,1086.01 1863.08,1086.01 
  1874.35,1086.03 1885.62,1086.06 1896.88,1086.12 1908.15,1086.19 1919.42,1086.27 1930.68,1086.38 1941.95,1086.5 1953.21,1086.63 1964.48,1086.78 1975.75,1086.94 
  1987.01,1087.12 1998.28,1087.3 2009.55,1087.51 2020.81,1087.72 2032.08,1087.94 2043.34,1088.17 2054.61,1088.42 2065.88,1088.67 2077.14,1088.93 2088.41,1089.19 
  2099.68,1089.47 2110.94,1089.74 2122.21,1090.03 2133.47,1090.31 2144.74,1090.61 2156.01,1090.89 2167.27,1091.19 2178.54,1091.47 2189.81,1091.77 2201.07,1092.05 
  2212.34,1092.35 2223.6,1092.61 2234.87,1092.9 2246.14,1093.15 2257.4,1093.43 2268.67,1093.66 2279.94,1093.93 2291.2,1094.13 2302.47,1094.37 2313.73,1094.55 
  2325,1094.75 2336.27,1094.9 2347.53,1095.06 2358.8,1095.17 2370.07,1095.28 2381.33,1095.35 2392.6,1095.4 2403.86,1095.42 2415.13,1095.38 2426.4,1095.36 
  2437.66,1095.22 2448.93,1095.17 2460.2,1094.89 2471.46,1094.8 2482.73,1094.37 2493.99,1094.26 2505.26,1093.64 2516.53,1093.53 2527.79,1092.68 2539.06,1092.62 
  2550.33,1091.55 
  "/>
<polyline clip-path="url(#clip8302)" style="stroke:#3da44d; stroke-width:16; stroke-opacity:1; fill:none" points="
  297.075,1091.55 308.341,636.824 319.608,631.46 330.874,711.084 342.14,818.925 353.406,916.792 364.673,985.936 375.939,1031.77 387.205,1066.1 398.471,1094.66 
  409.738,1119.39 421.004,1139.9 432.27,1156.34 443.536,1168.9 454.803,1178.22 466.069,1184.83 477.335,1189.28 488.601,1192.02 499.868,1193.41 511.134,1193.75 
  522.4,1193.3 533.666,1192.2 544.933,1190.65 556.199,1188.69 567.465,1186.49 578.731,1183.98 589.998,1181.36 601.264,1178.43 612.53,1175.48 623.796,1172.21 
  635.063,1169 646.329,1165.46 657.595,1162.05 668.861,1158.32 680.128,1154.81 691.394,1150.98 702.66,1147.46 713.926,1143.62 725.193,1140.2 736.459,1136.44 
  747.725,1133.17 758.992,1129.55 770.258,1126.49 781.524,1123.04 792.79,1120.21 804.057,1116.95 815.323,1114.36 826.589,1111.27 837.855,1108.9 849.122,1105.95 
  860.388,1103.78 871.654,1100.9 882.92,1098.88 894.187,1096.02 905.453,1094.11 916.719,1091.18 927.985,1089.33 939.252,1086.21 950.518,1084.38 961.784,1080.96 
  973.05,1079.09 984.317,1075.23 995.583,1073.26 1006.85,1068.78 1018.12,1066.61 1029.38,1061.28 1040.65,1058.7 1051.91,1087.6 1063.18,1053.41 1074.45,1056.74 
  1085.71,1058.43 1096.98,1061.71 1108.25,1063.51 1119.51,1066.55 1130.78,1068.35 1142.04,1071.07 1153.31,1072.79 1164.58,1075.19 1175.84,1076.79 1187.11,1078.86 
  1198.38,1080.32 1209.64,1082.08 1220.91,1083.37 1232.17,1084.86 1243.44,1085.98 1254.71,1087.2 1265.97,1088.14 1277.24,1089.13 1288.51,1089.91 1299.77,1090.68 
  1311.04,1091.3 1322.3,1091.89 1333.57,1092.35 1344.84,1092.77 1356.1,1093.09 1367.37,1093.37 1378.64,1093.57 1389.9,1093.71 1401.17,1093.8 1412.43,1093.84 
  1423.7,1093.84 1434.97,1093.78 1446.23,1093.69 1457.5,1093.56 1468.77,1093.4 1480.03,1093.21 1491.3,1093 1502.56,1092.75 1513.83,1092.5 1525.1,1092.22 
  1536.36,1091.93 1547.63,1091.62 1558.9,1091.31 1570.16,1090.99 1581.43,1090.67 1592.69,1090.34 1603.96,1090.02 1615.23,1089.69 1626.49,1089.37 1637.76,1089.05 
  1649.03,1088.75 1660.29,1088.45 1671.56,1088.16 1682.82,1087.88 1694.09,1087.61 1705.36,1087.36 1716.62,1087.12 1727.89,1086.89 1739.16,1086.69 1750.42,1086.5 
  1761.69,1086.32 1772.95,1086.17 1784.22,1086.03 1795.49,1085.92 1806.75,1085.82 1818.02,1085.74 1829.29,1085.68 1840.55,1085.64 1851.82,1085.62 1863.08,1085.62 
  1874.35,1085.64 1885.62,1085.68 1896.88,1085.74 1908.15,1085.81 1919.42,1085.91 1930.68,1086.02 1941.95,1086.15 1953.21,1086.29 1964.48,1086.45 1975.75,1086.63 
  1987.01,1086.82 1998.28,1087.02 2009.55,1087.25 2020.81,1087.48 2032.08,1087.72 2043.34,1087.97 2054.61,1088.24 2065.88,1088.51 2077.14,1088.8 2088.41,1089.09 
  2099.68,1089.4 2110.94,1089.7 2122.21,1090.01 2133.47,1090.32 2144.74,1090.65 2156.01,1090.96 2167.27,1091.29 2178.54,1091.61 2189.81,1091.94 2201.07,1092.25 
  2212.34,1092.58 2223.6,1092.88 2234.87,1093.2 2246.14,1093.48 2257.4,1093.79 2268.67,1094.06 2279.94,1094.35 2291.2,1094.59 2302.47,1094.85 2313.73,1095.05 
  2325,1095.28 2336.27,1095.45 2347.53,1095.63 2358.8,1095.76 2370.07,1095.88 2381.33,1095.97 2392.6,1096.01 2403.86,1096.05 2415.13,1095.99 2426.4,1095.98 
  2437.66,1095.81 2448.93,1095.76 2460.2,1095.43 2471.46,1095.34 2482.73,1094.83 2493.99,1094.72 2505.26,1093.98 2516.53,1093.88 2527.79,1092.87 2539.06,1092.82 
  2550.33,1091.55 
  "/>
<polyline clip-path="url(#clip8302)" style="stroke:#c271d2; stroke-width:16; stroke-opacity:1; fill:none" points="
  297.075,1091.55 308.341,189.727 319.608,402.797 330.874,940.339 342.14,1229.7 353.406,1268.06 364.673,1258.6 375.939,1240.78 387.205,1234.82 398.471,1232.75 
  409.738,1232.45 421.004,1234.52 432.27,1233.34 443.536,1234.9 454.803,1231.4 466.069,1230.93 477.335,1224.92 488.601,1221.9 499.868,1213.68 511.134,1208.3 
  522.4,1198.64 533.666,1191.62 544.933,1181.5 556.199,1173.78 567.465,1164.11 578.731,1156.51 589.998,1147.85 601.264,1140.88 612.53,1133.43 623.796,1127.29 
  635.063,1121.01 646.329,1115.73 657.595,1110.49 668.861,1106.01 680.128,1101.66 691.394,1097.89 702.66,1094.3 713.926,1091.15 725.193,1088.2 736.459,1085.59 
  747.725,1083.17 758.992,1081.02 770.258,1079.04 781.524,1077.26 792.79,1075.65 804.057,1074.18 815.323,1072.85 826.589,1071.62 837.855,1070.5 849.122,1069.45 
  860.388,1068.48 871.654,1067.55 882.92,1066.67 894.187,1065.78 905.453,1064.93 916.719,1064.04 927.985,1063.16 939.252,1062.2 950.518,1061.25 961.784,1060.16 
  973.05,1059.08 984.317,1057.81 995.583,1056.54 1006.85,1055 1018.12,1053.47 1029.38,1051.57 1040.65,1049.61 1051.91,1087.09 1063.18,1048.9 1074.45,1051.41 
  1085.71,1053.76 1096.98,1056.39 1108.25,1058.75 1119.51,1061.29 1130.78,1063.55 1142.04,1065.91 1153.31,1068.02 1164.58,1070.18 1175.84,1072.11 1187.11,1074.07 
  1198.38,1075.81 1209.64,1077.56 1220.91,1079.12 1232.17,1080.65 1243.44,1082.02 1254.71,1083.36 1265.97,1084.55 1277.24,1085.68 1288.51,1086.7 1299.77,1087.65 
  1311.04,1088.5 1322.3,1089.27 1333.57,1089.96 1344.84,1090.58 1356.1,1091.11 1367.37,1091.58 1378.64,1091.98 1389.9,1092.32 1401.17,1092.59 1412.43,1092.8 
  1423.7,1092.96 1434.97,1093.07 1446.23,1093.12 1457.5,1093.13 1468.77,1093.11 1480.03,1093.04 1491.3,1092.93 1502.56,1092.8 1513.83,1092.63 1525.1,1092.44 
  1536.36,1092.23 1547.63,1091.99 1558.9,1091.74 1570.16,1091.48 1581.43,1091.21 1592.69,1090.92 1603.96,1090.63 1615.23,1090.34 1626.49,1090.05 1637.76,1089.75 
  1649.03,1089.46 1660.29,1089.18 1671.56,1088.9 1682.82,1088.63 1694.09,1088.36 1705.36,1088.11 1716.62,1087.88 1727.89,1087.65 1739.16,1087.44 1750.42,1087.25 
  1761.69,1087.07 1772.95,1086.91 1784.22,1086.77 1795.49,1086.64 1806.75,1086.53 1818.02,1086.44 1829.29,1086.37 1840.55,1086.32 1851.82,1086.29 1863.08,1086.27 
  1874.35,1086.27 1885.62,1086.3 1896.88,1086.33 1908.15,1086.39 1919.42,1086.46 1930.68,1086.55 1941.95,1086.66 1953.21,1086.78 1964.48,1086.91 1975.75,1087.06 
  1987.01,1087.23 1998.28,1087.4 2009.55,1087.6 2020.81,1087.79 2032.08,1088.01 2043.34,1088.23 2054.61,1088.46 2065.88,1088.7 2077.14,1088.95 2088.41,1089.2 
  2099.68,1089.47 2110.94,1089.73 2122.21,1090 2133.47,1090.27 2144.74,1090.56 2156.01,1090.82 2167.27,1091.12 2178.54,1091.38 2189.81,1091.68 2201.07,1091.94 
  2212.34,1092.23 2223.6,1092.48 2234.87,1092.76 2246.14,1093 2257.4,1093.27 2268.67,1093.49 2279.94,1093.74 2291.2,1093.94 2302.47,1094.16 2313.73,1094.33 
  2325,1094.53 2336.27,1094.67 2347.53,1094.83 2358.8,1094.93 2370.07,1095.04 2381.33,1095.1 2392.6,1095.15 2403.86,1095.17 2415.13,1095.14 2426.4,1095.12 
  2437.66,1094.99 2448.93,1094.94 2460.2,1094.68 2471.46,1094.6 2482.73,1094.2 2493.99,1094.1 2505.26,1093.51 2516.53,1093.41 2527.79,1092.61 2539.06,1092.56 
  2550.33,1091.55 
  "/>
<polyline clip-path="url(#clip8302)" style="stroke:#ac8d18; stroke-width:16; stroke-opacity:1; fill:none" points="
  297.075,1091.55 308.341,1136.81 319.608,1138.72 330.874,1104.97 342.14,1066.88 353.406,1045.22 364.673,1043.83 375.939,1054.83 387.205,1068.74 398.471,1080.36 
  409.738,1088.2 421.004,1092.85 432.27,1095.29 443.536,1096.36 454.803,1096.63 466.069,1096.43 477.335,1095.95 488.601,1095.33 499.868,1094.64 511.134,1093.95 
  522.4,1093.27 533.666,1092.65 544.933,1092.08 556.199,1091.6 567.465,1091.16 578.731,1090.83 589.998,1090.53 601.264,1090.32 612.53,1090.15 623.796,1090.05 
  635.063,1089.99 646.329,1089.98 657.595,1090 668.861,1090.06 680.128,1090.15 691.394,1090.26 702.66,1090.39 713.926,1090.54 725.193,1090.69 736.459,1090.86 
  747.725,1091.02 758.992,1091.18 770.258,1091.33 781.524,1091.48 792.79,1091.62 804.057,1091.75 815.323,1091.86 826.589,1091.97 837.855,1092.06 849.122,1092.15 
  860.388,1092.22 871.654,1092.28 882.92,1092.33 894.187,1092.37 905.453,1092.4 916.719,1092.43 927.985,1092.44 939.252,1092.45 950.518,1092.45 961.784,1092.46 
  973.05,1092.45 984.317,1092.46 995.583,1092.45 1006.85,1092.47 1018.12,1092.47 1029.38,1092.54 1040.65,1092.64 1051.91,1092.93 1063.18,1092.56 1074.45,1092.4 
  1085.71,1092.3 1096.98,1092.25 1108.25,1092.21 1119.51,1092.2 1130.78,1092.18 1142.04,1092.18 1153.31,1092.17 1164.58,1092.18 1175.84,1092.17 1187.11,1092.19 
  1198.38,1092.19 1209.64,1092.2 1220.91,1092.21 1232.17,1092.22 1243.44,1092.23 1254.71,1092.24 1265.97,1092.25 1277.24,1092.26 1288.51,1092.27 1299.77,1092.28 
  1311.04,1092.29 1322.3,1092.29 1333.57,1092.3 1344.84,1092.31 1356.1,1092.31 1367.37,1092.31 1378.64,1092.32 1389.9,1092.32 1401.17,1092.32 1412.43,1092.32 
  1423.7,1092.31 1434.97,1092.31 1446.23,1092.31 1457.5,1092.3 1468.77,1092.3 1480.03,1092.29 1491.3,1092.28 1502.56,1092.27 1513.83,1092.26 1525.1,1092.25 
  1536.36,1092.24 1547.63,1092.23 1558.9,1092.22 1570.16,1092.2 1581.43,1092.19 1592.69,1092.17 1603.96,1092.16 1615.23,1092.14 1626.49,1092.13 1637.76,1092.11 
  1649.03,1092.09 1660.29,1092.07 1671.56,1092.06 1682.82,1092.04 1694.09,1092.02 1705.36,1092 1716.62,1091.98 1727.89,1091.96 1739.16,1091.94 1750.42,1091.93 
  1761.69,1091.91 1772.95,1091.89 1784.22,1091.87 1795.49,1091.85 1806.75,1091.83 1818.02,1091.81 1829.29,1091.8 1840.55,1091.78 1851.82,1091.76 1863.08,1091.75 
  1874.35,1091.73 1885.62,1091.72 1896.88,1091.7 1908.15,1091.69 1919.42,1091.67 1930.68,1091.66 1941.95,1091.65 1953.21,1091.64 1964.48,1091.63 1975.75,1091.62 
  1987.01,1091.61 1998.28,1091.6 2009.55,1091.59 2020.81,1091.58 2032.08,1091.58 2043.34,1091.57 2054.61,1091.57 2065.88,1091.56 2077.14,1091.56 2088.41,1091.56 
  2099.68,1091.55 2110.94,1091.55 2122.21,1091.55 2133.47,1091.55 2144.74,1091.55 2156.01,1091.55 2167.27,1091.55 2178.54,1091.55 2189.81,1091.56 2201.07,1091.56 
  2212.34,1091.56 2223.6,1091.56 2234.87,1091.57 2246.14,1091.57 2257.4,1091.57 2268.67,1091.58 2279.94,1091.58 2291.2,1091.58 2302.47,1091.58 2313.73,1091.58 
  2325,1091.59 2336.27,1091.59 2347.53,1091.59 2358.8,1091.59 2370.07,1091.59 2381.33,1091.59 2392.6,1091.59 2403.86,1091.58 2415.13,1091.58 2426.4,1091.58 
  2437.66,1091.57 2448.93,1091.57 2460.2,1091.56 2471.46,1091.55 2482.73,1091.55 2493.99,1091.54 2505.26,1091.54 2516.53,1091.53 2527.79,1091.53 2539.06,1091.54 
  2550.33,1091.57 
  "/>
<path clip-path="url(#clip8300)" d="
M2713.92 625.432 L3184.76 625.432 L3184.76 262.552 L2713.92 262.552  Z
  " fill="#ffffff" fill-rule="evenodd" fill-opacity="1"/>
<polyline clip-path="url(#clip8300)" style="stroke:#000000; stroke-width:4; stroke-opacity:1; fill:none" points="
  2713.92,625.432 3184.76,625.432 3184.76,262.552 2713.92,262.552 2713.92,625.432 
  "/>
<polyline clip-path="url(#clip8300)" style="stroke:#009af9; stroke-width:16; stroke-opacity:1; fill:none" points="
  2745.92,323.032 2937.92,323.032 
  "/>
<path clip-path="url(#clip8300)" d="M 0 0 M2991.95 303.633 Q2984.95 303.633 2980.81 308.853 Q2976.7 314.072 2976.7 323.08 Q2976.7 332.056 2980.81 337.275 Q2984.95 342.495 2991.95 342.495 Q2998.95 342.495 3003.03 337.275 Q3007.13 332.056 3007.13 323.08 Q3007.13 314.072 3003.03 308.853 Q2998.95 303.633 2991.95 303.633 M3000.96 345.933 L3009.42 355.195 L3001.66 355.195 L2994.62 347.588 Q2993.57 347.651 2993 347.683 Q2992.46 347.715 2991.95 347.715 Q2981.92 347.715 2975.91 341.031 Q2969.92 334.315 2969.92 323.08 Q2969.92 311.813 2975.91 305.129 Q2981.92 298.413 2991.95 298.413 Q3001.94 298.413 3007.93 305.129 Q3013.91 311.813 3013.91 323.08 Q3013.91 331.355 3010.57 337.244 Q3007.26 343.132 3000.96 345.933 Z" fill="#000000" fill-rule="evenodd" fill-opacity="1" /><path clip-path="url(#clip8300)" d="M 0 0 M3019.45 332.724 L3019.45 311.144 L3025.31 311.144 L3025.31 332.501 Q3025.31 337.562 3027.28 340.108 Q3029.25 342.623 3033.2 342.623 Q3037.94 342.623 3040.68 339.599 Q3043.45 336.575 3043.45 331.355 L3043.45 311.144 L3049.3 311.144 L3049.3 346.792 L3043.45 346.792 L3043.45 341.318 Q3041.31 344.564 3038.48 346.156 Q3035.68 347.715 3031.96 347.715 Q3025.81 347.715 3022.63 343.896 Q3019.45 340.076 3019.45 332.724 M3034.19 310.285 L3034.19 310.285 Z" fill="#000000" fill-rule="evenodd" fill-opacity="1" /><path clip-path="url(#clip8300)" d="M 0 0 M3071.65 328.873 Q3064.55 328.873 3061.81 330.496 Q3059.08 332.119 3059.08 336.034 Q3059.08 339.153 3061.11 340.999 Q3063.18 342.814 3066.71 342.814 Q3071.58 342.814 3074.51 339.376 Q3077.47 335.907 3077.47 330.178 L3077.47 328.873 L3071.65 328.873 M3083.33 326.454 L3083.33 346.792 L3077.47 346.792 L3077.47 341.381 Q3075.47 344.628 3072.47 346.187 Q3069.48 347.715 3065.15 347.715 Q3059.68 347.715 3056.43 344.66 Q3053.22 341.572 3053.22 336.416 Q3053.22 330.4 3057.23 327.345 Q3061.27 324.289 3069.26 324.289 L3077.47 324.289 L3077.47 323.716 Q3077.47 319.674 3074.8 317.478 Q3072.16 315.25 3067.35 315.25 Q3064.29 315.25 3061.4 315.982 Q3058.5 316.714 3055.83 318.178 L3055.83 312.767 Q3059.04 311.526 3062.07 310.921 Q3065.09 310.285 3067.96 310.285 Q3075.69 310.285 3079.51 314.295 Q3083.33 318.306 3083.33 326.454 Z" fill="#000000" fill-rule="evenodd" fill-opacity="1" /><path clip-path="url(#clip8300)" d="M 0 0 M3112.93 316.555 L3112.93 297.267 L3118.79 297.267 L3118.79 346.792 L3112.93 346.792 L3112.93 341.445 Q3111.08 344.628 3108.25 346.187 Q3105.45 347.715 3101.5 347.715 Q3095.04 347.715 3090.97 342.559 Q3086.93 337.403 3086.93 329 Q3086.93 320.597 3090.97 315.441 Q3095.04 310.285 3101.5 310.285 Q3105.45 310.285 3108.25 311.844 Q3111.08 313.372 3112.93 316.555 M3092.97 329 Q3092.97 335.461 3095.61 339.153 Q3098.29 342.814 3102.93 342.814 Q3107.58 342.814 3110.26 339.153 Q3112.93 335.461 3112.93 329 Q3112.93 322.539 3110.26 318.879 Q3107.58 315.186 3102.93 315.186 Q3098.29 315.186 3095.61 318.879 Q3092.97 322.539 3092.97 329 Z" fill="#000000" fill-rule="evenodd" fill-opacity="1" /><path clip-path="url(#clip8300)" d="M 0 0 M3147.59 341.381 L3158.09 341.381 L3158.09 305.129 L3146.67 307.42 L3146.67 301.564 L3158.03 299.272 L3164.46 299.272 L3164.46 341.381 L3174.96 341.381 L3174.96 346.792 L3147.59 346.792 L3147.59 341.381 Z" fill="#000000" fill-rule="evenodd" fill-opacity="1" /><polyline clip-path="url(#clip8300)" style="stroke:#e26f46; stroke-width:16; stroke-opacity:1; fill:none" points="
  2745.92,383.512 2937.92,383.512 
  "/>
<path clip-path="url(#clip8300)" d="M 0 0 M2991.95 364.113 Q2984.95 364.113 2980.81 369.333 Q2976.7 374.552 2976.7 383.56 Q2976.7 392.536 2980.81 397.755 Q2984.95 402.975 2991.95 402.975 Q2998.95 402.975 3003.03 397.755 Q3007.13 392.536 3007.13 383.56 Q3007.13 374.552 3003.03 369.333 Q2998.95 364.113 2991.95 364.113 M3000.96 406.413 L3009.42 415.675 L3001.66 415.675 L2994.62 408.068 Q2993.57 408.131 2993 408.163 Q2992.46 408.195 2991.95 408.195 Q2981.92 408.195 2975.91 401.511 Q2969.92 394.795 2969.92 383.56 Q2969.92 372.293 2975.91 365.609 Q2981.92 358.893 2991.95 358.893 Q3001.94 358.893 3007.93 365.609 Q3013.91 372.293 3013.91 383.56 Q3013.91 391.835 3010.57 397.724 Q3007.26 403.612 3000.96 406.413 Z" fill="#000000" fill-rule="evenodd" fill-opacity="1" /><path clip-path="url(#clip8300)" d="M 0 0 M3019.45 393.204 L3019.45 371.624 L3025.31 371.624 L3025.31 392.981 Q3025.31 398.042 3027.28 400.588 Q3029.25 403.103 3033.2 403.103 Q3037.94 403.103 3040.68 400.079 Q3043.45 397.055 3043.45 391.835 L3043.45 371.624 L3049.3 371.624 L3049.3 407.272 L3043.45 407.272 L3043.45 401.798 Q3041.31 405.044 3038.48 406.636 Q3035.68 408.195 3031.96 408.195 Q3025.81 408.195 3022.63 404.376 Q3019.45 400.556 3019.45 393.204 M3034.19 370.765 L3034.19 370.765 Z" fill="#000000" fill-rule="evenodd" fill-opacity="1" /><path clip-path="url(#clip8300)" d="M 0 0 M3071.65 389.353 Q3064.55 389.353 3061.81 390.976 Q3059.08 392.599 3059.08 396.514 Q3059.08 399.633 3061.11 401.479 Q3063.18 403.294 3066.71 403.294 Q3071.58 403.294 3074.51 399.856 Q3077.47 396.387 3077.47 390.658 L3077.47 389.353 L3071.65 389.353 M3083.33 386.934 L3083.33 407.272 L3077.47 407.272 L3077.47 401.861 Q3075.47 405.108 3072.47 406.667 Q3069.48 408.195 3065.15 408.195 Q3059.68 408.195 3056.43 405.14 Q3053.22 402.052 3053.22 396.896 Q3053.22 390.88 3057.23 387.825 Q3061.27 384.769 3069.26 384.769 L3077.47 384.769 L3077.47 384.196 Q3077.47 380.154 3074.8 377.958 Q3072.16 375.73 3067.35 375.73 Q3064.29 375.73 3061.4 376.462 Q3058.5 377.194 3055.83 378.658 L3055.83 373.247 Q3059.04 372.006 3062.07 371.401 Q3065.09 370.765 3067.96 370.765 Q3075.69 370.765 3079.51 374.775 Q3083.33 378.786 3083.33 386.934 Z" fill="#000000" fill-rule="evenodd" fill-opacity="1" /><path clip-path="url(#clip8300)" d="M 0 0 M3112.93 377.035 L3112.93 357.747 L3118.79 357.747 L3118.79 407.272 L3112.93 407.272 L3112.93 401.925 Q3111.08 405.108 3108.25 406.667 Q3105.45 408.195 3101.5 408.195 Q3095.04 408.195 3090.97 403.039 Q3086.93 397.883 3086.93 389.48 Q3086.93 381.077 3090.97 375.921 Q3095.04 370.765 3101.5 370.765 Q3105.45 370.765 3108.25 372.324 Q3111.08 373.852 3112.93 377.035 M3092.97 389.48 Q3092.97 395.941 3095.61 399.633 Q3098.29 403.294 3102.93 403.294 Q3107.58 403.294 3110.26 399.633 Q3112.93 395.941 3112.93 389.48 Q3112.93 383.019 3110.26 379.359 Q3107.58 375.666 3102.93 375.666 Q3098.29 375.666 3095.61 379.359 Q3092.97 383.019 3092.97 389.48 Z" fill="#000000" fill-rule="evenodd" fill-opacity="1" /><path clip-path="url(#clip8300)" d="M 0 0 M3152.01 401.861 L3174.45 401.861 L3174.45 407.272 L3144.28 407.272 L3144.28 401.861 Q3147.94 398.074 3154.24 391.708 Q3160.58 385.31 3162.2 383.464 Q3165.29 379.995 3166.5 377.608 Q3167.74 375.189 3167.74 372.865 Q3167.74 369.078 3165.06 366.691 Q3162.42 364.304 3158.16 364.304 Q3155.13 364.304 3151.76 365.354 Q3148.42 366.404 3144.6 368.537 L3144.6 362.044 Q3148.48 360.484 3151.86 359.688 Q3155.23 358.893 3158.03 358.893 Q3165.41 358.893 3169.81 362.585 Q3174.2 366.277 3174.2 372.452 Q3174.2 375.38 3173.08 378.022 Q3172 380.632 3169.11 384.196 Q3168.31 385.119 3164.05 389.544 Q3159.78 393.936 3152.01 401.861 Z" fill="#000000" fill-rule="evenodd" fill-opacity="1" /><polyline clip-path="url(#clip8300)" style="stroke:#3da44d; stroke-width:16; stroke-opacity:1; fill:none" points="
  2745.92,443.992 2937.92,443.992 
  "/>
<path clip-path="url(#clip8300)" d="M 0 0 M2991.95 424.593 Q2984.95 424.593 2980.81 429.813 Q2976.7 435.032 2976.7 444.04 Q2976.7 453.016 2980.81 458.235 Q2984.95 463.455 2991.95 463.455 Q2998.95 463.455 3003.03 458.235 Q3007.13 453.016 3007.13 444.04 Q3007.13 435.032 3003.03 429.813 Q2998.95 424.593 2991.95 424.593 M3000.96 466.893 L3009.42 476.155 L3001.66 476.155 L2994.62 468.548 Q2993.57 468.611 2993 468.643 Q2992.46 468.675 2991.95 468.675 Q2981.92 468.675 2975.91 461.991 Q2969.92 455.275 2969.92 444.04 Q2969.92 432.773 2975.91 426.089 Q2981.92 419.373 2991.95 419.373 Q3001.94 419.373 3007.93 426.089 Q3013.91 432.773 3013.91 444.04 Q3013.91 452.315 3010.57 458.204 Q3007.26 464.092 3000.96 466.893 Z" fill="#000000" fill-rule="evenodd" fill-opacity="1" /><path clip-path="url(#clip8300)" d="M 0 0 M3019.45 453.684 L3019.45 432.104 L3025.31 432.104 L3025.31 453.461 Q3025.31 458.522 3027.28 461.068 Q3029.25 463.583 3033.2 463.583 Q3037.94 463.583 3040.68 460.559 Q3043.45 457.535 3043.45 452.315 L3043.45 432.104 L3049.3 432.104 L3049.3 467.752 L3043.45 467.752 L3043.45 462.278 Q3041.31 465.524 3038.48 467.116 Q3035.68 468.675 3031.96 468.675 Q3025.81 468.675 3022.63 464.856 Q3019.45 461.036 3019.45 453.684 M3034.19 431.245 L3034.19 431.245 Z" fill="#000000" fill-rule="evenodd" fill-opacity="1" /><path clip-path="url(#clip8300)" d="M 0 0 M3071.65 449.833 Q3064.55 449.833 3061.81 451.456 Q3059.08 453.079 3059.08 456.994 Q3059.08 460.113 3061.11 461.959 Q3063.18 463.774 3066.71 463.774 Q3071.58 463.774 3074.51 460.336 Q3077.47 456.867 3077.47 451.138 L3077.47 449.833 L3071.65 449.833 M3083.33 447.414 L3083.33 467.752 L3077.47 467.752 L3077.47 462.341 Q3075.47 465.588 3072.47 467.147 Q3069.48 468.675 3065.15 468.675 Q3059.68 468.675 3056.43 465.62 Q3053.22 462.532 3053.22 457.376 Q3053.22 451.36 3057.23 448.305 Q3061.27 445.249 3069.26 445.249 L3077.47 445.249 L3077.47 444.676 Q3077.47 440.634 3074.8 438.438 Q3072.16 436.21 3067.35 436.21 Q3064.29 436.21 3061.4 436.942 Q3058.5 437.674 3055.83 439.138 L3055.83 433.727 Q3059.04 432.486 3062.07 431.881 Q3065.09 431.245 3067.96 431.245 Q3075.69 431.245 3079.51 435.255 Q3083.33 439.266 3083.33 447.414 Z" fill="#000000" fill-rule="evenodd" fill-opacity="1" /><path clip-path="url(#clip8300)" d="M 0 0 M3112.93 437.515 L3112.93 418.227 L3118.79 418.227 L3118.79 467.752 L3112.93 467.752 L3112.93 462.405 Q3111.08 465.588 3108.25 467.147 Q3105.45 468.675 3101.5 468.675 Q3095.04 468.675 3090.97 463.519 Q3086.93 458.363 3086.93 449.96 Q3086.93 441.557 3090.97 436.401 Q3095.04 431.245 3101.5 431.245 Q3105.45 431.245 3108.25 432.804 Q3111.08 434.332 3112.93 437.515 M3092.97 449.96 Q3092.97 456.421 3095.61 460.113 Q3098.29 463.774 3102.93 463.774 Q3107.58 463.774 3110.26 460.113 Q3112.93 456.421 3112.93 449.96 Q3112.93 443.499 3110.26 439.839 Q3107.58 436.146 3102.93 436.146 Q3098.29 436.146 3095.61 439.839 Q3092.97 443.499 3092.97 449.96 Z" fill="#000000" fill-rule="evenodd" fill-opacity="1" /><path clip-path="url(#clip8300)" d="M 0 0 M3165.96 442.13 Q3170.57 443.117 3173.15 446.236 Q3175.76 449.355 3175.76 453.939 Q3175.76 460.973 3170.92 464.824 Q3166.08 468.675 3157.17 468.675 Q3154.18 468.675 3151 468.07 Q3147.84 467.497 3144.47 466.32 L3144.47 460.113 Q3147.14 461.673 3150.33 462.469 Q3153.51 463.264 3156.98 463.264 Q3163.03 463.264 3166.18 460.877 Q3169.36 458.49 3169.36 453.939 Q3169.36 449.737 3166.4 447.382 Q3163.47 444.995 3158.22 444.995 L3152.68 444.995 L3152.68 439.711 L3158.48 439.711 Q3163.22 439.711 3165.73 437.833 Q3168.25 435.924 3168.25 432.359 Q3168.25 428.699 3165.64 426.757 Q3163.06 424.784 3158.22 424.784 Q3155.58 424.784 3152.56 425.357 Q3149.53 425.929 3145.9 427.139 L3145.9 421.41 Q3149.56 420.391 3152.75 419.882 Q3155.96 419.373 3158.79 419.373 Q3166.11 419.373 3170.38 422.715 Q3174.64 426.025 3174.64 431.69 Q3174.64 435.637 3172.38 438.374 Q3170.12 441.08 3165.96 442.13 Z" fill="#000000" fill-rule="evenodd" fill-opacity="1" /><polyline clip-path="url(#clip8300)" style="stroke:#c271d2; stroke-width:16; stroke-opacity:1; fill:none" points="
  2745.92,504.472 2937.92,504.472 
  "/>
<path clip-path="url(#clip8300)" d="M 0 0 M2991.95 485.073 Q2984.95 485.073 2980.81 490.293 Q2976.7 495.512 2976.7 504.52 Q2976.7 513.496 2980.81 518.715 Q2984.95 523.935 2991.95 523.935 Q2998.95 523.935 3003.03 518.715 Q3007.13 513.496 3007.13 504.52 Q3007.13 495.512 3003.03 490.293 Q2998.95 485.073 2991.95 485.073 M3000.96 527.373 L3009.42 536.635 L3001.66 536.635 L2994.62 529.028 Q2993.57 529.091 2993 529.123 Q2992.46 529.155 2991.95 529.155 Q2981.92 529.155 2975.91 522.471 Q2969.92 515.755 2969.92 504.52 Q2969.92 493.253 2975.91 486.569 Q2981.92 479.853 2991.95 479.853 Q3001.94 479.853 3007.93 486.569 Q3013.91 493.253 3013.91 504.52 Q3013.91 512.795 3010.57 518.684 Q3007.26 524.572 3000.96 527.373 Z" fill="#000000" fill-rule="evenodd" fill-opacity="1" /><path clip-path="url(#clip8300)" d="M 0 0 M3019.45 514.164 L3019.45 492.584 L3025.31 492.584 L3025.31 513.941 Q3025.31 519.002 3027.28 521.548 Q3029.25 524.063 3033.2 524.063 Q3037.94 524.063 3040.68 521.039 Q3043.45 518.015 3043.45 512.795 L3043.45 492.584 L3049.3 492.584 L3049.3 528.232 L3043.45 528.232 L3043.45 522.758 Q3041.31 526.004 3038.48 527.596 Q3035.68 529.155 3031.96 529.155 Q3025.81 529.155 3022.63 525.336 Q3019.45 521.516 3019.45 514.164 M3034.19 491.725 L3034.19 491.725 Z" fill="#000000" fill-rule="evenodd" fill-opacity="1" /><path clip-path="url(#clip8300)" d="M 0 0 M3071.65 510.313 Q3064.55 510.313 3061.81 511.936 Q3059.08 513.559 3059.08 517.474 Q3059.08 520.593 3061.11 522.439 Q3063.18 524.254 3066.71 524.254 Q3071.58 524.254 3074.51 520.816 Q3077.47 517.347 3077.47 511.618 L3077.47 510.313 L3071.65 510.313 M3083.33 507.894 L3083.33 528.232 L3077.47 528.232 L3077.47 522.821 Q3075.47 526.068 3072.47 527.627 Q3069.48 529.155 3065.15 529.155 Q3059.68 529.155 3056.43 526.1 Q3053.22 523.012 3053.22 517.856 Q3053.22 511.84 3057.23 508.785 Q3061.27 505.729 3069.26 505.729 L3077.47 505.729 L3077.47 505.156 Q3077.47 501.114 3074.8 498.918 Q3072.16 496.69 3067.35 496.69 Q3064.29 496.69 3061.4 497.422 Q3058.5 498.154 3055.83 499.618 L3055.83 494.207 Q3059.04 492.966 3062.07 492.361 Q3065.09 491.725 3067.96 491.725 Q3075.69 491.725 3079.51 495.735 Q3083.33 499.746 3083.33 507.894 Z" fill="#000000" fill-rule="evenodd" fill-opacity="1" /><path clip-path="url(#clip8300)" d="M 0 0 M3112.93 497.995 L3112.93 478.707 L3118.79 478.707 L3118.79 528.232 L3112.93 528.232 L3112.93 522.885 Q3111.08 526.068 3108.25 527.627 Q3105.45 529.155 3101.5 529.155 Q3095.04 529.155 3090.97 523.999 Q3086.93 518.843 3086.93 510.44 Q3086.93 502.037 3090.97 496.881 Q3095.04 491.725 3101.5 491.725 Q3105.45 491.725 3108.25 493.284 Q3111.08 494.812 3112.93 497.995 M3092.97 510.44 Q3092.97 516.901 3095.61 520.593 Q3098.29 524.254 3102.93 524.254 Q3107.58 524.254 3110.26 520.593 Q3112.93 516.901 3112.93 510.44 Q3112.93 503.979 3110.26 500.319 Q3107.58 496.626 3102.93 496.626 Q3098.29 496.626 3095.61 500.319 Q3092.97 503.979 3092.97 510.44 Z" fill="#000000" fill-rule="evenodd" fill-opacity="1" /><path clip-path="url(#clip8300)" d="M 0 0 M3164.14 486.314 L3147.91 511.681 L3164.14 511.681 L3164.14 486.314 M3162.45 480.712 L3170.54 480.712 L3170.54 511.681 L3177.32 511.681 L3177.32 517.028 L3170.54 517.028 L3170.54 528.232 L3164.14 528.232 L3164.14 517.028 L3142.69 517.028 L3142.69 510.822 L3162.45 480.712 Z" fill="#000000" fill-rule="evenodd" fill-opacity="1" /><polyline clip-path="url(#clip8300)" style="stroke:#ac8d18; stroke-width:16; stroke-opacity:1; fill:none" points="
  2745.92,564.952 2937.92,564.952 
  "/>
<path clip-path="url(#clip8300)" d="M 0 0 M2969.92 541.192 L2976.35 541.192 L2976.35 583.301 L2999.49 583.301 L2999.49 588.712 L2969.92 588.712 L2969.92 541.192 Z" fill="#000000" fill-rule="evenodd" fill-opacity="1" /><path clip-path="url(#clip8300)" d="M 0 0 M3018.3 557.17 Q3013.59 557.17 3010.85 560.862 Q3008.12 564.522 3008.12 570.92 Q3008.12 577.318 3010.82 581.01 Q3013.56 584.67 3018.3 584.67 Q3022.98 584.67 3025.72 580.978 Q3028.46 577.286 3028.46 570.92 Q3028.46 564.586 3025.72 560.894 Q3022.98 557.17 3018.3 557.17 M3018.3 552.205 Q3025.94 552.205 3030.3 557.17 Q3034.66 562.135 3034.66 570.92 Q3034.66 579.673 3030.3 584.67 Q3025.94 589.635 3018.3 589.635 Q3010.63 589.635 3006.27 584.67 Q3001.94 579.673 3001.94 570.92 Q3001.94 562.135 3006.27 557.17 Q3010.63 552.205 3018.3 552.205 Z" fill="#000000" fill-rule="evenodd" fill-opacity="1" /><path clip-path="url(#clip8300)" d="M 0 0 M3057.01 570.793 Q3049.91 570.793 3047.17 572.416 Q3044.43 574.039 3044.43 577.954 Q3044.43 581.073 3046.47 582.919 Q3048.54 584.734 3052.07 584.734 Q3056.94 584.734 3059.87 581.296 Q3062.83 577.827 3062.83 572.098 L3062.83 570.793 L3057.01 570.793 M3068.69 568.374 L3068.69 588.712 L3062.83 588.712 L3062.83 583.301 Q3060.83 586.548 3057.83 588.107 Q3054.84 589.635 3050.51 589.635 Q3045.04 589.635 3041.79 586.58 Q3038.58 583.492 3038.58 578.336 Q3038.58 572.32 3042.59 569.265 Q3046.63 566.209 3054.62 566.209 L3062.83 566.209 L3062.83 565.636 Q3062.83 561.594 3060.16 559.398 Q3057.52 557.17 3052.71 557.17 Q3049.65 557.17 3046.76 557.902 Q3043.86 558.634 3041.19 560.098 L3041.19 554.687 Q3044.4 553.446 3047.43 552.841 Q3050.45 552.205 3053.31 552.205 Q3061.05 552.205 3064.87 556.215 Q3068.69 560.226 3068.69 568.374 Z" fill="#000000" fill-rule="evenodd" fill-opacity="1" /><path clip-path="url(#clip8300)" d="M 0 0 M3098.29 558.475 L3098.29 539.187 L3104.14 539.187 L3104.14 588.712 L3098.29 588.712 L3098.29 583.365 Q3096.44 586.548 3093.61 588.107 Q3090.81 589.635 3086.86 589.635 Q3080.4 589.635 3076.33 584.479 Q3072.28 579.323 3072.28 570.92 Q3072.28 562.517 3076.33 557.361 Q3080.4 552.205 3086.86 552.205 Q3090.81 552.205 3093.61 553.764 Q3096.44 555.292 3098.29 558.475 M3078.33 570.92 Q3078.33 577.381 3080.97 581.073 Q3083.65 584.734 3088.29 584.734 Q3092.94 584.734 3095.61 581.073 Q3098.29 577.381 3098.29 570.92 Q3098.29 564.459 3095.61 560.799 Q3092.94 557.106 3088.29 557.106 Q3083.65 557.106 3080.97 560.799 Q3078.33 564.459 3078.33 570.92 Z" fill="#000000" fill-rule="evenodd" fill-opacity="1" /></svg>
