<?xml version="1.0" encoding="utf-8"?>
<svg xmlns="http://www.w3.org/2000/svg" xmlns:xlink="http://www.w3.org/1999/xlink" width="800" height="600" viewBox="0 0 3200 2400">
<defs>
  <clipPath id="clip1600">
    <rect x="0" y="0" width="3200" height="2400"/>
  </clipPath>
</defs>
<path clip-path="url(#clip1600)" d="
M0 2400 L3200 2400 L3200 0 L0 0  Z
  " fill="#ffffff" fill-rule="evenodd" fill-opacity="1"/>
<defs>
  <clipPath id="clip1601">
    <rect x="640" y="0" width="2241" height="2241"/>
  </clipPath>
</defs>
<path clip-path="url(#clip1600)" d="
M239.663 2204.92 L2617.92 2204.92 L2617.92 131.032 L239.663 131.032  Z
  " fill="#ffffff" fill-rule="evenodd" fill-opacity="1"/>
<defs>
  <clipPath id="clip1602">
    <rect x="239" y="131" width="2379" height="2075"/>
  </clipPath>
</defs>
<polyline clip-path="url(#clip1602)" style="stroke:#000000; stroke-width:2; stroke-opacity:0.1; fill:none" points="
  306.972,2204.92 306.972,131.032 
  "/>
<polyline clip-path="url(#clip1602)" style="stroke:#000000; stroke-width:2; stroke-opacity:0.1; fill:none" points="
  755.7,2204.92 755.7,131.032 
  "/>
<polyline clip-path="url(#clip1602)" style="stroke:#000000; stroke-width:2; stroke-opacity:0.1; fill:none" points="
  1204.43,2204.92 1204.43,131.032 
  "/>
<polyline clip-path="url(#clip1602)" style="stroke:#000000; stroke-width:2; stroke-opacity:0.1; fill:none" points="
  1653.16,2204.92 1653.16,131.032 
  "/>
<polyline clip-path="url(#clip1602)" style="stroke:#000000; stroke-width:2; stroke-opacity:0.1; fill:none" points="
  2101.89,2204.92 2101.89,131.032 
  "/>
<polyline clip-path="url(#clip1602)" style="stroke:#000000; stroke-width:2; stroke-opacity:0.1; fill:none" points="
  2550.61,2204.92 2550.61,131.032 
  "/>
<polyline clip-path="url(#clip1602)" style="stroke:#000000; stroke-width:2; stroke-opacity:0.1; fill:none" points="
  239.663,2109.32 2617.92,2109.32 
  "/>
<polyline clip-path="url(#clip1602)" style="stroke:#000000; stroke-width:2; stroke-opacity:0.1; fill:none" points="
  239.663,1681.78 2617.92,1681.78 
  "/>
<polyline clip-path="url(#clip1602)" style="stroke:#000000; stroke-width:2; stroke-opacity:0.1; fill:none" points="
  239.663,1254.24 2617.92,1254.24 
  "/>
<polyline clip-path="url(#clip1602)" style="stroke:#000000; stroke-width:2; stroke-opacity:0.1; fill:none" points="
  239.663,826.692 2617.92,826.692 
  "/>
<polyline clip-path="url(#clip1602)" style="stroke:#000000; stroke-width:2; stroke-opacity:0.1; fill:none" points="
  239.663,399.148 2617.92,399.148 
  "/>
<polyline clip-path="url(#clip1600)" style="stroke:#000000; stroke-width:4; stroke-opacity:1; fill:none" points="
  239.663,2204.92 2617.92,2204.92 
  "/>
<polyline clip-path="url(#clip1600)" style="stroke:#000000; stroke-width:4; stroke-opacity:1; fill:none" points="
  239.663,2204.92 239.663,131.032 
  "/>
<polyline clip-path="url(#clip1600)" style="stroke:#000000; stroke-width:4; stroke-opacity:1; fill:none" points="
  306.972,2204.92 306.972,2180.03 
  "/>
<polyline clip-path="url(#clip1600)" style="stroke:#000000; stroke-width:4; stroke-opacity:1; fill:none" points="
  755.7,2204.92 755.7,2180.03 
  "/>
<polyline clip-path="url(#clip1600)" style="stroke:#000000; stroke-width:4; stroke-opacity:1; fill:none" points="
  1204.43,2204.92 1204.43,2180.03 
  "/>
<polyline clip-path="url(#clip1600)" style="stroke:#000000; stroke-width:4; stroke-opacity:1; fill:none" points="
  1653.16,2204.92 1653.16,2180.03 
  "/>
<polyline clip-path="url(#clip1600)" style="stroke:#000000; stroke-width:4; stroke-opacity:1; fill:none" points="
  2101.89,2204.92 2101.89,2180.03 
  "/>
<polyline clip-path="url(#clip1600)" style="stroke:#000000; stroke-width:4; stroke-opacity:1; fill:none" points="
  2550.61,2204.92 2550.61,2180.03 
  "/>
<polyline clip-path="url(#clip1600)" style="stroke:#000000; stroke-width:4; stroke-opacity:1; fill:none" points="
  239.663,2109.32 268.202,2109.32 
  "/>
<polyline clip-path="url(#clip1600)" style="stroke:#000000; stroke-width:4; stroke-opacity:1; fill:none" points="
  239.663,1681.78 268.202,1681.78 
  "/>
<polyline clip-path="url(#clip1600)" style="stroke:#000000; stroke-width:4; stroke-opacity:1; fill:none" points="
  239.663,1254.24 268.202,1254.24 
  "/>
<polyline clip-path="url(#clip1600)" style="stroke:#000000; stroke-width:4; stroke-opacity:1; fill:none" points="
  239.663,826.692 268.202,826.692 
  "/>
<polyline clip-path="url(#clip1600)" style="stroke:#000000; stroke-width:4; stroke-opacity:1; fill:none" points="
  239.663,399.148 268.202,399.148 
  "/>
<path clip-path="url(#clip1600)" d="M 0 0 M306.972 2230.91 Q303.361 2230.91 301.532 2234.48 Q299.727 2238.02 299.727 2245.15 Q299.727 2252.25 301.532 2255.82 Q303.361 2259.36 306.972 2259.36 Q310.606 2259.36 312.412 2255.82 Q314.24 2252.25 314.24 2245.15 Q314.24 2238.02 312.412 2234.48 Q310.606 2230.91 306.972 2230.91 M306.972 2227.21 Q312.782 2227.21 315.838 2231.81 Q318.916 2236.4 318.916 2245.15 Q318.916 2253.87 315.838 2258.48 Q312.782 2263.06 306.972 2263.06 Q301.162 2263.06 298.083 2258.48 Q295.028 2253.87 295.028 2245.15 Q295.028 2236.4 298.083 2231.81 Q301.162 2227.21 306.972 2227.21 Z" fill="#000000" fill-rule="evenodd" fill-opacity="1" /><path clip-path="url(#clip1600)" d="M 0 0 M746.082 2258.46 L753.721 2258.46 L753.721 2232.09 L745.411 2233.76 L745.411 2229.5 L753.675 2227.83 L758.351 2227.83 L758.351 2258.46 L765.99 2258.46 L765.99 2262.39 L746.082 2262.39 L746.082 2258.46 Z" fill="#000000" fill-rule="evenodd" fill-opacity="1" /><path clip-path="url(#clip1600)" d="M 0 0 M1199.08 2258.46 L1215.4 2258.46 L1215.4 2262.39 L1193.46 2262.39 L1193.46 2258.46 Q1196.12 2255.7 1200.7 2251.07 Q1205.31 2246.42 1206.49 2245.08 Q1208.73 2242.55 1209.61 2240.82 Q1210.52 2239.06 1210.52 2237.37 Q1210.52 2234.61 1208.57 2232.88 Q1206.65 2231.14 1203.55 2231.14 Q1201.35 2231.14 1198.9 2231.91 Q1196.47 2232.67 1193.69 2234.22 L1193.69 2229.5 Q1196.51 2228.36 1198.97 2227.79 Q1201.42 2227.21 1203.46 2227.21 Q1208.83 2227.21 1212.02 2229.89 Q1215.22 2232.58 1215.22 2237.07 Q1215.22 2239.2 1214.41 2241.12 Q1213.62 2243.02 1211.51 2245.61 Q1210.93 2246.28 1207.83 2249.5 Q1204.73 2252.69 1199.08 2258.46 Z" fill="#000000" fill-rule="evenodd" fill-opacity="1" /><path clip-path="url(#clip1600)" d="M 0 0 M1657.4 2243.76 Q1660.76 2244.48 1662.64 2246.74 Q1664.53 2249.01 1664.53 2252.35 Q1664.53 2257.46 1661.02 2260.26 Q1657.5 2263.06 1651.02 2263.06 Q1648.84 2263.06 1646.53 2262.62 Q1644.23 2262.21 1641.78 2261.35 L1641.78 2256.84 Q1643.72 2257.97 1646.04 2258.55 Q1648.35 2259.13 1650.88 2259.13 Q1655.28 2259.13 1657.57 2257.39 Q1659.88 2255.66 1659.88 2252.35 Q1659.88 2249.29 1657.73 2247.58 Q1655.6 2245.84 1651.78 2245.84 L1647.75 2245.84 L1647.75 2242 L1651.97 2242 Q1655.41 2242 1657.24 2240.63 Q1659.07 2239.24 1659.07 2236.65 Q1659.07 2233.99 1657.17 2232.58 Q1655.3 2231.14 1651.78 2231.14 Q1649.86 2231.14 1647.66 2231.56 Q1645.46 2231.98 1642.82 2232.85 L1642.82 2228.69 Q1645.48 2227.95 1647.8 2227.58 Q1650.14 2227.21 1652.2 2227.21 Q1657.52 2227.21 1660.62 2229.64 Q1663.72 2232.04 1663.72 2236.17 Q1663.72 2239.04 1662.08 2241.03 Q1660.44 2242.99 1657.4 2243.76 Z" fill="#000000" fill-rule="evenodd" fill-opacity="1" /><path clip-path="url(#clip1600)" d="M 0 0 M2104.89 2231.91 L2093.09 2250.35 L2104.89 2250.35 L2104.89 2231.91 M2103.67 2227.83 L2109.55 2227.83 L2109.55 2250.35 L2114.48 2250.35 L2114.48 2254.24 L2109.55 2254.24 L2109.55 2262.39 L2104.89 2262.39 L2104.89 2254.24 L2089.29 2254.24 L2089.29 2249.73 L2103.67 2227.83 Z" fill="#000000" fill-rule="evenodd" fill-opacity="1" /><path clip-path="url(#clip1600)" d="M 0 0 M2540.89 2227.83 L2559.25 2227.83 L2559.25 2231.77 L2545.17 2231.77 L2545.17 2240.24 Q2546.19 2239.89 2547.21 2239.73 Q2548.23 2239.54 2549.25 2239.54 Q2555.04 2239.54 2558.42 2242.72 Q2561.79 2245.89 2561.79 2251.3 Q2561.79 2256.88 2558.32 2259.98 Q2554.85 2263.06 2548.53 2263.06 Q2546.35 2263.06 2544.09 2262.69 Q2541.84 2262.32 2539.43 2261.58 L2539.43 2256.88 Q2541.52 2258.02 2543.74 2258.57 Q2545.96 2259.13 2548.44 2259.13 Q2552.44 2259.13 2554.78 2257.02 Q2557.12 2254.92 2557.12 2251.3 Q2557.12 2247.69 2554.78 2245.59 Q2552.44 2243.48 2548.44 2243.48 Q2546.56 2243.48 2544.69 2243.9 Q2542.84 2244.31 2540.89 2245.19 L2540.89 2227.83 Z" fill="#000000" fill-rule="evenodd" fill-opacity="1" /><path clip-path="url(#clip1600)" d="M 0 0 M132.2 2111.72 L144.677 2111.72 L144.677 2115.51 L132.2 2115.51 L132.2 2111.72 Z" fill="#000000" fill-rule="evenodd" fill-opacity="1" /><path clip-path="url(#clip1600)" d="M 0 0 M149.793 2092.04 L168.149 2092.04 L168.149 2095.98 L154.075 2095.98 L154.075 2104.45 Q155.094 2104.1 156.112 2103.94 Q157.131 2103.76 158.149 2103.76 Q163.936 2103.76 167.316 2106.93 Q170.695 2110.1 170.695 2115.51 Q170.695 2121.09 167.223 2124.19 Q163.751 2127.27 157.432 2127.27 Q155.256 2127.27 152.987 2126.9 Q150.742 2126.53 148.334 2125.79 L148.334 2121.09 Q150.418 2122.23 152.64 2122.78 Q154.862 2123.34 157.339 2123.34 Q161.344 2123.34 163.681 2121.23 Q166.019 2119.13 166.019 2115.51 Q166.019 2111.9 163.681 2109.8 Q161.344 2107.69 157.339 2107.69 Q155.464 2107.69 153.589 2108.11 Q151.737 2108.52 149.793 2109.4 L149.793 2092.04 Z" fill="#000000" fill-rule="evenodd" fill-opacity="1" /><path clip-path="url(#clip1600)" d="M 0 0 M175.765 2120.72 L180.649 2120.72 L180.649 2126.6 L175.765 2126.6 L175.765 2120.72 Z" fill="#000000" fill-rule="evenodd" fill-opacity="1" /><path clip-path="url(#clip1600)" d="M 0 0 M195.718 2095.12 Q192.107 2095.12 190.279 2098.69 Q188.473 2102.23 188.473 2109.36 Q188.473 2116.46 190.279 2120.03 Q192.107 2123.57 195.718 2123.57 Q199.353 2123.57 201.158 2120.03 Q202.987 2116.46 202.987 2109.36 Q202.987 2102.23 201.158 2098.69 Q199.353 2095.12 195.718 2095.12 M195.718 2091.42 Q201.528 2091.42 204.584 2096.02 Q207.663 2100.61 207.663 2109.36 Q207.663 2118.08 204.584 2122.69 Q201.528 2127.27 195.718 2127.27 Q189.908 2127.27 186.829 2122.69 Q183.774 2118.08 183.774 2109.36 Q183.774 2100.61 186.829 2096.02 Q189.908 2091.42 195.718 2091.42 Z" fill="#000000" fill-rule="evenodd" fill-opacity="1" /><path clip-path="url(#clip1600)" d="M 0 0 M133.797 1684.17 L146.274 1684.17 L146.274 1687.97 L133.797 1687.97 L133.797 1684.17 Z" fill="#000000" fill-rule="evenodd" fill-opacity="1" /><path clip-path="url(#clip1600)" d="M 0 0 M155.371 1695.12 L171.691 1695.12 L171.691 1699.06 L149.746 1699.06 L149.746 1695.12 Q152.408 1692.37 156.992 1687.74 Q161.598 1683.09 162.779 1681.74 Q165.024 1679.22 165.904 1677.48 Q166.806 1675.73 166.806 1674.04 Q166.806 1671.28 164.862 1669.55 Q162.941 1667.81 159.839 1667.81 Q157.64 1667.81 155.186 1668.57 Q152.756 1669.34 149.978 1670.89 L149.978 1666.17 Q152.802 1665.03 155.256 1664.45 Q157.709 1663.87 159.746 1663.87 Q165.117 1663.87 168.311 1666.56 Q171.506 1669.24 171.506 1673.73 Q171.506 1675.86 170.695 1677.79 Q169.908 1679.68 167.802 1682.28 Q167.223 1682.95 164.121 1686.17 Q161.019 1689.36 155.371 1695.12 Z" fill="#000000" fill-rule="evenodd" fill-opacity="1" /><path clip-path="url(#clip1600)" d="M 0 0 M176.76 1693.18 L181.644 1693.18 L181.644 1699.06 L176.76 1699.06 L176.76 1693.18 Z" fill="#000000" fill-rule="evenodd" fill-opacity="1" /><path clip-path="url(#clip1600)" d="M 0 0 M186.76 1664.5 L205.116 1664.5 L205.116 1668.43 L191.042 1668.43 L191.042 1676.91 Q192.061 1676.56 193.079 1676.4 Q194.098 1676.21 195.116 1676.21 Q200.903 1676.21 204.283 1679.38 Q207.663 1682.55 207.663 1687.97 Q207.663 1693.55 204.191 1696.65 Q200.718 1699.73 194.399 1699.73 Q192.223 1699.73 189.954 1699.36 Q187.709 1698.99 185.302 1698.25 L185.302 1693.55 Q187.385 1694.68 189.607 1695.24 Q191.829 1695.79 194.306 1695.79 Q198.311 1695.79 200.649 1693.69 Q202.987 1691.58 202.987 1687.97 Q202.987 1684.36 200.649 1682.25 Q198.311 1680.15 194.306 1680.15 Q192.431 1680.15 190.556 1680.56 Q188.704 1680.98 186.76 1681.86 L186.76 1664.5 Z" fill="#000000" fill-rule="evenodd" fill-opacity="1" /><path clip-path="url(#clip1600)" d="M 0 0 M158.751 1240.03 Q155.14 1240.03 153.311 1243.6 Q151.506 1247.14 151.506 1254.27 Q151.506 1261.38 153.311 1264.94 Q155.14 1268.48 158.751 1268.48 Q162.385 1268.48 164.191 1264.94 Q166.019 1261.38 166.019 1254.27 Q166.019 1247.14 164.191 1243.6 Q162.385 1240.03 158.751 1240.03 M158.751 1236.33 Q164.561 1236.33 167.617 1240.94 Q170.695 1245.52 170.695 1254.27 Q170.695 1263 167.617 1267.6 Q164.561 1272.19 158.751 1272.19 Q152.941 1272.19 149.862 1267.6 Q146.807 1263 146.807 1254.27 Q146.807 1245.52 149.862 1240.94 Q152.941 1236.33 158.751 1236.33 Z" fill="#000000" fill-rule="evenodd" fill-opacity="1" /><path clip-path="url(#clip1600)" d="M 0 0 M175.765 1265.64 L180.649 1265.64 L180.649 1271.52 L175.765 1271.52 L175.765 1265.64 Z" fill="#000000" fill-rule="evenodd" fill-opacity="1" /><path clip-path="url(#clip1600)" d="M 0 0 M195.718 1240.03 Q192.107 1240.03 190.279 1243.6 Q188.473 1247.14 188.473 1254.27 Q188.473 1261.38 190.279 1264.94 Q192.107 1268.48 195.718 1268.48 Q199.353 1268.48 201.158 1264.94 Q202.987 1261.38 202.987 1254.27 Q202.987 1247.14 201.158 1243.6 Q199.353 1240.03 195.718 1240.03 M195.718 1236.33 Q201.528 1236.33 204.584 1240.94 Q207.663 1245.52 207.663 1254.27 Q207.663 1263 204.584 1267.6 Q201.528 1272.19 195.718 1272.19 Q189.908 1272.19 186.829 1267.6 Q183.774 1263 183.774 1254.27 Q183.774 1245.52 186.829 1240.94 Q189.908 1236.33 195.718 1236.33 Z" fill="#000000" fill-rule="evenodd" fill-opacity="1" /><path clip-path="url(#clip1600)" d="M 0 0 M155.371 840.036 L171.691 840.036 L171.691 843.972 L149.746 843.972 L149.746 840.036 Q152.408 837.282 156.992 832.652 Q161.598 827.999 162.779 826.657 Q165.024 824.134 165.904 822.398 Q166.806 820.638 166.806 818.949 Q166.806 816.194 164.862 814.458 Q162.941 812.722 159.839 812.722 Q157.64 812.722 155.186 813.486 Q152.756 814.25 149.978 815.8 L149.978 811.078 Q152.802 809.944 155.256 809.365 Q157.709 808.787 159.746 808.787 Q165.117 808.787 168.311 811.472 Q171.506 814.157 171.506 818.648 Q171.506 820.777 170.695 822.699 Q169.908 824.597 167.802 827.189 Q167.223 827.861 164.121 831.078 Q161.019 834.273 155.371 840.036 Z" fill="#000000" fill-rule="evenodd" fill-opacity="1" /><path clip-path="url(#clip1600)" d="M 0 0 M176.76 838.092 L181.644 838.092 L181.644 843.972 L176.76 843.972 L176.76 838.092 Z" fill="#000000" fill-rule="evenodd" fill-opacity="1" /><path clip-path="url(#clip1600)" d="M 0 0 M186.76 809.412 L205.116 809.412 L205.116 813.347 L191.042 813.347 L191.042 821.819 Q192.061 821.472 193.079 821.31 Q194.098 821.125 195.116 821.125 Q200.903 821.125 204.283 824.296 Q207.663 827.467 207.663 832.884 Q207.663 838.462 204.191 841.564 Q200.718 844.643 194.399 844.643 Q192.223 844.643 189.954 844.273 Q187.709 843.902 185.302 843.161 L185.302 838.462 Q187.385 839.597 189.607 840.152 Q191.829 840.708 194.306 840.708 Q198.311 840.708 200.649 838.601 Q202.987 836.495 202.987 832.884 Q202.987 829.273 200.649 827.166 Q198.311 825.06 194.306 825.06 Q192.431 825.06 190.556 825.476 Q188.704 825.893 186.76 826.773 L186.76 809.412 Z" fill="#000000" fill-rule="evenodd" fill-opacity="1" /><path clip-path="url(#clip1600)" d="M 0 0 M149.793 381.868 L168.149 381.868 L168.149 385.803 L154.075 385.803 L154.075 394.275 Q155.094 393.928 156.112 393.766 Q157.131 393.581 158.149 393.581 Q163.936 393.581 167.316 396.752 Q170.695 399.923 170.695 405.34 Q170.695 410.919 167.223 414.021 Q163.751 417.099 157.432 417.099 Q155.256 417.099 152.987 416.729 Q150.742 416.359 148.334 415.618 L148.334 410.919 Q150.418 412.053 152.64 412.609 Q154.862 413.164 157.339 413.164 Q161.344 413.164 163.681 411.058 Q166.019 408.951 166.019 405.34 Q166.019 401.729 163.681 399.623 Q161.344 397.516 157.339 397.516 Q155.464 397.516 153.589 397.933 Q151.737 398.349 149.793 399.229 L149.793 381.868 Z" fill="#000000" fill-rule="evenodd" fill-opacity="1" /><path clip-path="url(#clip1600)" d="M 0 0 M175.765 410.548 L180.649 410.548 L180.649 416.428 L175.765 416.428 L175.765 410.548 Z" fill="#000000" fill-rule="evenodd" fill-opacity="1" /><path clip-path="url(#clip1600)" d="M 0 0 M195.718 384.947 Q192.107 384.947 190.279 388.512 Q188.473 392.053 188.473 399.183 Q188.473 406.289 190.279 409.854 Q192.107 413.396 195.718 413.396 Q199.353 413.396 201.158 409.854 Q202.987 406.289 202.987 399.183 Q202.987 392.053 201.158 388.512 Q199.353 384.947 195.718 384.947 M195.718 381.243 Q201.528 381.243 204.584 385.849 Q207.663 390.433 207.663 399.183 Q207.663 407.91 204.584 412.516 Q201.528 417.099 195.718 417.099 Q189.908 417.099 186.829 412.516 Q183.774 407.91 183.774 399.183 Q183.774 390.433 186.829 385.849 Q189.908 381.243 195.718 381.243 Z" fill="#000000" fill-rule="evenodd" fill-opacity="1" /><path clip-path="url(#clip1600)" d="M 0 0 M603.685 12.096 L611.867 12.096 L611.867 36.8875 L641.601 36.8875 L641.601 12.096 L649.784 12.096 L649.784 72.576 L641.601 72.576 L641.601 43.7741 L611.867 43.7741 L611.867 72.576 L603.685 72.576 L603.685 12.096 Z" fill="#000000" fill-rule="evenodd" fill-opacity="1" /><path clip-path="url(#clip1600)" d="M 0 0 M675.183 32.4315 Q669.188 32.4315 665.704 37.1306 Q662.22 41.7891 662.22 49.9314 Q662.22 58.0738 665.663 62.7728 Q669.147 67.4314 675.183 67.4314 Q681.138 67.4314 684.622 62.7323 Q688.105 58.0333 688.105 49.9314 Q688.105 41.8701 684.622 37.1711 Q681.138 32.4315 675.183 32.4315 M675.183 26.1121 Q684.905 26.1121 690.455 32.4315 Q696.005 38.7509 696.005 49.9314 Q696.005 61.0714 690.455 67.4314 Q684.905 73.7508 675.183 73.7508 Q665.42 73.7508 659.871 67.4314 Q654.361 61.0714 654.361 49.9314 Q654.361 38.7509 659.871 32.4315 Q665.42 26.1121 675.183 26.1121 Z" fill="#000000" fill-rule="evenodd" fill-opacity="1" /><path clip-path="url(#clip1600)" d="M 0 0 M698.476 27.2059 L706.375 27.2059 L720.553 65.2844 L734.731 27.2059 L742.631 27.2059 L725.617 72.576 L715.49 72.576 L698.476 27.2059 Z" fill="#000000" fill-rule="evenodd" fill-opacity="1" /><path clip-path="url(#clip1600)" d="M 0 0 M789.257 48.0275 L789.257 51.6733 L754.986 51.6733 Q755.472 59.3701 759.604 63.421 Q763.776 67.4314 771.19 67.4314 Q775.483 67.4314 779.494 66.3781 Q783.545 65.3249 787.515 63.2184 L787.515 70.267 Q783.504 71.9684 779.291 72.8596 Q775.078 73.7508 770.744 73.7508 Q759.887 73.7508 753.528 67.4314 Q747.208 61.1119 747.208 50.3365 Q747.208 39.1965 753.203 32.6746 Q759.239 26.1121 769.448 26.1121 Q778.603 26.1121 783.909 32.0264 Q789.257 37.9003 789.257 48.0275 M781.803 45.84 Q781.722 39.7232 778.36 36.0774 Q775.038 32.4315 769.529 32.4315 Q763.29 32.4315 759.523 35.9558 Q755.796 39.4801 755.229 45.8805 L781.803 45.84 Z" fill="#000000" fill-rule="evenodd" fill-opacity="1" /><path clip-path="url(#clip1600)" d="M 0 0 M823.365 34.1734 Q822.109 33.4443 820.611 33.1202 Q819.152 32.7556 817.37 32.7556 Q811.05 32.7556 807.648 36.8875 Q804.285 40.9789 804.285 48.6757 L804.285 72.576 L796.791 72.576 L796.791 27.2059 L804.285 27.2059 L804.285 34.2544 Q806.635 30.1225 810.402 28.1376 Q814.17 26.1121 819.557 26.1121 Q820.327 26.1121 821.259 26.2337 Q822.19 26.3147 823.325 26.5172 L823.365 34.1734 Z" fill="#000000" fill-rule="evenodd" fill-opacity="1" /><path clip-path="url(#clip1600)" d="M 0 0 M831.183 27.2059 L838.637 27.2059 L838.637 72.576 L831.183 72.576 L831.183 27.2059 M831.183 9.54393 L838.637 9.54393 L838.637 18.9825 L831.183 18.9825 L831.183 9.54393 Z" fill="#000000" fill-rule="evenodd" fill-opacity="1" /><path clip-path="url(#clip1600)" d="M 0 0 M884.169 45.1919 L884.169 72.576 L876.716 72.576 L876.716 45.4349 Q876.716 38.994 874.204 35.7938 Q871.692 32.5936 866.669 32.5936 Q860.633 32.5936 857.15 36.4419 Q853.666 40.2903 853.666 46.9338 L853.666 72.576 L846.172 72.576 L846.172 27.2059 L853.666 27.2059 L853.666 34.2544 Q856.34 30.163 859.945 28.1376 Q863.591 26.1121 868.33 26.1121 Q876.148 26.1121 880.159 30.9732 Q884.169 35.7938 884.169 45.1919 Z" fill="#000000" fill-rule="evenodd" fill-opacity="1" /><path clip-path="url(#clip1600)" d="M 0 0 M921.843 49.3643 Q921.843 41.2625 918.48 36.8065 Q915.159 32.3505 909.123 32.3505 Q903.127 32.3505 899.765 36.8065 Q896.443 41.2625 896.443 49.3643 Q896.443 57.4256 899.765 61.8816 Q903.127 66.3376 909.123 66.3376 Q915.159 66.3376 918.48 61.8816 Q921.843 57.4256 921.843 49.3643 M929.296 66.9452 Q929.296 78.5308 924.152 84.1616 Q919.007 89.8329 908.394 89.8329 Q904.464 89.8329 900.98 89.2252 Q897.497 88.6581 894.215 87.4428 L894.215 80.1917 Q897.497 81.9741 900.697 82.8248 Q903.897 83.6755 907.219 83.6755 Q914.551 83.6755 918.197 79.8271 Q921.843 76.0193 921.843 68.282 L921.843 64.5957 Q919.534 68.6061 915.928 70.5911 Q912.323 72.576 907.3 72.576 Q898.955 72.576 893.851 66.2161 Q888.747 59.8562 888.747 49.3643 Q888.747 38.832 893.851 32.472 Q898.955 26.1121 907.3 26.1121 Q912.323 26.1121 915.928 28.0971 Q919.534 30.082 921.843 34.0924 L921.843 27.2059 L929.296 27.2059 L929.296 66.9452 Z" fill="#000000" fill-rule="evenodd" fill-opacity="1" /><path clip-path="url(#clip1600)" d="M 0 0 M959.151 27.2059 L966.605 27.2059 L975.922 62.6108 L985.199 27.2059 L993.989 27.2059 L1003.31 62.6108 L1012.58 27.2059 L1020.04 27.2059 L1008.17 72.576 L999.377 72.576 L989.614 35.3887 L979.811 72.576 L971.021 72.576 L959.151 27.2059 Z" fill="#000000" fill-rule="evenodd" fill-opacity="1" /><path clip-path="url(#clip1600)" d="M 0 0 M1027.85 27.2059 L1035.31 27.2059 L1035.31 72.576 L1027.85 72.576 L1027.85 27.2059 M1027.85 9.54393 L1035.31 9.54393 L1035.31 18.9825 L1027.85 18.9825 L1027.85 9.54393 Z" fill="#000000" fill-rule="evenodd" fill-opacity="1" /><path clip-path="url(#clip1600)" d="M 0 0 M1050.5 14.324 L1050.5 27.2059 L1065.85 27.2059 L1065.85 32.9987 L1050.5 32.9987 L1050.5 57.6282 Q1050.5 63.1779 1052 64.7578 Q1053.54 66.3376 1058.2 66.3376 L1065.85 66.3376 L1065.85 72.576 L1058.2 72.576 Q1049.57 72.576 1046.29 69.3758 Q1043.01 66.1351 1043.01 57.6282 L1043.01 32.9987 L1037.54 32.9987 L1037.54 27.2059 L1043.01 27.2059 L1043.01 14.324 L1050.5 14.324 Z" fill="#000000" fill-rule="evenodd" fill-opacity="1" /><path clip-path="url(#clip1600)" d="M 0 0 M1111.38 45.1919 L1111.38 72.576 L1103.93 72.576 L1103.93 45.4349 Q1103.93 38.994 1101.42 35.7938 Q1098.91 32.5936 1093.88 32.5936 Q1087.85 32.5936 1084.36 36.4419 Q1080.88 40.2903 1080.88 46.9338 L1080.88 72.576 L1073.39 72.576 L1073.39 9.54393 L1080.88 9.54393 L1080.88 34.2544 Q1083.55 30.163 1087.16 28.1376 Q1090.81 26.1121 1095.55 26.1121 Q1103.36 26.1121 1107.37 30.9732 Q1111.38 35.7938 1111.38 45.1919 Z" fill="#000000" fill-rule="evenodd" fill-opacity="1" /><path clip-path="url(#clip1600)" d="M 0 0 M1165.14 39.075 Q1159.63 39.075 1156.39 42.8424 Q1153.19 46.6097 1153.19 53.1722 Q1153.19 59.6941 1156.39 63.502 Q1159.63 67.2693 1165.14 67.2693 Q1170.65 67.2693 1173.85 63.502 Q1177.09 59.6941 1177.09 53.1722 Q1177.09 46.6097 1173.85 42.8424 Q1170.65 39.075 1165.14 39.075 M1181.38 13.4328 L1181.38 20.8865 Q1178.31 19.4281 1175.15 18.6585 Q1172.03 17.8888 1168.95 17.8888 Q1160.85 17.8888 1156.55 23.3575 Q1152.3 28.8262 1151.69 39.8852 Q1154.08 36.3609 1157.69 34.4975 Q1161.29 32.5936 1165.63 32.5936 Q1174.74 32.5936 1180.01 38.1433 Q1185.31 43.6525 1185.31 53.1722 Q1185.31 62.4892 1179.8 68.12 Q1174.29 73.7508 1165.14 73.7508 Q1154.65 73.7508 1149.1 65.73 Q1143.55 57.6687 1143.55 42.3968 Q1143.55 28.0566 1150.35 19.5497 Q1157.16 11.0023 1168.62 11.0023 Q1171.7 11.0023 1174.82 11.6099 Q1177.98 12.2175 1181.38 13.4328 Z" fill="#000000" fill-rule="evenodd" fill-opacity="1" /><path clip-path="url(#clip1600)" d="M 0 0 M1244.38 17.6457 Q1235.46 17.6457 1230.2 24.2892 Q1224.97 30.9327 1224.97 42.3968 Q1224.97 53.8203 1230.2 60.4638 Q1235.46 67.1073 1244.38 67.1073 Q1253.29 67.1073 1258.47 60.4638 Q1263.7 53.8203 1263.7 42.3968 Q1263.7 30.9327 1258.47 24.2892 Q1253.29 17.6457 1244.38 17.6457 M1255.84 71.4823 L1266.62 83.2704 L1256.73 83.2704 L1247.78 73.5887 Q1246.44 73.6697 1245.71 73.7103 Q1245.02 73.7508 1244.38 73.7508 Q1231.62 73.7508 1223.96 65.2439 Q1216.34 56.6965 1216.34 42.3968 Q1216.34 28.0566 1223.96 19.5497 Q1231.62 11.0023 1244.38 11.0023 Q1257.1 11.0023 1264.71 19.5497 Q1272.33 28.0566 1272.33 42.3968 Q1272.33 52.9291 1268.07 60.4233 Q1263.86 67.9175 1255.84 71.4823 Z" fill="#000000" fill-rule="evenodd" fill-opacity="1" /><path clip-path="url(#clip1600)" d="M 0 0 M1279.38 54.671 L1279.38 27.2059 L1286.83 27.2059 L1286.83 54.3874 Q1286.83 60.8284 1289.34 64.0691 Q1291.85 67.2693 1296.88 67.2693 Q1302.91 67.2693 1306.39 63.421 Q1309.92 59.5726 1309.92 52.9291 L1309.92 27.2059 L1317.37 27.2059 L1317.37 72.576 L1309.92 72.576 L1309.92 65.6084 Q1307.21 69.7404 1303.6 71.7658 Q1300.04 73.7508 1295.3 73.7508 Q1287.48 73.7508 1283.43 68.8897 Q1279.38 64.0286 1279.38 54.671 M1298.13 26.1121 L1298.13 26.1121 Z" fill="#000000" fill-rule="evenodd" fill-opacity="1" /><path clip-path="url(#clip1600)" d="M 0 0 M1345.81 49.7694 Q1336.78 49.7694 1333.29 51.8354 Q1329.81 53.9013 1329.81 58.8839 Q1329.81 62.8538 1332.4 65.2034 Q1335.03 67.5124 1339.53 67.5124 Q1345.73 67.5124 1349.46 63.1374 Q1353.22 58.7219 1353.22 51.4303 L1353.22 49.7694 L1345.81 49.7694 M1360.68 46.6907 L1360.68 72.576 L1353.22 72.576 L1353.22 65.6895 Q1350.67 69.8214 1346.86 71.8063 Q1343.06 73.7508 1337.55 73.7508 Q1330.58 73.7508 1326.45 69.8619 Q1322.36 65.9325 1322.36 59.3701 Q1322.36 51.7138 1327.46 47.825 Q1332.6 43.9361 1342.77 43.9361 L1353.22 43.9361 L1353.22 43.2069 Q1353.22 38.0623 1349.82 35.2672 Q1346.46 32.4315 1340.34 32.4315 Q1336.45 32.4315 1332.77 33.3632 Q1329.08 34.295 1325.68 36.1584 L1325.68 29.2718 Q1329.77 27.692 1333.62 26.9223 Q1337.47 26.1121 1341.11 26.1121 Q1350.95 26.1121 1355.82 31.2163 Q1360.68 36.3204 1360.68 46.6907 Z" fill="#000000" fill-rule="evenodd" fill-opacity="1" /><path clip-path="url(#clip1600)" d="M 0 0 M1398.35 34.0924 L1398.35 9.54393 L1405.8 9.54393 L1405.8 72.576 L1398.35 72.576 L1398.35 65.7705 Q1396 69.8214 1392.4 71.8063 Q1388.83 73.7508 1383.81 73.7508 Q1375.58 73.7508 1370.4 67.1883 Q1365.25 60.6258 1365.25 49.9314 Q1365.25 39.2371 1370.4 32.6746 Q1375.58 26.1121 1383.81 26.1121 Q1388.83 26.1121 1392.4 28.0971 Q1396 30.0415 1398.35 34.0924 M1372.95 49.9314 Q1372.95 58.1548 1376.31 62.8538 Q1379.72 67.5124 1385.63 67.5124 Q1391.54 67.5124 1394.95 62.8538 Q1398.35 58.1548 1398.35 49.9314 Q1398.35 41.7081 1394.95 37.0496 Q1391.54 32.3505 1385.63 32.3505 Q1379.72 32.3505 1376.31 37.0496 Q1372.95 41.7081 1372.95 49.9314 Z" fill="#000000" fill-rule="evenodd" fill-opacity="1" /><path clip-path="url(#clip1600)" d="M 0 0 M1439.91 34.1734 Q1438.66 33.4443 1437.16 33.1202 Q1435.7 32.7556 1433.92 32.7556 Q1427.6 32.7556 1424.2 36.8875 Q1420.83 40.9789 1420.83 48.6757 L1420.83 72.576 L1413.34 72.576 L1413.34 27.2059 L1420.83 27.2059 L1420.83 34.2544 Q1423.18 30.1225 1426.95 28.1376 Q1430.72 26.1121 1436.1 26.1121 Q1436.87 26.1121 1437.81 26.2337 Q1438.74 26.3147 1439.87 26.5172 L1439.91 34.1734 Z" fill="#000000" fill-rule="evenodd" fill-opacity="1" /><path clip-path="url(#clip1600)" d="M 0 0 M1463.49 32.4315 Q1457.49 32.4315 1454.01 37.1306 Q1450.53 41.7891 1450.53 49.9314 Q1450.53 58.0738 1453.97 62.7728 Q1457.45 67.4314 1463.49 67.4314 Q1469.44 67.4314 1472.93 62.7323 Q1476.41 58.0333 1476.41 49.9314 Q1476.41 41.8701 1472.93 37.1711 Q1469.44 32.4315 1463.49 32.4315 M1463.49 26.1121 Q1473.21 26.1121 1478.76 32.4315 Q1484.31 38.7509 1484.31 49.9314 Q1484.31 61.0714 1478.76 67.4314 Q1473.21 73.7508 1463.49 73.7508 Q1453.73 73.7508 1448.18 67.4314 Q1442.67 61.0714 1442.67 49.9314 Q1442.67 38.7509 1448.18 32.4315 Q1453.73 26.1121 1463.49 26.1121 Z" fill="#000000" fill-rule="evenodd" fill-opacity="1" /><path clip-path="url(#clip1600)" d="M 0 0 M1499.5 14.324 L1499.5 27.2059 L1514.85 27.2059 L1514.85 32.9987 L1499.5 32.9987 L1499.5 57.6282 Q1499.5 63.1779 1501 64.7578 Q1502.54 66.3376 1507.2 66.3376 L1514.85 66.3376 L1514.85 72.576 L1507.2 72.576 Q1498.57 72.576 1495.29 69.3758 Q1492.01 66.1351 1492.01 57.6282 L1492.01 32.9987 L1486.54 32.9987 L1486.54 27.2059 L1492.01 27.2059 L1492.01 14.324 L1499.5 14.324 Z" fill="#000000" fill-rule="evenodd" fill-opacity="1" /><path clip-path="url(#clip1600)" d="M 0 0 M1540.25 32.4315 Q1534.26 32.4315 1530.77 37.1306 Q1527.29 41.7891 1527.29 49.9314 Q1527.29 58.0738 1530.73 62.7728 Q1534.22 67.4314 1540.25 67.4314 Q1546.21 67.4314 1549.69 62.7323 Q1553.18 58.0333 1553.18 49.9314 Q1553.18 41.8701 1549.69 37.1711 Q1546.21 32.4315 1540.25 32.4315 M1540.25 26.1121 Q1549.98 26.1121 1555.53 32.4315 Q1561.08 38.7509 1561.08 49.9314 Q1561.08 61.0714 1555.53 67.4314 Q1549.98 73.7508 1540.25 73.7508 Q1530.49 73.7508 1524.94 67.4314 Q1519.43 61.0714 1519.43 49.9314 Q1519.43 38.7509 1524.94 32.4315 Q1530.49 26.1121 1540.25 26.1121 Z" fill="#000000" fill-rule="evenodd" fill-opacity="1" /><path clip-path="url(#clip1600)" d="M 0 0 M1595.18 34.1734 Q1593.93 33.4443 1592.43 33.1202 Q1590.97 32.7556 1589.19 32.7556 Q1582.87 32.7556 1579.47 36.8875 Q1576.1 40.9789 1576.1 48.6757 L1576.1 72.576 L1568.61 72.576 L1568.61 27.2059 L1576.1 27.2059 L1576.1 34.2544 Q1578.45 30.1225 1582.22 28.1376 Q1585.99 26.1121 1591.38 26.1121 Q1592.15 26.1121 1593.08 26.2337 Q1594.01 26.3147 1595.14 26.5172 L1595.18 34.1734 Z" fill="#000000" fill-rule="evenodd" fill-opacity="1" /><path clip-path="url(#clip1600)" d="M 0 0 M1631.93 28.5427 L1631.93 35.5912 Q1628.77 33.9709 1625.36 33.1607 Q1621.96 32.3505 1618.31 32.3505 Q1612.76 32.3505 1609.97 34.0519 Q1607.22 35.7533 1607.22 39.156 Q1607.22 41.7486 1609.2 43.2475 Q1611.19 44.7058 1617.18 46.0426 L1619.73 46.6097 Q1627.67 48.3111 1630.99 51.4303 Q1634.36 54.509 1634.36 60.0587 Q1634.36 66.3781 1629.33 70.0644 Q1624.35 73.7508 1615.6 73.7508 Q1611.95 73.7508 1607.98 73.0216 Q1604.06 72.3329 1599.68 70.9151 L1599.68 63.2184 Q1603.81 65.3654 1607.82 66.4591 Q1611.83 67.5124 1615.76 67.5124 Q1621.03 67.5124 1623.86 65.73 Q1626.7 63.9071 1626.7 60.6258 Q1626.7 57.5877 1624.63 55.9673 Q1622.61 54.3469 1615.68 52.8481 L1613.09 52.2405 Q1606.16 50.7821 1603.08 47.7845 Q1600 44.7463 1600 39.4801 Q1600 33.0797 1604.54 29.5959 Q1609.08 26.1121 1617.42 26.1121 Q1621.56 26.1121 1625.2 26.7198 Q1628.85 27.3274 1631.93 28.5427 Z" fill="#000000" fill-rule="evenodd" fill-opacity="1" /><path clip-path="url(#clip1600)" d="M 0 0 M1664.78 46.5287 L1686.61 46.5287 L1686.61 53.1722 L1664.78 53.1722 L1664.78 46.5287 Z" fill="#000000" fill-rule="evenodd" fill-opacity="1" /><path clip-path="url(#clip1600)" d="M 0 0 M1741.34 20.1573 L1730.24 50.2555 L1752.48 50.2555 L1741.34 20.1573 M1736.72 12.096 L1746 12.096 L1769.05 72.576 L1760.54 72.576 L1755.03 57.061 L1727.77 57.061 L1722.26 72.576 L1713.63 72.576 L1736.72 12.096 Z" fill="#000000" fill-rule="evenodd" fill-opacity="1" /><path clip-path="url(#clip1600)" d="M 0 0 M1806.72 49.3643 Q1806.72 41.2625 1803.36 36.8065 Q1800.04 32.3505 1794 32.3505 Q1788.01 32.3505 1784.64 36.8065 Q1781.32 41.2625 1781.32 49.3643 Q1781.32 57.4256 1784.64 61.8816 Q1788.01 66.3376 1794 66.3376 Q1800.04 66.3376 1803.36 61.8816 Q1806.72 57.4256 1806.72 49.3643 M1814.18 66.9452 Q1814.18 78.5308 1809.03 84.1616 Q1803.89 89.8329 1793.27 89.8329 Q1789.34 89.8329 1785.86 89.2252 Q1782.38 88.6581 1779.09 87.4428 L1779.09 80.1917 Q1782.38 81.9741 1785.58 82.8248 Q1788.78 83.6755 1792.1 83.6755 Q1799.43 83.6755 1803.08 79.8271 Q1806.72 76.0193 1806.72 68.282 L1806.72 64.5957 Q1804.41 68.6061 1800.81 70.5911 Q1797.2 72.576 1792.18 72.576 Q1783.83 72.576 1778.73 66.2161 Q1773.63 59.8562 1773.63 49.3643 Q1773.63 38.832 1778.73 32.472 Q1783.83 26.1121 1792.18 26.1121 Q1797.2 26.1121 1800.81 28.0971 Q1804.41 30.082 1806.72 34.0924 L1806.72 27.2059 L1814.18 27.2059 L1814.18 66.9452 Z" fill="#000000" fill-rule="evenodd" fill-opacity="1" /><path clip-path="url(#clip1600)" d="M 0 0 M1860.8 48.0275 L1860.8 51.6733 L1826.53 51.6733 Q1827.02 59.3701 1831.15 63.421 Q1835.32 67.4314 1842.73 67.4314 Q1847.03 67.4314 1851.04 66.3781 Q1855.09 65.3249 1859.06 63.2184 L1859.06 70.267 Q1855.05 71.9684 1850.84 72.8596 Q1846.62 73.7508 1842.29 73.7508 Q1831.43 73.7508 1825.07 67.4314 Q1818.75 61.1119 1818.75 50.3365 Q1818.75 39.1965 1824.75 32.6746 Q1830.78 26.1121 1840.99 26.1121 Q1850.15 26.1121 1855.45 32.0264 Q1860.8 37.9003 1860.8 48.0275 M1853.35 45.84 Q1853.27 39.7232 1849.9 36.0774 Q1846.58 32.4315 1841.07 32.4315 Q1834.84 32.4315 1831.07 35.9558 Q1827.34 39.4801 1826.77 45.8805 L1853.35 45.84 Z" fill="#000000" fill-rule="evenodd" fill-opacity="1" /><path clip-path="url(#clip1600)" d="M 0 0 M1906.33 45.1919 L1906.33 72.576 L1898.88 72.576 L1898.88 45.4349 Q1898.88 38.994 1896.37 35.7938 Q1893.86 32.5936 1888.83 32.5936 Q1882.8 32.5936 1879.31 36.4419 Q1875.83 40.2903 1875.83 46.9338 L1875.83 72.576 L1868.34 72.576 L1868.34 27.2059 L1875.83 27.2059 L1875.83 34.2544 Q1878.5 30.163 1882.11 28.1376 Q1885.76 26.1121 1890.49 26.1121 Q1898.31 26.1121 1902.32 30.9732 Q1906.33 35.7938 1906.33 45.1919 Z" fill="#000000" fill-rule="evenodd" fill-opacity="1" /><path clip-path="url(#clip1600)" d="M 0 0 M1921.52 14.324 L1921.52 27.2059 L1936.88 27.2059 L1936.88 32.9987 L1921.52 32.9987 L1921.52 57.6282 Q1921.52 63.1779 1923.02 64.7578 Q1924.56 66.3376 1929.22 66.3376 L1936.88 66.3376 L1936.88 72.576 L1929.22 72.576 Q1920.59 72.576 1917.31 69.3758 Q1914.03 66.1351 1914.03 57.6282 L1914.03 32.9987 L1908.56 32.9987 L1908.56 27.2059 L1914.03 27.2059 L1914.03 14.324 L1921.52 14.324 Z" fill="#000000" fill-rule="evenodd" fill-opacity="1" /><path clip-path="url(#clip1600)" d="M 0 0 M1986.99 72.576 L1963.9 12.096 L1972.44 12.096 L1991.61 63.0159 L2010.81 12.096 L2019.31 12.096 L1996.26 72.576 L1986.99 72.576 Z" fill="#000000" fill-rule="evenodd" fill-opacity="1" /><path clip-path="url(#clip1600)" d="M 0 0 M2059.5 48.0275 L2059.5 51.6733 L2025.23 51.6733 Q2025.71 59.3701 2029.85 63.421 Q2034.02 67.4314 2041.43 67.4314 Q2045.73 67.4314 2049.74 66.3781 Q2053.79 65.3249 2057.76 63.2184 L2057.76 70.267 Q2053.75 71.9684 2049.53 72.8596 Q2045.32 73.7508 2040.99 73.7508 Q2030.13 73.7508 2023.77 67.4314 Q2017.45 61.1119 2017.45 50.3365 Q2017.45 39.1965 2023.45 32.6746 Q2029.48 26.1121 2039.69 26.1121 Q2048.84 26.1121 2054.15 32.0264 Q2059.5 37.9003 2059.5 48.0275 M2052.04 45.84 Q2051.96 39.7232 2048.6 36.0774 Q2045.28 32.4315 2039.77 32.4315 Q2033.53 32.4315 2029.76 35.9558 Q2026.04 39.4801 2025.47 45.8805 L2052.04 45.84 Z" fill="#000000" fill-rule="evenodd" fill-opacity="1" /><path clip-path="url(#clip1600)" d="M 0 0 M2067.32 9.54393 L2074.77 9.54393 L2074.77 72.576 L2067.32 72.576 L2067.32 9.54393 Z" fill="#000000" fill-rule="evenodd" fill-opacity="1" /><path clip-path="url(#clip1600)" d="M 0 0 M2100.17 32.4315 Q2094.17 32.4315 2090.69 37.1306 Q2087.21 41.7891 2087.21 49.9314 Q2087.21 58.0738 2090.65 62.7728 Q2094.13 67.4314 2100.17 67.4314 Q2106.12 67.4314 2109.61 62.7323 Q2113.09 58.0333 2113.09 49.9314 Q2113.09 41.8701 2109.61 37.1711 Q2106.12 32.4315 2100.17 32.4315 M2100.17 26.1121 Q2109.89 26.1121 2115.44 32.4315 Q2120.99 38.7509 2120.99 49.9314 Q2120.99 61.0714 2115.44 67.4314 Q2109.89 73.7508 2100.17 73.7508 Q2090.41 73.7508 2084.86 67.4314 Q2079.35 61.0714 2079.35 49.9314 Q2079.35 38.7509 2084.86 32.4315 Q2090.41 26.1121 2100.17 26.1121 Z" fill="#000000" fill-rule="evenodd" fill-opacity="1" /><path clip-path="url(#clip1600)" d="M 0 0 M2161.46 28.9478 L2161.46 35.9153 Q2158.3 34.1734 2155.1 33.3227 Q2151.94 32.4315 2148.7 32.4315 Q2141.45 32.4315 2137.44 37.0496 Q2133.43 41.6271 2133.43 49.9314 Q2133.43 58.2358 2137.44 62.8538 Q2141.45 67.4314 2148.7 67.4314 Q2151.94 67.4314 2155.1 66.5807 Q2158.3 65.6895 2161.46 63.9476 L2161.46 70.8341 Q2158.34 72.2924 2154.98 73.0216 Q2151.66 73.7508 2147.89 73.7508 Q2137.64 73.7508 2131.6 67.3098 Q2125.57 60.8689 2125.57 49.9314 Q2125.57 38.832 2131.65 32.472 Q2137.76 26.1121 2148.38 26.1121 Q2151.82 26.1121 2155.1 26.8413 Q2158.38 27.5299 2161.46 28.9478 Z" fill="#000000" fill-rule="evenodd" fill-opacity="1" /><path clip-path="url(#clip1600)" d="M 0 0 M2169.28 27.2059 L2176.73 27.2059 L2176.73 72.576 L2169.28 72.576 L2169.28 27.2059 M2169.28 9.54393 L2176.73 9.54393 L2176.73 18.9825 L2169.28 18.9825 L2169.28 9.54393 Z" fill="#000000" fill-rule="evenodd" fill-opacity="1" /><path clip-path="url(#clip1600)" d="M 0 0 M2191.92 14.324 L2191.92 27.2059 L2207.28 27.2059 L2207.28 32.9987 L2191.92 32.9987 L2191.92 57.6282 Q2191.92 63.1779 2193.42 64.7578 Q2194.96 66.3376 2199.62 66.3376 L2207.28 66.3376 L2207.28 72.576 L2199.62 72.576 Q2190.99 72.576 2187.71 69.3758 Q2184.43 66.1351 2184.43 57.6282 L2184.43 32.9987 L2178.96 32.9987 L2178.96 27.2059 L2184.43 27.2059 L2184.43 14.324 L2191.92 14.324 Z" fill="#000000" fill-rule="evenodd" fill-opacity="1" /><path clip-path="url(#clip1600)" d="M 0 0 M2233.97 76.7889 Q2230.81 84.8907 2227.81 87.3618 Q2224.82 89.8329 2219.79 89.8329 L2213.84 89.8329 L2213.84 83.5945 L2218.21 83.5945 Q2221.29 83.5945 2222.99 82.1361 Q2224.69 80.6778 2226.76 75.2496 L2228.1 71.8468 L2209.75 27.2059 L2217.65 27.2059 L2231.82 62.6918 L2246 27.2059 L2253.9 27.2059 L2233.97 76.7889 Z" fill="#000000" fill-rule="evenodd" fill-opacity="1" /><path clip-path="url(#clip1600)" d="M 0 0 M1310.63 2298.26 L1350.83 2298.26 L1350.83 2303.67 L1333.96 2303.67 L1333.96 2345.78 L1327.5 2345.78 L1327.5 2303.67 L1310.63 2303.67 L1310.63 2298.26 Z" fill="#000000" fill-rule="evenodd" fill-opacity="1" /><path clip-path="url(#clip1600)" d="M 0 0 M1354.97 2310.14 L1360.82 2310.14 L1360.82 2345.78 L1354.97 2345.78 L1354.97 2310.14 M1354.97 2296.26 L1360.82 2296.26 L1360.82 2303.67 L1354.97 2303.67 L1354.97 2296.26 Z" fill="#000000" fill-rule="evenodd" fill-opacity="1" /><path clip-path="url(#clip1600)" d="M 0 0 M1394.72 2316.98 Q1396.92 2313.03 1399.97 2311.15 Q1403.03 2309.28 1407.17 2309.28 Q1412.74 2309.28 1415.76 2313.19 Q1418.78 2317.07 1418.78 2324.27 L1418.78 2345.78 L1412.89 2345.78 L1412.89 2324.46 Q1412.89 2319.33 1411.08 2316.85 Q1409.27 2314.37 1405.54 2314.37 Q1400.99 2314.37 1398.35 2317.39 Q1395.71 2320.42 1395.71 2325.64 L1395.71 2345.78 L1389.82 2345.78 L1389.82 2324.46 Q1389.82 2319.3 1388 2316.85 Q1386.19 2314.37 1382.4 2314.37 Q1377.92 2314.37 1375.27 2317.42 Q1372.63 2320.45 1372.63 2325.64 L1372.63 2345.78 L1366.74 2345.78 L1366.74 2310.14 L1372.63 2310.14 L1372.63 2315.67 Q1374.64 2312.4 1377.44 2310.84 Q1380.24 2309.28 1384.09 2309.28 Q1387.97 2309.28 1390.68 2311.25 Q1393.42 2313.22 1394.72 2316.98 Z" fill="#000000" fill-rule="evenodd" fill-opacity="1" /><path clip-path="url(#clip1600)" d="M 0 0 M1455.42 2326.5 L1455.42 2329.36 L1428.49 2329.36 Q1428.87 2335.41 1432.12 2338.59 Q1435.4 2341.74 1441.22 2341.74 Q1444.6 2341.74 1447.75 2340.91 Q1450.93 2340.09 1454.05 2338.43 L1454.05 2343.97 Q1450.9 2345.31 1447.59 2346.01 Q1444.28 2346.71 1440.87 2346.71 Q1432.34 2346.71 1427.34 2341.74 Q1422.38 2336.78 1422.38 2328.31 Q1422.38 2319.56 1427.09 2314.43 Q1431.83 2309.28 1439.85 2309.28 Q1447.05 2309.28 1451.22 2313.92 Q1455.42 2318.54 1455.42 2326.5 M1449.56 2324.78 Q1449.5 2319.97 1446.86 2317.11 Q1444.25 2314.24 1439.92 2314.24 Q1435.02 2314.24 1432.06 2317.01 Q1429.13 2319.78 1428.68 2324.81 L1449.56 2324.78 Z" fill="#000000" fill-rule="evenodd" fill-opacity="1" /><path clip-path="url(#clip1600)" d="M 0 0 M1496.35 2296.32 Q1492.08 2303.64 1490.02 2310.8 Q1487.95 2317.97 1487.95 2325.32 Q1487.95 2332.67 1490.02 2339.9 Q1492.12 2347.09 1496.35 2354.38 L1491.26 2354.38 Q1486.48 2346.9 1484.1 2339.67 Q1481.74 2332.45 1481.74 2325.32 Q1481.74 2318.22 1484.1 2311.03 Q1486.45 2303.83 1491.26 2296.32 L1496.35 2296.32 Z" fill="#000000" fill-rule="evenodd" fill-opacity="1" /><path clip-path="url(#clip1600)" d="M 0 0 M1525.22 2311.19 L1525.22 2316.72 Q1522.73 2315.45 1520.06 2314.81 Q1517.39 2314.18 1514.52 2314.18 Q1510.16 2314.18 1507.97 2315.51 Q1505.8 2316.85 1505.8 2319.53 Q1505.8 2321.56 1507.36 2322.74 Q1508.92 2323.89 1513.63 2324.94 L1515.64 2325.38 Q1521.88 2326.72 1524.49 2329.17 Q1527.13 2331.59 1527.13 2335.95 Q1527.13 2340.91 1523.18 2343.81 Q1519.27 2346.71 1512.39 2346.71 Q1509.53 2346.71 1506.41 2346.13 Q1503.32 2345.59 1499.88 2344.48 L1499.88 2338.43 Q1503.13 2340.12 1506.28 2340.98 Q1509.43 2341.81 1512.52 2341.81 Q1516.66 2341.81 1518.88 2340.4 Q1521.11 2338.97 1521.11 2336.39 Q1521.11 2334.01 1519.49 2332.73 Q1517.9 2331.46 1512.45 2330.28 L1510.42 2329.81 Q1504.97 2328.66 1502.56 2326.3 Q1500.14 2323.92 1500.14 2319.78 Q1500.14 2314.75 1503.7 2312.01 Q1507.27 2309.28 1513.82 2309.28 Q1517.07 2309.28 1519.93 2309.75 Q1522.8 2310.23 1525.22 2311.19 Z" fill="#000000" fill-rule="evenodd" fill-opacity="1" /><path clip-path="url(#clip1600)" d="M 0 0 M1532.35 2296.32 L1537.44 2296.32 Q1542.21 2303.83 1544.57 2311.03 Q1546.96 2318.22 1546.96 2325.32 Q1546.96 2332.45 1544.57 2339.67 Q1542.21 2346.9 1537.44 2354.38 L1532.35 2354.38 Q1536.58 2347.09 1538.65 2339.9 Q1540.75 2332.67 1540.75 2325.32 Q1540.75 2317.97 1538.65 2310.8 Q1536.58 2303.64 1532.35 2296.32 Z" fill="#000000" fill-rule="evenodd" fill-opacity="1" /><path clip-path="url(#clip1600)" d="M 0 0 M42.7847 1277.4 Q42.7847 1284.4 48.0045 1288.54 Q53.2244 1292.65 62.2319 1292.65 Q71.2075 1292.65 76.4274 1288.54 Q81.6473 1284.4 81.6473 1277.4 Q81.6473 1270.4 76.4274 1266.33 Q71.2075 1262.22 62.2319 1262.22 Q53.2244 1262.22 48.0045 1266.33 Q42.7847 1270.4 42.7847 1277.4 M85.0848 1268.4 L94.3469 1259.93 L94.3469 1267.69 L86.7399 1274.73 Q86.8035 1275.78 86.8354 1276.35 Q86.8672 1276.89 86.8672 1277.4 Q86.8672 1287.43 80.1832 1293.44 Q73.4674 1299.43 62.2319 1299.43 Q50.9646 1299.43 44.2806 1293.44 Q37.5648 1287.43 37.5648 1277.4 Q37.5648 1267.41 44.2806 1261.42 Q50.9646 1255.44 62.2319 1255.44 Q70.5073 1255.44 76.3956 1258.78 Q82.2839 1262.09 85.0848 1268.4 Z" fill="#000000" fill-rule="evenodd" fill-opacity="1" /><path clip-path="url(#clip1600)" d="M 0 0 M36.419 1274.73 L36.419 1268.87 L43.835 1268.87 L43.835 1274.73 L36.419 1274.73 M49.4368 1271.74 L49.4368 1271.74 Z" fill="#000000" fill-rule="evenodd" fill-opacity="1" /><path clip-path="url(#clip1600)" d="M 0 0 M82.443 1263.91 L82.443 1257.41 L62.9958 1257.41 L64.3008 1264.51 L60.6086 1264.51 L59.3673 1257.19 L59.3673 1252.83 L82.443 1252.83 L82.443 1246.31 L85.9442 1246.31 L85.9442 1263.91 L82.443 1263.91 Z" fill="#000000" fill-rule="evenodd" fill-opacity="1" /><path clip-path="url(#clip1600)" d="M 0 0 M36.4826 1205.37 Q43.8032 1209.64 50.9646 1211.71 Q58.126 1213.78 65.4784 1213.78 Q72.8308 1213.78 80.0559 1211.71 Q87.2491 1209.61 94.5379 1205.37 L94.5379 1210.47 Q87.0582 1215.24 79.8331 1217.63 Q72.608 1219.98 65.4784 1219.98 Q58.3806 1219.98 51.1874 1217.63 Q43.9942 1215.27 36.4826 1210.47 L36.4826 1205.37 Z" fill="#000000" fill-rule="evenodd" fill-opacity="1" /><path clip-path="url(#clip1600)" d="M 0 0 M55.7707 1178.57 Q55.1978 1179.56 54.9432 1180.74 Q54.6567 1181.89 54.6567 1183.29 Q54.6567 1188.25 57.9032 1190.92 Q61.1179 1193.57 67.1653 1193.57 L85.9442 1193.57 L85.9442 1199.45 L50.2962 1199.45 L50.2962 1193.57 L55.8344 1193.57 Q52.5879 1191.72 51.0283 1188.76 Q49.4368 1185.8 49.4368 1181.57 Q49.4368 1180.96 49.5323 1180.23 Q49.596 1179.5 49.7551 1178.61 L55.7707 1178.57 Z" fill="#000000" fill-rule="evenodd" fill-opacity="1" /><path clip-path="url(#clip1600)" d="M 0 0 M68.0247 1156.23 Q68.0247 1163.33 69.6479 1166.07 Q71.2712 1168.8 75.1861 1168.8 Q78.3053 1168.8 80.1514 1166.77 Q81.9656 1164.7 81.9656 1161.16 Q81.9656 1156.29 78.5281 1153.37 Q75.0588 1150.41 69.3297 1150.41 L68.0247 1150.41 L68.0247 1156.23 M65.6057 1144.55 L85.9442 1144.55 L85.9442 1150.41 L80.5333 1150.41 Q83.7798 1152.41 85.3394 1155.4 Q86.8672 1158.4 86.8672 1162.72 Q86.8672 1168.2 83.8116 1171.45 Q80.7243 1174.66 75.5681 1174.66 Q69.5525 1174.66 66.4969 1170.65 Q63.4414 1166.61 63.4414 1158.62 L63.4414 1150.41 L62.8685 1150.41 Q58.8262 1150.41 56.6301 1153.08 Q54.4021 1155.72 54.4021 1160.53 Q54.4021 1163.58 55.1341 1166.48 Q55.8662 1169.38 57.3303 1172.05 L51.9195 1172.05 Q50.6781 1168.84 50.0734 1165.81 Q49.4368 1162.79 49.4368 1159.92 Q49.4368 1152.19 53.4472 1148.37 Q57.4576 1144.55 65.6057 1144.55 Z" fill="#000000" fill-rule="evenodd" fill-opacity="1" /><path clip-path="url(#clip1600)" d="M 0 0 M55.7071 1114.95 L36.419 1114.95 L36.419 1109.09 L85.9442 1109.09 L85.9442 1114.95 L80.597 1114.95 Q83.7798 1116.8 85.3394 1119.63 Q86.8672 1122.43 86.8672 1126.38 Q86.8672 1132.84 81.711 1136.91 Q76.5547 1140.95 68.152 1140.95 Q59.7493 1140.95 54.5931 1136.91 Q49.4368 1132.84 49.4368 1126.38 Q49.4368 1122.43 50.9964 1119.63 Q52.5242 1116.8 55.7071 1114.95 M68.152 1134.91 Q74.6132 1134.91 78.3053 1132.26 Q81.9656 1129.59 81.9656 1124.94 Q81.9656 1120.3 78.3053 1117.62 Q74.6132 1114.95 68.152 1114.95 Q61.6908 1114.95 58.0305 1117.62 Q54.3384 1120.3 54.3384 1124.94 Q54.3384 1129.59 58.0305 1132.26 Q61.6908 1134.91 68.152 1134.91 Z" fill="#000000" fill-rule="evenodd" fill-opacity="1" /><path clip-path="url(#clip1600)" d="M 0 0 M38.4242 1092.54 L38.4242 1087.13 L91.9916 1103.68 L91.9916 1109.09 L38.4242 1092.54 Z" fill="#000000" fill-rule="evenodd" fill-opacity="1" /><path clip-path="url(#clip1600)" d="M 0 0 M51.3465 1058.26 L56.8847 1058.26 Q55.6116 1060.75 54.975 1063.42 Q54.3384 1066.09 54.3384 1068.96 Q54.3384 1073.32 55.6752 1075.51 Q57.012 1077.68 59.6856 1077.68 Q61.7226 1077.68 62.9003 1076.12 Q64.0461 1074.56 65.0965 1069.85 L65.5421 1067.84 Q66.8789 1061.61 69.3297 1059 Q71.7486 1056.35 76.1091 1056.35 Q81.0744 1056.35 83.9708 1060.3 Q86.8672 1064.21 86.8672 1071.09 Q86.8672 1073.95 86.2943 1077.07 Q85.7532 1080.16 84.6392 1083.6 L78.5918 1083.6 Q80.2787 1080.35 81.138 1077.2 Q81.9656 1074.05 81.9656 1070.96 Q81.9656 1066.82 80.5651 1064.6 Q79.1329 1062.37 76.5547 1062.37 Q74.1676 1062.37 72.8945 1063.99 Q71.6213 1065.58 70.4437 1071.03 L69.9662 1073.06 Q68.8204 1078.51 66.4651 1080.92 Q64.078 1083.34 59.9402 1083.34 Q54.9113 1083.34 52.1741 1079.78 Q49.4368 1076.21 49.4368 1069.66 Q49.4368 1066.41 49.9143 1063.55 Q50.3917 1060.68 51.3465 1058.26 Z" fill="#000000" fill-rule="evenodd" fill-opacity="1" /><path clip-path="url(#clip1600)" d="M 0 0 M36.4826 1051.13 L36.4826 1046.04 Q43.9942 1041.27 51.1874 1038.91 Q58.3806 1036.52 65.4784 1036.52 Q72.608 1036.52 79.8331 1038.91 Q87.0582 1041.27 94.5379 1046.04 L94.5379 1051.13 Q87.2491 1046.9 80.0559 1044.83 Q72.8308 1042.73 65.4784 1042.73 Q58.126 1042.73 50.9646 1044.83 Q43.8032 1046.9 36.4826 1051.13 Z" fill="#000000" fill-rule="evenodd" fill-opacity="1" /><polyline clip-path="url(#clip1602)" style="stroke:#009af9; stroke-width:16; stroke-opacity:1; fill:none" points="
  306.972,1254.24 318.19,1516.1 329.408,1555.51 340.627,1552.87 351.845,1504.7 363.063,1438.92 374.281,1377.18 385.499,1324.35 396.718,1283.49 407.936,1252.16 
  419.154,1229.61 430.372,1213.06 441.591,1201.49 452.809,1193.14 464.027,1187.45 475.245,1183.48 486.463,1180.95 497.682,1179.4 508.9,1178.65 520.118,1178.51 
  531.336,1178.78 542.554,1179.49 553.773,1180.4 564.991,1181.65 576.209,1182.95 587.427,1184.56 598.645,1186.1 609.864,1187.93 621.082,1189.62 632.3,1191.58 
  643.518,1193.31 654.737,1195.33 665.955,1197.05 677.173,1199.06 688.391,1200.72 699.609,1202.69 710.828,1204.26 722.046,1206.16 733.264,1207.62 744.482,1209.45 
  755.7,1210.81 766.919,1212.59 778.137,1213.85 789.355,1215.61 800.573,1216.79 811.791,1218.56 823.01,1219.69 834.228,1221.52 845.446,1222.62 856.664,1224.56 
  867.883,1225.64 879.101,1227.76 890.319,1228.84 901.537,1231.2 912.755,1232.29 923.974,1234.97 935.192,1236.06 946.41,1239.15 957.628,1240.25 968.846,1243.86 
  980.065,1244.96 991.283,1249.23 1002.5,1250.4 1013.72,1255.6 1024.94,1257.12 1036.16,1263.89 1047.37,1266.8 1058.59,1256.55 1069.81,1277.5 1081.03,1277.16 
  1092.25,1277.01 1103.46,1276.55 1114.68,1276.36 1125.9,1275.94 1137.12,1275.75 1148.34,1275.42 1159.56,1275.28 1170.77,1275.04 1181.99,1274.95 1193.21,1274.8 
  1204.43,1274.75 1215.65,1274.68 1226.87,1274.67 1238.08,1274.68 1249.3,1274.71 1260.52,1274.78 1271.74,1274.85 1282.96,1274.98 1294.17,1275.1 1305.39,1275.27 
  1316.61,1275.43 1327.83,1275.63 1339.05,1275.81 1350.27,1276.04 1361.48,1276.23 1372.7,1276.45 1383.92,1276.64 1395.14,1276.84 1406.36,1276.99 1417.57,1277.15 
  1428.79,1277.25 1440.01,1277.33 1451.23,1277.36 1462.45,1277.34 1473.67,1277.26 1484.88,1277.11 1496.1,1276.9 1507.32,1276.61 1518.54,1276.23 1529.76,1275.77 
  1540.98,1275.21 1552.19,1274.55 1563.41,1273.79 1574.63,1272.91 1585.85,1271.92 1597.07,1270.79 1608.28,1269.55 1619.5,1268.14 1630.72,1266.61 1641.94,1264.88 
  1653.16,1263.01 1664.38,1260.94 1675.59,1258.69 1686.81,1256.22 1698.03,1253.61 1709.25,1250.87 1720.47,1248.08 1731.68,1245.32 1742.9,1242.69 1754.12,1240.25 
  1765.34,1238.08 1776.56,1236.23 1787.78,1234.72 1798.99,1233.56 1810.21,1232.72 1821.43,1232.18 1832.65,1231.89 1843.87,1231.83 1855.09,1231.97 1866.3,1232.29 
  1877.52,1232.75 1888.74,1233.36 1899.96,1234.08 1911.18,1234.92 1922.39,1235.86 1933.61,1236.89 1944.83,1238.02 1956.05,1239.24 1967.27,1240.54 1978.49,1241.92 
  1989.7,1243.38 2000.92,1244.91 2012.14,1246.52 2023.36,1248.19 2034.58,1249.91 2045.79,1251.7 2057.01,1253.53 2068.23,1255.41 2079.45,1257.31 2090.67,1259.24 
  2101.89,1261.17 2113.1,1263.12 2124.32,1265.04 2135.54,1266.96 2146.76,1268.82 2157.98,1270.67 2169.19,1272.43 2180.41,1274.15 2191.63,1275.76 2202.85,1277.31 
  2214.07,1278.72 2225.29,1280.05 2236.5,1281.22 2247.72,1282.29 2258.94,1283.18 2270.16,1283.94 2281.38,1284.5 2292.6,1284.93 2303.81,1285.13 2315.03,1285.18 
  2326.25,1284.98 2337.47,1284.62 2348.69,1283.99 2359.9,1283.19 2371.12,1282.12 2382.34,1280.85 2393.56,1279.33 2404.78,1277.58 2416,1275.62 2427.21,1273.41 
  2438.43,1271.09 2449.65,1268.49 2460.87,1265.96 2472.09,1263.14 2483.3,1260.73 2494.52,1258.12 2505.74,1256.48 2516.96,1255.2 2528.18,1256.27 2539.4,1259.82 
  2550.61,1254.24 
  "/>
<polyline clip-path="url(#clip1602)" style="stroke:#e26f46; stroke-width:16; stroke-opacity:1; fill:none" points="
  306.972,1254.24 318.19,1831.99 329.408,1595.73 340.627,1294.17 351.845,1183.67 363.063,1174.42 374.281,1182.99 385.499,1188.26 396.718,1189.36 407.936,1188.71 
  419.154,1187.61 430.372,1186.67 441.591,1186.02 452.809,1185.68 464.027,1185.71 475.245,1186.01 486.463,1186.73 497.682,1187.69 508.9,1189.08 520.118,1190.67 
  531.336,1192.66 542.554,1194.79 553.773,1197.25 564.991,1199.79 576.209,1202.56 587.427,1205.35 598.645,1208.27 609.864,1211.16 621.082,1214.06 632.3,1216.92 
  643.518,1219.7 654.737,1222.42 665.955,1224.99 677.173,1227.51 688.391,1229.82 699.609,1232.09 710.828,1234.11 722.046,1236.13 733.264,1237.85 744.482,1239.6 
  755.7,1241.05 766.919,1242.55 778.137,1243.73 789.355,1245.01 800.573,1245.96 811.791,1247.05 823.01,1247.82 834.228,1248.74 845.446,1249.37 856.664,1250.18 
  867.883,1250.7 879.101,1251.45 890.319,1251.9 901.537,1252.65 912.755,1253.06 923.974,1253.85 935.192,1254.26 946.41,1255.17 957.628,1255.58 968.846,1256.68 
  980.065,1257.12 991.283,1258.5 1002.5,1259 1013.72,1260.8 1024.94,1261.48 1036.16,1264.02 1047.37,1265.29 1058.59,1255.77 1069.81,1269.37 1081.03,1269.67 
  1092.25,1269.64 1103.46,1269.95 1114.68,1270 1125.9,1270.3 1137.12,1270.41 1148.34,1270.74 1159.56,1270.92 1170.77,1271.31 1181.99,1271.56 1193.21,1272.06 
  1204.43,1272.41 1215.65,1273.03 1226.87,1273.51 1238.08,1274.29 1249.3,1274.91 1260.52,1275.87 1271.74,1276.67 1282.96,1277.82 1294.17,1278.81 1305.39,1280.15 
  1316.61,1281.34 1327.83,1282.86 1339.05,1284.24 1350.27,1285.93 1361.48,1287.47 1372.7,1289.31 1383.92,1290.99 1395.14,1292.93 1406.36,1294.73 1417.57,1296.74 
  1428.79,1298.6 1440.01,1300.63 1451.23,1302.51 1462.45,1304.49 1473.67,1306.33 1484.88,1308.21 1496.1,1309.93 1507.32,1311.65 1518.54,1313.18 1529.76,1314.64 
  1540.98,1315.89 1552.19,1317.01 1563.41,1317.89 1574.63,1318.57 1585.85,1318.99 1597.07,1319.14 1608.28,1319 1619.5,1318.55 1630.72,1317.77 1641.94,1316.63 
  1653.16,1315.11 1664.38,1313.15 1675.59,1310.73 1686.81,1307.77 1698.03,1304.28 1709.25,1300.21 1720.47,1295.64 1731.68,1290.57 1742.9,1285.11 1754.12,1279.31 
  1765.34,1273.32 1776.56,1267.19 1787.78,1261.06 1798.99,1255 1810.21,1249.16 1821.43,1243.66 1832.65,1238.59 1843.87,1233.97 1855.09,1229.77 1866.3,1226 
  1877.52,1222.63 1888.74,1219.66 1899.96,1217.08 1911.18,1214.86 1922.39,1213 1933.61,1211.49 1944.83,1210.29 1956.05,1209.41 1967.27,1208.83 1978.49,1208.52 
  1989.7,1208.46 2000.92,1208.64 2012.14,1209.04 2023.36,1209.64 2034.58,1210.41 2045.79,1211.35 2057.01,1212.43 2068.23,1213.63 2079.45,1214.93 2090.67,1216.32 
  2101.89,1217.78 2113.1,1219.29 2124.32,1220.82 2135.54,1222.38 2146.76,1223.93 2157.98,1225.47 2169.19,1226.97 2180.41,1228.42 2191.63,1229.8 2202.85,1231.11 
  2214.07,1232.33 2225.29,1233.45 2236.5,1234.46 2247.72,1235.36 2258.94,1236.13 2270.16,1236.79 2281.38,1237.32 2292.6,1237.74 2303.81,1238.03 2315.03,1238.22 
  2326.25,1238.31 2337.47,1238.3 2348.69,1238.24 2359.9,1238.09 2371.12,1237.94 2382.34,1237.74 2393.56,1237.59 2404.78,1237.43 2416,1237.4 2427.21,1237.4 
  2438.43,1237.64 2449.65,1237.94 2460.87,1238.58 2472.09,1239.33 2483.3,1240.49 2494.52,1241.71 2505.74,1243.24 2516.96,1244.35 2528.18,1244.18 2539.4,1238.53 
  2550.61,1254.24 
  "/>
<polyline clip-path="url(#clip1602)" style="stroke:#3da44d; stroke-width:16; stroke-opacity:1; fill:none" points="
  306.972,1254.24 318.19,1888.41 329.408,1618.72 340.627,1288.43 351.845,1179.24 363.063,1174.36 374.281,1184.82 385.499,1190.34 396.718,1191.45 407.936,1190.68 
  419.154,1189.5 430.372,1188.41 441.591,1187.57 452.809,1187.02 464.027,1186.8 475.245,1186.86 486.463,1187.3 497.682,1188.02 508.9,1189.14 520.118,1190.5 
  531.336,1192.26 542.554,1194.18 553.773,1196.47 564.991,1198.85 576.209,1201.52 587.427,1204.2 598.645,1207.1 609.864,1209.92 621.082,1212.9 632.3,1215.73 
  643.518,1218.65 654.737,1221.36 665.955,1224.12 677.173,1226.63 688.391,1229.16 699.609,1231.41 710.828,1233.66 722.046,1235.62 733.264,1237.56 744.482,1239.22 
  755.7,1240.87 766.919,1242.25 778.137,1243.62 789.355,1244.73 800.573,1245.87 811.791,1246.76 823.01,1247.69 834.228,1248.41 845.446,1249.2 856.664,1249.8 
  867.883,1250.49 879.101,1251.03 890.319,1251.7 901.537,1252.23 912.755,1252.95 923.974,1253.52 935.192,1254.37 946.41,1255.03 957.628,1256.11 968.846,1256.89 
  980.065,1258.3 991.283,1259.23 1002.5,1261.1 1013.72,1262.21 1024.94,1264.61 1036.16,1265.88 1047.37,1268.8 1058.59,1255.75 1069.81,1267.6 1081.03,1266.63 
  1092.25,1265.64 1103.46,1264.97 1114.68,1264.44 1125.9,1263.99 1137.12,1263.85 1148.34,1263.61 1159.56,1263.79 1170.77,1263.75 1181.99,1264.17 1193.21,1264.31 
  1204.43,1264.91 1215.65,1265.2 1226.87,1265.91 1238.08,1266.32 1249.3,1267.07 1260.52,1267.55 1271.74,1268.3 1282.96,1268.81 1294.17,1269.52 1305.39,1270.01 
  1316.61,1270.64 1327.83,1271.08 1339.05,1271.59 1350.27,1271.94 1361.48,1272.29 1372.7,1272.51 1383.92,1272.69 1395.14,1272.75 1406.36,1272.72 1417.57,1272.59 
  1428.79,1272.35 1440.01,1272.01 1451.23,1271.54 1462.45,1270.98 1473.67,1270.28 1484.88,1269.5 1496.1,1268.58 1507.32,1267.57 1518.54,1266.44 1529.76,1265.24 
  1540.98,1263.92 1552.19,1262.54 1563.41,1261.07 1574.63,1259.56 1585.85,1257.97 1597.07,1256.37 1608.28,1254.71 1619.5,1253.05 1630.72,1251.35 1641.94,1249.67 
  1653.16,1247.97 1664.38,1246.27 1675.59,1244.54 1686.81,1242.84 1698.03,1241.14 1709.25,1239.51 1720.47,1237.95 1731.68,1236.5 1742.9,1235.15 1754.12,1233.93 
  1765.34,1232.82 1776.56,1231.83 1787.78,1230.95 1798.99,1230.2 1810.21,1229.54 1821.43,1228.99 1832.65,1228.51 1843.87,1228.11 1855.09,1227.78 1866.3,1227.52 
  1877.52,1227.33 1888.74,1227.21 1899.96,1227.15 1911.18,1227.16 1922.39,1227.24 1933.61,1227.38 1944.83,1227.6 1956.05,1227.88 1967.27,1228.24 1978.49,1228.67 
  1989.7,1229.17 2000.92,1229.75 2012.14,1230.4 2023.36,1231.13 2034.58,1231.93 2045.79,1232.81 2057.01,1233.76 2068.23,1234.77 2079.45,1235.86 2090.67,1237.01 
  2101.89,1238.23 2113.1,1239.49 2124.32,1240.85 2135.54,1242.21 2146.76,1243.67 2157.98,1245.13 2169.19,1246.69 2180.41,1248.22 2191.63,1249.87 2202.85,1251.45 
  2214.07,1253.17 2225.29,1254.8 2236.5,1256.58 2247.72,1258.22 2258.94,1260.04 2270.16,1261.69 2281.38,1263.53 2292.6,1265.14 2303.81,1266.99 2315.03,1268.55 
  2326.25,1270.37 2337.47,1271.85 2348.69,1273.6 2359.9,1274.97 2371.12,1276.61 2382.34,1277.84 2393.56,1279.3 2404.78,1280.37 2416,1281.53 2427.21,1282.45 
  2438.43,1283.15 2449.65,1284.01 2460.87,1283.94 2472.09,1285 2483.3,1283.63 2494.52,1285.57 2505.74,1281.69 2516.96,1286.13 2528.18,1275.47 2539.4,1285.53 
  2550.61,1254.24 
  "/>
<polyline clip-path="url(#clip1602)" style="stroke:#c271d2; stroke-width:16; stroke-opacity:1; fill:none" points="
  306.972,1254.24 318.19,1439.22 329.408,1454.62 340.627,1486.91 351.845,1483.72 363.063,1442.41 374.281,1385.36 385.499,1333.14 396.718,1291.06 407.936,1260.82 
  419.154,1239.01 430.372,1224.02 441.591,1213.36 452.809,1206.12 464.027,1201.11 475.245,1197.87 486.463,1195.88 497.682,1194.86 508.9,1194.56 520.118,1194.8 
  531.336,1195.47 542.554,1196.44 553.773,1197.65 564.991,1199.01 576.209,1200.5 587.427,1202.05 598.645,1203.66 609.864,1205.28 621.082,1206.9 632.3,1208.49 
  643.518,1210.05 654.737,1211.57 665.955,1213.03 677.173,1214.43 688.391,1215.76 699.609,1217.03 710.828,1218.22 722.046,1219.37 733.264,1220.44 744.482,1221.48 
  755.7,1222.45 766.919,1223.42 778.137,1224.34 789.355,1225.29 800.573,1226.21 811.791,1227.19 823.01,1228.17 834.228,1229.26 845.446,1230.36 856.664,1231.62 
  867.883,1232.91 879.101,1234.42 890.319,1235.96 901.537,1237.77 912.755,1239.62 923.974,1241.81 935.192,1244.02 946.41,1246.65 957.628,1249.25 968.846,1252.36 
  980.065,1255.38 991.283,1259 1002.5,1262.41 1013.72,1266.53 1024.94,1270.23 1036.16,1274.81 1047.37,1278.84 1058.59,1257.26 1069.81,1282.31 1081.03,1280.62 
  1092.25,1279.12 1103.46,1277.86 1114.68,1276.71 1125.9,1275.72 1137.12,1274.8 1148.34,1273.93 1159.56,1273.07 1170.77,1272.22 1181.99,1271.39 1193.21,1270.59 
  1204.43,1269.83 1215.65,1269.1 1226.87,1268.42 1238.08,1267.77 1249.3,1267.14 1260.52,1266.54 1271.74,1265.94 1282.96,1265.35 1294.17,1264.76 1305.39,1264.15 
  1316.61,1263.54 1327.83,1262.89 1339.05,1262.23 1350.27,1261.52 1361.48,1260.78 1372.7,1259.99 1383.92,1259.15 1395.14,1258.26 1406.36,1257.31 1417.57,1256.29 
  1428.79,1255.21 1440.01,1254.06 1451.23,1252.85 1462.45,1251.56 1473.67,1250.21 1484.88,1248.8 1496.1,1247.34 1507.32,1245.82 1518.54,1244.25 1529.76,1242.66 
  1540.98,1241.04 1552.19,1239.41 1563.41,1237.79 1574.63,1236.2 1585.85,1234.67 1597.07,1233.23 1608.28,1231.93 1619.5,1230.83 1630.72,1230.02 1641.94,1229.55 
  1653.16,1229.5 1664.38,1229.91 1675.59,1230.82 1686.81,1232.26 1698.03,1234.23 1709.25,1236.67 1720.47,1239.48 1731.68,1242.55 1742.9,1245.76 1754.12,1248.97 
  1765.34,1252.12 1776.56,1255.09 1787.78,1257.87 1798.99,1260.36 1810.21,1262.59 1821.43,1264.52 1832.65,1266.17 1843.87,1267.54 1855.09,1268.68 1866.3,1269.58 
  1877.52,1270.3 1888.74,1270.83 1899.96,1271.22 1911.18,1271.45 1922.39,1271.56 1933.61,1271.56 1944.83,1271.47 1956.05,1271.3 1967.27,1271.05 1978.49,1270.75 
  1989.7,1270.4 2000.92,1270.02 2012.14,1269.59 2023.36,1269.16 2034.58,1268.71 2045.79,1268.26 2057.01,1267.8 2068.23,1267.37 2079.45,1266.92 2090.67,1266.53 
  2101.89,1266.12 2113.1,1265.77 2124.32,1265.42 2135.54,1265.14 2146.76,1264.85 2157.98,1264.64 2169.19,1264.42 2180.41,1264.28 2191.63,1264.13 2202.85,1264.06 
  2214.07,1263.99 2225.29,1263.98 2236.5,1263.97 2247.72,1264.01 2258.94,1264.05 2270.16,1264.14 2281.38,1264.21 2292.6,1264.31 2303.81,1264.4 2315.03,1264.51 
  2326.25,1264.57 2337.47,1264.66 2348.69,1264.67 2359.9,1264.73 2371.12,1264.62 2382.34,1264.63 2393.56,1264.35 2404.78,1264.31 2416,1263.76 2427.21,1263.67 
  2438.43,1262.75 2449.65,1262.66 2460.87,1261.23 2472.09,1261.22 2483.3,1259.17 2494.52,1259.44 2505.74,1256.74 2516.96,1257.7 2528.18,1254.55 2539.4,1257.12 
  2550.61,1254.24 
  "/>
<polyline clip-path="url(#clip1602)" style="stroke:#ac8d18; stroke-width:16; stroke-opacity:1; fill:none" points="
  306.972,1254.24 318.19,189.727 329.408,742.919 340.627,1401.45 351.845,1656.64 363.063,1606.13 374.281,1515.41 385.499,1421.29 396.718,1368.31 407.936,1323.94 
  419.154,1302.69 430.372,1281.58 441.591,1271.81 452.809,1260.03 464.027,1254.21 475.245,1246.66 486.463,1242.42 497.682,1237.16 508.9,1233.77 520.118,1229.98 
  531.336,1227.23 542.554,1224.53 553.773,1222.39 564.991,1220.55 576.209,1219 587.427,1217.9 598.645,1216.94 609.864,1216.48 621.082,1216.08 632.3,1216.19 
  643.518,1216.31 654.737,1216.91 665.955,1217.49 677.173,1218.52 688.391,1219.5 699.609,1220.88 710.828,1222.2 722.046,1223.86 733.264,1225.45 744.482,1227.34 
  755.7,1229.12 766.919,1231.19 778.137,1233.12 789.355,1235.33 800.573,1237.37 811.791,1239.7 823.01,1241.82 834.228,1244.26 845.446,1246.46 856.664,1249.02 
  867.883,1251.28 879.101,1253.99 890.319,1256.34 901.537,1259.24 912.755,1261.68 923.974,1264.84 935.192,1267.37 946.41,1270.88 957.628,1273.49 968.846,1277.47 
  980.065,1280.14 991.283,1284.76 1002.5,1287.38 1013.72,1292.87 1024.94,1295.23 1036.16,1301.87 1047.37,1303.86 1058.59,1260.04 1069.81,1311.96 1081.03,1307.33 
  1092.25,1306.31 1103.46,1303.14 1114.68,1301.88 1125.9,1299.55 1137.12,1298.05 1148.34,1295.81 1159.56,1293.71 1170.77,1291.03 1181.99,1288.22 1193.21,1285.15 
  1204.43,1281.94 1215.65,1278.56 1226.87,1275.08 1238.08,1271.47 1249.3,1267.79 1260.52,1264.03 1271.74,1260.23 1282.96,1256.39 1294.17,1252.55 1305.39,1248.71 
  1316.61,1244.9 1327.83,1241.14 1339.05,1237.45 1350.27,1233.84 1361.48,1230.34 1372.7,1226.96 1383.92,1223.72 1395.14,1220.65 1406.36,1217.75 1417.57,1215.06 
  1428.79,1212.58 1440.01,1210.34 1451.23,1208.35 1462.45,1206.63 1473.67,1205.2 1484.88,1204.08 1496.1,1203.27 1507.32,1202.79 1518.54,1202.65 1529.76,1202.87 
  1540.98,1203.46 1552.19,1204.41 1563.41,1205.75 1574.63,1207.47 1585.85,1209.58 1597.07,1212.09 1608.28,1214.99 1619.5,1218.31 1630.72,1222.03 1641.94,1226.09 
  1653.16,1230.37 1664.38,1234.82 1675.59,1239.44 1686.81,1244.27 1698.03,1249.3 1709.25,1254.48 1720.47,1259.74 1731.68,1264.92 1742.9,1269.95 1754.12,1274.68 
  1765.34,1279.08 1776.56,1283.04 1787.78,1286.58 1798.99,1289.66 1810.21,1292.33 1821.43,1294.56 1832.65,1296.44 1843.87,1297.92 1855.09,1299.08 1866.3,1299.89 
  1877.52,1300.41 1888.74,1300.64 1899.96,1300.6 1911.18,1300.32 1922.39,1299.82 1933.61,1299.13 1944.83,1298.24 1956.05,1297.22 1967.27,1296.04 1978.49,1294.8 
  1989.7,1293.41 2000.92,1292.01 2012.14,1290.5 2023.36,1289.04 2034.58,1287.48 2045.79,1286.02 2057.01,1284.48 2068.23,1283.09 2079.45,1281.63 2090.67,1280.36 
  2101.89,1279.02 2113.1,1277.91 2124.32,1276.74 2135.54,1275.82 2146.76,1274.83 2157.98,1274.1 2169.19,1273.31 2180.41,1272.79 2191.63,1272.18 2202.85,1271.85 
  2214.07,1271.43 2225.29,1271.26 2236.5,1271 2247.72,1270.97 2258.94,1270.83 2270.16,1270.9 2281.38,1270.84 2292.6,1270.98 2303.81,1270.95 2315.03,1271.11 
  2326.25,1271.05 2337.47,1271.18 2348.69,1271 2359.9,1271.09 2371.12,1270.68 2382.34,1270.7 2393.56,1269.92 2404.78,1269.87 2416,1268.55 2427.21,1268.46 
  2438.43,1266.39 2449.65,1266.36 2460.87,1263.28 2472.09,1263.52 2483.3,1259.15 2494.52,1260.09 2505.74,1254.28 2516.96,1256.82 2528.18,1250.11 2539.4,1256.98 
  2550.61,1254.24 
  "/>
<polyline clip-path="url(#clip1602)" style="stroke:#00a9ad; stroke-width:16; stroke-opacity:1; fill:none" points="
  306.972,1254.24 318.19,498.406 329.408,930.249 340.627,1415.55 351.845,1568.73 363.063,1517.79 374.281,1441.81 385.499,1372.46 396.718,1330.3 407.936,1298.07 
  419.154,1280 430.372,1264.7 441.591,1255.98 452.809,1247.72 464.027,1242.77 475.245,1237.86 486.463,1234.73 497.682,1231.71 508.9,1229.67 520.118,1227.86 
  531.336,1226.58 542.554,1225.61 553.773,1224.92 564.991,1224.55 576.209,1224.31 587.427,1224.38 598.645,1224.49 609.864,1224.86 621.082,1225.23 632.3,1225.79 
  643.518,1226.35 654.737,1227.02 665.955,1227.68 677.173,1228.39 688.391,1229.1 699.609,1229.8 710.828,1230.52 722.046,1231.18 733.264,1231.89 744.482,1232.5 
  755.7,1233.2 766.919,1233.77 778.137,1234.47 789.355,1235.02 800.573,1235.76 811.791,1236.33 823.01,1237.15 834.228,1237.76 845.446,1238.73 856.664,1239.41 
  867.883,1240.6 879.101,1241.4 890.319,1242.89 901.537,1243.82 912.755,1245.71 923.974,1246.78 935.192,1249.18 946.41,1250.39 957.628,1253.44 968.846,1254.77 
  980.065,1258.62 991.283,1260.04 1002.5,1264.93 1013.72,1266.44 1024.94,1272.72 1036.16,1274.5 1047.37,1282.94 1058.59,1257.45 1069.81,1286.04 1081.03,1285.75 
  1092.25,1285.46 1103.46,1285.22 1114.68,1285.37 1125.9,1285.37 1137.12,1285.91 1148.34,1286.15 1159.56,1286.89 1170.77,1287.25 1181.99,1288.04 1193.21,1288.46 
  1204.43,1289.21 1215.65,1289.65 1226.87,1290.33 1238.08,1290.76 1249.3,1291.33 1260.52,1291.72 1271.74,1292.16 1282.96,1292.46 1294.17,1292.73 1305.39,1292.91 
  1316.61,1292.99 1327.83,1293 1339.05,1292.86 1350.27,1292.66 1361.48,1292.28 1372.7,1291.86 1383.92,1291.23 1395.14,1290.56 1406.36,1289.67 1417.57,1288.75 
  1428.79,1287.61 1440.01,1286.44 1451.23,1285.07 1462.45,1283.68 1473.67,1282.09 1484.88,1280.5 1496.1,1278.74 1507.32,1276.97 1518.54,1275.07 1529.76,1273.17 
  1540.98,1271.17 1552.19,1269.18 1563.41,1267.13 1574.63,1265.1 1585.85,1263.04 1597.07,1261.03 1608.28,1259.01 1619.5,1257.04 1630.72,1255.04 1641.94,1253.03 
  1653.16,1250.97 1664.38,1248.92 1675.59,1246.87 1686.81,1244.89 1698.03,1242.96 1709.25,1241.12 1720.47,1239.35 1731.68,1237.67 1742.9,1236.07 1754.12,1234.55 
  1765.34,1233.12 1776.56,1231.78 1787.78,1230.53 1798.99,1229.36 1810.21,1228.26 1821.43,1227.24 1832.65,1226.29 1843.87,1225.41 1855.09,1224.58 1866.3,1223.81 
  1877.52,1223.1 1888.74,1222.45 1899.96,1221.85 1911.18,1221.31 1922.39,1220.81 1933.61,1220.37 1944.83,1219.98 1956.05,1219.65 1967.27,1219.36 1978.49,1219.13 
  1989.7,1218.94 2000.92,1218.8 2012.14,1218.71 2023.36,1218.66 2034.58,1218.66 2045.79,1218.7 2057.01,1218.78 2068.23,1218.9 2079.45,1219.05 2090.67,1219.23 
  2101.89,1219.44 2113.1,1219.67 2124.32,1219.92 2135.54,1220.19 2146.76,1220.47 2157.98,1220.75 2169.19,1221.04 2180.41,1221.33 2191.63,1221.61 2202.85,1221.9 
  2214.07,1222.16 2225.29,1222.43 2236.5,1222.66 2247.72,1222.91 2258.94,1223.11 2270.16,1223.34 2281.38,1223.51 2292.6,1223.74 2303.81,1223.89 2315.03,1224.13 
  2326.25,1224.28 2337.47,1224.55 2348.69,1224.73 2359.9,1225.08 2371.12,1225.32 2382.34,1225.78 2393.56,1226.15 2404.78,1226.77 2416,1227.35 2427.21,1228.14 
  2438.43,1229.09 2449.65,1230.02 2460.87,1231.59 2472.09,1232.53 2483.3,1235.17 2494.52,1235.84 2505.74,1240.35 2516.96,1240.3 2528.18,1248.13 2539.4,1245.52 
  2550.61,1254.24 
  "/>
<polyline clip-path="url(#clip1602)" style="stroke:#ed5d92; stroke-width:16; stroke-opacity:1; fill:none" points="
  306.972,1254.24 318.19,2146.22 329.408,1708.83 340.627,1105.54 351.845,877.954 363.063,904.039 374.281,1002.72 385.499,1085.47 396.718,1148.89 407.936,1186.54 
  419.154,1215.6 430.372,1231.25 441.591,1245.59 452.809,1252.15 464.027,1259.61 475.245,1261.82 486.463,1265.52 497.682,1265.43 508.9,1266.96 520.118,1265.75 
  531.336,1266.16 542.554,1264.63 553.773,1264.66 564.991,1263.34 576.209,1263.49 587.427,1262.71 598.645,1263.25 609.864,1263.16 621.082,1264.2 632.3,1264.78 
  643.518,1266.29 654.737,1267.45 665.955,1269.33 677.173,1270.92 688.391,1273.02 699.609,1274.88 710.828,1277.05 722.046,1279.02 733.264,1281.12 744.482,1283.07 
  755.7,1285 766.919,1286.84 778.137,1288.56 789.355,1290.24 800.573,1291.73 811.791,1293.25 823.01,1294.55 834.228,1295.97 845.446,1297.16 856.664,1298.53 
  867.883,1299.73 879.101,1301.16 890.319,1302.5 901.537,1304.09 912.755,1305.72 923.974,1307.56 935.192,1309.63 946.41,1311.77 957.628,1314.42 968.846,1316.86 
  980.065,1320.19 991.283,1322.78 1002.5,1326.74 1013.72,1329.04 1024.94,1333.25 1036.16,1334.13 1047.37,1337.66 1058.59,1336.43 1069.81,1339.56 1081.03,1345.94 
  1092.25,1354.96 1103.46,1363.26 1114.68,1371.57 1125.9,1378.9 1137.12,1384.93 1148.34,1390.19 1159.56,1393.74 1170.77,1397.29 1181.99,1399.72 1193.21,1402.54 
  1204.43,1404.54 1215.65,1406.73 1226.87,1408.29 1238.08,1409.98 1249.3,1411.22 1260.52,1412.53 1271.74,1413.54 1282.96,1414.62 1294.17,1415.52 1305.39,1416.52 
  1316.61,1417.49 1327.83,1418.6 1339.05,1419.81 1350.27,1421.23 1361.48,1422.83 1372.7,1424.67 1383.92,1426.75 1395.14,1429.08 1406.36,1431.67 1417.57,1434.49 
  1428.79,1437.54 1440.01,1440.77 1451.23,1444.18 1462.45,1447.71 1473.67,1451.36 1484.88,1455.06 1496.1,1458.83 1507.32,1462.62 1518.54,1466.46 1529.76,1470.33 
  1540.98,1474.29 1552.19,1478.36 1563.41,1482.63 1574.63,1487.15 1585.85,1492.04 1597.07,1497.32 1608.28,1503.06 1619.5,1509.16 1630.72,1515.42 1641.94,1521.44 
  1653.16,1526.98 1664.38,1531.94 1675.59,1536.32 1686.81,1540.07 1698.03,1543.15 1709.25,1545.56 1720.47,1547.32 1731.68,1548.5 1742.9,1549.17 1754.12,1549.34 
  1765.34,1549.02 1776.56,1548.15 1787.78,1546.65 1798.99,1544.44 1810.21,1541.53 1821.43,1538.04 1832.65,1534.2 1843.87,1530.23 1855.09,1526.24 1866.3,1522.28 
  1877.52,1518.38 1888.74,1514.56 1899.96,1510.8 1911.18,1507.1 1922.39,1503.45 1933.61,1499.86 1944.83,1496.32 1956.05,1492.85 1967.27,1489.44 1978.49,1486.1 
  1989.7,1482.83 2000.92,1479.64 2012.14,1476.53 2023.36,1473.49 2034.58,1470.53 2045.79,1467.62 2057.01,1464.76 2068.23,1461.94 2079.45,1459.14 2090.67,1456.34 
  2101.89,1453.54 2113.1,1450.71 2124.32,1447.86 2135.54,1444.95 2146.76,1442.02 2157.98,1439.02 2169.19,1436.01 2180.41,1432.93 2191.63,1429.86 2202.85,1426.72 
  2214.07,1423.64 2225.29,1420.5 2236.5,1417.47 2247.72,1414.37 2258.94,1411.44 2270.16,1408.44 2281.38,1405.68 2292.6,1402.81 2303.81,1400.29 2315.03,1397.59 
  2326.25,1395.36 2337.47,1392.85 2348.69,1390.98 2359.9,1388.66 2371.12,1387.23 2382.34,1385.1 2393.56,1384.16 2404.78,1382.18 2416,1381.8 2427.21,1379.87 
  2438.43,1380.06 2449.65,1377.97 2460.87,1378.66 2472.09,1375.97 2483.3,1376.75 2494.52,1372.34 2505.74,1371.5 2516.96,1361.4 2528.18,1350.76 2539.4,1316.96 
  2550.61,1256.64 
  "/>
<path clip-path="url(#clip1600)" d="
M2713.92 746.392 L3184.76 746.392 L3184.76 262.552 L2713.92 262.552  Z
  " fill="#ffffff" fill-rule="evenodd" fill-opacity="1"/>
<polyline clip-path="url(#clip1600)" style="stroke:#000000; stroke-width:4; stroke-opacity:1; fill:none" points="
  2713.92,746.392 3184.76,746.392 3184.76,262.552 2713.92,262.552 2713.92,746.392 
  "/>
<polyline clip-path="url(#clip1600)" style="stroke:#009af9; stroke-width:16; stroke-opacity:1; fill:none" points="
  2745.92,323.032 2937.92,323.032 
  "/>
<path clip-path="url(#clip1600)" d="M 0 0 M2991.95 303.633 Q2984.95 303.633 2980.81 308.853 Q2976.7 314.072 2976.7 323.08 Q2976.7 332.056 2980.81 337.275 Q2984.95 342.495 2991.95 342.495 Q2998.95 342.495 3003.03 337.275 Q3007.13 332.056 3007.13 323.08 Q3007.13 314.072 3003.03 308.853 Q2998.95 303.633 2991.95 303.633 M3000.96 345.933 L3009.42 355.195 L3001.66 355.195 L2994.62 347.588 Q2993.57 347.651 2993 347.683 Q2992.46 347.715 2991.95 347.715 Q2981.92 347.715 2975.91 341.031 Q2969.92 334.315 2969.92 323.08 Q2969.92 311.813 2975.91 305.129 Q2981.92 298.413 2991.95 298.413 Q3001.94 298.413 3007.93 305.129 Q3013.91 311.813 3013.91 323.08 Q3013.91 331.355 3010.57 337.244 Q3007.26 343.132 3000.96 345.933 Z" fill="#000000" fill-rule="evenodd" fill-opacity="1" /><path clip-path="url(#clip1600)" d="M 0 0 M3019.45 332.724 L3019.45 311.144 L3025.31 311.144 L3025.31 332.501 Q3025.31 337.562 3027.28 340.108 Q3029.25 342.623 3033.2 342.623 Q3037.94 342.623 3040.68 339.599 Q3043.45 336.575 3043.45 331.355 L3043.45 311.144 L3049.3 311.144 L3049.3 346.792 L3043.45 346.792 L3043.45 341.318 Q3041.31 344.564 3038.48 346.156 Q3035.68 347.715 3031.96 347.715 Q3025.81 347.715 3022.63 343.896 Q3019.45 340.076 3019.45 332.724 M3034.19 310.285 L3034.19 310.285 Z" fill="#000000" fill-rule="evenodd" fill-opacity="1" /><path clip-path="url(#clip1600)" d="M 0 0 M3071.65 328.873 Q3064.55 328.873 3061.81 330.496 Q3059.08 332.119 3059.08 336.034 Q3059.08 339.153 3061.11 340.999 Q3063.18 342.814 3066.71 342.814 Q3071.58 342.814 3074.51 339.376 Q3077.47 335.907 3077.47 330.178 L3077.47 328.873 L3071.65 328.873 M3083.33 326.454 L3083.33 346.792 L3077.47 346.792 L3077.47 341.381 Q3075.47 344.628 3072.47 346.187 Q3069.48 347.715 3065.15 347.715 Q3059.68 347.715 3056.43 344.66 Q3053.22 341.572 3053.22 336.416 Q3053.22 330.4 3057.23 327.345 Q3061.27 324.289 3069.26 324.289 L3077.47 324.289 L3077.47 323.716 Q3077.47 319.674 3074.8 317.478 Q3072.16 315.25 3067.35 315.25 Q3064.29 315.25 3061.4 315.982 Q3058.5 316.714 3055.83 318.178 L3055.83 312.767 Q3059.04 311.526 3062.07 310.921 Q3065.09 310.285 3067.96 310.285 Q3075.69 310.285 3079.51 314.295 Q3083.33 318.306 3083.33 326.454 Z" fill="#000000" fill-rule="evenodd" fill-opacity="1" /><path clip-path="url(#clip1600)" d="M 0 0 M3112.93 316.555 L3112.93 297.267 L3118.79 297.267 L3118.79 346.792 L3112.93 346.792 L3112.93 341.445 Q3111.08 344.628 3108.25 346.187 Q3105.45 347.715 3101.5 347.715 Q3095.04 347.715 3090.97 342.559 Q3086.93 337.403 3086.93 329 Q3086.93 320.597 3090.97 315.441 Q3095.04 310.285 3101.5 310.285 Q3105.45 310.285 3108.25 311.844 Q3111.08 313.372 3112.93 316.555 M3092.97 329 Q3092.97 335.461 3095.61 339.153 Q3098.29 342.814 3102.93 342.814 Q3107.58 342.814 3110.26 339.153 Q3112.93 335.461 3112.93 329 Q3112.93 322.539 3110.26 318.879 Q3107.58 315.186 3102.93 315.186 Q3098.29 315.186 3095.61 318.879 Q3092.97 322.539 3092.97 329 Z" fill="#000000" fill-rule="evenodd" fill-opacity="1" /><path clip-path="url(#clip1600)" d="M 0 0 M3147.59 341.381 L3158.09 341.381 L3158.09 305.129 L3146.67 307.42 L3146.67 301.564 L3158.03 299.272 L3164.46 299.272 L3164.46 341.381 L3174.96 341.381 L3174.96 346.792 L3147.59 346.792 L3147.59 341.381 Z" fill="#000000" fill-rule="evenodd" fill-opacity="1" /><polyline clip-path="url(#clip1600)" style="stroke:#e26f46; stroke-width:16; stroke-opacity:1; fill:none" points="
  2745.92,383.512 2937.92,383.512 
  "/>
<path clip-path="url(#clip1600)" d="M 0 0 M2991.95 364.113 Q2984.95 364.113 2980.81 369.333 Q2976.7 374.552 2976.7 383.56 Q2976.7 392.536 2980.81 397.755 Q2984.95 402.975 2991.95 402.975 Q2998.95 402.975 3003.03 397.755 Q3007.13 392.536 3007.13 383.56 Q3007.13 374.552 3003.03 369.333 Q2998.95 364.113 2991.95 364.113 M3000.96 406.413 L3009.42 415.675 L3001.66 415.675 L2994.62 408.068 Q2993.57 408.131 2993 408.163 Q2992.46 408.195 2991.95 408.195 Q2981.92 408.195 2975.91 401.511 Q2969.92 394.795 2969.92 383.56 Q2969.92 372.293 2975.91 365.609 Q2981.92 358.893 2991.95 358.893 Q3001.94 358.893 3007.93 365.609 Q3013.91 372.293 3013.91 383.56 Q3013.91 391.835 3010.57 397.724 Q3007.26 403.612 3000.96 406.413 Z" fill="#000000" fill-rule="evenodd" fill-opacity="1" /><path clip-path="url(#clip1600)" d="M 0 0 M3019.45 393.204 L3019.45 371.624 L3025.31 371.624 L3025.31 392.981 Q3025.31 398.042 3027.28 400.588 Q3029.25 403.103 3033.2 403.103 Q3037.94 403.103 3040.68 400.079 Q3043.45 397.055 3043.45 391.835 L3043.45 371.624 L3049.3 371.624 L3049.3 407.272 L3043.45 407.272 L3043.45 401.798 Q3041.31 405.044 3038.48 406.636 Q3035.68 408.195 3031.96 408.195 Q3025.81 408.195 3022.63 404.376 Q3019.45 400.556 3019.45 393.204 M3034.19 370.765 L3034.19 370.765 Z" fill="#000000" fill-rule="evenodd" fill-opacity="1" /><path clip-path="url(#clip1600)" d="M 0 0 M3071.65 389.353 Q3064.55 389.353 3061.81 390.976 Q3059.08 392.599 3059.08 396.514 Q3059.08 399.633 3061.11 401.479 Q3063.18 403.294 3066.71 403.294 Q3071.58 403.294 3074.51 399.856 Q3077.47 396.387 3077.47 390.658 L3077.47 389.353 L3071.65 389.353 M3083.33 386.934 L3083.33 407.272 L3077.47 407.272 L3077.47 401.861 Q3075.47 405.108 3072.47 406.667 Q3069.48 408.195 3065.15 408.195 Q3059.68 408.195 3056.43 405.14 Q3053.22 402.052 3053.22 396.896 Q3053.22 390.88 3057.23 387.825 Q3061.27 384.769 3069.26 384.769 L3077.47 384.769 L3077.47 384.196 Q3077.47 380.154 3074.8 377.958 Q3072.16 375.73 3067.35 375.73 Q3064.29 375.73 3061.4 376.462 Q3058.5 377.194 3055.83 378.658 L3055.83 373.247 Q3059.04 372.006 3062.07 371.401 Q3065.09 370.765 3067.96 370.765 Q3075.69 370.765 3079.51 374.775 Q3083.33 378.786 3083.33 386.934 Z" fill="#000000" fill-rule="evenodd" fill-opacity="1" /><path clip-path="url(#clip1600)" d="M 0 0 M3112.93 377.035 L3112.93 357.747 L3118.79 357.747 L3118.79 407.272 L3112.93 407.272 L3112.93 401.925 Q3111.08 405.108 3108.25 406.667 Q3105.45 408.195 3101.5 408.195 Q3095.04 408.195 3090.97 403.039 Q3086.93 397.883 3086.93 389.48 Q3086.93 381.077 3090.97 375.921 Q3095.04 370.765 3101.5 370.765 Q3105.45 370.765 3108.25 372.324 Q3111.08 373.852 3112.93 377.035 M3092.97 389.48 Q3092.97 395.941 3095.61 399.633 Q3098.29 403.294 3102.93 403.294 Q3107.58 403.294 3110.26 399.633 Q3112.93 395.941 3112.93 389.48 Q3112.93 383.019 3110.26 379.359 Q3107.58 375.666 3102.93 375.666 Q3098.29 375.666 3095.61 379.359 Q3092.97 383.019 3092.97 389.48 Z" fill="#000000" fill-rule="evenodd" fill-opacity="1" /><path clip-path="url(#clip1600)" d="M 0 0 M3152.01 401.861 L3174.45 401.861 L3174.45 407.272 L3144.28 407.272 L3144.28 401.861 Q3147.94 398.074 3154.24 391.708 Q3160.58 385.31 3162.2 383.464 Q3165.29 379.995 3166.5 377.608 Q3167.74 375.189 3167.74 372.865 Q3167.74 369.078 3165.06 366.691 Q3162.42 364.304 3158.16 364.304 Q3155.13 364.304 3151.76 365.354 Q3148.42 366.404 3144.6 368.537 L3144.6 362.044 Q3148.48 360.484 3151.86 359.688 Q3155.23 358.893 3158.03 358.893 Q3165.41 358.893 3169.81 362.585 Q3174.2 366.277 3174.2 372.452 Q3174.2 375.38 3173.08 378.022 Q3172 380.632 3169.11 384.196 Q3168.31 385.119 3164.05 389.544 Q3159.78 393.936 3152.01 401.861 Z" fill="#000000" fill-rule="evenodd" fill-opacity="1" /><polyline clip-path="url(#clip1600)" style="stroke:#3da44d; stroke-width:16; stroke-opacity:1; fill:none" points="
  2745.92,443.992 2937.92,443.992 
  "/>
<path clip-path="url(#clip1600)" d="M 0 0 M2991.95 424.593 Q2984.95 424.593 2980.81 429.813 Q2976.7 435.032 2976.7 444.04 Q2976.7 453.016 2980.81 458.235 Q2984.95 463.455 2991.95 463.455 Q2998.95 463.455 3003.03 458.235 Q3007.13 453.016 3007.13 444.04 Q3007.13 435.032 3003.03 429.813 Q2998.95 424.593 2991.95 424.593 M3000.96 466.893 L3009.42 476.155 L3001.66 476.155 L2994.62 468.548 Q2993.57 468.611 2993 468.643 Q2992.46 468.675 2991.95 468.675 Q2981.92 468.675 2975.91 461.991 Q2969.92 455.275 2969.92 444.04 Q2969.92 432.773 2975.91 426.089 Q2981.92 419.373 2991.95 419.373 Q3001.94 419.373 3007.93 426.089 Q3013.91 432.773 3013.91 444.04 Q3013.91 452.315 3010.57 458.204 Q3007.26 464.092 3000.96 466.893 Z" fill="#000000" fill-rule="evenodd" fill-opacity="1" /><path clip-path="url(#clip1600)" d="M 0 0 M3019.45 453.684 L3019.45 432.104 L3025.31 432.104 L3025.31 453.461 Q3025.31 458.522 3027.28 461.068 Q3029.25 463.583 3033.2 463.583 Q3037.94 463.583 3040.68 460.559 Q3043.45 457.535 3043.45 452.315 L3043.45 432.104 L3049.3 432.104 L3049.3 467.752 L3043.45 467.752 L3043.45 462.278 Q3041.31 465.524 3038.48 467.116 Q3035.68 468.675 3031.96 468.675 Q3025.81 468.675 3022.63 464.856 Q3019.45 461.036 3019.45 453.684 M3034.19 431.245 L3034.19 431.245 Z" fill="#000000" fill-rule="evenodd" fill-opacity="1" /><path clip-path="url(#clip1600)" d="M 0 0 M3071.65 449.833 Q3064.55 449.833 3061.81 451.456 Q3059.08 453.079 3059.08 456.994 Q3059.08 460.113 3061.11 461.959 Q3063.18 463.774 3066.71 463.774 Q3071.58 463.774 3074.51 460.336 Q3077.47 456.867 3077.47 451.138 L3077.47 449.833 L3071.65 449.833 M3083.33 447.414 L3083.33 467.752 L3077.47 467.752 L3077.47 462.341 Q3075.47 465.588 3072.47 467.147 Q3069.48 468.675 3065.15 468.675 Q3059.68 468.675 3056.43 465.62 Q3053.22 462.532 3053.22 457.376 Q3053.22 451.36 3057.23 448.305 Q3061.27 445.249 3069.26 445.249 L3077.47 445.249 L3077.47 444.676 Q3077.47 440.634 3074.8 438.438 Q3072.16 436.21 3067.35 436.21 Q3064.29 436.21 3061.4 436.942 Q3058.5 437.674 3055.83 439.138 L3055.83 433.727 Q3059.04 432.486 3062.07 431.881 Q3065.09 431.245 3067.96 431.245 Q3075.69 431.245 3079.51 435.255 Q3083.33 439.266 3083.33 447.414 Z" fill="#000000" fill-rule="evenodd" fill-opacity="1" /><path clip-path="url(#clip1600)" d="M 0 0 M3112.93 437.515 L3112.93 418.227 L3118.79 418.227 L3118.79 467.752 L3112.93 467.752 L3112.93 462.405 Q3111.08 465.588 3108.25 467.147 Q3105.45 468.675 3101.5 468.675 Q3095.04 468.675 3090.97 463.519 Q3086.93 458.363 3086.93 449.96 Q3086.93 441.557 3090.97 436.401 Q3095.04 431.245 3101.5 431.245 Q3105.45 431.245 3108.25 432.804 Q3111.08 434.332 3112.93 437.515 M3092.97 449.96 Q3092.97 456.421 3095.61 460.113 Q3098.29 463.774 3102.93 463.774 Q3107.58 463.774 3110.26 460.113 Q3112.93 456.421 3112.93 449.96 Q3112.93 443.499 3110.26 439.839 Q3107.58 436.146 3102.93 436.146 Q3098.29 436.146 3095.61 439.839 Q3092.97 443.499 3092.97 449.96 Z" fill="#000000" fill-rule="evenodd" fill-opacity="1" /><path clip-path="url(#clip1600)" d="M 0 0 M3165.96 442.13 Q3170.57 443.117 3173.15 446.236 Q3175.76 449.355 3175.76 453.939 Q3175.76 460.973 3170.92 464.824 Q3166.08 468.675 3157.17 468.675 Q3154.18 468.675 3151 468.07 Q3147.84 467.497 3144.47 466.32 L3144.47 460.113 Q3147.14 461.673 3150.33 462.469 Q3153.51 463.264 3156.98 463.264 Q3163.03 463.264 3166.18 460.877 Q3169.36 458.49 3169.36 453.939 Q3169.36 449.737 3166.4 447.382 Q3163.47 444.995 3158.22 444.995 L3152.68 444.995 L3152.68 439.711 L3158.48 439.711 Q3163.22 439.711 3165.73 437.833 Q3168.25 435.924 3168.25 432.359 Q3168.25 428.699 3165.64 426.757 Q3163.06 424.784 3158.22 424.784 Q3155.58 424.784 3152.56 425.357 Q3149.53 425.929 3145.9 427.139 L3145.9 421.41 Q3149.56 420.391 3152.75 419.882 Q3155.96 419.373 3158.79 419.373 Q3166.11 419.373 3170.38 422.715 Q3174.64 426.025 3174.64 431.69 Q3174.64 435.637 3172.38 438.374 Q3170.12 441.08 3165.96 442.13 Z" fill="#000000" fill-rule="evenodd" fill-opacity="1" /><polyline clip-path="url(#clip1600)" style="stroke:#c271d2; stroke-width:16; stroke-opacity:1; fill:none" points="
  2745.92,504.472 2937.92,504.472 
  "/>
<path clip-path="url(#clip1600)" d="M 0 0 M2991.95 485.073 Q2984.95 485.073 2980.81 490.293 Q2976.7 495.512 2976.7 504.52 Q2976.7 513.496 2980.81 518.715 Q2984.95 523.935 2991.95 523.935 Q2998.95 523.935 3003.03 518.715 Q3007.13 513.496 3007.13 504.52 Q3007.13 495.512 3003.03 490.293 Q2998.95 485.073 2991.95 485.073 M3000.96 527.373 L3009.42 536.635 L3001.66 536.635 L2994.62 529.028 Q2993.57 529.091 2993 529.123 Q2992.46 529.155 2991.95 529.155 Q2981.92 529.155 2975.91 522.471 Q2969.92 515.755 2969.92 504.52 Q2969.92 493.253 2975.91 486.569 Q2981.92 479.853 2991.95 479.853 Q3001.94 479.853 3007.93 486.569 Q3013.91 493.253 3013.91 504.52 Q3013.91 512.795 3010.57 518.684 Q3007.26 524.572 3000.96 527.373 Z" fill="#000000" fill-rule="evenodd" fill-opacity="1" /><path clip-path="url(#clip1600)" d="M 0 0 M3019.45 514.164 L3019.45 492.584 L3025.31 492.584 L3025.31 513.941 Q3025.31 519.002 3027.28 521.548 Q3029.25 524.063 3033.2 524.063 Q3037.94 524.063 3040.68 521.039 Q3043.45 518.015 3043.45 512.795 L3043.45 492.584 L3049.3 492.584 L3049.3 528.232 L3043.45 528.232 L3043.45 522.758 Q3041.31 526.004 3038.48 527.596 Q3035.68 529.155 3031.96 529.155 Q3025.81 529.155 3022.63 525.336 Q3019.45 521.516 3019.45 514.164 M3034.19 491.725 L3034.19 491.725 Z" fill="#000000" fill-rule="evenodd" fill-opacity="1" /><path clip-path="url(#clip1600)" d="M 0 0 M3071.65 510.313 Q3064.55 510.313 3061.81 511.936 Q3059.08 513.559 3059.08 517.474 Q3059.08 520.593 3061.11 522.439 Q3063.18 524.254 3066.71 524.254 Q3071.58 524.254 3074.51 520.816 Q3077.47 517.347 3077.47 511.618 L3077.47 510.313 L3071.65 510.313 M3083.33 507.894 L3083.33 528.232 L3077.47 528.232 L3077.47 522.821 Q3075.47 526.068 3072.47 527.627 Q3069.48 529.155 3065.15 529.155 Q3059.68 529.155 3056.43 526.1 Q3053.22 523.012 3053.22 517.856 Q3053.22 511.84 3057.23 508.785 Q3061.27 505.729 3069.26 505.729 L3077.47 505.729 L3077.47 505.156 Q3077.47 501.114 3074.8 498.918 Q3072.16 496.69 3067.35 496.69 Q3064.29 496.69 3061.4 497.422 Q3058.5 498.154 3055.83 499.618 L3055.83 494.207 Q3059.04 492.966 3062.07 492.361 Q3065.09 491.725 3067.96 491.725 Q3075.69 491.725 3079.51 495.735 Q3083.33 499.746 3083.33 507.894 Z" fill="#000000" fill-rule="evenodd" fill-opacity="1" /><path clip-path="url(#clip1600)" d="M 0 0 M3112.93 497.995 L3112.93 478.707 L3118.79 478.707 L3118.79 528.232 L3112.93 528.232 L3112.93 522.885 Q3111.08 526.068 3108.25 527.627 Q3105.45 529.155 3101.5 529.155 Q3095.04 529.155 3090.97 523.999 Q3086.93 518.843 3086.93 510.44 Q3086.93 502.037 3090.97 496.881 Q3095.04 491.725 3101.5 491.725 Q3105.45 491.725 3108.25 493.284 Q3111.08 494.812 3112.93 497.995 M3092.97 510.44 Q3092.97 516.901 3095.61 520.593 Q3098.29 524.254 3102.93 524.254 Q3107.58 524.254 3110.26 520.593 Q3112.93 516.901 3112.93 510.44 Q3112.93 503.979 3110.26 500.319 Q3107.58 496.626 3102.93 496.626 Q3098.29 496.626 3095.61 500.319 Q3092.97 503.979 3092.97 510.44 Z" fill="#000000" fill-rule="evenodd" fill-opacity="1" /><path clip-path="url(#clip1600)" d="M 0 0 M3164.14 486.314 L3147.91 511.681 L3164.14 511.681 L3164.14 486.314 M3162.45 480.712 L3170.54 480.712 L3170.54 511.681 L3177.32 511.681 L3177.32 517.028 L3170.54 517.028 L3170.54 528.232 L3164.14 528.232 L3164.14 517.028 L3142.69 517.028 L3142.69 510.822 L3162.45 480.712 Z" fill="#000000" fill-rule="evenodd" fill-opacity="1" /><polyline clip-path="url(#clip1600)" style="stroke:#ac8d18; stroke-width:16; stroke-opacity:1; fill:none" points="
  2745.92,564.952 2937.92,564.952 
  "/>
<path clip-path="url(#clip1600)" d="M 0 0 M2991.95 545.553 Q2984.95 545.553 2980.81 550.773 Q2976.7 555.992 2976.7 565 Q2976.7 573.976 2980.81 579.195 Q2984.95 584.415 2991.95 584.415 Q2998.95 584.415 3003.03 579.195 Q3007.13 573.976 3007.13 565 Q3007.13 555.992 3003.03 550.773 Q2998.95 545.553 2991.95 545.553 M3000.96 587.853 L3009.42 597.115 L3001.66 597.115 L2994.62 589.508 Q2993.57 589.571 2993 589.603 Q2992.46 589.635 2991.95 589.635 Q2981.92 589.635 2975.91 582.951 Q2969.92 576.235 2969.92 565 Q2969.92 553.733 2975.91 547.049 Q2981.92 540.333 2991.95 540.333 Q3001.94 540.333 3007.93 547.049 Q3013.91 553.733 3013.91 565 Q3013.91 573.275 3010.57 579.164 Q3007.26 585.052 3000.96 587.853 Z" fill="#000000" fill-rule="evenodd" fill-opacity="1" /><path clip-path="url(#clip1600)" d="M 0 0 M3019.45 574.644 L3019.45 553.064 L3025.31 553.064 L3025.31 574.421 Q3025.31 579.482 3027.28 582.028 Q3029.25 584.543 3033.2 584.543 Q3037.94 584.543 3040.68 581.519 Q3043.45 578.495 3043.45 573.275 L3043.45 553.064 L3049.3 553.064 L3049.3 588.712 L3043.45 588.712 L3043.45 583.238 Q3041.31 586.484 3038.48 588.076 Q3035.68 589.635 3031.96 589.635 Q3025.81 589.635 3022.63 585.816 Q3019.45 581.996 3019.45 574.644 M3034.19 552.205 L3034.19 552.205 Z" fill="#000000" fill-rule="evenodd" fill-opacity="1" /><path clip-path="url(#clip1600)" d="M 0 0 M3071.65 570.793 Q3064.55 570.793 3061.81 572.416 Q3059.08 574.039 3059.08 577.954 Q3059.08 581.073 3061.11 582.919 Q3063.18 584.734 3066.71 584.734 Q3071.58 584.734 3074.51 581.296 Q3077.47 577.827 3077.47 572.098 L3077.47 570.793 L3071.65 570.793 M3083.33 568.374 L3083.33 588.712 L3077.47 588.712 L3077.47 583.301 Q3075.47 586.548 3072.47 588.107 Q3069.48 589.635 3065.15 589.635 Q3059.68 589.635 3056.43 586.58 Q3053.22 583.492 3053.22 578.336 Q3053.22 572.32 3057.23 569.265 Q3061.27 566.209 3069.26 566.209 L3077.47 566.209 L3077.47 565.636 Q3077.47 561.594 3074.8 559.398 Q3072.16 557.17 3067.35 557.17 Q3064.29 557.17 3061.4 557.902 Q3058.5 558.634 3055.83 560.098 L3055.83 554.687 Q3059.04 553.446 3062.07 552.841 Q3065.09 552.205 3067.96 552.205 Q3075.69 552.205 3079.51 556.215 Q3083.33 560.226 3083.33 568.374 Z" fill="#000000" fill-rule="evenodd" fill-opacity="1" /><path clip-path="url(#clip1600)" d="M 0 0 M3112.93 558.475 L3112.93 539.187 L3118.79 539.187 L3118.79 588.712 L3112.93 588.712 L3112.93 583.365 Q3111.08 586.548 3108.25 588.107 Q3105.45 589.635 3101.5 589.635 Q3095.04 589.635 3090.97 584.479 Q3086.93 579.323 3086.93 570.92 Q3086.93 562.517 3090.97 557.361 Q3095.04 552.205 3101.5 552.205 Q3105.45 552.205 3108.25 553.764 Q3111.08 555.292 3112.93 558.475 M3092.97 570.92 Q3092.97 577.381 3095.61 581.073 Q3098.29 584.734 3102.93 584.734 Q3107.58 584.734 3110.26 581.073 Q3112.93 577.381 3112.93 570.92 Q3112.93 564.459 3110.26 560.799 Q3107.58 557.106 3102.93 557.106 Q3098.29 557.106 3095.61 560.799 Q3092.97 564.459 3092.97 570.92 Z" fill="#000000" fill-rule="evenodd" fill-opacity="1" /><path clip-path="url(#clip1600)" d="M 0 0 M3146.54 541.192 L3171.78 541.192 L3171.78 546.603 L3152.43 546.603 L3152.43 558.252 Q3153.83 557.775 3155.23 557.552 Q3156.63 557.297 3158.03 557.297 Q3165.99 557.297 3170.63 561.658 Q3175.28 566.018 3175.28 573.466 Q3175.28 581.137 3170.51 585.402 Q3165.73 589.635 3157.04 589.635 Q3154.05 589.635 3150.93 589.126 Q3147.84 588.617 3144.53 587.598 L3144.53 581.137 Q3147.4 582.697 3150.45 583.46 Q3153.51 584.224 3156.92 584.224 Q3162.42 584.224 3165.64 581.328 Q3168.85 578.432 3168.85 573.466 Q3168.85 568.501 3165.64 565.605 Q3162.42 562.708 3156.92 562.708 Q3154.34 562.708 3151.76 563.281 Q3149.21 563.854 3146.54 565.064 L3146.54 541.192 Z" fill="#000000" fill-rule="evenodd" fill-opacity="1" /><polyline clip-path="url(#clip1600)" style="stroke:#00a9ad; stroke-width:16; stroke-opacity:1; fill:none" points="
  2745.92,625.432 2937.92,625.432 
  "/>
<path clip-path="url(#clip1600)" d="M 0 0 M2991.95 606.033 Q2984.95 606.033 2980.81 611.253 Q2976.7 616.472 2976.7 625.48 Q2976.7 634.456 2980.81 639.675 Q2984.95 644.895 2991.95 644.895 Q2998.95 644.895 3003.03 639.675 Q3007.13 634.456 3007.13 625.48 Q3007.13 616.472 3003.03 611.253 Q2998.95 606.033 2991.95 606.033 M3000.96 648.333 L3009.42 657.595 L3001.66 657.595 L2994.62 649.988 Q2993.57 650.051 2993 650.083 Q2992.46 650.115 2991.95 650.115 Q2981.92 650.115 2975.91 643.431 Q2969.92 636.715 2969.92 625.48 Q2969.92 614.213 2975.91 607.529 Q2981.92 600.813 2991.95 600.813 Q3001.94 600.813 3007.93 607.529 Q3013.91 614.213 3013.91 625.48 Q3013.91 633.755 3010.57 639.644 Q3007.26 645.532 3000.96 648.333 Z" fill="#000000" fill-rule="evenodd" fill-opacity="1" /><path clip-path="url(#clip1600)" d="M 0 0 M3019.45 635.124 L3019.45 613.544 L3025.31 613.544 L3025.31 634.901 Q3025.31 639.962 3027.28 642.508 Q3029.25 645.023 3033.2 645.023 Q3037.94 645.023 3040.68 641.999 Q3043.45 638.975 3043.45 633.755 L3043.45 613.544 L3049.3 613.544 L3049.3 649.192 L3043.45 649.192 L3043.45 643.718 Q3041.31 646.964 3038.48 648.556 Q3035.68 650.115 3031.96 650.115 Q3025.81 650.115 3022.63 646.296 Q3019.45 642.476 3019.45 635.124 M3034.19 612.685 L3034.19 612.685 Z" fill="#000000" fill-rule="evenodd" fill-opacity="1" /><path clip-path="url(#clip1600)" d="M 0 0 M3071.65 631.273 Q3064.55 631.273 3061.81 632.896 Q3059.08 634.519 3059.08 638.434 Q3059.08 641.553 3061.11 643.399 Q3063.18 645.214 3066.71 645.214 Q3071.58 645.214 3074.51 641.776 Q3077.47 638.307 3077.47 632.578 L3077.47 631.273 L3071.65 631.273 M3083.33 628.854 L3083.33 649.192 L3077.47 649.192 L3077.47 643.781 Q3075.47 647.028 3072.47 648.587 Q3069.48 650.115 3065.15 650.115 Q3059.68 650.115 3056.43 647.06 Q3053.22 643.972 3053.22 638.816 Q3053.22 632.8 3057.23 629.745 Q3061.27 626.689 3069.26 626.689 L3077.47 626.689 L3077.47 626.116 Q3077.47 622.074 3074.8 619.878 Q3072.16 617.65 3067.35 617.65 Q3064.29 617.65 3061.4 618.382 Q3058.5 619.114 3055.83 620.578 L3055.83 615.167 Q3059.04 613.926 3062.07 613.321 Q3065.09 612.685 3067.96 612.685 Q3075.69 612.685 3079.51 616.695 Q3083.33 620.706 3083.33 628.854 Z" fill="#000000" fill-rule="evenodd" fill-opacity="1" /><path clip-path="url(#clip1600)" d="M 0 0 M3112.93 618.955 L3112.93 599.667 L3118.79 599.667 L3118.79 649.192 L3112.93 649.192 L3112.93 643.845 Q3111.08 647.028 3108.25 648.587 Q3105.45 650.115 3101.5 650.115 Q3095.04 650.115 3090.97 644.959 Q3086.93 639.803 3086.93 631.4 Q3086.93 622.997 3090.97 617.841 Q3095.04 612.685 3101.5 612.685 Q3105.45 612.685 3108.25 614.244 Q3111.08 615.772 3112.93 618.955 M3092.97 631.4 Q3092.97 637.861 3095.61 641.553 Q3098.29 645.214 3102.93 645.214 Q3107.58 645.214 3110.26 641.553 Q3112.93 637.861 3112.93 631.4 Q3112.93 624.939 3110.26 621.279 Q3107.58 617.586 3102.93 617.586 Q3098.29 617.586 3095.61 621.279 Q3092.97 624.939 3092.97 631.4 Z" fill="#000000" fill-rule="evenodd" fill-opacity="1" /><path clip-path="url(#clip1600)" d="M 0 0 M3161.02 622.87 Q3156.69 622.87 3154.15 625.83 Q3151.63 628.79 3151.63 633.946 Q3151.63 639.071 3154.15 642.063 Q3156.69 645.023 3161.02 645.023 Q3165.35 645.023 3167.87 642.063 Q3170.41 639.071 3170.41 633.946 Q3170.41 628.79 3167.87 625.83 Q3165.35 622.87 3161.02 622.87 M3173.79 602.722 L3173.79 608.579 Q3171.37 607.433 3168.88 606.828 Q3166.43 606.224 3164.01 606.224 Q3157.65 606.224 3154.27 610.52 Q3150.93 614.817 3150.45 623.506 Q3152.33 620.737 3155.17 619.273 Q3158 617.777 3161.4 617.777 Q3168.57 617.777 3172.7 622.138 Q3176.87 626.467 3176.87 633.946 Q3176.87 641.267 3172.54 645.691 Q3168.22 650.115 3161.02 650.115 Q3152.78 650.115 3148.42 643.813 Q3144.06 637.479 3144.06 625.48 Q3144.06 614.213 3149.4 607.529 Q3154.75 600.813 3163.76 600.813 Q3166.18 600.813 3168.63 601.29 Q3171.11 601.768 3173.79 602.722 Z" fill="#000000" fill-rule="evenodd" fill-opacity="1" /><polyline clip-path="url(#clip1600)" style="stroke:#ed5d92; stroke-width:16; stroke-opacity:1; fill:none" points="
  2745.92,685.912 2937.92,685.912 
  "/>
<path clip-path="url(#clip1600)" d="M 0 0 M2969.92 662.152 L2976.35 662.152 L2976.35 704.261 L2999.49 704.261 L2999.49 709.672 L2969.92 709.672 L2969.92 662.152 Z" fill="#000000" fill-rule="evenodd" fill-opacity="1" /><path clip-path="url(#clip1600)" d="M 0 0 M3018.3 678.13 Q3013.59 678.13 3010.85 681.822 Q3008.12 685.482 3008.12 691.88 Q3008.12 698.278 3010.82 701.97 Q3013.56 705.63 3018.3 705.63 Q3022.98 705.63 3025.72 701.938 Q3028.46 698.246 3028.46 691.88 Q3028.46 685.546 3025.72 681.854 Q3022.98 678.13 3018.3 678.13 M3018.3 673.165 Q3025.94 673.165 3030.3 678.13 Q3034.66 683.095 3034.66 691.88 Q3034.66 700.633 3030.3 705.63 Q3025.94 710.595 3018.3 710.595 Q3010.63 710.595 3006.27 705.63 Q3001.94 700.633 3001.94 691.88 Q3001.94 683.095 3006.27 678.13 Q3010.63 673.165 3018.3 673.165 Z" fill="#000000" fill-rule="evenodd" fill-opacity="1" /><path clip-path="url(#clip1600)" d="M 0 0 M3057.01 691.753 Q3049.91 691.753 3047.17 693.376 Q3044.43 694.999 3044.43 698.914 Q3044.43 702.033 3046.47 703.879 Q3048.54 705.694 3052.07 705.694 Q3056.94 705.694 3059.87 702.256 Q3062.83 698.787 3062.83 693.058 L3062.83 691.753 L3057.01 691.753 M3068.69 689.334 L3068.69 709.672 L3062.83 709.672 L3062.83 704.261 Q3060.83 707.508 3057.83 709.067 Q3054.84 710.595 3050.51 710.595 Q3045.04 710.595 3041.79 707.54 Q3038.58 704.452 3038.58 699.296 Q3038.58 693.28 3042.59 690.225 Q3046.63 687.169 3054.62 687.169 L3062.83 687.169 L3062.83 686.596 Q3062.83 682.554 3060.16 680.358 Q3057.52 678.13 3052.71 678.13 Q3049.65 678.13 3046.76 678.862 Q3043.86 679.594 3041.19 681.058 L3041.19 675.647 Q3044.4 674.406 3047.43 673.801 Q3050.45 673.165 3053.31 673.165 Q3061.05 673.165 3064.87 677.175 Q3068.69 681.186 3068.69 689.334 Z" fill="#000000" fill-rule="evenodd" fill-opacity="1" /><path clip-path="url(#clip1600)" d="M 0 0 M3098.29 679.435 L3098.29 660.147 L3104.14 660.147 L3104.14 709.672 L3098.29 709.672 L3098.29 704.325 Q3096.44 707.508 3093.61 709.067 Q3090.81 710.595 3086.86 710.595 Q3080.4 710.595 3076.33 705.439 Q3072.28 700.283 3072.28 691.88 Q3072.28 683.477 3076.33 678.321 Q3080.4 673.165 3086.86 673.165 Q3090.81 673.165 3093.61 674.724 Q3096.44 676.252 3098.29 679.435 M3078.33 691.88 Q3078.33 698.341 3080.97 702.033 Q3083.65 705.694 3088.29 705.694 Q3092.94 705.694 3095.61 702.033 Q3098.29 698.341 3098.29 691.88 Q3098.29 685.419 3095.61 681.759 Q3092.94 678.066 3088.29 678.066 Q3083.65 678.066 3080.97 681.759 Q3078.33 685.419 3078.33 691.88 Z" fill="#000000" fill-rule="evenodd" fill-opacity="1" /></svg>
