<?xml version="1.0" encoding="utf-8"?>
<svg xmlns="http://www.w3.org/2000/svg" xmlns:xlink="http://www.w3.org/1999/xlink" width="800" height="600" viewBox="0 0 3200 2400">
<defs>
  <clipPath id="clip0100">
    <rect x="0" y="0" width="3200" height="2400"/>
  </clipPath>
</defs>
<path clip-path="url(#clip0100)" d="
M0 2400 L3200 2400 L3200 0 L0 0  Z
  " fill="#ffffff" fill-rule="evenodd" fill-opacity="1"/>
<defs>
  <clipPath id="clip0101">
    <rect x="640" y="0" width="2241" height="2241"/>
  </clipPath>
</defs>
<path clip-path="url(#clip0100)" d="
M241.144 2204.92 L2617.92 2204.92 L2617.92 131.032 L241.144 131.032  Z
  " fill="#ffffff" fill-rule="evenodd" fill-opacity="1"/>
<defs>
  <clipPath id="clip0102">
    <rect x="241" y="131" width="2378" height="2075"/>
  </clipPath>
</defs>
<polyline clip-path="url(#clip0102)" style="stroke:#000000; stroke-width:2; stroke-opacity:0.1; fill:none" points="
  308.412,2204.92 308.412,131.032 
  "/>
<polyline clip-path="url(#clip0102)" style="stroke:#000000; stroke-width:2; stroke-opacity:0.1; fill:none" points="
  756.86,2204.92 756.86,131.032 
  "/>
<polyline clip-path="url(#clip0102)" style="stroke:#000000; stroke-width:2; stroke-opacity:0.1; fill:none" points="
  1205.31,2204.92 1205.31,131.032 
  "/>
<polyline clip-path="url(#clip0102)" style="stroke:#000000; stroke-width:2; stroke-opacity:0.1; fill:none" points="
  1653.76,2204.92 1653.76,131.032 
  "/>
<polyline clip-path="url(#clip0102)" style="stroke:#000000; stroke-width:2; stroke-opacity:0.1; fill:none" points="
  2102.21,2204.92 2102.21,131.032 
  "/>
<polyline clip-path="url(#clip0102)" style="stroke:#000000; stroke-width:2; stroke-opacity:0.1; fill:none" points="
  2550.66,2204.92 2550.66,131.032 
  "/>
<polyline clip-path="url(#clip0102)" style="stroke:#000000; stroke-width:2; stroke-opacity:0.1; fill:none" points="
  241.144,1899.75 2617.92,1899.75 
  "/>
<polyline clip-path="url(#clip0102)" style="stroke:#000000; stroke-width:2; stroke-opacity:0.1; fill:none" points="
  241.144,1417.23 2617.92,1417.23 
  "/>
<polyline clip-path="url(#clip0102)" style="stroke:#000000; stroke-width:2; stroke-opacity:0.1; fill:none" points="
  241.144,934.716 2617.92,934.716 
  "/>
<polyline clip-path="url(#clip0102)" style="stroke:#000000; stroke-width:2; stroke-opacity:0.1; fill:none" points="
  241.144,452.198 2617.92,452.198 
  "/>
<polyline clip-path="url(#clip0100)" style="stroke:#000000; stroke-width:4; stroke-opacity:1; fill:none" points="
  241.144,2204.92 2617.92,2204.92 
  "/>
<polyline clip-path="url(#clip0100)" style="stroke:#000000; stroke-width:4; stroke-opacity:1; fill:none" points="
  241.144,2204.92 241.144,131.032 
  "/>
<polyline clip-path="url(#clip0100)" style="stroke:#000000; stroke-width:4; stroke-opacity:1; fill:none" points="
  308.412,2204.92 308.412,2180.03 
  "/>
<polyline clip-path="url(#clip0100)" style="stroke:#000000; stroke-width:4; stroke-opacity:1; fill:none" points="
  756.86,2204.92 756.86,2180.03 
  "/>
<polyline clip-path="url(#clip0100)" style="stroke:#000000; stroke-width:4; stroke-opacity:1; fill:none" points="
  1205.31,2204.92 1205.31,2180.03 
  "/>
<polyline clip-path="url(#clip0100)" style="stroke:#000000; stroke-width:4; stroke-opacity:1; fill:none" points="
  1653.76,2204.92 1653.76,2180.03 
  "/>
<polyline clip-path="url(#clip0100)" style="stroke:#000000; stroke-width:4; stroke-opacity:1; fill:none" points="
  2102.21,2204.92 2102.21,2180.03 
  "/>
<polyline clip-path="url(#clip0100)" style="stroke:#000000; stroke-width:4; stroke-opacity:1; fill:none" points="
  2550.66,2204.92 2550.66,2180.03 
  "/>
<polyline clip-path="url(#clip0100)" style="stroke:#000000; stroke-width:4; stroke-opacity:1; fill:none" points="
  241.144,1899.75 269.666,1899.75 
  "/>
<polyline clip-path="url(#clip0100)" style="stroke:#000000; stroke-width:4; stroke-opacity:1; fill:none" points="
  241.144,1417.23 269.666,1417.23 
  "/>
<polyline clip-path="url(#clip0100)" style="stroke:#000000; stroke-width:4; stroke-opacity:1; fill:none" points="
  241.144,934.716 269.666,934.716 
  "/>
<polyline clip-path="url(#clip0100)" style="stroke:#000000; stroke-width:4; stroke-opacity:1; fill:none" points="
  241.144,452.198 269.666,452.198 
  "/>
<path clip-path="url(#clip0100)" d="M 0 0 M308.412 2230.91 Q304.8 2230.91 302.972 2234.48 Q301.166 2238.02 301.166 2245.15 Q301.166 2252.25 302.972 2255.82 Q304.8 2259.36 308.412 2259.36 Q312.046 2259.36 313.851 2255.82 Q315.68 2252.25 315.68 2245.15 Q315.68 2238.02 313.851 2234.48 Q312.046 2230.91 308.412 2230.91 M308.412 2227.21 Q314.222 2227.21 317.277 2231.81 Q320.356 2236.4 320.356 2245.15 Q320.356 2253.87 317.277 2258.48 Q314.222 2263.06 308.412 2263.06 Q302.601 2263.06 299.523 2258.48 Q296.467 2253.87 296.467 2245.15 Q296.467 2236.4 299.523 2231.81 Q302.601 2227.21 308.412 2227.21 Z" fill="#000000" fill-rule="evenodd" fill-opacity="1" /><path clip-path="url(#clip0100)" d="M 0 0 M747.242 2258.46 L754.881 2258.46 L754.881 2232.09 L746.571 2233.76 L746.571 2229.5 L754.835 2227.83 L759.511 2227.83 L759.511 2258.46 L767.15 2258.46 L767.15 2262.39 L747.242 2262.39 L747.242 2258.46 Z" fill="#000000" fill-rule="evenodd" fill-opacity="1" /><path clip-path="url(#clip0100)" d="M 0 0 M1199.96 2258.46 L1216.28 2258.46 L1216.28 2262.39 L1194.34 2262.39 L1194.34 2258.46 Q1197 2255.7 1201.58 2251.07 Q1206.19 2246.42 1207.37 2245.08 Q1209.61 2242.55 1210.49 2240.82 Q1211.4 2239.06 1211.4 2237.37 Q1211.4 2234.61 1209.45 2232.88 Q1207.53 2231.14 1204.43 2231.14 Q1202.23 2231.14 1199.78 2231.91 Q1197.35 2232.67 1194.57 2234.22 L1194.57 2229.5 Q1197.39 2228.36 1199.85 2227.79 Q1202.3 2227.21 1204.34 2227.21 Q1209.71 2227.21 1212.9 2229.89 Q1216.1 2232.58 1216.1 2237.07 Q1216.1 2239.2 1215.29 2241.12 Q1214.5 2243.02 1212.39 2245.61 Q1211.81 2246.28 1208.71 2249.5 Q1205.61 2252.69 1199.96 2258.46 Z" fill="#000000" fill-rule="evenodd" fill-opacity="1" /><path clip-path="url(#clip0100)" d="M 0 0 M1658.01 2243.76 Q1661.36 2244.48 1663.24 2246.74 Q1665.14 2249.01 1665.14 2252.35 Q1665.14 2257.46 1661.62 2260.26 Q1658.1 2263.06 1651.62 2263.06 Q1649.44 2263.06 1647.13 2262.62 Q1644.83 2262.21 1642.38 2261.35 L1642.38 2256.84 Q1644.33 2257.97 1646.64 2258.55 Q1648.96 2259.13 1651.48 2259.13 Q1655.88 2259.13 1658.17 2257.39 Q1660.48 2255.66 1660.48 2252.35 Q1660.48 2249.29 1658.33 2247.58 Q1656.2 2245.84 1652.38 2245.84 L1648.35 2245.84 L1648.35 2242 L1652.57 2242 Q1656.02 2242 1657.84 2240.63 Q1659.67 2239.24 1659.67 2236.65 Q1659.67 2233.99 1657.77 2232.58 Q1655.9 2231.14 1652.38 2231.14 Q1650.46 2231.14 1648.26 2231.56 Q1646.06 2231.98 1643.42 2232.85 L1643.42 2228.69 Q1646.08 2227.95 1648.4 2227.58 Q1650.74 2227.21 1652.8 2227.21 Q1658.12 2227.21 1661.22 2229.64 Q1664.33 2232.04 1664.33 2236.17 Q1664.33 2239.04 1662.68 2241.03 Q1661.04 2242.99 1658.01 2243.76 Z" fill="#000000" fill-rule="evenodd" fill-opacity="1" /><path clip-path="url(#clip0100)" d="M 0 0 M2105.22 2231.91 L2093.41 2250.35 L2105.22 2250.35 L2105.22 2231.91 M2103.99 2227.83 L2109.87 2227.83 L2109.87 2250.35 L2114.8 2250.35 L2114.8 2254.24 L2109.87 2254.24 L2109.87 2262.39 L2105.22 2262.39 L2105.22 2254.24 L2089.61 2254.24 L2089.61 2249.73 L2103.99 2227.83 Z" fill="#000000" fill-rule="evenodd" fill-opacity="1" /><path clip-path="url(#clip0100)" d="M 0 0 M2540.93 2227.83 L2559.29 2227.83 L2559.29 2231.77 L2545.22 2231.77 L2545.22 2240.24 Q2546.23 2239.89 2547.25 2239.73 Q2548.27 2239.54 2549.29 2239.54 Q2555.08 2239.54 2558.46 2242.72 Q2561.84 2245.89 2561.84 2251.3 Q2561.84 2256.88 2558.36 2259.98 Q2554.89 2263.06 2548.57 2263.06 Q2546.4 2263.06 2544.13 2262.69 Q2541.88 2262.32 2539.48 2261.58 L2539.48 2256.88 Q2541.56 2258.02 2543.78 2258.57 Q2546 2259.13 2548.48 2259.13 Q2552.48 2259.13 2554.82 2257.02 Q2557.16 2254.92 2557.16 2251.3 Q2557.16 2247.69 2554.82 2245.59 Q2552.48 2243.48 2548.48 2243.48 Q2546.61 2243.48 2544.73 2243.9 Q2542.88 2244.31 2540.93 2245.19 L2540.93 2227.83 Z" fill="#000000" fill-rule="evenodd" fill-opacity="1" /><path clip-path="url(#clip0100)" d="M 0 0 M132.524 1902.15 L145.001 1902.15 L145.001 1905.94 L132.524 1905.94 L132.524 1902.15 Z" fill="#000000" fill-rule="evenodd" fill-opacity="1" /><path clip-path="url(#clip0100)" d="M 0 0 M160.07 1885.55 Q156.459 1885.55 154.631 1889.12 Q152.825 1892.66 152.825 1899.79 Q152.825 1906.89 154.631 1910.46 Q156.459 1914 160.07 1914 Q163.705 1914 165.51 1910.46 Q167.339 1906.89 167.339 1899.79 Q167.339 1892.66 165.51 1889.12 Q163.705 1885.55 160.07 1885.55 M160.07 1881.85 Q165.881 1881.85 168.936 1886.45 Q172.015 1891.04 172.015 1899.79 Q172.015 1908.51 168.936 1913.12 Q165.881 1917.7 160.07 1917.7 Q154.26 1917.7 151.182 1913.12 Q148.126 1908.51 148.126 1899.79 Q148.126 1891.04 151.182 1886.45 Q154.26 1881.85 160.07 1881.85 Z" fill="#000000" fill-rule="evenodd" fill-opacity="1" /><path clip-path="url(#clip0100)" d="M 0 0 M177.084 1911.15 L181.968 1911.15 L181.968 1917.03 L177.084 1917.03 L177.084 1911.15 Z" fill="#000000" fill-rule="evenodd" fill-opacity="1" /><path clip-path="url(#clip0100)" d="M 0 0 M197.616 1897.89 Q194.468 1897.89 192.617 1900.04 Q190.788 1902.19 190.788 1905.94 Q190.788 1909.67 192.617 1911.85 Q194.468 1914 197.616 1914 Q200.765 1914 202.593 1911.85 Q204.445 1909.67 204.445 1905.94 Q204.445 1902.19 202.593 1900.04 Q200.765 1897.89 197.616 1897.89 M206.899 1883.24 L206.899 1887.5 Q205.14 1886.66 203.334 1886.22 Q201.552 1885.78 199.792 1885.78 Q195.163 1885.78 192.709 1888.91 Q190.279 1892.03 189.931 1898.35 Q191.297 1896.34 193.357 1895.27 Q195.417 1894.19 197.894 1894.19 Q203.103 1894.19 206.112 1897.36 Q209.144 1900.5 209.144 1905.94 Q209.144 1911.27 205.996 1914.49 Q202.848 1917.7 197.616 1917.7 Q191.621 1917.7 188.45 1913.12 Q185.279 1908.51 185.279 1899.79 Q185.279 1891.59 189.167 1886.73 Q193.056 1881.85 199.607 1881.85 Q201.366 1881.85 203.149 1882.19 Q204.954 1882.54 206.899 1883.24 Z" fill="#000000" fill-rule="evenodd" fill-opacity="1" /><path clip-path="url(#clip0100)" d="M 0 0 M132.2 1419.63 L144.677 1419.63 L144.677 1423.43 L132.2 1423.43 L132.2 1419.63 Z" fill="#000000" fill-rule="evenodd" fill-opacity="1" /><path clip-path="url(#clip0100)" d="M 0 0 M159.746 1403.03 Q156.135 1403.03 154.307 1406.6 Q152.501 1410.14 152.501 1417.27 Q152.501 1424.38 154.307 1427.94 Q156.135 1431.48 159.746 1431.48 Q163.381 1431.48 165.186 1427.94 Q167.015 1424.38 167.015 1417.27 Q167.015 1410.14 165.186 1406.6 Q163.381 1403.03 159.746 1403.03 M159.746 1399.33 Q165.556 1399.33 168.612 1403.94 Q171.691 1408.52 171.691 1417.27 Q171.691 1426 168.612 1430.6 Q165.556 1435.19 159.746 1435.19 Q153.936 1435.19 150.857 1430.6 Q147.802 1426 147.802 1417.27 Q147.802 1408.52 150.857 1403.94 Q153.936 1399.33 159.746 1399.33 Z" fill="#000000" fill-rule="evenodd" fill-opacity="1" /><path clip-path="url(#clip0100)" d="M 0 0 M176.76 1428.63 L181.644 1428.63 L181.644 1434.51 L176.76 1434.51 L176.76 1428.63 Z" fill="#000000" fill-rule="evenodd" fill-opacity="1" /><path clip-path="url(#clip0100)" d="M 0 0 M199.561 1404.03 L187.755 1422.48 L199.561 1422.48 L199.561 1404.03 M198.334 1399.95 L204.214 1399.95 L204.214 1422.48 L209.144 1422.48 L209.144 1426.37 L204.214 1426.37 L204.214 1434.51 L199.561 1434.51 L199.561 1426.37 L183.959 1426.37 L183.959 1421.85 L198.334 1399.95 Z" fill="#000000" fill-rule="evenodd" fill-opacity="1" /><path clip-path="url(#clip0100)" d="M 0 0 M134.283 937.112 L146.76 937.112 L146.76 940.908 L134.283 940.908 L134.283 937.112 Z" fill="#000000" fill-rule="evenodd" fill-opacity="1" /><path clip-path="url(#clip0100)" d="M 0 0 M161.83 920.515 Q158.219 920.515 156.39 924.079 Q154.584 927.621 154.584 934.751 Q154.584 941.857 156.39 945.422 Q158.219 948.964 161.83 948.964 Q165.464 948.964 167.269 945.422 Q169.098 941.857 169.098 934.751 Q169.098 927.621 167.269 924.079 Q165.464 920.515 161.83 920.515 M161.83 916.811 Q167.64 916.811 170.695 921.417 Q173.774 926.001 173.774 934.751 Q173.774 943.477 170.695 948.084 Q167.64 952.667 161.83 952.667 Q156.019 952.667 152.941 948.084 Q149.885 943.477 149.885 934.751 Q149.885 926.001 152.941 921.417 Q156.019 916.811 161.83 916.811 Z" fill="#000000" fill-rule="evenodd" fill-opacity="1" /><path clip-path="url(#clip0100)" d="M 0 0 M178.843 946.116 L183.728 946.116 L183.728 951.996 L178.843 951.996 L178.843 946.116 Z" fill="#000000" fill-rule="evenodd" fill-opacity="1" /><path clip-path="url(#clip0100)" d="M 0 0 M192.825 948.061 L209.144 948.061 L209.144 951.996 L187.2 951.996 L187.2 948.061 Q189.862 945.306 194.445 940.677 Q199.052 936.024 200.232 934.681 Q202.478 932.158 203.357 930.422 Q204.26 928.663 204.26 926.973 Q204.26 924.218 202.316 922.482 Q200.394 920.746 197.292 920.746 Q195.093 920.746 192.64 921.51 Q190.209 922.274 187.431 923.825 L187.431 919.103 Q190.255 917.968 192.709 917.39 Q195.163 916.811 197.2 916.811 Q202.57 916.811 205.765 919.496 Q208.959 922.181 208.959 926.672 Q208.959 928.802 208.149 930.723 Q207.362 932.621 205.255 935.214 Q204.677 935.885 201.575 939.102 Q198.473 942.297 192.825 948.061 Z" fill="#000000" fill-rule="evenodd" fill-opacity="1" /><path clip-path="url(#clip0100)" d="M 0 0 M160.232 437.996 Q156.621 437.996 154.793 441.561 Q152.987 445.103 152.987 452.232 Q152.987 459.339 154.793 462.904 Q156.621 466.445 160.232 466.445 Q163.867 466.445 165.672 462.904 Q167.501 459.339 167.501 452.232 Q167.501 445.103 165.672 441.561 Q163.867 437.996 160.232 437.996 M160.232 434.293 Q166.043 434.293 169.098 438.899 Q172.177 443.482 172.177 452.232 Q172.177 460.959 169.098 465.566 Q166.043 470.149 160.232 470.149 Q154.422 470.149 151.344 465.566 Q148.288 460.959 148.288 452.232 Q148.288 443.482 151.344 438.899 Q154.422 434.293 160.232 434.293 Z" fill="#000000" fill-rule="evenodd" fill-opacity="1" /><path clip-path="url(#clip0100)" d="M 0 0 M177.246 463.598 L182.13 463.598 L182.13 469.478 L177.246 469.478 L177.246 463.598 Z" fill="#000000" fill-rule="evenodd" fill-opacity="1" /><path clip-path="url(#clip0100)" d="M 0 0 M197.2 437.996 Q193.589 437.996 191.76 441.561 Q189.954 445.103 189.954 452.232 Q189.954 459.339 191.76 462.904 Q193.589 466.445 197.2 466.445 Q200.834 466.445 202.64 462.904 Q204.468 459.339 204.468 452.232 Q204.468 445.103 202.64 441.561 Q200.834 437.996 197.2 437.996 M197.2 434.293 Q203.01 434.293 206.066 438.899 Q209.144 443.482 209.144 452.232 Q209.144 460.959 206.066 465.566 Q203.01 470.149 197.2 470.149 Q191.39 470.149 188.311 465.566 Q185.255 460.959 185.255 452.232 Q185.255 443.482 188.311 438.899 Q191.39 434.293 197.2 434.293 Z" fill="#000000" fill-rule="evenodd" fill-opacity="1" /><path clip-path="url(#clip0100)" d="M 0 0 M463.737 12.096 L471.92 12.096 L471.92 36.8875 L501.654 36.8875 L501.654 12.096 L509.837 12.096 L509.837 72.576 L501.654 72.576 L501.654 43.7741 L471.92 43.7741 L471.92 72.576 L463.737 72.576 L463.737 12.096 Z" fill="#000000" fill-rule="evenodd" fill-opacity="1" /><path clip-path="url(#clip0100)" d="M 0 0 M535.236 32.4315 Q529.241 32.4315 525.757 37.1306 Q522.273 41.7891 522.273 49.9314 Q522.273 58.0738 525.716 62.7728 Q529.2 67.4314 535.236 67.4314 Q541.191 67.4314 544.675 62.7323 Q548.158 58.0333 548.158 49.9314 Q548.158 41.8701 544.675 37.1711 Q541.191 32.4315 535.236 32.4315 M535.236 26.1121 Q544.958 26.1121 550.508 32.4315 Q556.058 38.7509 556.058 49.9314 Q556.058 61.0714 550.508 67.4314 Q544.958 73.7508 535.236 73.7508 Q525.473 73.7508 519.923 67.4314 Q514.414 61.0714 514.414 49.9314 Q514.414 38.7509 519.923 32.4315 Q525.473 26.1121 535.236 26.1121 Z" fill="#000000" fill-rule="evenodd" fill-opacity="1" /><path clip-path="url(#clip0100)" d="M 0 0 M558.529 27.2059 L566.428 27.2059 L580.606 65.2844 L594.784 27.2059 L602.683 27.2059 L585.67 72.576 L575.542 72.576 L558.529 27.2059 Z" fill="#000000" fill-rule="evenodd" fill-opacity="1" /><path clip-path="url(#clip0100)" d="M 0 0 M649.309 48.0275 L649.309 51.6733 L615.039 51.6733 Q615.525 59.3701 619.657 63.421 Q623.829 67.4314 631.242 67.4314 Q635.536 67.4314 639.547 66.3781 Q643.598 65.3249 647.567 63.2184 L647.567 70.267 Q643.557 71.9684 639.344 72.8596 Q635.131 73.7508 630.797 73.7508 Q619.94 73.7508 613.58 67.4314 Q607.261 61.1119 607.261 50.3365 Q607.261 39.1965 613.256 32.6746 Q619.292 26.1121 629.5 26.1121 Q638.655 26.1121 643.962 32.0264 Q649.309 37.9003 649.309 48.0275 M641.856 45.84 Q641.775 39.7232 638.412 36.0774 Q635.091 32.4315 629.581 32.4315 Q623.343 32.4315 619.576 35.9558 Q615.849 39.4801 615.282 45.8805 L641.856 45.84 Z" fill="#000000" fill-rule="evenodd" fill-opacity="1" /><path clip-path="url(#clip0100)" d="M 0 0 M683.418 34.1734 Q682.162 33.4443 680.663 33.1202 Q679.205 32.7556 677.423 32.7556 Q671.103 32.7556 667.7 36.8875 Q664.338 40.9789 664.338 48.6757 L664.338 72.576 L656.844 72.576 L656.844 27.2059 L664.338 27.2059 L664.338 34.2544 Q666.688 30.1225 670.455 28.1376 Q674.222 26.1121 679.61 26.1121 Q680.38 26.1121 681.312 26.2337 Q682.243 26.3147 683.377 26.5172 L683.418 34.1734 Z" fill="#000000" fill-rule="evenodd" fill-opacity="1" /><path clip-path="url(#clip0100)" d="M 0 0 M691.236 27.2059 L698.69 27.2059 L698.69 72.576 L691.236 72.576 L691.236 27.2059 M691.236 9.54393 L698.69 9.54393 L698.69 18.9825 L691.236 18.9825 L691.236 9.54393 Z" fill="#000000" fill-rule="evenodd" fill-opacity="1" /><path clip-path="url(#clip0100)" d="M 0 0 M744.222 45.1919 L744.222 72.576 L736.768 72.576 L736.768 45.4349 Q736.768 38.994 734.257 35.7938 Q731.745 32.5936 726.722 32.5936 Q720.686 32.5936 717.203 36.4419 Q713.719 40.2903 713.719 46.9338 L713.719 72.576 L706.225 72.576 L706.225 27.2059 L713.719 27.2059 L713.719 34.2544 Q716.392 30.163 719.998 28.1376 Q723.643 26.1121 728.383 26.1121 Q736.201 26.1121 740.212 30.9732 Q744.222 35.7938 744.222 45.1919 Z" fill="#000000" fill-rule="evenodd" fill-opacity="1" /><path clip-path="url(#clip0100)" d="M 0 0 M781.895 49.3643 Q781.895 41.2625 778.533 36.8065 Q775.211 32.3505 769.176 32.3505 Q763.18 32.3505 759.818 36.8065 Q756.496 41.2625 756.496 49.3643 Q756.496 57.4256 759.818 61.8816 Q763.18 66.3376 769.176 66.3376 Q775.211 66.3376 778.533 61.8816 Q781.895 57.4256 781.895 49.3643 M789.349 66.9452 Q789.349 78.5308 784.204 84.1616 Q779.06 89.8329 768.446 89.8329 Q764.517 89.8329 761.033 89.2252 Q757.55 88.6581 754.268 87.4428 L754.268 80.1917 Q757.55 81.9741 760.75 82.8248 Q763.95 83.6755 767.272 83.6755 Q774.604 83.6755 778.25 79.8271 Q781.895 76.0193 781.895 68.282 L781.895 64.5957 Q779.586 68.6061 775.981 70.5911 Q772.376 72.576 767.353 72.576 Q759.008 72.576 753.904 66.2161 Q748.8 59.8562 748.8 49.3643 Q748.8 38.832 753.904 32.472 Q759.008 26.1121 767.353 26.1121 Q772.376 26.1121 775.981 28.0971 Q779.586 30.082 781.895 34.0924 L781.895 27.2059 L789.349 27.2059 L789.349 66.9452 Z" fill="#000000" fill-rule="evenodd" fill-opacity="1" /><path clip-path="url(#clip0100)" d="M 0 0 M819.204 27.2059 L826.658 27.2059 L835.975 62.6108 L845.252 27.2059 L854.042 27.2059 L863.359 62.6108 L872.636 27.2059 L880.089 27.2059 L868.22 72.576 L859.43 72.576 L849.667 35.3887 L839.864 72.576 L831.073 72.576 L819.204 27.2059 Z" fill="#000000" fill-rule="evenodd" fill-opacity="1" /><path clip-path="url(#clip0100)" d="M 0 0 M887.908 27.2059 L895.361 27.2059 L895.361 72.576 L887.908 72.576 L887.908 27.2059 M887.908 9.54393 L895.361 9.54393 L895.361 18.9825 L887.908 18.9825 L887.908 9.54393 Z" fill="#000000" fill-rule="evenodd" fill-opacity="1" /><path clip-path="url(#clip0100)" d="M 0 0 M910.552 14.324 L910.552 27.2059 L925.905 27.2059 L925.905 32.9987 L910.552 32.9987 L910.552 57.6282 Q910.552 63.1779 912.051 64.7578 Q913.59 66.3376 918.249 66.3376 L925.905 66.3376 L925.905 72.576 L918.249 72.576 Q909.62 72.576 906.339 69.3758 Q903.058 66.1351 903.058 57.6282 L903.058 32.9987 L897.589 32.9987 L897.589 27.2059 L903.058 27.2059 L903.058 14.324 L910.552 14.324 Z" fill="#000000" fill-rule="evenodd" fill-opacity="1" /><path clip-path="url(#clip0100)" d="M 0 0 M971.437 45.1919 L971.437 72.576 L963.984 72.576 L963.984 45.4349 Q963.984 38.994 961.472 35.7938 Q958.96 32.5936 953.937 32.5936 Q947.902 32.5936 944.418 36.4419 Q940.934 40.2903 940.934 46.9338 L940.934 72.576 L933.44 72.576 L933.44 9.54393 L940.934 9.54393 L940.934 34.2544 Q943.608 30.163 947.213 28.1376 Q950.859 26.1121 955.598 26.1121 Q963.416 26.1121 967.427 30.9732 Q971.437 35.7938 971.437 45.1919 Z" fill="#000000" fill-rule="evenodd" fill-opacity="1" /><path clip-path="url(#clip0100)" d="M 0 0 M1025.19 39.075 Q1019.68 39.075 1016.44 42.8424 Q1013.24 46.6097 1013.24 53.1722 Q1013.24 59.6941 1016.44 63.502 Q1019.68 67.2693 1025.19 67.2693 Q1030.7 67.2693 1033.9 63.502 Q1037.14 59.6941 1037.14 53.1722 Q1037.14 46.6097 1033.9 42.8424 Q1030.7 39.075 1025.19 39.075 M1041.44 13.4328 L1041.44 20.8865 Q1038.36 19.4281 1035.2 18.6585 Q1032.08 17.8888 1029 17.8888 Q1020.9 17.8888 1016.6 23.3575 Q1012.35 28.8262 1011.74 39.8852 Q1014.13 36.3609 1017.74 34.4975 Q1021.34 32.5936 1025.68 32.5936 Q1034.79 32.5936 1040.06 38.1433 Q1045.37 43.6525 1045.37 53.1722 Q1045.37 62.4892 1039.86 68.12 Q1034.35 73.7508 1025.19 73.7508 Q1014.7 73.7508 1009.15 65.73 Q1003.6 57.6687 1003.6 42.3968 Q1003.6 28.0566 1010.41 19.5497 Q1017.21 11.0023 1028.68 11.0023 Q1031.76 11.0023 1034.87 11.6099 Q1038.03 12.2175 1041.44 13.4328 Z" fill="#000000" fill-rule="evenodd" fill-opacity="1" /><path clip-path="url(#clip0100)" d="M 0 0 M1104.43 17.6457 Q1095.52 17.6457 1090.25 24.2892 Q1085.02 30.9327 1085.02 42.3968 Q1085.02 53.8203 1090.25 60.4638 Q1095.52 67.1073 1104.43 67.1073 Q1113.34 67.1073 1118.53 60.4638 Q1123.75 53.8203 1123.75 42.3968 Q1123.75 30.9327 1118.53 24.2892 Q1113.34 17.6457 1104.43 17.6457 M1115.89 71.4823 L1126.67 83.2704 L1116.78 83.2704 L1107.83 73.5887 Q1106.49 73.6697 1105.77 73.7103 Q1105.08 73.7508 1104.43 73.7508 Q1091.67 73.7508 1084.01 65.2439 Q1076.4 56.6965 1076.4 42.3968 Q1076.4 28.0566 1084.01 19.5497 Q1091.67 11.0023 1104.43 11.0023 Q1117.15 11.0023 1124.76 19.5497 Q1132.38 28.0566 1132.38 42.3968 Q1132.38 52.9291 1128.13 60.4233 Q1123.91 67.9175 1115.89 71.4823 Z" fill="#000000" fill-rule="evenodd" fill-opacity="1" /><path clip-path="url(#clip0100)" d="M 0 0 M1139.43 54.671 L1139.43 27.2059 L1146.88 27.2059 L1146.88 54.3874 Q1146.88 60.8284 1149.39 64.0691 Q1151.91 67.2693 1156.93 67.2693 Q1162.96 67.2693 1166.45 63.421 Q1169.97 59.5726 1169.97 52.9291 L1169.97 27.2059 L1177.43 27.2059 L1177.43 72.576 L1169.97 72.576 L1169.97 65.6084 Q1167.26 69.7404 1163.65 71.7658 Q1160.09 73.7508 1155.35 73.7508 Q1147.53 73.7508 1143.48 68.8897 Q1139.43 64.0286 1139.43 54.671 M1158.18 26.1121 L1158.18 26.1121 Z" fill="#000000" fill-rule="evenodd" fill-opacity="1" /><path clip-path="url(#clip0100)" d="M 0 0 M1205.86 49.7694 Q1196.83 49.7694 1193.35 51.8354 Q1189.86 53.9013 1189.86 58.8839 Q1189.86 62.8538 1192.45 65.2034 Q1195.09 67.5124 1199.58 67.5124 Q1205.78 67.5124 1209.51 63.1374 Q1213.28 58.7219 1213.28 51.4303 L1213.28 49.7694 L1205.86 49.7694 M1220.73 46.6907 L1220.73 72.576 L1213.28 72.576 L1213.28 65.6895 Q1210.72 69.8214 1206.92 71.8063 Q1203.11 73.7508 1197.6 73.7508 Q1190.63 73.7508 1186.5 69.8619 Q1182.41 65.9325 1182.41 59.3701 Q1182.41 51.7138 1187.51 47.825 Q1192.66 43.9361 1202.82 43.9361 L1213.28 43.9361 L1213.28 43.2069 Q1213.28 38.0623 1209.87 35.2672 Q1206.51 32.4315 1200.39 32.4315 Q1196.51 32.4315 1192.82 33.3632 Q1189.13 34.295 1185.73 36.1584 L1185.73 29.2718 Q1189.82 27.692 1193.67 26.9223 Q1197.52 26.1121 1201.16 26.1121 Q1211.01 26.1121 1215.87 31.2163 Q1220.73 36.3204 1220.73 46.6907 Z" fill="#000000" fill-rule="evenodd" fill-opacity="1" /><path clip-path="url(#clip0100)" d="M 0 0 M1258.4 34.0924 L1258.4 9.54393 L1265.86 9.54393 L1265.86 72.576 L1258.4 72.576 L1258.4 65.7705 Q1256.05 69.8214 1252.45 71.8063 Q1248.88 73.7508 1243.86 73.7508 Q1235.64 73.7508 1230.45 67.1883 Q1225.31 60.6258 1225.31 49.9314 Q1225.31 39.2371 1230.45 32.6746 Q1235.64 26.1121 1243.86 26.1121 Q1248.88 26.1121 1252.45 28.0971 Q1256.05 30.0415 1258.4 34.0924 M1233 49.9314 Q1233 58.1548 1236.37 62.8538 Q1239.77 67.5124 1245.68 67.5124 Q1251.6 67.5124 1255 62.8538 Q1258.4 58.1548 1258.4 49.9314 Q1258.4 41.7081 1255 37.0496 Q1251.6 32.3505 1245.68 32.3505 Q1239.77 32.3505 1236.37 37.0496 Q1233 41.7081 1233 49.9314 Z" fill="#000000" fill-rule="evenodd" fill-opacity="1" /><path clip-path="url(#clip0100)" d="M 0 0 M1299.97 34.1734 Q1298.71 33.4443 1297.21 33.1202 Q1295.75 32.7556 1293.97 32.7556 Q1287.65 32.7556 1284.25 36.8875 Q1280.89 40.9789 1280.89 48.6757 L1280.89 72.576 L1273.39 72.576 L1273.39 27.2059 L1280.89 27.2059 L1280.89 34.2544 Q1283.24 30.1225 1287 28.1376 Q1290.77 26.1121 1296.16 26.1121 Q1296.93 26.1121 1297.86 26.2337 Q1298.79 26.3147 1299.93 26.5172 L1299.97 34.1734 Z" fill="#000000" fill-rule="evenodd" fill-opacity="1" /><path clip-path="url(#clip0100)" d="M 0 0 M1323.54 32.4315 Q1317.55 32.4315 1314.06 37.1306 Q1310.58 41.7891 1310.58 49.9314 Q1310.58 58.0738 1314.02 62.7728 Q1317.51 67.4314 1323.54 67.4314 Q1329.5 67.4314 1332.98 62.7323 Q1336.46 58.0333 1336.46 49.9314 Q1336.46 41.8701 1332.98 37.1711 Q1329.5 32.4315 1323.54 32.4315 M1323.54 26.1121 Q1333.26 26.1121 1338.81 32.4315 Q1344.36 38.7509 1344.36 49.9314 Q1344.36 61.0714 1338.81 67.4314 Q1333.26 73.7508 1323.54 73.7508 Q1313.78 73.7508 1308.23 67.4314 Q1302.72 61.0714 1302.72 49.9314 Q1302.72 38.7509 1308.23 32.4315 Q1313.78 26.1121 1323.54 26.1121 Z" fill="#000000" fill-rule="evenodd" fill-opacity="1" /><path clip-path="url(#clip0100)" d="M 0 0 M1359.55 14.324 L1359.55 27.2059 L1374.91 27.2059 L1374.91 32.9987 L1359.55 32.9987 L1359.55 57.6282 Q1359.55 63.1779 1361.05 64.7578 Q1362.59 66.3376 1367.25 66.3376 L1374.91 66.3376 L1374.91 72.576 L1367.25 72.576 Q1358.62 72.576 1355.34 69.3758 Q1352.06 66.1351 1352.06 57.6282 L1352.06 32.9987 L1346.59 32.9987 L1346.59 27.2059 L1352.06 27.2059 L1352.06 14.324 L1359.55 14.324 Z" fill="#000000" fill-rule="evenodd" fill-opacity="1" /><path clip-path="url(#clip0100)" d="M 0 0 M1400.31 32.4315 Q1394.31 32.4315 1390.83 37.1306 Q1387.34 41.7891 1387.34 49.9314 Q1387.34 58.0738 1390.79 62.7728 Q1394.27 67.4314 1400.31 67.4314 Q1406.26 67.4314 1409.75 62.7323 Q1413.23 58.0333 1413.23 49.9314 Q1413.23 41.8701 1409.75 37.1711 Q1406.26 32.4315 1400.31 32.4315 M1400.31 26.1121 Q1410.03 26.1121 1415.58 32.4315 Q1421.13 38.7509 1421.13 49.9314 Q1421.13 61.0714 1415.58 67.4314 Q1410.03 73.7508 1400.31 73.7508 Q1390.54 73.7508 1384.99 67.4314 Q1379.48 61.0714 1379.48 49.9314 Q1379.48 38.7509 1384.99 32.4315 Q1390.54 26.1121 1400.31 26.1121 Z" fill="#000000" fill-rule="evenodd" fill-opacity="1" /><path clip-path="url(#clip0100)" d="M 0 0 M1455.24 34.1734 Q1453.98 33.4443 1452.48 33.1202 Q1451.02 32.7556 1449.24 32.7556 Q1442.92 32.7556 1439.52 36.8875 Q1436.16 40.9789 1436.16 48.6757 L1436.16 72.576 L1428.66 72.576 L1428.66 27.2059 L1436.16 27.2059 L1436.16 34.2544 Q1438.51 30.1225 1442.27 28.1376 Q1446.04 26.1121 1451.43 26.1121 Q1452.2 26.1121 1453.13 26.2337 Q1454.06 26.3147 1455.2 26.5172 L1455.24 34.1734 Z" fill="#000000" fill-rule="evenodd" fill-opacity="1" /><path clip-path="url(#clip0100)" d="M 0 0 M1491.98 28.5427 L1491.98 35.5912 Q1488.82 33.9709 1485.42 33.1607 Q1482.01 32.3505 1478.37 32.3505 Q1472.82 32.3505 1470.02 34.0519 Q1467.27 35.7533 1467.27 39.156 Q1467.27 41.7486 1469.25 43.2475 Q1471.24 44.7058 1477.23 46.0426 L1479.79 46.6097 Q1487.73 48.3111 1491.05 51.4303 Q1494.41 54.509 1494.41 60.0587 Q1494.41 66.3781 1489.39 70.0644 Q1484.4 73.7508 1475.65 73.7508 Q1472.01 73.7508 1468.04 73.0216 Q1464.11 72.3329 1459.73 70.9151 L1459.73 63.2184 Q1463.87 65.3654 1467.88 66.4591 Q1471.89 67.5124 1475.82 67.5124 Q1481.08 67.5124 1483.92 65.73 Q1486.75 63.9071 1486.75 60.6258 Q1486.75 57.5877 1484.69 55.9673 Q1482.66 54.3469 1475.73 52.8481 L1473.14 52.2405 Q1466.21 50.7821 1463.14 47.7845 Q1460.06 44.7463 1460.06 39.4801 Q1460.06 33.0797 1464.59 29.5959 Q1469.13 26.1121 1477.48 26.1121 Q1481.61 26.1121 1485.25 26.7198 Q1488.9 27.3274 1491.98 28.5427 Z" fill="#000000" fill-rule="evenodd" fill-opacity="1" /><path clip-path="url(#clip0100)" d="M 0 0 M1524.83 46.5287 L1546.67 46.5287 L1546.67 53.1722 L1524.83 53.1722 L1524.83 46.5287 Z" fill="#000000" fill-rule="evenodd" fill-opacity="1" /><path clip-path="url(#clip0100)" d="M 0 0 M1601.39 20.1573 L1590.29 50.2555 L1612.53 50.2555 L1601.39 20.1573 M1596.78 12.096 L1606.05 12.096 L1629.1 72.576 L1620.59 72.576 L1615.09 57.061 L1587.82 57.061 L1582.31 72.576 L1573.69 72.576 L1596.78 12.096 Z" fill="#000000" fill-rule="evenodd" fill-opacity="1" /><path clip-path="url(#clip0100)" d="M 0 0 M1666.77 49.3643 Q1666.77 41.2625 1663.41 36.8065 Q1660.09 32.3505 1654.06 32.3505 Q1648.06 32.3505 1644.7 36.8065 Q1641.38 41.2625 1641.38 49.3643 Q1641.38 57.4256 1644.7 61.8816 Q1648.06 66.3376 1654.06 66.3376 Q1660.09 66.3376 1663.41 61.8816 Q1666.77 57.4256 1666.77 49.3643 M1674.23 66.9452 Q1674.23 78.5308 1669.08 84.1616 Q1663.94 89.8329 1653.33 89.8329 Q1649.4 89.8329 1645.91 89.2252 Q1642.43 88.6581 1639.15 87.4428 L1639.15 80.1917 Q1642.43 81.9741 1645.63 82.8248 Q1648.83 83.6755 1652.15 83.6755 Q1659.48 83.6755 1663.13 79.8271 Q1666.77 76.0193 1666.77 68.282 L1666.77 64.5957 Q1664.47 68.6061 1660.86 70.5911 Q1657.26 72.576 1652.23 72.576 Q1643.89 72.576 1638.78 66.2161 Q1633.68 59.8562 1633.68 49.3643 Q1633.68 38.832 1638.78 32.472 Q1643.89 26.1121 1652.23 26.1121 Q1657.26 26.1121 1660.86 28.0971 Q1664.47 30.082 1666.77 34.0924 L1666.77 27.2059 L1674.23 27.2059 L1674.23 66.9452 Z" fill="#000000" fill-rule="evenodd" fill-opacity="1" /><path clip-path="url(#clip0100)" d="M 0 0 M1720.85 48.0275 L1720.85 51.6733 L1686.58 51.6733 Q1687.07 59.3701 1691.2 63.421 Q1695.37 67.4314 1702.79 67.4314 Q1707.08 67.4314 1711.09 66.3781 Q1715.14 65.3249 1719.11 63.2184 L1719.11 70.267 Q1715.1 71.9684 1710.89 72.8596 Q1706.68 73.7508 1702.34 73.7508 Q1691.49 73.7508 1685.13 67.4314 Q1678.81 61.1119 1678.81 50.3365 Q1678.81 39.1965 1684.8 32.6746 Q1690.84 26.1121 1701.05 26.1121 Q1710.2 26.1121 1715.51 32.0264 Q1720.85 37.9003 1720.85 48.0275 M1713.4 45.84 Q1713.32 39.7232 1709.96 36.0774 Q1706.64 32.4315 1701.13 32.4315 Q1694.89 32.4315 1691.12 35.9558 Q1687.39 39.4801 1686.83 45.8805 L1713.4 45.84 Z" fill="#000000" fill-rule="evenodd" fill-opacity="1" /><path clip-path="url(#clip0100)" d="M 0 0 M1766.39 45.1919 L1766.39 72.576 L1758.93 72.576 L1758.93 45.4349 Q1758.93 38.994 1756.42 35.7938 Q1753.91 32.5936 1748.89 32.5936 Q1742.85 32.5936 1739.37 36.4419 Q1735.88 40.2903 1735.88 46.9338 L1735.88 72.576 L1728.39 72.576 L1728.39 27.2059 L1735.88 27.2059 L1735.88 34.2544 Q1738.56 30.163 1742.16 28.1376 Q1745.81 26.1121 1750.55 26.1121 Q1758.37 26.1121 1762.38 30.9732 Q1766.39 35.7938 1766.39 45.1919 Z" fill="#000000" fill-rule="evenodd" fill-opacity="1" /><path clip-path="url(#clip0100)" d="M 0 0 M1781.58 14.324 L1781.58 27.2059 L1796.93 27.2059 L1796.93 32.9987 L1781.58 32.9987 L1781.58 57.6282 Q1781.58 63.1779 1783.08 64.7578 Q1784.62 66.3376 1789.27 66.3376 L1796.93 66.3376 L1796.93 72.576 L1789.27 72.576 Q1780.65 72.576 1777.36 69.3758 Q1774.08 66.1351 1774.08 57.6282 L1774.08 32.9987 L1768.61 32.9987 L1768.61 27.2059 L1774.08 27.2059 L1774.08 14.324 L1781.58 14.324 Z" fill="#000000" fill-rule="evenodd" fill-opacity="1" /><path clip-path="url(#clip0100)" d="M 0 0 M1867.7 14.0809 L1867.7 22.0612 Q1863.04 19.8332 1858.91 18.7395 Q1854.78 17.6457 1850.93 17.6457 Q1844.25 17.6457 1840.6 20.2383 Q1836.99 22.8309 1836.99 27.611 Q1836.99 31.6214 1839.38 33.6873 Q1841.81 35.7128 1848.54 36.9686 L1853.48 37.9813 Q1862.64 39.7232 1866.97 44.1387 Q1871.35 48.5136 1871.35 55.8863 Q1871.35 64.6767 1865.43 69.2137 Q1859.56 73.7508 1848.17 73.7508 Q1843.88 73.7508 1839.02 72.7785 Q1834.2 71.8063 1829.01 69.9024 L1829.01 61.4765 Q1834 64.2716 1838.78 65.6895 Q1843.56 67.1073 1848.17 67.1073 Q1855.18 67.1073 1858.99 64.3527 Q1862.8 61.598 1862.8 56.4939 Q1862.8 52.0379 1860.04 49.5264 Q1857.33 47.0148 1851.09 45.759 L1846.11 44.7868 Q1836.95 42.9639 1832.86 39.075 Q1828.77 35.1862 1828.77 28.2591 Q1828.77 20.2383 1834.4 15.6203 Q1840.07 11.0023 1850 11.0023 Q1854.25 11.0023 1858.67 11.7719 Q1863.08 12.5416 1867.7 14.0809 Z" fill="#000000" fill-rule="evenodd" fill-opacity="1" /><path clip-path="url(#clip0100)" d="M 0 0 M1886.54 14.324 L1886.54 27.2059 L1901.89 27.2059 L1901.89 32.9987 L1886.54 32.9987 L1886.54 57.6282 Q1886.54 63.1779 1888.04 64.7578 Q1889.57 66.3376 1894.23 66.3376 L1901.89 66.3376 L1901.89 72.576 L1894.23 72.576 Q1885.6 72.576 1882.32 69.3758 Q1879.04 66.1351 1879.04 57.6282 L1879.04 32.9987 L1873.57 32.9987 L1873.57 27.2059 L1879.04 27.2059 L1879.04 14.324 L1886.54 14.324 Z" fill="#000000" fill-rule="evenodd" fill-opacity="1" /><path clip-path="url(#clip0100)" d="M 0 0 M1930.33 49.7694 Q1921.29 49.7694 1917.81 51.8354 Q1914.33 53.9013 1914.33 58.8839 Q1914.33 62.8538 1916.92 65.2034 Q1919.55 67.5124 1924.05 67.5124 Q1930.25 67.5124 1933.97 63.1374 Q1937.74 58.7219 1937.74 51.4303 L1937.74 49.7694 L1930.33 49.7694 M1945.19 46.6907 L1945.19 72.576 L1937.74 72.576 L1937.74 65.6895 Q1935.19 69.8214 1931.38 71.8063 Q1927.57 73.7508 1922.06 73.7508 Q1915.1 73.7508 1910.96 69.8619 Q1906.87 65.9325 1906.87 59.3701 Q1906.87 51.7138 1911.98 47.825 Q1917.12 43.9361 1927.29 43.9361 L1937.74 43.9361 L1937.74 43.2069 Q1937.74 38.0623 1934.34 35.2672 Q1930.97 32.4315 1924.86 32.4315 Q1920.97 32.4315 1917.28 33.3632 Q1913.6 34.295 1910.19 36.1584 L1910.19 29.2718 Q1914.29 27.692 1918.13 26.9223 Q1921.98 26.1121 1925.63 26.1121 Q1935.47 26.1121 1940.33 31.2163 Q1945.19 36.3204 1945.19 46.6907 Z" fill="#000000" fill-rule="evenodd" fill-opacity="1" /><path clip-path="url(#clip0100)" d="M 0 0 M1960.38 14.324 L1960.38 27.2059 L1975.74 27.2059 L1975.74 32.9987 L1960.38 32.9987 L1960.38 57.6282 Q1960.38 63.1779 1961.88 64.7578 Q1963.42 66.3376 1968.08 66.3376 L1975.74 66.3376 L1975.74 72.576 L1968.08 72.576 Q1959.45 72.576 1956.17 69.3758 Q1952.89 66.1351 1952.89 57.6282 L1952.89 32.9987 L1947.42 32.9987 L1947.42 27.2059 L1952.89 27.2059 L1952.89 14.324 L1960.38 14.324 Z" fill="#000000" fill-rule="evenodd" fill-opacity="1" /><path clip-path="url(#clip0100)" d="M 0 0 M2022.36 48.0275 L2022.36 51.6733 L1988.09 51.6733 Q1988.58 59.3701 1992.71 63.421 Q1996.88 67.4314 2004.3 67.4314 Q2008.59 67.4314 2012.6 66.3781 Q2016.65 65.3249 2020.62 63.2184 L2020.62 70.267 Q2016.61 71.9684 2012.4 72.8596 Q2008.19 73.7508 2003.85 73.7508 Q1992.99 73.7508 1986.63 67.4314 Q1980.31 61.1119 1980.31 50.3365 Q1980.31 39.1965 1986.31 32.6746 Q1992.35 26.1121 2002.55 26.1121 Q2011.71 26.1121 2017.02 32.0264 Q2022.36 37.9003 2022.36 48.0275 M2014.91 45.84 Q2014.83 39.7232 2011.47 36.0774 Q2008.14 32.4315 2002.64 32.4315 Q1996.4 32.4315 1992.63 35.9558 Q1988.9 39.4801 1988.34 45.8805 L2014.91 45.84 Z" fill="#000000" fill-rule="evenodd" fill-opacity="1" /><path clip-path="url(#clip0100)" d="M 0 0 M2059.11 28.5427 L2059.11 35.5912 Q2055.95 33.9709 2052.54 33.1607 Q2049.14 32.3505 2045.49 32.3505 Q2039.94 32.3505 2037.15 34.0519 Q2034.39 35.7533 2034.39 39.156 Q2034.39 41.7486 2036.38 43.2475 Q2038.36 44.7058 2044.36 46.0426 L2046.91 46.6097 Q2054.85 48.3111 2058.17 51.4303 Q2061.54 54.509 2061.54 60.0587 Q2061.54 66.3781 2056.51 70.0644 Q2051.53 73.7508 2042.78 73.7508 Q2039.13 73.7508 2035.16 73.0216 Q2031.23 72.3329 2026.86 70.9151 L2026.86 63.2184 Q2030.99 65.3654 2035 66.4591 Q2039.01 67.5124 2042.94 67.5124 Q2048.21 67.5124 2051.04 65.73 Q2053.88 63.9071 2053.88 60.6258 Q2053.88 57.5877 2051.81 55.9673 Q2049.79 54.3469 2042.86 52.8481 L2040.27 52.2405 Q2033.34 50.7821 2030.26 47.7845 Q2027.18 44.7463 2027.18 39.4801 Q2027.18 33.0797 2031.72 29.5959 Q2036.26 26.1121 2044.6 26.1121 Q2048.73 26.1121 2052.38 26.7198 Q2056.03 27.3274 2059.11 28.5427 Z" fill="#000000" fill-rule="evenodd" fill-opacity="1" /><path clip-path="url(#clip0100)" d="M 0 0 M2120.6 17.6457 Q2111.69 17.6457 2106.42 24.2892 Q2101.19 30.9327 2101.19 42.3968 Q2101.19 53.8203 2106.42 60.4638 Q2111.69 67.1073 2120.6 67.1073 Q2129.51 67.1073 2134.69 60.4638 Q2139.92 53.8203 2139.92 42.3968 Q2139.92 30.9327 2134.69 24.2892 Q2129.51 17.6457 2120.6 17.6457 M2132.06 71.4823 L2142.84 83.2704 L2132.95 83.2704 L2124 73.5887 Q2122.66 73.6697 2121.93 73.7103 Q2121.25 73.7508 2120.6 73.7508 Q2107.84 73.7508 2100.18 65.2439 Q2092.57 56.6965 2092.57 42.3968 Q2092.57 28.0566 2100.18 19.5497 Q2107.84 11.0023 2120.6 11.0023 Q2133.32 11.0023 2140.93 19.5497 Q2148.55 28.0566 2148.55 42.3968 Q2148.55 52.9291 2144.3 60.4233 Q2140.08 67.9175 2132.06 71.4823 Z" fill="#000000" fill-rule="evenodd" fill-opacity="1" /><path clip-path="url(#clip0100)" d="M 0 0 M2159.41 67.958 L2176.58 67.958 L2176.58 72.576 L2152.36 72.576 L2152.36 68.12 Q2153.73 66.8642 2156.29 64.5957 Q2170.22 52.2405 2170.22 48.4326 Q2170.22 45.759 2168.11 44.1387 Q2166.01 42.4778 2162.57 42.4778 Q2160.46 42.4778 2157.99 43.2069 Q2155.52 43.8956 2152.6 45.3134 L2152.6 40.3308 Q2155.72 39.1965 2158.39 38.6294 Q2161.11 38.0623 2163.42 38.0623 Q2169.29 38.0623 2172.81 40.7359 Q2176.34 43.4095 2176.34 47.7845 Q2176.34 53.4152 2162.93 64.9198 Q2160.66 66.8642 2159.41 67.958 Z" fill="#000000" fill-rule="evenodd" fill-opacity="1" /><path clip-path="url(#clip0100)" d="M 0 0 M2211.09 12.096 L2249.34 12.096 L2249.34 18.9825 L2219.28 18.9825 L2219.28 36.8875 L2248.08 36.8875 L2248.08 43.7741 L2219.28 43.7741 L2219.28 65.6895 L2250.06 65.6895 L2250.06 72.576 L2211.09 72.576 L2211.09 12.096 Z" fill="#000000" fill-rule="evenodd" fill-opacity="1" /><path clip-path="url(#clip0100)" d="M 0 0 M2284.17 34.1734 Q2282.92 33.4443 2281.42 33.1202 Q2279.96 32.7556 2278.18 32.7556 Q2271.86 32.7556 2268.46 36.8875 Q2265.09 40.9789 2265.09 48.6757 L2265.09 72.576 L2257.6 72.576 L2257.6 27.2059 L2265.09 27.2059 L2265.09 34.2544 Q2267.44 30.1225 2271.21 28.1376 Q2274.98 26.1121 2280.37 26.1121 Q2281.14 26.1121 2282.07 26.2337 Q2283 26.3147 2284.13 26.5172 L2284.17 34.1734 Z" fill="#000000" fill-rule="evenodd" fill-opacity="1" /><path clip-path="url(#clip0100)" d="M 0 0 M2316.82 34.1734 Q2315.57 33.4443 2314.07 33.1202 Q2312.61 32.7556 2310.83 32.7556 Q2304.51 32.7556 2301.11 36.8875 Q2297.74 40.9789 2297.74 48.6757 L2297.74 72.576 L2290.25 72.576 L2290.25 27.2059 L2297.74 27.2059 L2297.74 34.2544 Q2300.09 30.1225 2303.86 28.1376 Q2307.63 26.1121 2313.02 26.1121 Q2313.79 26.1121 2314.72 26.2337 Q2315.65 26.3147 2316.78 26.5172 L2316.82 34.1734 Z" fill="#000000" fill-rule="evenodd" fill-opacity="1" /><path clip-path="url(#clip0100)" d="M 0 0 M2340.4 32.4315 Q2334.4 32.4315 2330.92 37.1306 Q2327.44 41.7891 2327.44 49.9314 Q2327.44 58.0738 2330.88 62.7728 Q2334.36 67.4314 2340.4 67.4314 Q2346.35 67.4314 2349.84 62.7323 Q2353.32 58.0333 2353.32 49.9314 Q2353.32 41.8701 2349.84 37.1711 Q2346.35 32.4315 2340.4 32.4315 M2340.4 26.1121 Q2350.12 26.1121 2355.67 32.4315 Q2361.22 38.7509 2361.22 49.9314 Q2361.22 61.0714 2355.67 67.4314 Q2350.12 73.7508 2340.4 73.7508 Q2330.64 73.7508 2325.09 67.4314 Q2319.58 61.0714 2319.58 49.9314 Q2319.58 38.7509 2325.09 32.4315 Q2330.64 26.1121 2340.4 26.1121 Z" fill="#000000" fill-rule="evenodd" fill-opacity="1" /><path clip-path="url(#clip0100)" d="M 0 0 M2395.33 34.1734 Q2394.07 33.4443 2392.58 33.1202 Q2391.12 32.7556 2389.33 32.7556 Q2383.02 32.7556 2379.61 36.8875 Q2376.25 40.9789 2376.25 48.6757 L2376.25 72.576 L2368.76 72.576 L2368.76 27.2059 L2376.25 27.2059 L2376.25 34.2544 Q2378.6 30.1225 2382.37 28.1376 Q2386.13 26.1121 2391.52 26.1121 Q2392.29 26.1121 2393.22 26.2337 Q2394.16 26.3147 2395.29 26.5172 L2395.33 34.1734 Z" fill="#000000" fill-rule="evenodd" fill-opacity="1" /><path clip-path="url(#clip0100)" d="M 0 0 M1311.37 2298.26 L1351.57 2298.26 L1351.57 2303.67 L1334.7 2303.67 L1334.7 2345.78 L1328.24 2345.78 L1328.24 2303.67 L1311.37 2303.67 L1311.37 2298.26 Z" fill="#000000" fill-rule="evenodd" fill-opacity="1" /><path clip-path="url(#clip0100)" d="M 0 0 M1355.71 2310.14 L1361.56 2310.14 L1361.56 2345.78 L1355.71 2345.78 L1355.71 2310.14 M1355.71 2296.26 L1361.56 2296.26 L1361.56 2303.67 L1355.71 2303.67 L1355.71 2296.26 Z" fill="#000000" fill-rule="evenodd" fill-opacity="1" /><path clip-path="url(#clip0100)" d="M 0 0 M1395.46 2316.98 Q1397.66 2313.03 1400.71 2311.15 Q1403.77 2309.28 1407.91 2309.28 Q1413.48 2309.28 1416.5 2313.19 Q1419.52 2317.07 1419.52 2324.27 L1419.52 2345.78 L1413.64 2345.78 L1413.64 2324.46 Q1413.64 2319.33 1411.82 2316.85 Q1410.01 2314.37 1406.28 2314.37 Q1401.73 2314.37 1399.09 2317.39 Q1396.45 2320.42 1396.45 2325.64 L1396.45 2345.78 L1390.56 2345.78 L1390.56 2324.46 Q1390.56 2319.3 1388.75 2316.85 Q1386.93 2314.37 1383.14 2314.37 Q1378.66 2314.37 1376.01 2317.42 Q1373.37 2320.45 1373.37 2325.64 L1373.37 2345.78 L1367.48 2345.78 L1367.48 2310.14 L1373.37 2310.14 L1373.37 2315.67 Q1375.38 2312.4 1378.18 2310.84 Q1380.98 2309.28 1384.83 2309.28 Q1388.71 2309.28 1391.42 2311.25 Q1394.16 2313.22 1395.46 2316.98 Z" fill="#000000" fill-rule="evenodd" fill-opacity="1" /><path clip-path="url(#clip0100)" d="M 0 0 M1456.16 2326.5 L1456.16 2329.36 L1429.23 2329.36 Q1429.61 2335.41 1432.86 2338.59 Q1436.14 2341.74 1441.96 2341.74 Q1445.34 2341.74 1448.49 2340.91 Q1451.67 2340.09 1454.79 2338.43 L1454.79 2343.97 Q1451.64 2345.31 1448.33 2346.01 Q1445.02 2346.71 1441.61 2346.71 Q1433.08 2346.71 1428.09 2341.74 Q1423.12 2336.78 1423.12 2328.31 Q1423.12 2319.56 1427.83 2314.43 Q1432.57 2309.28 1440.59 2309.28 Q1447.79 2309.28 1451.96 2313.92 Q1456.16 2318.54 1456.16 2326.5 M1450.3 2324.78 Q1450.24 2319.97 1447.6 2317.11 Q1444.99 2314.24 1440.66 2314.24 Q1435.76 2314.24 1432.8 2317.01 Q1429.87 2319.78 1429.42 2324.81 L1450.3 2324.78 Z" fill="#000000" fill-rule="evenodd" fill-opacity="1" /><path clip-path="url(#clip0100)" d="M 0 0 M1497.09 2296.32 Q1492.82 2303.64 1490.76 2310.8 Q1488.69 2317.97 1488.69 2325.32 Q1488.69 2332.67 1490.76 2339.9 Q1492.86 2347.09 1497.09 2354.38 L1492 2354.38 Q1487.22 2346.9 1484.84 2339.67 Q1482.48 2332.45 1482.48 2325.32 Q1482.48 2318.22 1484.84 2311.03 Q1487.19 2303.83 1492 2296.32 L1497.09 2296.32 Z" fill="#000000" fill-rule="evenodd" fill-opacity="1" /><path clip-path="url(#clip0100)" d="M 0 0 M1525.96 2311.19 L1525.96 2316.72 Q1523.48 2315.45 1520.8 2314.81 Q1518.13 2314.18 1515.26 2314.18 Q1510.9 2314.18 1508.71 2315.51 Q1506.54 2316.85 1506.54 2319.53 Q1506.54 2321.56 1508.1 2322.74 Q1509.66 2323.89 1514.37 2324.94 L1516.38 2325.38 Q1522.62 2326.72 1525.23 2329.17 Q1527.87 2331.59 1527.87 2335.95 Q1527.87 2340.91 1523.92 2343.81 Q1520.01 2346.71 1513.13 2346.71 Q1510.27 2346.71 1507.15 2346.13 Q1504.06 2345.59 1500.62 2344.48 L1500.62 2338.43 Q1503.87 2340.12 1507.02 2340.98 Q1510.17 2341.81 1513.26 2341.81 Q1517.4 2341.81 1519.62 2340.4 Q1521.85 2338.97 1521.85 2336.39 Q1521.85 2334.01 1520.23 2332.73 Q1518.64 2331.46 1513.2 2330.28 L1511.16 2329.81 Q1505.72 2328.66 1503.3 2326.3 Q1500.88 2323.92 1500.88 2319.78 Q1500.88 2314.75 1504.44 2312.01 Q1508.01 2309.28 1514.56 2309.28 Q1517.81 2309.28 1520.67 2309.75 Q1523.54 2310.23 1525.96 2311.19 Z" fill="#000000" fill-rule="evenodd" fill-opacity="1" /><path clip-path="url(#clip0100)" d="M 0 0 M1533.09 2296.32 L1538.18 2296.32 Q1542.95 2303.83 1545.31 2311.03 Q1547.7 2318.22 1547.7 2325.32 Q1547.7 2332.45 1545.31 2339.67 Q1542.95 2346.9 1538.18 2354.38 L1533.09 2354.38 Q1537.32 2347.09 1539.39 2339.9 Q1541.49 2332.67 1541.49 2325.32 Q1541.49 2317.97 1539.39 2310.8 Q1537.32 2303.64 1533.09 2296.32 Z" fill="#000000" fill-rule="evenodd" fill-opacity="1" /><path clip-path="url(#clip0100)" d="M 0 0 M38.4242 1364.07 L38.4242 1334.03 L43.835 1334.03 L43.835 1357.64 L57.9032 1357.64 L57.9032 1335.01 L63.3141 1335.01 L63.3141 1357.64 L80.5333 1357.64 L80.5333 1333.45 L85.9442 1333.45 L85.9442 1364.07 L38.4242 1364.07 Z" fill="#000000" fill-rule="evenodd" fill-opacity="1" /><path clip-path="url(#clip0100)" d="M 0 0 M55.7707 1306.65 Q55.1978 1307.64 54.9432 1308.82 Q54.6567 1309.96 54.6567 1311.36 Q54.6567 1316.33 57.9032 1319 Q61.1179 1321.64 67.1653 1321.64 L85.9442 1321.64 L85.9442 1327.53 L50.2962 1327.53 L50.2962 1321.64 L55.8344 1321.64 Q52.5879 1319.8 51.0283 1316.84 Q49.4368 1313.88 49.4368 1309.64 Q49.4368 1309.04 49.5323 1308.31 Q49.596 1307.58 49.7551 1306.68 L55.7707 1306.65 Z" fill="#000000" fill-rule="evenodd" fill-opacity="1" /><path clip-path="url(#clip0100)" d="M 0 0 M55.7707 1281 Q55.1978 1281.99 54.9432 1283.16 Q54.6567 1284.31 54.6567 1285.71 Q54.6567 1290.67 57.9032 1293.35 Q61.1179 1295.99 67.1653 1295.99 L85.9442 1295.99 L85.9442 1301.88 L50.2962 1301.88 L50.2962 1295.99 L55.8344 1295.99 Q52.5879 1294.14 51.0283 1291.18 Q49.4368 1288.22 49.4368 1283.99 Q49.4368 1283.39 49.5323 1282.65 Q49.596 1281.92 49.7551 1281.03 L55.7707 1281 Z" fill="#000000" fill-rule="evenodd" fill-opacity="1" /><path clip-path="url(#clip0100)" d="M 0 0 M54.4021 1262.47 Q54.4021 1267.19 58.0942 1269.92 Q61.7545 1272.66 68.152 1272.66 Q74.5495 1272.66 78.2417 1269.95 Q81.9019 1267.22 81.9019 1262.47 Q81.9019 1257.8 78.2098 1255.06 Q74.5177 1252.32 68.152 1252.32 Q61.8181 1252.32 58.126 1255.06 Q54.4021 1257.8 54.4021 1262.47 M49.4368 1262.47 Q49.4368 1254.84 54.4021 1250.48 Q59.3673 1246.12 68.152 1246.12 Q76.9049 1246.12 81.9019 1250.48 Q86.8672 1254.84 86.8672 1262.47 Q86.8672 1270.15 81.9019 1274.51 Q76.9049 1278.83 68.152 1278.83 Q59.3673 1278.83 54.4021 1274.51 Q49.4368 1270.15 49.4368 1262.47 Z" fill="#000000" fill-rule="evenodd" fill-opacity="1" /><path clip-path="url(#clip0100)" d="M 0 0 M55.7707 1219.32 Q55.1978 1220.3 54.9432 1221.48 Q54.6567 1222.63 54.6567 1224.03 Q54.6567 1228.99 57.9032 1231.66 Q61.1179 1234.31 67.1653 1234.31 L85.9442 1234.31 L85.9442 1240.19 L50.2962 1240.19 L50.2962 1234.31 L55.8344 1234.31 Q52.5879 1232.46 51.0283 1229.5 Q49.4368 1226.54 49.4368 1222.31 Q49.4368 1221.7 49.5323 1220.97 Q49.596 1220.24 49.7551 1219.35 L55.7707 1219.32 Z" fill="#000000" fill-rule="evenodd" fill-opacity="1" /><path clip-path="url(#clip0100)" d="M 0 0 M42.7847 1172.91 Q42.7847 1179.91 48.0045 1184.05 Q53.2244 1188.16 62.2319 1188.16 Q71.2075 1188.16 76.4274 1184.05 Q81.6473 1179.91 81.6473 1172.91 Q81.6473 1165.91 76.4274 1161.83 Q71.2075 1157.73 62.2319 1157.73 Q53.2244 1157.73 48.0045 1161.83 Q42.7847 1165.91 42.7847 1172.91 M85.0848 1163.9 L94.3469 1155.44 L94.3469 1163.2 L86.7399 1170.24 Q86.8035 1171.29 86.8354 1171.86 Q86.8672 1172.4 86.8672 1172.91 Q86.8672 1182.94 80.1832 1188.95 Q73.4674 1194.93 62.2319 1194.93 Q50.9646 1194.93 44.2806 1188.95 Q37.5648 1182.94 37.5648 1172.91 Q37.5648 1162.92 44.2806 1156.93 Q50.9646 1150.95 62.2319 1150.95 Q70.5073 1150.95 76.3956 1154.29 Q82.2839 1157.6 85.0848 1163.9 Z" fill="#000000" fill-rule="evenodd" fill-opacity="1" /><path clip-path="url(#clip0100)" d="M 0 0 M82.3157 1142.42 L82.3157 1128.92 L85.9442 1128.92 L85.9442 1147.96 L82.443 1147.96 Q81.4563 1146.87 79.6739 1144.87 Q69.9662 1133.92 66.9744 1133.92 Q64.8737 1133.92 63.6005 1135.57 Q62.2956 1137.23 62.2956 1139.94 Q62.2956 1141.59 62.8685 1143.53 Q63.4096 1145.47 64.5236 1147.76 L60.6086 1147.76 Q59.7174 1145.31 59.2718 1143.21 Q58.8262 1141.08 58.8262 1139.27 Q58.8262 1134.65 60.9269 1131.88 Q63.0276 1129.11 66.4651 1129.11 Q70.8893 1129.11 79.9286 1139.65 Q81.4563 1141.43 82.3157 1142.42 Z" fill="#000000" fill-rule="evenodd" fill-opacity="1" /><path clip-path="url(#clip0100)" d="M 0 0 M36.4826 1087.99 Q43.8032 1092.26 50.9646 1094.32 Q58.126 1096.39 65.4784 1096.39 Q72.8308 1096.39 80.0559 1094.32 Q87.2491 1092.22 94.5379 1087.99 L94.5379 1093.08 Q87.0582 1097.86 79.8331 1100.24 Q72.608 1102.6 65.4784 1102.6 Q58.3806 1102.6 51.1874 1100.24 Q43.9942 1097.89 36.4826 1093.08 L36.4826 1087.99 Z" fill="#000000" fill-rule="evenodd" fill-opacity="1" /><path clip-path="url(#clip0100)" d="M 0 0 M55.7707 1061.19 Q55.1978 1062.18 54.9432 1063.36 Q54.6567 1064.5 54.6567 1065.9 Q54.6567 1070.87 57.9032 1073.54 Q61.1179 1076.18 67.1653 1076.18 L85.9442 1076.18 L85.9442 1082.07 L50.2962 1082.07 L50.2962 1076.18 L55.8344 1076.18 Q52.5879 1074.34 51.0283 1071.38 Q49.4368 1068.42 49.4368 1064.18 Q49.4368 1063.58 49.5323 1062.85 Q49.596 1062.11 49.7551 1061.22 L55.7707 1061.19 Z" fill="#000000" fill-rule="evenodd" fill-opacity="1" /><path clip-path="url(#clip0100)" d="M 0 0 M68.0247 1038.85 Q68.0247 1045.95 69.6479 1048.68 Q71.2712 1051.42 75.1861 1051.42 Q78.3053 1051.42 80.1514 1049.38 Q81.9656 1047.31 81.9656 1043.78 Q81.9656 1038.91 78.5281 1035.98 Q75.0588 1033.02 69.3297 1033.02 L68.0247 1033.02 L68.0247 1038.85 M65.6057 1027.17 L85.9442 1027.17 L85.9442 1033.02 L80.5333 1033.02 Q83.7798 1035.03 85.3394 1038.02 Q86.8672 1041.01 86.8672 1045.34 Q86.8672 1050.82 83.8116 1054.06 Q80.7243 1057.28 75.5681 1057.28 Q69.5525 1057.28 66.4969 1053.27 Q63.4414 1049.22 63.4414 1041.23 L63.4414 1033.02 L62.8685 1033.02 Q58.8262 1033.02 56.6301 1035.7 Q54.4021 1038.34 54.4021 1043.14 Q54.4021 1046.2 55.1341 1049.1 Q55.8662 1051.99 57.3303 1054.67 L51.9195 1054.67 Q50.6781 1051.45 50.0734 1048.43 Q49.4368 1045.4 49.4368 1042.54 Q49.4368 1034.81 53.4472 1030.99 Q57.4576 1027.17 65.6057 1027.17 Z" fill="#000000" fill-rule="evenodd" fill-opacity="1" /><path clip-path="url(#clip0100)" d="M 0 0 M55.7071 997.566 L36.419 997.566 L36.419 991.71 L85.9442 991.71 L85.9442 997.566 L80.597 997.566 Q83.7798 999.412 85.3394 1002.24 Q86.8672 1005.05 86.8672 1008.99 Q86.8672 1015.45 81.711 1019.53 Q76.5547 1023.57 68.152 1023.57 Q59.7493 1023.57 54.5931 1019.53 Q49.4368 1015.45 49.4368 1008.99 Q49.4368 1005.05 50.9964 1002.24 Q52.5242 999.412 55.7071 997.566 M68.152 1017.52 Q74.6132 1017.52 78.3053 1014.88 Q81.9656 1012.21 81.9656 1007.56 Q81.9656 1002.91 78.3053 1000.24 Q74.6132 997.566 68.152 997.566 Q61.6908 997.566 58.0305 1000.24 Q54.3384 1002.91 54.3384 1007.56 Q54.3384 1012.21 58.0305 1014.88 Q61.6908 1017.52 68.152 1017.52 Z" fill="#000000" fill-rule="evenodd" fill-opacity="1" /><path clip-path="url(#clip0100)" d="M 0 0 M36.4826 986.49 L36.4826 981.397 Q43.9942 976.623 51.1874 974.268 Q58.3806 971.88 65.4784 971.88 Q72.608 971.88 79.8331 974.268 Q87.0582 976.623 94.5379 981.397 L94.5379 986.49 Q87.2491 982.256 80.0559 980.188 Q72.8308 978.087 65.4784 978.087 Q58.126 978.087 50.9646 980.188 Q43.8032 982.256 36.4826 986.49 Z" fill="#000000" fill-rule="evenodd" fill-opacity="1" /><polyline clip-path="url(#clip0102)" style="stroke:#009af9; stroke-width:16; stroke-opacity:1; fill:none" points="
  308.412,452.198 319.623,475.287 330.834,524.886 342.045,577.521 353.256,625.38 364.468,663.015 375.679,689.435 386.89,705.927 398.101,714.391 409.313,716.71 
  420.524,714.45 431.735,708.859 442.946,700.858 454.157,691.132 465.369,680.17 476.58,668.34 487.791,655.908 499.002,643.082 510.214,630.013 521.425,616.825 
  532.636,603.611 543.847,590.446 555.058,577.391 566.27,564.497 577.481,551.803 588.692,539.343 599.903,527.144 611.115,515.229 622.326,503.613 633.537,492.312 
  644.748,481.333 655.959,470.683 667.171,460.364 678.382,450.377 689.593,440.718 700.804,431.384 712.016,422.368 723.227,413.664 734.438,405.265 745.649,397.163 
  756.86,389.35 768.072,381.822 779.283,374.569 790.494,367.588 801.705,360.874 812.917,354.427 824.128,348.241 835.339,342.321 846.55,336.664 857.761,331.279 
  868.973,326.165 880.184,321.336 891.395,316.793 902.606,312.555 913.818,308.624 925.029,305.027 936.24,301.765 947.451,298.873 958.662,296.352 969.874,294.247 
  981.085,292.559 992.296,291.346 1003.51,290.616 1014.72,290.449 1025.93,290.878 1037.14,292.042 1048.35,294.066 1059.56,295.416 1070.77,297.715 1081.99,301.872 
  1093.2,305.988 1104.41,310.052 1115.62,314.058 1126.83,318.011 1138.04,321.909 1149.25,325.76 1160.46,329.567 1171.68,333.34 1182.89,337.081 1194.1,340.799 
  1205.31,344.498 1216.52,348.185 1227.73,351.863 1238.94,355.538 1250.15,359.215 1261.37,362.9 1272.58,366.595 1283.79,370.307 1295,374.039 1306.21,377.795 
  1317.42,381.579 1328.63,385.393 1339.84,389.241 1351.06,393.123 1362.27,397.041 1373.48,400.994 1384.69,404.983 1395.9,409.004 1407.11,413.056 1418.32,417.134 
  1429.53,421.234 1440.75,425.35 1451.96,429.473 1463.17,433.596 1474.38,437.709 1485.59,441.801 1496.8,445.861 1508.01,449.874 1519.22,453.827 1530.43,457.704 
  1541.65,461.49 1552.86,465.166 1564.07,468.715 1575.28,472.117 1586.49,475.351 1597.7,478.397 1608.91,481.231 1620.12,483.829 1631.34,486.164 1642.55,488.208 
  1653.76,489.931 1664.97,491.303 1676.18,492.289 1687.39,492.855 1698.6,492.969 1709.81,492.605 1721.03,491.748 1732.24,490.398 1743.45,488.566 1754.66,486.282 
  1765.87,483.588 1777.08,480.536 1788.29,477.184 1799.5,473.596 1810.72,469.829 1821.93,465.939 1833.14,461.976 1844.35,457.982 1855.56,453.996 1866.77,450.051 
  1877.98,446.177 1889.19,442.398 1900.41,438.739 1911.62,435.219 1922.83,431.858 1934.04,428.674 1945.25,425.683 1956.46,422.901 1967.67,420.343 1978.88,418.025 
  1990.09,415.96 2001.31,414.162 2012.52,412.643 2023.73,411.416 2034.94,410.491 2046.15,409.878 2057.36,409.587 2068.57,409.625 2079.78,409.998 2091,410.711 
  2102.21,411.767 2113.42,413.167 2124.63,414.91 2135.84,416.994 2147.05,419.413 2158.26,422.16 2169.47,425.227 2180.69,428.602 2191.9,432.272 2203.11,436.222 
  2214.32,440.433 2225.53,444.886 2236.74,449.56 2247.95,454.432 2259.16,459.476 2270.38,464.666 2281.59,469.972 2292.8,475.364 2304.01,480.811 2315.22,486.278 
  2326.43,491.731 2337.64,497.133 2348.85,502.447 2360.07,507.633 2371.28,512.653 2382.49,517.465 2393.7,522.03 2404.91,526.304 2416.12,530.251 2427.33,533.83 
  2438.54,537.007 2449.76,539.749 2460.97,542.038 2472.18,543.854 2483.39,545.209 2494.6,546.121 2505.81,546.658 2517.02,546.94 2528.23,547.206 2539.44,547.881 
  2550.66,548.376 
  "/>
<polyline clip-path="url(#clip0102)" style="stroke:#e26f46; stroke-width:16; stroke-opacity:1; fill:none" points="
  308.412,452.198 319.623,503.139 330.834,583.712 342.045,616.845 353.256,614.19 364.468,601.111 375.679,587.939 386.89,575.948 398.101,564.492 409.313,553.056 
  420.524,541.451 431.735,529.651 442.946,517.698 454.157,505.645 465.369,493.555 476.58,481.487 487.791,469.505 499.002,457.667 510.214,446.037 521.425,434.67 
  532.636,423.622 543.847,412.941 555.058,402.671 566.27,392.848 577.481,383.499 588.692,374.646 599.903,366.302 611.115,358.474 622.326,351.162 633.537,344.36 
  644.748,338.058 655.959,332.243 667.171,326.895 678.382,321.996 689.593,317.522 700.804,313.451 712.016,309.758 723.227,306.419 734.438,303.407 745.649,300.701 
  756.86,298.274 768.072,296.105 779.283,294.171 790.494,292.453 801.705,290.931 812.917,289.587 824.128,288.406 835.339,287.373 846.55,286.476 857.761,285.706 
  868.973,285.053 880.184,284.512 891.395,284.076 902.606,283.746 913.818,283.518 925.029,283.396 936.24,283.38 947.451,283.479 958.662,283.696 969.874,284.047 
  981.085,284.533 992.296,285.181 1003.51,285.995 1014.72,287.012 1025.93,288.25 1037.14,289.771 1048.35,291.63 1059.56,292.753 1070.77,294.237 1081.99,296.959 
  1093.2,299.705 1104.41,302.478 1115.62,305.282 1126.83,308.118 1138.04,310.99 1149.25,313.901 1160.46,316.856 1171.68,319.861 1182.89,322.923 1194.1,326.051 
  1205.31,329.253 1216.52,332.54 1227.73,335.925 1238.94,339.42 1250.15,343.039 1261.37,346.799 1272.58,350.714 1283.79,354.801 1295,359.078 1306.21,363.561 
  1317.42,368.268 1328.63,373.215 1339.84,378.419 1351.06,383.894 1362.27,389.657 1373.48,395.719 1384.69,402.094 1395.9,408.79 1407.11,415.818 1418.32,423.183 
  1429.53,430.892 1440.75,438.946 1451.96,447.346 1463.17,456.088 1474.38,465.169 1485.59,474.579 1496.8,484.308 1508.01,494.34 1519.22,504.658 1530.43,515.239 
  1541.65,526.058 1552.86,537.084 1564.07,548.283 1575.28,559.616 1586.49,571.042 1597.7,582.514 1608.91,593.982 1620.12,605.391 1631.34,616.684 1642.55,627.801 
  1653.76,638.676 1664.97,649.237 1676.18,659.406 1687.39,669.094 1698.6,678.208 1709.81,686.651 1721.03,694.33 1732.24,701.157 1743.45,707.056 1754.66,711.966 
  1765.87,715.84 1777.08,718.651 1788.29,720.386 1799.5,721.053 1810.72,720.678 1821.93,719.309 1833.14,717.014 1844.35,713.869 1855.56,709.95 1866.77,705.33 
  1877.98,700.082 1889.19,694.275 1900.41,687.977 1911.62,681.253 1922.83,674.168 1934.04,666.781 1945.25,659.15 1956.46,651.333 1967.67,643.38 1978.88,635.344 
  1990.09,627.269 2001.31,619.199 2012.52,611.176 2023.73,603.235 2034.94,595.411 2046.15,587.732 2057.36,580.227 2068.57,572.918 2079.78,565.826 2091,558.968 
  2102.21,552.357 2113.42,546.005 2124.63,539.918 2135.84,534.101 2147.05,528.556 2158.26,523.281 2169.47,518.271 2180.69,513.519 2191.9,509.016 2203.11,504.748 
  2214.32,500.702 2225.53,496.86 2236.74,493.205 2247.95,489.717 2259.16,486.375 2270.38,483.158 2281.59,480.045 2292.8,477.015 2304.01,474.047 2315.22,471.122 
  2326.43,468.221 2337.64,465.328 2348.85,462.429 2360.07,459.514 2371.28,456.573 2382.49,453.604 2393.7,450.606 2404.91,447.585 2416.12,444.551 2427.33,441.519 
  2438.54,438.514 2449.76,435.563 2460.97,432.703 2472.18,429.974 2483.39,427.423 2494.6,425.093 2505.81,423.018 2517.02,421.193 2528.23,419.471 2539.44,417.263 
  2550.66,415.919 
  "/>
<polyline clip-path="url(#clip0102)" style="stroke:#3da44d; stroke-width:16; stroke-opacity:1; fill:none" points="
  308.412,452.198 319.623,508.115 330.834,595.558 342.045,630.118 353.256,626.601 364.468,613.169 375.679,600.185 386.89,588.566 398.101,577.504 409.313,566.452 
  420.524,555.211 431.735,543.753 442.946,532.111 454.157,520.334 465.369,508.477 476.58,496.595 487.791,484.751 499.002,473.003 510.214,461.415 521.425,450.044 
  532.636,438.948 543.847,428.18 555.058,417.787 566.27,407.809 577.481,398.281 588.692,389.229 599.903,380.673 611.115,372.626 622.326,365.094 633.537,358.075 
  644.748,351.566 655.959,345.555 667.171,340.027 678.382,334.964 689.593,330.344 700.804,326.145 712.016,322.341 723.227,318.906 734.438,315.814 745.649,313.038 
  756.86,310.552 768.072,308.332 779.283,306.352 790.494,304.59 801.705,303.026 812.917,301.639 824.128,300.414 835.339,299.334 846.55,298.387 857.761,297.563 
  868.973,296.855 880.184,296.257 891.395,295.766 902.606,295.384 913.818,295.113 925.029,294.959 936.24,294.934 947.451,295.044 958.662,295.312 969.874,295.747 
  981.085,296.381 992.296,297.226 1003.51,298.324 1014.72,299.69 1025.93,301.373 1037.14,303.388 1048.35,305.782 1059.56,307.249 1070.77,308.608 1081.99,310.969 
  1093.2,313.156 1104.41,315.195 1115.62,317.126 1126.83,318.968 1138.04,320.755 1149.25,322.505 1160.46,324.246 1171.68,325.995 1182.89,327.773 1194.1,329.595 
  1205.31,331.478 1216.52,333.434 1227.73,335.474 1238.94,337.606 1250.15,339.835 1261.37,342.168 1272.58,344.605 1283.79,347.147 1295,349.792 1306.21,352.539 
  1317.42,355.379 1328.63,358.31 1339.84,361.32 1351.06,364.402 1362.27,367.542 1373.48,370.729 1384.69,373.947 1395.9,377.183 1407.11,380.418 1418.32,383.637 
  1429.53,386.82 1440.75,389.95 1451.96,393.005 1463.17,395.967 1474.38,398.816 1485.59,401.532 1496.8,404.095 1508.01,406.487 1519.22,408.688 1530.43,410.682 
  1541.65,412.452 1552.86,413.983 1564.07,415.261 1575.28,416.276 1586.49,417.016 1597.7,417.475 1608.91,417.645 1620.12,417.523 1631.34,417.105 1642.55,416.39 
  1653.76,415.376 1664.97,414.064 1676.18,412.45 1687.39,410.536 1698.6,408.324 1709.81,405.821 1721.03,403.039 1732.24,399.994 1743.45,396.705 1754.66,393.193 
  1765.87,389.477 1777.08,385.58 1788.29,381.523 1799.5,377.325 1810.72,373.007 1821.93,368.587 1833.14,364.079 1844.35,359.499 1855.56,354.859 1866.77,350.172 
  1877.98,345.449 1889.19,340.703 1900.41,335.947 1911.62,331.191 1922.83,326.448 1934.04,321.729 1945.25,317.048 1956.46,312.417 1967.67,307.847 1978.88,303.353 
  1990.09,298.947 2001.31,294.641 2012.52,290.45 2023.73,286.387 2034.94,282.463 2046.15,278.694 2057.36,275.091 2068.57,271.667 2079.78,268.434 2091,265.404 
  2102.21,262.589 2113.42,259.998 2124.63,257.643 2135.84,255.532 2147.05,253.675 2158.26,252.08 2169.47,250.756 2180.69,249.708 2191.9,248.943 2203.11,248.467 
  2214.32,248.285 2225.53,248.401 2236.74,248.818 2247.95,249.539 2259.16,250.565 2270.38,251.897 2281.59,253.535 2292.8,255.476 2304.01,257.721 2315.22,260.263 
  2326.43,263.1 2337.64,266.223 2348.85,269.626 2360.07,273.3 2371.28,277.232 2382.49,281.411 2393.7,285.819 2404.91,290.443 2416.12,295.255 2427.33,300.244 
  2438.54,305.366 2449.76,310.617 2460.97,315.93 2472.18,321.322 2483.39,326.68 2494.6,332.08 2505.81,337.303 2517.02,342.566 2528.23,347.277 2539.44,351.914 
  2550.66,354.667 
  "/>
<polyline clip-path="url(#clip0102)" style="stroke:#c271d2; stroke-width:16; stroke-opacity:1; fill:none" points="
  308.412,452.198 319.623,468.509 330.834,502.465 342.045,540.541 353.256,580.994 364.468,617.32 375.679,644.907 386.89,662.958 398.101,672.876 409.313,676.599 
  420.524,675.876 431.735,672.003 442.946,665.922 454.157,658.286 465.369,649.57 476.58,640.114 487.791,630.173 499.002,619.938 510.214,609.555 521.425,599.138 
  532.636,588.771 543.847,578.521 555.058,568.439 566.27,558.563 577.481,548.92 588.692,539.531 599.903,530.409 611.115,521.562 622.326,512.994 633.537,504.705 
  644.748,496.693 655.959,488.952 667.171,481.474 678.382,474.251 689.593,467.272 700.804,460.527 712.016,454.004 723.227,447.693 734.438,441.584 745.649,435.667 
  756.86,429.934 768.072,424.379 779.283,418.997 790.494,413.787 801.705,408.748 812.917,403.884 824.128,399.199 835.339,394.703 846.55,390.406 857.761,386.324 
  868.973,382.474 880.184,378.875 891.395,375.552 902.606,372.53 913.818,369.838 925.029,367.509 936.24,365.574 947.451,364.073 958.662,363.039 969.874,362.517 
  981.085,362.543 992.296,363.163 1003.51,364.412 1014.72,366.332 1025.93,368.951 1037.14,372.31 1048.35,376.438 1059.56,378.959 1070.77,381.784 1081.99,386.736 
  1093.2,391.4 1104.41,395.813 1115.62,400.006 1126.83,404.004 1138.04,407.823 1149.25,411.473 1160.46,414.96 1171.68,418.285 1182.89,421.449 1194.1,424.457 
  1205.31,427.314 1216.52,430.027 1227.73,432.605 1238.94,435.055 1250.15,437.383 1261.37,439.595 1272.58,441.693 1283.79,443.68 1295,445.557 1306.21,447.322 
  1317.42,448.976 1328.63,450.515 1339.84,451.935 1351.06,453.231 1362.27,454.397 1373.48,455.425 1384.69,456.309 1395.9,457.038 1407.11,457.603 1418.32,457.993 
  1429.53,458.197 1440.75,458.204 1451.96,458.001 1463.17,457.577 1474.38,456.92 1485.59,456.018 1496.8,454.862 1508.01,453.441 1519.22,451.748 1530.43,449.775 
  1541.65,447.517 1552.86,444.972 1564.07,442.139 1575.28,439.022 1586.49,435.63 1597.7,431.974 1608.91,428.076 1620.12,423.967 1631.34,419.69 1642.55,415.301 
  1653.76,410.868 1664.97,406.469 1676.18,402.19 1687.39,398.123 1698.6,394.362 1709.81,390.996 1721.03,388.1 1732.24,385.729 1743.45,383.919 1754.66,382.683 
  1765.87,382.015 1777.08,381.893 1788.29,382.285 1799.5,383.148 1810.72,384.433 1821.93,386.09 1833.14,388.067 1844.35,390.315 1855.56,392.787 1866.77,395.444 
  1877.98,398.246 1889.19,401.162 1900.41,404.16 1911.62,407.214 1922.83,410.3 1934.04,413.398 1945.25,416.489 1956.46,419.558 1967.67,422.591 1978.88,425.576 
  1990.09,428.504 2001.31,431.367 2012.52,434.158 2023.73,436.875 2034.94,439.513 2046.15,442.071 2057.36,444.55 2068.57,446.948 2079.78,449.27 2091,451.516 
  2102.21,453.691 2113.42,455.8 2124.63,457.847 2135.84,459.837 2147.05,461.777 2158.26,463.672 2169.47,465.53 2180.69,467.356 2191.9,469.157 2203.11,470.939 
  2214.32,472.708 2225.53,474.47 2236.74,476.232 2247.95,477.996 2259.16,479.768 2270.38,481.551 2281.59,483.349 2292.8,485.163 2304.01,486.994 2315.22,488.842 
  2326.43,490.705 2337.64,492.583 2348.85,494.469 2360.07,496.361 2371.28,498.248 2382.49,500.127 2393.7,501.98 2404.91,503.804 2416.12,505.574 2427.33,507.287 
  2438.54,508.909 2449.76,510.438 2460.97,511.831 2472.18,513.093 2483.39,514.169 2494.6,515.083 2505.81,515.777 2517.02,516.315 2528.23,516.654 2539.44,516.941 
  2550.66,517.2 
  "/>
<polyline clip-path="url(#clip0102)" style="stroke:#ac8d18; stroke-width:16; stroke-opacity:1; fill:none" points="
  308.412,452.198 319.623,358.346 330.834,220.983 342.045,189.727 353.256,237.052 364.468,302.453 375.679,355.836 386.89,393.205 398.101,417.763 409.313,433.83 
  420.524,444.169 431.735,450.808 442.946,454.75 454.157,456.808 465.369,457.328 476.58,456.679 487.791,454.998 499.002,452.484 510.214,449.213 521.425,445.313 
  532.636,440.839 543.847,435.886 555.058,430.507 566.27,424.778 577.481,418.752 588.692,412.492 599.903,406.05 611.115,399.482 622.326,392.838 633.537,386.167 
  644.748,379.514 655.959,372.924 667.171,366.435 678.382,360.086 689.593,353.912 700.804,347.944 712.016,342.21 723.227,336.737 734.438,331.547 745.649,326.66 
  756.86,322.094 768.072,317.864 779.283,313.983 790.494,310.464 801.705,307.317 812.917,304.551 824.128,302.174 835.339,300.196 846.55,298.623 857.761,297.467 
  868.973,296.734 880.184,296.437 891.395,296.583 902.606,297.191 913.818,298.267 925.029,299.835 936.24,301.904 947.451,304.504 958.662,307.644 969.874,311.365 
  981.085,315.671 992.296,320.62 1003.51,326.209 1014.72,332.514 1025.93,339.512 1037.14,347.307 1048.35,355.864 1059.56,360.743 1070.77,366.335 1081.99,376.093 
  1093.2,385.357 1104.41,394.255 1115.62,402.763 1126.83,410.957 1138.04,418.814 1149.25,426.343 1160.46,433.488 1171.68,440.212 1182.89,446.453 1194.1,452.175 
  1205.31,457.344 1216.52,461.932 1227.73,465.916 1238.94,469.274 1250.15,471.991 1261.37,474.051 1272.58,475.444 1283.79,476.164 1295,476.207 1306.21,475.573 
  1317.42,474.265 1328.63,472.289 1339.84,469.657 1351.06,466.38 1362.27,462.477 1373.48,457.967 1384.69,452.875 1395.9,447.227 1407.11,441.053 1418.32,434.388 
  1429.53,427.269 1440.75,419.735 1451.96,411.83 1463.17,403.601 1474.38,395.098 1485.59,386.371 1496.8,377.478 1508.01,368.474 1519.22,359.419 1530.43,350.376 
  1541.65,341.406 1552.86,332.576 1564.07,323.951 1575.28,315.597 1586.49,307.584 1597.7,299.979 1608.91,292.853 1620.12,286.275 1631.34,280.317 1642.55,275.042 
  1653.76,270.5 1664.97,266.725 1676.18,263.747 1687.39,261.598 1698.6,260.315 1709.81,259.928 1721.03,260.457 1732.24,261.903 1743.45,264.247 1754.66,267.449 
  1765.87,271.456 1777.08,276.199 1788.29,281.605 1799.5,287.596 1810.72,294.096 1821.93,301.032 1833.14,308.332 1844.35,315.932 1855.56,323.768 1866.77,331.78 
  1877.98,339.913 1889.19,348.114 1900.41,356.334 1911.62,364.529 1922.83,372.656 1934.04,380.678 1945.25,388.562 1956.46,396.279 1967.67,403.802 1978.88,411.11 
  1990.09,418.186 2001.31,425.016 2012.52,431.588 2023.73,437.897 2034.94,443.938 2046.15,449.712 2057.36,455.221 2068.57,460.47 2079.78,465.466 2091,470.22 
  2102.21,474.744 2113.42,479.051 2124.63,483.155 2135.84,487.074 2147.05,490.823 2158.26,494.421 2169.47,497.884 2180.69,501.231 2191.9,504.478 2203.11,507.641 
  2214.32,510.738 2225.53,513.783 2236.74,516.789 2247.95,519.768 2259.16,522.732 2270.38,525.69 2281.59,528.649 2292.8,531.614 2304.01,534.588 2315.22,537.573 
  2326.43,540.566 2337.64,543.565 2348.85,546.559 2360.07,549.544 2371.28,552.499 2382.49,555.419 2393.7,558.27 2404.91,561.047 2416.12,563.702 2427.33,566.231 
  2438.54,568.567 2449.76,570.718 2460.97,572.592 2472.18,574.214 2483.39,575.47 2494.6,576.423 2505.81,576.944 2517.02,577.176 2528.23,577.041 2539.44,576.919 
  2550.66,577.161 
  "/>
<polyline clip-path="url(#clip0102)" style="stroke:#00a9ad; stroke-width:16; stroke-opacity:1; fill:none" points="
  308.412,452.198 319.623,385.555 330.834,291.226 342.045,277.161 353.256,318.457 364.468,368.949 375.679,408.484 386.89,435.317 398.101,452.372 409.313,462.9 
  420.524,469.015 431.735,472.203 442.946,473.284 454.157,472.876 465.369,471.31 476.58,468.878 487.791,465.74 499.002,462.062 510.214,457.939 521.425,453.478 
  532.636,448.746 543.847,443.816 555.058,438.74 566.27,433.571 577.481,428.349 588.692,423.112 599.903,417.89 611.115,412.711 622.326,407.598 633.537,402.567 
  644.748,397.633 655.959,392.808 667.171,388.099 678.382,383.51 689.593,379.046 700.804,374.705 712.016,370.488 723.227,366.393 734.438,362.417 745.649,358.557 
  756.86,354.811 768.072,351.177 779.283,347.653 790.494,344.24 801.705,340.939 812.917,337.752 824.128,334.686 835.339,331.746 846.55,328.944 857.761,326.287 
  868.973,323.794 880.184,321.476 891.395,319.358 902.606,317.453 913.818,315.796 925.029,314.4 936.24,313.309 947.451,312.537 958.662,312.141 969.874,312.13 
  981.085,312.577 992.296,313.491 1003.51,314.962 1014.72,317 1025.93,319.728 1037.14,323.172 1048.35,327.522 1059.56,330.358 1070.77,333.468 1081.99,339.097 
  1093.2,344.679 1104.41,350.216 1115.62,355.747 1126.83,361.292 1138.04,366.886 1149.25,372.547 1160.46,378.294 1171.68,384.138 1182.89,390.083 1194.1,396.132 
  1205.31,402.284 1216.52,408.539 1227.73,414.89 1238.94,421.337 1250.15,427.871 1261.37,434.487 1272.58,441.174 1283.79,447.923 1295,454.719 1306.21,461.552 
  1317.42,468.404 1328.63,475.261 1339.84,482.102 1351.06,488.91 1362.27,495.664 1373.48,502.343 1384.69,508.925 1395.9,515.389 1407.11,521.713 1418.32,527.873 
  1429.53,533.848 1440.75,539.616 1451.96,545.157 1463.17,550.45 1474.38,555.478 1485.59,560.222 1496.8,564.667 1508.01,568.798 1519.22,572.603 1530.43,576.07 
  1541.65,579.191 1552.86,581.957 1564.07,584.364 1575.28,586.409 1586.49,588.092 1597.7,589.413 1608.91,590.377 1620.12,590.987 1631.34,591.244 1642.55,591.147 
  1653.76,590.689 1664.97,589.868 1676.18,588.683 1687.39,587.141 1698.6,585.253 1709.81,583.031 1721.03,580.491 1732.24,577.646 1743.45,574.511 1754.66,571.102 
  1765.87,567.434 1777.08,563.522 1788.29,559.382 1799.5,555.029 1810.72,550.478 1821.93,545.742 1833.14,540.835 1844.35,535.768 1855.56,530.553 1866.77,525.2 
  1877.98,519.72 1889.19,514.124 1900.41,508.421 1911.62,502.621 1922.83,496.733 1934.04,490.768 1945.25,484.733 1956.46,478.64 1967.67,472.495 1978.88,466.31 
  1990.09,460.091 2001.31,453.849 2012.52,447.591 2023.73,441.326 2034.94,435.061 2046.15,428.804 2057.36,422.562 2068.57,416.341 2079.78,410.149 2091,403.99 
  2102.21,397.869 2113.42,391.791 2124.63,385.76 2135.84,379.778 2147.05,373.847 2158.26,367.969 2169.47,362.145 2180.69,356.375 2191.9,350.658 2203.11,344.992 
  2214.32,339.376 2225.53,333.809 2236.74,328.287 2247.95,322.808 2259.16,317.37 2270.38,311.97 2281.59,306.605 2292.8,301.274 2304.01,295.976 2315.22,290.711 
  2326.43,285.479 2337.64,280.283 2348.85,275.124 2360.07,270.01 2371.28,264.944 2382.49,259.938 2393.7,255.002 2404.91,250.148 2416.12,245.397 2427.33,240.763 
  2438.54,236.279 2449.76,231.956 2460.97,227.85 2472.18,223.962 2483.39,220.386 2494.6,217.098 2505.81,214.265 2517.02,211.822 2528.23,210.063 2539.44,208.762 
  2550.66,207.997 
  "/>
<polyline clip-path="url(#clip0102)" style="stroke:#ed5d92; stroke-width:16; stroke-opacity:1; fill:none" points="
  308.412,452.198 319.623,530.845 330.834,649.305 342.045,676.122 353.256,630.017 364.468,566.107 375.679,513.128 386.89,476.102 398.101,451.941 409.313,436.666 
  420.524,427.264 431.735,421.79 442.946,418.959 454.157,417.961 465.369,418.199 476.58,419.284 487.791,420.889 499.002,422.807 510.214,424.852 521.425,426.921 
  532.636,428.918 543.847,430.812 555.058,432.571 566.27,434.213 577.481,435.747 588.692,437.222 599.903,438.671 611.115,440.157 622.326,441.723 633.537,443.43 
  644.748,445.323 655.959,447.454 667.171,449.858 678.382,452.577 689.593,455.633 700.804,459.053 712.016,462.848 723.227,467.031 734.438,471.599 745.649,476.555 
  756.86,481.889 768.072,487.592 779.283,493.649 790.494,500.049 801.705,506.773 812.917,513.809 824.128,521.141 835.339,528.759 846.55,536.652 857.761,544.817 
  868.973,553.253 880.184,561.962 891.395,570.955 902.606,580.243 913.818,589.848 925.029,599.792 936.24,610.109 947.451,620.825 958.662,631.988 969.874,643.623 
  981.085,655.788 992.296,668.492 1003.51,681.786 1014.72,695.627 1025.93,710.006 1037.14,724.726 1048.35,739.602 1059.56,754.19 1070.77,768.91 1081.99,784.891 
  1093.2,802.426 1104.41,821.574 1115.62,842.215 1126.83,864.233 1138.04,887.403 1149.25,911.52 1160.46,936.341 1171.68,961.694 1182.89,987.46 1194.1,1013.57 
  1205.31,1039.98 1216.52,1066.64 1227.73,1093.52 1238.94,1120.59 1250.15,1147.8 1261.37,1175.14 1272.58,1202.56 1283.79,1230.05 1295,1257.57 1306.21,1285.11 
  1317.42,1312.66 1328.63,1340.2 1339.84,1367.73 1351.06,1395.25 1362.27,1422.77 1373.48,1450.28 1384.69,1477.81 1395.9,1505.35 1407.11,1532.9 1418.32,1560.48 
  1429.53,1588.06 1440.75,1615.65 1451.96,1643.22 1463.17,1670.74 1474.38,1698.19 1485.59,1725.51 1496.8,1752.66 1508.01,1779.58 1519.22,1806.22 1530.43,1832.5 
  1541.65,1858.37 1552.86,1883.75 1564.07,1908.59 1575.28,1932.83 1586.49,1956.41 1597.7,1979.27 1608.91,2001.35 1620.12,2022.57 1631.34,2042.82 1642.55,2061.96 
  1653.76,2079.77 1664.97,2096 1676.18,2110.4 1687.39,2122.69 1698.6,2132.62 1709.81,2139.95 1721.03,2144.52 1732.24,2146.22 1743.45,2145.03 1754.66,2140.97 
  1765.87,2134.16 1777.08,2124.76 1788.29,2113 1799.5,2099.12 1810.72,2083.39 1821.93,2066.06 1833.14,2047.34 1844.35,2027.41 1855.56,2006.42 1866.77,1984.47 
  1877.98,1961.67 1889.19,1938.12 1900.41,1913.89 1911.62,1889.06 1922.83,1863.71 1934.04,1837.91 1945.25,1811.72 1956.46,1785.21 1967.67,1758.45 1978.88,1731.48 
  1990.09,1704.36 2001.31,1677.14 2012.52,1649.87 2023.73,1622.59 2034.94,1595.34 2046.15,1568.16 2057.36,1541.09 2068.57,1514.16 2079.78,1487.41 2091,1460.87 
  2102.21,1434.57 2113.42,1408.55 2124.63,1382.82 2135.84,1357.44 2147.05,1332.41 2158.26,1307.76 2169.47,1283.53 2180.69,1259.72 2191.9,1236.37 2203.11,1213.47 
  2214.32,1191.04 2225.53,1169.09 2236.74,1147.61 2247.95,1126.62 2259.16,1106.11 2270.38,1086.07 2281.59,1066.48 2292.8,1047.35 2304.01,1028.65 2315.22,1010.36 
  2326.43,992.473 2337.64,974.961 2348.85,957.794 2360.07,940.961 2371.28,924.42 2382.49,908.162 2393.7,892.14 2404.91,876.349 2416.12,860.738 2427.33,845.311 
  2438.54,830.01 2449.76,814.856 2460.97,799.785 2472.18,784.842 2483.39,769.961 2494.6,755.236 2505.81,740.665 2517.02,726.56 2528.23,713.46 2539.44,702.969 
  2550.66,698.861 
  "/>
<path clip-path="url(#clip0100)" d="
M2713.92 746.392 L3184.76 746.392 L3184.76 262.552 L2713.92 262.552  Z
  " fill="#ffffff" fill-rule="evenodd" fill-opacity="1"/>
<polyline clip-path="url(#clip0100)" style="stroke:#000000; stroke-width:4; stroke-opacity:1; fill:none" points="
  2713.92,746.392 3184.76,746.392 3184.76,262.552 2713.92,262.552 2713.92,746.392 
  "/>
<polyline clip-path="url(#clip0100)" style="stroke:#009af9; stroke-width:16; stroke-opacity:1; fill:none" points="
  2745.92,323.032 2937.92,323.032 
  "/>
<path clip-path="url(#clip0100)" d="M 0 0 M2991.95 303.633 Q2984.95 303.633 2980.81 308.853 Q2976.7 314.072 2976.7 323.08 Q2976.7 332.056 2980.81 337.275 Q2984.95 342.495 2991.95 342.495 Q2998.95 342.495 3003.03 337.275 Q3007.13 332.056 3007.13 323.08 Q3007.13 314.072 3003.03 308.853 Q2998.95 303.633 2991.95 303.633 M3000.96 345.933 L3009.42 355.195 L3001.66 355.195 L2994.62 347.588 Q2993.57 347.651 2993 347.683 Q2992.46 347.715 2991.95 347.715 Q2981.92 347.715 2975.91 341.031 Q2969.92 334.315 2969.92 323.08 Q2969.92 311.813 2975.91 305.129 Q2981.92 298.413 2991.95 298.413 Q3001.94 298.413 3007.93 305.129 Q3013.91 311.813 3013.91 323.08 Q3013.91 331.355 3010.57 337.244 Q3007.26 343.132 3000.96 345.933 Z" fill="#000000" fill-rule="evenodd" fill-opacity="1" /><path clip-path="url(#clip0100)" d="M 0 0 M3019.45 332.724 L3019.45 311.144 L3025.31 311.144 L3025.31 332.501 Q3025.31 337.562 3027.28 340.108 Q3029.25 342.623 3033.2 342.623 Q3037.94 342.623 3040.68 339.599 Q3043.45 336.575 3043.45 331.355 L3043.45 311.144 L3049.3 311.144 L3049.3 346.792 L3043.45 346.792 L3043.45 341.318 Q3041.31 344.564 3038.48 346.156 Q3035.68 347.715 3031.96 347.715 Q3025.81 347.715 3022.63 343.896 Q3019.45 340.076 3019.45 332.724 M3034.19 310.285 L3034.19 310.285 Z" fill="#000000" fill-rule="evenodd" fill-opacity="1" /><path clip-path="url(#clip0100)" d="M 0 0 M3071.65 328.873 Q3064.55 328.873 3061.81 330.496 Q3059.08 332.119 3059.08 336.034 Q3059.08 339.153 3061.11 340.999 Q3063.18 342.814 3066.71 342.814 Q3071.58 342.814 3074.51 339.376 Q3077.47 335.907 3077.47 330.178 L3077.47 328.873 L3071.65 328.873 M3083.33 326.454 L3083.33 346.792 L3077.47 346.792 L3077.47 341.381 Q3075.47 344.628 3072.47 346.187 Q3069.48 347.715 3065.15 347.715 Q3059.68 347.715 3056.43 344.66 Q3053.22 341.572 3053.22 336.416 Q3053.22 330.4 3057.23 327.345 Q3061.27 324.289 3069.26 324.289 L3077.47 324.289 L3077.47 323.716 Q3077.47 319.674 3074.8 317.478 Q3072.16 315.25 3067.35 315.25 Q3064.29 315.25 3061.4 315.982 Q3058.5 316.714 3055.83 318.178 L3055.83 312.767 Q3059.04 311.526 3062.07 310.921 Q3065.09 310.285 3067.96 310.285 Q3075.69 310.285 3079.51 314.295 Q3083.33 318.306 3083.33 326.454 Z" fill="#000000" fill-rule="evenodd" fill-opacity="1" /><path clip-path="url(#clip0100)" d="M 0 0 M3112.93 316.555 L3112.93 297.267 L3118.79 297.267 L3118.79 346.792 L3112.93 346.792 L3112.93 341.445 Q3111.08 344.628 3108.25 346.187 Q3105.45 347.715 3101.5 347.715 Q3095.04 347.715 3090.97 342.559 Q3086.93 337.403 3086.93 329 Q3086.93 320.597 3090.97 315.441 Q3095.04 310.285 3101.5 310.285 Q3105.45 310.285 3108.25 311.844 Q3111.08 313.372 3112.93 316.555 M3092.97 329 Q3092.97 335.461 3095.61 339.153 Q3098.29 342.814 3102.93 342.814 Q3107.58 342.814 3110.26 339.153 Q3112.93 335.461 3112.93 329 Q3112.93 322.539 3110.26 318.879 Q3107.58 315.186 3102.93 315.186 Q3098.29 315.186 3095.61 318.879 Q3092.97 322.539 3092.97 329 Z" fill="#000000" fill-rule="evenodd" fill-opacity="1" /><path clip-path="url(#clip0100)" d="M 0 0 M3147.59 341.381 L3158.09 341.381 L3158.09 305.129 L3146.67 307.42 L3146.67 301.564 L3158.03 299.272 L3164.46 299.272 L3164.46 341.381 L3174.96 341.381 L3174.96 346.792 L3147.59 346.792 L3147.59 341.381 Z" fill="#000000" fill-rule="evenodd" fill-opacity="1" /><polyline clip-path="url(#clip0100)" style="stroke:#e26f46; stroke-width:16; stroke-opacity:1; fill:none" points="
  2745.92,383.512 2937.92,383.512 
  "/>
<path clip-path="url(#clip0100)" d="M 0 0 M2991.95 364.113 Q2984.95 364.113 2980.81 369.333 Q2976.7 374.552 2976.7 383.56 Q2976.7 392.536 2980.81 397.755 Q2984.95 402.975 2991.95 402.975 Q2998.95 402.975 3003.03 397.755 Q3007.13 392.536 3007.13 383.56 Q3007.13 374.552 3003.03 369.333 Q2998.95 364.113 2991.95 364.113 M3000.96 406.413 L3009.42 415.675 L3001.66 415.675 L2994.62 408.068 Q2993.57 408.131 2993 408.163 Q2992.46 408.195 2991.95 408.195 Q2981.92 408.195 2975.91 401.511 Q2969.92 394.795 2969.92 383.56 Q2969.92 372.293 2975.91 365.609 Q2981.92 358.893 2991.95 358.893 Q3001.94 358.893 3007.93 365.609 Q3013.91 372.293 3013.91 383.56 Q3013.91 391.835 3010.57 397.724 Q3007.26 403.612 3000.96 406.413 Z" fill="#000000" fill-rule="evenodd" fill-opacity="1" /><path clip-path="url(#clip0100)" d="M 0 0 M3019.45 393.204 L3019.45 371.624 L3025.31 371.624 L3025.31 392.981 Q3025.31 398.042 3027.28 400.588 Q3029.25 403.103 3033.2 403.103 Q3037.94 403.103 3040.68 400.079 Q3043.45 397.055 3043.45 391.835 L3043.45 371.624 L3049.3 371.624 L3049.3 407.272 L3043.45 407.272 L3043.45 401.798 Q3041.31 405.044 3038.48 406.636 Q3035.68 408.195 3031.96 408.195 Q3025.81 408.195 3022.63 404.376 Q3019.45 400.556 3019.45 393.204 M3034.19 370.765 L3034.19 370.765 Z" fill="#000000" fill-rule="evenodd" fill-opacity="1" /><path clip-path="url(#clip0100)" d="M 0 0 M3071.65 389.353 Q3064.55 389.353 3061.81 390.976 Q3059.08 392.599 3059.08 396.514 Q3059.08 399.633 3061.11 401.479 Q3063.18 403.294 3066.71 403.294 Q3071.58 403.294 3074.51 399.856 Q3077.47 396.387 3077.47 390.658 L3077.47 389.353 L3071.65 389.353 M3083.33 386.934 L3083.33 407.272 L3077.47 407.272 L3077.47 401.861 Q3075.47 405.108 3072.47 406.667 Q3069.48 408.195 3065.15 408.195 Q3059.68 408.195 3056.43 405.14 Q3053.22 402.052 3053.22 396.896 Q3053.22 390.88 3057.23 387.825 Q3061.27 384.769 3069.26 384.769 L3077.47 384.769 L3077.47 384.196 Q3077.47 380.154 3074.8 377.958 Q3072.16 375.73 3067.35 375.73 Q3064.29 375.73 3061.4 376.462 Q3058.5 377.194 3055.83 378.658 L3055.83 373.247 Q3059.04 372.006 3062.07 371.401 Q3065.09 370.765 3067.96 370.765 Q3075.69 370.765 3079.51 374.775 Q3083.33 378.786 3083.33 386.934 Z" fill="#000000" fill-rule="evenodd" fill-opacity="1" /><path clip-path="url(#clip0100)" d="M 0 0 M3112.93 377.035 L3112.93 357.747 L3118.79 357.747 L3118.79 407.272 L3112.93 407.272 L3112.93 401.925 Q3111.08 405.108 3108.25 406.667 Q3105.45 408.195 3101.5 408.195 Q3095.04 408.195 3090.97 403.039 Q3086.93 397.883 3086.93 389.48 Q3086.93 381.077 3090.97 375.921 Q3095.04 370.765 3101.5 370.765 Q3105.45 370.765 3108.25 372.324 Q3111.08 373.852 3112.93 377.035 M3092.97 389.48 Q3092.97 395.941 3095.61 399.633 Q3098.29 403.294 3102.93 403.294 Q3107.58 403.294 3110.26 399.633 Q3112.93 395.941 3112.93 389.48 Q3112.93 383.019 3110.26 379.359 Q3107.58 375.666 3102.93 375.666 Q3098.29 375.666 3095.61 379.359 Q3092.97 383.019 3092.97 389.48 Z" fill="#000000" fill-rule="evenodd" fill-opacity="1" /><path clip-path="url(#clip0100)" d="M 0 0 M3152.01 401.861 L3174.45 401.861 L3174.45 407.272 L3144.28 407.272 L3144.28 401.861 Q3147.94 398.074 3154.24 391.708 Q3160.58 385.31 3162.2 383.464 Q3165.29 379.995 3166.5 377.608 Q3167.74 375.189 3167.74 372.865 Q3167.74 369.078 3165.06 366.691 Q3162.42 364.304 3158.16 364.304 Q3155.13 364.304 3151.76 365.354 Q3148.42 366.404 3144.6 368.537 L3144.6 362.044 Q3148.48 360.484 3151.86 359.688 Q3155.23 358.893 3158.03 358.893 Q3165.41 358.893 3169.81 362.585 Q3174.2 366.277 3174.2 372.452 Q3174.2 375.38 3173.08 378.022 Q3172 380.632 3169.11 384.196 Q3168.31 385.119 3164.05 389.544 Q3159.78 393.936 3152.01 401.861 Z" fill="#000000" fill-rule="evenodd" fill-opacity="1" /><polyline clip-path="url(#clip0100)" style="stroke:#3da44d; stroke-width:16; stroke-opacity:1; fill:none" points="
  2745.92,443.992 2937.92,443.992 
  "/>
<path clip-path="url(#clip0100)" d="M 0 0 M2991.95 424.593 Q2984.95 424.593 2980.81 429.813 Q2976.7 435.032 2976.7 444.04 Q2976.7 453.016 2980.81 458.235 Q2984.95 463.455 2991.95 463.455 Q2998.95 463.455 3003.03 458.235 Q3007.13 453.016 3007.13 444.04 Q3007.13 435.032 3003.03 429.813 Q2998.95 424.593 2991.95 424.593 M3000.96 466.893 L3009.42 476.155 L3001.66 476.155 L2994.62 468.548 Q2993.57 468.611 2993 468.643 Q2992.46 468.675 2991.95 468.675 Q2981.92 468.675 2975.91 461.991 Q2969.92 455.275 2969.92 444.04 Q2969.92 432.773 2975.91 426.089 Q2981.92 419.373 2991.95 419.373 Q3001.94 419.373 3007.93 426.089 Q3013.91 432.773 3013.91 444.04 Q3013.91 452.315 3010.57 458.204 Q3007.26 464.092 3000.96 466.893 Z" fill="#000000" fill-rule="evenodd" fill-opacity="1" /><path clip-path="url(#clip0100)" d="M 0 0 M3019.45 453.684 L3019.45 432.104 L3025.31 432.104 L3025.31 453.461 Q3025.31 458.522 3027.28 461.068 Q3029.25 463.583 3033.2 463.583 Q3037.94 463.583 3040.68 460.559 Q3043.45 457.535 3043.45 452.315 L3043.45 432.104 L3049.3 432.104 L3049.3 467.752 L3043.45 467.752 L3043.45 462.278 Q3041.31 465.524 3038.48 467.116 Q3035.68 468.675 3031.96 468.675 Q3025.81 468.675 3022.63 464.856 Q3019.45 461.036 3019.45 453.684 M3034.19 431.245 L3034.19 431.245 Z" fill="#000000" fill-rule="evenodd" fill-opacity="1" /><path clip-path="url(#clip0100)" d="M 0 0 M3071.65 449.833 Q3064.55 449.833 3061.81 451.456 Q3059.08 453.079 3059.08 456.994 Q3059.08 460.113 3061.11 461.959 Q3063.18 463.774 3066.71 463.774 Q3071.58 463.774 3074.51 460.336 Q3077.47 456.867 3077.47 451.138 L3077.47 449.833 L3071.65 449.833 M3083.33 447.414 L3083.33 467.752 L3077.47 467.752 L3077.47 462.341 Q3075.47 465.588 3072.47 467.147 Q3069.48 468.675 3065.15 468.675 Q3059.68 468.675 3056.43 465.62 Q3053.22 462.532 3053.22 457.376 Q3053.22 451.36 3057.23 448.305 Q3061.27 445.249 3069.26 445.249 L3077.47 445.249 L3077.47 444.676 Q3077.47 440.634 3074.8 438.438 Q3072.16 436.21 3067.35 436.21 Q3064.29 436.21 3061.4 436.942 Q3058.5 437.674 3055.83 439.138 L3055.83 433.727 Q3059.04 432.486 3062.07 431.881 Q3065.09 431.245 3067.96 431.245 Q3075.69 431.245 3079.51 435.255 Q3083.33 439.266 3083.33 447.414 Z" fill="#000000" fill-rule="evenodd" fill-opacity="1" /><path clip-path="url(#clip0100)" d="M 0 0 M3112.93 437.515 L3112.93 418.227 L3118.79 418.227 L3118.79 467.752 L3112.93 467.752 L3112.93 462.405 Q3111.08 465.588 3108.25 467.147 Q3105.45 468.675 3101.5 468.675 Q3095.04 468.675 3090.97 463.519 Q3086.93 458.363 3086.93 449.96 Q3086.93 441.557 3090.97 436.401 Q3095.04 431.245 3101.5 431.245 Q3105.45 431.245 3108.25 432.804 Q3111.08 434.332 3112.93 437.515 M3092.97 449.96 Q3092.97 456.421 3095.61 460.113 Q3098.29 463.774 3102.93 463.774 Q3107.58 463.774 3110.26 460.113 Q3112.93 456.421 3112.93 449.96 Q3112.93 443.499 3110.26 439.839 Q3107.58 436.146 3102.93 436.146 Q3098.29 436.146 3095.61 439.839 Q3092.97 443.499 3092.97 449.96 Z" fill="#000000" fill-rule="evenodd" fill-opacity="1" /><path clip-path="url(#clip0100)" d="M 0 0 M3165.96 442.13 Q3170.57 443.117 3173.15 446.236 Q3175.76 449.355 3175.76 453.939 Q3175.76 460.973 3170.92 464.824 Q3166.08 468.675 3157.17 468.675 Q3154.18 468.675 3151 468.07 Q3147.84 467.497 3144.47 466.32 L3144.47 460.113 Q3147.14 461.673 3150.33 462.469 Q3153.51 463.264 3156.98 463.264 Q3163.03 463.264 3166.18 460.877 Q3169.36 458.49 3169.36 453.939 Q3169.36 449.737 3166.4 447.382 Q3163.47 444.995 3158.22 444.995 L3152.68 444.995 L3152.68 439.711 L3158.48 439.711 Q3163.22 439.711 3165.73 437.833 Q3168.25 435.924 3168.25 432.359 Q3168.25 428.699 3165.64 426.757 Q3163.06 424.784 3158.22 424.784 Q3155.58 424.784 3152.56 425.357 Q3149.53 425.929 3145.9 427.139 L3145.9 421.41 Q3149.56 420.391 3152.75 419.882 Q3155.96 419.373 3158.79 419.373 Q3166.11 419.373 3170.38 422.715 Q3174.64 426.025 3174.64 431.69 Q3174.64 435.637 3172.38 438.374 Q3170.12 441.08 3165.96 442.13 Z" fill="#000000" fill-rule="evenodd" fill-opacity="1" /><polyline clip-path="url(#clip0100)" style="stroke:#c271d2; stroke-width:16; stroke-opacity:1; fill:none" points="
  2745.92,504.472 2937.92,504.472 
  "/>
<path clip-path="url(#clip0100)" d="M 0 0 M2991.95 485.073 Q2984.95 485.073 2980.81 490.293 Q2976.7 495.512 2976.7 504.52 Q2976.7 513.496 2980.81 518.715 Q2984.95 523.935 2991.95 523.935 Q2998.95 523.935 3003.03 518.715 Q3007.13 513.496 3007.13 504.52 Q3007.13 495.512 3003.03 490.293 Q2998.95 485.073 2991.95 485.073 M3000.96 527.373 L3009.42 536.635 L3001.66 536.635 L2994.62 529.028 Q2993.57 529.091 2993 529.123 Q2992.46 529.155 2991.95 529.155 Q2981.92 529.155 2975.91 522.471 Q2969.92 515.755 2969.92 504.52 Q2969.92 493.253 2975.91 486.569 Q2981.92 479.853 2991.95 479.853 Q3001.94 479.853 3007.93 486.569 Q3013.91 493.253 3013.91 504.52 Q3013.91 512.795 3010.57 518.684 Q3007.26 524.572 3000.96 527.373 Z" fill="#000000" fill-rule="evenodd" fill-opacity="1" /><path clip-path="url(#clip0100)" d="M 0 0 M3019.45 514.164 L3019.45 492.584 L3025.31 492.584 L3025.31 513.941 Q3025.31 519.002 3027.28 521.548 Q3029.25 524.063 3033.2 524.063 Q3037.94 524.063 3040.68 521.039 Q3043.45 518.015 3043.45 512.795 L3043.45 492.584 L3049.3 492.584 L3049.3 528.232 L3043.45 528.232 L3043.45 522.758 Q3041.31 526.004 3038.48 527.596 Q3035.68 529.155 3031.96 529.155 Q3025.81 529.155 3022.63 525.336 Q3019.45 521.516 3019.45 514.164 M3034.19 491.725 L3034.19 491.725 Z" fill="#000000" fill-rule="evenodd" fill-opacity="1" /><path clip-path="url(#clip0100)" d="M 0 0 M3071.65 510.313 Q3064.55 510.313 3061.81 511.936 Q3059.08 513.559 3059.08 517.474 Q3059.08 520.593 3061.11 522.439 Q3063.18 524.254 3066.71 524.254 Q3071.58 524.254 3074.51 520.816 Q3077.47 517.347 3077.47 511.618 L3077.47 510.313 L3071.65 510.313 M3083.33 507.894 L3083.33 528.232 L3077.47 528.232 L3077.47 522.821 Q3075.47 526.068 3072.47 527.627 Q3069.48 529.155 3065.15 529.155 Q3059.68 529.155 3056.43 526.1 Q3053.22 523.012 3053.22 517.856 Q3053.22 511.84 3057.23 508.785 Q3061.27 505.729 3069.26 505.729 L3077.47 505.729 L3077.47 505.156 Q3077.47 501.114 3074.8 498.918 Q3072.16 496.69 3067.35 496.69 Q3064.29 496.69 3061.4 497.422 Q3058.5 498.154 3055.83 499.618 L3055.83 494.207 Q3059.04 492.966 3062.07 492.361 Q3065.09 491.725 3067.96 491.725 Q3075.69 491.725 3079.51 495.735 Q3083.33 499.746 3083.33 507.894 Z" fill="#000000" fill-rule="evenodd" fill-opacity="1" /><path clip-path="url(#clip0100)" d="M 0 0 M3112.93 497.995 L3112.93 478.707 L3118.79 478.707 L3118.79 528.232 L3112.93 528.232 L3112.93 522.885 Q3111.08 526.068 3108.25 527.627 Q3105.45 529.155 3101.5 529.155 Q3095.04 529.155 3090.97 523.999 Q3086.93 518.843 3086.93 510.44 Q3086.93 502.037 3090.97 496.881 Q3095.04 491.725 3101.5 491.725 Q3105.45 491.725 3108.25 493.284 Q3111.08 494.812 3112.93 497.995 M3092.97 510.44 Q3092.97 516.901 3095.61 520.593 Q3098.29 524.254 3102.93 524.254 Q3107.58 524.254 3110.26 520.593 Q3112.93 516.901 3112.93 510.44 Q3112.93 503.979 3110.26 500.319 Q3107.58 496.626 3102.93 496.626 Q3098.29 496.626 3095.61 500.319 Q3092.97 503.979 3092.97 510.44 Z" fill="#000000" fill-rule="evenodd" fill-opacity="1" /><path clip-path="url(#clip0100)" d="M 0 0 M3164.14 486.314 L3147.91 511.681 L3164.14 511.681 L3164.14 486.314 M3162.45 480.712 L3170.54 480.712 L3170.54 511.681 L3177.32 511.681 L3177.32 517.028 L3170.54 517.028 L3170.54 528.232 L3164.14 528.232 L3164.14 517.028 L3142.69 517.028 L3142.69 510.822 L3162.45 480.712 Z" fill="#000000" fill-rule="evenodd" fill-opacity="1" /><polyline clip-path="url(#clip0100)" style="stroke:#ac8d18; stroke-width:16; stroke-opacity:1; fill:none" points="
  2745.92,564.952 2937.92,564.952 
  "/>
<path clip-path="url(#clip0100)" d="M 0 0 M2991.95 545.553 Q2984.95 545.553 2980.81 550.773 Q2976.7 555.992 2976.7 565 Q2976.7 573.976 2980.81 579.195 Q2984.95 584.415 2991.95 584.415 Q2998.95 584.415 3003.03 579.195 Q3007.13 573.976 3007.13 565 Q3007.13 555.992 3003.03 550.773 Q2998.95 545.553 2991.95 545.553 M3000.96 587.853 L3009.42 597.115 L3001.66 597.115 L2994.62 589.508 Q2993.57 589.571 2993 589.603 Q2992.46 589.635 2991.95 589.635 Q2981.92 589.635 2975.91 582.951 Q2969.92 576.235 2969.92 565 Q2969.92 553.733 2975.91 547.049 Q2981.92 540.333 2991.95 540.333 Q3001.94 540.333 3007.93 547.049 Q3013.91 553.733 3013.91 565 Q3013.91 573.275 3010.57 579.164 Q3007.26 585.052 3000.96 587.853 Z" fill="#000000" fill-rule="evenodd" fill-opacity="1" /><path clip-path="url(#clip0100)" d="M 0 0 M3019.45 574.644 L3019.45 553.064 L3025.31 553.064 L3025.31 574.421 Q3025.31 579.482 3027.28 582.028 Q3029.25 584.543 3033.2 584.543 Q3037.94 584.543 3040.68 581.519 Q3043.45 578.495 3043.45 573.275 L3043.45 553.064 L3049.3 553.064 L3049.3 588.712 L3043.45 588.712 L3043.45 583.238 Q3041.31 586.484 3038.48 588.076 Q3035.68 589.635 3031.96 589.635 Q3025.81 589.635 3022.63 585.816 Q3019.45 581.996 3019.45 574.644 M3034.19 552.205 L3034.19 552.205 Z" fill="#000000" fill-rule="evenodd" fill-opacity="1" /><path clip-path="url(#clip0100)" d="M 0 0 M3071.65 570.793 Q3064.55 570.793 3061.81 572.416 Q3059.08 574.039 3059.08 577.954 Q3059.08 581.073 3061.11 582.919 Q3063.18 584.734 3066.71 584.734 Q3071.58 584.734 3074.51 581.296 Q3077.47 577.827 3077.47 572.098 L3077.47 570.793 L3071.65 570.793 M3083.33 568.374 L3083.33 588.712 L3077.47 588.712 L3077.47 583.301 Q3075.47 586.548 3072.47 588.107 Q3069.48 589.635 3065.15 589.635 Q3059.68 589.635 3056.43 586.58 Q3053.22 583.492 3053.22 578.336 Q3053.22 572.32 3057.23 569.265 Q3061.27 566.209 3069.26 566.209 L3077.47 566.209 L3077.47 565.636 Q3077.47 561.594 3074.8 559.398 Q3072.16 557.17 3067.35 557.17 Q3064.29 557.17 3061.4 557.902 Q3058.5 558.634 3055.83 560.098 L3055.83 554.687 Q3059.04 553.446 3062.07 552.841 Q3065.09 552.205 3067.96 552.205 Q3075.69 552.205 3079.51 556.215 Q3083.33 560.226 3083.33 568.374 Z" fill="#000000" fill-rule="evenodd" fill-opacity="1" /><path clip-path="url(#clip0100)" d="M 0 0 M3112.93 558.475 L3112.93 539.187 L3118.79 539.187 L3118.79 588.712 L3112.93 588.712 L3112.93 583.365 Q3111.08 586.548 3108.25 588.107 Q3105.45 589.635 3101.5 589.635 Q3095.04 589.635 3090.97 584.479 Q3086.93 579.323 3086.93 570.92 Q3086.93 562.517 3090.97 557.361 Q3095.04 552.205 3101.5 552.205 Q3105.45 552.205 3108.25 553.764 Q3111.08 555.292 3112.93 558.475 M3092.97 570.92 Q3092.97 577.381 3095.61 581.073 Q3098.29 584.734 3102.93 584.734 Q3107.58 584.734 3110.26 581.073 Q3112.93 577.381 3112.93 570.92 Q3112.93 564.459 3110.26 560.799 Q3107.58 557.106 3102.93 557.106 Q3098.29 557.106 3095.61 560.799 Q3092.97 564.459 3092.97 570.92 Z" fill="#000000" fill-rule="evenodd" fill-opacity="1" /><path clip-path="url(#clip0100)" d="M 0 0 M3146.54 541.192 L3171.78 541.192 L3171.78 546.603 L3152.43 546.603 L3152.43 558.252 Q3153.83 557.775 3155.23 557.552 Q3156.63 557.297 3158.03 557.297 Q3165.99 557.297 3170.63 561.658 Q3175.28 566.018 3175.28 573.466 Q3175.28 581.137 3170.51 585.402 Q3165.73 589.635 3157.04 589.635 Q3154.05 589.635 3150.93 589.126 Q3147.84 588.617 3144.53 587.598 L3144.53 581.137 Q3147.4 582.697 3150.45 583.46 Q3153.51 584.224 3156.92 584.224 Q3162.42 584.224 3165.64 581.328 Q3168.85 578.432 3168.85 573.466 Q3168.85 568.501 3165.64 565.605 Q3162.42 562.708 3156.92 562.708 Q3154.34 562.708 3151.76 563.281 Q3149.21 563.854 3146.54 565.064 L3146.54 541.192 Z" fill="#000000" fill-rule="evenodd" fill-opacity="1" /><polyline clip-path="url(#clip0100)" style="stroke:#00a9ad; stroke-width:16; stroke-opacity:1; fill:none" points="
  2745.92,625.432 2937.92,625.432 
  "/>
<path clip-path="url(#clip0100)" d="M 0 0 M2991.95 606.033 Q2984.95 606.033 2980.81 611.253 Q2976.7 616.472 2976.7 625.48 Q2976.7 634.456 2980.81 639.675 Q2984.95 644.895 2991.95 644.895 Q2998.95 644.895 3003.03 639.675 Q3007.13 634.456 3007.13 625.48 Q3007.13 616.472 3003.03 611.253 Q2998.95 606.033 2991.95 606.033 M3000.96 648.333 L3009.42 657.595 L3001.66 657.595 L2994.62 649.988 Q2993.57 650.051 2993 650.083 Q2992.46 650.115 2991.95 650.115 Q2981.92 650.115 2975.91 643.431 Q2969.92 636.715 2969.92 625.48 Q2969.92 614.213 2975.91 607.529 Q2981.92 600.813 2991.95 600.813 Q3001.94 600.813 3007.93 607.529 Q3013.91 614.213 3013.91 625.48 Q3013.91 633.755 3010.57 639.644 Q3007.26 645.532 3000.96 648.333 Z" fill="#000000" fill-rule="evenodd" fill-opacity="1" /><path clip-path="url(#clip0100)" d="M 0 0 M3019.45 635.124 L3019.45 613.544 L3025.31 613.544 L3025.31 634.901 Q3025.31 639.962 3027.28 642.508 Q3029.25 645.023 3033.2 645.023 Q3037.94 645.023 3040.68 641.999 Q3043.45 638.975 3043.45 633.755 L3043.45 613.544 L3049.3 613.544 L3049.3 649.192 L3043.45 649.192 L3043.45 643.718 Q3041.31 646.964 3038.48 648.556 Q3035.68 650.115 3031.96 650.115 Q3025.81 650.115 3022.63 646.296 Q3019.45 642.476 3019.45 635.124 M3034.19 612.685 L3034.19 612.685 Z" fill="#000000" fill-rule="evenodd" fill-opacity="1" /><path clip-path="url(#clip0100)" d="M 0 0 M3071.65 631.273 Q3064.55 631.273 3061.81 632.896 Q3059.08 634.519 3059.08 638.434 Q3059.08 641.553 3061.11 643.399 Q3063.18 645.214 3066.71 645.214 Q3071.58 645.214 3074.51 641.776 Q3077.47 638.307 3077.47 632.578 L3077.47 631.273 L3071.65 631.273 M3083.33 628.854 L3083.33 649.192 L3077.47 649.192 L3077.47 643.781 Q3075.47 647.028 3072.47 648.587 Q3069.48 650.115 3065.15 650.115 Q3059.68 650.115 3056.43 647.06 Q3053.22 643.972 3053.22 638.816 Q3053.22 632.8 3057.23 629.745 Q3061.27 626.689 3069.26 626.689 L3077.47 626.689 L3077.47 626.116 Q3077.47 622.074 3074.8 619.878 Q3072.16 617.65 3067.35 617.65 Q3064.29 617.65 3061.4 618.382 Q3058.5 619.114 3055.83 620.578 L3055.83 615.167 Q3059.04 613.926 3062.07 613.321 Q3065.09 612.685 3067.96 612.685 Q3075.69 612.685 3079.51 616.695 Q3083.33 620.706 3083.33 628.854 Z" fill="#000000" fill-rule="evenodd" fill-opacity="1" /><path clip-path="url(#clip0100)" d="M 0 0 M3112.93 618.955 L3112.93 599.667 L3118.79 599.667 L3118.79 649.192 L3112.93 649.192 L3112.93 643.845 Q3111.08 647.028 3108.25 648.587 Q3105.45 650.115 3101.5 650.115 Q3095.04 650.115 3090.97 644.959 Q3086.93 639.803 3086.93 631.4 Q3086.93 622.997 3090.97 617.841 Q3095.04 612.685 3101.5 612.685 Q3105.45 612.685 3108.25 614.244 Q3111.08 615.772 3112.93 618.955 M3092.97 631.4 Q3092.97 637.861 3095.61 641.553 Q3098.29 645.214 3102.93 645.214 Q3107.58 645.214 3110.26 641.553 Q3112.93 637.861 3112.93 631.4 Q3112.93 624.939 3110.26 621.279 Q3107.58 617.586 3102.93 617.586 Q3098.29 617.586 3095.61 621.279 Q3092.97 624.939 3092.97 631.4 Z" fill="#000000" fill-rule="evenodd" fill-opacity="1" /><path clip-path="url(#clip0100)" d="M 0 0 M3161.02 622.87 Q3156.69 622.87 3154.15 625.83 Q3151.63 628.79 3151.63 633.946 Q3151.63 639.071 3154.15 642.063 Q3156.69 645.023 3161.02 645.023 Q3165.35 645.023 3167.87 642.063 Q3170.41 639.071 3170.41 633.946 Q3170.41 628.79 3167.87 625.83 Q3165.35 622.87 3161.02 622.87 M3173.79 602.722 L3173.79 608.579 Q3171.37 607.433 3168.88 606.828 Q3166.43 606.224 3164.01 606.224 Q3157.65 606.224 3154.27 610.52 Q3150.93 614.817 3150.45 623.506 Q3152.33 620.737 3155.17 619.273 Q3158 617.777 3161.4 617.777 Q3168.57 617.777 3172.7 622.138 Q3176.87 626.467 3176.87 633.946 Q3176.87 641.267 3172.54 645.691 Q3168.22 650.115 3161.02 650.115 Q3152.78 650.115 3148.42 643.813 Q3144.06 637.479 3144.06 625.48 Q3144.06 614.213 3149.4 607.529 Q3154.75 600.813 3163.76 600.813 Q3166.18 600.813 3168.63 601.29 Q3171.11 601.768 3173.79 602.722 Z" fill="#000000" fill-rule="evenodd" fill-opacity="1" /><polyline clip-path="url(#clip0100)" style="stroke:#ed5d92; stroke-width:16; stroke-opacity:1; fill:none" points="
  2745.92,685.912 2937.92,685.912 
  "/>
<path clip-path="url(#clip0100)" d="M 0 0 M2969.92 662.152 L2976.35 662.152 L2976.35 704.261 L2999.49 704.261 L2999.49 709.672 L2969.92 709.672 L2969.92 662.152 Z" fill="#000000" fill-rule="evenodd" fill-opacity="1" /><path clip-path="url(#clip0100)" d="M 0 0 M3018.3 678.13 Q3013.59 678.13 3010.85 681.822 Q3008.12 685.482 3008.12 691.88 Q3008.12 698.278 3010.82 701.97 Q3013.56 705.63 3018.3 705.63 Q3022.98 705.63 3025.72 701.938 Q3028.46 698.246 3028.46 691.88 Q3028.46 685.546 3025.72 681.854 Q3022.98 678.13 3018.3 678.13 M3018.3 673.165 Q3025.94 673.165 3030.3 678.13 Q3034.66 683.095 3034.66 691.88 Q3034.66 700.633 3030.3 705.63 Q3025.94 710.595 3018.3 710.595 Q3010.63 710.595 3006.27 705.63 Q3001.94 700.633 3001.94 691.88 Q3001.94 683.095 3006.27 678.13 Q3010.63 673.165 3018.3 673.165 Z" fill="#000000" fill-rule="evenodd" fill-opacity="1" /><path clip-path="url(#clip0100)" d="M 0 0 M3057.01 691.753 Q3049.91 691.753 3047.17 693.376 Q3044.43 694.999 3044.43 698.914 Q3044.43 702.033 3046.47 703.879 Q3048.54 705.694 3052.07 705.694 Q3056.94 705.694 3059.87 702.256 Q3062.83 698.787 3062.83 693.058 L3062.83 691.753 L3057.01 691.753 M3068.69 689.334 L3068.69 709.672 L3062.83 709.672 L3062.83 704.261 Q3060.83 707.508 3057.83 709.067 Q3054.84 710.595 3050.51 710.595 Q3045.04 710.595 3041.79 707.54 Q3038.58 704.452 3038.58 699.296 Q3038.58 693.28 3042.59 690.225 Q3046.63 687.169 3054.62 687.169 L3062.83 687.169 L3062.83 686.596 Q3062.83 682.554 3060.16 680.358 Q3057.52 678.13 3052.71 678.13 Q3049.65 678.13 3046.76 678.862 Q3043.86 679.594 3041.19 681.058 L3041.19 675.647 Q3044.4 674.406 3047.43 673.801 Q3050.45 673.165 3053.31 673.165 Q3061.05 673.165 3064.87 677.175 Q3068.69 681.186 3068.69 689.334 Z" fill="#000000" fill-rule="evenodd" fill-opacity="1" /><path clip-path="url(#clip0100)" d="M 0 0 M3098.29 679.435 L3098.29 660.147 L3104.14 660.147 L3104.14 709.672 L3098.29 709.672 L3098.29 704.325 Q3096.44 707.508 3093.61 709.067 Q3090.81 710.595 3086.86 710.595 Q3080.4 710.595 3076.33 705.439 Q3072.28 700.283 3072.28 691.88 Q3072.28 683.477 3076.33 678.321 Q3080.4 673.165 3086.86 673.165 Q3090.81 673.165 3093.61 674.724 Q3096.44 676.252 3098.29 679.435 M3078.33 691.88 Q3078.33 698.341 3080.97 702.033 Q3083.65 705.694 3088.29 705.694 Q3092.94 705.694 3095.61 702.033 Q3098.29 698.341 3098.29 691.88 Q3098.29 685.419 3095.61 681.759 Q3092.94 678.066 3088.29 678.066 Q3083.65 678.066 3080.97 681.759 Q3078.33 685.419 3078.33 691.88 Z" fill="#000000" fill-rule="evenodd" fill-opacity="1" /></svg>
