<?xml version="1.0" encoding="utf-8"?>
<svg xmlns="http://www.w3.org/2000/svg" xmlns:xlink="http://www.w3.org/1999/xlink" width="800" height="600" viewBox="0 0 3200 2400">
<defs>
  <clipPath id="clip9200">
    <rect x="0" y="0" width="3200" height="2400"/>
  </clipPath>
</defs>
<path clip-path="url(#clip9200)" d="
M0 2400 L3200 2400 L3200 0 L0 0  Z
  " fill="#ffffff" fill-rule="evenodd" fill-opacity="1"/>
<defs>
  <clipPath id="clip9201">
    <rect x="640" y="0" width="2241" height="2241"/>
  </clipPath>
</defs>
<path clip-path="url(#clip9200)" d="
M202.464 2204.92 L2617.92 2204.92 L2617.92 131.032 L202.464 131.032  Z
  " fill="#ffffff" fill-rule="evenodd" fill-opacity="1"/>
<defs>
  <clipPath id="clip9202">
    <rect x="202" y="131" width="2416" height="2075"/>
  </clipPath>
</defs>
<polyline clip-path="url(#clip9202)" style="stroke:#000000; stroke-width:2; stroke-opacity:0.1; fill:none" points="
  270.826,2204.92 270.826,131.032 
  "/>
<polyline clip-path="url(#clip9202)" style="stroke:#000000; stroke-width:2; stroke-opacity:0.1; fill:none" points="
  726.573,2204.92 726.573,131.032 
  "/>
<polyline clip-path="url(#clip9202)" style="stroke:#000000; stroke-width:2; stroke-opacity:0.1; fill:none" points="
  1182.32,2204.92 1182.32,131.032 
  "/>
<polyline clip-path="url(#clip9202)" style="stroke:#000000; stroke-width:2; stroke-opacity:0.1; fill:none" points="
  1638.07,2204.92 1638.07,131.032 
  "/>
<polyline clip-path="url(#clip9202)" style="stroke:#000000; stroke-width:2; stroke-opacity:0.1; fill:none" points="
  2093.81,2204.92 2093.81,131.032 
  "/>
<polyline clip-path="url(#clip9202)" style="stroke:#000000; stroke-width:2; stroke-opacity:0.1; fill:none" points="
  2549.56,2204.92 2549.56,131.032 
  "/>
<polyline clip-path="url(#clip9202)" style="stroke:#000000; stroke-width:2; stroke-opacity:0.1; fill:none" points="
  202.464,1825.78 2617.92,1825.78 
  "/>
<polyline clip-path="url(#clip9202)" style="stroke:#000000; stroke-width:2; stroke-opacity:0.1; fill:none" points="
  202.464,1261.49 2617.92,1261.49 
  "/>
<polyline clip-path="url(#clip9202)" style="stroke:#000000; stroke-width:2; stroke-opacity:0.1; fill:none" points="
  202.464,697.208 2617.92,697.208 
  "/>
<polyline clip-path="url(#clip9202)" style="stroke:#000000; stroke-width:2; stroke-opacity:0.1; fill:none" points="
  202.464,132.924 2617.92,132.924 
  "/>
<polyline clip-path="url(#clip9200)" style="stroke:#000000; stroke-width:4; stroke-opacity:1; fill:none" points="
  202.464,2204.92 2617.92,2204.92 
  "/>
<polyline clip-path="url(#clip9200)" style="stroke:#000000; stroke-width:4; stroke-opacity:1; fill:none" points="
  202.464,2204.92 202.464,131.032 
  "/>
<polyline clip-path="url(#clip9200)" style="stroke:#000000; stroke-width:4; stroke-opacity:1; fill:none" points="
  270.826,2204.92 270.826,2180.03 
  "/>
<polyline clip-path="url(#clip9200)" style="stroke:#000000; stroke-width:4; stroke-opacity:1; fill:none" points="
  726.573,2204.92 726.573,2180.03 
  "/>
<polyline clip-path="url(#clip9200)" style="stroke:#000000; stroke-width:4; stroke-opacity:1; fill:none" points="
  1182.32,2204.92 1182.32,2180.03 
  "/>
<polyline clip-path="url(#clip9200)" style="stroke:#000000; stroke-width:4; stroke-opacity:1; fill:none" points="
  1638.07,2204.92 1638.07,2180.03 
  "/>
<polyline clip-path="url(#clip9200)" style="stroke:#000000; stroke-width:4; stroke-opacity:1; fill:none" points="
  2093.81,2204.92 2093.81,2180.03 
  "/>
<polyline clip-path="url(#clip9200)" style="stroke:#000000; stroke-width:4; stroke-opacity:1; fill:none" points="
  2549.56,2204.92 2549.56,2180.03 
  "/>
<polyline clip-path="url(#clip9200)" style="stroke:#000000; stroke-width:4; stroke-opacity:1; fill:none" points="
  202.464,1825.78 231.449,1825.78 
  "/>
<polyline clip-path="url(#clip9200)" style="stroke:#000000; stroke-width:4; stroke-opacity:1; fill:none" points="
  202.464,1261.49 231.449,1261.49 
  "/>
<polyline clip-path="url(#clip9200)" style="stroke:#000000; stroke-width:4; stroke-opacity:1; fill:none" points="
  202.464,697.208 231.449,697.208 
  "/>
<polyline clip-path="url(#clip9200)" style="stroke:#000000; stroke-width:4; stroke-opacity:1; fill:none" points="
  202.464,132.924 231.449,132.924 
  "/>
<path clip-path="url(#clip9200)" d="M 0 0 M270.826 2230.91 Q267.215 2230.91 265.386 2234.48 Q263.581 2238.02 263.581 2245.15 Q263.581 2252.25 265.386 2255.82 Q267.215 2259.36 270.826 2259.36 Q274.46 2259.36 276.266 2255.82 Q278.094 2252.25 278.094 2245.15 Q278.094 2238.02 276.266 2234.48 Q274.46 2230.91 270.826 2230.91 M270.826 2227.21 Q276.636 2227.21 279.692 2231.81 Q282.77 2236.4 282.77 2245.15 Q282.77 2253.87 279.692 2258.48 Q276.636 2263.06 270.826 2263.06 Q265.016 2263.06 261.937 2258.48 Q258.882 2253.87 258.882 2245.15 Q258.882 2236.4 261.937 2231.81 Q265.016 2227.21 270.826 2227.21 Z" fill="#000000" fill-rule="evenodd" fill-opacity="1" /><path clip-path="url(#clip9200)" d="M 0 0 M716.955 2258.46 L724.594 2258.46 L724.594 2232.09 L716.284 2233.76 L716.284 2229.5 L724.548 2227.83 L729.223 2227.83 L729.223 2258.46 L736.862 2258.46 L736.862 2262.39 L716.955 2262.39 L716.955 2258.46 Z" fill="#000000" fill-rule="evenodd" fill-opacity="1" /><path clip-path="url(#clip9200)" d="M 0 0 M1176.97 2258.46 L1193.29 2258.46 L1193.29 2262.39 L1171.35 2262.39 L1171.35 2258.46 Q1174.01 2255.7 1178.59 2251.07 Q1183.2 2246.42 1184.38 2245.08 Q1186.63 2242.55 1187.51 2240.82 Q1188.41 2239.06 1188.41 2237.37 Q1188.41 2234.61 1186.46 2232.88 Q1184.54 2231.14 1181.44 2231.14 Q1179.24 2231.14 1176.79 2231.91 Q1174.36 2232.67 1171.58 2234.22 L1171.58 2229.5 Q1174.4 2228.36 1176.86 2227.79 Q1179.31 2227.21 1181.35 2227.21 Q1186.72 2227.21 1189.91 2229.89 Q1193.11 2232.58 1193.11 2237.07 Q1193.11 2239.2 1192.3 2241.12 Q1191.51 2243.02 1189.4 2245.61 Q1188.82 2246.28 1185.72 2249.5 Q1182.62 2252.69 1176.97 2258.46 Z" fill="#000000" fill-rule="evenodd" fill-opacity="1" /><path clip-path="url(#clip9200)" d="M 0 0 M1642.31 2243.76 Q1645.67 2244.48 1647.55 2246.74 Q1649.44 2249.01 1649.44 2252.35 Q1649.44 2257.46 1645.93 2260.26 Q1642.41 2263.06 1635.93 2263.06 Q1633.75 2263.06 1631.44 2262.62 Q1629.14 2262.21 1626.69 2261.35 L1626.69 2256.84 Q1628.63 2257.97 1630.95 2258.55 Q1633.26 2259.13 1635.79 2259.13 Q1640.19 2259.13 1642.48 2257.39 Q1644.79 2255.66 1644.79 2252.35 Q1644.79 2249.29 1642.64 2247.58 Q1640.51 2245.84 1636.69 2245.84 L1632.66 2245.84 L1632.66 2242 L1636.88 2242 Q1640.32 2242 1642.15 2240.63 Q1643.98 2239.24 1643.98 2236.65 Q1643.98 2233.99 1642.08 2232.58 Q1640.21 2231.14 1636.69 2231.14 Q1634.77 2231.14 1632.57 2231.56 Q1630.37 2231.98 1627.73 2232.85 L1627.73 2228.69 Q1630.39 2227.95 1632.71 2227.58 Q1635.05 2227.21 1637.11 2227.21 Q1642.43 2227.21 1645.53 2229.64 Q1648.63 2232.04 1648.63 2236.17 Q1648.63 2239.04 1646.99 2241.03 Q1645.35 2242.99 1642.31 2243.76 Z" fill="#000000" fill-rule="evenodd" fill-opacity="1" /><path clip-path="url(#clip9200)" d="M 0 0 M2096.82 2231.91 L2085.02 2250.35 L2096.82 2250.35 L2096.82 2231.91 M2095.6 2227.83 L2101.48 2227.83 L2101.48 2250.35 L2106.41 2250.35 L2106.41 2254.24 L2101.48 2254.24 L2101.48 2262.39 L2096.82 2262.39 L2096.82 2254.24 L2081.22 2254.24 L2081.22 2249.73 L2095.6 2227.83 Z" fill="#000000" fill-rule="evenodd" fill-opacity="1" /><path clip-path="url(#clip9200)" d="M 0 0 M2539.84 2227.83 L2558.2 2227.83 L2558.2 2231.77 L2544.12 2231.77 L2544.12 2240.24 Q2545.14 2239.89 2546.16 2239.73 Q2547.18 2239.54 2548.2 2239.54 Q2553.98 2239.54 2557.36 2242.72 Q2560.74 2245.89 2560.74 2251.3 Q2560.74 2256.88 2557.27 2259.98 Q2553.8 2263.06 2547.48 2263.06 Q2545.3 2263.06 2543.03 2262.69 Q2540.79 2262.32 2538.38 2261.58 L2538.38 2256.88 Q2540.46 2258.02 2542.69 2258.57 Q2544.91 2259.13 2547.39 2259.13 Q2551.39 2259.13 2553.73 2257.02 Q2556.07 2254.92 2556.07 2251.3 Q2556.07 2247.69 2553.73 2245.59 Q2551.39 2243.48 2547.39 2243.48 Q2545.51 2243.48 2543.64 2243.9 Q2541.78 2244.31 2539.84 2245.19 L2539.84 2227.83 Z" fill="#000000" fill-rule="evenodd" fill-opacity="1" /><path clip-path="url(#clip9200)" d="M 0 0 M132.571 1828.17 L145.047 1828.17 L145.047 1831.97 L132.571 1831.97 L132.571 1828.17 Z" fill="#000000" fill-rule="evenodd" fill-opacity="1" /><path clip-path="url(#clip9200)" d="M 0 0 M154.144 1839.12 L170.464 1839.12 L170.464 1843.06 L148.52 1843.06 L148.52 1839.12 Q151.182 1836.37 155.765 1831.74 Q160.371 1827.09 161.552 1825.74 Q163.797 1823.22 164.677 1821.48 Q165.58 1819.72 165.58 1818.03 Q165.58 1815.28 163.635 1813.54 Q161.714 1811.81 158.612 1811.81 Q156.413 1811.81 153.959 1812.57 Q151.529 1813.34 148.751 1814.89 L148.751 1810.16 Q151.575 1809.03 154.029 1808.45 Q156.482 1807.87 158.519 1807.87 Q163.89 1807.87 167.084 1810.56 Q170.279 1813.24 170.279 1817.73 Q170.279 1819.86 169.468 1821.78 Q168.681 1823.68 166.575 1826.28 Q165.996 1826.95 162.894 1830.16 Q159.793 1833.36 154.144 1839.12 Z" fill="#000000" fill-rule="evenodd" fill-opacity="1" /><path clip-path="url(#clip9200)" d="M 0 0 M132.2 1263.89 L144.677 1263.89 L144.677 1267.68 L132.2 1267.68 L132.2 1263.89 Z" fill="#000000" fill-rule="evenodd" fill-opacity="1" /><path clip-path="url(#clip9200)" d="M 0 0 M150.557 1274.84 L158.195 1274.84 L158.195 1248.47 L149.885 1250.14 L149.885 1245.88 L158.149 1244.21 L162.825 1244.21 L162.825 1274.84 L170.464 1274.84 L170.464 1278.77 L150.557 1278.77 L150.557 1274.84 Z" fill="#000000" fill-rule="evenodd" fill-opacity="1" /><path clip-path="url(#clip9200)" d="M 0 0 M158.519 683.007 Q154.908 683.007 153.08 686.572 Q151.274 690.114 151.274 697.243 Q151.274 704.35 153.08 707.914 Q154.908 711.456 158.519 711.456 Q162.154 711.456 163.959 707.914 Q165.788 704.35 165.788 697.243 Q165.788 690.114 163.959 686.572 Q162.154 683.007 158.519 683.007 M158.519 679.303 Q164.33 679.303 167.385 683.91 Q170.464 688.493 170.464 697.243 Q170.464 705.97 167.385 710.576 Q164.33 715.16 158.519 715.16 Q152.709 715.16 149.631 710.576 Q146.575 705.97 146.575 697.243 Q146.575 688.493 149.631 683.91 Q152.709 679.303 158.519 679.303 Z" fill="#000000" fill-rule="evenodd" fill-opacity="1" /><path clip-path="url(#clip9200)" d="M 0 0 M150.557 146.269 L158.195 146.269 L158.195 119.903 L149.885 121.57 L149.885 117.311 L158.149 115.644 L162.825 115.644 L162.825 146.269 L170.464 146.269 L170.464 150.204 L150.557 150.204 L150.557 146.269 Z" fill="#000000" fill-rule="evenodd" fill-opacity="1" /><path clip-path="url(#clip9200)" d="M 0 0 M463.315 12.096 L471.498 12.096 L471.498 36.8875 L501.231 36.8875 L501.231 12.096 L509.414 12.096 L509.414 72.576 L501.231 72.576 L501.231 43.7741 L471.498 43.7741 L471.498 72.576 L463.315 72.576 L463.315 12.096 Z" fill="#000000" fill-rule="evenodd" fill-opacity="1" /><path clip-path="url(#clip9200)" d="M 0 0 M534.813 32.4315 Q528.818 32.4315 525.334 37.1306 Q521.851 41.7891 521.851 49.9314 Q521.851 58.0738 525.294 62.7728 Q528.778 67.4314 534.813 67.4314 Q540.768 67.4314 544.252 62.7323 Q547.736 58.0333 547.736 49.9314 Q547.736 41.8701 544.252 37.1711 Q540.768 32.4315 534.813 32.4315 M534.813 26.1121 Q544.536 26.1121 550.085 32.4315 Q555.635 38.7509 555.635 49.9314 Q555.635 61.0714 550.085 67.4314 Q544.536 73.7508 534.813 73.7508 Q525.051 73.7508 519.501 67.4314 Q513.992 61.0714 513.992 49.9314 Q513.992 38.7509 519.501 32.4315 Q525.051 26.1121 534.813 26.1121 Z" fill="#000000" fill-rule="evenodd" fill-opacity="1" /><path clip-path="url(#clip9200)" d="M 0 0 M558.106 27.2059 L566.005 27.2059 L580.184 65.2844 L594.362 27.2059 L602.261 27.2059 L585.247 72.576 L575.12 72.576 L558.106 27.2059 Z" fill="#000000" fill-rule="evenodd" fill-opacity="1" /><path clip-path="url(#clip9200)" d="M 0 0 M648.887 48.0275 L648.887 51.6733 L614.616 51.6733 Q615.102 59.3701 619.234 63.421 Q623.407 67.4314 630.82 67.4314 Q635.114 67.4314 639.124 66.3781 Q643.175 65.3249 647.145 63.2184 L647.145 70.267 Q643.135 71.9684 638.922 72.8596 Q634.709 73.7508 630.374 73.7508 Q619.518 73.7508 613.158 67.4314 Q606.839 61.1119 606.839 50.3365 Q606.839 39.1965 612.834 32.6746 Q618.87 26.1121 629.078 26.1121 Q638.233 26.1121 643.54 32.0264 Q648.887 37.9003 648.887 48.0275 M641.433 45.84 Q641.352 39.7232 637.99 36.0774 Q634.668 32.4315 629.159 32.4315 Q622.921 32.4315 619.153 35.9558 Q615.426 39.4801 614.859 45.8805 L641.433 45.84 Z" fill="#000000" fill-rule="evenodd" fill-opacity="1" /><path clip-path="url(#clip9200)" d="M 0 0 M682.996 34.1734 Q681.74 33.4443 680.241 33.1202 Q678.783 32.7556 677 32.7556 Q670.681 32.7556 667.278 36.8875 Q663.916 40.9789 663.916 48.6757 L663.916 72.576 L656.422 72.576 L656.422 27.2059 L663.916 27.2059 L663.916 34.2544 Q666.265 30.1225 670.033 28.1376 Q673.8 26.1121 679.188 26.1121 Q679.957 26.1121 680.889 26.2337 Q681.821 26.3147 682.955 26.5172 L682.996 34.1734 Z" fill="#000000" fill-rule="evenodd" fill-opacity="1" /><path clip-path="url(#clip9200)" d="M 0 0 M690.814 27.2059 L698.267 27.2059 L698.267 72.576 L690.814 72.576 L690.814 27.2059 M690.814 9.54393 L698.267 9.54393 L698.267 18.9825 L690.814 18.9825 L690.814 9.54393 Z" fill="#000000" fill-rule="evenodd" fill-opacity="1" /><path clip-path="url(#clip9200)" d="M 0 0 M743.8 45.1919 L743.8 72.576 L736.346 72.576 L736.346 45.4349 Q736.346 38.994 733.834 35.7938 Q731.323 32.5936 726.3 32.5936 Q720.264 32.5936 716.78 36.4419 Q713.296 40.2903 713.296 46.9338 L713.296 72.576 L705.802 72.576 L705.802 27.2059 L713.296 27.2059 L713.296 34.2544 Q715.97 30.163 719.575 28.1376 Q723.221 26.1121 727.961 26.1121 Q735.779 26.1121 739.789 30.9732 Q743.8 35.7938 743.8 45.1919 Z" fill="#000000" fill-rule="evenodd" fill-opacity="1" /><path clip-path="url(#clip9200)" d="M 0 0 M781.473 49.3643 Q781.473 41.2625 778.111 36.8065 Q774.789 32.3505 768.753 32.3505 Q762.758 32.3505 759.396 36.8065 Q756.074 41.2625 756.074 49.3643 Q756.074 57.4256 759.396 61.8816 Q762.758 66.3376 768.753 66.3376 Q774.789 66.3376 778.111 61.8816 Q781.473 57.4256 781.473 49.3643 M788.927 66.9452 Q788.927 78.5308 783.782 84.1616 Q778.637 89.8329 768.024 89.8329 Q764.095 89.8329 760.611 89.2252 Q757.127 88.6581 753.846 87.4428 L753.846 80.1917 Q757.127 81.9741 760.327 82.8248 Q763.528 83.6755 766.849 83.6755 Q774.181 83.6755 777.827 79.8271 Q781.473 76.0193 781.473 68.282 L781.473 64.5957 Q779.164 68.6061 775.559 70.5911 Q771.953 72.576 766.93 72.576 Q758.585 72.576 753.481 66.2161 Q748.377 59.8562 748.377 49.3643 Q748.377 38.832 753.481 32.472 Q758.585 26.1121 766.93 26.1121 Q771.953 26.1121 775.559 28.0971 Q779.164 30.082 781.473 34.0924 L781.473 27.2059 L788.927 27.2059 L788.927 66.9452 Z" fill="#000000" fill-rule="evenodd" fill-opacity="1" /><path clip-path="url(#clip9200)" d="M 0 0 M818.782 27.2059 L826.236 27.2059 L835.553 62.6108 L844.829 27.2059 L853.62 27.2059 L862.937 62.6108 L872.213 27.2059 L879.667 27.2059 L867.798 72.576 L859.007 72.576 L849.245 35.3887 L839.441 72.576 L830.651 72.576 L818.782 27.2059 Z" fill="#000000" fill-rule="evenodd" fill-opacity="1" /><path clip-path="url(#clip9200)" d="M 0 0 M887.485 27.2059 L894.939 27.2059 L894.939 72.576 L887.485 72.576 L887.485 27.2059 M887.485 9.54393 L894.939 9.54393 L894.939 18.9825 L887.485 18.9825 L887.485 9.54393 Z" fill="#000000" fill-rule="evenodd" fill-opacity="1" /><path clip-path="url(#clip9200)" d="M 0 0 M910.13 14.324 L910.13 27.2059 L925.483 27.2059 L925.483 32.9987 L910.13 32.9987 L910.13 57.6282 Q910.13 63.1779 911.629 64.7578 Q913.168 66.3376 917.826 66.3376 L925.483 66.3376 L925.483 72.576 L917.826 72.576 Q909.198 72.576 905.917 69.3758 Q902.636 66.1351 902.636 57.6282 L902.636 32.9987 L897.167 32.9987 L897.167 27.2059 L902.636 27.2059 L902.636 14.324 L910.13 14.324 Z" fill="#000000" fill-rule="evenodd" fill-opacity="1" /><path clip-path="url(#clip9200)" d="M 0 0 M971.015 45.1919 L971.015 72.576 L963.561 72.576 L963.561 45.4349 Q963.561 38.994 961.05 35.7938 Q958.538 32.5936 953.515 32.5936 Q947.479 32.5936 943.995 36.4419 Q940.512 40.2903 940.512 46.9338 L940.512 72.576 L933.017 72.576 L933.017 9.54393 L940.512 9.54393 L940.512 34.2544 Q943.185 30.163 946.79 28.1376 Q950.436 26.1121 955.176 26.1121 Q962.994 26.1121 967.004 30.9732 Q971.015 35.7938 971.015 45.1919 Z" fill="#000000" fill-rule="evenodd" fill-opacity="1" /><path clip-path="url(#clip9200)" d="M 0 0 M1024.77 39.075 Q1019.26 39.075 1016.02 42.8424 Q1012.82 46.6097 1012.82 53.1722 Q1012.82 59.6941 1016.02 63.502 Q1019.26 67.2693 1024.77 67.2693 Q1030.28 67.2693 1033.48 63.502 Q1036.72 59.6941 1036.72 53.1722 Q1036.72 46.6097 1033.48 42.8424 Q1030.28 39.075 1024.77 39.075 M1041.01 13.4328 L1041.01 20.8865 Q1037.94 19.4281 1034.78 18.6585 Q1031.66 17.8888 1028.58 17.8888 Q1020.48 17.8888 1016.18 23.3575 Q1011.93 28.8262 1011.32 39.8852 Q1013.71 36.3609 1017.32 34.4975 Q1020.92 32.5936 1025.26 32.5936 Q1034.37 32.5936 1039.64 38.1433 Q1044.94 43.6525 1044.94 53.1722 Q1044.94 62.4892 1039.43 68.12 Q1033.93 73.7508 1024.77 73.7508 Q1014.28 73.7508 1008.73 65.73 Q1003.18 57.6687 1003.18 42.3968 Q1003.18 28.0566 1009.98 19.5497 Q1016.79 11.0023 1028.25 11.0023 Q1031.33 11.0023 1034.45 11.6099 Q1037.61 12.2175 1041.01 13.4328 Z" fill="#000000" fill-rule="evenodd" fill-opacity="1" /><path clip-path="url(#clip9200)" d="M 0 0 M1104.01 17.6457 Q1095.09 17.6457 1089.83 24.2892 Q1084.6 30.9327 1084.6 42.3968 Q1084.6 53.8203 1089.83 60.4638 Q1095.09 67.1073 1104.01 67.1073 Q1112.92 67.1073 1118.1 60.4638 Q1123.33 53.8203 1123.33 42.3968 Q1123.33 30.9327 1118.1 24.2892 Q1112.92 17.6457 1104.01 17.6457 M1115.47 71.4823 L1126.25 83.2704 L1116.36 83.2704 L1107.41 73.5887 Q1106.07 73.6697 1105.34 73.7103 Q1104.65 73.7508 1104.01 73.7508 Q1091.25 73.7508 1083.59 65.2439 Q1075.97 56.6965 1075.97 42.3968 Q1075.97 28.0566 1083.59 19.5497 Q1091.25 11.0023 1104.01 11.0023 Q1116.73 11.0023 1124.34 19.5497 Q1131.96 28.0566 1131.96 42.3968 Q1131.96 52.9291 1127.7 60.4233 Q1123.49 67.9175 1115.47 71.4823 Z" fill="#000000" fill-rule="evenodd" fill-opacity="1" /><path clip-path="url(#clip9200)" d="M 0 0 M1139.01 54.671 L1139.01 27.2059 L1146.46 27.2059 L1146.46 54.3874 Q1146.46 60.8284 1148.97 64.0691 Q1151.48 67.2693 1156.51 67.2693 Q1162.54 67.2693 1166.03 63.421 Q1169.55 59.5726 1169.55 52.9291 L1169.55 27.2059 L1177 27.2059 L1177 72.576 L1169.55 72.576 L1169.55 65.6084 Q1166.84 69.7404 1163.23 71.7658 Q1159.67 73.7508 1154.93 73.7508 Q1147.11 73.7508 1143.06 68.8897 Q1139.01 64.0286 1139.01 54.671 M1157.76 26.1121 L1157.76 26.1121 Z" fill="#000000" fill-rule="evenodd" fill-opacity="1" /><path clip-path="url(#clip9200)" d="M 0 0 M1205.44 49.7694 Q1196.41 49.7694 1192.92 51.8354 Q1189.44 53.9013 1189.44 58.8839 Q1189.44 62.8538 1192.03 65.2034 Q1194.67 67.5124 1199.16 67.5124 Q1205.36 67.5124 1209.09 63.1374 Q1212.85 58.7219 1212.85 51.4303 L1212.85 49.7694 L1205.44 49.7694 M1220.31 46.6907 L1220.31 72.576 L1212.85 72.576 L1212.85 65.6895 Q1210.3 69.8214 1206.49 71.8063 Q1202.69 73.7508 1197.18 73.7508 Q1190.21 73.7508 1186.08 69.8619 Q1181.99 65.9325 1181.99 59.3701 Q1181.99 51.7138 1187.09 47.825 Q1192.23 43.9361 1202.4 43.9361 L1212.85 43.9361 L1212.85 43.2069 Q1212.85 38.0623 1209.45 35.2672 Q1206.09 32.4315 1199.97 32.4315 Q1196.08 32.4315 1192.4 33.3632 Q1188.71 34.295 1185.31 36.1584 L1185.31 29.2718 Q1189.4 27.692 1193.25 26.9223 Q1197.1 26.1121 1200.74 26.1121 Q1210.59 26.1121 1215.45 31.2163 Q1220.31 36.3204 1220.31 46.6907 Z" fill="#000000" fill-rule="evenodd" fill-opacity="1" /><path clip-path="url(#clip9200)" d="M 0 0 M1257.98 34.0924 L1257.98 9.54393 L1265.43 9.54393 L1265.43 72.576 L1257.98 72.576 L1257.98 65.7705 Q1255.63 69.8214 1252.03 71.8063 Q1248.46 73.7508 1243.44 73.7508 Q1235.21 73.7508 1230.03 67.1883 Q1224.88 60.6258 1224.88 49.9314 Q1224.88 39.2371 1230.03 32.6746 Q1235.21 26.1121 1243.44 26.1121 Q1248.46 26.1121 1252.03 28.0971 Q1255.63 30.0415 1257.98 34.0924 M1232.58 49.9314 Q1232.58 58.1548 1235.94 62.8538 Q1239.35 67.5124 1245.26 67.5124 Q1251.18 67.5124 1254.58 62.8538 Q1257.98 58.1548 1257.98 49.9314 Q1257.98 41.7081 1254.58 37.0496 Q1251.18 32.3505 1245.26 32.3505 Q1239.35 32.3505 1235.94 37.0496 Q1232.58 41.7081 1232.58 49.9314 Z" fill="#000000" fill-rule="evenodd" fill-opacity="1" /><path clip-path="url(#clip9200)" d="M 0 0 M1299.54 34.1734 Q1298.29 33.4443 1296.79 33.1202 Q1295.33 32.7556 1293.55 32.7556 Q1287.23 32.7556 1283.83 36.8875 Q1280.46 40.9789 1280.46 48.6757 L1280.46 72.576 L1272.97 72.576 L1272.97 27.2059 L1280.46 27.2059 L1280.46 34.2544 Q1282.81 30.1225 1286.58 28.1376 Q1290.35 26.1121 1295.74 26.1121 Q1296.5 26.1121 1297.44 26.2337 Q1298.37 26.3147 1299.5 26.5172 L1299.54 34.1734 Z" fill="#000000" fill-rule="evenodd" fill-opacity="1" /><path clip-path="url(#clip9200)" d="M 0 0 M1323.12 32.4315 Q1317.12 32.4315 1313.64 37.1306 Q1310.16 41.7891 1310.16 49.9314 Q1310.16 58.0738 1313.6 62.7728 Q1317.08 67.4314 1323.12 67.4314 Q1329.07 67.4314 1332.56 62.7323 Q1336.04 58.0333 1336.04 49.9314 Q1336.04 41.8701 1332.56 37.1711 Q1329.07 32.4315 1323.12 32.4315 M1323.12 26.1121 Q1332.84 26.1121 1338.39 32.4315 Q1343.94 38.7509 1343.94 49.9314 Q1343.94 61.0714 1338.39 67.4314 Q1332.84 73.7508 1323.12 73.7508 Q1313.36 73.7508 1307.81 67.4314 Q1302.3 61.0714 1302.3 49.9314 Q1302.3 38.7509 1307.81 32.4315 Q1313.36 26.1121 1323.12 26.1121 Z" fill="#000000" fill-rule="evenodd" fill-opacity="1" /><path clip-path="url(#clip9200)" d="M 0 0 M1359.13 14.324 L1359.13 27.2059 L1374.48 27.2059 L1374.48 32.9987 L1359.13 32.9987 L1359.13 57.6282 Q1359.13 63.1779 1360.63 64.7578 Q1362.17 66.3376 1366.83 66.3376 L1374.48 66.3376 L1374.48 72.576 L1366.83 72.576 Q1358.2 72.576 1354.92 69.3758 Q1351.64 66.1351 1351.64 57.6282 L1351.64 32.9987 L1346.17 32.9987 L1346.17 27.2059 L1351.64 27.2059 L1351.64 14.324 L1359.13 14.324 Z" fill="#000000" fill-rule="evenodd" fill-opacity="1" /><path clip-path="url(#clip9200)" d="M 0 0 M1399.88 32.4315 Q1393.89 32.4315 1390.4 37.1306 Q1386.92 41.7891 1386.92 49.9314 Q1386.92 58.0738 1390.36 62.7728 Q1393.85 67.4314 1399.88 67.4314 Q1405.84 67.4314 1409.32 62.7323 Q1412.81 58.0333 1412.81 49.9314 Q1412.81 41.8701 1409.32 37.1711 Q1405.84 32.4315 1399.88 32.4315 M1399.88 26.1121 Q1409.61 26.1121 1415.16 32.4315 Q1420.71 38.7509 1420.71 49.9314 Q1420.71 61.0714 1415.16 67.4314 Q1409.61 73.7508 1399.88 73.7508 Q1390.12 73.7508 1384.57 67.4314 Q1379.06 61.0714 1379.06 49.9314 Q1379.06 38.7509 1384.57 32.4315 Q1390.12 26.1121 1399.88 26.1121 Z" fill="#000000" fill-rule="evenodd" fill-opacity="1" /><path clip-path="url(#clip9200)" d="M 0 0 M1454.81 34.1734 Q1453.56 33.4443 1452.06 33.1202 Q1450.6 32.7556 1448.82 32.7556 Q1442.5 32.7556 1439.1 36.8875 Q1435.73 40.9789 1435.73 48.6757 L1435.73 72.576 L1428.24 72.576 L1428.24 27.2059 L1435.73 27.2059 L1435.73 34.2544 Q1438.08 30.1225 1441.85 28.1376 Q1445.62 26.1121 1451.01 26.1121 Q1451.78 26.1121 1452.71 26.2337 Q1453.64 26.3147 1454.77 26.5172 L1454.81 34.1734 Z" fill="#000000" fill-rule="evenodd" fill-opacity="1" /><path clip-path="url(#clip9200)" d="M 0 0 M1491.56 28.5427 L1491.56 35.5912 Q1488.4 33.9709 1484.99 33.1607 Q1481.59 32.3505 1477.94 32.3505 Q1472.4 32.3505 1469.6 34.0519 Q1466.85 35.7533 1466.85 39.156 Q1466.85 41.7486 1468.83 43.2475 Q1470.82 44.7058 1476.81 46.0426 L1479.36 46.6097 Q1487.3 48.3111 1490.62 51.4303 Q1493.99 54.509 1493.99 60.0587 Q1493.99 66.3781 1488.96 70.0644 Q1483.98 73.7508 1475.23 73.7508 Q1471.59 73.7508 1467.62 73.0216 Q1463.69 72.3329 1459.31 70.9151 L1459.31 63.2184 Q1463.44 65.3654 1467.45 66.4591 Q1471.46 67.5124 1475.39 67.5124 Q1480.66 67.5124 1483.49 65.73 Q1486.33 63.9071 1486.33 60.6258 Q1486.33 57.5877 1484.26 55.9673 Q1482.24 54.3469 1475.31 52.8481 L1472.72 52.2405 Q1465.79 50.7821 1462.71 47.7845 Q1459.63 44.7463 1459.63 39.4801 Q1459.63 33.0797 1464.17 29.5959 Q1468.71 26.1121 1477.05 26.1121 Q1481.19 26.1121 1484.83 26.7198 Q1488.48 27.3274 1491.56 28.5427 Z" fill="#000000" fill-rule="evenodd" fill-opacity="1" /><path clip-path="url(#clip9200)" d="M 0 0 M1524.41 46.5287 L1546.24 46.5287 L1546.24 53.1722 L1524.41 53.1722 L1524.41 46.5287 Z" fill="#000000" fill-rule="evenodd" fill-opacity="1" /><path clip-path="url(#clip9200)" d="M 0 0 M1600.97 20.1573 L1589.87 50.2555 L1612.11 50.2555 L1600.97 20.1573 M1596.35 12.096 L1605.63 12.096 L1628.68 72.576 L1620.17 72.576 L1614.66 57.061 L1587.4 57.061 L1581.89 72.576 L1573.26 72.576 L1596.35 12.096 Z" fill="#000000" fill-rule="evenodd" fill-opacity="1" /><path clip-path="url(#clip9200)" d="M 0 0 M1666.35 49.3643 Q1666.35 41.2625 1662.99 36.8065 Q1659.67 32.3505 1653.63 32.3505 Q1647.64 32.3505 1644.28 36.8065 Q1640.95 41.2625 1640.95 49.3643 Q1640.95 57.4256 1644.28 61.8816 Q1647.64 66.3376 1653.63 66.3376 Q1659.67 66.3376 1662.99 61.8816 Q1666.35 57.4256 1666.35 49.3643 M1673.81 66.9452 Q1673.81 78.5308 1668.66 84.1616 Q1663.52 89.8329 1652.9 89.8329 Q1648.97 89.8329 1645.49 89.2252 Q1642.01 88.6581 1638.73 87.4428 L1638.73 80.1917 Q1642.01 81.9741 1645.21 82.8248 Q1648.41 83.6755 1651.73 83.6755 Q1659.06 83.6755 1662.71 79.8271 Q1666.35 76.0193 1666.35 68.282 L1666.35 64.5957 Q1664.04 68.6061 1660.44 70.5911 Q1656.83 72.576 1651.81 72.576 Q1643.46 72.576 1638.36 66.2161 Q1633.26 59.8562 1633.26 49.3643 Q1633.26 38.832 1638.36 32.472 Q1643.46 26.1121 1651.81 26.1121 Q1656.83 26.1121 1660.44 28.0971 Q1664.04 30.082 1666.35 34.0924 L1666.35 27.2059 L1673.81 27.2059 L1673.81 66.9452 Z" fill="#000000" fill-rule="evenodd" fill-opacity="1" /><path clip-path="url(#clip9200)" d="M 0 0 M1720.43 48.0275 L1720.43 51.6733 L1686.16 51.6733 Q1686.65 59.3701 1690.78 63.421 Q1694.95 67.4314 1702.37 67.4314 Q1706.66 67.4314 1710.67 66.3781 Q1714.72 65.3249 1718.69 63.2184 L1718.69 70.267 Q1714.68 71.9684 1710.47 72.8596 Q1706.25 73.7508 1701.92 73.7508 Q1691.06 73.7508 1684.7 67.4314 Q1678.38 61.1119 1678.38 50.3365 Q1678.38 39.1965 1684.38 32.6746 Q1690.41 26.1121 1700.62 26.1121 Q1709.78 26.1121 1715.08 32.0264 Q1720.43 37.9003 1720.43 48.0275 M1712.98 45.84 Q1712.9 39.7232 1709.54 36.0774 Q1706.21 32.4315 1700.7 32.4315 Q1694.47 32.4315 1690.7 35.9558 Q1686.97 39.4801 1686.4 45.8805 L1712.98 45.84 Z" fill="#000000" fill-rule="evenodd" fill-opacity="1" /><path clip-path="url(#clip9200)" d="M 0 0 M1765.96 45.1919 L1765.96 72.576 L1758.51 72.576 L1758.51 45.4349 Q1758.51 38.994 1756 35.7938 Q1753.49 32.5936 1748.46 32.5936 Q1742.43 32.5936 1738.94 36.4419 Q1735.46 40.2903 1735.46 46.9338 L1735.46 72.576 L1727.97 72.576 L1727.97 27.2059 L1735.46 27.2059 L1735.46 34.2544 Q1738.13 30.163 1741.74 28.1376 Q1745.39 26.1121 1750.13 26.1121 Q1757.94 26.1121 1761.95 30.9732 Q1765.96 35.7938 1765.96 45.1919 Z" fill="#000000" fill-rule="evenodd" fill-opacity="1" /><path clip-path="url(#clip9200)" d="M 0 0 M1781.16 14.324 L1781.16 27.2059 L1796.51 27.2059 L1796.51 32.9987 L1781.16 32.9987 L1781.16 57.6282 Q1781.16 63.1779 1782.65 64.7578 Q1784.19 66.3376 1788.85 66.3376 L1796.51 66.3376 L1796.51 72.576 L1788.85 72.576 Q1780.22 72.576 1776.94 69.3758 Q1773.66 66.1351 1773.66 57.6282 L1773.66 32.9987 L1768.19 32.9987 L1768.19 27.2059 L1773.66 27.2059 L1773.66 14.324 L1781.16 14.324 Z" fill="#000000" fill-rule="evenodd" fill-opacity="1" /><path clip-path="url(#clip9200)" d="M 0 0 M1867.28 14.0809 L1867.28 22.0612 Q1862.62 19.8332 1858.49 18.7395 Q1854.36 17.6457 1850.51 17.6457 Q1843.82 17.6457 1840.18 20.2383 Q1836.57 22.8309 1836.57 27.611 Q1836.57 31.6214 1838.96 33.6873 Q1841.39 35.7128 1848.12 36.9686 L1853.06 37.9813 Q1862.21 39.7232 1866.55 44.1387 Q1870.92 48.5136 1870.92 55.8863 Q1870.92 64.6767 1865.01 69.2137 Q1859.14 73.7508 1847.75 73.7508 Q1843.46 73.7508 1838.6 72.7785 Q1833.78 71.8063 1828.59 69.9024 L1828.59 61.4765 Q1833.57 64.2716 1838.35 65.6895 Q1843.13 67.1073 1847.75 67.1073 Q1854.76 67.1073 1858.57 64.3527 Q1862.38 61.598 1862.38 56.4939 Q1862.38 52.0379 1859.62 49.5264 Q1856.91 47.0148 1850.67 45.759 L1845.69 44.7868 Q1836.53 42.9639 1832.44 39.075 Q1828.35 35.1862 1828.35 28.2591 Q1828.35 20.2383 1833.98 15.6203 Q1839.65 11.0023 1849.57 11.0023 Q1853.83 11.0023 1858.24 11.7719 Q1862.66 12.5416 1867.28 14.0809 Z" fill="#000000" fill-rule="evenodd" fill-opacity="1" /><path clip-path="url(#clip9200)" d="M 0 0 M1886.11 14.324 L1886.11 27.2059 L1901.47 27.2059 L1901.47 32.9987 L1886.11 32.9987 L1886.11 57.6282 Q1886.11 63.1779 1887.61 64.7578 Q1889.15 66.3376 1893.81 66.3376 L1901.47 66.3376 L1901.47 72.576 L1893.81 72.576 Q1885.18 72.576 1881.9 69.3758 Q1878.62 66.1351 1878.62 57.6282 L1878.62 32.9987 L1873.15 32.9987 L1873.15 27.2059 L1878.62 27.2059 L1878.62 14.324 L1886.11 14.324 Z" fill="#000000" fill-rule="evenodd" fill-opacity="1" /><path clip-path="url(#clip9200)" d="M 0 0 M1929.9 49.7694 Q1920.87 49.7694 1917.39 51.8354 Q1913.9 53.9013 1913.9 58.8839 Q1913.9 62.8538 1916.5 65.2034 Q1919.13 67.5124 1923.63 67.5124 Q1929.82 67.5124 1933.55 63.1374 Q1937.32 58.7219 1937.32 51.4303 L1937.32 49.7694 L1929.9 49.7694 M1944.77 46.6907 L1944.77 72.576 L1937.32 72.576 L1937.32 65.6895 Q1934.77 69.8214 1930.96 71.8063 Q1927.15 73.7508 1921.64 73.7508 Q1914.67 73.7508 1910.54 69.8619 Q1906.45 65.9325 1906.45 59.3701 Q1906.45 51.7138 1911.55 47.825 Q1916.7 43.9361 1926.87 43.9361 L1937.32 43.9361 L1937.32 43.2069 Q1937.32 38.0623 1933.91 35.2672 Q1930.55 32.4315 1924.44 32.4315 Q1920.55 32.4315 1916.86 33.3632 Q1913.17 34.295 1909.77 36.1584 L1909.77 29.2718 Q1913.86 27.692 1917.71 26.9223 Q1921.56 26.1121 1925.21 26.1121 Q1935.05 26.1121 1939.91 31.2163 Q1944.77 36.3204 1944.77 46.6907 Z" fill="#000000" fill-rule="evenodd" fill-opacity="1" /><path clip-path="url(#clip9200)" d="M 0 0 M1959.96 14.324 L1959.96 27.2059 L1975.32 27.2059 L1975.32 32.9987 L1959.96 32.9987 L1959.96 57.6282 Q1959.96 63.1779 1961.46 64.7578 Q1963 66.3376 1967.66 66.3376 L1975.32 66.3376 L1975.32 72.576 L1967.66 72.576 Q1959.03 72.576 1955.75 69.3758 Q1952.47 66.1351 1952.47 57.6282 L1952.47 32.9987 L1947 32.9987 L1947 27.2059 L1952.47 27.2059 L1952.47 14.324 L1959.96 14.324 Z" fill="#000000" fill-rule="evenodd" fill-opacity="1" /><path clip-path="url(#clip9200)" d="M 0 0 M2021.94 48.0275 L2021.94 51.6733 L1987.67 51.6733 Q1988.16 59.3701 1992.29 63.421 Q1996.46 67.4314 2003.87 67.4314 Q2008.17 67.4314 2012.18 66.3781 Q2016.23 65.3249 2020.2 63.2184 L2020.2 70.267 Q2016.19 71.9684 2011.98 72.8596 Q2007.76 73.7508 2003.43 73.7508 Q1992.57 73.7508 1986.21 67.4314 Q1979.89 61.1119 1979.89 50.3365 Q1979.89 39.1965 1985.89 32.6746 Q1991.92 26.1121 2002.13 26.1121 Q2011.29 26.1121 2016.59 32.0264 Q2021.94 37.9003 2021.94 48.0275 M2014.49 45.84 Q2014.41 39.7232 2011.04 36.0774 Q2007.72 32.4315 2002.21 32.4315 Q1995.97 32.4315 1992.21 35.9558 Q1988.48 39.4801 1987.91 45.8805 L2014.49 45.84 Z" fill="#000000" fill-rule="evenodd" fill-opacity="1" /><path clip-path="url(#clip9200)" d="M 0 0 M2058.68 28.5427 L2058.68 35.5912 Q2055.52 33.9709 2052.12 33.1607 Q2048.72 32.3505 2045.07 32.3505 Q2039.52 32.3505 2036.73 34.0519 Q2033.97 35.7533 2033.97 39.156 Q2033.97 41.7486 2035.96 43.2475 Q2037.94 44.7058 2043.94 46.0426 L2046.49 46.6097 Q2054.43 48.3111 2057.75 51.4303 Q2061.11 54.509 2061.11 60.0587 Q2061.11 66.3781 2056.09 70.0644 Q2051.11 73.7508 2042.36 73.7508 Q2038.71 73.7508 2034.74 73.0216 Q2030.81 72.3329 2026.44 70.9151 L2026.44 63.2184 Q2030.57 65.3654 2034.58 66.4591 Q2038.59 67.5124 2042.52 67.5124 Q2047.79 67.5124 2050.62 65.73 Q2053.46 63.9071 2053.46 60.6258 Q2053.46 57.5877 2051.39 55.9673 Q2049.37 54.3469 2042.44 52.8481 L2039.85 52.2405 Q2032.92 50.7821 2029.84 47.7845 Q2026.76 44.7463 2026.76 39.4801 Q2026.76 33.0797 2031.3 29.5959 Q2035.84 26.1121 2044.18 26.1121 Q2048.31 26.1121 2051.96 26.7198 Q2055.6 27.3274 2058.68 28.5427 Z" fill="#000000" fill-rule="evenodd" fill-opacity="1" /><path clip-path="url(#clip9200)" d="M 0 0 M2087.32 12.096 L2096.11 12.096 L2112.88 36.9686 L2129.53 12.096 L2138.32 12.096 L2116.93 43.7741 L2116.93 72.576 L2108.71 72.576 L2108.71 43.7741 L2087.32 12.096 Z" fill="#000000" fill-rule="evenodd" fill-opacity="1" /><path clip-path="url(#clip9200)" d="M 0 0 M2172.84 12.096 L2211.08 12.096 L2211.08 18.9825 L2181.02 18.9825 L2181.02 36.8875 L2209.82 36.8875 L2209.82 43.7741 L2181.02 43.7741 L2181.02 65.6895 L2211.81 65.6895 L2211.81 72.576 L2172.84 72.576 L2172.84 12.096 Z" fill="#000000" fill-rule="evenodd" fill-opacity="1" /><path clip-path="url(#clip9200)" d="M 0 0 M2245.92 34.1734 Q2244.66 33.4443 2243.16 33.1202 Q2241.7 32.7556 2239.92 32.7556 Q2233.6 32.7556 2230.2 36.8875 Q2226.84 40.9789 2226.84 48.6757 L2226.84 72.576 L2219.34 72.576 L2219.34 27.2059 L2226.84 27.2059 L2226.84 34.2544 Q2229.19 30.1225 2232.95 28.1376 Q2236.72 26.1121 2242.11 26.1121 Q2242.88 26.1121 2243.81 26.2337 Q2244.74 26.3147 2245.87 26.5172 L2245.92 34.1734 Z" fill="#000000" fill-rule="evenodd" fill-opacity="1" /><path clip-path="url(#clip9200)" d="M 0 0 M2278.57 34.1734 Q2277.31 33.4443 2275.81 33.1202 Q2274.35 32.7556 2272.57 32.7556 Q2266.25 32.7556 2262.85 36.8875 Q2259.49 40.9789 2259.49 48.6757 L2259.49 72.576 L2251.99 72.576 L2251.99 27.2059 L2259.49 27.2059 L2259.49 34.2544 Q2261.84 30.1225 2265.6 28.1376 Q2269.37 26.1121 2274.76 26.1121 Q2275.53 26.1121 2276.46 26.2337 Q2277.39 26.3147 2278.53 26.5172 L2278.57 34.1734 Z" fill="#000000" fill-rule="evenodd" fill-opacity="1" /><path clip-path="url(#clip9200)" d="M 0 0 M2302.14 32.4315 Q2296.15 32.4315 2292.66 37.1306 Q2289.18 41.7891 2289.18 49.9314 Q2289.18 58.0738 2292.62 62.7728 Q2296.11 67.4314 2302.14 67.4314 Q2308.1 67.4314 2311.58 62.7323 Q2315.06 58.0333 2315.06 49.9314 Q2315.06 41.8701 2311.58 37.1711 Q2308.1 32.4315 2302.14 32.4315 M2302.14 26.1121 Q2311.86 26.1121 2317.41 32.4315 Q2322.96 38.7509 2322.96 49.9314 Q2322.96 61.0714 2317.41 67.4314 Q2311.86 73.7508 2302.14 73.7508 Q2292.38 73.7508 2286.83 67.4314 Q2281.32 61.0714 2281.32 49.9314 Q2281.32 38.7509 2286.83 32.4315 Q2292.38 26.1121 2302.14 26.1121 Z" fill="#000000" fill-rule="evenodd" fill-opacity="1" /><path clip-path="url(#clip9200)" d="M 0 0 M2357.07 34.1734 Q2355.82 33.4443 2354.32 33.1202 Q2352.86 32.7556 2351.08 32.7556 Q2344.76 32.7556 2341.35 36.8875 Q2337.99 40.9789 2337.99 48.6757 L2337.99 72.576 L2330.5 72.576 L2330.5 27.2059 L2337.99 27.2059 L2337.99 34.2544 Q2340.34 30.1225 2344.11 28.1376 Q2347.88 26.1121 2353.26 26.1121 Q2354.03 26.1121 2354.97 26.2337 Q2355.9 26.3147 2357.03 26.5172 L2357.07 34.1734 Z" fill="#000000" fill-rule="evenodd" fill-opacity="1" /><path clip-path="url(#clip9200)" d="M 0 0 M1292.03 2298.26 L1332.23 2298.26 L1332.23 2303.67 L1315.36 2303.67 L1315.36 2345.78 L1308.9 2345.78 L1308.9 2303.67 L1292.03 2303.67 L1292.03 2298.26 Z" fill="#000000" fill-rule="evenodd" fill-opacity="1" /><path clip-path="url(#clip9200)" d="M 0 0 M1336.37 2310.14 L1342.22 2310.14 L1342.22 2345.78 L1336.37 2345.78 L1336.37 2310.14 M1336.37 2296.26 L1342.22 2296.26 L1342.22 2303.67 L1336.37 2303.67 L1336.37 2296.26 Z" fill="#000000" fill-rule="evenodd" fill-opacity="1" /><path clip-path="url(#clip9200)" d="M 0 0 M1376.12 2316.98 Q1378.32 2313.03 1381.37 2311.15 Q1384.43 2309.28 1388.57 2309.28 Q1394.14 2309.28 1397.16 2313.19 Q1400.18 2317.07 1400.18 2324.27 L1400.18 2345.78 L1394.3 2345.78 L1394.3 2324.46 Q1394.3 2319.33 1392.48 2316.85 Q1390.67 2314.37 1386.94 2314.37 Q1382.39 2314.37 1379.75 2317.39 Q1377.11 2320.42 1377.11 2325.64 L1377.11 2345.78 L1371.22 2345.78 L1371.22 2324.46 Q1371.22 2319.3 1369.41 2316.85 Q1367.59 2314.37 1363.8 2314.37 Q1359.32 2314.37 1356.67 2317.42 Q1354.03 2320.45 1354.03 2325.64 L1354.03 2345.78 L1348.14 2345.78 L1348.14 2310.14 L1354.03 2310.14 L1354.03 2315.67 Q1356.04 2312.4 1358.84 2310.84 Q1361.64 2309.28 1365.49 2309.28 Q1369.37 2309.28 1372.08 2311.25 Q1374.82 2313.22 1376.12 2316.98 Z" fill="#000000" fill-rule="evenodd" fill-opacity="1" /><path clip-path="url(#clip9200)" d="M 0 0 M1436.82 2326.5 L1436.82 2329.36 L1409.89 2329.36 Q1410.27 2335.41 1413.52 2338.59 Q1416.8 2341.74 1422.62 2341.74 Q1426 2341.74 1429.15 2340.91 Q1432.33 2340.09 1435.45 2338.43 L1435.45 2343.97 Q1432.3 2345.31 1428.99 2346.01 Q1425.68 2346.71 1422.27 2346.71 Q1413.74 2346.71 1408.75 2341.74 Q1403.78 2336.78 1403.78 2328.31 Q1403.78 2319.56 1408.49 2314.43 Q1413.23 2309.28 1421.25 2309.28 Q1428.45 2309.28 1432.62 2313.92 Q1436.82 2318.54 1436.82 2326.5 M1430.96 2324.78 Q1430.9 2319.97 1428.26 2317.11 Q1425.65 2314.24 1421.32 2314.24 Q1416.42 2314.24 1413.46 2317.01 Q1410.53 2319.78 1410.08 2324.81 L1430.96 2324.78 Z" fill="#000000" fill-rule="evenodd" fill-opacity="1" /><path clip-path="url(#clip9200)" d="M 0 0 M1477.75 2296.32 Q1473.48 2303.64 1471.42 2310.8 Q1469.35 2317.97 1469.35 2325.32 Q1469.35 2332.67 1471.42 2339.9 Q1473.52 2347.09 1477.75 2354.38 L1472.66 2354.38 Q1467.88 2346.9 1465.5 2339.67 Q1463.14 2332.45 1463.14 2325.32 Q1463.14 2318.22 1465.5 2311.03 Q1467.85 2303.83 1472.66 2296.32 L1477.75 2296.32 Z" fill="#000000" fill-rule="evenodd" fill-opacity="1" /><path clip-path="url(#clip9200)" d="M 0 0 M1506.62 2311.19 L1506.62 2316.72 Q1504.14 2315.45 1501.46 2314.81 Q1498.79 2314.18 1495.92 2314.18 Q1491.56 2314.18 1489.37 2315.51 Q1487.2 2316.85 1487.2 2319.53 Q1487.2 2321.56 1488.76 2322.74 Q1490.32 2323.89 1495.03 2324.94 L1497.04 2325.38 Q1503.28 2326.72 1505.89 2329.17 Q1508.53 2331.59 1508.53 2335.95 Q1508.53 2340.91 1504.58 2343.81 Q1500.67 2346.71 1493.79 2346.71 Q1490.93 2346.71 1487.81 2346.13 Q1484.72 2345.59 1481.28 2344.48 L1481.28 2338.43 Q1484.53 2340.12 1487.68 2340.98 Q1490.83 2341.81 1493.92 2341.81 Q1498.06 2341.81 1500.28 2340.4 Q1502.51 2338.97 1502.51 2336.39 Q1502.51 2334.01 1500.89 2332.73 Q1499.3 2331.46 1493.85 2330.28 L1491.82 2329.81 Q1486.38 2328.66 1483.96 2326.3 Q1481.54 2323.92 1481.54 2319.78 Q1481.54 2314.75 1485.1 2312.01 Q1488.67 2309.28 1495.22 2309.28 Q1498.47 2309.28 1501.33 2309.75 Q1504.2 2310.23 1506.62 2311.19 Z" fill="#000000" fill-rule="evenodd" fill-opacity="1" /><path clip-path="url(#clip9200)" d="M 0 0 M1513.75 2296.32 L1518.84 2296.32 Q1523.61 2303.83 1525.97 2311.03 Q1528.36 2318.22 1528.36 2325.32 Q1528.36 2332.45 1525.97 2339.67 Q1523.61 2346.9 1518.84 2354.38 L1513.75 2354.38 Q1517.98 2347.09 1520.05 2339.9 Q1522.15 2332.67 1522.15 2325.32 Q1522.15 2317.97 1520.05 2310.8 Q1517.98 2303.64 1513.75 2296.32 Z" fill="#000000" fill-rule="evenodd" fill-opacity="1" /><path clip-path="url(#clip9200)" d="M 0 0 M38.4242 1330.05 L38.4242 1300 L43.835 1300 L43.835 1323.62 L57.9032 1323.62 L57.9032 1300.99 L63.3141 1300.99 L63.3141 1323.62 L80.5333 1323.62 L80.5333 1299.43 L85.9442 1299.43 L85.9442 1330.05 L38.4242 1330.05 Z" fill="#000000" fill-rule="evenodd" fill-opacity="1" /><path clip-path="url(#clip9200)" d="M 0 0 M55.7707 1272.63 Q55.1978 1273.61 54.9432 1274.79 Q54.6567 1275.94 54.6567 1277.34 Q54.6567 1282.3 57.9032 1284.98 Q61.1179 1287.62 67.1653 1287.62 L85.9442 1287.62 L85.9442 1293.51 L50.2962 1293.51 L50.2962 1287.62 L55.8344 1287.62 Q52.5879 1285.77 51.0283 1282.81 Q49.4368 1279.85 49.4368 1275.62 Q49.4368 1275.02 49.5323 1274.28 Q49.596 1273.55 49.7551 1272.66 L55.7707 1272.63 Z" fill="#000000" fill-rule="evenodd" fill-opacity="1" /><path clip-path="url(#clip9200)" d="M 0 0 M55.7707 1246.97 Q55.1978 1247.96 54.9432 1249.14 Q54.6567 1250.28 54.6567 1251.69 Q54.6567 1256.65 57.9032 1259.32 Q61.1179 1261.97 67.1653 1261.97 L85.9442 1261.97 L85.9442 1267.85 L50.2962 1267.85 L50.2962 1261.97 L55.8344 1261.97 Q52.5879 1260.12 51.0283 1257.16 Q49.4368 1254.2 49.4368 1249.97 Q49.4368 1249.36 49.5323 1248.63 Q49.596 1247.9 49.7551 1247.01 L55.7707 1246.97 Z" fill="#000000" fill-rule="evenodd" fill-opacity="1" /><path clip-path="url(#clip9200)" d="M 0 0 M54.4021 1228.45 Q54.4021 1233.16 58.0942 1235.9 Q61.7545 1238.64 68.152 1238.64 Q74.5495 1238.64 78.2417 1235.93 Q81.9019 1233.19 81.9019 1228.45 Q81.9019 1223.77 78.2098 1221.03 Q74.5177 1218.3 68.152 1218.3 Q61.8181 1218.3 58.126 1221.03 Q54.4021 1223.77 54.4021 1228.45 M49.4368 1228.45 Q49.4368 1220.81 54.4021 1216.45 Q59.3673 1212.09 68.152 1212.09 Q76.9049 1212.09 81.9019 1216.45 Q86.8672 1220.81 86.8672 1228.45 Q86.8672 1236.12 81.9019 1240.48 Q76.9049 1244.81 68.152 1244.81 Q59.3673 1244.81 54.4021 1240.48 Q49.4368 1236.12 49.4368 1228.45 Z" fill="#000000" fill-rule="evenodd" fill-opacity="1" /><path clip-path="url(#clip9200)" d="M 0 0 M55.7707 1185.29 Q55.1978 1186.28 54.9432 1187.46 Q54.6567 1188.6 54.6567 1190 Q54.6567 1194.97 57.9032 1197.64 Q61.1179 1200.28 67.1653 1200.28 L85.9442 1200.28 L85.9442 1206.17 L50.2962 1206.17 L50.2962 1200.28 L55.8344 1200.28 Q52.5879 1198.44 51.0283 1195.48 Q49.4368 1192.52 49.4368 1188.28 Q49.4368 1187.68 49.5323 1186.95 Q49.596 1186.21 49.7551 1185.32 L55.7707 1185.29 Z" fill="#000000" fill-rule="evenodd" fill-opacity="1" /><path clip-path="url(#clip9200)" d="M 0 0 M38.4242 1164.7 L38.4242 1157.79 L57.9669 1144.61 L38.4242 1131.53 L38.4242 1124.63 L63.3141 1141.43 L85.9442 1141.43 L85.9442 1147.89 L63.3141 1147.89 L38.4242 1164.7 Z" fill="#000000" fill-rule="evenodd" fill-opacity="1" /><path clip-path="url(#clip9200)" d="M 0 0 M36.4826 1083.69 Q43.8032 1087.96 50.9646 1090.03 Q58.126 1092.1 65.4784 1092.1 Q72.8308 1092.1 80.0559 1090.03 Q87.2491 1087.93 94.5379 1083.69 L94.5379 1088.79 Q87.0582 1093.56 79.8331 1095.95 Q72.608 1098.3 65.4784 1098.3 Q58.3806 1098.3 51.1874 1095.95 Q43.9942 1093.59 36.4826 1088.79 L36.4826 1083.69 Z" fill="#000000" fill-rule="evenodd" fill-opacity="1" /><path clip-path="url(#clip9200)" d="M 0 0 M57.1393 1049.8 Q53.1926 1047.6 51.3147 1044.54 Q49.4368 1041.49 49.4368 1037.35 Q49.4368 1031.78 53.3517 1028.76 Q57.2348 1025.73 64.4281 1025.73 L85.9442 1025.73 L85.9442 1031.62 L64.619 1031.62 Q59.4946 1031.62 57.012 1033.44 Q54.5294 1035.25 54.5294 1038.97 Q54.5294 1043.53 57.5531 1046.17 Q60.5768 1048.81 65.7967 1048.81 L85.9442 1048.81 L85.9442 1054.7 L64.619 1054.7 Q59.4628 1054.7 57.012 1056.51 Q54.5294 1058.33 54.5294 1062.11 Q54.5294 1066.6 57.5849 1069.24 Q60.6086 1071.89 65.7967 1071.89 L85.9442 1071.89 L85.9442 1077.77 L50.2962 1077.77 L50.2962 1071.89 L55.8344 1071.89 Q52.556 1069.88 50.9964 1067.08 Q49.4368 1064.28 49.4368 1060.43 Q49.4368 1056.54 51.4102 1053.84 Q53.3836 1051.1 57.1393 1049.8 Z" fill="#000000" fill-rule="evenodd" fill-opacity="1" /><path clip-path="url(#clip9200)" d="M 0 0 M36.4826 1020.51 L36.4826 1015.42 Q43.9942 1010.65 51.1874 1008.29 Q58.3806 1005.91 65.4784 1005.91 Q72.608 1005.91 79.8331 1008.29 Q87.0582 1010.65 94.5379 1015.42 L94.5379 1020.51 Q87.2491 1016.28 80.0559 1014.21 Q72.8308 1012.11 65.4784 1012.11 Q58.126 1012.11 50.9646 1014.21 Q43.8032 1016.28 36.4826 1020.51 Z" fill="#000000" fill-rule="evenodd" fill-opacity="1" /><polyline clip-path="url(#clip9202)" style="stroke:#009af9; stroke-width:16; stroke-opacity:1; fill:none" points="
  270.826,2107.92 282.22,2107.92 293.613,2107.97 305.007,2108.17 316.401,2107.96 327.794,2106.37 339.188,2102.74 350.582,2096.86 361.975,2088.81 373.369,2078.82 
  384.763,2067.18 396.156,2054.17 407.55,2040.03 418.944,2024.96 430.337,2009.11 441.731,1992.6 453.125,1975.53 464.518,1957.97 475.912,1939.99 487.306,1921.64 
  498.699,1902.94 510.093,1883.95 521.487,1864.68 532.88,1845.17 544.274,1825.45 555.668,1805.53 567.062,1785.44 578.455,1765.22 589.849,1744.88 601.243,1724.46 
  612.636,1703.97 624.03,1683.46 635.424,1662.95 646.817,1642.46 658.211,1622.04 669.605,1601.7 680.998,1581.47 692.392,1561.38 703.786,1541.46 715.179,1521.73 
  726.573,1502.21 737.967,1482.94 749.36,1463.92 760.754,1445.18 772.148,1426.74 783.541,1408.62 794.935,1390.82 806.329,1373.38 817.722,1356.3 829.116,1339.6 
  840.51,1323.28 851.903,1307.36 863.297,1291.86 874.691,1276.77 886.084,1262.12 897.478,1247.91 908.872,1234.14 920.265,1220.83 931.659,1207.98 943.053,1195.61 
  954.447,1183.71 965.84,1172.31 977.234,1161.4 988.628,1151.01 1000.02,1141.17 1011.41,1131.92 1022.81,1123.36 1034.2,1115.6 1045.6,1108.28 1056.99,1101.07 
  1068.38,1094.18 1079.78,1087.67 1091.17,1081.63 1102.56,1076.04 1113.96,1070.94 1125.35,1066.31 1136.75,1062.14 1148.14,1058.4 1159.53,1055.08 1170.93,1052.13 
  1182.32,1049.55 1193.71,1047.31 1205.11,1045.39 1216.5,1043.78 1227.89,1042.47 1239.29,1041.44 1250.68,1040.69 1262.08,1040.2 1273.47,1039.97 1284.86,1039.97 
  1296.26,1040.2 1307.65,1040.65 1319.04,1041.31 1330.44,1042.16 1341.83,1043.19 1353.23,1044.38 1364.62,1045.73 1376.01,1047.22 1387.41,1048.84 1398.8,1050.57 
  1410.19,1052.4 1421.59,1054.31 1432.98,1056.29 1444.37,1058.32 1455.77,1060.39 1467.16,1062.47 1478.56,1064.56 1489.95,1066.64 1501.34,1068.68 1512.74,1070.68 
  1524.13,1072.6 1535.52,1074.44 1546.92,1076.17 1558.31,1077.76 1569.71,1079.2 1581.1,1080.47 1592.49,1081.53 1603.89,1082.36 1615.28,1082.94 1626.67,1083.24 
  1638.07,1083.24 1649.46,1082.92 1660.85,1082.27 1672.25,1081.27 1683.64,1079.92 1695.04,1078.22 1706.43,1076.18 1717.82,1073.83 1729.22,1071.17 1740.61,1068.24 
  1752,1065.04 1763.4,1061.6 1774.79,1057.94 1786.18,1054.06 1797.58,1049.98 1808.97,1045.69 1820.37,1041.22 1831.76,1036.57 1843.15,1031.74 1854.55,1026.77 
  1865.94,1021.65 1877.33,1016.4 1888.73,1011.03 1900.12,1005.55 1911.52,999.984 1922.91,994.335 1934.3,988.617 1945.7,982.841 1957.09,977.019 1968.48,971.163 
  1979.88,965.284 1991.27,959.394 2002.66,953.502 2014.06,947.619 2025.45,941.754 2036.85,935.916 2048.24,930.113 2059.63,924.352 2071.03,918.639 2082.42,912.98 
  2093.81,907.38 2105.21,901.842 2116.6,896.369 2128,890.964 2139.39,885.628 2150.78,880.361 2162.18,875.164 2173.57,870.038 2184.96,864.979 2196.36,859.989 
  2207.75,855.065 2219.14,850.205 2230.54,845.408 2241.93,840.673 2253.33,835.997 2264.72,831.379 2276.11,826.818 2287.51,822.314 2298.9,817.865 2310.29,813.472 
  2321.69,809.136 2333.08,804.858 2344.48,800.641 2355.87,796.487 2367.26,792.4 2378.66,788.386 2390.05,784.45 2401.44,780.598 2412.84,776.841 2424.23,773.188 
  2435.62,769.651 2447.02,766.242 2458.41,762.981 2469.81,759.883 2481.2,756.976 2492.59,754.28 2503.99,751.836 2515.38,749.667 2526.77,747.846 2538.17,746.417 
  2549.56,745.713 
  "/>
<polyline clip-path="url(#clip9202)" style="stroke:#e26f46; stroke-width:16; stroke-opacity:1; fill:none" points="
  270.826,2069.61 282.22,2069.46 293.613,2068.3 305.007,2061.02 316.401,2046.67 327.794,2029.96 339.188,2013.03 350.582,1996.12 361.975,1979.07 373.369,1961.7 
  384.763,1943.97 396.156,1925.86 407.55,1907.37 418.944,1888.55 430.337,1869.41 441.731,1849.99 453.125,1830.33 464.518,1810.47 475.912,1790.43 487.306,1770.28 
  498.699,1750.04 510.093,1729.77 521.487,1709.51 532.88,1689.31 544.274,1669.2 555.668,1649.23 567.062,1629.43 578.455,1609.84 589.849,1590.5 601.243,1571.42 
  612.636,1552.64 624.03,1534.17 635.424,1516.04 646.817,1498.26 658.211,1480.84 669.605,1463.8 680.998,1447.13 692.392,1430.87 703.786,1414.99 715.179,1399.52 
  726.573,1384.46 737.967,1369.8 749.36,1355.55 760.754,1341.72 772.148,1328.29 783.541,1315.28 794.935,1302.68 806.329,1290.5 817.722,1278.73 829.116,1267.37 
  840.51,1256.42 851.903,1245.89 863.297,1235.77 874.691,1226.06 886.084,1216.77 897.478,1207.89 908.872,1199.43 920.265,1191.38 931.659,1183.75 943.053,1176.55 
  954.447,1169.75 965.84,1163.4 977.234,1157.47 988.628,1152.01 1000.02,1147.01 1011.41,1142.55 1022.81,1138.67 1034.2,1135.51 1045.6,1132.79 1056.99,1130.22 
  1068.38,1127.95 1079.78,1126.01 1091.17,1124.46 1102.56,1123.33 1113.96,1122.63 1125.35,1122.36 1136.75,1122.53 1148.14,1123.13 1159.53,1124.16 1170.93,1125.58 
  1182.32,1127.39 1193.71,1129.57 1205.11,1132.11 1216.5,1135.01 1227.89,1138.24 1239.29,1141.8 1250.68,1145.69 1262.08,1149.88 1273.47,1154.37 1284.86,1159.15 
  1296.26,1164.21 1307.65,1169.53 1319.04,1175.1 1330.44,1180.9 1341.83,1186.91 1353.23,1193.12 1364.62,1199.5 1376.01,1206.04 1387.41,1212.71 1398.8,1219.49 
  1410.19,1226.35 1421.59,1233.27 1432.98,1240.21 1444.37,1247.15 1455.77,1254.06 1467.16,1260.9 1478.56,1267.65 1489.95,1274.27 1501.34,1280.74 1512.74,1287.02 
  1524.13,1293.07 1535.52,1298.88 1546.92,1304.41 1558.31,1309.63 1569.71,1314.51 1581.1,1319.04 1592.49,1323.17 1603.89,1326.9 1615.28,1330.18 1626.67,1333 
  1638.07,1335.31 1649.46,1337.08 1660.85,1338.26 1672.25,1338.79 1683.64,1338.63 1695.04,1337.75 1706.43,1336.09 1717.82,1333.66 1729.22,1330.43 1740.61,1326.43 
  1752,1321.65 1763.4,1316.14 1774.79,1309.91 1786.18,1303.02 1797.58,1295.48 1808.97,1287.37 1820.37,1278.72 1831.76,1269.59 1843.15,1260.01 1854.55,1250.03 
  1865.94,1239.67 1877.33,1228.96 1888.73,1217.92 1900.12,1206.58 1911.52,1194.94 1922.91,1183.03 1934.3,1170.86 1945.7,1158.45 1957.09,1145.82 1968.48,1132.98 
  1979.88,1119.96 1991.27,1106.77 2002.66,1093.42 2014.06,1079.95 2025.45,1066.37 2036.85,1052.7 2048.24,1038.96 2059.63,1025.18 2071.03,1011.37 2082.42,997.563 
  2093.81,983.778 2105.21,970.037 2116.6,956.365 2128,942.784 2139.39,929.317 2150.78,915.988 2162.18,902.819 2173.57,889.833 2184.96,877.052 2196.36,864.498 
  2207.75,852.193 2219.14,840.157 2230.54,828.41 2241.93,816.973 2253.33,805.864 2264.72,795.101 2276.11,784.702 2287.51,774.684 2298.9,765.062 2310.29,755.853 
  2321.69,747.072 2333.08,738.731 2344.48,730.845 2355.87,723.426 2367.26,716.485 2378.66,710.035 2390.05,704.084 2401.44,698.641 2412.84,693.713 2424.23,689.307 
  2435.62,685.426 2447.02,682.072 2458.41,679.244 2469.81,676.938 2481.2,675.149 2492.59,673.865 2503.99,673.072 2515.38,672.743 2526.77,672.834 2538.17,673.259 
  2549.56,673.658 
  "/>
<polyline clip-path="url(#clip9202)" style="stroke:#3da44d; stroke-width:16; stroke-opacity:1; fill:none" points="
  270.826,2069.61 282.22,2069.46 293.613,2068.19 305.007,2060.06 316.401,2044.51 327.794,2026.78 339.188,2008.96 350.582,1991.2 361.975,1973.29 373.369,1955.06 
  384.763,1936.45 396.156,1917.43 407.55,1898.02 418.944,1878.22 430.337,1858.07 441.731,1837.59 453.125,1816.82 464.518,1795.77 475.912,1774.5 487.306,1753.04 
  498.699,1731.43 510.093,1709.71 521.487,1687.94 532.88,1666.16 544.274,1644.4 555.668,1622.72 567.062,1601.16 578.455,1579.75 589.849,1558.53 601.243,1537.55 
  612.636,1516.82 624.03,1496.39 635.424,1476.27 646.817,1456.49 658.211,1437.06 669.605,1418.01 680.998,1399.36 692.392,1381.1 703.786,1363.25 715.179,1345.82 
  726.573,1328.82 737.967,1312.24 749.36,1296.09 760.754,1280.37 772.148,1265.08 783.541,1250.21 794.935,1235.77 806.329,1221.75 817.722,1208.15 829.116,1194.96 
  840.51,1182.18 851.903,1169.8 863.297,1157.82 874.691,1146.24 886.084,1135.04 897.478,1124.22 908.872,1113.79 920.265,1103.72 931.659,1094.03 943.053,1084.69 
  954.447,1075.71 965.84,1067.08 977.234,1058.8 988.628,1050.86 1000.02,1043.25 1011.41,1035.94 1022.81,1028.92 1034.2,1022.13 1045.6,1015.65 1056.99,1009.55 
  1068.38,1003.72 1079.78,998.139 1091.17,992.77 1102.56,987.61 1113.96,982.636 1125.35,977.844 1136.75,973.22 1148.14,968.764 1159.53,964.467 1170.93,960.33 
  1182.32,956.342 1193.71,952.506 1205.11,948.808 1216.5,945.25 1227.89,941.82 1239.29,938.516 1250.68,935.33 1262.08,932.26 1273.47,929.298 1284.86,926.442 
  1296.26,923.685 1307.65,921.024 1319.04,918.452 1330.44,915.965 1341.83,913.557 1353.23,911.222 1364.62,908.953 1376.01,906.743 1387.41,904.584 1398.8,902.469 
  1410.19,900.389 1421.59,898.334 1432.98,896.294 1444.37,894.261 1455.77,892.224 1467.16,890.171 1478.56,888.092 1489.95,885.975 1501.34,883.808 1512.74,881.58 
  1524.13,879.279 1535.52,876.893 1546.92,874.411 1558.31,871.821 1569.71,869.112 1581.1,866.276 1592.49,863.303 1603.89,860.188 1615.28,856.923 1626.67,853.507 
  1638.07,849.939 1649.46,846.219 1660.85,842.35 1672.25,838.334 1683.64,834.176 1695.04,829.878 1706.43,825.444 1717.82,820.878 1729.22,816.184 1740.61,811.365 
  1752,806.428 1763.4,801.379 1774.79,796.228 1786.18,790.982 1797.58,785.653 1808.97,780.249 1820.37,774.783 1831.76,769.264 1843.15,763.703 1854.55,758.113 
  1865.94,752.503 1877.33,746.884 1888.73,741.266 1900.12,735.661 1911.52,730.077 1922.91,724.525 1934.3,719.016 1945.7,713.56 1957.09,708.167 1968.48,702.847 
  1979.88,697.612 1991.27,692.47 2002.66,687.433 2014.06,682.51 2025.45,677.711 2036.85,673.046 2048.24,668.524 2059.63,664.155 2071.03,659.947 2082.42,655.909 
  2093.81,652.05 2105.21,648.376 2116.6,644.897 2128,641.619 2139.39,638.55 2150.78,635.695 2162.18,633.062 2173.57,630.654 2184.96,628.477 2196.36,626.534 
  2207.75,624.829 2219.14,623.36 2230.54,622.131 2241.93,621.136 2253.33,620.377 2264.72,619.845 2276.11,619.538 2287.51,619.443 2298.9,619.557 2310.29,619.861 
  2321.69,620.349 2333.08,620.996 2344.48,621.795 2355.87,622.716 2367.26,623.748 2378.66,624.853 2390.05,626.022 2401.44,627.205 2412.84,628.394 2424.23,629.53 
  2435.62,630.607 2447.02,631.553 2458.41,632.37 2469.81,632.974 2481.2,633.378 2492.59,633.494 2503.99,633.363 2515.38,632.917 2526.77,632.287 2538.17,631.548 
  2549.56,631.172 
  "/>
<polyline clip-path="url(#clip9202)" style="stroke:#c271d2; stroke-width:16; stroke-opacity:1; fill:none" points="
  270.826,2107.92 282.22,2107.92 293.613,2107.94 305.007,2108.11 316.401,2108.47 327.794,2108.37 339.188,2106.83 350.582,2103.25 361.975,2097.54 373.369,2089.91 
  384.763,2080.69 396.156,2070.15 407.55,2058.55 418.944,2046.07 430.337,2032.86 441.731,2019.03 453.125,2004.67 464.518,1989.85 475.912,1974.63 487.306,1959.05 
  498.699,1943.16 510.093,1926.97 521.487,1910.54 532.88,1893.87 544.274,1876.99 555.668,1859.92 567.062,1842.68 578.455,1825.28 589.849,1807.76 601.243,1790.11 
  612.636,1772.36 624.03,1754.53 635.424,1736.63 646.817,1718.68 658.211,1700.7 669.605,1682.69 680.998,1664.68 692.392,1646.68 703.786,1628.71 715.179,1610.78 
  726.573,1592.9 737.967,1575.09 749.36,1557.36 760.754,1539.72 772.148,1522.19 783.541,1504.77 794.935,1487.49 806.329,1470.34 817.722,1453.33 829.116,1436.49 
  840.51,1419.81 851.903,1403.31 863.297,1386.98 874.691,1370.85 886.084,1354.9 897.478,1339.16 908.872,1323.63 920.265,1308.3 931.659,1293.17 943.053,1278.26 
  954.447,1263.56 965.84,1249.07 977.234,1234.78 988.628,1220.69 1000.02,1206.79 1011.41,1193.07 1022.81,1179.51 1034.2,1166.13 1045.6,1152.93 1056.99,1139.92 
  1068.38,1127.06 1079.78,1114.32 1091.17,1101.7 1102.56,1089.19 1113.96,1076.77 1125.35,1064.44 1136.75,1052.2 1148.14,1040.05 1159.53,1028 1170.93,1016.03 
  1182.32,1004.15 1193.71,992.338 1205.11,980.599 1216.5,968.922 1227.89,957.297 1239.29,945.718 1250.68,934.177 1262.08,922.667 1273.47,911.18 1284.86,899.712 
  1296.26,888.256 1307.65,876.809 1319.04,865.367 1330.44,853.928 1341.83,842.491 1353.23,831.057 1364.62,819.626 1376.01,808.202 1387.41,796.791 1398.8,785.397 
  1410.19,774.029 1421.59,762.696 1432.98,751.409 1444.37,740.179 1455.77,729.019 1467.16,717.945 1478.56,706.972 1489.95,696.116 1501.34,685.394 1512.74,674.826 
  1524.13,664.43 1535.52,654.224 1546.92,644.23 1558.31,634.467 1569.71,624.956 1581.1,615.718 1592.49,606.775 1603.89,598.146 1615.28,589.849 1626.67,581.899 
  1638.07,574.308 1649.46,567.082 1660.85,560.229 1672.25,553.757 1683.64,547.675 1695.04,541.998 1706.43,536.74 1717.82,531.92 1729.22,527.559 1740.61,523.674 
  1752,520.283 1763.4,517.402 1774.79,515.038 1786.18,513.194 1797.58,511.864 1808.97,511.036 1820.37,510.69 1831.76,510.8 1843.15,511.337 1854.55,512.272 
  1865.94,513.575 1877.33,515.217 1888.73,517.171 1900.12,519.409 1911.52,521.907 1922.91,524.64 1934.3,527.585 1945.7,530.722 1957.09,534.03 1968.48,537.49 
  1979.88,541.086 1991.27,544.8 2002.66,548.619 2014.06,552.526 2025.45,556.51 2036.85,560.558 2048.24,564.659 2059.63,568.801 2071.03,572.975 2082.42,577.172 
  2093.81,581.381 2105.21,585.596 2116.6,589.807 2128,594.008 2139.39,598.191 2150.78,602.35 2162.18,606.477 2173.57,610.566 2184.96,614.612 2196.36,618.607 
  2207.75,622.546 2219.14,626.424 2230.54,630.234 2241.93,633.971 2253.33,637.628 2264.72,641.201 2276.11,644.683 2287.51,648.069 2298.9,651.352 2310.29,654.528 
  2321.69,657.588 2333.08,660.529 2344.48,663.341 2355.87,666.022 2367.26,668.561 2378.66,670.957 2390.05,673.197 2401.44,675.282 2412.84,677.198 2424.23,678.949 
  2435.62,680.519 2447.02,681.916 2458.41,683.125 2469.81,684.159 2481.2,685.005 2492.59,685.687 2503.99,686.203 2515.38,686.59 2526.77,686.865 2538.17,687.092 
  2549.56,687.308 
  "/>
<polyline clip-path="url(#clip9202)" style="stroke:#ac8d18; stroke-width:16; stroke-opacity:1; fill:none" points="
  270.826,2146.22 282.22,2146.07 293.613,2143.74 305.007,2128.36 316.401,2099.88 327.794,2068.78 339.188,2039 350.582,2010.4 361.975,1982.31 373.369,1954.34 
  384.763,1926.27 396.156,1898 407.55,1869.48 418.944,1840.7 430.337,1811.64 441.731,1782.32 453.125,1752.74 464.518,1722.91 475.912,1692.87 487.306,1662.62 
  498.699,1632.21 510.093,1601.67 521.487,1571.03 532.88,1540.33 544.274,1509.62 555.668,1478.95 567.062,1448.34 578.455,1417.86 589.849,1387.55 601.243,1357.44 
  612.636,1327.6 624.03,1298.06 635.424,1268.86 646.817,1240.04 658.211,1211.64 669.605,1183.68 680.998,1156.22 692.392,1129.26 703.786,1102.84 715.179,1076.98 
  726.573,1051.69 737.967,1026.99 749.36,1002.9 760.754,979.42 772.148,956.56 783.541,934.324 794.935,912.713 806.329,891.729 817.722,871.365 829.116,851.62 
  840.51,832.486 851.903,813.959 863.297,796.025 874.691,778.68 886.084,761.909 897.478,745.707 908.872,730.054 920.265,714.95 931.659,700.37 943.053,686.315 
  954.447,672.759 965.84,659.703 977.234,647.114 988.628,634.996 1000.02,623.3 1011.41,612.026 1022.81,601.109 1034.2,590.537 1045.6,580.247 1056.99,570.227 
  1068.38,560.486 1079.78,550.988 1091.17,541.745 1102.56,532.729 1113.96,523.942 1125.35,515.358 1136.75,506.964 1148.14,498.732 1159.53,490.636 1170.93,482.65 
  1182.32,474.757 1193.71,466.938 1205.11,459.181 1216.5,451.473 1227.89,443.806 1239.29,436.168 1250.68,428.553 1262.08,420.955 1273.47,413.367 1284.86,405.786 
  1296.26,398.209 1307.65,390.634 1319.04,383.061 1330.44,375.492 1341.83,367.927 1353.23,360.372 1364.62,352.831 1376.01,345.309 1387.41,337.815 1398.8,330.355 
  1410.19,322.938 1421.59,315.574 1432.98,308.272 1444.37,301.042 1455.77,293.895 1467.16,286.84 1478.56,279.889 1489.95,273.052 1501.34,266.34 1512.74,259.764 
  1524.13,253.337 1535.52,247.07 1546.92,240.978 1558.31,235.076 1569.71,229.383 1581.1,223.92 1592.49,218.714 1603.89,213.798 1615.28,209.214 1626.67,205.007 
  1638.07,201.224 1649.46,197.906 1660.85,195.093 1672.25,192.828 1683.64,191.154 1695.04,190.109 1706.43,189.727 1717.82,190.029 1729.22,191.024 1740.61,192.709 
  1752,195.071 1763.4,198.083 1774.79,201.714 1786.18,205.929 1797.58,210.689 1808.97,215.96 1820.37,221.71 1831.76,227.91 1843.15,234.536 1854.55,241.562 
  1865.94,248.969 1877.33,256.733 1888.73,264.836 1900.12,273.255 1911.52,281.969 1922.91,290.956 1934.3,300.194 1945.7,309.66 1957.09,319.329 1968.48,329.179 
  1979.88,339.185 1991.27,349.324 2002.66,359.57 2014.06,369.902 2025.45,380.294 2036.85,390.725 2048.24,401.173 2059.63,411.615 2071.03,422.031 2082.42,432.401 
  2093.81,442.706 2105.21,452.928 2116.6,463.05 2128,473.055 2139.39,482.929 2150.78,492.658 2162.18,502.228 2173.57,511.627 2184.96,520.844 2196.36,529.868 
  2207.75,538.688 2219.14,547.297 2230.54,555.684 2241.93,563.843 2253.33,571.763 2264.72,579.439 2276.11,586.86 2287.51,594.024 2298.9,600.916 2310.29,607.536 
  2321.69,613.87 2333.08,619.916 2344.48,625.66 2355.87,631.1 2367.26,636.221 2378.66,641.024 2390.05,645.489 2401.44,649.623 2412.84,653.402 2424.23,656.838 
  2435.62,659.907 2447.02,662.625 2458.41,664.97 2469.81,666.966 2481.2,668.596 2492.59,669.897 2503.99,670.862 2515.38,671.558 2526.77,672.008 2538.17,672.346 
  2549.56,672.72 
  "/>
<polyline clip-path="url(#clip9202)" style="stroke:#00a9ad; stroke-width:16; stroke-opacity:1; fill:none" points="
  270.826,2146.22 282.22,2146.08 293.613,2144.33 305.007,2133.33 316.401,2114 327.794,2093.61 339.188,2074.13 350.582,2055.21 361.975,2036.41 373.369,2017.53 
  384.763,1998.49 396.156,1979.26 407.55,1959.84 418.944,1940.25 430.337,1920.49 441.731,1900.59 453.125,1880.55 464.518,1860.39 475.912,1840.13 487.306,1819.79 
  498.699,1799.37 510.093,1778.91 521.487,1758.41 532.88,1737.89 544.274,1717.37 555.668,1696.87 567.062,1676.4 578.455,1655.98 589.849,1635.63 601.243,1615.36 
  612.636,1595.19 624.03,1575.14 635.424,1555.22 646.817,1535.44 658.211,1515.83 669.605,1496.39 680.998,1477.14 692.392,1458.1 703.786,1439.28 715.179,1420.68 
  726.573,1402.32 737.967,1384.22 749.36,1366.37 760.754,1348.8 772.148,1331.51 783.541,1314.51 794.935,1297.81 806.329,1281.41 817.722,1265.32 829.116,1249.55 
  840.51,1234.11 851.903,1219 863.297,1204.22 874.691,1189.78 886.084,1175.69 897.478,1161.95 908.872,1148.56 920.265,1135.53 931.659,1122.86 943.053,1110.55 
  954.447,1098.61 965.84,1087.03 977.234,1075.84 988.628,1065.01 1000.02,1054.59 1011.41,1044.56 1022.81,1034.96 1034.2,1025.84 1045.6,1017 1056.99,1008.33 
  1068.38,999.938 1079.78,991.868 1091.17,984.133 1102.56,976.748 1113.96,969.699 1125.35,962.983 1136.75,956.576 1148.14,950.464 1159.53,944.623 1170.93,939.043 
  1182.32,933.705 1193.71,928.603 1205.11,923.724 1216.5,919.061 1227.89,914.606 1239.29,910.352 1250.68,906.288 1262.08,902.407 1273.47,898.698 1284.86,895.152 
  1296.26,891.759 1307.65,888.505 1319.04,885.382 1330.44,882.375 1341.83,879.475 1353.23,876.668 1364.62,873.944 1376.01,871.29 1387.41,868.698 1398.8,866.157 
  1410.19,863.659 1421.59,861.196 1432.98,858.76 1444.37,856.347 1455.77,853.953 1467.16,851.573 1478.56,849.207 1489.95,846.852 1501.34,844.508 1512.74,842.177 
  1524.13,839.858 1535.52,837.555 1546.92,835.27 1558.31,833.004 1569.71,830.762 1581.1,828.547 1592.49,826.362 1603.89,824.209 1615.28,822.09 1626.67,820.002 
  1638.07,817.941 1649.46,815.902 1660.85,813.882 1672.25,811.881 1683.64,809.9 1695.04,807.94 1706.43,806.001 1717.82,804.084 1729.22,802.188 1740.61,800.316 
  1752,798.468 1763.4,796.649 1774.79,794.863 1786.18,793.116 1797.58,791.413 1808.97,789.759 1820.37,788.155 1831.76,786.602 1843.15,785.098 1854.55,783.638 
  1865.94,782.218 1877.33,780.83 1888.73,779.466 1900.12,778.12 1911.52,776.782 1922.91,775.446 1934.3,774.102 1945.7,772.743 1957.09,771.364 1968.48,769.957 
  1979.88,768.517 1991.27,767.041 2002.66,765.525 2014.06,763.967 2025.45,762.364 2036.85,760.717 2048.24,759.026 2059.63,757.292 2071.03,755.516 2082.42,753.702 
  2093.81,751.853 2105.21,749.973 2116.6,748.067 2128,746.138 2139.39,744.193 2150.78,742.236 2162.18,740.274 2173.57,738.313 2184.96,736.357 2196.36,734.413 
  2207.75,732.487 2219.14,730.583 2230.54,728.706 2241.93,726.861 2253.33,725.052 2264.72,723.281 2276.11,721.554 2287.51,719.87 2298.9,718.235 2310.29,716.644 
  2321.69,715.104 2333.08,713.609 2344.48,712.164 2355.87,710.76 2367.26,709.406 2378.66,708.084 2390.05,706.809 2401.44,705.556 2412.84,704.344 2424.23,703.139 
  2435.62,701.972 2447.02,700.793 2458.41,699.654 2469.81,698.486 2481.2,697.376 2492.59,696.235 2503.99,695.211 2515.38,694.194 2526.77,693.387 2538.17,692.61 
  2549.56,691.867 
  "/>
<polyline clip-path="url(#clip9202)" style="stroke:#ed5d92; stroke-width:16; stroke-opacity:1; fill:none" points="
  270.826,2107.92 282.22,2106.71 293.613,2104.9 305.007,2104.71 316.401,2105.85 327.794,2107 339.188,2107.25 350.582,2106.13 361.975,2103.4 373.369,2098.96 
  384.763,2092.78 396.156,2084.88 407.55,2075.3 418.944,2064.1 430.337,2051.36 441.731,2037.16 453.125,2021.58 464.518,2004.71 475.912,1986.65 487.306,1967.49 
  498.699,1947.34 510.093,1926.28 521.487,1904.43 532.88,1881.89 544.274,1858.77 555.668,1835.16 567.062,1811.17 578.455,1786.9 589.849,1762.46 601.243,1737.92 
  612.636,1713.4 624.03,1688.96 635.424,1664.69 646.817,1640.67 658.211,1616.95 669.605,1593.6 680.998,1570.67 692.392,1548.2 703.786,1526.23 715.179,1504.79 
  726.573,1483.88 737.967,1463.54 749.36,1443.75 760.754,1424.53 772.148,1405.87 783.541,1387.75 794.935,1370.15 806.329,1353.07 817.722,1336.48 829.116,1320.35 
  840.51,1304.65 851.903,1289.36 863.297,1274.45 874.691,1259.89 886.084,1245.65 897.478,1231.72 908.872,1218.06 920.265,1204.65 931.659,1191.48 943.053,1178.52 
  954.447,1165.77 965.84,1153.21 977.234,1140.83 988.628,1128.62 1000.02,1116.56 1011.41,1104.61 1022.81,1092.72 1034.2,1080.76 1045.6,1068.88 1056.99,1057.25 
  1068.38,1045.81 1079.78,1034.54 1091.17,1023.45 1102.56,1012.56 1113.96,1001.88 1125.35,991.408 1136.75,981.15 1148.14,971.099 1159.53,961.253 1170.93,951.615 
  1182.32,942.198 1193.71,933.014 1205.11,924.081 1216.5,915.414 1227.89,907.025 1239.29,898.926 1250.68,891.126 1262.08,883.63 1273.47,876.443 1284.86,869.565 
  1296.26,862.995 1307.65,856.732 1319.04,850.768 1330.44,845.1 1341.83,839.718 1353.23,834.615 1364.62,829.783 1376.01,825.211 1387.41,820.89 1398.8,816.811 
  1410.19,812.964 1421.59,809.338 1432.98,805.925 1444.37,802.715 1455.77,799.699 1467.16,796.868 1478.56,794.213 1489.95,791.727 1501.34,789.403 1512.74,787.233 
  1524.13,785.212 1535.52,783.335 1546.92,781.597 1558.31,779.996 1569.71,778.53 1581.1,777.201 1592.49,776.01 1603.89,774.962 1615.28,774.064 1626.67,773.326 
  1638.07,772.755 1649.46,772.351 1660.85,772.108 1672.25,772.02 1683.64,772.085 1695.04,772.323 1706.43,772.772 1717.82,773.492 1729.22,774.554 1740.61,776.037 
  1752,778.017 1763.4,780.559 1774.79,783.712 1786.18,787.509 1797.58,791.966 1808.97,797.083 1820.37,802.846 1831.76,809.229 1843.15,816.194 1854.55,823.697 
  1865.94,831.687 1877.33,840.108 1888.73,848.902 1900.12,858.008 1911.52,867.363 1922.91,876.906 1934.3,886.576 1945.7,896.316 1957.09,906.07 1968.48,915.786 
  1979.88,925.418 1991.27,934.923 2002.66,944.261 2014.06,953.401 2025.45,962.312 2036.85,970.972 2048.24,979.361 2059.63,987.463 2071.03,995.269 2082.42,1002.77 
  2093.81,1009.97 2105.21,1016.86 2116.6,1023.45 2128,1029.75 2139.39,1035.76 2150.78,1041.5 2162.18,1046.98 2173.57,1052.21 2184.96,1057.21 2196.36,1062 
  2207.75,1066.6 2219.14,1071.02 2230.54,1075.28 2241.93,1079.4 2253.33,1083.39 2264.72,1087.27 2276.11,1091.05 2287.51,1094.75 2298.9,1098.37 2310.29,1101.93 
  2321.69,1105.44 2333.08,1108.88 2344.48,1112.28 2355.87,1115.62 2367.26,1118.9 2378.66,1122.12 2390.05,1125.26 2401.44,1128.3 2412.84,1131.23 2424.23,1134.03 
  2435.62,1136.67 2447.02,1139.13 2458.41,1141.4 2469.81,1143.44 2481.2,1145.27 2492.59,1146.88 2503.99,1148.31 2515.38,1149.58 2526.77,1150.74 2538.17,1151.71 
  2549.56,1152.01 
  "/>
<path clip-path="url(#clip9200)" d="
M2713.92 746.392 L3184.76 746.392 L3184.76 262.552 L2713.92 262.552  Z
  " fill="#ffffff" fill-rule="evenodd" fill-opacity="1"/>
<polyline clip-path="url(#clip9200)" style="stroke:#000000; stroke-width:4; stroke-opacity:1; fill:none" points="
  2713.92,746.392 3184.76,746.392 3184.76,262.552 2713.92,262.552 2713.92,746.392 
  "/>
<polyline clip-path="url(#clip9200)" style="stroke:#009af9; stroke-width:16; stroke-opacity:1; fill:none" points="
  2745.92,323.032 2937.92,323.032 
  "/>
<path clip-path="url(#clip9200)" d="M 0 0 M2991.95 303.633 Q2984.95 303.633 2980.81 308.853 Q2976.7 314.072 2976.7 323.08 Q2976.7 332.056 2980.81 337.275 Q2984.95 342.495 2991.95 342.495 Q2998.95 342.495 3003.03 337.275 Q3007.13 332.056 3007.13 323.08 Q3007.13 314.072 3003.03 308.853 Q2998.95 303.633 2991.95 303.633 M3000.96 345.933 L3009.42 355.195 L3001.66 355.195 L2994.62 347.588 Q2993.57 347.651 2993 347.683 Q2992.46 347.715 2991.95 347.715 Q2981.92 347.715 2975.91 341.031 Q2969.92 334.315 2969.92 323.08 Q2969.92 311.813 2975.91 305.129 Q2981.92 298.413 2991.95 298.413 Q3001.94 298.413 3007.93 305.129 Q3013.91 311.813 3013.91 323.08 Q3013.91 331.355 3010.57 337.244 Q3007.26 343.132 3000.96 345.933 Z" fill="#000000" fill-rule="evenodd" fill-opacity="1" /><path clip-path="url(#clip9200)" d="M 0 0 M3019.45 332.724 L3019.45 311.144 L3025.31 311.144 L3025.31 332.501 Q3025.31 337.562 3027.28 340.108 Q3029.25 342.623 3033.2 342.623 Q3037.94 342.623 3040.68 339.599 Q3043.45 336.575 3043.45 331.355 L3043.45 311.144 L3049.3 311.144 L3049.3 346.792 L3043.45 346.792 L3043.45 341.318 Q3041.31 344.564 3038.48 346.156 Q3035.68 347.715 3031.96 347.715 Q3025.81 347.715 3022.63 343.896 Q3019.45 340.076 3019.45 332.724 M3034.19 310.285 L3034.19 310.285 Z" fill="#000000" fill-rule="evenodd" fill-opacity="1" /><path clip-path="url(#clip9200)" d="M 0 0 M3071.65 328.873 Q3064.55 328.873 3061.81 330.496 Q3059.08 332.119 3059.08 336.034 Q3059.08 339.153 3061.11 340.999 Q3063.18 342.814 3066.71 342.814 Q3071.58 342.814 3074.51 339.376 Q3077.47 335.907 3077.47 330.178 L3077.47 328.873 L3071.65 328.873 M3083.33 326.454 L3083.33 346.792 L3077.47 346.792 L3077.47 341.381 Q3075.47 344.628 3072.47 346.187 Q3069.48 347.715 3065.15 347.715 Q3059.68 347.715 3056.43 344.66 Q3053.22 341.572 3053.22 336.416 Q3053.22 330.4 3057.23 327.345 Q3061.27 324.289 3069.26 324.289 L3077.47 324.289 L3077.47 323.716 Q3077.47 319.674 3074.8 317.478 Q3072.16 315.25 3067.35 315.25 Q3064.29 315.25 3061.4 315.982 Q3058.5 316.714 3055.83 318.178 L3055.83 312.767 Q3059.04 311.526 3062.07 310.921 Q3065.09 310.285 3067.96 310.285 Q3075.69 310.285 3079.51 314.295 Q3083.33 318.306 3083.33 326.454 Z" fill="#000000" fill-rule="evenodd" fill-opacity="1" /><path clip-path="url(#clip9200)" d="M 0 0 M3112.93 316.555 L3112.93 297.267 L3118.79 297.267 L3118.79 346.792 L3112.93 346.792 L3112.93 341.445 Q3111.08 344.628 3108.25 346.187 Q3105.45 347.715 3101.5 347.715 Q3095.04 347.715 3090.97 342.559 Q3086.93 337.403 3086.93 329 Q3086.93 320.597 3090.97 315.441 Q3095.04 310.285 3101.5 310.285 Q3105.45 310.285 3108.25 311.844 Q3111.08 313.372 3112.93 316.555 M3092.97 329 Q3092.97 335.461 3095.61 339.153 Q3098.29 342.814 3102.93 342.814 Q3107.58 342.814 3110.26 339.153 Q3112.93 335.461 3112.93 329 Q3112.93 322.539 3110.26 318.879 Q3107.58 315.186 3102.93 315.186 Q3098.29 315.186 3095.61 318.879 Q3092.97 322.539 3092.97 329 Z" fill="#000000" fill-rule="evenodd" fill-opacity="1" /><path clip-path="url(#clip9200)" d="M 0 0 M3147.59 341.381 L3158.09 341.381 L3158.09 305.129 L3146.67 307.42 L3146.67 301.564 L3158.03 299.272 L3164.46 299.272 L3164.46 341.381 L3174.96 341.381 L3174.96 346.792 L3147.59 346.792 L3147.59 341.381 Z" fill="#000000" fill-rule="evenodd" fill-opacity="1" /><polyline clip-path="url(#clip9200)" style="stroke:#e26f46; stroke-width:16; stroke-opacity:1; fill:none" points="
  2745.92,383.512 2937.92,383.512 
  "/>
<path clip-path="url(#clip9200)" d="M 0 0 M2991.95 364.113 Q2984.95 364.113 2980.81 369.333 Q2976.7 374.552 2976.7 383.56 Q2976.7 392.536 2980.81 397.755 Q2984.95 402.975 2991.95 402.975 Q2998.95 402.975 3003.03 397.755 Q3007.13 392.536 3007.13 383.56 Q3007.13 374.552 3003.03 369.333 Q2998.95 364.113 2991.95 364.113 M3000.96 406.413 L3009.42 415.675 L3001.66 415.675 L2994.62 408.068 Q2993.57 408.131 2993 408.163 Q2992.46 408.195 2991.95 408.195 Q2981.92 408.195 2975.91 401.511 Q2969.92 394.795 2969.92 383.56 Q2969.92 372.293 2975.91 365.609 Q2981.92 358.893 2991.95 358.893 Q3001.94 358.893 3007.93 365.609 Q3013.91 372.293 3013.91 383.56 Q3013.91 391.835 3010.57 397.724 Q3007.26 403.612 3000.96 406.413 Z" fill="#000000" fill-rule="evenodd" fill-opacity="1" /><path clip-path="url(#clip9200)" d="M 0 0 M3019.45 393.204 L3019.45 371.624 L3025.31 371.624 L3025.31 392.981 Q3025.31 398.042 3027.28 400.588 Q3029.25 403.103 3033.2 403.103 Q3037.94 403.103 3040.68 400.079 Q3043.45 397.055 3043.45 391.835 L3043.45 371.624 L3049.3 371.624 L3049.3 407.272 L3043.45 407.272 L3043.45 401.798 Q3041.31 405.044 3038.48 406.636 Q3035.68 408.195 3031.96 408.195 Q3025.81 408.195 3022.63 404.376 Q3019.45 400.556 3019.45 393.204 M3034.19 370.765 L3034.19 370.765 Z" fill="#000000" fill-rule="evenodd" fill-opacity="1" /><path clip-path="url(#clip9200)" d="M 0 0 M3071.65 389.353 Q3064.55 389.353 3061.81 390.976 Q3059.08 392.599 3059.08 396.514 Q3059.08 399.633 3061.11 401.479 Q3063.18 403.294 3066.71 403.294 Q3071.58 403.294 3074.51 399.856 Q3077.47 396.387 3077.47 390.658 L3077.47 389.353 L3071.65 389.353 M3083.33 386.934 L3083.33 407.272 L3077.47 407.272 L3077.47 401.861 Q3075.47 405.108 3072.47 406.667 Q3069.48 408.195 3065.15 408.195 Q3059.68 408.195 3056.43 405.14 Q3053.22 402.052 3053.22 396.896 Q3053.22 390.88 3057.23 387.825 Q3061.27 384.769 3069.26 384.769 L3077.47 384.769 L3077.47 384.196 Q3077.47 380.154 3074.8 377.958 Q3072.16 375.73 3067.35 375.73 Q3064.29 375.73 3061.4 376.462 Q3058.5 377.194 3055.83 378.658 L3055.83 373.247 Q3059.04 372.006 3062.07 371.401 Q3065.09 370.765 3067.96 370.765 Q3075.69 370.765 3079.51 374.775 Q3083.33 378.786 3083.33 386.934 Z" fill="#000000" fill-rule="evenodd" fill-opacity="1" /><path clip-path="url(#clip9200)" d="M 0 0 M3112.93 377.035 L3112.93 357.747 L3118.79 357.747 L3118.79 407.272 L3112.93 407.272 L3112.93 401.925 Q3111.08 405.108 3108.25 406.667 Q3105.45 408.195 3101.5 408.195 Q3095.04 408.195 3090.97 403.039 Q3086.93 397.883 3086.93 389.48 Q3086.93 381.077 3090.97 375.921 Q3095.04 370.765 3101.5 370.765 Q3105.45 370.765 3108.25 372.324 Q3111.08 373.852 3112.93 377.035 M3092.97 389.48 Q3092.97 395.941 3095.61 399.633 Q3098.29 403.294 3102.93 403.294 Q3107.58 403.294 3110.26 399.633 Q3112.93 395.941 3112.93 389.48 Q3112.93 383.019 3110.26 379.359 Q3107.58 375.666 3102.93 375.666 Q3098.29 375.666 3095.61 379.359 Q3092.97 383.019 3092.97 389.48 Z" fill="#000000" fill-rule="evenodd" fill-opacity="1" /><path clip-path="url(#clip9200)" d="M 0 0 M3152.01 401.861 L3174.45 401.861 L3174.45 407.272 L3144.28 407.272 L3144.28 401.861 Q3147.94 398.074 3154.24 391.708 Q3160.58 385.31 3162.2 383.464 Q3165.29 379.995 3166.5 377.608 Q3167.74 375.189 3167.74 372.865 Q3167.74 369.078 3165.06 366.691 Q3162.42 364.304 3158.16 364.304 Q3155.13 364.304 3151.76 365.354 Q3148.42 366.404 3144.6 368.537 L3144.6 362.044 Q3148.48 360.484 3151.86 359.688 Q3155.23 358.893 3158.03 358.893 Q3165.41 358.893 3169.81 362.585 Q3174.2 366.277 3174.2 372.452 Q3174.2 375.38 3173.08 378.022 Q3172 380.632 3169.11 384.196 Q3168.31 385.119 3164.05 389.544 Q3159.78 393.936 3152.01 401.861 Z" fill="#000000" fill-rule="evenodd" fill-opacity="1" /><polyline clip-path="url(#clip9200)" style="stroke:#3da44d; stroke-width:16; stroke-opacity:1; fill:none" points="
  2745.92,443.992 2937.92,443.992 
  "/>
<path clip-path="url(#clip9200)" d="M 0 0 M2991.95 424.593 Q2984.95 424.593 2980.81 429.813 Q2976.7 435.032 2976.7 444.04 Q2976.7 453.016 2980.81 458.235 Q2984.95 463.455 2991.95 463.455 Q2998.95 463.455 3003.03 458.235 Q3007.13 453.016 3007.13 444.04 Q3007.13 435.032 3003.03 429.813 Q2998.95 424.593 2991.95 424.593 M3000.96 466.893 L3009.42 476.155 L3001.66 476.155 L2994.62 468.548 Q2993.57 468.611 2993 468.643 Q2992.46 468.675 2991.95 468.675 Q2981.92 468.675 2975.91 461.991 Q2969.92 455.275 2969.92 444.04 Q2969.92 432.773 2975.91 426.089 Q2981.92 419.373 2991.95 419.373 Q3001.94 419.373 3007.93 426.089 Q3013.91 432.773 3013.91 444.04 Q3013.91 452.315 3010.57 458.204 Q3007.26 464.092 3000.96 466.893 Z" fill="#000000" fill-rule="evenodd" fill-opacity="1" /><path clip-path="url(#clip9200)" d="M 0 0 M3019.45 453.684 L3019.45 432.104 L3025.31 432.104 L3025.31 453.461 Q3025.31 458.522 3027.28 461.068 Q3029.25 463.583 3033.2 463.583 Q3037.94 463.583 3040.68 460.559 Q3043.45 457.535 3043.45 452.315 L3043.45 432.104 L3049.3 432.104 L3049.3 467.752 L3043.45 467.752 L3043.45 462.278 Q3041.31 465.524 3038.48 467.116 Q3035.68 468.675 3031.96 468.675 Q3025.81 468.675 3022.63 464.856 Q3019.45 461.036 3019.45 453.684 M3034.19 431.245 L3034.19 431.245 Z" fill="#000000" fill-rule="evenodd" fill-opacity="1" /><path clip-path="url(#clip9200)" d="M 0 0 M3071.65 449.833 Q3064.55 449.833 3061.81 451.456 Q3059.08 453.079 3059.08 456.994 Q3059.08 460.113 3061.11 461.959 Q3063.18 463.774 3066.71 463.774 Q3071.58 463.774 3074.51 460.336 Q3077.47 456.867 3077.47 451.138 L3077.47 449.833 L3071.65 449.833 M3083.33 447.414 L3083.33 467.752 L3077.47 467.752 L3077.47 462.341 Q3075.47 465.588 3072.47 467.147 Q3069.48 468.675 3065.15 468.675 Q3059.68 468.675 3056.43 465.62 Q3053.22 462.532 3053.22 457.376 Q3053.22 451.36 3057.23 448.305 Q3061.27 445.249 3069.26 445.249 L3077.47 445.249 L3077.47 444.676 Q3077.47 440.634 3074.8 438.438 Q3072.16 436.21 3067.35 436.21 Q3064.29 436.21 3061.4 436.942 Q3058.5 437.674 3055.83 439.138 L3055.83 433.727 Q3059.04 432.486 3062.07 431.881 Q3065.09 431.245 3067.96 431.245 Q3075.69 431.245 3079.51 435.255 Q3083.33 439.266 3083.33 447.414 Z" fill="#000000" fill-rule="evenodd" fill-opacity="1" /><path clip-path="url(#clip9200)" d="M 0 0 M3112.93 437.515 L3112.93 418.227 L3118.79 418.227 L3118.79 467.752 L3112.93 467.752 L3112.93 462.405 Q3111.08 465.588 3108.25 467.147 Q3105.45 468.675 3101.5 468.675 Q3095.04 468.675 3090.97 463.519 Q3086.93 458.363 3086.93 449.96 Q3086.93 441.557 3090.97 436.401 Q3095.04 431.245 3101.5 431.245 Q3105.45 431.245 3108.25 432.804 Q3111.08 434.332 3112.93 437.515 M3092.97 449.96 Q3092.97 456.421 3095.61 460.113 Q3098.29 463.774 3102.93 463.774 Q3107.58 463.774 3110.26 460.113 Q3112.93 456.421 3112.93 449.96 Q3112.93 443.499 3110.26 439.839 Q3107.58 436.146 3102.93 436.146 Q3098.29 436.146 3095.61 439.839 Q3092.97 443.499 3092.97 449.96 Z" fill="#000000" fill-rule="evenodd" fill-opacity="1" /><path clip-path="url(#clip9200)" d="M 0 0 M3165.96 442.13 Q3170.57 443.117 3173.15 446.236 Q3175.76 449.355 3175.76 453.939 Q3175.76 460.973 3170.92 464.824 Q3166.08 468.675 3157.17 468.675 Q3154.18 468.675 3151 468.07 Q3147.84 467.497 3144.47 466.32 L3144.47 460.113 Q3147.14 461.673 3150.33 462.469 Q3153.51 463.264 3156.98 463.264 Q3163.03 463.264 3166.18 460.877 Q3169.36 458.49 3169.36 453.939 Q3169.36 449.737 3166.4 447.382 Q3163.47 444.995 3158.22 444.995 L3152.68 444.995 L3152.68 439.711 L3158.48 439.711 Q3163.22 439.711 3165.73 437.833 Q3168.25 435.924 3168.25 432.359 Q3168.25 428.699 3165.64 426.757 Q3163.06 424.784 3158.22 424.784 Q3155.58 424.784 3152.56 425.357 Q3149.53 425.929 3145.9 427.139 L3145.9 421.41 Q3149.56 420.391 3152.75 419.882 Q3155.96 419.373 3158.79 419.373 Q3166.11 419.373 3170.38 422.715 Q3174.64 426.025 3174.64 431.69 Q3174.64 435.637 3172.38 438.374 Q3170.12 441.08 3165.96 442.13 Z" fill="#000000" fill-rule="evenodd" fill-opacity="1" /><polyline clip-path="url(#clip9200)" style="stroke:#c271d2; stroke-width:16; stroke-opacity:1; fill:none" points="
  2745.92,504.472 2937.92,504.472 
  "/>
<path clip-path="url(#clip9200)" d="M 0 0 M2991.95 485.073 Q2984.95 485.073 2980.81 490.293 Q2976.7 495.512 2976.7 504.52 Q2976.7 513.496 2980.81 518.715 Q2984.95 523.935 2991.95 523.935 Q2998.95 523.935 3003.03 518.715 Q3007.13 513.496 3007.13 504.52 Q3007.13 495.512 3003.03 490.293 Q2998.95 485.073 2991.95 485.073 M3000.96 527.373 L3009.42 536.635 L3001.66 536.635 L2994.62 529.028 Q2993.57 529.091 2993 529.123 Q2992.46 529.155 2991.95 529.155 Q2981.92 529.155 2975.91 522.471 Q2969.92 515.755 2969.92 504.52 Q2969.92 493.253 2975.91 486.569 Q2981.92 479.853 2991.95 479.853 Q3001.94 479.853 3007.93 486.569 Q3013.91 493.253 3013.91 504.52 Q3013.91 512.795 3010.57 518.684 Q3007.26 524.572 3000.96 527.373 Z" fill="#000000" fill-rule="evenodd" fill-opacity="1" /><path clip-path="url(#clip9200)" d="M 0 0 M3019.45 514.164 L3019.45 492.584 L3025.31 492.584 L3025.31 513.941 Q3025.31 519.002 3027.28 521.548 Q3029.25 524.063 3033.2 524.063 Q3037.94 524.063 3040.68 521.039 Q3043.45 518.015 3043.45 512.795 L3043.45 492.584 L3049.3 492.584 L3049.3 528.232 L3043.45 528.232 L3043.45 522.758 Q3041.31 526.004 3038.48 527.596 Q3035.68 529.155 3031.96 529.155 Q3025.81 529.155 3022.63 525.336 Q3019.45 521.516 3019.45 514.164 M3034.19 491.725 L3034.19 491.725 Z" fill="#000000" fill-rule="evenodd" fill-opacity="1" /><path clip-path="url(#clip9200)" d="M 0 0 M3071.65 510.313 Q3064.55 510.313 3061.81 511.936 Q3059.08 513.559 3059.08 517.474 Q3059.08 520.593 3061.11 522.439 Q3063.18 524.254 3066.71 524.254 Q3071.58 524.254 3074.51 520.816 Q3077.47 517.347 3077.47 511.618 L3077.47 510.313 L3071.65 510.313 M3083.33 507.894 L3083.33 528.232 L3077.47 528.232 L3077.47 522.821 Q3075.47 526.068 3072.47 527.627 Q3069.48 529.155 3065.15 529.155 Q3059.68 529.155 3056.43 526.1 Q3053.22 523.012 3053.22 517.856 Q3053.22 511.84 3057.23 508.785 Q3061.27 505.729 3069.26 505.729 L3077.47 505.729 L3077.47 505.156 Q3077.47 501.114 3074.8 498.918 Q3072.16 496.69 3067.35 496.69 Q3064.29 496.69 3061.4 497.422 Q3058.5 498.154 3055.83 499.618 L3055.83 494.207 Q3059.04 492.966 3062.07 492.361 Q3065.09 491.725 3067.96 491.725 Q3075.69 491.725 3079.51 495.735 Q3083.33 499.746 3083.33 507.894 Z" fill="#000000" fill-rule="evenodd" fill-opacity="1" /><path clip-path="url(#clip9200)" d="M 0 0 M3112.93 497.995 L3112.93 478.707 L3118.79 478.707 L3118.79 528.232 L3112.93 528.232 L3112.93 522.885 Q3111.08 526.068 3108.25 527.627 Q3105.45 529.155 3101.5 529.155 Q3095.04 529.155 3090.97 523.999 Q3086.93 518.843 3086.93 510.44 Q3086.93 502.037 3090.97 496.881 Q3095.04 491.725 3101.5 491.725 Q3105.45 491.725 3108.25 493.284 Q3111.08 494.812 3112.93 497.995 M3092.97 510.44 Q3092.97 516.901 3095.61 520.593 Q3098.29 524.254 3102.93 524.254 Q3107.58 524.254 3110.26 520.593 Q3112.93 516.901 3112.93 510.44 Q3112.93 503.979 3110.26 500.319 Q3107.58 496.626 3102.93 496.626 Q3098.29 496.626 3095.61 500.319 Q3092.97 503.979 3092.97 510.44 Z" fill="#000000" fill-rule="evenodd" fill-opacity="1" /><path clip-path="url(#clip9200)" d="M 0 0 M3164.14 486.314 L3147.91 511.681 L3164.14 511.681 L3164.14 486.314 M3162.45 480.712 L3170.54 480.712 L3170.54 511.681 L3177.32 511.681 L3177.32 517.028 L3170.54 517.028 L3170.54 528.232 L3164.14 528.232 L3164.14 517.028 L3142.69 517.028 L3142.69 510.822 L3162.45 480.712 Z" fill="#000000" fill-rule="evenodd" fill-opacity="1" /><polyline clip-path="url(#clip9200)" style="stroke:#ac8d18; stroke-width:16; stroke-opacity:1; fill:none" points="
  2745.92,564.952 2937.92,564.952 
  "/>
<path clip-path="url(#clip9200)" d="M 0 0 M2991.95 545.553 Q2984.95 545.553 2980.81 550.773 Q2976.7 555.992 2976.7 565 Q2976.7 573.976 2980.81 579.195 Q2984.95 584.415 2991.95 584.415 Q2998.95 584.415 3003.03 579.195 Q3007.13 573.976 3007.13 565 Q3007.13 555.992 3003.03 550.773 Q2998.95 545.553 2991.95 545.553 M3000.96 587.853 L3009.42 597.115 L3001.66 597.115 L2994.62 589.508 Q2993.57 589.571 2993 589.603 Q2992.46 589.635 2991.95 589.635 Q2981.92 589.635 2975.91 582.951 Q2969.92 576.235 2969.92 565 Q2969.92 553.733 2975.91 547.049 Q2981.92 540.333 2991.95 540.333 Q3001.94 540.333 3007.93 547.049 Q3013.91 553.733 3013.91 565 Q3013.91 573.275 3010.57 579.164 Q3007.26 585.052 3000.96 587.853 Z" fill="#000000" fill-rule="evenodd" fill-opacity="1" /><path clip-path="url(#clip9200)" d="M 0 0 M3019.45 574.644 L3019.45 553.064 L3025.31 553.064 L3025.31 574.421 Q3025.31 579.482 3027.28 582.028 Q3029.25 584.543 3033.2 584.543 Q3037.94 584.543 3040.68 581.519 Q3043.45 578.495 3043.45 573.275 L3043.45 553.064 L3049.3 553.064 L3049.3 588.712 L3043.45 588.712 L3043.45 583.238 Q3041.31 586.484 3038.48 588.076 Q3035.68 589.635 3031.96 589.635 Q3025.81 589.635 3022.63 585.816 Q3019.45 581.996 3019.45 574.644 M3034.19 552.205 L3034.19 552.205 Z" fill="#000000" fill-rule="evenodd" fill-opacity="1" /><path clip-path="url(#clip9200)" d="M 0 0 M3071.65 570.793 Q3064.55 570.793 3061.81 572.416 Q3059.08 574.039 3059.08 577.954 Q3059.08 581.073 3061.11 582.919 Q3063.18 584.734 3066.71 584.734 Q3071.58 584.734 3074.51 581.296 Q3077.47 577.827 3077.47 572.098 L3077.47 570.793 L3071.65 570.793 M3083.33 568.374 L3083.33 588.712 L3077.47 588.712 L3077.47 583.301 Q3075.47 586.548 3072.47 588.107 Q3069.48 589.635 3065.15 589.635 Q3059.68 589.635 3056.43 586.58 Q3053.22 583.492 3053.22 578.336 Q3053.22 572.32 3057.23 569.265 Q3061.27 566.209 3069.26 566.209 L3077.47 566.209 L3077.47 565.636 Q3077.47 561.594 3074.8 559.398 Q3072.16 557.17 3067.35 557.17 Q3064.29 557.17 3061.4 557.902 Q3058.5 558.634 3055.83 560.098 L3055.83 554.687 Q3059.04 553.446 3062.07 552.841 Q3065.09 552.205 3067.96 552.205 Q3075.69 552.205 3079.51 556.215 Q3083.33 560.226 3083.33 568.374 Z" fill="#000000" fill-rule="evenodd" fill-opacity="1" /><path clip-path="url(#clip9200)" d="M 0 0 M3112.93 558.475 L3112.93 539.187 L3118.79 539.187 L3118.79 588.712 L3112.93 588.712 L3112.93 583.365 Q3111.08 586.548 3108.25 588.107 Q3105.45 589.635 3101.5 589.635 Q3095.04 589.635 3090.97 584.479 Q3086.93 579.323 3086.93 570.92 Q3086.93 562.517 3090.97 557.361 Q3095.04 552.205 3101.5 552.205 Q3105.45 552.205 3108.25 553.764 Q3111.08 555.292 3112.93 558.475 M3092.97 570.92 Q3092.97 577.381 3095.61 581.073 Q3098.29 584.734 3102.93 584.734 Q3107.58 584.734 3110.26 581.073 Q3112.93 577.381 3112.93 570.92 Q3112.93 564.459 3110.26 560.799 Q3107.58 557.106 3102.93 557.106 Q3098.29 557.106 3095.61 560.799 Q3092.97 564.459 3092.97 570.92 Z" fill="#000000" fill-rule="evenodd" fill-opacity="1" /><path clip-path="url(#clip9200)" d="M 0 0 M3146.54 541.192 L3171.78 541.192 L3171.78 546.603 L3152.43 546.603 L3152.43 558.252 Q3153.83 557.775 3155.23 557.552 Q3156.63 557.297 3158.03 557.297 Q3165.99 557.297 3170.63 561.658 Q3175.28 566.018 3175.28 573.466 Q3175.28 581.137 3170.51 585.402 Q3165.73 589.635 3157.04 589.635 Q3154.05 589.635 3150.93 589.126 Q3147.84 588.617 3144.53 587.598 L3144.53 581.137 Q3147.4 582.697 3150.45 583.46 Q3153.51 584.224 3156.92 584.224 Q3162.42 584.224 3165.64 581.328 Q3168.85 578.432 3168.85 573.466 Q3168.85 568.501 3165.64 565.605 Q3162.42 562.708 3156.92 562.708 Q3154.34 562.708 3151.76 563.281 Q3149.21 563.854 3146.54 565.064 L3146.54 541.192 Z" fill="#000000" fill-rule="evenodd" fill-opacity="1" /><polyline clip-path="url(#clip9200)" style="stroke:#00a9ad; stroke-width:16; stroke-opacity:1; fill:none" points="
  2745.92,625.432 2937.92,625.432 
  "/>
<path clip-path="url(#clip9200)" d="M 0 0 M2991.95 606.033 Q2984.95 606.033 2980.81 611.253 Q2976.7 616.472 2976.7 625.48 Q2976.7 634.456 2980.81 639.675 Q2984.95 644.895 2991.95 644.895 Q2998.95 644.895 3003.03 639.675 Q3007.13 634.456 3007.13 625.48 Q3007.13 616.472 3003.03 611.253 Q2998.95 606.033 2991.95 606.033 M3000.96 648.333 L3009.42 657.595 L3001.66 657.595 L2994.62 649.988 Q2993.57 650.051 2993 650.083 Q2992.46 650.115 2991.95 650.115 Q2981.92 650.115 2975.91 643.431 Q2969.92 636.715 2969.92 625.48 Q2969.92 614.213 2975.91 607.529 Q2981.92 600.813 2991.95 600.813 Q3001.94 600.813 3007.93 607.529 Q3013.91 614.213 3013.91 625.48 Q3013.91 633.755 3010.57 639.644 Q3007.26 645.532 3000.96 648.333 Z" fill="#000000" fill-rule="evenodd" fill-opacity="1" /><path clip-path="url(#clip9200)" d="M 0 0 M3019.45 635.124 L3019.45 613.544 L3025.31 613.544 L3025.31 634.901 Q3025.31 639.962 3027.28 642.508 Q3029.25 645.023 3033.2 645.023 Q3037.94 645.023 3040.68 641.999 Q3043.45 638.975 3043.45 633.755 L3043.45 613.544 L3049.3 613.544 L3049.3 649.192 L3043.45 649.192 L3043.45 643.718 Q3041.31 646.964 3038.48 648.556 Q3035.68 650.115 3031.96 650.115 Q3025.81 650.115 3022.63 646.296 Q3019.45 642.476 3019.45 635.124 M3034.19 612.685 L3034.19 612.685 Z" fill="#000000" fill-rule="evenodd" fill-opacity="1" /><path clip-path="url(#clip9200)" d="M 0 0 M3071.65 631.273 Q3064.55 631.273 3061.81 632.896 Q3059.08 634.519 3059.08 638.434 Q3059.08 641.553 3061.11 643.399 Q3063.18 645.214 3066.71 645.214 Q3071.58 645.214 3074.51 641.776 Q3077.47 638.307 3077.47 632.578 L3077.47 631.273 L3071.65 631.273 M3083.33 628.854 L3083.33 649.192 L3077.47 649.192 L3077.47 643.781 Q3075.47 647.028 3072.47 648.587 Q3069.48 650.115 3065.15 650.115 Q3059.68 650.115 3056.43 647.06 Q3053.22 643.972 3053.22 638.816 Q3053.22 632.8 3057.23 629.745 Q3061.27 626.689 3069.26 626.689 L3077.47 626.689 L3077.47 626.116 Q3077.47 622.074 3074.8 619.878 Q3072.16 617.65 3067.35 617.65 Q3064.29 617.65 3061.4 618.382 Q3058.5 619.114 3055.83 620.578 L3055.83 615.167 Q3059.04 613.926 3062.07 613.321 Q3065.09 612.685 3067.96 612.685 Q3075.69 612.685 3079.51 616.695 Q3083.33 620.706 3083.33 628.854 Z" fill="#000000" fill-rule="evenodd" fill-opacity="1" /><path clip-path="url(#clip9200)" d="M 0 0 M3112.93 618.955 L3112.93 599.667 L3118.79 599.667 L3118.79 649.192 L3112.93 649.192 L3112.93 643.845 Q3111.08 647.028 3108.25 648.587 Q3105.45 650.115 3101.5 650.115 Q3095.04 650.115 3090.97 644.959 Q3086.93 639.803 3086.93 631.4 Q3086.93 622.997 3090.97 617.841 Q3095.04 612.685 3101.5 612.685 Q3105.45 612.685 3108.25 614.244 Q3111.08 615.772 3112.93 618.955 M3092.97 631.4 Q3092.97 637.861 3095.61 641.553 Q3098.29 645.214 3102.93 645.214 Q3107.58 645.214 3110.26 641.553 Q3112.93 637.861 3112.93 631.4 Q3112.93 624.939 3110.26 621.279 Q3107.58 617.586 3102.93 617.586 Q3098.29 617.586 3095.61 621.279 Q3092.97 624.939 3092.97 631.4 Z" fill="#000000" fill-rule="evenodd" fill-opacity="1" /><path clip-path="url(#clip9200)" d="M 0 0 M3161.02 622.87 Q3156.69 622.87 3154.15 625.83 Q3151.63 628.79 3151.63 633.946 Q3151.63 639.071 3154.15 642.063 Q3156.69 645.023 3161.02 645.023 Q3165.35 645.023 3167.87 642.063 Q3170.41 639.071 3170.41 633.946 Q3170.41 628.79 3167.87 625.83 Q3165.35 622.87 3161.02 622.87 M3173.79 602.722 L3173.79 608.579 Q3171.37 607.433 3168.88 606.828 Q3166.43 606.224 3164.01 606.224 Q3157.65 606.224 3154.27 610.52 Q3150.93 614.817 3150.45 623.506 Q3152.33 620.737 3155.17 619.273 Q3158 617.777 3161.4 617.777 Q3168.57 617.777 3172.7 622.138 Q3176.87 626.467 3176.87 633.946 Q3176.87 641.267 3172.54 645.691 Q3168.22 650.115 3161.02 650.115 Q3152.78 650.115 3148.42 643.813 Q3144.06 637.479 3144.06 625.48 Q3144.06 614.213 3149.4 607.529 Q3154.75 600.813 3163.76 600.813 Q3166.18 600.813 3168.63 601.29 Q3171.11 601.768 3173.79 602.722 Z" fill="#000000" fill-rule="evenodd" fill-opacity="1" /><polyline clip-path="url(#clip9200)" style="stroke:#ed5d92; stroke-width:16; stroke-opacity:1; fill:none" points="
  2745.92,685.912 2937.92,685.912 
  "/>
<path clip-path="url(#clip9200)" d="M 0 0 M2969.92 662.152 L2976.35 662.152 L2976.35 704.261 L2999.49 704.261 L2999.49 709.672 L2969.92 709.672 L2969.92 662.152 Z" fill="#000000" fill-rule="evenodd" fill-opacity="1" /><path clip-path="url(#clip9200)" d="M 0 0 M3018.3 678.13 Q3013.59 678.13 3010.85 681.822 Q3008.12 685.482 3008.12 691.88 Q3008.12 698.278 3010.82 701.97 Q3013.56 705.63 3018.3 705.63 Q3022.98 705.63 3025.72 701.938 Q3028.46 698.246 3028.46 691.88 Q3028.46 685.546 3025.72 681.854 Q3022.98 678.13 3018.3 678.13 M3018.3 673.165 Q3025.94 673.165 3030.3 678.13 Q3034.66 683.095 3034.66 691.88 Q3034.66 700.633 3030.3 705.63 Q3025.94 710.595 3018.3 710.595 Q3010.63 710.595 3006.27 705.63 Q3001.94 700.633 3001.94 691.88 Q3001.94 683.095 3006.27 678.13 Q3010.63 673.165 3018.3 673.165 Z" fill="#000000" fill-rule="evenodd" fill-opacity="1" /><path clip-path="url(#clip9200)" d="M 0 0 M3057.01 691.753 Q3049.91 691.753 3047.17 693.376 Q3044.43 694.999 3044.43 698.914 Q3044.43 702.033 3046.47 703.879 Q3048.54 705.694 3052.07 705.694 Q3056.94 705.694 3059.87 702.256 Q3062.83 698.787 3062.83 693.058 L3062.83 691.753 L3057.01 691.753 M3068.69 689.334 L3068.69 709.672 L3062.83 709.672 L3062.83 704.261 Q3060.83 707.508 3057.83 709.067 Q3054.84 710.595 3050.51 710.595 Q3045.04 710.595 3041.79 707.54 Q3038.58 704.452 3038.58 699.296 Q3038.58 693.28 3042.59 690.225 Q3046.63 687.169 3054.62 687.169 L3062.83 687.169 L3062.83 686.596 Q3062.83 682.554 3060.16 680.358 Q3057.52 678.13 3052.71 678.13 Q3049.65 678.13 3046.76 678.862 Q3043.86 679.594 3041.19 681.058 L3041.19 675.647 Q3044.4 674.406 3047.43 673.801 Q3050.45 673.165 3053.31 673.165 Q3061.05 673.165 3064.87 677.175 Q3068.69 681.186 3068.69 689.334 Z" fill="#000000" fill-rule="evenodd" fill-opacity="1" /><path clip-path="url(#clip9200)" d="M 0 0 M3098.29 679.435 L3098.29 660.147 L3104.14 660.147 L3104.14 709.672 L3098.29 709.672 L3098.29 704.325 Q3096.44 707.508 3093.61 709.067 Q3090.81 710.595 3086.86 710.595 Q3080.4 710.595 3076.33 705.439 Q3072.28 700.283 3072.28 691.88 Q3072.28 683.477 3076.33 678.321 Q3080.4 673.165 3086.86 673.165 Q3090.81 673.165 3093.61 674.724 Q3096.44 676.252 3098.29 679.435 M3078.33 691.88 Q3078.33 698.341 3080.97 702.033 Q3083.65 705.694 3088.29 705.694 Q3092.94 705.694 3095.61 702.033 Q3098.29 698.341 3098.29 691.88 Q3098.29 685.419 3095.61 681.759 Q3092.94 678.066 3088.29 678.066 Q3083.65 678.066 3080.97 681.759 Q3078.33 685.419 3078.33 691.88 Z" fill="#000000" fill-rule="evenodd" fill-opacity="1" /></svg>
