<?xml version="1.0" encoding="utf-8"?>
<svg xmlns="http://www.w3.org/2000/svg" xmlns:xlink="http://www.w3.org/1999/xlink" width="800" height="600" viewBox="0 0 3200 2400">
<defs>
  <clipPath id="clip0700">
    <rect x="0" y="0" width="3200" height="2400"/>
  </clipPath>
</defs>
<path clip-path="url(#clip0700)" d="
M0 2400 L3200 2400 L3200 0 L0 0  Z
  " fill="#ffffff" fill-rule="evenodd" fill-opacity="1"/>
<defs>
  <clipPath id="clip0701">
    <rect x="640" y="0" width="2241" height="2241"/>
  </clipPath>
</defs>
<path clip-path="url(#clip0700)" d="
M189.385 2204.92 L2617.92 2204.92 L2617.92 131.032 L189.385 131.032  Z
  " fill="#ffffff" fill-rule="evenodd" fill-opacity="1"/>
<defs>
  <clipPath id="clip0702">
    <rect x="189" y="131" width="2430" height="2075"/>
  </clipPath>
</defs>
<polyline clip-path="url(#clip0702)" style="stroke:#000000; stroke-width:2; stroke-opacity:0.1; fill:none" points="
  258.117,2204.92 258.117,131.032 
  "/>
<polyline clip-path="url(#clip0702)" style="stroke:#000000; stroke-width:2; stroke-opacity:0.1; fill:none" points="
  716.332,2204.92 716.332,131.032 
  "/>
<polyline clip-path="url(#clip0702)" style="stroke:#000000; stroke-width:2; stroke-opacity:0.1; fill:none" points="
  1174.55,2204.92 1174.55,131.032 
  "/>
<polyline clip-path="url(#clip0702)" style="stroke:#000000; stroke-width:2; stroke-opacity:0.1; fill:none" points="
  1632.76,2204.92 1632.76,131.032 
  "/>
<polyline clip-path="url(#clip0702)" style="stroke:#000000; stroke-width:2; stroke-opacity:0.1; fill:none" points="
  2090.98,2204.92 2090.98,131.032 
  "/>
<polyline clip-path="url(#clip0702)" style="stroke:#000000; stroke-width:2; stroke-opacity:0.1; fill:none" points="
  2549.19,2204.92 2549.19,131.032 
  "/>
<polyline clip-path="url(#clip0702)" style="stroke:#000000; stroke-width:2; stroke-opacity:0.1; fill:none" points="
  189.385,1855.34 2617.92,1855.34 
  "/>
<polyline clip-path="url(#clip0702)" style="stroke:#000000; stroke-width:2; stroke-opacity:0.1; fill:none" points="
  189.385,1425.39 2617.92,1425.39 
  "/>
<polyline clip-path="url(#clip0702)" style="stroke:#000000; stroke-width:2; stroke-opacity:0.1; fill:none" points="
  189.385,995.442 2617.92,995.442 
  "/>
<polyline clip-path="url(#clip0702)" style="stroke:#000000; stroke-width:2; stroke-opacity:0.1; fill:none" points="
  189.385,565.491 2617.92,565.491 
  "/>
<polyline clip-path="url(#clip0702)" style="stroke:#000000; stroke-width:2; stroke-opacity:0.1; fill:none" points="
  189.385,135.54 2617.92,135.54 
  "/>
<polyline clip-path="url(#clip0700)" style="stroke:#000000; stroke-width:4; stroke-opacity:1; fill:none" points="
  189.385,2204.92 2617.92,2204.92 
  "/>
<polyline clip-path="url(#clip0700)" style="stroke:#000000; stroke-width:4; stroke-opacity:1; fill:none" points="
  189.385,2204.92 189.385,131.032 
  "/>
<polyline clip-path="url(#clip0700)" style="stroke:#000000; stroke-width:4; stroke-opacity:1; fill:none" points="
  258.117,2204.92 258.117,2180.03 
  "/>
<polyline clip-path="url(#clip0700)" style="stroke:#000000; stroke-width:4; stroke-opacity:1; fill:none" points="
  716.332,2204.92 716.332,2180.03 
  "/>
<polyline clip-path="url(#clip0700)" style="stroke:#000000; stroke-width:4; stroke-opacity:1; fill:none" points="
  1174.55,2204.92 1174.55,2180.03 
  "/>
<polyline clip-path="url(#clip0700)" style="stroke:#000000; stroke-width:4; stroke-opacity:1; fill:none" points="
  1632.76,2204.92 1632.76,2180.03 
  "/>
<polyline clip-path="url(#clip0700)" style="stroke:#000000; stroke-width:4; stroke-opacity:1; fill:none" points="
  2090.98,2204.92 2090.98,2180.03 
  "/>
<polyline clip-path="url(#clip0700)" style="stroke:#000000; stroke-width:4; stroke-opacity:1; fill:none" points="
  2549.19,2204.92 2549.19,2180.03 
  "/>
<polyline clip-path="url(#clip0700)" style="stroke:#000000; stroke-width:4; stroke-opacity:1; fill:none" points="
  189.385,1855.34 218.528,1855.34 
  "/>
<polyline clip-path="url(#clip0700)" style="stroke:#000000; stroke-width:4; stroke-opacity:1; fill:none" points="
  189.385,1425.39 218.528,1425.39 
  "/>
<polyline clip-path="url(#clip0700)" style="stroke:#000000; stroke-width:4; stroke-opacity:1; fill:none" points="
  189.385,995.442 218.528,995.442 
  "/>
<polyline clip-path="url(#clip0700)" style="stroke:#000000; stroke-width:4; stroke-opacity:1; fill:none" points="
  189.385,565.491 218.528,565.491 
  "/>
<polyline clip-path="url(#clip0700)" style="stroke:#000000; stroke-width:4; stroke-opacity:1; fill:none" points="
  189.385,135.54 218.528,135.54 
  "/>
<path clip-path="url(#clip0700)" d="M 0 0 M258.117 2230.91 Q254.506 2230.91 252.678 2234.48 Q250.872 2238.02 250.872 2245.15 Q250.872 2252.25 252.678 2255.82 Q254.506 2259.36 258.117 2259.36 Q261.752 2259.36 263.557 2255.82 Q265.386 2252.25 265.386 2245.15 Q265.386 2238.02 263.557 2234.48 Q261.752 2230.91 258.117 2230.91 M258.117 2227.21 Q263.928 2227.21 266.983 2231.81 Q270.062 2236.4 270.062 2245.15 Q270.062 2253.87 266.983 2258.48 Q263.928 2263.06 258.117 2263.06 Q252.307 2263.06 249.229 2258.48 Q246.173 2253.87 246.173 2245.15 Q246.173 2236.4 249.229 2231.81 Q252.307 2227.21 258.117 2227.21 Z" fill="#000000" fill-rule="evenodd" fill-opacity="1" /><path clip-path="url(#clip0700)" d="M 0 0 M706.714 2258.46 L714.353 2258.46 L714.353 2232.09 L706.043 2233.76 L706.043 2229.5 L714.307 2227.83 L718.983 2227.83 L718.983 2258.46 L726.621 2258.46 L726.621 2262.39 L706.714 2262.39 L706.714 2258.46 Z" fill="#000000" fill-rule="evenodd" fill-opacity="1" /><path clip-path="url(#clip0700)" d="M 0 0 M1169.2 2258.46 L1185.52 2258.46 L1185.52 2262.39 L1163.57 2262.39 L1163.57 2258.46 Q1166.24 2255.7 1170.82 2251.07 Q1175.43 2246.42 1176.61 2245.08 Q1178.85 2242.55 1179.73 2240.82 Q1180.63 2239.06 1180.63 2237.37 Q1180.63 2234.61 1178.69 2232.88 Q1176.77 2231.14 1173.67 2231.14 Q1171.47 2231.14 1169.01 2231.91 Q1166.58 2232.67 1163.81 2234.22 L1163.81 2229.5 Q1166.63 2228.36 1169.08 2227.79 Q1171.54 2227.21 1173.57 2227.21 Q1178.95 2227.21 1182.14 2229.89 Q1185.33 2232.58 1185.33 2237.07 Q1185.33 2239.2 1184.52 2241.12 Q1183.74 2243.02 1181.63 2245.61 Q1181.05 2246.28 1177.95 2249.5 Q1174.85 2252.69 1169.2 2258.46 Z" fill="#000000" fill-rule="evenodd" fill-opacity="1" /><path clip-path="url(#clip0700)" d="M 0 0 M1637.01 2243.76 Q1640.37 2244.48 1642.24 2246.74 Q1644.14 2249.01 1644.14 2252.35 Q1644.14 2257.46 1640.62 2260.26 Q1637.1 2263.06 1630.62 2263.06 Q1628.44 2263.06 1626.13 2262.62 Q1623.84 2262.21 1621.38 2261.35 L1621.38 2256.84 Q1623.33 2257.97 1625.64 2258.55 Q1627.96 2259.13 1630.48 2259.13 Q1634.88 2259.13 1637.17 2257.39 Q1639.49 2255.66 1639.49 2252.35 Q1639.49 2249.29 1637.33 2247.58 Q1635.2 2245.84 1631.38 2245.84 L1627.36 2245.84 L1627.36 2242 L1631.57 2242 Q1635.02 2242 1636.85 2240.63 Q1638.68 2239.24 1638.68 2236.65 Q1638.68 2233.99 1636.78 2232.58 Q1634.9 2231.14 1631.38 2231.14 Q1629.46 2231.14 1627.26 2231.56 Q1625.06 2231.98 1622.43 2232.85 L1622.43 2228.69 Q1625.09 2227.95 1627.4 2227.58 Q1629.74 2227.21 1631.8 2227.21 Q1637.13 2227.21 1640.23 2229.64 Q1643.33 2232.04 1643.33 2236.17 Q1643.33 2239.04 1641.69 2241.03 Q1640.04 2242.99 1637.01 2243.76 Z" fill="#000000" fill-rule="evenodd" fill-opacity="1" /><path clip-path="url(#clip0700)" d="M 0 0 M2093.99 2231.91 L2082.18 2250.35 L2093.99 2250.35 L2093.99 2231.91 M2092.76 2227.83 L2098.64 2227.83 L2098.64 2250.35 L2103.57 2250.35 L2103.57 2254.24 L2098.64 2254.24 L2098.64 2262.39 L2093.99 2262.39 L2093.99 2254.24 L2078.38 2254.24 L2078.38 2249.73 L2092.76 2227.83 Z" fill="#000000" fill-rule="evenodd" fill-opacity="1" /><path clip-path="url(#clip0700)" d="M 0 0 M2539.47 2227.83 L2557.83 2227.83 L2557.83 2231.77 L2543.75 2231.77 L2543.75 2240.24 Q2544.77 2239.89 2545.79 2239.73 Q2546.81 2239.54 2547.83 2239.54 Q2553.61 2239.54 2556.99 2242.72 Q2560.37 2245.89 2560.37 2251.3 Q2560.37 2256.88 2556.9 2259.98 Q2553.43 2263.06 2547.11 2263.06 Q2544.93 2263.06 2542.66 2262.69 Q2540.42 2262.32 2538.01 2261.58 L2538.01 2256.88 Q2540.09 2258.02 2542.32 2258.57 Q2544.54 2259.13 2547.02 2259.13 Q2551.02 2259.13 2553.36 2257.02 Q2555.7 2254.92 2555.7 2251.3 Q2555.7 2247.69 2553.36 2245.59 Q2551.02 2243.48 2547.02 2243.48 Q2545.14 2243.48 2543.27 2243.9 Q2541.41 2244.31 2539.47 2245.19 L2539.47 2227.83 Z" fill="#000000" fill-rule="evenodd" fill-opacity="1" /><path clip-path="url(#clip0700)" d="M 0 0 M145.441 1841.14 Q141.83 1841.14 140.001 1844.71 Q138.195 1848.25 138.195 1855.38 Q138.195 1862.49 140.001 1866.05 Q141.83 1869.59 145.441 1869.59 Q149.075 1869.59 150.881 1866.05 Q152.709 1862.49 152.709 1855.38 Q152.709 1848.25 150.881 1844.71 Q149.075 1841.14 145.441 1841.14 M145.441 1837.44 Q151.251 1837.44 154.307 1842.05 Q157.385 1846.63 157.385 1855.38 Q157.385 1864.11 154.307 1868.71 Q151.251 1873.3 145.441 1873.3 Q139.631 1873.3 136.552 1868.71 Q133.496 1864.11 133.496 1855.38 Q133.496 1846.63 136.552 1842.05 Q139.631 1837.44 145.441 1837.44 Z" fill="#000000" fill-rule="evenodd" fill-opacity="1" /><path clip-path="url(#clip0700)" d="M 0 0 M137.478 1438.74 L145.117 1438.74 L145.117 1412.37 L136.807 1414.04 L136.807 1409.78 L145.07 1408.11 L149.746 1408.11 L149.746 1438.74 L157.385 1438.74 L157.385 1442.67 L137.478 1442.67 L137.478 1438.74 Z" fill="#000000" fill-rule="evenodd" fill-opacity="1" /><path clip-path="url(#clip0700)" d="M 0 0 M141.066 1008.79 L157.385 1008.79 L157.385 1012.72 L135.441 1012.72 L135.441 1008.79 Q138.103 1006.03 142.686 1001.4 Q147.293 996.75 148.473 995.407 Q150.719 992.884 151.598 991.148 Q152.501 989.389 152.501 987.699 Q152.501 984.944 150.557 983.208 Q148.635 981.472 145.533 981.472 Q143.334 981.472 140.881 982.236 Q138.45 983 135.672 984.551 L135.672 979.828 Q138.496 978.694 140.95 978.115 Q143.404 977.537 145.441 977.537 Q150.811 977.537 154.006 980.222 Q157.2 982.907 157.2 987.398 Q157.2 989.527 156.39 991.449 Q155.603 993.347 153.496 995.939 Q152.918 996.611 149.816 999.828 Q146.714 1003.02 141.066 1008.79 Z" fill="#000000" fill-rule="evenodd" fill-opacity="1" /><path clip-path="url(#clip0700)" d="M 0 0 M150.256 564.137 Q153.612 564.854 155.487 567.123 Q157.385 569.391 157.385 572.724 Q157.385 577.84 153.867 580.641 Q150.348 583.442 143.867 583.442 Q141.691 583.442 139.376 583.002 Q137.084 582.586 134.631 581.729 L134.631 577.215 Q136.575 578.349 138.89 578.928 Q141.205 579.507 143.728 579.507 Q148.126 579.507 150.418 577.771 Q152.732 576.035 152.732 572.724 Q152.732 569.669 150.58 567.956 Q148.45 566.22 144.631 566.22 L140.603 566.22 L140.603 562.377 L144.816 562.377 Q148.265 562.377 150.094 561.012 Q151.922 559.623 151.922 557.03 Q151.922 554.368 150.024 552.956 Q148.149 551.521 144.631 551.521 Q142.709 551.521 140.51 551.938 Q138.311 552.354 135.672 553.234 L135.672 549.067 Q138.334 548.326 140.649 547.956 Q142.987 547.586 145.047 547.586 Q150.371 547.586 153.473 550.016 Q156.575 552.424 156.575 556.544 Q156.575 559.414 154.932 561.405 Q153.288 563.373 150.256 564.137 Z" fill="#000000" fill-rule="evenodd" fill-opacity="1" /><path clip-path="url(#clip0700)" d="M 0 0 M147.802 122.334 L135.996 140.783 L147.802 140.783 L147.802 122.334 M146.575 118.26 L152.455 118.26 L152.455 140.783 L157.385 140.783 L157.385 144.672 L152.455 144.672 L152.455 152.82 L147.802 152.82 L147.802 144.672 L132.2 144.672 L132.2 140.158 L146.575 118.26 Z" fill="#000000" fill-rule="evenodd" fill-opacity="1" /><path clip-path="url(#clip0700)" d="M 0 0 M578.546 12.096 L586.729 12.096 L586.729 36.8875 L616.462 36.8875 L616.462 12.096 L624.645 12.096 L624.645 72.576 L616.462 72.576 L616.462 43.7741 L586.729 43.7741 L586.729 72.576 L578.546 72.576 L578.546 12.096 Z" fill="#000000" fill-rule="evenodd" fill-opacity="1" /><path clip-path="url(#clip0700)" d="M 0 0 M650.044 32.4315 Q644.049 32.4315 640.565 37.1306 Q637.081 41.7891 637.081 49.9314 Q637.081 58.0738 640.525 62.7728 Q644.008 67.4314 650.044 67.4314 Q655.999 67.4314 659.483 62.7323 Q662.967 58.0333 662.967 49.9314 Q662.967 41.8701 659.483 37.1711 Q655.999 32.4315 650.044 32.4315 M650.044 26.1121 Q659.766 26.1121 665.316 32.4315 Q670.866 38.7509 670.866 49.9314 Q670.866 61.0714 665.316 67.4314 Q659.766 73.7508 650.044 73.7508 Q640.282 73.7508 634.732 67.4314 Q629.223 61.0714 629.223 49.9314 Q629.223 38.7509 634.732 32.4315 Q640.282 26.1121 650.044 26.1121 Z" fill="#000000" fill-rule="evenodd" fill-opacity="1" /><path clip-path="url(#clip0700)" d="M 0 0 M673.337 27.2059 L681.236 27.2059 L695.414 65.2844 L709.593 27.2059 L717.492 27.2059 L700.478 72.576 L690.351 72.576 L673.337 27.2059 Z" fill="#000000" fill-rule="evenodd" fill-opacity="1" /><path clip-path="url(#clip0700)" d="M 0 0 M764.118 48.0275 L764.118 51.6733 L729.847 51.6733 Q730.333 59.3701 734.465 63.421 Q738.638 67.4314 746.051 67.4314 Q750.345 67.4314 754.355 66.3781 Q758.406 65.3249 762.376 63.2184 L762.376 70.267 Q758.366 71.9684 754.153 72.8596 Q749.94 73.7508 745.605 73.7508 Q734.749 73.7508 728.389 67.4314 Q722.069 61.1119 722.069 50.3365 Q722.069 39.1965 728.065 32.6746 Q734.101 26.1121 744.309 26.1121 Q753.464 26.1121 758.771 32.0264 Q764.118 37.9003 764.118 48.0275 M756.664 45.84 Q756.583 39.7232 753.221 36.0774 Q749.899 32.4315 744.39 32.4315 Q738.151 32.4315 734.384 35.9558 Q730.657 39.4801 730.09 45.8805 L756.664 45.84 Z" fill="#000000" fill-rule="evenodd" fill-opacity="1" /><path clip-path="url(#clip0700)" d="M 0 0 M798.226 34.1734 Q796.971 33.4443 795.472 33.1202 Q794.013 32.7556 792.231 32.7556 Q785.912 32.7556 782.509 36.8875 Q779.147 40.9789 779.147 48.6757 L779.147 72.576 L771.652 72.576 L771.652 27.2059 L779.147 27.2059 L779.147 34.2544 Q781.496 30.1225 785.264 28.1376 Q789.031 26.1121 794.419 26.1121 Q795.188 26.1121 796.12 26.2337 Q797.052 26.3147 798.186 26.5172 L798.226 34.1734 Z" fill="#000000" fill-rule="evenodd" fill-opacity="1" /><path clip-path="url(#clip0700)" d="M 0 0 M806.045 27.2059 L813.498 27.2059 L813.498 72.576 L806.045 72.576 L806.045 27.2059 M806.045 9.54393 L813.498 9.54393 L813.498 18.9825 L806.045 18.9825 L806.045 9.54393 Z" fill="#000000" fill-rule="evenodd" fill-opacity="1" /><path clip-path="url(#clip0700)" d="M 0 0 M859.03 45.1919 L859.03 72.576 L851.577 72.576 L851.577 45.4349 Q851.577 38.994 849.065 35.7938 Q846.554 32.5936 841.531 32.5936 Q835.495 32.5936 832.011 36.4419 Q828.527 40.2903 828.527 46.9338 L828.527 72.576 L821.033 72.576 L821.033 27.2059 L828.527 27.2059 L828.527 34.2544 Q831.201 30.163 834.806 28.1376 Q838.452 26.1121 843.191 26.1121 Q851.01 26.1121 855.02 30.9732 Q859.03 35.7938 859.03 45.1919 Z" fill="#000000" fill-rule="evenodd" fill-opacity="1" /><path clip-path="url(#clip0700)" d="M 0 0 M896.704 49.3643 Q896.704 41.2625 893.342 36.8065 Q890.02 32.3505 883.984 32.3505 Q877.989 32.3505 874.626 36.8065 Q871.305 41.2625 871.305 49.3643 Q871.305 57.4256 874.626 61.8816 Q877.989 66.3376 883.984 66.3376 Q890.02 66.3376 893.342 61.8816 Q896.704 57.4256 896.704 49.3643 M904.158 66.9452 Q904.158 78.5308 899.013 84.1616 Q893.868 89.8329 883.255 89.8329 Q879.326 89.8329 875.842 89.2252 Q872.358 88.6581 869.077 87.4428 L869.077 80.1917 Q872.358 81.9741 875.558 82.8248 Q878.758 83.6755 882.08 83.6755 Q889.412 83.6755 893.058 79.8271 Q896.704 76.0193 896.704 68.282 L896.704 64.5957 Q894.395 68.6061 890.79 70.5911 Q887.184 72.576 882.161 72.576 Q873.816 72.576 868.712 66.2161 Q863.608 59.8562 863.608 49.3643 Q863.608 38.832 868.712 32.472 Q873.816 26.1121 882.161 26.1121 Q887.184 26.1121 890.79 28.0971 Q894.395 30.082 896.704 34.0924 L896.704 27.2059 L904.158 27.2059 L904.158 66.9452 Z" fill="#000000" fill-rule="evenodd" fill-opacity="1" /><path clip-path="url(#clip0700)" d="M 0 0 M934.013 27.2059 L941.466 27.2059 L950.783 62.6108 L960.06 27.2059 L968.85 27.2059 L978.168 62.6108 L987.444 27.2059 L994.898 27.2059 L983.029 72.576 L974.238 72.576 L964.476 35.3887 L954.672 72.576 L945.882 72.576 L934.013 27.2059 Z" fill="#000000" fill-rule="evenodd" fill-opacity="1" /><path clip-path="url(#clip0700)" d="M 0 0 M1002.72 27.2059 L1010.17 27.2059 L1010.17 72.576 L1002.72 72.576 L1002.72 27.2059 M1002.72 9.54393 L1010.17 9.54393 L1010.17 18.9825 L1002.72 18.9825 L1002.72 9.54393 Z" fill="#000000" fill-rule="evenodd" fill-opacity="1" /><path clip-path="url(#clip0700)" d="M 0 0 M1025.36 14.324 L1025.36 27.2059 L1040.71 27.2059 L1040.71 32.9987 L1025.36 32.9987 L1025.36 57.6282 Q1025.36 63.1779 1026.86 64.7578 Q1028.4 66.3376 1033.06 66.3376 L1040.71 66.3376 L1040.71 72.576 L1033.06 72.576 Q1024.43 72.576 1021.15 69.3758 Q1017.87 66.1351 1017.87 57.6282 L1017.87 32.9987 L1012.4 32.9987 L1012.4 27.2059 L1017.87 27.2059 L1017.87 14.324 L1025.36 14.324 Z" fill="#000000" fill-rule="evenodd" fill-opacity="1" /><path clip-path="url(#clip0700)" d="M 0 0 M1086.25 45.1919 L1086.25 72.576 L1078.79 72.576 L1078.79 45.4349 Q1078.79 38.994 1076.28 35.7938 Q1073.77 32.5936 1068.75 32.5936 Q1062.71 32.5936 1059.23 36.4419 Q1055.74 40.2903 1055.74 46.9338 L1055.74 72.576 L1048.25 72.576 L1048.25 9.54393 L1055.74 9.54393 L1055.74 34.2544 Q1058.42 30.163 1062.02 28.1376 Q1065.67 26.1121 1070.41 26.1121 Q1078.22 26.1121 1082.24 30.9732 Q1086.25 35.7938 1086.25 45.1919 Z" fill="#000000" fill-rule="evenodd" fill-opacity="1" /><path clip-path="url(#clip0700)" d="M 0 0 M1140 39.075 Q1134.49 39.075 1131.25 42.8424 Q1128.05 46.6097 1128.05 53.1722 Q1128.05 59.6941 1131.25 63.502 Q1134.49 67.2693 1140 67.2693 Q1145.51 67.2693 1148.71 63.502 Q1151.95 59.6941 1151.95 53.1722 Q1151.95 46.6097 1148.71 42.8424 Q1145.51 39.075 1140 39.075 M1156.25 13.4328 L1156.25 20.8865 Q1153.17 19.4281 1150.01 18.6585 Q1146.89 17.8888 1143.81 17.8888 Q1135.71 17.8888 1131.41 23.3575 Q1127.16 28.8262 1126.55 39.8852 Q1128.94 36.3609 1132.55 34.4975 Q1136.15 32.5936 1140.49 32.5936 Q1149.6 32.5936 1154.87 38.1433 Q1160.17 43.6525 1160.17 53.1722 Q1160.17 62.4892 1154.67 68.12 Q1149.16 73.7508 1140 73.7508 Q1129.51 73.7508 1123.96 65.73 Q1118.41 57.6687 1118.41 42.3968 Q1118.41 28.0566 1125.22 19.5497 Q1132.02 11.0023 1143.48 11.0023 Q1146.56 11.0023 1149.68 11.6099 Q1152.84 12.2175 1156.25 13.4328 Z" fill="#000000" fill-rule="evenodd" fill-opacity="1" /><path clip-path="url(#clip0700)" d="M 0 0 M1219.24 17.6457 Q1210.32 17.6457 1205.06 24.2892 Q1199.83 30.9327 1199.83 42.3968 Q1199.83 53.8203 1205.06 60.4638 Q1210.32 67.1073 1219.24 67.1073 Q1228.15 67.1073 1233.33 60.4638 Q1238.56 53.8203 1238.56 42.3968 Q1238.56 30.9327 1233.33 24.2892 Q1228.15 17.6457 1219.24 17.6457 M1230.7 71.4823 L1241.48 83.2704 L1231.59 83.2704 L1222.64 73.5887 Q1221.3 73.6697 1220.57 73.7103 Q1219.89 73.7508 1219.24 73.7508 Q1206.48 73.7508 1198.82 65.2439 Q1191.2 56.6965 1191.2 42.3968 Q1191.2 28.0566 1198.82 19.5497 Q1206.48 11.0023 1219.24 11.0023 Q1231.96 11.0023 1239.57 19.5497 Q1247.19 28.0566 1247.19 42.3968 Q1247.19 52.9291 1242.93 60.4233 Q1238.72 67.9175 1230.7 71.4823 Z" fill="#000000" fill-rule="evenodd" fill-opacity="1" /><path clip-path="url(#clip0700)" d="M 0 0 M1254.24 54.671 L1254.24 27.2059 L1261.69 27.2059 L1261.69 54.3874 Q1261.69 60.8284 1264.2 64.0691 Q1266.71 67.2693 1271.74 67.2693 Q1277.77 67.2693 1281.26 63.421 Q1284.78 59.5726 1284.78 52.9291 L1284.78 27.2059 L1292.23 27.2059 L1292.23 72.576 L1284.78 72.576 L1284.78 65.6084 Q1282.07 69.7404 1278.46 71.7658 Q1274.9 73.7508 1270.16 73.7508 Q1262.34 73.7508 1258.29 68.8897 Q1254.24 64.0286 1254.24 54.671 M1272.99 26.1121 L1272.99 26.1121 Z" fill="#000000" fill-rule="evenodd" fill-opacity="1" /><path clip-path="url(#clip0700)" d="M 0 0 M1320.67 49.7694 Q1311.64 49.7694 1308.15 51.8354 Q1304.67 53.9013 1304.67 58.8839 Q1304.67 62.8538 1307.26 65.2034 Q1309.9 67.5124 1314.39 67.5124 Q1320.59 67.5124 1324.32 63.1374 Q1328.08 58.7219 1328.08 51.4303 L1328.08 49.7694 L1320.67 49.7694 M1335.54 46.6907 L1335.54 72.576 L1328.08 72.576 L1328.08 65.6895 Q1325.53 69.8214 1321.72 71.8063 Q1317.92 73.7508 1312.41 73.7508 Q1305.44 73.7508 1301.31 69.8619 Q1297.22 65.9325 1297.22 59.3701 Q1297.22 51.7138 1302.32 47.825 Q1307.47 43.9361 1317.63 43.9361 L1328.08 43.9361 L1328.08 43.2069 Q1328.08 38.0623 1324.68 35.2672 Q1321.32 32.4315 1315.2 32.4315 Q1311.31 32.4315 1307.63 33.3632 Q1303.94 34.295 1300.54 36.1584 L1300.54 29.2718 Q1304.63 27.692 1308.48 26.9223 Q1312.33 26.1121 1315.97 26.1121 Q1325.82 26.1121 1330.68 31.2163 Q1335.54 36.3204 1335.54 46.6907 Z" fill="#000000" fill-rule="evenodd" fill-opacity="1" /><path clip-path="url(#clip0700)" d="M 0 0 M1373.21 34.0924 L1373.21 9.54393 L1380.67 9.54393 L1380.67 72.576 L1373.21 72.576 L1373.21 65.7705 Q1370.86 69.8214 1367.26 71.8063 Q1363.69 73.7508 1358.67 73.7508 Q1350.45 73.7508 1345.26 67.1883 Q1340.12 60.6258 1340.12 49.9314 Q1340.12 39.2371 1345.26 32.6746 Q1350.45 26.1121 1358.67 26.1121 Q1363.69 26.1121 1367.26 28.0971 Q1370.86 30.0415 1373.21 34.0924 M1347.81 49.9314 Q1347.81 58.1548 1351.17 62.8538 Q1354.58 67.5124 1360.49 67.5124 Q1366.41 67.5124 1369.81 62.8538 Q1373.21 58.1548 1373.21 49.9314 Q1373.21 41.7081 1369.81 37.0496 Q1366.41 32.3505 1360.49 32.3505 Q1354.58 32.3505 1351.17 37.0496 Q1347.81 41.7081 1347.81 49.9314 Z" fill="#000000" fill-rule="evenodd" fill-opacity="1" /><path clip-path="url(#clip0700)" d="M 0 0 M1414.77 34.1734 Q1413.52 33.4443 1412.02 33.1202 Q1410.56 32.7556 1408.78 32.7556 Q1402.46 32.7556 1399.06 36.8875 Q1395.69 40.9789 1395.69 48.6757 L1395.69 72.576 L1388.2 72.576 L1388.2 27.2059 L1395.69 27.2059 L1395.69 34.2544 Q1398.04 30.1225 1401.81 28.1376 Q1405.58 26.1121 1410.97 26.1121 Q1411.74 26.1121 1412.67 26.2337 Q1413.6 26.3147 1414.73 26.5172 L1414.77 34.1734 Z" fill="#000000" fill-rule="evenodd" fill-opacity="1" /><path clip-path="url(#clip0700)" d="M 0 0 M1438.35 32.4315 Q1432.35 32.4315 1428.87 37.1306 Q1425.39 41.7891 1425.39 49.9314 Q1425.39 58.0738 1428.83 62.7728 Q1432.31 67.4314 1438.35 67.4314 Q1444.31 67.4314 1447.79 62.7323 Q1451.27 58.0333 1451.27 49.9314 Q1451.27 41.8701 1447.79 37.1711 Q1444.31 32.4315 1438.35 32.4315 M1438.35 26.1121 Q1448.07 26.1121 1453.62 32.4315 Q1459.17 38.7509 1459.17 49.9314 Q1459.17 61.0714 1453.62 67.4314 Q1448.07 73.7508 1438.35 73.7508 Q1428.59 73.7508 1423.04 67.4314 Q1417.53 61.0714 1417.53 49.9314 Q1417.53 38.7509 1423.04 32.4315 Q1428.59 26.1121 1438.35 26.1121 Z" fill="#000000" fill-rule="evenodd" fill-opacity="1" /><path clip-path="url(#clip0700)" d="M 0 0 M1474.36 14.324 L1474.36 27.2059 L1489.72 27.2059 L1489.72 32.9987 L1474.36 32.9987 L1474.36 57.6282 Q1474.36 63.1779 1475.86 64.7578 Q1477.4 66.3376 1482.06 66.3376 L1489.72 66.3376 L1489.72 72.576 L1482.06 72.576 Q1473.43 72.576 1470.15 69.3758 Q1466.87 66.1351 1466.87 57.6282 L1466.87 32.9987 L1461.4 32.9987 L1461.4 27.2059 L1466.87 27.2059 L1466.87 14.324 L1474.36 14.324 Z" fill="#000000" fill-rule="evenodd" fill-opacity="1" /><path clip-path="url(#clip0700)" d="M 0 0 M1515.11 32.4315 Q1509.12 32.4315 1505.64 37.1306 Q1502.15 41.7891 1502.15 49.9314 Q1502.15 58.0738 1505.6 62.7728 Q1509.08 67.4314 1515.11 67.4314 Q1521.07 67.4314 1524.55 62.7323 Q1528.04 58.0333 1528.04 49.9314 Q1528.04 41.8701 1524.55 37.1711 Q1521.07 32.4315 1515.11 32.4315 M1515.11 26.1121 Q1524.84 26.1121 1530.39 32.4315 Q1535.94 38.7509 1535.94 49.9314 Q1535.94 61.0714 1530.39 67.4314 Q1524.84 73.7508 1515.11 73.7508 Q1505.35 73.7508 1499.8 67.4314 Q1494.29 61.0714 1494.29 49.9314 Q1494.29 38.7509 1499.8 32.4315 Q1505.35 26.1121 1515.11 26.1121 Z" fill="#000000" fill-rule="evenodd" fill-opacity="1" /><path clip-path="url(#clip0700)" d="M 0 0 M1570.05 34.1734 Q1568.79 33.4443 1567.29 33.1202 Q1565.83 32.7556 1564.05 32.7556 Q1557.73 32.7556 1554.33 36.8875 Q1550.97 40.9789 1550.97 48.6757 L1550.97 72.576 L1543.47 72.576 L1543.47 27.2059 L1550.97 27.2059 L1550.97 34.2544 Q1553.31 30.1225 1557.08 28.1376 Q1560.85 26.1121 1566.24 26.1121 Q1567.01 26.1121 1567.94 26.2337 Q1568.87 26.3147 1570 26.5172 L1570.05 34.1734 Z" fill="#000000" fill-rule="evenodd" fill-opacity="1" /><path clip-path="url(#clip0700)" d="M 0 0 M1606.79 28.5427 L1606.79 35.5912 Q1603.63 33.9709 1600.22 33.1607 Q1596.82 32.3505 1593.18 32.3505 Q1587.63 32.3505 1584.83 34.0519 Q1582.08 35.7533 1582.08 39.156 Q1582.08 41.7486 1584.06 43.2475 Q1586.05 44.7058 1592.04 46.0426 L1594.59 46.6097 Q1602.53 48.3111 1605.86 51.4303 Q1609.22 54.509 1609.22 60.0587 Q1609.22 66.3781 1604.19 70.0644 Q1599.21 73.7508 1590.46 73.7508 Q1586.82 73.7508 1582.85 73.0216 Q1578.92 72.3329 1574.54 70.9151 L1574.54 63.2184 Q1578.67 65.3654 1582.68 66.4591 Q1586.69 67.5124 1590.62 67.5124 Q1595.89 67.5124 1598.73 65.73 Q1601.56 63.9071 1601.56 60.6258 Q1601.56 57.5877 1599.5 55.9673 Q1597.47 54.3469 1590.54 52.8481 L1587.95 52.2405 Q1581.02 50.7821 1577.94 47.7845 Q1574.87 44.7463 1574.87 39.4801 Q1574.87 33.0797 1579.4 29.5959 Q1583.94 26.1121 1592.28 26.1121 Q1596.42 26.1121 1600.06 26.7198 Q1603.71 27.3274 1606.79 28.5427 Z" fill="#000000" fill-rule="evenodd" fill-opacity="1" /><path clip-path="url(#clip0700)" d="M 0 0 M1639.64 46.5287 L1661.47 46.5287 L1661.47 53.1722 L1639.64 53.1722 L1639.64 46.5287 Z" fill="#000000" fill-rule="evenodd" fill-opacity="1" /><path clip-path="url(#clip0700)" d="M 0 0 M1716.2 20.1573 L1705.1 50.2555 L1727.34 50.2555 L1716.2 20.1573 M1711.58 12.096 L1720.86 12.096 L1743.91 72.576 L1735.4 72.576 L1729.89 57.061 L1702.63 57.061 L1697.12 72.576 L1688.49 72.576 L1711.58 12.096 Z" fill="#000000" fill-rule="evenodd" fill-opacity="1" /><path clip-path="url(#clip0700)" d="M 0 0 M1781.58 49.3643 Q1781.58 41.2625 1778.22 36.8065 Q1774.9 32.3505 1768.86 32.3505 Q1762.87 32.3505 1759.51 36.8065 Q1756.18 41.2625 1756.18 49.3643 Q1756.18 57.4256 1759.51 61.8816 Q1762.87 66.3376 1768.86 66.3376 Q1774.9 66.3376 1778.22 61.8816 Q1781.58 57.4256 1781.58 49.3643 M1789.04 66.9452 Q1789.04 78.5308 1783.89 84.1616 Q1778.75 89.8329 1768.13 89.8329 Q1764.21 89.8329 1760.72 89.2252 Q1757.24 88.6581 1753.96 87.4428 L1753.96 80.1917 Q1757.24 81.9741 1760.44 82.8248 Q1763.64 83.6755 1766.96 83.6755 Q1774.29 83.6755 1777.94 79.8271 Q1781.58 76.0193 1781.58 68.282 L1781.58 64.5957 Q1779.27 68.6061 1775.67 70.5911 Q1772.06 72.576 1767.04 72.576 Q1758.7 72.576 1753.59 66.2161 Q1748.49 59.8562 1748.49 49.3643 Q1748.49 38.832 1753.59 32.472 Q1758.7 26.1121 1767.04 26.1121 Q1772.06 26.1121 1775.67 28.0971 Q1779.27 30.082 1781.58 34.0924 L1781.58 27.2059 L1789.04 27.2059 L1789.04 66.9452 Z" fill="#000000" fill-rule="evenodd" fill-opacity="1" /><path clip-path="url(#clip0700)" d="M 0 0 M1835.66 48.0275 L1835.66 51.6733 L1801.39 51.6733 Q1801.88 59.3701 1806.01 63.421 Q1810.18 67.4314 1817.6 67.4314 Q1821.89 67.4314 1825.9 66.3781 Q1829.95 65.3249 1833.92 63.2184 L1833.92 70.267 Q1829.91 71.9684 1825.7 72.8596 Q1821.48 73.7508 1817.15 73.7508 Q1806.29 73.7508 1799.93 67.4314 Q1793.61 61.1119 1793.61 50.3365 Q1793.61 39.1965 1799.61 32.6746 Q1805.65 26.1121 1815.85 26.1121 Q1825.01 26.1121 1830.32 32.0264 Q1835.66 37.9003 1835.66 48.0275 M1828.21 45.84 Q1828.13 39.7232 1824.77 36.0774 Q1821.44 32.4315 1815.94 32.4315 Q1809.7 32.4315 1805.93 35.9558 Q1802.2 39.4801 1801.64 45.8805 L1828.21 45.84 Z" fill="#000000" fill-rule="evenodd" fill-opacity="1" /><path clip-path="url(#clip0700)" d="M 0 0 M1881.2 45.1919 L1881.2 72.576 L1873.74 72.576 L1873.74 45.4349 Q1873.74 38.994 1871.23 35.7938 Q1868.72 32.5936 1863.7 32.5936 Q1857.66 32.5936 1854.18 36.4419 Q1850.69 40.2903 1850.69 46.9338 L1850.69 72.576 L1843.2 72.576 L1843.2 27.2059 L1850.69 27.2059 L1850.69 34.2544 Q1853.37 30.163 1856.97 28.1376 Q1860.62 26.1121 1865.36 26.1121 Q1873.17 26.1121 1877.18 30.9732 Q1881.2 35.7938 1881.2 45.1919 Z" fill="#000000" fill-rule="evenodd" fill-opacity="1" /><path clip-path="url(#clip0700)" d="M 0 0 M1896.39 14.324 L1896.39 27.2059 L1911.74 27.2059 L1911.74 32.9987 L1896.39 32.9987 L1896.39 57.6282 Q1896.39 63.1779 1897.88 64.7578 Q1899.42 66.3376 1904.08 66.3376 L1911.74 66.3376 L1911.74 72.576 L1904.08 72.576 Q1895.45 72.576 1892.17 69.3758 Q1888.89 66.1351 1888.89 57.6282 L1888.89 32.9987 L1883.42 32.9987 L1883.42 27.2059 L1888.89 27.2059 L1888.89 14.324 L1896.39 14.324 Z" fill="#000000" fill-rule="evenodd" fill-opacity="1" /><path clip-path="url(#clip0700)" d="M 0 0 M1961.85 72.576 L1938.76 12.096 L1947.31 12.096 L1966.47 63.0159 L1985.67 12.096 L1994.17 12.096 L1971.13 72.576 L1961.85 72.576 Z" fill="#000000" fill-rule="evenodd" fill-opacity="1" /><path clip-path="url(#clip0700)" d="M 0 0 M2034.36 48.0275 L2034.36 51.6733 L2000.09 51.6733 Q2000.58 59.3701 2004.71 63.421 Q2008.88 67.4314 2016.29 67.4314 Q2020.59 67.4314 2024.6 66.3781 Q2028.65 65.3249 2032.62 63.2184 L2032.62 70.267 Q2028.61 71.9684 2024.39 72.8596 Q2020.18 73.7508 2015.85 73.7508 Q2004.99 73.7508 1998.63 67.4314 Q1992.31 61.1119 1992.31 50.3365 Q1992.31 39.1965 1998.31 32.6746 Q2004.34 26.1121 2014.55 26.1121 Q2023.71 26.1121 2029.01 32.0264 Q2034.36 37.9003 2034.36 48.0275 M2026.91 45.84 Q2026.83 39.7232 2023.46 36.0774 Q2020.14 32.4315 2014.63 32.4315 Q2008.39 32.4315 2004.63 35.9558 Q2000.9 39.4801 2000.33 45.8805 L2026.91 45.84 Z" fill="#000000" fill-rule="evenodd" fill-opacity="1" /><path clip-path="url(#clip0700)" d="M 0 0 M2042.18 9.54393 L2049.63 9.54393 L2049.63 72.576 L2042.18 72.576 L2042.18 9.54393 Z" fill="#000000" fill-rule="evenodd" fill-opacity="1" /><path clip-path="url(#clip0700)" d="M 0 0 M2075.03 32.4315 Q2069.04 32.4315 2065.55 37.1306 Q2062.07 41.7891 2062.07 49.9314 Q2062.07 58.0738 2065.51 62.7728 Q2069 67.4314 2075.03 67.4314 Q2080.99 67.4314 2084.47 62.7323 Q2087.95 58.0333 2087.95 49.9314 Q2087.95 41.8701 2084.47 37.1711 Q2080.99 32.4315 2075.03 32.4315 M2075.03 26.1121 Q2084.75 26.1121 2090.3 32.4315 Q2095.85 38.7509 2095.85 49.9314 Q2095.85 61.0714 2090.3 67.4314 Q2084.75 73.7508 2075.03 73.7508 Q2065.27 73.7508 2059.72 67.4314 Q2054.21 61.0714 2054.21 49.9314 Q2054.21 38.7509 2059.72 32.4315 Q2065.27 26.1121 2075.03 26.1121 Z" fill="#000000" fill-rule="evenodd" fill-opacity="1" /><path clip-path="url(#clip0700)" d="M 0 0 M2136.32 28.9478 L2136.32 35.9153 Q2133.16 34.1734 2129.96 33.3227 Q2126.8 32.4315 2123.56 32.4315 Q2116.31 32.4315 2112.3 37.0496 Q2108.29 41.6271 2108.29 49.9314 Q2108.29 58.2358 2112.3 62.8538 Q2116.31 67.4314 2123.56 67.4314 Q2126.8 67.4314 2129.96 66.5807 Q2133.16 65.6895 2136.32 63.9476 L2136.32 70.8341 Q2133.2 72.2924 2129.84 73.0216 Q2126.52 73.7508 2122.75 73.7508 Q2112.5 73.7508 2106.47 67.3098 Q2100.43 60.8689 2100.43 49.9314 Q2100.43 38.832 2106.51 32.472 Q2112.62 26.1121 2123.24 26.1121 Q2126.68 26.1121 2129.96 26.8413 Q2133.24 27.5299 2136.32 28.9478 Z" fill="#000000" fill-rule="evenodd" fill-opacity="1" /><path clip-path="url(#clip0700)" d="M 0 0 M2144.14 27.2059 L2151.59 27.2059 L2151.59 72.576 L2144.14 72.576 L2144.14 27.2059 M2144.14 9.54393 L2151.59 9.54393 L2151.59 18.9825 L2144.14 18.9825 L2144.14 9.54393 Z" fill="#000000" fill-rule="evenodd" fill-opacity="1" /><path clip-path="url(#clip0700)" d="M 0 0 M2166.78 14.324 L2166.78 27.2059 L2182.14 27.2059 L2182.14 32.9987 L2166.78 32.9987 L2166.78 57.6282 Q2166.78 63.1779 2168.28 64.7578 Q2169.82 66.3376 2174.48 66.3376 L2182.14 66.3376 L2182.14 72.576 L2174.48 72.576 Q2165.85 72.576 2162.57 69.3758 Q2159.29 66.1351 2159.29 57.6282 L2159.29 32.9987 L2153.82 32.9987 L2153.82 27.2059 L2159.29 27.2059 L2159.29 14.324 L2166.78 14.324 Z" fill="#000000" fill-rule="evenodd" fill-opacity="1" /><path clip-path="url(#clip0700)" d="M 0 0 M2208.83 76.7889 Q2205.67 84.8907 2202.67 87.3618 Q2199.68 89.8329 2194.65 89.8329 L2188.7 89.8329 L2188.7 83.5945 L2193.07 83.5945 Q2196.15 83.5945 2197.85 82.1361 Q2199.56 80.6778 2201.62 75.2496 L2202.96 71.8468 L2184.61 27.2059 L2192.51 27.2059 L2206.69 62.6918 L2220.86 27.2059 L2228.76 27.2059 L2208.83 76.7889 Z" fill="#000000" fill-rule="evenodd" fill-opacity="1" /><path clip-path="url(#clip0700)" d="M 0 0 M1285.49 2298.26 L1325.69 2298.26 L1325.69 2303.67 L1308.82 2303.67 L1308.82 2345.78 L1302.36 2345.78 L1302.36 2303.67 L1285.49 2303.67 L1285.49 2298.26 Z" fill="#000000" fill-rule="evenodd" fill-opacity="1" /><path clip-path="url(#clip0700)" d="M 0 0 M1329.83 2310.14 L1335.68 2310.14 L1335.68 2345.78 L1329.83 2345.78 L1329.83 2310.14 M1329.83 2296.26 L1335.68 2296.26 L1335.68 2303.67 L1329.83 2303.67 L1329.83 2296.26 Z" fill="#000000" fill-rule="evenodd" fill-opacity="1" /><path clip-path="url(#clip0700)" d="M 0 0 M1369.58 2316.98 Q1371.78 2313.03 1374.83 2311.15 Q1377.89 2309.28 1382.03 2309.28 Q1387.6 2309.28 1390.62 2313.19 Q1393.64 2317.07 1393.64 2324.27 L1393.64 2345.78 L1387.76 2345.78 L1387.76 2324.46 Q1387.76 2319.33 1385.94 2316.85 Q1384.13 2314.37 1380.4 2314.37 Q1375.85 2314.37 1373.21 2317.39 Q1370.57 2320.42 1370.57 2325.64 L1370.57 2345.78 L1364.68 2345.78 L1364.68 2324.46 Q1364.68 2319.3 1362.87 2316.85 Q1361.05 2314.37 1357.26 2314.37 Q1352.78 2314.37 1350.13 2317.42 Q1347.49 2320.45 1347.49 2325.64 L1347.49 2345.78 L1341.6 2345.78 L1341.6 2310.14 L1347.49 2310.14 L1347.49 2315.67 Q1349.5 2312.4 1352.3 2310.84 Q1355.1 2309.28 1358.95 2309.28 Q1362.83 2309.28 1365.54 2311.25 Q1368.28 2313.22 1369.58 2316.98 Z" fill="#000000" fill-rule="evenodd" fill-opacity="1" /><path clip-path="url(#clip0700)" d="M 0 0 M1430.28 2326.5 L1430.28 2329.36 L1403.35 2329.36 Q1403.73 2335.41 1406.98 2338.59 Q1410.26 2341.74 1416.08 2341.74 Q1419.46 2341.74 1422.61 2340.91 Q1425.79 2340.09 1428.91 2338.43 L1428.91 2343.97 Q1425.76 2345.31 1422.45 2346.01 Q1419.14 2346.71 1415.73 2346.71 Q1407.2 2346.71 1402.21 2341.74 Q1397.24 2336.78 1397.24 2328.31 Q1397.24 2319.56 1401.95 2314.43 Q1406.69 2309.28 1414.71 2309.28 Q1421.91 2309.28 1426.08 2313.92 Q1430.28 2318.54 1430.28 2326.5 M1424.42 2324.78 Q1424.36 2319.97 1421.72 2317.11 Q1419.11 2314.24 1414.78 2314.24 Q1409.88 2314.24 1406.92 2317.01 Q1403.99 2319.78 1403.54 2324.81 L1424.42 2324.78 Z" fill="#000000" fill-rule="evenodd" fill-opacity="1" /><path clip-path="url(#clip0700)" d="M 0 0 M1471.21 2296.32 Q1466.95 2303.64 1464.88 2310.8 Q1462.81 2317.97 1462.81 2325.32 Q1462.81 2332.67 1464.88 2339.9 Q1466.98 2347.09 1471.21 2354.38 L1466.12 2354.38 Q1461.34 2346.9 1458.96 2339.67 Q1456.6 2332.45 1456.6 2325.32 Q1456.6 2318.22 1458.96 2311.03 Q1461.31 2303.83 1466.12 2296.32 L1471.21 2296.32 Z" fill="#000000" fill-rule="evenodd" fill-opacity="1" /><path clip-path="url(#clip0700)" d="M 0 0 M1500.08 2311.19 L1500.08 2316.72 Q1497.6 2315.45 1494.92 2314.81 Q1492.25 2314.18 1489.38 2314.18 Q1485.02 2314.18 1482.83 2315.51 Q1480.66 2316.85 1480.66 2319.53 Q1480.66 2321.56 1482.22 2322.74 Q1483.78 2323.89 1488.49 2324.94 L1490.5 2325.38 Q1496.74 2326.72 1499.35 2329.17 Q1501.99 2331.59 1501.99 2335.95 Q1501.99 2340.91 1498.04 2343.81 Q1494.13 2346.71 1487.25 2346.71 Q1484.39 2346.71 1481.27 2346.13 Q1478.18 2345.59 1474.74 2344.48 L1474.74 2338.43 Q1477.99 2340.12 1481.14 2340.98 Q1484.29 2341.81 1487.38 2341.81 Q1491.52 2341.81 1493.74 2340.4 Q1495.97 2338.97 1495.97 2336.39 Q1495.97 2334.01 1494.35 2332.73 Q1492.76 2331.46 1487.32 2330.28 L1485.28 2329.81 Q1479.84 2328.66 1477.42 2326.3 Q1475 2323.92 1475 2319.78 Q1475 2314.75 1478.56 2312.01 Q1482.13 2309.28 1488.68 2309.28 Q1491.93 2309.28 1494.8 2309.75 Q1497.66 2310.23 1500.08 2311.19 Z" fill="#000000" fill-rule="evenodd" fill-opacity="1" /><path clip-path="url(#clip0700)" d="M 0 0 M1507.21 2296.32 L1512.3 2296.32 Q1517.08 2303.83 1519.43 2311.03 Q1521.82 2318.22 1521.82 2325.32 Q1521.82 2332.45 1519.43 2339.67 Q1517.08 2346.9 1512.3 2354.38 L1507.21 2354.38 Q1511.44 2347.09 1513.51 2339.9 Q1515.61 2332.67 1515.61 2325.32 Q1515.61 2317.97 1513.51 2310.8 Q1511.44 2303.64 1507.21 2296.32 Z" fill="#000000" fill-rule="evenodd" fill-opacity="1" /><path clip-path="url(#clip0700)" d="M 0 0 M38.4242 1265.16 L38.4242 1258.26 L56.089 1246.45 L38.4242 1234.58 L38.4242 1227.67 L61.2452 1242.95 L85.9442 1226.65 L85.9442 1233.56 L65.733 1246.93 L85.9442 1260.39 L85.9442 1267.33 L60.5768 1250.36 L38.4242 1265.16 Z" fill="#000000" fill-rule="evenodd" fill-opacity="1" /><path clip-path="url(#clip0700)" d="M 0 0 M36.419 1245.94 L36.419 1240.08 L43.835 1240.08 L43.835 1245.94 L36.419 1245.94 M49.4368 1242.95 L49.4368 1242.95 Z" fill="#000000" fill-rule="evenodd" fill-opacity="1" /><path clip-path="url(#clip0700)" d="M 0 0 M36.4826 1199.15 Q43.8032 1203.42 50.9646 1205.49 Q58.126 1207.55 65.4784 1207.55 Q72.8308 1207.55 80.0559 1205.49 Q87.2491 1203.39 94.5379 1199.15 L94.5379 1204.24 Q87.0582 1209.02 79.8331 1211.41 Q72.608 1213.76 65.4784 1213.76 Q58.3806 1213.76 51.1874 1211.41 Q43.9942 1209.05 36.4826 1204.24 L36.4826 1199.15 Z" fill="#000000" fill-rule="evenodd" fill-opacity="1" /><path clip-path="url(#clip0700)" d="M 0 0 M57.1393 1165.25 Q53.1926 1163.06 51.3147 1160 Q49.4368 1156.95 49.4368 1152.81 Q49.4368 1147.24 53.3517 1144.22 Q57.2348 1141.19 64.4281 1141.19 L85.9442 1141.19 L85.9442 1147.08 L64.619 1147.08 Q59.4946 1147.08 57.012 1148.89 Q54.5294 1150.71 54.5294 1154.43 Q54.5294 1158.98 57.5531 1161.63 Q60.5768 1164.27 65.7967 1164.27 L85.9442 1164.27 L85.9442 1170.16 L64.619 1170.16 Q59.4628 1170.16 57.012 1171.97 Q54.5294 1173.78 54.5294 1177.57 Q54.5294 1182.06 57.5849 1184.7 Q60.6086 1187.34 65.7967 1187.34 L85.9442 1187.34 L85.9442 1193.23 L50.2962 1193.23 L50.2962 1187.34 L55.8344 1187.34 Q52.556 1185.34 50.9964 1182.54 Q49.4368 1179.74 49.4368 1175.89 Q49.4368 1172 51.4102 1169.3 Q53.3836 1166.56 57.1393 1165.25 Z" fill="#000000" fill-rule="evenodd" fill-opacity="1" /><path clip-path="url(#clip0700)" d="M 0 0 M38.4242 1124.64 L38.4242 1119.23 L91.9916 1135.78 L91.9916 1141.19 L38.4242 1124.64 Z" fill="#000000" fill-rule="evenodd" fill-opacity="1" /><path clip-path="url(#clip0700)" d="M 0 0 M51.3465 1090.36 L56.8847 1090.36 Q55.6116 1092.84 54.975 1095.52 Q54.3384 1098.19 54.3384 1101.06 Q54.3384 1105.42 55.6752 1107.61 Q57.012 1109.78 59.6856 1109.78 Q61.7226 1109.78 62.9003 1108.22 Q64.0461 1106.66 65.0965 1101.95 L65.5421 1099.94 Q66.8789 1093.7 69.3297 1091.09 Q71.7486 1088.45 76.1091 1088.45 Q81.0744 1088.45 83.9708 1092.4 Q86.8672 1096.31 86.8672 1103.19 Q86.8672 1106.05 86.2943 1109.17 Q85.7532 1112.26 84.6392 1115.7 L78.5918 1115.7 Q80.2787 1112.45 81.138 1109.3 Q81.9656 1106.15 81.9656 1103.06 Q81.9656 1098.92 80.5651 1096.7 Q79.1329 1094.47 76.5547 1094.47 Q74.1676 1094.47 72.8945 1096.09 Q71.6213 1097.68 70.4437 1103.13 L69.9662 1105.16 Q68.8204 1110.61 66.4651 1113.02 Q64.078 1115.44 59.9402 1115.44 Q54.9113 1115.44 52.1741 1111.88 Q49.4368 1108.31 49.4368 1101.76 Q49.4368 1098.51 49.9143 1095.65 Q50.3917 1092.78 51.3465 1090.36 Z" fill="#000000" fill-rule="evenodd" fill-opacity="1" /><path clip-path="url(#clip0700)" d="M 0 0 M36.4826 1083.23 L36.4826 1078.14 Q43.9942 1073.37 51.1874 1071.01 Q58.3806 1068.62 65.4784 1068.62 Q72.608 1068.62 79.8331 1071.01 Q87.0582 1073.37 94.5379 1078.14 L94.5379 1083.23 Q87.2491 1079 80.0559 1076.93 Q72.8308 1074.83 65.4784 1074.83 Q58.126 1074.83 50.9646 1076.93 Q43.8032 1079 36.4826 1083.23 Z" fill="#000000" fill-rule="evenodd" fill-opacity="1" /><polyline clip-path="url(#clip0702)" style="stroke:#009af9; stroke-width:16; stroke-opacity:1; fill:none" points="
  258.117,1855.34 269.573,1854.34 281.028,1869.89 292.484,1870.68 303.939,1808.3 315.394,1686.56 326.85,1541.15 338.305,1391.19 349.76,1256.03 361.216,1136.88 
  372.671,1039.41 384.126,957.696 395.582,892.592 407.037,837.716 418.493,793.712 429.948,755.578 441.403,724.514 452.859,696.691 464.314,673.667 475.769,652.403 
  487.225,634.61 498.68,617.821 510.136,603.752 521.591,590.412 533.046,579.392 544.502,569.155 555.957,561.028 567.412,553.956 578.868,548.844 590.323,545.193 
  601.778,543.313 613.234,543.373 624.689,544.906 636.145,548.901 647.6,553.915 659.055,561.956 670.511,570.38 681.966,582.455 693.421,594.084 704.877,610.08 
  716.332,624.593 727.788,644.318 739.243,661.309 750.698,684.527 762.154,703.527 773.609,729.98 785.064,750.482 796.52,779.912 807.975,801.386 819.43,833.551 
  830.886,855.462 842.341,890.145 853.797,911.963 865.252,948.976 876.707,970.192 888.163,1009.38 899.618,1029.53 911.073,1070.76 922.529,1089.49 933.984,1132.68 
  945.44,1149.87 956.895,1195.14 968.35,1211.36 979.806,1259.51 991.261,1277.03 1002.72,1330.81 1014.17,1355.93 1025.63,1423.11 1037.08,1405.69 1048.54,1436.06 
  1059.99,1441.18 1071.45,1477.99 1082.9,1490.14 1094.36,1525.73 1105.81,1540.18 1117.27,1571.9 1128.73,1585.93 1140.18,1612.58 1151.64,1625.04 1163.09,1647.04 
  1174.55,1658.17 1186,1676.57 1197.46,1686.78 1208.91,1702.45 1220.37,1711.92 1231.82,1725.4 1243.28,1734.16 1254.73,1745.77 1266.19,1753.76 1277.65,1763.72 
  1289.1,1770.88 1300.56,1779.34 1312.01,1785.61 1323.47,1792.67 1334.92,1798.02 1346.38,1803.77 1357.83,1808.16 1369.29,1812.68 1380.74,1816.1 1392.2,1819.45 
  1403.65,1821.88 1415.11,1824.08 1426.57,1825.52 1438.02,1826.6 1449.48,1827.01 1460.93,1826.97 1472.39,1826.3 1483.84,1825.11 1495.3,1823.32 1506.75,1820.92 
  1518.21,1817.92 1529.66,1814.25 1541.12,1809.94 1552.57,1804.88 1564.03,1799.14 1575.48,1792.59 1586.94,1785.29 1598.4,1777.16 1609.85,1768.31 1621.31,1758.73 
  1632.76,1748.61 1644.22,1738.01 1655.67,1727.15 1667.13,1716.19 1678.58,1705.39 1690.04,1694.97 1701.49,1685.15 1712.95,1676.04 1724.4,1667.7 1735.86,1660.09 
  1747.32,1653.14 1758.77,1646.71 1770.23,1640.66 1781.68,1634.91 1793.14,1629.4 1804.59,1624.17 1816.05,1619.27 1827.5,1614.75 1838.96,1610.64 1850.41,1606.94 
  1861.87,1603.67 1873.32,1600.82 1884.78,1598.38 1896.24,1596.37 1907.69,1594.77 1919.15,1593.6 1930.6,1592.84 1942.06,1592.51 1953.51,1592.59 1964.97,1593.08 
  1976.42,1593.97 1987.88,1595.25 1999.33,1596.9 2010.79,1598.92 2022.24,1601.26 2033.7,1603.94 2045.15,1606.89 2056.61,1610.14 2068.07,1613.61 2079.52,1617.32 
  2090.98,1621.22 2102.43,1625.31 2113.89,1629.54 2125.34,1633.94 2136.8,1638.43 2148.25,1643.06 2159.71,1647.75 2171.16,1652.56 2182.62,1657.42 2194.07,1662.38 
  2205.53,1667.37 2216.99,1672.46 2228.44,1677.56 2239.9,1682.77 2251.35,1688 2262.81,1693.34 2274.26,1698.69 2285.72,1704.16 2297.17,1709.65 2308.63,1715.27 
  2320.08,1720.92 2331.54,1726.7 2342.99,1732.51 2354.45,1738.48 2365.91,1744.47 2377.36,1750.62 2388.82,1756.8 2400.27,1763.15 2411.73,1769.53 2423.18,1776.11 
  2434.64,1782.71 2446.09,1789.54 2457.55,1796.39 2469,1803.56 2480.46,1810.74 2491.91,1818.43 2503.37,1826.1 2514.83,1834.67 2526.28,1842.74 2537.74,1851.72 
  2549.19,1852.99 
  "/>
<polyline clip-path="url(#clip0702)" style="stroke:#e26f46; stroke-width:16; stroke-opacity:1; fill:none" points="
  258.117,1855.34 269.573,1849.75 281.028,1589.06 292.484,954.746 303.939,661.726 315.394,625.929 326.85,642.445 338.305,649.094 349.76,639.814 361.216,622.696 
  372.671,601.895 384.126,581.524 395.582,561.386 407.037,543.349 418.493,526.451 429.948,512.066 441.403,499.489 452.859,489.718 464.314,482.413 475.769,478.102 
  487.225,476.737 498.68,478.386 510.136,483.155 521.591,490.779 533.046,501.366 544.502,514.519 555.957,530.196 567.412,548.102 578.868,567.897 590.323,589.626 
  601.778,612.496 613.234,637.116 624.689,662.077 636.145,688.755 647.6,714.948 659.055,743.001 670.511,769.719 681.966,798.623 693.421,825.308 704.877,854.694 
  716.332,880.925 727.788,910.559 739.243,936.03 750.698,965.798 762.154,990.3 773.609,1020.18 785.064,1043.58 796.52,1073.63 807.975,1095.83 819.43,1126.17 
  830.886,1147.11 842.341,1177.88 853.797,1197.5 865.252,1228.85 876.707,1247.08 888.163,1279.17 899.618,1295.94 911.073,1328.94 922.529,1344.18 933.984,1378.27 
  945.44,1392.04 956.895,1427.58 968.35,1440.4 979.806,1478.33 991.261,1491.97 1002.72,1534.86 1014.17,1553.9 1025.63,1607.22 1037.08,1599.35 1048.54,1624.65 
  1059.99,1628.88 1071.45,1657.88 1082.9,1667.47 1094.36,1696.03 1105.81,1708.08 1117.27,1734.63 1128.73,1747.41 1140.18,1771.14 1151.64,1783.54 1163.09,1804.34 
  1174.55,1816.09 1186,1834.41 1197.46,1845.65 1208.91,1862.02 1220.37,1872.85 1231.82,1887.6 1243.28,1898 1254.73,1911.32 1266.19,1921.19 1277.65,1933.14 
  1289.1,1942.33 1300.56,1952.9 1312.01,1961.22 1323.47,1970.35 1334.92,1977.6 1346.38,1985.19 1357.83,1991.19 1369.29,1997.14 1380.74,2001.73 1392.2,2005.95 
  1403.65,2008.97 1415.11,2011.39 1426.57,2012.74 1438.02,2013.3 1449.48,2012.89 1460.93,2011.57 1472.39,2009.37 1483.84,2006.19 1495.3,2002.22 1506.75,1997.24 
  1518.21,1991.56 1529.66,1984.88 1541.12,1977.59 1552.57,1969.33 1564.03,1960.53 1575.48,1950.8 1586.94,1940.53 1598.4,1929.3 1609.85,1917.45 1621.31,1904.44 
  1632.76,1890.49 1644.22,1875.03 1655.67,1858.27 1667.13,1839.87 1678.58,1820.29 1690.04,1799.51 1701.49,1778.11 1712.95,1756.24 1724.4,1734.42 1735.86,1712.78 
  1747.32,1691.73 1758.77,1671.36 1770.23,1651.92 1781.68,1633.47 1793.14,1616.24 1804.59,1600.4 1816.05,1585.95 1827.5,1572.71 1838.96,1560.48 1850.41,1549.08 
  1861.87,1538.36 1873.32,1528.22 1884.78,1518.57 1896.24,1509.34 1907.69,1500.51 1919.15,1492.03 1930.6,1483.91 1942.06,1476.14 1953.51,1468.74 1964.97,1461.71 
  1976.42,1455.07 1987.88,1448.85 1999.33,1443.07 2010.79,1437.74 2022.24,1432.9 2033.7,1428.56 2045.15,1424.74 2056.61,1421.46 2068.07,1418.75 2079.52,1416.61 
  2090.98,1415.08 2102.43,1414.15 2113.89,1413.85 2125.34,1414.21 2136.8,1415.21 2148.25,1416.9 2159.71,1419.26 2171.16,1422.32 2182.62,1426.08 2194.07,1430.55 
  2205.53,1435.72 2216.99,1441.63 2228.44,1448.23 2239.9,1455.58 2251.35,1463.6 2262.81,1472.37 2274.26,1481.8 2285.72,1491.99 2297.17,1502.81 2308.63,1514.38 
  2320.08,1526.54 2331.54,1539.47 2342.99,1552.92 2354.45,1567.17 2365.91,1581.86 2377.36,1597.39 2388.82,1613.27 2400.27,1630.09 2411.73,1647.13 2423.18,1665.34 
  2434.64,1683.61 2446.09,1703.46 2457.55,1723.23 2469,1745.3 2480.46,1767.17 2491.91,1792.55 2503.37,1817.52 2514.83,1848.08 2526.28,1873.35 2537.74,1901.98 
  2549.19,1841.7 
  "/>
<polyline clip-path="url(#clip0702)" style="stroke:#3da44d; stroke-width:16; stroke-opacity:1; fill:none" points="
  258.117,1855.34 269.573,1860.63 281.028,1558.43 292.484,874.908 303.939,596.782 315.394,578.406 326.85,604.525 338.305,615.753 349.76,610.48 361.216,596.4 
  372.671,578.784 384.126,560.476 395.582,542.146 407.037,524.928 418.493,508.473 429.948,493.837 441.403,480.592 452.859,469.709 464.314,460.874 475.769,454.766 
  487.225,451.253 498.68,450.593 510.136,452.869 521.591,457.884 533.046,465.959 544.502,476.461 555.957,489.966 567.412,505.438 578.868,523.735 590.323,543.437 
  601.778,565.733 613.234,588.801 624.689,614.24 636.145,639.772 647.6,667.511 659.055,694.634 670.511,723.899 681.966,751.817 693.421,781.942 704.877,809.967 
  716.332,840.408 727.788,867.979 739.243,898.322 750.698,925 762.154,954.953 773.609,980.419 785.064,1009.8 796.52,1033.84 807.975,1062.55 819.43,1085.03 
  830.886,1113.04 842.341,1133.89 853.797,1161.21 865.252,1180.43 876.707,1207.06 888.163,1224.66 899.618,1250.61 911.073,1266.64 922.529,1291.87 933.984,1306.41 
  945.44,1330.79 956.895,1343.96 968.35,1367.26 979.806,1379.22 991.261,1401 1002.72,1411.89 1014.17,1431.38 1025.63,1440.99 1037.08,1460.19 1048.54,1469.11 
  1059.99,1484.48 1071.45,1493.77 1082.9,1507.22 1094.36,1516.78 1105.81,1528.47 1117.27,1537.91 1128.73,1548.02 1140.18,1556.96 1151.64,1565.61 1163.09,1573.78 
  1174.55,1581.12 1186,1588.38 1197.46,1594.59 1208.91,1600.95 1220.37,1606.17 1231.82,1611.63 1243.28,1615.96 1254.73,1620.52 1266.19,1624.03 1277.65,1627.71 
  1289.1,1630.45 1300.56,1633.31 1312.01,1635.37 1323.47,1637.51 1334.92,1638.99 1346.38,1640.51 1357.83,1641.5 1369.29,1642.52 1380.74,1643.11 1392.2,1643.71 
  1403.65,1644 1415.11,1644.26 1426.57,1644.29 1438.02,1644.27 1449.48,1644.09 1460.93,1643.84 1472.39,1643.47 1483.84,1643.02 1495.3,1642.48 1506.75,1641.84 
  1518.21,1641.14 1529.66,1640.33 1541.12,1639.5 1552.57,1638.55 1564.03,1637.62 1575.48,1636.61 1586.94,1635.67 1598.4,1634.74 1609.85,1633.99 1621.31,1633.37 
  1632.76,1633.1 1644.22,1633.12 1655.67,1633.64 1667.13,1634.55 1678.58,1635.94 1690.04,1637.63 1701.49,1639.64 1712.95,1641.79 1724.4,1644.14 1735.86,1646.57 
  1747.32,1649.18 1758.77,1651.9 1770.23,1654.84 1781.68,1657.89 1793.14,1661.17 1804.59,1664.63 1816.05,1668.43 1827.5,1672.53 1838.96,1677.03 1850.41,1681.82 
  1861.87,1686.97 1873.32,1692.35 1884.78,1698.05 1896.24,1703.93 1907.69,1710.1 1919.15,1716.37 1930.6,1722.9 1942.06,1729.47 1953.51,1736.26 1964.97,1743.01 
  1976.42,1749.96 1987.88,1756.78 1999.33,1763.77 2010.79,1770.53 2022.24,1777.42 2033.7,1784.01 2045.15,1790.69 2056.61,1796.99 2068.07,1803.36 2079.52,1809.26 
  2090.98,1815.23 2102.43,1820.66 2113.89,1826.13 2125.34,1831.02 2136.8,1835.92 2148.25,1840.2 2159.71,1844.46 2171.16,1848.1 2182.62,1851.64 2194.07,1854.6 
  2205.53,1857.38 2216.99,1859.67 2228.44,1861.65 2239.9,1863.31 2251.35,1864.48 2262.81,1865.62 2274.26,1865.99 2285.72,1866.76 2297.17,1866.39 2308.63,1867.03 
  2320.08,1865.97 2331.54,1866.82 2342.99,1865.15 2354.45,1866.62 2365.91,1864.42 2377.36,1867.08 2388.82,1864.41 2400.27,1868.96 2411.73,1865.83 2423.18,1873.18 
  2434.64,1869.46 2446.09,1880.73 2457.55,1876.04 2469,1892.52 2480.46,1885.95 2491.91,1908.82 2503.37,1898.05 2514.83,1926.47 2526.28,1903.18 2537.74,1924.16 
  2549.19,1854.1 
  "/>
<polyline clip-path="url(#clip0702)" style="stroke:#c271d2; stroke-width:16; stroke-opacity:1; fill:none" points="
  258.117,1855.34 269.573,1854.99 281.028,1858.08 292.484,1880.57 303.939,1876.57 315.394,1799.02 326.85,1655.81 338.305,1492.69 349.76,1335.34 361.216,1202.8 
  372.671,1091.52 384.126,1002.51 395.582,928.115 407.037,867.867 418.493,816.504 429.948,774.068 441.403,737.307 452.859,706.464 464.314,679.542 475.769,656.758 
  487.225,636.892 498.68,620.08 510.136,605.599 521.591,593.517 533.046,583.437 544.502,575.382 555.957,569.17 567.412,564.796 578.868,562.202 590.323,561.372 
  601.778,562.305 613.234,564.979 624.689,569.397 636.145,575.548 647.6,583.396 659.055,592.955 670.511,604.124 681.966,616.959 693.421,631.266 704.877,647.172 
  716.332,664.364 727.788,683.066 739.243,702.826 750.698,723.99 762.154,745.949 773.609,769.192 785.064,792.941 796.52,817.842 807.975,842.945 819.43,869.058 
  830.886,895.063 842.341,921.923 853.797,948.37 865.252,975.504 876.707,1001.94 888.163,1028.88 899.618,1054.85 911.073,1081.13 922.529,1106.24 933.984,1131.44 
  945.44,1155.3 956.895,1179.07 968.35,1201.52 979.806,1223.79 991.261,1245.22 1002.72,1266.97 1014.17,1289.77 1025.63,1315.13 1037.08,1318.47 1048.54,1323.69 
  1059.99,1331.57 1071.45,1339.25 1082.9,1348.21 1094.36,1356.34 1105.81,1364.84 1117.27,1371.65 1128.73,1377.46 1140.18,1380.55 1151.64,1381.83 1163.09,1380.44 
  1174.55,1377.54 1186,1372.71 1197.46,1366.93 1208.91,1359.9 1220.37,1352.3 1231.82,1343.94 1243.28,1335.32 1254.73,1326.39 1266.19,1317.49 1277.65,1308.68 
  1289.1,1300.18 1300.56,1292.1 1312.01,1284.59 1323.47,1277.75 1334.92,1271.69 1346.38,1266.5 1357.83,1262.24 1369.29,1258.97 1380.74,1256.74 1392.2,1255.58 
  1403.65,1255.5 1415.11,1256.52 1426.57,1258.63 1438.02,1261.83 1449.48,1266.07 1460.93,1271.36 1472.39,1277.63 1483.84,1284.87 1495.3,1293.02 1506.75,1302.04 
  1518.21,1311.88 1529.66,1322.52 1541.12,1333.92 1552.57,1346.03 1564.03,1358.84 1575.48,1372.3 1586.94,1386.37 1598.4,1400.94 1609.85,1415.88 1621.31,1431.03 
  1632.76,1446.3 1644.22,1461.71 1655.67,1477.35 1667.13,1493.37 1678.58,1509.93 1690.04,1527.11 1701.49,1545.01 1712.95,1563.59 1724.4,1582.85 1735.86,1602.67 
  1747.32,1622.98 1758.77,1643.54 1770.23,1664.26 1781.68,1684.8 1793.14,1705.06 1804.59,1724.67 1816.05,1743.63 1827.5,1761.64 1838.96,1778.88 1850.41,1795.12 
  1861.87,1810.66 1873.32,1825.24 1884.78,1839.2 1896.24,1852.26 1907.69,1864.78 1919.15,1876.44 1930.6,1887.64 1942.06,1898.01 1953.51,1907.99 1964.97,1917.18 
  1976.42,1926.04 1987.88,1934.13 1999.33,1941.94 2010.79,1949.01 2022.24,1955.84 2033.7,1961.95 2045.15,1967.87 2056.61,1973.09 2068.07,1978.14 2079.52,1982.52 
  2090.98,1986.76 2102.43,1990.36 2113.89,1993.81 2125.34,1996.67 2136.8,1999.37 2148.25,2001.54 2159.71,2003.51 2171.16,2005.02 2182.62,2006.26 2194.07,2007.14 
  2205.53,2007.64 2216.99,2007.92 2228.44,2007.64 2239.9,2007.35 2251.35,2006.24 2262.81,2005.39 2274.26,2003.35 2285.72,2001.96 2297.17,1998.89 2308.63,1996.98 
  2320.08,1992.71 2331.54,1990.31 2342.99,1984.65 2354.45,1981.83 2365.91,1974.55 2377.36,1971.39 2388.82,1962.21 2400.27,1958.85 2411.73,1947.51 2423.18,1944.17 
  2434.64,1930.4 2446.09,1927.43 2457.55,1911.12 2469,1909.11 2480.46,1890.57 2491.91,1890.64 2503.37,1871.08 2514.83,1875.48 2526.28,1857.49 2537.74,1870.55 
  2549.19,1859.41 
  "/>
<polyline clip-path="url(#clip0702)" style="stroke:#ac8d18; stroke-width:16; stroke-opacity:1; fill:none" points="
  258.117,1855.34 269.573,1849.95 281.028,1431.4 292.484,565.827 303.939,189.727 315.394,248.606 326.85,343.13 338.305,430.981 349.76,469.592 361.216,499.636 
  372.671,505.981 384.126,514.871 395.582,511.382 407.037,513.988 418.493,508.821 429.948,510.743 441.403,507.23 452.859,510.955 464.314,510.71 475.769,517.472 
  487.225,521.292 498.68,531.655 510.136,539.819 521.591,553.897 533.046,566.287 544.502,583.859 555.957,600.061 567.412,620.675 578.868,640.069 590.323,663.124 
  601.778,684.98 613.234,709.805 624.689,733.353 636.145,759.272 647.6,783.766 659.055,810.145 670.511,834.902 681.966,861.184 693.421,885.613 704.877,911.339 
  716.332,934.957 727.788,959.779 739.243,982.214 750.698,1005.89 762.154,1026.88 773.609,1049.26 785.064,1068.63 796.52,1089.67 807.975,1107.3 819.43,1126.99 
  830.886,1142.82 842.341,1161.21 853.797,1175.2 865.252,1192.34 876.707,1204.43 888.163,1220.38 899.618,1230.48 911.073,1245.29 922.529,1253.26 933.984,1266.95 
  945.44,1272.59 956.895,1285.16 968.35,1288.25 979.806,1299.69 991.261,1300.15 1002.72,1310.73 1014.17,1309.65 1025.63,1321.06 1037.08,1315.94 1048.54,1319.86 
  1059.99,1316.39 1071.45,1316.09 1082.9,1311.95 1094.36,1308.1 1105.81,1302.75 1117.27,1297.06 1128.73,1291.16 1140.18,1285.18 1151.64,1279.43 1163.09,1273.56 
  1174.55,1267.8 1186,1261.89 1197.46,1256.06 1208.91,1250.22 1220.37,1244.54 1231.82,1239.02 1243.28,1233.77 1254.73,1228.84 1266.19,1224.31 1277.65,1220.24 
  1289.1,1216.68 1300.56,1213.72 1312.01,1211.35 1323.47,1209.67 1334.92,1208.65 1346.38,1208.36 1357.83,1208.79 1369.29,1209.97 1380.74,1211.88 1392.2,1214.54 
  1403.65,1217.94 1415.11,1222.09 1426.57,1226.96 1438.02,1232.56 1449.48,1238.88 1460.93,1245.9 1472.39,1253.64 1483.84,1262.08 1495.3,1271.23 1506.75,1281.11 
  1518.21,1291.74 1529.66,1303.14 1541.12,1315.39 1552.57,1328.56 1564.03,1342.76 1575.48,1358.16 1586.94,1374.97 1598.4,1393.47 1609.85,1413.95 1621.31,1436.37 
  1632.76,1460.35 1644.22,1485.62 1655.67,1512.18 1667.13,1540.07 1678.58,1569.32 1690.04,1599.61 1701.49,1630.67 1712.95,1661.88 1724.4,1692.91 1735.86,1723.14 
  1747.32,1752.41 1758.77,1780.19 1770.23,1806.58 1781.68,1831.24 1793.14,1854.55 1804.59,1876.31 1816.05,1897.03 1827.5,1916.44 1838.96,1935.07 1850.41,1952.57 
  1861.87,1969.44 1873.32,1985.25 1884.78,2000.51 1896.24,2014.73 1907.69,2028.42 1919.15,2041.08 1930.6,2053.22 1942.06,2064.32 1953.51,2074.92 1964.97,2084.49 
  1976.42,2093.56 1987.88,2101.63 1999.33,2109.2 2010.79,2115.81 2022.24,2121.93 2033.7,2127.13 2045.15,2131.85 2056.61,2135.71 2068.07,2139.08 2079.52,2141.67 
  2090.98,2143.74 2102.43,2145.14 2113.89,2145.95 2125.34,2146.22 2136.8,2145.82 2148.25,2145.04 2159.71,2143.45 2171.16,2141.69 2182.62,2138.92 2194.07,2136.26 
  2205.53,2132.3 2216.99,2128.8 2228.44,2123.62 2239.9,2119.35 2251.35,2112.9 2262.81,2107.94 2274.26,2100.13 2285.72,2094.57 2297.17,2085.28 2308.63,2079.23 
  2320.08,2068.32 2331.54,2061.93 2342.99,2049.22 2354.45,2042.67 2365.91,2027.98 2377.36,2021.53 2388.82,2004.65 2400.27,1998.64 2411.73,1979.4 2423.18,1974.28 
  2434.64,1952.58 2446.09,1948.97 2457.55,1924.84 2469,1923.57 2480.46,1897.35 2491.91,1899.6 2503.37,1872.36 2514.83,1880.25 2526.28,1855.14 2537.74,1874.35 
  2549.19,1862.5 
  "/>
<polyline clip-path="url(#clip0702)" style="stroke:#00a9ad; stroke-width:16; stroke-opacity:1; fill:none" points="
  258.117,1855.34 269.573,1860.32 281.028,1440.15 292.484,645.052 303.939,380.713 315.394,440.242 326.85,507.049 338.305,547.1 349.76,557.958 361.216,558.897 
  372.671,552.723 384.126,545.564 395.582,536.864 407.037,529.442 418.493,521.663 429.948,516.114 441.403,510.401 452.859,507.498 464.314,504.391 475.769,504.422 
  487.225,504.176 498.68,507.171 510.136,509.859 521.591,515.7 533.046,521.272 544.502,529.762 555.957,538.094 567.412,548.996 578.868,559.914 590.323,572.963 
  601.778,586.255 613.234,601.158 624.689,616.583 636.145,633.024 647.6,650.322 659.055,667.976 670.511,686.889 681.966,705.433 693.421,725.721 704.877,744.858 
  716.332,766.322 727.788,785.787 739.243,808.273 750.698,827.842 762.154,851.247 773.609,870.736 785.064,895.001 796.52,914.255 807.975,939.352 819.43,958.238 
  830.886,984.161 842.341,1002.56 853.797,1029.3 865.252,1047.08 876.707,1074.65 888.163,1091.7 899.618,1120.04 911.073,1136.25 922.529,1165.33 933.984,1180.6 
  945.44,1210.34 956.895,1224.71 968.35,1255.08 979.806,1268.81 991.261,1299.96 1002.72,1313.9 1014.17,1346.51 1025.63,1363.36 1037.08,1379.46 1048.54,1387.09 
  1059.99,1408.83 1071.45,1421.39 1082.9,1441.63 1094.36,1455.22 1105.81,1472.63 1117.27,1485.65 1128.73,1500.04 1140.18,1511.87 1151.64,1523.72 1163.09,1534.43 
  1174.55,1544.4 1186,1554.13 1197.46,1562.63 1208.91,1571.35 1220.37,1578.52 1231.82,1586.15 1243.28,1592.08 1254.73,1598.53 1266.19,1603.28 1277.65,1608.53 
  1289.1,1612.17 1300.56,1616.28 1312.01,1618.93 1323.47,1622 1334.92,1623.81 1346.38,1626.01 1357.83,1627.18 1369.29,1628.7 1380.74,1629.41 1392.2,1630.47 
  1403.65,1630.92 1415.11,1631.72 1426.57,1632.11 1438.02,1632.83 1449.48,1633.31 1460.93,1634.11 1472.39,1634.79 1483.84,1635.78 1495.3,1636.74 1506.75,1638 
  1518.21,1639.3 1529.66,1640.86 1541.12,1642.51 1552.57,1644.41 1564.03,1646.43 1575.48,1648.67 1586.94,1651.06 1598.4,1653.65 1609.85,1656.4 1621.31,1659.39 
  1632.76,1662.62 1644.22,1666.17 1655.67,1670.04 1667.13,1674.24 1678.58,1678.77 1690.04,1683.61 1701.49,1688.76 1712.95,1694.2 1724.4,1699.93 1735.86,1705.92 
  1747.32,1712.16 1758.77,1718.58 1770.23,1725.17 1781.68,1731.86 1793.14,1738.65 1804.59,1745.48 1816.05,1752.35 1827.5,1759.19 1838.96,1766.03 1850.41,1772.82 
  1861.87,1779.57 1873.32,1786.24 1884.78,1792.86 1896.24,1799.37 1907.69,1805.81 1919.15,1812.12 1930.6,1818.37 1942.06,1824.46 1953.51,1830.51 1964.97,1836.39 
  1976.42,1842.23 1987.88,1847.9 1999.33,1853.54 2010.79,1859 2022.24,1864.44 2033.7,1869.69 2045.15,1874.91 2056.61,1879.92 2068.07,1884.92 2079.52,1889.66 
  2090.98,1894.4 2102.43,1898.82 2113.89,1903.26 2125.34,1907.32 2136.8,1911.4 2148.25,1915.03 2159.71,1918.69 2171.16,1921.81 2182.62,1924.98 2194.07,1927.5 
  2205.53,1930.12 2216.99,1931.96 2228.44,1933.97 2239.9,1935.05 2251.35,1936.4 2262.81,1936.64 2274.26,1937.31 2285.72,1936.67 2297.17,1936.64 2308.63,1935.07 
  2320.08,1934.39 2331.54,1931.84 2342.99,1930.57 2354.45,1926.99 2365.91,1925.24 2377.36,1920.59 2388.82,1918.49 2400.27,1912.69 2411.73,1910.46 2423.18,1903.38 
  2434.64,1901.38 2446.09,1892.85 2457.55,1891.59 2469,1881.43 2480.46,1881.8 2491.91,1869.84 2503.37,1873.29 2514.83,1859.37 2526.28,1867.05 2537.74,1849.57 
  2549.19,1856.02 
  "/>
<polyline clip-path="url(#clip0702)" style="stroke:#ed5d92; stroke-width:16; stroke-opacity:1; fill:none" points="
  258.117,1855.34 269.573,1851.18 281.028,1850.26 292.484,1851.63 303.939,1843.46 315.394,1810.72 326.85,1750.5 338.305,1669.13 349.76,1574.73 361.216,1474.52 
  372.671,1372.86 384.126,1273.15 395.582,1176.56 407.037,1084.73 418.493,997.526 429.948,916.029 441.403,839.586 452.859,769.095 464.314,703.68 475.769,644.13 
  487.225,589.481 498.68,540.41 510.136,495.938 521.591,456.61 533.046,421.484 544.502,390.964 555.957,364.178 567.412,341.396 578.868,321.839 590.323,305.661 
  601.778,292.194 613.234,281.499 624.689,273.029 636.145,266.782 647.6,262.337 659.055,259.653 670.511,258.445 681.966,258.648 693.421,260.116 704.877,262.772 
  716.332,266.61 727.788,271.542 739.243,277.7 750.698,284.972 762.154,293.621 773.609,303.5 785.064,314.988 796.52,327.878 807.975,342.657 819.43,359.03 
  830.886,377.574 842.341,397.884 853.797,420.614 865.252,445.225 876.707,472.44 888.163,501.571 899.618,533.407 911.073,567.107 922.529,603.533 933.984,641.716 
  945.44,682.631 956.895,725.254 968.35,770.813 979.806,818.457 991.261,870.087 1002.72,925.664 1014.17,988.944 1025.63,1062.48 1037.08,1085.22 1048.54,1118.17 
  1059.99,1161.44 1071.45,1207.06 1082.9,1257.67 1094.36,1307.8 1105.81,1360.15 1117.27,1410.56 1128.73,1461.03 1140.18,1508.53 1151.64,1554.52 1163.09,1596.88 
  1174.55,1636.87 1186,1673.16 1197.46,1706.92 1208.91,1737.32 1220.37,1765.23 1231.82,1790.17 1243.28,1812.78 1254.73,1832.84 1266.19,1850.82 1277.65,1866.71 
  1289.1,1880.87 1300.56,1893.39 1312.01,1904.53 1323.47,1914.44 1334.92,1923.28 1346.38,1931.22 1357.83,1938.34 1369.29,1944.8 1380.74,1950.62 1392.2,1955.94 
  1403.65,1960.73 1415.11,1965.12 1426.57,1969.04 1438.02,1972.59 1449.48,1975.68 1460.93,1978.4 1472.39,1980.64 1483.84,1982.47 1495.3,1983.78 1506.75,1984.64 
  1518.21,1984.93 1529.66,1984.72 1541.12,1983.94 1552.57,1982.66 1564.03,1980.82 1575.48,1978.5 1586.94,1975.65 1598.4,1972.31 1609.85,1968.37 1621.31,1963.75 
  1632.76,1958.13 1644.22,1951.25 1655.67,1942.9 1667.13,1933.35 1678.58,1923.11 1690.04,1912.96 1701.49,1903.61 1712.95,1895.69 1724.4,1889.51 1735.86,1885.17 
  1747.32,1882.43 1758.77,1880.98 1770.23,1880.32 1781.68,1880.02 1793.14,1879.71 1804.59,1879.15 1816.05,1878.07 1827.5,1876.34 1838.96,1873.85 1850.41,1870.58 
  1861.87,1866.49 1873.32,1861.62 1884.78,1855.96 1896.24,1849.6 1907.69,1842.59 1919.15,1835.03 1930.6,1827.01 1942.06,1818.66 1953.51,1810.05 1964.97,1801.34 
  1976.42,1792.59 1987.88,1783.92 1999.33,1775.41 2010.79,1767.15 2022.24,1759.19 2033.7,1751.6 2045.15,1744.41 2056.61,1737.64 2068.07,1731.33 2079.52,1725.47 
  2090.98,1720.08 2102.43,1715.12 2113.89,1710.62 2125.34,1706.5 2136.8,1702.8 2148.25,1699.42 2159.71,1696.43 2171.16,1693.68 2182.62,1691.28 2194.07,1689.06 
  2205.53,1687.17 2216.99,1685.38 2228.44,1683.94 2239.9,1682.52 2251.35,1681.5 2262.81,1680.43 2274.26,1679.84 2285.72,1679.14 2297.17,1679.03 2308.63,1678.74 
  2320.08,1679.22 2331.54,1679.42 2342.99,1680.6 2354.45,1681.41 2365.91,1683.47 2377.36,1685.02 2388.82,1688.2 2400.27,1690.68 2411.73,1695.25 2423.18,1698.92 
  2434.64,1705.26 2446.09,1710.44 2457.55,1719.03 2469,1726.17 2480.46,1737.67 2491.91,1747.36 2503.37,1762.53 2514.83,1775.22 2526.28,1793.17 2537.74,1805.41 
  2549.19,1814.18 
  "/>
<path clip-path="url(#clip0700)" d="
M2713.92 746.392 L3184.76 746.392 L3184.76 262.552 L2713.92 262.552  Z
  " fill="#ffffff" fill-rule="evenodd" fill-opacity="1"/>
<polyline clip-path="url(#clip0700)" style="stroke:#000000; stroke-width:4; stroke-opacity:1; fill:none" points="
  2713.92,746.392 3184.76,746.392 3184.76,262.552 2713.92,262.552 2713.92,746.392 
  "/>
<polyline clip-path="url(#clip0700)" style="stroke:#009af9; stroke-width:16; stroke-opacity:1; fill:none" points="
  2745.92,323.032 2937.92,323.032 
  "/>
<path clip-path="url(#clip0700)" d="M 0 0 M2991.95 303.633 Q2984.95 303.633 2980.81 308.853 Q2976.7 314.072 2976.7 323.08 Q2976.7 332.056 2980.81 337.275 Q2984.95 342.495 2991.95 342.495 Q2998.95 342.495 3003.03 337.275 Q3007.13 332.056 3007.13 323.08 Q3007.13 314.072 3003.03 308.853 Q2998.95 303.633 2991.95 303.633 M3000.96 345.933 L3009.42 355.195 L3001.66 355.195 L2994.62 347.588 Q2993.57 347.651 2993 347.683 Q2992.46 347.715 2991.95 347.715 Q2981.92 347.715 2975.91 341.031 Q2969.92 334.315 2969.92 323.08 Q2969.92 311.813 2975.91 305.129 Q2981.92 298.413 2991.95 298.413 Q3001.94 298.413 3007.93 305.129 Q3013.91 311.813 3013.91 323.08 Q3013.91 331.355 3010.57 337.244 Q3007.26 343.132 3000.96 345.933 Z" fill="#000000" fill-rule="evenodd" fill-opacity="1" /><path clip-path="url(#clip0700)" d="M 0 0 M3019.45 332.724 L3019.45 311.144 L3025.31 311.144 L3025.31 332.501 Q3025.31 337.562 3027.28 340.108 Q3029.25 342.623 3033.2 342.623 Q3037.94 342.623 3040.68 339.599 Q3043.45 336.575 3043.45 331.355 L3043.45 311.144 L3049.3 311.144 L3049.3 346.792 L3043.45 346.792 L3043.45 341.318 Q3041.31 344.564 3038.48 346.156 Q3035.68 347.715 3031.96 347.715 Q3025.81 347.715 3022.63 343.896 Q3019.45 340.076 3019.45 332.724 M3034.19 310.285 L3034.19 310.285 Z" fill="#000000" fill-rule="evenodd" fill-opacity="1" /><path clip-path="url(#clip0700)" d="M 0 0 M3071.65 328.873 Q3064.55 328.873 3061.81 330.496 Q3059.08 332.119 3059.08 336.034 Q3059.08 339.153 3061.11 340.999 Q3063.18 342.814 3066.71 342.814 Q3071.58 342.814 3074.51 339.376 Q3077.47 335.907 3077.47 330.178 L3077.47 328.873 L3071.65 328.873 M3083.33 326.454 L3083.33 346.792 L3077.47 346.792 L3077.47 341.381 Q3075.47 344.628 3072.47 346.187 Q3069.48 347.715 3065.15 347.715 Q3059.68 347.715 3056.43 344.66 Q3053.22 341.572 3053.22 336.416 Q3053.22 330.4 3057.23 327.345 Q3061.27 324.289 3069.26 324.289 L3077.47 324.289 L3077.47 323.716 Q3077.47 319.674 3074.8 317.478 Q3072.16 315.25 3067.35 315.25 Q3064.29 315.25 3061.4 315.982 Q3058.5 316.714 3055.83 318.178 L3055.83 312.767 Q3059.04 311.526 3062.07 310.921 Q3065.09 310.285 3067.96 310.285 Q3075.69 310.285 3079.51 314.295 Q3083.33 318.306 3083.33 326.454 Z" fill="#000000" fill-rule="evenodd" fill-opacity="1" /><path clip-path="url(#clip0700)" d="M 0 0 M3112.93 316.555 L3112.93 297.267 L3118.79 297.267 L3118.79 346.792 L3112.93 346.792 L3112.93 341.445 Q3111.08 344.628 3108.25 346.187 Q3105.45 347.715 3101.5 347.715 Q3095.04 347.715 3090.97 342.559 Q3086.93 337.403 3086.93 329 Q3086.93 320.597 3090.97 315.441 Q3095.04 310.285 3101.5 310.285 Q3105.45 310.285 3108.25 311.844 Q3111.08 313.372 3112.93 316.555 M3092.97 329 Q3092.97 335.461 3095.61 339.153 Q3098.29 342.814 3102.93 342.814 Q3107.58 342.814 3110.26 339.153 Q3112.93 335.461 3112.93 329 Q3112.93 322.539 3110.26 318.879 Q3107.58 315.186 3102.93 315.186 Q3098.29 315.186 3095.61 318.879 Q3092.97 322.539 3092.97 329 Z" fill="#000000" fill-rule="evenodd" fill-opacity="1" /><path clip-path="url(#clip0700)" d="M 0 0 M3147.59 341.381 L3158.09 341.381 L3158.09 305.129 L3146.67 307.42 L3146.67 301.564 L3158.03 299.272 L3164.46 299.272 L3164.46 341.381 L3174.96 341.381 L3174.96 346.792 L3147.59 346.792 L3147.59 341.381 Z" fill="#000000" fill-rule="evenodd" fill-opacity="1" /><polyline clip-path="url(#clip0700)" style="stroke:#e26f46; stroke-width:16; stroke-opacity:1; fill:none" points="
  2745.92,383.512 2937.92,383.512 
  "/>
<path clip-path="url(#clip0700)" d="M 0 0 M2991.95 364.113 Q2984.95 364.113 2980.81 369.333 Q2976.7 374.552 2976.7 383.56 Q2976.7 392.536 2980.81 397.755 Q2984.95 402.975 2991.95 402.975 Q2998.95 402.975 3003.03 397.755 Q3007.13 392.536 3007.13 383.56 Q3007.13 374.552 3003.03 369.333 Q2998.95 364.113 2991.95 364.113 M3000.96 406.413 L3009.42 415.675 L3001.66 415.675 L2994.62 408.068 Q2993.57 408.131 2993 408.163 Q2992.46 408.195 2991.95 408.195 Q2981.92 408.195 2975.91 401.511 Q2969.92 394.795 2969.92 383.56 Q2969.92 372.293 2975.91 365.609 Q2981.92 358.893 2991.95 358.893 Q3001.94 358.893 3007.93 365.609 Q3013.91 372.293 3013.91 383.56 Q3013.91 391.835 3010.57 397.724 Q3007.26 403.612 3000.96 406.413 Z" fill="#000000" fill-rule="evenodd" fill-opacity="1" /><path clip-path="url(#clip0700)" d="M 0 0 M3019.45 393.204 L3019.45 371.624 L3025.31 371.624 L3025.31 392.981 Q3025.31 398.042 3027.28 400.588 Q3029.25 403.103 3033.2 403.103 Q3037.94 403.103 3040.68 400.079 Q3043.45 397.055 3043.45 391.835 L3043.45 371.624 L3049.3 371.624 L3049.3 407.272 L3043.45 407.272 L3043.45 401.798 Q3041.31 405.044 3038.48 406.636 Q3035.68 408.195 3031.96 408.195 Q3025.81 408.195 3022.63 404.376 Q3019.45 400.556 3019.45 393.204 M3034.19 370.765 L3034.19 370.765 Z" fill="#000000" fill-rule="evenodd" fill-opacity="1" /><path clip-path="url(#clip0700)" d="M 0 0 M3071.65 389.353 Q3064.55 389.353 3061.81 390.976 Q3059.08 392.599 3059.08 396.514 Q3059.08 399.633 3061.11 401.479 Q3063.18 403.294 3066.71 403.294 Q3071.58 403.294 3074.51 399.856 Q3077.47 396.387 3077.47 390.658 L3077.47 389.353 L3071.65 389.353 M3083.33 386.934 L3083.33 407.272 L3077.47 407.272 L3077.47 401.861 Q3075.47 405.108 3072.47 406.667 Q3069.48 408.195 3065.15 408.195 Q3059.68 408.195 3056.43 405.14 Q3053.22 402.052 3053.22 396.896 Q3053.22 390.88 3057.23 387.825 Q3061.27 384.769 3069.26 384.769 L3077.47 384.769 L3077.47 384.196 Q3077.47 380.154 3074.8 377.958 Q3072.16 375.73 3067.35 375.73 Q3064.29 375.73 3061.4 376.462 Q3058.5 377.194 3055.83 378.658 L3055.83 373.247 Q3059.04 372.006 3062.07 371.401 Q3065.09 370.765 3067.96 370.765 Q3075.69 370.765 3079.51 374.775 Q3083.33 378.786 3083.33 386.934 Z" fill="#000000" fill-rule="evenodd" fill-opacity="1" /><path clip-path="url(#clip0700)" d="M 0 0 M3112.93 377.035 L3112.93 357.747 L3118.79 357.747 L3118.79 407.272 L3112.93 407.272 L3112.93 401.925 Q3111.08 405.108 3108.25 406.667 Q3105.45 408.195 3101.5 408.195 Q3095.04 408.195 3090.97 403.039 Q3086.93 397.883 3086.93 389.48 Q3086.93 381.077 3090.97 375.921 Q3095.04 370.765 3101.5 370.765 Q3105.45 370.765 3108.25 372.324 Q3111.08 373.852 3112.93 377.035 M3092.97 389.48 Q3092.97 395.941 3095.61 399.633 Q3098.29 403.294 3102.93 403.294 Q3107.58 403.294 3110.26 399.633 Q3112.93 395.941 3112.93 389.48 Q3112.93 383.019 3110.26 379.359 Q3107.58 375.666 3102.93 375.666 Q3098.29 375.666 3095.61 379.359 Q3092.97 383.019 3092.97 389.48 Z" fill="#000000" fill-rule="evenodd" fill-opacity="1" /><path clip-path="url(#clip0700)" d="M 0 0 M3152.01 401.861 L3174.45 401.861 L3174.45 407.272 L3144.28 407.272 L3144.28 401.861 Q3147.94 398.074 3154.24 391.708 Q3160.58 385.31 3162.2 383.464 Q3165.29 379.995 3166.5 377.608 Q3167.74 375.189 3167.74 372.865 Q3167.74 369.078 3165.06 366.691 Q3162.42 364.304 3158.16 364.304 Q3155.13 364.304 3151.76 365.354 Q3148.42 366.404 3144.6 368.537 L3144.6 362.044 Q3148.48 360.484 3151.86 359.688 Q3155.23 358.893 3158.03 358.893 Q3165.41 358.893 3169.81 362.585 Q3174.2 366.277 3174.2 372.452 Q3174.2 375.38 3173.08 378.022 Q3172 380.632 3169.11 384.196 Q3168.31 385.119 3164.05 389.544 Q3159.78 393.936 3152.01 401.861 Z" fill="#000000" fill-rule="evenodd" fill-opacity="1" /><polyline clip-path="url(#clip0700)" style="stroke:#3da44d; stroke-width:16; stroke-opacity:1; fill:none" points="
  2745.92,443.992 2937.92,443.992 
  "/>
<path clip-path="url(#clip0700)" d="M 0 0 M2991.95 424.593 Q2984.95 424.593 2980.81 429.813 Q2976.7 435.032 2976.7 444.04 Q2976.7 453.016 2980.81 458.235 Q2984.95 463.455 2991.95 463.455 Q2998.95 463.455 3003.03 458.235 Q3007.13 453.016 3007.13 444.04 Q3007.13 435.032 3003.03 429.813 Q2998.95 424.593 2991.95 424.593 M3000.96 466.893 L3009.42 476.155 L3001.66 476.155 L2994.62 468.548 Q2993.57 468.611 2993 468.643 Q2992.46 468.675 2991.95 468.675 Q2981.92 468.675 2975.91 461.991 Q2969.92 455.275 2969.92 444.04 Q2969.92 432.773 2975.91 426.089 Q2981.92 419.373 2991.95 419.373 Q3001.94 419.373 3007.93 426.089 Q3013.91 432.773 3013.91 444.04 Q3013.91 452.315 3010.57 458.204 Q3007.26 464.092 3000.96 466.893 Z" fill="#000000" fill-rule="evenodd" fill-opacity="1" /><path clip-path="url(#clip0700)" d="M 0 0 M3019.45 453.684 L3019.45 432.104 L3025.31 432.104 L3025.31 453.461 Q3025.31 458.522 3027.28 461.068 Q3029.25 463.583 3033.2 463.583 Q3037.94 463.583 3040.68 460.559 Q3043.45 457.535 3043.45 452.315 L3043.45 432.104 L3049.3 432.104 L3049.3 467.752 L3043.45 467.752 L3043.45 462.278 Q3041.31 465.524 3038.48 467.116 Q3035.68 468.675 3031.96 468.675 Q3025.81 468.675 3022.63 464.856 Q3019.45 461.036 3019.45 453.684 M3034.19 431.245 L3034.19 431.245 Z" fill="#000000" fill-rule="evenodd" fill-opacity="1" /><path clip-path="url(#clip0700)" d="M 0 0 M3071.65 449.833 Q3064.55 449.833 3061.81 451.456 Q3059.08 453.079 3059.08 456.994 Q3059.08 460.113 3061.11 461.959 Q3063.18 463.774 3066.71 463.774 Q3071.58 463.774 3074.51 460.336 Q3077.47 456.867 3077.47 451.138 L3077.47 449.833 L3071.65 449.833 M3083.33 447.414 L3083.33 467.752 L3077.47 467.752 L3077.47 462.341 Q3075.47 465.588 3072.47 467.147 Q3069.48 468.675 3065.15 468.675 Q3059.68 468.675 3056.43 465.62 Q3053.22 462.532 3053.22 457.376 Q3053.22 451.36 3057.23 448.305 Q3061.27 445.249 3069.26 445.249 L3077.47 445.249 L3077.47 444.676 Q3077.47 440.634 3074.8 438.438 Q3072.16 436.21 3067.35 436.21 Q3064.29 436.21 3061.4 436.942 Q3058.5 437.674 3055.83 439.138 L3055.83 433.727 Q3059.04 432.486 3062.07 431.881 Q3065.09 431.245 3067.96 431.245 Q3075.69 431.245 3079.51 435.255 Q3083.33 439.266 3083.33 447.414 Z" fill="#000000" fill-rule="evenodd" fill-opacity="1" /><path clip-path="url(#clip0700)" d="M 0 0 M3112.93 437.515 L3112.93 418.227 L3118.79 418.227 L3118.79 467.752 L3112.93 467.752 L3112.93 462.405 Q3111.08 465.588 3108.25 467.147 Q3105.45 468.675 3101.5 468.675 Q3095.04 468.675 3090.97 463.519 Q3086.93 458.363 3086.93 449.96 Q3086.93 441.557 3090.97 436.401 Q3095.04 431.245 3101.5 431.245 Q3105.45 431.245 3108.25 432.804 Q3111.08 434.332 3112.93 437.515 M3092.97 449.96 Q3092.97 456.421 3095.61 460.113 Q3098.29 463.774 3102.93 463.774 Q3107.58 463.774 3110.26 460.113 Q3112.93 456.421 3112.93 449.96 Q3112.93 443.499 3110.26 439.839 Q3107.58 436.146 3102.93 436.146 Q3098.29 436.146 3095.61 439.839 Q3092.97 443.499 3092.97 449.96 Z" fill="#000000" fill-rule="evenodd" fill-opacity="1" /><path clip-path="url(#clip0700)" d="M 0 0 M3165.96 442.13 Q3170.57 443.117 3173.15 446.236 Q3175.76 449.355 3175.76 453.939 Q3175.76 460.973 3170.92 464.824 Q3166.08 468.675 3157.17 468.675 Q3154.18 468.675 3151 468.07 Q3147.84 467.497 3144.47 466.32 L3144.47 460.113 Q3147.14 461.673 3150.33 462.469 Q3153.51 463.264 3156.98 463.264 Q3163.03 463.264 3166.18 460.877 Q3169.36 458.49 3169.36 453.939 Q3169.36 449.737 3166.4 447.382 Q3163.47 444.995 3158.22 444.995 L3152.68 444.995 L3152.68 439.711 L3158.48 439.711 Q3163.22 439.711 3165.73 437.833 Q3168.25 435.924 3168.25 432.359 Q3168.25 428.699 3165.64 426.757 Q3163.06 424.784 3158.22 424.784 Q3155.58 424.784 3152.56 425.357 Q3149.53 425.929 3145.9 427.139 L3145.9 421.41 Q3149.56 420.391 3152.75 419.882 Q3155.96 419.373 3158.79 419.373 Q3166.11 419.373 3170.38 422.715 Q3174.64 426.025 3174.64 431.69 Q3174.64 435.637 3172.38 438.374 Q3170.12 441.08 3165.96 442.13 Z" fill="#000000" fill-rule="evenodd" fill-opacity="1" /><polyline clip-path="url(#clip0700)" style="stroke:#c271d2; stroke-width:16; stroke-opacity:1; fill:none" points="
  2745.92,504.472 2937.92,504.472 
  "/>
<path clip-path="url(#clip0700)" d="M 0 0 M2991.95 485.073 Q2984.95 485.073 2980.81 490.293 Q2976.7 495.512 2976.7 504.52 Q2976.7 513.496 2980.81 518.715 Q2984.95 523.935 2991.95 523.935 Q2998.95 523.935 3003.03 518.715 Q3007.13 513.496 3007.13 504.52 Q3007.13 495.512 3003.03 490.293 Q2998.95 485.073 2991.95 485.073 M3000.96 527.373 L3009.42 536.635 L3001.66 536.635 L2994.62 529.028 Q2993.57 529.091 2993 529.123 Q2992.46 529.155 2991.95 529.155 Q2981.92 529.155 2975.91 522.471 Q2969.92 515.755 2969.92 504.52 Q2969.92 493.253 2975.91 486.569 Q2981.92 479.853 2991.95 479.853 Q3001.94 479.853 3007.93 486.569 Q3013.91 493.253 3013.91 504.52 Q3013.91 512.795 3010.57 518.684 Q3007.26 524.572 3000.96 527.373 Z" fill="#000000" fill-rule="evenodd" fill-opacity="1" /><path clip-path="url(#clip0700)" d="M 0 0 M3019.45 514.164 L3019.45 492.584 L3025.31 492.584 L3025.31 513.941 Q3025.31 519.002 3027.28 521.548 Q3029.25 524.063 3033.2 524.063 Q3037.94 524.063 3040.68 521.039 Q3043.45 518.015 3043.45 512.795 L3043.45 492.584 L3049.3 492.584 L3049.3 528.232 L3043.45 528.232 L3043.45 522.758 Q3041.31 526.004 3038.48 527.596 Q3035.68 529.155 3031.96 529.155 Q3025.81 529.155 3022.63 525.336 Q3019.45 521.516 3019.45 514.164 M3034.19 491.725 L3034.19 491.725 Z" fill="#000000" fill-rule="evenodd" fill-opacity="1" /><path clip-path="url(#clip0700)" d="M 0 0 M3071.65 510.313 Q3064.55 510.313 3061.81 511.936 Q3059.08 513.559 3059.08 517.474 Q3059.08 520.593 3061.11 522.439 Q3063.18 524.254 3066.71 524.254 Q3071.58 524.254 3074.51 520.816 Q3077.47 517.347 3077.47 511.618 L3077.47 510.313 L3071.65 510.313 M3083.33 507.894 L3083.33 528.232 L3077.47 528.232 L3077.47 522.821 Q3075.47 526.068 3072.47 527.627 Q3069.48 529.155 3065.15 529.155 Q3059.68 529.155 3056.43 526.1 Q3053.22 523.012 3053.22 517.856 Q3053.22 511.84 3057.23 508.785 Q3061.27 505.729 3069.26 505.729 L3077.47 505.729 L3077.47 505.156 Q3077.47 501.114 3074.8 498.918 Q3072.16 496.69 3067.35 496.69 Q3064.29 496.69 3061.4 497.422 Q3058.5 498.154 3055.83 499.618 L3055.83 494.207 Q3059.04 492.966 3062.07 492.361 Q3065.09 491.725 3067.96 491.725 Q3075.69 491.725 3079.51 495.735 Q3083.33 499.746 3083.33 507.894 Z" fill="#000000" fill-rule="evenodd" fill-opacity="1" /><path clip-path="url(#clip0700)" d="M 0 0 M3112.93 497.995 L3112.93 478.707 L3118.79 478.707 L3118.79 528.232 L3112.93 528.232 L3112.93 522.885 Q3111.08 526.068 3108.25 527.627 Q3105.45 529.155 3101.5 529.155 Q3095.04 529.155 3090.97 523.999 Q3086.93 518.843 3086.93 510.44 Q3086.93 502.037 3090.97 496.881 Q3095.04 491.725 3101.5 491.725 Q3105.45 491.725 3108.25 493.284 Q3111.08 494.812 3112.93 497.995 M3092.97 510.44 Q3092.97 516.901 3095.61 520.593 Q3098.29 524.254 3102.93 524.254 Q3107.58 524.254 3110.26 520.593 Q3112.93 516.901 3112.93 510.44 Q3112.93 503.979 3110.26 500.319 Q3107.58 496.626 3102.93 496.626 Q3098.29 496.626 3095.61 500.319 Q3092.97 503.979 3092.97 510.44 Z" fill="#000000" fill-rule="evenodd" fill-opacity="1" /><path clip-path="url(#clip0700)" d="M 0 0 M3164.14 486.314 L3147.91 511.681 L3164.14 511.681 L3164.14 486.314 M3162.45 480.712 L3170.54 480.712 L3170.54 511.681 L3177.32 511.681 L3177.32 517.028 L3170.54 517.028 L3170.54 528.232 L3164.14 528.232 L3164.14 517.028 L3142.69 517.028 L3142.69 510.822 L3162.45 480.712 Z" fill="#000000" fill-rule="evenodd" fill-opacity="1" /><polyline clip-path="url(#clip0700)" style="stroke:#ac8d18; stroke-width:16; stroke-opacity:1; fill:none" points="
  2745.92,564.952 2937.92,564.952 
  "/>
<path clip-path="url(#clip0700)" d="M 0 0 M2991.95 545.553 Q2984.95 545.553 2980.81 550.773 Q2976.7 555.992 2976.7 565 Q2976.7 573.976 2980.81 579.195 Q2984.95 584.415 2991.95 584.415 Q2998.95 584.415 3003.03 579.195 Q3007.13 573.976 3007.13 565 Q3007.13 555.992 3003.03 550.773 Q2998.95 545.553 2991.95 545.553 M3000.96 587.853 L3009.42 597.115 L3001.66 597.115 L2994.62 589.508 Q2993.57 589.571 2993 589.603 Q2992.46 589.635 2991.95 589.635 Q2981.92 589.635 2975.91 582.951 Q2969.92 576.235 2969.92 565 Q2969.92 553.733 2975.91 547.049 Q2981.92 540.333 2991.95 540.333 Q3001.94 540.333 3007.93 547.049 Q3013.91 553.733 3013.91 565 Q3013.91 573.275 3010.57 579.164 Q3007.26 585.052 3000.96 587.853 Z" fill="#000000" fill-rule="evenodd" fill-opacity="1" /><path clip-path="url(#clip0700)" d="M 0 0 M3019.45 574.644 L3019.45 553.064 L3025.31 553.064 L3025.31 574.421 Q3025.31 579.482 3027.28 582.028 Q3029.25 584.543 3033.2 584.543 Q3037.94 584.543 3040.68 581.519 Q3043.45 578.495 3043.45 573.275 L3043.45 553.064 L3049.3 553.064 L3049.3 588.712 L3043.45 588.712 L3043.45 583.238 Q3041.31 586.484 3038.48 588.076 Q3035.68 589.635 3031.96 589.635 Q3025.81 589.635 3022.63 585.816 Q3019.45 581.996 3019.45 574.644 M3034.19 552.205 L3034.19 552.205 Z" fill="#000000" fill-rule="evenodd" fill-opacity="1" /><path clip-path="url(#clip0700)" d="M 0 0 M3071.65 570.793 Q3064.55 570.793 3061.81 572.416 Q3059.08 574.039 3059.08 577.954 Q3059.08 581.073 3061.11 582.919 Q3063.18 584.734 3066.71 584.734 Q3071.58 584.734 3074.51 581.296 Q3077.47 577.827 3077.47 572.098 L3077.47 570.793 L3071.65 570.793 M3083.33 568.374 L3083.33 588.712 L3077.47 588.712 L3077.47 583.301 Q3075.47 586.548 3072.47 588.107 Q3069.48 589.635 3065.15 589.635 Q3059.68 589.635 3056.43 586.58 Q3053.22 583.492 3053.22 578.336 Q3053.22 572.32 3057.23 569.265 Q3061.27 566.209 3069.26 566.209 L3077.47 566.209 L3077.47 565.636 Q3077.47 561.594 3074.8 559.398 Q3072.16 557.17 3067.35 557.17 Q3064.29 557.17 3061.4 557.902 Q3058.5 558.634 3055.83 560.098 L3055.83 554.687 Q3059.04 553.446 3062.07 552.841 Q3065.09 552.205 3067.96 552.205 Q3075.69 552.205 3079.51 556.215 Q3083.33 560.226 3083.33 568.374 Z" fill="#000000" fill-rule="evenodd" fill-opacity="1" /><path clip-path="url(#clip0700)" d="M 0 0 M3112.93 558.475 L3112.93 539.187 L3118.79 539.187 L3118.79 588.712 L3112.93 588.712 L3112.93 583.365 Q3111.08 586.548 3108.25 588.107 Q3105.45 589.635 3101.5 589.635 Q3095.04 589.635 3090.97 584.479 Q3086.93 579.323 3086.93 570.92 Q3086.93 562.517 3090.97 557.361 Q3095.04 552.205 3101.5 552.205 Q3105.45 552.205 3108.25 553.764 Q3111.08 555.292 3112.93 558.475 M3092.97 570.92 Q3092.97 577.381 3095.61 581.073 Q3098.29 584.734 3102.93 584.734 Q3107.58 584.734 3110.26 581.073 Q3112.93 577.381 3112.93 570.92 Q3112.93 564.459 3110.26 560.799 Q3107.58 557.106 3102.93 557.106 Q3098.29 557.106 3095.61 560.799 Q3092.97 564.459 3092.97 570.92 Z" fill="#000000" fill-rule="evenodd" fill-opacity="1" /><path clip-path="url(#clip0700)" d="M 0 0 M3146.54 541.192 L3171.78 541.192 L3171.78 546.603 L3152.43 546.603 L3152.43 558.252 Q3153.83 557.775 3155.23 557.552 Q3156.63 557.297 3158.03 557.297 Q3165.99 557.297 3170.63 561.658 Q3175.28 566.018 3175.28 573.466 Q3175.28 581.137 3170.51 585.402 Q3165.73 589.635 3157.04 589.635 Q3154.05 589.635 3150.93 589.126 Q3147.84 588.617 3144.53 587.598 L3144.53 581.137 Q3147.4 582.697 3150.45 583.46 Q3153.51 584.224 3156.92 584.224 Q3162.42 584.224 3165.64 581.328 Q3168.85 578.432 3168.85 573.466 Q3168.85 568.501 3165.64 565.605 Q3162.42 562.708 3156.92 562.708 Q3154.34 562.708 3151.76 563.281 Q3149.21 563.854 3146.54 565.064 L3146.54 541.192 Z" fill="#000000" fill-rule="evenodd" fill-opacity="1" /><polyline clip-path="url(#clip0700)" style="stroke:#00a9ad; stroke-width:16; stroke-opacity:1; fill:none" points="
  2745.92,625.432 2937.92,625.432 
  "/>
<path clip-path="url(#clip0700)" d="M 0 0 M2991.95 606.033 Q2984.95 606.033 2980.81 611.253 Q2976.7 616.472 2976.7 625.48 Q2976.7 634.456 2980.81 639.675 Q2984.95 644.895 2991.95 644.895 Q2998.95 644.895 3003.03 639.675 Q3007.13 634.456 3007.13 625.48 Q3007.13 616.472 3003.03 611.253 Q2998.95 606.033 2991.95 606.033 M3000.96 648.333 L3009.42 657.595 L3001.66 657.595 L2994.62 649.988 Q2993.57 650.051 2993 650.083 Q2992.46 650.115 2991.95 650.115 Q2981.92 650.115 2975.91 643.431 Q2969.92 636.715 2969.92 625.48 Q2969.92 614.213 2975.91 607.529 Q2981.92 600.813 2991.95 600.813 Q3001.94 600.813 3007.93 607.529 Q3013.91 614.213 3013.91 625.48 Q3013.91 633.755 3010.57 639.644 Q3007.26 645.532 3000.96 648.333 Z" fill="#000000" fill-rule="evenodd" fill-opacity="1" /><path clip-path="url(#clip0700)" d="M 0 0 M3019.45 635.124 L3019.45 613.544 L3025.31 613.544 L3025.31 634.901 Q3025.31 639.962 3027.28 642.508 Q3029.25 645.023 3033.2 645.023 Q3037.94 645.023 3040.68 641.999 Q3043.45 638.975 3043.45 633.755 L3043.45 613.544 L3049.3 613.544 L3049.3 649.192 L3043.45 649.192 L3043.45 643.718 Q3041.31 646.964 3038.48 648.556 Q3035.68 650.115 3031.96 650.115 Q3025.81 650.115 3022.63 646.296 Q3019.45 642.476 3019.45 635.124 M3034.19 612.685 L3034.19 612.685 Z" fill="#000000" fill-rule="evenodd" fill-opacity="1" /><path clip-path="url(#clip0700)" d="M 0 0 M3071.65 631.273 Q3064.55 631.273 3061.81 632.896 Q3059.08 634.519 3059.08 638.434 Q3059.08 641.553 3061.11 643.399 Q3063.18 645.214 3066.71 645.214 Q3071.58 645.214 3074.51 641.776 Q3077.47 638.307 3077.47 632.578 L3077.47 631.273 L3071.65 631.273 M3083.33 628.854 L3083.33 649.192 L3077.47 649.192 L3077.47 643.781 Q3075.47 647.028 3072.47 648.587 Q3069.48 650.115 3065.15 650.115 Q3059.68 650.115 3056.43 647.06 Q3053.22 643.972 3053.22 638.816 Q3053.22 632.8 3057.23 629.745 Q3061.27 626.689 3069.26 626.689 L3077.47 626.689 L3077.47 626.116 Q3077.47 622.074 3074.8 619.878 Q3072.16 617.65 3067.35 617.65 Q3064.29 617.65 3061.4 618.382 Q3058.5 619.114 3055.83 620.578 L3055.83 615.167 Q3059.04 613.926 3062.07 613.321 Q3065.09 612.685 3067.96 612.685 Q3075.69 612.685 3079.51 616.695 Q3083.33 620.706 3083.33 628.854 Z" fill="#000000" fill-rule="evenodd" fill-opacity="1" /><path clip-path="url(#clip0700)" d="M 0 0 M3112.93 618.955 L3112.93 599.667 L3118.79 599.667 L3118.79 649.192 L3112.93 649.192 L3112.93 643.845 Q3111.08 647.028 3108.25 648.587 Q3105.45 650.115 3101.5 650.115 Q3095.04 650.115 3090.97 644.959 Q3086.93 639.803 3086.93 631.4 Q3086.93 622.997 3090.97 617.841 Q3095.04 612.685 3101.5 612.685 Q3105.45 612.685 3108.25 614.244 Q3111.08 615.772 3112.93 618.955 M3092.97 631.4 Q3092.97 637.861 3095.61 641.553 Q3098.29 645.214 3102.93 645.214 Q3107.58 645.214 3110.26 641.553 Q3112.93 637.861 3112.93 631.4 Q3112.93 624.939 3110.26 621.279 Q3107.58 617.586 3102.93 617.586 Q3098.29 617.586 3095.61 621.279 Q3092.97 624.939 3092.97 631.4 Z" fill="#000000" fill-rule="evenodd" fill-opacity="1" /><path clip-path="url(#clip0700)" d="M 0 0 M3161.02 622.87 Q3156.69 622.87 3154.15 625.83 Q3151.63 628.79 3151.63 633.946 Q3151.63 639.071 3154.15 642.063 Q3156.69 645.023 3161.02 645.023 Q3165.35 645.023 3167.87 642.063 Q3170.41 639.071 3170.41 633.946 Q3170.41 628.79 3167.87 625.83 Q3165.35 622.87 3161.02 622.87 M3173.79 602.722 L3173.79 608.579 Q3171.37 607.433 3168.88 606.828 Q3166.43 606.224 3164.01 606.224 Q3157.65 606.224 3154.27 610.52 Q3150.93 614.817 3150.45 623.506 Q3152.33 620.737 3155.17 619.273 Q3158 617.777 3161.4 617.777 Q3168.57 617.777 3172.7 622.138 Q3176.87 626.467 3176.87 633.946 Q3176.87 641.267 3172.54 645.691 Q3168.22 650.115 3161.02 650.115 Q3152.78 650.115 3148.42 643.813 Q3144.06 637.479 3144.06 625.48 Q3144.06 614.213 3149.4 607.529 Q3154.75 600.813 3163.76 600.813 Q3166.18 600.813 3168.63 601.29 Q3171.11 601.768 3173.79 602.722 Z" fill="#000000" fill-rule="evenodd" fill-opacity="1" /><polyline clip-path="url(#clip0700)" style="stroke:#ed5d92; stroke-width:16; stroke-opacity:1; fill:none" points="
  2745.92,685.912 2937.92,685.912 
  "/>
<path clip-path="url(#clip0700)" d="M 0 0 M2969.92 662.152 L2976.35 662.152 L2976.35 704.261 L2999.49 704.261 L2999.49 709.672 L2969.92 709.672 L2969.92 662.152 Z" fill="#000000" fill-rule="evenodd" fill-opacity="1" /><path clip-path="url(#clip0700)" d="M 0 0 M3018.3 678.13 Q3013.59 678.13 3010.85 681.822 Q3008.12 685.482 3008.12 691.88 Q3008.12 698.278 3010.82 701.97 Q3013.56 705.63 3018.3 705.63 Q3022.98 705.63 3025.72 701.938 Q3028.46 698.246 3028.46 691.88 Q3028.46 685.546 3025.72 681.854 Q3022.98 678.13 3018.3 678.13 M3018.3 673.165 Q3025.94 673.165 3030.3 678.13 Q3034.66 683.095 3034.66 691.88 Q3034.66 700.633 3030.3 705.63 Q3025.94 710.595 3018.3 710.595 Q3010.63 710.595 3006.27 705.63 Q3001.94 700.633 3001.94 691.88 Q3001.94 683.095 3006.27 678.13 Q3010.63 673.165 3018.3 673.165 Z" fill="#000000" fill-rule="evenodd" fill-opacity="1" /><path clip-path="url(#clip0700)" d="M 0 0 M3057.01 691.753 Q3049.91 691.753 3047.17 693.376 Q3044.43 694.999 3044.43 698.914 Q3044.43 702.033 3046.47 703.879 Q3048.54 705.694 3052.07 705.694 Q3056.94 705.694 3059.87 702.256 Q3062.83 698.787 3062.83 693.058 L3062.83 691.753 L3057.01 691.753 M3068.69 689.334 L3068.69 709.672 L3062.83 709.672 L3062.83 704.261 Q3060.83 707.508 3057.83 709.067 Q3054.84 710.595 3050.51 710.595 Q3045.04 710.595 3041.79 707.54 Q3038.58 704.452 3038.58 699.296 Q3038.58 693.28 3042.59 690.225 Q3046.63 687.169 3054.62 687.169 L3062.83 687.169 L3062.83 686.596 Q3062.83 682.554 3060.16 680.358 Q3057.52 678.13 3052.71 678.13 Q3049.65 678.13 3046.76 678.862 Q3043.86 679.594 3041.19 681.058 L3041.19 675.647 Q3044.4 674.406 3047.43 673.801 Q3050.45 673.165 3053.31 673.165 Q3061.05 673.165 3064.87 677.175 Q3068.69 681.186 3068.69 689.334 Z" fill="#000000" fill-rule="evenodd" fill-opacity="1" /><path clip-path="url(#clip0700)" d="M 0 0 M3098.29 679.435 L3098.29 660.147 L3104.14 660.147 L3104.14 709.672 L3098.29 709.672 L3098.29 704.325 Q3096.44 707.508 3093.61 709.067 Q3090.81 710.595 3086.86 710.595 Q3080.4 710.595 3076.33 705.439 Q3072.28 700.283 3072.28 691.88 Q3072.28 683.477 3076.33 678.321 Q3080.4 673.165 3086.86 673.165 Q3090.81 673.165 3093.61 674.724 Q3096.44 676.252 3098.29 679.435 M3078.33 691.88 Q3078.33 698.341 3080.97 702.033 Q3083.65 705.694 3088.29 705.694 Q3092.94 705.694 3095.61 702.033 Q3098.29 698.341 3098.29 691.88 Q3098.29 685.419 3095.61 681.759 Q3092.94 678.066 3088.29 678.066 Q3083.65 678.066 3080.97 681.759 Q3078.33 685.419 3078.33 691.88 Z" fill="#000000" fill-rule="evenodd" fill-opacity="1" /></svg>
