<?xml version="1.0" encoding="utf-8"?>
<svg xmlns="http://www.w3.org/2000/svg" xmlns:xlink="http://www.w3.org/1999/xlink" width="800" height="600" viewBox="0 0 3200 2400">
<defs>
  <clipPath id="clip9800">
    <rect x="0" y="0" width="3200" height="2400"/>
  </clipPath>
</defs>
<path clip-path="url(#clip9800)" d="
M0 2400 L3200 2400 L3200 0 L0 0  Z
  " fill="#ffffff" fill-rule="evenodd" fill-opacity="1"/>
<defs>
  <clipPath id="clip9801">
    <rect x="640" y="0" width="2241" height="2241"/>
  </clipPath>
</defs>
<path clip-path="url(#clip9800)" d="
M239.663 2204.92 L2617.92 2204.92 L2617.92 131.032 L239.663 131.032  Z
  " fill="#ffffff" fill-rule="evenodd" fill-opacity="1"/>
<defs>
  <clipPath id="clip9802">
    <rect x="239" y="131" width="2379" height="2075"/>
  </clipPath>
</defs>
<polyline clip-path="url(#clip9802)" style="stroke:#000000; stroke-width:2; stroke-opacity:0.1; fill:none" points="
  306.972,2204.92 306.972,131.032 
  "/>
<polyline clip-path="url(#clip9802)" style="stroke:#000000; stroke-width:2; stroke-opacity:0.1; fill:none" points="
  755.7,2204.92 755.7,131.032 
  "/>
<polyline clip-path="url(#clip9802)" style="stroke:#000000; stroke-width:2; stroke-opacity:0.1; fill:none" points="
  1204.43,2204.92 1204.43,131.032 
  "/>
<polyline clip-path="url(#clip9802)" style="stroke:#000000; stroke-width:2; stroke-opacity:0.1; fill:none" points="
  1653.16,2204.92 1653.16,131.032 
  "/>
<polyline clip-path="url(#clip9802)" style="stroke:#000000; stroke-width:2; stroke-opacity:0.1; fill:none" points="
  2101.89,2204.92 2101.89,131.032 
  "/>
<polyline clip-path="url(#clip9802)" style="stroke:#000000; stroke-width:2; stroke-opacity:0.1; fill:none" points="
  2550.61,2204.92 2550.61,131.032 
  "/>
<polyline clip-path="url(#clip9802)" style="stroke:#000000; stroke-width:2; stroke-opacity:0.1; fill:none" points="
  239.663,1715.51 2617.92,1715.51 
  "/>
<polyline clip-path="url(#clip9802)" style="stroke:#000000; stroke-width:2; stroke-opacity:0.1; fill:none" points="
  239.663,1206.92 2617.92,1206.92 
  "/>
<polyline clip-path="url(#clip9802)" style="stroke:#000000; stroke-width:2; stroke-opacity:0.1; fill:none" points="
  239.663,698.338 2617.92,698.338 
  "/>
<polyline clip-path="url(#clip9802)" style="stroke:#000000; stroke-width:2; stroke-opacity:0.1; fill:none" points="
  239.663,189.754 2617.92,189.754 
  "/>
<polyline clip-path="url(#clip9800)" style="stroke:#000000; stroke-width:4; stroke-opacity:1; fill:none" points="
  239.663,2204.92 2617.92,2204.92 
  "/>
<polyline clip-path="url(#clip9800)" style="stroke:#000000; stroke-width:4; stroke-opacity:1; fill:none" points="
  239.663,2204.92 239.663,131.032 
  "/>
<polyline clip-path="url(#clip9800)" style="stroke:#000000; stroke-width:4; stroke-opacity:1; fill:none" points="
  306.972,2204.92 306.972,2180.03 
  "/>
<polyline clip-path="url(#clip9800)" style="stroke:#000000; stroke-width:4; stroke-opacity:1; fill:none" points="
  755.7,2204.92 755.7,2180.03 
  "/>
<polyline clip-path="url(#clip9800)" style="stroke:#000000; stroke-width:4; stroke-opacity:1; fill:none" points="
  1204.43,2204.92 1204.43,2180.03 
  "/>
<polyline clip-path="url(#clip9800)" style="stroke:#000000; stroke-width:4; stroke-opacity:1; fill:none" points="
  1653.16,2204.92 1653.16,2180.03 
  "/>
<polyline clip-path="url(#clip9800)" style="stroke:#000000; stroke-width:4; stroke-opacity:1; fill:none" points="
  2101.89,2204.92 2101.89,2180.03 
  "/>
<polyline clip-path="url(#clip9800)" style="stroke:#000000; stroke-width:4; stroke-opacity:1; fill:none" points="
  2550.61,2204.92 2550.61,2180.03 
  "/>
<polyline clip-path="url(#clip9800)" style="stroke:#000000; stroke-width:4; stroke-opacity:1; fill:none" points="
  239.663,1715.51 268.202,1715.51 
  "/>
<polyline clip-path="url(#clip9800)" style="stroke:#000000; stroke-width:4; stroke-opacity:1; fill:none" points="
  239.663,1206.92 268.202,1206.92 
  "/>
<polyline clip-path="url(#clip9800)" style="stroke:#000000; stroke-width:4; stroke-opacity:1; fill:none" points="
  239.663,698.338 268.202,698.338 
  "/>
<polyline clip-path="url(#clip9800)" style="stroke:#000000; stroke-width:4; stroke-opacity:1; fill:none" points="
  239.663,189.754 268.202,189.754 
  "/>
<path clip-path="url(#clip9800)" d="M 0 0 M306.972 2230.91 Q303.361 2230.91 301.532 2234.48 Q299.727 2238.02 299.727 2245.15 Q299.727 2252.25 301.532 2255.82 Q303.361 2259.36 306.972 2259.36 Q310.606 2259.36 312.412 2255.82 Q314.24 2252.25 314.24 2245.15 Q314.24 2238.02 312.412 2234.48 Q310.606 2230.91 306.972 2230.91 M306.972 2227.21 Q312.782 2227.21 315.838 2231.81 Q318.916 2236.4 318.916 2245.15 Q318.916 2253.87 315.838 2258.48 Q312.782 2263.06 306.972 2263.06 Q301.162 2263.06 298.083 2258.48 Q295.028 2253.87 295.028 2245.15 Q295.028 2236.4 298.083 2231.81 Q301.162 2227.21 306.972 2227.21 Z" fill="#000000" fill-rule="evenodd" fill-opacity="1" /><path clip-path="url(#clip9800)" d="M 0 0 M746.082 2258.46 L753.721 2258.46 L753.721 2232.09 L745.411 2233.76 L745.411 2229.5 L753.675 2227.83 L758.351 2227.83 L758.351 2258.46 L765.99 2258.46 L765.99 2262.39 L746.082 2262.39 L746.082 2258.46 Z" fill="#000000" fill-rule="evenodd" fill-opacity="1" /><path clip-path="url(#clip9800)" d="M 0 0 M1199.08 2258.46 L1215.4 2258.46 L1215.4 2262.39 L1193.46 2262.39 L1193.46 2258.46 Q1196.12 2255.7 1200.7 2251.07 Q1205.31 2246.42 1206.49 2245.08 Q1208.73 2242.55 1209.61 2240.82 Q1210.52 2239.06 1210.52 2237.37 Q1210.52 2234.61 1208.57 2232.88 Q1206.65 2231.14 1203.55 2231.14 Q1201.35 2231.14 1198.9 2231.91 Q1196.47 2232.67 1193.69 2234.22 L1193.69 2229.5 Q1196.51 2228.36 1198.97 2227.79 Q1201.42 2227.21 1203.46 2227.21 Q1208.83 2227.21 1212.02 2229.89 Q1215.22 2232.58 1215.22 2237.07 Q1215.22 2239.2 1214.41 2241.12 Q1213.62 2243.02 1211.51 2245.61 Q1210.93 2246.28 1207.83 2249.5 Q1204.73 2252.69 1199.08 2258.46 Z" fill="#000000" fill-rule="evenodd" fill-opacity="1" /><path clip-path="url(#clip9800)" d="M 0 0 M1657.4 2243.76 Q1660.76 2244.48 1662.64 2246.74 Q1664.53 2249.01 1664.53 2252.35 Q1664.53 2257.46 1661.02 2260.26 Q1657.5 2263.06 1651.02 2263.06 Q1648.84 2263.06 1646.53 2262.62 Q1644.23 2262.21 1641.78 2261.35 L1641.78 2256.84 Q1643.72 2257.97 1646.04 2258.55 Q1648.35 2259.13 1650.88 2259.13 Q1655.28 2259.13 1657.57 2257.39 Q1659.88 2255.66 1659.88 2252.35 Q1659.88 2249.29 1657.73 2247.58 Q1655.6 2245.84 1651.78 2245.84 L1647.75 2245.84 L1647.75 2242 L1651.97 2242 Q1655.41 2242 1657.24 2240.63 Q1659.07 2239.24 1659.07 2236.65 Q1659.07 2233.99 1657.17 2232.58 Q1655.3 2231.14 1651.78 2231.14 Q1649.86 2231.14 1647.66 2231.56 Q1645.46 2231.98 1642.82 2232.85 L1642.82 2228.69 Q1645.48 2227.95 1647.8 2227.58 Q1650.14 2227.21 1652.2 2227.21 Q1657.52 2227.21 1660.62 2229.64 Q1663.72 2232.04 1663.72 2236.17 Q1663.72 2239.04 1662.08 2241.03 Q1660.44 2242.99 1657.4 2243.76 Z" fill="#000000" fill-rule="evenodd" fill-opacity="1" /><path clip-path="url(#clip9800)" d="M 0 0 M2104.89 2231.91 L2093.09 2250.35 L2104.89 2250.35 L2104.89 2231.91 M2103.67 2227.83 L2109.55 2227.83 L2109.55 2250.35 L2114.48 2250.35 L2114.48 2254.24 L2109.55 2254.24 L2109.55 2262.39 L2104.89 2262.39 L2104.89 2254.24 L2089.29 2254.24 L2089.29 2249.73 L2103.67 2227.83 Z" fill="#000000" fill-rule="evenodd" fill-opacity="1" /><path clip-path="url(#clip9800)" d="M 0 0 M2540.89 2227.83 L2559.25 2227.83 L2559.25 2231.77 L2545.17 2231.77 L2545.17 2240.24 Q2546.19 2239.89 2547.21 2239.73 Q2548.23 2239.54 2549.25 2239.54 Q2555.04 2239.54 2558.42 2242.72 Q2561.79 2245.89 2561.79 2251.3 Q2561.79 2256.88 2558.32 2259.98 Q2554.85 2263.06 2548.53 2263.06 Q2546.35 2263.06 2544.09 2262.69 Q2541.84 2262.32 2539.43 2261.58 L2539.43 2256.88 Q2541.52 2258.02 2543.74 2258.57 Q2545.96 2259.13 2548.44 2259.13 Q2552.44 2259.13 2554.78 2257.02 Q2557.12 2254.92 2557.12 2251.3 Q2557.12 2247.69 2554.78 2245.59 Q2552.44 2243.48 2548.44 2243.48 Q2546.56 2243.48 2544.69 2243.9 Q2542.84 2244.31 2540.89 2245.19 L2540.89 2227.83 Z" fill="#000000" fill-rule="evenodd" fill-opacity="1" /><path clip-path="url(#clip9800)" d="M 0 0 M133.427 1717.9 L145.904 1717.9 L145.904 1721.7 L133.427 1721.7 L133.427 1717.9 Z" fill="#000000" fill-rule="evenodd" fill-opacity="1" /><path clip-path="url(#clip9800)" d="M 0 0 M151.783 1728.85 L159.422 1728.85 L159.422 1702.49 L151.112 1704.15 L151.112 1699.89 L159.376 1698.23 L164.052 1698.23 L164.052 1728.85 L171.691 1728.85 L171.691 1732.79 L151.783 1732.79 L151.783 1728.85 Z" fill="#000000" fill-rule="evenodd" fill-opacity="1" /><path clip-path="url(#clip9800)" d="M 0 0 M176.76 1726.91 L181.644 1726.91 L181.644 1732.79 L176.76 1732.79 L176.76 1726.91 Z" fill="#000000" fill-rule="evenodd" fill-opacity="1" /><path clip-path="url(#clip9800)" d="M 0 0 M186.76 1698.23 L205.116 1698.23 L205.116 1702.16 L191.042 1702.16 L191.042 1710.63 Q192.061 1710.29 193.079 1710.12 Q194.098 1709.94 195.116 1709.94 Q200.903 1709.94 204.283 1713.11 Q207.663 1716.28 207.663 1721.7 Q207.663 1727.28 204.191 1730.38 Q200.718 1733.46 194.399 1733.46 Q192.223 1733.46 189.954 1733.09 Q187.709 1732.72 185.302 1731.98 L185.302 1727.28 Q187.385 1728.41 189.607 1728.97 Q191.829 1729.52 194.306 1729.52 Q198.311 1729.52 200.649 1727.42 Q202.987 1725.31 202.987 1721.7 Q202.987 1718.09 200.649 1715.98 Q198.311 1713.87 194.306 1713.87 Q192.431 1713.87 190.556 1714.29 Q188.704 1714.71 186.76 1715.59 L186.76 1698.23 Z" fill="#000000" fill-rule="evenodd" fill-opacity="1" /><path clip-path="url(#clip9800)" d="M 0 0 M132.432 1209.32 L144.908 1209.32 L144.908 1213.11 L132.432 1213.11 L132.432 1209.32 Z" fill="#000000" fill-rule="evenodd" fill-opacity="1" /><path clip-path="url(#clip9800)" d="M 0 0 M150.788 1220.27 L158.427 1220.27 L158.427 1193.9 L150.117 1195.57 L150.117 1191.31 L158.381 1189.64 L163.056 1189.64 L163.056 1220.27 L170.695 1220.27 L170.695 1224.2 L150.788 1224.2 L150.788 1220.27 Z" fill="#000000" fill-rule="evenodd" fill-opacity="1" /><path clip-path="url(#clip9800)" d="M 0 0 M175.765 1218.32 L180.649 1218.32 L180.649 1224.2 L175.765 1224.2 L175.765 1218.32 Z" fill="#000000" fill-rule="evenodd" fill-opacity="1" /><path clip-path="url(#clip9800)" d="M 0 0 M195.718 1192.72 Q192.107 1192.72 190.279 1196.29 Q188.473 1199.83 188.473 1206.96 Q188.473 1214.06 190.279 1217.63 Q192.107 1221.17 195.718 1221.17 Q199.353 1221.17 201.158 1217.63 Q202.987 1214.06 202.987 1206.96 Q202.987 1199.83 201.158 1196.29 Q199.353 1192.72 195.718 1192.72 M195.718 1189.02 Q201.528 1189.02 204.584 1193.62 Q207.663 1198.21 207.663 1206.96 Q207.663 1215.68 204.584 1220.29 Q201.528 1224.87 195.718 1224.87 Q189.908 1224.87 186.829 1220.29 Q183.774 1215.68 183.774 1206.96 Q183.774 1198.21 186.829 1193.62 Q189.908 1189.02 195.718 1189.02 Z" fill="#000000" fill-rule="evenodd" fill-opacity="1" /><path clip-path="url(#clip9800)" d="M 0 0 M132.2 700.734 L144.677 700.734 L144.677 704.53 L132.2 704.53 L132.2 700.734 Z" fill="#000000" fill-rule="evenodd" fill-opacity="1" /><path clip-path="url(#clip9800)" d="M 0 0 M159.746 684.137 Q156.135 684.137 154.307 687.702 Q152.501 691.243 152.501 698.373 Q152.501 705.479 154.307 709.044 Q156.135 712.586 159.746 712.586 Q163.381 712.586 165.186 709.044 Q167.015 705.479 167.015 698.373 Q167.015 691.243 165.186 687.702 Q163.381 684.137 159.746 684.137 M159.746 680.433 Q165.556 680.433 168.612 685.04 Q171.691 689.623 171.691 698.373 Q171.691 707.1 168.612 711.706 Q165.556 716.289 159.746 716.289 Q153.936 716.289 150.857 711.706 Q147.802 707.1 147.802 698.373 Q147.802 689.623 150.857 685.04 Q153.936 680.433 159.746 680.433 Z" fill="#000000" fill-rule="evenodd" fill-opacity="1" /><path clip-path="url(#clip9800)" d="M 0 0 M176.76 709.739 L181.644 709.739 L181.644 715.618 L176.76 715.618 L176.76 709.739 Z" fill="#000000" fill-rule="evenodd" fill-opacity="1" /><path clip-path="url(#clip9800)" d="M 0 0 M186.76 681.058 L205.116 681.058 L205.116 684.993 L191.042 684.993 L191.042 693.465 Q192.061 693.118 193.079 692.956 Q194.098 692.771 195.116 692.771 Q200.903 692.771 204.283 695.942 Q207.663 699.114 207.663 704.53 Q207.663 710.109 204.191 713.211 Q200.718 716.289 194.399 716.289 Q192.223 716.289 189.954 715.919 Q187.709 715.549 185.302 714.808 L185.302 710.109 Q187.385 711.243 189.607 711.799 Q191.829 712.354 194.306 712.354 Q198.311 712.354 200.649 710.248 Q202.987 708.141 202.987 704.53 Q202.987 700.919 200.649 698.813 Q198.311 696.706 194.306 696.706 Q192.431 696.706 190.556 697.123 Q188.704 697.54 186.76 698.419 L186.76 681.058 Z" fill="#000000" fill-rule="evenodd" fill-opacity="1" /><path clip-path="url(#clip9800)" d="M 0 0 M158.751 175.553 Q155.14 175.553 153.311 179.117 Q151.506 182.659 151.506 189.789 Q151.506 196.895 153.311 200.46 Q155.14 204.002 158.751 204.002 Q162.385 204.002 164.191 200.46 Q166.019 196.895 166.019 189.789 Q166.019 182.659 164.191 179.117 Q162.385 175.553 158.751 175.553 M158.751 171.849 Q164.561 171.849 167.617 176.455 Q170.695 181.039 170.695 189.789 Q170.695 198.516 167.617 203.122 Q164.561 207.705 158.751 207.705 Q152.941 207.705 149.862 203.122 Q146.807 198.516 146.807 189.789 Q146.807 181.039 149.862 176.455 Q152.941 171.849 158.751 171.849 Z" fill="#000000" fill-rule="evenodd" fill-opacity="1" /><path clip-path="url(#clip9800)" d="M 0 0 M175.765 201.154 L180.649 201.154 L180.649 207.034 L175.765 207.034 L175.765 201.154 Z" fill="#000000" fill-rule="evenodd" fill-opacity="1" /><path clip-path="url(#clip9800)" d="M 0 0 M195.718 175.553 Q192.107 175.553 190.279 179.117 Q188.473 182.659 188.473 189.789 Q188.473 196.895 190.279 200.46 Q192.107 204.002 195.718 204.002 Q199.353 204.002 201.158 200.46 Q202.987 196.895 202.987 189.789 Q202.987 182.659 201.158 179.117 Q199.353 175.553 195.718 175.553 M195.718 171.849 Q201.528 171.849 204.584 176.455 Q207.663 181.039 207.663 189.789 Q207.663 198.516 204.584 203.122 Q201.528 207.705 195.718 207.705 Q189.908 207.705 186.829 203.122 Q183.774 198.516 183.774 189.789 Q183.774 181.039 186.829 176.455 Q189.908 171.849 195.718 171.849 Z" fill="#000000" fill-rule="evenodd" fill-opacity="1" /><path clip-path="url(#clip9800)" d="M 0 0 M462.652 12.096 L470.835 12.096 L470.835 36.8875 L500.569 36.8875 L500.569 12.096 L508.752 12.096 L508.752 72.576 L500.569 72.576 L500.569 43.7741 L470.835 43.7741 L470.835 72.576 L462.652 72.576 L462.652 12.096 Z" fill="#000000" fill-rule="evenodd" fill-opacity="1" /><path clip-path="url(#clip9800)" d="M 0 0 M534.151 32.4315 Q528.156 32.4315 524.672 37.1306 Q521.188 41.7891 521.188 49.9314 Q521.188 58.0738 524.631 62.7728 Q528.115 67.4314 534.151 67.4314 Q540.106 67.4314 543.589 62.7323 Q547.073 58.0333 547.073 49.9314 Q547.073 41.8701 543.589 37.1711 Q540.106 32.4315 534.151 32.4315 M534.151 26.1121 Q543.873 26.1121 549.423 32.4315 Q554.972 38.7509 554.972 49.9314 Q554.972 61.0714 549.423 67.4314 Q543.873 73.7508 534.151 73.7508 Q524.388 73.7508 518.838 67.4314 Q513.329 61.0714 513.329 49.9314 Q513.329 38.7509 518.838 32.4315 Q524.388 26.1121 534.151 26.1121 Z" fill="#000000" fill-rule="evenodd" fill-opacity="1" /><path clip-path="url(#clip9800)" d="M 0 0 M557.444 27.2059 L565.343 27.2059 L579.521 65.2844 L593.699 27.2059 L601.598 27.2059 L584.585 72.576 L574.457 72.576 L557.444 27.2059 Z" fill="#000000" fill-rule="evenodd" fill-opacity="1" /><path clip-path="url(#clip9800)" d="M 0 0 M648.224 48.0275 L648.224 51.6733 L613.954 51.6733 Q614.44 59.3701 618.572 63.421 Q622.744 67.4314 630.157 67.4314 Q634.451 67.4314 638.462 66.3781 Q642.513 65.3249 646.482 63.2184 L646.482 70.267 Q642.472 71.9684 638.259 72.8596 Q634.046 73.7508 629.712 73.7508 Q618.855 73.7508 612.495 67.4314 Q606.176 61.1119 606.176 50.3365 Q606.176 39.1965 612.171 32.6746 Q618.207 26.1121 628.415 26.1121 Q637.57 26.1121 642.877 32.0264 Q648.224 37.9003 648.224 48.0275 M640.771 45.84 Q640.69 39.7232 637.327 36.0774 Q634.006 32.4315 628.496 32.4315 Q622.258 32.4315 618.491 35.9558 Q614.764 39.4801 614.197 45.8805 L640.771 45.84 Z" fill="#000000" fill-rule="evenodd" fill-opacity="1" /><path clip-path="url(#clip9800)" d="M 0 0 M682.333 34.1734 Q681.077 33.4443 679.578 33.1202 Q678.12 32.7556 676.338 32.7556 Q670.018 32.7556 666.615 36.8875 Q663.253 40.9789 663.253 48.6757 L663.253 72.576 L655.759 72.576 L655.759 27.2059 L663.253 27.2059 L663.253 34.2544 Q665.603 30.1225 669.37 28.1376 Q673.137 26.1121 678.525 26.1121 Q679.295 26.1121 680.226 26.2337 Q681.158 26.3147 682.292 26.5172 L682.333 34.1734 Z" fill="#000000" fill-rule="evenodd" fill-opacity="1" /><path clip-path="url(#clip9800)" d="M 0 0 M690.151 27.2059 L697.605 27.2059 L697.605 72.576 L690.151 72.576 L690.151 27.2059 M690.151 9.54393 L697.605 9.54393 L697.605 18.9825 L690.151 18.9825 L690.151 9.54393 Z" fill="#000000" fill-rule="evenodd" fill-opacity="1" /><path clip-path="url(#clip9800)" d="M 0 0 M743.137 45.1919 L743.137 72.576 L735.683 72.576 L735.683 45.4349 Q735.683 38.994 733.172 35.7938 Q730.66 32.5936 725.637 32.5936 Q719.601 32.5936 716.117 36.4419 Q712.634 40.2903 712.634 46.9338 L712.634 72.576 L705.14 72.576 L705.14 27.2059 L712.634 27.2059 L712.634 34.2544 Q715.307 30.163 718.913 28.1376 Q722.558 26.1121 727.298 26.1121 Q735.116 26.1121 739.127 30.9732 Q743.137 35.7938 743.137 45.1919 Z" fill="#000000" fill-rule="evenodd" fill-opacity="1" /><path clip-path="url(#clip9800)" d="M 0 0 M780.81 49.3643 Q780.81 41.2625 777.448 36.8065 Q774.126 32.3505 768.091 32.3505 Q762.095 32.3505 758.733 36.8065 Q755.411 41.2625 755.411 49.3643 Q755.411 57.4256 758.733 61.8816 Q762.095 66.3376 768.091 66.3376 Q774.126 66.3376 777.448 61.8816 Q780.81 57.4256 780.81 49.3643 M788.264 66.9452 Q788.264 78.5308 783.119 84.1616 Q777.975 89.8329 767.361 89.8329 Q763.432 89.8329 759.948 89.2252 Q756.464 88.6581 753.183 87.4428 L753.183 80.1917 Q756.464 81.9741 759.665 82.8248 Q762.865 83.6755 766.187 83.6755 Q773.519 83.6755 777.165 79.8271 Q780.81 76.0193 780.81 68.282 L780.81 64.5957 Q778.501 68.6061 774.896 70.5911 Q771.291 72.576 766.268 72.576 Q757.923 72.576 752.819 66.2161 Q747.715 59.8562 747.715 49.3643 Q747.715 38.832 752.819 32.472 Q757.923 26.1121 766.268 26.1121 Q771.291 26.1121 774.896 28.0971 Q778.501 30.082 780.81 34.0924 L780.81 27.2059 L788.264 27.2059 L788.264 66.9452 Z" fill="#000000" fill-rule="evenodd" fill-opacity="1" /><path clip-path="url(#clip9800)" d="M 0 0 M818.119 27.2059 L825.573 27.2059 L834.89 62.6108 L844.167 27.2059 L852.957 27.2059 L862.274 62.6108 L871.551 27.2059 L879.004 27.2059 L867.135 72.576 L858.345 72.576 L848.582 35.3887 L838.779 72.576 L829.988 72.576 L818.119 27.2059 Z" fill="#000000" fill-rule="evenodd" fill-opacity="1" /><path clip-path="url(#clip9800)" d="M 0 0 M886.823 27.2059 L894.276 27.2059 L894.276 72.576 L886.823 72.576 L886.823 27.2059 M886.823 9.54393 L894.276 9.54393 L894.276 18.9825 L886.823 18.9825 L886.823 9.54393 Z" fill="#000000" fill-rule="evenodd" fill-opacity="1" /><path clip-path="url(#clip9800)" d="M 0 0 M909.467 14.324 L909.467 27.2059 L924.82 27.2059 L924.82 32.9987 L909.467 32.9987 L909.467 57.6282 Q909.467 63.1779 910.966 64.7578 Q912.505 66.3376 917.164 66.3376 L924.82 66.3376 L924.82 72.576 L917.164 72.576 Q908.535 72.576 905.254 69.3758 Q901.973 66.1351 901.973 57.6282 L901.973 32.9987 L896.504 32.9987 L896.504 27.2059 L901.973 27.2059 L901.973 14.324 L909.467 14.324 Z" fill="#000000" fill-rule="evenodd" fill-opacity="1" /><path clip-path="url(#clip9800)" d="M 0 0 M970.352 45.1919 L970.352 72.576 L962.899 72.576 L962.899 45.4349 Q962.899 38.994 960.387 35.7938 Q957.875 32.5936 952.852 32.5936 Q946.816 32.5936 943.333 36.4419 Q939.849 40.2903 939.849 46.9338 L939.849 72.576 L932.355 72.576 L932.355 9.54393 L939.849 9.54393 L939.849 34.2544 Q942.523 30.163 946.128 28.1376 Q949.774 26.1121 954.513 26.1121 Q962.331 26.1121 966.342 30.9732 Q970.352 35.7938 970.352 45.1919 Z" fill="#000000" fill-rule="evenodd" fill-opacity="1" /><path clip-path="url(#clip9800)" d="M 0 0 M1024.11 39.075 Q1018.6 39.075 1015.36 42.8424 Q1012.16 46.6097 1012.16 53.1722 Q1012.16 59.6941 1015.36 63.502 Q1018.6 67.2693 1024.11 67.2693 Q1029.62 67.2693 1032.82 63.502 Q1036.06 59.6941 1036.06 53.1722 Q1036.06 46.6097 1032.82 42.8424 Q1029.62 39.075 1024.11 39.075 M1040.35 13.4328 L1040.35 20.8865 Q1037.27 19.4281 1034.11 18.6585 Q1030.99 17.8888 1027.92 17.8888 Q1019.81 17.8888 1015.52 23.3575 Q1011.27 28.8262 1010.66 39.8852 Q1013.05 36.3609 1016.65 34.4975 Q1020.26 32.5936 1024.59 32.5936 Q1033.71 32.5936 1038.97 38.1433 Q1044.28 43.6525 1044.28 53.1722 Q1044.28 62.4892 1038.77 68.12 Q1033.26 73.7508 1024.11 73.7508 Q1013.62 73.7508 1008.07 65.73 Q1002.52 57.6687 1002.52 42.3968 Q1002.52 28.0566 1009.32 19.5497 Q1016.13 11.0023 1027.59 11.0023 Q1030.67 11.0023 1033.79 11.6099 Q1036.95 12.2175 1040.35 13.4328 Z" fill="#000000" fill-rule="evenodd" fill-opacity="1" /><path clip-path="url(#clip9800)" d="M 0 0 M1103.34 17.6457 Q1094.43 17.6457 1089.17 24.2892 Q1083.94 30.9327 1083.94 42.3968 Q1083.94 53.8203 1089.17 60.4638 Q1094.43 67.1073 1103.34 67.1073 Q1112.26 67.1073 1117.44 60.4638 Q1122.67 53.8203 1122.67 42.3968 Q1122.67 30.9327 1117.44 24.2892 Q1112.26 17.6457 1103.34 17.6457 M1114.81 71.4823 L1125.58 83.2704 L1115.7 83.2704 L1106.75 73.5887 Q1105.41 73.6697 1104.68 73.7103 Q1103.99 73.7508 1103.34 73.7508 Q1090.58 73.7508 1082.93 65.2439 Q1075.31 56.6965 1075.31 42.3968 Q1075.31 28.0566 1082.93 19.5497 Q1090.58 11.0023 1103.34 11.0023 Q1116.06 11.0023 1123.68 19.5497 Q1131.29 28.0566 1131.29 42.3968 Q1131.29 52.9291 1127.04 60.4233 Q1122.83 67.9175 1114.81 71.4823 Z" fill="#000000" fill-rule="evenodd" fill-opacity="1" /><path clip-path="url(#clip9800)" d="M 0 0 M1138.34 54.671 L1138.34 27.2059 L1145.8 27.2059 L1145.8 54.3874 Q1145.8 60.8284 1148.31 64.0691 Q1150.82 67.2693 1155.84 67.2693 Q1161.88 67.2693 1165.36 63.421 Q1168.89 59.5726 1168.89 52.9291 L1168.89 27.2059 L1176.34 27.2059 L1176.34 72.576 L1168.89 72.576 L1168.89 65.6084 Q1166.17 69.7404 1162.57 71.7658 Q1159 73.7508 1154.26 73.7508 Q1146.45 73.7508 1142.39 68.8897 Q1138.34 64.0286 1138.34 54.671 M1157.1 26.1121 L1157.1 26.1121 Z" fill="#000000" fill-rule="evenodd" fill-opacity="1" /><path clip-path="url(#clip9800)" d="M 0 0 M1204.78 49.7694 Q1195.74 49.7694 1192.26 51.8354 Q1188.78 53.9013 1188.78 58.8839 Q1188.78 62.8538 1191.37 65.2034 Q1194 67.5124 1198.5 67.5124 Q1204.7 67.5124 1208.42 63.1374 Q1212.19 58.7219 1212.19 51.4303 L1212.19 49.7694 L1204.78 49.7694 M1219.64 46.6907 L1219.64 72.576 L1212.19 72.576 L1212.19 65.6895 Q1209.64 69.8214 1205.83 71.8063 Q1202.02 73.7508 1196.51 73.7508 Q1189.55 73.7508 1185.41 69.8619 Q1181.32 65.9325 1181.32 59.3701 Q1181.32 51.7138 1186.43 47.825 Q1191.57 43.9361 1201.74 43.9361 L1212.19 43.9361 L1212.19 43.2069 Q1212.19 38.0623 1208.79 35.2672 Q1205.43 32.4315 1199.31 32.4315 Q1195.42 32.4315 1191.73 33.3632 Q1188.05 34.295 1184.65 36.1584 L1184.65 29.2718 Q1188.74 27.692 1192.58 26.9223 Q1196.43 26.1121 1200.08 26.1121 Q1209.92 26.1121 1214.78 31.2163 Q1219.64 36.3204 1219.64 46.6907 Z" fill="#000000" fill-rule="evenodd" fill-opacity="1" /><path clip-path="url(#clip9800)" d="M 0 0 M1257.32 34.0924 L1257.32 9.54393 L1264.77 9.54393 L1264.77 72.576 L1257.32 72.576 L1257.32 65.7705 Q1254.97 69.8214 1251.36 71.8063 Q1247.8 73.7508 1242.78 73.7508 Q1234.55 73.7508 1229.37 67.1883 Q1224.22 60.6258 1224.22 49.9314 Q1224.22 39.2371 1229.37 32.6746 Q1234.55 26.1121 1242.78 26.1121 Q1247.8 26.1121 1251.36 28.0971 Q1254.97 30.0415 1257.32 34.0924 M1231.92 49.9314 Q1231.92 58.1548 1235.28 62.8538 Q1238.68 67.5124 1244.6 67.5124 Q1250.51 67.5124 1253.92 62.8538 Q1257.32 58.1548 1257.32 49.9314 Q1257.32 41.7081 1253.92 37.0496 Q1250.51 32.3505 1244.6 32.3505 Q1238.68 32.3505 1235.28 37.0496 Q1231.92 41.7081 1231.92 49.9314 Z" fill="#000000" fill-rule="evenodd" fill-opacity="1" /><path clip-path="url(#clip9800)" d="M 0 0 M1298.88 34.1734 Q1297.62 33.4443 1296.13 33.1202 Q1294.67 32.7556 1292.89 32.7556 Q1286.57 32.7556 1283.16 36.8875 Q1279.8 40.9789 1279.8 48.6757 L1279.8 72.576 L1272.31 72.576 L1272.31 27.2059 L1279.8 27.2059 L1279.8 34.2544 Q1282.15 30.1225 1285.92 28.1376 Q1289.68 26.1121 1295.07 26.1121 Q1295.84 26.1121 1296.77 26.2337 Q1297.71 26.3147 1298.84 26.5172 L1298.88 34.1734 Z" fill="#000000" fill-rule="evenodd" fill-opacity="1" /><path clip-path="url(#clip9800)" d="M 0 0 M1322.46 32.4315 Q1316.46 32.4315 1312.98 37.1306 Q1309.49 41.7891 1309.49 49.9314 Q1309.49 58.0738 1312.94 62.7728 Q1316.42 67.4314 1322.46 67.4314 Q1328.41 67.4314 1331.9 62.7323 Q1335.38 58.0333 1335.38 49.9314 Q1335.38 41.8701 1331.9 37.1711 Q1328.41 32.4315 1322.46 32.4315 M1322.46 26.1121 Q1332.18 26.1121 1337.73 32.4315 Q1343.28 38.7509 1343.28 49.9314 Q1343.28 61.0714 1337.73 67.4314 Q1332.18 73.7508 1322.46 73.7508 Q1312.69 73.7508 1307.14 67.4314 Q1301.64 61.0714 1301.64 49.9314 Q1301.64 38.7509 1307.14 32.4315 Q1312.69 26.1121 1322.46 26.1121 Z" fill="#000000" fill-rule="evenodd" fill-opacity="1" /><path clip-path="url(#clip9800)" d="M 0 0 M1358.47 14.324 L1358.47 27.2059 L1373.82 27.2059 L1373.82 32.9987 L1358.47 32.9987 L1358.47 57.6282 Q1358.47 63.1779 1359.97 64.7578 Q1361.51 66.3376 1366.17 66.3376 L1373.82 66.3376 L1373.82 72.576 L1366.17 72.576 Q1357.54 72.576 1354.26 69.3758 Q1350.98 66.1351 1350.98 57.6282 L1350.98 32.9987 L1345.51 32.9987 L1345.51 27.2059 L1350.98 27.2059 L1350.98 14.324 L1358.47 14.324 Z" fill="#000000" fill-rule="evenodd" fill-opacity="1" /><path clip-path="url(#clip9800)" d="M 0 0 M1399.22 32.4315 Q1393.23 32.4315 1389.74 37.1306 Q1386.26 41.7891 1386.26 49.9314 Q1386.26 58.0738 1389.7 62.7728 Q1393.19 67.4314 1399.22 67.4314 Q1405.18 67.4314 1408.66 62.7323 Q1412.14 58.0333 1412.14 49.9314 Q1412.14 41.8701 1408.66 37.1711 Q1405.18 32.4315 1399.22 32.4315 M1399.22 26.1121 Q1408.94 26.1121 1414.49 32.4315 Q1420.04 38.7509 1420.04 49.9314 Q1420.04 61.0714 1414.49 67.4314 Q1408.94 73.7508 1399.22 73.7508 Q1389.46 73.7508 1383.91 67.4314 Q1378.4 61.0714 1378.4 49.9314 Q1378.4 38.7509 1383.91 32.4315 Q1389.46 26.1121 1399.22 26.1121 Z" fill="#000000" fill-rule="evenodd" fill-opacity="1" /><path clip-path="url(#clip9800)" d="M 0 0 M1454.15 34.1734 Q1452.9 33.4443 1451.4 33.1202 Q1449.94 32.7556 1448.16 32.7556 Q1441.84 32.7556 1438.43 36.8875 Q1435.07 40.9789 1435.07 48.6757 L1435.07 72.576 L1427.58 72.576 L1427.58 27.2059 L1435.07 27.2059 L1435.07 34.2544 Q1437.42 30.1225 1441.19 28.1376 Q1444.96 26.1121 1450.34 26.1121 Q1451.11 26.1121 1452.05 26.2337 Q1452.98 26.3147 1454.11 26.5172 L1454.15 34.1734 Z" fill="#000000" fill-rule="evenodd" fill-opacity="1" /><path clip-path="url(#clip9800)" d="M 0 0 M1490.89 28.5427 L1490.89 35.5912 Q1487.73 33.9709 1484.33 33.1607 Q1480.93 32.3505 1477.28 32.3505 Q1471.73 32.3505 1468.94 34.0519 Q1466.18 35.7533 1466.18 39.156 Q1466.18 41.7486 1468.17 43.2475 Q1470.15 44.7058 1476.15 46.0426 L1478.7 46.6097 Q1486.64 48.3111 1489.96 51.4303 Q1493.32 54.509 1493.32 60.0587 Q1493.32 66.3781 1488.3 70.0644 Q1483.32 73.7508 1474.57 73.7508 Q1470.92 73.7508 1466.95 73.0216 Q1463.02 72.3329 1458.65 70.9151 L1458.65 63.2184 Q1462.78 65.3654 1466.79 66.4591 Q1470.8 67.5124 1474.73 67.5124 Q1480 67.5124 1482.83 65.73 Q1485.67 63.9071 1485.67 60.6258 Q1485.67 57.5877 1483.6 55.9673 Q1481.58 54.3469 1474.65 52.8481 L1472.06 52.2405 Q1465.13 50.7821 1462.05 47.7845 Q1458.97 44.7463 1458.97 39.4801 Q1458.97 33.0797 1463.51 29.5959 Q1468.05 26.1121 1476.39 26.1121 Q1480.52 26.1121 1484.17 26.7198 Q1487.81 27.3274 1490.89 28.5427 Z" fill="#000000" fill-rule="evenodd" fill-opacity="1" /><path clip-path="url(#clip9800)" d="M 0 0 M1523.75 46.5287 L1545.58 46.5287 L1545.58 53.1722 L1523.75 53.1722 L1523.75 46.5287 Z" fill="#000000" fill-rule="evenodd" fill-opacity="1" /><path clip-path="url(#clip9800)" d="M 0 0 M1600.31 20.1573 L1589.21 50.2555 L1611.45 50.2555 L1600.31 20.1573 M1595.69 12.096 L1604.97 12.096 L1628.02 72.576 L1619.51 72.576 L1614 57.061 L1586.74 57.061 L1581.23 72.576 L1572.6 72.576 L1595.69 12.096 Z" fill="#000000" fill-rule="evenodd" fill-opacity="1" /><path clip-path="url(#clip9800)" d="M 0 0 M1665.69 49.3643 Q1665.69 41.2625 1662.33 36.8065 Q1659.01 32.3505 1652.97 32.3505 Q1646.97 32.3505 1643.61 36.8065 Q1640.29 41.2625 1640.29 49.3643 Q1640.29 57.4256 1643.61 61.8816 Q1646.97 66.3376 1652.97 66.3376 Q1659.01 66.3376 1662.33 61.8816 Q1665.69 57.4256 1665.69 49.3643 M1673.14 66.9452 Q1673.14 78.5308 1668 84.1616 Q1662.85 89.8329 1652.24 89.8329 Q1648.31 89.8329 1644.83 89.2252 Q1641.34 88.6581 1638.06 87.4428 L1638.06 80.1917 Q1641.34 81.9741 1644.54 82.8248 Q1647.74 83.6755 1651.07 83.6755 Q1658.4 83.6755 1662.04 79.8271 Q1665.69 76.0193 1665.69 68.282 L1665.69 64.5957 Q1663.38 68.6061 1659.78 70.5911 Q1656.17 72.576 1651.15 72.576 Q1642.8 72.576 1637.7 66.2161 Q1632.59 59.8562 1632.59 49.3643 Q1632.59 38.832 1637.7 32.472 Q1642.8 26.1121 1651.15 26.1121 Q1656.17 26.1121 1659.78 28.0971 Q1663.38 30.082 1665.69 34.0924 L1665.69 27.2059 L1673.14 27.2059 L1673.14 66.9452 Z" fill="#000000" fill-rule="evenodd" fill-opacity="1" /><path clip-path="url(#clip9800)" d="M 0 0 M1719.77 48.0275 L1719.77 51.6733 L1685.5 51.6733 Q1685.98 59.3701 1690.12 63.421 Q1694.29 67.4314 1701.7 67.4314 Q1706 67.4314 1710.01 66.3781 Q1714.06 65.3249 1718.03 63.2184 L1718.03 70.267 Q1714.02 71.9684 1709.8 72.8596 Q1705.59 73.7508 1701.26 73.7508 Q1690.4 73.7508 1684.04 67.4314 Q1677.72 61.1119 1677.72 50.3365 Q1677.72 39.1965 1683.72 32.6746 Q1689.75 26.1121 1699.96 26.1121 Q1709.12 26.1121 1714.42 32.0264 Q1719.77 37.9003 1719.77 48.0275 M1712.32 45.84 Q1712.23 39.7232 1708.87 36.0774 Q1705.55 32.4315 1700.04 32.4315 Q1693.8 32.4315 1690.04 35.9558 Q1686.31 39.4801 1685.74 45.8805 L1712.32 45.84 Z" fill="#000000" fill-rule="evenodd" fill-opacity="1" /><path clip-path="url(#clip9800)" d="M 0 0 M1765.3 45.1919 L1765.3 72.576 L1757.85 72.576 L1757.85 45.4349 Q1757.85 38.994 1755.34 35.7938 Q1752.82 32.5936 1747.8 32.5936 Q1741.77 32.5936 1738.28 36.4419 Q1734.8 40.2903 1734.8 46.9338 L1734.8 72.576 L1727.3 72.576 L1727.3 27.2059 L1734.8 27.2059 L1734.8 34.2544 Q1737.47 30.163 1741.08 28.1376 Q1744.72 26.1121 1749.46 26.1121 Q1757.28 26.1121 1761.29 30.9732 Q1765.3 35.7938 1765.3 45.1919 Z" fill="#000000" fill-rule="evenodd" fill-opacity="1" /><path clip-path="url(#clip9800)" d="M 0 0 M1780.49 14.324 L1780.49 27.2059 L1795.85 27.2059 L1795.85 32.9987 L1780.49 32.9987 L1780.49 57.6282 Q1780.49 63.1779 1781.99 64.7578 Q1783.53 66.3376 1788.19 66.3376 L1795.85 66.3376 L1795.85 72.576 L1788.19 72.576 Q1779.56 72.576 1776.28 69.3758 Q1773 66.1351 1773 57.6282 L1773 32.9987 L1767.53 32.9987 L1767.53 27.2059 L1773 27.2059 L1773 14.324 L1780.49 14.324 Z" fill="#000000" fill-rule="evenodd" fill-opacity="1" /><path clip-path="url(#clip9800)" d="M 0 0 M1866.61 14.0809 L1866.61 22.0612 Q1861.96 19.8332 1857.82 18.7395 Q1853.69 17.6457 1849.84 17.6457 Q1843.16 17.6457 1839.51 20.2383 Q1835.91 22.8309 1835.91 27.611 Q1835.91 31.6214 1838.3 33.6873 Q1840.73 35.7128 1847.45 36.9686 L1852.4 37.9813 Q1861.55 39.7232 1865.89 44.1387 Q1870.26 48.5136 1870.26 55.8863 Q1870.26 64.6767 1864.35 69.2137 Q1858.47 73.7508 1847.09 73.7508 Q1842.8 73.7508 1837.93 72.7785 Q1833.11 71.8063 1827.93 69.9024 L1827.93 61.4765 Q1832.91 64.2716 1837.69 65.6895 Q1842.47 67.1073 1847.09 67.1073 Q1854.1 67.1073 1857.91 64.3527 Q1861.71 61.598 1861.71 56.4939 Q1861.71 52.0379 1858.96 49.5264 Q1856.24 47.0148 1850.01 45.759 L1845.02 44.7868 Q1835.87 42.9639 1831.78 39.075 Q1827.69 35.1862 1827.69 28.2591 Q1827.69 20.2383 1833.32 15.6203 Q1838.99 11.0023 1848.91 11.0023 Q1853.17 11.0023 1857.58 11.7719 Q1862 12.5416 1866.61 14.0809 Z" fill="#000000" fill-rule="evenodd" fill-opacity="1" /><path clip-path="url(#clip9800)" d="M 0 0 M1885.45 14.324 L1885.45 27.2059 L1900.8 27.2059 L1900.8 32.9987 L1885.45 32.9987 L1885.45 57.6282 Q1885.45 63.1779 1886.95 64.7578 Q1888.49 66.3376 1893.15 66.3376 L1900.8 66.3376 L1900.8 72.576 L1893.15 72.576 Q1884.52 72.576 1881.24 69.3758 Q1877.96 66.1351 1877.96 57.6282 L1877.96 32.9987 L1872.49 32.9987 L1872.49 27.2059 L1877.96 27.2059 L1877.96 14.324 L1885.45 14.324 Z" fill="#000000" fill-rule="evenodd" fill-opacity="1" /><path clip-path="url(#clip9800)" d="M 0 0 M1929.24 49.7694 Q1920.21 49.7694 1916.72 51.8354 Q1913.24 53.9013 1913.24 58.8839 Q1913.24 62.8538 1915.83 65.2034 Q1918.47 67.5124 1922.96 67.5124 Q1929.16 67.5124 1932.89 63.1374 Q1936.65 58.7219 1936.65 51.4303 L1936.65 49.7694 L1929.24 49.7694 M1944.11 46.6907 L1944.11 72.576 L1936.65 72.576 L1936.65 65.6895 Q1934.1 69.8214 1930.29 71.8063 Q1926.49 73.7508 1920.98 73.7508 Q1914.01 73.7508 1909.88 69.8619 Q1905.79 65.9325 1905.79 59.3701 Q1905.79 51.7138 1910.89 47.825 Q1916.04 43.9361 1926.2 43.9361 L1936.65 43.9361 L1936.65 43.2069 Q1936.65 38.0623 1933.25 35.2672 Q1929.89 32.4315 1923.77 32.4315 Q1919.88 32.4315 1916.2 33.3632 Q1912.51 34.295 1909.11 36.1584 L1909.11 29.2718 Q1913.2 27.692 1917.05 26.9223 Q1920.9 26.1121 1924.54 26.1121 Q1934.39 26.1121 1939.25 31.2163 Q1944.11 36.3204 1944.11 46.6907 Z" fill="#000000" fill-rule="evenodd" fill-opacity="1" /><path clip-path="url(#clip9800)" d="M 0 0 M1959.3 14.324 L1959.3 27.2059 L1974.65 27.2059 L1974.65 32.9987 L1959.3 32.9987 L1959.3 57.6282 Q1959.3 63.1779 1960.8 64.7578 Q1962.34 66.3376 1967 66.3376 L1974.65 66.3376 L1974.65 72.576 L1967 72.576 Q1958.37 72.576 1955.09 69.3758 Q1951.81 66.1351 1951.81 57.6282 L1951.81 32.9987 L1946.34 32.9987 L1946.34 27.2059 L1951.81 27.2059 L1951.81 14.324 L1959.3 14.324 Z" fill="#000000" fill-rule="evenodd" fill-opacity="1" /><path clip-path="url(#clip9800)" d="M 0 0 M2021.28 48.0275 L2021.28 51.6733 L1987.01 51.6733 Q1987.49 59.3701 1991.63 63.421 Q1995.8 67.4314 2003.21 67.4314 Q2007.51 67.4314 2011.52 66.3781 Q2015.57 65.3249 2019.54 63.2184 L2019.54 70.267 Q2015.53 71.9684 2011.31 72.8596 Q2007.1 73.7508 2002.77 73.7508 Q1991.91 73.7508 1985.55 67.4314 Q1979.23 61.1119 1979.23 50.3365 Q1979.23 39.1965 1985.23 32.6746 Q1991.26 26.1121 2001.47 26.1121 Q2010.62 26.1121 2015.93 32.0264 Q2021.28 37.9003 2021.28 48.0275 M2013.82 45.84 Q2013.74 39.7232 2010.38 36.0774 Q2007.06 32.4315 2001.55 32.4315 Q1995.31 32.4315 1991.54 35.9558 Q1987.82 39.4801 1987.25 45.8805 L2013.82 45.84 Z" fill="#000000" fill-rule="evenodd" fill-opacity="1" /><path clip-path="url(#clip9800)" d="M 0 0 M2058.02 28.5427 L2058.02 35.5912 Q2054.86 33.9709 2051.46 33.1607 Q2048.05 32.3505 2044.41 32.3505 Q2038.86 32.3505 2036.06 34.0519 Q2033.31 35.7533 2033.31 39.156 Q2033.31 41.7486 2035.29 43.2475 Q2037.28 44.7058 2043.27 46.0426 L2045.83 46.6097 Q2053.77 48.3111 2057.09 51.4303 Q2060.45 54.509 2060.45 60.0587 Q2060.45 66.3781 2055.43 70.0644 Q2050.44 73.7508 2041.69 73.7508 Q2038.05 73.7508 2034.08 73.0216 Q2030.15 72.3329 2025.77 70.9151 L2025.77 63.2184 Q2029.91 65.3654 2033.92 66.4591 Q2037.93 67.5124 2041.86 67.5124 Q2047.12 67.5124 2049.96 65.73 Q2052.79 63.9071 2052.79 60.6258 Q2052.79 57.5877 2050.73 55.9673 Q2048.7 54.3469 2041.78 52.8481 L2039.18 52.2405 Q2032.26 50.7821 2029.18 47.7845 Q2026.1 44.7463 2026.1 39.4801 Q2026.1 33.0797 2030.64 29.5959 Q2035.17 26.1121 2043.52 26.1121 Q2047.65 26.1121 2051.3 26.7198 Q2054.94 27.3274 2058.02 28.5427 Z" fill="#000000" fill-rule="evenodd" fill-opacity="1" /><path clip-path="url(#clip9800)" d="M 0 0 M2119.51 17.6457 Q2110.6 17.6457 2105.33 24.2892 Q2100.11 30.9327 2100.11 42.3968 Q2100.11 53.8203 2105.33 60.4638 Q2110.6 67.1073 2119.51 67.1073 Q2128.42 67.1073 2133.61 60.4638 Q2138.84 53.8203 2138.84 42.3968 Q2138.84 30.9327 2133.61 24.2892 Q2128.42 17.6457 2119.51 17.6457 M2130.98 71.4823 L2141.75 83.2704 L2131.87 83.2704 L2122.92 73.5887 Q2121.58 73.6697 2120.85 73.7103 Q2120.16 73.7508 2119.51 73.7508 Q2106.75 73.7508 2099.1 65.2439 Q2091.48 56.6965 2091.48 42.3968 Q2091.48 28.0566 2099.1 19.5497 Q2106.75 11.0023 2119.51 11.0023 Q2132.23 11.0023 2139.85 19.5497 Q2147.46 28.0566 2147.46 42.3968 Q2147.46 52.9291 2143.21 60.4233 Q2139 67.9175 2130.98 71.4823 Z" fill="#000000" fill-rule="evenodd" fill-opacity="1" /><path clip-path="url(#clip9800)" d="M 0 0 M2153.78 68.12 L2162.05 68.12 L2162.05 43.369 L2153.01 45.0299 L2153.01 40.3308 L2162.33 38.7509 L2167.88 38.7509 L2167.88 68.12 L2176.18 68.12 L2176.18 72.576 L2153.78 72.576 L2153.78 68.12 Z" fill="#000000" fill-rule="evenodd" fill-opacity="1" /><path clip-path="url(#clip9800)" d="M 0 0 M2210.7 12.096 L2248.94 12.096 L2248.94 18.9825 L2218.88 18.9825 L2218.88 36.8875 L2247.68 36.8875 L2247.68 43.7741 L2218.88 43.7741 L2218.88 65.6895 L2249.67 65.6895 L2249.67 72.576 L2210.7 72.576 L2210.7 12.096 Z" fill="#000000" fill-rule="evenodd" fill-opacity="1" /><path clip-path="url(#clip9800)" d="M 0 0 M2283.78 34.1734 Q2282.52 33.4443 2281.02 33.1202 Q2279.56 32.7556 2277.78 32.7556 Q2271.46 32.7556 2268.06 36.8875 Q2264.7 40.9789 2264.7 48.6757 L2264.7 72.576 L2257.2 72.576 L2257.2 27.2059 L2264.7 27.2059 L2264.7 34.2544 Q2267.05 30.1225 2270.81 28.1376 Q2274.58 26.1121 2279.97 26.1121 Q2280.74 26.1121 2281.67 26.2337 Q2282.6 26.3147 2283.74 26.5172 L2283.78 34.1734 Z" fill="#000000" fill-rule="evenodd" fill-opacity="1" /><path clip-path="url(#clip9800)" d="M 0 0 M2316.43 34.1734 Q2315.17 33.4443 2313.67 33.1202 Q2312.21 32.7556 2310.43 32.7556 Q2304.11 32.7556 2300.71 36.8875 Q2297.35 40.9789 2297.35 48.6757 L2297.35 72.576 L2289.85 72.576 L2289.85 27.2059 L2297.35 27.2059 L2297.35 34.2544 Q2299.7 30.1225 2303.46 28.1376 Q2307.23 26.1121 2312.62 26.1121 Q2313.39 26.1121 2314.32 26.2337 Q2315.25 26.3147 2316.39 26.5172 L2316.43 34.1734 Z" fill="#000000" fill-rule="evenodd" fill-opacity="1" /><path clip-path="url(#clip9800)" d="M 0 0 M2340 32.4315 Q2334.01 32.4315 2330.52 37.1306 Q2327.04 41.7891 2327.04 49.9314 Q2327.04 58.0738 2330.48 62.7728 Q2333.97 67.4314 2340 67.4314 Q2345.96 67.4314 2349.44 62.7323 Q2352.93 58.0333 2352.93 49.9314 Q2352.93 41.8701 2349.44 37.1711 Q2345.96 32.4315 2340 32.4315 M2340 26.1121 Q2349.73 26.1121 2355.28 32.4315 Q2360.83 38.7509 2360.83 49.9314 Q2360.83 61.0714 2355.28 67.4314 Q2349.73 73.7508 2340 73.7508 Q2330.24 73.7508 2324.69 67.4314 Q2319.18 61.0714 2319.18 49.9314 Q2319.18 38.7509 2324.69 32.4315 Q2330.24 26.1121 2340 26.1121 Z" fill="#000000" fill-rule="evenodd" fill-opacity="1" /><path clip-path="url(#clip9800)" d="M 0 0 M2394.93 34.1734 Q2393.68 33.4443 2392.18 33.1202 Q2390.72 32.7556 2388.94 32.7556 Q2382.62 32.7556 2379.22 36.8875 Q2375.85 40.9789 2375.85 48.6757 L2375.85 72.576 L2368.36 72.576 L2368.36 27.2059 L2375.85 27.2059 L2375.85 34.2544 Q2378.2 30.1225 2381.97 28.1376 Q2385.74 26.1121 2391.13 26.1121 Q2391.9 26.1121 2392.83 26.2337 Q2393.76 26.3147 2394.89 26.5172 L2394.93 34.1734 Z" fill="#000000" fill-rule="evenodd" fill-opacity="1" /><path clip-path="url(#clip9800)" d="M 0 0 M1310.63 2298.26 L1350.83 2298.26 L1350.83 2303.67 L1333.96 2303.67 L1333.96 2345.78 L1327.5 2345.78 L1327.5 2303.67 L1310.63 2303.67 L1310.63 2298.26 Z" fill="#000000" fill-rule="evenodd" fill-opacity="1" /><path clip-path="url(#clip9800)" d="M 0 0 M1354.97 2310.14 L1360.82 2310.14 L1360.82 2345.78 L1354.97 2345.78 L1354.97 2310.14 M1354.97 2296.26 L1360.82 2296.26 L1360.82 2303.67 L1354.97 2303.67 L1354.97 2296.26 Z" fill="#000000" fill-rule="evenodd" fill-opacity="1" /><path clip-path="url(#clip9800)" d="M 0 0 M1394.72 2316.98 Q1396.92 2313.03 1399.97 2311.15 Q1403.03 2309.28 1407.17 2309.28 Q1412.74 2309.28 1415.76 2313.19 Q1418.78 2317.07 1418.78 2324.27 L1418.78 2345.78 L1412.89 2345.78 L1412.89 2324.46 Q1412.89 2319.33 1411.08 2316.85 Q1409.27 2314.37 1405.54 2314.37 Q1400.99 2314.37 1398.35 2317.39 Q1395.71 2320.42 1395.71 2325.64 L1395.71 2345.78 L1389.82 2345.78 L1389.82 2324.46 Q1389.82 2319.3 1388 2316.85 Q1386.19 2314.37 1382.4 2314.37 Q1377.92 2314.37 1375.27 2317.42 Q1372.63 2320.45 1372.63 2325.64 L1372.63 2345.78 L1366.74 2345.78 L1366.74 2310.14 L1372.63 2310.14 L1372.63 2315.67 Q1374.64 2312.4 1377.44 2310.84 Q1380.24 2309.28 1384.09 2309.28 Q1387.97 2309.28 1390.68 2311.25 Q1393.42 2313.22 1394.72 2316.98 Z" fill="#000000" fill-rule="evenodd" fill-opacity="1" /><path clip-path="url(#clip9800)" d="M 0 0 M1455.42 2326.5 L1455.42 2329.36 L1428.49 2329.36 Q1428.87 2335.41 1432.12 2338.59 Q1435.4 2341.74 1441.22 2341.74 Q1444.6 2341.74 1447.75 2340.91 Q1450.93 2340.09 1454.05 2338.43 L1454.05 2343.97 Q1450.9 2345.31 1447.59 2346.01 Q1444.28 2346.71 1440.87 2346.71 Q1432.34 2346.71 1427.34 2341.74 Q1422.38 2336.78 1422.38 2328.31 Q1422.38 2319.56 1427.09 2314.43 Q1431.83 2309.28 1439.85 2309.28 Q1447.05 2309.28 1451.22 2313.92 Q1455.42 2318.54 1455.42 2326.5 M1449.56 2324.78 Q1449.5 2319.97 1446.86 2317.11 Q1444.25 2314.24 1439.92 2314.24 Q1435.02 2314.24 1432.06 2317.01 Q1429.13 2319.78 1428.68 2324.81 L1449.56 2324.78 Z" fill="#000000" fill-rule="evenodd" fill-opacity="1" /><path clip-path="url(#clip9800)" d="M 0 0 M1496.35 2296.32 Q1492.08 2303.64 1490.02 2310.8 Q1487.95 2317.97 1487.95 2325.32 Q1487.95 2332.67 1490.02 2339.9 Q1492.12 2347.09 1496.35 2354.38 L1491.26 2354.38 Q1486.48 2346.9 1484.1 2339.67 Q1481.74 2332.45 1481.74 2325.32 Q1481.74 2318.22 1484.1 2311.03 Q1486.45 2303.83 1491.26 2296.32 L1496.35 2296.32 Z" fill="#000000" fill-rule="evenodd" fill-opacity="1" /><path clip-path="url(#clip9800)" d="M 0 0 M1525.22 2311.19 L1525.22 2316.72 Q1522.73 2315.45 1520.06 2314.81 Q1517.39 2314.18 1514.52 2314.18 Q1510.16 2314.18 1507.97 2315.51 Q1505.8 2316.85 1505.8 2319.53 Q1505.8 2321.56 1507.36 2322.74 Q1508.92 2323.89 1513.63 2324.94 L1515.64 2325.38 Q1521.88 2326.72 1524.49 2329.17 Q1527.13 2331.59 1527.13 2335.95 Q1527.13 2340.91 1523.18 2343.81 Q1519.27 2346.71 1512.39 2346.71 Q1509.53 2346.71 1506.41 2346.13 Q1503.32 2345.59 1499.88 2344.48 L1499.88 2338.43 Q1503.13 2340.12 1506.28 2340.98 Q1509.43 2341.81 1512.52 2341.81 Q1516.66 2341.81 1518.88 2340.4 Q1521.11 2338.97 1521.11 2336.39 Q1521.11 2334.01 1519.49 2332.73 Q1517.9 2331.46 1512.45 2330.28 L1510.42 2329.81 Q1504.97 2328.66 1502.56 2326.3 Q1500.14 2323.92 1500.14 2319.78 Q1500.14 2314.75 1503.7 2312.01 Q1507.27 2309.28 1513.82 2309.28 Q1517.07 2309.28 1519.93 2309.75 Q1522.8 2310.23 1525.22 2311.19 Z" fill="#000000" fill-rule="evenodd" fill-opacity="1" /><path clip-path="url(#clip9800)" d="M 0 0 M1532.35 2296.32 L1537.44 2296.32 Q1542.21 2303.83 1544.57 2311.03 Q1546.96 2318.22 1546.96 2325.32 Q1546.96 2332.45 1544.57 2339.67 Q1542.21 2346.9 1537.44 2354.38 L1532.35 2354.38 Q1536.58 2347.09 1538.65 2339.9 Q1540.75 2332.67 1540.75 2325.32 Q1540.75 2317.97 1538.65 2310.8 Q1536.58 2303.64 1532.35 2296.32 Z" fill="#000000" fill-rule="evenodd" fill-opacity="1" /><path clip-path="url(#clip9800)" d="M 0 0 M38.4242 1345.18 L38.4242 1315.14 L43.835 1315.14 L43.835 1338.75 L57.9032 1338.75 L57.9032 1316.12 L63.3141 1316.12 L63.3141 1338.75 L80.5333 1338.75 L80.5333 1314.56 L85.9442 1314.56 L85.9442 1345.18 L38.4242 1345.18 Z" fill="#000000" fill-rule="evenodd" fill-opacity="1" /><path clip-path="url(#clip9800)" d="M 0 0 M55.7707 1287.76 Q55.1978 1288.75 54.9432 1289.93 Q54.6567 1291.07 54.6567 1292.47 Q54.6567 1297.44 57.9032 1300.11 Q61.1179 1302.75 67.1653 1302.75 L85.9442 1302.75 L85.9442 1308.64 L50.2962 1308.64 L50.2962 1302.75 L55.8344 1302.75 Q52.5879 1300.91 51.0283 1297.95 Q49.4368 1294.99 49.4368 1290.75 Q49.4368 1290.15 49.5323 1289.42 Q49.596 1288.69 49.7551 1287.79 L55.7707 1287.76 Z" fill="#000000" fill-rule="evenodd" fill-opacity="1" /><path clip-path="url(#clip9800)" d="M 0 0 M55.7707 1262.11 Q55.1978 1263.1 54.9432 1264.27 Q54.6567 1265.42 54.6567 1266.82 Q54.6567 1271.78 57.9032 1274.46 Q61.1179 1277.1 67.1653 1277.1 L85.9442 1277.1 L85.9442 1282.99 L50.2962 1282.99 L50.2962 1277.1 L55.8344 1277.1 Q52.5879 1275.25 51.0283 1272.29 Q49.4368 1269.33 49.4368 1265.1 Q49.4368 1264.5 49.5323 1263.76 Q49.596 1263.03 49.7551 1262.14 L55.7707 1262.11 Z" fill="#000000" fill-rule="evenodd" fill-opacity="1" /><path clip-path="url(#clip9800)" d="M 0 0 M54.4021 1243.58 Q54.4021 1248.3 58.0942 1251.03 Q61.7545 1253.77 68.152 1253.77 Q74.5495 1253.77 78.2417 1251.06 Q81.9019 1248.33 81.9019 1243.58 Q81.9019 1238.91 78.2098 1236.17 Q74.5177 1233.43 68.152 1233.43 Q61.8181 1233.43 58.126 1236.17 Q54.4021 1238.91 54.4021 1243.58 M49.4368 1243.58 Q49.4368 1235.95 54.4021 1231.59 Q59.3673 1227.22 68.152 1227.22 Q76.9049 1227.22 81.9019 1231.59 Q86.8672 1235.95 86.8672 1243.58 Q86.8672 1251.26 81.9019 1255.62 Q76.9049 1259.94 68.152 1259.94 Q59.3673 1259.94 54.4021 1255.62 Q49.4368 1251.26 49.4368 1243.58 Z" fill="#000000" fill-rule="evenodd" fill-opacity="1" /><path clip-path="url(#clip9800)" d="M 0 0 M55.7707 1200.43 Q55.1978 1201.41 54.9432 1202.59 Q54.6567 1203.74 54.6567 1205.14 Q54.6567 1210.1 57.9032 1212.77 Q61.1179 1215.42 67.1653 1215.42 L85.9442 1215.42 L85.9442 1221.3 L50.2962 1221.3 L50.2962 1215.42 L55.8344 1215.42 Q52.5879 1213.57 51.0283 1210.61 Q49.4368 1207.65 49.4368 1203.42 Q49.4368 1202.81 49.5323 1202.08 Q49.596 1201.35 49.7551 1200.46 L55.7707 1200.43 Z" fill="#000000" fill-rule="evenodd" fill-opacity="1" /><path clip-path="url(#clip9800)" d="M 0 0 M42.7847 1154.02 Q42.7847 1161.02 48.0045 1165.16 Q53.2244 1169.27 62.2319 1169.27 Q71.2075 1169.27 76.4274 1165.16 Q81.6473 1161.02 81.6473 1154.02 Q81.6473 1147.02 76.4274 1142.94 Q71.2075 1138.84 62.2319 1138.84 Q53.2244 1138.84 48.0045 1142.94 Q42.7847 1147.02 42.7847 1154.02 M85.0848 1145.01 L94.3469 1136.55 L94.3469 1144.31 L86.7399 1151.35 Q86.8035 1152.4 86.8354 1152.97 Q86.8672 1153.51 86.8672 1154.02 Q86.8672 1164.05 80.1832 1170.06 Q73.4674 1176.04 62.2319 1176.04 Q50.9646 1176.04 44.2806 1170.06 Q37.5648 1164.05 37.5648 1154.02 Q37.5648 1144.03 44.2806 1138.04 Q50.9646 1132.06 62.2319 1132.06 Q70.5073 1132.06 76.3956 1135.4 Q82.2839 1138.71 85.0848 1145.01 Z" fill="#000000" fill-rule="evenodd" fill-opacity="1" /><path clip-path="url(#clip9800)" d="M 0 0 M82.443 1127.09 L82.443 1120.6 L62.9958 1120.6 L64.3008 1127.7 L60.6086 1127.7 L59.3673 1120.38 L59.3673 1116.02 L82.443 1116.02 L82.443 1109.49 L85.9442 1109.49 L85.9442 1127.09 L82.443 1127.09 Z" fill="#000000" fill-rule="evenodd" fill-opacity="1" /><path clip-path="url(#clip9800)" d="M 0 0 M36.4826 1068.56 Q43.8032 1072.82 50.9646 1074.89 Q58.126 1076.96 65.4784 1076.96 Q72.8308 1076.96 80.0559 1074.89 Q87.2491 1072.79 94.5379 1068.56 L94.5379 1073.65 Q87.0582 1078.43 79.8331 1080.81 Q72.608 1083.17 65.4784 1083.17 Q58.3806 1083.17 51.1874 1080.81 Q43.9942 1078.46 36.4826 1073.65 L36.4826 1068.56 Z" fill="#000000" fill-rule="evenodd" fill-opacity="1" /><path clip-path="url(#clip9800)" d="M 0 0 M57.1393 1034.66 Q53.1926 1032.47 51.3147 1029.41 Q49.4368 1026.35 49.4368 1022.22 Q49.4368 1016.65 53.3517 1013.62 Q57.2348 1010.6 64.4281 1010.6 L85.9442 1010.6 L85.9442 1016.49 L64.619 1016.49 Q59.4946 1016.49 57.012 1018.3 Q54.5294 1020.12 54.5294 1023.84 Q54.5294 1028.39 57.5531 1031.03 Q60.5768 1033.68 65.7967 1033.68 L85.9442 1033.68 L85.9442 1039.56 L64.619 1039.56 Q59.4628 1039.56 57.012 1041.38 Q54.5294 1043.19 54.5294 1046.98 Q54.5294 1051.47 57.5849 1054.11 Q60.6086 1056.75 65.7967 1056.75 L85.9442 1056.75 L85.9442 1062.64 L50.2962 1062.64 L50.2962 1056.75 L55.8344 1056.75 Q52.556 1054.75 50.9964 1051.95 Q49.4368 1049.14 49.4368 1045.29 Q49.4368 1041.41 51.4102 1038.7 Q53.3836 1035.97 57.1393 1034.66 Z" fill="#000000" fill-rule="evenodd" fill-opacity="1" /><path clip-path="url(#clip9800)" d="M 0 0 M36.4826 1005.38 L36.4826 1000.29 Q43.9942 995.513 51.1874 993.158 Q58.3806 990.771 65.4784 990.771 Q72.608 990.771 79.8331 993.158 Q87.0582 995.513 94.5379 1000.29 L94.5379 1005.38 Q87.2491 1001.15 80.0559 999.078 Q72.8308 996.977 65.4784 996.977 Q58.126 996.977 50.9646 999.078 Q43.8032 1001.15 36.4826 1005.38 Z" fill="#000000" fill-rule="evenodd" fill-opacity="1" /><polyline clip-path="url(#clip9802)" style="stroke:#009af9; stroke-width:16; stroke-opacity:1; fill:none" points="
  306.972,189.754 318.19,189.754 329.408,192.083 340.627,197.394 351.845,204.828 363.063,212.454 374.281,218.774 385.499,223.145 396.718,225.52 407.936,226.178 
  419.154,225.495 430.372,223.848 441.591,221.548 452.809,218.846 464.027,215.928 475.245,212.935 486.463,209.971 497.682,207.111 508.9,204.41 520.118,201.906 
  531.336,199.625 542.554,197.583 553.773,195.788 564.991,194.245 576.209,192.949 587.427,191.896 598.645,191.075 609.864,190.475 621.082,190.082 632.3,189.88 
  643.518,189.852 654.737,189.979 665.955,190.244 677.173,190.627 688.391,191.111 699.609,191.677 710.828,192.309 722.046,192.99 733.264,193.706 744.482,194.442 
  755.7,195.188 766.919,195.931 778.137,196.662 789.355,197.372 800.573,198.055 811.791,198.703 823.01,199.313 834.228,199.88 845.446,200.4 856.664,200.871 
  867.883,201.29 879.101,201.656 890.319,201.968 901.537,202.223 912.755,202.423 923.974,202.564 935.192,202.648 946.41,202.673 957.628,202.639 968.846,202.544 
  980.065,202.389 991.283,202.17 1002.5,201.89 1013.72,201.541 1024.94,201.124 1036.16,200.628 1047.37,200.045 1058.59,199.708 1069.81,199.258 1081.03,198.487 
  1092.25,197.764 1103.46,197.092 1114.68,196.471 1125.9,195.899 1137.12,195.374 1148.34,194.891 1159.56,194.449 1170.77,194.043 1181.99,193.67 1193.21,193.326 
  1204.43,193.009 1215.65,192.717 1226.87,192.447 1238.08,192.198 1249.3,191.968 1260.52,191.755 1271.74,191.558 1282.96,191.375 1294.17,191.207 1305.39,191.051 
  1316.61,190.907 1327.83,190.774 1339.05,190.651 1350.27,190.538 1361.48,190.435 1372.7,190.341 1383.92,190.255 1395.14,190.178 1406.36,190.108 1417.57,190.047 
  1428.79,189.993 1440.01,189.946 1451.23,189.907 1462.45,189.875 1473.67,189.849 1484.88,189.831 1496.1,189.818 1507.32,189.811 1518.54,189.81 1529.76,189.814 
  1540.98,189.822 1552.19,189.835 1563.41,189.851 1574.63,189.87 1585.85,189.891 1597.07,189.913 1608.28,189.936 1619.5,189.959 1630.72,189.98 1641.94,189.999 
  1653.16,190.016 1664.38,190.029 1675.59,190.037 1686.81,190.04 1698.03,190.038 1709.25,190.029 1720.47,190.015 1731.68,189.996 1742.9,189.973 1754.12,189.948 
  1765.34,189.921 1776.56,189.896 1787.78,189.872 1798.99,189.852 1810.21,189.838 1821.43,189.828 1832.65,189.825 1843.87,189.828 1855.09,189.837 1866.3,189.852 
  1877.52,189.872 1888.74,189.897 1899.96,189.926 1911.18,189.958 1922.39,189.993 1933.61,190.03 1944.83,190.067 1956.05,190.104 1967.27,190.141 1978.49,190.176 
  1989.7,190.209 2000.92,190.239 2012.14,190.265 2023.36,190.287 2034.58,190.305 2045.79,190.318 2057.01,190.326 2068.23,190.329 2079.45,190.327 2090.67,190.32 
  2101.89,190.308 2113.1,190.292 2124.32,190.272 2135.54,190.248 2146.76,190.222 2157.98,190.193 2169.19,190.163 2180.41,190.133 2191.63,190.103 2202.85,190.075 
  2214.07,190.048 2225.29,190.025 2236.5,190.005 2247.72,189.99 2258.94,189.979 2270.16,189.974 2281.38,189.975 2292.6,189.982 2303.81,189.996 2315.03,190.016 
  2326.25,190.041 2337.47,190.073 2348.69,190.11 2359.9,190.151 2371.12,190.197 2382.34,190.245 2393.56,190.295 2404.78,190.346 2416,190.396 2427.21,190.444 
  2438.43,190.489 2449.65,190.53 2460.87,190.566 2472.09,190.595 2483.3,190.618 2494.52,190.634 2505.74,190.643 2516.96,190.649 2528.18,190.653 2539.4,190.662 
  2550.61,190.669 
  "/>
<polyline clip-path="url(#clip9802)" style="stroke:#e26f46; stroke-width:16; stroke-opacity:1; fill:none" points="
  306.972,189.754 318.19,189.754 329.408,199.296 340.627,205.489 351.845,204.85 363.063,202.368 374.281,200.109 385.499,198.237 396.718,196.617 407.936,195.171 
  419.154,193.881 430.372,192.752 441.591,191.794 452.809,191.015 464.027,190.421 475.245,190.012 486.463,189.786 497.682,189.735 508.9,189.852 520.118,190.121 
  531.336,190.527 542.554,191.053 553.773,191.678 564.991,192.384 576.209,193.149 587.427,193.955 598.645,194.784 609.864,195.618 621.082,196.444 632.3,197.248 
  643.518,198.021 654.737,198.752 665.955,199.437 677.173,200.068 688.391,200.645 699.609,201.163 710.828,201.623 722.046,202.024 733.264,202.368 744.482,202.657 
  755.7,202.892 766.919,203.077 778.137,203.214 789.355,203.306 800.573,203.357 811.791,203.37 823.01,203.347 834.228,203.292 845.446,203.208 856.664,203.097 
  867.883,202.962 879.101,202.804 890.319,202.626 901.537,202.429 912.755,202.215 923.974,201.985 935.192,201.739 946.41,201.478 957.628,201.203 968.846,200.913 
  980.065,200.609 991.283,200.29 1002.5,199.955 1013.72,199.602 1024.94,199.23 1036.16,198.834 1047.37,198.411 1058.59,198.174 1069.81,197.894 1081.03,197.407 
  1092.25,196.944 1103.46,196.506 1114.68,196.093 1125.9,195.704 1137.12,195.337 1148.34,194.993 1159.56,194.668 1170.77,194.361 1181.99,194.071 1193.21,193.794 
  1204.43,193.531 1215.65,193.28 1226.87,193.038 1238.08,192.806 1249.3,192.581 1260.52,192.364 1271.74,192.153 1282.96,191.948 1294.17,191.748 1305.39,191.553 
  1316.61,191.364 1327.83,191.18 1339.05,191.002 1350.27,190.831 1361.48,190.667 1372.7,190.511 1383.92,190.365 1395.14,190.23 1406.36,190.108 1417.57,190.001 
  1428.79,189.912 1440.01,189.842 1451.23,189.795 1462.45,189.772 1473.67,189.777 1484.88,189.812 1496.1,189.881 1507.32,189.986 1518.54,190.129 1529.76,190.314 
  1540.98,190.541 1552.19,190.813 1563.41,191.132 1574.63,191.497 1585.85,191.909 1597.07,192.367 1608.28,192.87 1619.5,193.415 1630.72,193.999 1641.94,194.616 
  1653.16,195.262 1664.38,195.93 1675.59,196.61 1686.81,197.294 1698.03,197.97 1709.25,198.624 1720.47,199.245 1731.68,199.818 1742.9,200.331 1754.12,200.773 
  1765.34,201.135 1776.56,201.408 1787.78,201.59 1798.99,201.676 1810.21,201.67 1821.43,201.573 1832.65,201.394 1843.87,201.139 1855.09,200.819 1866.3,200.441 
  1877.52,200.015 1888.74,199.549 1899.96,199.051 1911.18,198.53 1922.39,197.993 1933.61,197.447 1944.83,196.898 1956.05,196.351 1967.27,195.813 1978.49,195.287 
  1989.7,194.778 2000.92,194.288 2012.14,193.82 2023.36,193.377 2034.58,192.96 2045.79,192.57 2057.01,192.208 2068.23,191.875 2079.45,191.571 2090.67,191.296 
  2101.89,191.05 2113.1,190.832 2124.32,190.642 2135.54,190.48 2146.76,190.345 2157.98,190.237 2169.19,190.155 2180.41,190.098 2191.63,190.067 2202.85,190.061 
  2214.07,190.079 2225.29,190.121 2236.5,190.188 2247.72,190.278 2258.94,190.391 2270.16,190.527 2281.38,190.686 2292.6,190.867 2303.81,191.07 2315.03,191.294 
  2326.25,191.537 2337.47,191.799 2348.69,192.078 2359.9,192.372 2371.12,192.679 2382.34,192.997 2393.56,193.321 2404.78,193.649 2416,193.976 2427.21,194.298 
  2438.43,194.608 2449.65,194.9 2460.87,195.167 2472.09,195.401 2483.3,195.592 2494.52,195.729 2505.74,195.799 2516.96,195.786 2528.18,195.682 2539.4,195.474 
  2550.61,195.344 
  "/>
<polyline clip-path="url(#clip9802)" style="stroke:#3da44d; stroke-width:16; stroke-opacity:1; fill:none" points="
  306.972,189.754 318.19,189.754 329.408,200.82 340.627,207.657 351.845,206.788 363.063,204.096 374.281,201.722 385.499,199.766 396.718,198.059 407.936,196.513 
  419.154,195.107 430.372,193.847 441.591,192.744 452.809,191.807 464.027,191.044 475.245,190.456 486.463,190.045 497.682,189.807 508.9,189.734 520.118,189.817 
  531.336,190.041 542.554,190.392 553.773,190.851 564.991,191.4 576.209,192.02 587.427,192.691 598.645,193.396 609.864,194.117 621.082,194.838 632.3,195.546 
  643.518,196.228 654.737,196.876 665.955,197.479 677.173,198.033 688.391,198.532 699.609,198.974 710.828,199.356 722.046,199.678 733.264,199.941 744.482,200.146 
  755.7,200.294 766.919,200.387 778.137,200.429 789.355,200.422 800.573,200.369 811.791,200.273 823.01,200.137 834.228,199.964 845.446,199.757 856.664,199.519 
  867.883,199.252 879.101,198.96 890.319,198.644 901.537,198.306 912.755,197.949 923.974,197.576 935.192,197.187 946.41,196.786 957.628,196.373 968.846,195.952 
  980.065,195.524 991.283,195.092 1002.5,194.658 1013.72,194.225 1024.94,193.795 1036.16,193.375 1047.37,192.966 1058.59,192.755 1069.81,192.56 1081.03,192.254 
  1092.25,192.001 1103.46,191.793 1114.68,191.624 1125.9,191.487 1137.12,191.379 1148.34,191.294 1159.56,191.227 1170.77,191.175 1181.99,191.135 1193.21,191.103 
  1204.43,191.077 1215.65,191.054 1226.87,191.032 1238.08,191.01 1249.3,190.987 1260.52,190.961 1271.74,190.932 1282.96,190.899 1294.17,190.863 1305.39,190.822 
  1316.61,190.778 1327.83,190.73 1339.05,190.679 1350.27,190.625 1361.48,190.569 1372.7,190.511 1383.92,190.452 1395.14,190.393 1406.36,190.335 1417.57,190.278 
  1428.79,190.224 1440.01,190.172 1451.23,190.124 1462.45,190.081 1473.67,190.043 1484.88,190.012 1496.1,189.987 1507.32,189.969 1518.54,189.959 1529.76,189.958 
  1540.98,189.966 1552.19,189.983 1563.41,190.01 1574.63,190.048 1585.85,190.096 1597.07,190.154 1608.28,190.224 1619.5,190.304 1630.72,190.395 1641.94,190.497 
  1653.16,190.609 1664.38,190.732 1675.59,190.863 1686.81,191.005 1698.03,191.154 1709.25,191.311 1720.47,191.474 1731.68,191.643 1742.9,191.816 1754.12,191.993 
  1765.34,192.171 1776.56,192.349 1787.78,192.527 1798.99,192.702 1810.21,192.875 1821.43,193.043 1832.65,193.205 1843.87,193.361 1855.09,193.509 1866.3,193.648 
  1877.52,193.777 1888.74,193.896 1899.96,194.002 1911.18,194.097 1922.39,194.179 1933.61,194.249 1944.83,194.305 1956.05,194.349 1967.27,194.381 1978.49,194.4 
  1989.7,194.407 2000.92,194.403 2012.14,194.39 2023.36,194.366 2034.58,194.335 2045.79,194.296 2057.01,194.251 2068.23,194.201 2079.45,194.147 2090.67,194.09 
  2101.89,194.031 2113.1,193.972 2124.32,193.914 2135.54,193.857 2146.76,193.802 2157.98,193.75 2169.19,193.702 2180.41,193.658 2191.63,193.619 2202.85,193.585 
  2214.07,193.556 2225.29,193.532 2236.5,193.514 2247.72,193.5 2258.94,193.491 2270.16,193.486 2281.38,193.485 2292.6,193.487 2303.81,193.49 2315.03,193.496 
  2326.25,193.502 2337.47,193.508 2348.69,193.513 2359.9,193.517 2371.12,193.517 2382.34,193.515 2393.56,193.509 2404.78,193.498 2416,193.483 2427.21,193.463 
  2438.43,193.438 2449.65,193.408 2460.87,193.375 2472.09,193.337 2483.3,193.298 2494.52,193.254 2505.74,193.212 2516.96,193.164 2528.18,193.124 2539.4,193.065 
  2550.61,193.02 
  "/>
<polyline clip-path="url(#clip9802)" style="stroke:#c271d2; stroke-width:16; stroke-opacity:1; fill:none" points="
  306.972,189.754 318.19,189.754 329.408,191.133 340.627,194.35 351.845,199.839 363.063,206.625 374.281,212.934 385.499,217.555 396.718,220.186 407.936,221.065 
  419.154,220.617 430.372,219.237 441.591,217.248 452.809,214.891 464.027,212.348 475.245,209.747 486.463,207.183 497.682,204.724 508.9,202.416 520.118,200.29 
  531.336,198.365 542.554,196.651 553.773,195.151 564.991,193.863 576.209,192.779 587.427,191.891 598.645,191.187 609.864,190.652 621.082,190.273 632.3,190.034 
  643.518,189.92 654.737,189.913 665.955,189.999 677.173,190.162 688.391,190.387 699.609,190.659 710.828,190.966 722.046,191.295 733.264,191.635 744.482,191.975 
  755.7,192.306 766.919,192.621 778.137,192.912 789.355,193.173 800.573,193.401 811.791,193.591 823.01,193.742 834.228,193.85 845.446,193.916 856.664,193.939 
  867.883,193.92 879.101,193.86 890.319,193.761 901.537,193.626 912.755,193.458 923.974,193.259 935.192,193.033 946.41,192.786 957.628,192.52 968.846,192.241 
  980.065,191.955 991.283,191.667 1002.5,191.383 1013.72,191.11 1024.94,190.854 1036.16,190.623 1047.37,190.424 1058.59,190.341 1069.81,190.257 1081.03,190.165 
  1092.25,190.127 1103.46,190.133 1114.68,190.174 1125.9,190.242 1137.12,190.33 1148.34,190.429 1159.56,190.533 1170.77,190.634 1181.99,190.727 1193.21,190.806 
  1204.43,190.87 1215.65,190.915 1226.87,190.942 1238.08,190.951 1249.3,190.945 1260.52,190.923 1271.74,190.889 1282.96,190.845 1294.17,190.791 1305.39,190.731 
  1316.61,190.666 1327.83,190.598 1339.05,190.528 1350.27,190.457 1361.48,190.387 1372.7,190.319 1383.92,190.252 1395.14,190.189 1406.36,190.13 1417.57,190.074 
  1428.79,190.023 1440.01,189.977 1451.23,189.936 1462.45,189.9 1473.67,189.87 1484.88,189.846 1496.1,189.828 1507.32,189.817 1518.54,189.814 1529.76,189.819 
  1540.98,189.832 1552.19,189.854 1563.41,189.887 1574.63,189.93 1585.85,189.986 1597.07,190.053 1608.28,190.134 1619.5,190.227 1630.72,190.334 1641.94,190.454 
  1653.16,190.584 1664.38,190.724 1675.59,190.869 1686.81,191.017 1698.03,191.162 1709.25,191.299 1720.47,191.424 1731.68,191.534 1742.9,191.624 1754.12,191.692 
  1765.34,191.738 1776.56,191.761 1787.78,191.763 1798.99,191.744 1810.21,191.708 1821.43,191.655 1832.65,191.59 1843.87,191.513 1855.09,191.429 1866.3,191.338 
  1877.52,191.243 1888.74,191.146 1899.96,191.047 1911.18,190.949 1922.39,190.853 1933.61,190.759 1944.83,190.669 1956.05,190.582 1967.27,190.5 1978.49,190.422 
  1989.7,190.35 2000.92,190.283 2012.14,190.221 2023.36,190.164 2034.58,190.112 2045.79,190.065 2057.01,190.023 2068.23,189.986 2079.45,189.953 2090.67,189.924 
  2101.89,189.9 2113.1,189.879 2124.32,189.862 2135.54,189.849 2146.76,189.839 2157.98,189.833 2169.19,189.83 2180.41,189.831 2191.63,189.834 2202.85,189.841 
  2214.07,189.852 2225.29,189.866 2236.5,189.884 2247.72,189.905 2258.94,189.93 2270.16,189.959 2281.38,189.993 2292.6,190.03 2303.81,190.072 2315.03,190.119 
  2326.25,190.17 2337.47,190.226 2348.69,190.287 2359.9,190.352 2371.12,190.421 2382.34,190.494 2393.56,190.571 2404.78,190.65 2416,190.731 2427.21,190.812 
  2438.43,190.892 2449.65,190.97 2460.87,191.044 2472.09,191.112 2483.3,191.17 2494.52,191.22 2505.74,191.258 2516.96,191.286 2528.18,191.302 2539.4,191.314 
  2550.61,191.327 
  "/>
<polyline clip-path="url(#clip9802)" style="stroke:#ac8d18; stroke-width:16; stroke-opacity:1; fill:none" points="
  306.972,189.754 318.19,189.754 329.408,207.164 340.627,214.13 351.845,207.402 363.063,199.951 374.281,195.565 385.499,193.379 396.718,192.323 407.936,191.811 
  419.154,191.567 430.372,191.463 441.591,191.442 452.809,191.471 464.027,191.538 475.245,191.633 486.463,191.752 497.682,191.891 508.9,192.049 520.118,192.225 
  531.336,192.416 542.554,192.623 553.773,192.842 564.991,193.072 576.209,193.312 587.427,193.56 598.645,193.812 609.864,194.067 621.082,194.323 632.3,194.577 
  643.518,194.826 654.737,195.068 665.955,195.3 677.173,195.519 688.391,195.724 699.609,195.912 710.828,196.08 722.046,196.228 733.264,196.353 744.482,196.455 
  755.7,196.531 766.919,196.581 778.137,196.605 789.355,196.601 800.573,196.571 811.791,196.514 823.01,196.431 834.228,196.321 845.446,196.186 856.664,196.027 
  867.883,195.845 879.101,195.64 890.319,195.414 901.537,195.169 912.755,194.905 923.974,194.624 935.192,194.329 946.41,194.019 957.628,193.699 968.846,193.369 
  980.065,193.032 991.283,192.69 1002.5,192.346 1013.72,192.003 1024.94,191.666 1036.16,191.337 1047.37,191.024 1058.59,190.869 1069.81,190.695 1081.03,190.443 
  1092.25,190.244 1103.46,190.091 1114.68,189.976 1125.9,189.891 1137.12,189.829 1148.34,189.786 1159.56,189.757 1170.77,189.739 1181.99,189.73 1193.21,189.727 
  1204.43,189.73 1215.65,189.739 1226.87,189.754 1238.08,189.774 1249.3,189.801 1260.52,189.835 1271.74,189.877 1282.96,189.929 1294.17,189.992 1305.39,190.067 
  1316.61,190.155 1327.83,190.259 1339.05,190.379 1350.27,190.519 1361.48,190.68 1372.7,190.863 1383.92,191.07 1395.14,191.304 1406.36,191.565 1417.57,191.855 
  1428.79,192.176 1440.01,192.526 1451.23,192.908 1462.45,193.319 1473.67,193.761 1484.88,194.23 1496.1,194.724 1507.32,195.24 1518.54,195.775 1529.76,196.324 
  1540.98,196.88 1552.19,197.438 1563.41,197.991 1574.63,198.531 1585.85,199.049 1597.07,199.537 1608.28,199.986 1619.5,200.387 1630.72,200.73 1641.94,201.008 
  1653.16,201.215 1664.38,201.346 1675.59,201.4 1686.81,201.375 1698.03,201.269 1709.25,201.082 1720.47,200.816 1731.68,200.475 1742.9,200.067 1754.12,199.6 
  1765.34,199.085 1776.56,198.532 1787.78,197.952 1798.99,197.357 1810.21,196.757 1821.43,196.159 1832.65,195.572 1843.87,195.001 1855.09,194.453 1866.3,193.932 
  1877.52,193.44 1888.74,192.981 1899.96,192.556 1911.18,192.166 1922.39,191.811 1933.61,191.49 1944.83,191.204 1956.05,190.95 1967.27,190.727 1978.49,190.534 
  1989.7,190.368 2000.92,190.227 2012.14,190.11 2023.36,190.014 2034.58,189.938 2045.79,189.879 2057.01,189.836 2068.23,189.807 2079.45,189.791 2090.67,189.786 
  2101.89,189.791 2113.1,189.805 2124.32,189.828 2135.54,189.858 2146.76,189.896 2157.98,189.94 2169.19,189.991 2180.41,190.047 2191.63,190.11 2202.85,190.179 
  2214.07,190.254 2225.29,190.335 2236.5,190.422 2247.72,190.516 2258.94,190.617 2270.16,190.724 2281.38,190.838 2292.6,190.958 2303.81,191.086 2315.03,191.22 
  2326.25,191.361 2337.47,191.507 2348.69,191.659 2359.9,191.816 2371.12,191.976 2382.34,192.139 2393.56,192.303 2404.78,192.466 2416,192.625 2427.21,192.78 
  2438.43,192.925 2449.65,193.06 2460.87,193.179 2472.09,193.282 2483.3,193.363 2494.52,193.423 2505.74,193.456 2516.96,193.469 2528.18,193.46 2539.4,193.451 
  2550.61,193.465 
  "/>
<polyline clip-path="url(#clip9802)" style="stroke:#00a9ad; stroke-width:16; stroke-opacity:1; fill:none" points="
  306.972,189.754 318.19,189.754 329.408,203.245 340.627,206.694 351.845,200.058 363.063,194.349 374.281,191.545 385.499,190.432 396.718,190.032 407.936,189.902 
  419.154,189.867 430.372,189.868 441.591,189.886 452.809,189.92 464.027,189.974 475.245,190.052 486.463,190.16 497.682,190.301 508.9,190.478 520.118,190.693 
  531.336,190.947 542.554,191.237 553.773,191.563 564.991,191.92 576.209,192.307 587.427,192.717 598.645,193.147 609.864,193.591 621.082,194.044 632.3,194.501 
  643.518,194.957 654.737,195.407 665.955,195.845 677.173,196.269 688.391,196.674 699.609,197.057 710.828,197.415 722.046,197.746 733.264,198.048 744.482,198.32 
  755.7,198.561 766.919,198.769 778.137,198.945 789.355,199.087 800.573,199.196 811.791,199.272 823.01,199.315 834.228,199.324 845.446,199.3 856.664,199.243 
  867.883,199.153 879.101,199.031 890.319,198.875 901.537,198.686 912.755,198.464 923.974,198.211 935.192,197.923 946.41,197.605 957.628,197.254 968.846,196.873 
  980.065,196.46 991.283,196.02 1002.5,195.551 1013.72,195.06 1024.94,194.542 1036.16,194.008 1047.37,193.452 1058.59,193.145 1069.81,192.832 1081.03,192.319 
  1092.25,191.872 1103.46,191.487 1114.68,191.159 1125.9,190.882 1137.12,190.651 1148.34,190.46 1159.56,190.306 1170.77,190.184 1181.99,190.091 1193.21,190.023 
  1204.43,189.979 1215.65,189.955 1226.87,189.951 1238.08,189.963 1249.3,189.99 1260.52,190.03 1271.74,190.081 1282.96,190.142 1294.17,190.211 1305.39,190.287 
  1316.61,190.368 1327.83,190.454 1339.05,190.542 1350.27,190.631 1361.48,190.722 1372.7,190.811 1383.92,190.899 1395.14,190.985 1406.36,191.067 1417.57,191.146 
  1428.79,191.219 1440.01,191.288 1451.23,191.351 1462.45,191.407 1473.67,191.457 1484.88,191.501 1496.1,191.537 1507.32,191.567 1518.54,191.59 1529.76,191.606 
  1540.98,191.616 1552.19,191.619 1563.41,191.617 1574.63,191.61 1585.85,191.598 1597.07,191.582 1608.28,191.563 1619.5,191.542 1630.72,191.518 1641.94,191.494 
  1653.16,191.468 1664.38,191.442 1675.59,191.415 1686.81,191.39 1698.03,191.366 1709.25,191.345 1720.47,191.326 1731.68,191.31 1742.9,191.299 1754.12,191.291 
  1765.34,191.288 1776.56,191.289 1787.78,191.294 1798.99,191.304 1810.21,191.319 1821.43,191.337 1832.65,191.359 1843.87,191.384 1855.09,191.413 1866.3,191.443 
  1877.52,191.476 1888.74,191.51 1899.96,191.544 1911.18,191.58 1922.39,191.615 1933.61,191.65 1944.83,191.685 1956.05,191.718 1967.27,191.751 1978.49,191.782 
  1989.7,191.812 2000.92,191.84 2012.14,191.868 2023.36,191.894 2034.58,191.919 2045.79,191.943 2057.01,191.966 2068.23,191.988 2079.45,192.011 2090.67,192.033 
  2101.89,192.055 2113.1,192.079 2124.32,192.103 2135.54,192.129 2146.76,192.157 2157.98,192.187 2169.19,192.22 2180.41,192.255 2191.63,192.295 2202.85,192.339 
  2214.07,192.387 2225.29,192.44 2236.5,192.498 2247.72,192.562 2258.94,192.632 2270.16,192.708 2281.38,192.791 2292.6,192.881 2303.81,192.978 2315.03,193.082 
  2326.25,193.192 2337.47,193.31 2348.69,193.435 2359.9,193.566 2371.12,193.704 2382.34,193.848 2393.56,193.996 2404.78,194.15 2416,194.307 2427.21,194.466 
  2438.43,194.626 2449.65,194.786 2460.87,194.943 2472.09,195.096 2483.3,195.241 2494.52,195.378 2505.74,195.498 2516.96,195.604 2528.18,195.68 2539.4,195.737 
  2550.61,195.77 
  "/>
<polyline clip-path="url(#clip9802)" style="stroke:#ed5d92; stroke-width:16; stroke-opacity:1; fill:none" points="
  306.972,189.754 318.19,189.754 329.408,193.028 340.627,194.177 351.845,192.494 363.063,190.882 374.281,190.114 385.499,189.866 396.718,189.833 407.936,189.866 
  419.154,189.913 430.372,189.954 441.591,189.988 452.809,190.017 464.027,190.044 475.245,190.073 486.463,190.107 497.682,190.149 508.9,190.201 520.118,190.265 
  531.336,190.341 542.554,190.431 553.773,190.536 564.991,190.655 576.209,190.79 587.427,190.939 598.645,191.104 609.864,191.284 621.082,191.478 632.3,191.687 
  643.518,191.909 654.737,192.146 665.955,192.397 677.173,192.661 688.391,192.939 699.609,193.232 710.828,193.54 722.046,193.864 733.264,194.205 744.482,194.565 
  755.7,194.945 766.919,195.349 778.137,195.778 789.355,196.237 800.573,196.727 811.791,197.253 823.01,197.818 834.228,198.429 845.446,199.089 856.664,199.804 
  867.883,200.58 879.101,201.423 890.319,202.34 901.537,203.34 912.755,204.431 923.974,205.622 935.192,206.923 946.41,208.346 957.628,209.903 968.846,211.606 
  980.065,213.469 991.283,215.505 1002.5,217.723 1013.72,220.124 1024.94,222.692 1036.16,225.372 1047.37,228.042 1058.59,230.461 1069.81,233.05 1081.03,236.336 
  1092.25,240.18 1103.46,244.516 1114.68,249.298 1125.9,254.488 1137.12,260.045 1148.34,265.926 1159.56,272.098 1170.77,278.541 1181.99,285.26 1193.21,292.264 
  1204.43,299.578 1215.65,307.215 1226.87,315.196 1238.08,323.531 1249.3,332.23 1260.52,341.299 1271.74,350.745 1282.96,360.568 1294.17,370.773 1305.39,381.362 
  1316.61,392.342 1327.83,403.716 1339.05,415.493 1350.27,427.681 1361.48,440.293 1372.7,453.341 1383.92,466.84 1395.14,480.806 1406.36,495.257 1417.57,510.212 
  1428.79,525.69 1440.01,541.709 1451.23,558.29 1462.45,575.45 1473.67,593.206 1484.88,611.575 1496.1,630.573 1507.32,650.214 1518.54,670.512 1529.76,691.484 
  1540.98,713.144 1552.19,735.512 1563.41,758.611 1574.63,782.472 1585.85,807.131 1597.07,832.635 1608.28,859.036 1619.5,886.393 1630.72,914.759 1641.94,944.177 
  1653.16,974.662 1664.38,1006.2 1675.59,1038.75 1686.81,1072.2 1698.03,1106.42 1709.25,1141.23 1720.47,1176.43 1731.68,1211.78 1742.9,1247.08 1754.12,1282.12 
  1765.34,1316.7 1776.56,1350.64 1787.78,1383.8 1798.99,1416.06 1810.21,1447.32 1821.43,1477.53 1832.65,1506.66 1843.87,1534.7 1855.09,1561.67 1866.3,1587.61 
  1877.52,1612.54 1888.74,1636.49 1899.96,1659.5 1911.18,1681.59 1922.39,1702.8 1933.61,1723.15 1944.83,1742.66 1956.05,1761.36 1967.27,1779.27 1978.49,1796.42 
  1989.7,1812.83 2000.92,1828.52 2012.14,1843.52 2023.36,1857.85 2034.58,1871.53 2045.79,1884.6 2057.01,1897.08 2068.23,1908.98 2079.45,1920.33 2090.67,1931.16 
  2101.89,1941.49 2113.1,1951.34 2124.32,1960.73 2135.54,1969.69 2146.76,1978.24 2157.98,1986.4 2169.19,1994.18 2180.41,2001.62 2191.63,2008.74 2202.85,2015.54 
  2214.07,2022.07 2225.29,2028.32 2236.5,2034.33 2247.72,2040.11 2258.94,2045.68 2270.16,2051.06 2281.38,2056.26 2292.6,2061.3 2303.81,2066.2 2315.03,2070.96 
  2326.25,2075.6 2337.47,2080.12 2348.69,2084.55 2359.9,2088.88 2371.12,2093.13 2382.34,2097.3 2393.56,2101.39 2404.78,2105.4 2416,2109.35 2427.21,2113.21 
  2438.43,2117.01 2449.65,2120.72 2460.87,2124.35 2472.09,2127.88 2483.3,2131.31 2494.52,2134.61 2505.74,2137.76 2516.96,2140.68 2528.18,2143.29 2539.4,2145.31 
  2550.61,2146.22 
  "/>
<path clip-path="url(#clip9800)" d="
M2713.92 746.392 L3184.76 746.392 L3184.76 262.552 L2713.92 262.552  Z
  " fill="#ffffff" fill-rule="evenodd" fill-opacity="1"/>
<polyline clip-path="url(#clip9800)" style="stroke:#000000; stroke-width:4; stroke-opacity:1; fill:none" points="
  2713.92,746.392 3184.76,746.392 3184.76,262.552 2713.92,262.552 2713.92,746.392 
  "/>
<polyline clip-path="url(#clip9800)" style="stroke:#009af9; stroke-width:16; stroke-opacity:1; fill:none" points="
  2745.92,323.032 2937.92,323.032 
  "/>
<path clip-path="url(#clip9800)" d="M 0 0 M2991.95 303.633 Q2984.95 303.633 2980.81 308.853 Q2976.7 314.072 2976.7 323.08 Q2976.7 332.056 2980.81 337.275 Q2984.95 342.495 2991.95 342.495 Q2998.95 342.495 3003.03 337.275 Q3007.13 332.056 3007.13 323.08 Q3007.13 314.072 3003.03 308.853 Q2998.95 303.633 2991.95 303.633 M3000.96 345.933 L3009.42 355.195 L3001.66 355.195 L2994.62 347.588 Q2993.57 347.651 2993 347.683 Q2992.46 347.715 2991.95 347.715 Q2981.92 347.715 2975.91 341.031 Q2969.92 334.315 2969.92 323.08 Q2969.92 311.813 2975.91 305.129 Q2981.92 298.413 2991.95 298.413 Q3001.94 298.413 3007.93 305.129 Q3013.91 311.813 3013.91 323.08 Q3013.91 331.355 3010.57 337.244 Q3007.26 343.132 3000.96 345.933 Z" fill="#000000" fill-rule="evenodd" fill-opacity="1" /><path clip-path="url(#clip9800)" d="M 0 0 M3019.45 332.724 L3019.45 311.144 L3025.31 311.144 L3025.31 332.501 Q3025.31 337.562 3027.28 340.108 Q3029.25 342.623 3033.2 342.623 Q3037.94 342.623 3040.68 339.599 Q3043.45 336.575 3043.45 331.355 L3043.45 311.144 L3049.3 311.144 L3049.3 346.792 L3043.45 346.792 L3043.45 341.318 Q3041.31 344.564 3038.48 346.156 Q3035.68 347.715 3031.96 347.715 Q3025.81 347.715 3022.63 343.896 Q3019.45 340.076 3019.45 332.724 M3034.19 310.285 L3034.19 310.285 Z" fill="#000000" fill-rule="evenodd" fill-opacity="1" /><path clip-path="url(#clip9800)" d="M 0 0 M3071.65 328.873 Q3064.55 328.873 3061.81 330.496 Q3059.08 332.119 3059.08 336.034 Q3059.08 339.153 3061.11 340.999 Q3063.18 342.814 3066.71 342.814 Q3071.58 342.814 3074.51 339.376 Q3077.47 335.907 3077.47 330.178 L3077.47 328.873 L3071.65 328.873 M3083.33 326.454 L3083.33 346.792 L3077.47 346.792 L3077.47 341.381 Q3075.47 344.628 3072.47 346.187 Q3069.48 347.715 3065.15 347.715 Q3059.68 347.715 3056.43 344.66 Q3053.22 341.572 3053.22 336.416 Q3053.22 330.4 3057.23 327.345 Q3061.27 324.289 3069.26 324.289 L3077.47 324.289 L3077.47 323.716 Q3077.47 319.674 3074.8 317.478 Q3072.16 315.25 3067.35 315.25 Q3064.29 315.25 3061.4 315.982 Q3058.5 316.714 3055.83 318.178 L3055.83 312.767 Q3059.04 311.526 3062.07 310.921 Q3065.09 310.285 3067.96 310.285 Q3075.69 310.285 3079.51 314.295 Q3083.33 318.306 3083.33 326.454 Z" fill="#000000" fill-rule="evenodd" fill-opacity="1" /><path clip-path="url(#clip9800)" d="M 0 0 M3112.93 316.555 L3112.93 297.267 L3118.79 297.267 L3118.79 346.792 L3112.93 346.792 L3112.93 341.445 Q3111.08 344.628 3108.25 346.187 Q3105.45 347.715 3101.5 347.715 Q3095.04 347.715 3090.97 342.559 Q3086.93 337.403 3086.93 329 Q3086.93 320.597 3090.97 315.441 Q3095.04 310.285 3101.5 310.285 Q3105.45 310.285 3108.25 311.844 Q3111.08 313.372 3112.93 316.555 M3092.97 329 Q3092.97 335.461 3095.61 339.153 Q3098.29 342.814 3102.93 342.814 Q3107.58 342.814 3110.26 339.153 Q3112.93 335.461 3112.93 329 Q3112.93 322.539 3110.26 318.879 Q3107.58 315.186 3102.93 315.186 Q3098.29 315.186 3095.61 318.879 Q3092.97 322.539 3092.97 329 Z" fill="#000000" fill-rule="evenodd" fill-opacity="1" /><path clip-path="url(#clip9800)" d="M 0 0 M3147.59 341.381 L3158.09 341.381 L3158.09 305.129 L3146.67 307.42 L3146.67 301.564 L3158.03 299.272 L3164.46 299.272 L3164.46 341.381 L3174.96 341.381 L3174.96 346.792 L3147.59 346.792 L3147.59 341.381 Z" fill="#000000" fill-rule="evenodd" fill-opacity="1" /><polyline clip-path="url(#clip9800)" style="stroke:#e26f46; stroke-width:16; stroke-opacity:1; fill:none" points="
  2745.92,383.512 2937.92,383.512 
  "/>
<path clip-path="url(#clip9800)" d="M 0 0 M2991.95 364.113 Q2984.95 364.113 2980.81 369.333 Q2976.7 374.552 2976.7 383.56 Q2976.7 392.536 2980.81 397.755 Q2984.95 402.975 2991.95 402.975 Q2998.95 402.975 3003.03 397.755 Q3007.13 392.536 3007.13 383.56 Q3007.13 374.552 3003.03 369.333 Q2998.95 364.113 2991.95 364.113 M3000.96 406.413 L3009.42 415.675 L3001.66 415.675 L2994.62 408.068 Q2993.57 408.131 2993 408.163 Q2992.46 408.195 2991.95 408.195 Q2981.92 408.195 2975.91 401.511 Q2969.92 394.795 2969.92 383.56 Q2969.92 372.293 2975.91 365.609 Q2981.92 358.893 2991.95 358.893 Q3001.94 358.893 3007.93 365.609 Q3013.91 372.293 3013.91 383.56 Q3013.91 391.835 3010.57 397.724 Q3007.26 403.612 3000.96 406.413 Z" fill="#000000" fill-rule="evenodd" fill-opacity="1" /><path clip-path="url(#clip9800)" d="M 0 0 M3019.45 393.204 L3019.45 371.624 L3025.31 371.624 L3025.31 392.981 Q3025.31 398.042 3027.28 400.588 Q3029.25 403.103 3033.2 403.103 Q3037.94 403.103 3040.68 400.079 Q3043.45 397.055 3043.45 391.835 L3043.45 371.624 L3049.3 371.624 L3049.3 407.272 L3043.45 407.272 L3043.45 401.798 Q3041.31 405.044 3038.48 406.636 Q3035.68 408.195 3031.96 408.195 Q3025.81 408.195 3022.63 404.376 Q3019.45 400.556 3019.45 393.204 M3034.19 370.765 L3034.19 370.765 Z" fill="#000000" fill-rule="evenodd" fill-opacity="1" /><path clip-path="url(#clip9800)" d="M 0 0 M3071.65 389.353 Q3064.55 389.353 3061.81 390.976 Q3059.08 392.599 3059.08 396.514 Q3059.08 399.633 3061.11 401.479 Q3063.18 403.294 3066.71 403.294 Q3071.58 403.294 3074.51 399.856 Q3077.47 396.387 3077.47 390.658 L3077.47 389.353 L3071.65 389.353 M3083.33 386.934 L3083.33 407.272 L3077.47 407.272 L3077.47 401.861 Q3075.47 405.108 3072.47 406.667 Q3069.48 408.195 3065.15 408.195 Q3059.68 408.195 3056.43 405.14 Q3053.22 402.052 3053.22 396.896 Q3053.22 390.88 3057.23 387.825 Q3061.27 384.769 3069.26 384.769 L3077.47 384.769 L3077.47 384.196 Q3077.47 380.154 3074.8 377.958 Q3072.16 375.73 3067.35 375.73 Q3064.29 375.73 3061.4 376.462 Q3058.5 377.194 3055.83 378.658 L3055.83 373.247 Q3059.04 372.006 3062.07 371.401 Q3065.09 370.765 3067.96 370.765 Q3075.69 370.765 3079.51 374.775 Q3083.33 378.786 3083.33 386.934 Z" fill="#000000" fill-rule="evenodd" fill-opacity="1" /><path clip-path="url(#clip9800)" d="M 0 0 M3112.93 377.035 L3112.93 357.747 L3118.79 357.747 L3118.79 407.272 L3112.93 407.272 L3112.93 401.925 Q3111.08 405.108 3108.25 406.667 Q3105.45 408.195 3101.5 408.195 Q3095.04 408.195 3090.97 403.039 Q3086.93 397.883 3086.93 389.48 Q3086.93 381.077 3090.97 375.921 Q3095.04 370.765 3101.5 370.765 Q3105.45 370.765 3108.25 372.324 Q3111.08 373.852 3112.93 377.035 M3092.97 389.48 Q3092.97 395.941 3095.61 399.633 Q3098.29 403.294 3102.93 403.294 Q3107.58 403.294 3110.26 399.633 Q3112.93 395.941 3112.93 389.48 Q3112.93 383.019 3110.26 379.359 Q3107.58 375.666 3102.93 375.666 Q3098.29 375.666 3095.61 379.359 Q3092.97 383.019 3092.97 389.48 Z" fill="#000000" fill-rule="evenodd" fill-opacity="1" /><path clip-path="url(#clip9800)" d="M 0 0 M3152.01 401.861 L3174.45 401.861 L3174.45 407.272 L3144.28 407.272 L3144.28 401.861 Q3147.94 398.074 3154.24 391.708 Q3160.58 385.31 3162.2 383.464 Q3165.29 379.995 3166.5 377.608 Q3167.74 375.189 3167.74 372.865 Q3167.74 369.078 3165.06 366.691 Q3162.42 364.304 3158.16 364.304 Q3155.13 364.304 3151.76 365.354 Q3148.42 366.404 3144.6 368.537 L3144.6 362.044 Q3148.48 360.484 3151.86 359.688 Q3155.23 358.893 3158.03 358.893 Q3165.41 358.893 3169.81 362.585 Q3174.2 366.277 3174.2 372.452 Q3174.2 375.38 3173.08 378.022 Q3172 380.632 3169.11 384.196 Q3168.31 385.119 3164.05 389.544 Q3159.78 393.936 3152.01 401.861 Z" fill="#000000" fill-rule="evenodd" fill-opacity="1" /><polyline clip-path="url(#clip9800)" style="stroke:#3da44d; stroke-width:16; stroke-opacity:1; fill:none" points="
  2745.92,443.992 2937.92,443.992 
  "/>
<path clip-path="url(#clip9800)" d="M 0 0 M2991.95 424.593 Q2984.95 424.593 2980.81 429.813 Q2976.7 435.032 2976.7 444.04 Q2976.7 453.016 2980.81 458.235 Q2984.95 463.455 2991.95 463.455 Q2998.95 463.455 3003.03 458.235 Q3007.13 453.016 3007.13 444.04 Q3007.13 435.032 3003.03 429.813 Q2998.95 424.593 2991.95 424.593 M3000.96 466.893 L3009.42 476.155 L3001.66 476.155 L2994.62 468.548 Q2993.57 468.611 2993 468.643 Q2992.46 468.675 2991.95 468.675 Q2981.92 468.675 2975.91 461.991 Q2969.92 455.275 2969.92 444.04 Q2969.92 432.773 2975.91 426.089 Q2981.92 419.373 2991.95 419.373 Q3001.94 419.373 3007.93 426.089 Q3013.91 432.773 3013.91 444.04 Q3013.91 452.315 3010.57 458.204 Q3007.26 464.092 3000.96 466.893 Z" fill="#000000" fill-rule="evenodd" fill-opacity="1" /><path clip-path="url(#clip9800)" d="M 0 0 M3019.45 453.684 L3019.45 432.104 L3025.31 432.104 L3025.31 453.461 Q3025.31 458.522 3027.28 461.068 Q3029.25 463.583 3033.2 463.583 Q3037.94 463.583 3040.68 460.559 Q3043.45 457.535 3043.45 452.315 L3043.45 432.104 L3049.3 432.104 L3049.3 467.752 L3043.45 467.752 L3043.45 462.278 Q3041.31 465.524 3038.48 467.116 Q3035.68 468.675 3031.96 468.675 Q3025.81 468.675 3022.63 464.856 Q3019.45 461.036 3019.45 453.684 M3034.19 431.245 L3034.19 431.245 Z" fill="#000000" fill-rule="evenodd" fill-opacity="1" /><path clip-path="url(#clip9800)" d="M 0 0 M3071.65 449.833 Q3064.55 449.833 3061.81 451.456 Q3059.08 453.079 3059.08 456.994 Q3059.08 460.113 3061.11 461.959 Q3063.18 463.774 3066.71 463.774 Q3071.58 463.774 3074.51 460.336 Q3077.47 456.867 3077.47 451.138 L3077.47 449.833 L3071.65 449.833 M3083.33 447.414 L3083.33 467.752 L3077.47 467.752 L3077.47 462.341 Q3075.47 465.588 3072.47 467.147 Q3069.48 468.675 3065.15 468.675 Q3059.68 468.675 3056.43 465.62 Q3053.22 462.532 3053.22 457.376 Q3053.22 451.36 3057.23 448.305 Q3061.27 445.249 3069.26 445.249 L3077.47 445.249 L3077.47 444.676 Q3077.47 440.634 3074.8 438.438 Q3072.16 436.21 3067.35 436.21 Q3064.29 436.21 3061.4 436.942 Q3058.5 437.674 3055.83 439.138 L3055.83 433.727 Q3059.04 432.486 3062.07 431.881 Q3065.09 431.245 3067.96 431.245 Q3075.69 431.245 3079.51 435.255 Q3083.33 439.266 3083.33 447.414 Z" fill="#000000" fill-rule="evenodd" fill-opacity="1" /><path clip-path="url(#clip9800)" d="M 0 0 M3112.93 437.515 L3112.93 418.227 L3118.79 418.227 L3118.79 467.752 L3112.93 467.752 L3112.93 462.405 Q3111.08 465.588 3108.25 467.147 Q3105.45 468.675 3101.5 468.675 Q3095.04 468.675 3090.97 463.519 Q3086.93 458.363 3086.93 449.96 Q3086.93 441.557 3090.97 436.401 Q3095.04 431.245 3101.5 431.245 Q3105.45 431.245 3108.25 432.804 Q3111.08 434.332 3112.93 437.515 M3092.97 449.96 Q3092.97 456.421 3095.61 460.113 Q3098.29 463.774 3102.93 463.774 Q3107.58 463.774 3110.26 460.113 Q3112.93 456.421 3112.93 449.96 Q3112.93 443.499 3110.26 439.839 Q3107.58 436.146 3102.93 436.146 Q3098.29 436.146 3095.61 439.839 Q3092.97 443.499 3092.97 449.96 Z" fill="#000000" fill-rule="evenodd" fill-opacity="1" /><path clip-path="url(#clip9800)" d="M 0 0 M3165.96 442.13 Q3170.57 443.117 3173.15 446.236 Q3175.76 449.355 3175.76 453.939 Q3175.76 460.973 3170.92 464.824 Q3166.08 468.675 3157.17 468.675 Q3154.18 468.675 3151 468.07 Q3147.84 467.497 3144.47 466.32 L3144.47 460.113 Q3147.14 461.673 3150.33 462.469 Q3153.51 463.264 3156.98 463.264 Q3163.03 463.264 3166.18 460.877 Q3169.36 458.49 3169.36 453.939 Q3169.36 449.737 3166.4 447.382 Q3163.47 444.995 3158.22 444.995 L3152.68 444.995 L3152.68 439.711 L3158.48 439.711 Q3163.22 439.711 3165.73 437.833 Q3168.25 435.924 3168.25 432.359 Q3168.25 428.699 3165.64 426.757 Q3163.06 424.784 3158.22 424.784 Q3155.58 424.784 3152.56 425.357 Q3149.53 425.929 3145.9 427.139 L3145.9 421.41 Q3149.56 420.391 3152.75 419.882 Q3155.96 419.373 3158.79 419.373 Q3166.11 419.373 3170.38 422.715 Q3174.64 426.025 3174.64 431.69 Q3174.64 435.637 3172.38 438.374 Q3170.12 441.08 3165.96 442.13 Z" fill="#000000" fill-rule="evenodd" fill-opacity="1" /><polyline clip-path="url(#clip9800)" style="stroke:#c271d2; stroke-width:16; stroke-opacity:1; fill:none" points="
  2745.92,504.472 2937.92,504.472 
  "/>
<path clip-path="url(#clip9800)" d="M 0 0 M2991.95 485.073 Q2984.95 485.073 2980.81 490.293 Q2976.7 495.512 2976.7 504.52 Q2976.7 513.496 2980.81 518.715 Q2984.95 523.935 2991.95 523.935 Q2998.95 523.935 3003.03 518.715 Q3007.13 513.496 3007.13 504.52 Q3007.13 495.512 3003.03 490.293 Q2998.95 485.073 2991.95 485.073 M3000.96 527.373 L3009.42 536.635 L3001.66 536.635 L2994.62 529.028 Q2993.57 529.091 2993 529.123 Q2992.46 529.155 2991.95 529.155 Q2981.92 529.155 2975.91 522.471 Q2969.92 515.755 2969.92 504.52 Q2969.92 493.253 2975.91 486.569 Q2981.92 479.853 2991.95 479.853 Q3001.94 479.853 3007.93 486.569 Q3013.91 493.253 3013.91 504.52 Q3013.91 512.795 3010.57 518.684 Q3007.26 524.572 3000.96 527.373 Z" fill="#000000" fill-rule="evenodd" fill-opacity="1" /><path clip-path="url(#clip9800)" d="M 0 0 M3019.45 514.164 L3019.45 492.584 L3025.31 492.584 L3025.31 513.941 Q3025.31 519.002 3027.28 521.548 Q3029.25 524.063 3033.2 524.063 Q3037.94 524.063 3040.68 521.039 Q3043.45 518.015 3043.45 512.795 L3043.45 492.584 L3049.3 492.584 L3049.3 528.232 L3043.45 528.232 L3043.45 522.758 Q3041.31 526.004 3038.48 527.596 Q3035.68 529.155 3031.96 529.155 Q3025.81 529.155 3022.63 525.336 Q3019.45 521.516 3019.45 514.164 M3034.19 491.725 L3034.19 491.725 Z" fill="#000000" fill-rule="evenodd" fill-opacity="1" /><path clip-path="url(#clip9800)" d="M 0 0 M3071.65 510.313 Q3064.55 510.313 3061.81 511.936 Q3059.08 513.559 3059.08 517.474 Q3059.08 520.593 3061.11 522.439 Q3063.18 524.254 3066.71 524.254 Q3071.58 524.254 3074.51 520.816 Q3077.47 517.347 3077.47 511.618 L3077.47 510.313 L3071.65 510.313 M3083.33 507.894 L3083.33 528.232 L3077.47 528.232 L3077.47 522.821 Q3075.47 526.068 3072.47 527.627 Q3069.48 529.155 3065.15 529.155 Q3059.68 529.155 3056.43 526.1 Q3053.22 523.012 3053.22 517.856 Q3053.22 511.84 3057.23 508.785 Q3061.27 505.729 3069.26 505.729 L3077.47 505.729 L3077.47 505.156 Q3077.47 501.114 3074.8 498.918 Q3072.16 496.69 3067.35 496.69 Q3064.29 496.69 3061.4 497.422 Q3058.5 498.154 3055.83 499.618 L3055.83 494.207 Q3059.04 492.966 3062.07 492.361 Q3065.09 491.725 3067.96 491.725 Q3075.69 491.725 3079.51 495.735 Q3083.33 499.746 3083.33 507.894 Z" fill="#000000" fill-rule="evenodd" fill-opacity="1" /><path clip-path="url(#clip9800)" d="M 0 0 M3112.93 497.995 L3112.93 478.707 L3118.79 478.707 L3118.79 528.232 L3112.93 528.232 L3112.93 522.885 Q3111.08 526.068 3108.25 527.627 Q3105.45 529.155 3101.5 529.155 Q3095.04 529.155 3090.97 523.999 Q3086.93 518.843 3086.93 510.44 Q3086.93 502.037 3090.97 496.881 Q3095.04 491.725 3101.5 491.725 Q3105.45 491.725 3108.25 493.284 Q3111.08 494.812 3112.93 497.995 M3092.97 510.44 Q3092.97 516.901 3095.61 520.593 Q3098.29 524.254 3102.93 524.254 Q3107.58 524.254 3110.26 520.593 Q3112.93 516.901 3112.93 510.44 Q3112.93 503.979 3110.26 500.319 Q3107.58 496.626 3102.93 496.626 Q3098.29 496.626 3095.61 500.319 Q3092.97 503.979 3092.97 510.44 Z" fill="#000000" fill-rule="evenodd" fill-opacity="1" /><path clip-path="url(#clip9800)" d="M 0 0 M3164.14 486.314 L3147.91 511.681 L3164.14 511.681 L3164.14 486.314 M3162.45 480.712 L3170.54 480.712 L3170.54 511.681 L3177.32 511.681 L3177.32 517.028 L3170.54 517.028 L3170.54 528.232 L3164.14 528.232 L3164.14 517.028 L3142.69 517.028 L3142.69 510.822 L3162.45 480.712 Z" fill="#000000" fill-rule="evenodd" fill-opacity="1" /><polyline clip-path="url(#clip9800)" style="stroke:#ac8d18; stroke-width:16; stroke-opacity:1; fill:none" points="
  2745.92,564.952 2937.92,564.952 
  "/>
<path clip-path="url(#clip9800)" d="M 0 0 M2991.95 545.553 Q2984.95 545.553 2980.81 550.773 Q2976.7 555.992 2976.7 565 Q2976.7 573.976 2980.81 579.195 Q2984.95 584.415 2991.95 584.415 Q2998.95 584.415 3003.03 579.195 Q3007.13 573.976 3007.13 565 Q3007.13 555.992 3003.03 550.773 Q2998.95 545.553 2991.95 545.553 M3000.96 587.853 L3009.42 597.115 L3001.66 597.115 L2994.62 589.508 Q2993.57 589.571 2993 589.603 Q2992.46 589.635 2991.95 589.635 Q2981.92 589.635 2975.91 582.951 Q2969.92 576.235 2969.92 565 Q2969.92 553.733 2975.91 547.049 Q2981.92 540.333 2991.95 540.333 Q3001.94 540.333 3007.93 547.049 Q3013.91 553.733 3013.91 565 Q3013.91 573.275 3010.57 579.164 Q3007.26 585.052 3000.96 587.853 Z" fill="#000000" fill-rule="evenodd" fill-opacity="1" /><path clip-path="url(#clip9800)" d="M 0 0 M3019.45 574.644 L3019.45 553.064 L3025.31 553.064 L3025.31 574.421 Q3025.31 579.482 3027.28 582.028 Q3029.25 584.543 3033.2 584.543 Q3037.94 584.543 3040.68 581.519 Q3043.45 578.495 3043.45 573.275 L3043.45 553.064 L3049.3 553.064 L3049.3 588.712 L3043.45 588.712 L3043.45 583.238 Q3041.31 586.484 3038.48 588.076 Q3035.68 589.635 3031.96 589.635 Q3025.81 589.635 3022.63 585.816 Q3019.45 581.996 3019.45 574.644 M3034.19 552.205 L3034.19 552.205 Z" fill="#000000" fill-rule="evenodd" fill-opacity="1" /><path clip-path="url(#clip9800)" d="M 0 0 M3071.65 570.793 Q3064.55 570.793 3061.81 572.416 Q3059.08 574.039 3059.08 577.954 Q3059.08 581.073 3061.11 582.919 Q3063.18 584.734 3066.71 584.734 Q3071.58 584.734 3074.51 581.296 Q3077.47 577.827 3077.47 572.098 L3077.47 570.793 L3071.65 570.793 M3083.33 568.374 L3083.33 588.712 L3077.47 588.712 L3077.47 583.301 Q3075.47 586.548 3072.47 588.107 Q3069.48 589.635 3065.15 589.635 Q3059.68 589.635 3056.43 586.58 Q3053.22 583.492 3053.22 578.336 Q3053.22 572.32 3057.23 569.265 Q3061.27 566.209 3069.26 566.209 L3077.47 566.209 L3077.47 565.636 Q3077.47 561.594 3074.8 559.398 Q3072.16 557.17 3067.35 557.17 Q3064.29 557.17 3061.4 557.902 Q3058.5 558.634 3055.83 560.098 L3055.83 554.687 Q3059.04 553.446 3062.07 552.841 Q3065.09 552.205 3067.96 552.205 Q3075.69 552.205 3079.51 556.215 Q3083.33 560.226 3083.33 568.374 Z" fill="#000000" fill-rule="evenodd" fill-opacity="1" /><path clip-path="url(#clip9800)" d="M 0 0 M3112.93 558.475 L3112.93 539.187 L3118.79 539.187 L3118.79 588.712 L3112.93 588.712 L3112.93 583.365 Q3111.08 586.548 3108.25 588.107 Q3105.45 589.635 3101.5 589.635 Q3095.04 589.635 3090.97 584.479 Q3086.93 579.323 3086.93 570.92 Q3086.93 562.517 3090.97 557.361 Q3095.04 552.205 3101.5 552.205 Q3105.45 552.205 3108.25 553.764 Q3111.08 555.292 3112.93 558.475 M3092.97 570.92 Q3092.97 577.381 3095.61 581.073 Q3098.29 584.734 3102.93 584.734 Q3107.58 584.734 3110.26 581.073 Q3112.93 577.381 3112.93 570.92 Q3112.93 564.459 3110.26 560.799 Q3107.58 557.106 3102.93 557.106 Q3098.29 557.106 3095.61 560.799 Q3092.97 564.459 3092.97 570.92 Z" fill="#000000" fill-rule="evenodd" fill-opacity="1" /><path clip-path="url(#clip9800)" d="M 0 0 M3146.54 541.192 L3171.78 541.192 L3171.78 546.603 L3152.43 546.603 L3152.43 558.252 Q3153.83 557.775 3155.23 557.552 Q3156.63 557.297 3158.03 557.297 Q3165.99 557.297 3170.63 561.658 Q3175.28 566.018 3175.28 573.466 Q3175.28 581.137 3170.51 585.402 Q3165.73 589.635 3157.04 589.635 Q3154.05 589.635 3150.93 589.126 Q3147.84 588.617 3144.53 587.598 L3144.53 581.137 Q3147.4 582.697 3150.45 583.46 Q3153.51 584.224 3156.92 584.224 Q3162.42 584.224 3165.64 581.328 Q3168.85 578.432 3168.85 573.466 Q3168.85 568.501 3165.64 565.605 Q3162.42 562.708 3156.92 562.708 Q3154.34 562.708 3151.76 563.281 Q3149.21 563.854 3146.54 565.064 L3146.54 541.192 Z" fill="#000000" fill-rule="evenodd" fill-opacity="1" /><polyline clip-path="url(#clip9800)" style="stroke:#00a9ad; stroke-width:16; stroke-opacity:1; fill:none" points="
  2745.92,625.432 2937.92,625.432 
  "/>
<path clip-path="url(#clip9800)" d="M 0 0 M2991.95 606.033 Q2984.95 606.033 2980.81 611.253 Q2976.7 616.472 2976.7 625.48 Q2976.7 634.456 2980.81 639.675 Q2984.95 644.895 2991.95 644.895 Q2998.95 644.895 3003.03 639.675 Q3007.13 634.456 3007.13 625.48 Q3007.13 616.472 3003.03 611.253 Q2998.95 606.033 2991.95 606.033 M3000.96 648.333 L3009.42 657.595 L3001.66 657.595 L2994.62 649.988 Q2993.57 650.051 2993 650.083 Q2992.46 650.115 2991.95 650.115 Q2981.92 650.115 2975.91 643.431 Q2969.92 636.715 2969.92 625.48 Q2969.92 614.213 2975.91 607.529 Q2981.92 600.813 2991.95 600.813 Q3001.94 600.813 3007.93 607.529 Q3013.91 614.213 3013.91 625.48 Q3013.91 633.755 3010.57 639.644 Q3007.26 645.532 3000.96 648.333 Z" fill="#000000" fill-rule="evenodd" fill-opacity="1" /><path clip-path="url(#clip9800)" d="M 0 0 M3019.45 635.124 L3019.45 613.544 L3025.31 613.544 L3025.31 634.901 Q3025.31 639.962 3027.28 642.508 Q3029.25 645.023 3033.2 645.023 Q3037.94 645.023 3040.68 641.999 Q3043.45 638.975 3043.45 633.755 L3043.45 613.544 L3049.3 613.544 L3049.3 649.192 L3043.45 649.192 L3043.45 643.718 Q3041.31 646.964 3038.48 648.556 Q3035.68 650.115 3031.96 650.115 Q3025.81 650.115 3022.63 646.296 Q3019.45 642.476 3019.45 635.124 M3034.19 612.685 L3034.19 612.685 Z" fill="#000000" fill-rule="evenodd" fill-opacity="1" /><path clip-path="url(#clip9800)" d="M 0 0 M3071.65 631.273 Q3064.55 631.273 3061.81 632.896 Q3059.08 634.519 3059.08 638.434 Q3059.08 641.553 3061.11 643.399 Q3063.18 645.214 3066.71 645.214 Q3071.58 645.214 3074.51 641.776 Q3077.47 638.307 3077.47 632.578 L3077.47 631.273 L3071.65 631.273 M3083.33 628.854 L3083.33 649.192 L3077.47 649.192 L3077.47 643.781 Q3075.47 647.028 3072.47 648.587 Q3069.48 650.115 3065.15 650.115 Q3059.68 650.115 3056.43 647.06 Q3053.22 643.972 3053.22 638.816 Q3053.22 632.8 3057.23 629.745 Q3061.27 626.689 3069.26 626.689 L3077.47 626.689 L3077.47 626.116 Q3077.47 622.074 3074.8 619.878 Q3072.16 617.65 3067.35 617.65 Q3064.29 617.65 3061.4 618.382 Q3058.5 619.114 3055.83 620.578 L3055.83 615.167 Q3059.04 613.926 3062.07 613.321 Q3065.09 612.685 3067.96 612.685 Q3075.69 612.685 3079.51 616.695 Q3083.33 620.706 3083.33 628.854 Z" fill="#000000" fill-rule="evenodd" fill-opacity="1" /><path clip-path="url(#clip9800)" d="M 0 0 M3112.93 618.955 L3112.93 599.667 L3118.79 599.667 L3118.79 649.192 L3112.93 649.192 L3112.93 643.845 Q3111.08 647.028 3108.25 648.587 Q3105.45 650.115 3101.5 650.115 Q3095.04 650.115 3090.97 644.959 Q3086.93 639.803 3086.93 631.4 Q3086.93 622.997 3090.97 617.841 Q3095.04 612.685 3101.5 612.685 Q3105.45 612.685 3108.25 614.244 Q3111.08 615.772 3112.93 618.955 M3092.97 631.4 Q3092.97 637.861 3095.61 641.553 Q3098.29 645.214 3102.93 645.214 Q3107.58 645.214 3110.26 641.553 Q3112.93 637.861 3112.93 631.4 Q3112.93 624.939 3110.26 621.279 Q3107.58 617.586 3102.93 617.586 Q3098.29 617.586 3095.61 621.279 Q3092.97 624.939 3092.97 631.4 Z" fill="#000000" fill-rule="evenodd" fill-opacity="1" /><path clip-path="url(#clip9800)" d="M 0 0 M3161.02 622.87 Q3156.69 622.87 3154.15 625.83 Q3151.63 628.79 3151.63 633.946 Q3151.63 639.071 3154.15 642.063 Q3156.69 645.023 3161.02 645.023 Q3165.35 645.023 3167.87 642.063 Q3170.41 639.071 3170.41 633.946 Q3170.41 628.79 3167.87 625.83 Q3165.35 622.87 3161.02 622.87 M3173.79 602.722 L3173.79 608.579 Q3171.37 607.433 3168.88 606.828 Q3166.43 606.224 3164.01 606.224 Q3157.65 606.224 3154.27 610.52 Q3150.93 614.817 3150.45 623.506 Q3152.33 620.737 3155.17 619.273 Q3158 617.777 3161.4 617.777 Q3168.57 617.777 3172.7 622.138 Q3176.87 626.467 3176.87 633.946 Q3176.87 641.267 3172.54 645.691 Q3168.22 650.115 3161.02 650.115 Q3152.78 650.115 3148.42 643.813 Q3144.06 637.479 3144.06 625.48 Q3144.06 614.213 3149.4 607.529 Q3154.75 600.813 3163.76 600.813 Q3166.18 600.813 3168.63 601.29 Q3171.11 601.768 3173.79 602.722 Z" fill="#000000" fill-rule="evenodd" fill-opacity="1" /><polyline clip-path="url(#clip9800)" style="stroke:#ed5d92; stroke-width:16; stroke-opacity:1; fill:none" points="
  2745.92,685.912 2937.92,685.912 
  "/>
<path clip-path="url(#clip9800)" d="M 0 0 M2969.92 662.152 L2976.35 662.152 L2976.35 704.261 L2999.49 704.261 L2999.49 709.672 L2969.92 709.672 L2969.92 662.152 Z" fill="#000000" fill-rule="evenodd" fill-opacity="1" /><path clip-path="url(#clip9800)" d="M 0 0 M3018.3 678.13 Q3013.59 678.13 3010.85 681.822 Q3008.12 685.482 3008.12 691.88 Q3008.12 698.278 3010.82 701.97 Q3013.56 705.63 3018.3 705.63 Q3022.98 705.63 3025.72 701.938 Q3028.46 698.246 3028.46 691.88 Q3028.46 685.546 3025.72 681.854 Q3022.98 678.13 3018.3 678.13 M3018.3 673.165 Q3025.94 673.165 3030.3 678.13 Q3034.66 683.095 3034.66 691.88 Q3034.66 700.633 3030.3 705.63 Q3025.94 710.595 3018.3 710.595 Q3010.63 710.595 3006.27 705.63 Q3001.94 700.633 3001.94 691.88 Q3001.94 683.095 3006.27 678.13 Q3010.63 673.165 3018.3 673.165 Z" fill="#000000" fill-rule="evenodd" fill-opacity="1" /><path clip-path="url(#clip9800)" d="M 0 0 M3057.01 691.753 Q3049.91 691.753 3047.17 693.376 Q3044.43 694.999 3044.43 698.914 Q3044.43 702.033 3046.47 703.879 Q3048.54 705.694 3052.07 705.694 Q3056.94 705.694 3059.87 702.256 Q3062.83 698.787 3062.83 693.058 L3062.83 691.753 L3057.01 691.753 M3068.69 689.334 L3068.69 709.672 L3062.83 709.672 L3062.83 704.261 Q3060.83 707.508 3057.83 709.067 Q3054.84 710.595 3050.51 710.595 Q3045.04 710.595 3041.79 707.54 Q3038.58 704.452 3038.58 699.296 Q3038.58 693.28 3042.59 690.225 Q3046.63 687.169 3054.62 687.169 L3062.83 687.169 L3062.83 686.596 Q3062.83 682.554 3060.16 680.358 Q3057.52 678.13 3052.71 678.13 Q3049.65 678.13 3046.76 678.862 Q3043.86 679.594 3041.19 681.058 L3041.19 675.647 Q3044.4 674.406 3047.43 673.801 Q3050.45 673.165 3053.31 673.165 Q3061.05 673.165 3064.87 677.175 Q3068.69 681.186 3068.69 689.334 Z" fill="#000000" fill-rule="evenodd" fill-opacity="1" /><path clip-path="url(#clip9800)" d="M 0 0 M3098.29 679.435 L3098.29 660.147 L3104.14 660.147 L3104.14 709.672 L3098.29 709.672 L3098.29 704.325 Q3096.44 707.508 3093.61 709.067 Q3090.81 710.595 3086.86 710.595 Q3080.4 710.595 3076.33 705.439 Q3072.28 700.283 3072.28 691.88 Q3072.28 683.477 3076.33 678.321 Q3080.4 673.165 3086.86 673.165 Q3090.81 673.165 3093.61 674.724 Q3096.44 676.252 3098.29 679.435 M3078.33 691.88 Q3078.33 698.341 3080.97 702.033 Q3083.65 705.694 3088.29 705.694 Q3092.94 705.694 3095.61 702.033 Q3098.29 698.341 3098.29 691.88 Q3098.29 685.419 3095.61 681.759 Q3092.94 678.066 3088.29 678.066 Q3083.65 678.066 3080.97 681.759 Q3078.33 685.419 3078.33 691.88 Z" fill="#000000" fill-rule="evenodd" fill-opacity="1" /></svg>
