<?xml version="1.0" encoding="utf-8"?>
<svg xmlns="http://www.w3.org/2000/svg" xmlns:xlink="http://www.w3.org/1999/xlink" width="800" height="600" viewBox="0 0 3200 2400">
<defs>
  <clipPath id="clip2200">
    <rect x="0" y="0" width="3200" height="2400"/>
  </clipPath>
</defs>
<path clip-path="url(#clip2200)" d="
M0 2400 L3200 2400 L3200 0 L0 0  Z
  " fill="#ffffff" fill-rule="evenodd" fill-opacity="1"/>
<defs>
  <clipPath id="clip2201">
    <rect x="640" y="0" width="2241" height="2241"/>
  </clipPath>
</defs>
<path clip-path="url(#clip2200)" d="
M239.431 2204.92 L2617.92 2204.92 L2617.92 131.032 L239.431 131.032  Z
  " fill="#ffffff" fill-rule="evenodd" fill-opacity="1"/>
<defs>
  <clipPath id="clip2202">
    <rect x="239" y="131" width="2379" height="2075"/>
  </clipPath>
</defs>
<polyline clip-path="url(#clip2202)" style="stroke:#000000; stroke-width:2; stroke-opacity:0.1; fill:none" points="
  306.747,2204.92 306.747,131.032 
  "/>
<polyline clip-path="url(#clip2202)" style="stroke:#000000; stroke-width:2; stroke-opacity:0.1; fill:none" points="
  755.519,2204.92 755.519,131.032 
  "/>
<polyline clip-path="url(#clip2202)" style="stroke:#000000; stroke-width:2; stroke-opacity:0.1; fill:none" points="
  1204.29,2204.92 1204.29,131.032 
  "/>
<polyline clip-path="url(#clip2202)" style="stroke:#000000; stroke-width:2; stroke-opacity:0.1; fill:none" points="
  1653.06,2204.92 1653.06,131.032 
  "/>
<polyline clip-path="url(#clip2202)" style="stroke:#000000; stroke-width:2; stroke-opacity:0.1; fill:none" points="
  2101.84,2204.92 2101.84,131.032 
  "/>
<polyline clip-path="url(#clip2202)" style="stroke:#000000; stroke-width:2; stroke-opacity:0.1; fill:none" points="
  2550.61,2204.92 2550.61,131.032 
  "/>
<polyline clip-path="url(#clip2202)" style="stroke:#000000; stroke-width:2; stroke-opacity:0.1; fill:none" points="
  239.431,2142.83 2617.92,2142.83 
  "/>
<polyline clip-path="url(#clip2202)" style="stroke:#000000; stroke-width:2; stroke-opacity:0.1; fill:none" points="
  239.431,1682.85 2617.92,1682.85 
  "/>
<polyline clip-path="url(#clip2202)" style="stroke:#000000; stroke-width:2; stroke-opacity:0.1; fill:none" points="
  239.431,1222.87 2617.92,1222.87 
  "/>
<polyline clip-path="url(#clip2202)" style="stroke:#000000; stroke-width:2; stroke-opacity:0.1; fill:none" points="
  239.431,762.895 2617.92,762.895 
  "/>
<polyline clip-path="url(#clip2202)" style="stroke:#000000; stroke-width:2; stroke-opacity:0.1; fill:none" points="
  239.431,302.916 2617.92,302.916 
  "/>
<polyline clip-path="url(#clip2200)" style="stroke:#000000; stroke-width:4; stroke-opacity:1; fill:none" points="
  239.431,2204.92 2617.92,2204.92 
  "/>
<polyline clip-path="url(#clip2200)" style="stroke:#000000; stroke-width:4; stroke-opacity:1; fill:none" points="
  239.431,2204.92 239.431,131.032 
  "/>
<polyline clip-path="url(#clip2200)" style="stroke:#000000; stroke-width:4; stroke-opacity:1; fill:none" points="
  306.747,2204.92 306.747,2180.03 
  "/>
<polyline clip-path="url(#clip2200)" style="stroke:#000000; stroke-width:4; stroke-opacity:1; fill:none" points="
  755.519,2204.92 755.519,2180.03 
  "/>
<polyline clip-path="url(#clip2200)" style="stroke:#000000; stroke-width:4; stroke-opacity:1; fill:none" points="
  1204.29,2204.92 1204.29,2180.03 
  "/>
<polyline clip-path="url(#clip2200)" style="stroke:#000000; stroke-width:4; stroke-opacity:1; fill:none" points="
  1653.06,2204.92 1653.06,2180.03 
  "/>
<polyline clip-path="url(#clip2200)" style="stroke:#000000; stroke-width:4; stroke-opacity:1; fill:none" points="
  2101.84,2204.92 2101.84,2180.03 
  "/>
<polyline clip-path="url(#clip2200)" style="stroke:#000000; stroke-width:4; stroke-opacity:1; fill:none" points="
  2550.61,2204.92 2550.61,2180.03 
  "/>
<polyline clip-path="url(#clip2200)" style="stroke:#000000; stroke-width:4; stroke-opacity:1; fill:none" points="
  239.431,2142.83 267.973,2142.83 
  "/>
<polyline clip-path="url(#clip2200)" style="stroke:#000000; stroke-width:4; stroke-opacity:1; fill:none" points="
  239.431,1682.85 267.973,1682.85 
  "/>
<polyline clip-path="url(#clip2200)" style="stroke:#000000; stroke-width:4; stroke-opacity:1; fill:none" points="
  239.431,1222.87 267.973,1222.87 
  "/>
<polyline clip-path="url(#clip2200)" style="stroke:#000000; stroke-width:4; stroke-opacity:1; fill:none" points="
  239.431,762.895 267.973,762.895 
  "/>
<polyline clip-path="url(#clip2200)" style="stroke:#000000; stroke-width:4; stroke-opacity:1; fill:none" points="
  239.431,302.916 267.973,302.916 
  "/>
<path clip-path="url(#clip2200)" d="M 0 0 M306.747 2230.91 Q303.136 2230.91 301.307 2234.48 Q299.502 2238.02 299.502 2245.15 Q299.502 2252.25 301.307 2255.82 Q303.136 2259.36 306.747 2259.36 Q310.381 2259.36 312.187 2255.82 Q314.016 2252.25 314.016 2245.15 Q314.016 2238.02 312.187 2234.48 Q310.381 2230.91 306.747 2230.91 M306.747 2227.21 Q312.557 2227.21 315.613 2231.81 Q318.691 2236.4 318.691 2245.15 Q318.691 2253.87 315.613 2258.48 Q312.557 2263.06 306.747 2263.06 Q300.937 2263.06 297.858 2258.48 Q294.803 2253.87 294.803 2245.15 Q294.803 2236.4 297.858 2231.81 Q300.937 2227.21 306.747 2227.21 Z" fill="#000000" fill-rule="evenodd" fill-opacity="1" /><path clip-path="url(#clip2200)" d="M 0 0 M745.901 2258.46 L753.54 2258.46 L753.54 2232.09 L745.23 2233.76 L745.23 2229.5 L753.494 2227.83 L758.17 2227.83 L758.17 2258.46 L765.808 2258.46 L765.808 2262.39 L745.901 2262.39 L745.901 2258.46 Z" fill="#000000" fill-rule="evenodd" fill-opacity="1" /><path clip-path="url(#clip2200)" d="M 0 0 M1198.94 2258.46 L1215.26 2258.46 L1215.26 2262.39 L1193.32 2262.39 L1193.32 2258.46 Q1195.98 2255.7 1200.56 2251.07 Q1205.17 2246.42 1206.35 2245.08 Q1208.6 2242.55 1209.48 2240.82 Q1210.38 2239.06 1210.38 2237.37 Q1210.38 2234.61 1208.43 2232.88 Q1206.51 2231.14 1203.41 2231.14 Q1201.21 2231.14 1198.76 2231.91 Q1196.33 2232.67 1193.55 2234.22 L1193.55 2229.5 Q1196.37 2228.36 1198.83 2227.79 Q1201.28 2227.21 1203.32 2227.21 Q1208.69 2227.21 1211.88 2229.89 Q1215.08 2232.58 1215.08 2237.07 Q1215.08 2239.2 1214.27 2241.12 Q1213.48 2243.02 1211.37 2245.61 Q1210.8 2246.28 1207.69 2249.5 Q1204.59 2252.69 1198.94 2258.46 Z" fill="#000000" fill-rule="evenodd" fill-opacity="1" /><path clip-path="url(#clip2200)" d="M 0 0 M1657.31 2243.76 Q1660.67 2244.48 1662.54 2246.74 Q1664.44 2249.01 1664.44 2252.35 Q1664.44 2257.46 1660.92 2260.26 Q1657.4 2263.06 1650.92 2263.06 Q1648.75 2263.06 1646.43 2262.62 Q1644.14 2262.21 1641.69 2261.35 L1641.69 2256.84 Q1643.63 2257.97 1645.95 2258.55 Q1648.26 2259.13 1650.78 2259.13 Q1655.18 2259.13 1657.47 2257.39 Q1659.79 2255.66 1659.79 2252.35 Q1659.79 2249.29 1657.64 2247.58 Q1655.51 2245.84 1651.69 2245.84 L1647.66 2245.84 L1647.66 2242 L1651.87 2242 Q1655.32 2242 1657.15 2240.63 Q1658.98 2239.24 1658.98 2236.65 Q1658.98 2233.99 1657.08 2232.58 Q1655.2 2231.14 1651.69 2231.14 Q1649.76 2231.14 1647.57 2231.56 Q1645.37 2231.98 1642.73 2232.85 L1642.73 2228.69 Q1645.39 2227.95 1647.7 2227.58 Q1650.04 2227.21 1652.1 2227.21 Q1657.43 2227.21 1660.53 2229.64 Q1663.63 2232.04 1663.63 2236.17 Q1663.63 2239.04 1661.99 2241.03 Q1660.34 2242.99 1657.31 2243.76 Z" fill="#000000" fill-rule="evenodd" fill-opacity="1" /><path clip-path="url(#clip2200)" d="M 0 0 M2104.84 2231.91 L2093.04 2250.35 L2104.84 2250.35 L2104.84 2231.91 M2103.62 2227.83 L2109.5 2227.83 L2109.5 2250.35 L2114.43 2250.35 L2114.43 2254.24 L2109.5 2254.24 L2109.5 2262.39 L2104.84 2262.39 L2104.84 2254.24 L2089.24 2254.24 L2089.24 2249.73 L2103.62 2227.83 Z" fill="#000000" fill-rule="evenodd" fill-opacity="1" /><path clip-path="url(#clip2200)" d="M 0 0 M2540.89 2227.83 L2559.24 2227.83 L2559.24 2231.77 L2545.17 2231.77 L2545.17 2240.24 Q2546.19 2239.89 2547.2 2239.73 Q2548.22 2239.54 2549.24 2239.54 Q2555.03 2239.54 2558.41 2242.72 Q2561.79 2245.89 2561.79 2251.3 Q2561.79 2256.88 2558.32 2259.98 Q2554.84 2263.06 2548.52 2263.06 Q2546.35 2263.06 2544.08 2262.69 Q2541.83 2262.32 2539.43 2261.58 L2539.43 2256.88 Q2541.51 2258.02 2543.73 2258.57 Q2545.95 2259.13 2548.43 2259.13 Q2552.44 2259.13 2554.77 2257.02 Q2557.11 2254.92 2557.11 2251.3 Q2557.11 2247.69 2554.77 2245.59 Q2552.44 2243.48 2548.43 2243.48 Q2546.56 2243.48 2544.68 2243.9 Q2542.83 2244.31 2540.89 2245.19 L2540.89 2227.83 Z" fill="#000000" fill-rule="evenodd" fill-opacity="1" /><path clip-path="url(#clip2200)" d="M 0 0 M132.2 2145.23 L144.677 2145.23 L144.677 2149.02 L132.2 2149.02 L132.2 2145.23 Z" fill="#000000" fill-rule="evenodd" fill-opacity="1" /><path clip-path="url(#clip2200)" d="M 0 0 M159.746 2128.63 Q156.135 2128.63 154.307 2132.2 Q152.501 2135.74 152.501 2142.87 Q152.501 2149.97 154.307 2153.54 Q156.135 2157.08 159.746 2157.08 Q163.381 2157.08 165.186 2153.54 Q167.015 2149.97 167.015 2142.87 Q167.015 2135.74 165.186 2132.2 Q163.381 2128.63 159.746 2128.63 M159.746 2124.93 Q165.556 2124.93 168.612 2129.53 Q171.691 2134.12 171.691 2142.87 Q171.691 2151.59 168.612 2156.2 Q165.556 2160.78 159.746 2160.78 Q153.936 2160.78 150.857 2156.2 Q147.802 2151.59 147.802 2142.87 Q147.802 2134.12 150.857 2129.53 Q153.936 2124.93 159.746 2124.93 Z" fill="#000000" fill-rule="evenodd" fill-opacity="1" /><path clip-path="url(#clip2200)" d="M 0 0 M176.76 2154.23 L181.644 2154.23 L181.644 2160.11 L176.76 2160.11 L176.76 2154.23 Z" fill="#000000" fill-rule="evenodd" fill-opacity="1" /><path clip-path="url(#clip2200)" d="M 0 0 M187.524 2156.18 L195.163 2156.18 L195.163 2129.81 L186.853 2131.48 L186.853 2127.22 L195.116 2125.55 L199.792 2125.55 L199.792 2156.18 L207.431 2156.18 L207.431 2160.11 L187.524 2160.11 L187.524 2156.18 Z" fill="#000000" fill-rule="evenodd" fill-opacity="1" /><path clip-path="url(#clip2200)" d="M 0 0 M158.519 1668.65 Q154.908 1668.65 153.08 1672.22 Q151.274 1675.76 151.274 1682.89 Q151.274 1689.99 153.08 1693.56 Q154.908 1697.1 158.519 1697.1 Q162.154 1697.1 163.959 1693.56 Q165.788 1689.99 165.788 1682.89 Q165.788 1675.76 163.959 1672.22 Q162.154 1668.65 158.519 1668.65 M158.519 1664.95 Q164.33 1664.95 167.385 1669.55 Q170.464 1674.14 170.464 1682.89 Q170.464 1691.61 167.385 1696.22 Q164.33 1700.8 158.519 1700.8 Q152.709 1700.8 149.631 1696.22 Q146.575 1691.61 146.575 1682.89 Q146.575 1674.14 149.631 1669.55 Q152.709 1664.95 158.519 1664.95 Z" fill="#000000" fill-rule="evenodd" fill-opacity="1" /><path clip-path="url(#clip2200)" d="M 0 0 M175.533 1694.25 L180.417 1694.25 L180.417 1700.13 L175.533 1700.13 L175.533 1694.25 Z" fill="#000000" fill-rule="evenodd" fill-opacity="1" /><path clip-path="url(#clip2200)" d="M 0 0 M195.487 1668.65 Q191.876 1668.65 190.047 1672.22 Q188.242 1675.76 188.242 1682.89 Q188.242 1689.99 190.047 1693.56 Q191.876 1697.1 195.487 1697.1 Q199.121 1697.1 200.927 1693.56 Q202.755 1689.99 202.755 1682.89 Q202.755 1675.76 200.927 1672.22 Q199.121 1668.65 195.487 1668.65 M195.487 1664.95 Q201.297 1664.95 204.353 1669.55 Q207.431 1674.14 207.431 1682.89 Q207.431 1691.61 204.353 1696.22 Q201.297 1700.8 195.487 1700.8 Q189.677 1700.8 186.598 1696.22 Q183.542 1691.61 183.542 1682.89 Q183.542 1674.14 186.598 1669.55 Q189.677 1664.95 195.487 1664.95 Z" fill="#000000" fill-rule="evenodd" fill-opacity="1" /><path clip-path="url(#clip2200)" d="M 0 0 M159.746 1208.67 Q156.135 1208.67 154.307 1212.24 Q152.501 1215.78 152.501 1222.91 Q152.501 1230.01 154.307 1233.58 Q156.135 1237.12 159.746 1237.12 Q163.381 1237.12 165.186 1233.58 Q167.015 1230.01 167.015 1222.91 Q167.015 1215.78 165.186 1212.24 Q163.381 1208.67 159.746 1208.67 M159.746 1204.97 Q165.556 1204.97 168.612 1209.58 Q171.691 1214.16 171.691 1222.91 Q171.691 1231.64 168.612 1236.24 Q165.556 1240.83 159.746 1240.83 Q153.936 1240.83 150.857 1236.24 Q147.802 1231.64 147.802 1222.91 Q147.802 1214.16 150.857 1209.58 Q153.936 1204.97 159.746 1204.97 Z" fill="#000000" fill-rule="evenodd" fill-opacity="1" /><path clip-path="url(#clip2200)" d="M 0 0 M176.76 1234.27 L181.644 1234.27 L181.644 1240.15 L176.76 1240.15 L176.76 1234.27 Z" fill="#000000" fill-rule="evenodd" fill-opacity="1" /><path clip-path="url(#clip2200)" d="M 0 0 M187.524 1236.22 L195.163 1236.22 L195.163 1209.85 L186.853 1211.52 L186.853 1207.26 L195.116 1205.59 L199.792 1205.59 L199.792 1236.22 L207.431 1236.22 L207.431 1240.15 L187.524 1240.15 L187.524 1236.22 Z" fill="#000000" fill-rule="evenodd" fill-opacity="1" /><path clip-path="url(#clip2200)" d="M 0 0 M160.117 748.694 Q156.506 748.694 154.677 752.258 Q152.871 755.8 152.871 762.93 Q152.871 770.036 154.677 773.601 Q156.506 777.142 160.117 777.142 Q163.751 777.142 165.556 773.601 Q167.385 770.036 167.385 762.93 Q167.385 755.8 165.556 752.258 Q163.751 748.694 160.117 748.694 M160.117 744.99 Q165.927 744.99 168.982 749.596 Q172.061 754.18 172.061 762.93 Q172.061 771.656 168.982 776.263 Q165.927 780.846 160.117 780.846 Q154.307 780.846 151.228 776.263 Q148.172 771.656 148.172 762.93 Q148.172 754.18 151.228 749.596 Q154.307 744.99 160.117 744.99 Z" fill="#000000" fill-rule="evenodd" fill-opacity="1" /><path clip-path="url(#clip2200)" d="M 0 0 M177.13 774.295 L182.015 774.295 L182.015 780.175 L177.13 780.175 L177.13 774.295 Z" fill="#000000" fill-rule="evenodd" fill-opacity="1" /><path clip-path="url(#clip2200)" d="M 0 0 M191.112 776.24 L207.431 776.24 L207.431 780.175 L185.487 780.175 L185.487 776.24 Q188.149 773.485 192.732 768.855 Q197.339 764.203 198.519 762.86 Q200.765 760.337 201.644 758.601 Q202.547 756.842 202.547 755.152 Q202.547 752.397 200.603 750.661 Q198.681 748.925 195.579 748.925 Q193.38 748.925 190.927 749.689 Q188.496 750.453 185.718 752.004 L185.718 747.282 Q188.542 746.147 190.996 745.569 Q193.45 744.99 195.487 744.99 Q200.857 744.99 204.052 747.675 Q207.246 750.36 207.246 754.851 Q207.246 756.981 206.436 758.902 Q205.649 760.8 203.542 763.393 Q202.964 764.064 199.862 767.281 Q196.76 770.476 191.112 776.24 Z" fill="#000000" fill-rule="evenodd" fill-opacity="1" /><path clip-path="url(#clip2200)" d="M 0 0 M159.168 288.715 Q155.557 288.715 153.728 292.279 Q151.922 295.821 151.922 302.951 Q151.922 310.057 153.728 313.622 Q155.557 317.163 159.168 317.163 Q162.802 317.163 164.607 313.622 Q166.436 310.057 166.436 302.951 Q166.436 295.821 164.607 292.279 Q162.802 288.715 159.168 288.715 M159.168 285.011 Q164.978 285.011 168.033 289.617 Q171.112 294.201 171.112 302.951 Q171.112 311.677 168.033 316.284 Q164.978 320.867 159.168 320.867 Q153.357 320.867 150.279 316.284 Q147.223 311.677 147.223 302.951 Q147.223 294.201 150.279 289.617 Q153.357 285.011 159.168 285.011 Z" fill="#000000" fill-rule="evenodd" fill-opacity="1" /><path clip-path="url(#clip2200)" d="M 0 0 M176.181 314.316 L181.066 314.316 L181.066 320.196 L176.181 320.196 L176.181 314.316 Z" fill="#000000" fill-rule="evenodd" fill-opacity="1" /><path clip-path="url(#clip2200)" d="M 0 0 M200.302 301.562 Q203.658 302.279 205.533 304.548 Q207.431 306.816 207.431 310.15 Q207.431 315.265 203.913 318.066 Q200.394 320.867 193.913 320.867 Q191.737 320.867 189.422 320.427 Q187.13 320.011 184.677 319.154 L184.677 314.64 Q186.621 315.775 188.936 316.353 Q191.251 316.932 193.774 316.932 Q198.172 316.932 200.464 315.196 Q202.778 313.46 202.778 310.15 Q202.778 307.094 200.626 305.381 Q198.496 303.645 194.677 303.645 L190.649 303.645 L190.649 299.802 L194.862 299.802 Q198.311 299.802 200.14 298.437 Q201.968 297.048 201.968 294.455 Q201.968 291.793 200.07 290.381 Q198.195 288.946 194.677 288.946 Q192.755 288.946 190.556 289.363 Q188.357 289.779 185.718 290.659 L185.718 286.492 Q188.38 285.752 190.695 285.381 Q193.033 285.011 195.093 285.011 Q200.417 285.011 203.519 287.441 Q206.621 289.849 206.621 293.969 Q206.621 296.84 204.978 298.83 Q203.334 300.798 200.302 301.562 Z" fill="#000000" fill-rule="evenodd" fill-opacity="1" /><path clip-path="url(#clip2200)" d="M 0 0 M603.569 12.096 L611.752 12.096 L611.752 36.8875 L641.485 36.8875 L641.485 12.096 L649.668 12.096 L649.668 72.576 L641.485 72.576 L641.485 43.7741 L611.752 43.7741 L611.752 72.576 L603.569 72.576 L603.569 12.096 Z" fill="#000000" fill-rule="evenodd" fill-opacity="1" /><path clip-path="url(#clip2200)" d="M 0 0 M675.067 32.4315 Q669.072 32.4315 665.588 37.1306 Q662.104 41.7891 662.104 49.9314 Q662.104 58.0738 665.548 62.7728 Q669.031 67.4314 675.067 67.4314 Q681.022 67.4314 684.506 62.7323 Q687.99 58.0333 687.99 49.9314 Q687.99 41.8701 684.506 37.1711 Q681.022 32.4315 675.067 32.4315 M675.067 26.1121 Q684.79 26.1121 690.339 32.4315 Q695.889 38.7509 695.889 49.9314 Q695.889 61.0714 690.339 67.4314 Q684.79 73.7508 675.067 73.7508 Q665.305 73.7508 659.755 67.4314 Q654.246 61.0714 654.246 49.9314 Q654.246 38.7509 659.755 32.4315 Q665.305 26.1121 675.067 26.1121 Z" fill="#000000" fill-rule="evenodd" fill-opacity="1" /><path clip-path="url(#clip2200)" d="M 0 0 M698.36 27.2059 L706.259 27.2059 L720.437 65.2844 L734.616 27.2059 L742.515 27.2059 L725.501 72.576 L715.374 72.576 L698.36 27.2059 Z" fill="#000000" fill-rule="evenodd" fill-opacity="1" /><path clip-path="url(#clip2200)" d="M 0 0 M789.141 48.0275 L789.141 51.6733 L754.87 51.6733 Q755.356 59.3701 759.488 63.421 Q763.661 67.4314 771.074 67.4314 Q775.368 67.4314 779.378 66.3781 Q783.429 65.3249 787.399 63.2184 L787.399 70.267 Q783.389 71.9684 779.176 72.8596 Q774.963 73.7508 770.628 73.7508 Q759.772 73.7508 753.412 67.4314 Q747.092 61.1119 747.092 50.3365 Q747.092 39.1965 753.088 32.6746 Q759.124 26.1121 769.332 26.1121 Q778.487 26.1121 783.794 32.0264 Q789.141 37.9003 789.141 48.0275 M781.687 45.84 Q781.606 39.7232 778.244 36.0774 Q774.922 32.4315 769.413 32.4315 Q763.175 32.4315 759.407 35.9558 Q755.68 39.4801 755.113 45.8805 L781.687 45.84 Z" fill="#000000" fill-rule="evenodd" fill-opacity="1" /><path clip-path="url(#clip2200)" d="M 0 0 M823.249 34.1734 Q821.994 33.4443 820.495 33.1202 Q819.036 32.7556 817.254 32.7556 Q810.935 32.7556 807.532 36.8875 Q804.17 40.9789 804.17 48.6757 L804.17 72.576 L796.675 72.576 L796.675 27.2059 L804.17 27.2059 L804.17 34.2544 Q806.519 30.1225 810.287 28.1376 Q814.054 26.1121 819.442 26.1121 Q820.211 26.1121 821.143 26.2337 Q822.075 26.3147 823.209 26.5172 L823.249 34.1734 Z" fill="#000000" fill-rule="evenodd" fill-opacity="1" /><path clip-path="url(#clip2200)" d="M 0 0 M831.068 27.2059 L838.521 27.2059 L838.521 72.576 L831.068 72.576 L831.068 27.2059 M831.068 9.54393 L838.521 9.54393 L838.521 18.9825 L831.068 18.9825 L831.068 9.54393 Z" fill="#000000" fill-rule="evenodd" fill-opacity="1" /><path clip-path="url(#clip2200)" d="M 0 0 M884.053 45.1919 L884.053 72.576 L876.6 72.576 L876.6 45.4349 Q876.6 38.994 874.088 35.7938 Q871.577 32.5936 866.554 32.5936 Q860.518 32.5936 857.034 36.4419 Q853.55 40.2903 853.55 46.9338 L853.55 72.576 L846.056 72.576 L846.056 27.2059 L853.55 27.2059 L853.55 34.2544 Q856.224 30.163 859.829 28.1376 Q863.475 26.1121 868.214 26.1121 Q876.033 26.1121 880.043 30.9732 Q884.053 35.7938 884.053 45.1919 Z" fill="#000000" fill-rule="evenodd" fill-opacity="1" /><path clip-path="url(#clip2200)" d="M 0 0 M921.727 49.3643 Q921.727 41.2625 918.365 36.8065 Q915.043 32.3505 909.007 32.3505 Q903.012 32.3505 899.649 36.8065 Q896.328 41.2625 896.328 49.3643 Q896.328 57.4256 899.649 61.8816 Q903.012 66.3376 909.007 66.3376 Q915.043 66.3376 918.365 61.8816 Q921.727 57.4256 921.727 49.3643 M929.181 66.9452 Q929.181 78.5308 924.036 84.1616 Q918.891 89.8329 908.278 89.8329 Q904.349 89.8329 900.865 89.2252 Q897.381 88.6581 894.1 87.4428 L894.1 80.1917 Q897.381 81.9741 900.581 82.8248 Q903.781 83.6755 907.103 83.6755 Q914.435 83.6755 918.081 79.8271 Q921.727 76.0193 921.727 68.282 L921.727 64.5957 Q919.418 68.6061 915.813 70.5911 Q912.207 72.576 907.184 72.576 Q898.839 72.576 893.735 66.2161 Q888.631 59.8562 888.631 49.3643 Q888.631 38.832 893.735 32.472 Q898.839 26.1121 907.184 26.1121 Q912.207 26.1121 915.813 28.0971 Q919.418 30.082 921.727 34.0924 L921.727 27.2059 L929.181 27.2059 L929.181 66.9452 Z" fill="#000000" fill-rule="evenodd" fill-opacity="1" /><path clip-path="url(#clip2200)" d="M 0 0 M959.036 27.2059 L966.489 27.2059 L975.806 62.6108 L985.083 27.2059 L993.874 27.2059 L1003.19 62.6108 L1012.47 27.2059 L1019.92 27.2059 L1008.05 72.576 L999.261 72.576 L989.499 35.3887 L979.695 72.576 L970.905 72.576 L959.036 27.2059 Z" fill="#000000" fill-rule="evenodd" fill-opacity="1" /><path clip-path="url(#clip2200)" d="M 0 0 M1027.74 27.2059 L1035.19 27.2059 L1035.19 72.576 L1027.74 72.576 L1027.74 27.2059 M1027.74 9.54393 L1035.19 9.54393 L1035.19 18.9825 L1027.74 18.9825 L1027.74 9.54393 Z" fill="#000000" fill-rule="evenodd" fill-opacity="1" /><path clip-path="url(#clip2200)" d="M 0 0 M1050.38 14.324 L1050.38 27.2059 L1065.74 27.2059 L1065.74 32.9987 L1050.38 32.9987 L1050.38 57.6282 Q1050.38 63.1779 1051.88 64.7578 Q1053.42 66.3376 1058.08 66.3376 L1065.74 66.3376 L1065.74 72.576 L1058.08 72.576 Q1049.45 72.576 1046.17 69.3758 Q1042.89 66.1351 1042.89 57.6282 L1042.89 32.9987 L1037.42 32.9987 L1037.42 27.2059 L1042.89 27.2059 L1042.89 14.324 L1050.38 14.324 Z" fill="#000000" fill-rule="evenodd" fill-opacity="1" /><path clip-path="url(#clip2200)" d="M 0 0 M1111.27 45.1919 L1111.27 72.576 L1103.82 72.576 L1103.82 45.4349 Q1103.82 38.994 1101.3 35.7938 Q1098.79 32.5936 1093.77 32.5936 Q1087.73 32.5936 1084.25 36.4419 Q1080.77 40.2903 1080.77 46.9338 L1080.77 72.576 L1073.27 72.576 L1073.27 9.54393 L1080.77 9.54393 L1080.77 34.2544 Q1083.44 30.163 1087.04 28.1376 Q1090.69 26.1121 1095.43 26.1121 Q1103.25 26.1121 1107.26 30.9732 Q1111.27 35.7938 1111.27 45.1919 Z" fill="#000000" fill-rule="evenodd" fill-opacity="1" /><path clip-path="url(#clip2200)" d="M 0 0 M1165.02 39.075 Q1159.51 39.075 1156.27 42.8424 Q1153.07 46.6097 1153.07 53.1722 Q1153.07 59.6941 1156.27 63.502 Q1159.51 67.2693 1165.02 67.2693 Q1170.53 67.2693 1173.73 63.502 Q1176.97 59.6941 1176.97 53.1722 Q1176.97 46.6097 1173.73 42.8424 Q1170.53 39.075 1165.02 39.075 M1181.27 13.4328 L1181.27 20.8865 Q1178.19 19.4281 1175.03 18.6585 Q1171.91 17.8888 1168.83 17.8888 Q1160.73 17.8888 1156.44 23.3575 Q1152.18 28.8262 1151.58 39.8852 Q1153.97 36.3609 1157.57 34.4975 Q1161.18 32.5936 1165.51 32.5936 Q1174.62 32.5936 1179.89 38.1433 Q1185.2 43.6525 1185.2 53.1722 Q1185.2 62.4892 1179.69 68.12 Q1174.18 73.7508 1165.02 73.7508 Q1154.53 73.7508 1148.98 65.73 Q1143.43 57.6687 1143.43 42.3968 Q1143.43 28.0566 1150.24 19.5497 Q1157.04 11.0023 1168.51 11.0023 Q1171.59 11.0023 1174.71 11.6099 Q1177.87 12.2175 1181.27 13.4328 Z" fill="#000000" fill-rule="evenodd" fill-opacity="1" /><path clip-path="url(#clip2200)" d="M 0 0 M1244.26 17.6457 Q1235.35 17.6457 1230.08 24.2892 Q1224.86 30.9327 1224.86 42.3968 Q1224.86 53.8203 1230.08 60.4638 Q1235.35 67.1073 1244.26 67.1073 Q1253.17 67.1073 1258.36 60.4638 Q1263.58 53.8203 1263.58 42.3968 Q1263.58 30.9327 1258.36 24.2892 Q1253.17 17.6457 1244.26 17.6457 M1255.72 71.4823 L1266.5 83.2704 L1256.62 83.2704 L1247.66 73.5887 Q1246.33 73.6697 1245.6 73.7103 Q1244.91 73.7508 1244.26 73.7508 Q1231.5 73.7508 1223.84 65.2439 Q1216.23 56.6965 1216.23 42.3968 Q1216.23 28.0566 1223.84 19.5497 Q1231.5 11.0023 1244.26 11.0023 Q1256.98 11.0023 1264.6 19.5497 Q1272.21 28.0566 1272.21 42.3968 Q1272.21 52.9291 1267.96 60.4233 Q1263.74 67.9175 1255.72 71.4823 Z" fill="#000000" fill-rule="evenodd" fill-opacity="1" /><path clip-path="url(#clip2200)" d="M 0 0 M1279.26 54.671 L1279.26 27.2059 L1286.71 27.2059 L1286.71 54.3874 Q1286.71 60.8284 1289.22 64.0691 Q1291.74 67.2693 1296.76 67.2693 Q1302.8 67.2693 1306.28 63.421 Q1309.8 59.5726 1309.8 52.9291 L1309.8 27.2059 L1317.26 27.2059 L1317.26 72.576 L1309.8 72.576 L1309.8 65.6084 Q1307.09 69.7404 1303.48 71.7658 Q1299.92 73.7508 1295.18 73.7508 Q1287.36 73.7508 1283.31 68.8897 Q1279.26 64.0286 1279.26 54.671 M1298.02 26.1121 L1298.02 26.1121 Z" fill="#000000" fill-rule="evenodd" fill-opacity="1" /><path clip-path="url(#clip2200)" d="M 0 0 M1345.69 49.7694 Q1336.66 49.7694 1333.18 51.8354 Q1329.69 53.9013 1329.69 58.8839 Q1329.69 62.8538 1332.29 65.2034 Q1334.92 67.5124 1339.42 67.5124 Q1345.61 67.5124 1349.34 63.1374 Q1353.11 58.7219 1353.11 51.4303 L1353.11 49.7694 L1345.69 49.7694 M1360.56 46.6907 L1360.56 72.576 L1353.11 72.576 L1353.11 65.6895 Q1350.56 69.8214 1346.75 71.8063 Q1342.94 73.7508 1337.43 73.7508 Q1330.46 73.7508 1326.33 69.8619 Q1322.24 65.9325 1322.24 59.3701 Q1322.24 51.7138 1327.34 47.825 Q1332.49 43.9361 1342.66 43.9361 L1353.11 43.9361 L1353.11 43.2069 Q1353.11 38.0623 1349.7 35.2672 Q1346.34 32.4315 1340.23 32.4315 Q1336.34 32.4315 1332.65 33.3632 Q1328.96 34.295 1325.56 36.1584 L1325.56 29.2718 Q1329.65 27.692 1333.5 26.9223 Q1337.35 26.1121 1341 26.1121 Q1350.84 26.1121 1355.7 31.2163 Q1360.56 36.3204 1360.56 46.6907 Z" fill="#000000" fill-rule="evenodd" fill-opacity="1" /><path clip-path="url(#clip2200)" d="M 0 0 M1398.23 34.0924 L1398.23 9.54393 L1405.69 9.54393 L1405.69 72.576 L1398.23 72.576 L1398.23 65.7705 Q1395.89 69.8214 1392.28 71.8063 Q1388.72 73.7508 1383.69 73.7508 Q1375.47 73.7508 1370.28 67.1883 Q1365.14 60.6258 1365.14 49.9314 Q1365.14 39.2371 1370.28 32.6746 Q1375.47 26.1121 1383.69 26.1121 Q1388.72 26.1121 1392.28 28.0971 Q1395.89 30.0415 1398.23 34.0924 M1372.84 49.9314 Q1372.84 58.1548 1376.2 62.8538 Q1379.6 67.5124 1385.51 67.5124 Q1391.43 67.5124 1394.83 62.8538 Q1398.23 58.1548 1398.23 49.9314 Q1398.23 41.7081 1394.83 37.0496 Q1391.43 32.3505 1385.51 32.3505 Q1379.6 32.3505 1376.2 37.0496 Q1372.84 41.7081 1372.84 49.9314 Z" fill="#000000" fill-rule="evenodd" fill-opacity="1" /><path clip-path="url(#clip2200)" d="M 0 0 M1439.8 34.1734 Q1438.54 33.4443 1437.04 33.1202 Q1435.58 32.7556 1433.8 32.7556 Q1427.48 32.7556 1424.08 36.8875 Q1420.72 40.9789 1420.72 48.6757 L1420.72 72.576 L1413.22 72.576 L1413.22 27.2059 L1420.72 27.2059 L1420.72 34.2544 Q1423.07 30.1225 1426.83 28.1376 Q1430.6 26.1121 1435.99 26.1121 Q1436.76 26.1121 1437.69 26.2337 Q1438.62 26.3147 1439.76 26.5172 L1439.8 34.1734 Z" fill="#000000" fill-rule="evenodd" fill-opacity="1" /><path clip-path="url(#clip2200)" d="M 0 0 M1463.37 32.4315 Q1457.38 32.4315 1453.89 37.1306 Q1450.41 41.7891 1450.41 49.9314 Q1450.41 58.0738 1453.85 62.7728 Q1457.34 67.4314 1463.37 67.4314 Q1469.33 67.4314 1472.81 62.7323 Q1476.3 58.0333 1476.3 49.9314 Q1476.3 41.8701 1472.81 37.1711 Q1469.33 32.4315 1463.37 32.4315 M1463.37 26.1121 Q1473.1 26.1121 1478.65 32.4315 Q1484.19 38.7509 1484.19 49.9314 Q1484.19 61.0714 1478.65 67.4314 Q1473.1 73.7508 1463.37 73.7508 Q1453.61 73.7508 1448.06 67.4314 Q1442.55 61.0714 1442.55 49.9314 Q1442.55 38.7509 1448.06 32.4315 Q1453.61 26.1121 1463.37 26.1121 Z" fill="#000000" fill-rule="evenodd" fill-opacity="1" /><path clip-path="url(#clip2200)" d="M 0 0 M1499.39 14.324 L1499.39 27.2059 L1514.74 27.2059 L1514.74 32.9987 L1499.39 32.9987 L1499.39 57.6282 Q1499.39 63.1779 1500.88 64.7578 Q1502.42 66.3376 1507.08 66.3376 L1514.74 66.3376 L1514.74 72.576 L1507.08 72.576 Q1498.45 72.576 1495.17 69.3758 Q1491.89 66.1351 1491.89 57.6282 L1491.89 32.9987 L1486.42 32.9987 L1486.42 27.2059 L1491.89 27.2059 L1491.89 14.324 L1499.39 14.324 Z" fill="#000000" fill-rule="evenodd" fill-opacity="1" /><path clip-path="url(#clip2200)" d="M 0 0 M1540.14 32.4315 Q1534.14 32.4315 1530.66 37.1306 Q1527.18 41.7891 1527.18 49.9314 Q1527.18 58.0738 1530.62 62.7728 Q1534.1 67.4314 1540.14 67.4314 Q1546.09 67.4314 1549.58 62.7323 Q1553.06 58.0333 1553.06 49.9314 Q1553.06 41.8701 1549.58 37.1711 Q1546.09 32.4315 1540.14 32.4315 M1540.14 26.1121 Q1549.86 26.1121 1555.41 32.4315 Q1560.96 38.7509 1560.96 49.9314 Q1560.96 61.0714 1555.41 67.4314 Q1549.86 73.7508 1540.14 73.7508 Q1530.38 73.7508 1524.83 67.4314 Q1519.32 61.0714 1519.32 49.9314 Q1519.32 38.7509 1524.83 32.4315 Q1530.38 26.1121 1540.14 26.1121 Z" fill="#000000" fill-rule="evenodd" fill-opacity="1" /><path clip-path="url(#clip2200)" d="M 0 0 M1595.07 34.1734 Q1593.81 33.4443 1592.31 33.1202 Q1590.86 32.7556 1589.07 32.7556 Q1582.75 32.7556 1579.35 36.8875 Q1575.99 40.9789 1575.99 48.6757 L1575.99 72.576 L1568.49 72.576 L1568.49 27.2059 L1575.99 27.2059 L1575.99 34.2544 Q1578.34 30.1225 1582.11 28.1376 Q1585.87 26.1121 1591.26 26.1121 Q1592.03 26.1121 1592.96 26.2337 Q1593.89 26.3147 1595.03 26.5172 L1595.07 34.1734 Z" fill="#000000" fill-rule="evenodd" fill-opacity="1" /><path clip-path="url(#clip2200)" d="M 0 0 M1631.81 28.5427 L1631.81 35.5912 Q1628.65 33.9709 1625.25 33.1607 Q1621.84 32.3505 1618.2 32.3505 Q1612.65 32.3505 1609.85 34.0519 Q1607.1 35.7533 1607.1 39.156 Q1607.1 41.7486 1609.08 43.2475 Q1611.07 44.7058 1617.06 46.0426 L1619.62 46.6097 Q1627.56 48.3111 1630.88 51.4303 Q1634.24 54.509 1634.24 60.0587 Q1634.24 66.3781 1629.22 70.0644 Q1624.23 73.7508 1615.48 73.7508 Q1611.84 73.7508 1607.87 73.0216 Q1603.94 72.3329 1599.56 70.9151 L1599.56 63.2184 Q1603.7 65.3654 1607.71 66.4591 Q1611.72 67.5124 1615.65 67.5124 Q1620.91 67.5124 1623.75 65.73 Q1626.58 63.9071 1626.58 60.6258 Q1626.58 57.5877 1624.52 55.9673 Q1622.49 54.3469 1615.57 52.8481 L1612.97 52.2405 Q1606.05 50.7821 1602.97 47.7845 Q1599.89 44.7463 1599.89 39.4801 Q1599.89 33.0797 1604.43 29.5959 Q1608.96 26.1121 1617.31 26.1121 Q1621.44 26.1121 1625.09 26.7198 Q1628.73 27.3274 1631.81 28.5427 Z" fill="#000000" fill-rule="evenodd" fill-opacity="1" /><path clip-path="url(#clip2200)" d="M 0 0 M1664.66 46.5287 L1686.5 46.5287 L1686.5 53.1722 L1664.66 53.1722 L1664.66 46.5287 Z" fill="#000000" fill-rule="evenodd" fill-opacity="1" /><path clip-path="url(#clip2200)" d="M 0 0 M1741.22 20.1573 L1730.13 50.2555 L1752.36 50.2555 L1741.22 20.1573 M1736.61 12.096 L1745.88 12.096 L1768.93 72.576 L1760.43 72.576 L1754.92 57.061 L1727.65 57.061 L1722.15 72.576 L1713.52 72.576 L1736.61 12.096 Z" fill="#000000" fill-rule="evenodd" fill-opacity="1" /><path clip-path="url(#clip2200)" d="M 0 0 M1806.61 49.3643 Q1806.61 41.2625 1803.24 36.8065 Q1799.92 32.3505 1793.89 32.3505 Q1787.89 32.3505 1784.53 36.8065 Q1781.21 41.2625 1781.21 49.3643 Q1781.21 57.4256 1784.53 61.8816 Q1787.89 66.3376 1793.89 66.3376 Q1799.92 66.3376 1803.24 61.8816 Q1806.61 57.4256 1806.61 49.3643 M1814.06 66.9452 Q1814.06 78.5308 1808.92 84.1616 Q1803.77 89.8329 1793.16 89.8329 Q1789.23 89.8329 1785.74 89.2252 Q1782.26 88.6581 1778.98 87.4428 L1778.98 80.1917 Q1782.26 81.9741 1785.46 82.8248 Q1788.66 83.6755 1791.98 83.6755 Q1799.31 83.6755 1802.96 79.8271 Q1806.61 76.0193 1806.61 68.282 L1806.61 64.5957 Q1804.3 68.6061 1800.69 70.5911 Q1797.09 72.576 1792.06 72.576 Q1783.72 72.576 1778.61 66.2161 Q1773.51 59.8562 1773.51 49.3643 Q1773.51 38.832 1778.61 32.472 Q1783.72 26.1121 1792.06 26.1121 Q1797.09 26.1121 1800.69 28.0971 Q1804.3 30.082 1806.61 34.0924 L1806.61 27.2059 L1814.06 27.2059 L1814.06 66.9452 Z" fill="#000000" fill-rule="evenodd" fill-opacity="1" /><path clip-path="url(#clip2200)" d="M 0 0 M1860.69 48.0275 L1860.69 51.6733 L1826.42 51.6733 Q1826.9 59.3701 1831.03 63.421 Q1835.21 67.4314 1842.62 67.4314 Q1846.91 67.4314 1850.92 66.3781 Q1854.97 65.3249 1858.94 63.2184 L1858.94 70.267 Q1854.93 71.9684 1850.72 72.8596 Q1846.51 73.7508 1842.17 73.7508 Q1831.32 73.7508 1824.96 67.4314 Q1818.64 61.1119 1818.64 50.3365 Q1818.64 39.1965 1824.63 32.6746 Q1830.67 26.1121 1840.88 26.1121 Q1850.03 26.1121 1855.34 32.0264 Q1860.69 37.9003 1860.69 48.0275 M1853.23 45.84 Q1853.15 39.7232 1849.79 36.0774 Q1846.47 32.4315 1840.96 32.4315 Q1834.72 32.4315 1830.95 35.9558 Q1827.23 39.4801 1826.66 45.8805 L1853.23 45.84 Z" fill="#000000" fill-rule="evenodd" fill-opacity="1" /><path clip-path="url(#clip2200)" d="M 0 0 M1906.22 45.1919 L1906.22 72.576 L1898.76 72.576 L1898.76 45.4349 Q1898.76 38.994 1896.25 35.7938 Q1893.74 32.5936 1888.72 32.5936 Q1882.68 32.5936 1879.2 36.4419 Q1875.71 40.2903 1875.71 46.9338 L1875.71 72.576 L1868.22 72.576 L1868.22 27.2059 L1875.71 27.2059 L1875.71 34.2544 Q1878.39 30.163 1881.99 28.1376 Q1885.64 26.1121 1890.38 26.1121 Q1898.2 26.1121 1902.21 30.9732 Q1906.22 35.7938 1906.22 45.1919 Z" fill="#000000" fill-rule="evenodd" fill-opacity="1" /><path clip-path="url(#clip2200)" d="M 0 0 M1921.41 14.324 L1921.41 27.2059 L1936.76 27.2059 L1936.76 32.9987 L1921.41 32.9987 L1921.41 57.6282 Q1921.41 63.1779 1922.91 64.7578 Q1924.45 66.3376 1929.11 66.3376 L1936.76 66.3376 L1936.76 72.576 L1929.11 72.576 Q1920.48 72.576 1917.2 69.3758 Q1913.91 66.1351 1913.91 57.6282 L1913.91 32.9987 L1908.45 32.9987 L1908.45 27.2059 L1913.91 27.2059 L1913.91 14.324 L1921.41 14.324 Z" fill="#000000" fill-rule="evenodd" fill-opacity="1" /><path clip-path="url(#clip2200)" d="M 0 0 M1986.87 72.576 L1963.78 12.096 L1972.33 12.096 L1991.49 63.0159 L2010.69 12.096 L2019.2 12.096 L1996.15 72.576 L1986.87 72.576 Z" fill="#000000" fill-rule="evenodd" fill-opacity="1" /><path clip-path="url(#clip2200)" d="M 0 0 M2059.38 48.0275 L2059.38 51.6733 L2025.11 51.6733 Q2025.6 59.3701 2029.73 63.421 Q2033.9 67.4314 2041.32 67.4314 Q2045.61 67.4314 2049.62 66.3781 Q2053.67 65.3249 2057.64 63.2184 L2057.64 70.267 Q2053.63 71.9684 2049.42 72.8596 Q2045.2 73.7508 2040.87 73.7508 Q2030.01 73.7508 2023.65 67.4314 Q2017.33 61.1119 2017.33 50.3365 Q2017.33 39.1965 2023.33 32.6746 Q2029.37 26.1121 2039.57 26.1121 Q2048.73 26.1121 2054.04 32.0264 Q2059.38 37.9003 2059.38 48.0275 M2051.93 45.84 Q2051.85 39.7232 2048.49 36.0774 Q2045.16 32.4315 2039.65 32.4315 Q2033.42 32.4315 2029.65 35.9558 Q2025.92 39.4801 2025.36 45.8805 L2051.93 45.84 Z" fill="#000000" fill-rule="evenodd" fill-opacity="1" /><path clip-path="url(#clip2200)" d="M 0 0 M2067.2 9.54393 L2074.65 9.54393 L2074.65 72.576 L2067.2 72.576 L2067.2 9.54393 Z" fill="#000000" fill-rule="evenodd" fill-opacity="1" /><path clip-path="url(#clip2200)" d="M 0 0 M2100.05 32.4315 Q2094.06 32.4315 2090.57 37.1306 Q2087.09 41.7891 2087.09 49.9314 Q2087.09 58.0738 2090.53 62.7728 Q2094.02 67.4314 2100.05 67.4314 Q2106.01 67.4314 2109.49 62.7323 Q2112.98 58.0333 2112.98 49.9314 Q2112.98 41.8701 2109.49 37.1711 Q2106.01 32.4315 2100.05 32.4315 M2100.05 26.1121 Q2109.78 26.1121 2115.33 32.4315 Q2120.88 38.7509 2120.88 49.9314 Q2120.88 61.0714 2115.33 67.4314 Q2109.78 73.7508 2100.05 73.7508 Q2090.29 73.7508 2084.74 67.4314 Q2079.23 61.0714 2079.23 49.9314 Q2079.23 38.7509 2084.74 32.4315 Q2090.29 26.1121 2100.05 26.1121 Z" fill="#000000" fill-rule="evenodd" fill-opacity="1" /><path clip-path="url(#clip2200)" d="M 0 0 M2161.34 28.9478 L2161.34 35.9153 Q2158.18 34.1734 2154.98 33.3227 Q2151.82 32.4315 2148.58 32.4315 Q2141.33 32.4315 2137.32 37.0496 Q2133.31 41.6271 2133.31 49.9314 Q2133.31 58.2358 2137.32 62.8538 Q2141.33 67.4314 2148.58 67.4314 Q2151.82 67.4314 2154.98 66.5807 Q2158.18 65.6895 2161.34 63.9476 L2161.34 70.8341 Q2158.22 72.2924 2154.86 73.0216 Q2151.54 73.7508 2147.77 73.7508 Q2137.52 73.7508 2131.49 67.3098 Q2125.45 60.8689 2125.45 49.9314 Q2125.45 38.832 2131.53 32.472 Q2137.65 26.1121 2148.26 26.1121 Q2151.7 26.1121 2154.98 26.8413 Q2158.27 27.5299 2161.34 28.9478 Z" fill="#000000" fill-rule="evenodd" fill-opacity="1" /><path clip-path="url(#clip2200)" d="M 0 0 M2169.16 27.2059 L2176.62 27.2059 L2176.62 72.576 L2169.16 72.576 L2169.16 27.2059 M2169.16 9.54393 L2176.62 9.54393 L2176.62 18.9825 L2169.16 18.9825 L2169.16 9.54393 Z" fill="#000000" fill-rule="evenodd" fill-opacity="1" /><path clip-path="url(#clip2200)" d="M 0 0 M2191.81 14.324 L2191.81 27.2059 L2207.16 27.2059 L2207.16 32.9987 L2191.81 32.9987 L2191.81 57.6282 Q2191.81 63.1779 2193.31 64.7578 Q2194.85 66.3376 2199.5 66.3376 L2207.16 66.3376 L2207.16 72.576 L2199.5 72.576 Q2190.88 72.576 2187.59 69.3758 Q2184.31 66.1351 2184.31 57.6282 L2184.31 32.9987 L2178.84 32.9987 L2178.84 27.2059 L2184.31 27.2059 L2184.31 14.324 L2191.81 14.324 Z" fill="#000000" fill-rule="evenodd" fill-opacity="1" /><path clip-path="url(#clip2200)" d="M 0 0 M2233.86 76.7889 Q2230.7 84.8907 2227.7 87.3618 Q2224.7 89.8329 2219.68 89.8329 L2213.72 89.8329 L2213.72 83.5945 L2218.1 83.5945 Q2221.18 83.5945 2222.88 82.1361 Q2224.58 80.6778 2226.64 75.2496 L2227.98 71.8468 L2209.63 27.2059 L2217.53 27.2059 L2231.71 62.6918 L2245.89 27.2059 L2253.79 27.2059 L2233.86 76.7889 Z" fill="#000000" fill-rule="evenodd" fill-opacity="1" /><path clip-path="url(#clip2200)" d="M 0 0 M1310.51 2298.26 L1350.71 2298.26 L1350.71 2303.67 L1333.84 2303.67 L1333.84 2345.78 L1327.38 2345.78 L1327.38 2303.67 L1310.51 2303.67 L1310.51 2298.26 Z" fill="#000000" fill-rule="evenodd" fill-opacity="1" /><path clip-path="url(#clip2200)" d="M 0 0 M1354.85 2310.14 L1360.71 2310.14 L1360.71 2345.78 L1354.85 2345.78 L1354.85 2310.14 M1354.85 2296.26 L1360.71 2296.26 L1360.71 2303.67 L1354.85 2303.67 L1354.85 2296.26 Z" fill="#000000" fill-rule="evenodd" fill-opacity="1" /><path clip-path="url(#clip2200)" d="M 0 0 M1394.6 2316.98 Q1396.8 2313.03 1399.86 2311.15 Q1402.91 2309.28 1407.05 2309.28 Q1412.62 2309.28 1415.64 2313.19 Q1418.67 2317.07 1418.67 2324.27 L1418.67 2345.78 L1412.78 2345.78 L1412.78 2324.46 Q1412.78 2319.33 1410.96 2316.85 Q1409.15 2314.37 1405.43 2314.37 Q1400.88 2314.37 1398.23 2317.39 Q1395.59 2320.42 1395.59 2325.64 L1395.59 2345.78 L1389.7 2345.78 L1389.7 2324.46 Q1389.7 2319.3 1387.89 2316.85 Q1386.07 2314.37 1382.29 2314.37 Q1377.8 2314.37 1375.16 2317.42 Q1372.52 2320.45 1372.52 2325.64 L1372.52 2345.78 L1366.63 2345.78 L1366.63 2310.14 L1372.52 2310.14 L1372.52 2315.67 Q1374.52 2312.4 1377.32 2310.84 Q1380.12 2309.28 1383.97 2309.28 Q1387.86 2309.28 1390.56 2311.25 Q1393.3 2313.22 1394.6 2316.98 Z" fill="#000000" fill-rule="evenodd" fill-opacity="1" /><path clip-path="url(#clip2200)" d="M 0 0 M1455.3 2326.5 L1455.3 2329.36 L1428.37 2329.36 Q1428.76 2335.41 1432 2338.59 Q1435.28 2341.74 1441.11 2341.74 Q1444.48 2341.74 1447.63 2340.91 Q1450.81 2340.09 1453.93 2338.43 L1453.93 2343.97 Q1450.78 2345.31 1447.47 2346.01 Q1444.16 2346.71 1440.76 2346.71 Q1432.23 2346.71 1427.23 2341.74 Q1422.26 2336.78 1422.26 2328.31 Q1422.26 2319.56 1426.97 2314.43 Q1431.72 2309.28 1439.74 2309.28 Q1446.93 2309.28 1451.1 2313.92 Q1455.3 2318.54 1455.3 2326.5 M1449.45 2324.78 Q1449.38 2319.97 1446.74 2317.11 Q1444.13 2314.24 1439.8 2314.24 Q1434.9 2314.24 1431.94 2317.01 Q1429.01 2319.78 1428.57 2324.81 L1449.45 2324.78 Z" fill="#000000" fill-rule="evenodd" fill-opacity="1" /><path clip-path="url(#clip2200)" d="M 0 0 M1496.23 2296.32 Q1491.97 2303.64 1489.9 2310.8 Q1487.83 2317.97 1487.83 2325.32 Q1487.83 2332.67 1489.9 2339.9 Q1492 2347.09 1496.23 2354.38 L1491.14 2354.38 Q1486.37 2346.9 1483.98 2339.67 Q1481.62 2332.45 1481.62 2325.32 Q1481.62 2318.22 1483.98 2311.03 Q1486.33 2303.83 1491.14 2296.32 L1496.23 2296.32 Z" fill="#000000" fill-rule="evenodd" fill-opacity="1" /><path clip-path="url(#clip2200)" d="M 0 0 M1525.1 2311.19 L1525.1 2316.72 Q1522.62 2315.45 1519.95 2314.81 Q1517.27 2314.18 1514.41 2314.18 Q1510.05 2314.18 1507.85 2315.51 Q1505.69 2316.85 1505.69 2319.53 Q1505.69 2321.56 1507.25 2322.74 Q1508.81 2323.89 1513.52 2324.94 L1515.52 2325.38 Q1521.76 2326.72 1524.37 2329.17 Q1527.01 2331.59 1527.01 2335.95 Q1527.01 2340.91 1523.06 2343.81 Q1519.15 2346.71 1512.27 2346.71 Q1509.41 2346.71 1506.29 2346.13 Q1503.2 2345.59 1499.77 2344.48 L1499.77 2338.43 Q1503.01 2340.12 1506.16 2340.98 Q1509.31 2341.81 1512.4 2341.81 Q1516.54 2341.81 1518.77 2340.4 Q1521 2338.97 1521 2336.39 Q1521 2334.01 1519.37 2332.73 Q1517.78 2331.46 1512.34 2330.28 L1510.3 2329.81 Q1504.86 2328.66 1502.44 2326.3 Q1500.02 2323.92 1500.02 2319.78 Q1500.02 2314.75 1503.59 2312.01 Q1507.15 2309.28 1513.71 2309.28 Q1516.95 2309.28 1519.82 2309.75 Q1522.68 2310.23 1525.1 2311.19 Z" fill="#000000" fill-rule="evenodd" fill-opacity="1" /><path clip-path="url(#clip2200)" d="M 0 0 M1532.23 2296.32 L1537.32 2296.32 Q1542.1 2303.83 1544.45 2311.03 Q1546.84 2318.22 1546.84 2325.32 Q1546.84 2332.45 1544.45 2339.67 Q1542.1 2346.9 1537.32 2354.38 L1532.23 2354.38 Q1536.46 2347.09 1538.53 2339.9 Q1540.63 2332.67 1540.63 2325.32 Q1540.63 2317.97 1538.53 2310.8 Q1536.46 2303.64 1532.23 2296.32 Z" fill="#000000" fill-rule="evenodd" fill-opacity="1" /><path clip-path="url(#clip2200)" d="M 0 0 M42.7847 1277.53 Q42.7847 1284.53 48.0045 1288.67 Q53.2244 1292.78 62.2319 1292.78 Q71.2075 1292.78 76.4274 1288.67 Q81.6473 1284.53 81.6473 1277.53 Q81.6473 1270.53 76.4274 1266.45 Q71.2075 1262.35 62.2319 1262.35 Q53.2244 1262.35 48.0045 1266.45 Q42.7847 1270.53 42.7847 1277.53 M85.0848 1268.52 L94.3469 1260.06 L94.3469 1267.82 L86.7399 1274.86 Q86.8035 1275.91 86.8354 1276.48 Q86.8672 1277.02 86.8672 1277.53 Q86.8672 1287.56 80.1832 1293.57 Q73.4674 1299.56 62.2319 1299.56 Q50.9646 1299.56 44.2806 1293.57 Q37.5648 1287.56 37.5648 1277.53 Q37.5648 1267.54 44.2806 1261.55 Q50.9646 1255.57 62.2319 1255.57 Q70.5073 1255.57 76.3956 1258.91 Q82.2839 1262.22 85.0848 1268.52 Z" fill="#000000" fill-rule="evenodd" fill-opacity="1" /><path clip-path="url(#clip2200)" d="M 0 0 M36.419 1274.86 L36.419 1269 L43.835 1269 L43.835 1274.86 L36.419 1274.86 M49.4368 1271.86 L49.4368 1271.86 Z" fill="#000000" fill-rule="evenodd" fill-opacity="1" /><path clip-path="url(#clip2200)" d="M 0 0 M71.5577 1252.32 Q72.1306 1249.39 73.8811 1247.8 Q75.5999 1246.18 78.2098 1246.18 Q82.1566 1246.18 84.2891 1249.2 Q86.4216 1252.23 86.4216 1257.86 Q86.4216 1259.67 86.0715 1261.68 Q85.7532 1263.65 85.1166 1265.88 L81.2654 1265.88 Q82.1247 1264.23 82.5385 1262.35 Q82.9523 1260.44 82.9523 1258.31 Q82.9523 1254.84 81.711 1252.93 Q80.4378 1251.02 78.2098 1251.02 Q75.8545 1251.02 74.645 1252.8 Q73.4355 1254.55 73.4355 1257.99 L73.4355 1260.72 L69.9981 1260.72 L69.9981 1257.73 Q69.9981 1254.74 69.0114 1253.21 Q67.9929 1251.65 66.0832 1251.65 Q64.2371 1251.65 63.2822 1253.24 Q62.2956 1254.84 62.2956 1257.86 Q62.2956 1259.13 62.582 1260.76 Q62.8685 1262.38 63.6005 1264.96 L59.9402 1264.96 Q59.3992 1262.63 59.1127 1260.6 Q58.8262 1258.56 58.8262 1256.81 Q58.8262 1252.23 60.7041 1249.55 Q62.582 1246.85 65.733 1246.85 Q67.9292 1246.85 69.457 1248.28 Q70.9847 1249.71 71.5577 1252.32 Z" fill="#000000" fill-rule="evenodd" fill-opacity="1" /><path clip-path="url(#clip2200)" d="M 0 0 M36.4826 1205.25 Q43.8032 1209.51 50.9646 1211.58 Q58.126 1213.65 65.4784 1213.65 Q72.8308 1213.65 80.0559 1211.58 Q87.2491 1209.48 94.5379 1205.25 L94.5379 1210.34 Q87.0582 1215.11 79.8331 1217.5 Q72.608 1219.86 65.4784 1219.86 Q58.3806 1219.86 51.1874 1217.5 Q43.9942 1215.15 36.4826 1210.34 L36.4826 1205.25 Z" fill="#000000" fill-rule="evenodd" fill-opacity="1" /><path clip-path="url(#clip2200)" d="M 0 0 M55.7707 1178.45 Q55.1978 1179.43 54.9432 1180.61 Q54.6567 1181.76 54.6567 1183.16 Q54.6567 1188.12 57.9032 1190.8 Q61.1179 1193.44 67.1653 1193.44 L85.9442 1193.44 L85.9442 1199.33 L50.2962 1199.33 L50.2962 1193.44 L55.8344 1193.44 Q52.5879 1191.59 51.0283 1188.63 Q49.4368 1185.67 49.4368 1181.44 Q49.4368 1180.83 49.5323 1180.1 Q49.596 1179.37 49.7551 1178.48 L55.7707 1178.45 Z" fill="#000000" fill-rule="evenodd" fill-opacity="1" /><path clip-path="url(#clip2200)" d="M 0 0 M68.0247 1156.1 Q68.0247 1163.2 69.6479 1165.94 Q71.2712 1168.68 75.1861 1168.68 Q78.3053 1168.68 80.1514 1166.64 Q81.9656 1164.57 81.9656 1161.04 Q81.9656 1156.17 78.5281 1153.24 Q75.0588 1150.28 69.3297 1150.28 L68.0247 1150.28 L68.0247 1156.1 M65.6057 1144.42 L85.9442 1144.42 L85.9442 1150.28 L80.5333 1150.28 Q83.7798 1152.28 85.3394 1155.28 Q86.8672 1158.27 86.8672 1162.6 Q86.8672 1168.07 83.8116 1171.32 Q80.7243 1174.53 75.5681 1174.53 Q69.5525 1174.53 66.4969 1170.52 Q63.4414 1166.48 63.4414 1158.49 L63.4414 1150.28 L62.8685 1150.28 Q58.8262 1150.28 56.6301 1152.95 Q54.4021 1155.59 54.4021 1160.4 Q54.4021 1163.46 55.1341 1166.35 Q55.8662 1169.25 57.3303 1171.92 L51.9195 1171.92 Q50.6781 1168.71 50.0734 1165.68 Q49.4368 1162.66 49.4368 1159.8 Q49.4368 1152.06 53.4472 1148.24 Q57.4576 1144.42 65.6057 1144.42 Z" fill="#000000" fill-rule="evenodd" fill-opacity="1" /><path clip-path="url(#clip2200)" d="M 0 0 M55.7071 1114.82 L36.419 1114.82 L36.419 1108.97 L85.9442 1108.97 L85.9442 1114.82 L80.597 1114.82 Q83.7798 1116.67 85.3394 1119.5 Q86.8672 1122.3 86.8672 1126.25 Q86.8672 1132.71 81.711 1136.78 Q76.5547 1140.83 68.152 1140.83 Q59.7493 1140.83 54.5931 1136.78 Q49.4368 1132.71 49.4368 1126.25 Q49.4368 1122.3 50.9964 1119.5 Q52.5242 1116.67 55.7071 1114.82 M68.152 1134.78 Q74.6132 1134.78 78.3053 1132.14 Q81.9656 1129.46 81.9656 1124.82 Q81.9656 1120.17 78.3053 1117.5 Q74.6132 1114.82 68.152 1114.82 Q61.6908 1114.82 58.0305 1117.5 Q54.3384 1120.17 54.3384 1124.82 Q54.3384 1129.46 58.0305 1132.14 Q61.6908 1134.78 68.152 1134.78 Z" fill="#000000" fill-rule="evenodd" fill-opacity="1" /><path clip-path="url(#clip2200)" d="M 0 0 M38.4242 1092.42 L38.4242 1087 L91.9916 1103.56 L91.9916 1108.97 L38.4242 1092.42 Z" fill="#000000" fill-rule="evenodd" fill-opacity="1" /><path clip-path="url(#clip2200)" d="M 0 0 M51.3465 1058.14 L56.8847 1058.14 Q55.6116 1060.62 54.975 1063.29 Q54.3384 1065.97 54.3384 1068.83 Q54.3384 1073.19 55.6752 1075.39 Q57.012 1077.55 59.6856 1077.55 Q61.7226 1077.55 62.9003 1075.99 Q64.0461 1074.43 65.0965 1069.72 L65.5421 1067.72 Q66.8789 1061.48 69.3297 1058.87 Q71.7486 1056.23 76.1091 1056.23 Q81.0744 1056.23 83.9708 1060.17 Q86.8672 1064.09 86.8672 1070.96 Q86.8672 1073.83 86.2943 1076.95 Q85.7532 1080.03 84.6392 1083.47 L78.5918 1083.47 Q80.2787 1080.22 81.138 1077.07 Q81.9656 1073.92 81.9656 1070.84 Q81.9656 1066.7 80.5651 1064.47 Q79.1329 1062.24 76.5547 1062.24 Q74.1676 1062.24 72.8945 1063.86 Q71.6213 1065.46 70.4437 1070.9 L69.9662 1072.94 Q68.8204 1078.38 66.4651 1080.8 Q64.078 1083.22 59.9402 1083.22 Q54.9113 1083.22 52.1741 1079.65 Q49.4368 1076.09 49.4368 1069.53 Q49.4368 1066.28 49.9143 1063.42 Q50.3917 1060.55 51.3465 1058.14 Z" fill="#000000" fill-rule="evenodd" fill-opacity="1" /><path clip-path="url(#clip2200)" d="M 0 0 M36.4826 1051.01 L36.4826 1045.91 Q43.9942 1041.14 51.1874 1038.78 Q58.3806 1036.4 65.4784 1036.4 Q72.608 1036.4 79.8331 1038.78 Q87.0582 1041.14 94.5379 1045.91 L94.5379 1051.01 Q87.2491 1046.77 80.0559 1044.7 Q72.8308 1042.6 65.4784 1042.6 Q58.126 1042.6 50.9646 1044.7 Q43.8032 1046.77 36.4826 1051.01 Z" fill="#000000" fill-rule="evenodd" fill-opacity="1" /><polyline clip-path="url(#clip2202)" style="stroke:#009af9; stroke-width:16; stroke-opacity:1; fill:none" points="
  306.747,1682.85 317.966,1686.66 329.186,1687.45 340.405,1687.55 351.624,1687.6 362.844,1687.81 374.063,1688.03 385.282,1688.12 396.501,1688.14 407.721,1688.13 
  418.94,1688.14 430.159,1688.17 441.379,1688.24 452.598,1688.34 463.817,1688.46 475.037,1688.58 486.256,1688.72 497.475,1688.85 508.694,1688.99 519.914,1689.1 
  531.133,1689.22 542.352,1689.31 553.572,1689.4 564.791,1689.45 576.01,1689.51 587.23,1689.53 598.449,1689.54 609.668,1689.54 620.888,1689.5 632.107,1689.46 
  643.326,1689.39 654.545,1689.32 665.765,1689.2 676.984,1689.11 688.203,1688.96 699.423,1688.85 710.642,1688.68 721.861,1688.56 733.081,1688.37 744.3,1688.25 
  755.519,1688.05 766.738,1687.94 777.958,1687.73 789.177,1687.64 800.396,1687.43 811.616,1687.35 822.835,1687.15 834.054,1687.08 845.274,1686.89 856.493,1686.83 
  867.712,1686.65 878.931,1686.61 890.151,1686.42 901.37,1686.39 912.589,1686.21 923.809,1686.19 935.028,1686 946.247,1686 957.467,1685.78 968.686,1685.8 
  979.905,1685.55 991.125,1685.58 1002.34,1685.28 1013.56,1685.33 1024.78,1684.96 1036,1684.99 1047.22,1684.46 1058.44,1683.04 1069.66,1684.33 1080.88,1684.36 
  1092.1,1684.27 1103.32,1684.29 1114.54,1684.19 1125.76,1684.2 1136.98,1684.11 1148.19,1684.11 1159.41,1684.02 1170.63,1684.02 1181.85,1683.95 1193.07,1683.94 
  1204.29,1683.88 1215.51,1683.87 1226.73,1683.81 1237.95,1683.8 1249.17,1683.75 1260.39,1683.74 1271.61,1683.7 1282.83,1683.69 1294.05,1683.65 1305.26,1683.63 
  1316.48,1683.6 1327.7,1683.59 1338.92,1683.56 1350.14,1683.54 1361.36,1683.52 1372.58,1683.5 1383.8,1683.48 1395.02,1683.47 1406.24,1683.45 1417.46,1683.44 
  1428.68,1683.42 1439.9,1683.41 1451.12,1683.4 1462.34,1683.39 1473.55,1683.38 1484.77,1683.37 1495.99,1683.36 1507.21,1683.35 1518.43,1683.34 1529.65,1683.34 
  1540.87,1683.33 1552.09,1683.32 1563.31,1683.32 1574.53,1683.31 1585.75,1683.31 1596.97,1683.3 1608.19,1683.29 1619.41,1683.29 1630.62,1683.28 1641.84,1683.27 
  1653.06,1683.27 1664.28,1683.26 1675.5,1683.25 1686.72,1683.24 1697.94,1683.23 1709.16,1683.22 1720.38,1683.21 1731.6,1683.19 1742.82,1683.18 1754.04,1683.17 
  1765.26,1683.16 1776.48,1683.15 1787.69,1683.14 1798.91,1683.13 1810.13,1683.12 1821.35,1683.11 1832.57,1683.1 1843.79,1683.09 1855.01,1683.08 1866.23,1683.07 
  1877.45,1683.06 1888.67,1683.05 1899.89,1683.05 1911.11,1683.04 1922.33,1683.04 1933.55,1683.03 1944.77,1683.03 1955.98,1683.02 1967.2,1683.02 1978.42,1683.02 
  1989.64,1683.02 2000.86,1683.02 2012.08,1683.02 2023.3,1683.02 2034.52,1683.02 2045.74,1683.03 2056.96,1683.03 2068.18,1683.03 2079.4,1683.04 2090.62,1683.04 
  2101.84,1683.04 2113.05,1683.05 2124.27,1683.05 2135.49,1683.05 2146.71,1683.05 2157.93,1683.05 2169.15,1683.05 2180.37,1683.05 2191.59,1683.05 2202.81,1683.05 
  2214.03,1683.04 2225.25,1683.04 2236.47,1683.03 2247.69,1683.03 2258.91,1683.02 2270.13,1683.01 2281.34,1683 2292.56,1682.99 2303.78,1682.98 2315,1682.97 
  2326.22,1682.96 2337.44,1682.95 2348.66,1682.94 2359.88,1682.93 2371.1,1682.92 2382.32,1682.91 2393.54,1682.9 2404.76,1682.89 2415.98,1682.88 2427.2,1682.87 
  2438.41,1682.86 2449.63,1682.86 2460.85,1682.85 2472.07,1682.85 2483.29,1682.85 2494.51,1682.85 2505.73,1682.85 2516.95,1682.85 2528.17,1682.85 2539.39,1682.85 
  2550.61,1682.85 
  "/>
<polyline clip-path="url(#clip2202)" style="stroke:#e26f46; stroke-width:16; stroke-opacity:1; fill:none" points="
  306.747,1682.85 317.966,1687.09 329.186,1686.39 340.405,1686.51 351.624,1685.12 362.844,1684.46 374.063,1684.36 385.282,1684.39 396.501,1684.43 407.721,1684.43 
  418.94,1684.41 430.159,1684.38 441.379,1684.35 452.598,1684.31 463.817,1684.27 475.037,1684.22 486.256,1684.18 497.475,1684.12 508.694,1684.07 519.914,1684.01 
  531.133,1683.95 542.352,1683.88 553.572,1683.82 564.791,1683.76 576.01,1683.69 587.23,1683.63 598.449,1683.56 609.668,1683.5 620.888,1683.44 632.107,1683.38 
  643.326,1683.32 654.545,1683.26 665.765,1683.2 676.984,1683.15 688.203,1683.09 699.423,1683.04 710.642,1682.99 721.861,1682.95 733.081,1682.9 744.3,1682.86 
  755.519,1682.81 766.738,1682.78 777.958,1682.74 789.177,1682.71 800.396,1682.67 811.616,1682.65 822.835,1682.61 834.054,1682.59 845.274,1682.56 856.493,1682.54 
  867.712,1682.51 878.931,1682.5 890.151,1682.47 901.37,1682.46 912.589,1682.43 923.809,1682.42 935.028,1682.38 946.247,1682.38 957.467,1682.34 968.686,1682.33 
  979.905,1682.28 991.125,1682.29 1002.34,1682.22 1013.56,1682.23 1024.78,1682.13 1036,1682.14 1047.22,1682 1058.44,1682.77 1069.66,1681.93 1080.88,1681.97 
  1092.1,1681.88 1103.32,1681.91 1114.54,1681.82 1125.76,1681.84 1136.98,1681.76 1148.19,1681.77 1159.41,1681.7 1170.63,1681.7 1181.85,1681.64 1193.07,1681.64 
  1204.29,1681.59 1215.51,1681.58 1226.73,1681.53 1237.95,1681.52 1249.17,1681.48 1260.39,1681.46 1271.61,1681.42 1282.83,1681.41 1294.05,1681.37 1305.26,1681.35 
  1316.48,1681.31 1327.7,1681.29 1338.92,1681.26 1350.14,1681.24 1361.36,1681.21 1372.58,1681.19 1383.8,1681.15 1395.02,1681.13 1406.24,1681.11 1417.46,1681.08 
  1428.68,1681.06 1439.9,1681.04 1451.12,1681.02 1462.34,1681 1473.55,1680.98 1484.77,1680.96 1495.99,1680.95 1507.21,1680.93 1518.43,1680.92 1529.65,1680.91 
  1540.87,1680.91 1552.09,1680.9 1563.31,1680.9 1574.53,1680.9 1585.75,1680.9 1596.97,1680.9 1608.19,1680.91 1619.41,1680.92 1630.62,1680.93 1641.84,1680.94 
  1653.06,1680.96 1664.28,1680.97 1675.5,1680.99 1686.72,1681.01 1697.94,1681.03 1709.16,1681.05 1720.38,1681.08 1731.6,1681.1 1742.82,1681.12 1754.04,1681.15 
  1765.26,1681.17 1776.48,1681.19 1787.69,1681.21 1798.91,1681.24 1810.13,1681.25 1821.35,1681.27 1832.57,1681.29 1843.79,1681.31 1855.01,1681.33 1866.23,1681.34 
  1877.45,1681.36 1888.67,1681.39 1899.89,1681.41 1911.11,1681.43 1922.33,1681.46 1933.55,1681.5 1944.77,1681.53 1955.98,1681.57 1967.2,1681.62 1978.42,1681.67 
  1989.64,1681.73 2000.86,1681.79 2012.08,1681.86 2023.3,1681.93 2034.52,1682.01 2045.74,1682.09 2056.96,1682.18 2068.18,1682.27 2079.4,1682.36 2090.62,1682.46 
  2101.84,1682.56 2113.05,1682.67 2124.27,1682.77 2135.49,1682.88 2146.71,1682.99 2157.93,1683.09 2169.15,1683.2 2180.37,1683.3 2191.59,1683.4 2202.81,1683.49 
  2214.03,1683.58 2225.25,1683.66 2236.47,1683.74 2247.69,1683.8 2258.91,1683.86 2270.13,1683.91 2281.34,1683.95 2292.56,1683.98 2303.78,1684.01 2315,1684.02 
  2326.22,1684.03 2337.44,1684.02 2348.66,1684.01 2359.88,1683.99 2371.1,1683.97 2382.32,1683.94 2393.54,1683.9 2404.76,1683.86 2415.98,1683.81 2427.2,1683.77 
  2438.41,1683.71 2449.63,1683.66 2460.85,1683.6 2472.07,1683.54 2483.29,1683.45 2494.51,1683.37 2505.73,1683.24 2516.95,1683.15 2528.17,1683.06 2539.39,1683.12 
  2550.61,1682.85 
  "/>
<polyline clip-path="url(#clip2202)" style="stroke:#3da44d; stroke-width:16; stroke-opacity:1; fill:none" points="
  306.747,1682.85 317.966,1699.36 329.186,1696.38 340.405,1696.74 351.624,1694.98 362.844,1694.23 374.063,1694.13 385.282,1694.18 396.501,1694.22 407.721,1694.22 
  418.94,1694.2 430.159,1694.17 441.379,1694.13 452.598,1694.09 463.817,1694.04 475.037,1693.99 486.256,1693.94 497.475,1693.88 508.694,1693.82 519.914,1693.75 
  531.133,1693.69 542.352,1693.62 553.572,1693.55 564.791,1693.48 576.01,1693.41 587.23,1693.33 598.449,1693.26 609.668,1693.18 620.888,1693.11 632.107,1693.03 
  643.326,1692.96 654.545,1692.88 665.765,1692.81 676.984,1692.73 688.203,1692.65 699.423,1692.57 710.642,1692.51 721.861,1692.43 733.081,1692.36 744.3,1692.28 
  755.519,1692.22 766.738,1692.15 777.958,1692.09 789.177,1692.02 800.396,1691.97 811.616,1691.91 822.835,1691.86 834.054,1691.8 845.274,1691.76 856.493,1691.69 
  867.712,1691.66 878.931,1691.59 890.151,1691.56 901.37,1691.49 912.589,1691.46 923.809,1691.39 935.028,1691.35 946.247,1691.26 957.467,1691.23 968.686,1691.11 
  979.905,1691.08 991.125,1690.93 1002.34,1690.9 1013.56,1690.7 1024.78,1690.69 1036,1690.42 1047.22,1690.45 1058.44,1683.6 1069.66,1690.3 1080.88,1690.31 
  1092.1,1690.28 1103.32,1690.26 1114.54,1690.24 1125.76,1690.18 1136.98,1690.17 1148.19,1690.09 1159.41,1690.08 1170.63,1689.98 1181.85,1689.97 1193.07,1689.87 
  1204.29,1689.85 1215.51,1689.76 1226.73,1689.74 1237.95,1689.66 1249.17,1689.63 1260.39,1689.56 1271.61,1689.53 1282.83,1689.46 1294.05,1689.43 1305.26,1689.38 
  1316.48,1689.35 1327.7,1689.3 1338.92,1689.27 1350.14,1689.23 1361.36,1689.2 1372.58,1689.16 1383.8,1689.13 1395.02,1689.09 1406.24,1689.07 1417.46,1689.03 
  1428.68,1689 1439.9,1688.96 1451.12,1688.93 1462.34,1688.88 1473.55,1688.85 1484.77,1688.8 1495.99,1688.76 1507.21,1688.71 1518.43,1688.67 1529.65,1688.61 
  1540.87,1688.56 1552.09,1688.51 1563.31,1688.45 1574.53,1688.39 1585.75,1688.34 1596.97,1688.27 1608.19,1688.21 1619.41,1688.15 1630.62,1688.09 1641.84,1688.02 
  1653.06,1687.96 1664.28,1687.89 1675.5,1687.83 1686.72,1687.76 1697.94,1687.69 1709.16,1687.61 1720.38,1687.54 1731.6,1687.47 1742.82,1687.4 1754.04,1687.33 
  1765.26,1687.26 1776.48,1687.19 1787.69,1687.12 1798.91,1687.05 1810.13,1686.99 1821.35,1686.92 1832.57,1686.85 1843.79,1686.78 1855.01,1686.7 1866.23,1686.63 
  1877.45,1686.55 1888.67,1686.47 1899.89,1686.4 1911.11,1686.31 1922.33,1686.23 1933.55,1686.15 1944.77,1686.07 1955.98,1685.98 1967.2,1685.9 1978.42,1685.81 
  1989.64,1685.73 2000.86,1685.64 2012.08,1685.55 2023.3,1685.46 2034.52,1685.38 2045.74,1685.29 2056.96,1685.21 2068.18,1685.12 2079.4,1685.03 2090.62,1684.94 
  2101.84,1684.86 2113.05,1684.76 2124.27,1684.68 2135.49,1684.59 2146.71,1684.51 2157.93,1684.41 2169.15,1684.33 2180.37,1684.23 2191.59,1684.15 2202.81,1684.05 
  2214.03,1683.97 2225.25,1683.86 2236.47,1683.79 2247.69,1683.68 2258.91,1683.6 2270.13,1683.48 2281.34,1683.42 2292.56,1683.29 2303.78,1683.23 2315,1683.09 
  2326.22,1683.04 2337.44,1682.89 2348.66,1682.86 2359.88,1682.69 2371.1,1682.68 2382.32,1682.5 2393.54,1682.52 2404.76,1682.31 2415.98,1682.37 2427.2,1682.15 
  2438.41,1682.26 2449.63,1682.02 2460.85,1682.19 2472.07,1681.96 2483.29,1682.18 2494.51,1681.99 2505.73,1682.24 2516.95,1682.18 2528.17,1682.38 2539.39,1682.29 
  2550.61,1682.85 
  "/>
<polyline clip-path="url(#clip2202)" style="stroke:#c271d2; stroke-width:16; stroke-opacity:1; fill:none" points="
  306.747,1682.85 317.966,1694.82 329.186,1694.73 340.405,1694.91 351.624,1694.59 362.844,1694.21 374.063,1693.84 385.282,1693.4 396.501,1692.99 407.721,1692.63 
  418.94,1692.39 430.159,1692.22 441.379,1692.14 452.598,1692.12 463.817,1692.13 475.037,1692.17 486.256,1692.23 497.475,1692.3 508.694,1692.38 519.914,1692.45 
  531.133,1692.51 542.352,1692.57 553.572,1692.61 564.791,1692.64 576.01,1692.65 587.23,1692.65 598.449,1692.63 609.668,1692.59 620.888,1692.54 632.107,1692.47 
  643.326,1692.38 654.545,1692.27 665.765,1692.15 676.984,1692.02 688.203,1691.87 699.423,1691.72 710.642,1691.55 721.861,1691.38 733.081,1691.2 744.3,1691.02 
  755.519,1690.83 766.738,1690.65 777.958,1690.46 789.177,1690.28 800.396,1690.09 811.616,1689.92 822.835,1689.73 834.054,1689.56 845.274,1689.37 856.493,1689.2 
  867.712,1689.01 878.931,1688.85 890.151,1688.65 901.37,1688.48 912.589,1688.28 923.809,1688.09 935.028,1687.87 946.247,1687.67 957.467,1687.42 968.686,1687.2 
  979.905,1686.91 991.125,1686.67 1002.34,1686.34 1013.56,1686.08 1024.78,1685.69 1036,1685.41 1047.22,1684.9 1058.44,1683.07 1069.66,1684.64 1080.88,1684.6 
  1092.1,1684.55 1103.32,1684.48 1114.54,1684.41 1125.76,1684.32 1136.98,1684.23 1148.19,1684.14 1159.41,1684.04 1170.63,1683.94 1181.85,1683.84 1193.07,1683.75 
  1204.29,1683.66 1215.51,1683.58 1226.73,1683.51 1237.95,1683.46 1249.17,1683.4 1260.39,1683.36 1271.61,1683.33 1282.83,1683.3 1294.05,1683.27 1305.26,1683.25 
  1316.48,1683.23 1327.7,1683.22 1338.92,1683.21 1350.14,1683.19 1361.36,1683.18 1372.58,1683.17 1383.8,1683.16 1395.02,1683.14 1406.24,1683.12 1417.46,1683.11 
  1428.68,1683.08 1439.9,1683.06 1451.12,1683.03 1462.34,1683 1473.55,1682.97 1484.77,1682.93 1495.99,1682.89 1507.21,1682.85 1518.43,1682.81 1529.65,1682.76 
  1540.87,1682.71 1552.09,1682.67 1563.31,1682.62 1574.53,1682.57 1585.75,1682.53 1596.97,1682.48 1608.19,1682.44 1619.41,1682.41 1630.62,1682.38 1641.84,1682.35 
  1653.06,1682.33 1664.28,1682.32 1675.5,1682.32 1686.72,1682.31 1697.94,1682.32 1709.16,1682.32 1720.38,1682.33 1731.6,1682.35 1742.82,1682.36 1754.04,1682.37 
  1765.26,1682.39 1776.48,1682.4 1787.69,1682.41 1798.91,1682.42 1810.13,1682.43 1821.35,1682.44 1832.57,1682.46 1843.79,1682.47 1855.01,1682.48 1866.23,1682.49 
  1877.45,1682.5 1888.67,1682.51 1899.89,1682.52 1911.11,1682.53 1922.33,1682.55 1933.55,1682.56 1944.77,1682.57 1955.98,1682.58 1967.2,1682.59 1978.42,1682.6 
  1989.64,1682.61 2000.86,1682.63 2012.08,1682.64 2023.3,1682.65 2034.52,1682.66 2045.74,1682.67 2056.96,1682.68 2068.18,1682.69 2079.4,1682.69 2090.62,1682.7 
  2101.84,1682.71 2113.05,1682.72 2124.27,1682.73 2135.49,1682.73 2146.71,1682.74 2157.93,1682.75 2169.15,1682.75 2180.37,1682.76 2191.59,1682.76 2202.81,1682.77 
  2214.03,1682.77 2225.25,1682.78 2236.47,1682.78 2247.69,1682.78 2258.91,1682.78 2270.13,1682.79 2281.34,1682.79 2292.56,1682.79 2303.78,1682.79 2315,1682.8 
  2326.22,1682.8 2337.44,1682.8 2348.66,1682.8 2359.88,1682.8 2371.1,1682.8 2382.32,1682.81 2393.54,1682.81 2404.76,1682.81 2415.98,1682.81 2427.2,1682.82 
  2438.41,1682.82 2449.63,1682.82 2460.85,1682.83 2472.07,1682.83 2483.29,1682.83 2494.51,1682.83 2505.73,1682.84 2516.95,1682.84 2528.17,1682.85 2539.39,1682.85 
  2550.61,1682.85 
  "/>
<polyline clip-path="url(#clip2202)" style="stroke:#ac8d18; stroke-width:16; stroke-opacity:1; fill:none" points="
  306.747,1682.85 317.966,1642.04 329.186,1658.39 340.405,1665.57 351.624,1689.01 362.844,1705.87 374.063,1704.17 385.282,1703.14 396.501,1700.6 407.721,1700.14 
  418.94,1699.2 430.159,1699.15 441.379,1698.75 452.598,1698.77 463.817,1698.55 475.037,1698.55 486.256,1698.4 497.475,1698.39 508.694,1698.26 519.914,1698.23 
  531.133,1698.1 542.352,1698.06 553.572,1697.94 564.791,1697.88 576.01,1697.76 587.23,1697.69 598.449,1697.56 609.668,1697.48 620.888,1697.36 632.107,1697.27 
  643.326,1697.15 654.545,1697.05 665.765,1696.93 676.984,1696.82 688.203,1696.7 699.423,1696.6 710.642,1696.47 721.861,1696.37 733.081,1696.25 744.3,1696.14 
  755.519,1696.02 766.738,1695.91 777.958,1695.79 789.177,1695.69 800.396,1695.57 811.616,1695.47 822.835,1695.34 834.054,1695.25 845.274,1695.13 856.493,1695.03 
  867.712,1694.9 878.931,1694.82 890.151,1694.68 901.37,1694.6 912.589,1694.45 923.809,1694.37 935.028,1694.2 946.247,1694.13 957.467,1693.94 968.686,1693.88 
  979.905,1693.65 991.125,1693.63 1002.34,1693.34 1013.56,1693.37 1024.78,1693.03 1036,1693.15 1047.22,1692.74 1058.44,1683.89 1069.66,1692.68 1080.88,1692.84 
  1092.1,1692.1 1103.32,1692.28 1114.54,1691.6 1125.76,1691.64 1136.98,1691.14 1148.19,1691.02 1159.41,1690.7 1170.63,1690.51 1181.85,1690.29 1193.07,1690.11 
  1204.29,1689.93 1215.51,1689.77 1226.73,1689.61 1237.95,1689.46 1249.17,1689.31 1260.39,1689.16 1271.61,1689.01 1282.83,1688.85 1294.05,1688.7 1305.26,1688.54 
  1316.48,1688.39 1327.7,1688.23 1338.92,1688.07 1350.14,1687.9 1361.36,1687.74 1372.58,1687.58 1383.8,1687.42 1395.02,1687.26 1406.24,1687.11 1417.46,1686.95 
  1428.68,1686.81 1439.9,1686.66 1451.12,1686.52 1462.34,1686.38 1473.55,1686.25 1484.77,1686.12 1495.99,1685.99 1507.21,1685.87 1518.43,1685.75 1529.65,1685.63 
  1540.87,1685.51 1552.09,1685.39 1563.31,1685.27 1574.53,1685.15 1585.75,1685.03 1596.97,1684.91 1608.19,1684.78 1619.41,1684.66 1630.62,1684.53 1641.84,1684.4 
  1653.06,1684.28 1664.28,1684.16 1675.5,1684.03 1686.72,1683.91 1697.94,1683.79 1709.16,1683.66 1720.38,1683.54 1731.6,1683.43 1742.82,1683.31 1754.04,1683.21 
  1765.26,1683.11 1776.48,1683.01 1787.69,1682.93 1798.91,1682.85 1810.13,1682.78 1821.35,1682.71 1832.57,1682.66 1843.79,1682.6 1855.01,1682.56 1866.23,1682.52 
  1877.45,1682.48 1888.67,1682.45 1899.89,1682.43 1911.11,1682.41 1922.33,1682.4 1933.55,1682.39 1944.77,1682.38 1955.98,1682.38 1967.2,1682.39 1978.42,1682.4 
  1989.64,1682.41 2000.86,1682.42 2012.08,1682.44 2023.3,1682.46 2034.52,1682.48 2045.74,1682.51 2056.96,1682.53 2068.18,1682.56 2079.4,1682.58 2090.62,1682.61 
  2101.84,1682.64 2113.05,1682.66 2124.27,1682.69 2135.49,1682.71 2146.71,1682.73 2157.93,1682.75 2169.15,1682.77 2180.37,1682.79 2191.59,1682.8 2202.81,1682.82 
  2214.03,1682.83 2225.25,1682.84 2236.47,1682.85 2247.69,1682.86 2258.91,1682.86 2270.13,1682.86 2281.34,1682.87 2292.56,1682.87 2303.78,1682.87 2315,1682.87 
  2326.22,1682.87 2337.44,1682.86 2348.66,1682.87 2359.88,1682.86 2371.1,1682.86 2382.32,1682.85 2393.54,1682.86 2404.76,1682.85 2415.98,1682.85 2427.2,1682.84 
  2438.41,1682.85 2449.63,1682.84 2460.85,1682.85 2472.07,1682.85 2483.29,1682.85 2494.51,1682.85 2505.73,1682.85 2516.95,1682.85 2528.17,1682.85 2539.39,1682.85 
  2550.61,1682.85 
  "/>
<polyline clip-path="url(#clip2202)" style="stroke:#00a9ad; stroke-width:16; stroke-opacity:1; fill:none" points="
  306.747,1682.85 317.966,1688.06 329.186,1681.7 340.405,1685.84 351.624,1696.1 362.844,1701.22 374.063,1700.06 385.282,1699.06 396.501,1697.65 407.721,1697.12 
  418.94,1696.45 430.159,1696.26 441.379,1695.93 452.598,1695.86 463.817,1695.67 475.037,1695.63 486.256,1695.5 497.475,1695.47 508.694,1695.38 519.914,1695.36 
  531.133,1695.28 542.352,1695.25 553.572,1695.19 564.791,1695.16 576.01,1695.09 587.23,1695.05 598.449,1694.99 609.668,1694.94 620.888,1694.88 632.107,1694.83 
  643.326,1694.76 654.545,1694.69 665.765,1694.62 676.984,1694.55 688.203,1694.48 699.423,1694.4 710.642,1694.33 721.861,1694.25 733.081,1694.18 744.3,1694.09 
  755.519,1694.02 766.738,1693.93 777.958,1693.87 789.177,1693.78 800.396,1693.71 811.616,1693.62 822.835,1693.56 834.054,1693.46 845.274,1693.4 856.493,1693.29 
  867.712,1693.24 878.931,1693.12 890.151,1693.07 901.37,1692.92 912.589,1692.88 923.809,1692.71 935.028,1692.67 946.247,1692.46 957.467,1692.44 968.686,1692.16 
  979.905,1692.17 991.125,1691.81 1002.34,1691.85 1013.56,1691.37 1024.78,1691.45 1036,1690.8 1047.22,1690.88 1058.44,1683.64 1069.66,1690.5 1080.88,1690.35 
  1092.1,1690.41 1103.32,1690.13 1114.54,1690.15 1125.76,1689.84 1136.98,1689.84 1148.19,1689.54 1159.41,1689.53 1170.63,1689.25 1181.85,1689.23 1193.07,1688.98 
  1204.29,1688.94 1215.51,1688.72 1226.73,1688.68 1237.95,1688.48 1249.17,1688.42 1260.39,1688.24 1271.61,1688.17 1282.83,1688.01 1294.05,1687.93 1305.26,1687.78 
  1316.48,1687.71 1327.7,1687.57 1338.92,1687.49 1350.14,1687.37 1361.36,1687.29 1372.58,1687.17 1383.8,1687.09 1395.02,1686.98 1406.24,1686.9 1417.46,1686.8 
  1428.68,1686.72 1439.9,1686.63 1451.12,1686.55 1462.34,1686.46 1473.55,1686.38 1484.77,1686.29 1495.99,1686.22 1507.21,1686.13 1518.43,1686.05 1529.65,1685.97 
  1540.87,1685.89 1552.09,1685.81 1563.31,1685.73 1574.53,1685.65 1585.75,1685.58 1596.97,1685.5 1608.19,1685.43 1619.41,1685.36 1630.62,1685.29 1641.84,1685.21 
  1653.06,1685.14 1664.28,1685.06 1675.5,1684.99 1686.72,1684.91 1697.94,1684.84 1709.16,1684.77 1720.38,1684.7 1731.6,1684.62 1742.82,1684.56 1754.04,1684.49 
  1765.26,1684.42 1776.48,1684.35 1787.69,1684.28 1798.91,1684.21 1810.13,1684.14 1821.35,1684.07 1832.57,1684 1843.79,1683.93 1855.01,1683.86 1866.23,1683.79 
  1877.45,1683.72 1888.67,1683.65 1899.89,1683.58 1911.11,1683.51 1922.33,1683.44 1933.55,1683.37 1944.77,1683.3 1955.98,1683.23 1967.2,1683.17 1978.42,1683.1 
  1989.64,1683.04 2000.86,1682.97 2012.08,1682.91 2023.3,1682.85 2034.52,1682.8 2045.74,1682.74 2056.96,1682.69 2068.18,1682.64 2079.4,1682.59 2090.62,1682.54 
  2101.84,1682.5 2113.05,1682.46 2124.27,1682.42 2135.49,1682.39 2146.71,1682.36 2157.93,1682.33 2169.15,1682.3 2180.37,1682.28 2191.59,1682.27 2202.81,1682.25 
  2214.03,1682.24 2225.25,1682.23 2236.47,1682.23 2247.69,1682.23 2258.91,1682.24 2270.13,1682.25 2281.34,1682.26 2292.56,1682.27 2303.78,1682.29 2315,1682.31 
  2326.22,1682.33 2337.44,1682.36 2348.66,1682.38 2359.88,1682.42 2371.1,1682.44 2382.32,1682.48 2393.54,1682.49 2404.76,1682.55 2415.98,1682.55 2427.2,1682.61 
  2438.41,1682.6 2449.63,1682.67 2460.85,1682.65 2472.07,1682.72 2483.29,1682.69 2494.51,1682.76 2505.73,1682.74 2516.95,1682.79 2528.17,1682.8 2539.39,1682.81 
  2550.61,1682.85 
  "/>
<polyline clip-path="url(#clip2202)" style="stroke:#ed5d92; stroke-width:16; stroke-opacity:1; fill:none" points="
  306.747,1682.85 317.966,1682.85 329.186,1681.46 340.405,1759.67 351.624,1918.28 362.844,1927.25 374.063,1800.67 385.282,1664.15 396.501,1535.69 407.721,1456.08 
  418.94,1377.56 430.159,1333.8 441.379,1275.33 452.598,1243 463.817,1191.46 475.037,1162.43 486.256,1114.6 497.475,1086.71 508.694,1042 519.914,1014.83 
  531.133,973.416 542.352,947.541 553.572,910.407 564.791,887.362 576.01,856.316 587.23,838.401 598.449,815.723 609.668,805.457 620.888,793.298 632.107,792.773 
  643.326,792.574 654.545,802.951 665.765,815.059 676.984,836.308 688.203,859.85 699.423,890.74 710.642,923.718 721.861,961.99 733.081,1001.53 744.3,1044.2 
  755.519,1086.88 766.738,1130.6 777.958,1172.84 789.177,1214.26 800.396,1252.66 811.616,1288.77 822.835,1320.44 834.054,1348.85 845.274,1371.67 856.493,1390.82 
  867.712,1403.64 878.931,1412.93 890.151,1415.7 901.37,1415.57 912.589,1409.41 923.809,1401.3 935.028,1388.51 946.247,1374.72 957.467,1358.7 968.686,1341.97 
  979.905,1326.72 991.125,1309.05 1002.34,1297.5 1013.56,1276.4 1024.78,1264.86 1036,1223.17 1047.22,1187.23 1058.44,1077.13 1069.66,1074.77 1080.88,1071.82 
  1092.1,1076.73 1103.32,1091.59 1114.54,1121.43 1125.76,1164.96 1136.98,1216.83 1148.19,1272.59 1159.41,1320.74 1170.63,1362.35 1181.85,1390.86 1193.07,1418.8 
  1204.29,1441.43 1215.51,1467.97 1226.73,1493.39 1237.95,1522.22 1249.17,1551.48 1260.39,1582.65 1271.61,1614.53 1282.83,1646.74 1294.05,1679.38 1305.26,1711.11 
  1316.48,1742.88 1327.7,1773.01 1338.92,1802.98 1350.14,1831.08 1361.36,1859 1372.58,1885.17 1383.8,1911.21 1395.02,1935.71 1406.24,1960.04 1417.46,1982.91 
  1428.68,2005.31 1439.9,2026.06 1451.12,2045.77 1462.34,2063.34 1473.55,2079.06 1484.77,2091.99 1495.99,2102.2 1507.21,2108.99 1518.43,2112.44 1529.65,2112.13 
  1540.87,2108.31 1552.09,2100.97 1563.31,2090.59 1574.53,2077.48 1585.75,2062.25 1596.97,2045.12 1608.19,2025.99 1619.41,2003.51 1630.62,1974.59 1641.84,1933.74 
  1653.06,1875.15 1664.28,1794.46 1675.5,1690.1 1686.72,1562.53 1697.94,1414.69 1709.16,1251.12 1720.38,1078.32 1731.6,903.537 1742.82,734.931 1754.04,580.189 
  1765.26,446.514 1776.48,339.253 1787.69,261.673 1798.91,213.758 1810.13,191.993 1821.35,189.727 1832.57,199.731 1843.79,216.314 1855.01,235.95 1866.23,256.635 
  1877.45,277.506 1888.67,298.303 1899.89,319.231 1911.11,340.619 1922.33,362.969 1933.55,386.699 1944.77,412.304 1955.98,440.116 1967.2,470.528 1978.42,503.743 
  1989.64,540.029 2000.86,579.475 2012.08,622.218 2023.3,668.259 2034.52,717.589 2045.74,770.154 2056.96,825.765 2068.18,884.348 2079.4,945.491 2090.62,1009.14 
  2101.84,1074.62 2113.05,1141.95 2124.27,1210.14 2135.49,1279.4 2146.71,1348.36 2157.93,1417.55 2169.15,1485.15 2180.37,1552.2 2191.59,1616.37 2202.81,1679.32 
  2214.03,1738.12 2225.25,1795.28 2236.47,1847.08 2247.69,1897.1 2258.91,1940.57 2270.13,1982.51 2281.34,2016.69 2292.56,2050.04 2303.78,2074.32 2315,2099.09 
  2326.22,2113.27 2337.44,2130.09 2348.66,2134.46 2359.88,2144.75 2371.1,2140.16 2382.32,2146.22 2393.54,2133.99 2404.76,2138.9 2415.98,2120.32 2427.2,2127.15 
  2438.41,2102.1 2449.63,2111.91 2460.85,2075.67 2472.07,2083.33 2483.29,2020.73 2494.51,2008.62 2505.73,1888.72 2516.95,1830.76 2528.17,1637.72 2539.39,1593.67 
  2550.61,1714.57 
  "/>
<path clip-path="url(#clip2200)" d="
M2713.92 746.392 L3184.76 746.392 L3184.76 262.552 L2713.92 262.552  Z
  " fill="#ffffff" fill-rule="evenodd" fill-opacity="1"/>
<polyline clip-path="url(#clip2200)" style="stroke:#000000; stroke-width:4; stroke-opacity:1; fill:none" points="
  2713.92,746.392 3184.76,746.392 3184.76,262.552 2713.92,262.552 2713.92,746.392 
  "/>
<polyline clip-path="url(#clip2200)" style="stroke:#009af9; stroke-width:16; stroke-opacity:1; fill:none" points="
  2745.92,323.032 2937.92,323.032 
  "/>
<path clip-path="url(#clip2200)" d="M 0 0 M2991.95 303.633 Q2984.95 303.633 2980.81 308.853 Q2976.7 314.072 2976.7 323.08 Q2976.7 332.056 2980.81 337.275 Q2984.95 342.495 2991.95 342.495 Q2998.95 342.495 3003.03 337.275 Q3007.13 332.056 3007.13 323.08 Q3007.13 314.072 3003.03 308.853 Q2998.95 303.633 2991.95 303.633 M3000.96 345.933 L3009.42 355.195 L3001.66 355.195 L2994.62 347.588 Q2993.57 347.651 2993 347.683 Q2992.46 347.715 2991.95 347.715 Q2981.92 347.715 2975.91 341.031 Q2969.92 334.315 2969.92 323.08 Q2969.92 311.813 2975.91 305.129 Q2981.92 298.413 2991.95 298.413 Q3001.94 298.413 3007.93 305.129 Q3013.91 311.813 3013.91 323.08 Q3013.91 331.355 3010.57 337.244 Q3007.26 343.132 3000.96 345.933 Z" fill="#000000" fill-rule="evenodd" fill-opacity="1" /><path clip-path="url(#clip2200)" d="M 0 0 M3019.45 332.724 L3019.45 311.144 L3025.31 311.144 L3025.31 332.501 Q3025.31 337.562 3027.28 340.108 Q3029.25 342.623 3033.2 342.623 Q3037.94 342.623 3040.68 339.599 Q3043.45 336.575 3043.45 331.355 L3043.45 311.144 L3049.3 311.144 L3049.3 346.792 L3043.45 346.792 L3043.45 341.318 Q3041.31 344.564 3038.48 346.156 Q3035.68 347.715 3031.96 347.715 Q3025.81 347.715 3022.63 343.896 Q3019.45 340.076 3019.45 332.724 M3034.19 310.285 L3034.19 310.285 Z" fill="#000000" fill-rule="evenodd" fill-opacity="1" /><path clip-path="url(#clip2200)" d="M 0 0 M3071.65 328.873 Q3064.55 328.873 3061.81 330.496 Q3059.08 332.119 3059.08 336.034 Q3059.08 339.153 3061.11 340.999 Q3063.18 342.814 3066.71 342.814 Q3071.58 342.814 3074.51 339.376 Q3077.47 335.907 3077.47 330.178 L3077.47 328.873 L3071.65 328.873 M3083.33 326.454 L3083.33 346.792 L3077.47 346.792 L3077.47 341.381 Q3075.47 344.628 3072.47 346.187 Q3069.48 347.715 3065.15 347.715 Q3059.68 347.715 3056.43 344.66 Q3053.22 341.572 3053.22 336.416 Q3053.22 330.4 3057.23 327.345 Q3061.27 324.289 3069.26 324.289 L3077.47 324.289 L3077.47 323.716 Q3077.47 319.674 3074.8 317.478 Q3072.16 315.25 3067.35 315.25 Q3064.29 315.25 3061.4 315.982 Q3058.5 316.714 3055.83 318.178 L3055.83 312.767 Q3059.04 311.526 3062.07 310.921 Q3065.09 310.285 3067.96 310.285 Q3075.69 310.285 3079.51 314.295 Q3083.33 318.306 3083.33 326.454 Z" fill="#000000" fill-rule="evenodd" fill-opacity="1" /><path clip-path="url(#clip2200)" d="M 0 0 M3112.93 316.555 L3112.93 297.267 L3118.79 297.267 L3118.79 346.792 L3112.93 346.792 L3112.93 341.445 Q3111.08 344.628 3108.25 346.187 Q3105.45 347.715 3101.5 347.715 Q3095.04 347.715 3090.97 342.559 Q3086.93 337.403 3086.93 329 Q3086.93 320.597 3090.97 315.441 Q3095.04 310.285 3101.5 310.285 Q3105.45 310.285 3108.25 311.844 Q3111.08 313.372 3112.93 316.555 M3092.97 329 Q3092.97 335.461 3095.61 339.153 Q3098.29 342.814 3102.93 342.814 Q3107.58 342.814 3110.26 339.153 Q3112.93 335.461 3112.93 329 Q3112.93 322.539 3110.26 318.879 Q3107.58 315.186 3102.93 315.186 Q3098.29 315.186 3095.61 318.879 Q3092.97 322.539 3092.97 329 Z" fill="#000000" fill-rule="evenodd" fill-opacity="1" /><path clip-path="url(#clip2200)" d="M 0 0 M3147.59 341.381 L3158.09 341.381 L3158.09 305.129 L3146.67 307.42 L3146.67 301.564 L3158.03 299.272 L3164.46 299.272 L3164.46 341.381 L3174.96 341.381 L3174.96 346.792 L3147.59 346.792 L3147.59 341.381 Z" fill="#000000" fill-rule="evenodd" fill-opacity="1" /><polyline clip-path="url(#clip2200)" style="stroke:#e26f46; stroke-width:16; stroke-opacity:1; fill:none" points="
  2745.92,383.512 2937.92,383.512 
  "/>
<path clip-path="url(#clip2200)" d="M 0 0 M2991.95 364.113 Q2984.95 364.113 2980.81 369.333 Q2976.7 374.552 2976.7 383.56 Q2976.7 392.536 2980.81 397.755 Q2984.95 402.975 2991.95 402.975 Q2998.95 402.975 3003.03 397.755 Q3007.13 392.536 3007.13 383.56 Q3007.13 374.552 3003.03 369.333 Q2998.95 364.113 2991.95 364.113 M3000.96 406.413 L3009.42 415.675 L3001.66 415.675 L2994.62 408.068 Q2993.57 408.131 2993 408.163 Q2992.46 408.195 2991.95 408.195 Q2981.92 408.195 2975.91 401.511 Q2969.92 394.795 2969.92 383.56 Q2969.92 372.293 2975.91 365.609 Q2981.92 358.893 2991.95 358.893 Q3001.94 358.893 3007.93 365.609 Q3013.91 372.293 3013.91 383.56 Q3013.91 391.835 3010.57 397.724 Q3007.26 403.612 3000.96 406.413 Z" fill="#000000" fill-rule="evenodd" fill-opacity="1" /><path clip-path="url(#clip2200)" d="M 0 0 M3019.45 393.204 L3019.45 371.624 L3025.31 371.624 L3025.31 392.981 Q3025.31 398.042 3027.28 400.588 Q3029.25 403.103 3033.2 403.103 Q3037.94 403.103 3040.68 400.079 Q3043.45 397.055 3043.45 391.835 L3043.45 371.624 L3049.3 371.624 L3049.3 407.272 L3043.45 407.272 L3043.45 401.798 Q3041.31 405.044 3038.48 406.636 Q3035.68 408.195 3031.96 408.195 Q3025.81 408.195 3022.63 404.376 Q3019.45 400.556 3019.45 393.204 M3034.19 370.765 L3034.19 370.765 Z" fill="#000000" fill-rule="evenodd" fill-opacity="1" /><path clip-path="url(#clip2200)" d="M 0 0 M3071.65 389.353 Q3064.55 389.353 3061.81 390.976 Q3059.08 392.599 3059.08 396.514 Q3059.08 399.633 3061.11 401.479 Q3063.18 403.294 3066.71 403.294 Q3071.58 403.294 3074.51 399.856 Q3077.47 396.387 3077.47 390.658 L3077.47 389.353 L3071.65 389.353 M3083.33 386.934 L3083.33 407.272 L3077.47 407.272 L3077.47 401.861 Q3075.47 405.108 3072.47 406.667 Q3069.48 408.195 3065.15 408.195 Q3059.68 408.195 3056.43 405.14 Q3053.22 402.052 3053.22 396.896 Q3053.22 390.88 3057.23 387.825 Q3061.27 384.769 3069.26 384.769 L3077.47 384.769 L3077.47 384.196 Q3077.47 380.154 3074.8 377.958 Q3072.16 375.73 3067.35 375.73 Q3064.29 375.73 3061.4 376.462 Q3058.5 377.194 3055.83 378.658 L3055.83 373.247 Q3059.04 372.006 3062.07 371.401 Q3065.09 370.765 3067.96 370.765 Q3075.69 370.765 3079.51 374.775 Q3083.33 378.786 3083.33 386.934 Z" fill="#000000" fill-rule="evenodd" fill-opacity="1" /><path clip-path="url(#clip2200)" d="M 0 0 M3112.93 377.035 L3112.93 357.747 L3118.79 357.747 L3118.79 407.272 L3112.93 407.272 L3112.93 401.925 Q3111.08 405.108 3108.25 406.667 Q3105.45 408.195 3101.5 408.195 Q3095.04 408.195 3090.97 403.039 Q3086.93 397.883 3086.93 389.48 Q3086.93 381.077 3090.97 375.921 Q3095.04 370.765 3101.5 370.765 Q3105.45 370.765 3108.25 372.324 Q3111.08 373.852 3112.93 377.035 M3092.97 389.48 Q3092.97 395.941 3095.61 399.633 Q3098.29 403.294 3102.93 403.294 Q3107.58 403.294 3110.26 399.633 Q3112.93 395.941 3112.93 389.48 Q3112.93 383.019 3110.26 379.359 Q3107.58 375.666 3102.93 375.666 Q3098.29 375.666 3095.61 379.359 Q3092.97 383.019 3092.97 389.48 Z" fill="#000000" fill-rule="evenodd" fill-opacity="1" /><path clip-path="url(#clip2200)" d="M 0 0 M3152.01 401.861 L3174.45 401.861 L3174.45 407.272 L3144.28 407.272 L3144.28 401.861 Q3147.94 398.074 3154.24 391.708 Q3160.58 385.31 3162.2 383.464 Q3165.29 379.995 3166.5 377.608 Q3167.74 375.189 3167.74 372.865 Q3167.74 369.078 3165.06 366.691 Q3162.42 364.304 3158.16 364.304 Q3155.13 364.304 3151.76 365.354 Q3148.42 366.404 3144.6 368.537 L3144.6 362.044 Q3148.48 360.484 3151.86 359.688 Q3155.23 358.893 3158.03 358.893 Q3165.41 358.893 3169.81 362.585 Q3174.2 366.277 3174.2 372.452 Q3174.2 375.38 3173.08 378.022 Q3172 380.632 3169.11 384.196 Q3168.31 385.119 3164.05 389.544 Q3159.78 393.936 3152.01 401.861 Z" fill="#000000" fill-rule="evenodd" fill-opacity="1" /><polyline clip-path="url(#clip2200)" style="stroke:#3da44d; stroke-width:16; stroke-opacity:1; fill:none" points="
  2745.92,443.992 2937.92,443.992 
  "/>
<path clip-path="url(#clip2200)" d="M 0 0 M2991.95 424.593 Q2984.95 424.593 2980.81 429.813 Q2976.7 435.032 2976.7 444.04 Q2976.7 453.016 2980.81 458.235 Q2984.95 463.455 2991.95 463.455 Q2998.95 463.455 3003.03 458.235 Q3007.13 453.016 3007.13 444.04 Q3007.13 435.032 3003.03 429.813 Q2998.95 424.593 2991.95 424.593 M3000.96 466.893 L3009.42 476.155 L3001.66 476.155 L2994.62 468.548 Q2993.57 468.611 2993 468.643 Q2992.46 468.675 2991.95 468.675 Q2981.92 468.675 2975.91 461.991 Q2969.92 455.275 2969.92 444.04 Q2969.92 432.773 2975.91 426.089 Q2981.92 419.373 2991.95 419.373 Q3001.94 419.373 3007.93 426.089 Q3013.91 432.773 3013.91 444.04 Q3013.91 452.315 3010.57 458.204 Q3007.26 464.092 3000.96 466.893 Z" fill="#000000" fill-rule="evenodd" fill-opacity="1" /><path clip-path="url(#clip2200)" d="M 0 0 M3019.45 453.684 L3019.45 432.104 L3025.31 432.104 L3025.31 453.461 Q3025.31 458.522 3027.28 461.068 Q3029.25 463.583 3033.2 463.583 Q3037.94 463.583 3040.68 460.559 Q3043.45 457.535 3043.45 452.315 L3043.45 432.104 L3049.3 432.104 L3049.3 467.752 L3043.45 467.752 L3043.45 462.278 Q3041.31 465.524 3038.48 467.116 Q3035.68 468.675 3031.96 468.675 Q3025.81 468.675 3022.63 464.856 Q3019.45 461.036 3019.45 453.684 M3034.19 431.245 L3034.19 431.245 Z" fill="#000000" fill-rule="evenodd" fill-opacity="1" /><path clip-path="url(#clip2200)" d="M 0 0 M3071.65 449.833 Q3064.55 449.833 3061.81 451.456 Q3059.08 453.079 3059.08 456.994 Q3059.08 460.113 3061.11 461.959 Q3063.18 463.774 3066.71 463.774 Q3071.58 463.774 3074.51 460.336 Q3077.47 456.867 3077.47 451.138 L3077.47 449.833 L3071.65 449.833 M3083.33 447.414 L3083.33 467.752 L3077.47 467.752 L3077.47 462.341 Q3075.47 465.588 3072.47 467.147 Q3069.48 468.675 3065.15 468.675 Q3059.68 468.675 3056.43 465.62 Q3053.22 462.532 3053.22 457.376 Q3053.22 451.36 3057.23 448.305 Q3061.27 445.249 3069.26 445.249 L3077.47 445.249 L3077.47 444.676 Q3077.47 440.634 3074.8 438.438 Q3072.16 436.21 3067.35 436.21 Q3064.29 436.21 3061.4 436.942 Q3058.5 437.674 3055.83 439.138 L3055.83 433.727 Q3059.04 432.486 3062.07 431.881 Q3065.09 431.245 3067.96 431.245 Q3075.69 431.245 3079.51 435.255 Q3083.33 439.266 3083.33 447.414 Z" fill="#000000" fill-rule="evenodd" fill-opacity="1" /><path clip-path="url(#clip2200)" d="M 0 0 M3112.93 437.515 L3112.93 418.227 L3118.79 418.227 L3118.79 467.752 L3112.93 467.752 L3112.93 462.405 Q3111.08 465.588 3108.25 467.147 Q3105.45 468.675 3101.5 468.675 Q3095.04 468.675 3090.97 463.519 Q3086.93 458.363 3086.93 449.96 Q3086.93 441.557 3090.97 436.401 Q3095.04 431.245 3101.5 431.245 Q3105.45 431.245 3108.25 432.804 Q3111.08 434.332 3112.93 437.515 M3092.97 449.96 Q3092.97 456.421 3095.61 460.113 Q3098.29 463.774 3102.93 463.774 Q3107.58 463.774 3110.26 460.113 Q3112.93 456.421 3112.93 449.96 Q3112.93 443.499 3110.26 439.839 Q3107.58 436.146 3102.93 436.146 Q3098.29 436.146 3095.61 439.839 Q3092.97 443.499 3092.97 449.96 Z" fill="#000000" fill-rule="evenodd" fill-opacity="1" /><path clip-path="url(#clip2200)" d="M 0 0 M3165.96 442.13 Q3170.57 443.117 3173.15 446.236 Q3175.76 449.355 3175.76 453.939 Q3175.76 460.973 3170.92 464.824 Q3166.08 468.675 3157.17 468.675 Q3154.18 468.675 3151 468.07 Q3147.84 467.497 3144.47 466.32 L3144.47 460.113 Q3147.14 461.673 3150.33 462.469 Q3153.51 463.264 3156.98 463.264 Q3163.03 463.264 3166.18 460.877 Q3169.36 458.49 3169.36 453.939 Q3169.36 449.737 3166.4 447.382 Q3163.47 444.995 3158.22 444.995 L3152.68 444.995 L3152.68 439.711 L3158.48 439.711 Q3163.22 439.711 3165.73 437.833 Q3168.25 435.924 3168.25 432.359 Q3168.25 428.699 3165.64 426.757 Q3163.06 424.784 3158.22 424.784 Q3155.58 424.784 3152.56 425.357 Q3149.53 425.929 3145.9 427.139 L3145.9 421.41 Q3149.56 420.391 3152.75 419.882 Q3155.96 419.373 3158.79 419.373 Q3166.11 419.373 3170.38 422.715 Q3174.64 426.025 3174.64 431.69 Q3174.64 435.637 3172.38 438.374 Q3170.12 441.08 3165.96 442.13 Z" fill="#000000" fill-rule="evenodd" fill-opacity="1" /><polyline clip-path="url(#clip2200)" style="stroke:#c271d2; stroke-width:16; stroke-opacity:1; fill:none" points="
  2745.92,504.472 2937.92,504.472 
  "/>
<path clip-path="url(#clip2200)" d="M 0 0 M2991.95 485.073 Q2984.95 485.073 2980.81 490.293 Q2976.7 495.512 2976.7 504.52 Q2976.7 513.496 2980.81 518.715 Q2984.95 523.935 2991.95 523.935 Q2998.95 523.935 3003.03 518.715 Q3007.13 513.496 3007.13 504.52 Q3007.13 495.512 3003.03 490.293 Q2998.95 485.073 2991.95 485.073 M3000.96 527.373 L3009.42 536.635 L3001.66 536.635 L2994.62 529.028 Q2993.57 529.091 2993 529.123 Q2992.46 529.155 2991.95 529.155 Q2981.92 529.155 2975.91 522.471 Q2969.92 515.755 2969.92 504.52 Q2969.92 493.253 2975.91 486.569 Q2981.92 479.853 2991.95 479.853 Q3001.94 479.853 3007.93 486.569 Q3013.91 493.253 3013.91 504.52 Q3013.91 512.795 3010.57 518.684 Q3007.26 524.572 3000.96 527.373 Z" fill="#000000" fill-rule="evenodd" fill-opacity="1" /><path clip-path="url(#clip2200)" d="M 0 0 M3019.45 514.164 L3019.45 492.584 L3025.31 492.584 L3025.31 513.941 Q3025.31 519.002 3027.28 521.548 Q3029.25 524.063 3033.2 524.063 Q3037.94 524.063 3040.68 521.039 Q3043.45 518.015 3043.45 512.795 L3043.45 492.584 L3049.3 492.584 L3049.3 528.232 L3043.45 528.232 L3043.45 522.758 Q3041.31 526.004 3038.48 527.596 Q3035.68 529.155 3031.96 529.155 Q3025.81 529.155 3022.63 525.336 Q3019.45 521.516 3019.45 514.164 M3034.19 491.725 L3034.19 491.725 Z" fill="#000000" fill-rule="evenodd" fill-opacity="1" /><path clip-path="url(#clip2200)" d="M 0 0 M3071.65 510.313 Q3064.55 510.313 3061.81 511.936 Q3059.08 513.559 3059.08 517.474 Q3059.08 520.593 3061.11 522.439 Q3063.18 524.254 3066.71 524.254 Q3071.58 524.254 3074.51 520.816 Q3077.47 517.347 3077.47 511.618 L3077.47 510.313 L3071.65 510.313 M3083.33 507.894 L3083.33 528.232 L3077.47 528.232 L3077.47 522.821 Q3075.47 526.068 3072.47 527.627 Q3069.48 529.155 3065.15 529.155 Q3059.68 529.155 3056.43 526.1 Q3053.22 523.012 3053.22 517.856 Q3053.22 511.84 3057.23 508.785 Q3061.27 505.729 3069.26 505.729 L3077.47 505.729 L3077.47 505.156 Q3077.47 501.114 3074.8 498.918 Q3072.16 496.69 3067.35 496.69 Q3064.29 496.69 3061.4 497.422 Q3058.5 498.154 3055.83 499.618 L3055.83 494.207 Q3059.04 492.966 3062.07 492.361 Q3065.09 491.725 3067.96 491.725 Q3075.69 491.725 3079.51 495.735 Q3083.33 499.746 3083.33 507.894 Z" fill="#000000" fill-rule="evenodd" fill-opacity="1" /><path clip-path="url(#clip2200)" d="M 0 0 M3112.93 497.995 L3112.93 478.707 L3118.79 478.707 L3118.79 528.232 L3112.93 528.232 L3112.93 522.885 Q3111.08 526.068 3108.25 527.627 Q3105.45 529.155 3101.5 529.155 Q3095.04 529.155 3090.97 523.999 Q3086.93 518.843 3086.93 510.44 Q3086.93 502.037 3090.97 496.881 Q3095.04 491.725 3101.5 491.725 Q3105.45 491.725 3108.25 493.284 Q3111.08 494.812 3112.93 497.995 M3092.97 510.44 Q3092.97 516.901 3095.61 520.593 Q3098.29 524.254 3102.93 524.254 Q3107.58 524.254 3110.26 520.593 Q3112.93 516.901 3112.93 510.44 Q3112.93 503.979 3110.26 500.319 Q3107.58 496.626 3102.93 496.626 Q3098.29 496.626 3095.61 500.319 Q3092.97 503.979 3092.97 510.44 Z" fill="#000000" fill-rule="evenodd" fill-opacity="1" /><path clip-path="url(#clip2200)" d="M 0 0 M3164.14 486.314 L3147.91 511.681 L3164.14 511.681 L3164.14 486.314 M3162.45 480.712 L3170.54 480.712 L3170.54 511.681 L3177.32 511.681 L3177.32 517.028 L3170.54 517.028 L3170.54 528.232 L3164.14 528.232 L3164.14 517.028 L3142.69 517.028 L3142.69 510.822 L3162.45 480.712 Z" fill="#000000" fill-rule="evenodd" fill-opacity="1" /><polyline clip-path="url(#clip2200)" style="stroke:#ac8d18; stroke-width:16; stroke-opacity:1; fill:none" points="
  2745.92,564.952 2937.92,564.952 
  "/>
<path clip-path="url(#clip2200)" d="M 0 0 M2991.95 545.553 Q2984.95 545.553 2980.81 550.773 Q2976.7 555.992 2976.7 565 Q2976.7 573.976 2980.81 579.195 Q2984.95 584.415 2991.95 584.415 Q2998.95 584.415 3003.03 579.195 Q3007.13 573.976 3007.13 565 Q3007.13 555.992 3003.03 550.773 Q2998.95 545.553 2991.95 545.553 M3000.96 587.853 L3009.42 597.115 L3001.66 597.115 L2994.62 589.508 Q2993.57 589.571 2993 589.603 Q2992.46 589.635 2991.95 589.635 Q2981.92 589.635 2975.91 582.951 Q2969.92 576.235 2969.92 565 Q2969.92 553.733 2975.91 547.049 Q2981.92 540.333 2991.95 540.333 Q3001.94 540.333 3007.93 547.049 Q3013.91 553.733 3013.91 565 Q3013.91 573.275 3010.57 579.164 Q3007.26 585.052 3000.96 587.853 Z" fill="#000000" fill-rule="evenodd" fill-opacity="1" /><path clip-path="url(#clip2200)" d="M 0 0 M3019.45 574.644 L3019.45 553.064 L3025.31 553.064 L3025.31 574.421 Q3025.31 579.482 3027.28 582.028 Q3029.25 584.543 3033.2 584.543 Q3037.94 584.543 3040.68 581.519 Q3043.45 578.495 3043.45 573.275 L3043.45 553.064 L3049.3 553.064 L3049.3 588.712 L3043.45 588.712 L3043.45 583.238 Q3041.31 586.484 3038.48 588.076 Q3035.68 589.635 3031.96 589.635 Q3025.81 589.635 3022.63 585.816 Q3019.45 581.996 3019.45 574.644 M3034.19 552.205 L3034.19 552.205 Z" fill="#000000" fill-rule="evenodd" fill-opacity="1" /><path clip-path="url(#clip2200)" d="M 0 0 M3071.65 570.793 Q3064.55 570.793 3061.81 572.416 Q3059.08 574.039 3059.08 577.954 Q3059.08 581.073 3061.11 582.919 Q3063.18 584.734 3066.71 584.734 Q3071.58 584.734 3074.51 581.296 Q3077.47 577.827 3077.47 572.098 L3077.47 570.793 L3071.65 570.793 M3083.33 568.374 L3083.33 588.712 L3077.47 588.712 L3077.47 583.301 Q3075.47 586.548 3072.47 588.107 Q3069.48 589.635 3065.15 589.635 Q3059.68 589.635 3056.43 586.58 Q3053.22 583.492 3053.22 578.336 Q3053.22 572.32 3057.23 569.265 Q3061.27 566.209 3069.26 566.209 L3077.47 566.209 L3077.47 565.636 Q3077.47 561.594 3074.8 559.398 Q3072.16 557.17 3067.35 557.17 Q3064.29 557.17 3061.4 557.902 Q3058.5 558.634 3055.83 560.098 L3055.83 554.687 Q3059.04 553.446 3062.07 552.841 Q3065.09 552.205 3067.96 552.205 Q3075.69 552.205 3079.51 556.215 Q3083.33 560.226 3083.33 568.374 Z" fill="#000000" fill-rule="evenodd" fill-opacity="1" /><path clip-path="url(#clip2200)" d="M 0 0 M3112.93 558.475 L3112.93 539.187 L3118.79 539.187 L3118.79 588.712 L3112.93 588.712 L3112.93 583.365 Q3111.08 586.548 3108.25 588.107 Q3105.45 589.635 3101.5 589.635 Q3095.04 589.635 3090.97 584.479 Q3086.93 579.323 3086.93 570.92 Q3086.93 562.517 3090.97 557.361 Q3095.04 552.205 3101.5 552.205 Q3105.45 552.205 3108.25 553.764 Q3111.08 555.292 3112.93 558.475 M3092.97 570.92 Q3092.97 577.381 3095.61 581.073 Q3098.29 584.734 3102.93 584.734 Q3107.58 584.734 3110.26 581.073 Q3112.93 577.381 3112.93 570.92 Q3112.93 564.459 3110.26 560.799 Q3107.58 557.106 3102.93 557.106 Q3098.29 557.106 3095.61 560.799 Q3092.97 564.459 3092.97 570.92 Z" fill="#000000" fill-rule="evenodd" fill-opacity="1" /><path clip-path="url(#clip2200)" d="M 0 0 M3146.54 541.192 L3171.78 541.192 L3171.78 546.603 L3152.43 546.603 L3152.43 558.252 Q3153.83 557.775 3155.23 557.552 Q3156.63 557.297 3158.03 557.297 Q3165.99 557.297 3170.63 561.658 Q3175.28 566.018 3175.28 573.466 Q3175.28 581.137 3170.51 585.402 Q3165.73 589.635 3157.04 589.635 Q3154.05 589.635 3150.93 589.126 Q3147.84 588.617 3144.53 587.598 L3144.53 581.137 Q3147.4 582.697 3150.45 583.46 Q3153.51 584.224 3156.92 584.224 Q3162.42 584.224 3165.64 581.328 Q3168.85 578.432 3168.85 573.466 Q3168.85 568.501 3165.64 565.605 Q3162.42 562.708 3156.92 562.708 Q3154.34 562.708 3151.76 563.281 Q3149.21 563.854 3146.54 565.064 L3146.54 541.192 Z" fill="#000000" fill-rule="evenodd" fill-opacity="1" /><polyline clip-path="url(#clip2200)" style="stroke:#00a9ad; stroke-width:16; stroke-opacity:1; fill:none" points="
  2745.92,625.432 2937.92,625.432 
  "/>
<path clip-path="url(#clip2200)" d="M 0 0 M2991.95 606.033 Q2984.95 606.033 2980.81 611.253 Q2976.7 616.472 2976.7 625.48 Q2976.7 634.456 2980.81 639.675 Q2984.95 644.895 2991.95 644.895 Q2998.95 644.895 3003.03 639.675 Q3007.13 634.456 3007.13 625.48 Q3007.13 616.472 3003.03 611.253 Q2998.95 606.033 2991.95 606.033 M3000.96 648.333 L3009.42 657.595 L3001.66 657.595 L2994.62 649.988 Q2993.57 650.051 2993 650.083 Q2992.46 650.115 2991.95 650.115 Q2981.92 650.115 2975.91 643.431 Q2969.92 636.715 2969.92 625.48 Q2969.92 614.213 2975.91 607.529 Q2981.92 600.813 2991.95 600.813 Q3001.94 600.813 3007.93 607.529 Q3013.91 614.213 3013.91 625.48 Q3013.91 633.755 3010.57 639.644 Q3007.26 645.532 3000.96 648.333 Z" fill="#000000" fill-rule="evenodd" fill-opacity="1" /><path clip-path="url(#clip2200)" d="M 0 0 M3019.45 635.124 L3019.45 613.544 L3025.31 613.544 L3025.31 634.901 Q3025.31 639.962 3027.28 642.508 Q3029.25 645.023 3033.2 645.023 Q3037.94 645.023 3040.68 641.999 Q3043.45 638.975 3043.45 633.755 L3043.45 613.544 L3049.3 613.544 L3049.3 649.192 L3043.45 649.192 L3043.45 643.718 Q3041.31 646.964 3038.48 648.556 Q3035.68 650.115 3031.96 650.115 Q3025.81 650.115 3022.63 646.296 Q3019.45 642.476 3019.45 635.124 M3034.19 612.685 L3034.19 612.685 Z" fill="#000000" fill-rule="evenodd" fill-opacity="1" /><path clip-path="url(#clip2200)" d="M 0 0 M3071.65 631.273 Q3064.55 631.273 3061.81 632.896 Q3059.08 634.519 3059.08 638.434 Q3059.08 641.553 3061.11 643.399 Q3063.18 645.214 3066.71 645.214 Q3071.58 645.214 3074.51 641.776 Q3077.47 638.307 3077.47 632.578 L3077.47 631.273 L3071.65 631.273 M3083.33 628.854 L3083.33 649.192 L3077.47 649.192 L3077.47 643.781 Q3075.47 647.028 3072.47 648.587 Q3069.48 650.115 3065.15 650.115 Q3059.68 650.115 3056.43 647.06 Q3053.22 643.972 3053.22 638.816 Q3053.22 632.8 3057.23 629.745 Q3061.27 626.689 3069.26 626.689 L3077.47 626.689 L3077.47 626.116 Q3077.47 622.074 3074.8 619.878 Q3072.16 617.65 3067.35 617.65 Q3064.29 617.65 3061.4 618.382 Q3058.5 619.114 3055.83 620.578 L3055.83 615.167 Q3059.04 613.926 3062.07 613.321 Q3065.09 612.685 3067.96 612.685 Q3075.69 612.685 3079.51 616.695 Q3083.33 620.706 3083.33 628.854 Z" fill="#000000" fill-rule="evenodd" fill-opacity="1" /><path clip-path="url(#clip2200)" d="M 0 0 M3112.93 618.955 L3112.93 599.667 L3118.79 599.667 L3118.79 649.192 L3112.93 649.192 L3112.93 643.845 Q3111.08 647.028 3108.25 648.587 Q3105.45 650.115 3101.5 650.115 Q3095.04 650.115 3090.97 644.959 Q3086.93 639.803 3086.93 631.4 Q3086.93 622.997 3090.97 617.841 Q3095.04 612.685 3101.5 612.685 Q3105.45 612.685 3108.25 614.244 Q3111.08 615.772 3112.93 618.955 M3092.97 631.4 Q3092.97 637.861 3095.61 641.553 Q3098.29 645.214 3102.93 645.214 Q3107.58 645.214 3110.26 641.553 Q3112.93 637.861 3112.93 631.4 Q3112.93 624.939 3110.26 621.279 Q3107.58 617.586 3102.93 617.586 Q3098.29 617.586 3095.61 621.279 Q3092.97 624.939 3092.97 631.4 Z" fill="#000000" fill-rule="evenodd" fill-opacity="1" /><path clip-path="url(#clip2200)" d="M 0 0 M3161.02 622.87 Q3156.69 622.87 3154.15 625.83 Q3151.63 628.79 3151.63 633.946 Q3151.63 639.071 3154.15 642.063 Q3156.69 645.023 3161.02 645.023 Q3165.35 645.023 3167.87 642.063 Q3170.41 639.071 3170.41 633.946 Q3170.41 628.79 3167.87 625.83 Q3165.35 622.87 3161.02 622.87 M3173.79 602.722 L3173.79 608.579 Q3171.37 607.433 3168.88 606.828 Q3166.43 606.224 3164.01 606.224 Q3157.65 606.224 3154.27 610.52 Q3150.93 614.817 3150.45 623.506 Q3152.33 620.737 3155.17 619.273 Q3158 617.777 3161.4 617.777 Q3168.57 617.777 3172.7 622.138 Q3176.87 626.467 3176.87 633.946 Q3176.87 641.267 3172.54 645.691 Q3168.22 650.115 3161.02 650.115 Q3152.78 650.115 3148.42 643.813 Q3144.06 637.479 3144.06 625.48 Q3144.06 614.213 3149.4 607.529 Q3154.75 600.813 3163.76 600.813 Q3166.18 600.813 3168.63 601.29 Q3171.11 601.768 3173.79 602.722 Z" fill="#000000" fill-rule="evenodd" fill-opacity="1" /><polyline clip-path="url(#clip2200)" style="stroke:#ed5d92; stroke-width:16; stroke-opacity:1; fill:none" points="
  2745.92,685.912 2937.92,685.912 
  "/>
<path clip-path="url(#clip2200)" d="M 0 0 M2969.92 662.152 L2976.35 662.152 L2976.35 704.261 L2999.49 704.261 L2999.49 709.672 L2969.92 709.672 L2969.92 662.152 Z" fill="#000000" fill-rule="evenodd" fill-opacity="1" /><path clip-path="url(#clip2200)" d="M 0 0 M3018.3 678.13 Q3013.59 678.13 3010.85 681.822 Q3008.12 685.482 3008.12 691.88 Q3008.12 698.278 3010.82 701.97 Q3013.56 705.63 3018.3 705.63 Q3022.98 705.63 3025.72 701.938 Q3028.46 698.246 3028.46 691.88 Q3028.46 685.546 3025.72 681.854 Q3022.98 678.13 3018.3 678.13 M3018.3 673.165 Q3025.94 673.165 3030.3 678.13 Q3034.66 683.095 3034.66 691.88 Q3034.66 700.633 3030.3 705.63 Q3025.94 710.595 3018.3 710.595 Q3010.63 710.595 3006.27 705.63 Q3001.94 700.633 3001.94 691.88 Q3001.94 683.095 3006.27 678.13 Q3010.63 673.165 3018.3 673.165 Z" fill="#000000" fill-rule="evenodd" fill-opacity="1" /><path clip-path="url(#clip2200)" d="M 0 0 M3057.01 691.753 Q3049.91 691.753 3047.17 693.376 Q3044.43 694.999 3044.43 698.914 Q3044.43 702.033 3046.47 703.879 Q3048.54 705.694 3052.07 705.694 Q3056.94 705.694 3059.87 702.256 Q3062.83 698.787 3062.83 693.058 L3062.83 691.753 L3057.01 691.753 M3068.69 689.334 L3068.69 709.672 L3062.83 709.672 L3062.83 704.261 Q3060.83 707.508 3057.83 709.067 Q3054.84 710.595 3050.51 710.595 Q3045.04 710.595 3041.79 707.54 Q3038.58 704.452 3038.58 699.296 Q3038.58 693.28 3042.59 690.225 Q3046.63 687.169 3054.62 687.169 L3062.83 687.169 L3062.83 686.596 Q3062.83 682.554 3060.16 680.358 Q3057.52 678.13 3052.71 678.13 Q3049.65 678.13 3046.76 678.862 Q3043.86 679.594 3041.19 681.058 L3041.19 675.647 Q3044.4 674.406 3047.43 673.801 Q3050.45 673.165 3053.31 673.165 Q3061.05 673.165 3064.87 677.175 Q3068.69 681.186 3068.69 689.334 Z" fill="#000000" fill-rule="evenodd" fill-opacity="1" /><path clip-path="url(#clip2200)" d="M 0 0 M3098.29 679.435 L3098.29 660.147 L3104.14 660.147 L3104.14 709.672 L3098.29 709.672 L3098.29 704.325 Q3096.44 707.508 3093.61 709.067 Q3090.81 710.595 3086.86 710.595 Q3080.4 710.595 3076.33 705.439 Q3072.28 700.283 3072.28 691.88 Q3072.28 683.477 3076.33 678.321 Q3080.4 673.165 3086.86 673.165 Q3090.81 673.165 3093.61 674.724 Q3096.44 676.252 3098.29 679.435 M3078.33 691.88 Q3078.33 698.341 3080.97 702.033 Q3083.65 705.694 3088.29 705.694 Q3092.94 705.694 3095.61 702.033 Q3098.29 698.341 3098.29 691.88 Q3098.29 685.419 3095.61 681.759 Q3092.94 678.066 3088.29 678.066 Q3083.65 678.066 3080.97 681.759 Q3078.33 685.419 3078.33 691.88 Z" fill="#000000" fill-rule="evenodd" fill-opacity="1" /></svg>
