<?xml version="1.0" encoding="utf-8"?>
<svg xmlns="http://www.w3.org/2000/svg" xmlns:xlink="http://www.w3.org/1999/xlink" width="800" height="600" viewBox="0 0 3200 2400">
<defs>
  <clipPath id="clip1000">
    <rect x="0" y="0" width="3200" height="2400"/>
  </clipPath>
</defs>
<path clip-path="url(#clip1000)" d="
M0 2400 L3200 2400 L3200 0 L0 0  Z
  " fill="#ffffff" fill-rule="evenodd" fill-opacity="1"/>
<defs>
  <clipPath id="clip1001">
    <rect x="640" y="0" width="2241" height="2241"/>
  </clipPath>
</defs>
<path clip-path="url(#clip1000)" d="
M239.663 2204.92 L2617.92 2204.92 L2617.92 131.032 L239.663 131.032  Z
  " fill="#ffffff" fill-rule="evenodd" fill-opacity="1"/>
<defs>
  <clipPath id="clip1002">
    <rect x="239" y="131" width="2379" height="2075"/>
  </clipPath>
</defs>
<polyline clip-path="url(#clip1002)" style="stroke:#000000; stroke-width:2; stroke-opacity:0.1; fill:none" points="
  306.972,2204.92 306.972,131.032 
  "/>
<polyline clip-path="url(#clip1002)" style="stroke:#000000; stroke-width:2; stroke-opacity:0.1; fill:none" points="
  755.7,2204.92 755.7,131.032 
  "/>
<polyline clip-path="url(#clip1002)" style="stroke:#000000; stroke-width:2; stroke-opacity:0.1; fill:none" points="
  1204.43,2204.92 1204.43,131.032 
  "/>
<polyline clip-path="url(#clip1002)" style="stroke:#000000; stroke-width:2; stroke-opacity:0.1; fill:none" points="
  1653.16,2204.92 1653.16,131.032 
  "/>
<polyline clip-path="url(#clip1002)" style="stroke:#000000; stroke-width:2; stroke-opacity:0.1; fill:none" points="
  2101.89,2204.92 2101.89,131.032 
  "/>
<polyline clip-path="url(#clip1002)" style="stroke:#000000; stroke-width:2; stroke-opacity:0.1; fill:none" points="
  2550.61,2204.92 2550.61,131.032 
  "/>
<polyline clip-path="url(#clip1002)" style="stroke:#000000; stroke-width:2; stroke-opacity:0.1; fill:none" points="
  239.663,1988.96 2617.92,1988.96 
  "/>
<polyline clip-path="url(#clip1002)" style="stroke:#000000; stroke-width:2; stroke-opacity:0.1; fill:none" points="
  239.663,1661.8 2617.92,1661.8 
  "/>
<polyline clip-path="url(#clip1002)" style="stroke:#000000; stroke-width:2; stroke-opacity:0.1; fill:none" points="
  239.663,1334.65 2617.92,1334.65 
  "/>
<polyline clip-path="url(#clip1002)" style="stroke:#000000; stroke-width:2; stroke-opacity:0.1; fill:none" points="
  239.663,1007.5 2617.92,1007.5 
  "/>
<polyline clip-path="url(#clip1002)" style="stroke:#000000; stroke-width:2; stroke-opacity:0.1; fill:none" points="
  239.663,680.353 2617.92,680.353 
  "/>
<polyline clip-path="url(#clip1002)" style="stroke:#000000; stroke-width:2; stroke-opacity:0.1; fill:none" points="
  239.663,353.203 2617.92,353.203 
  "/>
<polyline clip-path="url(#clip1000)" style="stroke:#000000; stroke-width:4; stroke-opacity:1; fill:none" points="
  239.663,2204.92 2617.92,2204.92 
  "/>
<polyline clip-path="url(#clip1000)" style="stroke:#000000; stroke-width:4; stroke-opacity:1; fill:none" points="
  239.663,2204.92 239.663,131.032 
  "/>
<polyline clip-path="url(#clip1000)" style="stroke:#000000; stroke-width:4; stroke-opacity:1; fill:none" points="
  306.972,2204.92 306.972,2180.03 
  "/>
<polyline clip-path="url(#clip1000)" style="stroke:#000000; stroke-width:4; stroke-opacity:1; fill:none" points="
  755.7,2204.92 755.7,2180.03 
  "/>
<polyline clip-path="url(#clip1000)" style="stroke:#000000; stroke-width:4; stroke-opacity:1; fill:none" points="
  1204.43,2204.92 1204.43,2180.03 
  "/>
<polyline clip-path="url(#clip1000)" style="stroke:#000000; stroke-width:4; stroke-opacity:1; fill:none" points="
  1653.16,2204.92 1653.16,2180.03 
  "/>
<polyline clip-path="url(#clip1000)" style="stroke:#000000; stroke-width:4; stroke-opacity:1; fill:none" points="
  2101.89,2204.92 2101.89,2180.03 
  "/>
<polyline clip-path="url(#clip1000)" style="stroke:#000000; stroke-width:4; stroke-opacity:1; fill:none" points="
  2550.61,2204.92 2550.61,2180.03 
  "/>
<polyline clip-path="url(#clip1000)" style="stroke:#000000; stroke-width:4; stroke-opacity:1; fill:none" points="
  239.663,1988.96 268.202,1988.96 
  "/>
<polyline clip-path="url(#clip1000)" style="stroke:#000000; stroke-width:4; stroke-opacity:1; fill:none" points="
  239.663,1661.8 268.202,1661.8 
  "/>
<polyline clip-path="url(#clip1000)" style="stroke:#000000; stroke-width:4; stroke-opacity:1; fill:none" points="
  239.663,1334.65 268.202,1334.65 
  "/>
<polyline clip-path="url(#clip1000)" style="stroke:#000000; stroke-width:4; stroke-opacity:1; fill:none" points="
  239.663,1007.5 268.202,1007.5 
  "/>
<polyline clip-path="url(#clip1000)" style="stroke:#000000; stroke-width:4; stroke-opacity:1; fill:none" points="
  239.663,680.353 268.202,680.353 
  "/>
<polyline clip-path="url(#clip1000)" style="stroke:#000000; stroke-width:4; stroke-opacity:1; fill:none" points="
  239.663,353.203 268.202,353.203 
  "/>
<path clip-path="url(#clip1000)" d="M 0 0 M306.972 2230.91 Q303.361 2230.91 301.532 2234.48 Q299.727 2238.02 299.727 2245.15 Q299.727 2252.25 301.532 2255.82 Q303.361 2259.36 306.972 2259.36 Q310.606 2259.36 312.412 2255.82 Q314.24 2252.25 314.24 2245.15 Q314.24 2238.02 312.412 2234.48 Q310.606 2230.91 306.972 2230.91 M306.972 2227.21 Q312.782 2227.21 315.838 2231.81 Q318.916 2236.4 318.916 2245.15 Q318.916 2253.87 315.838 2258.48 Q312.782 2263.06 306.972 2263.06 Q301.162 2263.06 298.083 2258.48 Q295.028 2253.87 295.028 2245.15 Q295.028 2236.4 298.083 2231.81 Q301.162 2227.21 306.972 2227.21 Z" fill="#000000" fill-rule="evenodd" fill-opacity="1" /><path clip-path="url(#clip1000)" d="M 0 0 M746.082 2258.46 L753.721 2258.46 L753.721 2232.09 L745.411 2233.76 L745.411 2229.5 L753.675 2227.83 L758.351 2227.83 L758.351 2258.46 L765.99 2258.46 L765.99 2262.39 L746.082 2262.39 L746.082 2258.46 Z" fill="#000000" fill-rule="evenodd" fill-opacity="1" /><path clip-path="url(#clip1000)" d="M 0 0 M1199.08 2258.46 L1215.4 2258.46 L1215.4 2262.39 L1193.46 2262.39 L1193.46 2258.46 Q1196.12 2255.7 1200.7 2251.07 Q1205.31 2246.42 1206.49 2245.08 Q1208.73 2242.55 1209.61 2240.82 Q1210.52 2239.06 1210.52 2237.37 Q1210.52 2234.61 1208.57 2232.88 Q1206.65 2231.14 1203.55 2231.14 Q1201.35 2231.14 1198.9 2231.91 Q1196.47 2232.67 1193.69 2234.22 L1193.69 2229.5 Q1196.51 2228.36 1198.97 2227.79 Q1201.42 2227.21 1203.46 2227.21 Q1208.83 2227.21 1212.02 2229.89 Q1215.22 2232.58 1215.22 2237.07 Q1215.22 2239.2 1214.41 2241.12 Q1213.62 2243.02 1211.51 2245.61 Q1210.93 2246.28 1207.83 2249.5 Q1204.73 2252.69 1199.08 2258.46 Z" fill="#000000" fill-rule="evenodd" fill-opacity="1" /><path clip-path="url(#clip1000)" d="M 0 0 M1657.4 2243.76 Q1660.76 2244.48 1662.64 2246.74 Q1664.53 2249.01 1664.53 2252.35 Q1664.53 2257.46 1661.02 2260.26 Q1657.5 2263.06 1651.02 2263.06 Q1648.84 2263.06 1646.53 2262.62 Q1644.23 2262.21 1641.78 2261.35 L1641.78 2256.84 Q1643.72 2257.97 1646.04 2258.55 Q1648.35 2259.13 1650.88 2259.13 Q1655.28 2259.13 1657.57 2257.39 Q1659.88 2255.66 1659.88 2252.35 Q1659.88 2249.29 1657.73 2247.58 Q1655.6 2245.84 1651.78 2245.84 L1647.75 2245.84 L1647.75 2242 L1651.97 2242 Q1655.41 2242 1657.24 2240.63 Q1659.07 2239.24 1659.07 2236.65 Q1659.07 2233.99 1657.17 2232.58 Q1655.3 2231.14 1651.78 2231.14 Q1649.86 2231.14 1647.66 2231.56 Q1645.46 2231.98 1642.82 2232.85 L1642.82 2228.69 Q1645.48 2227.95 1647.8 2227.58 Q1650.14 2227.21 1652.2 2227.21 Q1657.52 2227.21 1660.62 2229.64 Q1663.72 2232.04 1663.72 2236.17 Q1663.72 2239.04 1662.08 2241.03 Q1660.44 2242.99 1657.4 2243.76 Z" fill="#000000" fill-rule="evenodd" fill-opacity="1" /><path clip-path="url(#clip1000)" d="M 0 0 M2104.89 2231.91 L2093.09 2250.35 L2104.89 2250.35 L2104.89 2231.91 M2103.67 2227.83 L2109.55 2227.83 L2109.55 2250.35 L2114.48 2250.35 L2114.48 2254.24 L2109.55 2254.24 L2109.55 2262.39 L2104.89 2262.39 L2104.89 2254.24 L2089.29 2254.24 L2089.29 2249.73 L2103.67 2227.83 Z" fill="#000000" fill-rule="evenodd" fill-opacity="1" /><path clip-path="url(#clip1000)" d="M 0 0 M2540.89 2227.83 L2559.25 2227.83 L2559.25 2231.77 L2545.17 2231.77 L2545.17 2240.24 Q2546.19 2239.89 2547.21 2239.73 Q2548.23 2239.54 2549.25 2239.54 Q2555.04 2239.54 2558.42 2242.72 Q2561.79 2245.89 2561.79 2251.3 Q2561.79 2256.88 2558.32 2259.98 Q2554.85 2263.06 2548.53 2263.06 Q2546.35 2263.06 2544.09 2262.69 Q2541.84 2262.32 2539.43 2261.58 L2539.43 2256.88 Q2541.52 2258.02 2543.74 2258.57 Q2545.96 2259.13 2548.44 2259.13 Q2552.44 2259.13 2554.78 2257.02 Q2557.12 2254.92 2557.12 2251.3 Q2557.12 2247.69 2554.78 2245.59 Q2552.44 2243.48 2548.44 2243.48 Q2546.56 2243.48 2544.69 2243.9 Q2542.84 2244.31 2540.89 2245.19 L2540.89 2227.83 Z" fill="#000000" fill-rule="evenodd" fill-opacity="1" /><path clip-path="url(#clip1000)" d="M 0 0 M132.2 1991.35 L144.677 1991.35 L144.677 1995.15 L132.2 1995.15 L132.2 1991.35 Z" fill="#000000" fill-rule="evenodd" fill-opacity="1" /><path clip-path="url(#clip1000)" d="M 0 0 M159.746 1974.75 Q156.135 1974.75 154.307 1978.32 Q152.501 1981.86 152.501 1988.99 Q152.501 1996.1 154.307 1999.66 Q156.135 2003.2 159.746 2003.2 Q163.381 2003.2 165.186 1999.66 Q167.015 1996.1 167.015 1988.99 Q167.015 1981.86 165.186 1978.32 Q163.381 1974.75 159.746 1974.75 M159.746 1971.05 Q165.556 1971.05 168.612 1975.66 Q171.691 1980.24 171.691 1988.99 Q171.691 1997.72 168.612 2002.32 Q165.556 2006.91 159.746 2006.91 Q153.936 2006.91 150.857 2002.32 Q147.802 1997.72 147.802 1988.99 Q147.802 1980.24 150.857 1975.66 Q153.936 1971.05 159.746 1971.05 Z" fill="#000000" fill-rule="evenodd" fill-opacity="1" /><path clip-path="url(#clip1000)" d="M 0 0 M176.76 2000.36 L181.644 2000.36 L181.644 2006.24 L176.76 2006.24 L176.76 2000.36 Z" fill="#000000" fill-rule="evenodd" fill-opacity="1" /><path clip-path="url(#clip1000)" d="M 0 0 M186.76 1971.68 L205.116 1971.68 L205.116 1975.61 L191.042 1975.61 L191.042 1984.08 Q192.061 1983.74 193.079 1983.57 Q194.098 1983.39 195.116 1983.39 Q200.903 1983.39 204.283 1986.56 Q207.663 1989.73 207.663 1995.15 Q207.663 2000.73 204.191 2003.83 Q200.718 2006.91 194.399 2006.91 Q192.223 2006.91 189.954 2006.54 Q187.709 2006.17 185.302 2005.43 L185.302 2000.73 Q187.385 2001.86 189.607 2002.42 Q191.829 2002.97 194.306 2002.97 Q198.311 2002.97 200.649 2000.87 Q202.987 1998.76 202.987 1995.15 Q202.987 1991.54 200.649 1989.43 Q198.311 1987.32 194.306 1987.32 Q192.431 1987.32 190.556 1987.74 Q188.704 1988.16 186.76 1989.04 L186.76 1971.68 Z" fill="#000000" fill-rule="evenodd" fill-opacity="1" /><path clip-path="url(#clip1000)" d="M 0 0 M158.751 1647.6 Q155.14 1647.6 153.311 1651.17 Q151.506 1654.71 151.506 1661.84 Q151.506 1668.95 153.311 1672.51 Q155.14 1676.05 158.751 1676.05 Q162.385 1676.05 164.191 1672.51 Q166.019 1668.95 166.019 1661.84 Q166.019 1654.71 164.191 1651.17 Q162.385 1647.6 158.751 1647.6 M158.751 1643.9 Q164.561 1643.9 167.617 1648.51 Q170.695 1653.09 170.695 1661.84 Q170.695 1670.57 167.617 1675.17 Q164.561 1679.76 158.751 1679.76 Q152.941 1679.76 149.862 1675.17 Q146.807 1670.57 146.807 1661.84 Q146.807 1653.09 149.862 1648.51 Q152.941 1643.9 158.751 1643.9 Z" fill="#000000" fill-rule="evenodd" fill-opacity="1" /><path clip-path="url(#clip1000)" d="M 0 0 M175.765 1673.21 L180.649 1673.21 L180.649 1679.08 L175.765 1679.08 L175.765 1673.21 Z" fill="#000000" fill-rule="evenodd" fill-opacity="1" /><path clip-path="url(#clip1000)" d="M 0 0 M195.718 1647.6 Q192.107 1647.6 190.279 1651.17 Q188.473 1654.71 188.473 1661.84 Q188.473 1668.95 190.279 1672.51 Q192.107 1676.05 195.718 1676.05 Q199.353 1676.05 201.158 1672.51 Q202.987 1668.95 202.987 1661.84 Q202.987 1654.71 201.158 1651.17 Q199.353 1647.6 195.718 1647.6 M195.718 1643.9 Q201.528 1643.9 204.584 1648.51 Q207.663 1653.09 207.663 1661.84 Q207.663 1670.57 204.584 1675.17 Q201.528 1679.76 195.718 1679.76 Q189.908 1679.76 186.829 1675.17 Q183.774 1670.57 183.774 1661.84 Q183.774 1653.09 186.829 1648.51 Q189.908 1643.9 195.718 1643.9 Z" fill="#000000" fill-rule="evenodd" fill-opacity="1" /><path clip-path="url(#clip1000)" d="M 0 0 M159.746 1320.45 Q156.135 1320.45 154.307 1324.02 Q152.501 1327.56 152.501 1334.69 Q152.501 1341.8 154.307 1345.36 Q156.135 1348.9 159.746 1348.9 Q163.381 1348.9 165.186 1345.36 Q167.015 1341.8 167.015 1334.69 Q167.015 1327.56 165.186 1324.02 Q163.381 1320.45 159.746 1320.45 M159.746 1316.75 Q165.556 1316.75 168.612 1321.36 Q171.691 1325.94 171.691 1334.69 Q171.691 1343.42 168.612 1348.02 Q165.556 1352.61 159.746 1352.61 Q153.936 1352.61 150.857 1348.02 Q147.802 1343.42 147.802 1334.69 Q147.802 1325.94 150.857 1321.36 Q153.936 1316.75 159.746 1316.75 Z" fill="#000000" fill-rule="evenodd" fill-opacity="1" /><path clip-path="url(#clip1000)" d="M 0 0 M176.76 1346.05 L181.644 1346.05 L181.644 1351.93 L176.76 1351.93 L176.76 1346.05 Z" fill="#000000" fill-rule="evenodd" fill-opacity="1" /><path clip-path="url(#clip1000)" d="M 0 0 M186.76 1317.37 L205.116 1317.37 L205.116 1321.31 L191.042 1321.31 L191.042 1329.78 Q192.061 1329.43 193.079 1329.27 Q194.098 1329.09 195.116 1329.09 Q200.903 1329.09 204.283 1332.26 Q207.663 1335.43 207.663 1340.85 Q207.663 1346.43 204.191 1349.53 Q200.718 1352.61 194.399 1352.61 Q192.223 1352.61 189.954 1352.24 Q187.709 1351.87 185.302 1351.12 L185.302 1346.43 Q187.385 1347.56 189.607 1348.12 Q191.829 1348.67 194.306 1348.67 Q198.311 1348.67 200.649 1346.56 Q202.987 1344.46 202.987 1340.85 Q202.987 1337.24 200.649 1335.13 Q198.311 1333.02 194.306 1333.02 Q192.431 1333.02 190.556 1333.44 Q188.704 1333.86 186.76 1334.74 L186.76 1317.37 Z" fill="#000000" fill-rule="evenodd" fill-opacity="1" /><path clip-path="url(#clip1000)" d="M 0 0 M150.788 1020.85 L158.427 1020.85 L158.427 994.483 L150.117 996.15 L150.117 991.891 L158.381 990.224 L163.056 990.224 L163.056 1020.85 L170.695 1020.85 L170.695 1024.78 L150.788 1024.78 L150.788 1020.85 Z" fill="#000000" fill-rule="evenodd" fill-opacity="1" /><path clip-path="url(#clip1000)" d="M 0 0 M175.765 1018.9 L180.649 1018.9 L180.649 1024.78 L175.765 1024.78 L175.765 1018.9 Z" fill="#000000" fill-rule="evenodd" fill-opacity="1" /><path clip-path="url(#clip1000)" d="M 0 0 M195.718 993.303 Q192.107 993.303 190.279 996.867 Q188.473 1000.41 188.473 1007.54 Q188.473 1014.65 190.279 1018.21 Q192.107 1021.75 195.718 1021.75 Q199.353 1021.75 201.158 1018.21 Q202.987 1014.65 202.987 1007.54 Q202.987 1000.41 201.158 996.867 Q199.353 993.303 195.718 993.303 M195.718 989.599 Q201.528 989.599 204.584 994.205 Q207.663 998.789 207.663 1007.54 Q207.663 1016.27 204.584 1020.87 Q201.528 1025.46 195.718 1025.46 Q189.908 1025.46 186.829 1020.87 Q183.774 1016.27 183.774 1007.54 Q183.774 998.789 186.829 994.205 Q189.908 989.599 195.718 989.599 Z" fill="#000000" fill-rule="evenodd" fill-opacity="1" /><path clip-path="url(#clip1000)" d="M 0 0 M151.783 693.698 L159.422 693.698 L159.422 667.333 L151.112 668.999 L151.112 664.74 L159.376 663.073 L164.052 663.073 L164.052 693.698 L171.691 693.698 L171.691 697.633 L151.783 697.633 L151.783 693.698 Z" fill="#000000" fill-rule="evenodd" fill-opacity="1" /><path clip-path="url(#clip1000)" d="M 0 0 M176.76 691.754 L181.644 691.754 L181.644 697.633 L176.76 697.633 L176.76 691.754 Z" fill="#000000" fill-rule="evenodd" fill-opacity="1" /><path clip-path="url(#clip1000)" d="M 0 0 M186.76 663.073 L205.116 663.073 L205.116 667.009 L191.042 667.009 L191.042 675.481 Q192.061 675.134 193.079 674.972 Q194.098 674.786 195.116 674.786 Q200.903 674.786 204.283 677.958 Q207.663 681.129 207.663 686.546 Q207.663 692.124 204.191 695.226 Q200.718 698.305 194.399 698.305 Q192.223 698.305 189.954 697.934 Q187.709 697.564 185.302 696.823 L185.302 692.124 Q187.385 693.258 189.607 693.814 Q191.829 694.37 194.306 694.37 Q198.311 694.37 200.649 692.263 Q202.987 690.157 202.987 686.546 Q202.987 682.934 200.649 680.828 Q198.311 678.721 194.306 678.721 Q192.431 678.721 190.556 679.138 Q188.704 679.555 186.76 680.434 L186.76 663.073 Z" fill="#000000" fill-rule="evenodd" fill-opacity="1" /><path clip-path="url(#clip1000)" d="M 0 0 M154.376 366.548 L170.695 366.548 L170.695 370.483 L148.751 370.483 L148.751 366.548 Q151.413 363.793 155.996 359.164 Q160.603 354.511 161.783 353.168 Q164.029 350.645 164.908 348.909 Q165.811 347.15 165.811 345.46 Q165.811 342.705 163.867 340.969 Q161.945 339.233 158.844 339.233 Q156.644 339.233 154.191 339.997 Q151.76 340.761 148.982 342.312 L148.982 337.59 Q151.807 336.455 154.26 335.877 Q156.714 335.298 158.751 335.298 Q164.121 335.298 167.316 337.983 Q170.51 340.668 170.51 345.159 Q170.51 347.289 169.7 349.21 Q168.913 351.108 166.806 353.701 Q166.228 354.372 163.126 357.589 Q160.024 360.784 154.376 366.548 Z" fill="#000000" fill-rule="evenodd" fill-opacity="1" /><path clip-path="url(#clip1000)" d="M 0 0 M175.765 364.603 L180.649 364.603 L180.649 370.483 L175.765 370.483 L175.765 364.603 Z" fill="#000000" fill-rule="evenodd" fill-opacity="1" /><path clip-path="url(#clip1000)" d="M 0 0 M195.718 339.002 Q192.107 339.002 190.279 342.566 Q188.473 346.108 188.473 353.238 Q188.473 360.344 190.279 363.909 Q192.107 367.451 195.718 367.451 Q199.353 367.451 201.158 363.909 Q202.987 360.344 202.987 353.238 Q202.987 346.108 201.158 342.566 Q199.353 339.002 195.718 339.002 M195.718 335.298 Q201.528 335.298 204.584 339.904 Q207.663 344.488 207.663 353.238 Q207.663 361.964 204.584 366.571 Q201.528 371.154 195.718 371.154 Q189.908 371.154 186.829 366.571 Q183.774 361.964 183.774 353.238 Q183.774 344.488 186.829 339.904 Q189.908 335.298 195.718 335.298 Z" fill="#000000" fill-rule="evenodd" fill-opacity="1" /><path clip-path="url(#clip1000)" d="M 0 0 M603.685 12.096 L611.867 12.096 L611.867 36.8875 L641.601 36.8875 L641.601 12.096 L649.784 12.096 L649.784 72.576 L641.601 72.576 L641.601 43.7741 L611.867 43.7741 L611.867 72.576 L603.685 72.576 L603.685 12.096 Z" fill="#000000" fill-rule="evenodd" fill-opacity="1" /><path clip-path="url(#clip1000)" d="M 0 0 M675.183 32.4315 Q669.188 32.4315 665.704 37.1306 Q662.22 41.7891 662.22 49.9314 Q662.22 58.0738 665.663 62.7728 Q669.147 67.4314 675.183 67.4314 Q681.138 67.4314 684.622 62.7323 Q688.105 58.0333 688.105 49.9314 Q688.105 41.8701 684.622 37.1711 Q681.138 32.4315 675.183 32.4315 M675.183 26.1121 Q684.905 26.1121 690.455 32.4315 Q696.005 38.7509 696.005 49.9314 Q696.005 61.0714 690.455 67.4314 Q684.905 73.7508 675.183 73.7508 Q665.42 73.7508 659.871 67.4314 Q654.361 61.0714 654.361 49.9314 Q654.361 38.7509 659.871 32.4315 Q665.42 26.1121 675.183 26.1121 Z" fill="#000000" fill-rule="evenodd" fill-opacity="1" /><path clip-path="url(#clip1000)" d="M 0 0 M698.476 27.2059 L706.375 27.2059 L720.553 65.2844 L734.731 27.2059 L742.631 27.2059 L725.617 72.576 L715.49 72.576 L698.476 27.2059 Z" fill="#000000" fill-rule="evenodd" fill-opacity="1" /><path clip-path="url(#clip1000)" d="M 0 0 M789.257 48.0275 L789.257 51.6733 L754.986 51.6733 Q755.472 59.3701 759.604 63.421 Q763.776 67.4314 771.19 67.4314 Q775.483 67.4314 779.494 66.3781 Q783.545 65.3249 787.515 63.2184 L787.515 70.267 Q783.504 71.9684 779.291 72.8596 Q775.078 73.7508 770.744 73.7508 Q759.887 73.7508 753.528 67.4314 Q747.208 61.1119 747.208 50.3365 Q747.208 39.1965 753.203 32.6746 Q759.239 26.1121 769.448 26.1121 Q778.603 26.1121 783.909 32.0264 Q789.257 37.9003 789.257 48.0275 M781.803 45.84 Q781.722 39.7232 778.36 36.0774 Q775.038 32.4315 769.529 32.4315 Q763.29 32.4315 759.523 35.9558 Q755.796 39.4801 755.229 45.8805 L781.803 45.84 Z" fill="#000000" fill-rule="evenodd" fill-opacity="1" /><path clip-path="url(#clip1000)" d="M 0 0 M823.365 34.1734 Q822.109 33.4443 820.611 33.1202 Q819.152 32.7556 817.37 32.7556 Q811.05 32.7556 807.648 36.8875 Q804.285 40.9789 804.285 48.6757 L804.285 72.576 L796.791 72.576 L796.791 27.2059 L804.285 27.2059 L804.285 34.2544 Q806.635 30.1225 810.402 28.1376 Q814.17 26.1121 819.557 26.1121 Q820.327 26.1121 821.259 26.2337 Q822.19 26.3147 823.325 26.5172 L823.365 34.1734 Z" fill="#000000" fill-rule="evenodd" fill-opacity="1" /><path clip-path="url(#clip1000)" d="M 0 0 M831.183 27.2059 L838.637 27.2059 L838.637 72.576 L831.183 72.576 L831.183 27.2059 M831.183 9.54393 L838.637 9.54393 L838.637 18.9825 L831.183 18.9825 L831.183 9.54393 Z" fill="#000000" fill-rule="evenodd" fill-opacity="1" /><path clip-path="url(#clip1000)" d="M 0 0 M884.169 45.1919 L884.169 72.576 L876.716 72.576 L876.716 45.4349 Q876.716 38.994 874.204 35.7938 Q871.692 32.5936 866.669 32.5936 Q860.633 32.5936 857.15 36.4419 Q853.666 40.2903 853.666 46.9338 L853.666 72.576 L846.172 72.576 L846.172 27.2059 L853.666 27.2059 L853.666 34.2544 Q856.34 30.163 859.945 28.1376 Q863.591 26.1121 868.33 26.1121 Q876.148 26.1121 880.159 30.9732 Q884.169 35.7938 884.169 45.1919 Z" fill="#000000" fill-rule="evenodd" fill-opacity="1" /><path clip-path="url(#clip1000)" d="M 0 0 M921.843 49.3643 Q921.843 41.2625 918.48 36.8065 Q915.159 32.3505 909.123 32.3505 Q903.127 32.3505 899.765 36.8065 Q896.443 41.2625 896.443 49.3643 Q896.443 57.4256 899.765 61.8816 Q903.127 66.3376 909.123 66.3376 Q915.159 66.3376 918.48 61.8816 Q921.843 57.4256 921.843 49.3643 M929.296 66.9452 Q929.296 78.5308 924.152 84.1616 Q919.007 89.8329 908.394 89.8329 Q904.464 89.8329 900.98 89.2252 Q897.497 88.6581 894.215 87.4428 L894.215 80.1917 Q897.497 81.9741 900.697 82.8248 Q903.897 83.6755 907.219 83.6755 Q914.551 83.6755 918.197 79.8271 Q921.843 76.0193 921.843 68.282 L921.843 64.5957 Q919.534 68.6061 915.928 70.5911 Q912.323 72.576 907.3 72.576 Q898.955 72.576 893.851 66.2161 Q888.747 59.8562 888.747 49.3643 Q888.747 38.832 893.851 32.472 Q898.955 26.1121 907.3 26.1121 Q912.323 26.1121 915.928 28.0971 Q919.534 30.082 921.843 34.0924 L921.843 27.2059 L929.296 27.2059 L929.296 66.9452 Z" fill="#000000" fill-rule="evenodd" fill-opacity="1" /><path clip-path="url(#clip1000)" d="M 0 0 M959.151 27.2059 L966.605 27.2059 L975.922 62.6108 L985.199 27.2059 L993.989 27.2059 L1003.31 62.6108 L1012.58 27.2059 L1020.04 27.2059 L1008.17 72.576 L999.377 72.576 L989.614 35.3887 L979.811 72.576 L971.021 72.576 L959.151 27.2059 Z" fill="#000000" fill-rule="evenodd" fill-opacity="1" /><path clip-path="url(#clip1000)" d="M 0 0 M1027.85 27.2059 L1035.31 27.2059 L1035.31 72.576 L1027.85 72.576 L1027.85 27.2059 M1027.85 9.54393 L1035.31 9.54393 L1035.31 18.9825 L1027.85 18.9825 L1027.85 9.54393 Z" fill="#000000" fill-rule="evenodd" fill-opacity="1" /><path clip-path="url(#clip1000)" d="M 0 0 M1050.5 14.324 L1050.5 27.2059 L1065.85 27.2059 L1065.85 32.9987 L1050.5 32.9987 L1050.5 57.6282 Q1050.5 63.1779 1052 64.7578 Q1053.54 66.3376 1058.2 66.3376 L1065.85 66.3376 L1065.85 72.576 L1058.2 72.576 Q1049.57 72.576 1046.29 69.3758 Q1043.01 66.1351 1043.01 57.6282 L1043.01 32.9987 L1037.54 32.9987 L1037.54 27.2059 L1043.01 27.2059 L1043.01 14.324 L1050.5 14.324 Z" fill="#000000" fill-rule="evenodd" fill-opacity="1" /><path clip-path="url(#clip1000)" d="M 0 0 M1111.38 45.1919 L1111.38 72.576 L1103.93 72.576 L1103.93 45.4349 Q1103.93 38.994 1101.42 35.7938 Q1098.91 32.5936 1093.88 32.5936 Q1087.85 32.5936 1084.36 36.4419 Q1080.88 40.2903 1080.88 46.9338 L1080.88 72.576 L1073.39 72.576 L1073.39 9.54393 L1080.88 9.54393 L1080.88 34.2544 Q1083.55 30.163 1087.16 28.1376 Q1090.81 26.1121 1095.55 26.1121 Q1103.36 26.1121 1107.37 30.9732 Q1111.38 35.7938 1111.38 45.1919 Z" fill="#000000" fill-rule="evenodd" fill-opacity="1" /><path clip-path="url(#clip1000)" d="M 0 0 M1165.14 39.075 Q1159.63 39.075 1156.39 42.8424 Q1153.19 46.6097 1153.19 53.1722 Q1153.19 59.6941 1156.39 63.502 Q1159.63 67.2693 1165.14 67.2693 Q1170.65 67.2693 1173.85 63.502 Q1177.09 59.6941 1177.09 53.1722 Q1177.09 46.6097 1173.85 42.8424 Q1170.65 39.075 1165.14 39.075 M1181.38 13.4328 L1181.38 20.8865 Q1178.31 19.4281 1175.15 18.6585 Q1172.03 17.8888 1168.95 17.8888 Q1160.85 17.8888 1156.55 23.3575 Q1152.3 28.8262 1151.69 39.8852 Q1154.08 36.3609 1157.69 34.4975 Q1161.29 32.5936 1165.63 32.5936 Q1174.74 32.5936 1180.01 38.1433 Q1185.31 43.6525 1185.31 53.1722 Q1185.31 62.4892 1179.8 68.12 Q1174.29 73.7508 1165.14 73.7508 Q1154.65 73.7508 1149.1 65.73 Q1143.55 57.6687 1143.55 42.3968 Q1143.55 28.0566 1150.35 19.5497 Q1157.16 11.0023 1168.62 11.0023 Q1171.7 11.0023 1174.82 11.6099 Q1177.98 12.2175 1181.38 13.4328 Z" fill="#000000" fill-rule="evenodd" fill-opacity="1" /><path clip-path="url(#clip1000)" d="M 0 0 M1244.38 17.6457 Q1235.46 17.6457 1230.2 24.2892 Q1224.97 30.9327 1224.97 42.3968 Q1224.97 53.8203 1230.2 60.4638 Q1235.46 67.1073 1244.38 67.1073 Q1253.29 67.1073 1258.47 60.4638 Q1263.7 53.8203 1263.7 42.3968 Q1263.7 30.9327 1258.47 24.2892 Q1253.29 17.6457 1244.38 17.6457 M1255.84 71.4823 L1266.62 83.2704 L1256.73 83.2704 L1247.78 73.5887 Q1246.44 73.6697 1245.71 73.7103 Q1245.02 73.7508 1244.38 73.7508 Q1231.62 73.7508 1223.96 65.2439 Q1216.34 56.6965 1216.34 42.3968 Q1216.34 28.0566 1223.96 19.5497 Q1231.62 11.0023 1244.38 11.0023 Q1257.1 11.0023 1264.71 19.5497 Q1272.33 28.0566 1272.33 42.3968 Q1272.33 52.9291 1268.07 60.4233 Q1263.86 67.9175 1255.84 71.4823 Z" fill="#000000" fill-rule="evenodd" fill-opacity="1" /><path clip-path="url(#clip1000)" d="M 0 0 M1279.38 54.671 L1279.38 27.2059 L1286.83 27.2059 L1286.83 54.3874 Q1286.83 60.8284 1289.34 64.0691 Q1291.85 67.2693 1296.88 67.2693 Q1302.91 67.2693 1306.39 63.421 Q1309.92 59.5726 1309.92 52.9291 L1309.92 27.2059 L1317.37 27.2059 L1317.37 72.576 L1309.92 72.576 L1309.92 65.6084 Q1307.21 69.7404 1303.6 71.7658 Q1300.04 73.7508 1295.3 73.7508 Q1287.48 73.7508 1283.43 68.8897 Q1279.38 64.0286 1279.38 54.671 M1298.13 26.1121 L1298.13 26.1121 Z" fill="#000000" fill-rule="evenodd" fill-opacity="1" /><path clip-path="url(#clip1000)" d="M 0 0 M1345.81 49.7694 Q1336.78 49.7694 1333.29 51.8354 Q1329.81 53.9013 1329.81 58.8839 Q1329.81 62.8538 1332.4 65.2034 Q1335.03 67.5124 1339.53 67.5124 Q1345.73 67.5124 1349.46 63.1374 Q1353.22 58.7219 1353.22 51.4303 L1353.22 49.7694 L1345.81 49.7694 M1360.68 46.6907 L1360.68 72.576 L1353.22 72.576 L1353.22 65.6895 Q1350.67 69.8214 1346.86 71.8063 Q1343.06 73.7508 1337.55 73.7508 Q1330.58 73.7508 1326.45 69.8619 Q1322.36 65.9325 1322.36 59.3701 Q1322.36 51.7138 1327.46 47.825 Q1332.6 43.9361 1342.77 43.9361 L1353.22 43.9361 L1353.22 43.2069 Q1353.22 38.0623 1349.82 35.2672 Q1346.46 32.4315 1340.34 32.4315 Q1336.45 32.4315 1332.77 33.3632 Q1329.08 34.295 1325.68 36.1584 L1325.68 29.2718 Q1329.77 27.692 1333.62 26.9223 Q1337.47 26.1121 1341.11 26.1121 Q1350.95 26.1121 1355.82 31.2163 Q1360.68 36.3204 1360.68 46.6907 Z" fill="#000000" fill-rule="evenodd" fill-opacity="1" /><path clip-path="url(#clip1000)" d="M 0 0 M1398.35 34.0924 L1398.35 9.54393 L1405.8 9.54393 L1405.8 72.576 L1398.35 72.576 L1398.35 65.7705 Q1396 69.8214 1392.4 71.8063 Q1388.83 73.7508 1383.81 73.7508 Q1375.58 73.7508 1370.4 67.1883 Q1365.25 60.6258 1365.25 49.9314 Q1365.25 39.2371 1370.4 32.6746 Q1375.58 26.1121 1383.81 26.1121 Q1388.83 26.1121 1392.4 28.0971 Q1396 30.0415 1398.35 34.0924 M1372.95 49.9314 Q1372.95 58.1548 1376.31 62.8538 Q1379.72 67.5124 1385.63 67.5124 Q1391.54 67.5124 1394.95 62.8538 Q1398.35 58.1548 1398.35 49.9314 Q1398.35 41.7081 1394.95 37.0496 Q1391.54 32.3505 1385.63 32.3505 Q1379.72 32.3505 1376.31 37.0496 Q1372.95 41.7081 1372.95 49.9314 Z" fill="#000000" fill-rule="evenodd" fill-opacity="1" /><path clip-path="url(#clip1000)" d="M 0 0 M1439.91 34.1734 Q1438.66 33.4443 1437.16 33.1202 Q1435.7 32.7556 1433.92 32.7556 Q1427.6 32.7556 1424.2 36.8875 Q1420.83 40.9789 1420.83 48.6757 L1420.83 72.576 L1413.34 72.576 L1413.34 27.2059 L1420.83 27.2059 L1420.83 34.2544 Q1423.18 30.1225 1426.95 28.1376 Q1430.72 26.1121 1436.1 26.1121 Q1436.87 26.1121 1437.81 26.2337 Q1438.74 26.3147 1439.87 26.5172 L1439.91 34.1734 Z" fill="#000000" fill-rule="evenodd" fill-opacity="1" /><path clip-path="url(#clip1000)" d="M 0 0 M1463.49 32.4315 Q1457.49 32.4315 1454.01 37.1306 Q1450.53 41.7891 1450.53 49.9314 Q1450.53 58.0738 1453.97 62.7728 Q1457.45 67.4314 1463.49 67.4314 Q1469.44 67.4314 1472.93 62.7323 Q1476.41 58.0333 1476.41 49.9314 Q1476.41 41.8701 1472.93 37.1711 Q1469.44 32.4315 1463.49 32.4315 M1463.49 26.1121 Q1473.21 26.1121 1478.76 32.4315 Q1484.31 38.7509 1484.31 49.9314 Q1484.31 61.0714 1478.76 67.4314 Q1473.21 73.7508 1463.49 73.7508 Q1453.73 73.7508 1448.18 67.4314 Q1442.67 61.0714 1442.67 49.9314 Q1442.67 38.7509 1448.18 32.4315 Q1453.73 26.1121 1463.49 26.1121 Z" fill="#000000" fill-rule="evenodd" fill-opacity="1" /><path clip-path="url(#clip1000)" d="M 0 0 M1499.5 14.324 L1499.5 27.2059 L1514.85 27.2059 L1514.85 32.9987 L1499.5 32.9987 L1499.5 57.6282 Q1499.5 63.1779 1501 64.7578 Q1502.54 66.3376 1507.2 66.3376 L1514.85 66.3376 L1514.85 72.576 L1507.2 72.576 Q1498.57 72.576 1495.29 69.3758 Q1492.01 66.1351 1492.01 57.6282 L1492.01 32.9987 L1486.54 32.9987 L1486.54 27.2059 L1492.01 27.2059 L1492.01 14.324 L1499.5 14.324 Z" fill="#000000" fill-rule="evenodd" fill-opacity="1" /><path clip-path="url(#clip1000)" d="M 0 0 M1540.25 32.4315 Q1534.26 32.4315 1530.77 37.1306 Q1527.29 41.7891 1527.29 49.9314 Q1527.29 58.0738 1530.73 62.7728 Q1534.22 67.4314 1540.25 67.4314 Q1546.21 67.4314 1549.69 62.7323 Q1553.18 58.0333 1553.18 49.9314 Q1553.18 41.8701 1549.69 37.1711 Q1546.21 32.4315 1540.25 32.4315 M1540.25 26.1121 Q1549.98 26.1121 1555.53 32.4315 Q1561.08 38.7509 1561.08 49.9314 Q1561.08 61.0714 1555.53 67.4314 Q1549.98 73.7508 1540.25 73.7508 Q1530.49 73.7508 1524.94 67.4314 Q1519.43 61.0714 1519.43 49.9314 Q1519.43 38.7509 1524.94 32.4315 Q1530.49 26.1121 1540.25 26.1121 Z" fill="#000000" fill-rule="evenodd" fill-opacity="1" /><path clip-path="url(#clip1000)" d="M 0 0 M1595.18 34.1734 Q1593.93 33.4443 1592.43 33.1202 Q1590.97 32.7556 1589.19 32.7556 Q1582.87 32.7556 1579.47 36.8875 Q1576.1 40.9789 1576.1 48.6757 L1576.1 72.576 L1568.61 72.576 L1568.61 27.2059 L1576.1 27.2059 L1576.1 34.2544 Q1578.45 30.1225 1582.22 28.1376 Q1585.99 26.1121 1591.38 26.1121 Q1592.15 26.1121 1593.08 26.2337 Q1594.01 26.3147 1595.14 26.5172 L1595.18 34.1734 Z" fill="#000000" fill-rule="evenodd" fill-opacity="1" /><path clip-path="url(#clip1000)" d="M 0 0 M1631.93 28.5427 L1631.93 35.5912 Q1628.77 33.9709 1625.36 33.1607 Q1621.96 32.3505 1618.31 32.3505 Q1612.76 32.3505 1609.97 34.0519 Q1607.22 35.7533 1607.22 39.156 Q1607.22 41.7486 1609.2 43.2475 Q1611.19 44.7058 1617.18 46.0426 L1619.73 46.6097 Q1627.67 48.3111 1630.99 51.4303 Q1634.36 54.509 1634.36 60.0587 Q1634.36 66.3781 1629.33 70.0644 Q1624.35 73.7508 1615.6 73.7508 Q1611.95 73.7508 1607.98 73.0216 Q1604.06 72.3329 1599.68 70.9151 L1599.68 63.2184 Q1603.81 65.3654 1607.82 66.4591 Q1611.83 67.5124 1615.76 67.5124 Q1621.03 67.5124 1623.86 65.73 Q1626.7 63.9071 1626.7 60.6258 Q1626.7 57.5877 1624.63 55.9673 Q1622.61 54.3469 1615.68 52.8481 L1613.09 52.2405 Q1606.16 50.7821 1603.08 47.7845 Q1600 44.7463 1600 39.4801 Q1600 33.0797 1604.54 29.5959 Q1609.08 26.1121 1617.42 26.1121 Q1621.56 26.1121 1625.2 26.7198 Q1628.85 27.3274 1631.93 28.5427 Z" fill="#000000" fill-rule="evenodd" fill-opacity="1" /><path clip-path="url(#clip1000)" d="M 0 0 M1664.78 46.5287 L1686.61 46.5287 L1686.61 53.1722 L1664.78 53.1722 L1664.78 46.5287 Z" fill="#000000" fill-rule="evenodd" fill-opacity="1" /><path clip-path="url(#clip1000)" d="M 0 0 M1741.34 20.1573 L1730.24 50.2555 L1752.48 50.2555 L1741.34 20.1573 M1736.72 12.096 L1746 12.096 L1769.05 72.576 L1760.54 72.576 L1755.03 57.061 L1727.77 57.061 L1722.26 72.576 L1713.63 72.576 L1736.72 12.096 Z" fill="#000000" fill-rule="evenodd" fill-opacity="1" /><path clip-path="url(#clip1000)" d="M 0 0 M1806.72 49.3643 Q1806.72 41.2625 1803.36 36.8065 Q1800.04 32.3505 1794 32.3505 Q1788.01 32.3505 1784.64 36.8065 Q1781.32 41.2625 1781.32 49.3643 Q1781.32 57.4256 1784.64 61.8816 Q1788.01 66.3376 1794 66.3376 Q1800.04 66.3376 1803.36 61.8816 Q1806.72 57.4256 1806.72 49.3643 M1814.18 66.9452 Q1814.18 78.5308 1809.03 84.1616 Q1803.89 89.8329 1793.27 89.8329 Q1789.34 89.8329 1785.86 89.2252 Q1782.38 88.6581 1779.09 87.4428 L1779.09 80.1917 Q1782.38 81.9741 1785.58 82.8248 Q1788.78 83.6755 1792.1 83.6755 Q1799.43 83.6755 1803.08 79.8271 Q1806.72 76.0193 1806.72 68.282 L1806.72 64.5957 Q1804.41 68.6061 1800.81 70.5911 Q1797.2 72.576 1792.18 72.576 Q1783.83 72.576 1778.73 66.2161 Q1773.63 59.8562 1773.63 49.3643 Q1773.63 38.832 1778.73 32.472 Q1783.83 26.1121 1792.18 26.1121 Q1797.2 26.1121 1800.81 28.0971 Q1804.41 30.082 1806.72 34.0924 L1806.72 27.2059 L1814.18 27.2059 L1814.18 66.9452 Z" fill="#000000" fill-rule="evenodd" fill-opacity="1" /><path clip-path="url(#clip1000)" d="M 0 0 M1860.8 48.0275 L1860.8 51.6733 L1826.53 51.6733 Q1827.02 59.3701 1831.15 63.421 Q1835.32 67.4314 1842.73 67.4314 Q1847.03 67.4314 1851.04 66.3781 Q1855.09 65.3249 1859.06 63.2184 L1859.06 70.267 Q1855.05 71.9684 1850.84 72.8596 Q1846.62 73.7508 1842.29 73.7508 Q1831.43 73.7508 1825.07 67.4314 Q1818.75 61.1119 1818.75 50.3365 Q1818.75 39.1965 1824.75 32.6746 Q1830.78 26.1121 1840.99 26.1121 Q1850.15 26.1121 1855.45 32.0264 Q1860.8 37.9003 1860.8 48.0275 M1853.35 45.84 Q1853.27 39.7232 1849.9 36.0774 Q1846.58 32.4315 1841.07 32.4315 Q1834.84 32.4315 1831.07 35.9558 Q1827.34 39.4801 1826.77 45.8805 L1853.35 45.84 Z" fill="#000000" fill-rule="evenodd" fill-opacity="1" /><path clip-path="url(#clip1000)" d="M 0 0 M1906.33 45.1919 L1906.33 72.576 L1898.88 72.576 L1898.88 45.4349 Q1898.88 38.994 1896.37 35.7938 Q1893.86 32.5936 1888.83 32.5936 Q1882.8 32.5936 1879.31 36.4419 Q1875.83 40.2903 1875.83 46.9338 L1875.83 72.576 L1868.34 72.576 L1868.34 27.2059 L1875.83 27.2059 L1875.83 34.2544 Q1878.5 30.163 1882.11 28.1376 Q1885.76 26.1121 1890.49 26.1121 Q1898.31 26.1121 1902.32 30.9732 Q1906.33 35.7938 1906.33 45.1919 Z" fill="#000000" fill-rule="evenodd" fill-opacity="1" /><path clip-path="url(#clip1000)" d="M 0 0 M1921.52 14.324 L1921.52 27.2059 L1936.88 27.2059 L1936.88 32.9987 L1921.52 32.9987 L1921.52 57.6282 Q1921.52 63.1779 1923.02 64.7578 Q1924.56 66.3376 1929.22 66.3376 L1936.88 66.3376 L1936.88 72.576 L1929.22 72.576 Q1920.59 72.576 1917.31 69.3758 Q1914.03 66.1351 1914.03 57.6282 L1914.03 32.9987 L1908.56 32.9987 L1908.56 27.2059 L1914.03 27.2059 L1914.03 14.324 L1921.52 14.324 Z" fill="#000000" fill-rule="evenodd" fill-opacity="1" /><path clip-path="url(#clip1000)" d="M 0 0 M1986.99 72.576 L1963.9 12.096 L1972.44 12.096 L1991.61 63.0159 L2010.81 12.096 L2019.31 12.096 L1996.26 72.576 L1986.99 72.576 Z" fill="#000000" fill-rule="evenodd" fill-opacity="1" /><path clip-path="url(#clip1000)" d="M 0 0 M2059.5 48.0275 L2059.5 51.6733 L2025.23 51.6733 Q2025.71 59.3701 2029.85 63.421 Q2034.02 67.4314 2041.43 67.4314 Q2045.73 67.4314 2049.74 66.3781 Q2053.79 65.3249 2057.76 63.2184 L2057.76 70.267 Q2053.75 71.9684 2049.53 72.8596 Q2045.32 73.7508 2040.99 73.7508 Q2030.13 73.7508 2023.77 67.4314 Q2017.45 61.1119 2017.45 50.3365 Q2017.45 39.1965 2023.45 32.6746 Q2029.48 26.1121 2039.69 26.1121 Q2048.84 26.1121 2054.15 32.0264 Q2059.5 37.9003 2059.5 48.0275 M2052.04 45.84 Q2051.96 39.7232 2048.6 36.0774 Q2045.28 32.4315 2039.77 32.4315 Q2033.53 32.4315 2029.76 35.9558 Q2026.04 39.4801 2025.47 45.8805 L2052.04 45.84 Z" fill="#000000" fill-rule="evenodd" fill-opacity="1" /><path clip-path="url(#clip1000)" d="M 0 0 M2067.32 9.54393 L2074.77 9.54393 L2074.77 72.576 L2067.32 72.576 L2067.32 9.54393 Z" fill="#000000" fill-rule="evenodd" fill-opacity="1" /><path clip-path="url(#clip1000)" d="M 0 0 M2100.17 32.4315 Q2094.17 32.4315 2090.69 37.1306 Q2087.21 41.7891 2087.21 49.9314 Q2087.21 58.0738 2090.65 62.7728 Q2094.13 67.4314 2100.17 67.4314 Q2106.12 67.4314 2109.61 62.7323 Q2113.09 58.0333 2113.09 49.9314 Q2113.09 41.8701 2109.61 37.1711 Q2106.12 32.4315 2100.17 32.4315 M2100.17 26.1121 Q2109.89 26.1121 2115.44 32.4315 Q2120.99 38.7509 2120.99 49.9314 Q2120.99 61.0714 2115.44 67.4314 Q2109.89 73.7508 2100.17 73.7508 Q2090.41 73.7508 2084.86 67.4314 Q2079.35 61.0714 2079.35 49.9314 Q2079.35 38.7509 2084.86 32.4315 Q2090.41 26.1121 2100.17 26.1121 Z" fill="#000000" fill-rule="evenodd" fill-opacity="1" /><path clip-path="url(#clip1000)" d="M 0 0 M2161.46 28.9478 L2161.46 35.9153 Q2158.3 34.1734 2155.1 33.3227 Q2151.94 32.4315 2148.7 32.4315 Q2141.45 32.4315 2137.44 37.0496 Q2133.43 41.6271 2133.43 49.9314 Q2133.43 58.2358 2137.44 62.8538 Q2141.45 67.4314 2148.7 67.4314 Q2151.94 67.4314 2155.1 66.5807 Q2158.3 65.6895 2161.46 63.9476 L2161.46 70.8341 Q2158.34 72.2924 2154.98 73.0216 Q2151.66 73.7508 2147.89 73.7508 Q2137.64 73.7508 2131.6 67.3098 Q2125.57 60.8689 2125.57 49.9314 Q2125.57 38.832 2131.65 32.472 Q2137.76 26.1121 2148.38 26.1121 Q2151.82 26.1121 2155.1 26.8413 Q2158.38 27.5299 2161.46 28.9478 Z" fill="#000000" fill-rule="evenodd" fill-opacity="1" /><path clip-path="url(#clip1000)" d="M 0 0 M2169.28 27.2059 L2176.73 27.2059 L2176.73 72.576 L2169.28 72.576 L2169.28 27.2059 M2169.28 9.54393 L2176.73 9.54393 L2176.73 18.9825 L2169.28 18.9825 L2169.28 9.54393 Z" fill="#000000" fill-rule="evenodd" fill-opacity="1" /><path clip-path="url(#clip1000)" d="M 0 0 M2191.92 14.324 L2191.92 27.2059 L2207.28 27.2059 L2207.28 32.9987 L2191.92 32.9987 L2191.92 57.6282 Q2191.92 63.1779 2193.42 64.7578 Q2194.96 66.3376 2199.62 66.3376 L2207.28 66.3376 L2207.28 72.576 L2199.62 72.576 Q2190.99 72.576 2187.71 69.3758 Q2184.43 66.1351 2184.43 57.6282 L2184.43 32.9987 L2178.96 32.9987 L2178.96 27.2059 L2184.43 27.2059 L2184.43 14.324 L2191.92 14.324 Z" fill="#000000" fill-rule="evenodd" fill-opacity="1" /><path clip-path="url(#clip1000)" d="M 0 0 M2233.97 76.7889 Q2230.81 84.8907 2227.81 87.3618 Q2224.82 89.8329 2219.79 89.8329 L2213.84 89.8329 L2213.84 83.5945 L2218.21 83.5945 Q2221.29 83.5945 2222.99 82.1361 Q2224.69 80.6778 2226.76 75.2496 L2228.1 71.8468 L2209.75 27.2059 L2217.65 27.2059 L2231.82 62.6918 L2246 27.2059 L2253.9 27.2059 L2233.97 76.7889 Z" fill="#000000" fill-rule="evenodd" fill-opacity="1" /><path clip-path="url(#clip1000)" d="M 0 0 M1310.63 2298.26 L1350.83 2298.26 L1350.83 2303.67 L1333.96 2303.67 L1333.96 2345.78 L1327.5 2345.78 L1327.5 2303.67 L1310.63 2303.67 L1310.63 2298.26 Z" fill="#000000" fill-rule="evenodd" fill-opacity="1" /><path clip-path="url(#clip1000)" d="M 0 0 M1354.97 2310.14 L1360.82 2310.14 L1360.82 2345.78 L1354.97 2345.78 L1354.97 2310.14 M1354.97 2296.26 L1360.82 2296.26 L1360.82 2303.67 L1354.97 2303.67 L1354.97 2296.26 Z" fill="#000000" fill-rule="evenodd" fill-opacity="1" /><path clip-path="url(#clip1000)" d="M 0 0 M1394.72 2316.98 Q1396.92 2313.03 1399.97 2311.15 Q1403.03 2309.28 1407.17 2309.28 Q1412.74 2309.28 1415.76 2313.19 Q1418.78 2317.07 1418.78 2324.27 L1418.78 2345.78 L1412.89 2345.78 L1412.89 2324.46 Q1412.89 2319.33 1411.08 2316.85 Q1409.27 2314.37 1405.54 2314.37 Q1400.99 2314.37 1398.35 2317.39 Q1395.71 2320.42 1395.71 2325.64 L1395.71 2345.78 L1389.82 2345.78 L1389.82 2324.46 Q1389.82 2319.3 1388 2316.85 Q1386.19 2314.37 1382.4 2314.37 Q1377.92 2314.37 1375.27 2317.42 Q1372.63 2320.45 1372.63 2325.64 L1372.63 2345.78 L1366.74 2345.78 L1366.74 2310.14 L1372.63 2310.14 L1372.63 2315.67 Q1374.64 2312.4 1377.44 2310.84 Q1380.24 2309.28 1384.09 2309.28 Q1387.97 2309.28 1390.68 2311.25 Q1393.42 2313.22 1394.72 2316.98 Z" fill="#000000" fill-rule="evenodd" fill-opacity="1" /><path clip-path="url(#clip1000)" d="M 0 0 M1455.42 2326.5 L1455.42 2329.36 L1428.49 2329.36 Q1428.87 2335.41 1432.12 2338.59 Q1435.4 2341.74 1441.22 2341.74 Q1444.6 2341.74 1447.75 2340.91 Q1450.93 2340.09 1454.05 2338.43 L1454.05 2343.97 Q1450.9 2345.31 1447.59 2346.01 Q1444.28 2346.71 1440.87 2346.71 Q1432.34 2346.71 1427.34 2341.74 Q1422.38 2336.78 1422.38 2328.31 Q1422.38 2319.56 1427.09 2314.43 Q1431.83 2309.28 1439.85 2309.28 Q1447.05 2309.28 1451.22 2313.92 Q1455.42 2318.54 1455.42 2326.5 M1449.56 2324.78 Q1449.5 2319.97 1446.86 2317.11 Q1444.25 2314.24 1439.92 2314.24 Q1435.02 2314.24 1432.06 2317.01 Q1429.13 2319.78 1428.68 2324.81 L1449.56 2324.78 Z" fill="#000000" fill-rule="evenodd" fill-opacity="1" /><path clip-path="url(#clip1000)" d="M 0 0 M1496.35 2296.32 Q1492.08 2303.64 1490.02 2310.8 Q1487.95 2317.97 1487.95 2325.32 Q1487.95 2332.67 1490.02 2339.9 Q1492.12 2347.09 1496.35 2354.38 L1491.26 2354.38 Q1486.48 2346.9 1484.1 2339.67 Q1481.74 2332.45 1481.74 2325.32 Q1481.74 2318.22 1484.1 2311.03 Q1486.45 2303.83 1491.26 2296.32 L1496.35 2296.32 Z" fill="#000000" fill-rule="evenodd" fill-opacity="1" /><path clip-path="url(#clip1000)" d="M 0 0 M1525.22 2311.19 L1525.22 2316.72 Q1522.73 2315.45 1520.06 2314.81 Q1517.39 2314.18 1514.52 2314.18 Q1510.16 2314.18 1507.97 2315.51 Q1505.8 2316.85 1505.8 2319.53 Q1505.8 2321.56 1507.36 2322.74 Q1508.92 2323.89 1513.63 2324.94 L1515.64 2325.38 Q1521.88 2326.72 1524.49 2329.17 Q1527.13 2331.59 1527.13 2335.95 Q1527.13 2340.91 1523.18 2343.81 Q1519.27 2346.71 1512.39 2346.71 Q1509.53 2346.71 1506.41 2346.13 Q1503.32 2345.59 1499.88 2344.48 L1499.88 2338.43 Q1503.13 2340.12 1506.28 2340.98 Q1509.43 2341.81 1512.52 2341.81 Q1516.66 2341.81 1518.88 2340.4 Q1521.11 2338.97 1521.11 2336.39 Q1521.11 2334.01 1519.49 2332.73 Q1517.9 2331.46 1512.45 2330.28 L1510.42 2329.81 Q1504.97 2328.66 1502.56 2326.3 Q1500.14 2323.92 1500.14 2319.78 Q1500.14 2314.75 1503.7 2312.01 Q1507.27 2309.28 1513.82 2309.28 Q1517.07 2309.28 1519.93 2309.75 Q1522.8 2310.23 1525.22 2311.19 Z" fill="#000000" fill-rule="evenodd" fill-opacity="1" /><path clip-path="url(#clip1000)" d="M 0 0 M1532.35 2296.32 L1537.44 2296.32 Q1542.21 2303.83 1544.57 2311.03 Q1546.96 2318.22 1546.96 2325.32 Q1546.96 2332.45 1544.57 2339.67 Q1542.21 2346.9 1537.44 2354.38 L1532.35 2354.38 Q1536.58 2347.09 1538.65 2339.9 Q1540.75 2332.67 1540.75 2325.32 Q1540.75 2317.97 1538.65 2310.8 Q1536.58 2303.64 1532.35 2296.32 Z" fill="#000000" fill-rule="evenodd" fill-opacity="1" /><path clip-path="url(#clip1000)" d="M 0 0 M38.4242 1267.03 L38.4242 1260.12 L57.9669 1246.94 L38.4242 1233.86 L38.4242 1226.95 L63.3141 1243.76 L85.9442 1243.76 L85.9442 1250.22 L63.3141 1250.22 L38.4242 1267.03 Z" fill="#000000" fill-rule="evenodd" fill-opacity="1" /><path clip-path="url(#clip1000)" d="M 0 0 M36.419 1246.24 L36.419 1240.39 L43.835 1240.39 L43.835 1246.24 L36.419 1246.24 M49.4368 1243.25 L49.4368 1243.25 Z" fill="#000000" fill-rule="evenodd" fill-opacity="1" /><path clip-path="url(#clip1000)" d="M 0 0 M36.4826 1199.45 Q43.8032 1203.72 50.9646 1205.79 Q58.126 1207.86 65.4784 1207.86 Q72.8308 1207.86 80.0559 1205.79 Q87.2491 1203.69 94.5379 1199.45 L94.5379 1204.55 Q87.0582 1209.32 79.8331 1211.71 Q72.608 1214.06 65.4784 1214.06 Q58.3806 1214.06 51.1874 1211.71 Q43.9942 1209.35 36.4826 1204.55 L36.4826 1199.45 Z" fill="#000000" fill-rule="evenodd" fill-opacity="1" /><path clip-path="url(#clip1000)" d="M 0 0 M57.1393 1165.56 Q53.1926 1163.36 51.3147 1160.31 Q49.4368 1157.25 49.4368 1153.11 Q49.4368 1147.54 53.3517 1144.52 Q57.2348 1141.49 64.4281 1141.49 L85.9442 1141.49 L85.9442 1147.38 L64.619 1147.38 Q59.4946 1147.38 57.012 1149.2 Q54.5294 1151.01 54.5294 1154.74 Q54.5294 1159.29 57.5531 1161.93 Q60.5768 1164.57 65.7967 1164.57 L85.9442 1164.57 L85.9442 1170.46 L64.619 1170.46 Q59.4628 1170.46 57.012 1172.27 Q54.5294 1174.09 54.5294 1177.87 Q54.5294 1182.36 57.5849 1185 Q60.6086 1187.65 65.7967 1187.65 L85.9442 1187.65 L85.9442 1193.53 L50.2962 1193.53 L50.2962 1187.65 L55.8344 1187.65 Q52.556 1185.64 50.9964 1182.84 Q49.4368 1180.04 49.4368 1176.19 Q49.4368 1172.3 51.4102 1169.6 Q53.3836 1166.86 57.1393 1165.56 Z" fill="#000000" fill-rule="evenodd" fill-opacity="1" /><path clip-path="url(#clip1000)" d="M 0 0 M38.4242 1124.94 L38.4242 1119.53 L91.9916 1136.08 L91.9916 1141.49 L38.4242 1124.94 Z" fill="#000000" fill-rule="evenodd" fill-opacity="1" /><path clip-path="url(#clip1000)" d="M 0 0 M51.3465 1090.66 L56.8847 1090.66 Q55.6116 1093.15 54.975 1095.82 Q54.3384 1098.49 54.3384 1101.36 Q54.3384 1105.72 55.6752 1107.92 Q57.012 1110.08 59.6856 1110.08 Q61.7226 1110.08 62.9003 1108.52 Q64.0461 1106.96 65.0965 1102.25 L65.5421 1100.24 Q66.8789 1094.01 69.3297 1091.4 Q71.7486 1088.75 76.1091 1088.75 Q81.0744 1088.75 83.9708 1092.7 Q86.8672 1096.62 86.8672 1103.49 Q86.8672 1106.36 86.2943 1109.48 Q85.7532 1112.56 84.6392 1116 L78.5918 1116 Q80.2787 1112.75 81.138 1109.6 Q81.9656 1106.45 81.9656 1103.36 Q81.9656 1099.23 80.5651 1097 Q79.1329 1094.77 76.5547 1094.77 Q74.1676 1094.77 72.8945 1096.39 Q71.6213 1097.99 70.4437 1103.43 L69.9662 1105.46 Q68.8204 1110.91 66.4651 1113.33 Q64.078 1115.75 59.9402 1115.75 Q54.9113 1115.75 52.1741 1112.18 Q49.4368 1108.62 49.4368 1102.06 Q49.4368 1098.81 49.9143 1095.95 Q50.3917 1093.08 51.3465 1090.66 Z" fill="#000000" fill-rule="evenodd" fill-opacity="1" /><path clip-path="url(#clip1000)" d="M 0 0 M36.4826 1083.53 L36.4826 1078.44 Q43.9942 1073.67 51.1874 1071.31 Q58.3806 1068.93 65.4784 1068.93 Q72.608 1068.93 79.8331 1071.31 Q87.0582 1073.67 94.5379 1078.44 L94.5379 1083.53 Q87.2491 1079.3 80.0559 1077.23 Q72.8308 1075.13 65.4784 1075.13 Q58.126 1075.13 50.9646 1077.23 Q43.8032 1079.3 36.4826 1083.53 Z" fill="#000000" fill-rule="evenodd" fill-opacity="1" /><polyline clip-path="url(#clip1002)" style="stroke:#009af9; stroke-width:16; stroke-opacity:1; fill:none" points="
  306.972,1661.8 318.19,1661.8 329.408,1671.55 340.627,1670.47 351.845,1626.01 363.063,1540.8 374.281,1439.34 385.499,1334.66 396.718,1240.14 407.936,1156.53 
  419.154,1087.75 430.372,1029.68 441.591,982.937 452.809,943.107 464.027,910.699 475.245,882.231 486.463,858.629 497.682,837.195 508.9,819.136 520.118,802.265 
  531.336,787.934 542.554,774.295 553.773,762.758 564.991,751.725 576.209,742.591 587.427,733.972 598.645,727.171 609.864,721.011 621.082,716.621 632.3,713.061 
  643.518,711.191 654.737,710.36 665.955,711.069 677.173,713.033 688.391,716.288 699.609,721.03 710.828,726.705 722.046,734.133 733.264,742.022 744.482,751.997 
  755.7,761.837 766.919,774.197 778.137,785.694 789.355,800.282 800.573,813.125 811.791,829.808 823.01,843.683 834.228,862.363 845.446,876.955 856.664,897.577 
  867.883,912.576 879.101,935.126 890.319,950.219 901.537,974.724 912.755,989.601 923.974,1016.12 935.192,1030.48 946.41,1059.1 957.628,1072.69 968.846,1103.54 
  980.065,1116.26 991.283,1149.59 1002.5,1161.83 1013.72,1198.44 1024.94,1211.97 1036.16,1254.31 1047.37,1274.4 1058.59,1329.42 1069.81,1314.82 1081.03,1339.98 
  1092.25,1344.1 1103.46,1375.94 1114.68,1386.51 1125.9,1418.63 1137.12,1431.84 1148.34,1461.72 1159.56,1475.13 1170.77,1501.3 1181.99,1513.72 1193.21,1536.2 
  1204.43,1547.75 1215.65,1567.31 1226.87,1578.33 1238.08,1595.63 1249.3,1606.28 1260.52,1621.75 1271.74,1632 1282.96,1645.86 1294.17,1655.59 1305.39,1667.95 
  1316.61,1677.04 1327.83,1687.95 1339.05,1696.24 1350.27,1705.72 1361.48,1713.08 1372.7,1721.13 1383.92,1727.46 1395.14,1734.07 1406.36,1739.26 1417.57,1744.43 
  1428.79,1748.38 1440.01,1752.07 1451.23,1754.71 1462.45,1756.89 1473.67,1758.12 1484.88,1758.73 1496.1,1758.45 1507.32,1757.42 1518.54,1755.52 1529.76,1752.75 
  1540.98,1749.1 1552.19,1744.47 1563.41,1738.92 1574.63,1732.26 1585.85,1724.62 1597.07,1715.77 1608.28,1705.84 1619.5,1694.63 1630.72,1682.34 1641.94,1668.87 
  1653.16,1654.5 1664.38,1639.24 1675.59,1623.42 1686.81,1607.19 1698.03,1590.97 1709.25,1575.03 1720.47,1559.77 1731.68,1545.34 1742.9,1531.92 1754.12,1519.47 
  1765.34,1507.92 1776.56,1497.13 1787.78,1486.92 1798.99,1477.15 1810.21,1467.73 1821.43,1458.7 1832.65,1450.12 1843.87,1442.06 1855.09,1434.55 1866.3,1427.63 
  1877.52,1421.28 1888.74,1415.52 1899.96,1410.32 1911.18,1405.7 1922.39,1401.64 1933.61,1398.14 1944.83,1395.19 1956.05,1392.8 1967.27,1390.94 1978.49,1389.62 
  1989.7,1388.81 2000.92,1388.51 2012.14,1388.67 2023.36,1389.3 2034.58,1390.33 2045.79,1391.77 2057.01,1393.54 2068.23,1395.65 2079.45,1398.01 2090.67,1400.62 
  2101.89,1403.41 2113.1,1406.39 2124.32,1409.45 2135.54,1412.63 2146.76,1415.82 2157.98,1419.08 2169.19,1422.29 2180.41,1425.52 2191.63,1428.66 2202.85,1431.78 
  2214.07,1434.78 2225.29,1437.76 2236.5,1440.61 2247.72,1443.42 2258.94,1446.12 2270.16,1448.81 2281.38,1451.41 2292.6,1454.02 2303.81,1456.59 2315.03,1459.21 
  2326.25,1461.86 2337.47,1464.61 2348.69,1467.48 2359.9,1470.48 2371.12,1473.76 2382.34,1477.16 2393.56,1481.06 2404.78,1485.05 2416,1489.85 2427.21,1494.63 
  2438.43,1500.72 2449.65,1506.54 2460.87,1514.46 2472.09,1521.69 2483.3,1532.23 2494.52,1541.31 2505.74,1555.64 2516.96,1566.74 2528.18,1587.99 2539.4,1603.07 
  2550.61,1655.34 
  "/>
<polyline clip-path="url(#clip1002)" style="stroke:#e26f46; stroke-width:16; stroke-opacity:1; fill:none" points="
  306.972,1661.8 318.19,1647.06 329.408,1486.45 340.627,1088.41 351.845,900.684 363.063,873.144 374.281,877.754 385.499,876.078 396.718,864.406 407.936,848.287 
  419.154,830.191 430.372,812.96 441.591,796.212 452.809,781.307 464.027,767.379 475.245,755.459 486.463,744.866 497.682,736.379 508.9,729.586 520.118,724.949 
  531.336,722.28 542.554,721.727 553.773,723.242 564.991,726.735 576.209,732.203 587.427,739.44 598.645,748.388 609.864,758.877 621.082,770.694 632.3,783.859 
  643.518,797.895 654.737,813.166 665.955,828.816 677.173,845.692 688.391,862.43 699.609,880.507 710.828,897.902 722.046,916.877 733.264,934.589 744.482,954.25 
  755.7,972.013 766.919,992.229 778.137,1009.84 789.355,1030.55 800.573,1047.84 811.791,1069.04 823.01,1085.89 834.228,1107.61 845.446,1123.92 856.664,1146.23 
  867.883,1161.89 879.101,1184.92 890.319,1199.82 901.537,1223.69 912.755,1237.75 923.974,1262.62 935.192,1275.72 946.41,1301.79 957.628,1313.83 968.846,1341.34 
  980.065,1352.36 991.283,1381.75 1002.5,1392.15 1013.72,1424.41 1024.94,1435.81 1036.16,1473.59 1047.37,1490.43 1058.59,1539.52 1069.81,1531.39 1081.03,1554.47 
  1092.25,1557.85 1103.46,1585.61 1114.68,1594.67 1125.9,1623.22 1137.12,1635.41 1148.34,1663.08 1159.56,1676.65 1170.77,1702.29 1181.99,1715.94 1193.21,1739.09 
  1204.43,1752.37 1215.65,1773.29 1226.87,1786.29 1238.08,1805.38 1249.3,1818.14 1260.52,1835.64 1271.74,1848.09 1282.96,1864.12 1294.17,1876.07 1305.39,1890.6 
  1316.61,1901.81 1327.83,1914.75 1339.05,1924.93 1350.27,1936.09 1361.48,1944.95 1372.7,1954.14 1383.92,1961.34 1395.14,1968.34 1406.36,1973.59 1417.57,1978.19 
  1428.79,1981.2 1440.01,1983.19 1451.23,1983.7 1462.45,1982.9 1473.67,1980.72 1484.88,1976.99 1496.1,1971.97 1507.32,1965.28 1518.54,1957.37 1529.76,1947.72 
  1540.98,1936.97 1552.19,1924.49 1563.41,1911.03 1574.63,1895.92 1585.85,1879.95 1597.07,1862.42 1608.28,1844.08 1619.5,1824.19 1630.72,1803.37 1641.94,1780.75 
  1653.16,1756.71 1664.38,1730.27 1675.59,1701.8 1686.81,1670.7 1698.03,1637.7 1709.25,1602.76 1720.47,1566.87 1731.68,1530.26 1742.9,1493.82 1754.12,1457.78 
  1765.34,1422.81 1776.56,1389.07 1787.78,1356.95 1798.99,1326.59 1810.21,1298.34 1821.43,1272.47 1832.65,1248.99 1843.87,1227.61 1855.09,1208.01 1866.3,1189.89 
  1877.52,1173.05 1888.74,1157.31 1899.96,1142.55 1911.18,1128.67 1922.39,1115.61 1933.61,1103.34 1944.83,1091.85 1956.05,1081.14 1967.27,1071.22 1978.49,1062.12 
  1989.7,1053.86 2000.92,1046.46 2012.14,1039.97 2023.36,1034.41 2034.58,1029.8 2045.79,1026.18 2057.01,1023.55 2068.23,1021.95 2079.45,1021.39 2090.67,1021.88 
  2101.89,1023.43 2113.1,1026.06 2124.32,1029.74 2135.54,1034.52 2146.76,1040.35 2157.98,1047.27 2169.19,1055.21 2180.41,1064.23 2191.63,1074.23 2202.85,1085.29 
  2214.07,1097.26 2225.29,1110.27 2236.5,1124.11 2247.72,1138.94 2258.94,1154.54 2270.16,1171.07 2281.38,1188.28 2292.6,1206.38 2303.81,1225.09 2315.03,1244.63 
  2326.25,1264.71 2337.47,1285.54 2348.69,1306.87 2359.9,1328.86 2371.12,1351.29 2382.34,1374.27 2393.56,1397.64 2404.78,1421.39 2416,1445.48 2427.21,1469.7 
  2438.43,1494.21 2449.65,1518.52 2460.87,1543.05 2472.09,1566.95 2483.3,1590.96 2494.52,1613.77 2505.74,1636.43 2516.96,1656.94 2528.18,1675.17 2539.4,1688.06 
  2550.61,1672.09 
  "/>
<polyline clip-path="url(#clip1002)" style="stroke:#3da44d; stroke-width:16; stroke-opacity:1; fill:none" points="
  306.972,1661.8 318.19,1647.87 329.408,1461.81 340.627,1029.7 351.845,848.93 363.063,830.13 374.281,838.207 385.499,836.621 396.718,824.64 407.936,807.663 
  419.154,788.886 430.372,770.355 441.591,752.21 452.809,735.369 464.027,719.314 475.245,704.924 486.463,691.646 497.682,680.316 508.9,670.47 520.118,662.761 
  531.336,656.861 542.554,653.147 553.773,651.451 564.991,651.847 576.209,654.341 587.427,658.712 598.645,665.151 609.864,673.16 621.082,683.134 632.3,694.308 
  643.518,707.31 654.737,721.096 665.955,736.581 677.173,752.403 688.391,769.834 699.609,787.131 710.828,806.015 722.046,824.268 733.264,844.178 744.482,862.931 
  755.7,883.519 766.919,902.386 778.137,923.38 789.355,942.045 800.573,963.255 811.791,981.462 823.01,1002.77 834.228,1020.32 845.446,1041.66 856.664,1058.4 
  867.883,1079.77 879.101,1095.57 890.319,1117 901.537,1131.76 912.755,1153.31 923.974,1166.94 935.192,1188.7 946.41,1201.12 957.628,1223.15 968.846,1234.31 
  980.065,1256.65 991.283,1266.52 1002.5,1289.08 1013.72,1297.58 1024.94,1319.79 1036.16,1326.33 1047.37,1345.95 1058.59,1347.02 1069.81,1375.85 1081.03,1381.81 
  1092.25,1401.13 1103.46,1404.6 1114.68,1420.93 1125.9,1424.03 1137.12,1438.06 1148.34,1441.11 1159.56,1453.43 1170.77,1456.87 1181.99,1468.01 1193.21,1471.85 
  1204.43,1481.81 1215.65,1485.86 1226.87,1494.7 1238.08,1498.77 1249.3,1506.56 1260.52,1510.55 1271.74,1517.43 1282.96,1521.31 1294.17,1527.41 1305.39,1531.14 
  1316.61,1536.55 1327.83,1540.07 1339.05,1544.81 1350.27,1548 1361.48,1552.05 1372.7,1554.81 1383.92,1558.12 1395.14,1560.33 1406.36,1562.84 1417.57,1564.38 
  1428.79,1566.01 1440.01,1566.77 1451.23,1567.46 1462.45,1567.34 1473.67,1567.02 1484.88,1565.94 1496.1,1564.56 1507.32,1562.44 1518.54,1559.95 1529.76,1556.77 
  1540.98,1553.16 1552.19,1548.9 1563.41,1544.2 1574.63,1538.92 1585.85,1533.24 1597.07,1527.07 1608.28,1520.6 1619.5,1513.8 1630.72,1506.85 1641.94,1499.76 
  1653.16,1492.72 1664.38,1485.72 1675.59,1478.89 1686.81,1472.18 1698.03,1465.68 1709.25,1459.3 1720.47,1453.11 1731.68,1447.05 1742.9,1441.2 1754.12,1435.56 
  1765.34,1430.23 1776.56,1425.24 1787.78,1420.68 1798.99,1416.54 1810.21,1412.89 1821.43,1409.68 1832.65,1407.01 1843.87,1404.82 1855.09,1403.19 1866.3,1402.01 
  1877.52,1401.38 1888.74,1401.18 1899.96,1401.52 1911.18,1402.26 1922.39,1403.56 1933.61,1405.24 1944.83,1407.51 1956.05,1410.13 1967.27,1413.37 1978.49,1416.93 
  1989.7,1421.16 2000.92,1425.65 2012.14,1430.85 2023.36,1436.23 2034.58,1442.39 2045.79,1448.62 2057.01,1455.71 2068.23,1462.72 2079.45,1470.7 2090.67,1478.44 
  2101.89,1487.27 2113.1,1495.66 2124.32,1505.32 2135.54,1514.28 2146.76,1524.71 2157.98,1534.13 2169.19,1545.27 2180.41,1555 2191.63,1566.76 2202.85,1576.59 
  2214.07,1588.82 2225.29,1598.51 2236.5,1611.04 2247.72,1620.26 2258.94,1632.89 2270.16,1641.28 2281.38,1653.79 2292.6,1660.93 2303.81,1673.1 2315.03,1678.54 
  2326.25,1690.15 2337.47,1693.36 2348.69,1704.2 2359.9,1704.62 2371.12,1714.5 2382.34,1711.46 2393.56,1720.22 2404.78,1713 2416,1720.55 2427.21,1708.34 
  2438.43,1714.7 2449.65,1696.68 2460.87,1702.13 2472.09,1677.57 2483.3,1682.9 2494.52,1651.66 2505.74,1659.01 2516.96,1623.46 2528.18,1640.55 2539.4,1614.59 
  2550.61,1671.91 
  "/>
<polyline clip-path="url(#clip1002)" style="stroke:#c271d2; stroke-width:16; stroke-opacity:1; fill:none" points="
  306.972,1661.8 318.19,1661.8 329.408,1664.68 340.627,1679.33 351.845,1677.38 363.063,1630.17 374.281,1542.81 385.499,1443.47 396.718,1347.84 407.936,1267.53 
  419.154,1200.24 430.372,1146.53 441.591,1101.58 452.809,1065.11 464.027,1033.78 475.245,1007.65 486.463,984.629 497.682,964.933 508.9,947.255 520.118,931.809 
  531.336,917.778 542.554,905.325 553.773,893.95 564.991,883.763 576.209,874.475 587.427,866.153 598.645,858.648 609.864,851.991 621.082,846.12 632.3,841.041 
  643.518,836.741 654.737,833.201 665.955,830.435 677.173,828.408 688.391,827.135 699.609,826.58 710.828,826.747 722.046,827.607 733.264,829.14 744.482,831.342 
  755.7,834.155 766.919,837.619 778.137,841.617 789.355,846.256 800.573,851.341 811.791,857.068 823.01,863.137 834.228,869.863 845.446,876.812 856.664,884.441 
  867.883,892.158 879.101,900.588 890.319,908.948 901.537,918.06 912.755,926.924 923.974,936.579 935.192,945.782 946.41,955.811 957.628,965.155 968.846,975.348 
  980.065,984.584 991.283,994.659 1002.5,1003.44 1013.72,1013.01 1024.94,1020.9 1036.16,1029.6 1047.37,1036.52 1058.59,1044.98 1069.81,1054.57 1081.03,1061.8 
  1092.25,1068.36 1103.46,1073.85 1114.68,1078.97 1125.9,1083.48 1137.12,1087.84 1148.34,1092.03 1159.56,1096.27 1170.77,1100.49 1181.99,1104.64 1193.21,1108.65 
  1204.43,1112.37 1215.65,1115.77 1226.87,1118.79 1238.08,1121.45 1249.3,1123.73 1260.52,1125.65 1271.74,1127.24 1282.96,1128.51 1294.17,1129.48 1305.39,1130.19 
  1316.61,1130.68 1327.83,1130.98 1339.05,1131.16 1350.27,1131.27 1361.48,1131.36 1372.7,1131.5 1383.92,1131.75 1395.14,1132.18 1406.36,1132.87 1417.57,1133.88 
  1428.79,1135.27 1440.01,1137.13 1451.23,1139.51 1462.45,1142.49 1473.67,1146.1 1484.88,1150.41 1496.1,1155.47 1507.32,1161.33 1518.54,1168 1529.76,1175.54 
  1540.98,1183.96 1552.19,1193.29 1563.41,1203.55 1574.63,1214.77 1585.85,1226.96 1597.07,1240.13 1608.28,1254.26 1619.5,1269.3 1630.72,1285.1 1641.94,1301.49 
  1653.16,1318.29 1664.38,1335.42 1675.59,1352.87 1686.81,1370.72 1698.03,1389.1 1709.25,1408.15 1720.47,1428.01 1731.68,1448.74 1742.9,1470.4 1754.12,1492.91 
  1765.34,1516.21 1776.56,1540.02 1787.78,1564.16 1798.99,1588.18 1810.21,1611.85 1821.43,1634.66 1832.65,1656.47 1843.87,1676.93 1855.09,1696.11 1866.3,1713.82 
  1877.52,1730.26 1888.74,1745.29 1899.96,1759.15 1911.18,1771.7 1922.39,1783.21 1933.61,1793.53 1944.83,1802.94 1956.05,1811.28 1967.27,1818.84 1978.49,1825.45 
  1989.7,1831.39 2000.92,1836.49 2012.14,1841.02 2023.36,1844.81 2034.58,1848.11 2045.79,1850.77 2057.01,1852.99 2068.23,1854.66 2079.45,1855.93 2090.67,1856.74 
  2101.89,1857.16 2113.1,1857.22 2124.32,1856.88 2135.54,1856.26 2146.76,1855.21 2157.98,1854 2169.19,1852.28 2180.41,1850.53 2191.63,1848.17 2202.85,1845.94 
  2214.07,1842.94 2225.29,1840.26 2236.5,1836.61 2247.72,1833.53 2258.94,1829.2 2270.16,1825.75 2281.38,1820.69 2292.6,1816.93 2303.81,1811.06 2315.03,1807.03 
  2326.25,1800.26 2337.47,1796.05 2348.69,1788.26 2359.9,1783.95 2371.12,1775 2382.34,1770.74 2393.56,1760.48 2404.78,1756.45 2416,1744.73 2427.21,1741.2 
  2438.43,1727.89 2449.65,1725.24 2460.87,1710.33 2472.09,1709.12 2483.3,1692.88 2494.52,1694.01 2505.74,1677.28 2516.96,1682.3 2528.18,1666.67 2539.4,1678.02 
  2550.61,1665.6 
  "/>
<polyline clip-path="url(#clip1002)" style="stroke:#ac8d18; stroke-width:16; stroke-opacity:1; fill:none" points="
  306.972,1661.8 318.19,1647.59 329.408,1271.94 340.627,505.899 351.845,189.727 363.063,238.99 374.281,303.879 385.499,349.58 396.718,361.34 407.936,362.446 
  419.154,354.876 430.372,344.523 441.591,332.832 452.809,320.027 464.027,307.82 475.245,295.28 486.463,283.893 497.682,272.95 508.9,263.312 520.118,254.906 
  531.336,247.838 542.554,242.706 553.773,238.917 564.991,237.611 576.209,237.635 587.427,240.501 598.645,244.658 609.864,251.833 621.082,260.215 632.3,271.633 
  643.518,284.122 654.737,299.549 665.955,315.848 677.173,334.912 688.391,354.586 699.609,376.817 710.828,399.334 722.046,424.201 733.264,448.968 744.482,475.916 
  755.7,502.317 766.919,530.796 778.137,558.224 789.355,587.722 800.573,615.603 811.791,645.667 823.01,673.482 834.228,703.737 845.446,731.031 856.664,761.189 
  867.883,787.576 879.101,817.447 890.319,842.603 901.537,872.089 912.755,895.745 923.974,924.841 935.192,946.757 946.41,975.546 957.628,995.484 968.846,1024.11 
  980.065,1041.77 991.283,1070.37 1002.5,1085.24 1013.72,1113.69 1024.94,1124.81 1036.16,1152.25 1047.37,1158.47 1058.59,1183.34 1069.81,1185.75 1081.03,1207.3 
  1092.25,1212.55 1103.46,1229.11 1114.68,1236.84 1125.9,1249.67 1137.12,1258.41 1148.34,1268.32 1159.56,1276.16 1170.77,1283.22 1181.99,1288.83 1193.21,1293.55 
  1204.43,1297.35 1215.65,1300.55 1226.87,1303.11 1238.08,1305.19 1249.3,1306.81 1260.52,1308.04 1271.74,1308.95 1282.96,1309.58 1294.17,1310 1305.39,1310.24 
  1316.61,1310.4 1327.83,1310.49 1339.05,1310.62 1350.27,1310.82 1361.48,1311.16 1372.7,1311.69 1383.92,1312.48 1395.14,1313.57 1406.36,1315 1417.57,1316.81 
  1428.79,1319.03 1440.01,1321.69 1451.23,1324.81 1462.45,1328.4 1473.67,1332.46 1484.88,1337.02 1496.1,1342.06 1507.32,1347.61 1518.54,1353.67 1529.76,1360.26 
  1540.98,1367.41 1552.19,1375.17 1563.41,1383.61 1574.63,1392.82 1585.85,1402.94 1597.07,1414.18 1608.28,1426.78 1619.5,1441.11 1630.72,1457.52 1641.94,1476.15 
  1653.16,1496.79 1664.38,1519.27 1675.59,1543.67 1686.81,1570.03 1698.03,1598.38 1709.25,1628.4 1720.47,1659.76 1731.68,1691.77 1742.9,1724.01 1754.12,1755.72 
  1765.34,1786.62 1776.56,1816.06 1787.78,1844.02 1798.99,1870.09 1810.21,1894.64 1821.43,1917.44 1832.65,1939.04 1843.87,1959.19 1855.09,1978.43 1866.3,1996.41 
  1877.52,2013.63 1888.74,2029.65 1899.96,2044.94 1911.18,2059.01 1922.39,2072.31 1933.61,2084.34 1944.83,2095.55 1956.05,2105.46 1967.27,2114.48 1978.49,2122.19 
  1989.7,2128.98 2000.92,2134.48 2012.14,2139.03 2023.36,2142.36 2034.58,2144.72 2045.79,2145.97 2057.01,2146.22 2068.23,2145.52 2079.45,2143.8 2090.67,2141.31 
  2101.89,2137.76 2113.1,2133.67 2124.32,2128.45 2135.54,2122.96 2146.76,2116.23 2157.98,2109.54 2169.19,2101.46 2180.41,2093.78 2191.63,2084.47 2202.85,2075.99 
  2214.07,2065.55 2225.29,2056.44 2236.5,2044.91 2247.72,2035.32 2258.94,2022.71 2270.16,2012.78 2281.38,1999.03 2292.6,1988.89 2303.81,1973.89 2315.03,1963.65 
  2326.25,1947.24 2337.47,1937.07 2348.69,1919.05 2359.9,1909.11 2371.12,1889.23 2382.34,1879.78 2393.56,1857.78 2404.78,1849.15 2416,1824.8 2427.21,1817.46 
  2438.43,1790.56 2449.65,1785.15 2460.87,1755.7 2472.09,1753.11 2483.3,1721.41 2494.52,1722.94 2505.74,1690.07 2516.96,1698.02 2528.18,1667.28 2539.4,1687.62 
  2550.61,1670.63 
  "/>
<polyline clip-path="url(#clip1002)" style="stroke:#00a9ad; stroke-width:16; stroke-opacity:1; fill:none" points="
  306.972,1661.8 318.19,1648.69 329.408,1372.88 340.627,854.237 351.845,690.36 363.063,731.067 374.281,769.708 385.499,786.995 396.718,787.638 407.936,781.529 
  419.154,773.999 430.372,764.87 441.591,757.201 452.809,748.829 464.027,742.135 475.245,735.178 486.463,729.663 497.682,724.314 508.9,720.113 520.118,716.457 
  531.336,713.677 542.554,711.729 553.773,710.44 564.991,710.164 576.209,710.4 587.427,711.74 598.645,713.516 609.864,716.412 621.082,719.735 632.3,724.125 
  643.518,728.992 654.737,734.811 665.955,741.203 677.173,748.367 688.391,756.245 699.609,764.648 710.828,773.951 722.046,783.465 733.264,794.12 744.482,804.6 
  755.7,816.529 766.919,827.815 778.137,840.945 789.355,852.875 800.573,867.145 811.791,879.552 823.01,894.92 834.228,907.638 845.446,924.081 856.664,936.941 
  867.883,954.461 879.101,967.29 890.319,985.908 901.537,998.528 912.755,1018.28 923.974,1030.51 935.192,1051.46 946.41,1063.11 957.628,1085.33 968.846,1096.23 
  980.065,1119.83 991.283,1129.91 1002.5,1155.1 1013.72,1164.52 1024.94,1191.78 1036.16,1201.35 1047.37,1232.07 1058.59,1245.13 1069.81,1258.56 1081.03,1261.27 
  1092.25,1283.06 1103.46,1291.92 1114.68,1313.74 1125.9,1324.72 1137.12,1344.63 1148.34,1355.89 1159.56,1373.01 1170.77,1383.55 1181.99,1398 1193.21,1407.86 
  1204.43,1420.37 1215.65,1429.83 1226.87,1440.94 1238.08,1450.08 1249.3,1460.04 1260.52,1468.76 1271.74,1477.65 1282.96,1485.78 1294.17,1493.57 1305.39,1500.94 
  1316.61,1507.6 1327.83,1514.04 1339.05,1519.55 1350.27,1524.96 1361.48,1529.33 1372.7,1533.69 1383.92,1536.97 1395.14,1540.31 1406.36,1542.63 1417.57,1545.08 
  1428.79,1546.59 1440.01,1548.3 1451.23,1549.22 1462.45,1550.4 1473.67,1550.94 1484.88,1551.8 1496.1,1552.17 1507.32,1552.89 1518.54,1553.26 1529.76,1554.01 
  1540.98,1554.52 1552.19,1555.41 1563.41,1556.17 1574.63,1557.3 1585.85,1558.36 1597.07,1559.78 1608.28,1561.17 1619.5,1562.81 1630.72,1564.29 1641.94,1565.72 
  1653.16,1566.78 1664.38,1567.77 1675.59,1568.59 1686.81,1569.52 1698.03,1570.42 1709.25,1571.43 1720.47,1572.4 1731.68,1573.43 1742.9,1574.43 1754.12,1575.53 
  1765.34,1576.72 1776.56,1578.15 1787.78,1579.79 1798.99,1581.74 1810.21,1583.88 1821.43,1586.2 1832.65,1588.55 1843.87,1590.89 1855.09,1593.05 1866.3,1595.02 
  1877.52,1596.67 1888.74,1598.01 1899.96,1598.98 1911.18,1599.58 1922.39,1599.79 1933.61,1599.65 1944.83,1599.14 1956.05,1598.32 1967.27,1597.18 1978.49,1595.8 
  1989.7,1594.19 2000.92,1592.41 2012.14,1590.49 2023.36,1588.48 2034.58,1586.43 2045.79,1584.36 2057.01,1582.35 2068.23,1580.37 2079.45,1578.56 2090.67,1576.81 
  2101.89,1575.32 2113.1,1573.92 2124.32,1572.87 2135.54,1571.89 2146.76,1571.36 2157.98,1570.85 2169.19,1570.88 2180.41,1570.86 2191.63,1571.49 2202.85,1571.91 
  2214.07,1573.14 2225.29,1573.94 2236.5,1575.75 2247.72,1576.81 2258.94,1579.17 2270.16,1580.34 2281.38,1583.23 2292.6,1584.31 2303.81,1587.73 2315.03,1588.47 
  2326.25,1592.47 2337.47,1592.55 2348.69,1597.25 2359.9,1596.26 2371.12,1601.9 2382.34,1599.26 2393.56,1606.25 2404.78,1601.18 2416,1610.24 2427.21,1601.64 
  2438.43,1613.94 2449.65,1600.33 2460.87,1617.88 2472.09,1597.34 2483.3,1623.62 2494.52,1594.08 2505.74,1634.89 2516.96,1594.22 2528.18,1654.87 2539.4,1596.58 
  2550.61,1658.25 
  "/>
<polyline clip-path="url(#clip1002)" style="stroke:#ed5d92; stroke-width:16; stroke-opacity:1; fill:none" points="
  306.972,1661.8 318.19,1549.8 329.408,1609.51 340.627,1700.19 351.845,1725.59 363.063,1697.83 374.281,1641.38 385.499,1571.22 396.718,1493.32 407.936,1413.44 
  419.154,1332.82 430.372,1254.39 441.591,1177.82 452.809,1104.99 464.027,1035.1 475.245,969.589 486.463,907.614 497.682,850.38 508.9,797.079 520.118,748.745 
  531.336,704.646 542.554,665.651 553.773,631.101 564.991,601.694 576.209,576.826 587.427,557.024 598.645,541.712 609.864,531.25 621.082,525.068 632.3,523.374 
  643.518,525.583 654.737,531.784 665.955,541.36 677.173,554.319 688.391,570.006 699.609,588.395 710.828,608.791 722.046,631.177 733.264,654.824 744.482,679.768 
  755.7,705.245 766.919,731.384 778.137,757.391 789.355,783.514 800.573,808.932 811.791,834.034 823.01,857.973 834.228,881.288 845.446,903.108 856.664,924.126 
  867.883,943.45 879.101,961.915 890.319,978.619 901.537,994.516 912.755,1008.71 923.974,1022.23 935.192,1034.22 946.41,1045.72 957.628,1055.97 968.846,1065.91 
  980.065,1074.93 991.283,1083.69 1002.5,1091.78 1013.72,1099.23 1024.94,1105.75 1036.16,1109.85 1047.37,1110.92 1058.59,1104.14 1069.81,1117.56 1081.03,1127.48 
  1092.25,1135.01 1103.46,1143.6 1114.68,1151.91 1125.9,1161.75 1137.12,1171.22 1148.34,1181.49 1159.56,1190.91 1170.77,1200.7 1181.99,1209.93 1193.21,1220 
  1204.43,1230.3 1215.65,1241.68 1226.87,1253.53 1238.08,1266.25 1249.3,1279.37 1260.52,1293.07 1271.74,1307.02 1282.96,1321.27 1294.17,1335.59 1305.39,1349.93 
  1316.61,1364.17 1327.83,1378.23 1339.05,1392.02 1350.27,1405.5 1361.48,1418.62 1372.7,1431.35 1383.92,1443.65 1395.14,1455.51 1406.36,1466.92 1417.57,1477.89 
  1428.79,1488.39 1440.01,1498.46 1451.23,1508.07 1462.45,1517.27 1473.67,1526.03 1484.88,1534.42 1496.1,1542.41 1507.32,1550.07 1518.54,1557.38 1529.76,1564.42 
  1540.98,1571.18 1552.19,1577.75 1563.41,1584.13 1574.63,1590.45 1585.85,1596.71 1597.07,1603.08 1608.28,1609.58 1619.5,1616.38 1630.72,1623.53 1641.94,1631.17 
  1653.16,1639 1664.38,1646.72 1675.59,1653.96 1686.81,1660.97 1698.03,1668.29 1709.25,1676.96 1720.47,1687.9 1731.68,1702 1742.9,1719.65 1754.12,1741 
  1765.34,1765.63 1776.56,1793.01 1787.78,1822.25 1798.99,1852.62 1810.21,1883.32 1821.43,1913.73 1832.65,1943.16 1843.87,1971.11 1855.09,1997.12 1866.3,2020.94 
  1877.52,2042.25 1888.74,2060.93 1899.96,2076.78 1911.18,2089.81 1922.39,2099.93 1933.61,2107.24 1944.83,2111.77 1956.05,2113.69 1967.27,2113.11 1978.49,2110.27 
  1989.7,2105.31 2000.92,2098.49 2012.14,2089.99 2023.36,2080.07 2034.58,2068.91 2045.79,2056.78 2057.01,2043.83 2068.23,2030.32 2079.45,2016.4 2090.67,2002.28 
  2101.89,1988.1 2113.1,1974.05 2124.32,1960.22 2135.54,1946.8 2146.76,1933.84 2157.98,1921.48 2169.19,1909.77 2180.41,1898.79 2191.63,1888.58 2202.85,1879.16 
  2214.07,1870.57 2225.29,1862.78 2236.5,1855.82 2247.72,1849.59 2258.94,1844.15 2270.16,1839.31 2281.38,1835.2 2292.6,1831.48 2303.81,1828.42 2315.03,1825.45 
  2326.25,1823.08 2337.47,1820.4 2348.69,1818.28 2359.9,1815.31 2371.12,1812.92 2382.34,1808.98 2393.56,1805.77 2404.78,1800.11 2416,1795.56 2427.21,1787.52 
  2438.43,1781.36 2449.65,1770.59 2460.87,1763.21 2472.09,1750.18 2483.3,1743.22 2494.52,1729.81 2505.74,1726.46 2516.96,1714.95 2528.18,1715.97 2539.4,1697.16 
  2550.61,1654.54 
  "/>
<path clip-path="url(#clip1000)" d="
M2713.92 746.392 L3184.76 746.392 L3184.76 262.552 L2713.92 262.552  Z
  " fill="#ffffff" fill-rule="evenodd" fill-opacity="1"/>
<polyline clip-path="url(#clip1000)" style="stroke:#000000; stroke-width:4; stroke-opacity:1; fill:none" points="
  2713.92,746.392 3184.76,746.392 3184.76,262.552 2713.92,262.552 2713.92,746.392 
  "/>
<polyline clip-path="url(#clip1000)" style="stroke:#009af9; stroke-width:16; stroke-opacity:1; fill:none" points="
  2745.92,323.032 2937.92,323.032 
  "/>
<path clip-path="url(#clip1000)" d="M 0 0 M2991.95 303.633 Q2984.95 303.633 2980.81 308.853 Q2976.7 314.072 2976.7 323.08 Q2976.7 332.056 2980.81 337.275 Q2984.95 342.495 2991.95 342.495 Q2998.95 342.495 3003.03 337.275 Q3007.13 332.056 3007.13 323.08 Q3007.13 314.072 3003.03 308.853 Q2998.95 303.633 2991.95 303.633 M3000.96 345.933 L3009.42 355.195 L3001.66 355.195 L2994.62 347.588 Q2993.57 347.651 2993 347.683 Q2992.46 347.715 2991.95 347.715 Q2981.92 347.715 2975.91 341.031 Q2969.92 334.315 2969.92 323.08 Q2969.92 311.813 2975.91 305.129 Q2981.92 298.413 2991.95 298.413 Q3001.94 298.413 3007.93 305.129 Q3013.91 311.813 3013.91 323.08 Q3013.91 331.355 3010.57 337.244 Q3007.26 343.132 3000.96 345.933 Z" fill="#000000" fill-rule="evenodd" fill-opacity="1" /><path clip-path="url(#clip1000)" d="M 0 0 M3019.45 332.724 L3019.45 311.144 L3025.31 311.144 L3025.31 332.501 Q3025.31 337.562 3027.28 340.108 Q3029.25 342.623 3033.2 342.623 Q3037.94 342.623 3040.68 339.599 Q3043.45 336.575 3043.45 331.355 L3043.45 311.144 L3049.3 311.144 L3049.3 346.792 L3043.45 346.792 L3043.45 341.318 Q3041.31 344.564 3038.48 346.156 Q3035.68 347.715 3031.96 347.715 Q3025.81 347.715 3022.63 343.896 Q3019.45 340.076 3019.45 332.724 M3034.19 310.285 L3034.19 310.285 Z" fill="#000000" fill-rule="evenodd" fill-opacity="1" /><path clip-path="url(#clip1000)" d="M 0 0 M3071.65 328.873 Q3064.55 328.873 3061.81 330.496 Q3059.08 332.119 3059.08 336.034 Q3059.08 339.153 3061.11 340.999 Q3063.18 342.814 3066.71 342.814 Q3071.58 342.814 3074.51 339.376 Q3077.47 335.907 3077.47 330.178 L3077.47 328.873 L3071.65 328.873 M3083.33 326.454 L3083.33 346.792 L3077.47 346.792 L3077.47 341.381 Q3075.47 344.628 3072.47 346.187 Q3069.48 347.715 3065.15 347.715 Q3059.68 347.715 3056.43 344.66 Q3053.22 341.572 3053.22 336.416 Q3053.22 330.4 3057.23 327.345 Q3061.27 324.289 3069.26 324.289 L3077.47 324.289 L3077.47 323.716 Q3077.47 319.674 3074.8 317.478 Q3072.16 315.25 3067.35 315.25 Q3064.29 315.25 3061.4 315.982 Q3058.5 316.714 3055.83 318.178 L3055.83 312.767 Q3059.04 311.526 3062.07 310.921 Q3065.09 310.285 3067.96 310.285 Q3075.69 310.285 3079.51 314.295 Q3083.33 318.306 3083.33 326.454 Z" fill="#000000" fill-rule="evenodd" fill-opacity="1" /><path clip-path="url(#clip1000)" d="M 0 0 M3112.93 316.555 L3112.93 297.267 L3118.79 297.267 L3118.79 346.792 L3112.93 346.792 L3112.93 341.445 Q3111.08 344.628 3108.25 346.187 Q3105.45 347.715 3101.5 347.715 Q3095.04 347.715 3090.97 342.559 Q3086.93 337.403 3086.93 329 Q3086.93 320.597 3090.97 315.441 Q3095.04 310.285 3101.5 310.285 Q3105.45 310.285 3108.25 311.844 Q3111.08 313.372 3112.93 316.555 M3092.97 329 Q3092.97 335.461 3095.61 339.153 Q3098.29 342.814 3102.93 342.814 Q3107.58 342.814 3110.26 339.153 Q3112.93 335.461 3112.93 329 Q3112.93 322.539 3110.26 318.879 Q3107.58 315.186 3102.93 315.186 Q3098.29 315.186 3095.61 318.879 Q3092.97 322.539 3092.97 329 Z" fill="#000000" fill-rule="evenodd" fill-opacity="1" /><path clip-path="url(#clip1000)" d="M 0 0 M3147.59 341.381 L3158.09 341.381 L3158.09 305.129 L3146.67 307.42 L3146.67 301.564 L3158.03 299.272 L3164.46 299.272 L3164.46 341.381 L3174.96 341.381 L3174.96 346.792 L3147.59 346.792 L3147.59 341.381 Z" fill="#000000" fill-rule="evenodd" fill-opacity="1" /><polyline clip-path="url(#clip1000)" style="stroke:#e26f46; stroke-width:16; stroke-opacity:1; fill:none" points="
  2745.92,383.512 2937.92,383.512 
  "/>
<path clip-path="url(#clip1000)" d="M 0 0 M2991.95 364.113 Q2984.95 364.113 2980.81 369.333 Q2976.7 374.552 2976.7 383.56 Q2976.7 392.536 2980.81 397.755 Q2984.95 402.975 2991.95 402.975 Q2998.95 402.975 3003.03 397.755 Q3007.13 392.536 3007.13 383.56 Q3007.13 374.552 3003.03 369.333 Q2998.95 364.113 2991.95 364.113 M3000.96 406.413 L3009.42 415.675 L3001.66 415.675 L2994.62 408.068 Q2993.57 408.131 2993 408.163 Q2992.46 408.195 2991.95 408.195 Q2981.92 408.195 2975.91 401.511 Q2969.92 394.795 2969.92 383.56 Q2969.92 372.293 2975.91 365.609 Q2981.92 358.893 2991.95 358.893 Q3001.94 358.893 3007.93 365.609 Q3013.91 372.293 3013.91 383.56 Q3013.91 391.835 3010.57 397.724 Q3007.26 403.612 3000.96 406.413 Z" fill="#000000" fill-rule="evenodd" fill-opacity="1" /><path clip-path="url(#clip1000)" d="M 0 0 M3019.45 393.204 L3019.45 371.624 L3025.31 371.624 L3025.31 392.981 Q3025.31 398.042 3027.28 400.588 Q3029.25 403.103 3033.2 403.103 Q3037.94 403.103 3040.68 400.079 Q3043.45 397.055 3043.45 391.835 L3043.45 371.624 L3049.3 371.624 L3049.3 407.272 L3043.45 407.272 L3043.45 401.798 Q3041.31 405.044 3038.48 406.636 Q3035.68 408.195 3031.96 408.195 Q3025.81 408.195 3022.63 404.376 Q3019.45 400.556 3019.45 393.204 M3034.19 370.765 L3034.19 370.765 Z" fill="#000000" fill-rule="evenodd" fill-opacity="1" /><path clip-path="url(#clip1000)" d="M 0 0 M3071.65 389.353 Q3064.55 389.353 3061.81 390.976 Q3059.08 392.599 3059.08 396.514 Q3059.08 399.633 3061.11 401.479 Q3063.18 403.294 3066.71 403.294 Q3071.58 403.294 3074.51 399.856 Q3077.47 396.387 3077.47 390.658 L3077.47 389.353 L3071.65 389.353 M3083.33 386.934 L3083.33 407.272 L3077.47 407.272 L3077.47 401.861 Q3075.47 405.108 3072.47 406.667 Q3069.48 408.195 3065.15 408.195 Q3059.68 408.195 3056.43 405.14 Q3053.22 402.052 3053.22 396.896 Q3053.22 390.88 3057.23 387.825 Q3061.27 384.769 3069.26 384.769 L3077.47 384.769 L3077.47 384.196 Q3077.47 380.154 3074.8 377.958 Q3072.16 375.73 3067.35 375.73 Q3064.29 375.73 3061.4 376.462 Q3058.5 377.194 3055.83 378.658 L3055.83 373.247 Q3059.04 372.006 3062.07 371.401 Q3065.09 370.765 3067.96 370.765 Q3075.69 370.765 3079.51 374.775 Q3083.33 378.786 3083.33 386.934 Z" fill="#000000" fill-rule="evenodd" fill-opacity="1" /><path clip-path="url(#clip1000)" d="M 0 0 M3112.93 377.035 L3112.93 357.747 L3118.79 357.747 L3118.79 407.272 L3112.93 407.272 L3112.93 401.925 Q3111.08 405.108 3108.25 406.667 Q3105.45 408.195 3101.5 408.195 Q3095.04 408.195 3090.97 403.039 Q3086.93 397.883 3086.93 389.48 Q3086.93 381.077 3090.97 375.921 Q3095.04 370.765 3101.5 370.765 Q3105.45 370.765 3108.25 372.324 Q3111.08 373.852 3112.93 377.035 M3092.97 389.48 Q3092.97 395.941 3095.61 399.633 Q3098.29 403.294 3102.93 403.294 Q3107.58 403.294 3110.26 399.633 Q3112.93 395.941 3112.93 389.48 Q3112.93 383.019 3110.26 379.359 Q3107.58 375.666 3102.93 375.666 Q3098.29 375.666 3095.61 379.359 Q3092.97 383.019 3092.97 389.48 Z" fill="#000000" fill-rule="evenodd" fill-opacity="1" /><path clip-path="url(#clip1000)" d="M 0 0 M3152.01 401.861 L3174.45 401.861 L3174.45 407.272 L3144.28 407.272 L3144.28 401.861 Q3147.94 398.074 3154.24 391.708 Q3160.58 385.31 3162.2 383.464 Q3165.29 379.995 3166.5 377.608 Q3167.74 375.189 3167.74 372.865 Q3167.74 369.078 3165.06 366.691 Q3162.42 364.304 3158.16 364.304 Q3155.13 364.304 3151.76 365.354 Q3148.42 366.404 3144.6 368.537 L3144.6 362.044 Q3148.48 360.484 3151.86 359.688 Q3155.23 358.893 3158.03 358.893 Q3165.41 358.893 3169.81 362.585 Q3174.2 366.277 3174.2 372.452 Q3174.2 375.38 3173.08 378.022 Q3172 380.632 3169.11 384.196 Q3168.31 385.119 3164.05 389.544 Q3159.78 393.936 3152.01 401.861 Z" fill="#000000" fill-rule="evenodd" fill-opacity="1" /><polyline clip-path="url(#clip1000)" style="stroke:#3da44d; stroke-width:16; stroke-opacity:1; fill:none" points="
  2745.92,443.992 2937.92,443.992 
  "/>
<path clip-path="url(#clip1000)" d="M 0 0 M2991.95 424.593 Q2984.95 424.593 2980.81 429.813 Q2976.7 435.032 2976.7 444.04 Q2976.7 453.016 2980.81 458.235 Q2984.95 463.455 2991.95 463.455 Q2998.95 463.455 3003.03 458.235 Q3007.13 453.016 3007.13 444.04 Q3007.13 435.032 3003.03 429.813 Q2998.95 424.593 2991.95 424.593 M3000.96 466.893 L3009.42 476.155 L3001.66 476.155 L2994.62 468.548 Q2993.57 468.611 2993 468.643 Q2992.46 468.675 2991.95 468.675 Q2981.92 468.675 2975.91 461.991 Q2969.92 455.275 2969.92 444.04 Q2969.92 432.773 2975.91 426.089 Q2981.92 419.373 2991.95 419.373 Q3001.94 419.373 3007.93 426.089 Q3013.91 432.773 3013.91 444.04 Q3013.91 452.315 3010.57 458.204 Q3007.26 464.092 3000.96 466.893 Z" fill="#000000" fill-rule="evenodd" fill-opacity="1" /><path clip-path="url(#clip1000)" d="M 0 0 M3019.45 453.684 L3019.45 432.104 L3025.31 432.104 L3025.31 453.461 Q3025.31 458.522 3027.28 461.068 Q3029.25 463.583 3033.2 463.583 Q3037.94 463.583 3040.68 460.559 Q3043.45 457.535 3043.45 452.315 L3043.45 432.104 L3049.3 432.104 L3049.3 467.752 L3043.45 467.752 L3043.45 462.278 Q3041.31 465.524 3038.48 467.116 Q3035.68 468.675 3031.96 468.675 Q3025.81 468.675 3022.63 464.856 Q3019.45 461.036 3019.45 453.684 M3034.19 431.245 L3034.19 431.245 Z" fill="#000000" fill-rule="evenodd" fill-opacity="1" /><path clip-path="url(#clip1000)" d="M 0 0 M3071.65 449.833 Q3064.55 449.833 3061.81 451.456 Q3059.08 453.079 3059.08 456.994 Q3059.08 460.113 3061.11 461.959 Q3063.18 463.774 3066.71 463.774 Q3071.58 463.774 3074.51 460.336 Q3077.47 456.867 3077.47 451.138 L3077.47 449.833 L3071.65 449.833 M3083.33 447.414 L3083.33 467.752 L3077.47 467.752 L3077.47 462.341 Q3075.47 465.588 3072.47 467.147 Q3069.48 468.675 3065.15 468.675 Q3059.68 468.675 3056.43 465.62 Q3053.22 462.532 3053.22 457.376 Q3053.22 451.36 3057.23 448.305 Q3061.27 445.249 3069.26 445.249 L3077.47 445.249 L3077.47 444.676 Q3077.47 440.634 3074.8 438.438 Q3072.16 436.21 3067.35 436.21 Q3064.29 436.21 3061.4 436.942 Q3058.5 437.674 3055.83 439.138 L3055.83 433.727 Q3059.04 432.486 3062.07 431.881 Q3065.09 431.245 3067.96 431.245 Q3075.69 431.245 3079.51 435.255 Q3083.33 439.266 3083.33 447.414 Z" fill="#000000" fill-rule="evenodd" fill-opacity="1" /><path clip-path="url(#clip1000)" d="M 0 0 M3112.93 437.515 L3112.93 418.227 L3118.79 418.227 L3118.79 467.752 L3112.93 467.752 L3112.93 462.405 Q3111.08 465.588 3108.25 467.147 Q3105.45 468.675 3101.5 468.675 Q3095.04 468.675 3090.97 463.519 Q3086.93 458.363 3086.93 449.96 Q3086.93 441.557 3090.97 436.401 Q3095.04 431.245 3101.5 431.245 Q3105.45 431.245 3108.25 432.804 Q3111.08 434.332 3112.93 437.515 M3092.97 449.96 Q3092.97 456.421 3095.61 460.113 Q3098.29 463.774 3102.93 463.774 Q3107.58 463.774 3110.26 460.113 Q3112.93 456.421 3112.93 449.96 Q3112.93 443.499 3110.26 439.839 Q3107.58 436.146 3102.93 436.146 Q3098.29 436.146 3095.61 439.839 Q3092.97 443.499 3092.97 449.96 Z" fill="#000000" fill-rule="evenodd" fill-opacity="1" /><path clip-path="url(#clip1000)" d="M 0 0 M3165.96 442.13 Q3170.57 443.117 3173.15 446.236 Q3175.76 449.355 3175.76 453.939 Q3175.76 460.973 3170.92 464.824 Q3166.08 468.675 3157.17 468.675 Q3154.18 468.675 3151 468.07 Q3147.84 467.497 3144.47 466.32 L3144.47 460.113 Q3147.14 461.673 3150.33 462.469 Q3153.51 463.264 3156.98 463.264 Q3163.03 463.264 3166.18 460.877 Q3169.36 458.49 3169.36 453.939 Q3169.36 449.737 3166.4 447.382 Q3163.47 444.995 3158.22 444.995 L3152.68 444.995 L3152.68 439.711 L3158.48 439.711 Q3163.22 439.711 3165.73 437.833 Q3168.25 435.924 3168.25 432.359 Q3168.25 428.699 3165.64 426.757 Q3163.06 424.784 3158.22 424.784 Q3155.58 424.784 3152.56 425.357 Q3149.53 425.929 3145.9 427.139 L3145.9 421.41 Q3149.56 420.391 3152.75 419.882 Q3155.96 419.373 3158.79 419.373 Q3166.11 419.373 3170.38 422.715 Q3174.64 426.025 3174.64 431.69 Q3174.64 435.637 3172.38 438.374 Q3170.12 441.08 3165.96 442.13 Z" fill="#000000" fill-rule="evenodd" fill-opacity="1" /><polyline clip-path="url(#clip1000)" style="stroke:#c271d2; stroke-width:16; stroke-opacity:1; fill:none" points="
  2745.92,504.472 2937.92,504.472 
  "/>
<path clip-path="url(#clip1000)" d="M 0 0 M2991.95 485.073 Q2984.95 485.073 2980.81 490.293 Q2976.7 495.512 2976.7 504.52 Q2976.7 513.496 2980.81 518.715 Q2984.95 523.935 2991.95 523.935 Q2998.95 523.935 3003.03 518.715 Q3007.13 513.496 3007.13 504.52 Q3007.13 495.512 3003.03 490.293 Q2998.95 485.073 2991.95 485.073 M3000.96 527.373 L3009.42 536.635 L3001.66 536.635 L2994.62 529.028 Q2993.57 529.091 2993 529.123 Q2992.46 529.155 2991.95 529.155 Q2981.92 529.155 2975.91 522.471 Q2969.92 515.755 2969.92 504.52 Q2969.92 493.253 2975.91 486.569 Q2981.92 479.853 2991.95 479.853 Q3001.94 479.853 3007.93 486.569 Q3013.91 493.253 3013.91 504.52 Q3013.91 512.795 3010.57 518.684 Q3007.26 524.572 3000.96 527.373 Z" fill="#000000" fill-rule="evenodd" fill-opacity="1" /><path clip-path="url(#clip1000)" d="M 0 0 M3019.45 514.164 L3019.45 492.584 L3025.31 492.584 L3025.31 513.941 Q3025.31 519.002 3027.28 521.548 Q3029.25 524.063 3033.2 524.063 Q3037.94 524.063 3040.68 521.039 Q3043.45 518.015 3043.45 512.795 L3043.45 492.584 L3049.3 492.584 L3049.3 528.232 L3043.45 528.232 L3043.45 522.758 Q3041.31 526.004 3038.48 527.596 Q3035.68 529.155 3031.96 529.155 Q3025.81 529.155 3022.63 525.336 Q3019.45 521.516 3019.45 514.164 M3034.19 491.725 L3034.19 491.725 Z" fill="#000000" fill-rule="evenodd" fill-opacity="1" /><path clip-path="url(#clip1000)" d="M 0 0 M3071.65 510.313 Q3064.55 510.313 3061.81 511.936 Q3059.08 513.559 3059.08 517.474 Q3059.08 520.593 3061.11 522.439 Q3063.18 524.254 3066.71 524.254 Q3071.58 524.254 3074.51 520.816 Q3077.47 517.347 3077.47 511.618 L3077.47 510.313 L3071.65 510.313 M3083.33 507.894 L3083.33 528.232 L3077.47 528.232 L3077.47 522.821 Q3075.47 526.068 3072.47 527.627 Q3069.48 529.155 3065.15 529.155 Q3059.68 529.155 3056.43 526.1 Q3053.22 523.012 3053.22 517.856 Q3053.22 511.84 3057.23 508.785 Q3061.27 505.729 3069.26 505.729 L3077.47 505.729 L3077.47 505.156 Q3077.47 501.114 3074.8 498.918 Q3072.16 496.69 3067.35 496.69 Q3064.29 496.69 3061.4 497.422 Q3058.5 498.154 3055.83 499.618 L3055.83 494.207 Q3059.04 492.966 3062.07 492.361 Q3065.09 491.725 3067.96 491.725 Q3075.69 491.725 3079.51 495.735 Q3083.33 499.746 3083.33 507.894 Z" fill="#000000" fill-rule="evenodd" fill-opacity="1" /><path clip-path="url(#clip1000)" d="M 0 0 M3112.93 497.995 L3112.93 478.707 L3118.79 478.707 L3118.79 528.232 L3112.93 528.232 L3112.93 522.885 Q3111.08 526.068 3108.25 527.627 Q3105.45 529.155 3101.5 529.155 Q3095.04 529.155 3090.97 523.999 Q3086.93 518.843 3086.93 510.44 Q3086.93 502.037 3090.97 496.881 Q3095.04 491.725 3101.5 491.725 Q3105.45 491.725 3108.25 493.284 Q3111.08 494.812 3112.93 497.995 M3092.97 510.44 Q3092.97 516.901 3095.61 520.593 Q3098.29 524.254 3102.93 524.254 Q3107.58 524.254 3110.26 520.593 Q3112.93 516.901 3112.93 510.44 Q3112.93 503.979 3110.26 500.319 Q3107.58 496.626 3102.93 496.626 Q3098.29 496.626 3095.61 500.319 Q3092.97 503.979 3092.97 510.44 Z" fill="#000000" fill-rule="evenodd" fill-opacity="1" /><path clip-path="url(#clip1000)" d="M 0 0 M3164.14 486.314 L3147.91 511.681 L3164.14 511.681 L3164.14 486.314 M3162.45 480.712 L3170.54 480.712 L3170.54 511.681 L3177.32 511.681 L3177.32 517.028 L3170.54 517.028 L3170.54 528.232 L3164.14 528.232 L3164.14 517.028 L3142.69 517.028 L3142.69 510.822 L3162.45 480.712 Z" fill="#000000" fill-rule="evenodd" fill-opacity="1" /><polyline clip-path="url(#clip1000)" style="stroke:#ac8d18; stroke-width:16; stroke-opacity:1; fill:none" points="
  2745.92,564.952 2937.92,564.952 
  "/>
<path clip-path="url(#clip1000)" d="M 0 0 M2991.95 545.553 Q2984.95 545.553 2980.81 550.773 Q2976.7 555.992 2976.7 565 Q2976.7 573.976 2980.81 579.195 Q2984.95 584.415 2991.95 584.415 Q2998.95 584.415 3003.03 579.195 Q3007.13 573.976 3007.13 565 Q3007.13 555.992 3003.03 550.773 Q2998.95 545.553 2991.95 545.553 M3000.96 587.853 L3009.42 597.115 L3001.66 597.115 L2994.62 589.508 Q2993.57 589.571 2993 589.603 Q2992.46 589.635 2991.95 589.635 Q2981.92 589.635 2975.91 582.951 Q2969.92 576.235 2969.92 565 Q2969.92 553.733 2975.91 547.049 Q2981.92 540.333 2991.95 540.333 Q3001.94 540.333 3007.93 547.049 Q3013.91 553.733 3013.91 565 Q3013.91 573.275 3010.57 579.164 Q3007.26 585.052 3000.96 587.853 Z" fill="#000000" fill-rule="evenodd" fill-opacity="1" /><path clip-path="url(#clip1000)" d="M 0 0 M3019.45 574.644 L3019.45 553.064 L3025.31 553.064 L3025.31 574.421 Q3025.31 579.482 3027.28 582.028 Q3029.25 584.543 3033.2 584.543 Q3037.94 584.543 3040.68 581.519 Q3043.45 578.495 3043.45 573.275 L3043.45 553.064 L3049.3 553.064 L3049.3 588.712 L3043.45 588.712 L3043.45 583.238 Q3041.31 586.484 3038.48 588.076 Q3035.68 589.635 3031.96 589.635 Q3025.81 589.635 3022.63 585.816 Q3019.45 581.996 3019.45 574.644 M3034.19 552.205 L3034.19 552.205 Z" fill="#000000" fill-rule="evenodd" fill-opacity="1" /><path clip-path="url(#clip1000)" d="M 0 0 M3071.65 570.793 Q3064.55 570.793 3061.81 572.416 Q3059.08 574.039 3059.08 577.954 Q3059.08 581.073 3061.11 582.919 Q3063.18 584.734 3066.71 584.734 Q3071.58 584.734 3074.51 581.296 Q3077.47 577.827 3077.47 572.098 L3077.47 570.793 L3071.65 570.793 M3083.33 568.374 L3083.33 588.712 L3077.47 588.712 L3077.47 583.301 Q3075.47 586.548 3072.47 588.107 Q3069.48 589.635 3065.15 589.635 Q3059.68 589.635 3056.43 586.58 Q3053.22 583.492 3053.22 578.336 Q3053.22 572.32 3057.23 569.265 Q3061.27 566.209 3069.26 566.209 L3077.47 566.209 L3077.47 565.636 Q3077.47 561.594 3074.8 559.398 Q3072.16 557.17 3067.35 557.17 Q3064.29 557.17 3061.4 557.902 Q3058.5 558.634 3055.83 560.098 L3055.83 554.687 Q3059.04 553.446 3062.07 552.841 Q3065.09 552.205 3067.96 552.205 Q3075.69 552.205 3079.51 556.215 Q3083.33 560.226 3083.33 568.374 Z" fill="#000000" fill-rule="evenodd" fill-opacity="1" /><path clip-path="url(#clip1000)" d="M 0 0 M3112.93 558.475 L3112.93 539.187 L3118.79 539.187 L3118.79 588.712 L3112.93 588.712 L3112.93 583.365 Q3111.08 586.548 3108.25 588.107 Q3105.45 589.635 3101.5 589.635 Q3095.04 589.635 3090.97 584.479 Q3086.93 579.323 3086.93 570.92 Q3086.93 562.517 3090.97 557.361 Q3095.04 552.205 3101.5 552.205 Q3105.45 552.205 3108.25 553.764 Q3111.08 555.292 3112.93 558.475 M3092.97 570.92 Q3092.97 577.381 3095.61 581.073 Q3098.29 584.734 3102.93 584.734 Q3107.58 584.734 3110.26 581.073 Q3112.93 577.381 3112.93 570.92 Q3112.93 564.459 3110.26 560.799 Q3107.58 557.106 3102.93 557.106 Q3098.29 557.106 3095.61 560.799 Q3092.97 564.459 3092.97 570.92 Z" fill="#000000" fill-rule="evenodd" fill-opacity="1" /><path clip-path="url(#clip1000)" d="M 0 0 M3146.54 541.192 L3171.78 541.192 L3171.78 546.603 L3152.43 546.603 L3152.43 558.252 Q3153.83 557.775 3155.23 557.552 Q3156.63 557.297 3158.03 557.297 Q3165.99 557.297 3170.63 561.658 Q3175.28 566.018 3175.28 573.466 Q3175.28 581.137 3170.51 585.402 Q3165.73 589.635 3157.04 589.635 Q3154.05 589.635 3150.93 589.126 Q3147.84 588.617 3144.53 587.598 L3144.53 581.137 Q3147.4 582.697 3150.45 583.46 Q3153.51 584.224 3156.92 584.224 Q3162.42 584.224 3165.64 581.328 Q3168.85 578.432 3168.85 573.466 Q3168.85 568.501 3165.64 565.605 Q3162.42 562.708 3156.92 562.708 Q3154.34 562.708 3151.76 563.281 Q3149.21 563.854 3146.54 565.064 L3146.54 541.192 Z" fill="#000000" fill-rule="evenodd" fill-opacity="1" /><polyline clip-path="url(#clip1000)" style="stroke:#00a9ad; stroke-width:16; stroke-opacity:1; fill:none" points="
  2745.92,625.432 2937.92,625.432 
  "/>
<path clip-path="url(#clip1000)" d="M 0 0 M2991.95 606.033 Q2984.95 606.033 2980.81 611.253 Q2976.7 616.472 2976.7 625.48 Q2976.7 634.456 2980.81 639.675 Q2984.95 644.895 2991.95 644.895 Q2998.95 644.895 3003.03 639.675 Q3007.13 634.456 3007.13 625.48 Q3007.13 616.472 3003.03 611.253 Q2998.95 606.033 2991.95 606.033 M3000.96 648.333 L3009.42 657.595 L3001.66 657.595 L2994.62 649.988 Q2993.57 650.051 2993 650.083 Q2992.46 650.115 2991.95 650.115 Q2981.92 650.115 2975.91 643.431 Q2969.92 636.715 2969.92 625.48 Q2969.92 614.213 2975.91 607.529 Q2981.92 600.813 2991.95 600.813 Q3001.94 600.813 3007.93 607.529 Q3013.91 614.213 3013.91 625.48 Q3013.91 633.755 3010.57 639.644 Q3007.26 645.532 3000.96 648.333 Z" fill="#000000" fill-rule="evenodd" fill-opacity="1" /><path clip-path="url(#clip1000)" d="M 0 0 M3019.45 635.124 L3019.45 613.544 L3025.31 613.544 L3025.31 634.901 Q3025.31 639.962 3027.28 642.508 Q3029.25 645.023 3033.2 645.023 Q3037.94 645.023 3040.68 641.999 Q3043.45 638.975 3043.45 633.755 L3043.45 613.544 L3049.3 613.544 L3049.3 649.192 L3043.45 649.192 L3043.45 643.718 Q3041.31 646.964 3038.48 648.556 Q3035.68 650.115 3031.96 650.115 Q3025.81 650.115 3022.63 646.296 Q3019.45 642.476 3019.45 635.124 M3034.19 612.685 L3034.19 612.685 Z" fill="#000000" fill-rule="evenodd" fill-opacity="1" /><path clip-path="url(#clip1000)" d="M 0 0 M3071.65 631.273 Q3064.55 631.273 3061.81 632.896 Q3059.08 634.519 3059.08 638.434 Q3059.08 641.553 3061.11 643.399 Q3063.18 645.214 3066.71 645.214 Q3071.58 645.214 3074.51 641.776 Q3077.47 638.307 3077.47 632.578 L3077.47 631.273 L3071.65 631.273 M3083.33 628.854 L3083.33 649.192 L3077.47 649.192 L3077.47 643.781 Q3075.47 647.028 3072.47 648.587 Q3069.48 650.115 3065.15 650.115 Q3059.68 650.115 3056.43 647.06 Q3053.22 643.972 3053.22 638.816 Q3053.22 632.8 3057.23 629.745 Q3061.27 626.689 3069.26 626.689 L3077.47 626.689 L3077.47 626.116 Q3077.47 622.074 3074.8 619.878 Q3072.16 617.65 3067.35 617.65 Q3064.29 617.65 3061.4 618.382 Q3058.5 619.114 3055.83 620.578 L3055.83 615.167 Q3059.04 613.926 3062.07 613.321 Q3065.09 612.685 3067.96 612.685 Q3075.69 612.685 3079.51 616.695 Q3083.33 620.706 3083.33 628.854 Z" fill="#000000" fill-rule="evenodd" fill-opacity="1" /><path clip-path="url(#clip1000)" d="M 0 0 M3112.93 618.955 L3112.93 599.667 L3118.79 599.667 L3118.79 649.192 L3112.93 649.192 L3112.93 643.845 Q3111.08 647.028 3108.25 648.587 Q3105.45 650.115 3101.5 650.115 Q3095.04 650.115 3090.97 644.959 Q3086.93 639.803 3086.93 631.4 Q3086.93 622.997 3090.97 617.841 Q3095.04 612.685 3101.5 612.685 Q3105.45 612.685 3108.25 614.244 Q3111.08 615.772 3112.93 618.955 M3092.97 631.4 Q3092.97 637.861 3095.61 641.553 Q3098.29 645.214 3102.93 645.214 Q3107.58 645.214 3110.26 641.553 Q3112.93 637.861 3112.93 631.4 Q3112.93 624.939 3110.26 621.279 Q3107.58 617.586 3102.93 617.586 Q3098.29 617.586 3095.61 621.279 Q3092.97 624.939 3092.97 631.4 Z" fill="#000000" fill-rule="evenodd" fill-opacity="1" /><path clip-path="url(#clip1000)" d="M 0 0 M3161.02 622.87 Q3156.69 622.87 3154.15 625.83 Q3151.63 628.79 3151.63 633.946 Q3151.63 639.071 3154.15 642.063 Q3156.69 645.023 3161.02 645.023 Q3165.35 645.023 3167.87 642.063 Q3170.41 639.071 3170.41 633.946 Q3170.41 628.79 3167.87 625.83 Q3165.35 622.87 3161.02 622.87 M3173.79 602.722 L3173.79 608.579 Q3171.37 607.433 3168.88 606.828 Q3166.43 606.224 3164.01 606.224 Q3157.65 606.224 3154.27 610.52 Q3150.93 614.817 3150.45 623.506 Q3152.33 620.737 3155.17 619.273 Q3158 617.777 3161.4 617.777 Q3168.57 617.777 3172.7 622.138 Q3176.87 626.467 3176.87 633.946 Q3176.87 641.267 3172.54 645.691 Q3168.22 650.115 3161.02 650.115 Q3152.78 650.115 3148.42 643.813 Q3144.06 637.479 3144.06 625.48 Q3144.06 614.213 3149.4 607.529 Q3154.75 600.813 3163.76 600.813 Q3166.18 600.813 3168.63 601.29 Q3171.11 601.768 3173.79 602.722 Z" fill="#000000" fill-rule="evenodd" fill-opacity="1" /><polyline clip-path="url(#clip1000)" style="stroke:#ed5d92; stroke-width:16; stroke-opacity:1; fill:none" points="
  2745.92,685.912 2937.92,685.912 
  "/>
<path clip-path="url(#clip1000)" d="M 0 0 M2969.92 662.152 L2976.35 662.152 L2976.35 704.261 L2999.49 704.261 L2999.49 709.672 L2969.92 709.672 L2969.92 662.152 Z" fill="#000000" fill-rule="evenodd" fill-opacity="1" /><path clip-path="url(#clip1000)" d="M 0 0 M3018.3 678.13 Q3013.59 678.13 3010.85 681.822 Q3008.12 685.482 3008.12 691.88 Q3008.12 698.278 3010.82 701.97 Q3013.56 705.63 3018.3 705.63 Q3022.98 705.63 3025.72 701.938 Q3028.46 698.246 3028.46 691.88 Q3028.46 685.546 3025.72 681.854 Q3022.98 678.13 3018.3 678.13 M3018.3 673.165 Q3025.94 673.165 3030.3 678.13 Q3034.66 683.095 3034.66 691.88 Q3034.66 700.633 3030.3 705.63 Q3025.94 710.595 3018.3 710.595 Q3010.63 710.595 3006.27 705.63 Q3001.94 700.633 3001.94 691.88 Q3001.94 683.095 3006.27 678.13 Q3010.63 673.165 3018.3 673.165 Z" fill="#000000" fill-rule="evenodd" fill-opacity="1" /><path clip-path="url(#clip1000)" d="M 0 0 M3057.01 691.753 Q3049.91 691.753 3047.17 693.376 Q3044.43 694.999 3044.43 698.914 Q3044.43 702.033 3046.47 703.879 Q3048.54 705.694 3052.07 705.694 Q3056.94 705.694 3059.87 702.256 Q3062.83 698.787 3062.83 693.058 L3062.83 691.753 L3057.01 691.753 M3068.69 689.334 L3068.69 709.672 L3062.83 709.672 L3062.83 704.261 Q3060.83 707.508 3057.83 709.067 Q3054.84 710.595 3050.51 710.595 Q3045.04 710.595 3041.79 707.54 Q3038.58 704.452 3038.58 699.296 Q3038.58 693.28 3042.59 690.225 Q3046.63 687.169 3054.62 687.169 L3062.83 687.169 L3062.83 686.596 Q3062.83 682.554 3060.16 680.358 Q3057.52 678.13 3052.71 678.13 Q3049.65 678.13 3046.76 678.862 Q3043.86 679.594 3041.19 681.058 L3041.19 675.647 Q3044.4 674.406 3047.43 673.801 Q3050.45 673.165 3053.31 673.165 Q3061.05 673.165 3064.87 677.175 Q3068.69 681.186 3068.69 689.334 Z" fill="#000000" fill-rule="evenodd" fill-opacity="1" /><path clip-path="url(#clip1000)" d="M 0 0 M3098.29 679.435 L3098.29 660.147 L3104.14 660.147 L3104.14 709.672 L3098.29 709.672 L3098.29 704.325 Q3096.44 707.508 3093.61 709.067 Q3090.81 710.595 3086.86 710.595 Q3080.4 710.595 3076.33 705.439 Q3072.28 700.283 3072.28 691.88 Q3072.28 683.477 3076.33 678.321 Q3080.4 673.165 3086.86 673.165 Q3090.81 673.165 3093.61 674.724 Q3096.44 676.252 3098.29 679.435 M3078.33 691.88 Q3078.33 698.341 3080.97 702.033 Q3083.65 705.694 3088.29 705.694 Q3092.94 705.694 3095.61 702.033 Q3098.29 698.341 3098.29 691.88 Q3098.29 685.419 3095.61 681.759 Q3092.94 678.066 3088.29 678.066 Q3083.65 678.066 3080.97 681.759 Q3078.33 685.419 3078.33 691.88 Z" fill="#000000" fill-rule="evenodd" fill-opacity="1" /></svg>
