<?xml version="1.0" encoding="utf-8"?>
<svg xmlns="http://www.w3.org/2000/svg" xmlns:xlink="http://www.w3.org/1999/xlink" width="800" height="600" viewBox="0 0 3200 2400">
<defs>
  <clipPath id="clip1300">
    <rect x="0" y="0" width="3200" height="2400"/>
  </clipPath>
</defs>
<path clip-path="url(#clip1300)" d="
M0 2400 L3200 2400 L3200 0 L0 0  Z
  " fill="#ffffff" fill-rule="evenodd" fill-opacity="1"/>
<defs>
  <clipPath id="clip1301">
    <rect x="640" y="0" width="2241" height="2241"/>
  </clipPath>
</defs>
<path clip-path="url(#clip1300)" d="
M204.177 2204.92 L2617.92 2204.92 L2617.92 131.032 L204.177 131.032  Z
  " fill="#ffffff" fill-rule="evenodd" fill-opacity="1"/>
<defs>
  <clipPath id="clip1302">
    <rect x="204" y="131" width="2415" height="2075"/>
  </clipPath>
</defs>
<polyline clip-path="url(#clip1302)" style="stroke:#000000; stroke-width:2; stroke-opacity:0.1; fill:none" points="
  272.49,2204.92 272.49,131.032 
  "/>
<polyline clip-path="url(#clip1302)" style="stroke:#000000; stroke-width:2; stroke-opacity:0.1; fill:none" points="
  727.914,2204.92 727.914,131.032 
  "/>
<polyline clip-path="url(#clip1302)" style="stroke:#000000; stroke-width:2; stroke-opacity:0.1; fill:none" points="
  1183.34,2204.92 1183.34,131.032 
  "/>
<polyline clip-path="url(#clip1302)" style="stroke:#000000; stroke-width:2; stroke-opacity:0.1; fill:none" points="
  1638.76,2204.92 1638.76,131.032 
  "/>
<polyline clip-path="url(#clip1302)" style="stroke:#000000; stroke-width:2; stroke-opacity:0.1; fill:none" points="
  2094.19,2204.92 2094.19,131.032 
  "/>
<polyline clip-path="url(#clip1302)" style="stroke:#000000; stroke-width:2; stroke-opacity:0.1; fill:none" points="
  2549.61,2204.92 2549.61,131.032 
  "/>
<polyline clip-path="url(#clip1302)" style="stroke:#000000; stroke-width:2; stroke-opacity:0.1; fill:none" points="
  204.177,1984.7 2617.92,1984.7 
  "/>
<polyline clip-path="url(#clip1302)" style="stroke:#000000; stroke-width:2; stroke-opacity:0.1; fill:none" points="
  204.177,1704.29 2617.92,1704.29 
  "/>
<polyline clip-path="url(#clip1302)" style="stroke:#000000; stroke-width:2; stroke-opacity:0.1; fill:none" points="
  204.177,1423.87 2617.92,1423.87 
  "/>
<polyline clip-path="url(#clip1302)" style="stroke:#000000; stroke-width:2; stroke-opacity:0.1; fill:none" points="
  204.177,1143.45 2617.92,1143.45 
  "/>
<polyline clip-path="url(#clip1302)" style="stroke:#000000; stroke-width:2; stroke-opacity:0.1; fill:none" points="
  204.177,863.034 2617.92,863.034 
  "/>
<polyline clip-path="url(#clip1302)" style="stroke:#000000; stroke-width:2; stroke-opacity:0.1; fill:none" points="
  204.177,582.616 2617.92,582.616 
  "/>
<polyline clip-path="url(#clip1302)" style="stroke:#000000; stroke-width:2; stroke-opacity:0.1; fill:none" points="
  204.177,302.199 2617.92,302.199 
  "/>
<polyline clip-path="url(#clip1300)" style="stroke:#000000; stroke-width:4; stroke-opacity:1; fill:none" points="
  204.177,2204.92 2617.92,2204.92 
  "/>
<polyline clip-path="url(#clip1300)" style="stroke:#000000; stroke-width:4; stroke-opacity:1; fill:none" points="
  204.177,2204.92 204.177,131.032 
  "/>
<polyline clip-path="url(#clip1300)" style="stroke:#000000; stroke-width:4; stroke-opacity:1; fill:none" points="
  272.49,2204.92 272.49,2180.03 
  "/>
<polyline clip-path="url(#clip1300)" style="stroke:#000000; stroke-width:4; stroke-opacity:1; fill:none" points="
  727.914,2204.92 727.914,2180.03 
  "/>
<polyline clip-path="url(#clip1300)" style="stroke:#000000; stroke-width:4; stroke-opacity:1; fill:none" points="
  1183.34,2204.92 1183.34,2180.03 
  "/>
<polyline clip-path="url(#clip1300)" style="stroke:#000000; stroke-width:4; stroke-opacity:1; fill:none" points="
  1638.76,2204.92 1638.76,2180.03 
  "/>
<polyline clip-path="url(#clip1300)" style="stroke:#000000; stroke-width:4; stroke-opacity:1; fill:none" points="
  2094.19,2204.92 2094.19,2180.03 
  "/>
<polyline clip-path="url(#clip1300)" style="stroke:#000000; stroke-width:4; stroke-opacity:1; fill:none" points="
  2549.61,2204.92 2549.61,2180.03 
  "/>
<polyline clip-path="url(#clip1300)" style="stroke:#000000; stroke-width:4; stroke-opacity:1; fill:none" points="
  204.177,1984.7 233.142,1984.7 
  "/>
<polyline clip-path="url(#clip1300)" style="stroke:#000000; stroke-width:4; stroke-opacity:1; fill:none" points="
  204.177,1704.29 233.142,1704.29 
  "/>
<polyline clip-path="url(#clip1300)" style="stroke:#000000; stroke-width:4; stroke-opacity:1; fill:none" points="
  204.177,1423.87 233.142,1423.87 
  "/>
<polyline clip-path="url(#clip1300)" style="stroke:#000000; stroke-width:4; stroke-opacity:1; fill:none" points="
  204.177,1143.45 233.142,1143.45 
  "/>
<polyline clip-path="url(#clip1300)" style="stroke:#000000; stroke-width:4; stroke-opacity:1; fill:none" points="
  204.177,863.034 233.142,863.034 
  "/>
<polyline clip-path="url(#clip1300)" style="stroke:#000000; stroke-width:4; stroke-opacity:1; fill:none" points="
  204.177,582.616 233.142,582.616 
  "/>
<polyline clip-path="url(#clip1300)" style="stroke:#000000; stroke-width:4; stroke-opacity:1; fill:none" points="
  204.177,302.199 233.142,302.199 
  "/>
<path clip-path="url(#clip1300)" d="M 0 0 M272.49 2230.91 Q268.879 2230.91 267.051 2234.48 Q265.245 2238.02 265.245 2245.15 Q265.245 2252.25 267.051 2255.82 Q268.879 2259.36 272.49 2259.36 Q276.125 2259.36 277.93 2255.82 Q279.759 2252.25 279.759 2245.15 Q279.759 2238.02 277.93 2234.48 Q276.125 2230.91 272.49 2230.91 M272.49 2227.21 Q278.301 2227.21 281.356 2231.81 Q284.435 2236.4 284.435 2245.15 Q284.435 2253.87 281.356 2258.48 Q278.301 2263.06 272.49 2263.06 Q266.68 2263.06 263.602 2258.48 Q260.546 2253.87 260.546 2245.15 Q260.546 2236.4 263.602 2231.81 Q266.68 2227.21 272.49 2227.21 Z" fill="#000000" fill-rule="evenodd" fill-opacity="1" /><path clip-path="url(#clip1300)" d="M 0 0 M718.296 2258.46 L725.935 2258.46 L725.935 2232.09 L717.625 2233.76 L717.625 2229.5 L725.889 2227.83 L730.565 2227.83 L730.565 2258.46 L738.204 2258.46 L738.204 2262.39 L718.296 2262.39 L718.296 2258.46 Z" fill="#000000" fill-rule="evenodd" fill-opacity="1" /><path clip-path="url(#clip1300)" d="M 0 0 M1177.99 2258.46 L1194.31 2258.46 L1194.31 2262.39 L1172.37 2262.39 L1172.37 2258.46 Q1175.03 2255.7 1179.61 2251.07 Q1184.22 2246.42 1185.4 2245.08 Q1187.64 2242.55 1188.52 2240.82 Q1189.43 2239.06 1189.43 2237.37 Q1189.43 2234.61 1187.48 2232.88 Q1185.56 2231.14 1182.46 2231.14 Q1180.26 2231.14 1177.81 2231.91 Q1175.38 2232.67 1172.6 2234.22 L1172.6 2229.5 Q1175.42 2228.36 1177.88 2227.79 Q1180.33 2227.21 1182.37 2227.21 Q1187.74 2227.21 1190.93 2229.89 Q1194.13 2232.58 1194.13 2237.07 Q1194.13 2239.2 1193.31 2241.12 Q1192.53 2243.02 1190.42 2245.61 Q1189.84 2246.28 1186.74 2249.5 Q1183.64 2252.69 1177.99 2258.46 Z" fill="#000000" fill-rule="evenodd" fill-opacity="1" /><path clip-path="url(#clip1300)" d="M 0 0 M1643.01 2243.76 Q1646.37 2244.48 1648.24 2246.74 Q1650.14 2249.01 1650.14 2252.35 Q1650.14 2257.46 1646.62 2260.26 Q1643.1 2263.06 1636.62 2263.06 Q1634.44 2263.06 1632.13 2262.62 Q1629.84 2262.21 1627.38 2261.35 L1627.38 2256.84 Q1629.33 2257.97 1631.64 2258.55 Q1633.96 2259.13 1636.48 2259.13 Q1640.88 2259.13 1643.17 2257.39 Q1645.49 2255.66 1645.49 2252.35 Q1645.49 2249.29 1643.33 2247.58 Q1641.2 2245.84 1637.38 2245.84 L1633.36 2245.84 L1633.36 2242 L1637.57 2242 Q1641.02 2242 1642.85 2240.63 Q1644.68 2239.24 1644.68 2236.65 Q1644.68 2233.99 1642.78 2232.58 Q1640.9 2231.14 1637.38 2231.14 Q1635.46 2231.14 1633.26 2231.56 Q1631.07 2231.98 1628.43 2232.85 L1628.43 2228.69 Q1631.09 2227.95 1633.4 2227.58 Q1635.74 2227.21 1637.8 2227.21 Q1643.13 2227.21 1646.23 2229.64 Q1649.33 2232.04 1649.33 2236.17 Q1649.33 2239.04 1647.69 2241.03 Q1646.04 2242.99 1643.01 2243.76 Z" fill="#000000" fill-rule="evenodd" fill-opacity="1" /><path clip-path="url(#clip1300)" d="M 0 0 M2097.2 2231.91 L2085.39 2250.35 L2097.2 2250.35 L2097.2 2231.91 M2095.97 2227.83 L2101.85 2227.83 L2101.85 2250.35 L2106.78 2250.35 L2106.78 2254.24 L2101.85 2254.24 L2101.85 2262.39 L2097.2 2262.39 L2097.2 2254.24 L2081.59 2254.24 L2081.59 2249.73 L2095.97 2227.83 Z" fill="#000000" fill-rule="evenodd" fill-opacity="1" /><path clip-path="url(#clip1300)" d="M 0 0 M2539.89 2227.83 L2558.24 2227.83 L2558.24 2231.77 L2544.17 2231.77 L2544.17 2240.24 Q2545.19 2239.89 2546.21 2239.73 Q2547.23 2239.54 2548.24 2239.54 Q2554.03 2239.54 2557.41 2242.72 Q2560.79 2245.89 2560.79 2251.3 Q2560.79 2256.88 2557.32 2259.98 Q2553.85 2263.06 2547.53 2263.06 Q2545.35 2263.06 2543.08 2262.69 Q2540.84 2262.32 2538.43 2261.58 L2538.43 2256.88 Q2540.51 2258.02 2542.73 2258.57 Q2544.96 2259.13 2547.43 2259.13 Q2551.44 2259.13 2553.78 2257.02 Q2556.11 2254.92 2556.11 2251.3 Q2556.11 2247.69 2553.78 2245.59 Q2551.44 2243.48 2547.43 2243.48 Q2545.56 2243.48 2543.68 2243.9 Q2541.83 2244.31 2539.89 2245.19 L2539.89 2227.83 Z" fill="#000000" fill-rule="evenodd" fill-opacity="1" /><path clip-path="url(#clip1300)" d="M 0 0 M132.524 1987.1 L145.001 1987.1 L145.001 1990.9 L132.524 1990.9 L132.524 1987.1 Z" fill="#000000" fill-rule="evenodd" fill-opacity="1" /><path clip-path="url(#clip1300)" d="M 0 0 M160.649 1982.84 Q157.501 1982.84 155.649 1984.99 Q153.82 1987.15 153.82 1990.9 Q153.82 1994.62 155.649 1996.8 Q157.501 1998.95 160.649 1998.95 Q163.797 1998.95 165.626 1996.8 Q167.478 1994.62 167.478 1990.9 Q167.478 1987.15 165.626 1984.99 Q163.797 1982.84 160.649 1982.84 M169.931 1968.19 L169.931 1972.45 Q168.172 1971.61 166.367 1971.17 Q164.584 1970.73 162.825 1970.73 Q158.195 1970.73 155.742 1973.86 Q153.311 1976.98 152.964 1983.3 Q154.33 1981.29 156.39 1980.22 Q158.45 1979.14 160.927 1979.14 Q166.135 1979.14 169.144 1982.31 Q172.177 1985.46 172.177 1990.9 Q172.177 1996.22 169.029 1999.44 Q165.881 2002.66 160.649 2002.66 Q154.654 2002.66 151.482 1998.07 Q148.311 1993.47 148.311 1984.74 Q148.311 1976.54 152.2 1971.68 Q156.089 1966.8 162.64 1966.8 Q164.399 1966.8 166.181 1967.15 Q167.987 1967.49 169.931 1968.19 Z" fill="#000000" fill-rule="evenodd" fill-opacity="1" /><path clip-path="url(#clip1300)" d="M 0 0 M132.2 1706.68 L144.677 1706.68 L144.677 1710.48 L132.2 1710.48 L132.2 1706.68 Z" fill="#000000" fill-rule="evenodd" fill-opacity="1" /><path clip-path="url(#clip1300)" d="M 0 0 M162.594 1691.08 L150.788 1709.53 L162.594 1709.53 L162.594 1691.08 M161.367 1687.01 L167.246 1687.01 L167.246 1709.53 L172.177 1709.53 L172.177 1713.42 L167.246 1713.42 L167.246 1721.57 L162.594 1721.57 L162.594 1713.42 L146.992 1713.42 L146.992 1708.9 L161.367 1687.01 Z" fill="#000000" fill-rule="evenodd" fill-opacity="1" /><path clip-path="url(#clip1300)" d="M 0 0 M134.283 1426.26 L146.76 1426.26 L146.76 1430.06 L134.283 1430.06 L134.283 1426.26 Z" fill="#000000" fill-rule="evenodd" fill-opacity="1" /><path clip-path="url(#clip1300)" d="M 0 0 M155.857 1437.21 L172.177 1437.21 L172.177 1441.15 L150.232 1441.15 L150.232 1437.21 Q152.894 1434.46 157.478 1429.83 Q162.084 1425.18 163.265 1423.83 Q165.51 1421.31 166.39 1419.57 Q167.293 1417.82 167.293 1416.13 Q167.293 1413.37 165.348 1411.64 Q163.427 1409.9 160.325 1409.9 Q158.126 1409.9 155.672 1410.66 Q153.242 1411.43 150.464 1412.98 L150.464 1408.26 Q153.288 1407.12 155.742 1406.54 Q158.195 1405.96 160.232 1405.96 Q165.603 1405.96 168.797 1408.65 Q171.992 1411.33 171.992 1415.82 Q171.992 1417.95 171.181 1419.88 Q170.394 1421.77 168.288 1424.37 Q167.709 1425.04 164.607 1428.26 Q161.506 1431.45 155.857 1437.21 Z" fill="#000000" fill-rule="evenodd" fill-opacity="1" /><path clip-path="url(#clip1300)" d="M 0 0 M160.232 1129.25 Q156.621 1129.25 154.793 1132.81 Q152.987 1136.36 152.987 1143.49 Q152.987 1150.59 154.793 1154.16 Q156.621 1157.7 160.232 1157.7 Q163.867 1157.7 165.672 1154.16 Q167.501 1150.59 167.501 1143.49 Q167.501 1136.36 165.672 1132.81 Q163.867 1129.25 160.232 1129.25 M160.232 1125.55 Q166.043 1125.55 169.098 1130.15 Q172.177 1134.74 172.177 1143.49 Q172.177 1152.21 169.098 1156.82 Q166.043 1161.4 160.232 1161.4 Q154.422 1161.4 151.344 1156.82 Q148.288 1152.21 148.288 1143.49 Q148.288 1134.74 151.344 1130.15 Q154.422 1125.55 160.232 1125.55 Z" fill="#000000" fill-rule="evenodd" fill-opacity="1" /><path clip-path="url(#clip1300)" d="M 0 0 M155.857 876.379 L172.177 876.379 L172.177 880.314 L150.232 880.314 L150.232 876.379 Q152.894 873.624 157.478 868.994 Q162.084 864.342 163.265 862.999 Q165.51 860.476 166.39 858.74 Q167.293 856.981 167.293 855.291 Q167.293 852.536 165.348 850.8 Q163.427 849.064 160.325 849.064 Q158.126 849.064 155.672 849.828 Q153.242 850.592 150.464 852.143 L150.464 847.42 Q153.288 846.286 155.742 845.708 Q158.195 845.129 160.232 845.129 Q165.603 845.129 168.797 847.814 Q171.992 850.499 171.992 854.99 Q171.992 857.12 171.181 859.041 Q170.394 860.939 168.288 863.532 Q167.709 864.203 164.607 867.42 Q161.506 870.615 155.857 876.379 Z" fill="#000000" fill-rule="evenodd" fill-opacity="1" /><path clip-path="url(#clip1300)" d="M 0 0 M162.594 569.41 L150.788 587.859 L162.594 587.859 L162.594 569.41 M161.367 565.336 L167.246 565.336 L167.246 587.859 L172.177 587.859 L172.177 591.748 L167.246 591.748 L167.246 599.896 L162.594 599.896 L162.594 591.748 L146.992 591.748 L146.992 587.234 L161.367 565.336 Z" fill="#000000" fill-rule="evenodd" fill-opacity="1" /><path clip-path="url(#clip1300)" d="M 0 0 M160.649 300.335 Q157.501 300.335 155.649 302.488 Q153.82 304.641 153.82 308.391 Q153.82 312.118 155.649 314.294 Q157.501 316.446 160.649 316.446 Q163.797 316.446 165.626 314.294 Q167.478 312.118 167.478 308.391 Q167.478 304.641 165.626 302.488 Q163.797 300.335 160.649 300.335 M169.931 285.683 L169.931 289.942 Q168.172 289.109 166.367 288.669 Q164.584 288.229 162.825 288.229 Q158.195 288.229 155.742 291.354 Q153.311 294.479 152.964 300.798 Q154.33 298.784 156.39 297.72 Q158.45 296.632 160.927 296.632 Q166.135 296.632 169.144 299.803 Q172.177 302.951 172.177 308.391 Q172.177 313.715 169.029 316.932 Q165.881 320.15 160.649 320.15 Q154.654 320.15 151.482 315.567 Q148.311 310.96 148.311 302.233 Q148.311 294.039 152.2 289.178 Q156.089 284.294 162.64 284.294 Q164.399 284.294 166.181 284.641 Q167.987 284.988 169.931 285.683 Z" fill="#000000" fill-rule="evenodd" fill-opacity="1" /><path clip-path="url(#clip1300)" d="M 0 0 M585.942 12.096 L594.124 12.096 L594.124 36.8875 L623.858 36.8875 L623.858 12.096 L632.041 12.096 L632.041 72.576 L623.858 72.576 L623.858 43.7741 L594.124 43.7741 L594.124 72.576 L585.942 72.576 L585.942 12.096 Z" fill="#000000" fill-rule="evenodd" fill-opacity="1" /><path clip-path="url(#clip1300)" d="M 0 0 M657.44 32.4315 Q651.445 32.4315 647.961 37.1306 Q644.477 41.7891 644.477 49.9314 Q644.477 58.0738 647.92 62.7728 Q651.404 67.4314 657.44 67.4314 Q663.395 67.4314 666.879 62.7323 Q670.363 58.0333 670.363 49.9314 Q670.363 41.8701 666.879 37.1711 Q663.395 32.4315 657.44 32.4315 M657.44 26.1121 Q667.162 26.1121 672.712 32.4315 Q678.262 38.7509 678.262 49.9314 Q678.262 61.0714 672.712 67.4314 Q667.162 73.7508 657.44 73.7508 Q647.677 73.7508 642.128 67.4314 Q636.618 61.0714 636.618 49.9314 Q636.618 38.7509 642.128 32.4315 Q647.677 26.1121 657.44 26.1121 Z" fill="#000000" fill-rule="evenodd" fill-opacity="1" /><path clip-path="url(#clip1300)" d="M 0 0 M680.733 27.2059 L688.632 27.2059 L702.81 65.2844 L716.988 27.2059 L724.888 27.2059 L707.874 72.576 L697.747 72.576 L680.733 27.2059 Z" fill="#000000" fill-rule="evenodd" fill-opacity="1" /><path clip-path="url(#clip1300)" d="M 0 0 M771.514 48.0275 L771.514 51.6733 L737.243 51.6733 Q737.729 59.3701 741.861 63.421 Q746.033 67.4314 753.447 67.4314 Q757.741 67.4314 761.751 66.3781 Q765.802 65.3249 769.772 63.2184 L769.772 70.267 Q765.761 71.9684 761.548 72.8596 Q757.335 73.7508 753.001 73.7508 Q742.145 73.7508 735.785 67.4314 Q729.465 61.1119 729.465 50.3365 Q729.465 39.1965 735.461 32.6746 Q741.496 26.1121 751.705 26.1121 Q760.86 26.1121 766.166 32.0264 Q771.514 37.9003 771.514 48.0275 M764.06 45.84 Q763.979 39.7232 760.617 36.0774 Q757.295 32.4315 751.786 32.4315 Q745.547 32.4315 741.78 35.9558 Q738.053 39.4801 737.486 45.8805 L764.06 45.84 Z" fill="#000000" fill-rule="evenodd" fill-opacity="1" /><path clip-path="url(#clip1300)" d="M 0 0 M805.622 34.1734 Q804.366 33.4443 802.868 33.1202 Q801.409 32.7556 799.627 32.7556 Q793.307 32.7556 789.905 36.8875 Q786.542 40.9789 786.542 48.6757 L786.542 72.576 L779.048 72.576 L779.048 27.2059 L786.542 27.2059 L786.542 34.2544 Q788.892 30.1225 792.659 28.1376 Q796.427 26.1121 801.814 26.1121 Q802.584 26.1121 803.516 26.2337 Q804.447 26.3147 805.582 26.5172 L805.622 34.1734 Z" fill="#000000" fill-rule="evenodd" fill-opacity="1" /><path clip-path="url(#clip1300)" d="M 0 0 M813.44 27.2059 L820.894 27.2059 L820.894 72.576 L813.44 72.576 L813.44 27.2059 M813.44 9.54393 L820.894 9.54393 L820.894 18.9825 L813.44 18.9825 L813.44 9.54393 Z" fill="#000000" fill-rule="evenodd" fill-opacity="1" /><path clip-path="url(#clip1300)" d="M 0 0 M866.426 45.1919 L866.426 72.576 L858.973 72.576 L858.973 45.4349 Q858.973 38.994 856.461 35.7938 Q853.949 32.5936 848.926 32.5936 Q842.891 32.5936 839.407 36.4419 Q835.923 40.2903 835.923 46.9338 L835.923 72.576 L828.429 72.576 L828.429 27.2059 L835.923 27.2059 L835.923 34.2544 Q838.597 30.163 842.202 28.1376 Q845.848 26.1121 850.587 26.1121 Q858.405 26.1121 862.416 30.9732 Q866.426 35.7938 866.426 45.1919 Z" fill="#000000" fill-rule="evenodd" fill-opacity="1" /><path clip-path="url(#clip1300)" d="M 0 0 M904.1 49.3643 Q904.1 41.2625 900.737 36.8065 Q897.416 32.3505 891.38 32.3505 Q885.385 32.3505 882.022 36.8065 Q878.701 41.2625 878.701 49.3643 Q878.701 57.4256 882.022 61.8816 Q885.385 66.3376 891.38 66.3376 Q897.416 66.3376 900.737 61.8816 Q904.1 57.4256 904.1 49.3643 M911.553 66.9452 Q911.553 78.5308 906.409 84.1616 Q901.264 89.8329 890.651 89.8329 Q886.721 89.8329 883.238 89.2252 Q879.754 88.6581 876.473 87.4428 L876.473 80.1917 Q879.754 81.9741 882.954 82.8248 Q886.154 83.6755 889.476 83.6755 Q896.808 83.6755 900.454 79.8271 Q904.1 76.0193 904.1 68.282 L904.1 64.5957 Q901.791 68.6061 898.185 70.5911 Q894.58 72.576 889.557 72.576 Q881.212 72.576 876.108 66.2161 Q871.004 59.8562 871.004 49.3643 Q871.004 38.832 876.108 32.472 Q881.212 26.1121 889.557 26.1121 Q894.58 26.1121 898.185 28.0971 Q901.791 30.082 904.1 34.0924 L904.1 27.2059 L911.553 27.2059 L911.553 66.9452 Z" fill="#000000" fill-rule="evenodd" fill-opacity="1" /><path clip-path="url(#clip1300)" d="M 0 0 M941.409 27.2059 L948.862 27.2059 L958.179 62.6108 L967.456 27.2059 L976.246 27.2059 L985.563 62.6108 L994.84 27.2059 L1002.29 27.2059 L990.424 72.576 L981.634 72.576 L971.871 35.3887 L962.068 72.576 L953.278 72.576 L941.409 27.2059 Z" fill="#000000" fill-rule="evenodd" fill-opacity="1" /><path clip-path="url(#clip1300)" d="M 0 0 M1010.11 27.2059 L1017.57 27.2059 L1017.57 72.576 L1010.11 72.576 L1010.11 27.2059 M1010.11 9.54393 L1017.57 9.54393 L1017.57 18.9825 L1010.11 18.9825 L1010.11 9.54393 Z" fill="#000000" fill-rule="evenodd" fill-opacity="1" /><path clip-path="url(#clip1300)" d="M 0 0 M1032.76 14.324 L1032.76 27.2059 L1048.11 27.2059 L1048.11 32.9987 L1032.76 32.9987 L1032.76 57.6282 Q1032.76 63.1779 1034.26 64.7578 Q1035.79 66.3376 1040.45 66.3376 L1048.11 66.3376 L1048.11 72.576 L1040.45 72.576 Q1031.82 72.576 1028.54 69.3758 Q1025.26 66.1351 1025.26 57.6282 L1025.26 32.9987 L1019.79 32.9987 L1019.79 27.2059 L1025.26 27.2059 L1025.26 14.324 L1032.76 14.324 Z" fill="#000000" fill-rule="evenodd" fill-opacity="1" /><path clip-path="url(#clip1300)" d="M 0 0 M1093.64 45.1919 L1093.64 72.576 L1086.19 72.576 L1086.19 45.4349 Q1086.19 38.994 1083.68 35.7938 Q1081.16 32.5936 1076.14 32.5936 Q1070.11 32.5936 1066.62 36.4419 Q1063.14 40.2903 1063.14 46.9338 L1063.14 72.576 L1055.64 72.576 L1055.64 9.54393 L1063.14 9.54393 L1063.14 34.2544 Q1065.81 30.163 1069.42 28.1376 Q1073.06 26.1121 1077.8 26.1121 Q1085.62 26.1121 1089.63 30.9732 Q1093.64 35.7938 1093.64 45.1919 Z" fill="#000000" fill-rule="evenodd" fill-opacity="1" /><path clip-path="url(#clip1300)" d="M 0 0 M1147.4 39.075 Q1141.89 39.075 1138.65 42.8424 Q1135.45 46.6097 1135.45 53.1722 Q1135.45 59.6941 1138.65 63.502 Q1141.89 67.2693 1147.4 67.2693 Q1152.91 67.2693 1156.11 63.502 Q1159.35 59.6941 1159.35 53.1722 Q1159.35 46.6097 1156.11 42.8424 Q1152.91 39.075 1147.4 39.075 M1163.64 13.4328 L1163.64 20.8865 Q1160.56 19.4281 1157.4 18.6585 Q1154.28 17.8888 1151.2 17.8888 Q1143.1 17.8888 1138.81 23.3575 Q1134.56 28.8262 1133.95 39.8852 Q1136.34 36.3609 1139.94 34.4975 Q1143.55 32.5936 1147.88 32.5936 Q1157 32.5936 1162.26 38.1433 Q1167.57 43.6525 1167.57 53.1722 Q1167.57 62.4892 1162.06 68.12 Q1156.55 73.7508 1147.4 73.7508 Q1136.91 73.7508 1131.36 65.73 Q1125.81 57.6687 1125.81 42.3968 Q1125.81 28.0566 1132.61 19.5497 Q1139.42 11.0023 1150.88 11.0023 Q1153.96 11.0023 1157.08 11.6099 Q1160.24 12.2175 1163.64 13.4328 Z" fill="#000000" fill-rule="evenodd" fill-opacity="1" /><path clip-path="url(#clip1300)" d="M 0 0 M1226.63 17.6457 Q1217.72 17.6457 1212.45 24.2892 Q1207.23 30.9327 1207.23 42.3968 Q1207.23 53.8203 1212.45 60.4638 Q1217.72 67.1073 1226.63 67.1073 Q1235.54 67.1073 1240.73 60.4638 Q1245.96 53.8203 1245.96 42.3968 Q1245.96 30.9327 1240.73 24.2892 Q1235.54 17.6457 1226.63 17.6457 M1238.1 71.4823 L1248.87 83.2704 L1238.99 83.2704 L1230.04 73.5887 Q1228.7 73.6697 1227.97 73.7103 Q1227.28 73.7508 1226.63 73.7508 Q1213.87 73.7508 1206.22 65.2439 Q1198.6 56.6965 1198.6 42.3968 Q1198.6 28.0566 1206.22 19.5497 Q1213.87 11.0023 1226.63 11.0023 Q1239.35 11.0023 1246.97 19.5497 Q1254.58 28.0566 1254.58 42.3968 Q1254.58 52.9291 1250.33 60.4233 Q1246.12 67.9175 1238.1 71.4823 Z" fill="#000000" fill-rule="evenodd" fill-opacity="1" /><path clip-path="url(#clip1300)" d="M 0 0 M1261.63 54.671 L1261.63 27.2059 L1269.09 27.2059 L1269.09 54.3874 Q1269.09 60.8284 1271.6 64.0691 Q1274.11 67.2693 1279.13 67.2693 Q1285.17 67.2693 1288.65 63.421 Q1292.18 59.5726 1292.18 52.9291 L1292.18 27.2059 L1299.63 27.2059 L1299.63 72.576 L1292.18 72.576 L1292.18 65.6084 Q1289.46 69.7404 1285.86 71.7658 Q1282.29 73.7508 1277.55 73.7508 Q1269.73 73.7508 1265.68 68.8897 Q1261.63 64.0286 1261.63 54.671 M1280.39 26.1121 L1280.39 26.1121 Z" fill="#000000" fill-rule="evenodd" fill-opacity="1" /><path clip-path="url(#clip1300)" d="M 0 0 M1328.07 49.7694 Q1319.03 49.7694 1315.55 51.8354 Q1312.07 53.9013 1312.07 58.8839 Q1312.07 62.8538 1314.66 65.2034 Q1317.29 67.5124 1321.79 67.5124 Q1327.99 67.5124 1331.71 63.1374 Q1335.48 58.7219 1335.48 51.4303 L1335.48 49.7694 L1328.07 49.7694 M1342.93 46.6907 L1342.93 72.576 L1335.48 72.576 L1335.48 65.6895 Q1332.93 69.8214 1329.12 71.8063 Q1325.31 73.7508 1319.8 73.7508 Q1312.84 73.7508 1308.7 69.8619 Q1304.61 65.9325 1304.61 59.3701 Q1304.61 51.7138 1309.72 47.825 Q1314.86 43.9361 1325.03 43.9361 L1335.48 43.9361 L1335.48 43.2069 Q1335.48 38.0623 1332.08 35.2672 Q1328.72 32.4315 1322.6 32.4315 Q1318.71 32.4315 1315.02 33.3632 Q1311.34 34.295 1307.93 36.1584 L1307.93 29.2718 Q1312.03 27.692 1315.87 26.9223 Q1319.72 26.1121 1323.37 26.1121 Q1333.21 26.1121 1338.07 31.2163 Q1342.93 36.3204 1342.93 46.6907 Z" fill="#000000" fill-rule="evenodd" fill-opacity="1" /><path clip-path="url(#clip1300)" d="M 0 0 M1380.61 34.0924 L1380.61 9.54393 L1388.06 9.54393 L1388.06 72.576 L1380.61 72.576 L1380.61 65.7705 Q1378.26 69.8214 1374.65 71.8063 Q1371.09 73.7508 1366.06 73.7508 Q1357.84 73.7508 1352.66 67.1883 Q1347.51 60.6258 1347.51 49.9314 Q1347.51 39.2371 1352.66 32.6746 Q1357.84 26.1121 1366.06 26.1121 Q1371.09 26.1121 1374.65 28.0971 Q1378.26 30.0415 1380.61 34.0924 M1355.21 49.9314 Q1355.21 58.1548 1358.57 62.8538 Q1361.97 67.5124 1367.89 67.5124 Q1373.8 67.5124 1377.2 62.8538 Q1380.61 58.1548 1380.61 49.9314 Q1380.61 41.7081 1377.2 37.0496 Q1373.8 32.3505 1367.89 32.3505 Q1361.97 32.3505 1358.57 37.0496 Q1355.21 41.7081 1355.21 49.9314 Z" fill="#000000" fill-rule="evenodd" fill-opacity="1" /><path clip-path="url(#clip1300)" d="M 0 0 M1422.17 34.1734 Q1420.91 33.4443 1419.42 33.1202 Q1417.96 32.7556 1416.17 32.7556 Q1409.86 32.7556 1406.45 36.8875 Q1403.09 40.9789 1403.09 48.6757 L1403.09 72.576 L1395.6 72.576 L1395.6 27.2059 L1403.09 27.2059 L1403.09 34.2544 Q1405.44 30.1225 1409.21 28.1376 Q1412.97 26.1121 1418.36 26.1121 Q1419.13 26.1121 1420.06 26.2337 Q1421 26.3147 1422.13 26.5172 L1422.17 34.1734 Z" fill="#000000" fill-rule="evenodd" fill-opacity="1" /><path clip-path="url(#clip1300)" d="M 0 0 M1445.75 32.4315 Q1439.75 32.4315 1436.27 37.1306 Q1432.78 41.7891 1432.78 49.9314 Q1432.78 58.0738 1436.23 62.7728 Q1439.71 67.4314 1445.75 67.4314 Q1451.7 67.4314 1455.18 62.7323 Q1458.67 58.0333 1458.67 49.9314 Q1458.67 41.8701 1455.18 37.1711 Q1451.7 32.4315 1445.75 32.4315 M1445.75 26.1121 Q1455.47 26.1121 1461.02 32.4315 Q1466.57 38.7509 1466.57 49.9314 Q1466.57 61.0714 1461.02 67.4314 Q1455.47 73.7508 1445.75 73.7508 Q1435.98 73.7508 1430.43 67.4314 Q1424.92 61.0714 1424.92 49.9314 Q1424.92 38.7509 1430.43 32.4315 Q1435.98 26.1121 1445.75 26.1121 Z" fill="#000000" fill-rule="evenodd" fill-opacity="1" /><path clip-path="url(#clip1300)" d="M 0 0 M1481.76 14.324 L1481.76 27.2059 L1497.11 27.2059 L1497.11 32.9987 L1481.76 32.9987 L1481.76 57.6282 Q1481.76 63.1779 1483.26 64.7578 Q1484.8 66.3376 1489.46 66.3376 L1497.11 66.3376 L1497.11 72.576 L1489.46 72.576 Q1480.83 72.576 1477.55 69.3758 Q1474.26 66.1351 1474.26 57.6282 L1474.26 32.9987 L1468.8 32.9987 L1468.8 27.2059 L1474.26 27.2059 L1474.26 14.324 L1481.76 14.324 Z" fill="#000000" fill-rule="evenodd" fill-opacity="1" /><path clip-path="url(#clip1300)" d="M 0 0 M1522.51 32.4315 Q1516.52 32.4315 1513.03 37.1306 Q1509.55 41.7891 1509.55 49.9314 Q1509.55 58.0738 1512.99 62.7728 Q1516.47 67.4314 1522.51 67.4314 Q1528.47 67.4314 1531.95 62.7323 Q1535.43 58.0333 1535.43 49.9314 Q1535.43 41.8701 1531.95 37.1711 Q1528.47 32.4315 1522.51 32.4315 M1522.51 26.1121 Q1532.23 26.1121 1537.78 32.4315 Q1543.33 38.7509 1543.33 49.9314 Q1543.33 61.0714 1537.78 67.4314 Q1532.23 73.7508 1522.51 73.7508 Q1512.75 73.7508 1507.2 67.4314 Q1501.69 61.0714 1501.69 49.9314 Q1501.69 38.7509 1507.2 32.4315 Q1512.75 26.1121 1522.51 26.1121 Z" fill="#000000" fill-rule="evenodd" fill-opacity="1" /><path clip-path="url(#clip1300)" d="M 0 0 M1577.44 34.1734 Q1576.19 33.4443 1574.69 33.1202 Q1573.23 32.7556 1571.45 32.7556 Q1565.13 32.7556 1561.72 36.8875 Q1558.36 40.9789 1558.36 48.6757 L1558.36 72.576 L1550.87 72.576 L1550.87 27.2059 L1558.36 27.2059 L1558.36 34.2544 Q1560.71 30.1225 1564.48 28.1376 Q1568.25 26.1121 1573.63 26.1121 Q1574.4 26.1121 1575.33 26.2337 Q1576.27 26.3147 1577.4 26.5172 L1577.44 34.1734 Z" fill="#000000" fill-rule="evenodd" fill-opacity="1" /><path clip-path="url(#clip1300)" d="M 0 0 M1614.18 28.5427 L1614.18 35.5912 Q1611.02 33.9709 1607.62 33.1607 Q1604.22 32.3505 1600.57 32.3505 Q1595.02 32.3505 1592.23 34.0519 Q1589.47 35.7533 1589.47 39.156 Q1589.47 41.7486 1591.46 43.2475 Q1593.44 44.7058 1599.44 46.0426 L1601.99 46.6097 Q1609.93 48.3111 1613.25 51.4303 Q1616.61 54.509 1616.61 60.0587 Q1616.61 66.3781 1611.59 70.0644 Q1606.61 73.7508 1597.86 73.7508 Q1594.21 73.7508 1590.24 73.0216 Q1586.31 72.3329 1581.94 70.9151 L1581.94 63.2184 Q1586.07 65.3654 1590.08 66.4591 Q1594.09 67.5124 1598.02 67.5124 Q1603.29 67.5124 1606.12 65.73 Q1608.96 63.9071 1608.96 60.6258 Q1608.96 57.5877 1606.89 55.9673 Q1604.87 54.3469 1597.94 52.8481 L1595.35 52.2405 Q1588.42 50.7821 1585.34 47.7845 Q1582.26 44.7463 1582.26 39.4801 Q1582.26 33.0797 1586.8 29.5959 Q1591.34 26.1121 1599.68 26.1121 Q1603.81 26.1121 1607.46 26.7198 Q1611.1 27.3274 1614.18 28.5427 Z" fill="#000000" fill-rule="evenodd" fill-opacity="1" /><path clip-path="url(#clip1300)" d="M 0 0 M1647.04 46.5287 L1668.87 46.5287 L1668.87 53.1722 L1647.04 53.1722 L1647.04 46.5287 Z" fill="#000000" fill-rule="evenodd" fill-opacity="1" /><path clip-path="url(#clip1300)" d="M 0 0 M1723.6 20.1573 L1712.5 50.2555 L1734.74 50.2555 L1723.6 20.1573 M1718.98 12.096 L1728.26 12.096 L1751.31 72.576 L1742.8 72.576 L1737.29 57.061 L1710.03 57.061 L1704.52 72.576 L1695.89 72.576 L1718.98 12.096 Z" fill="#000000" fill-rule="evenodd" fill-opacity="1" /><path clip-path="url(#clip1300)" d="M 0 0 M1788.98 49.3643 Q1788.98 41.2625 1785.62 36.8065 Q1782.3 32.3505 1776.26 32.3505 Q1770.26 32.3505 1766.9 36.8065 Q1763.58 41.2625 1763.58 49.3643 Q1763.58 57.4256 1766.9 61.8816 Q1770.26 66.3376 1776.26 66.3376 Q1782.3 66.3376 1785.62 61.8816 Q1788.98 57.4256 1788.98 49.3643 M1796.43 66.9452 Q1796.43 78.5308 1791.29 84.1616 Q1786.14 89.8329 1775.53 89.8329 Q1771.6 89.8329 1768.12 89.2252 Q1764.63 88.6581 1761.35 87.4428 L1761.35 80.1917 Q1764.63 81.9741 1767.83 82.8248 Q1771.03 83.6755 1774.36 83.6755 Q1781.69 83.6755 1785.33 79.8271 Q1788.98 76.0193 1788.98 68.282 L1788.98 64.5957 Q1786.67 68.6061 1783.06 70.5911 Q1779.46 72.576 1774.44 72.576 Q1766.09 72.576 1760.99 66.2161 Q1755.88 59.8562 1755.88 49.3643 Q1755.88 38.832 1760.99 32.472 Q1766.09 26.1121 1774.44 26.1121 Q1779.46 26.1121 1783.06 28.0971 Q1786.67 30.082 1788.98 34.0924 L1788.98 27.2059 L1796.43 27.2059 L1796.43 66.9452 Z" fill="#000000" fill-rule="evenodd" fill-opacity="1" /><path clip-path="url(#clip1300)" d="M 0 0 M1843.06 48.0275 L1843.06 51.6733 L1808.79 51.6733 Q1809.27 59.3701 1813.41 63.421 Q1817.58 67.4314 1824.99 67.4314 Q1829.29 67.4314 1833.3 66.3781 Q1837.35 65.3249 1841.32 63.2184 L1841.32 70.267 Q1837.31 71.9684 1833.09 72.8596 Q1828.88 73.7508 1824.55 73.7508 Q1813.69 73.7508 1807.33 67.4314 Q1801.01 61.1119 1801.01 50.3365 Q1801.01 39.1965 1807.01 32.6746 Q1813.04 26.1121 1823.25 26.1121 Q1832.4 26.1121 1837.71 32.0264 Q1843.06 37.9003 1843.06 48.0275 M1835.61 45.84 Q1835.52 39.7232 1832.16 36.0774 Q1828.84 32.4315 1823.33 32.4315 Q1817.09 32.4315 1813.33 35.9558 Q1809.6 39.4801 1809.03 45.8805 L1835.61 45.84 Z" fill="#000000" fill-rule="evenodd" fill-opacity="1" /><path clip-path="url(#clip1300)" d="M 0 0 M1888.59 45.1919 L1888.59 72.576 L1881.14 72.576 L1881.14 45.4349 Q1881.14 38.994 1878.63 35.7938 Q1876.11 32.5936 1871.09 32.5936 Q1865.06 32.5936 1861.57 36.4419 Q1858.09 40.2903 1858.09 46.9338 L1858.09 72.576 L1850.59 72.576 L1850.59 27.2059 L1858.09 27.2059 L1858.09 34.2544 Q1860.76 30.163 1864.37 28.1376 Q1868.01 26.1121 1872.75 26.1121 Q1880.57 26.1121 1884.58 30.9732 Q1888.59 35.7938 1888.59 45.1919 Z" fill="#000000" fill-rule="evenodd" fill-opacity="1" /><path clip-path="url(#clip1300)" d="M 0 0 M1903.78 14.324 L1903.78 27.2059 L1919.13 27.2059 L1919.13 32.9987 L1903.78 32.9987 L1903.78 57.6282 Q1903.78 63.1779 1905.28 64.7578 Q1906.82 66.3376 1911.48 66.3376 L1919.13 66.3376 L1919.13 72.576 L1911.48 72.576 Q1902.85 72.576 1899.57 69.3758 Q1896.29 66.1351 1896.29 57.6282 L1896.29 32.9987 L1890.82 32.9987 L1890.82 27.2059 L1896.29 27.2059 L1896.29 14.324 L1903.78 14.324 Z" fill="#000000" fill-rule="evenodd" fill-opacity="1" /><path clip-path="url(#clip1300)" d="M 0 0 M1969.24 72.576 L1946.15 12.096 L1954.7 12.096 L1973.86 63.0159 L1993.06 12.096 L2001.57 12.096 L1978.52 72.576 L1969.24 72.576 Z" fill="#000000" fill-rule="evenodd" fill-opacity="1" /><path clip-path="url(#clip1300)" d="M 0 0 M2041.76 48.0275 L2041.76 51.6733 L2007.48 51.6733 Q2007.97 59.3701 2012.1 63.421 Q2016.28 67.4314 2023.69 67.4314 Q2027.98 67.4314 2031.99 66.3781 Q2036.04 65.3249 2040.01 63.2184 L2040.01 70.267 Q2036 71.9684 2031.79 72.8596 Q2027.58 73.7508 2023.24 73.7508 Q2012.39 73.7508 2006.03 67.4314 Q1999.71 61.1119 1999.71 50.3365 Q1999.71 39.1965 2005.7 32.6746 Q2011.74 26.1121 2021.95 26.1121 Q2031.1 26.1121 2036.41 32.0264 Q2041.76 37.9003 2041.76 48.0275 M2034.3 45.84 Q2034.22 39.7232 2030.86 36.0774 Q2027.54 32.4315 2022.03 32.4315 Q2015.79 32.4315 2012.02 35.9558 Q2008.3 39.4801 2007.73 45.8805 L2034.3 45.84 Z" fill="#000000" fill-rule="evenodd" fill-opacity="1" /><path clip-path="url(#clip1300)" d="M 0 0 M2049.57 9.54393 L2057.03 9.54393 L2057.03 72.576 L2049.57 72.576 L2049.57 9.54393 Z" fill="#000000" fill-rule="evenodd" fill-opacity="1" /><path clip-path="url(#clip1300)" d="M 0 0 M2082.43 32.4315 Q2076.43 32.4315 2072.95 37.1306 Q2069.46 41.7891 2069.46 49.9314 Q2069.46 58.0738 2072.91 62.7728 Q2076.39 67.4314 2082.43 67.4314 Q2088.38 67.4314 2091.87 62.7323 Q2095.35 58.0333 2095.35 49.9314 Q2095.35 41.8701 2091.87 37.1711 Q2088.38 32.4315 2082.43 32.4315 M2082.43 26.1121 Q2092.15 26.1121 2097.7 32.4315 Q2103.25 38.7509 2103.25 49.9314 Q2103.25 61.0714 2097.7 67.4314 Q2092.15 73.7508 2082.43 73.7508 Q2072.66 73.7508 2067.11 67.4314 Q2061.61 61.0714 2061.61 49.9314 Q2061.61 38.7509 2067.11 32.4315 Q2072.66 26.1121 2082.43 26.1121 Z" fill="#000000" fill-rule="evenodd" fill-opacity="1" /><path clip-path="url(#clip1300)" d="M 0 0 M2143.72 28.9478 L2143.72 35.9153 Q2140.56 34.1734 2137.36 33.3227 Q2134.2 32.4315 2130.96 32.4315 Q2123.71 32.4315 2119.7 37.0496 Q2115.68 41.6271 2115.68 49.9314 Q2115.68 58.2358 2119.7 62.8538 Q2123.71 67.4314 2130.96 67.4314 Q2134.2 67.4314 2137.36 66.5807 Q2140.56 65.6895 2143.72 63.9476 L2143.72 70.8341 Q2140.6 72.2924 2137.24 73.0216 Q2133.91 73.7508 2130.15 73.7508 Q2119.9 73.7508 2113.86 67.3098 Q2107.83 60.8689 2107.83 49.9314 Q2107.83 38.832 2113.9 32.472 Q2120.02 26.1121 2130.63 26.1121 Q2134.08 26.1121 2137.36 26.8413 Q2140.64 27.5299 2143.72 28.9478 Z" fill="#000000" fill-rule="evenodd" fill-opacity="1" /><path clip-path="url(#clip1300)" d="M 0 0 M2151.54 27.2059 L2158.99 27.2059 L2158.99 72.576 L2151.54 72.576 L2151.54 27.2059 M2151.54 9.54393 L2158.99 9.54393 L2158.99 18.9825 L2151.54 18.9825 L2151.54 9.54393 Z" fill="#000000" fill-rule="evenodd" fill-opacity="1" /><path clip-path="url(#clip1300)" d="M 0 0 M2174.18 14.324 L2174.18 27.2059 L2189.53 27.2059 L2189.53 32.9987 L2174.18 32.9987 L2174.18 57.6282 Q2174.18 63.1779 2175.68 64.7578 Q2177.22 66.3376 2181.88 66.3376 L2189.53 66.3376 L2189.53 72.576 L2181.88 72.576 Q2173.25 72.576 2169.97 69.3758 Q2166.69 66.1351 2166.69 57.6282 L2166.69 32.9987 L2161.22 32.9987 L2161.22 27.2059 L2166.69 27.2059 L2166.69 14.324 L2174.18 14.324 Z" fill="#000000" fill-rule="evenodd" fill-opacity="1" /><path clip-path="url(#clip1300)" d="M 0 0 M2216.23 76.7889 Q2213.07 84.8907 2210.07 87.3618 Q2207.07 89.8329 2202.05 89.8329 L2196.1 89.8329 L2196.1 83.5945 L2200.47 83.5945 Q2203.55 83.5945 2205.25 82.1361 Q2206.95 80.6778 2209.02 75.2496 L2210.35 71.8468 L2192 27.2059 L2199.9 27.2059 L2214.08 62.6918 L2228.26 27.2059 L2236.16 27.2059 L2216.23 76.7889 Z" fill="#000000" fill-rule="evenodd" fill-opacity="1" /><path clip-path="url(#clip1300)" d="M 0 0 M1292.89 2298.26 L1333.09 2298.26 L1333.09 2303.67 L1316.22 2303.67 L1316.22 2345.78 L1309.76 2345.78 L1309.76 2303.67 L1292.89 2303.67 L1292.89 2298.26 Z" fill="#000000" fill-rule="evenodd" fill-opacity="1" /><path clip-path="url(#clip1300)" d="M 0 0 M1337.22 2310.14 L1343.08 2310.14 L1343.08 2345.78 L1337.22 2345.78 L1337.22 2310.14 M1337.22 2296.26 L1343.08 2296.26 L1343.08 2303.67 L1337.22 2303.67 L1337.22 2296.26 Z" fill="#000000" fill-rule="evenodd" fill-opacity="1" /><path clip-path="url(#clip1300)" d="M 0 0 M1376.98 2316.98 Q1379.17 2313.03 1382.23 2311.15 Q1385.28 2309.28 1389.42 2309.28 Q1394.99 2309.28 1398.02 2313.19 Q1401.04 2317.07 1401.04 2324.27 L1401.04 2345.78 L1395.15 2345.78 L1395.15 2324.46 Q1395.15 2319.33 1393.34 2316.85 Q1391.52 2314.37 1387.8 2314.37 Q1383.25 2314.37 1380.61 2317.39 Q1377.96 2320.42 1377.96 2325.64 L1377.96 2345.78 L1372.08 2345.78 L1372.08 2324.46 Q1372.08 2319.3 1370.26 2316.85 Q1368.45 2314.37 1364.66 2314.37 Q1360.17 2314.37 1357.53 2317.42 Q1354.89 2320.45 1354.89 2325.64 L1354.89 2345.78 L1349 2345.78 L1349 2310.14 L1354.89 2310.14 L1354.89 2315.67 Q1356.89 2312.4 1359.69 2310.84 Q1362.5 2309.28 1366.35 2309.28 Q1370.23 2309.28 1372.94 2311.25 Q1375.67 2313.22 1376.98 2316.98 Z" fill="#000000" fill-rule="evenodd" fill-opacity="1" /><path clip-path="url(#clip1300)" d="M 0 0 M1437.67 2326.5 L1437.67 2329.36 L1410.75 2329.36 Q1411.13 2335.41 1414.38 2338.59 Q1417.65 2341.74 1423.48 2341.74 Q1426.85 2341.74 1430 2340.91 Q1433.19 2340.09 1436.31 2338.43 L1436.31 2343.97 Q1433.16 2345.31 1429.84 2346.01 Q1426.53 2346.71 1423.13 2346.71 Q1414.6 2346.71 1409.6 2341.74 Q1404.64 2336.78 1404.64 2328.31 Q1404.64 2319.56 1409.35 2314.43 Q1414.09 2309.28 1422.11 2309.28 Q1429.3 2309.28 1433.47 2313.92 Q1437.67 2318.54 1437.67 2326.5 M1431.82 2324.78 Q1431.75 2319.97 1429.11 2317.11 Q1426.5 2314.24 1422.17 2314.24 Q1417.27 2314.24 1414.31 2317.01 Q1411.38 2319.78 1410.94 2324.81 L1431.82 2324.78 Z" fill="#000000" fill-rule="evenodd" fill-opacity="1" /><path clip-path="url(#clip1300)" d="M 0 0 M1478.61 2296.32 Q1474.34 2303.64 1472.27 2310.8 Q1470.2 2317.97 1470.2 2325.32 Q1470.2 2332.67 1472.27 2339.9 Q1474.37 2347.09 1478.61 2354.38 L1473.51 2354.38 Q1468.74 2346.9 1466.35 2339.67 Q1464 2332.45 1464 2325.32 Q1464 2318.22 1466.35 2311.03 Q1468.71 2303.83 1473.51 2296.32 L1478.61 2296.32 Z" fill="#000000" fill-rule="evenodd" fill-opacity="1" /><path clip-path="url(#clip1300)" d="M 0 0 M1507.47 2311.19 L1507.47 2316.72 Q1504.99 2315.45 1502.32 2314.81 Q1499.64 2314.18 1496.78 2314.18 Q1492.42 2314.18 1490.22 2315.51 Q1488.06 2316.85 1488.06 2319.53 Q1488.06 2321.56 1489.62 2322.74 Q1491.18 2323.89 1495.89 2324.94 L1497.89 2325.38 Q1504.13 2326.72 1506.74 2329.17 Q1509.38 2331.59 1509.38 2335.95 Q1509.38 2340.91 1505.44 2343.81 Q1501.52 2346.71 1494.65 2346.71 Q1491.78 2346.71 1488.66 2346.13 Q1485.58 2345.59 1482.14 2344.48 L1482.14 2338.43 Q1485.39 2340.12 1488.54 2340.98 Q1491.69 2341.81 1494.78 2341.81 Q1498.91 2341.81 1501.14 2340.4 Q1503.37 2338.97 1503.37 2336.39 Q1503.37 2334.01 1501.75 2332.73 Q1500.15 2331.46 1494.71 2330.28 L1492.67 2329.81 Q1487.23 2328.66 1484.81 2326.3 Q1482.39 2323.92 1482.39 2319.78 Q1482.39 2314.75 1485.96 2312.01 Q1489.52 2309.28 1496.08 2309.28 Q1499.33 2309.28 1502.19 2309.75 Q1505.06 2310.23 1507.47 2311.19 Z" fill="#000000" fill-rule="evenodd" fill-opacity="1" /><path clip-path="url(#clip1300)" d="M 0 0 M1514.6 2296.32 L1519.7 2296.32 Q1524.47 2303.83 1526.83 2311.03 Q1529.21 2318.22 1529.21 2325.32 Q1529.21 2332.45 1526.83 2339.67 Q1524.47 2346.9 1519.7 2354.38 L1514.6 2354.38 Q1518.84 2347.09 1520.91 2339.9 Q1523.01 2332.67 1523.01 2325.32 Q1523.01 2317.97 1520.91 2310.8 Q1518.84 2303.64 1514.6 2296.32 Z" fill="#000000" fill-rule="evenodd" fill-opacity="1" /><path clip-path="url(#clip1300)" d="M 0 0 M38.4242 1265.66 L38.4242 1228.32 L43.3258 1228.32 L80.5333 1258.37 L80.5333 1227.59 L85.9442 1227.59 L85.9442 1266.39 L81.0426 1266.39 L43.835 1236.34 L43.835 1265.66 L38.4242 1265.66 Z" fill="#000000" fill-rule="evenodd" fill-opacity="1" /><path clip-path="url(#clip1300)" d="M 0 0 M36.419 1246.88 L36.419 1241.02 L43.835 1241.02 L43.835 1246.88 L36.419 1246.88 M49.4368 1243.89 L49.4368 1243.89 Z" fill="#000000" fill-rule="evenodd" fill-opacity="1" /><path clip-path="url(#clip1300)" d="M 0 0 M36.4826 1200.09 Q43.8032 1204.36 50.9646 1206.42 Q58.126 1208.49 65.4784 1208.49 Q72.8308 1208.49 80.0559 1206.42 Q87.2491 1204.32 94.5379 1200.09 L94.5379 1205.18 Q87.0582 1209.96 79.8331 1212.34 Q72.608 1214.7 65.4784 1214.7 Q58.3806 1214.7 51.1874 1212.34 Q43.9942 1209.99 36.4826 1205.18 L36.4826 1200.09 Z" fill="#000000" fill-rule="evenodd" fill-opacity="1" /><path clip-path="url(#clip1300)" d="M 0 0 M57.1393 1166.19 Q53.1926 1164 51.3147 1160.94 Q49.4368 1157.89 49.4368 1153.75 Q49.4368 1148.18 53.3517 1145.15 Q57.2348 1142.13 64.4281 1142.13 L85.9442 1142.13 L85.9442 1148.02 L64.619 1148.02 Q59.4946 1148.02 57.012 1149.83 Q54.5294 1151.65 54.5294 1155.37 Q54.5294 1159.92 57.5531 1162.57 Q60.5768 1165.21 65.7967 1165.21 L85.9442 1165.21 L85.9442 1171.1 L64.619 1171.1 Q59.4628 1171.1 57.012 1172.91 Q54.5294 1174.72 54.5294 1178.51 Q54.5294 1183 57.5849 1185.64 Q60.6086 1188.28 65.7967 1188.28 L85.9442 1188.28 L85.9442 1194.17 L50.2962 1194.17 L50.2962 1188.28 L55.8344 1188.28 Q52.556 1186.28 50.9964 1183.48 Q49.4368 1180.68 49.4368 1176.82 Q49.4368 1172.94 51.4102 1170.24 Q53.3836 1167.5 57.1393 1166.19 Z" fill="#000000" fill-rule="evenodd" fill-opacity="1" /><path clip-path="url(#clip1300)" d="M 0 0 M38.4242 1125.58 L38.4242 1120.17 L91.9916 1136.72 L91.9916 1142.13 L38.4242 1125.58 Z" fill="#000000" fill-rule="evenodd" fill-opacity="1" /><path clip-path="url(#clip1300)" d="M 0 0 M51.3465 1091.3 L56.8847 1091.3 Q55.6116 1093.78 54.975 1096.46 Q54.3384 1099.13 54.3384 1102 Q54.3384 1106.36 55.6752 1108.55 Q57.012 1110.72 59.6856 1110.72 Q61.7226 1110.72 62.9003 1109.16 Q64.0461 1107.6 65.0965 1102.89 L65.5421 1100.88 Q66.8789 1094.64 69.3297 1092.03 Q71.7486 1089.39 76.1091 1089.39 Q81.0744 1089.39 83.9708 1093.34 Q86.8672 1097.25 86.8672 1104.13 Q86.8672 1106.99 86.2943 1110.11 Q85.7532 1113.2 84.6392 1116.64 L78.5918 1116.64 Q80.2787 1113.39 81.138 1110.24 Q81.9656 1107.09 81.9656 1104 Q81.9656 1099.86 80.5651 1097.63 Q79.1329 1095.41 76.5547 1095.41 Q74.1676 1095.41 72.8945 1097.03 Q71.6213 1098.62 70.4437 1104.06 L69.9662 1106.1 Q68.8204 1111.54 66.4651 1113.96 Q64.078 1116.38 59.9402 1116.38 Q54.9113 1116.38 52.1741 1112.82 Q49.4368 1109.25 49.4368 1102.7 Q49.4368 1099.45 49.9143 1096.58 Q50.3917 1093.72 51.3465 1091.3 Z" fill="#000000" fill-rule="evenodd" fill-opacity="1" /><path clip-path="url(#clip1300)" d="M 0 0 M36.4826 1084.17 L36.4826 1079.08 Q43.9942 1074.3 51.1874 1071.95 Q58.3806 1069.56 65.4784 1069.56 Q72.608 1069.56 79.8331 1071.95 Q87.0582 1074.3 94.5379 1079.08 L94.5379 1084.17 Q87.2491 1079.94 80.0559 1077.87 Q72.8308 1075.77 65.4784 1075.77 Q58.126 1075.77 50.9646 1077.87 Q43.8032 1079.94 36.4826 1084.17 Z" fill="#000000" fill-rule="evenodd" fill-opacity="1" /><polyline clip-path="url(#clip1302)" style="stroke:#009af9; stroke-width:16; stroke-opacity:1; fill:none" points="
  272.49,1143.45 283.876,1227.26 295.262,1321.59 306.647,1361.76 318.033,1328.98 329.418,1261.04 340.804,1193.26 352.19,1134.85 363.575,1092.52 374.961,1062.77 
  386.346,1046.12 397.732,1037.72 409.118,1037.37 420.503,1041.04 431.889,1049.25 443.274,1058.84 454.66,1071.02 466.046,1083.05 477.431,1096.64 488.817,1109.14 
  500.202,1122.65 511.588,1134.43 522.974,1146.98 534.359,1157.3 545.745,1168.36 557.13,1176.81 568.516,1186.14 579.901,1192.53 591.287,1200.09 602.673,1204.44 
  614.058,1210.38 625.444,1212.84 636.829,1217.43 648.215,1218.23 659.601,1221.79 670.986,1221.19 682.372,1224.08 693.757,1222.34 705.143,1224.92 716.529,1222.24 
  727.914,1224.82 739.3,1221.37 750.685,1224.24 762.071,1220.12 773.457,1223.55 784.842,1218.8 796.228,1223.03 807.613,1217.62 818.999,1222.88 830.385,1216.72 
  841.77,1223.22 853.156,1216.19 864.541,1224.13 875.927,1216.01 887.313,1225.59 898.698,1216.13 910.084,1227.52 921.469,1216.37 932.855,1229.68 944.241,1216.39 
  955.626,1231.48 967.012,1215.3 978.397,1231.35 989.783,1210.55 1001.17,1224.64 1012.55,1194.65 1023.94,1198.2 1035.33,1146.23 1046.71,1204.39 1058.1,1198.74 
  1069.48,1227 1080.87,1207.38 1092.25,1223.79 1103.64,1200.19 1115.02,1210.37 1126.41,1187.27 1137.8,1195.29 1149.18,1175.96 1160.57,1184.27 1171.95,1169.38 
  1183.34,1177.87 1194.72,1166.41 1206.11,1174.29 1217.49,1165.05 1228.88,1171.79 1240.27,1163.97 1251.65,1169.38 1263.04,1162.48 1274.42,1166.59 1285.81,1160.32 
  1297.19,1163.24 1308.58,1157.44 1319.97,1159.31 1331.35,1153.86 1342.74,1154.83 1354.12,1149.66 1365.51,1149.87 1376.89,1144.92 1388.28,1144.47 1399.66,1139.69 
  1411.05,1138.69 1422.44,1134.06 1433.82,1132.63 1445.21,1128.16 1456.59,1126.4 1467.98,1122.14 1479.36,1120.2 1490.75,1116.21 1502.13,1114.22 1513.52,1110.58 
  1524.91,1108.68 1536.29,1105.46 1547.68,1103.73 1559.06,1100.95 1570.45,1099.43 1581.83,1097.02 1593.22,1095.58 1604.61,1093.34 1615.99,1091.79 1627.38,1089.54 
  1638.76,1087.77 1650.15,1085.24 1661.53,1082.79 1672.92,1079.5 1684.3,1076.23 1695.69,1072.58 1707.08,1069.39 1718.46,1066.52 1729.85,1064.61 1741.23,1063.58 
  1752.62,1063.79 1764,1065.13 1775.39,1067.55 1786.77,1070.66 1798.16,1073.97 1809.55,1077.13 1820.93,1080.06 1832.32,1082.85 1843.7,1085.57 1855.09,1088.26 
  1866.47,1090.97 1877.86,1093.67 1889.25,1096.37 1900.63,1099.05 1912.02,1101.69 1923.4,1104.25 1934.79,1106.74 1946.17,1109.1 1957.56,1111.37 1968.94,1113.46 
  1980.33,1115.44 1991.72,1117.22 2003.1,1118.89 2014.49,1120.33 2025.87,1121.68 2037.26,1122.8 2048.64,1123.85 2060.03,1124.67 2071.41,1125.45 2082.8,1126.02 
  2094.19,1126.6 2105.57,1126.97 2116.96,1127.39 2128.34,1127.63 2139.73,1127.96 2151.11,1128.1 2162.5,1128.38 2173.89,1128.47 2185.27,1128.72 2196.66,1128.79 
  2208.04,1129.03 2219.43,1129.08 2230.81,1129.31 2242.2,1129.31 2253.58,1129.51 2264.97,1129.43 2276.36,1129.57 2287.74,1129.36 2299.13,1129.39 2310.51,1128.99 
  2321.9,1128.85 2333.28,1128.17 2344.67,1127.81 2356.05,1126.73 2367.44,1126.09 2378.83,1124.49 2390.21,1123.52 2401.6,1121.22 2412.98,1119.89 2424.37,1116.67 
  2435.75,1114.96 2447.14,1110.5 2458.53,1108.4 2469.91,1102.12 2481.3,1099.57 2492.68,1090.22 2504.07,1086.85 2515.45,1071.23 2526.84,1070.89 2538.22,1054.28 
  2549.61,1143.4 
  "/>
<polyline clip-path="url(#clip1302)" style="stroke:#e26f46; stroke-width:16; stroke-opacity:1; fill:none" points="
  272.49,1143.45 283.876,2146.22 295.262,1780.03 306.647,1213.8 318.033,974.547 329.418,963.707 340.804,1009.28 352.19,1049.45 363.575,1073.48 374.961,1088.42 
  386.346,1097.97 397.732,1107.01 409.118,1114.49 420.503,1122.93 431.889,1129.7 443.274,1137.15 454.66,1142.4 466.046,1147.99 477.431,1151.2 488.817,1154.6 
  500.202,1155.78 511.588,1157.14 522.974,1156.7 534.359,1156.46 545.745,1154.98 557.13,1153.72 568.516,1151.83 579.901,1150.09 591.287,1148.33 602.673,1146.54 
  614.058,1145.3 625.444,1143.75 636.829,1143.29 648.215,1142.11 659.601,1142.57 670.986,1141.78 682.372,1143.21 693.757,1142.76 705.143,1145.19 716.529,1144.97 
  727.914,1148.38 739.3,1148.26 750.685,1152.65 762.071,1152.47 773.457,1157.84 784.842,1157.41 796.228,1163.78 807.613,1162.92 818.999,1170.33 830.385,1168.85 
  841.77,1177.38 853.156,1175.06 864.541,1184.81 875.927,1181.42 887.313,1192.54 898.698,1187.81 910.084,1200.45 921.469,1194.07 932.855,1208.36 944.241,1199.91 
  955.626,1215.82 967.012,1204.54 978.397,1221.47 989.783,1205.69 1001.17,1221.26 1012.55,1196.74 1023.94,1204.19 1035.33,1161.4 1046.71,1207.14 1058.1,1203.5 
  1069.48,1231.5 1080.87,1219.05 1092.25,1237.56 1103.64,1222.17 1115.02,1234.81 1126.41,1219.1 1137.8,1228.4 1149.18,1214.33 1160.57,1222.34 1171.95,1210.85 
  1183.34,1218.24 1194.72,1208.91 1206.11,1215.36 1217.49,1207.44 1228.88,1212.63 1240.27,1205.5 1251.65,1209.28 1263.04,1202.57 1274.42,1204.91 1285.81,1198.37 
  1297.19,1199.38 1308.58,1192.89 1319.97,1192.71 1331.35,1186.23 1342.74,1185.04 1354.12,1178.56 1365.51,1176.51 1376.89,1170.05 1388.28,1167.31 1399.66,1160.88 
  1411.05,1157.57 1422.44,1151.21 1433.82,1147.48 1445.21,1141.22 1456.59,1137.21 1467.98,1131.15 1479.36,1127.03 1490.75,1121.28 1502.13,1117.23 1513.52,1111.94 
  1524.91,1108.19 1536.29,1103.55 1547.68,1100.34 1559.06,1096.57 1570.45,1094.17 1581.83,1091.5 1593.22,1090.15 1604.61,1088.74 1615.99,1088.47 1627.38,1088.11 
  1638.76,1088.43 1650.15,1088.21 1661.53,1087.98 1672.92,1086.87 1684.3,1085.51 1695.69,1083.46 1707.08,1081.4 1718.46,1079.11 1729.85,1077.16 1741.23,1075.42 
  1752.62,1074.26 1764,1073.62 1775.39,1073.69 1786.77,1074.45 1798.16,1076.11 1809.55,1078.86 1820.93,1082.67 1832.32,1087.29 1843.7,1092.42 1855.09,1097.86 
  1866.47,1103.43 1877.86,1109.01 1889.25,1114.48 1900.63,1119.78 1912.02,1124.86 1923.4,1129.64 1934.79,1134.14 1946.17,1138.29 1957.56,1142.12 1968.94,1145.57 
  1980.33,1148.7 1991.72,1151.42 2003.1,1153.81 2014.49,1155.79 2025.87,1157.43 2037.26,1158.65 2048.64,1159.55 2060.03,1160 2071.41,1160.13 2082.8,1159.81 
  2094.19,1159.19 2105.57,1158.11 2116.96,1156.77 2128.34,1154.98 2139.73,1152.98 2151.11,1150.57 2162.5,1148.02 2173.89,1145.1 2185.27,1142.12 2196.66,1138.83 
  2208.04,1135.56 2219.43,1132.04 2230.81,1128.63 2242.2,1125.01 2253.58,1121.59 2264.97,1117.99 2276.36,1114.67 2287.74,1111.21 2299.13,1108.09 2310.51,1104.82 
  2321.9,1101.98 2333.28,1098.96 2344.67,1096.44 2356.05,1093.69 2367.44,1091.52 2378.83,1088.98 2390.21,1087.12 2401.6,1084.68 2412.98,1083.01 2424.37,1080.37 
  2435.75,1078.59 2447.14,1075.22 2458.53,1072.74 2469.91,1067.62 2481.3,1063.34 2492.68,1054.7 2504.07,1046.97 2515.45,1031.84 2526.84,1024.69 2538.22,1013.67 
  2549.61,1142.4 
  "/>
<polyline clip-path="url(#clip1302)" style="stroke:#3da44d; stroke-width:16; stroke-opacity:1; fill:none" points="
  272.49,1143.45 283.876,2084 295.262,1698.73 306.647,1138.37 318.033,929.545 329.418,933.598 340.804,981.642 352.19,1019.11 363.575,1041.48 374.961,1055.36 
  386.346,1065.67 397.732,1075.1 409.118,1083.89 420.503,1092.87 431.889,1100.79 443.274,1108.72 454.66,1114.95 466.046,1121.09 477.431,1125.19 488.817,1129.28 
  500.202,1131.27 511.588,1133.46 522.974,1133.64 534.359,1134.27 545.745,1133.07 557.13,1132.56 568.516,1130.39 579.901,1129.15 591.287,1126.37 602.673,1124.78 
  614.058,1121.7 625.444,1120.06 636.829,1116.9 648.215,1115.47 659.601,1112.37 670.986,1111.34 682.372,1108.39 693.757,1107.9 705.143,1105.1 716.529,1105.25 
  727.914,1102.56 739.3,1103.4 750.685,1100.72 762.071,1102.29 773.457,1099.5 784.842,1101.8 796.228,1098.75 807.613,1101.8 818.999,1098.3 830.385,1102.1 
  841.77,1097.96 853.156,1102.54 864.541,1097.52 875.927,1102.92 887.313,1096.82 898.698,1103.09 910.084,1095.65 921.469,1102.85 932.855,1093.84 944.241,1102.01 
  955.626,1091.17 967.012,1100.29 978.397,1087.48 989.783,1097.48 1001.17,1082.93 1012.55,1094.06 1023.94,1079.83 1035.33,1095.7 1046.71,1071.26 1058.1,1083.57 
  1069.48,1068.29 1080.87,1080.99 1092.25,1067.79 1103.64,1079.1 1115.02,1068.2 1126.41,1078.41 1137.8,1069.6 1149.18,1078.44 1160.57,1071.19 1171.95,1078.87 
  1183.34,1073.34 1194.72,1080.22 1206.11,1076.31 1217.49,1082.63 1228.88,1080.14 1240.27,1086 1251.65,1084.6 1263.04,1089.99 1274.42,1089.38 1285.81,1094.26 
  1297.19,1094.16 1308.58,1098.52 1319.97,1098.73 1331.35,1102.58 1342.74,1102.96 1354.12,1106.32 1365.51,1106.77 1376.89,1109.65 1388.28,1110.06 1399.66,1112.46 
  1411.05,1112.76 1422.44,1114.67 1433.82,1114.77 1445.21,1116.17 1456.59,1116.03 1467.98,1116.93 1479.36,1116.5 1490.75,1116.92 1502.13,1116.22 1513.52,1116.23 
  1524.91,1115.3 1536.29,1114.99 1547.68,1113.92 1559.06,1113.41 1570.45,1112.31 1581.83,1111.7 1593.22,1110.62 1604.61,1109.97 1615.99,1108.94 1627.38,1108.28 
  1638.76,1107.18 1650.15,1106.02 1661.53,1104.06 1672.92,1101.81 1684.3,1098.98 1695.69,1096.27 1707.08,1093.56 1718.46,1091.45 1729.85,1089.76 1741.23,1088.88 
  1752.62,1088.54 1764,1089.06 1775.39,1090.21 1786.77,1092.27 1798.16,1094.98 1809.55,1098.32 1820.93,1101.75 1832.32,1105.25 1843.7,1108.48 1855.09,1111.64 
  1866.47,1114.49 1877.86,1117.28 1889.25,1119.75 1900.63,1122.23 1912.02,1124.42 1923.4,1126.68 1934.79,1128.66 1946.17,1130.8 1957.56,1132.67 1968.94,1134.8 
  1980.33,1136.65 1991.72,1138.89 2003.1,1140.82 2014.49,1143.29 2025.87,1145.4 2037.26,1148.21 2048.64,1150.58 2060.03,1153.8 2071.41,1156.45 2082.8,1160.14 
  2094.19,1163.07 2105.57,1167.24 2116.96,1170.39 2128.34,1175 2139.73,1178.26 2151.11,1183.27 2162.5,1186.53 2173.89,1191.88 2185.27,1194.99 2196.66,1200.65 
  2208.04,1203.47 2219.43,1209.44 2230.81,1211.81 2242.2,1218.13 2253.58,1219.9 2264.97,1226.64 2276.36,1227.65 2287.74,1234.93 2299.13,1234.97 2310.51,1242.99 
  2321.9,1241.79 2333.28,1250.85 2344.67,1248.08 2356.05,1258.57 2367.44,1253.81 2378.83,1266.33 2390.21,1259 2401.6,1274.44 2412.98,1263.8 2424.37,1283.47 
  2435.75,1268.51 2447.14,1294.33 2458.53,1273.67 2469.91,1308.3 2481.3,1279.78 2492.68,1326.29 2504.07,1285.38 2515.45,1343.43 2526.84,1273.68 2538.22,1317.32 
  2549.61,1144.71 
  "/>
<polyline clip-path="url(#clip1302)" style="stroke:#c271d2; stroke-width:16; stroke-opacity:1; fill:none" points="
  272.49,1143.45 283.876,1103.41 295.262,1167.86 306.647,1264.26 318.033,1298.2 329.418,1258.3 340.804,1182.45 352.19,1109.95 363.575,1051.8 374.961,1014.2 
  386.346,990.793 397.732,980.356 409.118,976.963 420.503,980.173 431.889,986.253 443.274,995.574 454.66,1005.76 466.046,1017.47 477.431,1029.09 488.817,1041.29 
  500.202,1052.93 511.588,1064.58 522.974,1075.44 534.359,1085.93 545.745,1095.5 557.13,1104.48 568.516,1112.49 579.901,1119.75 591.287,1126.08 602.673,1131.6 
  614.058,1136.27 625.444,1140.11 636.829,1143.23 648.215,1145.56 659.601,1147.33 670.986,1148.34 682.372,1148.98 693.757,1148.9 705.143,1148.66 716.529,1147.72 
  727.914,1146.82 739.3,1145.23 750.685,1143.9 762.071,1141.87 773.457,1140.32 784.842,1138.01 796.228,1136.41 807.613,1133.98 818.999,1132.49 830.385,1130.07 
  841.77,1128.84 853.156,1126.54 864.541,1125.68 875.927,1123.59 887.313,1123.21 898.698,1121.41 910.084,1121.62 921.469,1120.17 932.855,1121.08 944.241,1120.06 
  955.626,1121.83 967.012,1121.39 978.397,1124.32 989.783,1124.72 1001.17,1129.23 1012.55,1130.34 1023.94,1135.28 1035.33,1132.59 1046.71,1132.87 1058.1,1138.41 
  1069.48,1143.52 1080.87,1151.24 1092.25,1158.55 1103.64,1167.49 1115.02,1175.69 1126.41,1183.63 1137.8,1189.76 1149.18,1194.05 1160.57,1196.69 1171.95,1197.49 
  1183.34,1197.78 1194.72,1197.21 1206.11,1196.95 1217.49,1196.4 1228.88,1196.13 1240.27,1195.71 1251.65,1195.45 1263.04,1195.1 1274.42,1194.85 1285.81,1194.57 
  1297.19,1194.36 1308.58,1194.16 1319.97,1194.02 1331.35,1193.94 1342.74,1193.91 1354.12,1193.98 1365.51,1194.12 1376.89,1194.39 1388.28,1194.75 1399.66,1195.28 
  1411.05,1195.9 1422.44,1196.73 1433.82,1197.67 1445.21,1198.84 1456.59,1200.12 1467.98,1201.64 1479.36,1203.29 1490.75,1205.17 1502.13,1207.17 1513.52,1209.37 
  1524.91,1211.69 1536.29,1214.16 1547.68,1216.71 1559.06,1219.38 1570.45,1222.13 1581.83,1225.02 1593.22,1228.1 1604.61,1231.52 1615.99,1235.46 1627.38,1239.87 
  1638.76,1244.26 1650.15,1247.94 1661.53,1250.27 1672.92,1250.86 1684.3,1249.54 1695.69,1246.53 1707.08,1242.07 1718.46,1236.67 1729.85,1230.52 1741.23,1224.12 
  1752.62,1217.44 1764,1210.98 1775.39,1204.55 1786.77,1198.68 1798.16,1193.03 1809.55,1188.24 1820.93,1183.81 1832.32,1180.35 1843.7,1177.07 1855.09,1174.63 
  1866.47,1172.06 1877.86,1170.22 1889.25,1168 1900.63,1166.48 1912.02,1164.37 1923.4,1163.01 1934.79,1160.87 1946.17,1159.59 1957.56,1157.35 1968.94,1156.12 
  1980.33,1153.74 1991.72,1152.56 2003.1,1150.01 2014.49,1148.91 2025.87,1146.18 2037.26,1145.19 2048.64,1142.27 2060.03,1141.43 2071.41,1138.3 2082.8,1137.67 
  2094.19,1134.31 2105.57,1133.95 2116.96,1130.32 2128.34,1130.29 2139.73,1126.37 2151.11,1126.74 2162.5,1122.44 2173.89,1123.29 2185.27,1118.53 2196.66,1119.94 
  2208.04,1114.59 2219.43,1116.64 2230.81,1110.55 2242.2,1113.34 2253.58,1106.32 2264.97,1109.97 2276.36,1101.79 2287.74,1106.45 2299.13,1096.84 2310.51,1102.71 
  2321.9,1091.35 2333.28,1098.69 2344.67,1085.24 2356.05,1094.39 2367.44,1078.44 2378.83,1089.86 2390.21,1070.98 2401.6,1085.25 2412.98,1063.03 2424.37,1080.96 
  2435.75,1055.06 2447.14,1077.79 2458.53,1048.21 2469.91,1077.52 2481.3,1045.11 2492.68,1084.09 2504.07,1051.68 2515.45,1105.97 2526.84,1079.03 2538.22,1157.9 
  2549.61,1144.18 
  "/>
<polyline clip-path="url(#clip1302)" style="stroke:#ac8d18; stroke-width:16; stroke-opacity:1; fill:none" points="
  272.49,1143.45 283.876,189.727 295.262,719.43 306.647,1400.6 318.033,1726.72 329.418,1680.42 340.804,1558.89 352.19,1402.8 363.575,1314.03 374.961,1226.86 
  386.346,1193.48 397.732,1149.74 409.118,1142.06 420.503,1118.65 431.889,1121.05 443.274,1107.31 454.66,1113.05 466.046,1104.13 477.431,1110.29 488.817,1103.87 
  500.202,1109.26 511.588,1104.21 522.974,1108.47 534.359,1104.29 545.745,1107.49 557.13,1103.98 568.516,1106.39 579.901,1103.49 591.287,1105.42 602.673,1103.12 
  614.058,1104.84 625.444,1103.15 636.829,1104.88 648.215,1103.76 659.601,1105.66 670.986,1105.05 682.372,1107.23 693.757,1107.06 705.143,1109.59 716.529,1109.77 
  727.914,1112.68 739.3,1113.1 750.685,1116.44 762.071,1116.97 773.457,1120.77 784.842,1121.28 796.228,1125.57 807.613,1125.9 818.999,1130.73 830.385,1130.72 
  841.77,1136.19 853.156,1135.63 864.541,1141.85 875.927,1140.49 887.313,1147.65 898.698,1145.14 910.084,1153.51 921.469,1149.36 932.855,1159.35 944.241,1152.86 
  955.626,1165.11 967.012,1155.25 978.397,1170.87 989.783,1156.25 1001.17,1177.18 1012.55,1155.89 1023.94,1183.4 1035.33,1150.08 1046.71,1191.65 1058.1,1171.52 
  1069.48,1202.72 1080.87,1188.35 1092.25,1210 1103.64,1202.57 1115.02,1214.72 1126.41,1210.91 1137.8,1213.91 1149.18,1210.79 1160.57,1209.54 1171.95,1207.51 
  1183.34,1206.18 1194.72,1204.58 1206.11,1203.33 1217.49,1201.82 1228.88,1200.51 1240.27,1198.99 1251.65,1197.54 1263.04,1195.93 1274.42,1194.34 1285.81,1192.64 
  1297.19,1190.93 1308.58,1189.19 1319.97,1187.44 1331.35,1185.74 1342.74,1184.04 1354.12,1182.46 1365.51,1180.93 1376.89,1179.58 1388.28,1178.34 1399.66,1177.33 
  1411.05,1176.5 1422.44,1175.97 1433.82,1175.67 1445.21,1175.74 1456.59,1176.12 1467.98,1176.92 1479.36,1178.08 1490.75,1179.7 1502.13,1181.72 1513.52,1184.2 
  1524.91,1187.09 1536.29,1190.41 1547.68,1194.09 1559.06,1198.1 1570.45,1202.33 1581.83,1206.67 1593.22,1210.9 1604.61,1214.75 1615.99,1217.92 1627.38,1220.43 
  1638.76,1222.63 1650.15,1224.66 1661.53,1226.19 1672.92,1226.86 1684.3,1226.3 1695.69,1224.55 1707.08,1221.62 1718.46,1217.97 1729.85,1213.71 1741.23,1209.45 
  1752.62,1205.13 1764,1201.35 1775.39,1197.83 1786.77,1195.07 1798.16,1192.48 1809.55,1190.51 1820.93,1188.4 1832.32,1186.75 1843.7,1184.68 1855.09,1182.97 
  1866.47,1180.64 1877.86,1178.65 1889.25,1175.89 1900.63,1173.54 1912.02,1170.28 1923.4,1167.56 1934.79,1163.79 1946.17,1160.72 1957.56,1156.47 1968.94,1153.12 
  1980.33,1148.43 1991.72,1144.89 2003.1,1139.83 2014.49,1136.2 2025.87,1130.82 2037.26,1127.22 2048.64,1121.59 2060.03,1118.15 2071.41,1112.35 2082.8,1109.2 
  2094.19,1103.28 2105.57,1100.58 2116.96,1094.59 2128.34,1092.47 2139.73,1086.44 2151.11,1085.05 2162.5,1078.97 2173.89,1078.43 2185.27,1072.25 2196.66,1072.66 
  2208.04,1066.28 2219.43,1067.75 2230.81,1061.01 2242.2,1063.62 2253.58,1056.31 2264.97,1060.17 2276.36,1052.05 2287.74,1057.26 2299.13,1048.03 2310.51,1054.74 
  2321.9,1044.09 2333.28,1052.51 2344.67,1040.06 2356.05,1050.48 2367.44,1035.84 2378.83,1048.65 2390.21,1031.42 2401.6,1047.17 2412.98,1026.96 2424.37,1046.4 
  2435.75,1022.92 2447.14,1047.1 2458.53,1020.25 2469.91,1050.71 2481.3,1020.92 2492.68,1060.11 2504.07,1029.19 2515.45,1082.02 2526.84,1056.67 2538.22,1137.1 
  2549.61,1143.81 
  "/>
<polyline clip-path="url(#clip1302)" style="stroke:#00a9ad; stroke-width:16; stroke-opacity:1; fill:none" points="
  272.49,1143.45 283.876,251.267 295.262,804.691 306.647,1496.28 318.033,1774.26 329.418,1704.63 340.804,1563.84 352.19,1411.1 363.575,1314.36 374.961,1231.15 
  386.346,1189.33 397.732,1147.86 409.118,1132.44 420.503,1110.94 431.889,1107.24 443.274,1095.68 454.66,1097.21 466.046,1091.04 477.431,1094.88 488.817,1091.86 
  500.202,1096.58 511.588,1095.48 522.974,1100.31 534.359,1100.33 545.745,1104.79 557.13,1105.39 568.516,1109.15 579.901,1109.94 591.287,1112.84 602.673,1113.59 
  614.058,1115.56 625.444,1116.17 636.829,1117.23 648.215,1117.74 659.601,1117.98 670.986,1118.48 682.372,1118.01 693.757,1118.63 705.143,1117.56 716.529,1118.47 
  727.914,1116.87 739.3,1118.2 750.685,1116.12 762.071,1117.99 773.457,1115.41 784.842,1117.94 796.228,1114.82 807.613,1118.11 818.999,1114.34 830.385,1118.49 
  841.77,1113.94 853.156,1119.06 864.541,1113.55 875.927,1119.77 887.313,1113.07 898.698,1120.52 910.084,1112.34 921.469,1121.19 932.855,1111.15 944.241,1121.52 
  955.626,1109.07 967.012,1120.96 978.397,1105.19 989.783,1118.19 1001.17,1097.34 1012.55,1109.74 1023.94,1079.65 1035.33,1084.2 1046.71,1088.79 1058.1,1116.12 
  1069.48,1099.58 1080.87,1112.71 1092.25,1092.16 1103.64,1099.11 1115.02,1079.52 1126.41,1084.47 1137.8,1069.06 1149.18,1074.93 1160.57,1064.5 1171.95,1071.41 
  1183.34,1064.49 1194.72,1071.49 1206.11,1066.71 1217.49,1073.1 1228.88,1069.6 1240.27,1075.12 1251.65,1072.47 1263.04,1077.11 1274.42,1075.07 1285.81,1078.95 
  1297.19,1077.42 1308.58,1080.72 1319.97,1079.66 1331.35,1082.57 1342.74,1082.02 1354.12,1084.73 1365.51,1084.74 1376.89,1087.45 1388.28,1088.07 1399.66,1090.97 
  1411.05,1092.27 1422.44,1095.49 1433.82,1097.51 1445.21,1101.16 1456.59,1103.92 1467.98,1108.05 1479.36,1111.51 1490.75,1116.13 1502.13,1120.25 1513.52,1125.33 
  1524.91,1130.05 1536.29,1135.57 1547.68,1140.85 1559.06,1146.83 1570.45,1152.65 1581.83,1159.07 1593.22,1165.29 1604.61,1171.76 1615.99,1177.46 1627.38,1182.34 
  1638.76,1185.57 1650.15,1187.67 1661.53,1188.53 1672.92,1188.8 1684.3,1188.4 1695.69,1187.78 1707.08,1186.74 1718.46,1185.59 1729.85,1184.16 1741.23,1182.74 
  1752.62,1181.24 1764,1179.91 1775.39,1178.65 1786.77,1177.6 1798.16,1176.54 1809.55,1175.58 1820.93,1174.52 1832.32,1173.51 1843.7,1172.37 1855.09,1171.26 
  1866.47,1170.03 1877.86,1168.88 1889.25,1167.65 1900.63,1166.58 1912.02,1165.5 1923.4,1164.63 1934.79,1163.8 1946.17,1163.24 1957.56,1162.73 1968.94,1162.52 
  1980.33,1162.35 1991.72,1162.49 2003.1,1162.65 2014.49,1163.12 2025.87,1163.54 2037.26,1164.27 2048.64,1164.89 2060.03,1165.81 2071.41,1166.52 2082.8,1167.54 
  2094.19,1168.24 2105.57,1169.27 2116.96,1169.87 2128.34,1170.83 2139.73,1171.23 2151.11,1172.07 2162.5,1172.19 2173.89,1172.9 2185.27,1172.69 2196.66,1173.26 
  2208.04,1172.69 2219.43,1173.18 2230.81,1172.21 2242.2,1172.69 2253.58,1171.31 2264.97,1171.91 2276.36,1170.05 2287.74,1170.92 2299.13,1168.53 2310.51,1169.86 
  2321.9,1166.78 2333.28,1168.85 2344.67,1164.88 2356.05,1168.03 2367.44,1162.84 2378.83,1167.6 2390.21,1160.72 2401.6,1167.84 2412.98,1158.59 2424.37,1169.21 
  2435.75,1156.55 2447.14,1172.34 2458.53,1154.68 2469.91,1177.96 2481.3,1152.64 2492.68,1186.25 2504.07,1148.72 2515.45,1195.68 2526.84,1140.93 2538.22,1205.92 
  2549.61,1143.97 
  "/>
<polyline clip-path="url(#clip1302)" style="stroke:#ed5d92; stroke-width:16; stroke-opacity:1; fill:none" points="
  272.49,1143.45 283.876,1165.31 295.262,1244.74 306.647,1312.93 318.033,1311.94 329.418,1257.34 340.804,1185.11 352.19,1119.64 363.575,1068.4 374.961,1033.8 
  386.346,1012.34 397.732,1002.34 409.118,999.87 420.503,1003.85 431.889,1011.46 443.274,1022.4 454.66,1034.67 466.046,1048.44 477.431,1062.22 488.817,1076.37 
  500.202,1089.77 511.588,1102.85 522.974,1114.76 534.359,1125.96 545.745,1135.82 557.13,1144.78 568.516,1152.39 579.901,1159.06 591.287,1164.46 602.673,1168.99 
  614.058,1172.41 625.444,1175.06 636.829,1176.77 648.215,1177.85 659.601,1178.14 670.986,1177.91 682.372,1177.03 693.757,1175.72 705.143,1173.84 716.529,1171.61 
  727.914,1168.87 739.3,1165.83 750.685,1162.33 762.071,1158.56 773.457,1154.35 784.842,1149.93 796.228,1145.1 807.613,1140.12 818.999,1134.79 830.385,1129.38 
  841.77,1123.69 853.156,1118.02 864.541,1112.16 875.927,1106.44 887.313,1100.62 898.698,1095.08 910.084,1089.51 921.469,1084.37 932.855,1079.25 944.241,1074.68 
  955.626,1070.09 967.012,1066.15 978.397,1062.02 989.783,1058.56 1001.17,1054.53 1012.55,1051.15 1023.94,1046.54 1035.33,1042.26 1046.71,1049.71 1058.1,1054.13 
  1069.48,1055.68 1080.87,1056.53 1092.25,1056.64 1103.64,1056.92 1115.02,1057.69 1126.41,1059 1137.8,1061.41 1149.18,1064.24 1160.57,1067.95 1171.95,1071.69 
  1183.34,1075.88 1194.72,1079.81 1206.11,1083.86 1217.49,1087.5 1228.88,1091.07 1240.27,1094.19 1251.65,1097.14 1263.04,1099.66 1274.42,1101.97 1285.81,1103.89 
  1297.19,1105.6 1308.58,1106.99 1319.97,1108.19 1331.35,1109.12 1342.74,1109.89 1354.12,1110.45 1365.51,1110.86 1376.89,1111.12 1388.28,1111.24 1399.66,1111.25 
  1411.05,1111.14 1422.44,1110.96 1433.82,1110.69 1445.21,1110.36 1456.59,1109.99 1467.98,1109.6 1479.36,1109.2 1490.75,1108.82 1502.13,1108.48 1513.52,1108.21 
  1524.91,1108.03 1536.29,1107.98 1547.68,1108.09 1559.06,1108.4 1570.45,1108.93 1581.83,1109.72 1593.22,1110.79 1604.61,1112.15 1615.99,1113.77 1627.38,1115.63 
  1638.76,1117.66 1650.15,1119.85 1661.53,1122.24 1672.92,1124.93 1684.3,1128.01 1695.69,1131.5 1707.08,1135.36 1718.46,1139.47 1729.85,1143.65 1741.23,1147.69 
  1752.62,1151.42 1764,1154.69 1775.39,1157.44 1786.77,1159.62 1798.16,1161.23 1809.55,1162.26 1820.93,1162.74 1832.32,1162.68 1843.7,1162.16 1855.09,1161.2 
  1866.47,1159.88 1877.86,1158.26 1889.25,1156.41 1900.63,1154.37 1912.02,1152.24 1923.4,1150.04 1934.79,1147.87 1946.17,1145.72 1957.56,1143.68 1968.94,1141.74 
  1980.33,1139.97 1991.72,1138.32 2003.1,1136.89 2014.49,1135.59 2025.87,1134.52 2037.26,1133.58 2048.64,1132.86 2060.03,1132.26 2071.41,1131.86 2082.8,1131.56 
  2094.19,1131.45 2105.57,1131.4 2116.96,1131.54 2128.34,1131.7 2139.73,1132.04 2151.11,1132.38 2162.5,1132.89 2173.89,1133.38 2185.27,1134.03 2196.66,1134.64 
  2208.04,1135.4 2219.43,1136.11 2230.81,1136.97 2242.2,1137.77 2253.58,1138.71 2264.97,1139.58 2276.36,1140.58 2287.74,1141.51 2299.13,1142.57 2310.51,1143.55 
  2321.9,1144.65 2333.28,1145.68 2344.67,1146.8 2356.05,1147.88 2367.44,1149.03 2378.83,1150.17 2390.21,1151.39 2401.6,1152.64 2412.98,1154.04 2424.37,1155.53 
  2435.75,1157.3 2447.14,1159.28 2458.53,1161.77 2469.91,1164.63 2481.3,1168.31 2492.68,1172.39 2504.07,1177.5 2515.45,1182.25 2526.84,1187.25 2538.22,1187.01 
  2549.61,1178.39 
  "/>
<path clip-path="url(#clip1300)" d="
M2713.92 746.392 L3184.76 746.392 L3184.76 262.552 L2713.92 262.552  Z
  " fill="#ffffff" fill-rule="evenodd" fill-opacity="1"/>
<polyline clip-path="url(#clip1300)" style="stroke:#000000; stroke-width:4; stroke-opacity:1; fill:none" points="
  2713.92,746.392 3184.76,746.392 3184.76,262.552 2713.92,262.552 2713.92,746.392 
  "/>
<polyline clip-path="url(#clip1300)" style="stroke:#009af9; stroke-width:16; stroke-opacity:1; fill:none" points="
  2745.92,323.032 2937.92,323.032 
  "/>
<path clip-path="url(#clip1300)" d="M 0 0 M2991.95 303.633 Q2984.95 303.633 2980.81 308.853 Q2976.7 314.072 2976.7 323.08 Q2976.7 332.056 2980.81 337.275 Q2984.95 342.495 2991.95 342.495 Q2998.95 342.495 3003.03 337.275 Q3007.13 332.056 3007.13 323.08 Q3007.13 314.072 3003.03 308.853 Q2998.95 303.633 2991.95 303.633 M3000.96 345.933 L3009.42 355.195 L3001.66 355.195 L2994.62 347.588 Q2993.57 347.651 2993 347.683 Q2992.46 347.715 2991.95 347.715 Q2981.92 347.715 2975.91 341.031 Q2969.92 334.315 2969.92 323.08 Q2969.92 311.813 2975.91 305.129 Q2981.92 298.413 2991.95 298.413 Q3001.94 298.413 3007.93 305.129 Q3013.91 311.813 3013.91 323.08 Q3013.91 331.355 3010.57 337.244 Q3007.26 343.132 3000.96 345.933 Z" fill="#000000" fill-rule="evenodd" fill-opacity="1" /><path clip-path="url(#clip1300)" d="M 0 0 M3019.45 332.724 L3019.45 311.144 L3025.31 311.144 L3025.31 332.501 Q3025.31 337.562 3027.28 340.108 Q3029.25 342.623 3033.2 342.623 Q3037.94 342.623 3040.68 339.599 Q3043.45 336.575 3043.45 331.355 L3043.45 311.144 L3049.3 311.144 L3049.3 346.792 L3043.45 346.792 L3043.45 341.318 Q3041.31 344.564 3038.48 346.156 Q3035.68 347.715 3031.96 347.715 Q3025.81 347.715 3022.63 343.896 Q3019.45 340.076 3019.45 332.724 M3034.19 310.285 L3034.19 310.285 Z" fill="#000000" fill-rule="evenodd" fill-opacity="1" /><path clip-path="url(#clip1300)" d="M 0 0 M3071.65 328.873 Q3064.55 328.873 3061.81 330.496 Q3059.08 332.119 3059.08 336.034 Q3059.08 339.153 3061.11 340.999 Q3063.18 342.814 3066.71 342.814 Q3071.58 342.814 3074.51 339.376 Q3077.47 335.907 3077.47 330.178 L3077.47 328.873 L3071.65 328.873 M3083.33 326.454 L3083.33 346.792 L3077.47 346.792 L3077.47 341.381 Q3075.47 344.628 3072.47 346.187 Q3069.48 347.715 3065.15 347.715 Q3059.68 347.715 3056.43 344.66 Q3053.22 341.572 3053.22 336.416 Q3053.22 330.4 3057.23 327.345 Q3061.27 324.289 3069.26 324.289 L3077.47 324.289 L3077.47 323.716 Q3077.47 319.674 3074.8 317.478 Q3072.16 315.25 3067.35 315.25 Q3064.29 315.25 3061.4 315.982 Q3058.5 316.714 3055.83 318.178 L3055.83 312.767 Q3059.04 311.526 3062.07 310.921 Q3065.09 310.285 3067.96 310.285 Q3075.69 310.285 3079.51 314.295 Q3083.33 318.306 3083.33 326.454 Z" fill="#000000" fill-rule="evenodd" fill-opacity="1" /><path clip-path="url(#clip1300)" d="M 0 0 M3112.93 316.555 L3112.93 297.267 L3118.79 297.267 L3118.79 346.792 L3112.93 346.792 L3112.93 341.445 Q3111.08 344.628 3108.25 346.187 Q3105.45 347.715 3101.5 347.715 Q3095.04 347.715 3090.97 342.559 Q3086.93 337.403 3086.93 329 Q3086.93 320.597 3090.97 315.441 Q3095.04 310.285 3101.5 310.285 Q3105.45 310.285 3108.25 311.844 Q3111.08 313.372 3112.93 316.555 M3092.97 329 Q3092.97 335.461 3095.61 339.153 Q3098.29 342.814 3102.93 342.814 Q3107.58 342.814 3110.26 339.153 Q3112.93 335.461 3112.93 329 Q3112.93 322.539 3110.26 318.879 Q3107.58 315.186 3102.93 315.186 Q3098.29 315.186 3095.61 318.879 Q3092.97 322.539 3092.97 329 Z" fill="#000000" fill-rule="evenodd" fill-opacity="1" /><path clip-path="url(#clip1300)" d="M 0 0 M3147.59 341.381 L3158.09 341.381 L3158.09 305.129 L3146.67 307.42 L3146.67 301.564 L3158.03 299.272 L3164.46 299.272 L3164.46 341.381 L3174.96 341.381 L3174.96 346.792 L3147.59 346.792 L3147.59 341.381 Z" fill="#000000" fill-rule="evenodd" fill-opacity="1" /><polyline clip-path="url(#clip1300)" style="stroke:#e26f46; stroke-width:16; stroke-opacity:1; fill:none" points="
  2745.92,383.512 2937.92,383.512 
  "/>
<path clip-path="url(#clip1300)" d="M 0 0 M2991.95 364.113 Q2984.95 364.113 2980.81 369.333 Q2976.7 374.552 2976.7 383.56 Q2976.7 392.536 2980.81 397.755 Q2984.95 402.975 2991.95 402.975 Q2998.95 402.975 3003.03 397.755 Q3007.13 392.536 3007.13 383.56 Q3007.13 374.552 3003.03 369.333 Q2998.95 364.113 2991.95 364.113 M3000.96 406.413 L3009.42 415.675 L3001.66 415.675 L2994.62 408.068 Q2993.57 408.131 2993 408.163 Q2992.46 408.195 2991.95 408.195 Q2981.92 408.195 2975.91 401.511 Q2969.92 394.795 2969.92 383.56 Q2969.92 372.293 2975.91 365.609 Q2981.92 358.893 2991.95 358.893 Q3001.94 358.893 3007.93 365.609 Q3013.91 372.293 3013.91 383.56 Q3013.91 391.835 3010.57 397.724 Q3007.26 403.612 3000.96 406.413 Z" fill="#000000" fill-rule="evenodd" fill-opacity="1" /><path clip-path="url(#clip1300)" d="M 0 0 M3019.45 393.204 L3019.45 371.624 L3025.31 371.624 L3025.31 392.981 Q3025.31 398.042 3027.28 400.588 Q3029.25 403.103 3033.2 403.103 Q3037.94 403.103 3040.68 400.079 Q3043.45 397.055 3043.45 391.835 L3043.45 371.624 L3049.3 371.624 L3049.3 407.272 L3043.45 407.272 L3043.45 401.798 Q3041.31 405.044 3038.48 406.636 Q3035.68 408.195 3031.96 408.195 Q3025.81 408.195 3022.63 404.376 Q3019.45 400.556 3019.45 393.204 M3034.19 370.765 L3034.19 370.765 Z" fill="#000000" fill-rule="evenodd" fill-opacity="1" /><path clip-path="url(#clip1300)" d="M 0 0 M3071.65 389.353 Q3064.55 389.353 3061.81 390.976 Q3059.08 392.599 3059.08 396.514 Q3059.08 399.633 3061.11 401.479 Q3063.18 403.294 3066.71 403.294 Q3071.58 403.294 3074.51 399.856 Q3077.47 396.387 3077.47 390.658 L3077.47 389.353 L3071.65 389.353 M3083.33 386.934 L3083.33 407.272 L3077.47 407.272 L3077.47 401.861 Q3075.47 405.108 3072.47 406.667 Q3069.48 408.195 3065.15 408.195 Q3059.68 408.195 3056.43 405.14 Q3053.22 402.052 3053.22 396.896 Q3053.22 390.88 3057.23 387.825 Q3061.27 384.769 3069.26 384.769 L3077.47 384.769 L3077.47 384.196 Q3077.47 380.154 3074.8 377.958 Q3072.16 375.73 3067.35 375.73 Q3064.29 375.73 3061.4 376.462 Q3058.5 377.194 3055.83 378.658 L3055.83 373.247 Q3059.04 372.006 3062.07 371.401 Q3065.09 370.765 3067.96 370.765 Q3075.69 370.765 3079.51 374.775 Q3083.33 378.786 3083.33 386.934 Z" fill="#000000" fill-rule="evenodd" fill-opacity="1" /><path clip-path="url(#clip1300)" d="M 0 0 M3112.93 377.035 L3112.93 357.747 L3118.79 357.747 L3118.79 407.272 L3112.93 407.272 L3112.93 401.925 Q3111.08 405.108 3108.25 406.667 Q3105.45 408.195 3101.5 408.195 Q3095.04 408.195 3090.97 403.039 Q3086.93 397.883 3086.93 389.48 Q3086.93 381.077 3090.97 375.921 Q3095.04 370.765 3101.5 370.765 Q3105.45 370.765 3108.25 372.324 Q3111.08 373.852 3112.93 377.035 M3092.97 389.48 Q3092.97 395.941 3095.61 399.633 Q3098.29 403.294 3102.93 403.294 Q3107.58 403.294 3110.26 399.633 Q3112.93 395.941 3112.93 389.48 Q3112.93 383.019 3110.26 379.359 Q3107.58 375.666 3102.93 375.666 Q3098.29 375.666 3095.61 379.359 Q3092.97 383.019 3092.97 389.48 Z" fill="#000000" fill-rule="evenodd" fill-opacity="1" /><path clip-path="url(#clip1300)" d="M 0 0 M3152.01 401.861 L3174.45 401.861 L3174.45 407.272 L3144.28 407.272 L3144.28 401.861 Q3147.94 398.074 3154.24 391.708 Q3160.58 385.31 3162.2 383.464 Q3165.29 379.995 3166.5 377.608 Q3167.74 375.189 3167.74 372.865 Q3167.74 369.078 3165.06 366.691 Q3162.42 364.304 3158.16 364.304 Q3155.13 364.304 3151.76 365.354 Q3148.42 366.404 3144.6 368.537 L3144.6 362.044 Q3148.48 360.484 3151.86 359.688 Q3155.23 358.893 3158.03 358.893 Q3165.41 358.893 3169.81 362.585 Q3174.2 366.277 3174.2 372.452 Q3174.2 375.38 3173.08 378.022 Q3172 380.632 3169.11 384.196 Q3168.31 385.119 3164.05 389.544 Q3159.78 393.936 3152.01 401.861 Z" fill="#000000" fill-rule="evenodd" fill-opacity="1" /><polyline clip-path="url(#clip1300)" style="stroke:#3da44d; stroke-width:16; stroke-opacity:1; fill:none" points="
  2745.92,443.992 2937.92,443.992 
  "/>
<path clip-path="url(#clip1300)" d="M 0 0 M2991.95 424.593 Q2984.95 424.593 2980.81 429.813 Q2976.7 435.032 2976.7 444.04 Q2976.7 453.016 2980.81 458.235 Q2984.95 463.455 2991.95 463.455 Q2998.95 463.455 3003.03 458.235 Q3007.13 453.016 3007.13 444.04 Q3007.13 435.032 3003.03 429.813 Q2998.95 424.593 2991.95 424.593 M3000.96 466.893 L3009.42 476.155 L3001.66 476.155 L2994.62 468.548 Q2993.57 468.611 2993 468.643 Q2992.46 468.675 2991.95 468.675 Q2981.92 468.675 2975.91 461.991 Q2969.92 455.275 2969.92 444.04 Q2969.92 432.773 2975.91 426.089 Q2981.92 419.373 2991.95 419.373 Q3001.94 419.373 3007.93 426.089 Q3013.91 432.773 3013.91 444.04 Q3013.91 452.315 3010.57 458.204 Q3007.26 464.092 3000.96 466.893 Z" fill="#000000" fill-rule="evenodd" fill-opacity="1" /><path clip-path="url(#clip1300)" d="M 0 0 M3019.45 453.684 L3019.45 432.104 L3025.31 432.104 L3025.31 453.461 Q3025.31 458.522 3027.28 461.068 Q3029.25 463.583 3033.2 463.583 Q3037.94 463.583 3040.68 460.559 Q3043.45 457.535 3043.45 452.315 L3043.45 432.104 L3049.3 432.104 L3049.3 467.752 L3043.45 467.752 L3043.45 462.278 Q3041.31 465.524 3038.48 467.116 Q3035.68 468.675 3031.96 468.675 Q3025.81 468.675 3022.63 464.856 Q3019.45 461.036 3019.45 453.684 M3034.19 431.245 L3034.19 431.245 Z" fill="#000000" fill-rule="evenodd" fill-opacity="1" /><path clip-path="url(#clip1300)" d="M 0 0 M3071.65 449.833 Q3064.55 449.833 3061.81 451.456 Q3059.08 453.079 3059.08 456.994 Q3059.08 460.113 3061.11 461.959 Q3063.18 463.774 3066.71 463.774 Q3071.58 463.774 3074.51 460.336 Q3077.47 456.867 3077.47 451.138 L3077.47 449.833 L3071.65 449.833 M3083.33 447.414 L3083.33 467.752 L3077.47 467.752 L3077.47 462.341 Q3075.47 465.588 3072.47 467.147 Q3069.48 468.675 3065.15 468.675 Q3059.68 468.675 3056.43 465.62 Q3053.22 462.532 3053.22 457.376 Q3053.22 451.36 3057.23 448.305 Q3061.27 445.249 3069.26 445.249 L3077.47 445.249 L3077.47 444.676 Q3077.47 440.634 3074.8 438.438 Q3072.16 436.21 3067.35 436.21 Q3064.29 436.21 3061.4 436.942 Q3058.5 437.674 3055.83 439.138 L3055.83 433.727 Q3059.04 432.486 3062.07 431.881 Q3065.09 431.245 3067.96 431.245 Q3075.69 431.245 3079.51 435.255 Q3083.33 439.266 3083.33 447.414 Z" fill="#000000" fill-rule="evenodd" fill-opacity="1" /><path clip-path="url(#clip1300)" d="M 0 0 M3112.93 437.515 L3112.93 418.227 L3118.79 418.227 L3118.79 467.752 L3112.93 467.752 L3112.93 462.405 Q3111.08 465.588 3108.25 467.147 Q3105.45 468.675 3101.5 468.675 Q3095.04 468.675 3090.97 463.519 Q3086.93 458.363 3086.93 449.96 Q3086.93 441.557 3090.97 436.401 Q3095.04 431.245 3101.5 431.245 Q3105.45 431.245 3108.25 432.804 Q3111.08 434.332 3112.93 437.515 M3092.97 449.96 Q3092.97 456.421 3095.61 460.113 Q3098.29 463.774 3102.93 463.774 Q3107.58 463.774 3110.26 460.113 Q3112.93 456.421 3112.93 449.96 Q3112.93 443.499 3110.26 439.839 Q3107.58 436.146 3102.93 436.146 Q3098.29 436.146 3095.61 439.839 Q3092.97 443.499 3092.97 449.96 Z" fill="#000000" fill-rule="evenodd" fill-opacity="1" /><path clip-path="url(#clip1300)" d="M 0 0 M3165.96 442.13 Q3170.57 443.117 3173.15 446.236 Q3175.76 449.355 3175.76 453.939 Q3175.76 460.973 3170.92 464.824 Q3166.08 468.675 3157.17 468.675 Q3154.18 468.675 3151 468.07 Q3147.84 467.497 3144.47 466.32 L3144.47 460.113 Q3147.14 461.673 3150.33 462.469 Q3153.51 463.264 3156.98 463.264 Q3163.03 463.264 3166.18 460.877 Q3169.36 458.49 3169.36 453.939 Q3169.36 449.737 3166.4 447.382 Q3163.47 444.995 3158.22 444.995 L3152.68 444.995 L3152.68 439.711 L3158.48 439.711 Q3163.22 439.711 3165.73 437.833 Q3168.25 435.924 3168.25 432.359 Q3168.25 428.699 3165.64 426.757 Q3163.06 424.784 3158.22 424.784 Q3155.58 424.784 3152.56 425.357 Q3149.53 425.929 3145.9 427.139 L3145.9 421.41 Q3149.56 420.391 3152.75 419.882 Q3155.96 419.373 3158.79 419.373 Q3166.11 419.373 3170.38 422.715 Q3174.64 426.025 3174.64 431.69 Q3174.64 435.637 3172.38 438.374 Q3170.12 441.08 3165.96 442.13 Z" fill="#000000" fill-rule="evenodd" fill-opacity="1" /><polyline clip-path="url(#clip1300)" style="stroke:#c271d2; stroke-width:16; stroke-opacity:1; fill:none" points="
  2745.92,504.472 2937.92,504.472 
  "/>
<path clip-path="url(#clip1300)" d="M 0 0 M2991.95 485.073 Q2984.95 485.073 2980.81 490.293 Q2976.7 495.512 2976.7 504.52 Q2976.7 513.496 2980.81 518.715 Q2984.95 523.935 2991.95 523.935 Q2998.95 523.935 3003.03 518.715 Q3007.13 513.496 3007.13 504.52 Q3007.13 495.512 3003.03 490.293 Q2998.95 485.073 2991.95 485.073 M3000.96 527.373 L3009.42 536.635 L3001.66 536.635 L2994.62 529.028 Q2993.57 529.091 2993 529.123 Q2992.46 529.155 2991.95 529.155 Q2981.92 529.155 2975.91 522.471 Q2969.92 515.755 2969.92 504.52 Q2969.92 493.253 2975.91 486.569 Q2981.92 479.853 2991.95 479.853 Q3001.94 479.853 3007.93 486.569 Q3013.91 493.253 3013.91 504.52 Q3013.91 512.795 3010.57 518.684 Q3007.26 524.572 3000.96 527.373 Z" fill="#000000" fill-rule="evenodd" fill-opacity="1" /><path clip-path="url(#clip1300)" d="M 0 0 M3019.45 514.164 L3019.45 492.584 L3025.31 492.584 L3025.31 513.941 Q3025.31 519.002 3027.28 521.548 Q3029.25 524.063 3033.2 524.063 Q3037.94 524.063 3040.68 521.039 Q3043.45 518.015 3043.45 512.795 L3043.45 492.584 L3049.3 492.584 L3049.3 528.232 L3043.45 528.232 L3043.45 522.758 Q3041.31 526.004 3038.48 527.596 Q3035.68 529.155 3031.96 529.155 Q3025.81 529.155 3022.63 525.336 Q3019.45 521.516 3019.45 514.164 M3034.19 491.725 L3034.19 491.725 Z" fill="#000000" fill-rule="evenodd" fill-opacity="1" /><path clip-path="url(#clip1300)" d="M 0 0 M3071.65 510.313 Q3064.55 510.313 3061.81 511.936 Q3059.08 513.559 3059.08 517.474 Q3059.08 520.593 3061.11 522.439 Q3063.18 524.254 3066.71 524.254 Q3071.58 524.254 3074.51 520.816 Q3077.47 517.347 3077.47 511.618 L3077.47 510.313 L3071.65 510.313 M3083.33 507.894 L3083.33 528.232 L3077.47 528.232 L3077.47 522.821 Q3075.47 526.068 3072.47 527.627 Q3069.48 529.155 3065.15 529.155 Q3059.68 529.155 3056.43 526.1 Q3053.22 523.012 3053.22 517.856 Q3053.22 511.84 3057.23 508.785 Q3061.27 505.729 3069.26 505.729 L3077.47 505.729 L3077.47 505.156 Q3077.47 501.114 3074.8 498.918 Q3072.16 496.69 3067.35 496.69 Q3064.29 496.69 3061.4 497.422 Q3058.5 498.154 3055.83 499.618 L3055.83 494.207 Q3059.04 492.966 3062.07 492.361 Q3065.09 491.725 3067.96 491.725 Q3075.69 491.725 3079.51 495.735 Q3083.33 499.746 3083.33 507.894 Z" fill="#000000" fill-rule="evenodd" fill-opacity="1" /><path clip-path="url(#clip1300)" d="M 0 0 M3112.93 497.995 L3112.93 478.707 L3118.79 478.707 L3118.79 528.232 L3112.93 528.232 L3112.93 522.885 Q3111.08 526.068 3108.25 527.627 Q3105.45 529.155 3101.5 529.155 Q3095.04 529.155 3090.97 523.999 Q3086.93 518.843 3086.93 510.44 Q3086.93 502.037 3090.97 496.881 Q3095.04 491.725 3101.5 491.725 Q3105.45 491.725 3108.25 493.284 Q3111.08 494.812 3112.93 497.995 M3092.97 510.44 Q3092.97 516.901 3095.61 520.593 Q3098.29 524.254 3102.93 524.254 Q3107.58 524.254 3110.26 520.593 Q3112.93 516.901 3112.93 510.44 Q3112.93 503.979 3110.26 500.319 Q3107.58 496.626 3102.93 496.626 Q3098.29 496.626 3095.61 500.319 Q3092.97 503.979 3092.97 510.44 Z" fill="#000000" fill-rule="evenodd" fill-opacity="1" /><path clip-path="url(#clip1300)" d="M 0 0 M3164.14 486.314 L3147.91 511.681 L3164.14 511.681 L3164.14 486.314 M3162.45 480.712 L3170.54 480.712 L3170.54 511.681 L3177.32 511.681 L3177.32 517.028 L3170.54 517.028 L3170.54 528.232 L3164.14 528.232 L3164.14 517.028 L3142.69 517.028 L3142.69 510.822 L3162.45 480.712 Z" fill="#000000" fill-rule="evenodd" fill-opacity="1" /><polyline clip-path="url(#clip1300)" style="stroke:#ac8d18; stroke-width:16; stroke-opacity:1; fill:none" points="
  2745.92,564.952 2937.92,564.952 
  "/>
<path clip-path="url(#clip1300)" d="M 0 0 M2991.95 545.553 Q2984.95 545.553 2980.81 550.773 Q2976.7 555.992 2976.7 565 Q2976.7 573.976 2980.81 579.195 Q2984.95 584.415 2991.95 584.415 Q2998.95 584.415 3003.03 579.195 Q3007.13 573.976 3007.13 565 Q3007.13 555.992 3003.03 550.773 Q2998.95 545.553 2991.95 545.553 M3000.96 587.853 L3009.42 597.115 L3001.66 597.115 L2994.62 589.508 Q2993.57 589.571 2993 589.603 Q2992.46 589.635 2991.95 589.635 Q2981.92 589.635 2975.91 582.951 Q2969.92 576.235 2969.92 565 Q2969.92 553.733 2975.91 547.049 Q2981.92 540.333 2991.95 540.333 Q3001.94 540.333 3007.93 547.049 Q3013.91 553.733 3013.91 565 Q3013.91 573.275 3010.57 579.164 Q3007.26 585.052 3000.96 587.853 Z" fill="#000000" fill-rule="evenodd" fill-opacity="1" /><path clip-path="url(#clip1300)" d="M 0 0 M3019.45 574.644 L3019.45 553.064 L3025.31 553.064 L3025.31 574.421 Q3025.31 579.482 3027.28 582.028 Q3029.25 584.543 3033.2 584.543 Q3037.94 584.543 3040.68 581.519 Q3043.45 578.495 3043.45 573.275 L3043.45 553.064 L3049.3 553.064 L3049.3 588.712 L3043.45 588.712 L3043.45 583.238 Q3041.31 586.484 3038.48 588.076 Q3035.68 589.635 3031.96 589.635 Q3025.81 589.635 3022.63 585.816 Q3019.45 581.996 3019.45 574.644 M3034.19 552.205 L3034.19 552.205 Z" fill="#000000" fill-rule="evenodd" fill-opacity="1" /><path clip-path="url(#clip1300)" d="M 0 0 M3071.65 570.793 Q3064.55 570.793 3061.81 572.416 Q3059.08 574.039 3059.08 577.954 Q3059.08 581.073 3061.11 582.919 Q3063.18 584.734 3066.71 584.734 Q3071.58 584.734 3074.51 581.296 Q3077.47 577.827 3077.47 572.098 L3077.47 570.793 L3071.65 570.793 M3083.33 568.374 L3083.33 588.712 L3077.47 588.712 L3077.47 583.301 Q3075.47 586.548 3072.47 588.107 Q3069.48 589.635 3065.15 589.635 Q3059.68 589.635 3056.43 586.58 Q3053.22 583.492 3053.22 578.336 Q3053.22 572.32 3057.23 569.265 Q3061.27 566.209 3069.26 566.209 L3077.47 566.209 L3077.47 565.636 Q3077.47 561.594 3074.8 559.398 Q3072.16 557.17 3067.35 557.17 Q3064.29 557.17 3061.4 557.902 Q3058.5 558.634 3055.83 560.098 L3055.83 554.687 Q3059.04 553.446 3062.07 552.841 Q3065.09 552.205 3067.96 552.205 Q3075.69 552.205 3079.51 556.215 Q3083.33 560.226 3083.33 568.374 Z" fill="#000000" fill-rule="evenodd" fill-opacity="1" /><path clip-path="url(#clip1300)" d="M 0 0 M3112.93 558.475 L3112.93 539.187 L3118.79 539.187 L3118.79 588.712 L3112.93 588.712 L3112.93 583.365 Q3111.08 586.548 3108.25 588.107 Q3105.45 589.635 3101.5 589.635 Q3095.04 589.635 3090.97 584.479 Q3086.93 579.323 3086.93 570.92 Q3086.93 562.517 3090.97 557.361 Q3095.04 552.205 3101.5 552.205 Q3105.45 552.205 3108.25 553.764 Q3111.08 555.292 3112.93 558.475 M3092.97 570.92 Q3092.97 577.381 3095.61 581.073 Q3098.29 584.734 3102.93 584.734 Q3107.58 584.734 3110.26 581.073 Q3112.93 577.381 3112.93 570.92 Q3112.93 564.459 3110.26 560.799 Q3107.58 557.106 3102.93 557.106 Q3098.29 557.106 3095.61 560.799 Q3092.97 564.459 3092.97 570.92 Z" fill="#000000" fill-rule="evenodd" fill-opacity="1" /><path clip-path="url(#clip1300)" d="M 0 0 M3146.54 541.192 L3171.78 541.192 L3171.78 546.603 L3152.43 546.603 L3152.43 558.252 Q3153.83 557.775 3155.23 557.552 Q3156.63 557.297 3158.03 557.297 Q3165.99 557.297 3170.63 561.658 Q3175.28 566.018 3175.28 573.466 Q3175.28 581.137 3170.51 585.402 Q3165.73 589.635 3157.04 589.635 Q3154.05 589.635 3150.93 589.126 Q3147.84 588.617 3144.53 587.598 L3144.53 581.137 Q3147.4 582.697 3150.45 583.46 Q3153.51 584.224 3156.92 584.224 Q3162.42 584.224 3165.64 581.328 Q3168.85 578.432 3168.85 573.466 Q3168.85 568.501 3165.64 565.605 Q3162.42 562.708 3156.92 562.708 Q3154.34 562.708 3151.76 563.281 Q3149.21 563.854 3146.54 565.064 L3146.54 541.192 Z" fill="#000000" fill-rule="evenodd" fill-opacity="1" /><polyline clip-path="url(#clip1300)" style="stroke:#00a9ad; stroke-width:16; stroke-opacity:1; fill:none" points="
  2745.92,625.432 2937.92,625.432 
  "/>
<path clip-path="url(#clip1300)" d="M 0 0 M2991.95 606.033 Q2984.95 606.033 2980.81 611.253 Q2976.7 616.472 2976.7 625.48 Q2976.7 634.456 2980.81 639.675 Q2984.95 644.895 2991.95 644.895 Q2998.95 644.895 3003.03 639.675 Q3007.13 634.456 3007.13 625.48 Q3007.13 616.472 3003.03 611.253 Q2998.95 606.033 2991.95 606.033 M3000.96 648.333 L3009.42 657.595 L3001.66 657.595 L2994.62 649.988 Q2993.57 650.051 2993 650.083 Q2992.46 650.115 2991.95 650.115 Q2981.92 650.115 2975.91 643.431 Q2969.92 636.715 2969.92 625.48 Q2969.92 614.213 2975.91 607.529 Q2981.92 600.813 2991.95 600.813 Q3001.94 600.813 3007.93 607.529 Q3013.91 614.213 3013.91 625.48 Q3013.91 633.755 3010.57 639.644 Q3007.26 645.532 3000.96 648.333 Z" fill="#000000" fill-rule="evenodd" fill-opacity="1" /><path clip-path="url(#clip1300)" d="M 0 0 M3019.45 635.124 L3019.45 613.544 L3025.31 613.544 L3025.31 634.901 Q3025.31 639.962 3027.28 642.508 Q3029.25 645.023 3033.2 645.023 Q3037.94 645.023 3040.68 641.999 Q3043.45 638.975 3043.45 633.755 L3043.45 613.544 L3049.3 613.544 L3049.3 649.192 L3043.45 649.192 L3043.45 643.718 Q3041.31 646.964 3038.48 648.556 Q3035.68 650.115 3031.96 650.115 Q3025.81 650.115 3022.63 646.296 Q3019.45 642.476 3019.45 635.124 M3034.19 612.685 L3034.19 612.685 Z" fill="#000000" fill-rule="evenodd" fill-opacity="1" /><path clip-path="url(#clip1300)" d="M 0 0 M3071.65 631.273 Q3064.55 631.273 3061.81 632.896 Q3059.08 634.519 3059.08 638.434 Q3059.08 641.553 3061.11 643.399 Q3063.18 645.214 3066.71 645.214 Q3071.58 645.214 3074.51 641.776 Q3077.47 638.307 3077.47 632.578 L3077.47 631.273 L3071.65 631.273 M3083.33 628.854 L3083.33 649.192 L3077.47 649.192 L3077.47 643.781 Q3075.47 647.028 3072.47 648.587 Q3069.48 650.115 3065.15 650.115 Q3059.68 650.115 3056.43 647.06 Q3053.22 643.972 3053.22 638.816 Q3053.22 632.8 3057.23 629.745 Q3061.27 626.689 3069.26 626.689 L3077.47 626.689 L3077.47 626.116 Q3077.47 622.074 3074.8 619.878 Q3072.16 617.65 3067.35 617.65 Q3064.29 617.65 3061.4 618.382 Q3058.5 619.114 3055.83 620.578 L3055.83 615.167 Q3059.04 613.926 3062.07 613.321 Q3065.09 612.685 3067.96 612.685 Q3075.69 612.685 3079.51 616.695 Q3083.33 620.706 3083.33 628.854 Z" fill="#000000" fill-rule="evenodd" fill-opacity="1" /><path clip-path="url(#clip1300)" d="M 0 0 M3112.93 618.955 L3112.93 599.667 L3118.79 599.667 L3118.79 649.192 L3112.93 649.192 L3112.93 643.845 Q3111.08 647.028 3108.25 648.587 Q3105.45 650.115 3101.5 650.115 Q3095.04 650.115 3090.97 644.959 Q3086.93 639.803 3086.93 631.4 Q3086.93 622.997 3090.97 617.841 Q3095.04 612.685 3101.5 612.685 Q3105.45 612.685 3108.25 614.244 Q3111.08 615.772 3112.93 618.955 M3092.97 631.4 Q3092.97 637.861 3095.61 641.553 Q3098.29 645.214 3102.93 645.214 Q3107.58 645.214 3110.26 641.553 Q3112.93 637.861 3112.93 631.4 Q3112.93 624.939 3110.26 621.279 Q3107.58 617.586 3102.93 617.586 Q3098.29 617.586 3095.61 621.279 Q3092.97 624.939 3092.97 631.4 Z" fill="#000000" fill-rule="evenodd" fill-opacity="1" /><path clip-path="url(#clip1300)" d="M 0 0 M3161.02 622.87 Q3156.69 622.87 3154.15 625.83 Q3151.63 628.79 3151.63 633.946 Q3151.63 639.071 3154.15 642.063 Q3156.69 645.023 3161.02 645.023 Q3165.35 645.023 3167.87 642.063 Q3170.41 639.071 3170.41 633.946 Q3170.41 628.79 3167.87 625.83 Q3165.35 622.87 3161.02 622.87 M3173.79 602.722 L3173.79 608.579 Q3171.37 607.433 3168.88 606.828 Q3166.43 606.224 3164.01 606.224 Q3157.65 606.224 3154.27 610.52 Q3150.93 614.817 3150.45 623.506 Q3152.33 620.737 3155.17 619.273 Q3158 617.777 3161.4 617.777 Q3168.57 617.777 3172.7 622.138 Q3176.87 626.467 3176.87 633.946 Q3176.87 641.267 3172.54 645.691 Q3168.22 650.115 3161.02 650.115 Q3152.78 650.115 3148.42 643.813 Q3144.06 637.479 3144.06 625.48 Q3144.06 614.213 3149.4 607.529 Q3154.75 600.813 3163.76 600.813 Q3166.18 600.813 3168.63 601.29 Q3171.11 601.768 3173.79 602.722 Z" fill="#000000" fill-rule="evenodd" fill-opacity="1" /><polyline clip-path="url(#clip1300)" style="stroke:#ed5d92; stroke-width:16; stroke-opacity:1; fill:none" points="
  2745.92,685.912 2937.92,685.912 
  "/>
<path clip-path="url(#clip1300)" d="M 0 0 M2969.92 662.152 L2976.35 662.152 L2976.35 704.261 L2999.49 704.261 L2999.49 709.672 L2969.92 709.672 L2969.92 662.152 Z" fill="#000000" fill-rule="evenodd" fill-opacity="1" /><path clip-path="url(#clip1300)" d="M 0 0 M3018.3 678.13 Q3013.59 678.13 3010.85 681.822 Q3008.12 685.482 3008.12 691.88 Q3008.12 698.278 3010.82 701.97 Q3013.56 705.63 3018.3 705.63 Q3022.98 705.63 3025.72 701.938 Q3028.46 698.246 3028.46 691.88 Q3028.46 685.546 3025.72 681.854 Q3022.98 678.13 3018.3 678.13 M3018.3 673.165 Q3025.94 673.165 3030.3 678.13 Q3034.66 683.095 3034.66 691.88 Q3034.66 700.633 3030.3 705.63 Q3025.94 710.595 3018.3 710.595 Q3010.63 710.595 3006.27 705.63 Q3001.94 700.633 3001.94 691.88 Q3001.94 683.095 3006.27 678.13 Q3010.63 673.165 3018.3 673.165 Z" fill="#000000" fill-rule="evenodd" fill-opacity="1" /><path clip-path="url(#clip1300)" d="M 0 0 M3057.01 691.753 Q3049.91 691.753 3047.17 693.376 Q3044.43 694.999 3044.43 698.914 Q3044.43 702.033 3046.47 703.879 Q3048.54 705.694 3052.07 705.694 Q3056.94 705.694 3059.87 702.256 Q3062.83 698.787 3062.83 693.058 L3062.83 691.753 L3057.01 691.753 M3068.69 689.334 L3068.69 709.672 L3062.83 709.672 L3062.83 704.261 Q3060.83 707.508 3057.83 709.067 Q3054.84 710.595 3050.51 710.595 Q3045.04 710.595 3041.79 707.54 Q3038.58 704.452 3038.58 699.296 Q3038.58 693.28 3042.59 690.225 Q3046.63 687.169 3054.62 687.169 L3062.83 687.169 L3062.83 686.596 Q3062.83 682.554 3060.16 680.358 Q3057.52 678.13 3052.71 678.13 Q3049.65 678.13 3046.76 678.862 Q3043.86 679.594 3041.19 681.058 L3041.19 675.647 Q3044.4 674.406 3047.43 673.801 Q3050.45 673.165 3053.31 673.165 Q3061.05 673.165 3064.87 677.175 Q3068.69 681.186 3068.69 689.334 Z" fill="#000000" fill-rule="evenodd" fill-opacity="1" /><path clip-path="url(#clip1300)" d="M 0 0 M3098.29 679.435 L3098.29 660.147 L3104.14 660.147 L3104.14 709.672 L3098.29 709.672 L3098.29 704.325 Q3096.44 707.508 3093.61 709.067 Q3090.81 710.595 3086.86 710.595 Q3080.4 710.595 3076.33 705.439 Q3072.28 700.283 3072.28 691.88 Q3072.28 683.477 3076.33 678.321 Q3080.4 673.165 3086.86 673.165 Q3090.81 673.165 3093.61 674.724 Q3096.44 676.252 3098.29 679.435 M3078.33 691.88 Q3078.33 698.341 3080.97 702.033 Q3083.65 705.694 3088.29 705.694 Q3092.94 705.694 3095.61 702.033 Q3098.29 698.341 3098.29 691.88 Q3098.29 685.419 3095.61 681.759 Q3092.94 678.066 3088.29 678.066 Q3083.65 678.066 3080.97 681.759 Q3078.33 685.419 3078.33 691.88 Z" fill="#000000" fill-rule="evenodd" fill-opacity="1" /></svg>
