<?xml version="1.0" encoding="utf-8"?>
<svg xmlns="http://www.w3.org/2000/svg" xmlns:xlink="http://www.w3.org/1999/xlink" width="800" height="600" viewBox="0 0 3200 2400">
<defs>
  <clipPath id="clip8900">
    <rect x="0" y="0" width="3200" height="2400"/>
  </clipPath>
</defs>
<path clip-path="url(#clip8900)" d="
M0 2400 L3200 2400 L3200 0 L0 0  Z
  " fill="#ffffff" fill-rule="evenodd" fill-opacity="1"/>
<defs>
  <clipPath id="clip8901">
    <rect x="640" y="0" width="2241" height="2241"/>
  </clipPath>
</defs>
<path clip-path="url(#clip8900)" d="
M204.177 2204.92 L2617.92 2204.92 L2617.92 131.032 L204.177 131.032  Z
  " fill="#ffffff" fill-rule="evenodd" fill-opacity="1"/>
<defs>
  <clipPath id="clip8902">
    <rect x="204" y="131" width="2415" height="2075"/>
  </clipPath>
</defs>
<polyline clip-path="url(#clip8902)" style="stroke:#000000; stroke-width:2; stroke-opacity:0.1; fill:none" points="
  272.49,2204.92 272.49,131.032 
  "/>
<polyline clip-path="url(#clip8902)" style="stroke:#000000; stroke-width:2; stroke-opacity:0.1; fill:none" points="
  727.914,2204.92 727.914,131.032 
  "/>
<polyline clip-path="url(#clip8902)" style="stroke:#000000; stroke-width:2; stroke-opacity:0.1; fill:none" points="
  1183.34,2204.92 1183.34,131.032 
  "/>
<polyline clip-path="url(#clip8902)" style="stroke:#000000; stroke-width:2; stroke-opacity:0.1; fill:none" points="
  1638.76,2204.92 1638.76,131.032 
  "/>
<polyline clip-path="url(#clip8902)" style="stroke:#000000; stroke-width:2; stroke-opacity:0.1; fill:none" points="
  2094.19,2204.92 2094.19,131.032 
  "/>
<polyline clip-path="url(#clip8902)" style="stroke:#000000; stroke-width:2; stroke-opacity:0.1; fill:none" points="
  2549.61,2204.92 2549.61,131.032 
  "/>
<polyline clip-path="url(#clip8902)" style="stroke:#000000; stroke-width:2; stroke-opacity:0.1; fill:none" points="
  204.177,2119.26 2617.92,2119.26 
  "/>
<polyline clip-path="url(#clip8902)" style="stroke:#000000; stroke-width:2; stroke-opacity:0.1; fill:none" points="
  204.177,1783.76 2617.92,1783.76 
  "/>
<polyline clip-path="url(#clip8902)" style="stroke:#000000; stroke-width:2; stroke-opacity:0.1; fill:none" points="
  204.177,1448.25 2617.92,1448.25 
  "/>
<polyline clip-path="url(#clip8902)" style="stroke:#000000; stroke-width:2; stroke-opacity:0.1; fill:none" points="
  204.177,1112.75 2617.92,1112.75 
  "/>
<polyline clip-path="url(#clip8902)" style="stroke:#000000; stroke-width:2; stroke-opacity:0.1; fill:none" points="
  204.177,777.248 2617.92,777.248 
  "/>
<polyline clip-path="url(#clip8902)" style="stroke:#000000; stroke-width:2; stroke-opacity:0.1; fill:none" points="
  204.177,441.745 2617.92,441.745 
  "/>
<polyline clip-path="url(#clip8900)" style="stroke:#000000; stroke-width:4; stroke-opacity:1; fill:none" points="
  204.177,2204.92 2617.92,2204.92 
  "/>
<polyline clip-path="url(#clip8900)" style="stroke:#000000; stroke-width:4; stroke-opacity:1; fill:none" points="
  204.177,2204.92 204.177,131.032 
  "/>
<polyline clip-path="url(#clip8900)" style="stroke:#000000; stroke-width:4; stroke-opacity:1; fill:none" points="
  272.49,2204.92 272.49,2180.03 
  "/>
<polyline clip-path="url(#clip8900)" style="stroke:#000000; stroke-width:4; stroke-opacity:1; fill:none" points="
  727.914,2204.92 727.914,2180.03 
  "/>
<polyline clip-path="url(#clip8900)" style="stroke:#000000; stroke-width:4; stroke-opacity:1; fill:none" points="
  1183.34,2204.92 1183.34,2180.03 
  "/>
<polyline clip-path="url(#clip8900)" style="stroke:#000000; stroke-width:4; stroke-opacity:1; fill:none" points="
  1638.76,2204.92 1638.76,2180.03 
  "/>
<polyline clip-path="url(#clip8900)" style="stroke:#000000; stroke-width:4; stroke-opacity:1; fill:none" points="
  2094.19,2204.92 2094.19,2180.03 
  "/>
<polyline clip-path="url(#clip8900)" style="stroke:#000000; stroke-width:4; stroke-opacity:1; fill:none" points="
  2549.61,2204.92 2549.61,2180.03 
  "/>
<polyline clip-path="url(#clip8900)" style="stroke:#000000; stroke-width:4; stroke-opacity:1; fill:none" points="
  204.177,2119.26 233.142,2119.26 
  "/>
<polyline clip-path="url(#clip8900)" style="stroke:#000000; stroke-width:4; stroke-opacity:1; fill:none" points="
  204.177,1783.76 233.142,1783.76 
  "/>
<polyline clip-path="url(#clip8900)" style="stroke:#000000; stroke-width:4; stroke-opacity:1; fill:none" points="
  204.177,1448.25 233.142,1448.25 
  "/>
<polyline clip-path="url(#clip8900)" style="stroke:#000000; stroke-width:4; stroke-opacity:1; fill:none" points="
  204.177,1112.75 233.142,1112.75 
  "/>
<polyline clip-path="url(#clip8900)" style="stroke:#000000; stroke-width:4; stroke-opacity:1; fill:none" points="
  204.177,777.248 233.142,777.248 
  "/>
<polyline clip-path="url(#clip8900)" style="stroke:#000000; stroke-width:4; stroke-opacity:1; fill:none" points="
  204.177,441.745 233.142,441.745 
  "/>
<path clip-path="url(#clip8900)" d="M 0 0 M272.49 2230.91 Q268.879 2230.91 267.051 2234.48 Q265.245 2238.02 265.245 2245.15 Q265.245 2252.25 267.051 2255.82 Q268.879 2259.36 272.49 2259.36 Q276.125 2259.36 277.93 2255.82 Q279.759 2252.25 279.759 2245.15 Q279.759 2238.02 277.93 2234.48 Q276.125 2230.91 272.49 2230.91 M272.49 2227.21 Q278.301 2227.21 281.356 2231.81 Q284.435 2236.4 284.435 2245.15 Q284.435 2253.87 281.356 2258.48 Q278.301 2263.06 272.49 2263.06 Q266.68 2263.06 263.602 2258.48 Q260.546 2253.87 260.546 2245.15 Q260.546 2236.4 263.602 2231.81 Q266.68 2227.21 272.49 2227.21 Z" fill="#000000" fill-rule="evenodd" fill-opacity="1" /><path clip-path="url(#clip8900)" d="M 0 0 M718.296 2258.46 L725.935 2258.46 L725.935 2232.09 L717.625 2233.76 L717.625 2229.5 L725.889 2227.83 L730.565 2227.83 L730.565 2258.46 L738.204 2258.46 L738.204 2262.39 L718.296 2262.39 L718.296 2258.46 Z" fill="#000000" fill-rule="evenodd" fill-opacity="1" /><path clip-path="url(#clip8900)" d="M 0 0 M1177.99 2258.46 L1194.31 2258.46 L1194.31 2262.39 L1172.37 2262.39 L1172.37 2258.46 Q1175.03 2255.7 1179.61 2251.07 Q1184.22 2246.42 1185.4 2245.08 Q1187.64 2242.55 1188.52 2240.82 Q1189.43 2239.06 1189.43 2237.37 Q1189.43 2234.61 1187.48 2232.88 Q1185.56 2231.14 1182.46 2231.14 Q1180.26 2231.14 1177.81 2231.91 Q1175.38 2232.67 1172.6 2234.22 L1172.6 2229.5 Q1175.42 2228.36 1177.88 2227.79 Q1180.33 2227.21 1182.37 2227.21 Q1187.74 2227.21 1190.93 2229.89 Q1194.13 2232.58 1194.13 2237.07 Q1194.13 2239.2 1193.31 2241.12 Q1192.53 2243.02 1190.42 2245.61 Q1189.84 2246.28 1186.74 2249.5 Q1183.64 2252.69 1177.99 2258.46 Z" fill="#000000" fill-rule="evenodd" fill-opacity="1" /><path clip-path="url(#clip8900)" d="M 0 0 M1643.01 2243.76 Q1646.37 2244.48 1648.24 2246.74 Q1650.14 2249.01 1650.14 2252.35 Q1650.14 2257.46 1646.62 2260.26 Q1643.1 2263.06 1636.62 2263.06 Q1634.44 2263.06 1632.13 2262.62 Q1629.84 2262.21 1627.38 2261.35 L1627.38 2256.84 Q1629.33 2257.97 1631.64 2258.55 Q1633.96 2259.13 1636.48 2259.13 Q1640.88 2259.13 1643.17 2257.39 Q1645.49 2255.66 1645.49 2252.35 Q1645.49 2249.29 1643.33 2247.58 Q1641.2 2245.84 1637.38 2245.84 L1633.36 2245.84 L1633.36 2242 L1637.57 2242 Q1641.02 2242 1642.85 2240.63 Q1644.68 2239.24 1644.68 2236.65 Q1644.68 2233.99 1642.78 2232.58 Q1640.9 2231.14 1637.38 2231.14 Q1635.46 2231.14 1633.26 2231.56 Q1631.07 2231.98 1628.43 2232.85 L1628.43 2228.69 Q1631.09 2227.95 1633.4 2227.58 Q1635.74 2227.21 1637.8 2227.21 Q1643.13 2227.21 1646.23 2229.64 Q1649.33 2232.04 1649.33 2236.17 Q1649.33 2239.04 1647.69 2241.03 Q1646.04 2242.99 1643.01 2243.76 Z" fill="#000000" fill-rule="evenodd" fill-opacity="1" /><path clip-path="url(#clip8900)" d="M 0 0 M2097.2 2231.91 L2085.39 2250.35 L2097.2 2250.35 L2097.2 2231.91 M2095.97 2227.83 L2101.85 2227.83 L2101.85 2250.35 L2106.78 2250.35 L2106.78 2254.24 L2101.85 2254.24 L2101.85 2262.39 L2097.2 2262.39 L2097.2 2254.24 L2081.59 2254.24 L2081.59 2249.73 L2095.97 2227.83 Z" fill="#000000" fill-rule="evenodd" fill-opacity="1" /><path clip-path="url(#clip8900)" d="M 0 0 M2539.89 2227.83 L2558.24 2227.83 L2558.24 2231.77 L2544.17 2231.77 L2544.17 2240.24 Q2545.19 2239.89 2546.21 2239.73 Q2547.23 2239.54 2548.24 2239.54 Q2554.03 2239.54 2557.41 2242.72 Q2560.79 2245.89 2560.79 2251.3 Q2560.79 2256.88 2557.32 2259.98 Q2553.85 2263.06 2547.53 2263.06 Q2545.35 2263.06 2543.08 2262.69 Q2540.84 2262.32 2538.43 2261.58 L2538.43 2256.88 Q2540.51 2258.02 2542.73 2258.57 Q2544.96 2259.13 2547.43 2259.13 Q2551.44 2259.13 2553.78 2257.02 Q2556.11 2254.92 2556.11 2251.3 Q2556.11 2247.69 2553.78 2245.59 Q2551.44 2243.48 2547.43 2243.48 Q2545.56 2243.48 2543.68 2243.9 Q2541.83 2244.31 2539.89 2245.19 L2539.89 2227.83 Z" fill="#000000" fill-rule="evenodd" fill-opacity="1" /><path clip-path="url(#clip8900)" d="M 0 0 M133.682 2121.66 L146.158 2121.66 L146.158 2125.45 L133.682 2125.45 L133.682 2121.66 Z" fill="#000000" fill-rule="evenodd" fill-opacity="1" /><path clip-path="url(#clip8900)" d="M 0 0 M151.274 2101.98 L169.631 2101.98 L169.631 2105.92 L155.557 2105.92 L155.557 2114.39 Q156.575 2114.04 157.594 2113.88 Q158.612 2113.69 159.631 2113.69 Q165.418 2113.69 168.797 2116.86 Q172.177 2120.04 172.177 2125.45 Q172.177 2131.03 168.705 2134.13 Q165.232 2137.21 158.913 2137.21 Q156.737 2137.21 154.469 2136.84 Q152.223 2136.47 149.816 2135.73 L149.816 2131.03 Q151.899 2132.16 154.121 2132.72 Q156.344 2133.28 158.82 2133.28 Q162.825 2133.28 165.163 2131.17 Q167.501 2129.06 167.501 2125.45 Q167.501 2121.84 165.163 2119.73 Q162.825 2117.63 158.82 2117.63 Q156.945 2117.63 155.07 2118.04 Q153.219 2118.46 151.274 2119.34 L151.274 2101.98 Z" fill="#000000" fill-rule="evenodd" fill-opacity="1" /><path clip-path="url(#clip8900)" d="M 0 0 M132.2 1786.15 L144.677 1786.15 L144.677 1789.95 L132.2 1789.95 L132.2 1786.15 Z" fill="#000000" fill-rule="evenodd" fill-opacity="1" /><path clip-path="url(#clip8900)" d="M 0 0 M162.594 1770.55 L150.788 1789 L162.594 1789 L162.594 1770.55 M161.367 1766.48 L167.246 1766.48 L167.246 1789 L172.177 1789 L172.177 1792.89 L167.246 1792.89 L167.246 1801.04 L162.594 1801.04 L162.594 1792.89 L146.992 1792.89 L146.992 1788.38 L161.367 1766.48 Z" fill="#000000" fill-rule="evenodd" fill-opacity="1" /><path clip-path="url(#clip8900)" d="M 0 0 M133.334 1450.65 L145.811 1450.65 L145.811 1454.45 L133.334 1454.45 L133.334 1450.65 Z" fill="#000000" fill-rule="evenodd" fill-opacity="1" /><path clip-path="url(#clip8900)" d="M 0 0 M165.047 1446.9 Q168.404 1447.62 170.279 1449.89 Q172.177 1452.15 172.177 1455.49 Q172.177 1460.6 168.658 1463.4 Q165.14 1466.21 158.658 1466.21 Q156.482 1466.21 154.168 1465.77 Q151.876 1465.35 149.422 1464.49 L149.422 1459.98 Q151.367 1461.11 153.682 1461.69 Q155.996 1462.27 158.519 1462.27 Q162.918 1462.27 165.209 1460.53 Q167.524 1458.8 167.524 1455.49 Q167.524 1452.43 165.371 1450.72 Q163.242 1448.98 159.422 1448.98 L155.394 1448.98 L155.394 1445.14 L159.607 1445.14 Q163.056 1445.14 164.885 1443.77 Q166.714 1442.39 166.714 1439.79 Q166.714 1437.13 164.816 1435.72 Q162.941 1434.28 159.422 1434.28 Q157.501 1434.28 155.302 1434.7 Q153.103 1435.12 150.464 1436 L150.464 1431.83 Q153.126 1431.09 155.441 1430.72 Q157.779 1430.35 159.839 1430.35 Q165.163 1430.35 168.265 1432.78 Q171.367 1435.19 171.367 1439.31 Q171.367 1442.18 169.723 1444.17 Q168.08 1446.14 165.047 1446.9 Z" fill="#000000" fill-rule="evenodd" fill-opacity="1" /><path clip-path="url(#clip8900)" d="M 0 0 M134.283 1115.15 L146.76 1115.15 L146.76 1118.94 L134.283 1118.94 L134.283 1115.15 Z" fill="#000000" fill-rule="evenodd" fill-opacity="1" /><path clip-path="url(#clip8900)" d="M 0 0 M155.857 1126.1 L172.177 1126.1 L172.177 1130.03 L150.232 1130.03 L150.232 1126.1 Q152.894 1123.34 157.478 1118.71 Q162.084 1114.06 163.265 1112.72 Q165.51 1110.19 166.39 1108.46 Q167.293 1106.7 167.293 1105.01 Q167.293 1102.25 165.348 1100.52 Q163.427 1098.78 160.325 1098.78 Q158.126 1098.78 155.672 1099.55 Q153.242 1100.31 150.464 1101.86 L150.464 1097.14 Q153.288 1096 155.742 1095.42 Q158.195 1094.85 160.232 1094.85 Q165.603 1094.85 168.797 1097.53 Q171.992 1100.22 171.992 1104.71 Q171.992 1106.84 171.181 1108.76 Q170.394 1110.66 168.288 1113.25 Q167.709 1113.92 164.607 1117.14 Q161.506 1120.33 155.857 1126.1 Z" fill="#000000" fill-rule="evenodd" fill-opacity="1" /><path clip-path="url(#clip8900)" d="M 0 0 M133.913 779.644 L146.39 779.644 L146.39 783.44 L133.913 783.44 L133.913 779.644 Z" fill="#000000" fill-rule="evenodd" fill-opacity="1" /><path clip-path="url(#clip8900)" d="M 0 0 M152.269 790.593 L159.908 790.593 L159.908 764.227 L151.598 765.894 L151.598 761.635 L159.862 759.968 L164.538 759.968 L164.538 790.593 L172.177 790.593 L172.177 794.528 L152.269 794.528 L152.269 790.593 Z" fill="#000000" fill-rule="evenodd" fill-opacity="1" /><path clip-path="url(#clip8900)" d="M 0 0 M160.232 427.544 Q156.621 427.544 154.793 431.109 Q152.987 434.65 152.987 441.78 Q152.987 448.886 154.793 452.451 Q156.621 455.993 160.232 455.993 Q163.867 455.993 165.672 452.451 Q167.501 448.886 167.501 441.78 Q167.501 434.65 165.672 431.109 Q163.867 427.544 160.232 427.544 M160.232 423.84 Q166.043 423.84 169.098 428.447 Q172.177 433.03 172.177 441.78 Q172.177 450.507 169.098 455.113 Q166.043 459.696 160.232 459.696 Q154.422 459.696 151.344 455.113 Q148.288 450.507 148.288 441.78 Q148.288 433.03 151.344 428.447 Q154.422 423.84 160.232 423.84 Z" fill="#000000" fill-rule="evenodd" fill-opacity="1" /><path clip-path="url(#clip8900)" d="M 0 0 M482.056 12.096 L490.239 12.096 L490.239 36.8875 L519.973 36.8875 L519.973 12.096 L528.156 12.096 L528.156 72.576 L519.973 72.576 L519.973 43.7741 L490.239 43.7741 L490.239 72.576 L482.056 72.576 L482.056 12.096 Z" fill="#000000" fill-rule="evenodd" fill-opacity="1" /><path clip-path="url(#clip8900)" d="M 0 0 M553.555 32.4315 Q547.559 32.4315 544.076 37.1306 Q540.592 41.7891 540.592 49.9314 Q540.592 58.0738 544.035 62.7728 Q547.519 67.4314 553.555 67.4314 Q559.51 67.4314 562.993 62.7323 Q566.477 58.0333 566.477 49.9314 Q566.477 41.8701 562.993 37.1711 Q559.51 32.4315 553.555 32.4315 M553.555 26.1121 Q563.277 26.1121 568.827 32.4315 Q574.376 38.7509 574.376 49.9314 Q574.376 61.0714 568.827 67.4314 Q563.277 73.7508 553.555 73.7508 Q543.792 73.7508 538.242 67.4314 Q532.733 61.0714 532.733 49.9314 Q532.733 38.7509 538.242 32.4315 Q543.792 26.1121 553.555 26.1121 Z" fill="#000000" fill-rule="evenodd" fill-opacity="1" /><path clip-path="url(#clip8900)" d="M 0 0 M576.847 27.2059 L584.747 27.2059 L598.925 65.2844 L613.103 27.2059 L621.002 27.2059 L603.988 72.576 L593.861 72.576 L576.847 27.2059 Z" fill="#000000" fill-rule="evenodd" fill-opacity="1" /><path clip-path="url(#clip8900)" d="M 0 0 M667.628 48.0275 L667.628 51.6733 L633.357 51.6733 Q633.844 59.3701 637.976 63.421 Q642.148 67.4314 649.561 67.4314 Q653.855 67.4314 657.865 66.3781 Q661.916 65.3249 665.886 63.2184 L665.886 70.267 Q661.876 71.9684 657.663 72.8596 Q653.45 73.7508 649.116 73.7508 Q638.259 73.7508 631.899 67.4314 Q625.58 61.1119 625.58 50.3365 Q625.58 39.1965 631.575 32.6746 Q637.611 26.1121 647.819 26.1121 Q656.974 26.1121 662.281 32.0264 Q667.628 37.9003 667.628 48.0275 M660.174 45.84 Q660.093 39.7232 656.731 36.0774 Q653.409 32.4315 647.9 32.4315 Q641.662 32.4315 637.895 35.9558 Q634.168 39.4801 633.601 45.8805 L660.174 45.84 Z" fill="#000000" fill-rule="evenodd" fill-opacity="1" /><path clip-path="url(#clip8900)" d="M 0 0 M701.737 34.1734 Q700.481 33.4443 698.982 33.1202 Q697.524 32.7556 695.741 32.7556 Q689.422 32.7556 686.019 36.8875 Q682.657 40.9789 682.657 48.6757 L682.657 72.576 L675.163 72.576 L675.163 27.2059 L682.657 27.2059 L682.657 34.2544 Q685.007 30.1225 688.774 28.1376 Q692.541 26.1121 697.929 26.1121 Q698.699 26.1121 699.63 26.2337 Q700.562 26.3147 701.696 26.5172 L701.737 34.1734 Z" fill="#000000" fill-rule="evenodd" fill-opacity="1" /><path clip-path="url(#clip8900)" d="M 0 0 M709.555 27.2059 L717.009 27.2059 L717.009 72.576 L709.555 72.576 L709.555 27.2059 M709.555 9.54393 L717.009 9.54393 L717.009 18.9825 L709.555 18.9825 L709.555 9.54393 Z" fill="#000000" fill-rule="evenodd" fill-opacity="1" /><path clip-path="url(#clip8900)" d="M 0 0 M762.541 45.1919 L762.541 72.576 L755.087 72.576 L755.087 45.4349 Q755.087 38.994 752.576 35.7938 Q750.064 32.5936 745.041 32.5936 Q739.005 32.5936 735.521 36.4419 Q732.038 40.2903 732.038 46.9338 L732.038 72.576 L724.543 72.576 L724.543 27.2059 L732.038 27.2059 L732.038 34.2544 Q734.711 30.163 738.316 28.1376 Q741.962 26.1121 746.702 26.1121 Q754.52 26.1121 758.53 30.9732 Q762.541 35.7938 762.541 45.1919 Z" fill="#000000" fill-rule="evenodd" fill-opacity="1" /><path clip-path="url(#clip8900)" d="M 0 0 M800.214 49.3643 Q800.214 41.2625 796.852 36.8065 Q793.53 32.3505 787.494 32.3505 Q781.499 32.3505 778.137 36.8065 Q774.815 41.2625 774.815 49.3643 Q774.815 57.4256 778.137 61.8816 Q781.499 66.3376 787.494 66.3376 Q793.53 66.3376 796.852 61.8816 Q800.214 57.4256 800.214 49.3643 M807.668 66.9452 Q807.668 78.5308 802.523 84.1616 Q797.379 89.8329 786.765 89.8329 Q782.836 89.8329 779.352 89.2252 Q775.868 88.6581 772.587 87.4428 L772.587 80.1917 Q775.868 81.9741 779.069 82.8248 Q782.269 83.6755 785.59 83.6755 Q792.923 83.6755 796.568 79.8271 Q800.214 76.0193 800.214 68.282 L800.214 64.5957 Q797.905 68.6061 794.3 70.5911 Q790.695 72.576 785.671 72.576 Q777.327 72.576 772.222 66.2161 Q767.118 59.8562 767.118 49.3643 Q767.118 38.832 772.222 32.472 Q777.327 26.1121 785.671 26.1121 Q790.695 26.1121 794.3 28.0971 Q797.905 30.082 800.214 34.0924 L800.214 27.2059 L807.668 27.2059 L807.668 66.9452 Z" fill="#000000" fill-rule="evenodd" fill-opacity="1" /><path clip-path="url(#clip8900)" d="M 0 0 M837.523 27.2059 L844.977 27.2059 L854.294 62.6108 L863.57 27.2059 L872.361 27.2059 L881.678 62.6108 L890.954 27.2059 L898.408 27.2059 L886.539 72.576 L877.749 72.576 L867.986 35.3887 L858.183 72.576 L849.392 72.576 L837.523 27.2059 Z" fill="#000000" fill-rule="evenodd" fill-opacity="1" /><path clip-path="url(#clip8900)" d="M 0 0 M906.226 27.2059 L913.68 27.2059 L913.68 72.576 L906.226 72.576 L906.226 27.2059 M906.226 9.54393 L913.68 9.54393 L913.68 18.9825 L906.226 18.9825 L906.226 9.54393 Z" fill="#000000" fill-rule="evenodd" fill-opacity="1" /><path clip-path="url(#clip8900)" d="M 0 0 M928.871 14.324 L928.871 27.2059 L944.224 27.2059 L944.224 32.9987 L928.871 32.9987 L928.871 57.6282 Q928.871 63.1779 930.37 64.7578 Q931.909 66.3376 936.568 66.3376 L944.224 66.3376 L944.224 72.576 L936.568 72.576 Q927.939 72.576 924.658 69.3758 Q921.377 66.1351 921.377 57.6282 L921.377 32.9987 L915.908 32.9987 L915.908 27.2059 L921.377 27.2059 L921.377 14.324 L928.871 14.324 Z" fill="#000000" fill-rule="evenodd" fill-opacity="1" /><path clip-path="url(#clip8900)" d="M 0 0 M989.756 45.1919 L989.756 72.576 L982.302 72.576 L982.302 45.4349 Q982.302 38.994 979.791 35.7938 Q977.279 32.5936 972.256 32.5936 Q966.22 32.5936 962.737 36.4419 Q959.253 40.2903 959.253 46.9338 L959.253 72.576 L951.759 72.576 L951.759 9.54393 L959.253 9.54393 L959.253 34.2544 Q961.926 30.163 965.532 28.1376 Q969.177 26.1121 973.917 26.1121 Q981.735 26.1121 985.746 30.9732 Q989.756 35.7938 989.756 45.1919 Z" fill="#000000" fill-rule="evenodd" fill-opacity="1" /><path clip-path="url(#clip8900)" d="M 0 0 M1043.51 39.075 Q1038 39.075 1034.76 42.8424 Q1031.56 46.6097 1031.56 53.1722 Q1031.56 59.6941 1034.76 63.502 Q1038 67.2693 1043.51 67.2693 Q1049.02 67.2693 1052.22 63.502 Q1055.46 59.6941 1055.46 53.1722 Q1055.46 46.6097 1052.22 42.8424 Q1049.02 39.075 1043.51 39.075 M1059.76 13.4328 L1059.76 20.8865 Q1056.68 19.4281 1053.52 18.6585 Q1050.4 17.8888 1047.32 17.8888 Q1039.22 17.8888 1034.92 23.3575 Q1030.67 28.8262 1030.06 39.8852 Q1032.45 36.3609 1036.06 34.4975 Q1039.66 32.5936 1044 32.5936 Q1053.11 32.5936 1058.38 38.1433 Q1063.69 43.6525 1063.69 53.1722 Q1063.69 62.4892 1058.18 68.12 Q1052.67 73.7508 1043.51 73.7508 Q1033.02 73.7508 1027.47 65.73 Q1021.92 57.6687 1021.92 42.3968 Q1021.92 28.0566 1028.73 19.5497 Q1035.53 11.0023 1047 11.0023 Q1050.07 11.0023 1053.19 11.6099 Q1056.35 12.2175 1059.76 13.4328 Z" fill="#000000" fill-rule="evenodd" fill-opacity="1" /><path clip-path="url(#clip8900)" d="M 0 0 M1122.75 17.6457 Q1113.84 17.6457 1108.57 24.2892 Q1103.34 30.9327 1103.34 42.3968 Q1103.34 53.8203 1108.57 60.4638 Q1113.84 67.1073 1122.75 67.1073 Q1131.66 67.1073 1136.84 60.4638 Q1142.07 53.8203 1142.07 42.3968 Q1142.07 30.9327 1136.84 24.2892 Q1131.66 17.6457 1122.75 17.6457 M1134.21 71.4823 L1144.99 83.2704 L1135.1 83.2704 L1126.15 73.5887 Q1124.81 73.6697 1124.08 73.7103 Q1123.4 73.7508 1122.75 73.7508 Q1109.99 73.7508 1102.33 65.2439 Q1094.71 56.6965 1094.71 42.3968 Q1094.71 28.0566 1102.33 19.5497 Q1109.99 11.0023 1122.75 11.0023 Q1135.47 11.0023 1143.08 19.5497 Q1150.7 28.0566 1150.7 42.3968 Q1150.7 52.9291 1146.45 60.4233 Q1142.23 67.9175 1134.21 71.4823 Z" fill="#000000" fill-rule="evenodd" fill-opacity="1" /><path clip-path="url(#clip8900)" d="M 0 0 M1157.75 54.671 L1157.75 27.2059 L1165.2 27.2059 L1165.2 54.3874 Q1165.2 60.8284 1167.71 64.0691 Q1170.22 67.2693 1175.25 67.2693 Q1181.28 67.2693 1184.77 63.421 Q1188.29 59.5726 1188.29 52.9291 L1188.29 27.2059 L1195.74 27.2059 L1195.74 72.576 L1188.29 72.576 L1188.29 65.6084 Q1185.58 69.7404 1181.97 71.7658 Q1178.41 73.7508 1173.67 73.7508 Q1165.85 73.7508 1161.8 68.8897 Q1157.75 64.0286 1157.75 54.671 M1176.5 26.1121 L1176.5 26.1121 Z" fill="#000000" fill-rule="evenodd" fill-opacity="1" /><path clip-path="url(#clip8900)" d="M 0 0 M1224.18 49.7694 Q1215.15 49.7694 1211.66 51.8354 Q1208.18 53.9013 1208.18 58.8839 Q1208.18 62.8538 1210.77 65.2034 Q1213.41 67.5124 1217.9 67.5124 Q1224.1 67.5124 1227.83 63.1374 Q1231.6 58.7219 1231.6 51.4303 L1231.6 49.7694 L1224.18 49.7694 M1239.05 46.6907 L1239.05 72.576 L1231.6 72.576 L1231.6 65.6895 Q1229.04 69.8214 1225.24 71.8063 Q1221.43 73.7508 1215.92 73.7508 Q1208.95 73.7508 1204.82 69.8619 Q1200.73 65.9325 1200.73 59.3701 Q1200.73 51.7138 1205.83 47.825 Q1210.98 43.9361 1221.14 43.9361 L1231.6 43.9361 L1231.6 43.2069 Q1231.6 38.0623 1228.19 35.2672 Q1224.83 32.4315 1218.71 32.4315 Q1214.82 32.4315 1211.14 33.3632 Q1207.45 34.295 1204.05 36.1584 L1204.05 29.2718 Q1208.14 27.692 1211.99 26.9223 Q1215.84 26.1121 1219.48 26.1121 Q1229.33 26.1121 1234.19 31.2163 Q1239.05 36.3204 1239.05 46.6907 Z" fill="#000000" fill-rule="evenodd" fill-opacity="1" /><path clip-path="url(#clip8900)" d="M 0 0 M1276.72 34.0924 L1276.72 9.54393 L1284.18 9.54393 L1284.18 72.576 L1276.72 72.576 L1276.72 65.7705 Q1274.37 69.8214 1270.77 71.8063 Q1267.2 73.7508 1262.18 73.7508 Q1253.96 73.7508 1248.77 67.1883 Q1243.63 60.6258 1243.63 49.9314 Q1243.63 39.2371 1248.77 32.6746 Q1253.96 26.1121 1262.18 26.1121 Q1267.2 26.1121 1270.77 28.0971 Q1274.37 30.0415 1276.72 34.0924 M1251.32 49.9314 Q1251.32 58.1548 1254.69 62.8538 Q1258.09 67.5124 1264 67.5124 Q1269.92 67.5124 1273.32 62.8538 Q1276.72 58.1548 1276.72 49.9314 Q1276.72 41.7081 1273.32 37.0496 Q1269.92 32.3505 1264 32.3505 Q1258.09 32.3505 1254.69 37.0496 Q1251.32 41.7081 1251.32 49.9314 Z" fill="#000000" fill-rule="evenodd" fill-opacity="1" /><path clip-path="url(#clip8900)" d="M 0 0 M1318.28 34.1734 Q1317.03 33.4443 1315.53 33.1202 Q1314.07 32.7556 1312.29 32.7556 Q1305.97 32.7556 1302.57 36.8875 Q1299.2 40.9789 1299.2 48.6757 L1299.2 72.576 L1291.71 72.576 L1291.71 27.2059 L1299.2 27.2059 L1299.2 34.2544 Q1301.55 30.1225 1305.32 28.1376 Q1309.09 26.1121 1314.48 26.1121 Q1315.25 26.1121 1316.18 26.2337 Q1317.11 26.3147 1318.24 26.5172 L1318.28 34.1734 Z" fill="#000000" fill-rule="evenodd" fill-opacity="1" /><path clip-path="url(#clip8900)" d="M 0 0 M1341.86 32.4315 Q1335.87 32.4315 1332.38 37.1306 Q1328.9 41.7891 1328.9 49.9314 Q1328.9 58.0738 1332.34 62.7728 Q1335.82 67.4314 1341.86 67.4314 Q1347.82 67.4314 1351.3 62.7323 Q1354.78 58.0333 1354.78 49.9314 Q1354.78 41.8701 1351.3 37.1711 Q1347.82 32.4315 1341.86 32.4315 M1341.86 26.1121 Q1351.58 26.1121 1357.13 32.4315 Q1362.68 38.7509 1362.68 49.9314 Q1362.68 61.0714 1357.13 67.4314 Q1351.58 73.7508 1341.86 73.7508 Q1332.1 73.7508 1326.55 67.4314 Q1321.04 61.0714 1321.04 49.9314 Q1321.04 38.7509 1326.55 32.4315 Q1332.1 26.1121 1341.86 26.1121 Z" fill="#000000" fill-rule="evenodd" fill-opacity="1" /><path clip-path="url(#clip8900)" d="M 0 0 M1377.87 14.324 L1377.87 27.2059 L1393.23 27.2059 L1393.23 32.9987 L1377.87 32.9987 L1377.87 57.6282 Q1377.87 63.1779 1379.37 64.7578 Q1380.91 66.3376 1385.57 66.3376 L1393.23 66.3376 L1393.23 72.576 L1385.57 72.576 Q1376.94 72.576 1373.66 69.3758 Q1370.38 66.1351 1370.38 57.6282 L1370.38 32.9987 L1364.91 32.9987 L1364.91 27.2059 L1370.38 27.2059 L1370.38 14.324 L1377.87 14.324 Z" fill="#000000" fill-rule="evenodd" fill-opacity="1" /><path clip-path="url(#clip8900)" d="M 0 0 M1418.63 32.4315 Q1412.63 32.4315 1409.15 37.1306 Q1405.66 41.7891 1405.66 49.9314 Q1405.66 58.0738 1409.11 62.7728 Q1412.59 67.4314 1418.63 67.4314 Q1424.58 67.4314 1428.06 62.7323 Q1431.55 58.0333 1431.55 49.9314 Q1431.55 41.8701 1428.06 37.1711 Q1424.58 32.4315 1418.63 32.4315 M1418.63 26.1121 Q1428.35 26.1121 1433.9 32.4315 Q1439.45 38.7509 1439.45 49.9314 Q1439.45 61.0714 1433.9 67.4314 Q1428.35 73.7508 1418.63 73.7508 Q1408.86 73.7508 1403.31 67.4314 Q1397.8 61.0714 1397.8 49.9314 Q1397.8 38.7509 1403.31 32.4315 Q1408.86 26.1121 1418.63 26.1121 Z" fill="#000000" fill-rule="evenodd" fill-opacity="1" /><path clip-path="url(#clip8900)" d="M 0 0 M1473.56 34.1734 Q1472.3 33.4443 1470.8 33.1202 Q1469.34 32.7556 1467.56 32.7556 Q1461.24 32.7556 1457.84 36.8875 Q1454.48 40.9789 1454.48 48.6757 L1454.48 72.576 L1446.98 72.576 L1446.98 27.2059 L1454.48 27.2059 L1454.48 34.2544 Q1456.83 30.1225 1460.59 28.1376 Q1464.36 26.1121 1469.75 26.1121 Q1470.52 26.1121 1471.45 26.2337 Q1472.38 26.3147 1473.52 26.5172 L1473.56 34.1734 Z" fill="#000000" fill-rule="evenodd" fill-opacity="1" /><path clip-path="url(#clip8900)" d="M 0 0 M1510.3 28.5427 L1510.3 35.5912 Q1507.14 33.9709 1503.73 33.1607 Q1500.33 32.3505 1496.69 32.3505 Q1491.14 32.3505 1488.34 34.0519 Q1485.59 35.7533 1485.59 39.156 Q1485.59 41.7486 1487.57 43.2475 Q1489.56 44.7058 1495.55 46.0426 L1498.1 46.6097 Q1506.04 48.3111 1509.37 51.4303 Q1512.73 54.509 1512.73 60.0587 Q1512.73 66.3781 1507.7 70.0644 Q1502.72 73.7508 1493.97 73.7508 Q1490.33 73.7508 1486.36 73.0216 Q1482.43 72.3329 1478.05 70.9151 L1478.05 63.2184 Q1482.18 65.3654 1486.19 66.4591 Q1490.2 67.5124 1494.13 67.5124 Q1499.4 67.5124 1502.24 65.73 Q1505.07 63.9071 1505.07 60.6258 Q1505.07 57.5877 1503.01 55.9673 Q1500.98 54.3469 1494.05 52.8481 L1491.46 52.2405 Q1484.53 50.7821 1481.45 47.7845 Q1478.38 44.7463 1478.38 39.4801 Q1478.38 33.0797 1482.91 29.5959 Q1487.45 26.1121 1495.8 26.1121 Q1499.93 26.1121 1503.57 26.7198 Q1507.22 27.3274 1510.3 28.5427 Z" fill="#000000" fill-rule="evenodd" fill-opacity="1" /><path clip-path="url(#clip8900)" d="M 0 0 M1543.15 46.5287 L1564.98 46.5287 L1564.98 53.1722 L1543.15 53.1722 L1543.15 46.5287 Z" fill="#000000" fill-rule="evenodd" fill-opacity="1" /><path clip-path="url(#clip8900)" d="M 0 0 M1619.71 20.1573 L1608.61 50.2555 L1630.85 50.2555 L1619.71 20.1573 M1615.09 12.096 L1624.37 12.096 L1647.42 72.576 L1638.91 72.576 L1633.4 57.061 L1606.14 57.061 L1600.63 72.576 L1592 72.576 L1615.09 12.096 Z" fill="#000000" fill-rule="evenodd" fill-opacity="1" /><path clip-path="url(#clip8900)" d="M 0 0 M1685.09 49.3643 Q1685.09 41.2625 1681.73 36.8065 Q1678.41 32.3505 1672.37 32.3505 Q1666.38 32.3505 1663.02 36.8065 Q1659.69 41.2625 1659.69 49.3643 Q1659.69 57.4256 1663.02 61.8816 Q1666.38 66.3376 1672.37 66.3376 Q1678.41 66.3376 1681.73 61.8816 Q1685.09 57.4256 1685.09 49.3643 M1692.55 66.9452 Q1692.55 78.5308 1687.4 84.1616 Q1682.26 89.8329 1671.64 89.8329 Q1667.72 89.8329 1664.23 89.2252 Q1660.75 88.6581 1657.47 87.4428 L1657.47 80.1917 Q1660.75 81.9741 1663.95 82.8248 Q1667.15 83.6755 1670.47 83.6755 Q1677.8 83.6755 1681.45 79.8271 Q1685.09 76.0193 1685.09 68.282 L1685.09 64.5957 Q1682.78 68.6061 1679.18 70.5911 Q1675.57 72.576 1670.55 72.576 Q1662.21 72.576 1657.1 66.2161 Q1652 59.8562 1652 49.3643 Q1652 38.832 1657.1 32.472 Q1662.21 26.1121 1670.55 26.1121 Q1675.57 26.1121 1679.18 28.0971 Q1682.78 30.082 1685.09 34.0924 L1685.09 27.2059 L1692.55 27.2059 L1692.55 66.9452 Z" fill="#000000" fill-rule="evenodd" fill-opacity="1" /><path clip-path="url(#clip8900)" d="M 0 0 M1739.17 48.0275 L1739.17 51.6733 L1704.9 51.6733 Q1705.39 59.3701 1709.52 63.421 Q1713.69 67.4314 1721.11 67.4314 Q1725.4 67.4314 1729.41 66.3781 Q1733.46 65.3249 1737.43 63.2184 L1737.43 70.267 Q1733.42 71.9684 1729.21 72.8596 Q1725 73.7508 1720.66 73.7508 Q1709.8 73.7508 1703.44 67.4314 Q1697.12 61.1119 1697.12 50.3365 Q1697.12 39.1965 1703.12 32.6746 Q1709.16 26.1121 1719.36 26.1121 Q1728.52 26.1121 1733.83 32.0264 Q1739.17 37.9003 1739.17 48.0275 M1731.72 45.84 Q1731.64 39.7232 1728.28 36.0774 Q1724.95 32.4315 1719.45 32.4315 Q1713.21 32.4315 1709.44 35.9558 Q1705.71 39.4801 1705.15 45.8805 L1731.72 45.84 Z" fill="#000000" fill-rule="evenodd" fill-opacity="1" /><path clip-path="url(#clip8900)" d="M 0 0 M1784.71 45.1919 L1784.71 72.576 L1777.25 72.576 L1777.25 45.4349 Q1777.25 38.994 1774.74 35.7938 Q1772.23 32.5936 1767.21 32.5936 Q1761.17 32.5936 1757.69 36.4419 Q1754.2 40.2903 1754.2 46.9338 L1754.2 72.576 L1746.71 72.576 L1746.71 27.2059 L1754.2 27.2059 L1754.2 34.2544 Q1756.88 30.163 1760.48 28.1376 Q1764.13 26.1121 1768.87 26.1121 Q1776.68 26.1121 1780.7 30.9732 Q1784.71 35.7938 1784.71 45.1919 Z" fill="#000000" fill-rule="evenodd" fill-opacity="1" /><path clip-path="url(#clip8900)" d="M 0 0 M1799.9 14.324 L1799.9 27.2059 L1815.25 27.2059 L1815.25 32.9987 L1799.9 32.9987 L1799.9 57.6282 Q1799.9 63.1779 1801.4 64.7578 Q1802.93 66.3376 1807.59 66.3376 L1815.25 66.3376 L1815.25 72.576 L1807.59 72.576 Q1798.96 72.576 1795.68 69.3758 Q1792.4 66.1351 1792.4 57.6282 L1792.4 32.9987 L1786.93 32.9987 L1786.93 27.2059 L1792.4 27.2059 L1792.4 14.324 L1799.9 14.324 Z" fill="#000000" fill-rule="evenodd" fill-opacity="1" /><path clip-path="url(#clip8900)" d="M 0 0 M1886.02 14.0809 L1886.02 22.0612 Q1881.36 19.8332 1877.23 18.7395 Q1873.1 17.6457 1869.25 17.6457 Q1862.56 17.6457 1858.92 20.2383 Q1855.31 22.8309 1855.31 27.611 Q1855.31 31.6214 1857.7 33.6873 Q1860.13 35.7128 1866.86 36.9686 L1871.8 37.9813 Q1880.95 39.7232 1885.29 44.1387 Q1889.66 48.5136 1889.66 55.8863 Q1889.66 64.6767 1883.75 69.2137 Q1877.88 73.7508 1866.49 73.7508 Q1862.2 73.7508 1857.34 72.7785 Q1852.52 71.8063 1847.33 69.9024 L1847.33 61.4765 Q1852.32 64.2716 1857.1 65.6895 Q1861.88 67.1073 1866.49 67.1073 Q1873.5 67.1073 1877.31 64.3527 Q1881.12 61.598 1881.12 56.4939 Q1881.12 52.0379 1878.36 49.5264 Q1875.65 47.0148 1869.41 45.759 L1864.43 44.7868 Q1855.27 42.9639 1851.18 39.075 Q1847.09 35.1862 1847.09 28.2591 Q1847.09 20.2383 1852.72 15.6203 Q1858.39 11.0023 1868.32 11.0023 Q1872.57 11.0023 1876.99 11.7719 Q1881.4 12.5416 1886.02 14.0809 Z" fill="#000000" fill-rule="evenodd" fill-opacity="1" /><path clip-path="url(#clip8900)" d="M 0 0 M1904.86 14.324 L1904.86 27.2059 L1920.21 27.2059 L1920.21 32.9987 L1904.86 32.9987 L1904.86 57.6282 Q1904.86 63.1779 1906.35 64.7578 Q1907.89 66.3376 1912.55 66.3376 L1920.21 66.3376 L1920.21 72.576 L1912.55 72.576 Q1903.92 72.576 1900.64 69.3758 Q1897.36 66.1351 1897.36 57.6282 L1897.36 32.9987 L1891.89 32.9987 L1891.89 27.2059 L1897.36 27.2059 L1897.36 14.324 L1904.86 14.324 Z" fill="#000000" fill-rule="evenodd" fill-opacity="1" /><path clip-path="url(#clip8900)" d="M 0 0 M1948.65 49.7694 Q1939.61 49.7694 1936.13 51.8354 Q1932.64 53.9013 1932.64 58.8839 Q1932.64 62.8538 1935.24 65.2034 Q1937.87 67.5124 1942.37 67.5124 Q1948.56 67.5124 1952.29 63.1374 Q1956.06 58.7219 1956.06 51.4303 L1956.06 49.7694 L1948.65 49.7694 M1963.51 46.6907 L1963.51 72.576 L1956.06 72.576 L1956.06 65.6895 Q1953.51 69.8214 1949.7 71.8063 Q1945.89 73.7508 1940.38 73.7508 Q1933.41 73.7508 1929.28 69.8619 Q1925.19 65.9325 1925.19 59.3701 Q1925.19 51.7138 1930.29 47.825 Q1935.44 43.9361 1945.61 43.9361 L1956.06 43.9361 L1956.06 43.2069 Q1956.06 38.0623 1952.66 35.2672 Q1949.29 32.4315 1943.18 32.4315 Q1939.29 32.4315 1935.6 33.3632 Q1931.92 34.295 1928.51 36.1584 L1928.51 29.2718 Q1932.6 27.692 1936.45 26.9223 Q1940.3 26.1121 1943.95 26.1121 Q1953.79 26.1121 1958.65 31.2163 Q1963.51 36.3204 1963.51 46.6907 Z" fill="#000000" fill-rule="evenodd" fill-opacity="1" /><path clip-path="url(#clip8900)" d="M 0 0 M1978.7 14.324 L1978.7 27.2059 L1994.06 27.2059 L1994.06 32.9987 L1978.7 32.9987 L1978.7 57.6282 Q1978.7 63.1779 1980.2 64.7578 Q1981.74 66.3376 1986.4 66.3376 L1994.06 66.3376 L1994.06 72.576 L1986.4 72.576 Q1977.77 72.576 1974.49 69.3758 Q1971.21 66.1351 1971.21 57.6282 L1971.21 32.9987 L1965.74 32.9987 L1965.74 27.2059 L1971.21 27.2059 L1971.21 14.324 L1978.7 14.324 Z" fill="#000000" fill-rule="evenodd" fill-opacity="1" /><path clip-path="url(#clip8900)" d="M 0 0 M2040.68 48.0275 L2040.68 51.6733 L2006.41 51.6733 Q2006.9 59.3701 2011.03 63.421 Q2015.2 67.4314 2022.62 67.4314 Q2026.91 67.4314 2030.92 66.3781 Q2034.97 65.3249 2038.94 63.2184 L2038.94 70.267 Q2034.93 71.9684 2030.72 72.8596 Q2026.5 73.7508 2022.17 73.7508 Q2011.31 73.7508 2004.95 67.4314 Q1998.63 61.1119 1998.63 50.3365 Q1998.63 39.1965 2004.63 32.6746 Q2010.66 26.1121 2020.87 26.1121 Q2030.03 26.1121 2035.33 32.0264 Q2040.68 37.9003 2040.68 48.0275 M2033.23 45.84 Q2033.15 39.7232 2029.79 36.0774 Q2026.46 32.4315 2020.95 32.4315 Q2014.72 32.4315 2010.95 35.9558 Q2007.22 39.4801 2006.65 45.8805 L2033.23 45.84 Z" fill="#000000" fill-rule="evenodd" fill-opacity="1" /><path clip-path="url(#clip8900)" d="M 0 0 M2072.28 12.096 L2081.07 12.096 L2096.1 34.5785 L2111.21 12.096 L2120 12.096 L2100.55 41.141 L2121.3 72.576 L2112.5 72.576 L2095.49 46.8528 L2078.36 72.576 L2069.52 72.576 L2091.12 40.2903 L2072.28 12.096 Z" fill="#000000" fill-rule="evenodd" fill-opacity="1" /><path clip-path="url(#clip8900)" d="M 0 0 M2155.81 12.096 L2194.05 12.096 L2194.05 18.9825 L2163.99 18.9825 L2163.99 36.8875 L2192.79 36.8875 L2192.79 43.7741 L2163.99 43.7741 L2163.99 65.6895 L2194.78 65.6895 L2194.78 72.576 L2155.81 72.576 L2155.81 12.096 Z" fill="#000000" fill-rule="evenodd" fill-opacity="1" /><path clip-path="url(#clip8900)" d="M 0 0 M2228.89 34.1734 Q2227.63 33.4443 2226.13 33.1202 Q2224.67 32.7556 2222.89 32.7556 Q2216.57 32.7556 2213.17 36.8875 Q2209.81 40.9789 2209.81 48.6757 L2209.81 72.576 L2202.31 72.576 L2202.31 27.2059 L2209.81 27.2059 L2209.81 34.2544 Q2212.16 30.1225 2215.92 28.1376 Q2219.69 26.1121 2225.08 26.1121 Q2225.85 26.1121 2226.78 26.2337 Q2227.71 26.3147 2228.85 26.5172 L2228.89 34.1734 Z" fill="#000000" fill-rule="evenodd" fill-opacity="1" /><path clip-path="url(#clip8900)" d="M 0 0 M2261.54 34.1734 Q2260.28 33.4443 2258.78 33.1202 Q2257.32 32.7556 2255.54 32.7556 Q2249.22 32.7556 2245.82 36.8875 Q2242.46 40.9789 2242.46 48.6757 L2242.46 72.576 L2234.96 72.576 L2234.96 27.2059 L2242.46 27.2059 L2242.46 34.2544 Q2244.81 30.1225 2248.57 28.1376 Q2252.34 26.1121 2257.73 26.1121 Q2258.5 26.1121 2259.43 26.2337 Q2260.36 26.3147 2261.5 26.5172 L2261.54 34.1734 Z" fill="#000000" fill-rule="evenodd" fill-opacity="1" /><path clip-path="url(#clip8900)" d="M 0 0 M2285.11 32.4315 Q2279.12 32.4315 2275.63 37.1306 Q2272.15 41.7891 2272.15 49.9314 Q2272.15 58.0738 2275.59 62.7728 Q2279.08 67.4314 2285.11 67.4314 Q2291.07 67.4314 2294.55 62.7323 Q2298.04 58.0333 2298.04 49.9314 Q2298.04 41.8701 2294.55 37.1711 Q2291.07 32.4315 2285.11 32.4315 M2285.11 26.1121 Q2294.84 26.1121 2300.39 32.4315 Q2305.94 38.7509 2305.94 49.9314 Q2305.94 61.0714 2300.39 67.4314 Q2294.84 73.7508 2285.11 73.7508 Q2275.35 73.7508 2269.8 67.4314 Q2264.29 61.0714 2264.29 49.9314 Q2264.29 38.7509 2269.8 32.4315 Q2275.35 26.1121 2285.11 26.1121 Z" fill="#000000" fill-rule="evenodd" fill-opacity="1" /><path clip-path="url(#clip8900)" d="M 0 0 M2340.04 34.1734 Q2338.79 33.4443 2337.29 33.1202 Q2335.83 32.7556 2334.05 32.7556 Q2327.73 32.7556 2324.33 36.8875 Q2320.96 40.9789 2320.96 48.6757 L2320.96 72.576 L2313.47 72.576 L2313.47 27.2059 L2320.96 27.2059 L2320.96 34.2544 Q2323.31 30.1225 2327.08 28.1376 Q2330.85 26.1121 2336.24 26.1121 Q2337.01 26.1121 2337.94 26.2337 Q2338.87 26.3147 2340 26.5172 L2340.04 34.1734 Z" fill="#000000" fill-rule="evenodd" fill-opacity="1" /><path clip-path="url(#clip8900)" d="M 0 0 M1292.89 2298.26 L1333.09 2298.26 L1333.09 2303.67 L1316.22 2303.67 L1316.22 2345.78 L1309.76 2345.78 L1309.76 2303.67 L1292.89 2303.67 L1292.89 2298.26 Z" fill="#000000" fill-rule="evenodd" fill-opacity="1" /><path clip-path="url(#clip8900)" d="M 0 0 M1337.22 2310.14 L1343.08 2310.14 L1343.08 2345.78 L1337.22 2345.78 L1337.22 2310.14 M1337.22 2296.26 L1343.08 2296.26 L1343.08 2303.67 L1337.22 2303.67 L1337.22 2296.26 Z" fill="#000000" fill-rule="evenodd" fill-opacity="1" /><path clip-path="url(#clip8900)" d="M 0 0 M1376.98 2316.98 Q1379.17 2313.03 1382.23 2311.15 Q1385.28 2309.28 1389.42 2309.28 Q1394.99 2309.28 1398.02 2313.19 Q1401.04 2317.07 1401.04 2324.27 L1401.04 2345.78 L1395.15 2345.78 L1395.15 2324.46 Q1395.15 2319.33 1393.34 2316.85 Q1391.52 2314.37 1387.8 2314.37 Q1383.25 2314.37 1380.61 2317.39 Q1377.96 2320.42 1377.96 2325.64 L1377.96 2345.78 L1372.08 2345.78 L1372.08 2324.46 Q1372.08 2319.3 1370.26 2316.85 Q1368.45 2314.37 1364.66 2314.37 Q1360.17 2314.37 1357.53 2317.42 Q1354.89 2320.45 1354.89 2325.64 L1354.89 2345.78 L1349 2345.78 L1349 2310.14 L1354.89 2310.14 L1354.89 2315.67 Q1356.89 2312.4 1359.69 2310.84 Q1362.5 2309.28 1366.35 2309.28 Q1370.23 2309.28 1372.94 2311.25 Q1375.67 2313.22 1376.98 2316.98 Z" fill="#000000" fill-rule="evenodd" fill-opacity="1" /><path clip-path="url(#clip8900)" d="M 0 0 M1437.67 2326.5 L1437.67 2329.36 L1410.75 2329.36 Q1411.13 2335.41 1414.38 2338.59 Q1417.65 2341.74 1423.48 2341.74 Q1426.85 2341.74 1430 2340.91 Q1433.19 2340.09 1436.31 2338.43 L1436.31 2343.97 Q1433.16 2345.31 1429.84 2346.01 Q1426.53 2346.71 1423.13 2346.71 Q1414.6 2346.71 1409.6 2341.74 Q1404.64 2336.78 1404.64 2328.31 Q1404.64 2319.56 1409.35 2314.43 Q1414.09 2309.28 1422.11 2309.28 Q1429.3 2309.28 1433.47 2313.92 Q1437.67 2318.54 1437.67 2326.5 M1431.82 2324.78 Q1431.75 2319.97 1429.11 2317.11 Q1426.5 2314.24 1422.17 2314.24 Q1417.27 2314.24 1414.31 2317.01 Q1411.38 2319.78 1410.94 2324.81 L1431.82 2324.78 Z" fill="#000000" fill-rule="evenodd" fill-opacity="1" /><path clip-path="url(#clip8900)" d="M 0 0 M1478.61 2296.32 Q1474.34 2303.64 1472.27 2310.8 Q1470.2 2317.97 1470.2 2325.32 Q1470.2 2332.67 1472.27 2339.9 Q1474.37 2347.09 1478.61 2354.38 L1473.51 2354.38 Q1468.74 2346.9 1466.35 2339.67 Q1464 2332.45 1464 2325.32 Q1464 2318.22 1466.35 2311.03 Q1468.71 2303.83 1473.51 2296.32 L1478.61 2296.32 Z" fill="#000000" fill-rule="evenodd" fill-opacity="1" /><path clip-path="url(#clip8900)" d="M 0 0 M1507.47 2311.19 L1507.47 2316.72 Q1504.99 2315.45 1502.32 2314.81 Q1499.64 2314.18 1496.78 2314.18 Q1492.42 2314.18 1490.22 2315.51 Q1488.06 2316.85 1488.06 2319.53 Q1488.06 2321.56 1489.62 2322.74 Q1491.18 2323.89 1495.89 2324.94 L1497.89 2325.38 Q1504.13 2326.72 1506.74 2329.17 Q1509.38 2331.59 1509.38 2335.95 Q1509.38 2340.91 1505.44 2343.81 Q1501.52 2346.71 1494.65 2346.71 Q1491.78 2346.71 1488.66 2346.13 Q1485.58 2345.59 1482.14 2344.48 L1482.14 2338.43 Q1485.39 2340.12 1488.54 2340.98 Q1491.69 2341.81 1494.78 2341.81 Q1498.91 2341.81 1501.14 2340.4 Q1503.37 2338.97 1503.37 2336.39 Q1503.37 2334.01 1501.75 2332.73 Q1500.15 2331.46 1494.71 2330.28 L1492.67 2329.81 Q1487.23 2328.66 1484.81 2326.3 Q1482.39 2323.92 1482.39 2319.78 Q1482.39 2314.75 1485.96 2312.01 Q1489.52 2309.28 1496.08 2309.28 Q1499.33 2309.28 1502.19 2309.75 Q1505.06 2310.23 1507.47 2311.19 Z" fill="#000000" fill-rule="evenodd" fill-opacity="1" /><path clip-path="url(#clip8900)" d="M 0 0 M1514.6 2296.32 L1519.7 2296.32 Q1524.47 2303.83 1526.83 2311.03 Q1529.21 2318.22 1529.21 2325.32 Q1529.21 2332.45 1526.83 2339.67 Q1524.47 2346.9 1519.7 2354.38 L1514.6 2354.38 Q1518.84 2347.09 1520.91 2339.9 Q1523.01 2332.67 1523.01 2325.32 Q1523.01 2317.97 1520.91 2310.8 Q1518.84 2303.64 1514.6 2296.32 Z" fill="#000000" fill-rule="evenodd" fill-opacity="1" /><path clip-path="url(#clip8900)" d="M 0 0 M38.4242 1331.38 L38.4242 1301.34 L43.835 1301.34 L43.835 1324.95 L57.9032 1324.95 L57.9032 1302.32 L63.3141 1302.32 L63.3141 1324.95 L80.5333 1324.95 L80.5333 1300.76 L85.9442 1300.76 L85.9442 1331.38 L38.4242 1331.38 Z" fill="#000000" fill-rule="evenodd" fill-opacity="1" /><path clip-path="url(#clip8900)" d="M 0 0 M55.7707 1273.96 Q55.1978 1274.95 54.9432 1276.13 Q54.6567 1277.28 54.6567 1278.68 Q54.6567 1283.64 57.9032 1286.31 Q61.1179 1288.96 67.1653 1288.96 L85.9442 1288.96 L85.9442 1294.84 L50.2962 1294.84 L50.2962 1288.96 L55.8344 1288.96 Q52.5879 1287.11 51.0283 1284.15 Q49.4368 1281.19 49.4368 1276.96 Q49.4368 1276.35 49.5323 1275.62 Q49.596 1274.89 49.7551 1274 L55.7707 1273.96 Z" fill="#000000" fill-rule="evenodd" fill-opacity="1" /><path clip-path="url(#clip8900)" d="M 0 0 M55.7707 1248.31 Q55.1978 1249.3 54.9432 1250.48 Q54.6567 1251.62 54.6567 1253.02 Q54.6567 1257.99 57.9032 1260.66 Q61.1179 1263.3 67.1653 1263.3 L85.9442 1263.3 L85.9442 1269.19 L50.2962 1269.19 L50.2962 1263.3 L55.8344 1263.3 Q52.5879 1261.46 51.0283 1258.5 Q49.4368 1255.54 49.4368 1251.3 Q49.4368 1250.7 49.5323 1249.97 Q49.596 1249.23 49.7551 1248.34 L55.7707 1248.31 Z" fill="#000000" fill-rule="evenodd" fill-opacity="1" /><path clip-path="url(#clip8900)" d="M 0 0 M54.4021 1229.79 Q54.4021 1234.5 58.0942 1237.23 Q61.7545 1239.97 68.152 1239.97 Q74.5495 1239.97 78.2417 1237.27 Q81.9019 1234.53 81.9019 1229.79 Q81.9019 1225.11 78.2098 1222.37 Q74.5177 1219.63 68.152 1219.63 Q61.8181 1219.63 58.126 1222.37 Q54.4021 1225.11 54.4021 1229.79 M49.4368 1229.79 Q49.4368 1222.15 54.4021 1217.79 Q59.3673 1213.43 68.152 1213.43 Q76.9049 1213.43 81.9019 1217.79 Q86.8672 1222.15 86.8672 1229.79 Q86.8672 1237.46 81.9019 1241.82 Q76.9049 1246.15 68.152 1246.15 Q59.3673 1246.15 54.4021 1241.82 Q49.4368 1237.46 49.4368 1229.79 Z" fill="#000000" fill-rule="evenodd" fill-opacity="1" /><path clip-path="url(#clip8900)" d="M 0 0 M55.7707 1186.63 Q55.1978 1187.61 54.9432 1188.79 Q54.6567 1189.94 54.6567 1191.34 Q54.6567 1196.3 57.9032 1198.98 Q61.1179 1201.62 67.1653 1201.62 L85.9442 1201.62 L85.9442 1207.51 L50.2962 1207.51 L50.2962 1201.62 L55.8344 1201.62 Q52.5879 1199.77 51.0283 1196.81 Q49.4368 1193.85 49.4368 1189.62 Q49.4368 1189.01 49.5323 1188.28 Q49.596 1187.55 49.7551 1186.66 L55.7707 1186.63 Z" fill="#000000" fill-rule="evenodd" fill-opacity="1" /><path clip-path="url(#clip8900)" d="M 0 0 M38.4242 1161.8 L38.4242 1154.89 L56.089 1143.09 L38.4242 1131.21 L38.4242 1124.31 L61.2452 1139.58 L85.9442 1123.29 L85.9442 1130.2 L65.733 1143.56 L85.9442 1157.03 L85.9442 1163.97 L60.5768 1147 L38.4242 1161.8 Z" fill="#000000" fill-rule="evenodd" fill-opacity="1" /><path clip-path="url(#clip8900)" d="M 0 0 M36.4826 1082.36 Q43.8032 1086.62 50.9646 1088.69 Q58.126 1090.76 65.4784 1090.76 Q72.8308 1090.76 80.0559 1088.69 Q87.2491 1086.59 94.5379 1082.36 L94.5379 1087.45 Q87.0582 1092.22 79.8331 1094.61 Q72.608 1096.97 65.4784 1096.97 Q58.3806 1096.97 51.1874 1094.61 Q43.9942 1092.26 36.4826 1087.45 L36.4826 1082.36 Z" fill="#000000" fill-rule="evenodd" fill-opacity="1" /><path clip-path="url(#clip8900)" d="M 0 0 M57.1393 1048.46 Q53.1926 1046.26 51.3147 1043.21 Q49.4368 1040.15 49.4368 1036.01 Q49.4368 1030.44 53.3517 1027.42 Q57.2348 1024.4 64.4281 1024.4 L85.9442 1024.4 L85.9442 1030.29 L64.619 1030.29 Q59.4946 1030.29 57.012 1032.1 Q54.5294 1033.91 54.5294 1037.64 Q54.5294 1042.19 57.5531 1044.83 Q60.5768 1047.47 65.7967 1047.47 L85.9442 1047.47 L85.9442 1053.36 L64.619 1053.36 Q59.4628 1053.36 57.012 1055.18 Q54.5294 1056.99 54.5294 1060.78 Q54.5294 1065.27 57.5849 1067.91 Q60.6086 1070.55 65.7967 1070.55 L85.9442 1070.55 L85.9442 1076.44 L50.2962 1076.44 L50.2962 1070.55 L55.8344 1070.55 Q52.556 1068.54 50.9964 1065.74 Q49.4368 1062.94 49.4368 1059.09 Q49.4368 1055.21 51.4102 1052.5 Q53.3836 1049.76 57.1393 1048.46 Z" fill="#000000" fill-rule="evenodd" fill-opacity="1" /><path clip-path="url(#clip8900)" d="M 0 0 M36.4826 1019.18 L36.4826 1014.09 Q43.9942 1009.31 51.1874 1006.96 Q58.3806 1004.57 65.4784 1004.57 Q72.608 1004.57 79.8331 1006.96 Q87.0582 1009.31 94.5379 1014.09 L94.5379 1019.18 Q87.2491 1014.94 80.0559 1012.88 Q72.8308 1010.77 65.4784 1010.77 Q58.126 1010.77 50.9646 1012.88 Q43.8032 1014.94 36.4826 1019.18 Z" fill="#000000" fill-rule="evenodd" fill-opacity="1" /><polyline clip-path="url(#clip8902)" style="stroke:#009af9; stroke-width:16; stroke-opacity:1; fill:none" points="
  272.49,2092.96 283.876,2092.95 295.262,2093.02 306.647,2093.31 318.033,2093.11 329.418,2091.13 340.804,2086.52 352.19,2078.98 363.575,2068.64 374.961,2055.79 
  386.346,2040.82 397.732,2024.1 409.118,2005.94 420.503,1986.61 431.889,1966.32 443.274,1945.22 454.66,1923.45 466.046,1901.11 477.431,1878.27 488.817,1855 
  500.202,1831.35 511.588,1807.36 522.974,1783.07 534.359,1758.52 545.745,1733.72 557.13,1708.72 568.516,1683.54 579.901,1658.21 591.287,1632.77 602.673,1607.23 
  614.058,1581.65 625.444,1556.04 636.829,1530.46 648.215,1504.92 659.601,1479.47 670.986,1454.16 682.372,1429 693.757,1404.04 705.143,1379.31 716.529,1354.86 
  727.914,1330.7 739.3,1306.87 750.685,1283.41 762.071,1260.34 773.457,1237.68 784.842,1215.46 796.228,1193.7 807.613,1172.43 818.999,1151.66 830.385,1131.4 
  841.77,1111.68 853.156,1092.51 864.541,1073.89 875.927,1055.85 887.313,1038.37 898.698,1021.48 910.084,1005.18 921.469,989.467 932.855,974.344 944.241,959.825 
  955.626,945.895 967.012,932.576 978.397,919.855 989.783,907.765 1001.17,896.313 1012.55,885.561 1023.94,875.577 1035.33,866.5 1046.71,857.897 1058.1,849.428 
  1069.48,841.299 1080.87,833.586 1092.25,826.346 1103.64,819.577 1115.02,813.291 1126.41,807.46 1137.8,802.071 1149.18,797.082 1160.57,792.471 1171.95,788.198 
  1183.34,784.246 1194.72,780.584 1206.11,777.199 1217.49,774.068 1228.88,771.18 1240.27,768.518 1251.65,766.071 1263.04,763.824 1274.42,761.767 1285.81,759.886 
  1297.19,758.171 1308.58,756.609 1319.97,755.19 1331.35,753.902 1342.74,752.734 1354.12,751.675 1365.51,750.715 1376.89,749.841 1388.28,749.045 1399.66,748.315 
  1411.05,747.641 1422.44,747.012 1433.82,746.419 1445.21,745.85 1456.59,745.296 1467.98,744.745 1479.36,744.187 1490.75,743.611 1502.13,743.006 1513.52,742.361 
  1524.91,741.662 1536.29,740.898 1547.68,740.057 1559.06,739.124 1570.45,738.085 1581.83,736.927 1593.22,735.634 1604.61,734.19 1615.99,732.58 1627.38,730.79 
  1638.76,728.808 1650.15,726.624 1661.53,724.23 1672.92,721.623 1684.3,718.804 1695.69,715.777 1707.08,712.552 1718.46,709.143 1729.85,705.563 1741.23,701.827 
  1752.62,697.949 1764,693.94 1775.39,689.81 1786.77,685.564 1798.16,681.209 1809.55,676.748 1820.93,672.189 1832.32,667.537 1843.7,662.802 1855.09,657.99 
  1866.47,653.111 1877.86,648.171 1889.25,643.181 1900.63,638.146 1912.02,633.077 1923.4,627.981 1934.79,622.866 1946.17,617.741 1957.56,612.613 1968.94,607.49 
  1980.33,602.382 1991.72,597.294 2003.1,592.236 2014.49,587.213 2025.87,582.233 2037.26,577.302 2048.64,572.426 2060.03,567.61 2071.41,562.86 2082.8,558.181 
  2094.19,553.575 2105.57,549.048 2116.96,544.602 2128.34,540.24 2139.73,535.965 2151.11,531.779 2162.5,527.684 2173.89,523.682 2185.27,519.774 2196.66,515.962 
  2208.04,512.247 2219.43,508.63 2230.81,505.113 2242.2,501.697 2253.58,498.382 2264.97,495.17 2276.36,492.063 2287.74,489.061 2299.13,486.166 2310.51,483.38 
  2321.9,480.703 2333.28,478.138 2344.67,475.686 2356.05,473.349 2367.44,471.129 2378.83,469.027 2390.21,467.045 2401.6,465.185 2412.98,463.45 2424.37,461.841 
  2435.75,460.36 2447.14,459.011 2458.53,457.795 2469.91,456.716 2481.3,455.776 2492.68,454.982 2504.07,454.338 2515.45,453.852 2526.84,453.528 2538.22,453.371 
  2549.61,453.313 
  "/>
<polyline clip-path="url(#clip8902)" style="stroke:#e26f46; stroke-width:16; stroke-opacity:1; fill:none" points="
  272.49,2106.11 283.876,2106.06 295.262,2104.68 306.647,2094.41 318.033,2074.03 329.418,2050.4 340.804,2026.6 352.19,2003.03 363.575,1979.42 374.961,1955.55 
  386.346,1931.3 397.732,1906.65 409.118,1881.6 420.503,1856.18 431.889,1830.42 443.274,1804.35 454.66,1778.02 466.046,1751.46 477.431,1724.74 488.817,1697.91 
  500.202,1671.02 511.588,1644.13 522.974,1617.31 534.359,1590.6 545.745,1564.08 557.13,1537.78 568.516,1511.77 579.901,1486.09 591.287,1460.77 602.673,1435.86 
  614.058,1411.38 625.444,1387.37 636.829,1363.85 648.215,1340.82 659.601,1318.32 670.986,1296.34 682.372,1274.9 693.757,1254 705.143,1233.64 716.529,1213.83 
  727.914,1194.57 739.3,1175.84 750.685,1157.66 762.071,1140.02 773.457,1122.9 784.842,1106.32 796.228,1090.25 807.613,1074.71 818.999,1059.67 830.385,1045.15 
  841.77,1031.13 853.156,1017.62 864.541,1004.59 875.927,992.065 887.313,980.021 898.698,968.469 910.084,957.392 921.469,946.802 932.855,936.682 944.241,927.044 
  955.626,917.872 967.012,909.183 978.397,900.963 989.783,893.242 1001.17,886.021 1012.55,879.355 1023.94,873.29 1035.33,867.937 1046.71,863.02 1058.1,858.276 
  1069.48,853.817 1080.87,849.687 1092.25,845.93 1103.64,842.549 1115.02,839.56 1126.41,836.951 1137.8,834.723 1149.18,832.854 1160.57,831.334 1171.95,830.14 
  1183.34,829.262 1194.72,828.678 1206.11,828.382 1217.49,828.355 1228.88,828.593 1240.27,829.082 1251.65,829.815 1263.04,830.78 1274.42,831.971 1285.81,833.375 
  1297.19,834.985 1308.58,836.788 1319.97,838.775 1331.35,840.933 1342.74,843.251 1354.12,845.713 1365.51,848.308 1376.89,851.02 1388.28,853.835 1399.66,856.736 
  1411.05,859.707 1422.44,862.732 1433.82,865.794 1445.21,868.874 1456.59,871.956 1467.98,875.021 1479.36,878.052 1490.75,881.031 1502.13,883.94 1513.52,886.762 
  1524.91,889.479 1536.29,892.077 1547.68,894.537 1559.06,896.847 1570.45,898.989 1581.83,900.951 1593.22,902.718 1604.61,904.275 1615.99,905.607 1627.38,906.696 
  1638.76,907.523 1650.15,908.062 1661.53,908.287 1672.92,908.169 1684.3,907.68 1695.69,906.798 1707.08,905.503 1718.46,903.787 1729.85,901.643 1741.23,899.076 
  1752.62,896.092 1764,892.703 1775.39,888.925 1786.77,884.778 1798.16,880.282 1809.55,875.463 1820.93,870.349 1832.32,864.964 1843.7,859.331 1855.09,853.466 
  1866.47,847.386 1877.86,841.103 1889.25,834.626 1900.63,827.965 1912.02,821.127 1923.4,814.121 1934.79,806.952 1946.17,799.629 1957.56,792.157 1968.94,784.545 
  1980.33,776.799 1991.72,768.927 2003.1,760.939 2014.49,752.842 2025.87,744.645 2037.26,736.359 2048.64,727.993 2060.03,719.559 2071.41,711.065 2082.8,702.524 
  2094.19,693.948 2105.57,685.347 2116.96,676.734 2128.34,668.122 2139.73,659.523 2151.11,650.95 2162.5,642.417 2173.89,633.936 2185.27,625.522 2196.66,617.188 
  2208.04,608.948 2219.43,600.817 2230.81,592.807 2242.2,584.933 2253.58,577.209 2264.97,569.649 2276.36,562.267 2287.74,555.076 2299.13,548.09 2310.51,541.322 
  2321.9,534.786 2333.28,528.494 2344.67,522.46 2356.05,516.696 2367.44,511.215 2378.83,506.028 2390.21,501.148 2401.6,496.587 2412.98,492.356 2424.37,488.47 
  2435.75,484.939 2447.14,481.781 2458.53,479.009 2469.91,476.645 2481.3,474.711 2492.68,473.238 2504.07,472.256 2515.45,471.817 2526.84,471.923 2538.22,472.556 
  2549.61,472.87 
  "/>
<polyline clip-path="url(#clip8902)" style="stroke:#3da44d; stroke-width:16; stroke-opacity:1; fill:none" points="
  272.49,2132.41 283.876,2132.46 295.262,2131.06 306.647,2119.76 318.033,2097.96 329.418,2073.23 340.804,2048.61 352.19,2024.34 363.575,2000.12 374.961,1975.7 
  386.346,1950.97 397.732,1925.89 409.118,1900.46 420.503,1874.67 431.889,1848.55 443.274,1822.13 454.66,1795.43 466.046,1768.5 477.431,1741.38 488.817,1714.11 
  500.202,1686.74 511.588,1659.33 522.974,1631.94 534.359,1604.62 545.745,1577.43 557.13,1550.42 568.516,1523.64 579.901,1497.15 591.287,1470.99 602.673,1445.2 
  614.058,1419.81 625.444,1394.88 636.829,1370.41 648.215,1346.44 659.601,1323 670.986,1300.09 682.372,1277.72 693.757,1255.92 705.143,1234.69 716.529,1214.02 
  727.914,1193.92 739.3,1174.39 750.685,1155.42 762.071,1137.01 773.457,1119.16 784.842,1101.84 796.228,1085.06 807.613,1068.8 818.999,1053.06 830.385,1037.81 
  841.77,1023.06 853.156,1008.78 864.541,994.977 875.927,981.625 887.313,968.721 898.698,956.248 910.084,944.201 921.469,932.561 932.855,921.327 944.241,910.478 
  955.626,900.011 967.012,889.909 978.397,880.165 989.783,870.762 1001.17,861.692 1012.55,852.937 1023.94,844.483 1035.33,836.307 1046.71,828.411 1058.1,820.792 
  1069.48,813.414 1080.87,806.272 1092.25,799.355 1103.64,792.658 1115.02,786.172 1126.41,779.889 1137.8,773.8 1149.18,767.893 1160.57,762.161 1171.95,756.59 
  1183.34,751.172 1194.72,745.896 1206.11,740.751 1217.49,735.728 1228.88,730.819 1240.27,726.014 1251.65,721.304 1263.04,716.68 1274.42,712.136 1285.81,707.661 
  1297.19,703.248 1308.58,698.891 1319.97,694.581 1331.35,690.312 1342.74,686.078 1354.12,681.874 1365.51,677.694 1376.89,673.533 1388.28,669.388 1399.66,665.254 
  1411.05,661.129 1422.44,657.01 1433.82,652.893 1445.21,648.776 1456.59,644.657 1467.98,640.534 1479.36,636.405 1490.75,632.267 1502.13,628.12 1513.52,623.962 
  1524.91,619.79 1536.29,615.604 1547.68,611.402 1559.06,607.182 1570.45,602.944 1581.83,598.686 1593.22,594.41 1604.61,590.115 1615.99,585.804 1627.38,581.48 
  1638.76,577.146 1650.15,572.81 1661.53,568.479 1672.92,564.162 1684.3,559.868 1695.69,555.603 1707.08,551.374 1718.46,547.185 1729.85,543.041 1741.23,538.943 
  1752.62,534.894 1764,530.898 1775.39,526.956 1786.77,523.073 1798.16,519.252 1809.55,515.496 1820.93,511.812 1832.32,508.205 1843.7,504.681 1855.09,501.248 
  1866.47,497.913 1877.86,494.68 1889.25,491.555 1900.63,488.543 1912.02,485.649 1923.4,482.876 1934.79,480.228 1946.17,477.708 1957.56,475.319 1968.94,473.062 
  1980.33,470.938 1991.72,468.949 2003.1,467.095 2014.49,465.375 2025.87,463.788 2037.26,462.333 2048.64,461.007 2060.03,459.808 2071.41,458.733 2082.8,457.777 
  2094.19,456.938 2105.57,456.209 2116.96,455.587 2128.34,455.066 2139.73,454.641 2151.11,454.305 2162.5,454.053 2173.89,453.878 2185.27,453.773 2196.66,453.731 
  2208.04,453.746 2219.43,453.809 2230.81,453.915 2242.2,454.056 2253.58,454.225 2264.97,454.415 2276.36,454.621 2287.74,454.838 2299.13,455.059 2310.51,455.282 
  2321.9,455.501 2333.28,455.717 2344.67,455.927 2356.05,456.133 2367.44,456.333 2378.83,456.536 2390.21,456.74 2401.6,456.961 2412.98,457.197 2424.37,457.472 
  2435.75,457.784 2447.14,458.168 2458.53,458.618 2469.91,459.18 2481.3,459.842 2492.68,460.66 2504.07,461.598 2515.45,462.706 2526.84,463.867 2538.22,465.004 
  2549.61,465.662 
  "/>
<polyline clip-path="url(#clip8902)" style="stroke:#c271d2; stroke-width:16; stroke-opacity:1; fill:none" points="
  272.49,2145.56 283.876,2145.55 295.262,2145.55 306.647,2145.77 318.033,2146.22 329.418,2145.98 340.804,2143.6 352.19,2138.2 363.575,2129.63 374.961,2118.21 
  386.346,2104.39 397.732,2088.62 409.118,2071.24 420.503,2052.55 431.889,2032.77 443.274,2012.08 454.66,1990.62 466.046,1968.49 477.431,1945.81 488.817,1922.64 
  500.202,1899.05 511.588,1875.11 522.974,1850.86 534.359,1826.35 545.745,1801.63 557.13,1776.73 568.516,1751.69 579.901,1726.55 591.287,1701.34 602.673,1676.09 
  614.058,1650.85 625.444,1625.65 636.829,1600.51 648.215,1575.47 659.601,1550.58 670.986,1525.85 682.372,1501.32 693.757,1477.03 705.143,1453.01 716.529,1429.28 
  727.914,1405.87 739.3,1382.81 750.685,1360.13 762.071,1337.85 773.457,1315.99 784.842,1294.57 796.228,1273.6 807.613,1253.12 818.999,1233.12 830.385,1213.62 
  841.77,1194.63 853.156,1176.16 864.541,1158.2 875.927,1140.77 887.313,1123.87 898.698,1107.48 910.084,1091.61 921.469,1076.25 932.855,1061.39 944.241,1047.03 
  955.626,1033.14 967.012,1019.72 978.397,1006.74 989.783,994.209 1001.17,982.1 1012.55,970.413 1023.94,959.16 1035.33,948.378 1046.71,937.872 1058.1,927.455 
  1069.48,917.165 1080.87,907.026 1092.25,897.049 1103.64,887.238 1115.02,877.589 1126.41,868.089 1137.8,858.712 1149.18,849.422 1160.57,840.174 1171.95,830.926 
  1183.34,821.635 1194.72,812.268 1206.11,802.797 1217.49,793.201 1228.88,783.461 1240.27,773.566 1251.65,763.505 1263.04,753.272 1274.42,742.866 1285.81,732.286 
  1297.19,721.537 1308.58,710.626 1319.97,699.563 1331.35,688.361 1342.74,677.032 1354.12,665.593 1365.51,654.062 1376.89,642.458 1388.28,630.799 1399.66,619.108 
  1411.05,607.405 1422.44,595.711 1433.82,584.047 1445.21,572.435 1456.59,560.896 1467.98,549.45 1479.36,538.116 1490.75,526.914 1502.13,515.863 1513.52,504.978 
  1524.91,494.278 1536.29,483.778 1547.68,473.492 1559.06,463.436 1570.45,453.623 1581.83,444.066 1593.22,434.778 1604.61,425.769 1615.99,417.048 1627.38,408.621 
  1638.76,400.49 1650.15,392.658 1661.53,385.13 1672.92,377.91 1684.3,371.008 1695.69,364.436 1707.08,358.205 1718.46,352.331 1729.85,346.826 1741.23,341.703 
  1752.62,336.972 1764,332.64 1775.39,328.711 1786.77,325.185 1798.16,322.057 1809.55,319.318 1820.93,316.956 1832.32,314.954 1843.7,313.296 1855.09,311.965 
  1866.47,310.944 1877.86,310.217 1889.25,309.768 1900.63,309.583 1912.02,309.647 1923.4,309.948 1934.79,310.471 1946.17,311.204 1957.56,312.136 1968.94,313.255 
  1980.33,314.55 1991.72,316.01 2003.1,317.625 2014.49,319.385 2025.87,321.281 2037.26,323.303 2048.64,325.443 2060.03,327.691 2071.41,330.039 2082.8,332.479 
  2094.19,335.003 2105.57,337.604 2116.96,340.273 2128.34,343.004 2139.73,345.789 2151.11,348.621 2162.5,351.495 2173.89,354.401 2185.27,357.335 2196.66,360.289 
  2208.04,363.257 2219.43,366.233 2230.81,369.208 2242.2,372.178 2253.58,375.135 2264.97,378.072 2276.36,380.981 2287.74,383.856 2299.13,386.689 2310.51,389.472 
  2321.9,392.196 2333.28,394.853 2344.67,397.434 2356.05,399.93 2367.44,402.329 2378.83,404.625 2390.21,406.802 2401.6,408.856 2412.98,410.767 2424.37,412.533 
  2435.75,414.135 2447.14,415.571 2458.53,416.821 2469.91,417.889 2481.3,418.76 2492.68,419.448 2504.07,419.947 2515.45,420.297 2526.84,420.515 2538.22,420.684 
  2549.61,420.873 
  "/>
<polyline clip-path="url(#clip8902)" style="stroke:#ac8d18; stroke-width:16; stroke-opacity:1; fill:none" points="
  272.49,2132.41 283.876,2132.36 295.262,2130.19 306.647,2114.83 318.033,2085.92 329.418,2054.09 340.804,2023.83 352.19,1995.32 363.575,1967.97 374.961,1941.26 
  386.346,1914.89 397.732,1888.67 409.118,1862.49 420.503,1836.3 431.889,1810.09 443.274,1783.84 454.66,1757.57 466.046,1731.31 477.431,1705.08 488.817,1678.91 
  500.202,1652.85 511.588,1626.92 522.974,1601.17 534.359,1575.65 545.745,1550.38 557.13,1525.4 568.516,1500.75 579.901,1476.46 591.287,1452.56 602.673,1429.07 
  614.058,1406.03 625.444,1383.44 636.829,1361.32 648.215,1339.68 659.601,1318.54 670.986,1297.89 682.372,1277.74 693.757,1258.09 705.143,1238.94 716.529,1220.27 
  727.914,1202.09 739.3,1184.38 750.685,1167.13 762.071,1150.33 773.457,1133.97 784.842,1118.03 796.228,1102.49 807.613,1087.35 818.999,1072.59 830.385,1058.19 
  841.77,1044.14 853.156,1030.43 864.541,1017.03 875.927,1003.93 887.313,991.115 898.698,978.577 910.084,966.292 921.469,954.252 932.855,942.432 944.241,930.825 
  955.626,919.405 967.012,908.166 978.397,897.076 989.783,886.131 1001.17,875.299 1012.55,864.579 1023.94,853.946 1035.33,843.421 1046.71,832.949 1058.1,822.473 
  1069.48,811.994 1080.87,801.484 1092.25,790.926 1103.64,780.293 1115.02,769.567 1126.41,758.735 1137.8,747.788 1149.18,736.724 1160.57,725.546 1171.95,714.254 
  1183.34,702.847 1194.72,691.327 1206.11,679.691 1217.49,667.941 1228.88,656.079 1240.27,644.106 1251.65,632.029 1263.04,619.852 1274.42,607.582 1285.81,595.229 
  1297.19,582.801 1308.58,570.309 1319.97,557.764 1331.35,545.181 1342.74,532.57 1354.12,519.947 1365.51,507.325 1376.89,494.719 1388.28,482.143 1399.66,469.612 
  1411.05,457.139 1422.44,444.741 1433.82,432.43 1445.21,420.221 1456.59,408.129 1467.98,396.167 1479.36,384.35 1490.75,372.69 1502.13,361.202 1513.52,349.899 
  1524.91,338.797 1536.29,327.91 1547.68,317.254 1559.06,306.846 1570.45,296.706 1581.83,286.854 1593.22,277.317 1604.61,268.124 1615.99,259.312 1627.38,250.919 
  1638.76,242.979 1650.15,235.519 1661.53,228.566 1672.92,222.144 1684.3,216.28 1695.69,210.997 1707.08,206.313 1718.46,202.237 1729.85,198.769 1741.23,195.899 
  1752.62,193.609 1764,191.876 1775.39,190.672 1786.77,189.965 1798.16,189.727 1809.55,189.928 1820.93,190.544 1832.32,191.551 1843.7,192.93 1855.09,194.66 
  1866.47,196.726 1877.86,199.111 1889.25,201.799 1900.63,204.774 1912.02,208.022 1923.4,211.527 1934.79,215.273 1946.17,219.246 1957.56,223.431 1968.94,227.812 
  1980.33,232.375 1991.72,237.105 2003.1,241.987 2014.49,247.008 2025.87,252.153 2037.26,257.408 2048.64,262.76 2060.03,268.195 2071.41,273.701 2082.8,279.264 
  2094.19,284.873 2105.57,290.516 2116.96,296.181 2128.34,301.855 2139.73,307.529 2151.11,313.191 2162.5,318.83 2173.89,324.435 2185.27,329.998 2196.66,335.506 
  2208.04,340.95 2219.43,346.321 2230.81,351.608 2242.2,356.802 2253.58,361.893 2264.97,366.871 2276.36,371.725 2287.74,376.448 2299.13,381.028 2310.51,385.456 
  2321.9,389.72 2333.28,393.815 2344.67,397.724 2356.05,401.444 2367.44,404.958 2378.83,408.265 2390.21,411.345 2401.6,414.2 2412.98,416.811 2424.37,419.182 
  2435.75,421.294 2447.14,423.156 2458.53,424.75 2469.91,426.094 2481.3,427.171 2492.68,428.013 2504.07,428.612 2515.45,429.022 2526.84,429.263 2538.22,429.448 
  2549.61,429.704 
  "/>
<polyline clip-path="url(#clip8902)" style="stroke:#00a9ad; stroke-width:16; stroke-opacity:1; fill:none" points="
  272.49,2106.11 283.876,2106.16 295.262,2104.17 306.647,2089.46 318.033,2063.11 329.418,2035.06 340.804,2008.31 352.19,1982.54 363.575,1957.19 374.961,1931.93 
  386.346,1906.59 397.732,1881.12 409.118,1855.49 420.503,1829.69 431.889,1803.75 443.274,1777.68 454.66,1751.49 466.046,1725.22 477.431,1698.9 488.817,1672.54 
  500.202,1646.18 511.588,1619.84 522.974,1593.56 534.359,1567.37 545.745,1541.28 557.13,1515.34 568.516,1489.55 579.901,1463.96 591.287,1438.57 602.673,1413.42 
  614.058,1388.53 625.444,1363.92 636.829,1339.6 648.215,1315.59 659.601,1291.9 670.986,1268.57 682.372,1245.58 693.757,1222.97 705.143,1200.73 716.529,1178.88 
  727.914,1157.42 739.3,1136.36 750.685,1115.71 762.071,1095.47 773.457,1075.66 784.842,1056.26 796.228,1037.28 807.613,1018.73 818.999,1000.62 830.385,982.932 
  841.77,965.683 853.156,948.866 864.541,932.49 875.927,916.548 887.313,901.049 898.698,885.985 910.084,871.365 921.469,857.178 932.855,843.434 944.241,830.122 
  955.626,817.252 967.012,804.809 978.397,792.806 989.783,781.23 1001.17,770.097 1012.55,759.399 1023.94,749.163 1035.33,739.404 1046.71,729.962 1058.1,720.752 
  1069.48,711.837 1080.87,703.25 1092.25,694.99 1103.64,687.054 1115.02,679.425 1126.41,672.089 1137.8,665.023 1149.18,658.21 1160.57,651.63 1171.95,645.267 
  1183.34,639.108 1194.72,633.14 1206.11,627.35 1217.49,621.727 1228.88,616.26 1240.27,610.937 1251.65,605.746 1263.04,600.676 1274.42,595.715 1285.81,590.851 
  1297.19,586.074 1308.58,581.372 1319.97,576.736 1331.35,572.156 1342.74,567.623 1354.12,563.129 1365.51,558.668 1376.89,554.233 1388.28,549.82 1399.66,545.424 
  1411.05,541.042 1422.44,536.672 1433.82,532.314 1445.21,527.966 1456.59,523.63 1467.98,519.307 1479.36,514.997 1490.75,510.704 1502.13,506.43 1513.52,502.177 
  1524.91,497.95 1536.29,493.75 1547.68,489.581 1559.06,485.447 1570.45,481.351 1581.83,477.296 1593.22,473.287 1604.61,469.326 1615.99,465.417 1627.38,461.565 
  1638.76,457.772 1650.15,454.046 1661.53,450.392 1672.92,446.817 1684.3,443.326 1695.69,439.928 1707.08,436.626 1718.46,433.428 1729.85,430.339 1741.23,427.364 
  1752.62,424.509 1764,421.777 1775.39,419.173 1786.77,416.698 1798.16,414.355 1809.55,412.144 1820.93,410.068 1832.32,408.125 1843.7,406.316 1855.09,404.64 
  1866.47,403.097 1877.86,401.684 1889.25,400.401 1900.63,399.246 1912.02,398.217 1923.4,397.313 1934.79,396.531 1946.17,395.87 1957.56,395.328 1968.94,394.901 
  1980.33,394.589 1991.72,394.39 2003.1,394.301 2014.49,394.32 2025.87,394.445 2037.26,394.675 2048.64,395.007 2060.03,395.439 2071.41,395.968 2082.8,396.592 
  2094.19,397.309 2105.57,398.116 2116.96,399.008 2128.34,399.984 2139.73,401.04 2151.11,402.17 2162.5,403.372 2173.89,404.639 2185.27,405.968 2196.66,407.353 
  2208.04,408.788 2219.43,410.266 2230.81,411.782 2242.2,413.328 2253.58,414.897 2264.97,416.482 2276.36,418.076 2287.74,419.67 2299.13,421.258 2310.51,422.83 
  2321.9,424.38 2333.28,425.898 2344.67,427.379 2356.05,428.812 2367.44,430.194 2378.83,431.513 2390.21,432.766 2401.6,433.942 2412.98,435.039 2424.37,436.046 
  2435.75,436.964 2447.14,437.779 2458.53,438.499 2469.91,439.107 2481.3,439.62 2492.68,440.019 2504.07,440.336 2515.45,440.551 2526.84,440.704 2538.22,440.762 
  2549.61,440.713 
  "/>
<polyline clip-path="url(#clip8902)" style="stroke:#ed5d92; stroke-width:16; stroke-opacity:1; fill:none" points="
  272.49,2119.26 283.876,2119.22 295.262,2119.13 306.647,2119.05 318.033,2118.94 329.418,2118.47 340.804,2117.11 352.19,2114.36 363.575,2109.89 374.961,2103.5 
  386.346,2095.13 397.732,2084.78 409.118,2072.51 420.503,2058.4 431.889,2042.53 443.274,2025.02 454.66,2005.96 466.046,1985.46 477.431,1963.64 488.817,1940.6 
  500.202,1916.44 511.588,1891.27 522.974,1865.18 534.359,1838.28 545.745,1810.65 557.13,1782.38 568.516,1753.55 579.901,1724.23 591.287,1694.5 602.673,1664.43 
  614.058,1634.06 625.444,1603.45 636.829,1572.66 648.215,1541.73 659.601,1510.69 670.986,1479.58 682.372,1448.44 693.757,1417.28 705.143,1386.14 716.529,1355.04 
  727.914,1324 739.3,1293.04 750.685,1262.2 762.071,1231.48 773.457,1200.92 784.842,1170.54 796.228,1140.37 807.613,1110.44 818.999,1080.77 830.385,1051.41 
  841.77,1022.39 853.156,993.743 864.541,965.519 875.927,937.756 887.313,910.499 898.698,883.792 910.084,857.678 921.469,832.205 932.855,807.415 944.241,783.354 
  955.626,760.064 967.012,737.589 978.397,715.975 989.783,695.271 1001.17,675.534 1012.55,656.845 1023.94,639.314 1035.33,623.117 1046.71,607.867 1058.1,593.16 
  1069.48,579.195 1080.87,566.098 1092.25,553.94 1103.64,542.765 1115.02,532.59 1126.41,523.419 1137.8,515.233 1149.18,508.003 1160.57,501.685 1171.95,496.23 
  1183.34,491.579 1194.72,487.673 1206.11,484.451 1217.49,481.855 1228.88,479.828 1240.27,478.317 1251.65,477.271 1263.04,476.64 1274.42,476.381 1285.81,476.453 
  1297.19,476.818 1308.58,477.444 1319.97,478.3 1331.35,479.362 1342.74,480.607 1354.12,482.016 1365.51,483.571 1376.89,485.26 1388.28,487.068 1399.66,488.985 
  1411.05,491.001 1422.44,493.107 1433.82,495.294 1445.21,497.554 1456.59,499.879 1467.98,502.261 1479.36,504.691 1490.75,507.161 1502.13,509.663 1513.52,512.185 
  1524.91,514.718 1536.29,517.253 1547.68,519.778 1559.06,522.282 1570.45,524.757 1581.83,527.191 1593.22,529.574 1604.61,531.898 1615.99,534.15 1627.38,536.319 
  1638.76,538.387 1650.15,540.334 1661.53,542.132 1672.92,543.755 1684.3,545.185 1695.69,546.416 1707.08,547.455 1718.46,548.326 1729.85,549.06 1741.23,549.69 
  1752.62,550.251 1764,550.772 1775.39,551.271 1786.77,551.762 1798.16,552.247 1809.55,552.723 1820.93,553.183 1832.32,553.616 1843.7,554.008 1855.09,554.343 
  1866.47,554.606 1877.86,554.782 1889.25,554.855 1900.63,554.81 1912.02,554.635 1923.4,554.318 1934.79,553.848 1946.17,553.218 1957.56,552.423 1968.94,551.458 
  1980.33,550.323 1991.72,549.018 2003.1,547.545 2014.49,545.907 2025.87,544.112 2037.26,542.165 2048.64,540.073 2060.03,537.845 2071.41,535.489 2082.8,533.014 
  2094.19,530.43 2105.57,527.744 2116.96,524.966 2128.34,522.104 2139.73,519.165 2151.11,516.158 2162.5,513.088 2173.89,509.962 2185.27,506.786 2196.66,503.565 
  2208.04,500.303 2219.43,497.006 2230.81,493.677 2242.2,490.32 2253.58,486.94 2264.97,483.539 2276.36,480.122 2287.74,476.692 2299.13,473.254 2310.51,469.812 
  2321.9,466.373 2333.28,462.939 2344.67,459.52 2356.05,456.119 2367.44,452.747 2378.83,449.41 2390.21,446.119 2401.6,442.884 2412.98,439.717 2424.37,436.631 
  2435.75,433.642 2447.14,430.765 2458.53,428.023 2469.91,425.435 2481.3,423.028 2492.68,420.828 2504.07,418.871 2515.45,417.186 2526.84,415.8 2538.22,414.709 
  2549.61,413.821 
  "/>
<path clip-path="url(#clip8900)" d="
M2713.92 746.392 L3184.76 746.392 L3184.76 262.552 L2713.92 262.552  Z
  " fill="#ffffff" fill-rule="evenodd" fill-opacity="1"/>
<polyline clip-path="url(#clip8900)" style="stroke:#000000; stroke-width:4; stroke-opacity:1; fill:none" points="
  2713.92,746.392 3184.76,746.392 3184.76,262.552 2713.92,262.552 2713.92,746.392 
  "/>
<polyline clip-path="url(#clip8900)" style="stroke:#009af9; stroke-width:16; stroke-opacity:1; fill:none" points="
  2745.92,323.032 2937.92,323.032 
  "/>
<path clip-path="url(#clip8900)" d="M 0 0 M2991.95 303.633 Q2984.95 303.633 2980.81 308.853 Q2976.7 314.072 2976.7 323.08 Q2976.7 332.056 2980.81 337.275 Q2984.95 342.495 2991.95 342.495 Q2998.95 342.495 3003.03 337.275 Q3007.13 332.056 3007.13 323.08 Q3007.13 314.072 3003.03 308.853 Q2998.95 303.633 2991.95 303.633 M3000.96 345.933 L3009.42 355.195 L3001.66 355.195 L2994.62 347.588 Q2993.57 347.651 2993 347.683 Q2992.46 347.715 2991.95 347.715 Q2981.92 347.715 2975.91 341.031 Q2969.92 334.315 2969.92 323.08 Q2969.92 311.813 2975.91 305.129 Q2981.92 298.413 2991.95 298.413 Q3001.94 298.413 3007.93 305.129 Q3013.91 311.813 3013.91 323.08 Q3013.91 331.355 3010.57 337.244 Q3007.26 343.132 3000.96 345.933 Z" fill="#000000" fill-rule="evenodd" fill-opacity="1" /><path clip-path="url(#clip8900)" d="M 0 0 M3019.45 332.724 L3019.45 311.144 L3025.31 311.144 L3025.31 332.501 Q3025.31 337.562 3027.28 340.108 Q3029.25 342.623 3033.2 342.623 Q3037.94 342.623 3040.68 339.599 Q3043.45 336.575 3043.45 331.355 L3043.45 311.144 L3049.3 311.144 L3049.3 346.792 L3043.45 346.792 L3043.45 341.318 Q3041.31 344.564 3038.48 346.156 Q3035.68 347.715 3031.96 347.715 Q3025.81 347.715 3022.63 343.896 Q3019.45 340.076 3019.45 332.724 M3034.19 310.285 L3034.19 310.285 Z" fill="#000000" fill-rule="evenodd" fill-opacity="1" /><path clip-path="url(#clip8900)" d="M 0 0 M3071.65 328.873 Q3064.55 328.873 3061.81 330.496 Q3059.08 332.119 3059.08 336.034 Q3059.08 339.153 3061.11 340.999 Q3063.18 342.814 3066.71 342.814 Q3071.58 342.814 3074.51 339.376 Q3077.47 335.907 3077.47 330.178 L3077.47 328.873 L3071.65 328.873 M3083.33 326.454 L3083.33 346.792 L3077.47 346.792 L3077.47 341.381 Q3075.47 344.628 3072.47 346.187 Q3069.48 347.715 3065.15 347.715 Q3059.68 347.715 3056.43 344.66 Q3053.22 341.572 3053.22 336.416 Q3053.22 330.4 3057.23 327.345 Q3061.27 324.289 3069.26 324.289 L3077.47 324.289 L3077.47 323.716 Q3077.47 319.674 3074.8 317.478 Q3072.16 315.25 3067.35 315.25 Q3064.29 315.25 3061.4 315.982 Q3058.5 316.714 3055.83 318.178 L3055.83 312.767 Q3059.04 311.526 3062.07 310.921 Q3065.09 310.285 3067.96 310.285 Q3075.69 310.285 3079.51 314.295 Q3083.33 318.306 3083.33 326.454 Z" fill="#000000" fill-rule="evenodd" fill-opacity="1" /><path clip-path="url(#clip8900)" d="M 0 0 M3112.93 316.555 L3112.93 297.267 L3118.79 297.267 L3118.79 346.792 L3112.93 346.792 L3112.93 341.445 Q3111.08 344.628 3108.25 346.187 Q3105.45 347.715 3101.5 347.715 Q3095.04 347.715 3090.97 342.559 Q3086.93 337.403 3086.93 329 Q3086.93 320.597 3090.97 315.441 Q3095.04 310.285 3101.5 310.285 Q3105.45 310.285 3108.25 311.844 Q3111.08 313.372 3112.93 316.555 M3092.97 329 Q3092.97 335.461 3095.61 339.153 Q3098.29 342.814 3102.93 342.814 Q3107.58 342.814 3110.26 339.153 Q3112.93 335.461 3112.93 329 Q3112.93 322.539 3110.26 318.879 Q3107.58 315.186 3102.93 315.186 Q3098.29 315.186 3095.61 318.879 Q3092.97 322.539 3092.97 329 Z" fill="#000000" fill-rule="evenodd" fill-opacity="1" /><path clip-path="url(#clip8900)" d="M 0 0 M3147.59 341.381 L3158.09 341.381 L3158.09 305.129 L3146.67 307.42 L3146.67 301.564 L3158.03 299.272 L3164.46 299.272 L3164.46 341.381 L3174.96 341.381 L3174.96 346.792 L3147.59 346.792 L3147.59 341.381 Z" fill="#000000" fill-rule="evenodd" fill-opacity="1" /><polyline clip-path="url(#clip8900)" style="stroke:#e26f46; stroke-width:16; stroke-opacity:1; fill:none" points="
  2745.92,383.512 2937.92,383.512 
  "/>
<path clip-path="url(#clip8900)" d="M 0 0 M2991.95 364.113 Q2984.95 364.113 2980.81 369.333 Q2976.7 374.552 2976.7 383.56 Q2976.7 392.536 2980.81 397.755 Q2984.95 402.975 2991.95 402.975 Q2998.95 402.975 3003.03 397.755 Q3007.13 392.536 3007.13 383.56 Q3007.13 374.552 3003.03 369.333 Q2998.95 364.113 2991.95 364.113 M3000.96 406.413 L3009.42 415.675 L3001.66 415.675 L2994.62 408.068 Q2993.57 408.131 2993 408.163 Q2992.46 408.195 2991.95 408.195 Q2981.92 408.195 2975.91 401.511 Q2969.92 394.795 2969.92 383.56 Q2969.92 372.293 2975.91 365.609 Q2981.92 358.893 2991.95 358.893 Q3001.94 358.893 3007.93 365.609 Q3013.91 372.293 3013.91 383.56 Q3013.91 391.835 3010.57 397.724 Q3007.26 403.612 3000.96 406.413 Z" fill="#000000" fill-rule="evenodd" fill-opacity="1" /><path clip-path="url(#clip8900)" d="M 0 0 M3019.45 393.204 L3019.45 371.624 L3025.31 371.624 L3025.31 392.981 Q3025.31 398.042 3027.28 400.588 Q3029.25 403.103 3033.2 403.103 Q3037.94 403.103 3040.68 400.079 Q3043.45 397.055 3043.45 391.835 L3043.45 371.624 L3049.3 371.624 L3049.3 407.272 L3043.45 407.272 L3043.45 401.798 Q3041.31 405.044 3038.48 406.636 Q3035.68 408.195 3031.96 408.195 Q3025.81 408.195 3022.63 404.376 Q3019.45 400.556 3019.45 393.204 M3034.19 370.765 L3034.19 370.765 Z" fill="#000000" fill-rule="evenodd" fill-opacity="1" /><path clip-path="url(#clip8900)" d="M 0 0 M3071.65 389.353 Q3064.55 389.353 3061.81 390.976 Q3059.08 392.599 3059.08 396.514 Q3059.08 399.633 3061.11 401.479 Q3063.18 403.294 3066.71 403.294 Q3071.58 403.294 3074.51 399.856 Q3077.47 396.387 3077.47 390.658 L3077.47 389.353 L3071.65 389.353 M3083.33 386.934 L3083.33 407.272 L3077.47 407.272 L3077.47 401.861 Q3075.47 405.108 3072.47 406.667 Q3069.48 408.195 3065.15 408.195 Q3059.68 408.195 3056.43 405.14 Q3053.22 402.052 3053.22 396.896 Q3053.22 390.88 3057.23 387.825 Q3061.27 384.769 3069.26 384.769 L3077.47 384.769 L3077.47 384.196 Q3077.47 380.154 3074.8 377.958 Q3072.16 375.73 3067.35 375.73 Q3064.29 375.73 3061.4 376.462 Q3058.5 377.194 3055.83 378.658 L3055.83 373.247 Q3059.04 372.006 3062.07 371.401 Q3065.09 370.765 3067.96 370.765 Q3075.69 370.765 3079.51 374.775 Q3083.33 378.786 3083.33 386.934 Z" fill="#000000" fill-rule="evenodd" fill-opacity="1" /><path clip-path="url(#clip8900)" d="M 0 0 M3112.93 377.035 L3112.93 357.747 L3118.79 357.747 L3118.79 407.272 L3112.93 407.272 L3112.93 401.925 Q3111.08 405.108 3108.25 406.667 Q3105.45 408.195 3101.5 408.195 Q3095.04 408.195 3090.97 403.039 Q3086.93 397.883 3086.93 389.48 Q3086.93 381.077 3090.97 375.921 Q3095.04 370.765 3101.5 370.765 Q3105.45 370.765 3108.25 372.324 Q3111.08 373.852 3112.93 377.035 M3092.97 389.48 Q3092.97 395.941 3095.61 399.633 Q3098.29 403.294 3102.93 403.294 Q3107.58 403.294 3110.26 399.633 Q3112.93 395.941 3112.93 389.48 Q3112.93 383.019 3110.26 379.359 Q3107.58 375.666 3102.93 375.666 Q3098.29 375.666 3095.61 379.359 Q3092.97 383.019 3092.97 389.48 Z" fill="#000000" fill-rule="evenodd" fill-opacity="1" /><path clip-path="url(#clip8900)" d="M 0 0 M3152.01 401.861 L3174.45 401.861 L3174.45 407.272 L3144.28 407.272 L3144.28 401.861 Q3147.94 398.074 3154.24 391.708 Q3160.58 385.31 3162.2 383.464 Q3165.29 379.995 3166.5 377.608 Q3167.74 375.189 3167.74 372.865 Q3167.74 369.078 3165.06 366.691 Q3162.42 364.304 3158.16 364.304 Q3155.13 364.304 3151.76 365.354 Q3148.42 366.404 3144.6 368.537 L3144.6 362.044 Q3148.48 360.484 3151.86 359.688 Q3155.23 358.893 3158.03 358.893 Q3165.41 358.893 3169.81 362.585 Q3174.2 366.277 3174.2 372.452 Q3174.2 375.38 3173.08 378.022 Q3172 380.632 3169.11 384.196 Q3168.31 385.119 3164.05 389.544 Q3159.78 393.936 3152.01 401.861 Z" fill="#000000" fill-rule="evenodd" fill-opacity="1" /><polyline clip-path="url(#clip8900)" style="stroke:#3da44d; stroke-width:16; stroke-opacity:1; fill:none" points="
  2745.92,443.992 2937.92,443.992 
  "/>
<path clip-path="url(#clip8900)" d="M 0 0 M2991.95 424.593 Q2984.95 424.593 2980.81 429.813 Q2976.7 435.032 2976.7 444.04 Q2976.7 453.016 2980.81 458.235 Q2984.95 463.455 2991.95 463.455 Q2998.95 463.455 3003.03 458.235 Q3007.13 453.016 3007.13 444.04 Q3007.13 435.032 3003.03 429.813 Q2998.95 424.593 2991.95 424.593 M3000.96 466.893 L3009.42 476.155 L3001.66 476.155 L2994.62 468.548 Q2993.57 468.611 2993 468.643 Q2992.46 468.675 2991.95 468.675 Q2981.92 468.675 2975.91 461.991 Q2969.92 455.275 2969.92 444.04 Q2969.92 432.773 2975.91 426.089 Q2981.92 419.373 2991.95 419.373 Q3001.94 419.373 3007.93 426.089 Q3013.91 432.773 3013.91 444.04 Q3013.91 452.315 3010.57 458.204 Q3007.26 464.092 3000.96 466.893 Z" fill="#000000" fill-rule="evenodd" fill-opacity="1" /><path clip-path="url(#clip8900)" d="M 0 0 M3019.45 453.684 L3019.45 432.104 L3025.31 432.104 L3025.31 453.461 Q3025.31 458.522 3027.28 461.068 Q3029.25 463.583 3033.2 463.583 Q3037.94 463.583 3040.68 460.559 Q3043.45 457.535 3043.45 452.315 L3043.45 432.104 L3049.3 432.104 L3049.3 467.752 L3043.45 467.752 L3043.45 462.278 Q3041.31 465.524 3038.48 467.116 Q3035.68 468.675 3031.96 468.675 Q3025.81 468.675 3022.63 464.856 Q3019.45 461.036 3019.45 453.684 M3034.19 431.245 L3034.19 431.245 Z" fill="#000000" fill-rule="evenodd" fill-opacity="1" /><path clip-path="url(#clip8900)" d="M 0 0 M3071.65 449.833 Q3064.55 449.833 3061.81 451.456 Q3059.08 453.079 3059.08 456.994 Q3059.08 460.113 3061.11 461.959 Q3063.18 463.774 3066.71 463.774 Q3071.58 463.774 3074.51 460.336 Q3077.47 456.867 3077.47 451.138 L3077.47 449.833 L3071.65 449.833 M3083.33 447.414 L3083.33 467.752 L3077.47 467.752 L3077.47 462.341 Q3075.47 465.588 3072.47 467.147 Q3069.48 468.675 3065.15 468.675 Q3059.68 468.675 3056.43 465.62 Q3053.22 462.532 3053.22 457.376 Q3053.22 451.36 3057.23 448.305 Q3061.27 445.249 3069.26 445.249 L3077.47 445.249 L3077.47 444.676 Q3077.47 440.634 3074.8 438.438 Q3072.16 436.21 3067.35 436.21 Q3064.29 436.21 3061.4 436.942 Q3058.5 437.674 3055.83 439.138 L3055.83 433.727 Q3059.04 432.486 3062.07 431.881 Q3065.09 431.245 3067.96 431.245 Q3075.69 431.245 3079.51 435.255 Q3083.33 439.266 3083.33 447.414 Z" fill="#000000" fill-rule="evenodd" fill-opacity="1" /><path clip-path="url(#clip8900)" d="M 0 0 M3112.93 437.515 L3112.93 418.227 L3118.79 418.227 L3118.79 467.752 L3112.93 467.752 L3112.93 462.405 Q3111.08 465.588 3108.25 467.147 Q3105.45 468.675 3101.5 468.675 Q3095.04 468.675 3090.97 463.519 Q3086.93 458.363 3086.93 449.96 Q3086.93 441.557 3090.97 436.401 Q3095.04 431.245 3101.5 431.245 Q3105.45 431.245 3108.25 432.804 Q3111.08 434.332 3112.93 437.515 M3092.97 449.96 Q3092.97 456.421 3095.61 460.113 Q3098.29 463.774 3102.93 463.774 Q3107.58 463.774 3110.26 460.113 Q3112.93 456.421 3112.93 449.96 Q3112.93 443.499 3110.26 439.839 Q3107.58 436.146 3102.93 436.146 Q3098.29 436.146 3095.61 439.839 Q3092.97 443.499 3092.97 449.96 Z" fill="#000000" fill-rule="evenodd" fill-opacity="1" /><path clip-path="url(#clip8900)" d="M 0 0 M3165.96 442.13 Q3170.57 443.117 3173.15 446.236 Q3175.76 449.355 3175.76 453.939 Q3175.76 460.973 3170.92 464.824 Q3166.08 468.675 3157.17 468.675 Q3154.18 468.675 3151 468.07 Q3147.84 467.497 3144.47 466.32 L3144.47 460.113 Q3147.14 461.673 3150.33 462.469 Q3153.51 463.264 3156.98 463.264 Q3163.03 463.264 3166.18 460.877 Q3169.36 458.49 3169.36 453.939 Q3169.36 449.737 3166.4 447.382 Q3163.47 444.995 3158.22 444.995 L3152.68 444.995 L3152.68 439.711 L3158.48 439.711 Q3163.22 439.711 3165.73 437.833 Q3168.25 435.924 3168.25 432.359 Q3168.25 428.699 3165.64 426.757 Q3163.06 424.784 3158.22 424.784 Q3155.58 424.784 3152.56 425.357 Q3149.53 425.929 3145.9 427.139 L3145.9 421.41 Q3149.56 420.391 3152.75 419.882 Q3155.96 419.373 3158.79 419.373 Q3166.11 419.373 3170.38 422.715 Q3174.64 426.025 3174.64 431.69 Q3174.64 435.637 3172.38 438.374 Q3170.12 441.08 3165.96 442.13 Z" fill="#000000" fill-rule="evenodd" fill-opacity="1" /><polyline clip-path="url(#clip8900)" style="stroke:#c271d2; stroke-width:16; stroke-opacity:1; fill:none" points="
  2745.92,504.472 2937.92,504.472 
  "/>
<path clip-path="url(#clip8900)" d="M 0 0 M2991.95 485.073 Q2984.95 485.073 2980.81 490.293 Q2976.7 495.512 2976.7 504.52 Q2976.7 513.496 2980.81 518.715 Q2984.95 523.935 2991.95 523.935 Q2998.95 523.935 3003.03 518.715 Q3007.13 513.496 3007.13 504.52 Q3007.13 495.512 3003.03 490.293 Q2998.95 485.073 2991.95 485.073 M3000.96 527.373 L3009.42 536.635 L3001.66 536.635 L2994.62 529.028 Q2993.57 529.091 2993 529.123 Q2992.46 529.155 2991.95 529.155 Q2981.92 529.155 2975.91 522.471 Q2969.92 515.755 2969.92 504.52 Q2969.92 493.253 2975.91 486.569 Q2981.92 479.853 2991.95 479.853 Q3001.94 479.853 3007.93 486.569 Q3013.91 493.253 3013.91 504.52 Q3013.91 512.795 3010.57 518.684 Q3007.26 524.572 3000.96 527.373 Z" fill="#000000" fill-rule="evenodd" fill-opacity="1" /><path clip-path="url(#clip8900)" d="M 0 0 M3019.45 514.164 L3019.45 492.584 L3025.31 492.584 L3025.31 513.941 Q3025.31 519.002 3027.28 521.548 Q3029.25 524.063 3033.2 524.063 Q3037.94 524.063 3040.68 521.039 Q3043.45 518.015 3043.45 512.795 L3043.45 492.584 L3049.3 492.584 L3049.3 528.232 L3043.45 528.232 L3043.45 522.758 Q3041.31 526.004 3038.48 527.596 Q3035.68 529.155 3031.96 529.155 Q3025.81 529.155 3022.63 525.336 Q3019.45 521.516 3019.45 514.164 M3034.19 491.725 L3034.19 491.725 Z" fill="#000000" fill-rule="evenodd" fill-opacity="1" /><path clip-path="url(#clip8900)" d="M 0 0 M3071.65 510.313 Q3064.55 510.313 3061.81 511.936 Q3059.08 513.559 3059.08 517.474 Q3059.08 520.593 3061.11 522.439 Q3063.18 524.254 3066.71 524.254 Q3071.58 524.254 3074.51 520.816 Q3077.47 517.347 3077.47 511.618 L3077.47 510.313 L3071.65 510.313 M3083.33 507.894 L3083.33 528.232 L3077.47 528.232 L3077.47 522.821 Q3075.47 526.068 3072.47 527.627 Q3069.48 529.155 3065.15 529.155 Q3059.68 529.155 3056.43 526.1 Q3053.22 523.012 3053.22 517.856 Q3053.22 511.84 3057.23 508.785 Q3061.27 505.729 3069.26 505.729 L3077.47 505.729 L3077.47 505.156 Q3077.47 501.114 3074.8 498.918 Q3072.16 496.69 3067.35 496.69 Q3064.29 496.69 3061.4 497.422 Q3058.5 498.154 3055.83 499.618 L3055.83 494.207 Q3059.04 492.966 3062.07 492.361 Q3065.09 491.725 3067.96 491.725 Q3075.69 491.725 3079.51 495.735 Q3083.33 499.746 3083.33 507.894 Z" fill="#000000" fill-rule="evenodd" fill-opacity="1" /><path clip-path="url(#clip8900)" d="M 0 0 M3112.93 497.995 L3112.93 478.707 L3118.79 478.707 L3118.79 528.232 L3112.93 528.232 L3112.93 522.885 Q3111.08 526.068 3108.25 527.627 Q3105.45 529.155 3101.5 529.155 Q3095.04 529.155 3090.97 523.999 Q3086.93 518.843 3086.93 510.44 Q3086.93 502.037 3090.97 496.881 Q3095.04 491.725 3101.5 491.725 Q3105.45 491.725 3108.25 493.284 Q3111.08 494.812 3112.93 497.995 M3092.97 510.44 Q3092.97 516.901 3095.61 520.593 Q3098.29 524.254 3102.93 524.254 Q3107.58 524.254 3110.26 520.593 Q3112.93 516.901 3112.93 510.44 Q3112.93 503.979 3110.26 500.319 Q3107.58 496.626 3102.93 496.626 Q3098.29 496.626 3095.61 500.319 Q3092.97 503.979 3092.97 510.44 Z" fill="#000000" fill-rule="evenodd" fill-opacity="1" /><path clip-path="url(#clip8900)" d="M 0 0 M3164.14 486.314 L3147.91 511.681 L3164.14 511.681 L3164.14 486.314 M3162.45 480.712 L3170.54 480.712 L3170.54 511.681 L3177.32 511.681 L3177.32 517.028 L3170.54 517.028 L3170.54 528.232 L3164.14 528.232 L3164.14 517.028 L3142.69 517.028 L3142.69 510.822 L3162.45 480.712 Z" fill="#000000" fill-rule="evenodd" fill-opacity="1" /><polyline clip-path="url(#clip8900)" style="stroke:#ac8d18; stroke-width:16; stroke-opacity:1; fill:none" points="
  2745.92,564.952 2937.92,564.952 
  "/>
<path clip-path="url(#clip8900)" d="M 0 0 M2991.95 545.553 Q2984.95 545.553 2980.81 550.773 Q2976.7 555.992 2976.7 565 Q2976.7 573.976 2980.81 579.195 Q2984.95 584.415 2991.95 584.415 Q2998.95 584.415 3003.03 579.195 Q3007.13 573.976 3007.13 565 Q3007.13 555.992 3003.03 550.773 Q2998.95 545.553 2991.95 545.553 M3000.96 587.853 L3009.42 597.115 L3001.66 597.115 L2994.62 589.508 Q2993.57 589.571 2993 589.603 Q2992.46 589.635 2991.95 589.635 Q2981.92 589.635 2975.91 582.951 Q2969.92 576.235 2969.92 565 Q2969.92 553.733 2975.91 547.049 Q2981.92 540.333 2991.95 540.333 Q3001.94 540.333 3007.93 547.049 Q3013.91 553.733 3013.91 565 Q3013.91 573.275 3010.57 579.164 Q3007.26 585.052 3000.96 587.853 Z" fill="#000000" fill-rule="evenodd" fill-opacity="1" /><path clip-path="url(#clip8900)" d="M 0 0 M3019.45 574.644 L3019.45 553.064 L3025.31 553.064 L3025.31 574.421 Q3025.31 579.482 3027.28 582.028 Q3029.25 584.543 3033.2 584.543 Q3037.94 584.543 3040.68 581.519 Q3043.45 578.495 3043.45 573.275 L3043.45 553.064 L3049.3 553.064 L3049.3 588.712 L3043.45 588.712 L3043.45 583.238 Q3041.31 586.484 3038.48 588.076 Q3035.68 589.635 3031.96 589.635 Q3025.81 589.635 3022.63 585.816 Q3019.45 581.996 3019.45 574.644 M3034.19 552.205 L3034.19 552.205 Z" fill="#000000" fill-rule="evenodd" fill-opacity="1" /><path clip-path="url(#clip8900)" d="M 0 0 M3071.65 570.793 Q3064.55 570.793 3061.81 572.416 Q3059.08 574.039 3059.08 577.954 Q3059.08 581.073 3061.11 582.919 Q3063.18 584.734 3066.71 584.734 Q3071.58 584.734 3074.51 581.296 Q3077.47 577.827 3077.47 572.098 L3077.47 570.793 L3071.65 570.793 M3083.33 568.374 L3083.33 588.712 L3077.47 588.712 L3077.47 583.301 Q3075.47 586.548 3072.47 588.107 Q3069.48 589.635 3065.15 589.635 Q3059.68 589.635 3056.43 586.58 Q3053.22 583.492 3053.22 578.336 Q3053.22 572.32 3057.23 569.265 Q3061.27 566.209 3069.26 566.209 L3077.47 566.209 L3077.47 565.636 Q3077.47 561.594 3074.8 559.398 Q3072.16 557.17 3067.35 557.17 Q3064.29 557.17 3061.4 557.902 Q3058.5 558.634 3055.83 560.098 L3055.83 554.687 Q3059.04 553.446 3062.07 552.841 Q3065.09 552.205 3067.96 552.205 Q3075.69 552.205 3079.51 556.215 Q3083.33 560.226 3083.33 568.374 Z" fill="#000000" fill-rule="evenodd" fill-opacity="1" /><path clip-path="url(#clip8900)" d="M 0 0 M3112.93 558.475 L3112.93 539.187 L3118.79 539.187 L3118.79 588.712 L3112.93 588.712 L3112.93 583.365 Q3111.08 586.548 3108.25 588.107 Q3105.45 589.635 3101.5 589.635 Q3095.04 589.635 3090.97 584.479 Q3086.93 579.323 3086.93 570.92 Q3086.93 562.517 3090.97 557.361 Q3095.04 552.205 3101.5 552.205 Q3105.45 552.205 3108.25 553.764 Q3111.08 555.292 3112.93 558.475 M3092.97 570.92 Q3092.97 577.381 3095.61 581.073 Q3098.29 584.734 3102.93 584.734 Q3107.58 584.734 3110.26 581.073 Q3112.93 577.381 3112.93 570.92 Q3112.93 564.459 3110.26 560.799 Q3107.58 557.106 3102.93 557.106 Q3098.29 557.106 3095.61 560.799 Q3092.97 564.459 3092.97 570.92 Z" fill="#000000" fill-rule="evenodd" fill-opacity="1" /><path clip-path="url(#clip8900)" d="M 0 0 M3146.54 541.192 L3171.78 541.192 L3171.78 546.603 L3152.43 546.603 L3152.43 558.252 Q3153.83 557.775 3155.23 557.552 Q3156.63 557.297 3158.03 557.297 Q3165.99 557.297 3170.63 561.658 Q3175.28 566.018 3175.28 573.466 Q3175.28 581.137 3170.51 585.402 Q3165.73 589.635 3157.04 589.635 Q3154.05 589.635 3150.93 589.126 Q3147.84 588.617 3144.53 587.598 L3144.53 581.137 Q3147.4 582.697 3150.45 583.46 Q3153.51 584.224 3156.92 584.224 Q3162.42 584.224 3165.64 581.328 Q3168.85 578.432 3168.85 573.466 Q3168.85 568.501 3165.64 565.605 Q3162.42 562.708 3156.92 562.708 Q3154.34 562.708 3151.76 563.281 Q3149.21 563.854 3146.54 565.064 L3146.54 541.192 Z" fill="#000000" fill-rule="evenodd" fill-opacity="1" /><polyline clip-path="url(#clip8900)" style="stroke:#00a9ad; stroke-width:16; stroke-opacity:1; fill:none" points="
  2745.92,625.432 2937.92,625.432 
  "/>
<path clip-path="url(#clip8900)" d="M 0 0 M2991.95 606.033 Q2984.95 606.033 2980.81 611.253 Q2976.7 616.472 2976.7 625.48 Q2976.7 634.456 2980.81 639.675 Q2984.95 644.895 2991.95 644.895 Q2998.95 644.895 3003.03 639.675 Q3007.13 634.456 3007.13 625.48 Q3007.13 616.472 3003.03 611.253 Q2998.95 606.033 2991.95 606.033 M3000.96 648.333 L3009.42 657.595 L3001.66 657.595 L2994.62 649.988 Q2993.57 650.051 2993 650.083 Q2992.46 650.115 2991.95 650.115 Q2981.92 650.115 2975.91 643.431 Q2969.92 636.715 2969.92 625.48 Q2969.92 614.213 2975.91 607.529 Q2981.92 600.813 2991.95 600.813 Q3001.94 600.813 3007.93 607.529 Q3013.91 614.213 3013.91 625.48 Q3013.91 633.755 3010.57 639.644 Q3007.26 645.532 3000.96 648.333 Z" fill="#000000" fill-rule="evenodd" fill-opacity="1" /><path clip-path="url(#clip8900)" d="M 0 0 M3019.45 635.124 L3019.45 613.544 L3025.31 613.544 L3025.31 634.901 Q3025.31 639.962 3027.28 642.508 Q3029.25 645.023 3033.2 645.023 Q3037.94 645.023 3040.68 641.999 Q3043.45 638.975 3043.45 633.755 L3043.45 613.544 L3049.3 613.544 L3049.3 649.192 L3043.45 649.192 L3043.45 643.718 Q3041.31 646.964 3038.48 648.556 Q3035.68 650.115 3031.96 650.115 Q3025.81 650.115 3022.63 646.296 Q3019.45 642.476 3019.45 635.124 M3034.19 612.685 L3034.19 612.685 Z" fill="#000000" fill-rule="evenodd" fill-opacity="1" /><path clip-path="url(#clip8900)" d="M 0 0 M3071.65 631.273 Q3064.55 631.273 3061.81 632.896 Q3059.08 634.519 3059.08 638.434 Q3059.08 641.553 3061.11 643.399 Q3063.18 645.214 3066.71 645.214 Q3071.58 645.214 3074.51 641.776 Q3077.47 638.307 3077.47 632.578 L3077.47 631.273 L3071.65 631.273 M3083.33 628.854 L3083.33 649.192 L3077.47 649.192 L3077.47 643.781 Q3075.47 647.028 3072.47 648.587 Q3069.48 650.115 3065.15 650.115 Q3059.68 650.115 3056.43 647.06 Q3053.22 643.972 3053.22 638.816 Q3053.22 632.8 3057.23 629.745 Q3061.27 626.689 3069.26 626.689 L3077.47 626.689 L3077.47 626.116 Q3077.47 622.074 3074.8 619.878 Q3072.16 617.65 3067.35 617.65 Q3064.29 617.65 3061.4 618.382 Q3058.5 619.114 3055.83 620.578 L3055.83 615.167 Q3059.04 613.926 3062.07 613.321 Q3065.09 612.685 3067.96 612.685 Q3075.69 612.685 3079.51 616.695 Q3083.33 620.706 3083.33 628.854 Z" fill="#000000" fill-rule="evenodd" fill-opacity="1" /><path clip-path="url(#clip8900)" d="M 0 0 M3112.93 618.955 L3112.93 599.667 L3118.79 599.667 L3118.79 649.192 L3112.93 649.192 L3112.93 643.845 Q3111.08 647.028 3108.25 648.587 Q3105.45 650.115 3101.5 650.115 Q3095.04 650.115 3090.97 644.959 Q3086.93 639.803 3086.93 631.4 Q3086.93 622.997 3090.97 617.841 Q3095.04 612.685 3101.5 612.685 Q3105.45 612.685 3108.25 614.244 Q3111.08 615.772 3112.93 618.955 M3092.97 631.4 Q3092.97 637.861 3095.61 641.553 Q3098.29 645.214 3102.93 645.214 Q3107.58 645.214 3110.26 641.553 Q3112.93 637.861 3112.93 631.4 Q3112.93 624.939 3110.26 621.279 Q3107.58 617.586 3102.93 617.586 Q3098.29 617.586 3095.61 621.279 Q3092.97 624.939 3092.97 631.4 Z" fill="#000000" fill-rule="evenodd" fill-opacity="1" /><path clip-path="url(#clip8900)" d="M 0 0 M3161.02 622.87 Q3156.69 622.87 3154.15 625.83 Q3151.63 628.79 3151.63 633.946 Q3151.63 639.071 3154.15 642.063 Q3156.69 645.023 3161.02 645.023 Q3165.35 645.023 3167.87 642.063 Q3170.41 639.071 3170.41 633.946 Q3170.41 628.79 3167.87 625.83 Q3165.35 622.87 3161.02 622.87 M3173.79 602.722 L3173.79 608.579 Q3171.37 607.433 3168.88 606.828 Q3166.43 606.224 3164.01 606.224 Q3157.65 606.224 3154.27 610.52 Q3150.93 614.817 3150.45 623.506 Q3152.33 620.737 3155.17 619.273 Q3158 617.777 3161.4 617.777 Q3168.57 617.777 3172.7 622.138 Q3176.87 626.467 3176.87 633.946 Q3176.87 641.267 3172.54 645.691 Q3168.22 650.115 3161.02 650.115 Q3152.78 650.115 3148.42 643.813 Q3144.06 637.479 3144.06 625.48 Q3144.06 614.213 3149.4 607.529 Q3154.75 600.813 3163.76 600.813 Q3166.18 600.813 3168.63 601.29 Q3171.11 601.768 3173.79 602.722 Z" fill="#000000" fill-rule="evenodd" fill-opacity="1" /><polyline clip-path="url(#clip8900)" style="stroke:#ed5d92; stroke-width:16; stroke-opacity:1; fill:none" points="
  2745.92,685.912 2937.92,685.912 
  "/>
<path clip-path="url(#clip8900)" d="M 0 0 M2969.92 662.152 L2976.35 662.152 L2976.35 704.261 L2999.49 704.261 L2999.49 709.672 L2969.92 709.672 L2969.92 662.152 Z" fill="#000000" fill-rule="evenodd" fill-opacity="1" /><path clip-path="url(#clip8900)" d="M 0 0 M3018.3 678.13 Q3013.59 678.13 3010.85 681.822 Q3008.12 685.482 3008.12 691.88 Q3008.12 698.278 3010.82 701.97 Q3013.56 705.63 3018.3 705.63 Q3022.98 705.63 3025.72 701.938 Q3028.46 698.246 3028.46 691.88 Q3028.46 685.546 3025.72 681.854 Q3022.98 678.13 3018.3 678.13 M3018.3 673.165 Q3025.94 673.165 3030.3 678.13 Q3034.66 683.095 3034.66 691.88 Q3034.66 700.633 3030.3 705.63 Q3025.94 710.595 3018.3 710.595 Q3010.63 710.595 3006.27 705.63 Q3001.94 700.633 3001.94 691.88 Q3001.94 683.095 3006.27 678.13 Q3010.63 673.165 3018.3 673.165 Z" fill="#000000" fill-rule="evenodd" fill-opacity="1" /><path clip-path="url(#clip8900)" d="M 0 0 M3057.01 691.753 Q3049.91 691.753 3047.17 693.376 Q3044.43 694.999 3044.43 698.914 Q3044.43 702.033 3046.47 703.879 Q3048.54 705.694 3052.07 705.694 Q3056.94 705.694 3059.87 702.256 Q3062.83 698.787 3062.83 693.058 L3062.83 691.753 L3057.01 691.753 M3068.69 689.334 L3068.69 709.672 L3062.83 709.672 L3062.83 704.261 Q3060.83 707.508 3057.83 709.067 Q3054.84 710.595 3050.51 710.595 Q3045.04 710.595 3041.79 707.54 Q3038.58 704.452 3038.58 699.296 Q3038.58 693.28 3042.59 690.225 Q3046.63 687.169 3054.62 687.169 L3062.83 687.169 L3062.83 686.596 Q3062.83 682.554 3060.16 680.358 Q3057.52 678.13 3052.71 678.13 Q3049.65 678.13 3046.76 678.862 Q3043.86 679.594 3041.19 681.058 L3041.19 675.647 Q3044.4 674.406 3047.43 673.801 Q3050.45 673.165 3053.31 673.165 Q3061.05 673.165 3064.87 677.175 Q3068.69 681.186 3068.69 689.334 Z" fill="#000000" fill-rule="evenodd" fill-opacity="1" /><path clip-path="url(#clip8900)" d="M 0 0 M3098.29 679.435 L3098.29 660.147 L3104.14 660.147 L3104.14 709.672 L3098.29 709.672 L3098.29 704.325 Q3096.44 707.508 3093.61 709.067 Q3090.81 710.595 3086.86 710.595 Q3080.4 710.595 3076.33 705.439 Q3072.28 700.283 3072.28 691.88 Q3072.28 683.477 3076.33 678.321 Q3080.4 673.165 3086.86 673.165 Q3090.81 673.165 3093.61 674.724 Q3096.44 676.252 3098.29 679.435 M3078.33 691.88 Q3078.33 698.341 3080.97 702.033 Q3083.65 705.694 3088.29 705.694 Q3092.94 705.694 3095.61 702.033 Q3098.29 698.341 3098.29 691.88 Q3098.29 685.419 3095.61 681.759 Q3092.94 678.066 3088.29 678.066 Q3083.65 678.066 3080.97 681.759 Q3078.33 685.419 3078.33 691.88 Z" fill="#000000" fill-rule="evenodd" fill-opacity="1" /></svg>
