<?xml version="1.0" encoding="utf-8"?>
<svg xmlns="http://www.w3.org/2000/svg" xmlns:xlink="http://www.w3.org/1999/xlink" width="800" height="600" viewBox="0 0 3200 2400">
<defs>
  <clipPath id="clip1900">
    <rect x="0" y="0" width="3200" height="2400"/>
  </clipPath>
</defs>
<path clip-path="url(#clip1900)" d="
M0 2400 L3200 2400 L3200 0 L0 0  Z
  " fill="#ffffff" fill-rule="evenodd" fill-opacity="1"/>
<defs>
  <clipPath id="clip1901">
    <rect x="640" y="0" width="2241" height="2241"/>
  </clipPath>
</defs>
<path clip-path="url(#clip1900)" d="
M229.478 2204.92 L2617.92 2204.92 L2617.92 131.032 L229.478 131.032  Z
  " fill="#ffffff" fill-rule="evenodd" fill-opacity="1"/>
<defs>
  <clipPath id="clip1902">
    <rect x="229" y="131" width="2389" height="2075"/>
  </clipPath>
</defs>
<polyline clip-path="url(#clip1902)" style="stroke:#000000; stroke-width:2; stroke-opacity:0.1; fill:none" points="
  297.075,2204.92 297.075,131.032 
  "/>
<polyline clip-path="url(#clip1902)" style="stroke:#000000; stroke-width:2; stroke-opacity:0.1; fill:none" points="
  747.725,2204.92 747.725,131.032 
  "/>
<polyline clip-path="url(#clip1902)" style="stroke:#000000; stroke-width:2; stroke-opacity:0.1; fill:none" points="
  1198.38,2204.92 1198.38,131.032 
  "/>
<polyline clip-path="url(#clip1902)" style="stroke:#000000; stroke-width:2; stroke-opacity:0.1; fill:none" points="
  1649.03,2204.92 1649.03,131.032 
  "/>
<polyline clip-path="url(#clip1902)" style="stroke:#000000; stroke-width:2; stroke-opacity:0.1; fill:none" points="
  2099.68,2204.92 2099.68,131.032 
  "/>
<polyline clip-path="url(#clip1902)" style="stroke:#000000; stroke-width:2; stroke-opacity:0.1; fill:none" points="
  2550.33,2204.92 2550.33,131.032 
  "/>
<polyline clip-path="url(#clip1902)" style="stroke:#000000; stroke-width:2; stroke-opacity:0.1; fill:none" points="
  229.478,2102.35 2617.92,2102.35 
  "/>
<polyline clip-path="url(#clip1902)" style="stroke:#000000; stroke-width:2; stroke-opacity:0.1; fill:none" points="
  229.478,1590.25 2617.92,1590.25 
  "/>
<polyline clip-path="url(#clip1902)" style="stroke:#000000; stroke-width:2; stroke-opacity:0.1; fill:none" points="
  229.478,1078.15 2617.92,1078.15 
  "/>
<polyline clip-path="url(#clip1902)" style="stroke:#000000; stroke-width:2; stroke-opacity:0.1; fill:none" points="
  229.478,566.05 2617.92,566.05 
  "/>
<polyline clip-path="url(#clip1900)" style="stroke:#000000; stroke-width:4; stroke-opacity:1; fill:none" points="
  229.478,2204.92 2617.92,2204.92 
  "/>
<polyline clip-path="url(#clip1900)" style="stroke:#000000; stroke-width:4; stroke-opacity:1; fill:none" points="
  229.478,2204.92 229.478,131.032 
  "/>
<polyline clip-path="url(#clip1900)" style="stroke:#000000; stroke-width:4; stroke-opacity:1; fill:none" points="
  297.075,2204.92 297.075,2180.03 
  "/>
<polyline clip-path="url(#clip1900)" style="stroke:#000000; stroke-width:4; stroke-opacity:1; fill:none" points="
  747.725,2204.92 747.725,2180.03 
  "/>
<polyline clip-path="url(#clip1900)" style="stroke:#000000; stroke-width:4; stroke-opacity:1; fill:none" points="
  1198.38,2204.92 1198.38,2180.03 
  "/>
<polyline clip-path="url(#clip1900)" style="stroke:#000000; stroke-width:4; stroke-opacity:1; fill:none" points="
  1649.03,2204.92 1649.03,2180.03 
  "/>
<polyline clip-path="url(#clip1900)" style="stroke:#000000; stroke-width:4; stroke-opacity:1; fill:none" points="
  2099.68,2204.92 2099.68,2180.03 
  "/>
<polyline clip-path="url(#clip1900)" style="stroke:#000000; stroke-width:4; stroke-opacity:1; fill:none" points="
  2550.33,2204.92 2550.33,2180.03 
  "/>
<polyline clip-path="url(#clip1900)" style="stroke:#000000; stroke-width:4; stroke-opacity:1; fill:none" points="
  229.478,2102.35 258.139,2102.35 
  "/>
<polyline clip-path="url(#clip1900)" style="stroke:#000000; stroke-width:4; stroke-opacity:1; fill:none" points="
  229.478,1590.25 258.139,1590.25 
  "/>
<polyline clip-path="url(#clip1900)" style="stroke:#000000; stroke-width:4; stroke-opacity:1; fill:none" points="
  229.478,1078.15 258.139,1078.15 
  "/>
<polyline clip-path="url(#clip1900)" style="stroke:#000000; stroke-width:4; stroke-opacity:1; fill:none" points="
  229.478,566.05 258.139,566.05 
  "/>
<path clip-path="url(#clip1900)" d="M 0 0 M297.075 2230.91 Q293.464 2230.91 291.635 2234.48 Q289.83 2238.02 289.83 2245.15 Q289.83 2252.25 291.635 2255.82 Q293.464 2259.36 297.075 2259.36 Q300.709 2259.36 302.515 2255.82 Q304.344 2252.25 304.344 2245.15 Q304.344 2238.02 302.515 2234.48 Q300.709 2230.91 297.075 2230.91 M297.075 2227.21 Q302.885 2227.21 305.941 2231.81 Q309.019 2236.4 309.019 2245.15 Q309.019 2253.87 305.941 2258.48 Q302.885 2263.06 297.075 2263.06 Q291.265 2263.06 288.186 2258.48 Q285.131 2253.87 285.131 2245.15 Q285.131 2236.4 288.186 2231.81 Q291.265 2227.21 297.075 2227.21 Z" fill="#000000" fill-rule="evenodd" fill-opacity="1" /><path clip-path="url(#clip1900)" d="M 0 0 M738.107 2258.46 L745.746 2258.46 L745.746 2232.09 L737.436 2233.76 L737.436 2229.5 L745.7 2227.83 L750.376 2227.83 L750.376 2258.46 L758.015 2258.46 L758.015 2262.39 L738.107 2262.39 L738.107 2258.46 Z" fill="#000000" fill-rule="evenodd" fill-opacity="1" /><path clip-path="url(#clip1900)" d="M 0 0 M1193.03 2258.46 L1209.35 2258.46 L1209.35 2262.39 L1187.4 2262.39 L1187.4 2258.46 Q1190.07 2255.7 1194.65 2251.07 Q1199.26 2246.42 1200.44 2245.08 Q1202.68 2242.55 1203.56 2240.82 Q1204.46 2239.06 1204.46 2237.37 Q1204.46 2234.61 1202.52 2232.88 Q1200.6 2231.14 1197.5 2231.14 Q1195.3 2231.14 1192.84 2231.91 Q1190.41 2232.67 1187.63 2234.22 L1187.63 2229.5 Q1190.46 2228.36 1192.91 2227.79 Q1195.37 2227.21 1197.4 2227.21 Q1202.77 2227.21 1205.97 2229.89 Q1209.16 2232.58 1209.16 2237.07 Q1209.16 2239.2 1208.35 2241.12 Q1207.57 2243.02 1205.46 2245.61 Q1204.88 2246.28 1201.78 2249.5 Q1198.68 2252.69 1193.03 2258.46 Z" fill="#000000" fill-rule="evenodd" fill-opacity="1" /><path clip-path="url(#clip1900)" d="M 0 0 M1653.27 2243.76 Q1656.63 2244.48 1658.5 2246.74 Q1660.4 2249.01 1660.4 2252.35 Q1660.4 2257.46 1656.88 2260.26 Q1653.37 2263.06 1646.88 2263.06 Q1644.71 2263.06 1642.39 2262.62 Q1640.1 2262.21 1637.65 2261.35 L1637.65 2256.84 Q1639.59 2257.97 1641.91 2258.55 Q1644.22 2259.13 1646.75 2259.13 Q1651.14 2259.13 1653.44 2257.39 Q1655.75 2255.66 1655.75 2252.35 Q1655.75 2249.29 1653.6 2247.58 Q1651.47 2245.84 1647.65 2245.84 L1643.62 2245.84 L1643.62 2242 L1647.83 2242 Q1651.28 2242 1653.11 2240.63 Q1654.94 2239.24 1654.94 2236.65 Q1654.94 2233.99 1653.04 2232.58 Q1651.17 2231.14 1647.65 2231.14 Q1645.73 2231.14 1643.53 2231.56 Q1641.33 2231.98 1638.69 2232.85 L1638.69 2228.69 Q1641.35 2227.95 1643.67 2227.58 Q1646 2227.21 1648.06 2227.21 Q1653.39 2227.21 1656.49 2229.64 Q1659.59 2232.04 1659.59 2236.17 Q1659.59 2239.04 1657.95 2241.03 Q1656.31 2242.99 1653.27 2243.76 Z" fill="#000000" fill-rule="evenodd" fill-opacity="1" /><path clip-path="url(#clip1900)" d="M 0 0 M2102.68 2231.91 L2090.88 2250.35 L2102.68 2250.35 L2102.68 2231.91 M2101.46 2227.83 L2107.34 2227.83 L2107.34 2250.35 L2112.27 2250.35 L2112.27 2254.24 L2107.34 2254.24 L2107.34 2262.39 L2102.68 2262.39 L2102.68 2254.24 L2087.08 2254.24 L2087.08 2249.73 L2101.46 2227.83 Z" fill="#000000" fill-rule="evenodd" fill-opacity="1" /><path clip-path="url(#clip1900)" d="M 0 0 M2540.6 2227.83 L2558.96 2227.83 L2558.96 2231.77 L2544.89 2231.77 L2544.89 2240.24 Q2545.9 2239.89 2546.92 2239.73 Q2547.94 2239.54 2548.96 2239.54 Q2554.75 2239.54 2558.13 2242.72 Q2561.51 2245.89 2561.51 2251.3 Q2561.51 2256.88 2558.03 2259.98 Q2554.56 2263.06 2548.24 2263.06 Q2546.07 2263.06 2543.8 2262.69 Q2541.55 2262.32 2539.15 2261.58 L2539.15 2256.88 Q2541.23 2258.02 2543.45 2258.57 Q2545.67 2259.13 2548.15 2259.13 Q2552.15 2259.13 2554.49 2257.02 Q2556.83 2254.92 2556.83 2251.3 Q2556.83 2247.69 2554.49 2245.59 Q2552.15 2243.48 2548.15 2243.48 Q2546.27 2243.48 2544.4 2243.9 Q2542.55 2244.31 2540.6 2245.19 L2540.6 2227.83 Z" fill="#000000" fill-rule="evenodd" fill-opacity="1" /><path clip-path="url(#clip1900)" d="M 0 0 M132.2 2104.75 L144.677 2104.75 L144.677 2108.55 L132.2 2108.55 L132.2 2104.75 Z" fill="#000000" fill-rule="evenodd" fill-opacity="1" /><path clip-path="url(#clip1900)" d="M 0 0 M150.557 2115.7 L158.195 2115.7 L158.195 2089.33 L149.885 2091 L149.885 2086.74 L158.149 2085.07 L162.825 2085.07 L162.825 2115.7 L170.464 2115.7 L170.464 2119.63 L150.557 2119.63 L150.557 2115.7 Z" fill="#000000" fill-rule="evenodd" fill-opacity="1" /><path clip-path="url(#clip1900)" d="M 0 0 M185.533 2088.15 Q181.922 2088.15 180.093 2091.72 Q178.288 2095.26 178.288 2102.39 Q178.288 2109.5 180.093 2113.06 Q181.922 2116.6 185.533 2116.6 Q189.167 2116.6 190.973 2113.06 Q192.802 2109.5 192.802 2102.39 Q192.802 2095.26 190.973 2091.72 Q189.167 2088.15 185.533 2088.15 M185.533 2084.45 Q191.343 2084.45 194.399 2089.06 Q197.478 2093.64 197.478 2102.39 Q197.478 2111.12 194.399 2115.72 Q191.343 2120.31 185.533 2120.31 Q179.723 2120.31 176.644 2115.72 Q173.589 2111.12 173.589 2102.39 Q173.589 2093.64 176.644 2089.06 Q179.723 2084.45 185.533 2084.45 Z" fill="#000000" fill-rule="evenodd" fill-opacity="1" /><path clip-path="url(#clip1900)" d="M 0 0 M158.982 1592.65 L171.459 1592.65 L171.459 1596.45 L158.982 1596.45 L158.982 1592.65 Z" fill="#000000" fill-rule="evenodd" fill-opacity="1" /><path clip-path="url(#clip1900)" d="M 0 0 M176.575 1572.97 L194.931 1572.97 L194.931 1576.91 L180.857 1576.91 L180.857 1585.38 Q181.876 1585.03 182.894 1584.87 Q183.913 1584.69 184.931 1584.69 Q190.718 1584.69 194.098 1587.86 Q197.478 1591.03 197.478 1596.45 Q197.478 1602.02 194.005 1605.13 Q190.533 1608.2 184.214 1608.2 Q182.038 1608.2 179.769 1607.83 Q177.524 1607.46 175.117 1606.72 L175.117 1602.02 Q177.2 1603.16 179.422 1603.71 Q181.644 1604.27 184.121 1604.27 Q188.126 1604.27 190.464 1602.16 Q192.802 1600.06 192.802 1596.45 Q192.802 1592.83 190.464 1590.73 Q188.126 1588.62 184.121 1588.62 Q182.246 1588.62 180.371 1589.04 Q178.519 1589.45 176.575 1590.33 L176.575 1572.97 Z" fill="#000000" fill-rule="evenodd" fill-opacity="1" /><path clip-path="url(#clip1900)" d="M 0 0 M185.533 1063.95 Q181.922 1063.95 180.093 1067.52 Q178.288 1071.06 178.288 1078.19 Q178.288 1085.29 180.093 1088.86 Q181.922 1092.4 185.533 1092.4 Q189.167 1092.4 190.973 1088.86 Q192.802 1085.29 192.802 1078.19 Q192.802 1071.06 190.973 1067.52 Q189.167 1063.95 185.533 1063.95 M185.533 1060.25 Q191.343 1060.25 194.399 1064.85 Q197.478 1069.44 197.478 1078.19 Q197.478 1086.91 194.399 1091.52 Q191.343 1096.1 185.533 1096.1 Q179.723 1096.1 176.644 1091.52 Q173.589 1086.91 173.589 1078.19 Q173.589 1069.44 176.644 1064.85 Q179.723 1060.25 185.533 1060.25 Z" fill="#000000" fill-rule="evenodd" fill-opacity="1" /><path clip-path="url(#clip1900)" d="M 0 0 M176.575 548.77 L194.931 548.77 L194.931 552.706 L180.857 552.706 L180.857 561.178 Q181.876 560.831 182.894 560.669 Q183.913 560.483 184.931 560.483 Q190.718 560.483 194.098 563.655 Q197.478 566.826 197.478 572.243 Q197.478 577.821 194.005 580.923 Q190.533 584.002 184.214 584.002 Q182.038 584.002 179.769 583.631 Q177.524 583.261 175.117 582.52 L175.117 577.821 Q177.2 578.955 179.422 579.511 Q181.644 580.067 184.121 580.067 Q188.126 580.067 190.464 577.96 Q192.802 575.854 192.802 572.243 Q192.802 568.631 190.464 566.525 Q188.126 564.418 184.121 564.418 Q182.246 564.418 180.371 564.835 Q178.519 565.252 176.575 566.131 L176.575 548.77 Z" fill="#000000" fill-rule="evenodd" fill-opacity="1" /><path clip-path="url(#clip1900)" d="M 0 0 M598.592 12.096 L606.775 12.096 L606.775 36.8875 L636.509 36.8875 L636.509 12.096 L644.691 12.096 L644.691 72.576 L636.509 72.576 L636.509 43.7741 L606.775 43.7741 L606.775 72.576 L598.592 72.576 L598.592 12.096 Z" fill="#000000" fill-rule="evenodd" fill-opacity="1" /><path clip-path="url(#clip1900)" d="M 0 0 M670.091 32.4315 Q664.095 32.4315 660.611 37.1306 Q657.128 41.7891 657.128 49.9314 Q657.128 58.0738 660.571 62.7728 Q664.055 67.4314 670.091 67.4314 Q676.045 67.4314 679.529 62.7323 Q683.013 58.0333 683.013 49.9314 Q683.013 41.8701 679.529 37.1711 Q676.045 32.4315 670.091 32.4315 M670.091 26.1121 Q679.813 26.1121 685.362 32.4315 Q690.912 38.7509 690.912 49.9314 Q690.912 61.0714 685.362 67.4314 Q679.813 73.7508 670.091 73.7508 Q660.328 73.7508 654.778 67.4314 Q649.269 61.0714 649.269 49.9314 Q649.269 38.7509 654.778 32.4315 Q660.328 26.1121 670.091 26.1121 Z" fill="#000000" fill-rule="evenodd" fill-opacity="1" /><path clip-path="url(#clip1900)" d="M 0 0 M693.383 27.2059 L701.282 27.2059 L715.461 65.2844 L729.639 27.2059 L737.538 27.2059 L720.524 72.576 L710.397 72.576 L693.383 27.2059 Z" fill="#000000" fill-rule="evenodd" fill-opacity="1" /><path clip-path="url(#clip1900)" d="M 0 0 M784.164 48.0275 L784.164 51.6733 L749.893 51.6733 Q750.379 59.3701 754.511 63.421 Q758.684 67.4314 766.097 67.4314 Q770.391 67.4314 774.401 66.3781 Q778.452 65.3249 782.422 63.2184 L782.422 70.267 Q778.412 71.9684 774.199 72.8596 Q769.986 73.7508 765.651 73.7508 Q754.795 73.7508 748.435 67.4314 Q742.116 61.1119 742.116 50.3365 Q742.116 39.1965 748.111 32.6746 Q754.147 26.1121 764.355 26.1121 Q773.51 26.1121 778.817 32.0264 Q784.164 37.9003 784.164 48.0275 M776.71 45.84 Q776.629 39.7232 773.267 36.0774 Q769.945 32.4315 764.436 32.4315 Q758.198 32.4315 754.43 35.9558 Q750.704 39.4801 750.136 45.8805 L776.71 45.84 Z" fill="#000000" fill-rule="evenodd" fill-opacity="1" /><path clip-path="url(#clip1900)" d="M 0 0 M818.273 34.1734 Q817.017 33.4443 815.518 33.1202 Q814.06 32.7556 812.277 32.7556 Q805.958 32.7556 802.555 36.8875 Q799.193 40.9789 799.193 48.6757 L799.193 72.576 L791.699 72.576 L791.699 27.2059 L799.193 27.2059 L799.193 34.2544 Q801.542 30.1225 805.31 28.1376 Q809.077 26.1121 814.465 26.1121 Q815.234 26.1121 816.166 26.2337 Q817.098 26.3147 818.232 26.5172 L818.273 34.1734 Z" fill="#000000" fill-rule="evenodd" fill-opacity="1" /><path clip-path="url(#clip1900)" d="M 0 0 M826.091 27.2059 L833.545 27.2059 L833.545 72.576 L826.091 72.576 L826.091 27.2059 M826.091 9.54393 L833.545 9.54393 L833.545 18.9825 L826.091 18.9825 L826.091 9.54393 Z" fill="#000000" fill-rule="evenodd" fill-opacity="1" /><path clip-path="url(#clip1900)" d="M 0 0 M879.077 45.1919 L879.077 72.576 L871.623 72.576 L871.623 45.4349 Q871.623 38.994 869.111 35.7938 Q866.6 32.5936 861.577 32.5936 Q855.541 32.5936 852.057 36.4419 Q848.573 40.2903 848.573 46.9338 L848.573 72.576 L841.079 72.576 L841.079 27.2059 L848.573 27.2059 L848.573 34.2544 Q851.247 30.163 854.852 28.1376 Q858.498 26.1121 863.238 26.1121 Q871.056 26.1121 875.066 30.9732 Q879.077 35.7938 879.077 45.1919 Z" fill="#000000" fill-rule="evenodd" fill-opacity="1" /><path clip-path="url(#clip1900)" d="M 0 0 M916.75 49.3643 Q916.75 41.2625 913.388 36.8065 Q910.066 32.3505 904.03 32.3505 Q898.035 32.3505 894.673 36.8065 Q891.351 41.2625 891.351 49.3643 Q891.351 57.4256 894.673 61.8816 Q898.035 66.3376 904.03 66.3376 Q910.066 66.3376 913.388 61.8816 Q916.75 57.4256 916.75 49.3643 M924.204 66.9452 Q924.204 78.5308 919.059 84.1616 Q913.914 89.8329 903.301 89.8329 Q899.372 89.8329 895.888 89.2252 Q892.404 88.6581 889.123 87.4428 L889.123 80.1917 Q892.404 81.9741 895.604 82.8248 Q898.805 83.6755 902.126 83.6755 Q909.458 83.6755 913.104 79.8271 Q916.75 76.0193 916.75 68.282 L916.75 64.5957 Q914.441 68.6061 910.836 70.5911 Q907.23 72.576 902.207 72.576 Q893.862 72.576 888.758 66.2161 Q883.654 59.8562 883.654 49.3643 Q883.654 38.832 888.758 32.472 Q893.862 26.1121 902.207 26.1121 Q907.23 26.1121 910.836 28.0971 Q914.441 30.082 916.75 34.0924 L916.75 27.2059 L924.204 27.2059 L924.204 66.9452 Z" fill="#000000" fill-rule="evenodd" fill-opacity="1" /><path clip-path="url(#clip1900)" d="M 0 0 M954.059 27.2059 L961.513 27.2059 L970.83 62.6108 L980.106 27.2059 L988.897 27.2059 L998.214 62.6108 L1007.49 27.2059 L1014.94 27.2059 L1003.07 72.576 L994.284 72.576 L984.522 35.3887 L974.719 72.576 L965.928 72.576 L954.059 27.2059 Z" fill="#000000" fill-rule="evenodd" fill-opacity="1" /><path clip-path="url(#clip1900)" d="M 0 0 M1022.76 27.2059 L1030.22 27.2059 L1030.22 72.576 L1022.76 72.576 L1022.76 27.2059 M1022.76 9.54393 L1030.22 9.54393 L1030.22 18.9825 L1022.76 18.9825 L1022.76 9.54393 Z" fill="#000000" fill-rule="evenodd" fill-opacity="1" /><path clip-path="url(#clip1900)" d="M 0 0 M1045.41 14.324 L1045.41 27.2059 L1060.76 27.2059 L1060.76 32.9987 L1045.41 32.9987 L1045.41 57.6282 Q1045.41 63.1779 1046.91 64.7578 Q1048.44 66.3376 1053.1 66.3376 L1060.76 66.3376 L1060.76 72.576 L1053.1 72.576 Q1044.48 72.576 1041.19 69.3758 Q1037.91 66.1351 1037.91 57.6282 L1037.91 32.9987 L1032.44 32.9987 L1032.44 27.2059 L1037.91 27.2059 L1037.91 14.324 L1045.41 14.324 Z" fill="#000000" fill-rule="evenodd" fill-opacity="1" /><path clip-path="url(#clip1900)" d="M 0 0 M1106.29 45.1919 L1106.29 72.576 L1098.84 72.576 L1098.84 45.4349 Q1098.84 38.994 1096.33 35.7938 Q1093.82 32.5936 1088.79 32.5936 Q1082.76 32.5936 1079.27 36.4419 Q1075.79 40.2903 1075.79 46.9338 L1075.79 72.576 L1068.29 72.576 L1068.29 9.54393 L1075.79 9.54393 L1075.79 34.2544 Q1078.46 30.163 1082.07 28.1376 Q1085.71 26.1121 1090.45 26.1121 Q1098.27 26.1121 1102.28 30.9732 Q1106.29 35.7938 1106.29 45.1919 Z" fill="#000000" fill-rule="evenodd" fill-opacity="1" /><path clip-path="url(#clip1900)" d="M 0 0 M1160.05 39.075 Q1154.54 39.075 1151.3 42.8424 Q1148.1 46.6097 1148.1 53.1722 Q1148.1 59.6941 1151.3 63.502 Q1154.54 67.2693 1160.05 67.2693 Q1165.56 67.2693 1168.76 63.502 Q1172 59.6941 1172 53.1722 Q1172 46.6097 1168.76 42.8424 Q1165.56 39.075 1160.05 39.075 M1176.29 13.4328 L1176.29 20.8865 Q1173.21 19.4281 1170.05 18.6585 Q1166.93 17.8888 1163.86 17.8888 Q1155.75 17.8888 1151.46 23.3575 Q1147.21 28.8262 1146.6 39.8852 Q1148.99 36.3609 1152.59 34.4975 Q1156.2 32.5936 1160.53 32.5936 Q1169.65 32.5936 1174.91 38.1433 Q1180.22 43.6525 1180.22 53.1722 Q1180.22 62.4892 1174.71 68.12 Q1169.2 73.7508 1160.05 73.7508 Q1149.56 73.7508 1144.01 65.73 Q1138.46 57.6687 1138.46 42.3968 Q1138.46 28.0566 1145.26 19.5497 Q1152.07 11.0023 1163.53 11.0023 Q1166.61 11.0023 1169.73 11.6099 Q1172.89 12.2175 1176.29 13.4328 Z" fill="#000000" fill-rule="evenodd" fill-opacity="1" /><path clip-path="url(#clip1900)" d="M 0 0 M1239.28 17.6457 Q1230.37 17.6457 1225.1 24.2892 Q1219.88 30.9327 1219.88 42.3968 Q1219.88 53.8203 1225.1 60.4638 Q1230.37 67.1073 1239.28 67.1073 Q1248.2 67.1073 1253.38 60.4638 Q1258.61 53.8203 1258.61 42.3968 Q1258.61 30.9327 1253.38 24.2892 Q1248.2 17.6457 1239.28 17.6457 M1250.75 71.4823 L1261.52 83.2704 L1251.64 83.2704 L1242.69 73.5887 Q1241.35 73.6697 1240.62 73.7103 Q1239.93 73.7508 1239.28 73.7508 Q1226.52 73.7508 1218.87 65.2439 Q1211.25 56.6965 1211.25 42.3968 Q1211.25 28.0566 1218.87 19.5497 Q1226.52 11.0023 1239.28 11.0023 Q1252 11.0023 1259.62 19.5497 Q1267.23 28.0566 1267.23 42.3968 Q1267.23 52.9291 1262.98 60.4233 Q1258.77 67.9175 1250.75 71.4823 Z" fill="#000000" fill-rule="evenodd" fill-opacity="1" /><path clip-path="url(#clip1900)" d="M 0 0 M1274.28 54.671 L1274.28 27.2059 L1281.74 27.2059 L1281.74 54.3874 Q1281.74 60.8284 1284.25 64.0691 Q1286.76 67.2693 1291.78 67.2693 Q1297.82 67.2693 1301.3 63.421 Q1304.83 59.5726 1304.83 52.9291 L1304.83 27.2059 L1312.28 27.2059 L1312.28 72.576 L1304.83 72.576 L1304.83 65.6084 Q1302.11 69.7404 1298.51 71.7658 Q1294.94 73.7508 1290.2 73.7508 Q1282.38 73.7508 1278.33 68.8897 Q1274.28 64.0286 1274.28 54.671 M1293.04 26.1121 L1293.04 26.1121 Z" fill="#000000" fill-rule="evenodd" fill-opacity="1" /><path clip-path="url(#clip1900)" d="M 0 0 M1340.72 49.7694 Q1331.68 49.7694 1328.2 51.8354 Q1324.72 53.9013 1324.72 58.8839 Q1324.72 62.8538 1327.31 65.2034 Q1329.94 67.5124 1334.44 67.5124 Q1340.64 67.5124 1344.36 63.1374 Q1348.13 58.7219 1348.13 51.4303 L1348.13 49.7694 L1340.72 49.7694 M1355.58 46.6907 L1355.58 72.576 L1348.13 72.576 L1348.13 65.6895 Q1345.58 69.8214 1341.77 71.8063 Q1337.96 73.7508 1332.45 73.7508 Q1325.49 73.7508 1321.35 69.8619 Q1317.26 65.9325 1317.26 59.3701 Q1317.26 51.7138 1322.37 47.825 Q1327.51 43.9361 1337.68 43.9361 L1348.13 43.9361 L1348.13 43.2069 Q1348.13 38.0623 1344.73 35.2672 Q1341.37 32.4315 1335.25 32.4315 Q1331.36 32.4315 1327.67 33.3632 Q1323.99 34.295 1320.58 36.1584 L1320.58 29.2718 Q1324.68 27.692 1328.52 26.9223 Q1332.37 26.1121 1336.02 26.1121 Q1345.86 26.1121 1350.72 31.2163 Q1355.58 36.3204 1355.58 46.6907 Z" fill="#000000" fill-rule="evenodd" fill-opacity="1" /><path clip-path="url(#clip1900)" d="M 0 0 M1393.26 34.0924 L1393.26 9.54393 L1400.71 9.54393 L1400.71 72.576 L1393.26 72.576 L1393.26 65.7705 Q1390.91 69.8214 1387.3 71.8063 Q1383.74 73.7508 1378.72 73.7508 Q1370.49 73.7508 1365.31 67.1883 Q1360.16 60.6258 1360.16 49.9314 Q1360.16 39.2371 1365.31 32.6746 Q1370.49 26.1121 1378.72 26.1121 Q1383.74 26.1121 1387.3 28.0971 Q1390.91 30.0415 1393.26 34.0924 M1367.86 49.9314 Q1367.86 58.1548 1371.22 62.8538 Q1374.62 67.5124 1380.54 67.5124 Q1386.45 67.5124 1389.86 62.8538 Q1393.26 58.1548 1393.26 49.9314 Q1393.26 41.7081 1389.86 37.0496 Q1386.45 32.3505 1380.54 32.3505 Q1374.62 32.3505 1371.22 37.0496 Q1367.86 41.7081 1367.86 49.9314 Z" fill="#000000" fill-rule="evenodd" fill-opacity="1" /><path clip-path="url(#clip1900)" d="M 0 0 M1434.82 34.1734 Q1433.56 33.4443 1432.07 33.1202 Q1430.61 32.7556 1428.82 32.7556 Q1422.51 32.7556 1419.1 36.8875 Q1415.74 40.9789 1415.74 48.6757 L1415.74 72.576 L1408.25 72.576 L1408.25 27.2059 L1415.74 27.2059 L1415.74 34.2544 Q1418.09 30.1225 1421.86 28.1376 Q1425.62 26.1121 1431.01 26.1121 Q1431.78 26.1121 1432.71 26.2337 Q1433.65 26.3147 1434.78 26.5172 L1434.82 34.1734 Z" fill="#000000" fill-rule="evenodd" fill-opacity="1" /><path clip-path="url(#clip1900)" d="M 0 0 M1458.4 32.4315 Q1452.4 32.4315 1448.92 37.1306 Q1445.43 41.7891 1445.43 49.9314 Q1445.43 58.0738 1448.88 62.7728 Q1452.36 67.4314 1458.4 67.4314 Q1464.35 67.4314 1467.84 62.7323 Q1471.32 58.0333 1471.32 49.9314 Q1471.32 41.8701 1467.84 37.1711 Q1464.35 32.4315 1458.4 32.4315 M1458.4 26.1121 Q1468.12 26.1121 1473.67 32.4315 Q1479.22 38.7509 1479.22 49.9314 Q1479.22 61.0714 1473.67 67.4314 Q1468.12 73.7508 1458.4 73.7508 Q1448.63 73.7508 1443.08 67.4314 Q1437.57 61.0714 1437.57 49.9314 Q1437.57 38.7509 1443.08 32.4315 Q1448.63 26.1121 1458.4 26.1121 Z" fill="#000000" fill-rule="evenodd" fill-opacity="1" /><path clip-path="url(#clip1900)" d="M 0 0 M1494.41 14.324 L1494.41 27.2059 L1509.76 27.2059 L1509.76 32.9987 L1494.41 32.9987 L1494.41 57.6282 Q1494.41 63.1779 1495.91 64.7578 Q1497.45 66.3376 1502.11 66.3376 L1509.76 66.3376 L1509.76 72.576 L1502.11 72.576 Q1493.48 72.576 1490.2 69.3758 Q1486.91 66.1351 1486.91 57.6282 L1486.91 32.9987 L1481.45 32.9987 L1481.45 27.2059 L1486.91 27.2059 L1486.91 14.324 L1494.41 14.324 Z" fill="#000000" fill-rule="evenodd" fill-opacity="1" /><path clip-path="url(#clip1900)" d="M 0 0 M1535.16 32.4315 Q1529.17 32.4315 1525.68 37.1306 Q1522.2 41.7891 1522.2 49.9314 Q1522.2 58.0738 1525.64 62.7728 Q1529.13 67.4314 1535.16 67.4314 Q1541.12 67.4314 1544.6 62.7323 Q1548.08 58.0333 1548.08 49.9314 Q1548.08 41.8701 1544.6 37.1711 Q1541.12 32.4315 1535.16 32.4315 M1535.16 26.1121 Q1544.88 26.1121 1550.43 32.4315 Q1555.98 38.7509 1555.98 49.9314 Q1555.98 61.0714 1550.43 67.4314 Q1544.88 73.7508 1535.16 73.7508 Q1525.4 73.7508 1519.85 67.4314 Q1514.34 61.0714 1514.34 49.9314 Q1514.34 38.7509 1519.85 32.4315 Q1525.4 26.1121 1535.16 26.1121 Z" fill="#000000" fill-rule="evenodd" fill-opacity="1" /><path clip-path="url(#clip1900)" d="M 0 0 M1590.09 34.1734 Q1588.84 33.4443 1587.34 33.1202 Q1585.88 32.7556 1584.1 32.7556 Q1577.78 32.7556 1574.37 36.8875 Q1571.01 40.9789 1571.01 48.6757 L1571.01 72.576 L1563.52 72.576 L1563.52 27.2059 L1571.01 27.2059 L1571.01 34.2544 Q1573.36 30.1225 1577.13 28.1376 Q1580.9 26.1121 1586.28 26.1121 Q1587.05 26.1121 1587.98 26.2337 Q1588.92 26.3147 1590.05 26.5172 L1590.09 34.1734 Z" fill="#000000" fill-rule="evenodd" fill-opacity="1" /><path clip-path="url(#clip1900)" d="M 0 0 M1626.83 28.5427 L1626.83 35.5912 Q1623.67 33.9709 1620.27 33.1607 Q1616.87 32.3505 1613.22 32.3505 Q1607.67 32.3505 1604.88 34.0519 Q1602.12 35.7533 1602.12 39.156 Q1602.12 41.7486 1604.11 43.2475 Q1606.09 44.7058 1612.09 46.0426 L1614.64 46.6097 Q1622.58 48.3111 1625.9 51.4303 Q1629.26 54.509 1629.26 60.0587 Q1629.26 66.3781 1624.24 70.0644 Q1619.26 73.7508 1610.51 73.7508 Q1606.86 73.7508 1602.89 73.0216 Q1598.96 72.3329 1594.59 70.9151 L1594.59 63.2184 Q1598.72 65.3654 1602.73 66.4591 Q1606.74 67.5124 1610.67 67.5124 Q1615.94 67.5124 1618.77 65.73 Q1621.61 63.9071 1621.61 60.6258 Q1621.61 57.5877 1619.54 55.9673 Q1617.52 54.3469 1610.59 52.8481 L1608 52.2405 Q1601.07 50.7821 1597.99 47.7845 Q1594.91 44.7463 1594.91 39.4801 Q1594.91 33.0797 1599.45 29.5959 Q1603.99 26.1121 1612.33 26.1121 Q1616.46 26.1121 1620.11 26.7198 Q1623.75 27.3274 1626.83 28.5427 Z" fill="#000000" fill-rule="evenodd" fill-opacity="1" /><path clip-path="url(#clip1900)" d="M 0 0 M1659.69 46.5287 L1681.52 46.5287 L1681.52 53.1722 L1659.69 53.1722 L1659.69 46.5287 Z" fill="#000000" fill-rule="evenodd" fill-opacity="1" /><path clip-path="url(#clip1900)" d="M 0 0 M1736.25 20.1573 L1725.15 50.2555 L1747.39 50.2555 L1736.25 20.1573 M1731.63 12.096 L1740.91 12.096 L1763.96 72.576 L1755.45 72.576 L1749.94 57.061 L1722.68 57.061 L1717.17 72.576 L1708.54 72.576 L1731.63 12.096 Z" fill="#000000" fill-rule="evenodd" fill-opacity="1" /><path clip-path="url(#clip1900)" d="M 0 0 M1801.63 49.3643 Q1801.63 41.2625 1798.27 36.8065 Q1794.95 32.3505 1788.91 32.3505 Q1782.91 32.3505 1779.55 36.8065 Q1776.23 41.2625 1776.23 49.3643 Q1776.23 57.4256 1779.55 61.8816 Q1782.91 66.3376 1788.91 66.3376 Q1794.95 66.3376 1798.27 61.8816 Q1801.63 57.4256 1801.63 49.3643 M1809.08 66.9452 Q1809.08 78.5308 1803.94 84.1616 Q1798.79 89.8329 1788.18 89.8329 Q1784.25 89.8329 1780.77 89.2252 Q1777.28 88.6581 1774 87.4428 L1774 80.1917 Q1777.28 81.9741 1780.48 82.8248 Q1783.68 83.6755 1787.01 83.6755 Q1794.34 83.6755 1797.98 79.8271 Q1801.63 76.0193 1801.63 68.282 L1801.63 64.5957 Q1799.32 68.6061 1795.72 70.5911 Q1792.11 72.576 1787.09 72.576 Q1778.74 72.576 1773.64 66.2161 Q1768.53 59.8562 1768.53 49.3643 Q1768.53 38.832 1773.64 32.472 Q1778.74 26.1121 1787.09 26.1121 Q1792.11 26.1121 1795.72 28.0971 Q1799.32 30.082 1801.63 34.0924 L1801.63 27.2059 L1809.08 27.2059 L1809.08 66.9452 Z" fill="#000000" fill-rule="evenodd" fill-opacity="1" /><path clip-path="url(#clip1900)" d="M 0 0 M1855.71 48.0275 L1855.71 51.6733 L1821.44 51.6733 Q1821.92 59.3701 1826.06 63.421 Q1830.23 67.4314 1837.64 67.4314 Q1841.94 67.4314 1845.95 66.3781 Q1850 65.3249 1853.97 63.2184 L1853.97 70.267 Q1849.96 71.9684 1845.74 72.8596 Q1841.53 73.7508 1837.2 73.7508 Q1826.34 73.7508 1819.98 67.4314 Q1813.66 61.1119 1813.66 50.3365 Q1813.66 39.1965 1819.66 32.6746 Q1825.69 26.1121 1835.9 26.1121 Q1845.06 26.1121 1850.36 32.0264 Q1855.71 37.9003 1855.71 48.0275 M1848.26 45.84 Q1848.17 39.7232 1844.81 36.0774 Q1841.49 32.4315 1835.98 32.4315 Q1829.74 32.4315 1825.98 35.9558 Q1822.25 39.4801 1821.68 45.8805 L1848.26 45.84 Z" fill="#000000" fill-rule="evenodd" fill-opacity="1" /><path clip-path="url(#clip1900)" d="M 0 0 M1901.24 45.1919 L1901.24 72.576 L1893.79 72.576 L1893.79 45.4349 Q1893.79 38.994 1891.28 35.7938 Q1888.76 32.5936 1883.74 32.5936 Q1877.71 32.5936 1874.22 36.4419 Q1870.74 40.2903 1870.74 46.9338 L1870.74 72.576 L1863.24 72.576 L1863.24 27.2059 L1870.74 27.2059 L1870.74 34.2544 Q1873.41 30.163 1877.02 28.1376 Q1880.66 26.1121 1885.4 26.1121 Q1893.22 26.1121 1897.23 30.9732 Q1901.24 35.7938 1901.24 45.1919 Z" fill="#000000" fill-rule="evenodd" fill-opacity="1" /><path clip-path="url(#clip1900)" d="M 0 0 M1916.43 14.324 L1916.43 27.2059 L1931.79 27.2059 L1931.79 32.9987 L1916.43 32.9987 L1916.43 57.6282 Q1916.43 63.1779 1917.93 64.7578 Q1919.47 66.3376 1924.13 66.3376 L1931.79 66.3376 L1931.79 72.576 L1924.13 72.576 Q1915.5 72.576 1912.22 69.3758 Q1908.94 66.1351 1908.94 57.6282 L1908.94 32.9987 L1903.47 32.9987 L1903.47 27.2059 L1908.94 27.2059 L1908.94 14.324 L1916.43 14.324 Z" fill="#000000" fill-rule="evenodd" fill-opacity="1" /><path clip-path="url(#clip1900)" d="M 0 0 M1981.89 72.576 L1958.8 12.096 L1967.35 12.096 L1986.51 63.0159 L2005.71 12.096 L2014.22 12.096 L1991.17 72.576 L1981.89 72.576 Z" fill="#000000" fill-rule="evenodd" fill-opacity="1" /><path clip-path="url(#clip1900)" d="M 0 0 M2054.41 48.0275 L2054.41 51.6733 L2020.14 51.6733 Q2020.62 59.3701 2024.75 63.421 Q2028.93 67.4314 2036.34 67.4314 Q2040.63 67.4314 2044.64 66.3781 Q2048.69 65.3249 2052.66 63.2184 L2052.66 70.267 Q2048.65 71.9684 2044.44 72.8596 Q2040.23 73.7508 2035.89 73.7508 Q2025.04 73.7508 2018.68 67.4314 Q2012.36 61.1119 2012.36 50.3365 Q2012.36 39.1965 2018.35 32.6746 Q2024.39 26.1121 2034.6 26.1121 Q2043.75 26.1121 2049.06 32.0264 Q2054.41 37.9003 2054.41 48.0275 M2046.95 45.84 Q2046.87 39.7232 2043.51 36.0774 Q2040.19 32.4315 2034.68 32.4315 Q2028.44 32.4315 2024.67 35.9558 Q2020.95 39.4801 2020.38 45.8805 L2046.95 45.84 Z" fill="#000000" fill-rule="evenodd" fill-opacity="1" /><path clip-path="url(#clip1900)" d="M 0 0 M2062.22 9.54393 L2069.68 9.54393 L2069.68 72.576 L2062.22 72.576 L2062.22 9.54393 Z" fill="#000000" fill-rule="evenodd" fill-opacity="1" /><path clip-path="url(#clip1900)" d="M 0 0 M2095.08 32.4315 Q2089.08 32.4315 2085.6 37.1306 Q2082.11 41.7891 2082.11 49.9314 Q2082.11 58.0738 2085.56 62.7728 Q2089.04 67.4314 2095.08 67.4314 Q2101.03 67.4314 2104.52 62.7323 Q2108 58.0333 2108 49.9314 Q2108 41.8701 2104.52 37.1711 Q2101.03 32.4315 2095.08 32.4315 M2095.08 26.1121 Q2104.8 26.1121 2110.35 32.4315 Q2115.9 38.7509 2115.9 49.9314 Q2115.9 61.0714 2110.35 67.4314 Q2104.8 73.7508 2095.08 73.7508 Q2085.31 73.7508 2079.76 67.4314 Q2074.26 61.0714 2074.26 49.9314 Q2074.26 38.7509 2079.76 32.4315 Q2085.31 26.1121 2095.08 26.1121 Z" fill="#000000" fill-rule="evenodd" fill-opacity="1" /><path clip-path="url(#clip1900)" d="M 0 0 M2156.37 28.9478 L2156.37 35.9153 Q2153.21 34.1734 2150.01 33.3227 Q2146.85 32.4315 2143.61 32.4315 Q2136.36 32.4315 2132.35 37.0496 Q2128.34 41.6271 2128.34 49.9314 Q2128.34 58.2358 2132.35 62.8538 Q2136.36 67.4314 2143.61 67.4314 Q2146.85 67.4314 2150.01 66.5807 Q2153.21 65.6895 2156.37 63.9476 L2156.37 70.8341 Q2153.25 72.2924 2149.89 73.0216 Q2146.56 73.7508 2142.8 73.7508 Q2132.55 73.7508 2126.51 67.3098 Q2120.48 60.8689 2120.48 49.9314 Q2120.48 38.832 2126.55 32.472 Q2132.67 26.1121 2143.28 26.1121 Q2146.73 26.1121 2150.01 26.8413 Q2153.29 27.5299 2156.37 28.9478 Z" fill="#000000" fill-rule="evenodd" fill-opacity="1" /><path clip-path="url(#clip1900)" d="M 0 0 M2164.19 27.2059 L2171.64 27.2059 L2171.64 72.576 L2164.19 72.576 L2164.19 27.2059 M2164.19 9.54393 L2171.64 9.54393 L2171.64 18.9825 L2164.19 18.9825 L2164.19 9.54393 Z" fill="#000000" fill-rule="evenodd" fill-opacity="1" /><path clip-path="url(#clip1900)" d="M 0 0 M2186.83 14.324 L2186.83 27.2059 L2202.18 27.2059 L2202.18 32.9987 L2186.83 32.9987 L2186.83 57.6282 Q2186.83 63.1779 2188.33 64.7578 Q2189.87 66.3376 2194.53 66.3376 L2202.18 66.3376 L2202.18 72.576 L2194.53 72.576 Q2185.9 72.576 2182.62 69.3758 Q2179.34 66.1351 2179.34 57.6282 L2179.34 32.9987 L2173.87 32.9987 L2173.87 27.2059 L2179.34 27.2059 L2179.34 14.324 L2186.83 14.324 Z" fill="#000000" fill-rule="evenodd" fill-opacity="1" /><path clip-path="url(#clip1900)" d="M 0 0 M2228.88 76.7889 Q2225.72 84.8907 2222.72 87.3618 Q2219.72 89.8329 2214.7 89.8329 L2208.75 89.8329 L2208.75 83.5945 L2213.12 83.5945 Q2216.2 83.5945 2217.9 82.1361 Q2219.6 80.6778 2221.67 75.2496 L2223 71.8468 L2204.65 27.2059 L2212.55 27.2059 L2226.73 62.6918 L2240.91 27.2059 L2248.81 27.2059 L2228.88 76.7889 Z" fill="#000000" fill-rule="evenodd" fill-opacity="1" /><path clip-path="url(#clip1900)" d="M 0 0 M1305.54 2298.26 L1345.74 2298.26 L1345.74 2303.67 L1328.87 2303.67 L1328.87 2345.78 L1322.41 2345.78 L1322.41 2303.67 L1305.54 2303.67 L1305.54 2298.26 Z" fill="#000000" fill-rule="evenodd" fill-opacity="1" /><path clip-path="url(#clip1900)" d="M 0 0 M1349.87 2310.14 L1355.73 2310.14 L1355.73 2345.78 L1349.87 2345.78 L1349.87 2310.14 M1349.87 2296.26 L1355.73 2296.26 L1355.73 2303.67 L1349.87 2303.67 L1349.87 2296.26 Z" fill="#000000" fill-rule="evenodd" fill-opacity="1" /><path clip-path="url(#clip1900)" d="M 0 0 M1389.63 2316.98 Q1391.82 2313.03 1394.88 2311.15 Q1397.94 2309.28 1402.07 2309.28 Q1407.64 2309.28 1410.67 2313.19 Q1413.69 2317.07 1413.69 2324.27 L1413.69 2345.78 L1407.8 2345.78 L1407.8 2324.46 Q1407.8 2319.33 1405.99 2316.85 Q1404.17 2314.37 1400.45 2314.37 Q1395.9 2314.37 1393.26 2317.39 Q1390.61 2320.42 1390.61 2325.64 L1390.61 2345.78 L1384.73 2345.78 L1384.73 2324.46 Q1384.73 2319.3 1382.91 2316.85 Q1381.1 2314.37 1377.31 2314.37 Q1372.82 2314.37 1370.18 2317.42 Q1367.54 2320.45 1367.54 2325.64 L1367.54 2345.78 L1361.65 2345.78 L1361.65 2310.14 L1367.54 2310.14 L1367.54 2315.67 Q1369.54 2312.4 1372.35 2310.84 Q1375.15 2309.28 1379 2309.28 Q1382.88 2309.28 1385.59 2311.25 Q1388.32 2313.22 1389.63 2316.98 Z" fill="#000000" fill-rule="evenodd" fill-opacity="1" /><path clip-path="url(#clip1900)" d="M 0 0 M1450.33 2326.5 L1450.33 2329.36 L1423.4 2329.36 Q1423.78 2335.41 1427.03 2338.59 Q1430.3 2341.74 1436.13 2341.74 Q1439.5 2341.74 1442.65 2340.91 Q1445.84 2340.09 1448.96 2338.43 L1448.96 2343.97 Q1445.81 2345.31 1442.5 2346.01 Q1439.19 2346.71 1435.78 2346.71 Q1427.25 2346.71 1422.25 2341.74 Q1417.29 2336.78 1417.29 2328.31 Q1417.29 2319.56 1422 2314.43 Q1426.74 2309.28 1434.76 2309.28 Q1441.95 2309.28 1446.12 2313.92 Q1450.33 2318.54 1450.33 2326.5 M1444.47 2324.78 Q1444.4 2319.97 1441.76 2317.11 Q1439.15 2314.24 1434.82 2314.24 Q1429.92 2314.24 1426.96 2317.01 Q1424.03 2319.78 1423.59 2324.81 L1444.47 2324.78 Z" fill="#000000" fill-rule="evenodd" fill-opacity="1" /><path clip-path="url(#clip1900)" d="M 0 0 M1491.26 2296.32 Q1486.99 2303.64 1484.92 2310.8 Q1482.85 2317.97 1482.85 2325.32 Q1482.85 2332.67 1484.92 2339.9 Q1487.02 2347.09 1491.26 2354.38 L1486.16 2354.38 Q1481.39 2346.9 1479 2339.67 Q1476.65 2332.45 1476.65 2325.32 Q1476.65 2318.22 1479 2311.03 Q1481.36 2303.83 1486.16 2296.32 L1491.26 2296.32 Z" fill="#000000" fill-rule="evenodd" fill-opacity="1" /><path clip-path="url(#clip1900)" d="M 0 0 M1520.13 2311.19 L1520.13 2316.72 Q1517.64 2315.45 1514.97 2314.81 Q1512.3 2314.18 1509.43 2314.18 Q1505.07 2314.18 1502.87 2315.51 Q1500.71 2316.85 1500.71 2319.53 Q1500.71 2321.56 1502.27 2322.74 Q1503.83 2323.89 1508.54 2324.94 L1510.54 2325.38 Q1516.78 2326.72 1519.39 2329.17 Q1522.03 2331.59 1522.03 2335.95 Q1522.03 2340.91 1518.09 2343.81 Q1514.17 2346.71 1507.3 2346.71 Q1504.43 2346.71 1501.31 2346.13 Q1498.23 2345.59 1494.79 2344.48 L1494.79 2338.43 Q1498.04 2340.12 1501.19 2340.98 Q1504.34 2341.81 1507.43 2341.81 Q1511.56 2341.81 1513.79 2340.4 Q1516.02 2338.97 1516.02 2336.39 Q1516.02 2334.01 1514.4 2332.73 Q1512.8 2331.46 1507.36 2330.28 L1505.32 2329.81 Q1499.88 2328.66 1497.46 2326.3 Q1495.04 2323.92 1495.04 2319.78 Q1495.04 2314.75 1498.61 2312.01 Q1502.17 2309.28 1508.73 2309.28 Q1511.98 2309.28 1514.84 2309.75 Q1517.71 2310.23 1520.13 2311.19 Z" fill="#000000" fill-rule="evenodd" fill-opacity="1" /><path clip-path="url(#clip1900)" d="M 0 0 M1527.25 2296.32 L1532.35 2296.32 Q1537.12 2303.83 1539.48 2311.03 Q1541.86 2318.22 1541.86 2325.32 Q1541.86 2332.45 1539.48 2339.67 Q1537.12 2346.9 1532.35 2354.38 L1527.25 2354.38 Q1531.49 2347.09 1533.56 2339.9 Q1535.66 2332.67 1535.66 2325.32 Q1535.66 2317.97 1533.56 2310.8 Q1531.49 2303.64 1527.25 2296.32 Z" fill="#000000" fill-rule="evenodd" fill-opacity="1" /><path clip-path="url(#clip1900)" d="M 0 0 M42.7847 1277.13 Q42.7847 1284.13 48.0045 1288.27 Q53.2244 1292.38 62.2319 1292.38 Q71.2075 1292.38 76.4274 1288.27 Q81.6473 1284.13 81.6473 1277.13 Q81.6473 1270.13 76.4274 1266.06 Q71.2075 1261.95 62.2319 1261.95 Q53.2244 1261.95 48.0045 1266.06 Q42.7847 1270.13 42.7847 1277.13 M85.0848 1268.12 L94.3469 1259.66 L94.3469 1267.42 L86.7399 1274.46 Q86.8035 1275.51 86.8354 1276.08 Q86.8672 1276.62 86.8672 1277.13 Q86.8672 1287.16 80.1832 1293.17 Q73.4674 1299.16 62.2319 1299.16 Q50.9646 1299.16 44.2806 1293.17 Q37.5648 1287.16 37.5648 1277.13 Q37.5648 1267.14 44.2806 1261.15 Q50.9646 1255.17 62.2319 1255.17 Q70.5073 1255.17 76.3956 1258.51 Q82.2839 1261.82 85.0848 1268.12 Z" fill="#000000" fill-rule="evenodd" fill-opacity="1" /><path clip-path="url(#clip1900)" d="M 0 0 M36.419 1274.46 L36.419 1268.6 L43.835 1268.6 L43.835 1274.46 L36.419 1274.46 M49.4368 1271.47 L49.4368 1271.47 Z" fill="#000000" fill-rule="evenodd" fill-opacity="1" /><path clip-path="url(#clip1900)" d="M 0 0 M82.3157 1260.07 L82.3157 1246.58 L85.9442 1246.58 L85.9442 1265.61 L82.443 1265.61 Q81.4563 1264.53 79.6739 1262.52 Q69.9662 1251.57 66.9744 1251.57 Q64.8737 1251.57 63.6005 1253.23 Q62.2956 1254.88 62.2956 1257.59 Q62.2956 1259.24 62.8685 1261.19 Q63.4096 1263.13 64.5236 1265.42 L60.6086 1265.42 Q59.7174 1262.97 59.2718 1260.87 Q58.8262 1258.74 58.8262 1256.92 Q58.8262 1252.31 60.9269 1249.54 Q63.0276 1246.77 66.4651 1246.77 Q70.8893 1246.77 79.9286 1257.3 Q81.4563 1259.09 82.3157 1260.07 Z" fill="#000000" fill-rule="evenodd" fill-opacity="1" /><path clip-path="url(#clip1900)" d="M 0 0 M36.4826 1205.65 Q43.8032 1209.91 50.9646 1211.98 Q58.126 1214.05 65.4784 1214.05 Q72.8308 1214.05 80.0559 1211.98 Q87.2491 1209.88 94.5379 1205.65 L94.5379 1210.74 Q87.0582 1215.51 79.8331 1217.9 Q72.608 1220.25 65.4784 1220.25 Q58.3806 1220.25 51.1874 1217.9 Q43.9942 1215.54 36.4826 1210.74 L36.4826 1205.65 Z" fill="#000000" fill-rule="evenodd" fill-opacity="1" /><path clip-path="url(#clip1900)" d="M 0 0 M55.7707 1178.85 Q55.1978 1179.83 54.9432 1181.01 Q54.6567 1182.16 54.6567 1183.56 Q54.6567 1188.52 57.9032 1191.19 Q61.1179 1193.84 67.1653 1193.84 L85.9442 1193.84 L85.9442 1199.72 L50.2962 1199.72 L50.2962 1193.84 L55.8344 1193.84 Q52.5879 1191.99 51.0283 1189.03 Q49.4368 1186.07 49.4368 1181.84 Q49.4368 1181.23 49.5323 1180.5 Q49.596 1179.77 49.7551 1178.88 L55.7707 1178.85 Z" fill="#000000" fill-rule="evenodd" fill-opacity="1" /><path clip-path="url(#clip1900)" d="M 0 0 M68.0247 1156.5 Q68.0247 1163.6 69.6479 1166.34 Q71.2712 1169.07 75.1861 1169.07 Q78.3053 1169.07 80.1514 1167.04 Q81.9656 1164.97 81.9656 1161.44 Q81.9656 1156.57 78.5281 1153.64 Q75.0588 1150.68 69.3297 1150.68 L68.0247 1150.68 L68.0247 1156.5 M65.6057 1144.82 L85.9442 1144.82 L85.9442 1150.68 L80.5333 1150.68 Q83.7798 1152.68 85.3394 1155.67 Q86.8672 1158.67 86.8672 1162.99 Q86.8672 1168.47 83.8116 1171.72 Q80.7243 1174.93 75.5681 1174.93 Q69.5525 1174.93 66.4969 1170.92 Q63.4414 1166.88 63.4414 1158.89 L63.4414 1150.68 L62.8685 1150.68 Q58.8262 1150.68 56.6301 1153.35 Q54.4021 1155.99 54.4021 1160.8 Q54.4021 1163.85 55.1341 1166.75 Q55.8662 1169.65 57.3303 1172.32 L51.9195 1172.32 Q50.6781 1169.11 50.0734 1166.08 Q49.4368 1163.06 49.4368 1160.19 Q49.4368 1152.46 53.4472 1148.64 Q57.4576 1144.82 65.6057 1144.82 Z" fill="#000000" fill-rule="evenodd" fill-opacity="1" /><path clip-path="url(#clip1900)" d="M 0 0 M55.7071 1115.22 L36.419 1115.22 L36.419 1109.36 L85.9442 1109.36 L85.9442 1115.22 L80.597 1115.22 Q83.7798 1117.07 85.3394 1119.9 Q86.8672 1122.7 86.8672 1126.65 Q86.8672 1133.11 81.711 1137.18 Q76.5547 1141.22 68.152 1141.22 Q59.7493 1141.22 54.5931 1137.18 Q49.4368 1133.11 49.4368 1126.65 Q49.4368 1122.7 50.9964 1119.9 Q52.5242 1117.07 55.7071 1115.22 M68.152 1135.18 Q74.6132 1135.18 78.3053 1132.53 Q81.9656 1129.86 81.9656 1125.21 Q81.9656 1120.57 78.3053 1117.89 Q74.6132 1115.22 68.152 1115.22 Q61.6908 1115.22 58.0305 1117.89 Q54.3384 1120.57 54.3384 1125.21 Q54.3384 1129.86 58.0305 1132.53 Q61.6908 1135.18 68.152 1135.18 Z" fill="#000000" fill-rule="evenodd" fill-opacity="1" /><path clip-path="url(#clip1900)" d="M 0 0 M38.4242 1092.81 L38.4242 1087.4 L91.9916 1103.95 L91.9916 1109.36 L38.4242 1092.81 Z" fill="#000000" fill-rule="evenodd" fill-opacity="1" /><path clip-path="url(#clip1900)" d="M 0 0 M51.3465 1058.53 L56.8847 1058.53 Q55.6116 1061.02 54.975 1063.69 Q54.3384 1066.36 54.3384 1069.23 Q54.3384 1073.59 55.6752 1075.78 Q57.012 1077.95 59.6856 1077.95 Q61.7226 1077.95 62.9003 1076.39 Q64.0461 1074.83 65.0965 1070.12 L65.5421 1068.11 Q66.8789 1061.88 69.3297 1059.27 Q71.7486 1056.62 76.1091 1056.62 Q81.0744 1056.62 83.9708 1060.57 Q86.8672 1064.49 86.8672 1071.36 Q86.8672 1074.23 86.2943 1077.34 Q85.7532 1080.43 84.6392 1083.87 L78.5918 1083.87 Q80.2787 1080.62 81.138 1077.47 Q81.9656 1074.32 81.9656 1071.23 Q81.9656 1067.1 80.5651 1064.87 Q79.1329 1062.64 76.5547 1062.64 Q74.1676 1062.64 72.8945 1064.26 Q71.6213 1065.85 70.4437 1071.3 L69.9662 1073.33 Q68.8204 1078.78 66.4651 1081.2 Q64.078 1083.61 59.9402 1083.61 Q54.9113 1083.61 52.1741 1080.05 Q49.4368 1076.48 49.4368 1069.93 Q49.4368 1066.68 49.9143 1063.82 Q50.3917 1060.95 51.3465 1058.53 Z" fill="#000000" fill-rule="evenodd" fill-opacity="1" /><path clip-path="url(#clip1900)" d="M 0 0 M36.4826 1051.4 L36.4826 1046.31 Q43.9942 1041.54 51.1874 1039.18 Q58.3806 1036.79 65.4784 1036.79 Q72.608 1036.79 79.8331 1039.18 Q87.0582 1041.54 94.5379 1046.31 L94.5379 1051.4 Q87.2491 1047.17 80.0559 1045.1 Q72.8308 1043 65.4784 1043 Q58.126 1043 50.9646 1045.1 Q43.8032 1047.17 36.4826 1051.4 Z" fill="#000000" fill-rule="evenodd" fill-opacity="1" /><polyline clip-path="url(#clip1902)" style="stroke:#009af9; stroke-width:16; stroke-opacity:1; fill:none" points="
  297.075,1078.15 308.341,733.575 319.608,683.422 330.874,686.696 342.14,748.277 353.406,833.093 364.673,913.593 375.939,983.462 387.205,1038.42 398.471,1081.44 
  409.738,1113.16 421.004,1137.14 432.27,1154.46 443.536,1167.49 454.803,1176.82 466.069,1183.77 477.335,1188.59 488.601,1191.99 499.868,1194.11 511.134,1195.3 
  522.4,1195.69 533.666,1195.37 544.933,1194.58 556.199,1193.15 567.465,1191.46 578.731,1189.17 589.998,1186.77 601.264,1183.75 612.53,1180.78 623.796,1177.17 
  635.063,1173.76 646.329,1169.67 657.595,1165.94 668.861,1161.51 680.128,1157.59 691.394,1152.94 702.66,1148.96 713.926,1144.2 725.193,1140.27 736.459,1135.51 
  747.725,1131.71 758.992,1127.03 770.258,1123.45 781.524,1118.9 792.79,1115.59 804.057,1111.19 815.323,1108.17 826.589,1103.95 837.855,1101.23 849.122,1097.16 
  860.388,1094.73 871.654,1090.77 882.92,1088.63 894.187,1084.72 905.453,1082.83 916.719,1078.9 927.985,1077.23 939.252,1073.17 950.518,1071.7 961.784,1067.39 
  973.05,1066.08 984.317,1061.33 995.583,1060.08 1006.85,1054.6 1018.12,1053.08 1029.38,1046.2 1040.65,1043.4 1051.91,1073.62 1063.18,1031.85 1074.45,1033.48 
  1085.71,1033.78 1096.98,1036.1 1108.25,1036.87 1119.51,1039.3 1130.78,1040.29 1142.04,1042.57 1153.31,1043.57 1164.58,1045.56 1175.84,1046.48 1187.11,1048.15 
  1198.38,1049 1209.64,1050.4 1220.91,1051.18 1232.17,1052.37 1243.44,1053.09 1254.71,1054.11 1265.97,1054.77 1277.24,1055.63 1288.51,1056.24 1299.77,1056.96 
  1311.04,1057.5 1322.3,1058.12 1333.57,1058.6 1344.84,1059.13 1356.1,1059.56 1367.37,1060.01 1378.64,1060.4 1389.9,1060.81 1401.17,1061.18 1412.43,1061.56 
  1423.7,1061.92 1434.97,1062.29 1446.23,1062.66 1457.5,1063.05 1468.77,1063.45 1480.03,1063.87 1491.3,1064.31 1502.56,1064.79 1513.83,1065.28 1525.1,1065.82 
  1536.36,1066.4 1547.63,1067.02 1558.9,1067.67 1570.16,1068.39 1581.43,1069.15 1592.69,1069.98 1603.96,1070.86 1615.23,1071.82 1626.49,1072.85 1637.76,1073.98 
  1649.03,1075.19 1660.29,1076.51 1671.56,1077.92 1682.82,1079.46 1694.09,1081.08 1705.36,1082.77 1716.62,1084.48 1727.89,1086.16 1739.16,1087.75 1750.42,1089.21 
  1761.69,1090.48 1772.95,1091.54 1784.22,1092.36 1795.49,1092.96 1806.75,1093.33 1818.02,1093.5 1829.29,1093.5 1840.55,1093.35 1851.82,1093.07 1863.08,1092.68 
  1874.35,1092.21 1885.62,1091.66 1896.88,1091.05 1908.15,1090.38 1919.42,1089.67 1930.68,1088.92 1941.95,1088.13 1953.21,1087.32 1964.48,1086.49 1975.75,1085.64 
  1987.01,1084.77 1998.28,1083.9 2009.55,1083.02 2020.81,1082.14 2032.08,1081.27 2043.34,1080.41 2054.61,1079.57 2065.88,1078.75 2077.14,1077.96 2088.41,1077.19 
  2099.68,1076.47 2110.94,1075.78 2122.21,1075.14 2133.47,1074.55 2144.74,1074.01 2156.01,1073.52 2167.27,1073.1 2178.54,1072.72 2189.81,1072.42 2201.07,1072.16 
  2212.34,1071.98 2223.6,1071.85 2234.87,1071.79 2246.14,1071.77 2257.4,1071.82 2268.67,1071.91 2279.94,1072.07 2291.2,1072.26 2302.47,1072.52 2313.73,1072.8 
  2325,1073.13 2336.27,1073.49 2347.53,1073.89 2358.8,1074.31 2370.07,1074.76 2381.33,1075.22 2392.6,1075.69 2403.86,1076.17 2415.13,1076.65 2426.4,1077.12 
  2437.66,1077.56 2448.93,1077.98 2460.2,1078.34 2471.46,1078.65 2482.73,1078.84 2493.99,1078.92 2505.26,1078.8 2516.53,1078.35 2527.79,1077.65 2539.06,1076.06 
  2550.33,1078.15 
  "/>
<polyline clip-path="url(#clip1902)" style="stroke:#e26f46; stroke-width:16; stroke-opacity:1; fill:none" points="
  297.075,1078.15 308.341,255.504 319.608,595.607 330.874,1026.99 342.14,1184.17 353.406,1197.22 364.673,1185.17 375.939,1177.9 387.205,1176.42 398.471,1177.29 
  409.738,1178.67 421.004,1179.74 432.27,1180.33 443.536,1180.43 454.803,1179.93 466.069,1179 477.335,1177.4 488.601,1175.44 499.868,1172.79 511.134,1169.86 
  522.4,1166.3 533.666,1162.55 544.933,1158.29 556.199,1153.96 567.465,1149.29 578.731,1144.62 589.998,1139.8 601.264,1135.05 612.53,1130.3 623.796,1125.66 
  635.063,1121.15 646.329,1116.76 657.595,1112.6 668.861,1108.53 680.128,1104.79 691.394,1101.1 702.66,1097.8 713.926,1094.5 725.193,1091.63 736.459,1088.72 
  747.725,1086.26 758.992,1083.72 770.258,1081.65 781.524,1079.43 792.79,1077.7 804.057,1075.78 815.323,1074.36 826.589,1072.69 837.855,1071.52 849.122,1070.05 
  860.388,1069.1 871.654,1067.78 882.92,1067 894.187,1065.78 905.453,1065.12 916.719,1063.94 927.985,1063.38 939.252,1062.15 950.518,1061.65 961.784,1060.3 
  973.05,1059.83 984.317,1058.24 995.583,1057.76 1006.85,1055.75 1018.12,1055.15 1029.38,1052.35 1040.65,1051.21 1051.91,1074.99 1063.18,1046.22 1074.45,1047.35 
  1085.71,1047.56 1096.98,1048.98 1108.25,1049.47 1119.51,1050.9 1130.78,1051.51 1142.04,1052.8 1153.31,1053.42 1164.58,1054.48 1175.84,1055.01 1187.11,1055.81 
  1198.38,1056.22 1209.64,1056.77 1220.91,1057.05 1232.17,1057.38 1243.44,1057.53 1254.71,1057.64 1265.97,1057.65 1277.24,1057.56 1288.51,1057.43 1299.77,1057.15 
  1311.04,1056.87 1322.3,1056.43 1333.57,1056.01 1344.84,1055.43 1356.1,1054.88 1367.37,1054.17 1378.64,1053.51 1389.9,1052.71 1401.17,1051.96 1412.43,1051.08 
  1423.7,1050.27 1434.97,1049.35 1446.23,1048.5 1457.5,1047.58 1468.77,1046.72 1480.03,1045.82 1491.3,1045 1502.56,1044.17 1513.83,1043.42 1525.1,1042.69 
  1536.36,1042.07 1547.63,1041.49 1558.9,1041.04 1570.16,1040.68 1581.43,1040.45 1592.69,1040.35 1603.96,1040.4 1615.23,1040.61 1626.49,1041 1637.76,1041.57 
  1649.03,1042.36 1660.29,1043.38 1671.56,1044.65 1682.82,1046.23 1694.09,1048.1 1705.36,1050.3 1716.62,1052.79 1727.89,1055.57 1739.16,1058.59 1750.42,1061.81 
  1761.69,1065.17 1772.95,1068.63 1784.22,1072.13 1795.49,1075.61 1806.75,1079 1818.02,1082.23 1829.29,1085.25 1840.55,1088.04 1851.82,1090.63 1863.08,1093.01 
  1874.35,1095.2 1885.62,1097.2 1896.88,1099.02 1908.15,1100.68 1919.42,1102.17 1930.68,1103.51 1941.95,1104.71 1953.21,1105.79 1964.48,1106.73 1975.75,1107.57 
  1987.01,1108.31 1998.28,1108.95 2009.55,1109.52 2020.81,1110.01 2032.08,1110.44 2043.34,1110.81 2054.61,1111.14 2065.88,1111.43 2077.14,1111.69 2088.41,1111.92 
  2099.68,1112.14 2110.94,1112.34 2122.21,1112.54 2133.47,1112.73 2144.74,1112.92 2156.01,1113.11 2167.27,1113.3 2178.54,1113.49 2189.81,1113.69 2201.07,1113.87 
  2212.34,1114.06 2223.6,1114.23 2234.87,1114.39 2246.14,1114.53 2257.4,1114.64 2268.67,1114.71 2279.94,1114.73 2291.2,1114.7 2302.47,1114.6 2313.73,1114.41 
  2325,1114.14 2336.27,1113.76 2347.53,1113.26 2358.8,1112.61 2370.07,1111.82 2381.33,1110.84 2392.6,1109.7 2403.86,1108.31 2415.13,1106.73 2426.4,1104.82 
  2437.66,1102.7 2448.93,1100.13 2460.2,1097.32 2471.46,1093.84 2482.73,1090.07 2493.99,1085.25 2505.26,1080.03 2516.53,1072.94 2527.79,1066.2 2539.06,1056.43 
  2550.33,1078.15 
  "/>
<polyline clip-path="url(#clip1902)" style="stroke:#3da44d; stroke-width:16; stroke-opacity:1; fill:none" points="
  297.075,1078.15 308.341,189.727 319.608,570.961 330.874,1036.57 342.14,1189.58 353.406,1196.33 364.673,1181.9 375.939,1174.4 387.205,1172.95 398.471,1173.95 
  409.738,1175.4 421.004,1176.64 432.27,1177.45 443.536,1177.79 454.803,1177.61 466.069,1176.96 477.335,1175.72 488.601,1174.04 499.868,1171.73 511.134,1169.06 
  522.4,1165.77 533.666,1162.26 544.933,1158.2 556.199,1154.04 567.465,1149.44 578.731,1144.88 589.998,1140 601.264,1135.26 612.53,1130.31 623.796,1125.6 
  635.063,1120.76 646.329,1116.23 657.595,1111.62 668.861,1107.39 680.128,1103.1 691.394,1099.22 702.66,1095.29 713.926,1091.79 725.193,1088.21 736.459,1085.09 
  747.725,1081.86 758.992,1079.09 770.258,1076.15 781.524,1073.7 792.79,1071.02 804.057,1068.84 815.323,1066.36 826.589,1064.4 837.855,1062.07 849.122,1060.3 
  860.388,1058.05 871.654,1056.42 882.92,1054.19 894.187,1052.68 905.453,1050.41 916.719,1048.98 927.985,1046.61 939.252,1045.24 950.518,1042.7 961.784,1041.38 
  973.05,1038.59 984.317,1037.31 995.583,1034.2 1006.85,1032.95 1018.12,1029.49 1029.38,1028.29 1040.65,1024.63 1051.91,1072.71 1063.18,1028.62 1074.45,1030.22 
  1085.71,1034.2 1096.98,1035.66 1108.25,1039.43 1119.51,1040.95 1130.78,1044.48 1142.04,1046.05 1153.31,1049.33 1164.58,1050.98 1175.84,1054.03 1187.11,1055.72 
  1198.38,1058.51 1209.64,1060.19 1220.91,1062.72 1232.17,1064.37 1243.44,1066.66 1254.71,1068.25 1265.97,1070.33 1277.24,1071.86 1288.51,1073.75 1299.77,1075.22 
  1311.04,1076.96 1322.3,1078.37 1333.57,1079.97 1344.84,1081.31 1356.1,1082.79 1367.37,1084.06 1378.64,1085.42 1389.9,1086.62 1401.17,1087.88 1412.43,1089.01 
  1423.7,1090.17 1434.97,1091.22 1446.23,1092.29 1457.5,1093.27 1468.77,1094.24 1480.03,1095.14 1491.3,1096.02 1502.56,1096.83 1513.83,1097.61 1525.1,1098.32 
  1536.36,1099 1547.63,1099.6 1558.9,1100.15 1570.16,1100.63 1581.43,1101.04 1592.69,1101.39 1603.96,1101.65 1615.23,1101.84 1626.49,1101.94 1637.76,1101.96 
  1649.03,1101.89 1660.29,1101.72 1671.56,1101.45 1682.82,1101.08 1694.09,1100.59 1705.36,1099.99 1716.62,1099.29 1727.89,1098.49 1739.16,1097.59 1750.42,1096.62 
  1761.69,1095.56 1772.95,1094.44 1784.22,1093.24 1795.49,1092 1806.75,1090.71 1818.02,1089.38 1829.29,1087.99 1840.55,1086.54 1851.82,1085.04 1863.08,1083.48 
  1874.35,1081.88 1885.62,1080.24 1896.88,1078.56 1908.15,1076.87 1919.42,1075.15 1930.68,1073.43 1941.95,1071.69 1953.21,1069.97 1964.48,1068.25 1975.75,1066.56 
  1987.01,1064.89 1998.28,1063.26 2009.55,1061.66 2020.81,1060.12 2032.08,1058.62 2043.34,1057.2 2054.61,1055.82 2065.88,1054.54 2077.14,1053.31 2088.41,1052.19 
  2099.68,1051.12 2110.94,1050.18 2122.21,1049.28 2133.47,1048.52 2144.74,1047.82 2156.01,1047.25 2167.27,1046.74 2178.54,1046.37 2189.81,1046.07 2201.07,1045.89 
  2212.34,1045.8 2223.6,1045.82 2234.87,1045.95 2246.14,1046.17 2257.4,1046.52 2268.67,1046.92 2279.94,1047.49 2291.2,1048.06 2302.47,1048.86 2313.73,1049.57 
  2325,1050.6 2336.27,1051.43 2347.53,1052.69 2358.8,1053.59 2370.07,1055.08 2381.33,1056.01 2392.6,1057.71 2403.86,1058.6 2415.13,1060.52 2426.4,1061.27 
  2437.66,1063.4 2448.93,1063.91 2460.2,1066.23 2471.46,1066.4 2482.73,1068.84 2493.99,1068.72 2505.26,1071.12 2516.53,1071.41 2527.79,1072.92 2539.06,1077.47 
  2550.33,1078.15 
  "/>
<polyline clip-path="url(#clip1902)" style="stroke:#c271d2; stroke-width:16; stroke-opacity:1; fill:none" points="
  297.075,1078.15 308.341,803.824 319.608,781.693 330.874,734.638 342.14,739.193 353.406,800.341 364.673,885.691 375.939,964.603 387.205,1028.92 398.471,1075.76 
  409.738,1110.09 421.004,1134.17 432.27,1151.73 443.536,1164.04 454.803,1172.93 466.069,1179 477.335,1183.1 488.601,1185.57 499.868,1186.81 511.134,1187.06 
  522.4,1186.48 533.666,1185.28 544.933,1183.5 556.199,1181.31 567.465,1178.7 578.731,1175.79 589.998,1172.58 601.264,1169.14 612.53,1165.48 623.796,1161.62 
  635.063,1157.61 646.329,1153.44 657.595,1149.17 668.861,1144.78 680.128,1140.33 691.394,1135.78 702.66,1131.24 713.926,1126.61 725.193,1122.04 736.459,1117.4 
  747.725,1112.86 758.992,1108.26 770.258,1103.8 781.524,1099.29 792.79,1094.95 804.057,1090.55 815.323,1086.37 826.589,1082.11 837.855,1078.1 849.122,1073.99 
  860.388,1070.17 871.654,1066.22 882.92,1062.58 894.187,1058.8 905.453,1055.35 916.719,1051.72 927.985,1048.46 939.252,1044.99 950.518,1041.9 961.784,1038.58 
  973.05,1035.68 984.317,1032.5 995.583,1029.8 1006.85,1026.77 1018.12,1024.31 1029.38,1021.39 1040.65,1019.07 1051.91,1071.92 1063.18,1019.62 1074.45,1023.01 
  1085.71,1026.59 1096.98,1030.05 1108.25,1033.7 1119.51,1037.28 1130.78,1041.04 1142.04,1044.93 1153.31,1049.05 1164.58,1053.38 1175.84,1057.73 1187.11,1062.1 
  1198.38,1066.19 1209.64,1070.07 1220.91,1073.56 1232.17,1076.76 1243.44,1079.61 1254.71,1082.19 1265.97,1084.46 1277.24,1086.48 1288.51,1088.25 1299.77,1089.8 
  1311.04,1091.14 1322.3,1092.31 1333.57,1093.31 1344.84,1094.18 1356.1,1094.91 1367.37,1095.55 1378.64,1096.1 1389.9,1096.58 1401.17,1097 1412.43,1097.38 
  1423.7,1097.72 1434.97,1098.05 1446.23,1098.36 1457.5,1098.66 1468.77,1098.96 1480.03,1099.27 1491.3,1099.59 1502.56,1099.92 1513.83,1100.25 1525.1,1100.6 
  1536.36,1100.96 1547.63,1101.33 1558.9,1101.69 1570.16,1102.04 1581.43,1102.37 1592.69,1102.65 1603.96,1102.87 1615.23,1102.97 1626.49,1102.92 1637.76,1102.66 
  1649.03,1102.15 1660.29,1101.35 1671.56,1100.23 1682.82,1098.77 1694.09,1096.97 1705.36,1094.89 1716.62,1092.57 1727.89,1090.12 1739.16,1087.59 1750.42,1085.06 
  1761.69,1082.59 1772.95,1080.23 1784.22,1077.99 1795.49,1075.94 1806.75,1074.04 1818.02,1072.35 1829.29,1070.83 1840.55,1069.51 1851.82,1068.33 1863.08,1067.32 
  1874.35,1066.43 1885.62,1065.69 1896.88,1065.04 1908.15,1064.52 1919.42,1064.08 1930.68,1063.74 1941.95,1063.47 1953.21,1063.29 1964.48,1063.16 1975.75,1063.09 
  1987.01,1063.07 1998.28,1063.09 2009.55,1063.15 2020.81,1063.24 2032.08,1063.34 2043.34,1063.47 2054.61,1063.6 2065.88,1063.74 2077.14,1063.87 2088.41,1064 
  2099.68,1064.12 2110.94,1064.23 2122.21,1064.31 2133.47,1064.39 2144.74,1064.42 2156.01,1064.46 2167.27,1064.44 2178.54,1064.43 2189.81,1064.36 2201.07,1064.31 
  2212.34,1064.17 2223.6,1064.09 2234.87,1063.9 2246.14,1063.8 2257.4,1063.57 2268.67,1063.46 2279.94,1063.19 2291.2,1063.1 2302.47,1062.83 2313.73,1062.78 
  2325,1062.53 2336.27,1062.54 2347.53,1062.36 2358.8,1062.47 2370.07,1062.43 2381.33,1062.66 2392.6,1062.84 2403.86,1063.21 2415.13,1063.75 2426.4,1064.25 
  2437.66,1065.3 2448.93,1065.89 2460.2,1067.68 2471.46,1068.2 2482.73,1070.94 2493.99,1071.06 2505.26,1074.85 2516.53,1073.8 2527.79,1078.39 2539.06,1074.68 
  2550.33,1078.15 
  "/>
<polyline clip-path="url(#clip1902)" style="stroke:#ac8d18; stroke-width:16; stroke-opacity:1; fill:none" points="
  297.075,1078.15 308.341,2146.22 319.608,1614 330.874,993.129 342.14,758.537 353.406,803.973 364.673,883.772 375.939,962.833 387.205,1006.45 398.471,1040.86 
  409.738,1057.02 421.004,1071.72 432.27,1078.45 443.536,1085.53 454.803,1089.05 466.069,1092.72 477.335,1094.87 488.601,1096.72 499.868,1098.03 511.134,1098.76 
  522.4,1099.41 533.666,1099.37 544.933,1099.47 556.199,1098.89 567.465,1098.53 578.731,1097.56 589.998,1096.82 601.264,1095.57 612.53,1094.54 623.796,1093.08 
  635.063,1091.82 646.329,1090.21 657.595,1088.79 668.861,1087.08 680.128,1085.54 691.394,1083.76 702.66,1082.15 713.926,1080.34 725.193,1078.7 736.459,1076.88 
  747.725,1075.25 758.992,1073.45 770.258,1071.85 781.524,1070.08 792.79,1068.54 804.057,1066.81 815.323,1065.34 826.589,1063.66 837.855,1062.28 849.122,1060.64 
  860.388,1059.36 871.654,1057.75 882.92,1056.57 894.187,1054.96 905.453,1053.9 916.719,1052.26 927.985,1051.33 939.252,1049.61 950.518,1048.83 961.784,1046.96 
  973.05,1046.39 984.317,1044.25 995.583,1043.98 1006.85,1041.43 1018.12,1041.65 1029.38,1038.44 1040.65,1039.46 1051.91,1073.83 1063.18,1034 1074.45,1041.37 
  1085.71,1041.79 1096.98,1049.13 1108.25,1051.12 1119.51,1057.66 1130.78,1061.13 1142.04,1066.83 1153.31,1071.24 1164.58,1076.07 1175.84,1080.23 1187.11,1084.1 
  1198.38,1087.54 1209.64,1090.69 1220.91,1093.5 1232.17,1096.07 1243.44,1098.36 1254.71,1100.44 1265.97,1102.3 1277.24,1103.99 1288.51,1105.49 1299.77,1106.85 
  1311.04,1108.06 1322.3,1109.14 1333.57,1110.09 1344.84,1110.93 1356.1,1111.66 1367.37,1112.29 1378.64,1112.8 1389.9,1113.22 1401.17,1113.52 1412.43,1113.72 
  1423.7,1113.8 1434.97,1113.76 1446.23,1113.59 1457.5,1113.28 1468.77,1112.83 1480.03,1112.23 1491.3,1111.46 1502.56,1110.52 1513.83,1109.4 1525.1,1108.09 
  1536.36,1106.59 1547.63,1104.88 1558.9,1102.97 1570.16,1100.84 1581.43,1098.51 1592.69,1095.96 1603.96,1093.19 1615.23,1090.21 1626.49,1087.04 1637.76,1083.73 
  1649.03,1080.38 1660.29,1077.05 1671.56,1073.72 1682.82,1070.38 1694.09,1067.03 1705.36,1063.71 1716.62,1060.47 1727.89,1057.4 1739.16,1054.53 1750.42,1051.95 
  1761.69,1049.66 1772.95,1047.71 1784.22,1046.07 1795.49,1044.76 1806.75,1043.73 1818.02,1042.97 1829.29,1042.46 1840.55,1042.17 1851.82,1042.09 1863.08,1042.19 
  1874.35,1042.45 1885.62,1042.86 1896.88,1043.39 1908.15,1044.02 1919.42,1044.75 1930.68,1045.54 1941.95,1046.39 1953.21,1047.27 1964.48,1048.19 1975.75,1049.1 
  1987.01,1050.04 1998.28,1050.93 2009.55,1051.84 2020.81,1052.68 2032.08,1053.52 2043.34,1054.29 2054.61,1055.04 2065.88,1055.7 2077.14,1056.36 2088.41,1056.9 
  2099.68,1057.44 2110.94,1057.88 2122.21,1058.3 2133.47,1058.62 2144.74,1058.93 2156.01,1059.15 2167.27,1059.36 2178.54,1059.48 2189.81,1059.6 2201.07,1059.66 
  2212.34,1059.71 2223.6,1059.71 2234.87,1059.72 2246.14,1059.68 2257.4,1059.67 2268.67,1059.63 2279.94,1059.64 2291.2,1059.61 2302.47,1059.67 2313.73,1059.68 
  2325,1059.84 2336.27,1059.92 2347.53,1060.25 2358.8,1060.4 2370.07,1061 2381.33,1061.23 2392.6,1062.2 2403.86,1062.5 2415.13,1063.98 2426.4,1064.29 
  2437.66,1066.45 2448.93,1066.69 2460.2,1069.71 2471.46,1069.66 2482.73,1073.74 2493.99,1073.04 2505.26,1078.2 2516.53,1076.09 2527.79,1081.74 2539.06,1076.03 
  2550.33,1078.15 
  "/>
<polyline clip-path="url(#clip1902)" style="stroke:#00a9ad; stroke-width:16; stroke-opacity:1; fill:none" points="
  297.075,1078.15 308.341,2097.17 319.608,1529.67 330.874,895.702 342.14,698.013 353.406,762.846 364.673,859.661 375.939,946.909 387.205,1000.17 398.471,1040.23 
  409.738,1062.74 421.004,1081.3 432.27,1091.88 443.536,1101.49 454.803,1107.23 466.069,1112.54 477.335,1115.9 488.601,1118.75 499.868,1120.64 511.134,1121.89 
  522.4,1122.71 533.666,1122.84 544.933,1122.82 556.199,1122.11 567.465,1121.41 578.731,1120.1 589.998,1118.85 601.264,1117.09 612.53,1115.42 623.796,1113.36 
  635.063,1111.38 646.329,1109.13 657.595,1106.94 668.861,1104.61 680.128,1102.3 691.394,1099.97 702.66,1097.61 713.926,1095.34 725.193,1092.98 736.459,1090.8 
  747.725,1088.47 758.992,1086.4 770.258,1084.11 781.524,1082.15 792.79,1079.88 804.057,1078.03 815.323,1075.75 826.589,1073.99 837.855,1071.67 849.122,1069.99 
  860.388,1067.58 871.654,1065.96 882.92,1063.41 894.187,1061.84 905.453,1059.07 916.719,1057.54 927.985,1054.48 939.252,1053 950.518,1049.54 961.784,1048.13 
  973.05,1044.15 984.317,1042.82 995.583,1038.14 1006.85,1036.88 1018.12,1031.2 1029.38,1029.86 1040.65,1022.57 1051.91,1072.31 1063.18,1021.57 1074.45,1021.81 
  1085.71,1025.12 1096.98,1026.23 1108.25,1029.59 1119.51,1030.98 1130.78,1034.1 1142.04,1035.53 1153.31,1038.3 1164.58,1039.65 1175.84,1042.09 1187.11,1043.39 
  1198.38,1045.63 1209.64,1046.94 1220.91,1049.07 1232.17,1050.44 1243.44,1052.51 1254.71,1053.95 1265.97,1055.99 1277.24,1057.51 1288.51,1059.52 1299.77,1061.1 
  1311.04,1063.09 1322.3,1064.73 1333.57,1066.68 1344.84,1068.35 1356.1,1070.27 1367.37,1071.95 1378.64,1073.82 1389.9,1075.49 1401.17,1077.3 1412.43,1078.94 
  1423.7,1080.67 1434.97,1082.24 1446.23,1083.88 1457.5,1085.38 1468.77,1086.9 1480.03,1088.31 1491.3,1089.71 1502.56,1091 1513.83,1092.27 1525.1,1093.44 
  1536.36,1094.57 1547.63,1095.61 1558.9,1096.59 1570.16,1097.49 1581.43,1098.32 1592.69,1099.06 1603.96,1099.74 1615.23,1100.34 1626.49,1100.89 1637.76,1101.37 
  1649.03,1101.8 1660.29,1102.16 1671.56,1102.44 1682.82,1102.64 1694.09,1102.75 1705.36,1102.78 1716.62,1102.71 1727.89,1102.57 1739.16,1102.34 1750.42,1102.02 
  1761.69,1101.62 1772.95,1101.15 1784.22,1100.6 1795.49,1099.99 1806.75,1099.31 1818.02,1098.57 1829.29,1097.76 1840.55,1096.91 1851.82,1096 1863.08,1095.04 
  1874.35,1094.05 1885.62,1093.02 1896.88,1091.95 1908.15,1090.87 1919.42,1089.76 1930.68,1088.65 1941.95,1087.52 1953.21,1086.4 1964.48,1085.27 1975.75,1084.16 
  1987.01,1083.06 1998.28,1081.98 2009.55,1080.91 2020.81,1079.87 2032.08,1078.86 2043.34,1077.88 2054.61,1076.93 2065.88,1076.02 2077.14,1075.14 2088.41,1074.31 
  2099.68,1073.52 2110.94,1072.78 2122.21,1072.09 2133.47,1071.46 2144.74,1070.88 2156.01,1070.36 2167.27,1069.89 2178.54,1069.49 2189.81,1069.16 2201.07,1068.88 
  2212.34,1068.68 2223.6,1068.54 2234.87,1068.48 2246.14,1068.46 2257.4,1068.55 2268.67,1068.65 2279.94,1068.88 2291.2,1069.1 2302.47,1069.48 2313.73,1069.79 
  2325,1070.31 2336.27,1070.7 2347.53,1071.35 2358.8,1071.79 2370.07,1072.57 2381.33,1073.01 2392.6,1073.92 2403.86,1074.3 2415.13,1075.32 2426.4,1075.58 
  2437.66,1076.69 2448.93,1076.75 2460.2,1077.91 2471.46,1077.7 2482.73,1078.81 2493.99,1078.33 2505.26,1079.2 2516.53,1078.52 2527.79,1078.65 2539.06,1078.39 
  2550.33,1078.15 
  "/>
<polyline clip-path="url(#clip1902)" style="stroke:#ed5d92; stroke-width:16; stroke-opacity:1; fill:none" points="
  297.075,1078.15 308.341,1047.91 319.608,1039.98 330.874,1053.52 342.14,1070.15 353.406,1077.9 364.673,1077.86 375.939,1075.75 387.205,1072.98 398.471,1071.38 
  409.738,1069.85 421.004,1068.95 432.27,1067.81 443.536,1066.93 454.803,1065.8 466.069,1064.83 477.335,1063.72 488.601,1062.75 499.868,1061.75 511.134,1060.87 
  522.4,1060.06 533.666,1059.34 544.933,1058.76 556.199,1058.22 567.465,1057.86 578.731,1057.48 589.998,1057.29 601.264,1057.02 612.53,1056.94 623.796,1056.71 
  635.063,1056.66 646.329,1056.38 657.595,1056.3 668.861,1055.91 680.128,1055.72 691.394,1055.16 702.66,1054.83 713.926,1054.05 725.193,1053.54 736.459,1052.52 
  747.725,1051.84 758.992,1050.57 770.258,1049.71 781.524,1048.21 792.79,1047.18 804.057,1045.45 815.323,1044.27 826.589,1042.32 837.855,1040.99 849.122,1038.83 
  860.388,1037.36 871.654,1035 882.92,1033.38 894.187,1030.81 905.453,1029.01 916.719,1026.22 927.985,1024.21 939.252,1021.19 950.518,1018.94 961.784,1015.72 
  973.05,1013.29 984.317,1010.03 995.583,1007.85 1006.85,1005.47 1018.12,1005.39 1029.38,1007.34 1040.65,1015.85 1051.91,1033.45 1063.18,1011.24 1074.45,996.789 
  1085.71,989.13 1096.98,982.322 1108.25,979.219 1119.51,975.86 1130.78,975.439 1142.04,974.458 1153.31,975.405 1164.58,975.22 1175.84,975.815 1187.11,975.167 
  1198.38,974.802 1209.64,973.455 1220.91,972.354 1232.17,970.62 1243.44,969.193 1254.71,967.368 1265.97,965.851 1277.24,964.068 1288.51,962.559 1299.77,960.853 
  1311.04,959.375 1322.3,957.731 1333.57,956.262 1344.84,954.641 1356.1,953.144 1367.37,951.499 1378.64,949.931 1389.9,948.218 1401.17,946.545 1412.43,944.73 
  1423.7,942.924 1434.97,940.984 1446.23,939.03 1457.5,936.95 1468.77,934.84 1480.03,932.614 1491.3,930.342 1502.56,927.957 1513.83,925.506 1525.1,922.931 
  1536.36,920.252 1547.63,917.412 1558.9,914.399 1570.16,911.145 1581.43,907.609 1592.69,903.713 1603.96,899.4 1615.23,894.607 1626.49,889.294 1637.76,883.474 
  1649.03,877.285 1660.29,871.021 1671.56,865.069 1682.82,859.859 1694.09,855.776 1705.36,853.124 1716.62,852.077 1727.89,852.7 1739.16,854.944 1750.42,858.686 
  1761.69,863.73 1772.95,869.843 1784.22,876.736 1795.49,884.126 1806.75,891.731 1818.02,899.345 1829.29,906.804 1840.55,914.016 1851.82,920.916 1863.08,927.499 
  1874.35,933.764 1885.62,939.75 1896.88,945.475 1908.15,950.986 1919.42,956.295 1930.68,961.441 1941.95,966.426 1953.21,971.277 1964.48,975.99 1975.75,980.576 
  1987.01,985.032 1998.28,989.354 2009.55,993.544 2020.81,997.584 2032.08,1001.48 2043.34,1005.21 2054.61,1008.79 2065.88,1012.16 2077.14,1015.38 2088.41,1018.36 
  2099.68,1021.19 2110.94,1023.74 2122.21,1026.15 2133.47,1028.24 2144.74,1030.21 2156.01,1031.84 2167.27,1033.36 2178.54,1034.51 2189.81,1035.61 2201.07,1036.29 
  2212.34,1036.98 2223.6,1037.22 2234.87,1037.54 2246.14,1037.37 2257.4,1037.36 2268.67,1036.8 2279.94,1036.52 2291.2,1035.63 2302.47,1035.13 2313.73,1033.94 
  2325,1033.3 2336.27,1031.86 2347.53,1031.13 2358.8,1029.5 2370.07,1028.77 2381.33,1027 2392.6,1026.34 2403.86,1024.47 2415.13,1023.97 2426.4,1022.07 
  2437.66,1021.81 2448.93,1019.96 2460.2,1020.11 2471.46,1018.55 2482.73,1019.54 2493.99,1019.05 2505.26,1022.25 2516.53,1025.24 2527.79,1033.93 2539.06,1047.44 
  2550.33,1072.86 
  "/>
<path clip-path="url(#clip1900)" d="
M2713.92 746.392 L3184.76 746.392 L3184.76 262.552 L2713.92 262.552  Z
  " fill="#ffffff" fill-rule="evenodd" fill-opacity="1"/>
<polyline clip-path="url(#clip1900)" style="stroke:#000000; stroke-width:4; stroke-opacity:1; fill:none" points="
  2713.92,746.392 3184.76,746.392 3184.76,262.552 2713.92,262.552 2713.92,746.392 
  "/>
<polyline clip-path="url(#clip1900)" style="stroke:#009af9; stroke-width:16; stroke-opacity:1; fill:none" points="
  2745.92,323.032 2937.92,323.032 
  "/>
<path clip-path="url(#clip1900)" d="M 0 0 M2991.95 303.633 Q2984.95 303.633 2980.81 308.853 Q2976.7 314.072 2976.7 323.08 Q2976.7 332.056 2980.81 337.275 Q2984.95 342.495 2991.95 342.495 Q2998.95 342.495 3003.03 337.275 Q3007.13 332.056 3007.13 323.08 Q3007.13 314.072 3003.03 308.853 Q2998.95 303.633 2991.95 303.633 M3000.96 345.933 L3009.42 355.195 L3001.66 355.195 L2994.62 347.588 Q2993.57 347.651 2993 347.683 Q2992.46 347.715 2991.95 347.715 Q2981.92 347.715 2975.91 341.031 Q2969.92 334.315 2969.92 323.08 Q2969.92 311.813 2975.91 305.129 Q2981.92 298.413 2991.95 298.413 Q3001.94 298.413 3007.93 305.129 Q3013.91 311.813 3013.91 323.08 Q3013.91 331.355 3010.57 337.244 Q3007.26 343.132 3000.96 345.933 Z" fill="#000000" fill-rule="evenodd" fill-opacity="1" /><path clip-path="url(#clip1900)" d="M 0 0 M3019.45 332.724 L3019.45 311.144 L3025.31 311.144 L3025.31 332.501 Q3025.31 337.562 3027.28 340.108 Q3029.25 342.623 3033.2 342.623 Q3037.94 342.623 3040.68 339.599 Q3043.45 336.575 3043.45 331.355 L3043.45 311.144 L3049.3 311.144 L3049.3 346.792 L3043.45 346.792 L3043.45 341.318 Q3041.31 344.564 3038.48 346.156 Q3035.68 347.715 3031.96 347.715 Q3025.81 347.715 3022.63 343.896 Q3019.45 340.076 3019.45 332.724 M3034.19 310.285 L3034.19 310.285 Z" fill="#000000" fill-rule="evenodd" fill-opacity="1" /><path clip-path="url(#clip1900)" d="M 0 0 M3071.65 328.873 Q3064.55 328.873 3061.81 330.496 Q3059.08 332.119 3059.08 336.034 Q3059.08 339.153 3061.11 340.999 Q3063.18 342.814 3066.71 342.814 Q3071.58 342.814 3074.51 339.376 Q3077.47 335.907 3077.47 330.178 L3077.47 328.873 L3071.65 328.873 M3083.33 326.454 L3083.33 346.792 L3077.47 346.792 L3077.47 341.381 Q3075.47 344.628 3072.47 346.187 Q3069.48 347.715 3065.15 347.715 Q3059.68 347.715 3056.43 344.66 Q3053.22 341.572 3053.22 336.416 Q3053.22 330.4 3057.23 327.345 Q3061.27 324.289 3069.26 324.289 L3077.47 324.289 L3077.47 323.716 Q3077.47 319.674 3074.8 317.478 Q3072.16 315.25 3067.35 315.25 Q3064.29 315.25 3061.4 315.982 Q3058.5 316.714 3055.83 318.178 L3055.83 312.767 Q3059.04 311.526 3062.07 310.921 Q3065.09 310.285 3067.96 310.285 Q3075.69 310.285 3079.51 314.295 Q3083.33 318.306 3083.33 326.454 Z" fill="#000000" fill-rule="evenodd" fill-opacity="1" /><path clip-path="url(#clip1900)" d="M 0 0 M3112.93 316.555 L3112.93 297.267 L3118.79 297.267 L3118.79 346.792 L3112.93 346.792 L3112.93 341.445 Q3111.08 344.628 3108.25 346.187 Q3105.45 347.715 3101.5 347.715 Q3095.04 347.715 3090.97 342.559 Q3086.93 337.403 3086.93 329 Q3086.93 320.597 3090.97 315.441 Q3095.04 310.285 3101.5 310.285 Q3105.45 310.285 3108.25 311.844 Q3111.08 313.372 3112.93 316.555 M3092.97 329 Q3092.97 335.461 3095.61 339.153 Q3098.29 342.814 3102.93 342.814 Q3107.58 342.814 3110.26 339.153 Q3112.93 335.461 3112.93 329 Q3112.93 322.539 3110.26 318.879 Q3107.58 315.186 3102.93 315.186 Q3098.29 315.186 3095.61 318.879 Q3092.97 322.539 3092.97 329 Z" fill="#000000" fill-rule="evenodd" fill-opacity="1" /><path clip-path="url(#clip1900)" d="M 0 0 M3147.59 341.381 L3158.09 341.381 L3158.09 305.129 L3146.67 307.42 L3146.67 301.564 L3158.03 299.272 L3164.46 299.272 L3164.46 341.381 L3174.96 341.381 L3174.96 346.792 L3147.59 346.792 L3147.59 341.381 Z" fill="#000000" fill-rule="evenodd" fill-opacity="1" /><polyline clip-path="url(#clip1900)" style="stroke:#e26f46; stroke-width:16; stroke-opacity:1; fill:none" points="
  2745.92,383.512 2937.92,383.512 
  "/>
<path clip-path="url(#clip1900)" d="M 0 0 M2991.95 364.113 Q2984.95 364.113 2980.81 369.333 Q2976.7 374.552 2976.7 383.56 Q2976.7 392.536 2980.81 397.755 Q2984.95 402.975 2991.95 402.975 Q2998.95 402.975 3003.03 397.755 Q3007.13 392.536 3007.13 383.56 Q3007.13 374.552 3003.03 369.333 Q2998.95 364.113 2991.95 364.113 M3000.96 406.413 L3009.42 415.675 L3001.66 415.675 L2994.62 408.068 Q2993.57 408.131 2993 408.163 Q2992.46 408.195 2991.95 408.195 Q2981.92 408.195 2975.91 401.511 Q2969.92 394.795 2969.92 383.56 Q2969.92 372.293 2975.91 365.609 Q2981.92 358.893 2991.95 358.893 Q3001.94 358.893 3007.93 365.609 Q3013.91 372.293 3013.91 383.56 Q3013.91 391.835 3010.57 397.724 Q3007.26 403.612 3000.96 406.413 Z" fill="#000000" fill-rule="evenodd" fill-opacity="1" /><path clip-path="url(#clip1900)" d="M 0 0 M3019.45 393.204 L3019.45 371.624 L3025.31 371.624 L3025.31 392.981 Q3025.31 398.042 3027.28 400.588 Q3029.25 403.103 3033.2 403.103 Q3037.94 403.103 3040.68 400.079 Q3043.45 397.055 3043.45 391.835 L3043.45 371.624 L3049.3 371.624 L3049.3 407.272 L3043.45 407.272 L3043.45 401.798 Q3041.31 405.044 3038.48 406.636 Q3035.68 408.195 3031.96 408.195 Q3025.81 408.195 3022.63 404.376 Q3019.45 400.556 3019.45 393.204 M3034.19 370.765 L3034.19 370.765 Z" fill="#000000" fill-rule="evenodd" fill-opacity="1" /><path clip-path="url(#clip1900)" d="M 0 0 M3071.65 389.353 Q3064.55 389.353 3061.81 390.976 Q3059.08 392.599 3059.08 396.514 Q3059.08 399.633 3061.11 401.479 Q3063.18 403.294 3066.71 403.294 Q3071.58 403.294 3074.51 399.856 Q3077.47 396.387 3077.47 390.658 L3077.47 389.353 L3071.65 389.353 M3083.33 386.934 L3083.33 407.272 L3077.47 407.272 L3077.47 401.861 Q3075.47 405.108 3072.47 406.667 Q3069.48 408.195 3065.15 408.195 Q3059.68 408.195 3056.43 405.14 Q3053.22 402.052 3053.22 396.896 Q3053.22 390.88 3057.23 387.825 Q3061.27 384.769 3069.26 384.769 L3077.47 384.769 L3077.47 384.196 Q3077.47 380.154 3074.8 377.958 Q3072.16 375.73 3067.35 375.73 Q3064.29 375.73 3061.4 376.462 Q3058.5 377.194 3055.83 378.658 L3055.83 373.247 Q3059.04 372.006 3062.07 371.401 Q3065.09 370.765 3067.96 370.765 Q3075.69 370.765 3079.51 374.775 Q3083.33 378.786 3083.33 386.934 Z" fill="#000000" fill-rule="evenodd" fill-opacity="1" /><path clip-path="url(#clip1900)" d="M 0 0 M3112.93 377.035 L3112.93 357.747 L3118.79 357.747 L3118.79 407.272 L3112.93 407.272 L3112.93 401.925 Q3111.08 405.108 3108.25 406.667 Q3105.45 408.195 3101.5 408.195 Q3095.04 408.195 3090.97 403.039 Q3086.93 397.883 3086.93 389.48 Q3086.93 381.077 3090.97 375.921 Q3095.04 370.765 3101.5 370.765 Q3105.45 370.765 3108.25 372.324 Q3111.08 373.852 3112.93 377.035 M3092.97 389.48 Q3092.97 395.941 3095.61 399.633 Q3098.29 403.294 3102.93 403.294 Q3107.58 403.294 3110.26 399.633 Q3112.93 395.941 3112.93 389.48 Q3112.93 383.019 3110.26 379.359 Q3107.58 375.666 3102.93 375.666 Q3098.29 375.666 3095.61 379.359 Q3092.97 383.019 3092.97 389.48 Z" fill="#000000" fill-rule="evenodd" fill-opacity="1" /><path clip-path="url(#clip1900)" d="M 0 0 M3152.01 401.861 L3174.45 401.861 L3174.45 407.272 L3144.28 407.272 L3144.28 401.861 Q3147.94 398.074 3154.24 391.708 Q3160.58 385.31 3162.2 383.464 Q3165.29 379.995 3166.5 377.608 Q3167.74 375.189 3167.74 372.865 Q3167.74 369.078 3165.06 366.691 Q3162.42 364.304 3158.16 364.304 Q3155.13 364.304 3151.76 365.354 Q3148.42 366.404 3144.6 368.537 L3144.6 362.044 Q3148.48 360.484 3151.86 359.688 Q3155.23 358.893 3158.03 358.893 Q3165.41 358.893 3169.81 362.585 Q3174.2 366.277 3174.2 372.452 Q3174.2 375.38 3173.08 378.022 Q3172 380.632 3169.11 384.196 Q3168.31 385.119 3164.05 389.544 Q3159.78 393.936 3152.01 401.861 Z" fill="#000000" fill-rule="evenodd" fill-opacity="1" /><polyline clip-path="url(#clip1900)" style="stroke:#3da44d; stroke-width:16; stroke-opacity:1; fill:none" points="
  2745.92,443.992 2937.92,443.992 
  "/>
<path clip-path="url(#clip1900)" d="M 0 0 M2991.95 424.593 Q2984.95 424.593 2980.81 429.813 Q2976.7 435.032 2976.7 444.04 Q2976.7 453.016 2980.81 458.235 Q2984.95 463.455 2991.95 463.455 Q2998.95 463.455 3003.03 458.235 Q3007.13 453.016 3007.13 444.04 Q3007.13 435.032 3003.03 429.813 Q2998.95 424.593 2991.95 424.593 M3000.96 466.893 L3009.42 476.155 L3001.66 476.155 L2994.62 468.548 Q2993.57 468.611 2993 468.643 Q2992.46 468.675 2991.95 468.675 Q2981.92 468.675 2975.91 461.991 Q2969.92 455.275 2969.92 444.04 Q2969.92 432.773 2975.91 426.089 Q2981.92 419.373 2991.95 419.373 Q3001.94 419.373 3007.93 426.089 Q3013.91 432.773 3013.91 444.04 Q3013.91 452.315 3010.57 458.204 Q3007.26 464.092 3000.96 466.893 Z" fill="#000000" fill-rule="evenodd" fill-opacity="1" /><path clip-path="url(#clip1900)" d="M 0 0 M3019.45 453.684 L3019.45 432.104 L3025.31 432.104 L3025.31 453.461 Q3025.31 458.522 3027.28 461.068 Q3029.25 463.583 3033.2 463.583 Q3037.94 463.583 3040.68 460.559 Q3043.45 457.535 3043.45 452.315 L3043.45 432.104 L3049.3 432.104 L3049.3 467.752 L3043.45 467.752 L3043.45 462.278 Q3041.31 465.524 3038.48 467.116 Q3035.68 468.675 3031.96 468.675 Q3025.81 468.675 3022.63 464.856 Q3019.45 461.036 3019.45 453.684 M3034.19 431.245 L3034.19 431.245 Z" fill="#000000" fill-rule="evenodd" fill-opacity="1" /><path clip-path="url(#clip1900)" d="M 0 0 M3071.65 449.833 Q3064.55 449.833 3061.81 451.456 Q3059.08 453.079 3059.08 456.994 Q3059.08 460.113 3061.11 461.959 Q3063.18 463.774 3066.71 463.774 Q3071.58 463.774 3074.51 460.336 Q3077.47 456.867 3077.47 451.138 L3077.47 449.833 L3071.65 449.833 M3083.33 447.414 L3083.33 467.752 L3077.47 467.752 L3077.47 462.341 Q3075.47 465.588 3072.47 467.147 Q3069.48 468.675 3065.15 468.675 Q3059.68 468.675 3056.43 465.62 Q3053.22 462.532 3053.22 457.376 Q3053.22 451.36 3057.23 448.305 Q3061.27 445.249 3069.26 445.249 L3077.47 445.249 L3077.47 444.676 Q3077.47 440.634 3074.8 438.438 Q3072.16 436.21 3067.35 436.21 Q3064.29 436.21 3061.4 436.942 Q3058.5 437.674 3055.83 439.138 L3055.83 433.727 Q3059.04 432.486 3062.07 431.881 Q3065.09 431.245 3067.96 431.245 Q3075.69 431.245 3079.51 435.255 Q3083.33 439.266 3083.33 447.414 Z" fill="#000000" fill-rule="evenodd" fill-opacity="1" /><path clip-path="url(#clip1900)" d="M 0 0 M3112.93 437.515 L3112.93 418.227 L3118.79 418.227 L3118.79 467.752 L3112.93 467.752 L3112.93 462.405 Q3111.08 465.588 3108.25 467.147 Q3105.45 468.675 3101.5 468.675 Q3095.04 468.675 3090.97 463.519 Q3086.93 458.363 3086.93 449.96 Q3086.93 441.557 3090.97 436.401 Q3095.04 431.245 3101.5 431.245 Q3105.45 431.245 3108.25 432.804 Q3111.08 434.332 3112.93 437.515 M3092.97 449.96 Q3092.97 456.421 3095.61 460.113 Q3098.29 463.774 3102.93 463.774 Q3107.58 463.774 3110.26 460.113 Q3112.93 456.421 3112.93 449.96 Q3112.93 443.499 3110.26 439.839 Q3107.58 436.146 3102.93 436.146 Q3098.29 436.146 3095.61 439.839 Q3092.97 443.499 3092.97 449.96 Z" fill="#000000" fill-rule="evenodd" fill-opacity="1" /><path clip-path="url(#clip1900)" d="M 0 0 M3165.96 442.13 Q3170.57 443.117 3173.15 446.236 Q3175.76 449.355 3175.76 453.939 Q3175.76 460.973 3170.92 464.824 Q3166.08 468.675 3157.17 468.675 Q3154.18 468.675 3151 468.07 Q3147.84 467.497 3144.47 466.32 L3144.47 460.113 Q3147.14 461.673 3150.33 462.469 Q3153.51 463.264 3156.98 463.264 Q3163.03 463.264 3166.18 460.877 Q3169.36 458.49 3169.36 453.939 Q3169.36 449.737 3166.4 447.382 Q3163.47 444.995 3158.22 444.995 L3152.68 444.995 L3152.68 439.711 L3158.48 439.711 Q3163.22 439.711 3165.73 437.833 Q3168.25 435.924 3168.25 432.359 Q3168.25 428.699 3165.64 426.757 Q3163.06 424.784 3158.22 424.784 Q3155.58 424.784 3152.56 425.357 Q3149.53 425.929 3145.9 427.139 L3145.9 421.41 Q3149.56 420.391 3152.75 419.882 Q3155.96 419.373 3158.79 419.373 Q3166.11 419.373 3170.38 422.715 Q3174.64 426.025 3174.64 431.69 Q3174.64 435.637 3172.38 438.374 Q3170.12 441.08 3165.96 442.13 Z" fill="#000000" fill-rule="evenodd" fill-opacity="1" /><polyline clip-path="url(#clip1900)" style="stroke:#c271d2; stroke-width:16; stroke-opacity:1; fill:none" points="
  2745.92,504.472 2937.92,504.472 
  "/>
<path clip-path="url(#clip1900)" d="M 0 0 M2991.95 485.073 Q2984.95 485.073 2980.81 490.293 Q2976.7 495.512 2976.7 504.52 Q2976.7 513.496 2980.81 518.715 Q2984.95 523.935 2991.95 523.935 Q2998.95 523.935 3003.03 518.715 Q3007.13 513.496 3007.13 504.52 Q3007.13 495.512 3003.03 490.293 Q2998.95 485.073 2991.95 485.073 M3000.96 527.373 L3009.42 536.635 L3001.66 536.635 L2994.62 529.028 Q2993.57 529.091 2993 529.123 Q2992.46 529.155 2991.95 529.155 Q2981.92 529.155 2975.91 522.471 Q2969.92 515.755 2969.92 504.52 Q2969.92 493.253 2975.91 486.569 Q2981.92 479.853 2991.95 479.853 Q3001.94 479.853 3007.93 486.569 Q3013.91 493.253 3013.91 504.52 Q3013.91 512.795 3010.57 518.684 Q3007.26 524.572 3000.96 527.373 Z" fill="#000000" fill-rule="evenodd" fill-opacity="1" /><path clip-path="url(#clip1900)" d="M 0 0 M3019.45 514.164 L3019.45 492.584 L3025.31 492.584 L3025.31 513.941 Q3025.31 519.002 3027.28 521.548 Q3029.25 524.063 3033.2 524.063 Q3037.94 524.063 3040.68 521.039 Q3043.45 518.015 3043.45 512.795 L3043.45 492.584 L3049.3 492.584 L3049.3 528.232 L3043.45 528.232 L3043.45 522.758 Q3041.31 526.004 3038.48 527.596 Q3035.68 529.155 3031.96 529.155 Q3025.81 529.155 3022.63 525.336 Q3019.45 521.516 3019.45 514.164 M3034.19 491.725 L3034.19 491.725 Z" fill="#000000" fill-rule="evenodd" fill-opacity="1" /><path clip-path="url(#clip1900)" d="M 0 0 M3071.65 510.313 Q3064.55 510.313 3061.81 511.936 Q3059.08 513.559 3059.08 517.474 Q3059.08 520.593 3061.11 522.439 Q3063.18 524.254 3066.71 524.254 Q3071.58 524.254 3074.51 520.816 Q3077.47 517.347 3077.47 511.618 L3077.47 510.313 L3071.65 510.313 M3083.33 507.894 L3083.33 528.232 L3077.47 528.232 L3077.47 522.821 Q3075.47 526.068 3072.47 527.627 Q3069.48 529.155 3065.15 529.155 Q3059.68 529.155 3056.43 526.1 Q3053.22 523.012 3053.22 517.856 Q3053.22 511.84 3057.23 508.785 Q3061.27 505.729 3069.26 505.729 L3077.47 505.729 L3077.47 505.156 Q3077.47 501.114 3074.8 498.918 Q3072.16 496.69 3067.35 496.69 Q3064.29 496.69 3061.4 497.422 Q3058.5 498.154 3055.83 499.618 L3055.83 494.207 Q3059.04 492.966 3062.07 492.361 Q3065.09 491.725 3067.96 491.725 Q3075.69 491.725 3079.51 495.735 Q3083.33 499.746 3083.33 507.894 Z" fill="#000000" fill-rule="evenodd" fill-opacity="1" /><path clip-path="url(#clip1900)" d="M 0 0 M3112.93 497.995 L3112.93 478.707 L3118.79 478.707 L3118.79 528.232 L3112.93 528.232 L3112.93 522.885 Q3111.08 526.068 3108.25 527.627 Q3105.45 529.155 3101.5 529.155 Q3095.04 529.155 3090.97 523.999 Q3086.93 518.843 3086.93 510.44 Q3086.93 502.037 3090.97 496.881 Q3095.04 491.725 3101.5 491.725 Q3105.45 491.725 3108.25 493.284 Q3111.08 494.812 3112.93 497.995 M3092.97 510.44 Q3092.97 516.901 3095.61 520.593 Q3098.29 524.254 3102.93 524.254 Q3107.58 524.254 3110.26 520.593 Q3112.93 516.901 3112.93 510.44 Q3112.93 503.979 3110.26 500.319 Q3107.58 496.626 3102.93 496.626 Q3098.29 496.626 3095.61 500.319 Q3092.97 503.979 3092.97 510.44 Z" fill="#000000" fill-rule="evenodd" fill-opacity="1" /><path clip-path="url(#clip1900)" d="M 0 0 M3164.14 486.314 L3147.91 511.681 L3164.14 511.681 L3164.14 486.314 M3162.45 480.712 L3170.54 480.712 L3170.54 511.681 L3177.32 511.681 L3177.32 517.028 L3170.54 517.028 L3170.54 528.232 L3164.14 528.232 L3164.14 517.028 L3142.69 517.028 L3142.69 510.822 L3162.45 480.712 Z" fill="#000000" fill-rule="evenodd" fill-opacity="1" /><polyline clip-path="url(#clip1900)" style="stroke:#ac8d18; stroke-width:16; stroke-opacity:1; fill:none" points="
  2745.92,564.952 2937.92,564.952 
  "/>
<path clip-path="url(#clip1900)" d="M 0 0 M2991.95 545.553 Q2984.95 545.553 2980.81 550.773 Q2976.7 555.992 2976.7 565 Q2976.7 573.976 2980.81 579.195 Q2984.95 584.415 2991.95 584.415 Q2998.95 584.415 3003.03 579.195 Q3007.13 573.976 3007.13 565 Q3007.13 555.992 3003.03 550.773 Q2998.95 545.553 2991.95 545.553 M3000.96 587.853 L3009.42 597.115 L3001.66 597.115 L2994.62 589.508 Q2993.57 589.571 2993 589.603 Q2992.46 589.635 2991.95 589.635 Q2981.92 589.635 2975.91 582.951 Q2969.92 576.235 2969.92 565 Q2969.92 553.733 2975.91 547.049 Q2981.92 540.333 2991.95 540.333 Q3001.94 540.333 3007.93 547.049 Q3013.91 553.733 3013.91 565 Q3013.91 573.275 3010.57 579.164 Q3007.26 585.052 3000.96 587.853 Z" fill="#000000" fill-rule="evenodd" fill-opacity="1" /><path clip-path="url(#clip1900)" d="M 0 0 M3019.45 574.644 L3019.45 553.064 L3025.31 553.064 L3025.31 574.421 Q3025.31 579.482 3027.28 582.028 Q3029.25 584.543 3033.2 584.543 Q3037.94 584.543 3040.68 581.519 Q3043.45 578.495 3043.45 573.275 L3043.45 553.064 L3049.3 553.064 L3049.3 588.712 L3043.45 588.712 L3043.45 583.238 Q3041.31 586.484 3038.48 588.076 Q3035.68 589.635 3031.96 589.635 Q3025.81 589.635 3022.63 585.816 Q3019.45 581.996 3019.45 574.644 M3034.19 552.205 L3034.19 552.205 Z" fill="#000000" fill-rule="evenodd" fill-opacity="1" /><path clip-path="url(#clip1900)" d="M 0 0 M3071.65 570.793 Q3064.55 570.793 3061.81 572.416 Q3059.08 574.039 3059.08 577.954 Q3059.08 581.073 3061.11 582.919 Q3063.18 584.734 3066.71 584.734 Q3071.58 584.734 3074.51 581.296 Q3077.47 577.827 3077.47 572.098 L3077.47 570.793 L3071.65 570.793 M3083.33 568.374 L3083.33 588.712 L3077.47 588.712 L3077.47 583.301 Q3075.47 586.548 3072.47 588.107 Q3069.48 589.635 3065.15 589.635 Q3059.68 589.635 3056.43 586.58 Q3053.22 583.492 3053.22 578.336 Q3053.22 572.32 3057.23 569.265 Q3061.27 566.209 3069.26 566.209 L3077.47 566.209 L3077.47 565.636 Q3077.47 561.594 3074.8 559.398 Q3072.16 557.17 3067.35 557.17 Q3064.29 557.17 3061.4 557.902 Q3058.5 558.634 3055.83 560.098 L3055.83 554.687 Q3059.04 553.446 3062.07 552.841 Q3065.09 552.205 3067.96 552.205 Q3075.69 552.205 3079.51 556.215 Q3083.33 560.226 3083.33 568.374 Z" fill="#000000" fill-rule="evenodd" fill-opacity="1" /><path clip-path="url(#clip1900)" d="M 0 0 M3112.93 558.475 L3112.93 539.187 L3118.79 539.187 L3118.79 588.712 L3112.93 588.712 L3112.93 583.365 Q3111.08 586.548 3108.25 588.107 Q3105.45 589.635 3101.5 589.635 Q3095.04 589.635 3090.97 584.479 Q3086.93 579.323 3086.93 570.92 Q3086.93 562.517 3090.97 557.361 Q3095.04 552.205 3101.5 552.205 Q3105.45 552.205 3108.25 553.764 Q3111.08 555.292 3112.93 558.475 M3092.97 570.92 Q3092.97 577.381 3095.61 581.073 Q3098.29 584.734 3102.93 584.734 Q3107.58 584.734 3110.26 581.073 Q3112.93 577.381 3112.93 570.92 Q3112.93 564.459 3110.26 560.799 Q3107.58 557.106 3102.93 557.106 Q3098.29 557.106 3095.61 560.799 Q3092.97 564.459 3092.97 570.92 Z" fill="#000000" fill-rule="evenodd" fill-opacity="1" /><path clip-path="url(#clip1900)" d="M 0 0 M3146.54 541.192 L3171.78 541.192 L3171.78 546.603 L3152.43 546.603 L3152.43 558.252 Q3153.83 557.775 3155.23 557.552 Q3156.63 557.297 3158.03 557.297 Q3165.99 557.297 3170.63 561.658 Q3175.28 566.018 3175.28 573.466 Q3175.28 581.137 3170.51 585.402 Q3165.73 589.635 3157.04 589.635 Q3154.05 589.635 3150.93 589.126 Q3147.84 588.617 3144.53 587.598 L3144.53 581.137 Q3147.4 582.697 3150.45 583.46 Q3153.51 584.224 3156.92 584.224 Q3162.42 584.224 3165.64 581.328 Q3168.85 578.432 3168.85 573.466 Q3168.85 568.501 3165.64 565.605 Q3162.42 562.708 3156.92 562.708 Q3154.34 562.708 3151.76 563.281 Q3149.21 563.854 3146.54 565.064 L3146.54 541.192 Z" fill="#000000" fill-rule="evenodd" fill-opacity="1" /><polyline clip-path="url(#clip1900)" style="stroke:#00a9ad; stroke-width:16; stroke-opacity:1; fill:none" points="
  2745.92,625.432 2937.92,625.432 
  "/>
<path clip-path="url(#clip1900)" d="M 0 0 M2991.95 606.033 Q2984.95 606.033 2980.81 611.253 Q2976.7 616.472 2976.7 625.48 Q2976.7 634.456 2980.81 639.675 Q2984.95 644.895 2991.95 644.895 Q2998.95 644.895 3003.03 639.675 Q3007.13 634.456 3007.13 625.48 Q3007.13 616.472 3003.03 611.253 Q2998.95 606.033 2991.95 606.033 M3000.96 648.333 L3009.42 657.595 L3001.66 657.595 L2994.62 649.988 Q2993.57 650.051 2993 650.083 Q2992.46 650.115 2991.95 650.115 Q2981.92 650.115 2975.91 643.431 Q2969.92 636.715 2969.92 625.48 Q2969.92 614.213 2975.91 607.529 Q2981.92 600.813 2991.95 600.813 Q3001.94 600.813 3007.93 607.529 Q3013.91 614.213 3013.91 625.48 Q3013.91 633.755 3010.57 639.644 Q3007.26 645.532 3000.96 648.333 Z" fill="#000000" fill-rule="evenodd" fill-opacity="1" /><path clip-path="url(#clip1900)" d="M 0 0 M3019.45 635.124 L3019.45 613.544 L3025.31 613.544 L3025.31 634.901 Q3025.31 639.962 3027.28 642.508 Q3029.25 645.023 3033.2 645.023 Q3037.94 645.023 3040.68 641.999 Q3043.45 638.975 3043.45 633.755 L3043.45 613.544 L3049.3 613.544 L3049.3 649.192 L3043.45 649.192 L3043.45 643.718 Q3041.31 646.964 3038.48 648.556 Q3035.68 650.115 3031.96 650.115 Q3025.81 650.115 3022.63 646.296 Q3019.45 642.476 3019.45 635.124 M3034.19 612.685 L3034.19 612.685 Z" fill="#000000" fill-rule="evenodd" fill-opacity="1" /><path clip-path="url(#clip1900)" d="M 0 0 M3071.65 631.273 Q3064.55 631.273 3061.81 632.896 Q3059.08 634.519 3059.08 638.434 Q3059.08 641.553 3061.11 643.399 Q3063.18 645.214 3066.71 645.214 Q3071.58 645.214 3074.51 641.776 Q3077.47 638.307 3077.47 632.578 L3077.47 631.273 L3071.65 631.273 M3083.33 628.854 L3083.33 649.192 L3077.47 649.192 L3077.47 643.781 Q3075.47 647.028 3072.47 648.587 Q3069.48 650.115 3065.15 650.115 Q3059.68 650.115 3056.43 647.06 Q3053.22 643.972 3053.22 638.816 Q3053.22 632.8 3057.23 629.745 Q3061.27 626.689 3069.26 626.689 L3077.47 626.689 L3077.47 626.116 Q3077.47 622.074 3074.8 619.878 Q3072.16 617.65 3067.35 617.65 Q3064.29 617.65 3061.4 618.382 Q3058.5 619.114 3055.83 620.578 L3055.83 615.167 Q3059.04 613.926 3062.07 613.321 Q3065.09 612.685 3067.96 612.685 Q3075.69 612.685 3079.51 616.695 Q3083.33 620.706 3083.33 628.854 Z" fill="#000000" fill-rule="evenodd" fill-opacity="1" /><path clip-path="url(#clip1900)" d="M 0 0 M3112.93 618.955 L3112.93 599.667 L3118.79 599.667 L3118.79 649.192 L3112.93 649.192 L3112.93 643.845 Q3111.08 647.028 3108.25 648.587 Q3105.45 650.115 3101.5 650.115 Q3095.04 650.115 3090.97 644.959 Q3086.93 639.803 3086.93 631.4 Q3086.93 622.997 3090.97 617.841 Q3095.04 612.685 3101.5 612.685 Q3105.45 612.685 3108.25 614.244 Q3111.08 615.772 3112.93 618.955 M3092.97 631.4 Q3092.97 637.861 3095.61 641.553 Q3098.29 645.214 3102.93 645.214 Q3107.58 645.214 3110.26 641.553 Q3112.93 637.861 3112.93 631.4 Q3112.93 624.939 3110.26 621.279 Q3107.58 617.586 3102.93 617.586 Q3098.29 617.586 3095.61 621.279 Q3092.97 624.939 3092.97 631.4 Z" fill="#000000" fill-rule="evenodd" fill-opacity="1" /><path clip-path="url(#clip1900)" d="M 0 0 M3161.02 622.87 Q3156.69 622.87 3154.15 625.83 Q3151.63 628.79 3151.63 633.946 Q3151.63 639.071 3154.15 642.063 Q3156.69 645.023 3161.02 645.023 Q3165.35 645.023 3167.87 642.063 Q3170.41 639.071 3170.41 633.946 Q3170.41 628.79 3167.87 625.83 Q3165.35 622.87 3161.02 622.87 M3173.79 602.722 L3173.79 608.579 Q3171.37 607.433 3168.88 606.828 Q3166.43 606.224 3164.01 606.224 Q3157.65 606.224 3154.27 610.52 Q3150.93 614.817 3150.45 623.506 Q3152.33 620.737 3155.17 619.273 Q3158 617.777 3161.4 617.777 Q3168.57 617.777 3172.7 622.138 Q3176.87 626.467 3176.87 633.946 Q3176.87 641.267 3172.54 645.691 Q3168.22 650.115 3161.02 650.115 Q3152.78 650.115 3148.42 643.813 Q3144.06 637.479 3144.06 625.48 Q3144.06 614.213 3149.4 607.529 Q3154.75 600.813 3163.76 600.813 Q3166.18 600.813 3168.63 601.29 Q3171.11 601.768 3173.79 602.722 Z" fill="#000000" fill-rule="evenodd" fill-opacity="1" /><polyline clip-path="url(#clip1900)" style="stroke:#ed5d92; stroke-width:16; stroke-opacity:1; fill:none" points="
  2745.92,685.912 2937.92,685.912 
  "/>
<path clip-path="url(#clip1900)" d="M 0 0 M2969.92 662.152 L2976.35 662.152 L2976.35 704.261 L2999.49 704.261 L2999.49 709.672 L2969.92 709.672 L2969.92 662.152 Z" fill="#000000" fill-rule="evenodd" fill-opacity="1" /><path clip-path="url(#clip1900)" d="M 0 0 M3018.3 678.13 Q3013.59 678.13 3010.85 681.822 Q3008.12 685.482 3008.12 691.88 Q3008.12 698.278 3010.82 701.97 Q3013.56 705.63 3018.3 705.63 Q3022.98 705.63 3025.72 701.938 Q3028.46 698.246 3028.46 691.88 Q3028.46 685.546 3025.72 681.854 Q3022.98 678.13 3018.3 678.13 M3018.3 673.165 Q3025.94 673.165 3030.3 678.13 Q3034.66 683.095 3034.66 691.88 Q3034.66 700.633 3030.3 705.63 Q3025.94 710.595 3018.3 710.595 Q3010.63 710.595 3006.27 705.63 Q3001.94 700.633 3001.94 691.88 Q3001.94 683.095 3006.27 678.13 Q3010.63 673.165 3018.3 673.165 Z" fill="#000000" fill-rule="evenodd" fill-opacity="1" /><path clip-path="url(#clip1900)" d="M 0 0 M3057.01 691.753 Q3049.91 691.753 3047.17 693.376 Q3044.43 694.999 3044.43 698.914 Q3044.43 702.033 3046.47 703.879 Q3048.54 705.694 3052.07 705.694 Q3056.94 705.694 3059.87 702.256 Q3062.83 698.787 3062.83 693.058 L3062.83 691.753 L3057.01 691.753 M3068.69 689.334 L3068.69 709.672 L3062.83 709.672 L3062.83 704.261 Q3060.83 707.508 3057.83 709.067 Q3054.84 710.595 3050.51 710.595 Q3045.04 710.595 3041.79 707.54 Q3038.58 704.452 3038.58 699.296 Q3038.58 693.28 3042.59 690.225 Q3046.63 687.169 3054.62 687.169 L3062.83 687.169 L3062.83 686.596 Q3062.83 682.554 3060.16 680.358 Q3057.52 678.13 3052.71 678.13 Q3049.65 678.13 3046.76 678.862 Q3043.86 679.594 3041.19 681.058 L3041.19 675.647 Q3044.4 674.406 3047.43 673.801 Q3050.45 673.165 3053.31 673.165 Q3061.05 673.165 3064.87 677.175 Q3068.69 681.186 3068.69 689.334 Z" fill="#000000" fill-rule="evenodd" fill-opacity="1" /><path clip-path="url(#clip1900)" d="M 0 0 M3098.29 679.435 L3098.29 660.147 L3104.14 660.147 L3104.14 709.672 L3098.29 709.672 L3098.29 704.325 Q3096.44 707.508 3093.61 709.067 Q3090.81 710.595 3086.86 710.595 Q3080.4 710.595 3076.33 705.439 Q3072.28 700.283 3072.28 691.88 Q3072.28 683.477 3076.33 678.321 Q3080.4 673.165 3086.86 673.165 Q3090.81 673.165 3093.61 674.724 Q3096.44 676.252 3098.29 679.435 M3078.33 691.88 Q3078.33 698.341 3080.97 702.033 Q3083.65 705.694 3088.29 705.694 Q3092.94 705.694 3095.61 702.033 Q3098.29 698.341 3098.29 691.88 Q3098.29 685.419 3095.61 681.759 Q3092.94 678.066 3088.29 678.066 Q3083.65 678.066 3080.97 681.759 Q3078.33 685.419 3078.33 691.88 Z" fill="#000000" fill-rule="evenodd" fill-opacity="1" /></svg>
