<?xml version="1.0" encoding="utf-8"?>
<svg xmlns="http://www.w3.org/2000/svg" xmlns:xlink="http://www.w3.org/1999/xlink" width="800" height="600" viewBox="0 0 3200 2400">
<defs>
  <clipPath id="clip1300">
    <rect x="0" y="0" width="3200" height="2400"/>
  </clipPath>
</defs>
<path clip-path="url(#clip1300)" d="
M0 2400 L3200 2400 L3200 0 L0 0  Z
  " fill="#ffffff" fill-rule="evenodd" fill-opacity="1"/>
<defs>
  <clipPath id="clip1301">
    <rect x="640" y="0" width="2241" height="2241"/>
  </clipPath>
</defs>
<path clip-path="url(#clip1300)" d="
M293.69 2204.92 L2636.44 2204.92 L2636.44 131.032 L293.69 131.032  Z
  " fill="#ffffff" fill-rule="evenodd" fill-opacity="1"/>
<defs>
  <clipPath id="clip1302">
    <rect x="293" y="131" width="2344" height="2075"/>
  </clipPath>
</defs>
<polyline clip-path="url(#clip1302)" style="stroke:#000000; stroke-width:2; stroke-opacity:0.1; fill:none" points="
  359.994,2204.92 359.994,131.032 
  "/>
<polyline clip-path="url(#clip1302)" style="stroke:#000000; stroke-width:2; stroke-opacity:0.1; fill:none" points="
  802.023,2204.92 802.023,131.032 
  "/>
<polyline clip-path="url(#clip1302)" style="stroke:#000000; stroke-width:2; stroke-opacity:0.1; fill:none" points="
  1244.05,2204.92 1244.05,131.032 
  "/>
<polyline clip-path="url(#clip1302)" style="stroke:#000000; stroke-width:2; stroke-opacity:0.1; fill:none" points="
  1686.08,2204.92 1686.08,131.032 
  "/>
<polyline clip-path="url(#clip1302)" style="stroke:#000000; stroke-width:2; stroke-opacity:0.1; fill:none" points="
  2128.11,2204.92 2128.11,131.032 
  "/>
<polyline clip-path="url(#clip1302)" style="stroke:#000000; stroke-width:2; stroke-opacity:0.1; fill:none" points="
  2570.14,2204.92 2570.14,131.032 
  "/>
<polyline clip-path="url(#clip1302)" style="stroke:#000000; stroke-width:2; stroke-opacity:0.1; fill:none" points="
  293.69,2019.9 2636.44,2019.9 
  "/>
<polyline clip-path="url(#clip1302)" style="stroke:#000000; stroke-width:2; stroke-opacity:0.1; fill:none" points="
  293.69,1584.38 2636.44,1584.38 
  "/>
<polyline clip-path="url(#clip1302)" style="stroke:#000000; stroke-width:2; stroke-opacity:0.1; fill:none" points="
  293.69,1148.86 2636.44,1148.86 
  "/>
<polyline clip-path="url(#clip1302)" style="stroke:#000000; stroke-width:2; stroke-opacity:0.1; fill:none" points="
  293.69,713.336 2636.44,713.336 
  "/>
<polyline clip-path="url(#clip1302)" style="stroke:#000000; stroke-width:2; stroke-opacity:0.1; fill:none" points="
  293.69,277.814 2636.44,277.814 
  "/>
<polyline clip-path="url(#clip1300)" style="stroke:#000000; stroke-width:4; stroke-opacity:1; fill:none" points="
  293.69,2204.92 2636.44,2204.92 
  "/>
<polyline clip-path="url(#clip1300)" style="stroke:#000000; stroke-width:4; stroke-opacity:1; fill:none" points="
  293.69,2204.92 293.69,131.032 
  "/>
<polyline clip-path="url(#clip1300)" style="stroke:#000000; stroke-width:4; stroke-opacity:1; fill:none" points="
  359.994,2204.92 359.994,2180.03 
  "/>
<polyline clip-path="url(#clip1300)" style="stroke:#000000; stroke-width:4; stroke-opacity:1; fill:none" points="
  802.023,2204.92 802.023,2180.03 
  "/>
<polyline clip-path="url(#clip1300)" style="stroke:#000000; stroke-width:4; stroke-opacity:1; fill:none" points="
  1244.05,2204.92 1244.05,2180.03 
  "/>
<polyline clip-path="url(#clip1300)" style="stroke:#000000; stroke-width:4; stroke-opacity:1; fill:none" points="
  1686.08,2204.92 1686.08,2180.03 
  "/>
<polyline clip-path="url(#clip1300)" style="stroke:#000000; stroke-width:4; stroke-opacity:1; fill:none" points="
  2128.11,2204.92 2128.11,2180.03 
  "/>
<polyline clip-path="url(#clip1300)" style="stroke:#000000; stroke-width:4; stroke-opacity:1; fill:none" points="
  2570.14,2204.92 2570.14,2180.03 
  "/>
<polyline clip-path="url(#clip1300)" style="stroke:#000000; stroke-width:4; stroke-opacity:1; fill:none" points="
  293.69,2019.9 321.803,2019.9 
  "/>
<polyline clip-path="url(#clip1300)" style="stroke:#000000; stroke-width:4; stroke-opacity:1; fill:none" points="
  293.69,1584.38 321.803,1584.38 
  "/>
<polyline clip-path="url(#clip1300)" style="stroke:#000000; stroke-width:4; stroke-opacity:1; fill:none" points="
  293.69,1148.86 321.803,1148.86 
  "/>
<polyline clip-path="url(#clip1300)" style="stroke:#000000; stroke-width:4; stroke-opacity:1; fill:none" points="
  293.69,713.336 321.803,713.336 
  "/>
<polyline clip-path="url(#clip1300)" style="stroke:#000000; stroke-width:4; stroke-opacity:1; fill:none" points="
  293.69,277.814 321.803,277.814 
  "/>
<path clip-path="url(#clip1300)" d="M 0 0 M359.994 2230.91 Q356.383 2230.91 354.555 2234.48 Q352.749 2238.02 352.749 2245.15 Q352.749 2252.25 354.555 2255.82 Q356.383 2259.36 359.994 2259.36 Q363.629 2259.36 365.434 2255.82 Q367.263 2252.25 367.263 2245.15 Q367.263 2238.02 365.434 2234.48 Q363.629 2230.91 359.994 2230.91 M359.994 2227.21 Q365.805 2227.21 368.86 2231.81 Q371.939 2236.4 371.939 2245.15 Q371.939 2253.87 368.86 2258.48 Q365.805 2263.06 359.994 2263.06 Q354.184 2263.06 351.106 2258.48 Q348.05 2253.87 348.05 2245.15 Q348.05 2236.4 351.106 2231.81 Q354.184 2227.21 359.994 2227.21 Z" fill="#000000" fill-rule="evenodd" fill-opacity="1" /><path clip-path="url(#clip1300)" d="M 0 0 M792.405 2258.46 L800.044 2258.46 L800.044 2232.09 L791.734 2233.76 L791.734 2229.5 L799.998 2227.83 L804.674 2227.83 L804.674 2258.46 L812.312 2258.46 L812.312 2262.39 L792.405 2262.39 L792.405 2258.46 Z" fill="#000000" fill-rule="evenodd" fill-opacity="1" /><path clip-path="url(#clip1300)" d="M 0 0 M1238.7 2258.46 L1255.02 2258.46 L1255.02 2262.39 L1233.08 2262.39 L1233.08 2258.46 Q1235.74 2255.7 1240.32 2251.07 Q1244.93 2246.42 1246.11 2245.08 Q1248.36 2242.55 1249.24 2240.82 Q1250.14 2239.06 1250.14 2237.37 Q1250.14 2234.61 1248.2 2232.88 Q1246.27 2231.14 1243.17 2231.14 Q1240.97 2231.14 1238.52 2231.91 Q1236.09 2232.67 1233.31 2234.22 L1233.31 2229.5 Q1236.14 2228.36 1238.59 2227.79 Q1241.04 2227.21 1243.08 2227.21 Q1248.45 2227.21 1251.64 2229.89 Q1254.84 2232.58 1254.84 2237.07 Q1254.84 2239.2 1254.03 2241.12 Q1253.24 2243.02 1251.13 2245.61 Q1250.56 2246.28 1247.45 2249.5 Q1244.35 2252.69 1238.7 2258.46 Z" fill="#000000" fill-rule="evenodd" fill-opacity="1" /><path clip-path="url(#clip1300)" d="M 0 0 M1690.33 2243.76 Q1693.68 2244.48 1695.56 2246.74 Q1697.46 2249.01 1697.46 2252.35 Q1697.46 2257.46 1693.94 2260.26 Q1690.42 2263.06 1683.94 2263.06 Q1681.76 2263.06 1679.45 2262.62 Q1677.16 2262.21 1674.7 2261.35 L1674.7 2256.84 Q1676.65 2257.97 1678.96 2258.55 Q1681.28 2259.13 1683.8 2259.13 Q1688.2 2259.13 1690.49 2257.39 Q1692.8 2255.66 1692.8 2252.35 Q1692.8 2249.29 1690.65 2247.58 Q1688.52 2245.84 1684.7 2245.84 L1680.68 2245.84 L1680.68 2242 L1684.89 2242 Q1688.34 2242 1690.17 2240.63 Q1691.99 2239.24 1691.99 2236.65 Q1691.99 2233.99 1690.1 2232.58 Q1688.22 2231.14 1684.7 2231.14 Q1682.78 2231.14 1680.58 2231.56 Q1678.38 2231.98 1675.74 2232.85 L1675.74 2228.69 Q1678.41 2227.95 1680.72 2227.58 Q1683.06 2227.21 1685.12 2227.21 Q1690.44 2227.21 1693.55 2229.64 Q1696.65 2232.04 1696.65 2236.17 Q1696.65 2239.04 1695 2241.03 Q1693.36 2242.99 1690.33 2243.76 Z" fill="#000000" fill-rule="evenodd" fill-opacity="1" /><path clip-path="url(#clip1300)" d="M 0 0 M2131.12 2231.91 L2119.31 2250.35 L2131.12 2250.35 L2131.12 2231.91 M2129.89 2227.83 L2135.77 2227.83 L2135.77 2250.35 L2140.7 2250.35 L2140.7 2254.24 L2135.77 2254.24 L2135.77 2262.39 L2131.12 2262.39 L2131.12 2254.24 L2115.52 2254.24 L2115.52 2249.73 L2129.89 2227.83 Z" fill="#000000" fill-rule="evenodd" fill-opacity="1" /><path clip-path="url(#clip1300)" d="M 0 0 M2560.42 2227.83 L2578.77 2227.83 L2578.77 2231.77 L2564.7 2231.77 L2564.7 2240.24 Q2565.72 2239.89 2566.73 2239.73 Q2567.75 2239.54 2568.77 2239.54 Q2574.56 2239.54 2577.94 2242.72 Q2581.32 2245.89 2581.32 2251.3 Q2581.32 2256.88 2577.85 2259.98 Q2574.37 2263.06 2568.05 2263.06 Q2565.88 2263.06 2563.61 2262.69 Q2561.36 2262.32 2558.96 2261.58 L2558.96 2256.88 Q2561.04 2258.02 2563.26 2258.57 Q2565.48 2259.13 2567.96 2259.13 Q2571.97 2259.13 2574.3 2257.02 Q2576.64 2254.92 2576.64 2251.3 Q2576.64 2247.69 2574.3 2245.59 Q2571.97 2243.48 2567.96 2243.48 Q2566.09 2243.48 2564.21 2243.9 Q2562.36 2244.31 2560.42 2245.19 L2560.42 2227.83 Z" fill="#000000" fill-rule="evenodd" fill-opacity="1" /><path clip-path="url(#clip1300)" d="M 0 0 M132.2 2022.3 L144.677 2022.3 L144.677 2026.09 L132.2 2026.09 L132.2 2022.3 Z" fill="#000000" fill-rule="evenodd" fill-opacity="1" /><path clip-path="url(#clip1300)" d="M 0 0 M159.746 2005.7 Q156.135 2005.7 154.307 2009.26 Q152.501 2012.81 152.501 2019.93 Q152.501 2027.04 154.307 2030.61 Q156.135 2034.15 159.746 2034.15 Q163.381 2034.15 165.186 2030.61 Q167.015 2027.04 167.015 2019.93 Q167.015 2012.81 165.186 2009.26 Q163.381 2005.7 159.746 2005.7 M159.746 2002 Q165.556 2002 168.612 2006.6 Q171.691 2011.18 171.691 2019.93 Q171.691 2028.66 168.612 2033.27 Q165.556 2037.85 159.746 2037.85 Q153.936 2037.85 150.857 2033.27 Q147.802 2028.66 147.802 2019.93 Q147.802 2011.18 150.857 2006.6 Q153.936 2002 159.746 2002 Z" fill="#000000" fill-rule="evenodd" fill-opacity="1" /><path clip-path="url(#clip1300)" d="M 0 0 M176.76 2031.3 L181.644 2031.3 L181.644 2037.18 L176.76 2037.18 L176.76 2031.3 Z" fill="#000000" fill-rule="evenodd" fill-opacity="1" /><path clip-path="url(#clip1300)" d="M 0 0 M196.714 2005.7 Q193.103 2005.7 191.274 2009.26 Q189.468 2012.81 189.468 2019.93 Q189.468 2027.04 191.274 2030.61 Q193.103 2034.15 196.714 2034.15 Q200.348 2034.15 202.153 2030.61 Q203.982 2027.04 203.982 2019.93 Q203.982 2012.81 202.153 2009.26 Q200.348 2005.7 196.714 2005.7 M196.714 2002 Q202.524 2002 205.579 2006.6 Q208.658 2011.18 208.658 2019.93 Q208.658 2028.66 205.579 2033.27 Q202.524 2037.85 196.714 2037.85 Q190.904 2037.85 187.825 2033.27 Q184.769 2028.66 184.769 2019.93 Q184.769 2011.18 187.825 2006.6 Q190.904 2002 196.714 2002 Z" fill="#000000" fill-rule="evenodd" fill-opacity="1" /><path clip-path="url(#clip1300)" d="M 0 0 M213.774 2002.62 L232.13 2002.62 L232.13 2006.56 L218.056 2006.56 L218.056 2015.03 Q219.075 2014.68 220.093 2014.52 Q221.112 2014.33 222.13 2014.33 Q227.917 2014.33 231.297 2017.5 Q234.676 2020.68 234.676 2026.09 Q234.676 2031.67 231.204 2034.77 Q227.732 2037.85 221.413 2037.85 Q219.237 2037.85 216.968 2037.48 Q214.723 2037.11 212.315 2036.37 L212.315 2031.67 Q214.399 2032.81 216.621 2033.36 Q218.843 2033.92 221.32 2033.92 Q225.325 2033.92 227.663 2031.81 Q230.001 2029.7 230.001 2026.09 Q230.001 2022.48 227.663 2020.37 Q225.325 2018.27 221.32 2018.27 Q219.445 2018.27 217.57 2018.68 Q215.718 2019.1 213.774 2019.98 L213.774 2002.62 Z" fill="#000000" fill-rule="evenodd" fill-opacity="1" /><path clip-path="url(#clip1300)" d="M 0 0 M249.746 2005.7 Q246.135 2005.7 244.306 2009.26 Q242.5 2012.81 242.5 2019.93 Q242.5 2027.04 244.306 2030.61 Q246.135 2034.15 249.746 2034.15 Q253.38 2034.15 255.186 2030.61 Q257.014 2027.04 257.014 2019.93 Q257.014 2012.81 255.186 2009.26 Q253.38 2005.7 249.746 2005.7 M249.746 2002 Q255.556 2002 258.612 2006.6 Q261.69 2011.18 261.69 2019.93 Q261.69 2028.66 258.612 2033.27 Q255.556 2037.85 249.746 2037.85 Q243.936 2037.85 240.857 2033.27 Q237.801 2028.66 237.801 2019.93 Q237.801 2011.18 240.857 2006.6 Q243.936 2002 249.746 2002 Z" fill="#000000" fill-rule="evenodd" fill-opacity="1" /><path clip-path="url(#clip1300)" d="M 0 0 M133.797 1586.77 L146.274 1586.77 L146.274 1590.57 L133.797 1590.57 L133.797 1586.77 Z" fill="#000000" fill-rule="evenodd" fill-opacity="1" /><path clip-path="url(#clip1300)" d="M 0 0 M161.344 1570.18 Q157.732 1570.18 155.904 1573.74 Q154.098 1577.28 154.098 1584.41 Q154.098 1591.52 155.904 1595.08 Q157.732 1598.63 161.344 1598.63 Q164.978 1598.63 166.783 1595.08 Q168.612 1591.52 168.612 1584.41 Q168.612 1577.28 166.783 1573.74 Q164.978 1570.18 161.344 1570.18 M161.344 1566.47 Q167.154 1566.47 170.209 1571.08 Q173.288 1575.66 173.288 1584.41 Q173.288 1593.14 170.209 1597.75 Q167.154 1602.33 161.344 1602.33 Q155.533 1602.33 152.455 1597.75 Q149.399 1593.14 149.399 1584.41 Q149.399 1575.66 152.455 1571.08 Q155.533 1566.47 161.344 1566.47 Z" fill="#000000" fill-rule="evenodd" fill-opacity="1" /><path clip-path="url(#clip1300)" d="M 0 0 M178.357 1595.78 L183.242 1595.78 L183.242 1601.66 L178.357 1601.66 L178.357 1595.78 Z" fill="#000000" fill-rule="evenodd" fill-opacity="1" /><path clip-path="url(#clip1300)" d="M 0 0 M198.311 1570.18 Q194.7 1570.18 192.871 1573.74 Q191.066 1577.28 191.066 1584.41 Q191.066 1591.52 192.871 1595.08 Q194.7 1598.63 198.311 1598.63 Q201.945 1598.63 203.751 1595.08 Q205.579 1591.52 205.579 1584.41 Q205.579 1577.28 203.751 1573.74 Q201.945 1570.18 198.311 1570.18 M198.311 1566.47 Q204.121 1566.47 207.177 1571.08 Q210.255 1575.66 210.255 1584.41 Q210.255 1593.14 207.177 1597.75 Q204.121 1602.33 198.311 1602.33 Q192.501 1602.33 189.422 1597.75 Q186.367 1593.14 186.367 1584.41 Q186.367 1575.66 189.422 1571.08 Q192.501 1566.47 198.311 1566.47 Z" fill="#000000" fill-rule="evenodd" fill-opacity="1" /><path clip-path="url(#clip1300)" d="M 0 0 M219.352 1597.72 L235.672 1597.72 L235.672 1601.66 L213.727 1601.66 L213.727 1597.72 Q216.39 1594.97 220.973 1590.34 Q225.579 1585.69 226.76 1584.34 Q229.005 1581.82 229.885 1580.08 Q230.788 1578.33 230.788 1576.64 Q230.788 1573.88 228.843 1572.15 Q226.922 1570.41 223.82 1570.41 Q221.621 1570.41 219.167 1571.17 Q216.737 1571.94 213.959 1573.49 L213.959 1568.77 Q216.783 1567.63 219.237 1567.05 Q221.69 1566.47 223.727 1566.47 Q229.098 1566.47 232.292 1569.16 Q235.487 1571.84 235.487 1576.33 Q235.487 1578.46 234.676 1580.39 Q233.889 1582.28 231.783 1584.88 Q231.204 1585.55 228.102 1588.77 Q225.001 1591.96 219.352 1597.72 Z" fill="#000000" fill-rule="evenodd" fill-opacity="1" /><path clip-path="url(#clip1300)" d="M 0 0 M240.788 1567.1 L259.144 1567.1 L259.144 1571.03 L245.07 1571.03 L245.07 1579.51 Q246.088 1579.16 247.107 1579 Q248.125 1578.81 249.144 1578.81 Q254.931 1578.81 258.311 1581.98 Q261.69 1585.15 261.69 1590.57 Q261.69 1596.15 258.218 1599.25 Q254.746 1602.33 248.426 1602.33 Q246.25 1602.33 243.982 1601.96 Q241.737 1601.59 239.329 1600.85 L239.329 1596.15 Q241.413 1597.28 243.635 1597.84 Q245.857 1598.39 248.334 1598.39 Q252.338 1598.39 254.676 1596.29 Q257.014 1594.18 257.014 1590.57 Q257.014 1586.96 254.676 1584.85 Q252.338 1582.75 248.334 1582.75 Q246.459 1582.75 244.584 1583.16 Q242.732 1583.58 240.788 1584.46 L240.788 1567.1 Z" fill="#000000" fill-rule="evenodd" fill-opacity="1" /><path clip-path="url(#clip1300)" d="M 0 0 M158.751 1134.66 Q155.14 1134.66 153.311 1138.22 Q151.506 1141.76 151.506 1148.89 Q151.506 1156 153.311 1159.56 Q155.14 1163.1 158.751 1163.1 Q162.385 1163.1 164.191 1159.56 Q166.019 1156 166.019 1148.89 Q166.019 1141.76 164.191 1138.22 Q162.385 1134.66 158.751 1134.66 M158.751 1130.95 Q164.561 1130.95 167.617 1135.56 Q170.695 1140.14 170.695 1148.89 Q170.695 1157.62 167.617 1162.23 Q164.561 1166.81 158.751 1166.81 Q152.941 1166.81 149.862 1162.23 Q146.807 1157.62 146.807 1148.89 Q146.807 1140.14 149.862 1135.56 Q152.941 1130.95 158.751 1130.95 Z" fill="#000000" fill-rule="evenodd" fill-opacity="1" /><path clip-path="url(#clip1300)" d="M 0 0 M175.765 1160.26 L180.649 1160.26 L180.649 1166.14 L175.765 1166.14 L175.765 1160.26 Z" fill="#000000" fill-rule="evenodd" fill-opacity="1" /><path clip-path="url(#clip1300)" d="M 0 0 M195.718 1134.66 Q192.107 1134.66 190.279 1138.22 Q188.473 1141.76 188.473 1148.89 Q188.473 1156 190.279 1159.56 Q192.107 1163.1 195.718 1163.1 Q199.353 1163.1 201.158 1159.56 Q202.987 1156 202.987 1148.89 Q202.987 1141.76 201.158 1138.22 Q199.353 1134.66 195.718 1134.66 M195.718 1130.95 Q201.528 1130.95 204.584 1135.56 Q207.663 1140.14 207.663 1148.89 Q207.663 1157.62 204.584 1162.23 Q201.528 1166.81 195.718 1166.81 Q189.908 1166.81 186.829 1162.23 Q183.774 1157.62 183.774 1148.89 Q183.774 1140.14 186.829 1135.56 Q189.908 1130.95 195.718 1130.95 Z" fill="#000000" fill-rule="evenodd" fill-opacity="1" /><path clip-path="url(#clip1300)" d="M 0 0 M222.732 1134.66 Q219.121 1134.66 217.292 1138.22 Q215.487 1141.76 215.487 1148.89 Q215.487 1156 217.292 1159.56 Q219.121 1163.1 222.732 1163.1 Q226.366 1163.1 228.172 1159.56 Q230.001 1156 230.001 1148.89 Q230.001 1141.76 228.172 1138.22 Q226.366 1134.66 222.732 1134.66 M222.732 1130.95 Q228.542 1130.95 231.598 1135.56 Q234.676 1140.14 234.676 1148.89 Q234.676 1157.62 231.598 1162.23 Q228.542 1166.81 222.732 1166.81 Q216.922 1166.81 213.843 1162.23 Q210.788 1157.62 210.788 1148.89 Q210.788 1140.14 213.843 1135.56 Q216.922 1130.95 222.732 1130.95 Z" fill="#000000" fill-rule="evenodd" fill-opacity="1" /><path clip-path="url(#clip1300)" d="M 0 0 M249.746 1134.66 Q246.135 1134.66 244.306 1138.22 Q242.5 1141.76 242.5 1148.89 Q242.5 1156 244.306 1159.56 Q246.135 1163.1 249.746 1163.1 Q253.38 1163.1 255.186 1159.56 Q257.014 1156 257.014 1148.89 Q257.014 1141.76 255.186 1138.22 Q253.38 1134.66 249.746 1134.66 M249.746 1130.95 Q255.556 1130.95 258.612 1135.56 Q261.69 1140.14 261.69 1148.89 Q261.69 1157.62 258.612 1162.23 Q255.556 1166.81 249.746 1166.81 Q243.936 1166.81 240.857 1162.23 Q237.801 1157.62 237.801 1148.89 Q237.801 1140.14 240.857 1135.56 Q243.936 1130.95 249.746 1130.95 Z" fill="#000000" fill-rule="evenodd" fill-opacity="1" /><path clip-path="url(#clip1300)" d="M 0 0 M161.344 699.135 Q157.732 699.135 155.904 702.699 Q154.098 706.241 154.098 713.371 Q154.098 720.477 155.904 724.042 Q157.732 727.583 161.344 727.583 Q164.978 727.583 166.783 724.042 Q168.612 720.477 168.612 713.371 Q168.612 706.241 166.783 702.699 Q164.978 699.135 161.344 699.135 M161.344 695.431 Q167.154 695.431 170.209 700.037 Q173.288 704.621 173.288 713.371 Q173.288 722.097 170.209 726.704 Q167.154 731.287 161.344 731.287 Q155.533 731.287 152.455 726.704 Q149.399 722.097 149.399 713.371 Q149.399 704.621 152.455 700.037 Q155.533 695.431 161.344 695.431 Z" fill="#000000" fill-rule="evenodd" fill-opacity="1" /><path clip-path="url(#clip1300)" d="M 0 0 M178.357 724.736 L183.242 724.736 L183.242 730.616 L178.357 730.616 L178.357 724.736 Z" fill="#000000" fill-rule="evenodd" fill-opacity="1" /><path clip-path="url(#clip1300)" d="M 0 0 M198.311 699.135 Q194.7 699.135 192.871 702.699 Q191.066 706.241 191.066 713.371 Q191.066 720.477 192.871 724.042 Q194.7 727.583 198.311 727.583 Q201.945 727.583 203.751 724.042 Q205.579 720.477 205.579 713.371 Q205.579 706.241 203.751 702.699 Q201.945 699.135 198.311 699.135 M198.311 695.431 Q204.121 695.431 207.177 700.037 Q210.255 704.621 210.255 713.371 Q210.255 722.097 207.177 726.704 Q204.121 731.287 198.311 731.287 Q192.501 731.287 189.422 726.704 Q186.367 722.097 186.367 713.371 Q186.367 704.621 189.422 700.037 Q192.501 695.431 198.311 695.431 Z" fill="#000000" fill-rule="evenodd" fill-opacity="1" /><path clip-path="url(#clip1300)" d="M 0 0 M219.352 726.681 L235.672 726.681 L235.672 730.616 L213.727 730.616 L213.727 726.681 Q216.39 723.926 220.973 719.296 Q225.579 714.644 226.76 713.301 Q229.005 710.778 229.885 709.042 Q230.788 707.283 230.788 705.593 Q230.788 702.838 228.843 701.102 Q226.922 699.366 223.82 699.366 Q221.621 699.366 219.167 700.13 Q216.737 700.894 213.959 702.445 L213.959 697.723 Q216.783 696.588 219.237 696.01 Q221.69 695.431 223.727 695.431 Q229.098 695.431 232.292 698.116 Q235.487 700.801 235.487 705.292 Q235.487 707.422 234.676 709.343 Q233.889 711.241 231.783 713.834 Q231.204 714.505 228.102 717.722 Q225.001 720.917 219.352 726.681 Z" fill="#000000" fill-rule="evenodd" fill-opacity="1" /><path clip-path="url(#clip1300)" d="M 0 0 M240.788 696.056 L259.144 696.056 L259.144 699.991 L245.07 699.991 L245.07 708.463 Q246.088 708.116 247.107 707.954 Q248.125 707.769 249.144 707.769 Q254.931 707.769 258.311 710.94 Q261.69 714.111 261.69 719.528 Q261.69 725.107 258.218 728.208 Q254.746 731.287 248.426 731.287 Q246.25 731.287 243.982 730.917 Q241.737 730.546 239.329 729.806 L239.329 725.107 Q241.413 726.241 243.635 726.796 Q245.857 727.352 248.334 727.352 Q252.338 727.352 254.676 725.246 Q257.014 723.139 257.014 719.528 Q257.014 715.917 254.676 713.81 Q252.338 711.704 248.334 711.704 Q246.459 711.704 244.584 712.121 Q242.732 712.537 240.788 713.417 L240.788 696.056 Z" fill="#000000" fill-rule="evenodd" fill-opacity="1" /><path clip-path="url(#clip1300)" d="M 0 0 M159.746 263.613 Q156.135 263.613 154.307 267.178 Q152.501 270.72 152.501 277.849 Q152.501 284.956 154.307 288.52 Q156.135 292.062 159.746 292.062 Q163.381 292.062 165.186 288.52 Q167.015 284.956 167.015 277.849 Q167.015 270.72 165.186 267.178 Q163.381 263.613 159.746 263.613 M159.746 259.909 Q165.556 259.909 168.612 264.516 Q171.691 269.099 171.691 277.849 Q171.691 286.576 168.612 291.182 Q165.556 295.766 159.746 295.766 Q153.936 295.766 150.857 291.182 Q147.802 286.576 147.802 277.849 Q147.802 269.099 150.857 264.516 Q153.936 259.909 159.746 259.909 Z" fill="#000000" fill-rule="evenodd" fill-opacity="1" /><path clip-path="url(#clip1300)" d="M 0 0 M176.76 289.215 L181.644 289.215 L181.644 295.094 L176.76 295.094 L176.76 289.215 Z" fill="#000000" fill-rule="evenodd" fill-opacity="1" /><path clip-path="url(#clip1300)" d="M 0 0 M196.714 263.613 Q193.103 263.613 191.274 267.178 Q189.468 270.72 189.468 277.849 Q189.468 284.956 191.274 288.52 Q193.103 292.062 196.714 292.062 Q200.348 292.062 202.153 288.52 Q203.982 284.956 203.982 277.849 Q203.982 270.72 202.153 267.178 Q200.348 263.613 196.714 263.613 M196.714 259.909 Q202.524 259.909 205.579 264.516 Q208.658 269.099 208.658 277.849 Q208.658 286.576 205.579 291.182 Q202.524 295.766 196.714 295.766 Q190.904 295.766 187.825 291.182 Q184.769 286.576 184.769 277.849 Q184.769 269.099 187.825 264.516 Q190.904 259.909 196.714 259.909 Z" fill="#000000" fill-rule="evenodd" fill-opacity="1" /><path clip-path="url(#clip1300)" d="M 0 0 M213.774 260.534 L232.13 260.534 L232.13 264.47 L218.056 264.47 L218.056 272.942 Q219.075 272.595 220.093 272.433 Q221.112 272.247 222.13 272.247 Q227.917 272.247 231.297 275.419 Q234.676 278.59 234.676 284.007 Q234.676 289.585 231.204 292.687 Q227.732 295.766 221.413 295.766 Q219.237 295.766 216.968 295.395 Q214.723 295.025 212.315 294.284 L212.315 289.585 Q214.399 290.719 216.621 291.275 Q218.843 291.831 221.32 291.831 Q225.325 291.831 227.663 289.724 Q230.001 287.618 230.001 284.007 Q230.001 280.395 227.663 278.289 Q225.325 276.182 221.32 276.182 Q219.445 276.182 217.57 276.599 Q215.718 277.016 213.774 277.895 L213.774 260.534 Z" fill="#000000" fill-rule="evenodd" fill-opacity="1" /><path clip-path="url(#clip1300)" d="M 0 0 M249.746 263.613 Q246.135 263.613 244.306 267.178 Q242.5 270.72 242.5 277.849 Q242.5 284.956 244.306 288.52 Q246.135 292.062 249.746 292.062 Q253.38 292.062 255.186 288.52 Q257.014 284.956 257.014 277.849 Q257.014 270.72 255.186 267.178 Q253.38 263.613 249.746 263.613 M249.746 259.909 Q255.556 259.909 258.612 264.516 Q261.69 269.099 261.69 277.849 Q261.69 286.576 258.612 291.182 Q255.556 295.766 249.746 295.766 Q243.936 295.766 240.857 291.182 Q237.801 286.576 237.801 277.849 Q237.801 269.099 240.857 264.516 Q243.936 259.909 249.746 259.909 Z" fill="#000000" fill-rule="evenodd" fill-opacity="1" /><path clip-path="url(#clip1300)" d="M 0 0 M890.324 45.1919 L890.324 72.576 L882.87 72.576 L882.87 45.4349 Q882.87 38.994 880.358 35.7938 Q877.847 32.5936 872.824 32.5936 Q866.788 32.5936 863.304 36.4419 Q859.82 40.2903 859.82 46.9338 L859.82 72.576 L852.326 72.576 L852.326 9.54393 L859.82 9.54393 L859.82 34.2544 Q862.494 30.163 866.099 28.1376 Q869.745 26.1121 874.485 26.1121 Q882.303 26.1121 886.313 30.9732 Q890.324 35.7938 890.324 45.1919 Z" fill="#000000" fill-rule="evenodd" fill-opacity="1" /><path clip-path="url(#clip1300)" d="M 0 0 M915.723 32.4315 Q909.728 32.4315 906.244 37.1306 Q902.76 41.7891 902.76 49.9314 Q902.76 58.0738 906.203 62.7728 Q909.687 67.4314 915.723 67.4314 Q921.678 67.4314 925.161 62.7323 Q928.645 58.0333 928.645 49.9314 Q928.645 41.8701 925.161 37.1711 Q921.678 32.4315 915.723 32.4315 M915.723 26.1121 Q925.445 26.1121 930.995 32.4315 Q936.545 38.7509 936.545 49.9314 Q936.545 61.0714 930.995 67.4314 Q925.445 73.7508 915.723 73.7508 Q905.96 73.7508 900.41 67.4314 Q894.901 61.0714 894.901 49.9314 Q894.901 38.7509 900.41 32.4315 Q905.96 26.1121 915.723 26.1121 Z" fill="#000000" fill-rule="evenodd" fill-opacity="1" /><path clip-path="url(#clip1300)" d="M 0 0 M939.016 27.2059 L946.915 27.2059 L961.093 65.2844 L975.271 27.2059 L983.17 27.2059 L966.157 72.576 L956.029 72.576 L939.016 27.2059 Z" fill="#000000" fill-rule="evenodd" fill-opacity="1" /><path clip-path="url(#clip1300)" d="M 0 0 M1029.8 48.0275 L1029.8 51.6733 L995.526 51.6733 Q996.012 59.3701 1000.14 63.421 Q1004.32 67.4314 1011.73 67.4314 Q1016.02 67.4314 1020.03 66.3781 Q1024.08 65.3249 1028.05 63.2184 L1028.05 70.267 Q1024.04 71.9684 1019.83 72.8596 Q1015.62 73.7508 1011.28 73.7508 Q1000.43 73.7508 994.067 67.4314 Q987.748 61.1119 987.748 50.3365 Q987.748 39.1965 993.743 32.6746 Q999.779 26.1121 1009.99 26.1121 Q1019.14 26.1121 1024.45 32.0264 Q1029.8 37.9003 1029.8 48.0275 M1022.34 45.84 Q1022.26 39.7232 1018.9 36.0774 Q1015.58 32.4315 1010.07 32.4315 Q1003.83 32.4315 1000.06 35.9558 Q996.336 39.4801 995.769 45.8805 L1022.34 45.84 Z" fill="#000000" fill-rule="evenodd" fill-opacity="1" /><path clip-path="url(#clip1300)" d="M 0 0 M1063.9 34.1734 Q1062.65 33.4443 1061.15 33.1202 Q1059.69 32.7556 1057.91 32.7556 Q1051.59 32.7556 1048.19 36.8875 Q1044.83 40.9789 1044.83 48.6757 L1044.83 72.576 L1037.33 72.576 L1037.33 27.2059 L1044.83 27.2059 L1044.83 34.2544 Q1047.17 30.1225 1050.94 28.1376 Q1054.71 26.1121 1060.1 26.1121 Q1060.87 26.1121 1061.8 26.2337 Q1062.73 26.3147 1063.86 26.5172 L1063.9 34.1734 Z" fill="#000000" fill-rule="evenodd" fill-opacity="1" /><path clip-path="url(#clip1300)" d="M 0 0 M1062.65 46.5287 L1084.48 46.5287 L1084.48 53.1722 L1062.65 53.1722 L1062.65 46.5287 Z" fill="#000000" fill-rule="evenodd" fill-opacity="1" /><path clip-path="url(#clip1300)" d="M 0 0 M1094.77 65.6895 L1108.14 65.6895 L1108.14 19.5497 L1093.6 22.4663 L1093.6 15.0127 L1108.06 12.096 L1116.24 12.096 L1116.24 65.6895 L1129.61 65.6895 L1129.61 72.576 L1094.77 72.576 L1094.77 65.6895 Z" fill="#000000" fill-rule="evenodd" fill-opacity="1" /><path clip-path="url(#clip1300)" d="M 0 0 M1155.98 17.4837 Q1149.66 17.4837 1146.46 23.7221 Q1143.3 29.92 1143.3 42.3968 Q1143.3 54.833 1146.46 61.0714 Q1149.66 67.2693 1155.98 67.2693 Q1162.34 67.2693 1165.5 61.0714 Q1168.7 54.833 1168.7 42.3968 Q1168.7 29.92 1165.5 23.7221 Q1162.34 17.4837 1155.98 17.4837 M1155.98 11.0023 Q1166.15 11.0023 1171.5 19.0636 Q1176.88 27.0843 1176.88 42.3968 Q1176.88 57.6687 1171.5 65.73 Q1166.15 73.7508 1155.98 73.7508 Q1145.81 73.7508 1140.43 65.73 Q1135.08 57.6687 1135.08 42.3968 Q1135.08 27.0843 1140.43 19.0636 Q1145.81 11.0023 1155.98 11.0023 Z" fill="#000000" fill-rule="evenodd" fill-opacity="1" /><path clip-path="url(#clip1300)" d="M 0 0 M1207.31 46.5287 L1229.14 46.5287 L1229.14 53.1722 L1207.31 53.1722 L1207.31 46.5287 Z" fill="#000000" fill-rule="evenodd" fill-opacity="1" /><path clip-path="url(#clip1300)" d="M 0 0 M1283.87 20.1573 L1272.77 50.2555 L1295.01 50.2555 L1283.87 20.1573 M1279.25 12.096 L1288.53 12.096 L1311.58 72.576 L1303.07 72.576 L1297.56 57.061 L1270.3 57.061 L1264.79 72.576 L1256.16 72.576 L1279.25 12.096 Z" fill="#000000" fill-rule="evenodd" fill-opacity="1" /><path clip-path="url(#clip1300)" d="M 0 0 M1349.25 49.3643 Q1349.25 41.2625 1345.89 36.8065 Q1342.57 32.3505 1336.53 32.3505 Q1330.54 32.3505 1327.17 36.8065 Q1323.85 41.2625 1323.85 49.3643 Q1323.85 57.4256 1327.17 61.8816 Q1330.54 66.3376 1336.53 66.3376 Q1342.57 66.3376 1345.89 61.8816 Q1349.25 57.4256 1349.25 49.3643 M1356.7 66.9452 Q1356.7 78.5308 1351.56 84.1616 Q1346.42 89.8329 1335.8 89.8329 Q1331.87 89.8329 1328.39 89.2252 Q1324.9 88.6581 1321.62 87.4428 L1321.62 80.1917 Q1324.9 81.9741 1328.1 82.8248 Q1331.31 83.6755 1334.63 83.6755 Q1341.96 83.6755 1345.6 79.8271 Q1349.25 76.0193 1349.25 68.282 L1349.25 64.5957 Q1346.94 68.6061 1343.34 70.5911 Q1339.73 72.576 1334.71 72.576 Q1326.36 72.576 1321.26 66.2161 Q1316.15 59.8562 1316.15 49.3643 Q1316.15 38.832 1321.26 32.472 Q1326.36 26.1121 1334.71 26.1121 Q1339.73 26.1121 1343.34 28.0971 Q1346.94 30.082 1349.25 34.0924 L1349.25 27.2059 L1356.7 27.2059 L1356.7 66.9452 Z" fill="#000000" fill-rule="evenodd" fill-opacity="1" /><path clip-path="url(#clip1300)" d="M 0 0 M1403.33 48.0275 L1403.33 51.6733 L1369.06 51.6733 Q1369.55 59.3701 1373.68 63.421 Q1377.85 67.4314 1385.26 67.4314 Q1389.56 67.4314 1393.57 66.3781 Q1397.62 65.3249 1401.59 63.2184 L1401.59 70.267 Q1397.58 71.9684 1393.36 72.8596 Q1389.15 73.7508 1384.82 73.7508 Q1373.96 73.7508 1367.6 67.4314 Q1361.28 61.1119 1361.28 50.3365 Q1361.28 39.1965 1367.28 32.6746 Q1373.31 26.1121 1383.52 26.1121 Q1392.68 26.1121 1397.98 32.0264 Q1403.33 37.9003 1403.33 48.0275 M1395.88 45.84 Q1395.8 39.7232 1392.43 36.0774 Q1389.11 32.4315 1383.6 32.4315 Q1377.36 32.4315 1373.6 35.9558 Q1369.87 39.4801 1369.3 45.8805 L1395.88 45.84 Z" fill="#000000" fill-rule="evenodd" fill-opacity="1" /><path clip-path="url(#clip1300)" d="M 0 0 M1448.86 45.1919 L1448.86 72.576 L1441.41 72.576 L1441.41 45.4349 Q1441.41 38.994 1438.9 35.7938 Q1436.39 32.5936 1431.36 32.5936 Q1425.33 32.5936 1421.84 36.4419 Q1418.36 40.2903 1418.36 46.9338 L1418.36 72.576 L1410.86 72.576 L1410.86 27.2059 L1418.36 27.2059 L1418.36 34.2544 Q1421.03 30.163 1424.64 28.1376 Q1428.28 26.1121 1433.02 26.1121 Q1440.84 26.1121 1444.85 30.9732 Q1448.86 35.7938 1448.86 45.1919 Z" fill="#000000" fill-rule="evenodd" fill-opacity="1" /><path clip-path="url(#clip1300)" d="M 0 0 M1464.05 14.324 L1464.05 27.2059 L1479.41 27.2059 L1479.41 32.9987 L1464.05 32.9987 L1464.05 57.6282 Q1464.05 63.1779 1465.55 64.7578 Q1467.09 66.3376 1471.75 66.3376 L1479.41 66.3376 L1479.41 72.576 L1471.75 72.576 Q1463.12 72.576 1459.84 69.3758 Q1456.56 66.1351 1456.56 57.6282 L1456.56 32.9987 L1451.09 32.9987 L1451.09 27.2059 L1456.56 27.2059 L1456.56 14.324 L1464.05 14.324 Z" fill="#000000" fill-rule="evenodd" fill-opacity="1" /><path clip-path="url(#clip1300)" d="M 0 0 M1550.18 14.0809 L1550.18 22.0612 Q1545.52 19.8332 1541.39 18.7395 Q1537.25 17.6457 1533.4 17.6457 Q1526.72 17.6457 1523.07 20.2383 Q1519.47 22.8309 1519.47 27.611 Q1519.47 31.6214 1521.86 33.6873 Q1524.29 35.7128 1531.01 36.9686 L1535.96 37.9813 Q1545.11 39.7232 1549.45 44.1387 Q1553.82 48.5136 1553.82 55.8863 Q1553.82 64.6767 1547.91 69.2137 Q1542.03 73.7508 1530.65 73.7508 Q1526.36 73.7508 1521.5 72.7785 Q1516.67 71.8063 1511.49 69.9024 L1511.49 61.4765 Q1516.47 64.2716 1521.25 65.6895 Q1526.03 67.1073 1530.65 67.1073 Q1537.66 67.1073 1541.47 64.3527 Q1545.27 61.598 1545.27 56.4939 Q1545.27 52.0379 1542.52 49.5264 Q1539.81 47.0148 1533.57 45.759 L1528.58 44.7868 Q1519.43 42.9639 1515.34 39.075 Q1511.25 35.1862 1511.25 28.2591 Q1511.25 20.2383 1516.88 15.6203 Q1522.55 11.0023 1532.47 11.0023 Q1536.73 11.0023 1541.14 11.7719 Q1545.56 12.5416 1550.18 14.0809 Z" fill="#000000" fill-rule="evenodd" fill-opacity="1" /><path clip-path="url(#clip1300)" d="M 0 0 M1569.01 14.324 L1569.01 27.2059 L1584.37 27.2059 L1584.37 32.9987 L1569.01 32.9987 L1569.01 57.6282 Q1569.01 63.1779 1570.51 64.7578 Q1572.05 66.3376 1576.71 66.3376 L1584.37 66.3376 L1584.37 72.576 L1576.71 72.576 Q1568.08 72.576 1564.8 69.3758 Q1561.52 66.1351 1561.52 57.6282 L1561.52 32.9987 L1556.05 32.9987 L1556.05 27.2059 L1561.52 27.2059 L1561.52 14.324 L1569.01 14.324 Z" fill="#000000" fill-rule="evenodd" fill-opacity="1" /><path clip-path="url(#clip1300)" d="M 0 0 M1612.8 49.7694 Q1603.77 49.7694 1600.29 51.8354 Q1596.8 53.9013 1596.8 58.8839 Q1596.8 62.8538 1599.39 65.2034 Q1602.03 67.5124 1606.52 67.5124 Q1612.72 67.5124 1616.45 63.1374 Q1620.22 58.7219 1620.22 51.4303 L1620.22 49.7694 L1612.8 49.7694 M1627.67 46.6907 L1627.67 72.576 L1620.22 72.576 L1620.22 65.6895 Q1617.66 69.8214 1613.86 71.8063 Q1610.05 73.7508 1604.54 73.7508 Q1597.57 73.7508 1593.44 69.8619 Q1589.35 65.9325 1589.35 59.3701 Q1589.35 51.7138 1594.45 47.825 Q1599.6 43.9361 1609.76 43.9361 L1620.22 43.9361 L1620.22 43.2069 Q1620.22 38.0623 1616.81 35.2672 Q1613.45 32.4315 1607.33 32.4315 Q1603.44 32.4315 1599.76 33.3632 Q1596.07 34.295 1592.67 36.1584 L1592.67 29.2718 Q1596.76 27.692 1600.61 26.9223 Q1604.46 26.1121 1608.1 26.1121 Q1617.95 26.1121 1622.81 31.2163 Q1627.67 36.3204 1627.67 46.6907 Z" fill="#000000" fill-rule="evenodd" fill-opacity="1" /><path clip-path="url(#clip1300)" d="M 0 0 M1642.86 14.324 L1642.86 27.2059 L1658.21 27.2059 L1658.21 32.9987 L1642.86 32.9987 L1642.86 57.6282 Q1642.86 63.1779 1644.36 64.7578 Q1645.9 66.3376 1650.56 66.3376 L1658.21 66.3376 L1658.21 72.576 L1650.56 72.576 Q1641.93 72.576 1638.65 69.3758 Q1635.37 66.1351 1635.37 57.6282 L1635.37 32.9987 L1629.9 32.9987 L1629.9 27.2059 L1635.37 27.2059 L1635.37 14.324 L1642.86 14.324 Z" fill="#000000" fill-rule="evenodd" fill-opacity="1" /><path clip-path="url(#clip1300)" d="M 0 0 M1704.84 48.0275 L1704.84 51.6733 L1670.57 51.6733 Q1671.05 59.3701 1675.19 63.421 Q1679.36 67.4314 1686.77 67.4314 Q1691.07 67.4314 1695.08 66.3781 Q1699.13 65.3249 1703.1 63.2184 L1703.1 70.267 Q1699.09 71.9684 1694.87 72.8596 Q1690.66 73.7508 1686.33 73.7508 Q1675.47 73.7508 1669.11 67.4314 Q1662.79 61.1119 1662.79 50.3365 Q1662.79 39.1965 1668.79 32.6746 Q1674.82 26.1121 1685.03 26.1121 Q1694.19 26.1121 1699.49 32.0264 Q1704.84 37.9003 1704.84 48.0275 M1697.39 45.84 Q1697.3 39.7232 1693.94 36.0774 Q1690.62 32.4315 1685.11 32.4315 Q1678.87 32.4315 1675.11 35.9558 Q1671.38 39.4801 1670.81 45.8805 L1697.39 45.84 Z" fill="#000000" fill-rule="evenodd" fill-opacity="1" /><path clip-path="url(#clip1300)" d="M 0 0 M1741.58 28.5427 L1741.58 35.5912 Q1738.42 33.9709 1735.02 33.1607 Q1731.62 32.3505 1727.97 32.3505 Q1722.42 32.3505 1719.62 34.0519 Q1716.87 35.7533 1716.87 39.156 Q1716.87 41.7486 1718.86 43.2475 Q1720.84 44.7058 1726.84 46.0426 L1729.39 46.6097 Q1737.33 48.3111 1740.65 51.4303 Q1744.01 54.509 1744.01 60.0587 Q1744.01 66.3781 1738.99 70.0644 Q1734.01 73.7508 1725.26 73.7508 Q1721.61 73.7508 1717.64 73.0216 Q1713.71 72.3329 1709.34 70.9151 L1709.34 63.2184 Q1713.47 65.3654 1717.48 66.4591 Q1721.49 67.5124 1725.42 67.5124 Q1730.68 67.5124 1733.52 65.73 Q1736.36 63.9071 1736.36 60.6258 Q1736.36 57.5877 1734.29 55.9673 Q1732.26 54.3469 1725.34 52.8481 L1722.74 52.2405 Q1715.82 50.7821 1712.74 47.7845 Q1709.66 44.7463 1709.66 39.4801 Q1709.66 33.0797 1714.2 29.5959 Q1718.73 26.1121 1727.08 26.1121 Q1731.21 26.1121 1734.86 26.7198 Q1738.5 27.3274 1741.58 28.5427 Z" fill="#000000" fill-rule="evenodd" fill-opacity="1" /><path clip-path="url(#clip1300)" d="M 0 0 M1803.07 17.6457 Q1794.16 17.6457 1788.9 24.2892 Q1783.67 30.9327 1783.67 42.3968 Q1783.67 53.8203 1788.9 60.4638 Q1794.16 67.1073 1803.07 67.1073 Q1811.99 67.1073 1817.17 60.4638 Q1822.4 53.8203 1822.4 42.3968 Q1822.4 30.9327 1817.17 24.2892 Q1811.99 17.6457 1803.07 17.6457 M1814.54 71.4823 L1825.31 83.2704 L1815.43 83.2704 L1806.48 73.5887 Q1805.14 73.6697 1804.41 73.7103 Q1803.72 73.7508 1803.07 73.7508 Q1790.31 73.7508 1782.66 65.2439 Q1775.04 56.6965 1775.04 42.3968 Q1775.04 28.0566 1782.66 19.5497 Q1790.31 11.0023 1803.07 11.0023 Q1815.79 11.0023 1823.41 19.5497 Q1831.02 28.0566 1831.02 42.3968 Q1831.02 52.9291 1826.77 60.4233 Q1822.56 67.9175 1814.54 71.4823 Z" fill="#000000" fill-rule="evenodd" fill-opacity="1" /><path clip-path="url(#clip1300)" d="M 0 0 M1841.88 67.958 L1859.06 67.958 L1859.06 72.576 L1834.83 72.576 L1834.83 68.12 Q1836.21 66.8642 1838.76 64.5957 Q1852.7 52.2405 1852.7 48.4326 Q1852.7 45.759 1850.59 44.1387 Q1848.48 42.4778 1845.04 42.4778 Q1842.93 42.4778 1840.46 43.2069 Q1837.99 43.8956 1835.08 45.3134 L1835.08 40.3308 Q1838.19 39.1965 1840.87 38.6294 Q1843.58 38.0623 1845.89 38.0623 Q1851.77 38.0623 1855.29 40.7359 Q1858.81 43.4095 1858.81 47.7845 Q1858.81 53.4152 1845.41 64.9198 Q1843.14 66.8642 1841.88 67.958 Z" fill="#000000" fill-rule="evenodd" fill-opacity="1" /><path clip-path="url(#clip1300)" d="M 0 0 M1893.57 12.096 L1931.81 12.096 L1931.81 18.9825 L1901.75 18.9825 L1901.75 36.8875 L1930.56 36.8875 L1930.56 43.7741 L1901.75 43.7741 L1901.75 65.6895 L1932.54 65.6895 L1932.54 72.576 L1893.57 72.576 L1893.57 12.096 Z" fill="#000000" fill-rule="evenodd" fill-opacity="1" /><path clip-path="url(#clip1300)" d="M 0 0 M1966.65 34.1734 Q1965.39 33.4443 1963.89 33.1202 Q1962.44 32.7556 1960.65 32.7556 Q1954.33 32.7556 1950.93 36.8875 Q1947.57 40.9789 1947.57 48.6757 L1947.57 72.576 L1940.08 72.576 L1940.08 27.2059 L1947.57 27.2059 L1947.57 34.2544 Q1949.92 30.1225 1953.69 28.1376 Q1957.45 26.1121 1962.84 26.1121 Q1963.61 26.1121 1964.54 26.2337 Q1965.47 26.3147 1966.61 26.5172 L1966.65 34.1734 Z" fill="#000000" fill-rule="evenodd" fill-opacity="1" /><path clip-path="url(#clip1300)" d="M 0 0 M1999.3 34.1734 Q1998.04 33.4443 1996.54 33.1202 Q1995.09 32.7556 1993.3 32.7556 Q1986.98 32.7556 1983.58 36.8875 Q1980.22 40.9789 1980.22 48.6757 L1980.22 72.576 L1972.73 72.576 L1972.73 27.2059 L1980.22 27.2059 L1980.22 34.2544 Q1982.57 30.1225 1986.34 28.1376 Q1990.1 26.1121 1995.49 26.1121 Q1996.26 26.1121 1997.19 26.2337 Q1998.12 26.3147 1999.26 26.5172 L1999.3 34.1734 Z" fill="#000000" fill-rule="evenodd" fill-opacity="1" /><path clip-path="url(#clip1300)" d="M 0 0 M2022.88 32.4315 Q2016.88 32.4315 2013.4 37.1306 Q2009.91 41.7891 2009.91 49.9314 Q2009.91 58.0738 2013.36 62.7728 Q2016.84 67.4314 2022.88 67.4314 Q2028.83 67.4314 2032.31 62.7323 Q2035.8 58.0333 2035.8 49.9314 Q2035.8 41.8701 2032.31 37.1711 Q2028.83 32.4315 2022.88 32.4315 M2022.88 26.1121 Q2032.6 26.1121 2038.15 32.4315 Q2043.7 38.7509 2043.7 49.9314 Q2043.7 61.0714 2038.15 67.4314 Q2032.6 73.7508 2022.88 73.7508 Q2013.11 73.7508 2007.56 67.4314 Q2002.05 61.0714 2002.05 49.9314 Q2002.05 38.7509 2007.56 32.4315 Q2013.11 26.1121 2022.88 26.1121 Z" fill="#000000" fill-rule="evenodd" fill-opacity="1" /><path clip-path="url(#clip1300)" d="M 0 0 M2077.81 34.1734 Q2076.55 33.4443 2075.05 33.1202 Q2073.59 32.7556 2071.81 32.7556 Q2065.49 32.7556 2062.09 36.8875 Q2058.73 40.9789 2058.73 48.6757 L2058.73 72.576 L2051.23 72.576 L2051.23 27.2059 L2058.73 27.2059 L2058.73 34.2544 Q2061.08 30.1225 2064.84 28.1376 Q2068.61 26.1121 2074 26.1121 Q2074.77 26.1121 2075.7 26.2337 Q2076.63 26.3147 2077.77 26.5172 L2077.81 34.1734 Z" fill="#000000" fill-rule="evenodd" fill-opacity="1" /><path clip-path="url(#clip1300)" d="M 0 0 M1346.9 2298.26 L1387.1 2298.26 L1387.1 2303.67 L1370.23 2303.67 L1370.23 2345.78 L1363.77 2345.78 L1363.77 2303.67 L1346.9 2303.67 L1346.9 2298.26 Z" fill="#000000" fill-rule="evenodd" fill-opacity="1" /><path clip-path="url(#clip1300)" d="M 0 0 M1391.24 2310.14 L1397.1 2310.14 L1397.1 2345.78 L1391.24 2345.78 L1391.24 2310.14 M1391.24 2296.26 L1397.1 2296.26 L1397.1 2303.67 L1391.24 2303.67 L1391.24 2296.26 Z" fill="#000000" fill-rule="evenodd" fill-opacity="1" /><path clip-path="url(#clip1300)" d="M 0 0 M1430.99 2316.98 Q1433.19 2313.03 1436.25 2311.15 Q1439.3 2309.28 1443.44 2309.28 Q1449.01 2309.28 1452.03 2313.19 Q1455.06 2317.07 1455.06 2324.27 L1455.06 2345.78 L1449.17 2345.78 L1449.17 2324.46 Q1449.17 2319.33 1447.35 2316.85 Q1445.54 2314.37 1441.82 2314.37 Q1437.26 2314.37 1434.62 2317.39 Q1431.98 2320.42 1431.98 2325.64 L1431.98 2345.78 L1426.09 2345.78 L1426.09 2324.46 Q1426.09 2319.3 1424.28 2316.85 Q1422.46 2314.37 1418.68 2314.37 Q1414.19 2314.37 1411.55 2317.42 Q1408.9 2320.45 1408.9 2325.64 L1408.9 2345.78 L1403.02 2345.78 L1403.02 2310.14 L1408.9 2310.14 L1408.9 2315.67 Q1410.91 2312.4 1413.71 2310.84 Q1416.51 2309.28 1420.36 2309.28 Q1424.25 2309.28 1426.95 2311.25 Q1429.69 2313.22 1430.99 2316.98 Z" fill="#000000" fill-rule="evenodd" fill-opacity="1" /><path clip-path="url(#clip1300)" d="M 0 0 M1491.69 2326.5 L1491.69 2329.36 L1464.76 2329.36 Q1465.15 2335.41 1468.39 2338.59 Q1471.67 2341.74 1477.5 2341.74 Q1480.87 2341.74 1484.02 2340.91 Q1487.2 2340.09 1490.32 2338.43 L1490.32 2343.97 Q1487.17 2345.31 1483.86 2346.01 Q1480.55 2346.71 1477.14 2346.71 Q1468.61 2346.71 1463.62 2341.74 Q1458.65 2336.78 1458.65 2328.31 Q1458.65 2319.56 1463.36 2314.43 Q1468.11 2309.28 1476.13 2309.28 Q1483.32 2309.28 1487.49 2313.92 Q1491.69 2318.54 1491.69 2326.5 M1485.83 2324.78 Q1485.77 2319.97 1483.13 2317.11 Q1480.52 2314.24 1476.19 2314.24 Q1471.29 2314.24 1468.33 2317.01 Q1465.4 2319.78 1464.95 2324.81 L1485.83 2324.78 Z" fill="#000000" fill-rule="evenodd" fill-opacity="1" /><path clip-path="url(#clip1300)" d="M 0 0 M1532.62 2296.32 Q1528.36 2303.64 1526.29 2310.8 Q1524.22 2317.97 1524.22 2325.32 Q1524.22 2332.67 1526.29 2339.9 Q1528.39 2347.09 1532.62 2354.38 L1527.53 2354.38 Q1522.76 2346.9 1520.37 2339.67 Q1518.01 2332.45 1518.01 2325.32 Q1518.01 2318.22 1520.37 2311.03 Q1522.72 2303.83 1527.53 2296.32 L1532.62 2296.32 Z" fill="#000000" fill-rule="evenodd" fill-opacity="1" /><path clip-path="url(#clip1300)" d="M 0 0 M1561.49 2311.19 L1561.49 2316.72 Q1559.01 2315.45 1556.33 2314.81 Q1553.66 2314.18 1550.8 2314.18 Q1546.44 2314.18 1544.24 2315.51 Q1542.08 2316.85 1542.08 2319.53 Q1542.08 2321.56 1543.63 2322.74 Q1545.19 2323.89 1549.9 2324.94 L1551.91 2325.38 Q1558.15 2326.72 1560.76 2329.17 Q1563.4 2331.59 1563.4 2335.95 Q1563.4 2340.91 1559.45 2343.81 Q1555.54 2346.71 1548.66 2346.71 Q1545.8 2346.71 1542.68 2346.13 Q1539.59 2345.59 1536.16 2344.48 L1536.16 2338.43 Q1539.4 2340.12 1542.55 2340.98 Q1545.7 2341.81 1548.79 2341.81 Q1552.93 2341.81 1555.16 2340.4 Q1557.38 2338.97 1557.38 2336.39 Q1557.38 2334.01 1555.76 2332.73 Q1554.17 2331.46 1548.73 2330.28 L1546.69 2329.81 Q1541.25 2328.66 1538.83 2326.3 Q1536.41 2323.92 1536.41 2319.78 Q1536.41 2314.75 1539.97 2312.01 Q1543.54 2309.28 1550.1 2309.28 Q1553.34 2309.28 1556.21 2309.75 Q1559.07 2310.23 1561.49 2311.19 Z" fill="#000000" fill-rule="evenodd" fill-opacity="1" /><path clip-path="url(#clip1300)" d="M 0 0 M1568.62 2296.32 L1573.71 2296.32 Q1578.49 2303.83 1580.84 2311.03 Q1583.23 2318.22 1583.23 2325.32 Q1583.23 2332.45 1580.84 2339.67 Q1578.49 2346.9 1573.71 2354.38 L1568.62 2354.38 Q1572.85 2347.09 1574.92 2339.9 Q1577.02 2332.67 1577.02 2325.32 Q1577.02 2317.97 1574.92 2310.8 Q1572.85 2303.64 1568.62 2296.32 Z" fill="#000000" fill-rule="evenodd" fill-opacity="1" /><path clip-path="url(#clip1300)" d="M 0 0 M38.4242 1364.07 L38.4242 1334.03 L43.835 1334.03 L43.835 1357.64 L57.9032 1357.64 L57.9032 1335.01 L63.3141 1335.01 L63.3141 1357.64 L80.5333 1357.64 L80.5333 1333.45 L85.9442 1333.45 L85.9442 1364.07 L38.4242 1364.07 Z" fill="#000000" fill-rule="evenodd" fill-opacity="1" /><path clip-path="url(#clip1300)" d="M 0 0 M55.7707 1306.65 Q55.1978 1307.64 54.9432 1308.82 Q54.6567 1309.96 54.6567 1311.36 Q54.6567 1316.33 57.9032 1319 Q61.1179 1321.64 67.1653 1321.64 L85.9442 1321.64 L85.9442 1327.53 L50.2962 1327.53 L50.2962 1321.64 L55.8344 1321.64 Q52.5879 1319.8 51.0283 1316.84 Q49.4368 1313.88 49.4368 1309.64 Q49.4368 1309.04 49.5323 1308.31 Q49.596 1307.58 49.7551 1306.68 L55.7707 1306.65 Z" fill="#000000" fill-rule="evenodd" fill-opacity="1" /><path clip-path="url(#clip1300)" d="M 0 0 M55.7707 1281 Q55.1978 1281.99 54.9432 1283.16 Q54.6567 1284.31 54.6567 1285.71 Q54.6567 1290.67 57.9032 1293.35 Q61.1179 1295.99 67.1653 1295.99 L85.9442 1295.99 L85.9442 1301.88 L50.2962 1301.88 L50.2962 1295.99 L55.8344 1295.99 Q52.5879 1294.14 51.0283 1291.18 Q49.4368 1288.22 49.4368 1283.99 Q49.4368 1283.39 49.5323 1282.65 Q49.596 1281.92 49.7551 1281.03 L55.7707 1281 Z" fill="#000000" fill-rule="evenodd" fill-opacity="1" /><path clip-path="url(#clip1300)" d="M 0 0 M54.4021 1262.47 Q54.4021 1267.19 58.0942 1269.92 Q61.7545 1272.66 68.152 1272.66 Q74.5495 1272.66 78.2417 1269.95 Q81.9019 1267.22 81.9019 1262.47 Q81.9019 1257.8 78.2098 1255.06 Q74.5177 1252.32 68.152 1252.32 Q61.8181 1252.32 58.126 1255.06 Q54.4021 1257.8 54.4021 1262.47 M49.4368 1262.47 Q49.4368 1254.84 54.4021 1250.48 Q59.3673 1246.12 68.152 1246.12 Q76.9049 1246.12 81.9019 1250.48 Q86.8672 1254.84 86.8672 1262.47 Q86.8672 1270.15 81.9019 1274.51 Q76.9049 1278.83 68.152 1278.83 Q59.3673 1278.83 54.4021 1274.51 Q49.4368 1270.15 49.4368 1262.47 Z" fill="#000000" fill-rule="evenodd" fill-opacity="1" /><path clip-path="url(#clip1300)" d="M 0 0 M55.7707 1219.32 Q55.1978 1220.3 54.9432 1221.48 Q54.6567 1222.63 54.6567 1224.03 Q54.6567 1228.99 57.9032 1231.66 Q61.1179 1234.31 67.1653 1234.31 L85.9442 1234.31 L85.9442 1240.19 L50.2962 1240.19 L50.2962 1234.31 L55.8344 1234.31 Q52.5879 1232.46 51.0283 1229.5 Q49.4368 1226.54 49.4368 1222.31 Q49.4368 1221.7 49.5323 1220.97 Q49.596 1220.24 49.7551 1219.35 L55.7707 1219.32 Z" fill="#000000" fill-rule="evenodd" fill-opacity="1" /><path clip-path="url(#clip1300)" d="M 0 0 M42.7847 1172.91 Q42.7847 1179.91 48.0045 1184.05 Q53.2244 1188.16 62.2319 1188.16 Q71.2075 1188.16 76.4274 1184.05 Q81.6473 1179.91 81.6473 1172.91 Q81.6473 1165.91 76.4274 1161.83 Q71.2075 1157.73 62.2319 1157.73 Q53.2244 1157.73 48.0045 1161.83 Q42.7847 1165.91 42.7847 1172.91 M85.0848 1163.9 L94.3469 1155.44 L94.3469 1163.2 L86.7399 1170.24 Q86.8035 1171.29 86.8354 1171.86 Q86.8672 1172.4 86.8672 1172.91 Q86.8672 1182.94 80.1832 1188.95 Q73.4674 1194.93 62.2319 1194.93 Q50.9646 1194.93 44.2806 1188.95 Q37.5648 1182.94 37.5648 1172.91 Q37.5648 1162.92 44.2806 1156.93 Q50.9646 1150.95 62.2319 1150.95 Q70.5073 1150.95 76.3956 1154.29 Q82.2839 1157.6 85.0848 1163.9 Z" fill="#000000" fill-rule="evenodd" fill-opacity="1" /><path clip-path="url(#clip1300)" d="M 0 0 M82.3157 1142.42 L82.3157 1128.92 L85.9442 1128.92 L85.9442 1147.96 L82.443 1147.96 Q81.4563 1146.87 79.6739 1144.87 Q69.9662 1133.92 66.9744 1133.92 Q64.8737 1133.92 63.6005 1135.57 Q62.2956 1137.23 62.2956 1139.94 Q62.2956 1141.59 62.8685 1143.53 Q63.4096 1145.47 64.5236 1147.76 L60.6086 1147.76 Q59.7174 1145.31 59.2718 1143.21 Q58.8262 1141.08 58.8262 1139.27 Q58.8262 1134.65 60.9269 1131.88 Q63.0276 1129.11 66.4651 1129.11 Q70.8893 1129.11 79.9286 1139.65 Q81.4563 1141.43 82.3157 1142.42 Z" fill="#000000" fill-rule="evenodd" fill-opacity="1" /><path clip-path="url(#clip1300)" d="M 0 0 M36.4826 1087.99 Q43.8032 1092.26 50.9646 1094.32 Q58.126 1096.39 65.4784 1096.39 Q72.8308 1096.39 80.0559 1094.32 Q87.2491 1092.22 94.5379 1087.99 L94.5379 1093.08 Q87.0582 1097.86 79.8331 1100.24 Q72.608 1102.6 65.4784 1102.6 Q58.3806 1102.6 51.1874 1100.24 Q43.9942 1097.89 36.4826 1093.08 L36.4826 1087.99 Z" fill="#000000" fill-rule="evenodd" fill-opacity="1" /><path clip-path="url(#clip1300)" d="M 0 0 M55.7707 1061.19 Q55.1978 1062.18 54.9432 1063.36 Q54.6567 1064.5 54.6567 1065.9 Q54.6567 1070.87 57.9032 1073.54 Q61.1179 1076.18 67.1653 1076.18 L85.9442 1076.18 L85.9442 1082.07 L50.2962 1082.07 L50.2962 1076.18 L55.8344 1076.18 Q52.5879 1074.34 51.0283 1071.38 Q49.4368 1068.42 49.4368 1064.18 Q49.4368 1063.58 49.5323 1062.85 Q49.596 1062.11 49.7551 1061.22 L55.7707 1061.19 Z" fill="#000000" fill-rule="evenodd" fill-opacity="1" /><path clip-path="url(#clip1300)" d="M 0 0 M68.0247 1038.85 Q68.0247 1045.95 69.6479 1048.68 Q71.2712 1051.42 75.1861 1051.42 Q78.3053 1051.42 80.1514 1049.38 Q81.9656 1047.31 81.9656 1043.78 Q81.9656 1038.91 78.5281 1035.98 Q75.0588 1033.02 69.3297 1033.02 L68.0247 1033.02 L68.0247 1038.85 M65.6057 1027.17 L85.9442 1027.17 L85.9442 1033.02 L80.5333 1033.02 Q83.7798 1035.03 85.3394 1038.02 Q86.8672 1041.01 86.8672 1045.34 Q86.8672 1050.82 83.8116 1054.06 Q80.7243 1057.28 75.5681 1057.28 Q69.5525 1057.28 66.4969 1053.27 Q63.4414 1049.22 63.4414 1041.23 L63.4414 1033.02 L62.8685 1033.02 Q58.8262 1033.02 56.6301 1035.7 Q54.4021 1038.34 54.4021 1043.14 Q54.4021 1046.2 55.1341 1049.1 Q55.8662 1051.99 57.3303 1054.67 L51.9195 1054.67 Q50.6781 1051.45 50.0734 1048.43 Q49.4368 1045.4 49.4368 1042.54 Q49.4368 1034.81 53.4472 1030.99 Q57.4576 1027.17 65.6057 1027.17 Z" fill="#000000" fill-rule="evenodd" fill-opacity="1" /><path clip-path="url(#clip1300)" d="M 0 0 M55.7071 997.566 L36.419 997.566 L36.419 991.71 L85.9442 991.71 L85.9442 997.566 L80.597 997.566 Q83.7798 999.412 85.3394 1002.24 Q86.8672 1005.05 86.8672 1008.99 Q86.8672 1015.45 81.711 1019.53 Q76.5547 1023.57 68.152 1023.57 Q59.7493 1023.57 54.5931 1019.53 Q49.4368 1015.45 49.4368 1008.99 Q49.4368 1005.05 50.9964 1002.24 Q52.5242 999.412 55.7071 997.566 M68.152 1017.52 Q74.6132 1017.52 78.3053 1014.88 Q81.9656 1012.21 81.9656 1007.56 Q81.9656 1002.91 78.3053 1000.24 Q74.6132 997.566 68.152 997.566 Q61.6908 997.566 58.0305 1000.24 Q54.3384 1002.91 54.3384 1007.56 Q54.3384 1012.21 58.0305 1014.88 Q61.6908 1017.52 68.152 1017.52 Z" fill="#000000" fill-rule="evenodd" fill-opacity="1" /><path clip-path="url(#clip1300)" d="M 0 0 M36.4826 986.49 L36.4826 981.397 Q43.9942 976.623 51.1874 974.268 Q58.3806 971.88 65.4784 971.88 Q72.608 971.88 79.8331 974.268 Q87.0582 976.623 94.5379 981.397 L94.5379 986.49 Q87.2491 982.256 80.0559 980.188 Q72.8308 978.087 65.4784 978.087 Q58.126 978.087 50.9646 980.188 Q43.8032 982.256 36.4826 986.49 Z" fill="#000000" fill-rule="evenodd" fill-opacity="1" /><polyline clip-path="url(#clip1302)" style="stroke:#009af9; stroke-width:16; stroke-opacity:1; fill:none" points="
  359.994,1148.86 382.096,1087.26 404.197,975.143 426.299,877.941 448.4,789.966 470.502,714.695 492.603,655.131 514.705,612.929 536.806,588.433 558.907,580.994 
  581.009,589.169 603.11,610.866 625.212,643.749 647.313,685.426 669.415,733.632 691.516,786.271 713.617,841.485 735.719,897.64 757.82,953.359 779.922,1007.47 
  802.023,1059.03 824.125,1107.28 846.226,1151.63 868.327,1191.63 890.429,1226.99 912.53,1257.49 934.632,1283.05 956.733,1303.61 978.835,1319.27 1000.94,1330.06 
  1023.04,1336.17 1045.14,1337.74 1067.24,1335.09 1089.34,1332.45 1111.44,1327.67 1133.54,1318.2 1155.65,1307.7 1177.75,1296.39 1199.85,1284.41 1221.95,1271.99 
  1244.05,1259.26 1266.15,1246.42 1288.25,1233.61 1310.36,1221 1332.46,1208.7 1354.56,1196.85 1376.66,1185.56 1398.76,1174.92 1420.86,1165.02 1442.96,1155.91 
  1465.07,1147.65 1487.17,1140.28 1509.27,1133.83 1531.37,1128.3 1553.47,1123.7 1575.57,1120.02 1597.67,1117.24 1619.78,1115.32 1641.88,1114.23 1663.98,1113.92 
  1686.08,1114.33 1708.18,1115.4 1730.28,1117.07 1752.38,1119.26 1774.49,1121.9 1796.59,1124.9 1818.69,1128.2 1840.79,1131.7 1862.89,1135.33 1884.99,1139.02 
  1907.09,1142.69 1929.2,1146.27 1951.3,1149.7 1973.4,1152.92 1995.5,1155.88 2017.6,1158.54 2039.7,1160.86 2061.8,1162.82 2083.91,1164.4 2106.01,1165.58 
  2128.11,1166.37 2150.21,1166.78 2172.31,1166.8 2194.41,1166.48 2216.51,1165.83 2238.62,1164.89 2260.72,1163.69 2282.82,1162.28 2304.92,1160.7 2327.02,1158.99 
  2349.12,1157.21 2371.22,1155.41 2393.33,1153.63 2415.43,1151.91 2437.53,1150.31 2459.63,1148.85 2481.73,1147.6 2503.83,1146.57 2525.93,1145.81 2548.04,1145.33 
  2570.14,1145.16 
  "/>
<polyline clip-path="url(#clip1302)" style="stroke:#e26f46; stroke-width:16; stroke-opacity:1; fill:none" points="
  359.994,1148.86 382.096,1185.71 404.197,1212.04 426.299,1176.42 448.4,1121.92 470.502,1063.33 492.603,1007.33 514.705,957.758 536.806,917.222 558.907,887.22 
  581.009,868.131 603.11,859.593 625.212,860.776 647.313,870.575 669.415,887.76 691.516,911.072 713.617,939.267 735.719,971.171 757.82,1005.68 779.922,1041.78 
  802.023,1078.55 824.125,1115.17 846.226,1150.85 868.327,1184.91 890.429,1216.7 912.53,1245.65 934.632,1271.19 956.733,1292.84 978.835,1310.09 1000.94,1322.54 
  1023.04,1329.7 1045.14,1331.27 1067.24,1326.89 1089.34,1322.54 1111.44,1316.61 1133.54,1305.77 1155.65,1294.77 1177.75,1283.62 1199.85,1272.34 1221.95,1260.96 
  1244.05,1249.54 1266.15,1238.13 1288.25,1226.81 1310.36,1215.66 1332.46,1204.75 1354.56,1194.18 1376.66,1184.03 1398.76,1174.38 1420.86,1165.32 1442.96,1156.9 
  1465.07,1149.19 1487.17,1142.23 1509.27,1136.08 1531.37,1130.74 1553.47,1126.23 1575.57,1122.56 1597.67,1119.72 1619.78,1117.67 1641.88,1116.4 1663.98,1115.86 
  1686.08,1115.99 1708.18,1116.75 1730.28,1118.07 1752.38,1119.88 1774.49,1122.12 1796.59,1124.7 1818.69,1127.56 1840.79,1130.62 1862.89,1133.8 1884.99,1137.04 
  1907.09,1140.27 1929.2,1143.43 1951.3,1146.45 1973.4,1149.28 1995.5,1151.88 2017.6,1154.21 2039.7,1156.24 2061.8,1157.94 2083.91,1159.29 2106.01,1160.3 
  2128.11,1160.95 2150.21,1161.26 2172.31,1161.25 2194.41,1160.93 2216.51,1160.33 2238.62,1159.49 2260.72,1158.44 2282.82,1157.22 2304.92,1155.88 2327.02,1154.46 
  2349.12,1153.01 2371.22,1151.56 2393.33,1150.16 2415.43,1148.85 2437.53,1147.66 2459.63,1146.61 2481.73,1145.74 2503.83,1145.06 2525.93,1144.58 2548.04,1144.3 
  2570.14,1144.21 
  "/>
<polyline clip-path="url(#clip1302)" style="stroke:#3da44d; stroke-width:16; stroke-opacity:1; fill:none" points="
  359.994,1148.86 382.096,988.984 404.197,708.609 426.299,502.065 448.4,356.778 470.502,262.14 492.603,209.527 514.705,189.727 536.806,196.143 558.907,223.464 
  581.009,267.512 603.11,324.709 625.212,392.095 647.313,467.18 669.415,547.86 691.516,632.294 713.617,718.853 735.719,806.045 757.82,892.519 779.922,976.992 
  802.023,1058.32 824.125,1135.38 846.226,1207.22 868.327,1272.88 890.429,1331.61 912.53,1382.57 934.632,1425.2 956.733,1458.76 978.835,1482.82 1000.94,1496.65 
  1023.04,1499.94 1045.14,1491.93 1067.24,1472.51 1089.34,1458.67 1111.44,1441.52 1133.54,1411.53 1155.65,1383.31 1177.75,1356.79 1199.85,1331.95 1221.95,1308.75 
  1244.05,1287.15 1266.15,1267.11 1288.25,1248.59 1310.36,1231.53 1332.46,1215.9 1354.56,1201.63 1376.66,1188.68 1398.76,1176.99 1420.86,1166.51 1442.96,1157.19 
  1465.07,1148.97 1487.17,1141.81 1509.27,1135.65 1531.37,1130.45 1553.47,1126.17 1575.57,1122.76 1597.67,1120.17 1619.78,1118.35 1641.88,1117.26 1663.98,1116.85 
  1686.08,1117.06 1708.18,1117.84 1730.28,1119.14 1752.38,1120.88 1774.49,1123.01 1796.59,1125.45 1818.69,1128.15 1840.79,1131.03 1862.89,1134.02 1884.99,1137.06 
  1907.09,1140.09 1929.2,1143.04 1951.3,1145.86 1973.4,1148.49 1995.5,1150.9 2017.6,1153.05 2039.7,1154.9 2061.8,1156.44 2083.91,1157.66 2106.01,1158.54 
  2128.11,1159.1 2150.21,1159.35 2172.31,1159.3 2194.41,1158.98 2216.51,1158.42 2238.62,1157.66 2260.72,1156.73 2282.82,1155.68 2304.92,1154.55 2327.02,1153.39 
  2349.12,1152.22 2371.22,1151.11 2393.33,1150.07 2415.43,1149.13 2437.53,1148.33 2459.63,1147.68 2481.73,1147.18 2503.83,1146.84 2525.93,1146.63 2548.04,1146.54 
  2570.14,1146.52 
  "/>
<polyline clip-path="url(#clip1302)" style="stroke:#c271d2; stroke-width:16; stroke-opacity:1; fill:none" points="
  359.994,1148.86 382.096,1335.67 404.197,1607.47 426.299,1710.45 448.4,1707.25 470.502,1639.15 492.603,1531.34 514.705,1404.31 536.806,1273.26 558.907,1149.27 
  581.009,1039.63 603.11,948.796 625.212,879.2 647.313,831.803 669.415,806.424 691.516,801.972 713.617,816.746 735.719,848.665 757.82,895.38 779.922,954.445 
  802.023,1023.19 824.125,1099.11 846.226,1179.29 868.327,1261.3 890.429,1341.96 912.53,1418.94 934.632,1488.63 956.733,1548.89 978.835,1595.4 1000.94,1626.34 
  1023.04,1636.33 1045.14,1624.03 1067.24,1583.25 1089.34,1548.65 1111.44,1518.1 1133.54,1466.61 1155.65,1422.8 1177.75,1386.38 1199.85,1355.77 1221.95,1330.54 
  1244.05,1309.53 1266.15,1292.23 1288.25,1277.83 1310.36,1265.86 1332.46,1255.77 1354.56,1247.21 1376.66,1239.82 1398.76,1233.36 1420.86,1227.62 1442.96,1222.46 
  1465.07,1217.76 1487.17,1213.47 1509.27,1209.53 1531.37,1205.92 1553.47,1202.62 1575.57,1199.65 1597.67,1197 1619.78,1194.67 1641.88,1192.66 1663.98,1190.98 
  1686.08,1189.62 1708.18,1188.55 1730.28,1187.76 1752.38,1187.23 1774.49,1186.92 1796.59,1186.8 1818.69,1186.83 1840.79,1186.98 1862.89,1187.2 1884.99,1187.47 
  1907.09,1187.75 1929.2,1188 1951.3,1188.21 1973.4,1188.35 1995.5,1188.42 2017.6,1188.41 2039.7,1188.32 2061.8,1188.17 2083.91,1187.98 2106.01,1187.77 
  2128.11,1187.57 2150.21,1187.43 2172.31,1187.4 2194.41,1187.51 2216.51,1187.83 2238.62,1188.41 2260.72,1189.28 2282.82,1190.5 2304.92,1192.09 2327.02,1194.09 
  2349.12,1196.5 2371.22,1199.3 2393.33,1202.46 2415.43,1205.93 2437.53,1209.61 2459.63,1213.38 2481.73,1217.06 2503.83,1220.46 2525.93,1223.31 2548.04,1225.32 
  2570.14,1226.09 
  "/>
<polyline clip-path="url(#clip1302)" style="stroke:#ac8d18; stroke-width:16; stroke-opacity:1; fill:none" points="
  359.994,1148.86 382.096,1067.06 404.197,922.094 426.299,810.159 448.4,723.254 470.502,656.373 492.603,607.26 514.705,574.442 536.806,556.839 558.907,553.297 
  581.009,562.438 603.11,582.589 625.212,611.986 647.313,648.808 669.415,691.31 691.516,737.818 713.617,786.813 735.719,836.922 757.82,886.964 779.922,935.909 
  802.023,982.926 824.125,1027.3 846.226,1068.52 868.327,1106.12 890.429,1139.85 912.53,1169.49 934.632,1194.97 956.733,1216.25 978.835,1233.42 1000.94,1246.58 
  1023.04,1255.95 1045.14,1261.73 1067.24,1264.27 1089.34,1264.82 1111.44,1263.29 1133.54,1259.51 1155.65,1254.26 1177.75,1247.76 1199.85,1240.15 1221.95,1231.64 
  1244.05,1222.41 1266.15,1212.64 1288.25,1202.52 1310.36,1192.23 1332.46,1181.93 1354.56,1171.77 1376.66,1161.9 1398.76,1152.44 1420.86,1143.5 1442.96,1135.19 
  1465.07,1127.57 1487.17,1120.72 1509.27,1114.67 1531.37,1109.47 1553.47,1105.14 1575.57,1101.67 1597.67,1099.07 1619.78,1097.31 1641.88,1096.37 1663.98,1096.2 
  1686.08,1096.76 1708.18,1097.99 1730.28,1099.82 1752.38,1102.19 1774.49,1105.02 1796.59,1108.24 1818.69,1111.76 1840.79,1115.5 1862.89,1119.39 1884.99,1123.35 
  1907.09,1127.3 1929.2,1131.17 1951.3,1134.89 1973.4,1138.4 1995.5,1141.65 2017.6,1144.59 2039.7,1147.18 2061.8,1149.38 2083.91,1151.19 2106.01,1152.57 
  2128.11,1153.53 2150.21,1154.06 2172.31,1154.18 2194.41,1153.9 2216.51,1153.25 2238.62,1152.25 2260.72,1150.94 2282.82,1149.37 2304.92,1147.57 2327.02,1145.6 
  2349.12,1143.5 2371.22,1141.33 2393.33,1139.15 2415.43,1137 2437.53,1134.95 2459.63,1133.06 2481.73,1131.37 2503.83,1129.96 2525.93,1128.88 2548.04,1128.18 
  2570.14,1127.93 
  "/>
<polyline clip-path="url(#clip1302)" style="stroke:#00a9ad; stroke-width:16; stroke-opacity:1; fill:none" points="
  359.994,1148.86 382.096,1061.88 404.197,908.575 426.299,794.814 448.4,715.344 470.502,664.498 492.603,637.804 514.705,631.175 536.806,641.053 558.907,664.047 
  581.009,696.981 603.11,736.967 625.212,781.526 647.313,828.597 669.415,876.521 691.516,924.004 713.617,970.066 735.719,1014 757.82,1055.29 779.922,1093.6 
  802.023,1128.72 824.125,1160.52 846.226,1188.91 868.327,1213.89 890.429,1235.44 912.53,1253.59 934.632,1268.33 956.733,1279.68 978.835,1287.64 1000.94,1292.19 
  1023.04,1293.3 1045.14,1290.92 1067.24,1285.04 1089.34,1280.7 1111.44,1274.84 1133.54,1264.36 1155.65,1254.12 1177.75,1244.1 1199.85,1234.29 1221.95,1224.65 
  1244.05,1215.21 1266.15,1205.95 1288.25,1196.91 1310.36,1188.11 1332.46,1179.58 1354.56,1171.36 1376.66,1163.51 1398.76,1156.07 1420.86,1149.09 1442.96,1142.63 
  1465.07,1136.73 1487.17,1131.43 1509.27,1126.78 1531.37,1122.79 1553.47,1119.49 1575.57,1116.9 1597.67,1115.01 1619.78,1113.81 1641.88,1113.3 1663.98,1113.43 
  1686.08,1114.17 1708.18,1115.49 1730.28,1117.32 1752.38,1119.61 1774.49,1122.29 1796.59,1125.3 1818.69,1128.57 1840.79,1132.01 1862.89,1135.58 1884.99,1139.18 
  1907.09,1142.76 1929.2,1146.26 1951.3,1149.61 1973.4,1152.76 1995.5,1155.66 2017.6,1158.28 2039.7,1160.57 2061.8,1162.53 2083.91,1164.12 2106.01,1165.35 
  2128.11,1166.21 2150.21,1166.71 2172.31,1166.86 2194.41,1166.69 2216.51,1166.22 2238.62,1165.48 2260.72,1164.52 2282.82,1163.36 2304.92,1162.07 2327.02,1160.67 
  2349.12,1159.21 2371.22,1157.75 2393.33,1156.31 2415.43,1154.95 2437.53,1153.69 2459.63,1152.58 2481.73,1151.63 2503.83,1150.88 2525.93,1150.33 2548.04,1150 
  2570.14,1149.89 
  "/>
<polyline clip-path="url(#clip1302)" style="stroke:#ed5d92; stroke-width:16; stroke-opacity:1; fill:none" points="
  359.994,1148.86 382.096,1189.3 404.197,1259.66 426.299,1309.48 448.4,1340.88 470.502,1357.02 492.603,1360.97 514.705,1355.47 536.806,1342.8 558.907,1324.88 
  581.009,1303.37 603.11,1279.64 625.212,1254.82 647.313,1229.83 669.415,1205.41 691.516,1182.13 713.617,1160.42 735.719,1140.56 757.82,1122.75 779.922,1107.1 
  802.023,1093.64 824.125,1082.38 846.226,1073.27 868.327,1066.28 890.429,1061.36 912.53,1058.49 934.632,1057.69 956.733,1059 978.835,1062.54 1000.94,1068.46 
  1023.04,1076.98 1045.14,1088.4 1067.24,1103.02 1089.34,1112.17 1111.44,1121.7 1133.54,1137.23 1155.65,1149.81 1177.75,1159.64 1199.85,1166.88 1221.95,1171.76 
  1244.05,1174.51 1266.15,1175.37 1288.25,1174.58 1310.36,1172.4 1332.46,1169.07 1354.56,1164.84 1376.66,1159.93 1398.76,1154.57 1420.86,1148.96 1442.96,1143.28 
  1465.07,1137.72 1487.17,1132.41 1509.27,1127.48 1531.37,1123.04 1553.47,1119.19 1575.57,1115.98 1597.67,1113.45 1619.78,1111.65 1641.88,1110.58 1663.98,1110.22 
  1686.08,1110.56 1708.18,1111.57 1730.28,1113.18 1752.38,1115.35 1774.49,1118 1796.59,1121.08 1818.69,1124.49 1840.79,1128.15 1862.89,1132 1884.99,1135.95 
  1907.09,1139.92 1929.2,1143.83 1951.3,1147.62 1973.4,1151.22 1995.5,1154.58 2017.6,1157.64 2039.7,1160.36 2061.8,1162.7 2083.91,1164.64 2106.01,1166.16 
  2128.11,1167.25 2150.21,1167.91 2172.31,1168.14 2194.41,1167.96 2216.51,1167.4 2238.62,1166.47 2260.72,1165.21 2282.82,1163.67 2304.92,1161.88 2327.02,1159.89 
  2349.12,1157.75 2371.22,1155.53 2393.33,1153.27 2415.43,1151.03 2437.53,1148.87 2459.63,1146.86 2481.73,1145.07 2503.83,1143.55 2525.93,1142.37 2548.04,1141.61 
  2570.14,1141.32 
  "/>
<polyline clip-path="url(#clip1302)" style="stroke:#c68125; stroke-width:16; stroke-opacity:1; fill:none" points="
  359.994,1148.86 382.096,1353.67 404.197,1690.93 426.299,1902.35 448.4,2030.02 470.502,2104.69 492.603,2140.24 514.705,2146.22 536.806,2128.51 558.907,2091.77 
  581.009,2039.81 603.11,1976.02 625.212,1903.37 647.313,1824.49 669.415,1741.69 691.516,1656.93 713.617,1571.91 735.719,1488.02 757.82,1406.41 779.922,1327.99 
  802.023,1253.56 824.125,1183.7 846.226,1119.01 868.327,1059.98 890.429,1007.26 912.53,961.442 934.632,923.455 956.733,894.163 978.835,874.996 1000.94,867.207 
  1023.04,872.914 1045.14,893.79 1067.24,932.534 1089.34,960.662 1111.44,991.638 1133.54,1041.75 1155.65,1081.44 1177.75,1111.64 1199.85,1133.6 1221.95,1148.28 
  1244.05,1156.84 1266.15,1160.19 1288.25,1159.35 1310.36,1155.14 1332.46,1148.4 1354.56,1139.8 1376.66,1129.99 1398.76,1119.52 1420.86,1108.84 1442.96,1098.35 
  1465.07,1088.38 1487.17,1079.17 1509.27,1070.92 1531.37,1063.78 1553.47,1057.84 1575.57,1053.18 1597.67,1049.8 1619.78,1047.7 1641.88,1046.84 1663.98,1047.18 
  1686.08,1048.64 1708.18,1051.14 1730.28,1054.56 1752.38,1058.82 1774.49,1063.79 1796.59,1069.34 1818.69,1075.38 1840.79,1081.76 1862.89,1088.37 1884.99,1095.08 
  1907.09,1101.8 1929.2,1108.4 1951.3,1114.78 1973.4,1120.84 1995.5,1126.5 2017.6,1131.68 2039.7,1136.3 2061.8,1140.3 2083.91,1143.64 2106.01,1146.25 
  2128.11,1148.13 2150.21,1149.23 2172.31,1149.55 2194.41,1149.08 2216.51,1147.83 2238.62,1145.82 2260.72,1143.08 2282.82,1139.64 2304.92,1135.56 2327.02,1130.92 
  2349.12,1125.78 2371.22,1120.24 2393.33,1114.42 2415.43,1108.46 2437.53,1102.52 2459.63,1096.77 2481.73,1091.44 2503.83,1086.74 2525.93,1082.98 2548.04,1080.42 
  2570.14,1079.45 
  "/>
<polyline clip-path="url(#clip1302)" style="stroke:#00a98d; stroke-width:16; stroke-opacity:1; fill:none" points="
  359.994,1148.86 382.096,1108.98 404.197,1036.99 426.299,979.067 448.4,934.496 470.502,903.803 492.603,886.026 514.705,879.551 536.806,882.551 558.907,893.16 
  581.009,909.606 603.11,930.293 625.212,953.848 647.313,979.129 669.415,1005.2 691.516,1031.33 713.617,1056.94 735.719,1081.61 757.82,1105 779.922,1126.9 
  802.023,1147.16 824.125,1165.7 846.226,1182.46 868.327,1197.45 890.429,1210.65 912.53,1222.09 934.632,1231.77 956.733,1239.73 978.835,1245.95 1000.94,1250.44 
  1023.04,1253.19 1045.14,1254.15 1067.24,1253.32 1089.34,1252.28 1111.44,1250.22 1133.54,1246.29 1155.65,1242.01 1177.75,1237.36 1199.85,1232.34 1221.95,1226.96 
  1244.05,1221.25 1266.15,1215.24 1288.25,1208.98 1310.36,1202.53 1332.46,1195.95 1354.56,1189.32 1376.66,1182.73 1398.76,1176.26 1420.86,1169.99 1442.96,1164.01 
  1465.07,1158.4 1487.17,1153.24 1509.27,1148.58 1531.37,1144.48 1553.47,1140.99 1575.57,1138.14 1597.67,1135.95 1619.78,1134.42 1641.88,1133.55 1663.98,1133.32 
  1686.08,1133.71 1708.18,1134.66 1730.28,1136.14 1752.38,1138.09 1774.49,1140.45 1796.59,1143.14 1818.69,1146.11 1840.79,1149.28 1862.89,1152.58 1884.99,1155.93 
  1907.09,1159.28 1929.2,1162.55 1951.3,1165.7 1973.4,1168.66 1995.5,1171.4 2017.6,1173.86 2039.7,1176.03 2061.8,1177.87 2083.91,1179.37 2106.01,1180.53 
  2128.11,1181.34 2150.21,1181.82 2172.31,1181.97 2194.41,1181.82 2216.51,1181.41 2238.62,1180.75 2260.72,1179.9 2282.82,1178.88 2304.92,1177.75 2327.02,1176.54 
  2349.12,1175.3 2371.22,1174.07 2393.33,1172.88 2415.43,1171.78 2437.53,1170.79 2459.63,1169.94 2481.73,1169.24 2503.83,1168.71 2525.93,1168.35 2548.04,1168.14 
  2570.14,1168.06 
  "/>
<polyline clip-path="url(#clip1302)" style="stroke:#8e971d; stroke-width:16; stroke-opacity:1; fill:none" points="
  359.994,1148.86 382.096,905.901 404.197,561.966 426.299,434.883 448.4,416.316 470.502,450.605 492.603,515.602 514.705,597.66 536.806,687.649 558.907,779.696 
  581.009,870.215 603.11,957.206 625.212,1039.62 647.313,1117.01 669.415,1189.25 691.516,1256.4 713.617,1318.61 735.719,1376.05 757.82,1428.85 779.922,1477.12 
  802.023,1520.88 824.125,1560.13 846.226,1594.69 868.327,1624.39 890.429,1648.86 912.53,1667.69 934.632,1680.22 956.733,1685.81 978.835,1683.44 1000.94,1672.2 
  1023.04,1650.68 1045.14,1617.76 1067.24,1571.73 1089.34,1541.65 1111.44,1511.06 1133.54,1459.41 1155.65,1414.35 1177.75,1375.38 1199.85,1341.78 1221.95,1313.04 
  1244.05,1288.51 1266.15,1267.71 1288.25,1250.09 1310.36,1235.22 1332.46,1222.68 1354.56,1212.11 1376.66,1203.21 1398.76,1195.72 1420.86,1189.42 1442.96,1184.13 
  1465.07,1179.71 1487.17,1176.04 1509.27,1173.05 1531.37,1170.66 1553.47,1168.81 1575.57,1167.47 1597.67,1166.6 1619.78,1166.17 1641.88,1166.15 1663.98,1166.51 
  1686.08,1167.22 1708.18,1168.24 1730.28,1169.55 1752.38,1171.08 1774.49,1172.82 1796.59,1174.7 1818.69,1176.69 1840.79,1178.74 1862.89,1180.8 1884.99,1182.83 
  1907.09,1184.79 1929.2,1186.64 1951.3,1188.34 1973.4,1189.88 1995.5,1191.23 2017.6,1192.38 2039.7,1193.32 2061.8,1194.05 2083.91,1194.59 2106.01,1194.93 
  2128.11,1195.12 2150.21,1195.18 2172.31,1195.13 2194.41,1195.03 2216.51,1194.92 2238.62,1194.83 2260.72,1194.81 2282.82,1194.91 2304.92,1195.17 2327.02,1195.6 
  2349.12,1196.26 2371.22,1197.13 2393.33,1198.23 2415.43,1199.54 2437.53,1201.02 2459.63,1202.61 2481.73,1204.25 2503.83,1205.81 2525.93,1207.16 2548.04,1208.13 
  2570.14,1208.5 
  "/>
<polyline clip-path="url(#clip1302)" style="stroke:#00a8cb; stroke-width:16; stroke-opacity:1; fill:none" points="
  359.994,1148.86 382.096,1069.67 404.197,899.237 426.299,720.719 448.4,561.55 470.502,435.222 492.603,344.424 514.705,288.031 536.806,263.747 558.907,267.469 
  581.009,294.7 603.11,340.791 625.212,401.487 647.313,472.787 669.415,551.078 691.516,633.076 713.617,716.012 735.719,797.583 757.82,876.089 779.922,950.13 
  802.023,1018.84 824.125,1081.49 846.226,1137.83 868.327,1187.58 890.429,1230.9 912.53,1267.82 934.632,1298.75 956.733,1323.83 978.835,1343.59 1000.94,1358.18 
  1023.04,1368.08 1045.14,1373.44 1067.24,1375.24 1089.34,1385.66 1111.44,1397.49 1133.54,1399.32 1155.65,1398.79 1177.75,1396.69 1199.85,1393.15 1221.95,1388.5 
  1244.05,1382.82 1266.15,1376.38 1288.25,1369.24 1310.36,1361.61 1332.46,1353.55 1354.56,1345.22 1376.66,1336.68 1398.76,1328.06 1420.86,1319.4 1442.96,1310.81 
  1465.07,1302.31 1487.17,1293.99 1509.27,1285.86 1531.37,1277.99 1553.47,1270.4 1575.57,1263.11 1597.67,1256.14 1619.78,1249.51 1641.88,1243.22 1663.98,1237.29 
  1686.08,1231.71 1708.18,1226.48 1730.28,1221.59 1752.38,1217.04 1774.49,1212.82 1796.59,1208.91 1818.69,1205.3 1840.79,1201.98 1862.89,1198.93 1884.99,1196.13 
  1907.09,1193.58 1929.2,1191.24 1951.3,1189.11 1973.4,1187.16 1995.5,1185.38 2017.6,1183.75 2039.7,1182.25 2061.8,1180.88 2083.91,1179.6 2106.01,1178.41 
  2128.11,1177.3 2150.21,1176.23 2172.31,1175.22 2194.41,1174.23 2216.51,1173.27 2238.62,1172.31 2260.72,1171.36 2282.82,1170.39 2304.92,1169.41 2327.02,1168.4 
  2349.12,1167.37 2371.22,1166.3 2393.33,1165.2 2415.43,1164.05 2437.53,1162.86 2459.63,1161.63 2481.73,1160.36 2503.83,1159.03 2525.93,1157.67 2548.04,1156.29 
  2570.14,1155.46 
  "/>
<path clip-path="url(#clip1300)" d="
M2732.44 988.312 L3184.76 988.312 L3184.76 262.552 L2732.44 262.552  Z
  " fill="#ffffff" fill-rule="evenodd" fill-opacity="1"/>
<polyline clip-path="url(#clip1300)" style="stroke:#000000; stroke-width:4; stroke-opacity:1; fill:none" points="
  2732.44,988.312 3184.76,988.312 3184.76,262.552 2732.44,262.552 2732.44,988.312 
  "/>
<polyline clip-path="url(#clip1300)" style="stroke:#009af9; stroke-width:16; stroke-opacity:1; fill:none" points="
  2764.44,323.032 2956.44,323.032 
  "/>
<path clip-path="url(#clip1300)" d="M 0 0 M2988.44 299.272 L2994.87 299.272 L2994.87 341.381 L3018.01 341.381 L3018.01 346.792 L2988.44 346.792 L2988.44 299.272 Z" fill="#000000" fill-rule="evenodd" fill-opacity="1" /><path clip-path="url(#clip1300)" d="M 0 0 M3024.15 311.144 L3030.01 311.144 L3030.01 346.792 L3024.15 346.792 L3024.15 311.144 M3024.15 297.267 L3030.01 297.267 L3030.01 304.683 L3024.15 304.683 L3024.15 297.267 Z" fill="#000000" fill-rule="evenodd" fill-opacity="1" /><path clip-path="url(#clip1300)" d="M 0 0 M3054.2 297.267 L3054.2 302.137 L3048.6 302.137 Q3045.45 302.137 3044.21 303.41 Q3043 304.683 3043 307.993 L3043 311.144 L3052.64 311.144 L3052.64 315.696 L3043 315.696 L3043 346.792 L3037.11 346.792 L3037.11 315.696 L3031.51 315.696 L3031.51 311.144 L3037.11 311.144 L3037.11 308.662 Q3037.11 302.71 3039.88 300.004 Q3042.65 297.267 3048.66 297.267 L3054.2 297.267 Z" fill="#000000" fill-rule="evenodd" fill-opacity="1" /><path clip-path="url(#clip1300)" d="M 0 0 M3064.99 301.023 L3064.99 311.144 L3077.05 311.144 L3077.05 315.696 L3064.99 315.696 L3064.99 335.047 Q3064.99 339.408 3066.17 340.649 Q3067.38 341.891 3071.04 341.891 L3077.05 341.891 L3077.05 346.792 L3071.04 346.792 Q3064.26 346.792 3061.68 344.278 Q3059.1 341.731 3059.1 335.047 L3059.1 315.696 L3054.8 315.696 L3054.8 311.144 L3059.1 311.144 L3059.1 301.023 L3064.99 301.023 Z" fill="#000000" fill-rule="evenodd" fill-opacity="1" /><path clip-path="url(#clip1300)" d="M 0 0 M3105.86 341.381 L3116.36 341.381 L3116.36 305.129 L3104.93 307.42 L3104.93 301.564 L3116.3 299.272 L3122.73 299.272 L3122.73 341.381 L3133.23 341.381 L3133.23 346.792 L3105.86 346.792 L3105.86 341.381 Z" fill="#000000" fill-rule="evenodd" fill-opacity="1" /><polyline clip-path="url(#clip1300)" style="stroke:#e26f46; stroke-width:16; stroke-opacity:1; fill:none" points="
  2764.44,383.512 2956.44,383.512 
  "/>
<path clip-path="url(#clip1300)" d="M 0 0 M2988.44 359.752 L2994.87 359.752 L2994.87 401.861 L3018.01 401.861 L3018.01 407.272 L2988.44 407.272 L2988.44 359.752 Z" fill="#000000" fill-rule="evenodd" fill-opacity="1" /><path clip-path="url(#clip1300)" d="M 0 0 M3024.15 371.624 L3030.01 371.624 L3030.01 407.272 L3024.15 407.272 L3024.15 371.624 M3024.15 357.747 L3030.01 357.747 L3030.01 365.163 L3024.15 365.163 L3024.15 357.747 Z" fill="#000000" fill-rule="evenodd" fill-opacity="1" /><path clip-path="url(#clip1300)" d="M 0 0 M3054.2 357.747 L3054.2 362.617 L3048.6 362.617 Q3045.45 362.617 3044.21 363.89 Q3043 365.163 3043 368.473 L3043 371.624 L3052.64 371.624 L3052.64 376.176 L3043 376.176 L3043 407.272 L3037.11 407.272 L3037.11 376.176 L3031.51 376.176 L3031.51 371.624 L3037.11 371.624 L3037.11 369.142 Q3037.11 363.19 3039.88 360.484 Q3042.65 357.747 3048.66 357.747 L3054.2 357.747 Z" fill="#000000" fill-rule="evenodd" fill-opacity="1" /><path clip-path="url(#clip1300)" d="M 0 0 M3064.99 361.503 L3064.99 371.624 L3077.05 371.624 L3077.05 376.176 L3064.99 376.176 L3064.99 395.527 Q3064.99 399.888 3066.17 401.129 Q3067.38 402.371 3071.04 402.371 L3077.05 402.371 L3077.05 407.272 L3071.04 407.272 Q3064.26 407.272 3061.68 404.758 Q3059.1 402.211 3059.1 395.527 L3059.1 376.176 L3054.8 376.176 L3054.8 371.624 L3059.1 371.624 L3059.1 361.503 L3064.99 361.503 Z" fill="#000000" fill-rule="evenodd" fill-opacity="1" /><path clip-path="url(#clip1300)" d="M 0 0 M3110.28 401.861 L3132.72 401.861 L3132.72 407.272 L3102.55 407.272 L3102.55 401.861 Q3106.21 398.074 3112.51 391.708 Q3118.84 385.31 3120.47 383.464 Q3123.55 379.995 3124.76 377.608 Q3126 375.189 3126 372.865 Q3126 369.078 3123.33 366.691 Q3120.69 364.304 3116.42 364.304 Q3113.4 364.304 3110.03 365.354 Q3106.68 366.404 3102.87 368.537 L3102.87 362.044 Q3106.75 360.484 3110.12 359.688 Q3113.5 358.893 3116.3 358.893 Q3123.68 358.893 3128.07 362.585 Q3132.47 366.277 3132.47 372.452 Q3132.47 375.38 3131.35 378.022 Q3130.27 380.632 3127.37 384.196 Q3126.58 385.119 3122.31 389.544 Q3118.05 393.936 3110.28 401.861 Z" fill="#000000" fill-rule="evenodd" fill-opacity="1" /><polyline clip-path="url(#clip1300)" style="stroke:#3da44d; stroke-width:16; stroke-opacity:1; fill:none" points="
  2764.44,443.992 2956.44,443.992 
  "/>
<path clip-path="url(#clip1300)" d="M 0 0 M2988.44 420.232 L2994.87 420.232 L2994.87 462.341 L3018.01 462.341 L3018.01 467.752 L2988.44 467.752 L2988.44 420.232 Z" fill="#000000" fill-rule="evenodd" fill-opacity="1" /><path clip-path="url(#clip1300)" d="M 0 0 M3024.15 432.104 L3030.01 432.104 L3030.01 467.752 L3024.15 467.752 L3024.15 432.104 M3024.15 418.227 L3030.01 418.227 L3030.01 425.643 L3024.15 425.643 L3024.15 418.227 Z" fill="#000000" fill-rule="evenodd" fill-opacity="1" /><path clip-path="url(#clip1300)" d="M 0 0 M3054.2 418.227 L3054.2 423.097 L3048.6 423.097 Q3045.45 423.097 3044.21 424.37 Q3043 425.643 3043 428.953 L3043 432.104 L3052.64 432.104 L3052.64 436.656 L3043 436.656 L3043 467.752 L3037.11 467.752 L3037.11 436.656 L3031.51 436.656 L3031.51 432.104 L3037.11 432.104 L3037.11 429.622 Q3037.11 423.67 3039.88 420.964 Q3042.65 418.227 3048.66 418.227 L3054.2 418.227 Z" fill="#000000" fill-rule="evenodd" fill-opacity="1" /><path clip-path="url(#clip1300)" d="M 0 0 M3064.99 421.983 L3064.99 432.104 L3077.05 432.104 L3077.05 436.656 L3064.99 436.656 L3064.99 456.007 Q3064.99 460.368 3066.17 461.609 Q3067.38 462.851 3071.04 462.851 L3077.05 462.851 L3077.05 467.752 L3071.04 467.752 Q3064.26 467.752 3061.68 465.238 Q3059.1 462.691 3059.1 456.007 L3059.1 436.656 L3054.8 436.656 L3054.8 432.104 L3059.1 432.104 L3059.1 421.983 L3064.99 421.983 Z" fill="#000000" fill-rule="evenodd" fill-opacity="1" /><path clip-path="url(#clip1300)" d="M 0 0 M3124.22 442.13 Q3128.84 443.117 3131.42 446.236 Q3134.03 449.355 3134.03 453.939 Q3134.03 460.973 3129.19 464.824 Q3124.35 468.675 3115.44 468.675 Q3112.45 468.675 3109.26 468.07 Q3106.11 467.497 3102.74 466.32 L3102.74 460.113 Q3105.41 461.673 3108.59 462.469 Q3111.78 463.264 3115.25 463.264 Q3121.29 463.264 3124.45 460.877 Q3127.63 458.49 3127.63 453.939 Q3127.63 449.737 3124.67 447.382 Q3121.74 444.995 3116.49 444.995 L3110.95 444.995 L3110.95 439.711 L3116.74 439.711 Q3121.49 439.711 3124 437.833 Q3126.51 435.924 3126.51 432.359 Q3126.51 428.699 3123.9 426.757 Q3121.33 424.784 3116.49 424.784 Q3113.85 424.784 3110.82 425.357 Q3107.8 425.929 3104.17 427.139 L3104.17 421.41 Q3107.83 420.391 3111.01 419.882 Q3114.23 419.373 3117.06 419.373 Q3124.38 419.373 3128.65 422.715 Q3132.91 426.025 3132.91 431.69 Q3132.91 435.637 3130.65 438.374 Q3128.39 441.08 3124.22 442.13 Z" fill="#000000" fill-rule="evenodd" fill-opacity="1" /><polyline clip-path="url(#clip1300)" style="stroke:#c271d2; stroke-width:16; stroke-opacity:1; fill:none" points="
  2764.44,504.472 2956.44,504.472 
  "/>
<path clip-path="url(#clip1300)" d="M 0 0 M2988.44 480.712 L2994.87 480.712 L2994.87 522.821 L3018.01 522.821 L3018.01 528.232 L2988.44 528.232 L2988.44 480.712 Z" fill="#000000" fill-rule="evenodd" fill-opacity="1" /><path clip-path="url(#clip1300)" d="M 0 0 M3024.15 492.584 L3030.01 492.584 L3030.01 528.232 L3024.15 528.232 L3024.15 492.584 M3024.15 478.707 L3030.01 478.707 L3030.01 486.123 L3024.15 486.123 L3024.15 478.707 Z" fill="#000000" fill-rule="evenodd" fill-opacity="1" /><path clip-path="url(#clip1300)" d="M 0 0 M3054.2 478.707 L3054.2 483.577 L3048.6 483.577 Q3045.45 483.577 3044.21 484.85 Q3043 486.123 3043 489.433 L3043 492.584 L3052.64 492.584 L3052.64 497.136 L3043 497.136 L3043 528.232 L3037.11 528.232 L3037.11 497.136 L3031.51 497.136 L3031.51 492.584 L3037.11 492.584 L3037.11 490.102 Q3037.11 484.15 3039.88 481.444 Q3042.65 478.707 3048.66 478.707 L3054.2 478.707 Z" fill="#000000" fill-rule="evenodd" fill-opacity="1" /><path clip-path="url(#clip1300)" d="M 0 0 M3064.99 482.463 L3064.99 492.584 L3077.05 492.584 L3077.05 497.136 L3064.99 497.136 L3064.99 516.487 Q3064.99 520.848 3066.17 522.089 Q3067.38 523.331 3071.04 523.331 L3077.05 523.331 L3077.05 528.232 L3071.04 528.232 Q3064.26 528.232 3061.68 525.718 Q3059.1 523.171 3059.1 516.487 L3059.1 497.136 L3054.8 497.136 L3054.8 492.584 L3059.1 492.584 L3059.1 482.463 L3064.99 482.463 Z" fill="#000000" fill-rule="evenodd" fill-opacity="1" /><path clip-path="url(#clip1300)" d="M 0 0 M3122.41 486.314 L3106.18 511.681 L3122.41 511.681 L3122.41 486.314 M3120.72 480.712 L3128.81 480.712 L3128.81 511.681 L3135.59 511.681 L3135.59 517.028 L3128.81 517.028 L3128.81 528.232 L3122.41 528.232 L3122.41 517.028 L3100.96 517.028 L3100.96 510.822 L3120.72 480.712 Z" fill="#000000" fill-rule="evenodd" fill-opacity="1" /><polyline clip-path="url(#clip1300)" style="stroke:#ac8d18; stroke-width:16; stroke-opacity:1; fill:none" points="
  2764.44,564.952 2956.44,564.952 
  "/>
<path clip-path="url(#clip1300)" d="M 0 0 M2988.44 541.192 L2994.87 541.192 L2994.87 583.301 L3018.01 583.301 L3018.01 588.712 L2988.44 588.712 L2988.44 541.192 Z" fill="#000000" fill-rule="evenodd" fill-opacity="1" /><path clip-path="url(#clip1300)" d="M 0 0 M3024.15 553.064 L3030.01 553.064 L3030.01 588.712 L3024.15 588.712 L3024.15 553.064 M3024.15 539.187 L3030.01 539.187 L3030.01 546.603 L3024.15 546.603 L3024.15 539.187 Z" fill="#000000" fill-rule="evenodd" fill-opacity="1" /><path clip-path="url(#clip1300)" d="M 0 0 M3054.2 539.187 L3054.2 544.057 L3048.6 544.057 Q3045.45 544.057 3044.21 545.33 Q3043 546.603 3043 549.913 L3043 553.064 L3052.64 553.064 L3052.64 557.616 L3043 557.616 L3043 588.712 L3037.11 588.712 L3037.11 557.616 L3031.51 557.616 L3031.51 553.064 L3037.11 553.064 L3037.11 550.582 Q3037.11 544.63 3039.88 541.924 Q3042.65 539.187 3048.66 539.187 L3054.2 539.187 Z" fill="#000000" fill-rule="evenodd" fill-opacity="1" /><path clip-path="url(#clip1300)" d="M 0 0 M3064.99 542.943 L3064.99 553.064 L3077.05 553.064 L3077.05 557.616 L3064.99 557.616 L3064.99 576.967 Q3064.99 581.328 3066.17 582.569 Q3067.38 583.811 3071.04 583.811 L3077.05 583.811 L3077.05 588.712 L3071.04 588.712 Q3064.26 588.712 3061.68 586.198 Q3059.1 583.651 3059.1 576.967 L3059.1 557.616 L3054.8 557.616 L3054.8 553.064 L3059.1 553.064 L3059.1 542.943 L3064.99 542.943 Z" fill="#000000" fill-rule="evenodd" fill-opacity="1" /><path clip-path="url(#clip1300)" d="M 0 0 M3104.81 541.192 L3130.05 541.192 L3130.05 546.603 L3110.7 546.603 L3110.7 558.252 Q3112.1 557.775 3113.5 557.552 Q3114.9 557.297 3116.3 557.297 Q3124.25 557.297 3128.9 561.658 Q3133.55 566.018 3133.55 573.466 Q3133.55 581.137 3128.77 585.402 Q3124 589.635 3115.31 589.635 Q3112.32 589.635 3109.2 589.126 Q3106.11 588.617 3102.8 587.598 L3102.8 581.137 Q3105.67 582.697 3108.72 583.46 Q3111.78 584.224 3115.18 584.224 Q3120.69 584.224 3123.9 581.328 Q3127.12 578.432 3127.12 573.466 Q3127.12 568.501 3123.9 565.605 Q3120.69 562.708 3115.18 562.708 Q3112.6 562.708 3110.03 563.281 Q3107.48 563.854 3104.81 565.064 L3104.81 541.192 Z" fill="#000000" fill-rule="evenodd" fill-opacity="1" /><polyline clip-path="url(#clip1300)" style="stroke:#00a9ad; stroke-width:16; stroke-opacity:1; fill:none" points="
  2764.44,625.432 2956.44,625.432 
  "/>
<path clip-path="url(#clip1300)" d="M 0 0 M2988.44 601.672 L2994.87 601.672 L2994.87 643.781 L3018.01 643.781 L3018.01 649.192 L2988.44 649.192 L2988.44 601.672 Z" fill="#000000" fill-rule="evenodd" fill-opacity="1" /><path clip-path="url(#clip1300)" d="M 0 0 M3024.15 613.544 L3030.01 613.544 L3030.01 649.192 L3024.15 649.192 L3024.15 613.544 M3024.15 599.667 L3030.01 599.667 L3030.01 607.083 L3024.15 607.083 L3024.15 599.667 Z" fill="#000000" fill-rule="evenodd" fill-opacity="1" /><path clip-path="url(#clip1300)" d="M 0 0 M3054.2 599.667 L3054.2 604.537 L3048.6 604.537 Q3045.45 604.537 3044.21 605.81 Q3043 607.083 3043 610.393 L3043 613.544 L3052.64 613.544 L3052.64 618.096 L3043 618.096 L3043 649.192 L3037.11 649.192 L3037.11 618.096 L3031.51 618.096 L3031.51 613.544 L3037.11 613.544 L3037.11 611.062 Q3037.11 605.11 3039.88 602.404 Q3042.65 599.667 3048.66 599.667 L3054.2 599.667 Z" fill="#000000" fill-rule="evenodd" fill-opacity="1" /><path clip-path="url(#clip1300)" d="M 0 0 M3064.99 603.423 L3064.99 613.544 L3077.05 613.544 L3077.05 618.096 L3064.99 618.096 L3064.99 637.447 Q3064.99 641.808 3066.17 643.049 Q3067.38 644.291 3071.04 644.291 L3077.05 644.291 L3077.05 649.192 L3071.04 649.192 Q3064.26 649.192 3061.68 646.678 Q3059.1 644.131 3059.1 637.447 L3059.1 618.096 L3054.8 618.096 L3054.8 613.544 L3059.1 613.544 L3059.1 603.423 L3064.99 603.423 Z" fill="#000000" fill-rule="evenodd" fill-opacity="1" /><path clip-path="url(#clip1300)" d="M 0 0 M3119.29 622.87 Q3114.96 622.87 3112.41 625.83 Q3109.9 628.79 3109.9 633.946 Q3109.9 639.071 3112.41 642.063 Q3114.96 645.023 3119.29 645.023 Q3123.62 645.023 3126.13 642.063 Q3128.68 639.071 3128.68 633.946 Q3128.68 628.79 3126.13 625.83 Q3123.62 622.87 3119.29 622.87 M3132.05 602.722 L3132.05 608.579 Q3129.63 607.433 3127.15 606.828 Q3124.7 606.224 3122.28 606.224 Q3115.92 606.224 3112.54 610.52 Q3109.2 614.817 3108.72 623.506 Q3110.6 620.737 3113.43 619.273 Q3116.27 617.777 3119.67 617.777 Q3126.83 617.777 3130.97 622.138 Q3135.14 626.467 3135.14 633.946 Q3135.14 641.267 3130.81 645.691 Q3126.48 650.115 3119.29 650.115 Q3111.05 650.115 3106.68 643.813 Q3102.32 637.479 3102.32 625.48 Q3102.32 614.213 3107.67 607.529 Q3113.02 600.813 3122.03 600.813 Q3124.45 600.813 3126.9 601.29 Q3129.38 601.768 3132.05 602.722 Z" fill="#000000" fill-rule="evenodd" fill-opacity="1" /><polyline clip-path="url(#clip1300)" style="stroke:#ed5d92; stroke-width:16; stroke-opacity:1; fill:none" points="
  2764.44,685.912 2956.44,685.912 
  "/>
<path clip-path="url(#clip1300)" d="M 0 0 M2988.44 662.152 L2994.87 662.152 L2994.87 704.261 L3018.01 704.261 L3018.01 709.672 L2988.44 709.672 L2988.44 662.152 Z" fill="#000000" fill-rule="evenodd" fill-opacity="1" /><path clip-path="url(#clip1300)" d="M 0 0 M3024.15 674.024 L3030.01 674.024 L3030.01 709.672 L3024.15 709.672 L3024.15 674.024 M3024.15 660.147 L3030.01 660.147 L3030.01 667.563 L3024.15 667.563 L3024.15 660.147 Z" fill="#000000" fill-rule="evenodd" fill-opacity="1" /><path clip-path="url(#clip1300)" d="M 0 0 M3054.2 660.147 L3054.2 665.017 L3048.6 665.017 Q3045.45 665.017 3044.21 666.29 Q3043 667.563 3043 670.873 L3043 674.024 L3052.64 674.024 L3052.64 678.576 L3043 678.576 L3043 709.672 L3037.11 709.672 L3037.11 678.576 L3031.51 678.576 L3031.51 674.024 L3037.11 674.024 L3037.11 671.542 Q3037.11 665.59 3039.88 662.884 Q3042.65 660.147 3048.66 660.147 L3054.2 660.147 Z" fill="#000000" fill-rule="evenodd" fill-opacity="1" /><path clip-path="url(#clip1300)" d="M 0 0 M3064.99 663.903 L3064.99 674.024 L3077.05 674.024 L3077.05 678.576 L3064.99 678.576 L3064.99 697.927 Q3064.99 702.288 3066.17 703.529 Q3067.38 704.771 3071.04 704.771 L3077.05 704.771 L3077.05 709.672 L3071.04 709.672 Q3064.26 709.672 3061.68 707.158 Q3059.1 704.611 3059.1 697.927 L3059.1 678.576 L3054.8 678.576 L3054.8 674.024 L3059.1 674.024 L3059.1 663.903 L3064.99 663.903 Z" fill="#000000" fill-rule="evenodd" fill-opacity="1" /><path clip-path="url(#clip1300)" d="M 0 0 M3103.12 662.152 L3133.68 662.152 L3133.68 664.889 L3116.42 709.672 L3109.71 709.672 L3125.94 667.563 L3103.12 667.563 L3103.12 662.152 Z" fill="#000000" fill-rule="evenodd" fill-opacity="1" /><polyline clip-path="url(#clip1300)" style="stroke:#c68125; stroke-width:16; stroke-opacity:1; fill:none" points="
  2764.44,746.392 2956.44,746.392 
  "/>
<path clip-path="url(#clip1300)" d="M 0 0 M2988.44 722.632 L2994.87 722.632 L2994.87 764.741 L3018.01 764.741 L3018.01 770.152 L2988.44 770.152 L2988.44 722.632 Z" fill="#000000" fill-rule="evenodd" fill-opacity="1" /><path clip-path="url(#clip1300)" d="M 0 0 M3024.15 734.504 L3030.01 734.504 L3030.01 770.152 L3024.15 770.152 L3024.15 734.504 M3024.15 720.627 L3030.01 720.627 L3030.01 728.043 L3024.15 728.043 L3024.15 720.627 Z" fill="#000000" fill-rule="evenodd" fill-opacity="1" /><path clip-path="url(#clip1300)" d="M 0 0 M3054.2 720.627 L3054.2 725.497 L3048.6 725.497 Q3045.45 725.497 3044.21 726.77 Q3043 728.043 3043 731.353 L3043 734.504 L3052.64 734.504 L3052.64 739.056 L3043 739.056 L3043 770.152 L3037.11 770.152 L3037.11 739.056 L3031.51 739.056 L3031.51 734.504 L3037.11 734.504 L3037.11 732.022 Q3037.11 726.07 3039.88 723.364 Q3042.65 720.627 3048.66 720.627 L3054.2 720.627 Z" fill="#000000" fill-rule="evenodd" fill-opacity="1" /><path clip-path="url(#clip1300)" d="M 0 0 M3064.99 724.383 L3064.99 734.504 L3077.05 734.504 L3077.05 739.056 L3064.99 739.056 L3064.99 758.407 Q3064.99 762.768 3066.17 764.009 Q3067.38 765.251 3071.04 765.251 L3077.05 765.251 L3077.05 770.152 L3071.04 770.152 Q3064.26 770.152 3061.68 767.638 Q3059.1 765.091 3059.1 758.407 L3059.1 739.056 L3054.8 739.056 L3054.8 734.504 L3059.1 734.504 L3059.1 724.383 L3064.99 724.383 Z" fill="#000000" fill-rule="evenodd" fill-opacity="1" /><path clip-path="url(#clip1300)" d="M 0 0 M3118.49 747.586 Q3113.91 747.586 3111.27 750.036 Q3108.66 752.487 3108.66 756.784 Q3108.66 761.081 3111.27 763.532 Q3113.91 765.983 3118.49 765.983 Q3123.08 765.983 3125.72 763.532 Q3128.36 761.049 3128.36 756.784 Q3128.36 752.487 3125.72 750.036 Q3123.11 747.586 3118.49 747.586 M3112.06 744.848 Q3107.93 743.83 3105.6 740.997 Q3103.31 738.164 3103.31 734.09 Q3103.31 728.393 3107.35 725.083 Q3111.43 721.773 3118.49 721.773 Q3125.59 721.773 3129.63 725.083 Q3133.68 728.393 3133.68 734.09 Q3133.68 738.164 3131.35 740.997 Q3129.06 743.83 3124.95 744.848 Q3129.6 745.931 3132.18 749.082 Q3134.79 752.233 3134.79 756.784 Q3134.79 763.691 3130.56 767.383 Q3126.35 771.075 3118.49 771.075 Q3110.63 771.075 3106.4 767.383 Q3102.2 763.691 3102.2 756.784 Q3102.2 752.233 3104.81 749.082 Q3107.42 745.931 3112.06 744.848 M3109.71 734.695 Q3109.71 738.387 3112 740.456 Q3114.32 742.525 3118.49 742.525 Q3122.63 742.525 3124.95 740.456 Q3127.31 738.387 3127.31 734.695 Q3127.31 731.003 3124.95 728.934 Q3122.63 726.865 3118.49 726.865 Q3114.32 726.865 3112 728.934 Q3109.71 731.003 3109.71 734.695 Z" fill="#000000" fill-rule="evenodd" fill-opacity="1" /><polyline clip-path="url(#clip1300)" style="stroke:#00a98d; stroke-width:16; stroke-opacity:1; fill:none" points="
  2764.44,806.872 2956.44,806.872 
  "/>
<path clip-path="url(#clip1300)" d="M 0 0 M2988.44 783.112 L2994.87 783.112 L2994.87 825.221 L3018.01 825.221 L3018.01 830.632 L2988.44 830.632 L2988.44 783.112 Z" fill="#000000" fill-rule="evenodd" fill-opacity="1" /><path clip-path="url(#clip1300)" d="M 0 0 M3024.15 794.984 L3030.01 794.984 L3030.01 830.632 L3024.15 830.632 L3024.15 794.984 M3024.15 781.107 L3030.01 781.107 L3030.01 788.523 L3024.15 788.523 L3024.15 781.107 Z" fill="#000000" fill-rule="evenodd" fill-opacity="1" /><path clip-path="url(#clip1300)" d="M 0 0 M3054.2 781.107 L3054.2 785.977 L3048.6 785.977 Q3045.45 785.977 3044.21 787.25 Q3043 788.523 3043 791.833 L3043 794.984 L3052.64 794.984 L3052.64 799.536 L3043 799.536 L3043 830.632 L3037.11 830.632 L3037.11 799.536 L3031.51 799.536 L3031.51 794.984 L3037.11 794.984 L3037.11 792.502 Q3037.11 786.55 3039.88 783.844 Q3042.65 781.107 3048.66 781.107 L3054.2 781.107 Z" fill="#000000" fill-rule="evenodd" fill-opacity="1" /><path clip-path="url(#clip1300)" d="M 0 0 M3064.99 784.863 L3064.99 794.984 L3077.05 794.984 L3077.05 799.536 L3064.99 799.536 L3064.99 818.887 Q3064.99 823.248 3066.17 824.489 Q3067.38 825.731 3071.04 825.731 L3077.05 825.731 L3077.05 830.632 L3071.04 830.632 Q3064.26 830.632 3061.68 828.118 Q3059.1 825.571 3059.1 818.887 L3059.1 799.536 L3054.8 799.536 L3054.8 794.984 L3059.1 794.984 L3059.1 784.863 L3064.99 784.863 Z" fill="#000000" fill-rule="evenodd" fill-opacity="1" /><path clip-path="url(#clip1300)" d="M 0 0 M3104.93 829.645 L3104.93 823.789 Q3107.35 824.935 3109.84 825.54 Q3112.32 826.144 3114.71 826.144 Q3121.07 826.144 3124.41 821.879 Q3127.79 817.582 3128.26 808.861 Q3126.42 811.599 3123.59 813.063 Q3120.75 814.527 3117.32 814.527 Q3110.19 814.527 3106.02 810.23 Q3101.88 805.901 3101.88 798.422 Q3101.88 791.101 3106.21 786.677 Q3110.54 782.253 3117.73 782.253 Q3125.97 782.253 3130.3 788.587 Q3134.66 794.889 3134.66 806.92 Q3134.66 818.155 3129.31 824.871 Q3124 831.555 3114.99 831.555 Q3112.57 831.555 3110.09 831.078 Q3107.61 830.6 3104.93 829.645 M3117.73 809.498 Q3122.06 809.498 3124.57 806.538 Q3127.12 803.578 3127.12 798.422 Q3127.12 793.297 3124.57 790.337 Q3122.06 787.345 3117.73 787.345 Q3113.4 787.345 3110.85 790.337 Q3108.34 793.297 3108.34 798.422 Q3108.34 803.578 3110.85 806.538 Q3113.4 809.498 3117.73 809.498 Z" fill="#000000" fill-rule="evenodd" fill-opacity="1" /><polyline clip-path="url(#clip1300)" style="stroke:#8e971d; stroke-width:16; stroke-opacity:1; fill:none" points="
  2764.44,867.352 2956.44,867.352 
  "/>
<path clip-path="url(#clip1300)" d="M 0 0 M2988.44 843.592 L2994.87 843.592 L2994.87 885.701 L3018.01 885.701 L3018.01 891.112 L2988.44 891.112 L2988.44 843.592 Z" fill="#000000" fill-rule="evenodd" fill-opacity="1" /><path clip-path="url(#clip1300)" d="M 0 0 M3024.15 855.464 L3030.01 855.464 L3030.01 891.112 L3024.15 891.112 L3024.15 855.464 M3024.15 841.587 L3030.01 841.587 L3030.01 849.003 L3024.15 849.003 L3024.15 841.587 Z" fill="#000000" fill-rule="evenodd" fill-opacity="1" /><path clip-path="url(#clip1300)" d="M 0 0 M3054.2 841.587 L3054.2 846.457 L3048.6 846.457 Q3045.45 846.457 3044.21 847.73 Q3043 849.003 3043 852.313 L3043 855.464 L3052.64 855.464 L3052.64 860.016 L3043 860.016 L3043 891.112 L3037.11 891.112 L3037.11 860.016 L3031.51 860.016 L3031.51 855.464 L3037.11 855.464 L3037.11 852.982 Q3037.11 847.03 3039.88 844.324 Q3042.65 841.587 3048.66 841.587 L3054.2 841.587 Z" fill="#000000" fill-rule="evenodd" fill-opacity="1" /><path clip-path="url(#clip1300)" d="M 0 0 M3064.99 845.343 L3064.99 855.464 L3077.05 855.464 L3077.05 860.016 L3064.99 860.016 L3064.99 879.367 Q3064.99 883.728 3066.17 884.969 Q3067.38 886.211 3071.04 886.211 L3077.05 886.211 L3077.05 891.112 L3071.04 891.112 Q3064.26 891.112 3061.68 888.598 Q3059.1 886.051 3059.1 879.367 L3059.1 860.016 L3054.8 860.016 L3054.8 855.464 L3059.1 855.464 L3059.1 845.343 L3064.99 845.343 Z" fill="#000000" fill-rule="evenodd" fill-opacity="1" /><path clip-path="url(#clip1300)" d="M 0 0 M3105.86 885.701 L3116.36 885.701 L3116.36 849.449 L3104.93 851.74 L3104.93 845.884 L3116.3 843.592 L3122.73 843.592 L3122.73 885.701 L3133.23 885.701 L3133.23 891.112 L3105.86 891.112 L3105.86 885.701 Z" fill="#000000" fill-rule="evenodd" fill-opacity="1" /><path clip-path="url(#clip1300)" d="M 0 0 M3153.95 847.825 Q3148.98 847.825 3146.47 852.727 Q3143.99 857.597 3143.99 867.4 Q3143.99 877.171 3146.47 882.073 Q3148.98 886.943 3153.95 886.943 Q3158.95 886.943 3161.43 882.073 Q3163.94 877.171 3163.94 867.4 Q3163.94 857.597 3161.43 852.727 Q3158.95 847.825 3153.95 847.825 M3153.95 842.733 Q3161.94 842.733 3166.14 849.067 Q3170.37 855.369 3170.37 867.4 Q3170.37 879.399 3166.14 885.733 Q3161.94 892.035 3153.95 892.035 Q3145.96 892.035 3141.73 885.733 Q3137.53 879.399 3137.53 867.4 Q3137.53 855.369 3141.73 849.067 Q3145.96 842.733 3153.95 842.733 Z" fill="#000000" fill-rule="evenodd" fill-opacity="1" /><polyline clip-path="url(#clip1300)" style="stroke:#00a8cb; stroke-width:16; stroke-opacity:1; fill:none" points="
  2764.44,927.832 2956.44,927.832 
  "/>
<path clip-path="url(#clip1300)" d="M 0 0 M2988.44 904.072 L2994.87 904.072 L2994.87 946.181 L3018.01 946.181 L3018.01 951.592 L2988.44 951.592 L2988.44 904.072 Z" fill="#000000" fill-rule="evenodd" fill-opacity="1" /><path clip-path="url(#clip1300)" d="M 0 0 M3036.82 920.05 Q3032.11 920.05 3029.37 923.742 Q3026.64 927.402 3026.64 933.8 Q3026.64 940.198 3029.34 943.89 Q3032.08 947.55 3036.82 947.55 Q3041.5 947.55 3044.24 943.858 Q3046.97 940.166 3046.97 933.8 Q3046.97 927.466 3044.24 923.774 Q3041.5 920.05 3036.82 920.05 M3036.82 915.085 Q3044.46 915.085 3048.82 920.05 Q3053.18 925.015 3053.18 933.8 Q3053.18 942.553 3048.82 947.55 Q3044.46 952.515 3036.82 952.515 Q3029.15 952.515 3024.79 947.55 Q3020.46 942.553 3020.46 933.8 Q3020.46 925.015 3024.79 920.05 Q3029.15 915.085 3036.82 915.085 Z" fill="#000000" fill-rule="evenodd" fill-opacity="1" /><path clip-path="url(#clip1300)" d="M 0 0 M3075.52 933.673 Q3068.43 933.673 3065.69 935.296 Q3062.95 936.919 3062.95 940.834 Q3062.95 943.953 3064.99 945.799 Q3067.06 947.614 3070.59 947.614 Q3075.46 947.614 3078.39 944.176 Q3081.35 940.707 3081.35 934.978 L3081.35 933.673 L3075.52 933.673 M3087.21 931.254 L3087.21 951.592 L3081.35 951.592 L3081.35 946.181 Q3079.34 949.428 3076.35 950.987 Q3073.36 952.515 3069.03 952.515 Q3063.56 952.515 3060.31 949.46 Q3057.1 946.372 3057.1 941.216 Q3057.1 935.2 3061.11 932.145 Q3065.15 929.089 3073.14 929.089 L3081.35 929.089 L3081.35 928.516 Q3081.35 924.474 3078.68 922.278 Q3076.03 920.05 3071.23 920.05 Q3068.17 920.05 3065.28 920.782 Q3062.38 921.514 3059.71 922.978 L3059.71 917.567 Q3062.92 916.326 3065.94 915.721 Q3068.97 915.085 3071.83 915.085 Q3079.57 915.085 3083.39 919.095 Q3087.21 923.106 3087.21 931.254 Z" fill="#000000" fill-rule="evenodd" fill-opacity="1" /><path clip-path="url(#clip1300)" d="M 0 0 M3116.81 921.355 L3116.81 902.067 L3122.66 902.067 L3122.66 951.592 L3116.81 951.592 L3116.81 946.245 Q3114.96 949.428 3112.13 950.987 Q3109.33 952.515 3105.38 952.515 Q3098.92 952.515 3094.84 947.359 Q3090.8 942.203 3090.8 933.8 Q3090.8 925.397 3094.84 920.241 Q3098.92 915.085 3105.38 915.085 Q3109.33 915.085 3112.13 916.644 Q3114.96 918.172 3116.81 921.355 M3096.85 933.8 Q3096.85 940.261 3099.49 943.953 Q3102.17 947.614 3106.81 947.614 Q3111.46 947.614 3114.13 943.953 Q3116.81 940.261 3116.81 933.8 Q3116.81 927.339 3114.13 923.679 Q3111.46 919.986 3106.81 919.986 Q3102.17 919.986 3099.49 923.679 Q3096.85 927.339 3096.85 933.8 Z" fill="#000000" fill-rule="evenodd" fill-opacity="1" /></svg>
