<?xml version="1.0" encoding="utf-8"?>
<svg xmlns="http://www.w3.org/2000/svg" xmlns:xlink="http://www.w3.org/1999/xlink" width="800" height="600" viewBox="0 0 3200 2400">
<defs>
  <clipPath id="clip0700">
    <rect x="0" y="0" width="3200" height="2400"/>
  </clipPath>
</defs>
<path clip-path="url(#clip0700)" d="
M0 2400 L3200 2400 L3200 0 L0 0  Z
  " fill="#ffffff" fill-rule="evenodd" fill-opacity="1"/>
<defs>
  <clipPath id="clip0701">
    <rect x="640" y="0" width="2241" height="2241"/>
  </clipPath>
</defs>
<path clip-path="url(#clip0700)" d="
M239.663 2204.92 L2636.44 2204.92 L2636.44 131.032 L239.663 131.032  Z
  " fill="#ffffff" fill-rule="evenodd" fill-opacity="1"/>
<defs>
  <clipPath id="clip0702">
    <rect x="239" y="131" width="2398" height="2075"/>
  </clipPath>
</defs>
<polyline clip-path="url(#clip0702)" style="stroke:#000000; stroke-width:2; stroke-opacity:0.1; fill:none" points="
  307.496,2204.92 307.496,131.032 
  "/>
<polyline clip-path="url(#clip0702)" style="stroke:#000000; stroke-width:2; stroke-opacity:0.1; fill:none" points="
  759.719,2204.92 759.719,131.032 
  "/>
<polyline clip-path="url(#clip0702)" style="stroke:#000000; stroke-width:2; stroke-opacity:0.1; fill:none" points="
  1211.94,2204.92 1211.94,131.032 
  "/>
<polyline clip-path="url(#clip0702)" style="stroke:#000000; stroke-width:2; stroke-opacity:0.1; fill:none" points="
  1664.16,2204.92 1664.16,131.032 
  "/>
<polyline clip-path="url(#clip0702)" style="stroke:#000000; stroke-width:2; stroke-opacity:0.1; fill:none" points="
  2116.39,2204.92 2116.39,131.032 
  "/>
<polyline clip-path="url(#clip0702)" style="stroke:#000000; stroke-width:2; stroke-opacity:0.1; fill:none" points="
  2568.61,2204.92 2568.61,131.032 
  "/>
<polyline clip-path="url(#clip0702)" style="stroke:#000000; stroke-width:2; stroke-opacity:0.1; fill:none" points="
  239.663,1870.97 2636.44,1870.97 
  "/>
<polyline clip-path="url(#clip0702)" style="stroke:#000000; stroke-width:2; stroke-opacity:0.1; fill:none" points="
  239.663,1462.11 2636.44,1462.11 
  "/>
<polyline clip-path="url(#clip0702)" style="stroke:#000000; stroke-width:2; stroke-opacity:0.1; fill:none" points="
  239.663,1053.26 2636.44,1053.26 
  "/>
<polyline clip-path="url(#clip0702)" style="stroke:#000000; stroke-width:2; stroke-opacity:0.1; fill:none" points="
  239.663,644.401 2636.44,644.401 
  "/>
<polyline clip-path="url(#clip0702)" style="stroke:#000000; stroke-width:2; stroke-opacity:0.1; fill:none" points="
  239.663,235.546 2636.44,235.546 
  "/>
<polyline clip-path="url(#clip0700)" style="stroke:#000000; stroke-width:4; stroke-opacity:1; fill:none" points="
  239.663,2204.92 2636.44,2204.92 
  "/>
<polyline clip-path="url(#clip0700)" style="stroke:#000000; stroke-width:4; stroke-opacity:1; fill:none" points="
  239.663,2204.92 239.663,131.032 
  "/>
<polyline clip-path="url(#clip0700)" style="stroke:#000000; stroke-width:4; stroke-opacity:1; fill:none" points="
  307.496,2204.92 307.496,2180.03 
  "/>
<polyline clip-path="url(#clip0700)" style="stroke:#000000; stroke-width:4; stroke-opacity:1; fill:none" points="
  759.719,2204.92 759.719,2180.03 
  "/>
<polyline clip-path="url(#clip0700)" style="stroke:#000000; stroke-width:4; stroke-opacity:1; fill:none" points="
  1211.94,2204.92 1211.94,2180.03 
  "/>
<polyline clip-path="url(#clip0700)" style="stroke:#000000; stroke-width:4; stroke-opacity:1; fill:none" points="
  1664.16,2204.92 1664.16,2180.03 
  "/>
<polyline clip-path="url(#clip0700)" style="stroke:#000000; stroke-width:4; stroke-opacity:1; fill:none" points="
  2116.39,2204.92 2116.39,2180.03 
  "/>
<polyline clip-path="url(#clip0700)" style="stroke:#000000; stroke-width:4; stroke-opacity:1; fill:none" points="
  2568.61,2204.92 2568.61,2180.03 
  "/>
<polyline clip-path="url(#clip0700)" style="stroke:#000000; stroke-width:4; stroke-opacity:1; fill:none" points="
  239.663,1870.97 268.424,1870.97 
  "/>
<polyline clip-path="url(#clip0700)" style="stroke:#000000; stroke-width:4; stroke-opacity:1; fill:none" points="
  239.663,1462.11 268.424,1462.11 
  "/>
<polyline clip-path="url(#clip0700)" style="stroke:#000000; stroke-width:4; stroke-opacity:1; fill:none" points="
  239.663,1053.26 268.424,1053.26 
  "/>
<polyline clip-path="url(#clip0700)" style="stroke:#000000; stroke-width:4; stroke-opacity:1; fill:none" points="
  239.663,644.401 268.424,644.401 
  "/>
<polyline clip-path="url(#clip0700)" style="stroke:#000000; stroke-width:4; stroke-opacity:1; fill:none" points="
  239.663,235.546 268.424,235.546 
  "/>
<path clip-path="url(#clip0700)" d="M 0 0 M307.496 2230.91 Q303.885 2230.91 302.056 2234.48 Q300.251 2238.02 300.251 2245.15 Q300.251 2252.25 302.056 2255.82 Q303.885 2259.36 307.496 2259.36 Q311.13 2259.36 312.936 2255.82 Q314.765 2252.25 314.765 2245.15 Q314.765 2238.02 312.936 2234.48 Q311.13 2230.91 307.496 2230.91 M307.496 2227.21 Q313.306 2227.21 316.362 2231.81 Q319.44 2236.4 319.44 2245.15 Q319.44 2253.87 316.362 2258.48 Q313.306 2263.06 307.496 2263.06 Q301.686 2263.06 298.607 2258.48 Q295.552 2253.87 295.552 2245.15 Q295.552 2236.4 298.607 2231.81 Q301.686 2227.21 307.496 2227.21 Z" fill="#000000" fill-rule="evenodd" fill-opacity="1" /><path clip-path="url(#clip0700)" d="M 0 0 M750.101 2258.46 L757.739 2258.46 L757.739 2232.09 L749.429 2233.76 L749.429 2229.5 L757.693 2227.83 L762.369 2227.83 L762.369 2258.46 L770.008 2258.46 L770.008 2262.39 L750.101 2262.39 L750.101 2258.46 Z" fill="#000000" fill-rule="evenodd" fill-opacity="1" /><path clip-path="url(#clip0700)" d="M 0 0 M1206.59 2258.46 L1222.91 2258.46 L1222.91 2262.39 L1200.97 2262.39 L1200.97 2258.46 Q1203.63 2255.7 1208.21 2251.07 Q1212.82 2246.42 1214 2245.08 Q1216.25 2242.55 1217.13 2240.82 Q1218.03 2239.06 1218.03 2237.37 Q1218.03 2234.61 1216.08 2232.88 Q1214.16 2231.14 1211.06 2231.14 Q1208.86 2231.14 1206.41 2231.91 Q1203.98 2232.67 1201.2 2234.22 L1201.2 2229.5 Q1204.02 2228.36 1206.48 2227.79 Q1208.93 2227.21 1210.97 2227.21 Q1216.34 2227.21 1219.53 2229.89 Q1222.73 2232.58 1222.73 2237.07 Q1222.73 2239.2 1221.92 2241.12 Q1221.13 2243.02 1219.02 2245.61 Q1218.45 2246.28 1215.34 2249.5 Q1212.24 2252.69 1206.59 2258.46 Z" fill="#000000" fill-rule="evenodd" fill-opacity="1" /><path clip-path="url(#clip0700)" d="M 0 0 M1668.41 2243.76 Q1671.77 2244.48 1673.64 2246.74 Q1675.54 2249.01 1675.54 2252.35 Q1675.54 2257.46 1672.02 2260.26 Q1668.5 2263.06 1662.02 2263.06 Q1659.85 2263.06 1657.53 2262.62 Q1655.24 2262.21 1652.79 2261.35 L1652.79 2256.84 Q1654.73 2257.97 1657.05 2258.55 Q1659.36 2259.13 1661.88 2259.13 Q1666.28 2259.13 1668.57 2257.39 Q1670.89 2255.66 1670.89 2252.35 Q1670.89 2249.29 1668.74 2247.58 Q1666.61 2245.84 1662.79 2245.84 L1658.76 2245.84 L1658.76 2242 L1662.97 2242 Q1666.42 2242 1668.25 2240.63 Q1670.08 2239.24 1670.08 2236.65 Q1670.08 2233.99 1668.18 2232.58 Q1666.3 2231.14 1662.79 2231.14 Q1660.86 2231.14 1658.67 2231.56 Q1656.47 2231.98 1653.83 2232.85 L1653.83 2228.69 Q1656.49 2227.95 1658.8 2227.58 Q1661.14 2227.21 1663.2 2227.21 Q1668.53 2227.21 1671.63 2229.64 Q1674.73 2232.04 1674.73 2236.17 Q1674.73 2239.04 1673.09 2241.03 Q1671.44 2242.99 1668.41 2243.76 Z" fill="#000000" fill-rule="evenodd" fill-opacity="1" /><path clip-path="url(#clip0700)" d="M 0 0 M2119.4 2231.91 L2107.59 2250.35 L2119.4 2250.35 L2119.4 2231.91 M2118.17 2227.83 L2124.05 2227.83 L2124.05 2250.35 L2128.98 2250.35 L2128.98 2254.24 L2124.05 2254.24 L2124.05 2262.39 L2119.4 2262.39 L2119.4 2254.24 L2103.79 2254.24 L2103.79 2249.73 L2118.17 2227.83 Z" fill="#000000" fill-rule="evenodd" fill-opacity="1" /><path clip-path="url(#clip0700)" d="M 0 0 M2558.89 2227.83 L2577.24 2227.83 L2577.24 2231.77 L2563.17 2231.77 L2563.17 2240.24 Q2564.19 2239.89 2565.21 2239.73 Q2566.22 2239.54 2567.24 2239.54 Q2573.03 2239.54 2576.41 2242.72 Q2579.79 2245.89 2579.79 2251.3 Q2579.79 2256.88 2576.32 2259.98 Q2572.84 2263.06 2566.53 2263.06 Q2564.35 2263.06 2562.08 2262.69 Q2559.84 2262.32 2557.43 2261.58 L2557.43 2256.88 Q2559.51 2258.02 2561.73 2258.57 Q2563.96 2259.13 2566.43 2259.13 Q2570.44 2259.13 2572.78 2257.02 Q2575.11 2254.92 2575.11 2251.3 Q2575.11 2247.69 2572.78 2245.59 Q2570.44 2243.48 2566.43 2243.48 Q2564.56 2243.48 2562.68 2243.9 Q2560.83 2244.31 2558.89 2245.19 L2558.89 2227.83 Z" fill="#000000" fill-rule="evenodd" fill-opacity="1" /><path clip-path="url(#clip0700)" d="M 0 0 M132.802 1873.36 L145.279 1873.36 L145.279 1877.16 L132.802 1877.16 L132.802 1873.36 Z" fill="#000000" fill-rule="evenodd" fill-opacity="1" /><path clip-path="url(#clip0700)" d="M 0 0 M154.376 1884.31 L170.695 1884.31 L170.695 1888.25 L148.751 1888.25 L148.751 1884.31 Q151.413 1881.56 155.996 1876.93 Q160.603 1872.27 161.783 1870.93 Q164.029 1868.41 164.908 1866.67 Q165.811 1864.91 165.811 1863.22 Q165.811 1860.47 163.867 1858.73 Q161.945 1857 158.844 1857 Q156.644 1857 154.191 1857.76 Q151.76 1858.52 148.982 1860.07 L148.982 1855.35 Q151.807 1854.22 154.26 1853.64 Q156.714 1853.06 158.751 1853.06 Q164.121 1853.06 167.316 1855.75 Q170.51 1858.43 170.51 1862.92 Q170.51 1865.05 169.7 1866.97 Q168.913 1868.87 166.806 1871.46 Q166.228 1872.13 163.126 1875.35 Q160.024 1878.55 154.376 1884.31 Z" fill="#000000" fill-rule="evenodd" fill-opacity="1" /><path clip-path="url(#clip0700)" d="M 0 0 M175.765 1882.37 L180.649 1882.37 L180.649 1888.25 L175.765 1888.25 L175.765 1882.37 Z" fill="#000000" fill-rule="evenodd" fill-opacity="1" /><path clip-path="url(#clip0700)" d="M 0 0 M195.718 1856.76 Q192.107 1856.76 190.279 1860.33 Q188.473 1863.87 188.473 1871 Q188.473 1878.11 190.279 1881.67 Q192.107 1885.21 195.718 1885.21 Q199.353 1885.21 201.158 1881.67 Q202.987 1878.11 202.987 1871 Q202.987 1863.87 201.158 1860.33 Q199.353 1856.76 195.718 1856.76 M195.718 1853.06 Q201.528 1853.06 204.584 1857.67 Q207.663 1862.25 207.663 1871 Q207.663 1879.73 204.584 1884.33 Q201.528 1888.92 195.718 1888.92 Q189.908 1888.92 186.829 1884.33 Q183.774 1879.73 183.774 1871 Q183.774 1862.25 186.829 1857.67 Q189.908 1853.06 195.718 1853.06 Z" fill="#000000" fill-rule="evenodd" fill-opacity="1" /><path clip-path="url(#clip0700)" d="M 0 0 M133.427 1464.51 L145.904 1464.51 L145.904 1468.3 L133.427 1468.3 L133.427 1464.51 Z" fill="#000000" fill-rule="evenodd" fill-opacity="1" /><path clip-path="url(#clip0700)" d="M 0 0 M151.783 1475.46 L159.422 1475.46 L159.422 1449.09 L151.112 1450.76 L151.112 1446.5 L159.376 1444.83 L164.052 1444.83 L164.052 1475.46 L171.691 1475.46 L171.691 1479.39 L151.783 1479.39 L151.783 1475.46 Z" fill="#000000" fill-rule="evenodd" fill-opacity="1" /><path clip-path="url(#clip0700)" d="M 0 0 M176.76 1473.51 L181.644 1473.51 L181.644 1479.39 L176.76 1479.39 L176.76 1473.51 Z" fill="#000000" fill-rule="evenodd" fill-opacity="1" /><path clip-path="url(#clip0700)" d="M 0 0 M186.76 1444.83 L205.116 1444.83 L205.116 1448.77 L191.042 1448.77 L191.042 1457.24 Q192.061 1456.89 193.079 1456.73 Q194.098 1456.54 195.116 1456.54 Q200.903 1456.54 204.283 1459.71 Q207.663 1462.89 207.663 1468.3 Q207.663 1473.88 204.191 1476.98 Q200.718 1480.06 194.399 1480.06 Q192.223 1480.06 189.954 1479.69 Q187.709 1479.32 185.302 1478.58 L185.302 1473.88 Q187.385 1475.02 189.607 1475.57 Q191.829 1476.13 194.306 1476.13 Q198.311 1476.13 200.649 1474.02 Q202.987 1471.91 202.987 1468.3 Q202.987 1464.69 200.649 1462.59 Q198.311 1460.48 194.306 1460.48 Q192.431 1460.48 190.556 1460.9 Q188.704 1461.31 186.76 1462.19 L186.76 1444.83 Z" fill="#000000" fill-rule="evenodd" fill-opacity="1" /><path clip-path="url(#clip0700)" d="M 0 0 M132.432 1055.65 L144.908 1055.65 L144.908 1059.45 L132.432 1059.45 L132.432 1055.65 Z" fill="#000000" fill-rule="evenodd" fill-opacity="1" /><path clip-path="url(#clip0700)" d="M 0 0 M150.788 1066.6 L158.427 1066.6 L158.427 1040.23 L150.117 1041.9 L150.117 1037.64 L158.381 1035.98 L163.056 1035.98 L163.056 1066.6 L170.695 1066.6 L170.695 1070.54 L150.788 1070.54 L150.788 1066.6 Z" fill="#000000" fill-rule="evenodd" fill-opacity="1" /><path clip-path="url(#clip0700)" d="M 0 0 M175.765 1064.66 L180.649 1064.66 L180.649 1070.54 L175.765 1070.54 L175.765 1064.66 Z" fill="#000000" fill-rule="evenodd" fill-opacity="1" /><path clip-path="url(#clip0700)" d="M 0 0 M195.718 1039.05 Q192.107 1039.05 190.279 1042.62 Q188.473 1046.16 188.473 1053.29 Q188.473 1060.4 190.279 1063.96 Q192.107 1067.5 195.718 1067.5 Q199.353 1067.5 201.158 1063.96 Q202.987 1060.4 202.987 1053.29 Q202.987 1046.16 201.158 1042.62 Q199.353 1039.05 195.718 1039.05 M195.718 1035.35 Q201.528 1035.35 204.584 1039.96 Q207.663 1044.54 207.663 1053.29 Q207.663 1062.02 204.584 1066.62 Q201.528 1071.21 195.718 1071.21 Q189.908 1071.21 186.829 1066.62 Q183.774 1062.02 183.774 1053.29 Q183.774 1044.54 186.829 1039.96 Q189.908 1035.35 195.718 1035.35 Z" fill="#000000" fill-rule="evenodd" fill-opacity="1" /><path clip-path="url(#clip0700)" d="M 0 0 M132.2 646.797 L144.677 646.797 L144.677 650.593 L132.2 650.593 L132.2 646.797 Z" fill="#000000" fill-rule="evenodd" fill-opacity="1" /><path clip-path="url(#clip0700)" d="M 0 0 M159.746 630.199 Q156.135 630.199 154.307 633.764 Q152.501 637.306 152.501 644.435 Q152.501 651.542 154.307 655.107 Q156.135 658.648 159.746 658.648 Q163.381 658.648 165.186 655.107 Q167.015 651.542 167.015 644.435 Q167.015 637.306 165.186 633.764 Q163.381 630.199 159.746 630.199 M159.746 626.496 Q165.556 626.496 168.612 631.102 Q171.691 635.685 171.691 644.435 Q171.691 653.162 168.612 657.769 Q165.556 662.352 159.746 662.352 Q153.936 662.352 150.857 657.769 Q147.802 653.162 147.802 644.435 Q147.802 635.685 150.857 631.102 Q153.936 626.496 159.746 626.496 Z" fill="#000000" fill-rule="evenodd" fill-opacity="1" /><path clip-path="url(#clip0700)" d="M 0 0 M176.76 655.801 L181.644 655.801 L181.644 661.681 L176.76 661.681 L176.76 655.801 Z" fill="#000000" fill-rule="evenodd" fill-opacity="1" /><path clip-path="url(#clip0700)" d="M 0 0 M186.76 627.121 L205.116 627.121 L205.116 631.056 L191.042 631.056 L191.042 639.528 Q192.061 639.181 193.079 639.019 Q194.098 638.834 195.116 638.834 Q200.903 638.834 204.283 642.005 Q207.663 645.176 207.663 650.593 Q207.663 656.171 204.191 659.273 Q200.718 662.352 194.399 662.352 Q192.223 662.352 189.954 661.982 Q187.709 661.611 185.302 660.871 L185.302 656.171 Q187.385 657.306 189.607 657.861 Q191.829 658.417 194.306 658.417 Q198.311 658.417 200.649 656.31 Q202.987 654.204 202.987 650.593 Q202.987 646.982 200.649 644.875 Q198.311 642.769 194.306 642.769 Q192.431 642.769 190.556 643.185 Q188.704 643.602 186.76 644.482 L186.76 627.121 Z" fill="#000000" fill-rule="evenodd" fill-opacity="1" /><path clip-path="url(#clip0700)" d="M 0 0 M158.751 221.345 Q155.14 221.345 153.311 224.909 Q151.506 228.451 151.506 235.581 Q151.506 242.687 153.311 246.252 Q155.14 249.793 158.751 249.793 Q162.385 249.793 164.191 246.252 Q166.019 242.687 166.019 235.581 Q166.019 228.451 164.191 224.909 Q162.385 221.345 158.751 221.345 M158.751 217.641 Q164.561 217.641 167.617 222.247 Q170.695 226.831 170.695 235.581 Q170.695 244.307 167.617 248.914 Q164.561 253.497 158.751 253.497 Q152.941 253.497 149.862 248.914 Q146.807 244.307 146.807 235.581 Q146.807 226.831 149.862 222.247 Q152.941 217.641 158.751 217.641 Z" fill="#000000" fill-rule="evenodd" fill-opacity="1" /><path clip-path="url(#clip0700)" d="M 0 0 M175.765 246.946 L180.649 246.946 L180.649 252.826 L175.765 252.826 L175.765 246.946 Z" fill="#000000" fill-rule="evenodd" fill-opacity="1" /><path clip-path="url(#clip0700)" d="M 0 0 M195.718 221.345 Q192.107 221.345 190.279 224.909 Q188.473 228.451 188.473 235.581 Q188.473 242.687 190.279 246.252 Q192.107 249.793 195.718 249.793 Q199.353 249.793 201.158 246.252 Q202.987 242.687 202.987 235.581 Q202.987 228.451 201.158 224.909 Q199.353 221.345 195.718 221.345 M195.718 217.641 Q201.528 217.641 204.584 222.247 Q207.663 226.831 207.663 235.581 Q207.663 244.307 204.584 248.914 Q201.528 253.497 195.718 253.497 Q189.908 253.497 186.829 248.914 Q183.774 244.307 183.774 235.581 Q183.774 226.831 186.829 222.247 Q189.908 217.641 195.718 217.641 Z" fill="#000000" fill-rule="evenodd" fill-opacity="1" /><path clip-path="url(#clip0700)" d="M 0 0 M881.093 45.1919 L881.093 72.576 L873.64 72.576 L873.64 45.4349 Q873.64 38.994 871.128 35.7938 Q868.617 32.5936 863.594 32.5936 Q857.558 32.5936 854.074 36.4419 Q850.59 40.2903 850.59 46.9338 L850.59 72.576 L843.096 72.576 L843.096 9.54393 L850.59 9.54393 L850.59 34.2544 Q853.264 30.163 856.869 28.1376 Q860.515 26.1121 865.254 26.1121 Q873.073 26.1121 877.083 30.9732 Q881.093 35.7938 881.093 45.1919 Z" fill="#000000" fill-rule="evenodd" fill-opacity="1" /><path clip-path="url(#clip0700)" d="M 0 0 M906.493 32.4315 Q900.497 32.4315 897.013 37.1306 Q893.53 41.7891 893.53 49.9314 Q893.53 58.0738 896.973 62.7728 Q900.457 67.4314 906.493 67.4314 Q912.447 67.4314 915.931 62.7323 Q919.415 58.0333 919.415 49.9314 Q919.415 41.8701 915.931 37.1711 Q912.447 32.4315 906.493 32.4315 M906.493 26.1121 Q916.215 26.1121 921.765 32.4315 Q927.314 38.7509 927.314 49.9314 Q927.314 61.0714 921.765 67.4314 Q916.215 73.7508 906.493 73.7508 Q896.73 73.7508 891.18 67.4314 Q885.671 61.0714 885.671 49.9314 Q885.671 38.7509 891.18 32.4315 Q896.73 26.1121 906.493 26.1121 Z" fill="#000000" fill-rule="evenodd" fill-opacity="1" /><path clip-path="url(#clip0700)" d="M 0 0 M929.785 27.2059 L937.685 27.2059 L951.863 65.2844 L966.041 27.2059 L973.94 27.2059 L956.926 72.576 L946.799 72.576 L929.785 27.2059 Z" fill="#000000" fill-rule="evenodd" fill-opacity="1" /><path clip-path="url(#clip0700)" d="M 0 0 M1020.57 48.0275 L1020.57 51.6733 L986.295 51.6733 Q986.782 59.3701 990.913 63.421 Q995.086 67.4314 1002.5 67.4314 Q1006.79 67.4314 1010.8 66.3781 Q1014.85 65.3249 1018.82 63.2184 L1018.82 70.267 Q1014.81 71.9684 1010.6 72.8596 Q1006.39 73.7508 1002.05 73.7508 Q991.197 73.7508 984.837 67.4314 Q978.518 61.1119 978.518 50.3365 Q978.518 39.1965 984.513 32.6746 Q990.549 26.1121 1000.76 26.1121 Q1009.91 26.1121 1015.22 32.0264 Q1020.57 37.9003 1020.57 48.0275 M1013.11 45.84 Q1013.03 39.7232 1009.67 36.0774 Q1006.35 32.4315 1000.84 32.4315 Q994.6 32.4315 990.832 35.9558 Q987.106 39.4801 986.538 45.8805 L1013.11 45.84 Z" fill="#000000" fill-rule="evenodd" fill-opacity="1" /><path clip-path="url(#clip0700)" d="M 0 0 M1054.67 34.1734 Q1053.42 33.4443 1051.92 33.1202 Q1050.46 32.7556 1048.68 32.7556 Q1042.36 32.7556 1038.96 36.8875 Q1035.59 40.9789 1035.59 48.6757 L1035.59 72.576 L1028.1 72.576 L1028.1 27.2059 L1035.59 27.2059 L1035.59 34.2544 Q1037.94 30.1225 1041.71 28.1376 Q1045.48 26.1121 1050.87 26.1121 Q1051.64 26.1121 1052.57 26.2337 Q1053.5 26.3147 1054.63 26.5172 L1054.67 34.1734 Z" fill="#000000" fill-rule="evenodd" fill-opacity="1" /><path clip-path="url(#clip0700)" d="M 0 0 M1053.42 46.5287 L1075.25 46.5287 L1075.25 53.1722 L1053.42 53.1722 L1053.42 46.5287 Z" fill="#000000" fill-rule="evenodd" fill-opacity="1" /><path clip-path="url(#clip0700)" d="M 0 0 M1085.54 65.6895 L1098.91 65.6895 L1098.91 19.5497 L1084.37 22.4663 L1084.37 15.0127 L1098.83 12.096 L1107.01 12.096 L1107.01 65.6895 L1120.38 65.6895 L1120.38 72.576 L1085.54 72.576 L1085.54 65.6895 Z" fill="#000000" fill-rule="evenodd" fill-opacity="1" /><path clip-path="url(#clip0700)" d="M 0 0 M1146.75 17.4837 Q1140.43 17.4837 1137.23 23.7221 Q1134.07 29.92 1134.07 42.3968 Q1134.07 54.833 1137.23 61.0714 Q1140.43 67.2693 1146.75 67.2693 Q1153.11 67.2693 1156.27 61.0714 Q1159.47 54.833 1159.47 42.3968 Q1159.47 29.92 1156.27 23.7221 Q1153.11 17.4837 1146.75 17.4837 M1146.75 11.0023 Q1156.92 11.0023 1162.27 19.0636 Q1167.65 27.0843 1167.65 42.3968 Q1167.65 57.6687 1162.27 65.73 Q1156.92 73.7508 1146.75 73.7508 Q1136.58 73.7508 1131.2 65.73 Q1125.85 57.6687 1125.85 42.3968 Q1125.85 27.0843 1131.2 19.0636 Q1136.58 11.0023 1146.75 11.0023 Z" fill="#000000" fill-rule="evenodd" fill-opacity="1" /><path clip-path="url(#clip0700)" d="M 0 0 M1198.08 46.5287 L1219.91 46.5287 L1219.91 53.1722 L1198.08 53.1722 L1198.08 46.5287 Z" fill="#000000" fill-rule="evenodd" fill-opacity="1" /><path clip-path="url(#clip0700)" d="M 0 0 M1274.64 20.1573 L1263.54 50.2555 L1285.78 50.2555 L1274.64 20.1573 M1270.02 12.096 L1279.3 12.096 L1302.35 72.576 L1293.84 72.576 L1288.33 57.061 L1261.07 57.061 L1255.56 72.576 L1246.93 72.576 L1270.02 12.096 Z" fill="#000000" fill-rule="evenodd" fill-opacity="1" /><path clip-path="url(#clip0700)" d="M 0 0 M1340.02 49.3643 Q1340.02 41.2625 1336.66 36.8065 Q1333.34 32.3505 1327.3 32.3505 Q1321.31 32.3505 1317.94 36.8065 Q1314.62 41.2625 1314.62 49.3643 Q1314.62 57.4256 1317.94 61.8816 Q1321.31 66.3376 1327.3 66.3376 Q1333.34 66.3376 1336.66 61.8816 Q1340.02 57.4256 1340.02 49.3643 M1347.47 66.9452 Q1347.47 78.5308 1342.33 84.1616 Q1337.18 89.8329 1326.57 89.8329 Q1322.64 89.8329 1319.16 89.2252 Q1315.67 88.6581 1312.39 87.4428 L1312.39 80.1917 Q1315.67 81.9741 1318.87 82.8248 Q1322.07 83.6755 1325.4 83.6755 Q1332.73 83.6755 1336.37 79.8271 Q1340.02 76.0193 1340.02 68.282 L1340.02 64.5957 Q1337.71 68.6061 1334.11 70.5911 Q1330.5 72.576 1325.48 72.576 Q1317.13 72.576 1312.03 66.2161 Q1306.92 59.8562 1306.92 49.3643 Q1306.92 38.832 1312.03 32.472 Q1317.13 26.1121 1325.48 26.1121 Q1330.5 26.1121 1334.11 28.0971 Q1337.71 30.082 1340.02 34.0924 L1340.02 27.2059 L1347.47 27.2059 L1347.47 66.9452 Z" fill="#000000" fill-rule="evenodd" fill-opacity="1" /><path clip-path="url(#clip0700)" d="M 0 0 M1394.1 48.0275 L1394.1 51.6733 L1359.83 51.6733 Q1360.32 59.3701 1364.45 63.421 Q1368.62 67.4314 1376.03 67.4314 Q1380.33 67.4314 1384.34 66.3781 Q1388.39 65.3249 1392.36 63.2184 L1392.36 70.267 Q1388.35 71.9684 1384.13 72.8596 Q1379.92 73.7508 1375.59 73.7508 Q1364.73 73.7508 1358.37 67.4314 Q1352.05 61.1119 1352.05 50.3365 Q1352.05 39.1965 1358.05 32.6746 Q1364.08 26.1121 1374.29 26.1121 Q1383.45 26.1121 1388.75 32.0264 Q1394.1 37.9003 1394.1 48.0275 M1386.65 45.84 Q1386.57 39.7232 1383.2 36.0774 Q1379.88 32.4315 1374.37 32.4315 Q1368.13 32.4315 1364.37 35.9558 Q1360.64 39.4801 1360.07 45.8805 L1386.65 45.84 Z" fill="#000000" fill-rule="evenodd" fill-opacity="1" /><path clip-path="url(#clip0700)" d="M 0 0 M1439.63 45.1919 L1439.63 72.576 L1432.18 72.576 L1432.18 45.4349 Q1432.18 38.994 1429.67 35.7938 Q1427.16 32.5936 1422.13 32.5936 Q1416.1 32.5936 1412.61 36.4419 Q1409.13 40.2903 1409.13 46.9338 L1409.13 72.576 L1401.63 72.576 L1401.63 27.2059 L1409.13 27.2059 L1409.13 34.2544 Q1411.8 30.163 1415.41 28.1376 Q1419.05 26.1121 1423.79 26.1121 Q1431.61 26.1121 1435.62 30.9732 Q1439.63 35.7938 1439.63 45.1919 Z" fill="#000000" fill-rule="evenodd" fill-opacity="1" /><path clip-path="url(#clip0700)" d="M 0 0 M1454.82 14.324 L1454.82 27.2059 L1470.18 27.2059 L1470.18 32.9987 L1454.82 32.9987 L1454.82 57.6282 Q1454.82 63.1779 1456.32 64.7578 Q1457.86 66.3376 1462.52 66.3376 L1470.18 66.3376 L1470.18 72.576 L1462.52 72.576 Q1453.89 72.576 1450.61 69.3758 Q1447.33 66.1351 1447.33 57.6282 L1447.33 32.9987 L1441.86 32.9987 L1441.86 27.2059 L1447.33 27.2059 L1447.33 14.324 L1454.82 14.324 Z" fill="#000000" fill-rule="evenodd" fill-opacity="1" /><path clip-path="url(#clip0700)" d="M 0 0 M1540.95 14.0809 L1540.95 22.0612 Q1536.29 19.8332 1532.15 18.7395 Q1528.02 17.6457 1524.17 17.6457 Q1517.49 17.6457 1513.84 20.2383 Q1510.24 22.8309 1510.24 27.611 Q1510.24 31.6214 1512.63 33.6873 Q1515.06 35.7128 1521.78 36.9686 L1526.73 37.9813 Q1535.88 39.7232 1540.22 44.1387 Q1544.59 48.5136 1544.59 55.8863 Q1544.59 64.6767 1538.68 69.2137 Q1532.8 73.7508 1521.42 73.7508 Q1517.13 73.7508 1512.26 72.7785 Q1507.44 71.8063 1502.26 69.9024 L1502.26 61.4765 Q1507.24 64.2716 1512.02 65.6895 Q1516.8 67.1073 1521.42 67.1073 Q1528.43 67.1073 1532.24 64.3527 Q1536.04 61.598 1536.04 56.4939 Q1536.04 52.0379 1533.29 49.5264 Q1530.57 47.0148 1524.34 45.759 L1519.35 44.7868 Q1510.2 42.9639 1506.11 39.075 Q1502.02 35.1862 1502.02 28.2591 Q1502.02 20.2383 1507.65 15.6203 Q1513.32 11.0023 1523.24 11.0023 Q1527.5 11.0023 1531.91 11.7719 Q1536.33 12.5416 1540.95 14.0809 Z" fill="#000000" fill-rule="evenodd" fill-opacity="1" /><path clip-path="url(#clip0700)" d="M 0 0 M1559.78 14.324 L1559.78 27.2059 L1575.13 27.2059 L1575.13 32.9987 L1559.78 32.9987 L1559.78 57.6282 Q1559.78 63.1779 1561.28 64.7578 Q1562.82 66.3376 1567.48 66.3376 L1575.13 66.3376 L1575.13 72.576 L1567.48 72.576 Q1558.85 72.576 1555.57 69.3758 Q1552.29 66.1351 1552.29 57.6282 L1552.29 32.9987 L1546.82 32.9987 L1546.82 27.2059 L1552.29 27.2059 L1552.29 14.324 L1559.78 14.324 Z" fill="#000000" fill-rule="evenodd" fill-opacity="1" /><path clip-path="url(#clip0700)" d="M 0 0 M1603.57 49.7694 Q1594.54 49.7694 1591.05 51.8354 Q1587.57 53.9013 1587.57 58.8839 Q1587.57 62.8538 1590.16 65.2034 Q1592.8 67.5124 1597.29 67.5124 Q1603.49 67.5124 1607.22 63.1374 Q1610.99 58.7219 1610.99 51.4303 L1610.99 49.7694 L1603.57 49.7694 M1618.44 46.6907 L1618.44 72.576 L1610.99 72.576 L1610.99 65.6895 Q1608.43 69.8214 1604.63 71.8063 Q1600.82 73.7508 1595.31 73.7508 Q1588.34 73.7508 1584.21 69.8619 Q1580.12 65.9325 1580.12 59.3701 Q1580.12 51.7138 1585.22 47.825 Q1590.37 43.9361 1600.53 43.9361 L1610.99 43.9361 L1610.99 43.2069 Q1610.99 38.0623 1607.58 35.2672 Q1604.22 32.4315 1598.1 32.4315 Q1594.21 32.4315 1590.53 33.3632 Q1586.84 34.295 1583.44 36.1584 L1583.44 29.2718 Q1587.53 27.692 1591.38 26.9223 Q1595.23 26.1121 1598.87 26.1121 Q1608.72 26.1121 1613.58 31.2163 Q1618.44 36.3204 1618.44 46.6907 Z" fill="#000000" fill-rule="evenodd" fill-opacity="1" /><path clip-path="url(#clip0700)" d="M 0 0 M1633.63 14.324 L1633.63 27.2059 L1648.98 27.2059 L1648.98 32.9987 L1633.63 32.9987 L1633.63 57.6282 Q1633.63 63.1779 1635.13 64.7578 Q1636.67 66.3376 1641.33 66.3376 L1648.98 66.3376 L1648.98 72.576 L1641.33 72.576 Q1632.7 72.576 1629.42 69.3758 Q1626.14 66.1351 1626.14 57.6282 L1626.14 32.9987 L1620.67 32.9987 L1620.67 27.2059 L1626.14 27.2059 L1626.14 14.324 L1633.63 14.324 Z" fill="#000000" fill-rule="evenodd" fill-opacity="1" /><path clip-path="url(#clip0700)" d="M 0 0 M1695.61 48.0275 L1695.61 51.6733 L1661.34 51.6733 Q1661.82 59.3701 1665.96 63.421 Q1670.13 67.4314 1677.54 67.4314 Q1681.84 67.4314 1685.85 66.3781 Q1689.9 65.3249 1693.87 63.2184 L1693.87 70.267 Q1689.86 71.9684 1685.64 72.8596 Q1681.43 73.7508 1677.1 73.7508 Q1666.24 73.7508 1659.88 67.4314 Q1653.56 61.1119 1653.56 50.3365 Q1653.56 39.1965 1659.56 32.6746 Q1665.59 26.1121 1675.8 26.1121 Q1684.95 26.1121 1690.26 32.0264 Q1695.61 37.9003 1695.61 48.0275 M1688.16 45.84 Q1688.07 39.7232 1684.71 36.0774 Q1681.39 32.4315 1675.88 32.4315 Q1669.64 32.4315 1665.88 35.9558 Q1662.15 39.4801 1661.58 45.8805 L1688.16 45.84 Z" fill="#000000" fill-rule="evenodd" fill-opacity="1" /><path clip-path="url(#clip0700)" d="M 0 0 M1732.35 28.5427 L1732.35 35.5912 Q1729.19 33.9709 1725.79 33.1607 Q1722.39 32.3505 1718.74 32.3505 Q1713.19 32.3505 1710.39 34.0519 Q1707.64 35.7533 1707.64 39.156 Q1707.64 41.7486 1709.62 43.2475 Q1711.61 44.7058 1717.61 46.0426 L1720.16 46.6097 Q1728.1 48.3111 1731.42 51.4303 Q1734.78 54.509 1734.78 60.0587 Q1734.78 66.3781 1729.76 70.0644 Q1724.78 73.7508 1716.03 73.7508 Q1712.38 73.7508 1708.41 73.0216 Q1704.48 72.3329 1700.11 70.9151 L1700.11 63.2184 Q1704.24 65.3654 1708.25 66.4591 Q1712.26 67.5124 1716.19 67.5124 Q1721.45 67.5124 1724.29 65.73 Q1727.12 63.9071 1727.12 60.6258 Q1727.12 57.5877 1725.06 55.9673 Q1723.03 54.3469 1716.11 52.8481 L1713.51 52.2405 Q1706.59 50.7821 1703.51 47.7845 Q1700.43 44.7463 1700.43 39.4801 Q1700.43 33.0797 1704.97 29.5959 Q1709.5 26.1121 1717.85 26.1121 Q1721.98 26.1121 1725.63 26.7198 Q1729.27 27.3274 1732.35 28.5427 Z" fill="#000000" fill-rule="evenodd" fill-opacity="1" /><path clip-path="url(#clip0700)" d="M 0 0 M1765.81 12.096 L1813.33 12.096 L1813.33 18.3344 L1775.09 65.6895 L1814.26 65.6895 L1814.26 72.576 L1764.88 72.576 L1764.88 66.3376 L1803.12 18.9825 L1765.81 18.9825 L1765.81 12.096 Z" fill="#000000" fill-rule="evenodd" fill-opacity="1" /><path clip-path="url(#clip0700)" d="M 0 0 M1848.77 12.096 L1887.01 12.096 L1887.01 18.9825 L1856.96 18.9825 L1856.96 36.8875 L1885.76 36.8875 L1885.76 43.7741 L1856.96 43.7741 L1856.96 65.6895 L1887.74 65.6895 L1887.74 72.576 L1848.77 72.576 L1848.77 12.096 Z" fill="#000000" fill-rule="evenodd" fill-opacity="1" /><path clip-path="url(#clip0700)" d="M 0 0 M1921.85 34.1734 Q1920.6 33.4443 1919.1 33.1202 Q1917.64 32.7556 1915.86 32.7556 Q1909.54 32.7556 1906.13 36.8875 Q1902.77 40.9789 1902.77 48.6757 L1902.77 72.576 L1895.28 72.576 L1895.28 27.2059 L1902.77 27.2059 L1902.77 34.2544 Q1905.12 30.1225 1908.89 28.1376 Q1912.66 26.1121 1918.04 26.1121 Q1918.81 26.1121 1919.75 26.2337 Q1920.68 26.3147 1921.81 26.5172 L1921.85 34.1734 Z" fill="#000000" fill-rule="evenodd" fill-opacity="1" /><path clip-path="url(#clip0700)" d="M 0 0 M1954.5 34.1734 Q1953.25 33.4443 1951.75 33.1202 Q1950.29 32.7556 1948.51 32.7556 Q1942.19 32.7556 1938.78 36.8875 Q1935.42 40.9789 1935.42 48.6757 L1935.42 72.576 L1927.93 72.576 L1927.93 27.2059 L1935.42 27.2059 L1935.42 34.2544 Q1937.77 30.1225 1941.54 28.1376 Q1945.31 26.1121 1950.69 26.1121 Q1951.46 26.1121 1952.4 26.2337 Q1953.33 26.3147 1954.46 26.5172 L1954.5 34.1734 Z" fill="#000000" fill-rule="evenodd" fill-opacity="1" /><path clip-path="url(#clip0700)" d="M 0 0 M1978.08 32.4315 Q1972.08 32.4315 1968.6 37.1306 Q1965.12 41.7891 1965.12 49.9314 Q1965.12 58.0738 1968.56 62.7728 Q1972.04 67.4314 1978.08 67.4314 Q1984.03 67.4314 1987.52 62.7323 Q1991 58.0333 1991 49.9314 Q1991 41.8701 1987.52 37.1711 Q1984.03 32.4315 1978.08 32.4315 M1978.08 26.1121 Q1987.8 26.1121 1993.35 32.4315 Q1998.9 38.7509 1998.9 49.9314 Q1998.9 61.0714 1993.35 67.4314 Q1987.8 73.7508 1978.08 73.7508 Q1968.32 73.7508 1962.77 67.4314 Q1957.26 61.0714 1957.26 49.9314 Q1957.26 38.7509 1962.77 32.4315 Q1968.32 26.1121 1978.08 26.1121 Z" fill="#000000" fill-rule="evenodd" fill-opacity="1" /><path clip-path="url(#clip0700)" d="M 0 0 M2033.01 34.1734 Q2031.75 33.4443 2030.25 33.1202 Q2028.8 32.7556 2027.01 32.7556 Q2020.69 32.7556 2017.29 36.8875 Q2013.93 40.9789 2013.93 48.6757 L2013.93 72.576 L2006.43 72.576 L2006.43 27.2059 L2013.93 27.2059 L2013.93 34.2544 Q2016.28 30.1225 2020.05 28.1376 Q2023.81 26.1121 2029.2 26.1121 Q2029.97 26.1121 2030.9 26.2337 Q2031.83 26.3147 2032.97 26.5172 L2033.01 34.1734 Z" fill="#000000" fill-rule="evenodd" fill-opacity="1" /><path clip-path="url(#clip0700)" d="M 0 0 M1319.89 2298.26 L1360.09 2298.26 L1360.09 2303.67 L1343.22 2303.67 L1343.22 2345.78 L1336.76 2345.78 L1336.76 2303.67 L1319.89 2303.67 L1319.89 2298.26 Z" fill="#000000" fill-rule="evenodd" fill-opacity="1" /><path clip-path="url(#clip0700)" d="M 0 0 M1364.23 2310.14 L1370.08 2310.14 L1370.08 2345.78 L1364.23 2345.78 L1364.23 2310.14 M1364.23 2296.26 L1370.08 2296.26 L1370.08 2303.67 L1364.23 2303.67 L1364.23 2296.26 Z" fill="#000000" fill-rule="evenodd" fill-opacity="1" /><path clip-path="url(#clip0700)" d="M 0 0 M1403.98 2316.98 Q1406.18 2313.03 1409.23 2311.15 Q1412.29 2309.28 1416.42 2309.28 Q1421.99 2309.28 1425.02 2313.19 Q1428.04 2317.07 1428.04 2324.27 L1428.04 2345.78 L1422.15 2345.78 L1422.15 2324.46 Q1422.15 2319.33 1420.34 2316.85 Q1418.53 2314.37 1414.8 2314.37 Q1410.25 2314.37 1407.61 2317.39 Q1404.97 2320.42 1404.97 2325.64 L1404.97 2345.78 L1399.08 2345.78 L1399.08 2324.46 Q1399.08 2319.3 1397.26 2316.85 Q1395.45 2314.37 1391.66 2314.37 Q1387.17 2314.37 1384.53 2317.42 Q1381.89 2320.45 1381.89 2325.64 L1381.89 2345.78 L1376 2345.78 L1376 2310.14 L1381.89 2310.14 L1381.89 2315.67 Q1383.9 2312.4 1386.7 2310.84 Q1389.5 2309.28 1393.35 2309.28 Q1397.23 2309.28 1399.94 2311.25 Q1402.67 2313.22 1403.98 2316.98 Z" fill="#000000" fill-rule="evenodd" fill-opacity="1" /><path clip-path="url(#clip0700)" d="M 0 0 M1464.68 2326.5 L1464.68 2329.36 L1437.75 2329.36 Q1438.13 2335.41 1441.38 2338.59 Q1444.66 2341.74 1450.48 2341.74 Q1453.86 2341.74 1457.01 2340.91 Q1460.19 2340.09 1463.31 2338.43 L1463.31 2343.97 Q1460.16 2345.31 1456.85 2346.01 Q1453.54 2346.71 1450.13 2346.71 Q1441.6 2346.71 1436.6 2341.74 Q1431.64 2336.78 1431.64 2328.31 Q1431.64 2319.56 1436.35 2314.43 Q1441.09 2309.28 1449.11 2309.28 Q1456.31 2309.28 1460.48 2313.92 Q1464.68 2318.54 1464.68 2326.5 M1458.82 2324.78 Q1458.76 2319.97 1456.11 2317.11 Q1453.51 2314.24 1449.18 2314.24 Q1444.27 2314.24 1441.31 2317.01 Q1438.39 2319.78 1437.94 2324.81 L1458.82 2324.78 Z" fill="#000000" fill-rule="evenodd" fill-opacity="1" /><path clip-path="url(#clip0700)" d="M 0 0 M1505.61 2296.32 Q1501.34 2303.64 1499.27 2310.8 Q1497.21 2317.97 1497.21 2325.32 Q1497.21 2332.67 1499.27 2339.9 Q1501.38 2347.09 1505.61 2354.38 L1500.52 2354.38 Q1495.74 2346.9 1493.35 2339.67 Q1491 2332.45 1491 2325.32 Q1491 2318.22 1493.35 2311.03 Q1495.71 2303.83 1500.52 2296.32 L1505.61 2296.32 Z" fill="#000000" fill-rule="evenodd" fill-opacity="1" /><path clip-path="url(#clip0700)" d="M 0 0 M1534.48 2311.19 L1534.48 2316.72 Q1531.99 2315.45 1529.32 2314.81 Q1526.65 2314.18 1523.78 2314.18 Q1519.42 2314.18 1517.23 2315.51 Q1515.06 2316.85 1515.06 2319.53 Q1515.06 2321.56 1516.62 2322.74 Q1518.18 2323.89 1522.89 2324.94 L1524.9 2325.38 Q1531.13 2326.72 1533.74 2329.17 Q1536.39 2331.59 1536.39 2335.95 Q1536.39 2340.91 1532.44 2343.81 Q1528.52 2346.71 1521.65 2346.71 Q1518.79 2346.71 1515.67 2346.13 Q1512.58 2345.59 1509.14 2344.48 L1509.14 2338.43 Q1512.39 2340.12 1515.54 2340.98 Q1518.69 2341.81 1521.78 2341.81 Q1525.91 2341.81 1528.14 2340.4 Q1530.37 2338.97 1530.37 2336.39 Q1530.37 2334.01 1528.75 2332.73 Q1527.16 2331.46 1521.71 2330.28 L1519.68 2329.81 Q1514.23 2328.66 1511.81 2326.3 Q1509.4 2323.92 1509.4 2319.78 Q1509.4 2314.75 1512.96 2312.01 Q1516.53 2309.28 1523.08 2309.28 Q1526.33 2309.28 1529.19 2309.75 Q1532.06 2310.23 1534.48 2311.19 Z" fill="#000000" fill-rule="evenodd" fill-opacity="1" /><path clip-path="url(#clip0700)" d="M 0 0 M1541.61 2296.32 L1546.7 2296.32 Q1551.47 2303.83 1553.83 2311.03 Q1556.22 2318.22 1556.22 2325.32 Q1556.22 2332.45 1553.83 2339.67 Q1551.47 2346.9 1546.7 2354.38 L1541.61 2354.38 Q1545.84 2347.09 1547.91 2339.9 Q1550.01 2332.67 1550.01 2325.32 Q1550.01 2317.97 1547.91 2310.8 Q1545.84 2303.64 1541.61 2296.32 Z" fill="#000000" fill-rule="evenodd" fill-opacity="1" /><path clip-path="url(#clip0700)" d="M 0 0 M38.4242 1330.94 L38.4242 1300.89 L43.835 1300.89 L43.835 1324.51 L57.9032 1324.51 L57.9032 1301.88 L63.3141 1301.88 L63.3141 1324.51 L80.5333 1324.51 L80.5333 1300.32 L85.9442 1300.32 L85.9442 1330.94 L38.4242 1330.94 Z" fill="#000000" fill-rule="evenodd" fill-opacity="1" /><path clip-path="url(#clip0700)" d="M 0 0 M55.7707 1273.52 Q55.1978 1274.51 54.9432 1275.68 Q54.6567 1276.83 54.6567 1278.23 Q54.6567 1283.2 57.9032 1285.87 Q61.1179 1288.51 67.1653 1288.51 L85.9442 1288.51 L85.9442 1294.4 L50.2962 1294.4 L50.2962 1288.51 L55.8344 1288.51 Q52.5879 1286.66 51.0283 1283.7 Q49.4368 1280.74 49.4368 1276.51 Q49.4368 1275.91 49.5323 1275.17 Q49.596 1274.44 49.7551 1273.55 L55.7707 1273.52 Z" fill="#000000" fill-rule="evenodd" fill-opacity="1" /><path clip-path="url(#clip0700)" d="M 0 0 M55.7707 1247.87 Q55.1978 1248.85 54.9432 1250.03 Q54.6567 1251.18 54.6567 1252.58 Q54.6567 1257.54 57.9032 1260.22 Q61.1179 1262.86 67.1653 1262.86 L85.9442 1262.86 L85.9442 1268.75 L50.2962 1268.75 L50.2962 1262.86 L55.8344 1262.86 Q52.5879 1261.01 51.0283 1258.05 Q49.4368 1255.09 49.4368 1250.86 Q49.4368 1250.25 49.5323 1249.52 Q49.596 1248.79 49.7551 1247.9 L55.7707 1247.87 Z" fill="#000000" fill-rule="evenodd" fill-opacity="1" /><path clip-path="url(#clip0700)" d="M 0 0 M54.4021 1229.34 Q54.4021 1234.05 58.0942 1236.79 Q61.7545 1239.53 68.152 1239.53 Q74.5495 1239.53 78.2417 1236.82 Q81.9019 1234.08 81.9019 1229.34 Q81.9019 1224.66 78.2098 1221.93 Q74.5177 1219.19 68.152 1219.19 Q61.8181 1219.19 58.126 1221.93 Q54.4021 1224.66 54.4021 1229.34 M49.4368 1229.34 Q49.4368 1221.7 54.4021 1217.34 Q59.3673 1212.98 68.152 1212.98 Q76.9049 1212.98 81.9019 1217.34 Q86.8672 1221.7 86.8672 1229.34 Q86.8672 1237.01 81.9019 1241.37 Q76.9049 1245.7 68.152 1245.7 Q59.3673 1245.7 54.4021 1241.37 Q49.4368 1237.01 49.4368 1229.34 Z" fill="#000000" fill-rule="evenodd" fill-opacity="1" /><path clip-path="url(#clip0700)" d="M 0 0 M55.7707 1186.18 Q55.1978 1187.17 54.9432 1188.35 Q54.6567 1189.49 54.6567 1190.89 Q54.6567 1195.86 57.9032 1198.53 Q61.1179 1201.17 67.1653 1201.17 L85.9442 1201.17 L85.9442 1207.06 L50.2962 1207.06 L50.2962 1201.17 L55.8344 1201.17 Q52.5879 1199.33 51.0283 1196.37 Q49.4368 1193.41 49.4368 1189.17 Q49.4368 1188.57 49.5323 1187.84 Q49.596 1187.1 49.7551 1186.21 L55.7707 1186.18 Z" fill="#000000" fill-rule="evenodd" fill-opacity="1" /><path clip-path="url(#clip0700)" d="M 0 0 M38.4242 1161.8 L38.4242 1124.47 L43.3258 1124.47 L80.5333 1154.51 L80.5333 1123.73 L85.9442 1123.73 L85.9442 1162.53 L81.0426 1162.53 L43.835 1132.49 L43.835 1161.8 L38.4242 1161.8 Z" fill="#000000" fill-rule="evenodd" fill-opacity="1" /><path clip-path="url(#clip0700)" d="M 0 0 M36.4826 1082.8 Q43.8032 1087.07 50.9646 1089.14 Q58.126 1091.21 65.4784 1091.21 Q72.8308 1091.21 80.0559 1089.14 Q87.2491 1087.04 94.5379 1082.8 L94.5379 1087.9 Q87.0582 1092.67 79.8331 1095.06 Q72.608 1097.41 65.4784 1097.41 Q58.3806 1097.41 51.1874 1095.06 Q43.9942 1092.7 36.4826 1087.9 L36.4826 1082.8 Z" fill="#000000" fill-rule="evenodd" fill-opacity="1" /><path clip-path="url(#clip0700)" d="M 0 0 M57.1393 1048.91 Q53.1926 1046.71 51.3147 1043.65 Q49.4368 1040.6 49.4368 1036.46 Q49.4368 1030.89 53.3517 1027.87 Q57.2348 1024.84 64.4281 1024.84 L85.9442 1024.84 L85.9442 1030.73 L64.619 1030.73 Q59.4946 1030.73 57.012 1032.55 Q54.5294 1034.36 54.5294 1038.08 Q54.5294 1042.64 57.5531 1045.28 Q60.5768 1047.92 65.7967 1047.92 L85.9442 1047.92 L85.9442 1053.81 L64.619 1053.81 Q59.4628 1053.81 57.012 1055.62 Q54.5294 1057.44 54.5294 1061.22 Q54.5294 1065.71 57.5849 1068.35 Q60.6086 1070.99 65.7967 1070.99 L85.9442 1070.99 L85.9442 1076.88 L50.2962 1076.88 L50.2962 1070.99 L55.8344 1070.99 Q52.556 1068.99 50.9964 1066.19 Q49.4368 1063.39 49.4368 1059.54 Q49.4368 1055.65 51.4102 1052.95 Q53.3836 1050.21 57.1393 1048.91 Z" fill="#000000" fill-rule="evenodd" fill-opacity="1" /><path clip-path="url(#clip0700)" d="M 0 0 M36.4826 1019.62 L36.4826 1014.53 Q43.9942 1009.76 51.1874 1007.4 Q58.3806 1005.01 65.4784 1005.01 Q72.608 1005.01 79.8331 1007.4 Q87.0582 1009.76 94.5379 1014.53 L94.5379 1019.62 Q87.2491 1015.39 80.0559 1013.32 Q72.8308 1011.22 65.4784 1011.22 Q58.126 1011.22 50.9646 1013.32 Q43.8032 1015.39 36.4826 1019.62 Z" fill="#000000" fill-rule="evenodd" fill-opacity="1" /><polyline clip-path="url(#clip0702)" style="stroke:#009af9; stroke-width:16; stroke-opacity:1; fill:none" points="
  307.496,241.504 330.107,230.16 352.718,208.758 375.329,194.379 397.941,190.412 420.552,194.438 443.163,204.011 465.774,217.132 488.385,232.276 510.996,248.184 
  533.607,263.918 556.218,278.918 578.83,292.861 601.441,305.568 624.052,316.951 646.663,326.969 669.274,335.639 691.885,342.982 714.496,349.067 737.107,353.931 
  759.719,357.671 782.33,360.319 804.941,361.994 827.552,362.708 850.163,362.604 872.774,361.658 895.385,360.046 917.996,357.685 940.608,354.794 963.219,351.211 
  985.83,347.213 1008.44,342.594 1031.05,338.068 1053.66,336.869 1076.27,336.794 1098.89,334.347 1121.5,331.321 1144.11,328.287 1166.72,325.037 1189.33,321.848 
  1211.94,318.548 1234.55,315.332 1257.16,312.083 1279.77,308.932 1302.39,305.802 1325,302.78 1347.61,299.816 1370.22,296.965 1392.83,294.192 1415.44,291.534 
  1438.05,288.966 1460.66,286.508 1483.27,284.144 1505.89,281.885 1528.5,279.717 1551.11,277.645 1573.72,275.66 1596.33,273.763 1618.94,271.946 1641.55,270.208 
  1664.16,268.543 1686.77,266.951 1709.39,265.425 1732,263.964 1754.61,262.565 1777.22,261.226 1799.83,259.944 1822.44,258.718 1845.05,257.543 1867.66,256.422 
  1890.27,255.348 1912.89,254.323 1935.5,253.34 1958.11,252.404 1980.72,251.505 2003.33,250.647 2025.94,249.822 2048.55,249.034 2071.16,248.273 2093.77,247.545 
  2116.39,246.837 2139,246.16 2161.61,245.496 2184.22,244.861 2206.83,244.233 2229.44,243.633 2252.05,243.034 2274.66,242.464 2297.27,241.89 2319.89,241.347 
  2342.5,240.793 2365.11,240.275 2387.72,239.74 2410.33,239.246 2432.94,238.728 2455.55,238.256 2478.16,237.753 2500.78,237.303 2523.39,236.824 2546,236.46 
  2568.61,236.577 
  "/>
<polyline clip-path="url(#clip0702)" style="stroke:#e26f46; stroke-width:16; stroke-opacity:1; fill:none" points="
  307.496,1620.46 330.107,1596.75 352.718,1538.67 375.329,1468.12 397.941,1396.39 420.552,1326.5 443.163,1259.31 465.774,1195.19 488.385,1134.2 510.996,1076.56 
  533.607,1022.47 556.218,971.91 578.83,924.752 601.441,880.821 624.052,839.87 646.663,801.669 669.274,765.965 691.885,732.58 714.496,701.315 737.107,672.056 
  759.719,644.64 782.33,618.997 804.941,594.976 827.552,572.533 850.163,551.507 872.774,531.873 895.385,513.443 917.996,496.207 940.608,479.937 963.219,464.64 
  985.83,450.041 1008.44,436.207 1031.05,423.246 1053.66,415.315 1076.27,409.52 1098.89,401.429 1121.5,393.576 1144.11,385.989 1166.72,378.83 1189.33,371.931 
  1211.94,365.4 1234.55,359.11 1257.16,353.143 1279.77,347.403 1302.39,341.951 1325,336.716 1347.61,331.74 1370.22,326.971 1392.83,322.435 1415.44,318.095 
  1438.05,313.966 1460.66,310.018 1483.27,306.261 1505.89,302.671 1528.5,299.253 1551.11,295.988 1573.72,292.877 1596.33,289.905 1618.94,287.071 1641.55,284.365 
  1664.16,281.785 1686.77,279.321 1709.39,276.971 1732,274.729 1754.61,272.592 1777.22,270.556 1799.83,268.617 1822.44,266.772 1845.05,265.016 1867.66,263.348 
  1890.27,261.763 1912.89,260.259 1935.5,258.83 1958.11,257.476 1980.72,256.19 2003.33,254.971 2025.94,253.811 2048.55,252.712 2071.16,251.662 2093.77,250.667 
  2116.39,249.711 2139,248.803 2161.61,247.926 2184.22,247.092 2206.83,246.28 2229.44,245.507 2252.05,244.747 2274.66,244.026 2297.27,243.31 2319.89,242.632 
  2342.5,241.952 2365.11,241.314 2387.72,240.664 2410.33,240.061 2432.94,239.438 2455.55,238.868 2478.16,238.271 2500.78,237.731 2523.39,237.168 2546,236.727 
  2568.61,236.809 
  "/>
<polyline clip-path="url(#clip0702)" style="stroke:#3da44d; stroke-width:16; stroke-opacity:1; fill:none" points="
  307.496,977.222 330.107,963.065 352.718,932.06 375.329,896.546 397.941,858.809 420.552,819.959 443.163,780.821 465.774,742.9 488.385,706.914 510.996,673.181 
  533.607,641.716 556.218,612.597 578.83,585.891 601.441,561.638 624.052,539.81 646.663,520.318 669.274,503.035 691.885,487.769 714.496,474.326 737.107,462.44 
  759.719,451.904 782.33,442.434 804.941,433.867 827.552,425.931 850.163,418.542 872.774,411.44 895.385,404.633 917.996,397.846 940.608,391.185 963.219,384.321 
  985.83,377.46 1008.44,370.244 1031.05,363.388 1053.66,360.805 1076.27,359.765 1098.89,355.995 1121.5,351.706 1144.11,347.521 1166.72,343.164 1189.33,338.938 
  1211.94,334.628 1234.55,330.446 1257.16,326.254 1279.77,322.196 1302.39,318.184 1325,314.317 1347.61,310.538 1370.22,306.911 1392.83,303.401 1415.44,300.048 
  1438.05,296.827 1460.66,293.764 1483.27,290.839 1505.89,288.065 1528.5,285.428 1551.11,282.932 1573.72,280.565 1596.33,278.327 1618.94,276.207 1641.55,274.201 
  1664.16,272.301 1686.77,270.502 1709.39,268.796 1732,267.178 1754.61,265.64 1777.22,264.18 1799.83,262.789 1822.44,261.466 1845.05,260.204 1867.66,259.001 
  1890.27,257.85 1912.89,256.75 1935.5,255.696 1958.11,254.687 1980.72,253.715 2003.33,252.784 2025.94,251.883 2048.55,251.017 2071.16,250.175 2093.77,249.364 
  2116.39,248.571 2139,247.807 2161.61,247.054 2184.22,246.329 2206.83,245.61 2229.44,244.918 2252.05,244.228 2274.66,243.567 2297.27,242.903 2319.89,242.271 
  2342.5,241.631 2365.11,241.028 2387.72,240.41 2410.33,239.836 2432.94,239.239 2455.55,238.691 2478.16,238.113 2500.78,237.59 2523.39,237.038 2546,236.605 
  2568.61,236.688 
  "/>
<polyline clip-path="url(#clip0702)" style="stroke:#c271d2; stroke-width:16; stroke-opacity:1; fill:none" points="
  307.496,2146.22 330.107,2125.31 352.718,2076.44 375.329,2015.99 397.941,1949.37 420.552,1879.53 443.163,1806.96 465.774,1732.25 488.385,1656.1 510.996,1579.33 
  533.607,1502.63 556.218,1426.78 578.83,1352.37 601.441,1279.93 624.052,1209.9 646.663,1142.67 669.274,1078.44 691.885,1017.44 714.496,959.647 737.107,905.193 
  759.719,853.932 782.33,805.985 804.941,761.09 827.552,719.402 850.163,680.536 872.774,644.711 895.385,611.39 917.996,580.896 940.608,552.501 963.219,526.666 
  985.83,502.446 1008.44,480.488 1031.05,460.085 1053.66,445.296 1076.27,433.243 1098.89,419.717 1121.5,407.476 1144.11,395.742 1166.72,385.287 1189.33,375.317 
  1211.94,366.381 1234.55,357.904 1257.16,350.261 1279.77,343.046 1302.39,336.507 1325,330.36 1347.61,324.763 1370.22,319.515 1392.83,314.717 1415.44,310.224 
  1438.05,306.098 1460.66,302.234 1483.27,298.667 1505.89,295.32 1528.5,292.214 1551.11,289.291 1573.72,286.561 1596.33,283.982 1618.94,281.557 1641.55,279.256 
  1664.16,277.078 1686.77,275.003 1709.39,273.028 1732,271.138 1754.61,269.332 1777.22,267.6 1799.83,265.939 1822.44,264.343 1845.05,262.81 1867.66,261.337 
  1890.27,259.921 1912.89,258.561 1935.5,257.254 1958.11,256 1980.72,254.794 2003.33,253.64 2025.94,252.529 2048.55,251.468 2071.16,250.447 2093.77,249.473 
  2116.39,248.535 2139,247.642 2161.61,246.779 2184.22,245.96 2206.83,245.166 2229.44,244.416 2252.05,243.684 2274.66,242.996 2297.27,242.319 2319.89,241.688 
  2342.5,241.061 2365.11,240.481 2387.72,239.896 2410.33,239.362 2432.94,238.812 2455.55,238.318 2478.16,237.798 2500.78,237.337 2523.39,236.853 2546,236.489 
  2568.61,236.608 
  "/>
<polyline clip-path="url(#clip0702)" style="stroke:#ac8d18; stroke-width:16; stroke-opacity:1; fill:none" points="
  307.496,243.436 330.107,237.733 352.718,225.103 375.329,211.607 397.941,200.331 420.552,192.952 443.163,189.727 465.774,190.371 488.385,194.188 510.996,200.307 
  533.607,207.939 556.218,216.477 578.83,225.441 601.441,234.458 624.052,243.216 646.663,251.488 669.274,259.138 691.885,266.072 714.496,272.276 737.107,277.717 
  759.719,282.443 782.33,286.432 804.941,289.771 827.552,292.419 850.163,294.497 872.774,295.927 895.385,296.868 917.996,297.18 940.608,297.079 963.219,296.337 
  985.83,295.246 1008.44,293.524 1031.05,291.862 1053.66,292.396 1076.27,293.592 1098.89,293.034 1121.5,291.862 1144.11,290.66 1166.72,289.167 1189.33,287.696 
  1211.94,286.035 1234.55,284.404 1257.16,282.663 1279.77,280.96 1302.39,279.204 1325,277.494 1347.61,275.772 1370.22,274.103 1392.83,272.45 1415.44,270.855 
  1438.05,269.293 1460.66,267.791 1483.27,266.331 1505.89,264.93 1528.5,263.576 1551.11,262.279 1573.72,261.029 1596.33,259.831 1618.94,258.68 1641.55,257.576 
  1664.16,256.516 1686.77,255.501 1709.39,254.527 1732,253.594 1754.61,252.7 1777.22,251.845 1799.83,251.026 1822.44,250.245 1845.05,249.498 1867.66,248.786 
  1890.27,248.107 1912.89,247.461 1935.5,246.845 1958.11,246.259 1980.72,245.699 2003.33,245.168 2025.94,244.657 2048.55,244.172 2071.16,243.702 2093.77,243.255 
  2116.39,242.818 2139,242.402 2161.61,241.989 2184.22,241.596 2206.83,241.201 2229.44,240.826 2252.05,240.443 2274.66,240.081 2297.27,239.707 2319.89,239.356 
  2342.5,238.988 2365.11,238.649 2387.72,238.285 2410.33,237.957 2432.94,237.598 2455.55,237.28 2478.16,236.925 2500.78,236.618 2523.39,236.276 2546,236.043 
  2568.61,236.222 
  "/>
<polyline clip-path="url(#clip0702)" style="stroke:#00a9ad; stroke-width:16; stroke-opacity:1; fill:none" points="
  307.496,287.946 330.107,289.679 352.718,292.678 375.329,294.911 397.941,297.308 420.552,300.636 443.163,304.999 465.774,310.211 488.385,315.723 510.996,320.963 
  533.607,325.489 556.218,329.054 578.83,331.516 601.441,332.828 624.052,332.99 646.663,332.084 669.274,330.245 691.885,327.642 714.496,324.448 737.107,320.828 
  759.719,316.933 782.33,312.889 804.941,308.804 827.552,304.755 850.163,300.809 872.774,296.99 895.385,293.338 917.996,289.828 940.608,286.485 963.219,283.241 
  985.83,280.129 1008.44,277.084 1031.05,274.431 1053.66,273.316 1076.27,272.805 1098.89,271.511 1121.5,270.036 1144.11,268.624 1166.72,267.229 1189.33,265.914 
  1211.94,264.634 1234.55,263.424 1257.16,262.258 1279.77,261.155 1302.39,260.099 1325,259.099 1347.61,258.146 1370.22,257.242 1392.83,256.38 1415.44,255.561 
  1438.05,254.779 1460.66,254.032 1483.27,253.316 1505.89,252.628 1528.5,251.964 1551.11,251.322 1573.72,250.7 1596.33,250.094 1618.94,249.503 1641.55,248.925 
  1664.16,248.359 1686.77,247.804 1709.39,247.261 1732,246.729 1754.61,246.208 1777.22,245.699 1799.83,245.203 1822.44,244.722 1845.05,244.254 1867.66,243.803 
  1890.27,243.366 1912.89,242.949 1935.5,242.546 1958.11,242.162 1980.72,241.794 2003.33,241.444 2025.94,241.108 2048.55,240.79 2071.16,240.483 2093.77,240.193 
  2116.39,239.909 2139,239.643 2161.61,239.379 2184.22,239.131 2206.83,238.881 2229.44,238.648 2252.05,238.407 2274.66,238.186 2297.27,237.952 2319.89,237.74 
  2342.5,237.51 2365.11,237.307 2387.72,237.078 2410.33,236.883 2432.94,236.656 2455.55,236.468 2478.16,236.241 2500.78,236.059 2523.39,235.842 2546,235.729 
  2568.61,235.963 
  "/>
<polyline clip-path="url(#clip0702)" style="stroke:#ed5d92; stroke-width:16; stroke-opacity:1; fill:none" points="
  307.496,263.997 330.107,269.451 352.718,280.3 375.329,290.001 397.941,297.381 420.552,302.283 443.163,305.051 465.774,306.193 488.385,306.026 510.996,304.838 
  533.607,302.912 556.218,300.535 578.83,297.923 601.441,295.227 624.052,292.526 646.663,289.873 669.274,287.301 691.885,284.827 714.496,282.455 737.107,280.182 
  759.719,278.001 782.33,275.91 804.941,273.902 827.552,271.976 850.163,270.129 872.774,268.353 895.385,266.649 917.996,264.999 940.608,263.408 963.219,261.843 
  985.83,260.324 1008.44,258.84 1031.05,257.668 1053.66,257.245 1076.27,257.112 1098.89,256.613 1121.5,255.919 1144.11,255.221 1166.72,254.508 1189.33,253.821 
  1211.94,253.141 1234.55,252.487 1257.16,251.851 1279.77,251.242 1302.39,250.656 1325,250.094 1347.61,249.556 1370.22,249.041 1392.83,248.547 1415.44,248.073 
  1438.05,247.616 1460.66,247.175 1483.27,246.747 1505.89,246.33 1528.5,245.924 1551.11,245.525 1573.72,245.132 1596.33,244.745 1618.94,244.362 1641.55,243.983 
  1664.16,243.607 1686.77,243.235 1709.39,242.868 1732,242.506 1754.61,242.149 1777.22,241.801 1799.83,241.46 1822.44,241.13 1845.05,240.81 1867.66,240.503 
  1890.27,240.208 1912.89,239.929 1935.5,239.662 1958.11,239.411 1980.72,239.173 2003.33,238.951 2025.94,238.74 2048.55,238.545 2071.16,238.358 2093.77,238.186 
  2116.39,238.017 2139,237.864 2161.61,237.709 2184.22,237.568 2206.83,237.422 2229.44,237.291 2252.05,237.149 2274.66,237.024 2297.27,236.883 2319.89,236.763 
  2342.5,236.621 2365.11,236.504 2387.72,236.36 2410.33,236.247 2432.94,236.1 2455.55,235.991 2478.16,235.841 2500.78,235.735 2523.39,235.592 2546,235.55 
  2568.61,235.818 
  "/>
<polyline clip-path="url(#clip0702)" style="stroke:#c68125; stroke-width:16; stroke-opacity:1; fill:none" points="
  307.496,1163.97 330.107,1147.98 352.718,1108.61 375.329,1055.14 397.941,993.419 420.552,929.855 443.163,867.465 465.774,808.437 488.385,753.689 510.996,703.671 
  533.607,658.424 556.218,617.881 578.83,581.823 601.441,549.988 624.052,522.023 646.663,497.572 669.274,476.227 691.885,457.618 714.496,441.346 737.107,427.093 
  759.719,414.517 782.33,403.392 804.941,393.442 827.552,384.533 850.163,376.438 872.774,369.111 895.385,362.345 917.996,356.168 940.608,350.37 963.219,345.045 
  985.83,339.96 1008.44,335.305 1031.05,331.052 1053.66,327.772 1076.27,324.884 1098.89,321.612 1121.5,318.293 1144.11,314.829 1166.72,311.444 1189.33,307.965 
  1211.94,304.555 1234.55,301.095 1257.16,297.709 1279.77,294.319 1302.39,291.018 1325,287.755 1347.61,284.598 1370.22,281.516 1392.83,278.556 1415.44,275.697 
  1438.05,272.972 1460.66,270.364 1483.27,267.896 1505.89,265.554 1528.5,263.352 1551.11,261.278 1573.72,259.337 1596.33,257.522 1618.94,255.832 1641.55,254.259 
  1664.16,252.801 1686.77,251.451 1709.39,250.204 1732,249.054 1754.61,247.997 1777.22,247.025 1799.83,246.135 1822.44,245.321 1845.05,244.577 1867.66,243.899 
  1890.27,243.28 1912.89,242.719 1935.5,242.208 1958.11,241.744 1980.72,241.32 2003.33,240.936 2025.94,240.581 2048.55,240.258 2071.16,239.955 2093.77,239.678 
  2116.39,239.413 2139,239.167 2161.61,238.925 2184.22,238.701 2206.83,238.473 2229.44,238.261 2252.05,238.04 2274.66,237.837 2297.27,237.62 2319.89,237.425 
  2342.5,237.211 2365.11,237.025 2387.72,236.815 2410.33,236.641 2432.94,236.439 2455.55,236.281 2478.16,236.089 2500.78,235.948 2523.39,235.779 2546,235.719 
  2568.61,235.978 
  "/>
<polyline clip-path="url(#clip0702)" style="stroke:#00a98d; stroke-width:16; stroke-opacity:1; fill:none" points="
  307.496,235.171 330.107,238.696 352.718,247.98 375.329,262.382 397.941,280.51 420.552,299.17 443.163,316.61 465.774,331.875 488.385,344.433 510.996,354.077 
  533.607,360.857 556.218,365.033 578.83,366.943 601.441,366.939 624.052,365.359 646.663,362.527 669.274,358.741 691.885,354.26 714.496,349.289 737.107,344.009 
  759.719,338.55 782.33,333.035 804.941,327.538 827.552,322.139 850.163,316.87 872.774,311.78 895.385,306.869 917.996,302.167 940.608,297.648 963.219,293.328 
  985.83,289.172 1008.44,285.231 1031.05,281.742 1053.66,279.837 1076.27,278.615 1098.89,276.726 1121.5,274.765 1144.11,272.866 1166.72,271.075 1189.33,269.376 
  1211.94,267.789 1234.55,266.292 1257.16,264.902 1279.77,263.596 1302.39,262.386 1325,261.252 1347.61,260.2 1370.22,259.213 1392.83,258.293 1415.44,257.426 
  1438.05,256.61 1460.66,255.835 1483.27,255.098 1505.89,254.39 1528.5,253.708 1551.11,253.046 1573.72,252.401 1596.33,251.768 1618.94,251.147 1641.55,250.533 
  1664.16,249.926 1686.77,249.326 1709.39,248.732 1732,248.145 1754.61,247.565 1777.22,246.994 1799.83,246.433 1822.44,245.883 1845.05,245.346 1867.66,244.825 
  1890.27,244.318 1912.89,243.831 1935.5,243.359 1958.11,242.908 1980.72,242.474 2003.33,242.062 2025.94,241.666 2048.55,241.292 2071.16,240.931 2093.77,240.593 
  2116.39,240.264 2139,239.956 2161.61,239.654 2184.22,239.373 2206.83,239.092 2229.44,238.833 2252.05,238.57 2274.66,238.329 2297.27,238.078 2319.89,237.852 
  2342.5,237.61 2365.11,237.396 2387.72,237.16 2410.33,236.957 2432.94,236.724 2455.55,236.53 2478.16,236.298 2500.78,236.111 2523.39,235.889 2546,235.771 
  2568.61,236.003 
  "/>
<polyline clip-path="url(#clip0702)" style="stroke:#8e971d; stroke-width:16; stroke-opacity:1; fill:none" points="
  307.496,1287.12 330.107,1288.7 352.718,1276.12 375.329,1239.21 397.941,1192.54 420.552,1144.87 443.163,1097.57 465.774,1050.68 488.385,1004.18 510.996,958.132 
  533.607,912.717 556.218,868.239 578.83,824.982 601.441,783.206 624.052,743.101 646.663,704.857 669.274,668.593 691.885,634.417 714.496,602.337 737.107,572.382 
  759.719,544.475 782.33,518.61 804.941,494.655 827.552,472.594 850.163,452.25 872.774,433.615 895.385,416.463 917.996,400.81 940.608,386.375 963.219,373.211 
  985.83,360.987 1008.44,349.839 1031.05,339.742 1053.66,333.069 1076.27,328.034 1098.89,322 1121.5,316.381 1144.11,311.071 1166.72,306.279 1189.33,301.77 
  1211.94,297.692 1234.55,293.865 1257.16,290.396 1279.77,287.151 1302.39,284.204 1325,281.456 1347.61,278.956 1370.22,276.63 1392.83,274.508 1415.44,272.533 
  1438.05,270.724 1460.66,269.036 1483.27,267.48 1505.89,266.023 1528.5,264.667 1551.11,263.387 1573.72,262.186 1596.33,261.042 1618.94,259.956 1641.55,258.915 
  1664.16,257.915 1686.77,256.95 1709.39,256.016 1732,255.109 1754.61,254.228 1777.22,253.37 1799.83,252.534 1822.44,251.72 1845.05,250.927 1867.66,250.156 
  1890.27,249.406 1912.89,248.679 1935.5,247.974 1958.11,247.293 1980.72,246.633 2003.33,245.999 2025.94,245.385 2048.55,244.798 2071.16,244.229 2093.77,243.687 
  2116.39,243.16 2139,242.66 2161.61,242.173 2184.22,241.712 2206.83,241.26 2229.44,240.836 2252.05,240.414 2274.66,240.022 2297.27,239.627 2319.89,239.263 
  2342.5,238.889 2365.11,238.55 2387.72,238.191 2410.33,237.871 2432.94,237.522 2455.55,237.215 2478.16,236.87 2500.78,236.571 2523.39,236.234 2546,236.003 
  2568.61,236.182 
  "/>
<polyline clip-path="url(#clip0702)" style="stroke:#00a8cb; stroke-width:16; stroke-opacity:1; fill:none" points="
  307.496,235.546 330.107,230.407 352.718,219.976 375.329,211.361 397.941,206.513 420.552,204.841 443.163,205.623 465.774,208.272 488.385,212.34 510.996,217.42 
  533.607,223.241 556.218,229.646 578.83,236.529 601.441,243.768 624.052,251.221 646.663,258.725 669.274,266.126 691.885,273.26 714.496,279.997 737.107,286.199 
  759.719,291.777 782.33,296.635 804.941,300.735 827.552,304.024 850.163,306.512 872.774,308.18 895.385,309.075 917.996,309.197 940.608,308.619 963.219,307.342 
  985.83,305.453 1008.44,302.997 1031.05,300.388 1053.66,300.022 1076.27,300.311 1098.89,298.79 1121.5,296.851 1144.11,294.78 1166.72,292.612 1189.33,290.433 
  1211.94,288.239 1234.55,286.091 1257.16,283.979 1279.77,281.945 1302.39,279.974 1325,278.093 1347.61,276.288 1370.22,274.572 1392.83,272.931 1415.44,271.371 
  1438.05,269.878 1460.66,268.455 1483.27,267.087 1505.89,265.776 1528.5,264.511 1551.11,263.291 1573.72,262.107 1596.33,260.961 1618.94,259.845 1641.55,258.762 
  1664.16,257.707 1686.77,256.682 1709.39,255.685 1732,254.72 1754.61,253.785 1777.22,252.882 1799.83,252.014 1822.44,251.179 1845.05,250.38 1867.66,249.615 
  1890.27,248.887 1912.89,248.193 1935.5,247.534 1958.11,246.905 1980.72,246.309 2003.33,245.738 2025.94,245.196 2048.55,244.672 2071.16,244.174 2093.77,243.687 
  2116.39,243.221 2139,242.76 2161.61,242.318 2184.22,241.875 2206.83,241.451 2229.44,241.02 2252.05,240.611 2274.66,240.191 2297.27,239.797 2319.89,239.387 
  2342.5,239.01 2365.11,238.613 2387.72,238.256 2410.33,237.872 2432.94,237.537 2455.55,237.167 2478.16,236.854 2500.78,236.499 2523.39,236.212 2546,235.941 
  2568.61,236.165 
  "/>
<path clip-path="url(#clip0700)" d="
M2732.44 988.312 L3184.76 988.312 L3184.76 262.552 L2732.44 262.552  Z
  " fill="#ffffff" fill-rule="evenodd" fill-opacity="1"/>
<polyline clip-path="url(#clip0700)" style="stroke:#000000; stroke-width:4; stroke-opacity:1; fill:none" points="
  2732.44,988.312 3184.76,988.312 3184.76,262.552 2732.44,262.552 2732.44,988.312 
  "/>
<polyline clip-path="url(#clip0700)" style="stroke:#009af9; stroke-width:16; stroke-opacity:1; fill:none" points="
  2764.44,323.032 2956.44,323.032 
  "/>
<path clip-path="url(#clip0700)" d="M 0 0 M2988.44 299.272 L2994.87 299.272 L2994.87 341.381 L3018.01 341.381 L3018.01 346.792 L2988.44 346.792 L2988.44 299.272 Z" fill="#000000" fill-rule="evenodd" fill-opacity="1" /><path clip-path="url(#clip0700)" d="M 0 0 M3024.15 311.144 L3030.01 311.144 L3030.01 346.792 L3024.15 346.792 L3024.15 311.144 M3024.15 297.267 L3030.01 297.267 L3030.01 304.683 L3024.15 304.683 L3024.15 297.267 Z" fill="#000000" fill-rule="evenodd" fill-opacity="1" /><path clip-path="url(#clip0700)" d="M 0 0 M3054.2 297.267 L3054.2 302.137 L3048.6 302.137 Q3045.45 302.137 3044.21 303.41 Q3043 304.683 3043 307.993 L3043 311.144 L3052.64 311.144 L3052.64 315.696 L3043 315.696 L3043 346.792 L3037.11 346.792 L3037.11 315.696 L3031.51 315.696 L3031.51 311.144 L3037.11 311.144 L3037.11 308.662 Q3037.11 302.71 3039.88 300.004 Q3042.65 297.267 3048.66 297.267 L3054.2 297.267 Z" fill="#000000" fill-rule="evenodd" fill-opacity="1" /><path clip-path="url(#clip0700)" d="M 0 0 M3064.99 301.023 L3064.99 311.144 L3077.05 311.144 L3077.05 315.696 L3064.99 315.696 L3064.99 335.047 Q3064.99 339.408 3066.17 340.649 Q3067.38 341.891 3071.04 341.891 L3077.05 341.891 L3077.05 346.792 L3071.04 346.792 Q3064.26 346.792 3061.68 344.278 Q3059.1 341.731 3059.1 335.047 L3059.1 315.696 L3054.8 315.696 L3054.8 311.144 L3059.1 311.144 L3059.1 301.023 L3064.99 301.023 Z" fill="#000000" fill-rule="evenodd" fill-opacity="1" /><path clip-path="url(#clip0700)" d="M 0 0 M3105.86 341.381 L3116.36 341.381 L3116.36 305.129 L3104.93 307.42 L3104.93 301.564 L3116.3 299.272 L3122.73 299.272 L3122.73 341.381 L3133.23 341.381 L3133.23 346.792 L3105.86 346.792 L3105.86 341.381 Z" fill="#000000" fill-rule="evenodd" fill-opacity="1" /><polyline clip-path="url(#clip0700)" style="stroke:#e26f46; stroke-width:16; stroke-opacity:1; fill:none" points="
  2764.44,383.512 2956.44,383.512 
  "/>
<path clip-path="url(#clip0700)" d="M 0 0 M2988.44 359.752 L2994.87 359.752 L2994.87 401.861 L3018.01 401.861 L3018.01 407.272 L2988.44 407.272 L2988.44 359.752 Z" fill="#000000" fill-rule="evenodd" fill-opacity="1" /><path clip-path="url(#clip0700)" d="M 0 0 M3024.15 371.624 L3030.01 371.624 L3030.01 407.272 L3024.15 407.272 L3024.15 371.624 M3024.15 357.747 L3030.01 357.747 L3030.01 365.163 L3024.15 365.163 L3024.15 357.747 Z" fill="#000000" fill-rule="evenodd" fill-opacity="1" /><path clip-path="url(#clip0700)" d="M 0 0 M3054.2 357.747 L3054.2 362.617 L3048.6 362.617 Q3045.45 362.617 3044.21 363.89 Q3043 365.163 3043 368.473 L3043 371.624 L3052.64 371.624 L3052.64 376.176 L3043 376.176 L3043 407.272 L3037.11 407.272 L3037.11 376.176 L3031.51 376.176 L3031.51 371.624 L3037.11 371.624 L3037.11 369.142 Q3037.11 363.19 3039.88 360.484 Q3042.65 357.747 3048.66 357.747 L3054.2 357.747 Z" fill="#000000" fill-rule="evenodd" fill-opacity="1" /><path clip-path="url(#clip0700)" d="M 0 0 M3064.99 361.503 L3064.99 371.624 L3077.05 371.624 L3077.05 376.176 L3064.99 376.176 L3064.99 395.527 Q3064.99 399.888 3066.17 401.129 Q3067.38 402.371 3071.04 402.371 L3077.05 402.371 L3077.05 407.272 L3071.04 407.272 Q3064.26 407.272 3061.68 404.758 Q3059.1 402.211 3059.1 395.527 L3059.1 376.176 L3054.8 376.176 L3054.8 371.624 L3059.1 371.624 L3059.1 361.503 L3064.99 361.503 Z" fill="#000000" fill-rule="evenodd" fill-opacity="1" /><path clip-path="url(#clip0700)" d="M 0 0 M3110.28 401.861 L3132.72 401.861 L3132.72 407.272 L3102.55 407.272 L3102.55 401.861 Q3106.21 398.074 3112.51 391.708 Q3118.84 385.31 3120.47 383.464 Q3123.55 379.995 3124.76 377.608 Q3126 375.189 3126 372.865 Q3126 369.078 3123.33 366.691 Q3120.69 364.304 3116.42 364.304 Q3113.4 364.304 3110.03 365.354 Q3106.68 366.404 3102.87 368.537 L3102.87 362.044 Q3106.75 360.484 3110.12 359.688 Q3113.5 358.893 3116.3 358.893 Q3123.68 358.893 3128.07 362.585 Q3132.47 366.277 3132.47 372.452 Q3132.47 375.38 3131.35 378.022 Q3130.27 380.632 3127.37 384.196 Q3126.58 385.119 3122.31 389.544 Q3118.05 393.936 3110.28 401.861 Z" fill="#000000" fill-rule="evenodd" fill-opacity="1" /><polyline clip-path="url(#clip0700)" style="stroke:#3da44d; stroke-width:16; stroke-opacity:1; fill:none" points="
  2764.44,443.992 2956.44,443.992 
  "/>
<path clip-path="url(#clip0700)" d="M 0 0 M2988.44 420.232 L2994.87 420.232 L2994.87 462.341 L3018.01 462.341 L3018.01 467.752 L2988.44 467.752 L2988.44 420.232 Z" fill="#000000" fill-rule="evenodd" fill-opacity="1" /><path clip-path="url(#clip0700)" d="M 0 0 M3024.15 432.104 L3030.01 432.104 L3030.01 467.752 L3024.15 467.752 L3024.15 432.104 M3024.15 418.227 L3030.01 418.227 L3030.01 425.643 L3024.15 425.643 L3024.15 418.227 Z" fill="#000000" fill-rule="evenodd" fill-opacity="1" /><path clip-path="url(#clip0700)" d="M 0 0 M3054.2 418.227 L3054.2 423.097 L3048.6 423.097 Q3045.45 423.097 3044.21 424.37 Q3043 425.643 3043 428.953 L3043 432.104 L3052.64 432.104 L3052.64 436.656 L3043 436.656 L3043 467.752 L3037.11 467.752 L3037.11 436.656 L3031.51 436.656 L3031.51 432.104 L3037.11 432.104 L3037.11 429.622 Q3037.11 423.67 3039.88 420.964 Q3042.65 418.227 3048.66 418.227 L3054.2 418.227 Z" fill="#000000" fill-rule="evenodd" fill-opacity="1" /><path clip-path="url(#clip0700)" d="M 0 0 M3064.99 421.983 L3064.99 432.104 L3077.05 432.104 L3077.05 436.656 L3064.99 436.656 L3064.99 456.007 Q3064.99 460.368 3066.17 461.609 Q3067.38 462.851 3071.04 462.851 L3077.05 462.851 L3077.05 467.752 L3071.04 467.752 Q3064.26 467.752 3061.68 465.238 Q3059.1 462.691 3059.1 456.007 L3059.1 436.656 L3054.8 436.656 L3054.8 432.104 L3059.1 432.104 L3059.1 421.983 L3064.99 421.983 Z" fill="#000000" fill-rule="evenodd" fill-opacity="1" /><path clip-path="url(#clip0700)" d="M 0 0 M3124.22 442.13 Q3128.84 443.117 3131.42 446.236 Q3134.03 449.355 3134.03 453.939 Q3134.03 460.973 3129.19 464.824 Q3124.35 468.675 3115.44 468.675 Q3112.45 468.675 3109.26 468.07 Q3106.11 467.497 3102.74 466.32 L3102.74 460.113 Q3105.41 461.673 3108.59 462.469 Q3111.78 463.264 3115.25 463.264 Q3121.29 463.264 3124.45 460.877 Q3127.63 458.49 3127.63 453.939 Q3127.63 449.737 3124.67 447.382 Q3121.74 444.995 3116.49 444.995 L3110.95 444.995 L3110.95 439.711 L3116.74 439.711 Q3121.49 439.711 3124 437.833 Q3126.51 435.924 3126.51 432.359 Q3126.51 428.699 3123.9 426.757 Q3121.33 424.784 3116.49 424.784 Q3113.85 424.784 3110.82 425.357 Q3107.8 425.929 3104.17 427.139 L3104.17 421.41 Q3107.83 420.391 3111.01 419.882 Q3114.23 419.373 3117.06 419.373 Q3124.38 419.373 3128.65 422.715 Q3132.91 426.025 3132.91 431.69 Q3132.91 435.637 3130.65 438.374 Q3128.39 441.08 3124.22 442.13 Z" fill="#000000" fill-rule="evenodd" fill-opacity="1" /><polyline clip-path="url(#clip0700)" style="stroke:#c271d2; stroke-width:16; stroke-opacity:1; fill:none" points="
  2764.44,504.472 2956.44,504.472 
  "/>
<path clip-path="url(#clip0700)" d="M 0 0 M2988.44 480.712 L2994.87 480.712 L2994.87 522.821 L3018.01 522.821 L3018.01 528.232 L2988.44 528.232 L2988.44 480.712 Z" fill="#000000" fill-rule="evenodd" fill-opacity="1" /><path clip-path="url(#clip0700)" d="M 0 0 M3024.15 492.584 L3030.01 492.584 L3030.01 528.232 L3024.15 528.232 L3024.15 492.584 M3024.15 478.707 L3030.01 478.707 L3030.01 486.123 L3024.15 486.123 L3024.15 478.707 Z" fill="#000000" fill-rule="evenodd" fill-opacity="1" /><path clip-path="url(#clip0700)" d="M 0 0 M3054.2 478.707 L3054.2 483.577 L3048.6 483.577 Q3045.45 483.577 3044.21 484.85 Q3043 486.123 3043 489.433 L3043 492.584 L3052.64 492.584 L3052.64 497.136 L3043 497.136 L3043 528.232 L3037.11 528.232 L3037.11 497.136 L3031.51 497.136 L3031.51 492.584 L3037.11 492.584 L3037.11 490.102 Q3037.11 484.15 3039.88 481.444 Q3042.65 478.707 3048.66 478.707 L3054.2 478.707 Z" fill="#000000" fill-rule="evenodd" fill-opacity="1" /><path clip-path="url(#clip0700)" d="M 0 0 M3064.99 482.463 L3064.99 492.584 L3077.05 492.584 L3077.05 497.136 L3064.99 497.136 L3064.99 516.487 Q3064.99 520.848 3066.17 522.089 Q3067.38 523.331 3071.04 523.331 L3077.05 523.331 L3077.05 528.232 L3071.04 528.232 Q3064.26 528.232 3061.68 525.718 Q3059.1 523.171 3059.1 516.487 L3059.1 497.136 L3054.8 497.136 L3054.8 492.584 L3059.1 492.584 L3059.1 482.463 L3064.99 482.463 Z" fill="#000000" fill-rule="evenodd" fill-opacity="1" /><path clip-path="url(#clip0700)" d="M 0 0 M3122.41 486.314 L3106.18 511.681 L3122.41 511.681 L3122.41 486.314 M3120.72 480.712 L3128.81 480.712 L3128.81 511.681 L3135.59 511.681 L3135.59 517.028 L3128.81 517.028 L3128.81 528.232 L3122.41 528.232 L3122.41 517.028 L3100.96 517.028 L3100.96 510.822 L3120.72 480.712 Z" fill="#000000" fill-rule="evenodd" fill-opacity="1" /><polyline clip-path="url(#clip0700)" style="stroke:#ac8d18; stroke-width:16; stroke-opacity:1; fill:none" points="
  2764.44,564.952 2956.44,564.952 
  "/>
<path clip-path="url(#clip0700)" d="M 0 0 M2988.44 541.192 L2994.87 541.192 L2994.87 583.301 L3018.01 583.301 L3018.01 588.712 L2988.44 588.712 L2988.44 541.192 Z" fill="#000000" fill-rule="evenodd" fill-opacity="1" /><path clip-path="url(#clip0700)" d="M 0 0 M3024.15 553.064 L3030.01 553.064 L3030.01 588.712 L3024.15 588.712 L3024.15 553.064 M3024.15 539.187 L3030.01 539.187 L3030.01 546.603 L3024.15 546.603 L3024.15 539.187 Z" fill="#000000" fill-rule="evenodd" fill-opacity="1" /><path clip-path="url(#clip0700)" d="M 0 0 M3054.2 539.187 L3054.2 544.057 L3048.6 544.057 Q3045.45 544.057 3044.21 545.33 Q3043 546.603 3043 549.913 L3043 553.064 L3052.64 553.064 L3052.64 557.616 L3043 557.616 L3043 588.712 L3037.11 588.712 L3037.11 557.616 L3031.51 557.616 L3031.51 553.064 L3037.11 553.064 L3037.11 550.582 Q3037.11 544.63 3039.88 541.924 Q3042.65 539.187 3048.66 539.187 L3054.2 539.187 Z" fill="#000000" fill-rule="evenodd" fill-opacity="1" /><path clip-path="url(#clip0700)" d="M 0 0 M3064.99 542.943 L3064.99 553.064 L3077.05 553.064 L3077.05 557.616 L3064.99 557.616 L3064.99 576.967 Q3064.99 581.328 3066.17 582.569 Q3067.38 583.811 3071.04 583.811 L3077.05 583.811 L3077.05 588.712 L3071.04 588.712 Q3064.26 588.712 3061.68 586.198 Q3059.1 583.651 3059.1 576.967 L3059.1 557.616 L3054.8 557.616 L3054.8 553.064 L3059.1 553.064 L3059.1 542.943 L3064.99 542.943 Z" fill="#000000" fill-rule="evenodd" fill-opacity="1" /><path clip-path="url(#clip0700)" d="M 0 0 M3104.81 541.192 L3130.05 541.192 L3130.05 546.603 L3110.7 546.603 L3110.7 558.252 Q3112.1 557.775 3113.5 557.552 Q3114.9 557.297 3116.3 557.297 Q3124.25 557.297 3128.9 561.658 Q3133.55 566.018 3133.55 573.466 Q3133.55 581.137 3128.77 585.402 Q3124 589.635 3115.31 589.635 Q3112.32 589.635 3109.2 589.126 Q3106.11 588.617 3102.8 587.598 L3102.8 581.137 Q3105.67 582.697 3108.72 583.46 Q3111.78 584.224 3115.18 584.224 Q3120.69 584.224 3123.9 581.328 Q3127.12 578.432 3127.12 573.466 Q3127.12 568.501 3123.9 565.605 Q3120.69 562.708 3115.18 562.708 Q3112.6 562.708 3110.03 563.281 Q3107.48 563.854 3104.81 565.064 L3104.81 541.192 Z" fill="#000000" fill-rule="evenodd" fill-opacity="1" /><polyline clip-path="url(#clip0700)" style="stroke:#00a9ad; stroke-width:16; stroke-opacity:1; fill:none" points="
  2764.44,625.432 2956.44,625.432 
  "/>
<path clip-path="url(#clip0700)" d="M 0 0 M2988.44 601.672 L2994.87 601.672 L2994.87 643.781 L3018.01 643.781 L3018.01 649.192 L2988.44 649.192 L2988.44 601.672 Z" fill="#000000" fill-rule="evenodd" fill-opacity="1" /><path clip-path="url(#clip0700)" d="M 0 0 M3024.15 613.544 L3030.01 613.544 L3030.01 649.192 L3024.15 649.192 L3024.15 613.544 M3024.15 599.667 L3030.01 599.667 L3030.01 607.083 L3024.15 607.083 L3024.15 599.667 Z" fill="#000000" fill-rule="evenodd" fill-opacity="1" /><path clip-path="url(#clip0700)" d="M 0 0 M3054.2 599.667 L3054.2 604.537 L3048.6 604.537 Q3045.45 604.537 3044.21 605.81 Q3043 607.083 3043 610.393 L3043 613.544 L3052.64 613.544 L3052.64 618.096 L3043 618.096 L3043 649.192 L3037.11 649.192 L3037.11 618.096 L3031.51 618.096 L3031.51 613.544 L3037.11 613.544 L3037.11 611.062 Q3037.11 605.11 3039.88 602.404 Q3042.65 599.667 3048.66 599.667 L3054.2 599.667 Z" fill="#000000" fill-rule="evenodd" fill-opacity="1" /><path clip-path="url(#clip0700)" d="M 0 0 M3064.99 603.423 L3064.99 613.544 L3077.05 613.544 L3077.05 618.096 L3064.99 618.096 L3064.99 637.447 Q3064.99 641.808 3066.17 643.049 Q3067.38 644.291 3071.04 644.291 L3077.05 644.291 L3077.05 649.192 L3071.04 649.192 Q3064.26 649.192 3061.68 646.678 Q3059.1 644.131 3059.1 637.447 L3059.1 618.096 L3054.8 618.096 L3054.8 613.544 L3059.1 613.544 L3059.1 603.423 L3064.99 603.423 Z" fill="#000000" fill-rule="evenodd" fill-opacity="1" /><path clip-path="url(#clip0700)" d="M 0 0 M3119.29 622.87 Q3114.96 622.87 3112.41 625.83 Q3109.9 628.79 3109.9 633.946 Q3109.9 639.071 3112.41 642.063 Q3114.96 645.023 3119.29 645.023 Q3123.62 645.023 3126.13 642.063 Q3128.68 639.071 3128.68 633.946 Q3128.68 628.79 3126.13 625.83 Q3123.62 622.87 3119.29 622.87 M3132.05 602.722 L3132.05 608.579 Q3129.63 607.433 3127.15 606.828 Q3124.7 606.224 3122.28 606.224 Q3115.92 606.224 3112.54 610.52 Q3109.2 614.817 3108.72 623.506 Q3110.6 620.737 3113.43 619.273 Q3116.27 617.777 3119.67 617.777 Q3126.83 617.777 3130.97 622.138 Q3135.14 626.467 3135.14 633.946 Q3135.14 641.267 3130.81 645.691 Q3126.48 650.115 3119.29 650.115 Q3111.05 650.115 3106.68 643.813 Q3102.32 637.479 3102.32 625.48 Q3102.32 614.213 3107.67 607.529 Q3113.02 600.813 3122.03 600.813 Q3124.45 600.813 3126.9 601.29 Q3129.38 601.768 3132.05 602.722 Z" fill="#000000" fill-rule="evenodd" fill-opacity="1" /><polyline clip-path="url(#clip0700)" style="stroke:#ed5d92; stroke-width:16; stroke-opacity:1; fill:none" points="
  2764.44,685.912 2956.44,685.912 
  "/>
<path clip-path="url(#clip0700)" d="M 0 0 M2988.44 662.152 L2994.87 662.152 L2994.87 704.261 L3018.01 704.261 L3018.01 709.672 L2988.44 709.672 L2988.44 662.152 Z" fill="#000000" fill-rule="evenodd" fill-opacity="1" /><path clip-path="url(#clip0700)" d="M 0 0 M3024.15 674.024 L3030.01 674.024 L3030.01 709.672 L3024.15 709.672 L3024.15 674.024 M3024.15 660.147 L3030.01 660.147 L3030.01 667.563 L3024.15 667.563 L3024.15 660.147 Z" fill="#000000" fill-rule="evenodd" fill-opacity="1" /><path clip-path="url(#clip0700)" d="M 0 0 M3054.2 660.147 L3054.2 665.017 L3048.6 665.017 Q3045.45 665.017 3044.21 666.29 Q3043 667.563 3043 670.873 L3043 674.024 L3052.64 674.024 L3052.64 678.576 L3043 678.576 L3043 709.672 L3037.11 709.672 L3037.11 678.576 L3031.51 678.576 L3031.51 674.024 L3037.11 674.024 L3037.11 671.542 Q3037.11 665.59 3039.88 662.884 Q3042.65 660.147 3048.66 660.147 L3054.2 660.147 Z" fill="#000000" fill-rule="evenodd" fill-opacity="1" /><path clip-path="url(#clip0700)" d="M 0 0 M3064.99 663.903 L3064.99 674.024 L3077.05 674.024 L3077.05 678.576 L3064.99 678.576 L3064.99 697.927 Q3064.99 702.288 3066.17 703.529 Q3067.38 704.771 3071.04 704.771 L3077.05 704.771 L3077.05 709.672 L3071.04 709.672 Q3064.26 709.672 3061.68 707.158 Q3059.1 704.611 3059.1 697.927 L3059.1 678.576 L3054.8 678.576 L3054.8 674.024 L3059.1 674.024 L3059.1 663.903 L3064.99 663.903 Z" fill="#000000" fill-rule="evenodd" fill-opacity="1" /><path clip-path="url(#clip0700)" d="M 0 0 M3103.12 662.152 L3133.68 662.152 L3133.68 664.889 L3116.42 709.672 L3109.71 709.672 L3125.94 667.563 L3103.12 667.563 L3103.12 662.152 Z" fill="#000000" fill-rule="evenodd" fill-opacity="1" /><polyline clip-path="url(#clip0700)" style="stroke:#c68125; stroke-width:16; stroke-opacity:1; fill:none" points="
  2764.44,746.392 2956.44,746.392 
  "/>
<path clip-path="url(#clip0700)" d="M 0 0 M2988.44 722.632 L2994.87 722.632 L2994.87 764.741 L3018.01 764.741 L3018.01 770.152 L2988.44 770.152 L2988.44 722.632 Z" fill="#000000" fill-rule="evenodd" fill-opacity="1" /><path clip-path="url(#clip0700)" d="M 0 0 M3024.15 734.504 L3030.01 734.504 L3030.01 770.152 L3024.15 770.152 L3024.15 734.504 M3024.15 720.627 L3030.01 720.627 L3030.01 728.043 L3024.15 728.043 L3024.15 720.627 Z" fill="#000000" fill-rule="evenodd" fill-opacity="1" /><path clip-path="url(#clip0700)" d="M 0 0 M3054.2 720.627 L3054.2 725.497 L3048.6 725.497 Q3045.45 725.497 3044.21 726.77 Q3043 728.043 3043 731.353 L3043 734.504 L3052.64 734.504 L3052.64 739.056 L3043 739.056 L3043 770.152 L3037.11 770.152 L3037.11 739.056 L3031.51 739.056 L3031.51 734.504 L3037.11 734.504 L3037.11 732.022 Q3037.11 726.07 3039.88 723.364 Q3042.65 720.627 3048.66 720.627 L3054.2 720.627 Z" fill="#000000" fill-rule="evenodd" fill-opacity="1" /><path clip-path="url(#clip0700)" d="M 0 0 M3064.99 724.383 L3064.99 734.504 L3077.05 734.504 L3077.05 739.056 L3064.99 739.056 L3064.99 758.407 Q3064.99 762.768 3066.17 764.009 Q3067.38 765.251 3071.04 765.251 L3077.05 765.251 L3077.05 770.152 L3071.04 770.152 Q3064.26 770.152 3061.68 767.638 Q3059.1 765.091 3059.1 758.407 L3059.1 739.056 L3054.8 739.056 L3054.8 734.504 L3059.1 734.504 L3059.1 724.383 L3064.99 724.383 Z" fill="#000000" fill-rule="evenodd" fill-opacity="1" /><path clip-path="url(#clip0700)" d="M 0 0 M3118.49 747.586 Q3113.91 747.586 3111.27 750.036 Q3108.66 752.487 3108.66 756.784 Q3108.66 761.081 3111.27 763.532 Q3113.91 765.983 3118.49 765.983 Q3123.08 765.983 3125.72 763.532 Q3128.36 761.049 3128.36 756.784 Q3128.36 752.487 3125.72 750.036 Q3123.11 747.586 3118.49 747.586 M3112.06 744.848 Q3107.93 743.83 3105.6 740.997 Q3103.31 738.164 3103.31 734.09 Q3103.31 728.393 3107.35 725.083 Q3111.43 721.773 3118.49 721.773 Q3125.59 721.773 3129.63 725.083 Q3133.68 728.393 3133.68 734.09 Q3133.68 738.164 3131.35 740.997 Q3129.06 743.83 3124.95 744.848 Q3129.6 745.931 3132.18 749.082 Q3134.79 752.233 3134.79 756.784 Q3134.79 763.691 3130.56 767.383 Q3126.35 771.075 3118.49 771.075 Q3110.63 771.075 3106.4 767.383 Q3102.2 763.691 3102.2 756.784 Q3102.2 752.233 3104.81 749.082 Q3107.42 745.931 3112.06 744.848 M3109.71 734.695 Q3109.71 738.387 3112 740.456 Q3114.32 742.525 3118.49 742.525 Q3122.63 742.525 3124.95 740.456 Q3127.31 738.387 3127.31 734.695 Q3127.31 731.003 3124.95 728.934 Q3122.63 726.865 3118.49 726.865 Q3114.32 726.865 3112 728.934 Q3109.71 731.003 3109.71 734.695 Z" fill="#000000" fill-rule="evenodd" fill-opacity="1" /><polyline clip-path="url(#clip0700)" style="stroke:#00a98d; stroke-width:16; stroke-opacity:1; fill:none" points="
  2764.44,806.872 2956.44,806.872 
  "/>
<path clip-path="url(#clip0700)" d="M 0 0 M2988.44 783.112 L2994.87 783.112 L2994.87 825.221 L3018.01 825.221 L3018.01 830.632 L2988.44 830.632 L2988.44 783.112 Z" fill="#000000" fill-rule="evenodd" fill-opacity="1" /><path clip-path="url(#clip0700)" d="M 0 0 M3024.15 794.984 L3030.01 794.984 L3030.01 830.632 L3024.15 830.632 L3024.15 794.984 M3024.15 781.107 L3030.01 781.107 L3030.01 788.523 L3024.15 788.523 L3024.15 781.107 Z" fill="#000000" fill-rule="evenodd" fill-opacity="1" /><path clip-path="url(#clip0700)" d="M 0 0 M3054.2 781.107 L3054.2 785.977 L3048.6 785.977 Q3045.45 785.977 3044.21 787.25 Q3043 788.523 3043 791.833 L3043 794.984 L3052.64 794.984 L3052.64 799.536 L3043 799.536 L3043 830.632 L3037.11 830.632 L3037.11 799.536 L3031.51 799.536 L3031.51 794.984 L3037.11 794.984 L3037.11 792.502 Q3037.11 786.55 3039.88 783.844 Q3042.65 781.107 3048.66 781.107 L3054.2 781.107 Z" fill="#000000" fill-rule="evenodd" fill-opacity="1" /><path clip-path="url(#clip0700)" d="M 0 0 M3064.99 784.863 L3064.99 794.984 L3077.05 794.984 L3077.05 799.536 L3064.99 799.536 L3064.99 818.887 Q3064.99 823.248 3066.17 824.489 Q3067.38 825.731 3071.04 825.731 L3077.05 825.731 L3077.05 830.632 L3071.04 830.632 Q3064.26 830.632 3061.68 828.118 Q3059.1 825.571 3059.1 818.887 L3059.1 799.536 L3054.8 799.536 L3054.8 794.984 L3059.1 794.984 L3059.1 784.863 L3064.99 784.863 Z" fill="#000000" fill-rule="evenodd" fill-opacity="1" /><path clip-path="url(#clip0700)" d="M 0 0 M3104.93 829.645 L3104.93 823.789 Q3107.35 824.935 3109.84 825.54 Q3112.32 826.144 3114.71 826.144 Q3121.07 826.144 3124.41 821.879 Q3127.79 817.582 3128.26 808.861 Q3126.42 811.599 3123.59 813.063 Q3120.75 814.527 3117.32 814.527 Q3110.19 814.527 3106.02 810.23 Q3101.88 805.901 3101.88 798.422 Q3101.88 791.101 3106.21 786.677 Q3110.54 782.253 3117.73 782.253 Q3125.97 782.253 3130.3 788.587 Q3134.66 794.889 3134.66 806.92 Q3134.66 818.155 3129.31 824.871 Q3124 831.555 3114.99 831.555 Q3112.57 831.555 3110.09 831.078 Q3107.61 830.6 3104.93 829.645 M3117.73 809.498 Q3122.06 809.498 3124.57 806.538 Q3127.12 803.578 3127.12 798.422 Q3127.12 793.297 3124.57 790.337 Q3122.06 787.345 3117.73 787.345 Q3113.4 787.345 3110.85 790.337 Q3108.34 793.297 3108.34 798.422 Q3108.34 803.578 3110.85 806.538 Q3113.4 809.498 3117.73 809.498 Z" fill="#000000" fill-rule="evenodd" fill-opacity="1" /><polyline clip-path="url(#clip0700)" style="stroke:#8e971d; stroke-width:16; stroke-opacity:1; fill:none" points="
  2764.44,867.352 2956.44,867.352 
  "/>
<path clip-path="url(#clip0700)" d="M 0 0 M2988.44 843.592 L2994.87 843.592 L2994.87 885.701 L3018.01 885.701 L3018.01 891.112 L2988.44 891.112 L2988.44 843.592 Z" fill="#000000" fill-rule="evenodd" fill-opacity="1" /><path clip-path="url(#clip0700)" d="M 0 0 M3024.15 855.464 L3030.01 855.464 L3030.01 891.112 L3024.15 891.112 L3024.15 855.464 M3024.15 841.587 L3030.01 841.587 L3030.01 849.003 L3024.15 849.003 L3024.15 841.587 Z" fill="#000000" fill-rule="evenodd" fill-opacity="1" /><path clip-path="url(#clip0700)" d="M 0 0 M3054.2 841.587 L3054.2 846.457 L3048.6 846.457 Q3045.45 846.457 3044.21 847.73 Q3043 849.003 3043 852.313 L3043 855.464 L3052.64 855.464 L3052.64 860.016 L3043 860.016 L3043 891.112 L3037.11 891.112 L3037.11 860.016 L3031.51 860.016 L3031.51 855.464 L3037.11 855.464 L3037.11 852.982 Q3037.11 847.03 3039.88 844.324 Q3042.65 841.587 3048.66 841.587 L3054.2 841.587 Z" fill="#000000" fill-rule="evenodd" fill-opacity="1" /><path clip-path="url(#clip0700)" d="M 0 0 M3064.99 845.343 L3064.99 855.464 L3077.05 855.464 L3077.05 860.016 L3064.99 860.016 L3064.99 879.367 Q3064.99 883.728 3066.17 884.969 Q3067.38 886.211 3071.04 886.211 L3077.05 886.211 L3077.05 891.112 L3071.04 891.112 Q3064.26 891.112 3061.68 888.598 Q3059.1 886.051 3059.1 879.367 L3059.1 860.016 L3054.8 860.016 L3054.8 855.464 L3059.1 855.464 L3059.1 845.343 L3064.99 845.343 Z" fill="#000000" fill-rule="evenodd" fill-opacity="1" /><path clip-path="url(#clip0700)" d="M 0 0 M3105.86 885.701 L3116.36 885.701 L3116.36 849.449 L3104.93 851.74 L3104.93 845.884 L3116.3 843.592 L3122.73 843.592 L3122.73 885.701 L3133.23 885.701 L3133.23 891.112 L3105.86 891.112 L3105.86 885.701 Z" fill="#000000" fill-rule="evenodd" fill-opacity="1" /><path clip-path="url(#clip0700)" d="M 0 0 M3153.95 847.825 Q3148.98 847.825 3146.47 852.727 Q3143.99 857.597 3143.99 867.4 Q3143.99 877.171 3146.47 882.073 Q3148.98 886.943 3153.95 886.943 Q3158.95 886.943 3161.43 882.073 Q3163.94 877.171 3163.94 867.4 Q3163.94 857.597 3161.43 852.727 Q3158.95 847.825 3153.95 847.825 M3153.95 842.733 Q3161.94 842.733 3166.14 849.067 Q3170.37 855.369 3170.37 867.4 Q3170.37 879.399 3166.14 885.733 Q3161.94 892.035 3153.95 892.035 Q3145.96 892.035 3141.73 885.733 Q3137.53 879.399 3137.53 867.4 Q3137.53 855.369 3141.73 849.067 Q3145.96 842.733 3153.95 842.733 Z" fill="#000000" fill-rule="evenodd" fill-opacity="1" /><polyline clip-path="url(#clip0700)" style="stroke:#00a8cb; stroke-width:16; stroke-opacity:1; fill:none" points="
  2764.44,927.832 2956.44,927.832 
  "/>
<path clip-path="url(#clip0700)" d="M 0 0 M2988.44 904.072 L2994.87 904.072 L2994.87 946.181 L3018.01 946.181 L3018.01 951.592 L2988.44 951.592 L2988.44 904.072 Z" fill="#000000" fill-rule="evenodd" fill-opacity="1" /><path clip-path="url(#clip0700)" d="M 0 0 M3036.82 920.05 Q3032.11 920.05 3029.37 923.742 Q3026.64 927.402 3026.64 933.8 Q3026.64 940.198 3029.34 943.89 Q3032.08 947.55 3036.82 947.55 Q3041.5 947.55 3044.24 943.858 Q3046.97 940.166 3046.97 933.8 Q3046.97 927.466 3044.24 923.774 Q3041.5 920.05 3036.82 920.05 M3036.82 915.085 Q3044.46 915.085 3048.82 920.05 Q3053.18 925.015 3053.18 933.8 Q3053.18 942.553 3048.82 947.55 Q3044.46 952.515 3036.82 952.515 Q3029.15 952.515 3024.79 947.55 Q3020.46 942.553 3020.46 933.8 Q3020.46 925.015 3024.79 920.05 Q3029.15 915.085 3036.82 915.085 Z" fill="#000000" fill-rule="evenodd" fill-opacity="1" /><path clip-path="url(#clip0700)" d="M 0 0 M3075.52 933.673 Q3068.43 933.673 3065.69 935.296 Q3062.95 936.919 3062.95 940.834 Q3062.95 943.953 3064.99 945.799 Q3067.06 947.614 3070.59 947.614 Q3075.46 947.614 3078.39 944.176 Q3081.35 940.707 3081.35 934.978 L3081.35 933.673 L3075.52 933.673 M3087.21 931.254 L3087.21 951.592 L3081.35 951.592 L3081.35 946.181 Q3079.34 949.428 3076.35 950.987 Q3073.36 952.515 3069.03 952.515 Q3063.56 952.515 3060.31 949.46 Q3057.1 946.372 3057.1 941.216 Q3057.1 935.2 3061.11 932.145 Q3065.15 929.089 3073.14 929.089 L3081.35 929.089 L3081.35 928.516 Q3081.35 924.474 3078.68 922.278 Q3076.03 920.05 3071.23 920.05 Q3068.17 920.05 3065.28 920.782 Q3062.38 921.514 3059.71 922.978 L3059.71 917.567 Q3062.92 916.326 3065.94 915.721 Q3068.97 915.085 3071.83 915.085 Q3079.57 915.085 3083.39 919.095 Q3087.21 923.106 3087.21 931.254 Z" fill="#000000" fill-rule="evenodd" fill-opacity="1" /><path clip-path="url(#clip0700)" d="M 0 0 M3116.81 921.355 L3116.81 902.067 L3122.66 902.067 L3122.66 951.592 L3116.81 951.592 L3116.81 946.245 Q3114.96 949.428 3112.13 950.987 Q3109.33 952.515 3105.38 952.515 Q3098.92 952.515 3094.84 947.359 Q3090.8 942.203 3090.8 933.8 Q3090.8 925.397 3094.84 920.241 Q3098.92 915.085 3105.38 915.085 Q3109.33 915.085 3112.13 916.644 Q3114.96 918.172 3116.81 921.355 M3096.85 933.8 Q3096.85 940.261 3099.49 943.953 Q3102.17 947.614 3106.81 947.614 Q3111.46 947.614 3114.13 943.953 Q3116.81 940.261 3116.81 933.8 Q3116.81 927.339 3114.13 923.679 Q3111.46 919.986 3106.81 919.986 Q3102.17 919.986 3099.49 923.679 Q3096.85 927.339 3096.85 933.8 Z" fill="#000000" fill-rule="evenodd" fill-opacity="1" /></svg>
