<?xml version="1.0" encoding="utf-8"?>
<svg xmlns="http://www.w3.org/2000/svg" xmlns:xlink="http://www.w3.org/1999/xlink" width="800" height="600" viewBox="0 0 3200 2400">
<defs>
  <clipPath id="clip2500">
    <rect x="0" y="0" width="3200" height="2400"/>
  </clipPath>
</defs>
<path clip-path="url(#clip2500)" d="
M0 2400 L3200 2400 L3200 0 L0 0  Z
  " fill="#ffffff" fill-rule="evenodd" fill-opacity="1"/>
<defs>
  <clipPath id="clip2501">
    <rect x="640" y="0" width="2241" height="2241"/>
  </clipPath>
</defs>
<path clip-path="url(#clip2500)" d="
M239.663 2204.92 L2636.44 2204.92 L2636.44 131.032 L239.663 131.032  Z
  " fill="#ffffff" fill-rule="evenodd" fill-opacity="1"/>
<defs>
  <clipPath id="clip2502">
    <rect x="239" y="131" width="2398" height="2075"/>
  </clipPath>
</defs>
<polyline clip-path="url(#clip2502)" style="stroke:#000000; stroke-width:2; stroke-opacity:0.1; fill:none" points="
  307.496,2204.92 307.496,131.032 
  "/>
<polyline clip-path="url(#clip2502)" style="stroke:#000000; stroke-width:2; stroke-opacity:0.1; fill:none" points="
  759.719,2204.92 759.719,131.032 
  "/>
<polyline clip-path="url(#clip2502)" style="stroke:#000000; stroke-width:2; stroke-opacity:0.1; fill:none" points="
  1211.94,2204.92 1211.94,131.032 
  "/>
<polyline clip-path="url(#clip2502)" style="stroke:#000000; stroke-width:2; stroke-opacity:0.1; fill:none" points="
  1664.16,2204.92 1664.16,131.032 
  "/>
<polyline clip-path="url(#clip2502)" style="stroke:#000000; stroke-width:2; stroke-opacity:0.1; fill:none" points="
  2116.39,2204.92 2116.39,131.032 
  "/>
<polyline clip-path="url(#clip2502)" style="stroke:#000000; stroke-width:2; stroke-opacity:0.1; fill:none" points="
  2568.61,2204.92 2568.61,131.032 
  "/>
<polyline clip-path="url(#clip2502)" style="stroke:#000000; stroke-width:2; stroke-opacity:0.1; fill:none" points="
  239.663,2176.33 2636.44,2176.33 
  "/>
<polyline clip-path="url(#clip2502)" style="stroke:#000000; stroke-width:2; stroke-opacity:0.1; fill:none" points="
  239.663,1759.24 2636.44,1759.24 
  "/>
<polyline clip-path="url(#clip2502)" style="stroke:#000000; stroke-width:2; stroke-opacity:0.1; fill:none" points="
  239.663,1342.15 2636.44,1342.15 
  "/>
<polyline clip-path="url(#clip2502)" style="stroke:#000000; stroke-width:2; stroke-opacity:0.1; fill:none" points="
  239.663,925.061 2636.44,925.061 
  "/>
<polyline clip-path="url(#clip2502)" style="stroke:#000000; stroke-width:2; stroke-opacity:0.1; fill:none" points="
  239.663,507.97 2636.44,507.97 
  "/>
<polyline clip-path="url(#clip2500)" style="stroke:#000000; stroke-width:4; stroke-opacity:1; fill:none" points="
  239.663,2204.92 2636.44,2204.92 
  "/>
<polyline clip-path="url(#clip2500)" style="stroke:#000000; stroke-width:4; stroke-opacity:1; fill:none" points="
  239.663,2204.92 239.663,131.032 
  "/>
<polyline clip-path="url(#clip2500)" style="stroke:#000000; stroke-width:4; stroke-opacity:1; fill:none" points="
  307.496,2204.92 307.496,2180.03 
  "/>
<polyline clip-path="url(#clip2500)" style="stroke:#000000; stroke-width:4; stroke-opacity:1; fill:none" points="
  759.719,2204.92 759.719,2180.03 
  "/>
<polyline clip-path="url(#clip2500)" style="stroke:#000000; stroke-width:4; stroke-opacity:1; fill:none" points="
  1211.94,2204.92 1211.94,2180.03 
  "/>
<polyline clip-path="url(#clip2500)" style="stroke:#000000; stroke-width:4; stroke-opacity:1; fill:none" points="
  1664.16,2204.92 1664.16,2180.03 
  "/>
<polyline clip-path="url(#clip2500)" style="stroke:#000000; stroke-width:4; stroke-opacity:1; fill:none" points="
  2116.39,2204.92 2116.39,2180.03 
  "/>
<polyline clip-path="url(#clip2500)" style="stroke:#000000; stroke-width:4; stroke-opacity:1; fill:none" points="
  2568.61,2204.92 2568.61,2180.03 
  "/>
<polyline clip-path="url(#clip2500)" style="stroke:#000000; stroke-width:4; stroke-opacity:1; fill:none" points="
  239.663,2176.33 268.424,2176.33 
  "/>
<polyline clip-path="url(#clip2500)" style="stroke:#000000; stroke-width:4; stroke-opacity:1; fill:none" points="
  239.663,1759.24 268.424,1759.24 
  "/>
<polyline clip-path="url(#clip2500)" style="stroke:#000000; stroke-width:4; stroke-opacity:1; fill:none" points="
  239.663,1342.15 268.424,1342.15 
  "/>
<polyline clip-path="url(#clip2500)" style="stroke:#000000; stroke-width:4; stroke-opacity:1; fill:none" points="
  239.663,925.061 268.424,925.061 
  "/>
<polyline clip-path="url(#clip2500)" style="stroke:#000000; stroke-width:4; stroke-opacity:1; fill:none" points="
  239.663,507.97 268.424,507.97 
  "/>
<path clip-path="url(#clip2500)" d="M 0 0 M307.496 2230.91 Q303.885 2230.91 302.056 2234.48 Q300.251 2238.02 300.251 2245.15 Q300.251 2252.25 302.056 2255.82 Q303.885 2259.36 307.496 2259.36 Q311.13 2259.36 312.936 2255.82 Q314.765 2252.25 314.765 2245.15 Q314.765 2238.02 312.936 2234.48 Q311.13 2230.91 307.496 2230.91 M307.496 2227.21 Q313.306 2227.21 316.362 2231.81 Q319.44 2236.4 319.44 2245.15 Q319.44 2253.87 316.362 2258.48 Q313.306 2263.06 307.496 2263.06 Q301.686 2263.06 298.607 2258.48 Q295.552 2253.87 295.552 2245.15 Q295.552 2236.4 298.607 2231.81 Q301.686 2227.21 307.496 2227.21 Z" fill="#000000" fill-rule="evenodd" fill-opacity="1" /><path clip-path="url(#clip2500)" d="M 0 0 M750.101 2258.46 L757.739 2258.46 L757.739 2232.09 L749.429 2233.76 L749.429 2229.5 L757.693 2227.83 L762.369 2227.83 L762.369 2258.46 L770.008 2258.46 L770.008 2262.39 L750.101 2262.39 L750.101 2258.46 Z" fill="#000000" fill-rule="evenodd" fill-opacity="1" /><path clip-path="url(#clip2500)" d="M 0 0 M1206.59 2258.46 L1222.91 2258.46 L1222.91 2262.39 L1200.97 2262.39 L1200.97 2258.46 Q1203.63 2255.7 1208.21 2251.07 Q1212.82 2246.42 1214 2245.08 Q1216.25 2242.55 1217.13 2240.82 Q1218.03 2239.06 1218.03 2237.37 Q1218.03 2234.61 1216.08 2232.88 Q1214.16 2231.14 1211.06 2231.14 Q1208.86 2231.14 1206.41 2231.91 Q1203.98 2232.67 1201.2 2234.22 L1201.2 2229.5 Q1204.02 2228.36 1206.48 2227.79 Q1208.93 2227.21 1210.97 2227.21 Q1216.34 2227.21 1219.53 2229.89 Q1222.73 2232.58 1222.73 2237.07 Q1222.73 2239.2 1221.92 2241.12 Q1221.13 2243.02 1219.02 2245.61 Q1218.45 2246.28 1215.34 2249.5 Q1212.24 2252.69 1206.59 2258.46 Z" fill="#000000" fill-rule="evenodd" fill-opacity="1" /><path clip-path="url(#clip2500)" d="M 0 0 M1668.41 2243.76 Q1671.77 2244.48 1673.64 2246.74 Q1675.54 2249.01 1675.54 2252.35 Q1675.54 2257.46 1672.02 2260.26 Q1668.5 2263.06 1662.02 2263.06 Q1659.85 2263.06 1657.53 2262.62 Q1655.24 2262.21 1652.79 2261.35 L1652.79 2256.84 Q1654.73 2257.97 1657.05 2258.55 Q1659.36 2259.13 1661.88 2259.13 Q1666.28 2259.13 1668.57 2257.39 Q1670.89 2255.66 1670.89 2252.35 Q1670.89 2249.29 1668.74 2247.58 Q1666.61 2245.84 1662.79 2245.84 L1658.76 2245.84 L1658.76 2242 L1662.97 2242 Q1666.42 2242 1668.25 2240.63 Q1670.08 2239.24 1670.08 2236.65 Q1670.08 2233.99 1668.18 2232.58 Q1666.3 2231.14 1662.79 2231.14 Q1660.86 2231.14 1658.67 2231.56 Q1656.47 2231.98 1653.83 2232.85 L1653.83 2228.69 Q1656.49 2227.95 1658.8 2227.58 Q1661.14 2227.21 1663.2 2227.21 Q1668.53 2227.21 1671.63 2229.64 Q1674.73 2232.04 1674.73 2236.17 Q1674.73 2239.04 1673.09 2241.03 Q1671.44 2242.99 1668.41 2243.76 Z" fill="#000000" fill-rule="evenodd" fill-opacity="1" /><path clip-path="url(#clip2500)" d="M 0 0 M2119.4 2231.91 L2107.59 2250.35 L2119.4 2250.35 L2119.4 2231.91 M2118.17 2227.83 L2124.05 2227.83 L2124.05 2250.35 L2128.98 2250.35 L2128.98 2254.24 L2124.05 2254.24 L2124.05 2262.39 L2119.4 2262.39 L2119.4 2254.24 L2103.79 2254.24 L2103.79 2249.73 L2118.17 2227.83 Z" fill="#000000" fill-rule="evenodd" fill-opacity="1" /><path clip-path="url(#clip2500)" d="M 0 0 M2558.89 2227.83 L2577.24 2227.83 L2577.24 2231.77 L2563.17 2231.77 L2563.17 2240.24 Q2564.19 2239.89 2565.21 2239.73 Q2566.22 2239.54 2567.24 2239.54 Q2573.03 2239.54 2576.41 2242.72 Q2579.79 2245.89 2579.79 2251.3 Q2579.79 2256.88 2576.32 2259.98 Q2572.84 2263.06 2566.53 2263.06 Q2564.35 2263.06 2562.08 2262.69 Q2559.84 2262.32 2557.43 2261.58 L2557.43 2256.88 Q2559.51 2258.02 2561.73 2258.57 Q2563.96 2259.13 2566.43 2259.13 Q2570.44 2259.13 2572.78 2257.02 Q2575.11 2254.92 2575.11 2251.3 Q2575.11 2247.69 2572.78 2245.59 Q2570.44 2243.48 2566.43 2243.48 Q2564.56 2243.48 2562.68 2243.9 Q2560.83 2244.31 2558.89 2245.19 L2558.89 2227.83 Z" fill="#000000" fill-rule="evenodd" fill-opacity="1" /><path clip-path="url(#clip2500)" d="M 0 0 M132.2 2178.73 L144.677 2178.73 L144.677 2182.53 L132.2 2182.53 L132.2 2178.73 Z" fill="#000000" fill-rule="evenodd" fill-opacity="1" /><path clip-path="url(#clip2500)" d="M 0 0 M159.746 2162.13 Q156.135 2162.13 154.307 2165.7 Q152.501 2169.24 152.501 2176.37 Q152.501 2183.48 154.307 2187.04 Q156.135 2190.58 159.746 2190.58 Q163.381 2190.58 165.186 2187.04 Q167.015 2183.48 167.015 2176.37 Q167.015 2169.24 165.186 2165.7 Q163.381 2162.13 159.746 2162.13 M159.746 2158.43 Q165.556 2158.43 168.612 2163.04 Q171.691 2167.62 171.691 2176.37 Q171.691 2185.1 168.612 2189.7 Q165.556 2194.29 159.746 2194.29 Q153.936 2194.29 150.857 2189.7 Q147.802 2185.1 147.802 2176.37 Q147.802 2167.62 150.857 2163.04 Q153.936 2158.43 159.746 2158.43 Z" fill="#000000" fill-rule="evenodd" fill-opacity="1" /><path clip-path="url(#clip2500)" d="M 0 0 M176.76 2187.73 L181.644 2187.73 L181.644 2193.61 L176.76 2193.61 L176.76 2187.73 Z" fill="#000000" fill-rule="evenodd" fill-opacity="1" /><path clip-path="url(#clip2500)" d="M 0 0 M186.76 2159.05 L205.116 2159.05 L205.116 2162.99 L191.042 2162.99 L191.042 2171.46 Q192.061 2171.11 193.079 2170.95 Q194.098 2170.77 195.116 2170.77 Q200.903 2170.77 204.283 2173.94 Q207.663 2177.11 207.663 2182.53 Q207.663 2188.1 204.191 2191.21 Q200.718 2194.29 194.399 2194.29 Q192.223 2194.29 189.954 2193.91 Q187.709 2193.54 185.302 2192.8 L185.302 2188.1 Q187.385 2189.24 189.607 2189.79 Q191.829 2190.35 194.306 2190.35 Q198.311 2190.35 200.649 2188.24 Q202.987 2186.14 202.987 2182.53 Q202.987 2178.91 200.649 2176.81 Q198.311 2174.7 194.306 2174.7 Q192.431 2174.7 190.556 2175.12 Q188.704 2175.54 186.76 2176.41 L186.76 2159.05 Z" fill="#000000" fill-rule="evenodd" fill-opacity="1" /><path clip-path="url(#clip2500)" d="M 0 0 M158.751 1745.04 Q155.14 1745.04 153.311 1748.61 Q151.506 1752.15 151.506 1759.28 Q151.506 1766.38 153.311 1769.95 Q155.14 1773.49 158.751 1773.49 Q162.385 1773.49 164.191 1769.95 Q166.019 1766.38 166.019 1759.28 Q166.019 1752.15 164.191 1748.61 Q162.385 1745.04 158.751 1745.04 M158.751 1741.34 Q164.561 1741.34 167.617 1745.94 Q170.695 1750.53 170.695 1759.28 Q170.695 1768 167.617 1772.61 Q164.561 1777.19 158.751 1777.19 Q152.941 1777.19 149.862 1772.61 Q146.807 1768 146.807 1759.28 Q146.807 1750.53 149.862 1745.94 Q152.941 1741.34 158.751 1741.34 Z" fill="#000000" fill-rule="evenodd" fill-opacity="1" /><path clip-path="url(#clip2500)" d="M 0 0 M175.765 1770.64 L180.649 1770.64 L180.649 1776.52 L175.765 1776.52 L175.765 1770.64 Z" fill="#000000" fill-rule="evenodd" fill-opacity="1" /><path clip-path="url(#clip2500)" d="M 0 0 M195.718 1745.04 Q192.107 1745.04 190.279 1748.61 Q188.473 1752.15 188.473 1759.28 Q188.473 1766.38 190.279 1769.95 Q192.107 1773.49 195.718 1773.49 Q199.353 1773.49 201.158 1769.95 Q202.987 1766.38 202.987 1759.28 Q202.987 1752.15 201.158 1748.61 Q199.353 1745.04 195.718 1745.04 M195.718 1741.34 Q201.528 1741.34 204.584 1745.94 Q207.663 1750.53 207.663 1759.28 Q207.663 1768 204.584 1772.61 Q201.528 1777.19 195.718 1777.19 Q189.908 1777.19 186.829 1772.61 Q183.774 1768 183.774 1759.28 Q183.774 1750.53 186.829 1745.94 Q189.908 1741.34 195.718 1741.34 Z" fill="#000000" fill-rule="evenodd" fill-opacity="1" /><path clip-path="url(#clip2500)" d="M 0 0 M159.746 1327.95 Q156.135 1327.95 154.307 1331.52 Q152.501 1335.06 152.501 1342.19 Q152.501 1349.29 154.307 1352.86 Q156.135 1356.4 159.746 1356.4 Q163.381 1356.4 165.186 1352.86 Q167.015 1349.29 167.015 1342.19 Q167.015 1335.06 165.186 1331.52 Q163.381 1327.95 159.746 1327.95 M159.746 1324.25 Q165.556 1324.25 168.612 1328.85 Q171.691 1333.44 171.691 1342.19 Q171.691 1350.91 168.612 1355.52 Q165.556 1360.1 159.746 1360.1 Q153.936 1360.1 150.857 1355.52 Q147.802 1350.91 147.802 1342.19 Q147.802 1333.44 150.857 1328.85 Q153.936 1324.25 159.746 1324.25 Z" fill="#000000" fill-rule="evenodd" fill-opacity="1" /><path clip-path="url(#clip2500)" d="M 0 0 M176.76 1353.55 L181.644 1353.55 L181.644 1359.43 L176.76 1359.43 L176.76 1353.55 Z" fill="#000000" fill-rule="evenodd" fill-opacity="1" /><path clip-path="url(#clip2500)" d="M 0 0 M186.76 1324.87 L205.116 1324.87 L205.116 1328.81 L191.042 1328.81 L191.042 1337.28 Q192.061 1336.93 193.079 1336.77 Q194.098 1336.58 195.116 1336.58 Q200.903 1336.58 204.283 1339.76 Q207.663 1342.93 207.663 1348.34 Q207.663 1353.92 204.191 1357.02 Q200.718 1360.1 194.399 1360.1 Q192.223 1360.1 189.954 1359.73 Q187.709 1359.36 185.302 1358.62 L185.302 1353.92 Q187.385 1355.06 189.607 1355.61 Q191.829 1356.17 194.306 1356.17 Q198.311 1356.17 200.649 1354.06 Q202.987 1351.96 202.987 1348.34 Q202.987 1344.73 200.649 1342.63 Q198.311 1340.52 194.306 1340.52 Q192.431 1340.52 190.556 1340.94 Q188.704 1341.35 186.76 1342.23 L186.76 1324.87 Z" fill="#000000" fill-rule="evenodd" fill-opacity="1" /><path clip-path="url(#clip2500)" d="M 0 0 M150.788 938.406 L158.427 938.406 L158.427 912.04 L150.117 913.707 L150.117 909.448 L158.381 907.781 L163.056 907.781 L163.056 938.406 L170.695 938.406 L170.695 942.341 L150.788 942.341 L150.788 938.406 Z" fill="#000000" fill-rule="evenodd" fill-opacity="1" /><path clip-path="url(#clip2500)" d="M 0 0 M175.765 936.462 L180.649 936.462 L180.649 942.341 L175.765 942.341 L175.765 936.462 Z" fill="#000000" fill-rule="evenodd" fill-opacity="1" /><path clip-path="url(#clip2500)" d="M 0 0 M195.718 910.86 Q192.107 910.86 190.279 914.425 Q188.473 917.966 188.473 925.096 Q188.473 932.202 190.279 935.767 Q192.107 939.309 195.718 939.309 Q199.353 939.309 201.158 935.767 Q202.987 932.202 202.987 925.096 Q202.987 917.966 201.158 914.425 Q199.353 910.86 195.718 910.86 M195.718 907.156 Q201.528 907.156 204.584 911.763 Q207.663 916.346 207.663 925.096 Q207.663 933.823 204.584 938.429 Q201.528 943.012 195.718 943.012 Q189.908 943.012 186.829 938.429 Q183.774 933.823 183.774 925.096 Q183.774 916.346 186.829 911.763 Q189.908 907.156 195.718 907.156 Z" fill="#000000" fill-rule="evenodd" fill-opacity="1" /><path clip-path="url(#clip2500)" d="M 0 0 M151.783 521.315 L159.422 521.315 L159.422 494.949 L151.112 496.616 L151.112 492.357 L159.376 490.69 L164.052 490.69 L164.052 521.315 L171.691 521.315 L171.691 525.25 L151.783 525.25 L151.783 521.315 Z" fill="#000000" fill-rule="evenodd" fill-opacity="1" /><path clip-path="url(#clip2500)" d="M 0 0 M176.76 519.371 L181.644 519.371 L181.644 525.25 L176.76 525.25 L176.76 519.371 Z" fill="#000000" fill-rule="evenodd" fill-opacity="1" /><path clip-path="url(#clip2500)" d="M 0 0 M186.76 490.69 L205.116 490.69 L205.116 494.625 L191.042 494.625 L191.042 503.097 Q192.061 502.75 193.079 502.588 Q194.098 502.403 195.116 502.403 Q200.903 502.403 204.283 505.574 Q207.663 508.746 207.663 514.162 Q207.663 519.741 204.191 522.843 Q200.718 525.921 194.399 525.921 Q192.223 525.921 189.954 525.551 Q187.709 525.181 185.302 524.44 L185.302 519.741 Q187.385 520.875 189.607 521.431 Q191.829 521.986 194.306 521.986 Q198.311 521.986 200.649 519.88 Q202.987 517.773 202.987 514.162 Q202.987 510.551 200.649 508.445 Q198.311 506.338 194.306 506.338 Q192.431 506.338 190.556 506.755 Q188.704 507.172 186.76 508.051 L186.76 490.69 Z" fill="#000000" fill-rule="evenodd" fill-opacity="1" /><path clip-path="url(#clip2500)" d="M 0 0 M1004 45.1919 L1004 72.576 L996.544 72.576 L996.544 45.4349 Q996.544 38.994 994.033 35.7938 Q991.521 32.5936 986.498 32.5936 Q980.462 32.5936 976.978 36.4419 Q973.495 40.2903 973.495 46.9338 L973.495 72.576 L966 72.576 L966 9.54393 L973.495 9.54393 L973.495 34.2544 Q976.168 30.163 979.773 28.1376 Q983.419 26.1121 988.159 26.1121 Q995.977 26.1121 999.987 30.9732 Q1004 35.7938 1004 45.1919 Z" fill="#000000" fill-rule="evenodd" fill-opacity="1" /><path clip-path="url(#clip2500)" d="M 0 0 M1029.4 32.4315 Q1023.4 32.4315 1019.92 37.1306 Q1016.43 41.7891 1016.43 49.9314 Q1016.43 58.0738 1019.88 62.7728 Q1023.36 67.4314 1029.4 67.4314 Q1035.35 67.4314 1038.84 62.7323 Q1042.32 58.0333 1042.32 49.9314 Q1042.32 41.8701 1038.84 37.1711 Q1035.35 32.4315 1029.4 32.4315 M1029.4 26.1121 Q1039.12 26.1121 1044.67 32.4315 Q1050.22 38.7509 1050.22 49.9314 Q1050.22 61.0714 1044.67 67.4314 Q1039.12 73.7508 1029.4 73.7508 Q1019.63 73.7508 1014.08 67.4314 Q1008.58 61.0714 1008.58 49.9314 Q1008.58 38.7509 1014.08 32.4315 Q1019.63 26.1121 1029.4 26.1121 Z" fill="#000000" fill-rule="evenodd" fill-opacity="1" /><path clip-path="url(#clip2500)" d="M 0 0 M1052.69 27.2059 L1060.59 27.2059 L1074.77 65.2844 L1088.95 27.2059 L1096.84 27.2059 L1079.83 72.576 L1069.7 72.576 L1052.69 27.2059 Z" fill="#000000" fill-rule="evenodd" fill-opacity="1" /><path clip-path="url(#clip2500)" d="M 0 0 M1143.47 48.0275 L1143.47 51.6733 L1109.2 51.6733 Q1109.69 59.3701 1113.82 63.421 Q1117.99 67.4314 1125.4 67.4314 Q1129.7 67.4314 1133.71 66.3781 Q1137.76 65.3249 1141.73 63.2184 L1141.73 70.267 Q1137.72 71.9684 1133.51 72.8596 Q1129.29 73.7508 1124.96 73.7508 Q1114.1 73.7508 1107.74 67.4314 Q1101.42 61.1119 1101.42 50.3365 Q1101.42 39.1965 1107.42 32.6746 Q1113.45 26.1121 1123.66 26.1121 Q1132.82 26.1121 1138.12 32.0264 Q1143.47 37.9003 1143.47 48.0275 M1136.02 45.84 Q1135.94 39.7232 1132.57 36.0774 Q1129.25 32.4315 1123.74 32.4315 Q1117.5 32.4315 1113.74 35.9558 Q1110.01 39.4801 1109.44 45.8805 L1136.02 45.84 Z" fill="#000000" fill-rule="evenodd" fill-opacity="1" /><path clip-path="url(#clip2500)" d="M 0 0 M1177.58 34.1734 Q1176.32 33.4443 1174.82 33.1202 Q1173.37 32.7556 1171.58 32.7556 Q1165.26 32.7556 1161.86 36.8875 Q1158.5 40.9789 1158.5 48.6757 L1158.5 72.576 L1151.01 72.576 L1151.01 27.2059 L1158.5 27.2059 L1158.5 34.2544 Q1160.85 30.1225 1164.62 28.1376 Q1168.38 26.1121 1173.77 26.1121 Q1174.54 26.1121 1175.47 26.2337 Q1176.4 26.3147 1177.54 26.5172 L1177.58 34.1734 Z" fill="#000000" fill-rule="evenodd" fill-opacity="1" /><path clip-path="url(#clip2500)" d="M 0 0 M1176.32 46.5287 L1198.16 46.5287 L1198.16 53.1722 L1176.32 53.1722 L1176.32 46.5287 Z" fill="#000000" fill-rule="evenodd" fill-opacity="1" /><path clip-path="url(#clip2500)" d="M 0 0 M1208.45 65.6895 L1221.81 65.6895 L1221.81 19.5497 L1207.27 22.4663 L1207.27 15.0127 L1221.73 12.096 L1229.92 12.096 L1229.92 65.6895 L1243.28 65.6895 L1243.28 72.576 L1208.45 72.576 L1208.45 65.6895 Z" fill="#000000" fill-rule="evenodd" fill-opacity="1" /><path clip-path="url(#clip2500)" d="M 0 0 M1269.66 17.4837 Q1263.34 17.4837 1260.14 23.7221 Q1256.98 29.92 1256.98 42.3968 Q1256.98 54.833 1260.14 61.0714 Q1263.34 67.2693 1269.66 67.2693 Q1276.02 67.2693 1279.18 61.0714 Q1282.38 54.833 1282.38 42.3968 Q1282.38 29.92 1279.18 23.7221 Q1276.02 17.4837 1269.66 17.4837 M1269.66 11.0023 Q1279.82 11.0023 1285.17 19.0636 Q1290.56 27.0843 1290.56 42.3968 Q1290.56 57.6687 1285.17 65.73 Q1279.82 73.7508 1269.66 73.7508 Q1259.49 73.7508 1254.1 65.73 Q1248.75 57.6687 1248.75 42.3968 Q1248.75 27.0843 1254.1 19.0636 Q1259.49 11.0023 1269.66 11.0023 Z" fill="#000000" fill-rule="evenodd" fill-opacity="1" /><path clip-path="url(#clip2500)" d="M 0 0 M1320.98 46.5287 L1342.82 46.5287 L1342.82 53.1722 L1320.98 53.1722 L1320.98 46.5287 Z" fill="#000000" fill-rule="evenodd" fill-opacity="1" /><path clip-path="url(#clip2500)" d="M 0 0 M1397.54 20.1573 L1386.44 50.2555 L1408.68 50.2555 L1397.54 20.1573 M1392.93 12.096 L1402.2 12.096 L1425.25 72.576 L1416.74 72.576 L1411.24 57.061 L1383.97 57.061 L1378.46 72.576 L1369.84 72.576 L1392.93 12.096 Z" fill="#000000" fill-rule="evenodd" fill-opacity="1" /><path clip-path="url(#clip2500)" d="M 0 0 M1462.92 49.3643 Q1462.92 41.2625 1459.56 36.8065 Q1456.24 32.3505 1450.2 32.3505 Q1444.21 32.3505 1440.85 36.8065 Q1437.53 41.2625 1437.53 49.3643 Q1437.53 57.4256 1440.85 61.8816 Q1444.21 66.3376 1450.2 66.3376 Q1456.24 66.3376 1459.56 61.8816 Q1462.92 57.4256 1462.92 49.3643 M1470.38 66.9452 Q1470.38 78.5308 1465.23 84.1616 Q1460.09 89.8329 1449.48 89.8329 Q1445.55 89.8329 1442.06 89.2252 Q1438.58 88.6581 1435.3 87.4428 L1435.3 80.1917 Q1438.58 81.9741 1441.78 82.8248 Q1444.98 83.6755 1448.3 83.6755 Q1455.63 83.6755 1459.28 79.8271 Q1462.92 76.0193 1462.92 68.282 L1462.92 64.5957 Q1460.62 68.6061 1457.01 70.5911 Q1453.41 72.576 1448.38 72.576 Q1440.04 72.576 1434.93 66.2161 Q1429.83 59.8562 1429.83 49.3643 Q1429.83 38.832 1434.93 32.472 Q1440.04 26.1121 1448.38 26.1121 Q1453.41 26.1121 1457.01 28.0971 Q1460.62 30.082 1462.92 34.0924 L1462.92 27.2059 L1470.38 27.2059 L1470.38 66.9452 Z" fill="#000000" fill-rule="evenodd" fill-opacity="1" /><path clip-path="url(#clip2500)" d="M 0 0 M1517 48.0275 L1517 51.6733 L1482.73 51.6733 Q1483.22 59.3701 1487.35 63.421 Q1491.52 67.4314 1498.94 67.4314 Q1503.23 67.4314 1507.24 66.3781 Q1511.29 65.3249 1515.26 63.2184 L1515.26 70.267 Q1511.25 71.9684 1507.04 72.8596 Q1502.83 73.7508 1498.49 73.7508 Q1487.64 73.7508 1481.28 67.4314 Q1474.96 61.1119 1474.96 50.3365 Q1474.96 39.1965 1480.95 32.6746 Q1486.99 26.1121 1497.2 26.1121 Q1506.35 26.1121 1511.66 32.0264 Q1517 37.9003 1517 48.0275 M1509.55 45.84 Q1509.47 39.7232 1506.11 36.0774 Q1502.79 32.4315 1497.28 32.4315 Q1491.04 32.4315 1487.27 35.9558 Q1483.54 39.4801 1482.98 45.8805 L1509.55 45.84 Z" fill="#000000" fill-rule="evenodd" fill-opacity="1" /><path clip-path="url(#clip2500)" d="M 0 0 M1562.54 45.1919 L1562.54 72.576 L1555.08 72.576 L1555.08 45.4349 Q1555.08 38.994 1552.57 35.7938 Q1550.06 32.5936 1545.04 32.5936 Q1539 32.5936 1535.52 36.4419 Q1532.03 40.2903 1532.03 46.9338 L1532.03 72.576 L1524.54 72.576 L1524.54 27.2059 L1532.03 27.2059 L1532.03 34.2544 Q1534.71 30.163 1538.31 28.1376 Q1541.96 26.1121 1546.7 26.1121 Q1554.52 26.1121 1558.53 30.9732 Q1562.54 35.7938 1562.54 45.1919 Z" fill="#000000" fill-rule="evenodd" fill-opacity="1" /><path clip-path="url(#clip2500)" d="M 0 0 M1577.73 14.324 L1577.73 27.2059 L1593.08 27.2059 L1593.08 32.9987 L1577.73 32.9987 L1577.73 57.6282 Q1577.73 63.1779 1579.23 64.7578 Q1580.77 66.3376 1585.42 66.3376 L1593.08 66.3376 L1593.08 72.576 L1585.42 72.576 Q1576.8 72.576 1573.51 69.3758 Q1570.23 66.1351 1570.23 57.6282 L1570.23 32.9987 L1564.76 32.9987 L1564.76 27.2059 L1570.23 27.2059 L1570.23 14.324 L1577.73 14.324 Z" fill="#000000" fill-rule="evenodd" fill-opacity="1" /><path clip-path="url(#clip2500)" d="M 0 0 M1643.19 72.576 L1620.1 12.096 L1628.65 12.096 L1647.81 63.0159 L1667.01 12.096 L1675.52 12.096 L1652.47 72.576 L1643.19 72.576 Z" fill="#000000" fill-rule="evenodd" fill-opacity="1" /><path clip-path="url(#clip2500)" d="M 0 0 M1715.7 48.0275 L1715.7 51.6733 L1681.43 51.6733 Q1681.92 59.3701 1686.05 63.421 Q1690.22 67.4314 1697.63 67.4314 Q1701.93 67.4314 1705.94 66.3781 Q1709.99 65.3249 1713.96 63.2184 L1713.96 70.267 Q1709.95 71.9684 1705.74 72.8596 Q1701.52 73.7508 1697.19 73.7508 Q1686.33 73.7508 1679.97 67.4314 Q1673.65 61.1119 1673.65 50.3365 Q1673.65 39.1965 1679.65 32.6746 Q1685.68 26.1121 1695.89 26.1121 Q1705.05 26.1121 1710.35 32.0264 Q1715.7 37.9003 1715.7 48.0275 M1708.25 45.84 Q1708.17 39.7232 1704.8 36.0774 Q1701.48 32.4315 1695.97 32.4315 Q1689.73 32.4315 1685.97 35.9558 Q1682.24 39.4801 1681.67 45.8805 L1708.25 45.84 Z" fill="#000000" fill-rule="evenodd" fill-opacity="1" /><path clip-path="url(#clip2500)" d="M 0 0 M1723.52 9.54393 L1730.97 9.54393 L1730.97 72.576 L1723.52 72.576 L1723.52 9.54393 Z" fill="#000000" fill-rule="evenodd" fill-opacity="1" /><path clip-path="url(#clip2500)" d="M 0 0 M1756.37 32.4315 Q1750.38 32.4315 1746.89 37.1306 Q1743.41 41.7891 1743.41 49.9314 Q1743.41 58.0738 1746.85 62.7728 Q1750.34 67.4314 1756.37 67.4314 Q1762.33 67.4314 1765.81 62.7323 Q1769.29 58.0333 1769.29 49.9314 Q1769.29 41.8701 1765.81 37.1711 Q1762.33 32.4315 1756.37 32.4315 M1756.37 26.1121 Q1766.09 26.1121 1771.64 32.4315 Q1777.19 38.7509 1777.19 49.9314 Q1777.19 61.0714 1771.64 67.4314 Q1766.09 73.7508 1756.37 73.7508 Q1746.61 73.7508 1741.06 67.4314 Q1735.55 61.0714 1735.55 49.9314 Q1735.55 38.7509 1741.06 32.4315 Q1746.61 26.1121 1756.37 26.1121 Z" fill="#000000" fill-rule="evenodd" fill-opacity="1" /><path clip-path="url(#clip2500)" d="M 0 0 M1817.66 28.9478 L1817.66 35.9153 Q1814.5 34.1734 1811.3 33.3227 Q1808.14 32.4315 1804.9 32.4315 Q1797.65 32.4315 1793.64 37.0496 Q1789.63 41.6271 1789.63 49.9314 Q1789.63 58.2358 1793.64 62.8538 Q1797.65 67.4314 1804.9 67.4314 Q1808.14 67.4314 1811.3 66.5807 Q1814.5 65.6895 1817.66 63.9476 L1817.66 70.8341 Q1814.54 72.2924 1811.18 73.0216 Q1807.86 73.7508 1804.09 73.7508 Q1793.84 73.7508 1787.81 67.3098 Q1781.77 60.8689 1781.77 49.9314 Q1781.77 38.832 1787.85 32.472 Q1793.96 26.1121 1804.58 26.1121 Q1808.02 26.1121 1811.3 26.8413 Q1814.58 27.5299 1817.66 28.9478 Z" fill="#000000" fill-rule="evenodd" fill-opacity="1" /><path clip-path="url(#clip2500)" d="M 0 0 M1825.48 27.2059 L1832.93 27.2059 L1832.93 72.576 L1825.48 72.576 L1825.48 27.2059 M1825.48 9.54393 L1832.93 9.54393 L1832.93 18.9825 L1825.48 18.9825 L1825.48 9.54393 Z" fill="#000000" fill-rule="evenodd" fill-opacity="1" /><path clip-path="url(#clip2500)" d="M 0 0 M1848.13 14.324 L1848.13 27.2059 L1863.48 27.2059 L1863.48 32.9987 L1848.13 32.9987 L1848.13 57.6282 Q1848.13 63.1779 1849.62 64.7578 Q1851.16 66.3376 1855.82 66.3376 L1863.48 66.3376 L1863.48 72.576 L1855.82 72.576 Q1847.19 72.576 1843.91 69.3758 Q1840.63 66.1351 1840.63 57.6282 L1840.63 32.9987 L1835.16 32.9987 L1835.16 27.2059 L1840.63 27.2059 L1840.63 14.324 L1848.13 14.324 Z" fill="#000000" fill-rule="evenodd" fill-opacity="1" /><path clip-path="url(#clip2500)" d="M 0 0 M1890.17 76.7889 Q1887.01 84.8907 1884.02 87.3618 Q1881.02 89.8329 1876 89.8329 L1870.04 89.8329 L1870.04 83.5945 L1874.42 83.5945 Q1877.49 83.5945 1879.2 82.1361 Q1880.9 80.6778 1882.96 75.2496 L1884.3 71.8468 L1865.95 27.2059 L1873.85 27.2059 L1888.03 62.6918 L1902.2 27.2059 L1910.1 27.2059 L1890.17 76.7889 Z" fill="#000000" fill-rule="evenodd" fill-opacity="1" /><path clip-path="url(#clip2500)" d="M 0 0 M1319.89 2298.26 L1360.09 2298.26 L1360.09 2303.67 L1343.22 2303.67 L1343.22 2345.78 L1336.76 2345.78 L1336.76 2303.67 L1319.89 2303.67 L1319.89 2298.26 Z" fill="#000000" fill-rule="evenodd" fill-opacity="1" /><path clip-path="url(#clip2500)" d="M 0 0 M1364.23 2310.14 L1370.08 2310.14 L1370.08 2345.78 L1364.23 2345.78 L1364.23 2310.14 M1364.23 2296.26 L1370.08 2296.26 L1370.08 2303.67 L1364.23 2303.67 L1364.23 2296.26 Z" fill="#000000" fill-rule="evenodd" fill-opacity="1" /><path clip-path="url(#clip2500)" d="M 0 0 M1403.98 2316.98 Q1406.18 2313.03 1409.23 2311.15 Q1412.29 2309.28 1416.42 2309.28 Q1421.99 2309.28 1425.02 2313.19 Q1428.04 2317.07 1428.04 2324.27 L1428.04 2345.78 L1422.15 2345.78 L1422.15 2324.46 Q1422.15 2319.33 1420.34 2316.85 Q1418.53 2314.37 1414.8 2314.37 Q1410.25 2314.37 1407.61 2317.39 Q1404.97 2320.42 1404.97 2325.64 L1404.97 2345.78 L1399.08 2345.78 L1399.08 2324.46 Q1399.08 2319.3 1397.26 2316.85 Q1395.45 2314.37 1391.66 2314.37 Q1387.17 2314.37 1384.53 2317.42 Q1381.89 2320.45 1381.89 2325.64 L1381.89 2345.78 L1376 2345.78 L1376 2310.14 L1381.89 2310.14 L1381.89 2315.67 Q1383.9 2312.4 1386.7 2310.84 Q1389.5 2309.28 1393.35 2309.28 Q1397.23 2309.28 1399.94 2311.25 Q1402.67 2313.22 1403.98 2316.98 Z" fill="#000000" fill-rule="evenodd" fill-opacity="1" /><path clip-path="url(#clip2500)" d="M 0 0 M1464.68 2326.5 L1464.68 2329.36 L1437.75 2329.36 Q1438.13 2335.41 1441.38 2338.59 Q1444.66 2341.74 1450.48 2341.74 Q1453.86 2341.74 1457.01 2340.91 Q1460.19 2340.09 1463.31 2338.43 L1463.31 2343.97 Q1460.16 2345.31 1456.85 2346.01 Q1453.54 2346.71 1450.13 2346.71 Q1441.6 2346.71 1436.6 2341.74 Q1431.64 2336.78 1431.64 2328.31 Q1431.64 2319.56 1436.35 2314.43 Q1441.09 2309.28 1449.11 2309.28 Q1456.31 2309.28 1460.48 2313.92 Q1464.68 2318.54 1464.68 2326.5 M1458.82 2324.78 Q1458.76 2319.97 1456.11 2317.11 Q1453.51 2314.24 1449.18 2314.24 Q1444.27 2314.24 1441.31 2317.01 Q1438.39 2319.78 1437.94 2324.81 L1458.82 2324.78 Z" fill="#000000" fill-rule="evenodd" fill-opacity="1" /><path clip-path="url(#clip2500)" d="M 0 0 M1505.61 2296.32 Q1501.34 2303.64 1499.27 2310.8 Q1497.21 2317.97 1497.21 2325.32 Q1497.21 2332.67 1499.27 2339.9 Q1501.38 2347.09 1505.61 2354.38 L1500.52 2354.38 Q1495.74 2346.9 1493.35 2339.67 Q1491 2332.45 1491 2325.32 Q1491 2318.22 1493.35 2311.03 Q1495.71 2303.83 1500.52 2296.32 L1505.61 2296.32 Z" fill="#000000" fill-rule="evenodd" fill-opacity="1" /><path clip-path="url(#clip2500)" d="M 0 0 M1534.48 2311.19 L1534.48 2316.72 Q1531.99 2315.45 1529.32 2314.81 Q1526.65 2314.18 1523.78 2314.18 Q1519.42 2314.18 1517.23 2315.51 Q1515.06 2316.85 1515.06 2319.53 Q1515.06 2321.56 1516.62 2322.74 Q1518.18 2323.89 1522.89 2324.94 L1524.9 2325.38 Q1531.13 2326.72 1533.74 2329.17 Q1536.39 2331.59 1536.39 2335.95 Q1536.39 2340.91 1532.44 2343.81 Q1528.52 2346.71 1521.65 2346.71 Q1518.79 2346.71 1515.67 2346.13 Q1512.58 2345.59 1509.14 2344.48 L1509.14 2338.43 Q1512.39 2340.12 1515.54 2340.98 Q1518.69 2341.81 1521.78 2341.81 Q1525.91 2341.81 1528.14 2340.4 Q1530.37 2338.97 1530.37 2336.39 Q1530.37 2334.01 1528.75 2332.73 Q1527.16 2331.46 1521.71 2330.28 L1519.68 2329.81 Q1514.23 2328.66 1511.81 2326.3 Q1509.4 2323.92 1509.4 2319.78 Q1509.4 2314.75 1512.96 2312.01 Q1516.53 2309.28 1523.08 2309.28 Q1526.33 2309.28 1529.19 2309.75 Q1532.06 2310.23 1534.48 2311.19 Z" fill="#000000" fill-rule="evenodd" fill-opacity="1" /><path clip-path="url(#clip2500)" d="M 0 0 M1541.61 2296.32 L1546.7 2296.32 Q1551.47 2303.83 1553.83 2311.03 Q1556.22 2318.22 1556.22 2325.32 Q1556.22 2332.45 1553.83 2339.67 Q1551.47 2346.9 1546.7 2354.38 L1541.61 2354.38 Q1545.84 2347.09 1547.91 2339.9 Q1550.01 2332.67 1550.01 2325.32 Q1550.01 2317.97 1547.91 2310.8 Q1545.84 2303.64 1541.61 2296.32 Z" fill="#000000" fill-rule="evenodd" fill-opacity="1" /><path clip-path="url(#clip2500)" d="M 0 0 M38.4242 1265.66 L38.4242 1228.32 L43.3258 1228.32 L80.5333 1258.37 L80.5333 1227.59 L85.9442 1227.59 L85.9442 1266.39 L81.0426 1266.39 L43.835 1236.34 L43.835 1265.66 L38.4242 1265.66 Z" fill="#000000" fill-rule="evenodd" fill-opacity="1" /><path clip-path="url(#clip2500)" d="M 0 0 M36.419 1246.88 L36.419 1241.02 L43.835 1241.02 L43.835 1246.88 L36.419 1246.88 M49.4368 1243.89 L49.4368 1243.89 Z" fill="#000000" fill-rule="evenodd" fill-opacity="1" /><path clip-path="url(#clip2500)" d="M 0 0 M36.4826 1200.09 Q43.8032 1204.36 50.9646 1206.42 Q58.126 1208.49 65.4784 1208.49 Q72.8308 1208.49 80.0559 1206.42 Q87.2491 1204.32 94.5379 1200.09 L94.5379 1205.18 Q87.0582 1209.96 79.8331 1212.34 Q72.608 1214.7 65.4784 1214.7 Q58.3806 1214.7 51.1874 1212.34 Q43.9942 1209.99 36.4826 1205.18 L36.4826 1200.09 Z" fill="#000000" fill-rule="evenodd" fill-opacity="1" /><path clip-path="url(#clip2500)" d="M 0 0 M57.1393 1166.19 Q53.1926 1164 51.3147 1160.94 Q49.4368 1157.89 49.4368 1153.75 Q49.4368 1148.18 53.3517 1145.15 Q57.2348 1142.13 64.4281 1142.13 L85.9442 1142.13 L85.9442 1148.02 L64.619 1148.02 Q59.4946 1148.02 57.012 1149.83 Q54.5294 1151.65 54.5294 1155.37 Q54.5294 1159.92 57.5531 1162.57 Q60.5768 1165.21 65.7967 1165.21 L85.9442 1165.21 L85.9442 1171.1 L64.619 1171.1 Q59.4628 1171.1 57.012 1172.91 Q54.5294 1174.72 54.5294 1178.51 Q54.5294 1183 57.5849 1185.64 Q60.6086 1188.28 65.7967 1188.28 L85.9442 1188.28 L85.9442 1194.17 L50.2962 1194.17 L50.2962 1188.28 L55.8344 1188.28 Q52.556 1186.28 50.9964 1183.48 Q49.4368 1180.68 49.4368 1176.82 Q49.4368 1172.94 51.4102 1170.24 Q53.3836 1167.5 57.1393 1166.19 Z" fill="#000000" fill-rule="evenodd" fill-opacity="1" /><path clip-path="url(#clip2500)" d="M 0 0 M38.4242 1125.58 L38.4242 1120.17 L91.9916 1136.72 L91.9916 1142.13 L38.4242 1125.58 Z" fill="#000000" fill-rule="evenodd" fill-opacity="1" /><path clip-path="url(#clip2500)" d="M 0 0 M51.3465 1091.3 L56.8847 1091.3 Q55.6116 1093.78 54.975 1096.46 Q54.3384 1099.13 54.3384 1102 Q54.3384 1106.36 55.6752 1108.55 Q57.012 1110.72 59.6856 1110.72 Q61.7226 1110.72 62.9003 1109.16 Q64.0461 1107.6 65.0965 1102.89 L65.5421 1100.88 Q66.8789 1094.64 69.3297 1092.03 Q71.7486 1089.39 76.1091 1089.39 Q81.0744 1089.39 83.9708 1093.34 Q86.8672 1097.25 86.8672 1104.13 Q86.8672 1106.99 86.2943 1110.11 Q85.7532 1113.2 84.6392 1116.64 L78.5918 1116.64 Q80.2787 1113.39 81.138 1110.24 Q81.9656 1107.09 81.9656 1104 Q81.9656 1099.86 80.5651 1097.63 Q79.1329 1095.41 76.5547 1095.41 Q74.1676 1095.41 72.8945 1097.03 Q71.6213 1098.62 70.4437 1104.06 L69.9662 1106.1 Q68.8204 1111.54 66.4651 1113.96 Q64.078 1116.38 59.9402 1116.38 Q54.9113 1116.38 52.1741 1112.82 Q49.4368 1109.25 49.4368 1102.7 Q49.4368 1099.45 49.9143 1096.58 Q50.3917 1093.72 51.3465 1091.3 Z" fill="#000000" fill-rule="evenodd" fill-opacity="1" /><path clip-path="url(#clip2500)" d="M 0 0 M36.4826 1084.17 L36.4826 1079.08 Q43.9942 1074.3 51.1874 1071.95 Q58.3806 1069.56 65.4784 1069.56 Q72.608 1069.56 79.8331 1071.95 Q87.0582 1074.3 94.5379 1079.08 L94.5379 1084.17 Q87.2491 1079.94 80.0559 1077.87 Q72.8308 1075.77 65.4784 1075.77 Q58.126 1075.77 50.9646 1077.87 Q43.8032 1079.94 36.4826 1084.17 Z" fill="#000000" fill-rule="evenodd" fill-opacity="1" /><polyline clip-path="url(#clip2502)" style="stroke:#009af9; stroke-width:16; stroke-opacity:1; fill:none" points="
  307.496,1759.24 330.107,1296.35 352.718,1348.93 375.329,1582.98 397.941,1773.84 420.552,1909.21 443.163,2000.18 465.774,2053.98 488.385,2082.64 510.996,2085.09 
  533.607,2075.47 556.218,2055.07 578.83,2032.25 601.441,2004.67 624.052,1978.13 646.663,1948.98 669.274,1923.14 691.885,1894.85 714.496,1871.81 737.107,1845.04 
  759.719,1825.97 782.33,1800.49 804.941,1786.3 827.552,1761.28 850.163,1752.96 872.774,1726.92 895.385,1725.76 917.996,1696.39 940.608,1704.12 963.219,1668.18 
  985.83,1687.16 1008.44,1642.84 1031.05,1690.96 1053.66,1778.58 1076.27,1736.87 1098.89,1681.75 1121.5,1713.24 1144.11,1681.44 1166.72,1704.39 1189.33,1683.98 
  1211.94,1699.87 1234.55,1687.38 1257.16,1698.51 1279.77,1691.39 1302.39,1699.38 1325,1695.79 1347.61,1701.73 1370.22,1700.41 1392.83,1704.96 1415.44,1705.05 
  1438.05,1708.64 1460.66,1709.56 1483.27,1712.45 1505.89,1713.83 1528.5,1716.19 1551.11,1717.77 1573.72,1719.71 1596.33,1721.36 1618.94,1722.97 1641.55,1724.61 
  1664.16,1725.95 1686.77,1727.55 1709.39,1728.67 1732,1730.23 1754.61,1731.16 1777.22,1732.7 1799.83,1733.45 1822.44,1735 1845.05,1735.57 1867.66,1737.14 
  1890.27,1737.52 1912.89,1739.14 1935.5,1739.27 1958.11,1740.98 1980.72,1740.82 2003.33,1742.67 2025.94,1742.14 2048.55,1744.2 2071.16,1743.22 2093.77,1745.57 
  2116.39,1744.03 2139,1746.81 2161.61,1744.59 2184.22,1747.97 2206.83,1744.9 2229.44,1749.1 2252.05,1744.96 2274.66,1750.26 2297.27,1744.79 2319.89,1751.54 
  2342.5,1744.36 2365.11,1752.99 2387.72,1743.66 2410.33,1754.67 2432.94,1742.65 2455.55,1756.61 2478.16,1741.34 2500.78,1758.78 2523.39,1740.15 2546,1763.51 
  2568.61,1759.75 
  "/>
<polyline clip-path="url(#clip2502)" style="stroke:#e26f46; stroke-width:16; stroke-opacity:1; fill:none" points="
  307.496,1759.24 330.107,791.378 352.718,358.015 375.329,282.474 397.941,309.914 420.552,357.61 443.163,419.407 465.774,482.364 488.385,547.201 510.996,618.862 
  533.607,691.817 556.218,763.121 578.83,830.465 601.441,894.822 624.052,952.048 646.663,1007.07 669.274,1053.93 691.885,1101.75 714.496,1140.48 737.107,1183.65 
  759.719,1215.76 782.33,1256.04 804.941,1281.98 827.552,1320.49 850.163,1339.82 872.774,1377.32 895.385,1388.96 917.996,1426.09 940.608,1428.37 963.219,1465.77 
  985.83,1456.87 1008.44,1496.95 1031.05,1492.51 1053.66,1702.23 1076.27,1579.7 1098.89,1608.47 1121.5,1589.46 1144.11,1619.36 1166.72,1606.93 1189.33,1629.97 
  1211.94,1622 1234.55,1639.79 1257.16,1635.15 1279.77,1649.11 1302.39,1646.85 1325,1658.01 1347.61,1657.39 1370.22,1666.47 1392.83,1666.93 1415.44,1674.43 
  1438.05,1675.56 1460.66,1681.83 1483.27,1683.34 1505.89,1688.65 1528.5,1690.35 1551.11,1694.88 1573.72,1696.64 1596.33,1700.57 1618.94,1702.3 1641.55,1705.75 
  1664.16,1707.42 1686.77,1710.51 1709.39,1712.09 1732,1714.91 1754.61,1716.38 1777.22,1719.01 1799.83,1720.34 1822.44,1722.84 1845.05,1724 1867.66,1726.42 
  1890.27,1727.37 1912.89,1729.75 1935.5,1730.43 1958.11,1732.82 1980.72,1733.16 2003.33,1735.6 2025.94,1735.53 2048.55,1738.11 2071.16,1737.53 2093.77,1740.34 
  2116.39,1739.14 2139,1742.31 2161.61,1740.37 2184.22,1744.09 2206.83,1741.24 2229.44,1745.72 2252.05,1741.76 2274.66,1747.3 2297.27,1741.95 2319.89,1748.91 
  2342.5,1741.81 2365.11,1750.63 2387.72,1741.35 2410.33,1752.54 2432.94,1740.54 2455.55,1754.68 2478.16,1739.42 2500.78,1757.06 2523.39,1738.43 2546,1762.08 
  2568.61,1759.74 
  "/>
<polyline clip-path="url(#clip2502)" style="stroke:#3da44d; stroke-width:16; stroke-opacity:1; fill:none" points="
  307.496,1759.24 330.107,1181.53 352.718,1072.51 375.329,997.907 397.941,981.7 420.552,952.338 443.163,969.535 465.774,1001.65 488.385,1048.24 510.996,1093.31 
  533.607,1140.65 556.218,1188.87 578.83,1239.04 601.441,1288.93 624.052,1337.99 646.663,1384.22 669.274,1428.2 691.885,1466.53 714.496,1502.68 737.107,1530.12 
  759.719,1557.89 782.33,1573.66 804.941,1594.85 827.552,1599.48 850.163,1617.25 872.774,1611.24 895.385,1629.32 917.996,1612.13 940.608,1634.41 963.219,1603.92 
  985.83,1634.49 1008.44,1589.43 1031.05,1649.2 1053.66,1763.82 1076.27,1712.14 1098.89,1652.41 1121.5,1691.02 1144.11,1656.63 1166.72,1684.03 1189.33,1661.95 
  1211.94,1680.64 1234.55,1667.2 1257.16,1680.2 1279.77,1672.69 1302.39,1682.09 1325,1678.57 1347.61,1685.7 1370.22,1684.79 1392.83,1690.45 1415.44,1691.21 
  1438.05,1695.87 1460.66,1697.61 1483.27,1701.52 1505.89,1703.78 1528.5,1707.09 1551.11,1709.55 1573.72,1712.35 1596.33,1714.8 1618.94,1717.16 1641.55,1719.5 
  1664.16,1721.45 1686.77,1723.63 1709.39,1725.22 1732,1727.24 1754.61,1728.51 1777.22,1730.38 1799.83,1731.37 1822.44,1733.13 1845.05,1733.84 1867.66,1735.54 
  1890.27,1735.97 1912.89,1737.66 1935.5,1737.79 1958.11,1739.52 1980.72,1739.32 2003.33,1741.15 2025.94,1740.56 2048.55,1742.59 2071.16,1741.54 2093.77,1743.87 
  2116.39,1742.26 2139,1745.03 2161.61,1742.75 2184.22,1746.13 2206.83,1743.02 2229.44,1747.24 2252.05,1743.08 2274.66,1748.43 2297.27,1742.95 2319.89,1749.77 
  2342.5,1742.59 2365.11,1751.3 2387.72,1741.97 2410.33,1753.07 2432.94,1741.05 2455.55,1755.09 2478.16,1739.81 2500.78,1757.32 2523.39,1738.66 2546,1762.14 
  2568.61,1759.74 
  "/>
<polyline clip-path="url(#clip2502)" style="stroke:#c271d2; stroke-width:16; stroke-opacity:1; fill:none" points="
  307.496,1759.24 330.107,905.926 352.718,618.626 375.329,433.57 397.941,366.746 420.552,302.15 443.163,255.423 465.774,215.419 488.385,197.038 510.996,189.727 
  533.607,200.591 556.218,224.01 578.83,259.523 601.441,304.426 624.052,357.722 646.663,418.441 669.274,480.555 691.885,549.649 714.496,611.459 737.107,685.81 
  759.719,741.657 782.33,820.967 804.941,866.15 827.552,951.734 850.163,981.222 872.774,1075.75 895.385,1083.4 917.996,1191.01 940.608,1169.03 963.219,1295.36 
  985.83,1234.88 1008.44,1387.62 1031.05,1298.23 1053.66,1616.76 1076.27,1409.9 1098.89,1556.59 1121.5,1462.32 1144.11,1577.32 1166.72,1514.49 1189.33,1597.14 
  1211.94,1556.67 1234.55,1615.89 1257.16,1590.65 1279.77,1633.41 1302.39,1618.21 1325,1649.39 1347.61,1640.68 1370.22,1663.65 1392.83,1659.03 1415.44,1676.11 
  1438.05,1673.99 1460.66,1686.79 1483.27,1686.13 1505.89,1695.79 1528.5,1695.94 1551.11,1703.26 1573.72,1703.81 1596.33,1709.41 1618.94,1710.12 1641.55,1714.45 
  1664.16,1715.18 1686.77,1718.6 1709.39,1719.3 1732,1722.08 1754.61,1722.71 1777.22,1725.07 1799.83,1725.63 1822.44,1727.73 1845.05,1728.2 1867.66,1730.18 
  1890.27,1730.52 1912.89,1732.47 1935.5,1732.65 1958.11,1734.66 1980.72,1734.61 2003.33,1736.76 2025.94,1736.41 2048.55,1738.78 2071.16,1738.03 2093.77,1740.72 
  2116.39,1739.46 2139,1742.59 2161.61,1740.68 2184.22,1744.41 2206.83,1741.66 2229.44,1746.21 2252.05,1742.39 2274.66,1748.03 2297.27,1742.84 2319.89,1749.9 
  2342.5,1742.97 2365.11,1751.86 2387.72,1742.73 2410.33,1753.97 2432.94,1742.09 2455.55,1756.22 2478.16,1741.05 2500.78,1758.65 2523.39,1740.07 2546,1763.58 
  2568.61,1759.74 
  "/>
<polyline clip-path="url(#clip2502)" style="stroke:#ac8d18; stroke-width:16; stroke-opacity:1; fill:none" points="
  307.496,1759.24 330.107,1526.55 352.718,1476.64 375.329,1491.22 397.941,1567.26 420.552,1650.26 443.163,1736.8 465.774,1808.17 488.385,1866.23 510.996,1902.16 
  533.607,1927.87 556.218,1939.12 578.83,1945.23 601.441,1941.19 624.052,1934.65 646.663,1921.35 669.274,1909.19 691.885,1892.16 714.496,1879.38 737.107,1861.02 
  759.719,1850.21 782.33,1830.95 804.941,1823.67 827.552,1802.79 850.163,1800.42 872.774,1776.32 895.385,1780.51 917.996,1750.66 940.608,1763.66 963.219,1724.54 
  985.83,1749.38 1008.44,1698.84 1031.05,1751.82 1053.66,1788.45 1076.27,1778.8 1098.89,1716.94 1121.5,1753.68 1144.11,1715.78 1166.72,1741.78 1189.33,1716.64 
  1211.94,1734.09 1234.55,1717.86 1257.16,1729.58 1279.77,1719.41 1302.39,1727.41 1325,1721.31 1347.61,1726.9 1370.22,1723.5 1392.83,1727.53 1415.44,1725.87 
  1438.05,1728.87 1460.66,1728.32 1483.27,1730.6 1505.89,1730.73 1528.5,1732.51 1551.11,1733.04 1573.72,1734.43 1596.33,1735.19 1618.94,1736.3 1641.55,1737.17 
  1664.16,1738.06 1686.77,1739 1709.39,1739.72 1732,1740.71 1754.61,1741.28 1777.22,1742.32 1799.83,1742.75 1822.44,1743.86 1845.05,1744.14 1867.66,1745.32 
  1890.27,1745.43 1912.89,1746.71 1935.5,1746.61 1958.11,1748 1980.72,1747.62 2003.33,1749.18 2025.94,1748.46 2048.55,1750.24 2071.16,1749.08 2093.77,1751.18 
  2116.39,1749.48 2139,1752.01 2161.61,1749.64 2184.22,1752.79 2206.83,1749.59 2229.44,1753.56 2252.05,1749.31 2274.66,1754.4 2297.27,1748.82 2319.89,1755.36 
  2342.5,1748.11 2365.11,1756.52 2387.72,1747.14 2410.33,1757.94 2432.94,1745.89 2455.55,1759.64 2478.16,1744.35 2500.78,1761.59 2523.39,1742.97 2546,1766.01 
  2568.61,1759.75 
  "/>
<polyline clip-path="url(#clip2502)" style="stroke:#00a9ad; stroke-width:16; stroke-opacity:1; fill:none" points="
  307.496,1759.24 330.107,1829.96 352.718,1811 375.329,1798.8 397.941,1817.71 420.552,1836.72 443.163,1859.93 465.774,1871.31 488.385,1872.15 510.996,1860.18 
  533.607,1842.98 556.218,1820.93 578.83,1797.97 601.441,1774 624.052,1751.02 646.663,1730.44 669.274,1712.9 691.885,1699.3 714.496,1688.76 737.107,1681.93 
  759.719,1677.53 782.33,1675.84 804.941,1675.91 827.552,1677.27 850.163,1680.16 872.774,1682.46 895.385,1686.96 917.996,1688.27 940.608,1693.79 963.219,1692.31 
  985.83,1699.17 1008.44,1695.02 1031.05,1715.18 1053.66,1757.8 1076.27,1739.84 1098.89,1725.81 1121.5,1732.47 1144.11,1728.38 1166.72,1733.17 1189.33,1731.64 
  1211.94,1734.61 1234.55,1734.52 1257.16,1736.4 1279.77,1737.08 1302.39,1738.32 1325,1739.36 1347.61,1740.22 1370.22,1741.37 1392.83,1741.97 1415.44,1743.08 
  1438.05,1743.49 1460.66,1744.5 1483.27,1744.77 1505.89,1745.63 1528.5,1745.78 1551.11,1746.51 1573.72,1746.57 1596.33,1747.19 1618.94,1747.18 1641.55,1747.72 
  1664.16,1747.67 1686.77,1748.19 1709.39,1748.11 1732,1748.66 1754.61,1748.57 1777.22,1749.18 1799.83,1749.07 1822.44,1749.77 1845.05,1749.62 1867.66,1750.45 
  1890.27,1750.23 1912.89,1751.21 1935.5,1750.84 1958.11,1752 1980.72,1751.43 2003.33,1752.8 2025.94,1751.95 2048.55,1753.58 2071.16,1752.34 2093.77,1754.33 
  2116.39,1752.59 2139,1755.04 2161.61,1752.66 2184.22,1755.73 2206.83,1752.54 2229.44,1756.44 2252.05,1752.22 2274.66,1757.23 2297.27,1751.7 2319.89,1758.15 
  2342.5,1750.94 2365.11,1759.26 2387.72,1749.92 2410.33,1760.61 2432.94,1748.6 2455.55,1762.22 2478.16,1746.99 2500.78,1764.09 2523.39,1745.53 2546,1768.32 
  2568.61,1759.75 
  "/>
<polyline clip-path="url(#clip2502)" style="stroke:#ed5d92; stroke-width:16; stroke-opacity:1; fill:none" points="
  307.496,1759.24 330.107,1981.79 352.718,1979.43 375.329,1934.93 397.941,1884.72 420.552,1833.78 443.163,1797.65 465.774,1767.42 488.385,1744.23 510.996,1725.77 
  533.607,1714.13 556.218,1707.35 578.83,1704.56 601.441,1703.92 624.052,1704.37 646.663,1705.88 669.274,1707.64 691.885,1709.92 714.496,1711.75 737.107,1713.98 
  759.719,1715.53 782.33,1717.6 804.941,1718.97 827.552,1720.89 850.163,1722.21 872.774,1723.79 895.385,1725.17 917.996,1725.97 940.608,1727.61 963.219,1726.99 
  985.83,1729.53 1008.44,1728.38 1031.05,1742.26 1053.66,1758.99 1076.27,1754.06 1098.89,1744.07 1121.5,1746.09 1144.11,1743.92 1166.72,1745.47 1189.33,1744.99 
  1211.94,1745.73 1234.55,1746.1 1257.16,1746.43 1279.77,1747.21 1302.39,1747.33 1325,1748.26 1347.61,1748.27 1370.22,1749.19 1392.83,1749.14 1415.44,1749.97 
  1438.05,1749.88 1460.66,1750.58 1483.27,1750.46 1505.89,1751.03 1528.5,1750.87 1551.11,1751.33 1573.72,1751.14 1596.33,1751.53 1618.94,1751.33 1641.55,1751.68 
  1664.16,1751.48 1686.77,1751.84 1709.39,1751.65 1732,1752.06 1754.61,1751.88 1777.22,1752.38 1799.83,1752.2 1822.44,1752.81 1845.05,1752.61 1867.66,1753.36 
  1890.27,1753.09 1912.89,1753.99 1935.5,1753.6 1958.11,1754.68 1980.72,1754.08 2003.33,1755.37 2025.94,1754.49 2048.55,1756.05 2071.16,1754.78 2093.77,1756.69 
  2116.39,1754.92 2139,1757.29 2161.61,1754.88 2184.22,1757.87 2206.83,1754.65 2229.44,1758.47 2252.05,1754.23 2274.66,1759.15 2297.27,1753.6 2319.89,1759.96 
  2342.5,1752.75 2365.11,1760.97 2387.72,1751.64 2410.33,1762.23 2432.94,1750.25 2455.55,1763.77 2478.16,1748.58 2500.78,1765.59 2523.39,1747.08 2546,1769.69 
  2568.61,1759.75 
  "/>
<polyline clip-path="url(#clip2502)" style="stroke:#c68125; stroke-width:16; stroke-opacity:1; fill:none" points="
  307.496,1759.24 330.107,1106.69 352.718,805.671 375.329,532.837 397.941,468.641 420.552,457.661 443.163,516.306 465.774,594.505 488.385,690.663 510.996,787.297 
  533.607,885.101 556.218,979.086 578.83,1067.99 601.441,1151.32 624.052,1225.88 646.663,1294.63 669.274,1352.63 691.885,1406.27 714.496,1447.98 737.107,1488.71 
  759.719,1516.44 782.33,1547.94 804.941,1564.37 827.552,1590.47 850.163,1597.61 872.774,1621.78 895.385,1620.55 917.996,1645.84 940.608,1635.98 963.219,1665.18 
  985.83,1645.76 1008.44,1682.7 1031.05,1662.17 1053.66,1722.44 1076.27,1678.14 1098.89,1706.78 1121.5,1676.27 1144.11,1700.84 1166.72,1679.49 1189.33,1696.99 
  1211.94,1682.34 1234.55,1694.93 1257.16,1685.36 1279.77,1694.78 1302.39,1688.96 1325,1696.38 1347.61,1693.28 1370.22,1699.43 1392.83,1698.25 1415.44,1703.55 
  1438.05,1703.7 1460.66,1708.37 1483.27,1709.37 1505.89,1713.55 1528.5,1715.05 1551.11,1718.79 1573.72,1720.52 1596.33,1723.86 1618.94,1725.65 1641.55,1728.63 
  1664.16,1730.36 1686.77,1733.01 1709.39,1734.59 1732,1736.97 1754.61,1738.35 1777.22,1740.49 1799.83,1741.65 1822.44,1743.61 1845.05,1744.5 1867.66,1746.32 
  1890.27,1746.93 1912.89,1748.66 1935.5,1748.94 1958.11,1750.64 1980.72,1750.53 2003.33,1752.27 2025.94,1751.73 2048.55,1753.59 2071.16,1752.55 2093.77,1754.64 
  2116.39,1753 2139,1755.47 2161.61,1753.14 2184.22,1756.18 2206.83,1753 2229.44,1756.84 2252.05,1752.63 2274.66,1757.57 2297.27,1752.06 2319.89,1758.45 
  2342.5,1751.31 2365.11,1759.58 2387.72,1750.36 2410.33,1761.02 2432.94,1749.21 2455.55,1762.81 2478.16,1747.85 2500.78,1764.91 2523.39,1746.68 2546,1769.32 
  2568.61,1759.74 
  "/>
<polyline clip-path="url(#clip2502)" style="stroke:#00a98d; stroke-width:16; stroke-opacity:1; fill:none" points="
  307.496,1759.24 330.107,1903.1 352.718,1994.21 375.329,2112.03 397.941,2146.22 420.552,2133.8 443.163,2096.4 465.774,2045.07 488.385,1985.91 510.996,1926.14 
  533.607,1869.04 556.218,1819.86 578.83,1776.56 601.441,1741.74 624.052,1712.25 646.663,1690.67 669.274,1673.31 691.885,1662.28 714.496,1653.34 737.107,1649.67 
  759.719,1646.06 782.33,1647.37 804.941,1646.8 827.552,1651.38 850.163,1652.08 872.774,1658.72 895.385,1659.38 917.996,1667.23 940.608,1666.85 963.219,1675.34 
  985.83,1673.58 1008.44,1684.06 1031.05,1692.06 1053.66,1748.71 1076.27,1719.92 1098.89,1721.49 1121.5,1716.96 1144.11,1724.03 1166.72,1721.41 1189.33,1727.73 
  1211.94,1726.01 1234.55,1731.39 1257.16,1730.36 1279.77,1734.84 1302.39,1734.27 1325,1737.94 1347.61,1737.63 1370.22,1740.56 1392.83,1740.39 1415.44,1742.68 
  1438.05,1742.54 1460.66,1744.29 1483.27,1744.13 1505.89,1745.44 1528.5,1745.24 1551.11,1746.21 1573.72,1745.97 1596.33,1746.69 1618.94,1746.43 1641.55,1747 
  1664.16,1746.74 1686.77,1747.25 1709.39,1747 1732,1747.52 1754.61,1747.3 1777.22,1747.89 1799.83,1747.69 1822.44,1748.39 1845.05,1748.19 1867.66,1749.03 
  1890.27,1748.79 1912.89,1749.79 1935.5,1749.45 1958.11,1750.65 1980.72,1750.12 2003.33,1751.55 2025.94,1750.76 2048.55,1752.47 2071.16,1751.3 2093.77,1753.36 
  2116.39,1751.7 2139,1754.23 2161.61,1751.93 2184.22,1755.08 2206.83,1751.97 2229.44,1755.95 2252.05,1751.79 2274.66,1756.86 2297.27,1751.38 2319.89,1757.89 
  2342.5,1750.71 2365.11,1759.08 2387.72,1749.75 2410.33,1760.48 2432.94,1748.47 2455.55,1762.12 2478.16,1746.88 2500.78,1764 2523.39,1745.42 2546,1768.23 
  2568.61,1759.75 
  "/>
<polyline clip-path="url(#clip2502)" style="stroke:#8e971d; stroke-width:16; stroke-opacity:1; fill:none" points="
  307.496,1759.24 330.107,1823.92 352.718,1182.97 375.329,831.288 397.941,784.245 420.552,789.921 443.163,798.712 465.774,806.477 488.385,814.074 510.996,824.896 
  533.607,839.925 556.218,863.1 578.83,889.811 601.441,923.601 624.052,958.046 646.663,999.599 669.274,1038.9 691.885,1084.9 714.496,1124.44 737.107,1171.65 
  759.719,1208.06 782.33,1254.99 804.941,1286.03 827.552,1332.29 850.163,1356.07 872.774,1402.02 895.385,1416.6 917.996,1463.16 940.608,1466.32 963.219,1514.96 
  985.83,1504.66 1008.44,1558.85 1031.05,1547.54 1053.66,1698.55 1076.27,1614.46 1098.89,1657.72 1121.5,1631.39 1144.11,1670.35 1166.72,1652.57 1189.33,1681.88 
  1211.94,1670.19 1234.55,1692.1 1257.16,1684.8 1279.77,1701.27 1302.39,1696.96 1325,1709.41 1347.61,1707.05 1370.22,1716.51 1392.83,1715.36 1415.44,1722.55 
  1438.05,1722.09 1460.66,1727.55 1483.27,1727.44 1505.89,1731.56 1528.5,1731.59 1551.11,1734.69 1573.72,1734.75 1596.33,1737.08 1618.94,1737.1 1641.55,1738.87 
  1664.16,1738.85 1686.77,1740.23 1709.39,1740.16 1732,1741.31 1754.61,1741.22 1777.22,1742.25 1799.83,1742.13 1822.44,1743.14 1845.05,1742.98 1867.66,1744.05 
  1890.27,1743.83 1912.89,1745.01 1935.5,1744.68 1958.11,1746.03 1980.72,1745.53 2003.33,1747.1 2025.94,1746.33 2048.55,1748.19 2071.16,1747.07 2093.77,1749.29 
  2116.39,1747.7 2139,1750.4 2161.61,1748.18 2184.22,1751.53 2206.83,1748.5 2229.44,1752.68 2252.05,1748.61 2274.66,1753.89 2297.27,1748.47 2319.89,1755.18 
  2342.5,1748.04 2365.11,1756.59 2387.72,1747.26 2410.33,1758.15 2432.94,1746.09 2455.55,1759.88 2478.16,1744.52 2500.78,1761.76 2523.39,1743 2546,1766.04 
  2568.61,1759.75 
  "/>
<polyline clip-path="url(#clip2502)" style="stroke:#00a8cb; stroke-width:16; stroke-opacity:1; fill:none" points="
  307.496,1759.24 330.107,1549.56 352.718,1543.65 375.329,1628.58 397.941,1699.77 420.552,1757.47 443.163,1798.64 465.774,1832.26 488.385,1855.44 510.996,1872.52 
  533.607,1885.01 556.218,1895.76 578.83,1904.12 601.441,1909.85 624.052,1912.59 646.663,1911.61 669.274,1908.2 691.885,1900.58 714.496,1891.87 737.107,1878.65 
  759.719,1866.39 782.33,1849.24 804.941,1835.53 827.552,1816.14 850.163,1802.95 872.774,1782.65 895.385,1771.56 917.996,1751.1 940.608,1743.07 963.219,1722.63 
  985.83,1718.18 1008.44,1699.54 1031.05,1712.03 1053.66,1791.14 1076.27,1738.84 1098.89,1717.31 1121.5,1721.86 1144.11,1711.88 1166.72,1717.96 1189.33,1711.41 
  1211.94,1717.36 1234.55,1713.29 1257.16,1718.83 1279.77,1716.47 1302.39,1721.42 1325,1720.18 1347.61,1724.47 1370.22,1723.88 1392.83,1727.48 1415.44,1727.24 
  1438.05,1730.19 1460.66,1730.1 1483.27,1732.47 1505.89,1732.44 1528.5,1734.32 1551.11,1734.3 1573.72,1735.82 1596.33,1735.81 1618.94,1737.1 1641.55,1737.11 
  1664.16,1738.28 1686.77,1738.34 1709.39,1739.46 1732,1739.58 1754.61,1740.74 1777.22,1740.89 1799.83,1742.12 1822.44,1742.26 1845.05,1743.6 1867.66,1743.67 
  1890.27,1745.1 1912.89,1745.01 1935.5,1746.57 1958.11,1746.23 1980.72,1747.93 2003.33,1747.23 2025.94,1749.13 2048.55,1747.98 2071.16,1750.15 2093.77,1748.44 
  2116.39,1751.03 2139,1748.63 2161.61,1751.82 2184.22,1748.58 2206.83,1752.6 2229.44,1748.31 2252.05,1753.47 2274.66,1747.87 2297.27,1754.53 2319.89,1747.25 
  2342.5,1755.85 2365.11,1746.42 2387.72,1757.5 2410.33,1745.33 2432.94,1759.49 2455.55,1743.91 2478.16,1761.79 2500.78,1742.21 2523.39,1764.56 2546,1742.86 
  2568.61,1784.77 
  "/>
<path clip-path="url(#clip2500)" d="
M2732.44 988.312 L3184.76 988.312 L3184.76 262.552 L2732.44 262.552  Z
  " fill="#ffffff" fill-rule="evenodd" fill-opacity="1"/>
<polyline clip-path="url(#clip2500)" style="stroke:#000000; stroke-width:4; stroke-opacity:1; fill:none" points="
  2732.44,988.312 3184.76,988.312 3184.76,262.552 2732.44,262.552 2732.44,988.312 
  "/>
<polyline clip-path="url(#clip2500)" style="stroke:#009af9; stroke-width:16; stroke-opacity:1; fill:none" points="
  2764.44,323.032 2956.44,323.032 
  "/>
<path clip-path="url(#clip2500)" d="M 0 0 M2988.44 299.272 L2994.87 299.272 L2994.87 341.381 L3018.01 341.381 L3018.01 346.792 L2988.44 346.792 L2988.44 299.272 Z" fill="#000000" fill-rule="evenodd" fill-opacity="1" /><path clip-path="url(#clip2500)" d="M 0 0 M3024.15 311.144 L3030.01 311.144 L3030.01 346.792 L3024.15 346.792 L3024.15 311.144 M3024.15 297.267 L3030.01 297.267 L3030.01 304.683 L3024.15 304.683 L3024.15 297.267 Z" fill="#000000" fill-rule="evenodd" fill-opacity="1" /><path clip-path="url(#clip2500)" d="M 0 0 M3054.2 297.267 L3054.2 302.137 L3048.6 302.137 Q3045.45 302.137 3044.21 303.41 Q3043 304.683 3043 307.993 L3043 311.144 L3052.64 311.144 L3052.64 315.696 L3043 315.696 L3043 346.792 L3037.11 346.792 L3037.11 315.696 L3031.51 315.696 L3031.51 311.144 L3037.11 311.144 L3037.11 308.662 Q3037.11 302.71 3039.88 300.004 Q3042.65 297.267 3048.66 297.267 L3054.2 297.267 Z" fill="#000000" fill-rule="evenodd" fill-opacity="1" /><path clip-path="url(#clip2500)" d="M 0 0 M3064.99 301.023 L3064.99 311.144 L3077.05 311.144 L3077.05 315.696 L3064.99 315.696 L3064.99 335.047 Q3064.99 339.408 3066.17 340.649 Q3067.38 341.891 3071.04 341.891 L3077.05 341.891 L3077.05 346.792 L3071.04 346.792 Q3064.26 346.792 3061.68 344.278 Q3059.1 341.731 3059.1 335.047 L3059.1 315.696 L3054.8 315.696 L3054.8 311.144 L3059.1 311.144 L3059.1 301.023 L3064.99 301.023 Z" fill="#000000" fill-rule="evenodd" fill-opacity="1" /><path clip-path="url(#clip2500)" d="M 0 0 M3105.86 341.381 L3116.36 341.381 L3116.36 305.129 L3104.93 307.42 L3104.93 301.564 L3116.3 299.272 L3122.73 299.272 L3122.73 341.381 L3133.23 341.381 L3133.23 346.792 L3105.86 346.792 L3105.86 341.381 Z" fill="#000000" fill-rule="evenodd" fill-opacity="1" /><polyline clip-path="url(#clip2500)" style="stroke:#e26f46; stroke-width:16; stroke-opacity:1; fill:none" points="
  2764.44,383.512 2956.44,383.512 
  "/>
<path clip-path="url(#clip2500)" d="M 0 0 M2988.44 359.752 L2994.87 359.752 L2994.87 401.861 L3018.01 401.861 L3018.01 407.272 L2988.44 407.272 L2988.44 359.752 Z" fill="#000000" fill-rule="evenodd" fill-opacity="1" /><path clip-path="url(#clip2500)" d="M 0 0 M3024.15 371.624 L3030.01 371.624 L3030.01 407.272 L3024.15 407.272 L3024.15 371.624 M3024.15 357.747 L3030.01 357.747 L3030.01 365.163 L3024.15 365.163 L3024.15 357.747 Z" fill="#000000" fill-rule="evenodd" fill-opacity="1" /><path clip-path="url(#clip2500)" d="M 0 0 M3054.2 357.747 L3054.2 362.617 L3048.6 362.617 Q3045.45 362.617 3044.21 363.89 Q3043 365.163 3043 368.473 L3043 371.624 L3052.64 371.624 L3052.64 376.176 L3043 376.176 L3043 407.272 L3037.11 407.272 L3037.11 376.176 L3031.51 376.176 L3031.51 371.624 L3037.11 371.624 L3037.11 369.142 Q3037.11 363.19 3039.88 360.484 Q3042.65 357.747 3048.66 357.747 L3054.2 357.747 Z" fill="#000000" fill-rule="evenodd" fill-opacity="1" /><path clip-path="url(#clip2500)" d="M 0 0 M3064.99 361.503 L3064.99 371.624 L3077.05 371.624 L3077.05 376.176 L3064.99 376.176 L3064.99 395.527 Q3064.99 399.888 3066.17 401.129 Q3067.38 402.371 3071.04 402.371 L3077.05 402.371 L3077.05 407.272 L3071.04 407.272 Q3064.26 407.272 3061.68 404.758 Q3059.1 402.211 3059.1 395.527 L3059.1 376.176 L3054.8 376.176 L3054.8 371.624 L3059.1 371.624 L3059.1 361.503 L3064.99 361.503 Z" fill="#000000" fill-rule="evenodd" fill-opacity="1" /><path clip-path="url(#clip2500)" d="M 0 0 M3110.28 401.861 L3132.72 401.861 L3132.72 407.272 L3102.55 407.272 L3102.55 401.861 Q3106.21 398.074 3112.51 391.708 Q3118.84 385.31 3120.47 383.464 Q3123.55 379.995 3124.76 377.608 Q3126 375.189 3126 372.865 Q3126 369.078 3123.33 366.691 Q3120.69 364.304 3116.42 364.304 Q3113.4 364.304 3110.03 365.354 Q3106.68 366.404 3102.87 368.537 L3102.87 362.044 Q3106.75 360.484 3110.12 359.688 Q3113.5 358.893 3116.3 358.893 Q3123.68 358.893 3128.07 362.585 Q3132.47 366.277 3132.47 372.452 Q3132.47 375.38 3131.35 378.022 Q3130.27 380.632 3127.37 384.196 Q3126.58 385.119 3122.31 389.544 Q3118.05 393.936 3110.28 401.861 Z" fill="#000000" fill-rule="evenodd" fill-opacity="1" /><polyline clip-path="url(#clip2500)" style="stroke:#3da44d; stroke-width:16; stroke-opacity:1; fill:none" points="
  2764.44,443.992 2956.44,443.992 
  "/>
<path clip-path="url(#clip2500)" d="M 0 0 M2988.44 420.232 L2994.87 420.232 L2994.87 462.341 L3018.01 462.341 L3018.01 467.752 L2988.44 467.752 L2988.44 420.232 Z" fill="#000000" fill-rule="evenodd" fill-opacity="1" /><path clip-path="url(#clip2500)" d="M 0 0 M3024.15 432.104 L3030.01 432.104 L3030.01 467.752 L3024.15 467.752 L3024.15 432.104 M3024.15 418.227 L3030.01 418.227 L3030.01 425.643 L3024.15 425.643 L3024.15 418.227 Z" fill="#000000" fill-rule="evenodd" fill-opacity="1" /><path clip-path="url(#clip2500)" d="M 0 0 M3054.2 418.227 L3054.2 423.097 L3048.6 423.097 Q3045.45 423.097 3044.21 424.37 Q3043 425.643 3043 428.953 L3043 432.104 L3052.64 432.104 L3052.64 436.656 L3043 436.656 L3043 467.752 L3037.11 467.752 L3037.11 436.656 L3031.51 436.656 L3031.51 432.104 L3037.11 432.104 L3037.11 429.622 Q3037.11 423.67 3039.88 420.964 Q3042.65 418.227 3048.66 418.227 L3054.2 418.227 Z" fill="#000000" fill-rule="evenodd" fill-opacity="1" /><path clip-path="url(#clip2500)" d="M 0 0 M3064.99 421.983 L3064.99 432.104 L3077.05 432.104 L3077.05 436.656 L3064.99 436.656 L3064.99 456.007 Q3064.99 460.368 3066.17 461.609 Q3067.38 462.851 3071.04 462.851 L3077.05 462.851 L3077.05 467.752 L3071.04 467.752 Q3064.26 467.752 3061.68 465.238 Q3059.1 462.691 3059.1 456.007 L3059.1 436.656 L3054.8 436.656 L3054.8 432.104 L3059.1 432.104 L3059.1 421.983 L3064.99 421.983 Z" fill="#000000" fill-rule="evenodd" fill-opacity="1" /><path clip-path="url(#clip2500)" d="M 0 0 M3124.22 442.13 Q3128.84 443.117 3131.42 446.236 Q3134.03 449.355 3134.03 453.939 Q3134.03 460.973 3129.19 464.824 Q3124.35 468.675 3115.44 468.675 Q3112.45 468.675 3109.26 468.07 Q3106.11 467.497 3102.74 466.32 L3102.74 460.113 Q3105.41 461.673 3108.59 462.469 Q3111.78 463.264 3115.25 463.264 Q3121.29 463.264 3124.45 460.877 Q3127.63 458.49 3127.63 453.939 Q3127.63 449.737 3124.67 447.382 Q3121.74 444.995 3116.49 444.995 L3110.95 444.995 L3110.95 439.711 L3116.74 439.711 Q3121.49 439.711 3124 437.833 Q3126.51 435.924 3126.51 432.359 Q3126.51 428.699 3123.9 426.757 Q3121.33 424.784 3116.49 424.784 Q3113.85 424.784 3110.82 425.357 Q3107.8 425.929 3104.17 427.139 L3104.17 421.41 Q3107.83 420.391 3111.01 419.882 Q3114.23 419.373 3117.06 419.373 Q3124.38 419.373 3128.65 422.715 Q3132.91 426.025 3132.91 431.69 Q3132.91 435.637 3130.65 438.374 Q3128.39 441.08 3124.22 442.13 Z" fill="#000000" fill-rule="evenodd" fill-opacity="1" /><polyline clip-path="url(#clip2500)" style="stroke:#c271d2; stroke-width:16; stroke-opacity:1; fill:none" points="
  2764.44,504.472 2956.44,504.472 
  "/>
<path clip-path="url(#clip2500)" d="M 0 0 M2988.44 480.712 L2994.87 480.712 L2994.87 522.821 L3018.01 522.821 L3018.01 528.232 L2988.44 528.232 L2988.44 480.712 Z" fill="#000000" fill-rule="evenodd" fill-opacity="1" /><path clip-path="url(#clip2500)" d="M 0 0 M3024.15 492.584 L3030.01 492.584 L3030.01 528.232 L3024.15 528.232 L3024.15 492.584 M3024.15 478.707 L3030.01 478.707 L3030.01 486.123 L3024.15 486.123 L3024.15 478.707 Z" fill="#000000" fill-rule="evenodd" fill-opacity="1" /><path clip-path="url(#clip2500)" d="M 0 0 M3054.2 478.707 L3054.2 483.577 L3048.6 483.577 Q3045.45 483.577 3044.21 484.85 Q3043 486.123 3043 489.433 L3043 492.584 L3052.64 492.584 L3052.64 497.136 L3043 497.136 L3043 528.232 L3037.11 528.232 L3037.11 497.136 L3031.51 497.136 L3031.51 492.584 L3037.11 492.584 L3037.11 490.102 Q3037.11 484.15 3039.88 481.444 Q3042.65 478.707 3048.66 478.707 L3054.2 478.707 Z" fill="#000000" fill-rule="evenodd" fill-opacity="1" /><path clip-path="url(#clip2500)" d="M 0 0 M3064.99 482.463 L3064.99 492.584 L3077.05 492.584 L3077.05 497.136 L3064.99 497.136 L3064.99 516.487 Q3064.99 520.848 3066.17 522.089 Q3067.38 523.331 3071.04 523.331 L3077.05 523.331 L3077.05 528.232 L3071.04 528.232 Q3064.26 528.232 3061.68 525.718 Q3059.1 523.171 3059.1 516.487 L3059.1 497.136 L3054.8 497.136 L3054.8 492.584 L3059.1 492.584 L3059.1 482.463 L3064.99 482.463 Z" fill="#000000" fill-rule="evenodd" fill-opacity="1" /><path clip-path="url(#clip2500)" d="M 0 0 M3122.41 486.314 L3106.18 511.681 L3122.41 511.681 L3122.41 486.314 M3120.72 480.712 L3128.81 480.712 L3128.81 511.681 L3135.59 511.681 L3135.59 517.028 L3128.81 517.028 L3128.81 528.232 L3122.41 528.232 L3122.41 517.028 L3100.96 517.028 L3100.96 510.822 L3120.72 480.712 Z" fill="#000000" fill-rule="evenodd" fill-opacity="1" /><polyline clip-path="url(#clip2500)" style="stroke:#ac8d18; stroke-width:16; stroke-opacity:1; fill:none" points="
  2764.44,564.952 2956.44,564.952 
  "/>
<path clip-path="url(#clip2500)" d="M 0 0 M2988.44 541.192 L2994.87 541.192 L2994.87 583.301 L3018.01 583.301 L3018.01 588.712 L2988.44 588.712 L2988.44 541.192 Z" fill="#000000" fill-rule="evenodd" fill-opacity="1" /><path clip-path="url(#clip2500)" d="M 0 0 M3024.15 553.064 L3030.01 553.064 L3030.01 588.712 L3024.15 588.712 L3024.15 553.064 M3024.15 539.187 L3030.01 539.187 L3030.01 546.603 L3024.15 546.603 L3024.15 539.187 Z" fill="#000000" fill-rule="evenodd" fill-opacity="1" /><path clip-path="url(#clip2500)" d="M 0 0 M3054.2 539.187 L3054.2 544.057 L3048.6 544.057 Q3045.45 544.057 3044.21 545.33 Q3043 546.603 3043 549.913 L3043 553.064 L3052.64 553.064 L3052.64 557.616 L3043 557.616 L3043 588.712 L3037.11 588.712 L3037.11 557.616 L3031.51 557.616 L3031.51 553.064 L3037.11 553.064 L3037.11 550.582 Q3037.11 544.63 3039.88 541.924 Q3042.65 539.187 3048.66 539.187 L3054.2 539.187 Z" fill="#000000" fill-rule="evenodd" fill-opacity="1" /><path clip-path="url(#clip2500)" d="M 0 0 M3064.99 542.943 L3064.99 553.064 L3077.05 553.064 L3077.05 557.616 L3064.99 557.616 L3064.99 576.967 Q3064.99 581.328 3066.17 582.569 Q3067.38 583.811 3071.04 583.811 L3077.05 583.811 L3077.05 588.712 L3071.04 588.712 Q3064.26 588.712 3061.68 586.198 Q3059.1 583.651 3059.1 576.967 L3059.1 557.616 L3054.8 557.616 L3054.8 553.064 L3059.1 553.064 L3059.1 542.943 L3064.99 542.943 Z" fill="#000000" fill-rule="evenodd" fill-opacity="1" /><path clip-path="url(#clip2500)" d="M 0 0 M3104.81 541.192 L3130.05 541.192 L3130.05 546.603 L3110.7 546.603 L3110.7 558.252 Q3112.1 557.775 3113.5 557.552 Q3114.9 557.297 3116.3 557.297 Q3124.25 557.297 3128.9 561.658 Q3133.55 566.018 3133.55 573.466 Q3133.55 581.137 3128.77 585.402 Q3124 589.635 3115.31 589.635 Q3112.32 589.635 3109.2 589.126 Q3106.11 588.617 3102.8 587.598 L3102.8 581.137 Q3105.67 582.697 3108.72 583.46 Q3111.78 584.224 3115.18 584.224 Q3120.69 584.224 3123.9 581.328 Q3127.12 578.432 3127.12 573.466 Q3127.12 568.501 3123.9 565.605 Q3120.69 562.708 3115.18 562.708 Q3112.6 562.708 3110.03 563.281 Q3107.48 563.854 3104.81 565.064 L3104.81 541.192 Z" fill="#000000" fill-rule="evenodd" fill-opacity="1" /><polyline clip-path="url(#clip2500)" style="stroke:#00a9ad; stroke-width:16; stroke-opacity:1; fill:none" points="
  2764.44,625.432 2956.44,625.432 
  "/>
<path clip-path="url(#clip2500)" d="M 0 0 M2988.44 601.672 L2994.87 601.672 L2994.87 643.781 L3018.01 643.781 L3018.01 649.192 L2988.44 649.192 L2988.44 601.672 Z" fill="#000000" fill-rule="evenodd" fill-opacity="1" /><path clip-path="url(#clip2500)" d="M 0 0 M3024.15 613.544 L3030.01 613.544 L3030.01 649.192 L3024.15 649.192 L3024.15 613.544 M3024.15 599.667 L3030.01 599.667 L3030.01 607.083 L3024.15 607.083 L3024.15 599.667 Z" fill="#000000" fill-rule="evenodd" fill-opacity="1" /><path clip-path="url(#clip2500)" d="M 0 0 M3054.2 599.667 L3054.2 604.537 L3048.6 604.537 Q3045.45 604.537 3044.21 605.81 Q3043 607.083 3043 610.393 L3043 613.544 L3052.64 613.544 L3052.64 618.096 L3043 618.096 L3043 649.192 L3037.11 649.192 L3037.11 618.096 L3031.51 618.096 L3031.51 613.544 L3037.11 613.544 L3037.11 611.062 Q3037.11 605.11 3039.88 602.404 Q3042.65 599.667 3048.66 599.667 L3054.2 599.667 Z" fill="#000000" fill-rule="evenodd" fill-opacity="1" /><path clip-path="url(#clip2500)" d="M 0 0 M3064.99 603.423 L3064.99 613.544 L3077.05 613.544 L3077.05 618.096 L3064.99 618.096 L3064.99 637.447 Q3064.99 641.808 3066.17 643.049 Q3067.38 644.291 3071.04 644.291 L3077.05 644.291 L3077.05 649.192 L3071.04 649.192 Q3064.26 649.192 3061.68 646.678 Q3059.1 644.131 3059.1 637.447 L3059.1 618.096 L3054.8 618.096 L3054.8 613.544 L3059.1 613.544 L3059.1 603.423 L3064.99 603.423 Z" fill="#000000" fill-rule="evenodd" fill-opacity="1" /><path clip-path="url(#clip2500)" d="M 0 0 M3119.29 622.87 Q3114.96 622.87 3112.41 625.83 Q3109.9 628.79 3109.9 633.946 Q3109.9 639.071 3112.41 642.063 Q3114.96 645.023 3119.29 645.023 Q3123.62 645.023 3126.13 642.063 Q3128.68 639.071 3128.68 633.946 Q3128.68 628.79 3126.13 625.83 Q3123.62 622.87 3119.29 622.87 M3132.05 602.722 L3132.05 608.579 Q3129.63 607.433 3127.15 606.828 Q3124.7 606.224 3122.28 606.224 Q3115.92 606.224 3112.54 610.52 Q3109.2 614.817 3108.72 623.506 Q3110.6 620.737 3113.43 619.273 Q3116.27 617.777 3119.67 617.777 Q3126.83 617.777 3130.97 622.138 Q3135.14 626.467 3135.14 633.946 Q3135.14 641.267 3130.81 645.691 Q3126.48 650.115 3119.29 650.115 Q3111.05 650.115 3106.68 643.813 Q3102.32 637.479 3102.32 625.48 Q3102.32 614.213 3107.67 607.529 Q3113.02 600.813 3122.03 600.813 Q3124.45 600.813 3126.9 601.29 Q3129.38 601.768 3132.05 602.722 Z" fill="#000000" fill-rule="evenodd" fill-opacity="1" /><polyline clip-path="url(#clip2500)" style="stroke:#ed5d92; stroke-width:16; stroke-opacity:1; fill:none" points="
  2764.44,685.912 2956.44,685.912 
  "/>
<path clip-path="url(#clip2500)" d="M 0 0 M2988.44 662.152 L2994.87 662.152 L2994.87 704.261 L3018.01 704.261 L3018.01 709.672 L2988.44 709.672 L2988.44 662.152 Z" fill="#000000" fill-rule="evenodd" fill-opacity="1" /><path clip-path="url(#clip2500)" d="M 0 0 M3024.15 674.024 L3030.01 674.024 L3030.01 709.672 L3024.15 709.672 L3024.15 674.024 M3024.15 660.147 L3030.01 660.147 L3030.01 667.563 L3024.15 667.563 L3024.15 660.147 Z" fill="#000000" fill-rule="evenodd" fill-opacity="1" /><path clip-path="url(#clip2500)" d="M 0 0 M3054.2 660.147 L3054.2 665.017 L3048.6 665.017 Q3045.45 665.017 3044.21 666.29 Q3043 667.563 3043 670.873 L3043 674.024 L3052.64 674.024 L3052.64 678.576 L3043 678.576 L3043 709.672 L3037.11 709.672 L3037.11 678.576 L3031.51 678.576 L3031.51 674.024 L3037.11 674.024 L3037.11 671.542 Q3037.11 665.59 3039.88 662.884 Q3042.65 660.147 3048.66 660.147 L3054.2 660.147 Z" fill="#000000" fill-rule="evenodd" fill-opacity="1" /><path clip-path="url(#clip2500)" d="M 0 0 M3064.99 663.903 L3064.99 674.024 L3077.05 674.024 L3077.05 678.576 L3064.99 678.576 L3064.99 697.927 Q3064.99 702.288 3066.17 703.529 Q3067.38 704.771 3071.04 704.771 L3077.05 704.771 L3077.05 709.672 L3071.04 709.672 Q3064.26 709.672 3061.68 707.158 Q3059.1 704.611 3059.1 697.927 L3059.1 678.576 L3054.8 678.576 L3054.8 674.024 L3059.1 674.024 L3059.1 663.903 L3064.99 663.903 Z" fill="#000000" fill-rule="evenodd" fill-opacity="1" /><path clip-path="url(#clip2500)" d="M 0 0 M3103.12 662.152 L3133.68 662.152 L3133.68 664.889 L3116.42 709.672 L3109.71 709.672 L3125.94 667.563 L3103.12 667.563 L3103.12 662.152 Z" fill="#000000" fill-rule="evenodd" fill-opacity="1" /><polyline clip-path="url(#clip2500)" style="stroke:#c68125; stroke-width:16; stroke-opacity:1; fill:none" points="
  2764.44,746.392 2956.44,746.392 
  "/>
<path clip-path="url(#clip2500)" d="M 0 0 M2988.44 722.632 L2994.87 722.632 L2994.87 764.741 L3018.01 764.741 L3018.01 770.152 L2988.44 770.152 L2988.44 722.632 Z" fill="#000000" fill-rule="evenodd" fill-opacity="1" /><path clip-path="url(#clip2500)" d="M 0 0 M3024.15 734.504 L3030.01 734.504 L3030.01 770.152 L3024.15 770.152 L3024.15 734.504 M3024.15 720.627 L3030.01 720.627 L3030.01 728.043 L3024.15 728.043 L3024.15 720.627 Z" fill="#000000" fill-rule="evenodd" fill-opacity="1" /><path clip-path="url(#clip2500)" d="M 0 0 M3054.2 720.627 L3054.2 725.497 L3048.6 725.497 Q3045.45 725.497 3044.21 726.77 Q3043 728.043 3043 731.353 L3043 734.504 L3052.64 734.504 L3052.64 739.056 L3043 739.056 L3043 770.152 L3037.11 770.152 L3037.11 739.056 L3031.51 739.056 L3031.51 734.504 L3037.11 734.504 L3037.11 732.022 Q3037.11 726.07 3039.88 723.364 Q3042.65 720.627 3048.66 720.627 L3054.2 720.627 Z" fill="#000000" fill-rule="evenodd" fill-opacity="1" /><path clip-path="url(#clip2500)" d="M 0 0 M3064.99 724.383 L3064.99 734.504 L3077.05 734.504 L3077.05 739.056 L3064.99 739.056 L3064.99 758.407 Q3064.99 762.768 3066.17 764.009 Q3067.38 765.251 3071.04 765.251 L3077.05 765.251 L3077.05 770.152 L3071.04 770.152 Q3064.26 770.152 3061.68 767.638 Q3059.1 765.091 3059.1 758.407 L3059.1 739.056 L3054.8 739.056 L3054.8 734.504 L3059.1 734.504 L3059.1 724.383 L3064.99 724.383 Z" fill="#000000" fill-rule="evenodd" fill-opacity="1" /><path clip-path="url(#clip2500)" d="M 0 0 M3118.49 747.586 Q3113.91 747.586 3111.27 750.036 Q3108.66 752.487 3108.66 756.784 Q3108.66 761.081 3111.27 763.532 Q3113.91 765.983 3118.49 765.983 Q3123.08 765.983 3125.72 763.532 Q3128.36 761.049 3128.36 756.784 Q3128.36 752.487 3125.72 750.036 Q3123.11 747.586 3118.49 747.586 M3112.06 744.848 Q3107.93 743.83 3105.6 740.997 Q3103.31 738.164 3103.31 734.09 Q3103.31 728.393 3107.35 725.083 Q3111.43 721.773 3118.49 721.773 Q3125.59 721.773 3129.63 725.083 Q3133.68 728.393 3133.68 734.09 Q3133.68 738.164 3131.35 740.997 Q3129.06 743.83 3124.95 744.848 Q3129.6 745.931 3132.18 749.082 Q3134.79 752.233 3134.79 756.784 Q3134.79 763.691 3130.56 767.383 Q3126.35 771.075 3118.49 771.075 Q3110.63 771.075 3106.4 767.383 Q3102.2 763.691 3102.2 756.784 Q3102.2 752.233 3104.81 749.082 Q3107.42 745.931 3112.06 744.848 M3109.71 734.695 Q3109.71 738.387 3112 740.456 Q3114.32 742.525 3118.49 742.525 Q3122.63 742.525 3124.95 740.456 Q3127.31 738.387 3127.31 734.695 Q3127.31 731.003 3124.95 728.934 Q3122.63 726.865 3118.49 726.865 Q3114.32 726.865 3112 728.934 Q3109.71 731.003 3109.71 734.695 Z" fill="#000000" fill-rule="evenodd" fill-opacity="1" /><polyline clip-path="url(#clip2500)" style="stroke:#00a98d; stroke-width:16; stroke-opacity:1; fill:none" points="
  2764.44,806.872 2956.44,806.872 
  "/>
<path clip-path="url(#clip2500)" d="M 0 0 M2988.44 783.112 L2994.87 783.112 L2994.87 825.221 L3018.01 825.221 L3018.01 830.632 L2988.44 830.632 L2988.44 783.112 Z" fill="#000000" fill-rule="evenodd" fill-opacity="1" /><path clip-path="url(#clip2500)" d="M 0 0 M3024.15 794.984 L3030.01 794.984 L3030.01 830.632 L3024.15 830.632 L3024.15 794.984 M3024.15 781.107 L3030.01 781.107 L3030.01 788.523 L3024.15 788.523 L3024.15 781.107 Z" fill="#000000" fill-rule="evenodd" fill-opacity="1" /><path clip-path="url(#clip2500)" d="M 0 0 M3054.2 781.107 L3054.2 785.977 L3048.6 785.977 Q3045.45 785.977 3044.21 787.25 Q3043 788.523 3043 791.833 L3043 794.984 L3052.64 794.984 L3052.64 799.536 L3043 799.536 L3043 830.632 L3037.11 830.632 L3037.11 799.536 L3031.51 799.536 L3031.51 794.984 L3037.11 794.984 L3037.11 792.502 Q3037.11 786.55 3039.88 783.844 Q3042.65 781.107 3048.66 781.107 L3054.2 781.107 Z" fill="#000000" fill-rule="evenodd" fill-opacity="1" /><path clip-path="url(#clip2500)" d="M 0 0 M3064.99 784.863 L3064.99 794.984 L3077.05 794.984 L3077.05 799.536 L3064.99 799.536 L3064.99 818.887 Q3064.99 823.248 3066.17 824.489 Q3067.38 825.731 3071.04 825.731 L3077.05 825.731 L3077.05 830.632 L3071.04 830.632 Q3064.26 830.632 3061.68 828.118 Q3059.1 825.571 3059.1 818.887 L3059.1 799.536 L3054.8 799.536 L3054.8 794.984 L3059.1 794.984 L3059.1 784.863 L3064.99 784.863 Z" fill="#000000" fill-rule="evenodd" fill-opacity="1" /><path clip-path="url(#clip2500)" d="M 0 0 M3104.93 829.645 L3104.93 823.789 Q3107.35 824.935 3109.84 825.54 Q3112.32 826.144 3114.71 826.144 Q3121.07 826.144 3124.41 821.879 Q3127.79 817.582 3128.26 808.861 Q3126.42 811.599 3123.59 813.063 Q3120.75 814.527 3117.32 814.527 Q3110.19 814.527 3106.02 810.23 Q3101.88 805.901 3101.88 798.422 Q3101.88 791.101 3106.21 786.677 Q3110.54 782.253 3117.73 782.253 Q3125.97 782.253 3130.3 788.587 Q3134.66 794.889 3134.66 806.92 Q3134.66 818.155 3129.31 824.871 Q3124 831.555 3114.99 831.555 Q3112.57 831.555 3110.09 831.078 Q3107.61 830.6 3104.93 829.645 M3117.73 809.498 Q3122.06 809.498 3124.57 806.538 Q3127.12 803.578 3127.12 798.422 Q3127.12 793.297 3124.57 790.337 Q3122.06 787.345 3117.73 787.345 Q3113.4 787.345 3110.85 790.337 Q3108.34 793.297 3108.34 798.422 Q3108.34 803.578 3110.85 806.538 Q3113.4 809.498 3117.73 809.498 Z" fill="#000000" fill-rule="evenodd" fill-opacity="1" /><polyline clip-path="url(#clip2500)" style="stroke:#8e971d; stroke-width:16; stroke-opacity:1; fill:none" points="
  2764.44,867.352 2956.44,867.352 
  "/>
<path clip-path="url(#clip2500)" d="M 0 0 M2988.44 843.592 L2994.87 843.592 L2994.87 885.701 L3018.01 885.701 L3018.01 891.112 L2988.44 891.112 L2988.44 843.592 Z" fill="#000000" fill-rule="evenodd" fill-opacity="1" /><path clip-path="url(#clip2500)" d="M 0 0 M3024.15 855.464 L3030.01 855.464 L3030.01 891.112 L3024.15 891.112 L3024.15 855.464 M3024.15 841.587 L3030.01 841.587 L3030.01 849.003 L3024.15 849.003 L3024.15 841.587 Z" fill="#000000" fill-rule="evenodd" fill-opacity="1" /><path clip-path="url(#clip2500)" d="M 0 0 M3054.2 841.587 L3054.2 846.457 L3048.6 846.457 Q3045.45 846.457 3044.21 847.73 Q3043 849.003 3043 852.313 L3043 855.464 L3052.64 855.464 L3052.64 860.016 L3043 860.016 L3043 891.112 L3037.11 891.112 L3037.11 860.016 L3031.51 860.016 L3031.51 855.464 L3037.11 855.464 L3037.11 852.982 Q3037.11 847.03 3039.88 844.324 Q3042.65 841.587 3048.66 841.587 L3054.2 841.587 Z" fill="#000000" fill-rule="evenodd" fill-opacity="1" /><path clip-path="url(#clip2500)" d="M 0 0 M3064.99 845.343 L3064.99 855.464 L3077.05 855.464 L3077.05 860.016 L3064.99 860.016 L3064.99 879.367 Q3064.99 883.728 3066.17 884.969 Q3067.38 886.211 3071.04 886.211 L3077.05 886.211 L3077.05 891.112 L3071.04 891.112 Q3064.26 891.112 3061.68 888.598 Q3059.1 886.051 3059.1 879.367 L3059.1 860.016 L3054.8 860.016 L3054.8 855.464 L3059.1 855.464 L3059.1 845.343 L3064.99 845.343 Z" fill="#000000" fill-rule="evenodd" fill-opacity="1" /><path clip-path="url(#clip2500)" d="M 0 0 M3105.86 885.701 L3116.36 885.701 L3116.36 849.449 L3104.93 851.74 L3104.93 845.884 L3116.3 843.592 L3122.73 843.592 L3122.73 885.701 L3133.23 885.701 L3133.23 891.112 L3105.86 891.112 L3105.86 885.701 Z" fill="#000000" fill-rule="evenodd" fill-opacity="1" /><path clip-path="url(#clip2500)" d="M 0 0 M3153.95 847.825 Q3148.98 847.825 3146.47 852.727 Q3143.99 857.597 3143.99 867.4 Q3143.99 877.171 3146.47 882.073 Q3148.98 886.943 3153.95 886.943 Q3158.95 886.943 3161.43 882.073 Q3163.94 877.171 3163.94 867.4 Q3163.94 857.597 3161.43 852.727 Q3158.95 847.825 3153.95 847.825 M3153.95 842.733 Q3161.94 842.733 3166.14 849.067 Q3170.37 855.369 3170.37 867.4 Q3170.37 879.399 3166.14 885.733 Q3161.94 892.035 3153.95 892.035 Q3145.96 892.035 3141.73 885.733 Q3137.53 879.399 3137.53 867.4 Q3137.53 855.369 3141.73 849.067 Q3145.96 842.733 3153.95 842.733 Z" fill="#000000" fill-rule="evenodd" fill-opacity="1" /><polyline clip-path="url(#clip2500)" style="stroke:#00a8cb; stroke-width:16; stroke-opacity:1; fill:none" points="
  2764.44,927.832 2956.44,927.832 
  "/>
<path clip-path="url(#clip2500)" d="M 0 0 M2988.44 904.072 L2994.87 904.072 L2994.87 946.181 L3018.01 946.181 L3018.01 951.592 L2988.44 951.592 L2988.44 904.072 Z" fill="#000000" fill-rule="evenodd" fill-opacity="1" /><path clip-path="url(#clip2500)" d="M 0 0 M3036.82 920.05 Q3032.11 920.05 3029.37 923.742 Q3026.64 927.402 3026.64 933.8 Q3026.64 940.198 3029.34 943.89 Q3032.08 947.55 3036.82 947.55 Q3041.5 947.55 3044.24 943.858 Q3046.97 940.166 3046.97 933.8 Q3046.97 927.466 3044.24 923.774 Q3041.5 920.05 3036.82 920.05 M3036.82 915.085 Q3044.46 915.085 3048.82 920.05 Q3053.18 925.015 3053.18 933.8 Q3053.18 942.553 3048.82 947.55 Q3044.46 952.515 3036.82 952.515 Q3029.15 952.515 3024.79 947.55 Q3020.46 942.553 3020.46 933.8 Q3020.46 925.015 3024.79 920.05 Q3029.15 915.085 3036.82 915.085 Z" fill="#000000" fill-rule="evenodd" fill-opacity="1" /><path clip-path="url(#clip2500)" d="M 0 0 M3075.52 933.673 Q3068.43 933.673 3065.69 935.296 Q3062.95 936.919 3062.95 940.834 Q3062.95 943.953 3064.99 945.799 Q3067.06 947.614 3070.59 947.614 Q3075.46 947.614 3078.39 944.176 Q3081.35 940.707 3081.35 934.978 L3081.35 933.673 L3075.52 933.673 M3087.21 931.254 L3087.21 951.592 L3081.35 951.592 L3081.35 946.181 Q3079.34 949.428 3076.35 950.987 Q3073.36 952.515 3069.03 952.515 Q3063.56 952.515 3060.31 949.46 Q3057.1 946.372 3057.1 941.216 Q3057.1 935.2 3061.11 932.145 Q3065.15 929.089 3073.14 929.089 L3081.35 929.089 L3081.35 928.516 Q3081.35 924.474 3078.68 922.278 Q3076.03 920.05 3071.23 920.05 Q3068.17 920.05 3065.28 920.782 Q3062.38 921.514 3059.71 922.978 L3059.71 917.567 Q3062.92 916.326 3065.94 915.721 Q3068.97 915.085 3071.83 915.085 Q3079.57 915.085 3083.39 919.095 Q3087.21 923.106 3087.21 931.254 Z" fill="#000000" fill-rule="evenodd" fill-opacity="1" /><path clip-path="url(#clip2500)" d="M 0 0 M3116.81 921.355 L3116.81 902.067 L3122.66 902.067 L3122.66 951.592 L3116.81 951.592 L3116.81 946.245 Q3114.96 949.428 3112.13 950.987 Q3109.33 952.515 3105.38 952.515 Q3098.92 952.515 3094.84 947.359 Q3090.8 942.203 3090.8 933.8 Q3090.8 925.397 3094.84 920.241 Q3098.92 915.085 3105.38 915.085 Q3109.33 915.085 3112.13 916.644 Q3114.96 918.172 3116.81 921.355 M3096.85 933.8 Q3096.85 940.261 3099.49 943.953 Q3102.17 947.614 3106.81 947.614 Q3111.46 947.614 3114.13 943.953 Q3116.81 940.261 3116.81 933.8 Q3116.81 927.339 3114.13 923.679 Q3111.46 919.986 3106.81 919.986 Q3102.17 919.986 3099.49 923.679 Q3096.85 927.339 3096.85 933.8 Z" fill="#000000" fill-rule="evenodd" fill-opacity="1" /></svg>
