<?xml version="1.0" encoding="utf-8"?>
<svg xmlns="http://www.w3.org/2000/svg" xmlns:xlink="http://www.w3.org/1999/xlink" width="800" height="600" viewBox="0 0 3200 2400">
<defs>
  <clipPath id="clip1000">
    <rect x="0" y="0" width="3200" height="2400"/>
  </clipPath>
</defs>
<path clip-path="url(#clip1000)" d="
M0 2400 L3200 2400 L3200 0 L0 0  Z
  " fill="#ffffff" fill-rule="evenodd" fill-opacity="1"/>
<defs>
  <clipPath id="clip1001">
    <rect x="640" y="0" width="2241" height="2241"/>
  </clipPath>
</defs>
<path clip-path="url(#clip1000)" d="
M295.172 2204.92 L2636.44 2204.92 L2636.44 131.032 L295.172 131.032  Z
  " fill="#ffffff" fill-rule="evenodd" fill-opacity="1"/>
<defs>
  <clipPath id="clip1002">
    <rect x="295" y="131" width="2342" height="2075"/>
  </clipPath>
</defs>
<polyline clip-path="url(#clip1002)" style="stroke:#000000; stroke-width:2; stroke-opacity:0.1; fill:none" points="
  361.434,2204.92 361.434,131.032 
  "/>
<polyline clip-path="url(#clip1002)" style="stroke:#000000; stroke-width:2; stroke-opacity:0.1; fill:none" points="
  803.183,2204.92 803.183,131.032 
  "/>
<polyline clip-path="url(#clip1002)" style="stroke:#000000; stroke-width:2; stroke-opacity:0.1; fill:none" points="
  1244.93,2204.92 1244.93,131.032 
  "/>
<polyline clip-path="url(#clip1002)" style="stroke:#000000; stroke-width:2; stroke-opacity:0.1; fill:none" points="
  1686.68,2204.92 1686.68,131.032 
  "/>
<polyline clip-path="url(#clip1002)" style="stroke:#000000; stroke-width:2; stroke-opacity:0.1; fill:none" points="
  2128.43,2204.92 2128.43,131.032 
  "/>
<polyline clip-path="url(#clip1002)" style="stroke:#000000; stroke-width:2; stroke-opacity:0.1; fill:none" points="
  2570.18,2204.92 2570.18,131.032 
  "/>
<polyline clip-path="url(#clip1002)" style="stroke:#000000; stroke-width:2; stroke-opacity:0.1; fill:none" points="
  295.172,2071.97 2636.44,2071.97 
  "/>
<polyline clip-path="url(#clip1002)" style="stroke:#000000; stroke-width:2; stroke-opacity:0.1; fill:none" points="
  295.172,1601.75 2636.44,1601.75 
  "/>
<polyline clip-path="url(#clip1002)" style="stroke:#000000; stroke-width:2; stroke-opacity:0.1; fill:none" points="
  295.172,1131.52 2636.44,1131.52 
  "/>
<polyline clip-path="url(#clip1002)" style="stroke:#000000; stroke-width:2; stroke-opacity:0.1; fill:none" points="
  295.172,661.302 2636.44,661.302 
  "/>
<polyline clip-path="url(#clip1002)" style="stroke:#000000; stroke-width:2; stroke-opacity:0.1; fill:none" points="
  295.172,191.079 2636.44,191.079 
  "/>
<polyline clip-path="url(#clip1000)" style="stroke:#000000; stroke-width:4; stroke-opacity:1; fill:none" points="
  295.172,2204.92 2636.44,2204.92 
  "/>
<polyline clip-path="url(#clip1000)" style="stroke:#000000; stroke-width:4; stroke-opacity:1; fill:none" points="
  295.172,2204.92 295.172,131.032 
  "/>
<polyline clip-path="url(#clip1000)" style="stroke:#000000; stroke-width:4; stroke-opacity:1; fill:none" points="
  361.434,2204.92 361.434,2180.03 
  "/>
<polyline clip-path="url(#clip1000)" style="stroke:#000000; stroke-width:4; stroke-opacity:1; fill:none" points="
  803.183,2204.92 803.183,2180.03 
  "/>
<polyline clip-path="url(#clip1000)" style="stroke:#000000; stroke-width:4; stroke-opacity:1; fill:none" points="
  1244.93,2204.92 1244.93,2180.03 
  "/>
<polyline clip-path="url(#clip1000)" style="stroke:#000000; stroke-width:4; stroke-opacity:1; fill:none" points="
  1686.68,2204.92 1686.68,2180.03 
  "/>
<polyline clip-path="url(#clip1000)" style="stroke:#000000; stroke-width:4; stroke-opacity:1; fill:none" points="
  2128.43,2204.92 2128.43,2180.03 
  "/>
<polyline clip-path="url(#clip1000)" style="stroke:#000000; stroke-width:4; stroke-opacity:1; fill:none" points="
  2570.18,2204.92 2570.18,2180.03 
  "/>
<polyline clip-path="url(#clip1000)" style="stroke:#000000; stroke-width:4; stroke-opacity:1; fill:none" points="
  295.172,2071.97 323.267,2071.97 
  "/>
<polyline clip-path="url(#clip1000)" style="stroke:#000000; stroke-width:4; stroke-opacity:1; fill:none" points="
  295.172,1601.75 323.267,1601.75 
  "/>
<polyline clip-path="url(#clip1000)" style="stroke:#000000; stroke-width:4; stroke-opacity:1; fill:none" points="
  295.172,1131.52 323.267,1131.52 
  "/>
<polyline clip-path="url(#clip1000)" style="stroke:#000000; stroke-width:4; stroke-opacity:1; fill:none" points="
  295.172,661.302 323.267,661.302 
  "/>
<polyline clip-path="url(#clip1000)" style="stroke:#000000; stroke-width:4; stroke-opacity:1; fill:none" points="
  295.172,191.079 323.267,191.079 
  "/>
<path clip-path="url(#clip1000)" d="M 0 0 M361.434 2230.91 Q357.823 2230.91 355.994 2234.48 Q354.189 2238.02 354.189 2245.15 Q354.189 2252.25 355.994 2255.82 Q357.823 2259.36 361.434 2259.36 Q365.068 2259.36 366.874 2255.82 Q368.703 2252.25 368.703 2245.15 Q368.703 2238.02 366.874 2234.48 Q365.068 2230.91 361.434 2230.91 M361.434 2227.21 Q367.244 2227.21 370.3 2231.81 Q373.378 2236.4 373.378 2245.15 Q373.378 2253.87 370.3 2258.48 Q367.244 2263.06 361.434 2263.06 Q355.624 2263.06 352.545 2258.48 Q349.49 2253.87 349.49 2245.15 Q349.49 2236.4 352.545 2231.81 Q355.624 2227.21 361.434 2227.21 Z" fill="#000000" fill-rule="evenodd" fill-opacity="1" /><path clip-path="url(#clip1000)" d="M 0 0 M793.565 2258.46 L801.204 2258.46 L801.204 2232.09 L792.894 2233.76 L792.894 2229.5 L801.158 2227.83 L805.834 2227.83 L805.834 2258.46 L813.472 2258.46 L813.472 2262.39 L793.565 2262.39 L793.565 2258.46 Z" fill="#000000" fill-rule="evenodd" fill-opacity="1" /><path clip-path="url(#clip1000)" d="M 0 0 M1239.59 2258.46 L1255.9 2258.46 L1255.9 2262.39 L1233.96 2262.39 L1233.96 2258.46 Q1236.62 2255.7 1241.21 2251.07 Q1245.81 2246.42 1246.99 2245.08 Q1249.24 2242.55 1250.12 2240.82 Q1251.02 2239.06 1251.02 2237.37 Q1251.02 2234.61 1249.08 2232.88 Q1247.15 2231.14 1244.05 2231.14 Q1241.85 2231.14 1239.4 2231.91 Q1236.97 2232.67 1234.19 2234.22 L1234.19 2229.5 Q1237.02 2228.36 1239.47 2227.79 Q1241.92 2227.21 1243.96 2227.21 Q1249.33 2227.21 1252.52 2229.89 Q1255.72 2232.58 1255.72 2237.07 Q1255.72 2239.2 1254.91 2241.12 Q1254.12 2243.02 1252.02 2245.61 Q1251.44 2246.28 1248.33 2249.5 Q1245.23 2252.69 1239.59 2258.46 Z" fill="#000000" fill-rule="evenodd" fill-opacity="1" /><path clip-path="url(#clip1000)" d="M 0 0 M1690.93 2243.76 Q1694.29 2244.48 1696.16 2246.74 Q1698.06 2249.01 1698.06 2252.35 Q1698.06 2257.46 1694.54 2260.26 Q1691.02 2263.06 1684.54 2263.06 Q1682.36 2263.06 1680.05 2262.62 Q1677.76 2262.21 1675.3 2261.35 L1675.3 2256.84 Q1677.25 2257.97 1679.56 2258.55 Q1681.88 2259.13 1684.4 2259.13 Q1688.8 2259.13 1691.09 2257.39 Q1693.41 2255.66 1693.41 2252.35 Q1693.41 2249.29 1691.25 2247.58 Q1689.12 2245.84 1685.3 2245.84 L1681.28 2245.84 L1681.28 2242 L1685.49 2242 Q1688.94 2242 1690.77 2240.63 Q1692.6 2239.24 1692.6 2236.65 Q1692.6 2233.99 1690.7 2232.58 Q1688.82 2231.14 1685.3 2231.14 Q1683.38 2231.14 1681.18 2231.56 Q1678.98 2231.98 1676.35 2232.85 L1676.35 2228.69 Q1679.01 2227.95 1681.32 2227.58 Q1683.66 2227.21 1685.72 2227.21 Q1691.04 2227.21 1694.15 2229.64 Q1697.25 2232.04 1697.25 2236.17 Q1697.25 2239.04 1695.6 2241.03 Q1693.96 2242.99 1690.93 2243.76 Z" fill="#000000" fill-rule="evenodd" fill-opacity="1" /><path clip-path="url(#clip1000)" d="M 0 0 M2131.44 2231.91 L2119.63 2250.35 L2131.44 2250.35 L2131.44 2231.91 M2130.21 2227.83 L2136.09 2227.83 L2136.09 2250.35 L2141.02 2250.35 L2141.02 2254.24 L2136.09 2254.24 L2136.09 2262.39 L2131.44 2262.39 L2131.44 2254.24 L2115.84 2254.24 L2115.84 2249.73 L2130.21 2227.83 Z" fill="#000000" fill-rule="evenodd" fill-opacity="1" /><path clip-path="url(#clip1000)" d="M 0 0 M2560.46 2227.83 L2578.81 2227.83 L2578.81 2231.77 L2564.74 2231.77 L2564.74 2240.24 Q2565.76 2239.89 2566.78 2239.73 Q2567.8 2239.54 2568.81 2239.54 Q2574.6 2239.54 2577.98 2242.72 Q2581.36 2245.89 2581.36 2251.3 Q2581.36 2256.88 2577.89 2259.98 Q2574.42 2263.06 2568.1 2263.06 Q2565.92 2263.06 2563.65 2262.69 Q2561.41 2262.32 2559 2261.58 L2559 2256.88 Q2561.08 2258.02 2563.3 2258.57 Q2565.53 2259.13 2568 2259.13 Q2572.01 2259.13 2574.35 2257.02 Q2576.68 2254.92 2576.68 2251.3 Q2576.68 2247.69 2574.35 2245.59 Q2572.01 2243.48 2568 2243.48 Q2566.13 2243.48 2564.25 2243.9 Q2562.4 2244.31 2560.46 2245.19 L2560.46 2227.83 Z" fill="#000000" fill-rule="evenodd" fill-opacity="1" /><path clip-path="url(#clip1000)" d="M 0 0 M132.2 2074.37 L144.677 2074.37 L144.677 2078.16 L132.2 2078.16 L132.2 2074.37 Z" fill="#000000" fill-rule="evenodd" fill-opacity="1" /><path clip-path="url(#clip1000)" d="M 0 0 M159.746 2057.77 Q156.135 2057.77 154.307 2061.33 Q152.501 2064.88 152.501 2072.01 Q152.501 2079.11 154.307 2082.68 Q156.135 2086.22 159.746 2086.22 Q163.381 2086.22 165.186 2082.68 Q167.015 2079.11 167.015 2072.01 Q167.015 2064.88 165.186 2061.33 Q163.381 2057.77 159.746 2057.77 M159.746 2054.07 Q165.556 2054.07 168.612 2058.67 Q171.691 2063.26 171.691 2072.01 Q171.691 2080.73 168.612 2085.34 Q165.556 2089.92 159.746 2089.92 Q153.936 2089.92 150.857 2085.34 Q147.802 2080.73 147.802 2072.01 Q147.802 2063.26 150.857 2058.67 Q153.936 2054.07 159.746 2054.07 Z" fill="#000000" fill-rule="evenodd" fill-opacity="1" /><path clip-path="url(#clip1000)" d="M 0 0 M176.76 2083.37 L181.644 2083.37 L181.644 2089.25 L176.76 2089.25 L176.76 2083.37 Z" fill="#000000" fill-rule="evenodd" fill-opacity="1" /><path clip-path="url(#clip1000)" d="M 0 0 M196.714 2057.77 Q193.103 2057.77 191.274 2061.33 Q189.468 2064.88 189.468 2072.01 Q189.468 2079.11 191.274 2082.68 Q193.103 2086.22 196.714 2086.22 Q200.348 2086.22 202.153 2082.68 Q203.982 2079.11 203.982 2072.01 Q203.982 2064.88 202.153 2061.33 Q200.348 2057.77 196.714 2057.77 M196.714 2054.07 Q202.524 2054.07 205.579 2058.67 Q208.658 2063.26 208.658 2072.01 Q208.658 2080.73 205.579 2085.34 Q202.524 2089.92 196.714 2089.92 Q190.904 2089.92 187.825 2085.34 Q184.769 2080.73 184.769 2072.01 Q184.769 2063.26 187.825 2058.67 Q190.904 2054.07 196.714 2054.07 Z" fill="#000000" fill-rule="evenodd" fill-opacity="1" /><path clip-path="url(#clip1000)" d="M 0 0 M223.727 2057.77 Q220.116 2057.77 218.288 2061.33 Q216.482 2064.88 216.482 2072.01 Q216.482 2079.11 218.288 2082.68 Q220.116 2086.22 223.727 2086.22 Q227.362 2086.22 229.167 2082.68 Q230.996 2079.11 230.996 2072.01 Q230.996 2064.88 229.167 2061.33 Q227.362 2057.77 223.727 2057.77 M223.727 2054.07 Q229.538 2054.07 232.593 2058.67 Q235.672 2063.26 235.672 2072.01 Q235.672 2080.73 232.593 2085.34 Q229.538 2089.92 223.727 2089.92 Q217.917 2089.92 214.839 2085.34 Q211.783 2080.73 211.783 2072.01 Q211.783 2063.26 214.839 2058.67 Q217.917 2054.07 223.727 2054.07 Z" fill="#000000" fill-rule="evenodd" fill-opacity="1" /><path clip-path="url(#clip1000)" d="M 0 0 M253.588 2058.76 L241.783 2077.21 L253.588 2077.21 L253.588 2058.76 M252.362 2054.69 L258.241 2054.69 L258.241 2077.21 L263.172 2077.21 L263.172 2081.1 L258.241 2081.1 L258.241 2089.25 L253.588 2089.25 L253.588 2081.1 L237.987 2081.1 L237.987 2076.59 L252.362 2054.69 Z" fill="#000000" fill-rule="evenodd" fill-opacity="1" /><path clip-path="url(#clip1000)" d="M 0 0 M133.334 1604.14 L145.811 1604.14 L145.811 1607.94 L133.334 1607.94 L133.334 1604.14 Z" fill="#000000" fill-rule="evenodd" fill-opacity="1" /><path clip-path="url(#clip1000)" d="M 0 0 M160.881 1587.55 Q157.269 1587.55 155.441 1591.11 Q153.635 1594.65 153.635 1601.78 Q153.635 1608.89 155.441 1612.45 Q157.269 1616 160.881 1616 Q164.515 1616 166.32 1612.45 Q168.149 1608.89 168.149 1601.78 Q168.149 1594.65 166.32 1591.11 Q164.515 1587.55 160.881 1587.55 M160.881 1583.84 Q166.691 1583.84 169.746 1588.45 Q172.825 1593.03 172.825 1601.78 Q172.825 1610.51 169.746 1615.12 Q166.691 1619.7 160.881 1619.7 Q155.07 1619.7 151.992 1615.12 Q148.936 1610.51 148.936 1601.78 Q148.936 1593.03 151.992 1588.45 Q155.07 1583.84 160.881 1583.84 Z" fill="#000000" fill-rule="evenodd" fill-opacity="1" /><path clip-path="url(#clip1000)" d="M 0 0 M177.894 1613.15 L182.779 1613.15 L182.779 1619.03 L177.894 1619.03 L177.894 1613.15 Z" fill="#000000" fill-rule="evenodd" fill-opacity="1" /><path clip-path="url(#clip1000)" d="M 0 0 M197.848 1587.55 Q194.237 1587.55 192.408 1591.11 Q190.603 1594.65 190.603 1601.78 Q190.603 1608.89 192.408 1612.45 Q194.237 1616 197.848 1616 Q201.482 1616 203.288 1612.45 Q205.116 1608.89 205.116 1601.78 Q205.116 1594.65 203.288 1591.11 Q201.482 1587.55 197.848 1587.55 M197.848 1583.84 Q203.658 1583.84 206.714 1588.45 Q209.792 1593.03 209.792 1601.78 Q209.792 1610.51 206.714 1615.12 Q203.658 1619.7 197.848 1619.7 Q192.038 1619.7 188.959 1615.12 Q185.904 1610.51 185.904 1601.78 Q185.904 1593.03 188.959 1588.45 Q192.038 1583.84 197.848 1583.84 Z" fill="#000000" fill-rule="evenodd" fill-opacity="1" /><path clip-path="url(#clip1000)" d="M 0 0 M224.862 1587.55 Q221.251 1587.55 219.422 1591.11 Q217.616 1594.65 217.616 1601.78 Q217.616 1608.89 219.422 1612.45 Q221.251 1616 224.862 1616 Q228.496 1616 230.301 1612.45 Q232.13 1608.89 232.13 1601.78 Q232.13 1594.65 230.301 1591.11 Q228.496 1587.55 224.862 1587.55 M224.862 1583.84 Q230.672 1583.84 233.727 1588.45 Q236.806 1593.03 236.806 1601.78 Q236.806 1610.51 233.727 1615.12 Q230.672 1619.7 224.862 1619.7 Q219.052 1619.7 215.973 1615.12 Q212.917 1610.51 212.917 1601.78 Q212.917 1593.03 215.973 1588.45 Q219.052 1583.84 224.862 1583.84 Z" fill="#000000" fill-rule="evenodd" fill-opacity="1" /><path clip-path="url(#clip1000)" d="M 0 0 M256.042 1600.39 Q259.399 1601.11 261.274 1603.38 Q263.172 1605.65 263.172 1608.98 Q263.172 1614.1 259.653 1616.9 Q256.135 1619.7 249.653 1619.7 Q247.477 1619.7 245.163 1619.26 Q242.871 1618.84 240.417 1617.99 L240.417 1613.47 Q242.362 1614.61 244.676 1615.19 Q246.991 1615.76 249.514 1615.76 Q253.912 1615.76 256.204 1614.03 Q258.519 1612.29 258.519 1608.98 Q258.519 1605.93 256.366 1604.21 Q254.237 1602.48 250.417 1602.48 L246.389 1602.48 L246.389 1598.63 L250.602 1598.63 Q254.051 1598.63 255.88 1597.27 Q257.709 1595.88 257.709 1593.29 Q257.709 1590.62 255.811 1589.21 Q253.936 1587.78 250.417 1587.78 Q248.496 1587.78 246.297 1588.19 Q244.098 1588.61 241.459 1589.49 L241.459 1585.32 Q244.121 1584.58 246.436 1584.21 Q248.774 1583.84 250.834 1583.84 Q256.158 1583.84 259.26 1586.27 Q262.361 1588.68 262.361 1592.8 Q262.361 1595.67 260.718 1597.66 Q259.074 1599.63 256.042 1600.39 Z" fill="#000000" fill-rule="evenodd" fill-opacity="1" /><path clip-path="url(#clip1000)" d="M 0 0 M134.283 1133.92 L146.76 1133.92 L146.76 1137.72 L134.283 1137.72 L134.283 1133.92 Z" fill="#000000" fill-rule="evenodd" fill-opacity="1" /><path clip-path="url(#clip1000)" d="M 0 0 M161.83 1117.32 Q158.219 1117.32 156.39 1120.89 Q154.584 1124.43 154.584 1131.56 Q154.584 1138.67 156.39 1142.23 Q158.219 1145.77 161.83 1145.77 Q165.464 1145.77 167.269 1142.23 Q169.098 1138.67 169.098 1131.56 Q169.098 1124.43 167.269 1120.89 Q165.464 1117.32 161.83 1117.32 M161.83 1113.62 Q167.64 1113.62 170.695 1118.23 Q173.774 1122.81 173.774 1131.56 Q173.774 1140.29 170.695 1144.89 Q167.64 1149.48 161.83 1149.48 Q156.019 1149.48 152.941 1144.89 Q149.885 1140.29 149.885 1131.56 Q149.885 1122.81 152.941 1118.23 Q156.019 1113.62 161.83 1113.62 Z" fill="#000000" fill-rule="evenodd" fill-opacity="1" /><path clip-path="url(#clip1000)" d="M 0 0 M178.843 1142.93 L183.728 1142.93 L183.728 1148.8 L178.843 1148.8 L178.843 1142.93 Z" fill="#000000" fill-rule="evenodd" fill-opacity="1" /><path clip-path="url(#clip1000)" d="M 0 0 M198.797 1117.32 Q195.186 1117.32 193.357 1120.89 Q191.552 1124.43 191.552 1131.56 Q191.552 1138.67 193.357 1142.23 Q195.186 1145.77 198.797 1145.77 Q202.431 1145.77 204.237 1142.23 Q206.066 1138.67 206.066 1131.56 Q206.066 1124.43 204.237 1120.89 Q202.431 1117.32 198.797 1117.32 M198.797 1113.62 Q204.607 1113.62 207.663 1118.23 Q210.741 1122.81 210.741 1131.56 Q210.741 1140.29 207.663 1144.89 Q204.607 1149.48 198.797 1149.48 Q192.987 1149.48 189.908 1144.89 Q186.853 1140.29 186.853 1131.56 Q186.853 1122.81 189.908 1118.23 Q192.987 1113.62 198.797 1113.62 Z" fill="#000000" fill-rule="evenodd" fill-opacity="1" /><path clip-path="url(#clip1000)" d="M 0 0 M225.811 1117.32 Q222.2 1117.32 220.371 1120.89 Q218.565 1124.43 218.565 1131.56 Q218.565 1138.67 220.371 1142.23 Q222.2 1145.77 225.811 1145.77 Q229.445 1145.77 231.251 1142.23 Q233.079 1138.67 233.079 1131.56 Q233.079 1124.43 231.251 1120.89 Q229.445 1117.32 225.811 1117.32 M225.811 1113.62 Q231.621 1113.62 234.676 1118.23 Q237.755 1122.81 237.755 1131.56 Q237.755 1140.29 234.676 1144.89 Q231.621 1149.48 225.811 1149.48 Q220.001 1149.48 216.922 1144.89 Q213.866 1140.29 213.866 1131.56 Q213.866 1122.81 216.922 1118.23 Q220.001 1113.62 225.811 1113.62 Z" fill="#000000" fill-rule="evenodd" fill-opacity="1" /><path clip-path="url(#clip1000)" d="M 0 0 M246.852 1144.87 L263.172 1144.87 L263.172 1148.8 L241.227 1148.8 L241.227 1144.87 Q243.889 1142.12 248.473 1137.49 Q253.079 1132.83 254.26 1131.49 Q256.505 1128.97 257.385 1127.23 Q258.287 1125.47 258.287 1123.78 Q258.287 1121.03 256.343 1119.29 Q254.422 1117.55 251.32 1117.55 Q249.121 1117.55 246.667 1118.32 Q244.237 1119.08 241.459 1120.63 L241.459 1115.91 Q244.283 1114.78 246.737 1114.2 Q249.19 1113.62 251.227 1113.62 Q256.598 1113.62 259.792 1116.31 Q262.986 1118.99 262.986 1123.48 Q262.986 1125.61 262.176 1127.53 Q261.389 1129.43 259.283 1132.02 Q258.704 1132.69 255.602 1135.91 Q252.5 1139.11 246.852 1144.87 Z" fill="#000000" fill-rule="evenodd" fill-opacity="1" /><path clip-path="url(#clip1000)" d="M 0 0 M133.913 663.698 L146.39 663.698 L146.39 667.494 L133.913 667.494 L133.913 663.698 Z" fill="#000000" fill-rule="evenodd" fill-opacity="1" /><path clip-path="url(#clip1000)" d="M 0 0 M161.459 647.101 Q157.848 647.101 156.019 650.666 Q154.214 654.207 154.214 661.337 Q154.214 668.443 156.019 672.008 Q157.848 675.55 161.459 675.55 Q165.093 675.55 166.899 672.008 Q168.728 668.443 168.728 661.337 Q168.728 654.207 166.899 650.666 Q165.093 647.101 161.459 647.101 M161.459 643.397 Q167.269 643.397 170.325 648.004 Q173.404 652.587 173.404 661.337 Q173.404 670.064 170.325 674.67 Q167.269 679.253 161.459 679.253 Q155.649 679.253 152.57 674.67 Q149.515 670.064 149.515 661.337 Q149.515 652.587 152.57 648.004 Q155.649 643.397 161.459 643.397 Z" fill="#000000" fill-rule="evenodd" fill-opacity="1" /><path clip-path="url(#clip1000)" d="M 0 0 M178.473 672.702 L183.357 672.702 L183.357 678.582 L178.473 678.582 L178.473 672.702 Z" fill="#000000" fill-rule="evenodd" fill-opacity="1" /><path clip-path="url(#clip1000)" d="M 0 0 M198.427 647.101 Q194.816 647.101 192.987 650.666 Q191.181 654.207 191.181 661.337 Q191.181 668.443 192.987 672.008 Q194.816 675.55 198.427 675.55 Q202.061 675.55 203.866 672.008 Q205.695 668.443 205.695 661.337 Q205.695 654.207 203.866 650.666 Q202.061 647.101 198.427 647.101 M198.427 643.397 Q204.237 643.397 207.292 648.004 Q210.371 652.587 210.371 661.337 Q210.371 670.064 207.292 674.67 Q204.237 679.253 198.427 679.253 Q192.617 679.253 189.538 674.67 Q186.482 670.064 186.482 661.337 Q186.482 652.587 189.538 648.004 Q192.617 643.397 198.427 643.397 Z" fill="#000000" fill-rule="evenodd" fill-opacity="1" /><path clip-path="url(#clip1000)" d="M 0 0 M225.44 647.101 Q221.829 647.101 220.001 650.666 Q218.195 654.207 218.195 661.337 Q218.195 668.443 220.001 672.008 Q221.829 675.55 225.44 675.55 Q229.075 675.55 230.88 672.008 Q232.709 668.443 232.709 661.337 Q232.709 654.207 230.88 650.666 Q229.075 647.101 225.44 647.101 M225.44 643.397 Q231.251 643.397 234.306 648.004 Q237.385 652.587 237.385 661.337 Q237.385 670.064 234.306 674.67 Q231.251 679.253 225.44 679.253 Q219.63 679.253 216.552 674.67 Q213.496 670.064 213.496 661.337 Q213.496 652.587 216.552 648.004 Q219.63 643.397 225.44 643.397 Z" fill="#000000" fill-rule="evenodd" fill-opacity="1" /><path clip-path="url(#clip1000)" d="M 0 0 M243.264 674.647 L250.903 674.647 L250.903 648.281 L242.593 649.948 L242.593 645.689 L250.857 644.022 L255.533 644.022 L255.533 674.647 L263.172 674.647 L263.172 678.582 L243.264 678.582 L243.264 674.647 Z" fill="#000000" fill-rule="evenodd" fill-opacity="1" /><path clip-path="url(#clip1000)" d="M 0 0 M160.232 176.878 Q156.621 176.878 154.793 180.443 Q152.987 183.984 152.987 191.114 Q152.987 198.221 154.793 201.785 Q156.621 205.327 160.232 205.327 Q163.867 205.327 165.672 201.785 Q167.501 198.221 167.501 191.114 Q167.501 183.984 165.672 180.443 Q163.867 176.878 160.232 176.878 M160.232 173.174 Q166.043 173.174 169.098 177.781 Q172.177 182.364 172.177 191.114 Q172.177 199.841 169.098 204.447 Q166.043 209.031 160.232 209.031 Q154.422 209.031 151.344 204.447 Q148.288 199.841 148.288 191.114 Q148.288 182.364 151.344 177.781 Q154.422 173.174 160.232 173.174 Z" fill="#000000" fill-rule="evenodd" fill-opacity="1" /><path clip-path="url(#clip1000)" d="M 0 0 M177.246 202.48 L182.13 202.48 L182.13 208.359 L177.246 208.359 L177.246 202.48 Z" fill="#000000" fill-rule="evenodd" fill-opacity="1" /><path clip-path="url(#clip1000)" d="M 0 0 M197.2 176.878 Q193.589 176.878 191.76 180.443 Q189.954 183.984 189.954 191.114 Q189.954 198.221 191.76 201.785 Q193.589 205.327 197.2 205.327 Q200.834 205.327 202.64 201.785 Q204.468 198.221 204.468 191.114 Q204.468 183.984 202.64 180.443 Q200.834 176.878 197.2 176.878 M197.2 173.174 Q203.01 173.174 206.066 177.781 Q209.144 182.364 209.144 191.114 Q209.144 199.841 206.066 204.447 Q203.01 209.031 197.2 209.031 Q191.39 209.031 188.311 204.447 Q185.255 199.841 185.255 191.114 Q185.255 182.364 188.311 177.781 Q191.39 173.174 197.2 173.174 Z" fill="#000000" fill-rule="evenodd" fill-opacity="1" /><path clip-path="url(#clip1000)" d="M 0 0 M224.214 176.878 Q220.602 176.878 218.774 180.443 Q216.968 183.984 216.968 191.114 Q216.968 198.221 218.774 201.785 Q220.602 205.327 224.214 205.327 Q227.848 205.327 229.653 201.785 Q231.482 198.221 231.482 191.114 Q231.482 183.984 229.653 180.443 Q227.848 176.878 224.214 176.878 M224.214 173.174 Q230.024 173.174 233.079 177.781 Q236.158 182.364 236.158 191.114 Q236.158 199.841 233.079 204.447 Q230.024 209.031 224.214 209.031 Q218.403 209.031 215.325 204.447 Q212.269 199.841 212.269 191.114 Q212.269 182.364 215.325 177.781 Q218.403 173.174 224.214 173.174 Z" fill="#000000" fill-rule="evenodd" fill-opacity="1" /><path clip-path="url(#clip1000)" d="M 0 0 M251.227 176.878 Q247.616 176.878 245.788 180.443 Q243.982 183.984 243.982 191.114 Q243.982 198.221 245.788 201.785 Q247.616 205.327 251.227 205.327 Q254.862 205.327 256.667 201.785 Q258.496 198.221 258.496 191.114 Q258.496 183.984 256.667 180.443 Q254.862 176.878 251.227 176.878 M251.227 173.174 Q257.037 173.174 260.093 177.781 Q263.172 182.364 263.172 191.114 Q263.172 199.841 260.093 204.447 Q257.037 209.031 251.227 209.031 Q245.417 209.031 242.338 204.447 Q239.283 199.841 239.283 191.114 Q239.283 182.364 242.338 177.781 Q245.417 173.174 251.227 173.174 Z" fill="#000000" fill-rule="evenodd" fill-opacity="1" /><path clip-path="url(#clip1000)" d="M 0 0 M890.72 45.1919 L890.72 72.576 L883.266 72.576 L883.266 45.4349 Q883.266 38.994 880.755 35.7938 Q878.243 32.5936 873.22 32.5936 Q867.184 32.5936 863.701 36.4419 Q860.217 40.2903 860.217 46.9338 L860.217 72.576 L852.723 72.576 L852.723 9.54393 L860.217 9.54393 L860.217 34.2544 Q862.89 30.163 866.496 28.1376 Q870.142 26.1121 874.881 26.1121 Q882.699 26.1121 886.71 30.9732 Q890.72 35.7938 890.72 45.1919 Z" fill="#000000" fill-rule="evenodd" fill-opacity="1" /><path clip-path="url(#clip1000)" d="M 0 0 M916.119 32.4315 Q910.124 32.4315 906.64 37.1306 Q903.156 41.7891 903.156 49.9314 Q903.156 58.0738 906.6 62.7728 Q910.083 67.4314 916.119 67.4314 Q922.074 67.4314 925.558 62.7323 Q929.042 58.0333 929.042 49.9314 Q929.042 41.8701 925.558 37.1711 Q922.074 32.4315 916.119 32.4315 M916.119 26.1121 Q925.841 26.1121 931.391 32.4315 Q936.941 38.7509 936.941 49.9314 Q936.941 61.0714 931.391 67.4314 Q925.841 73.7508 916.119 73.7508 Q906.357 73.7508 900.807 67.4314 Q895.298 61.0714 895.298 49.9314 Q895.298 38.7509 900.807 32.4315 Q906.357 26.1121 916.119 26.1121 Z" fill="#000000" fill-rule="evenodd" fill-opacity="1" /><path clip-path="url(#clip1000)" d="M 0 0 M939.412 27.2059 L947.311 27.2059 L961.489 65.2844 L975.668 27.2059 L983.567 27.2059 L966.553 72.576 L956.426 72.576 L939.412 27.2059 Z" fill="#000000" fill-rule="evenodd" fill-opacity="1" /><path clip-path="url(#clip1000)" d="M 0 0 M1030.19 48.0275 L1030.19 51.6733 L995.922 51.6733 Q996.408 59.3701 1000.54 63.421 Q1004.71 67.4314 1012.13 67.4314 Q1016.42 67.4314 1020.43 66.3781 Q1024.48 65.3249 1028.45 63.2184 L1028.45 70.267 Q1024.44 71.9684 1020.23 72.8596 Q1016.01 73.7508 1011.68 73.7508 Q1000.82 73.7508 994.464 67.4314 Q988.144 61.1119 988.144 50.3365 Q988.144 39.1965 994.14 32.6746 Q1000.18 26.1121 1010.38 26.1121 Q1019.54 26.1121 1024.85 32.0264 Q1030.19 37.9003 1030.19 48.0275 M1022.74 45.84 Q1022.66 39.7232 1019.3 36.0774 Q1015.97 32.4315 1010.46 32.4315 Q1004.23 32.4315 1000.46 35.9558 Q996.732 39.4801 996.165 45.8805 L1022.74 45.84 Z" fill="#000000" fill-rule="evenodd" fill-opacity="1" /><path clip-path="url(#clip1000)" d="M 0 0 M1064.3 34.1734 Q1063.05 33.4443 1061.55 33.1202 Q1060.09 32.7556 1058.31 32.7556 Q1051.99 32.7556 1048.58 36.8875 Q1045.22 40.9789 1045.22 48.6757 L1045.22 72.576 L1037.73 72.576 L1037.73 27.2059 L1045.22 27.2059 L1045.22 34.2544 Q1047.57 30.1225 1051.34 28.1376 Q1055.11 26.1121 1060.49 26.1121 Q1061.26 26.1121 1062.19 26.2337 Q1063.13 26.3147 1064.26 26.5172 L1064.3 34.1734 Z" fill="#000000" fill-rule="evenodd" fill-opacity="1" /><path clip-path="url(#clip1000)" d="M 0 0 M1063.05 46.5287 L1084.88 46.5287 L1084.88 53.1722 L1063.05 53.1722 L1063.05 46.5287 Z" fill="#000000" fill-rule="evenodd" fill-opacity="1" /><path clip-path="url(#clip1000)" d="M 0 0 M1095.17 65.6895 L1108.54 65.6895 L1108.54 19.5497 L1093.99 22.4663 L1093.99 15.0127 L1108.46 12.096 L1116.64 12.096 L1116.64 65.6895 L1130.01 65.6895 L1130.01 72.576 L1095.17 72.576 L1095.17 65.6895 Z" fill="#000000" fill-rule="evenodd" fill-opacity="1" /><path clip-path="url(#clip1000)" d="M 0 0 M1156.38 17.4837 Q1150.06 17.4837 1146.86 23.7221 Q1143.7 29.92 1143.7 42.3968 Q1143.7 54.833 1146.86 61.0714 Q1150.06 67.2693 1156.38 67.2693 Q1162.74 67.2693 1165.9 61.0714 Q1169.1 54.833 1169.1 42.3968 Q1169.1 29.92 1165.9 23.7221 Q1162.74 17.4837 1156.38 17.4837 M1156.38 11.0023 Q1166.55 11.0023 1171.89 19.0636 Q1177.28 27.0843 1177.28 42.3968 Q1177.28 57.6687 1171.89 65.73 Q1166.55 73.7508 1156.38 73.7508 Q1146.21 73.7508 1140.82 65.73 Q1135.48 57.6687 1135.48 42.3968 Q1135.48 27.0843 1140.82 19.0636 Q1146.21 11.0023 1156.38 11.0023 Z" fill="#000000" fill-rule="evenodd" fill-opacity="1" /><path clip-path="url(#clip1000)" d="M 0 0 M1207.7 46.5287 L1229.54 46.5287 L1229.54 53.1722 L1207.7 53.1722 L1207.7 46.5287 Z" fill="#000000" fill-rule="evenodd" fill-opacity="1" /><path clip-path="url(#clip1000)" d="M 0 0 M1284.27 20.1573 L1273.17 50.2555 L1295.41 50.2555 L1284.27 20.1573 M1279.65 12.096 L1288.92 12.096 L1311.97 72.576 L1303.47 72.576 L1297.96 57.061 L1270.69 57.061 L1265.19 72.576 L1256.56 72.576 L1279.65 12.096 Z" fill="#000000" fill-rule="evenodd" fill-opacity="1" /><path clip-path="url(#clip1000)" d="M 0 0 M1349.65 49.3643 Q1349.65 41.2625 1346.28 36.8065 Q1342.96 32.3505 1336.93 32.3505 Q1330.93 32.3505 1327.57 36.8065 Q1324.25 41.2625 1324.25 49.3643 Q1324.25 57.4256 1327.57 61.8816 Q1330.93 66.3376 1336.93 66.3376 Q1342.96 66.3376 1346.28 61.8816 Q1349.65 57.4256 1349.65 49.3643 M1357.1 66.9452 Q1357.1 78.5308 1351.96 84.1616 Q1346.81 89.8329 1336.2 89.8329 Q1332.27 89.8329 1328.78 89.2252 Q1325.3 88.6581 1322.02 87.4428 L1322.02 80.1917 Q1325.3 81.9741 1328.5 82.8248 Q1331.7 83.6755 1335.02 83.6755 Q1342.36 83.6755 1346 79.8271 Q1349.65 76.0193 1349.65 68.282 L1349.65 64.5957 Q1347.34 68.6061 1343.73 70.5911 Q1340.13 72.576 1335.1 72.576 Q1326.76 72.576 1321.66 66.2161 Q1316.55 59.8562 1316.55 49.3643 Q1316.55 38.832 1321.66 32.472 Q1326.76 26.1121 1335.1 26.1121 Q1340.13 26.1121 1343.73 28.0971 Q1347.34 30.082 1349.65 34.0924 L1349.65 27.2059 L1357.1 27.2059 L1357.1 66.9452 Z" fill="#000000" fill-rule="evenodd" fill-opacity="1" /><path clip-path="url(#clip1000)" d="M 0 0 M1403.73 48.0275 L1403.73 51.6733 L1369.46 51.6733 Q1369.94 59.3701 1374.07 63.421 Q1378.25 67.4314 1385.66 67.4314 Q1389.95 67.4314 1393.96 66.3781 Q1398.01 65.3249 1401.98 63.2184 L1401.98 70.267 Q1397.97 71.9684 1393.76 72.8596 Q1389.55 73.7508 1385.21 73.7508 Q1374.36 73.7508 1368 67.4314 Q1361.68 61.1119 1361.68 50.3365 Q1361.68 39.1965 1367.67 32.6746 Q1373.71 26.1121 1383.92 26.1121 Q1393.07 26.1121 1398.38 32.0264 Q1403.73 37.9003 1403.73 48.0275 M1396.27 45.84 Q1396.19 39.7232 1392.83 36.0774 Q1389.51 32.4315 1384 32.4315 Q1377.76 32.4315 1373.99 35.9558 Q1370.27 39.4801 1369.7 45.8805 L1396.27 45.84 Z" fill="#000000" fill-rule="evenodd" fill-opacity="1" /><path clip-path="url(#clip1000)" d="M 0 0 M1449.26 45.1919 L1449.26 72.576 L1441.81 72.576 L1441.81 45.4349 Q1441.81 38.994 1439.29 35.7938 Q1436.78 32.5936 1431.76 32.5936 Q1425.72 32.5936 1422.24 36.4419 Q1418.76 40.2903 1418.76 46.9338 L1418.76 72.576 L1411.26 72.576 L1411.26 27.2059 L1418.76 27.2059 L1418.76 34.2544 Q1421.43 30.163 1425.03 28.1376 Q1428.68 26.1121 1433.42 26.1121 Q1441.24 26.1121 1445.25 30.9732 Q1449.26 35.7938 1449.26 45.1919 Z" fill="#000000" fill-rule="evenodd" fill-opacity="1" /><path clip-path="url(#clip1000)" d="M 0 0 M1464.45 14.324 L1464.45 27.2059 L1479.8 27.2059 L1479.8 32.9987 L1464.45 32.9987 L1464.45 57.6282 Q1464.45 63.1779 1465.95 64.7578 Q1467.49 66.3376 1472.15 66.3376 L1479.8 66.3376 L1479.8 72.576 L1472.15 72.576 Q1463.52 72.576 1460.24 69.3758 Q1456.96 66.1351 1456.96 57.6282 L1456.96 32.9987 L1451.49 32.9987 L1451.49 27.2059 L1456.96 27.2059 L1456.96 14.324 L1464.45 14.324 Z" fill="#000000" fill-rule="evenodd" fill-opacity="1" /><path clip-path="url(#clip1000)" d="M 0 0 M1550.57 14.0809 L1550.57 22.0612 Q1545.91 19.8332 1541.78 18.7395 Q1537.65 17.6457 1533.8 17.6457 Q1527.12 17.6457 1523.47 20.2383 Q1519.87 22.8309 1519.87 27.611 Q1519.87 31.6214 1522.26 33.6873 Q1524.69 35.7128 1531.41 36.9686 L1536.35 37.9813 Q1545.51 39.7232 1549.84 44.1387 Q1554.22 48.5136 1554.22 55.8863 Q1554.22 64.6767 1548.3 69.2137 Q1542.43 73.7508 1531.05 73.7508 Q1526.75 73.7508 1521.89 72.7785 Q1517.07 71.8063 1511.89 69.9024 L1511.89 61.4765 Q1516.87 64.2716 1521.65 65.6895 Q1526.43 67.1073 1531.05 67.1073 Q1538.05 67.1073 1541.86 64.3527 Q1545.67 61.598 1545.67 56.4939 Q1545.67 52.0379 1542.92 49.5264 Q1540.2 47.0148 1533.96 45.759 L1528.98 44.7868 Q1519.83 42.9639 1515.73 39.075 Q1511.64 35.1862 1511.64 28.2591 Q1511.64 20.2383 1517.27 15.6203 Q1522.94 11.0023 1532.87 11.0023 Q1537.12 11.0023 1541.54 11.7719 Q1545.95 12.5416 1550.57 14.0809 Z" fill="#000000" fill-rule="evenodd" fill-opacity="1" /><path clip-path="url(#clip1000)" d="M 0 0 M1569.41 14.324 L1569.41 27.2059 L1584.76 27.2059 L1584.76 32.9987 L1569.41 32.9987 L1569.41 57.6282 Q1569.41 63.1779 1570.91 64.7578 Q1572.45 66.3376 1577.11 66.3376 L1584.76 66.3376 L1584.76 72.576 L1577.11 72.576 Q1568.48 72.576 1565.2 69.3758 Q1561.91 66.1351 1561.91 57.6282 L1561.91 32.9987 L1556.45 32.9987 L1556.45 27.2059 L1561.91 27.2059 L1561.91 14.324 L1569.41 14.324 Z" fill="#000000" fill-rule="evenodd" fill-opacity="1" /><path clip-path="url(#clip1000)" d="M 0 0 M1613.2 49.7694 Q1604.17 49.7694 1600.68 51.8354 Q1597.2 53.9013 1597.2 58.8839 Q1597.2 62.8538 1599.79 65.2034 Q1602.42 67.5124 1606.92 67.5124 Q1613.12 67.5124 1616.84 63.1374 Q1620.61 58.7219 1620.61 51.4303 L1620.61 49.7694 L1613.2 49.7694 M1628.07 46.6907 L1628.07 72.576 L1620.61 72.576 L1620.61 65.6895 Q1618.06 69.8214 1614.25 71.8063 Q1610.44 73.7508 1604.94 73.7508 Q1597.97 73.7508 1593.84 69.8619 Q1589.74 65.9325 1589.74 59.3701 Q1589.74 51.7138 1594.85 47.825 Q1599.99 43.9361 1610.16 43.9361 L1620.61 43.9361 L1620.61 43.2069 Q1620.61 38.0623 1617.21 35.2672 Q1613.85 32.4315 1607.73 32.4315 Q1603.84 32.4315 1600.15 33.3632 Q1596.47 34.295 1593.07 36.1584 L1593.07 29.2718 Q1597.16 27.692 1601.01 26.9223 Q1604.85 26.1121 1608.5 26.1121 Q1618.34 26.1121 1623.2 31.2163 Q1628.07 36.3204 1628.07 46.6907 Z" fill="#000000" fill-rule="evenodd" fill-opacity="1" /><path clip-path="url(#clip1000)" d="M 0 0 M1643.26 14.324 L1643.26 27.2059 L1658.61 27.2059 L1658.61 32.9987 L1643.26 32.9987 L1643.26 57.6282 Q1643.26 63.1779 1644.76 64.7578 Q1646.29 66.3376 1650.95 66.3376 L1658.61 66.3376 L1658.61 72.576 L1650.95 72.576 Q1642.32 72.576 1639.04 69.3758 Q1635.76 66.1351 1635.76 57.6282 L1635.76 32.9987 L1630.29 32.9987 L1630.29 27.2059 L1635.76 27.2059 L1635.76 14.324 L1643.26 14.324 Z" fill="#000000" fill-rule="evenodd" fill-opacity="1" /><path clip-path="url(#clip1000)" d="M 0 0 M1705.24 48.0275 L1705.24 51.6733 L1670.96 51.6733 Q1671.45 59.3701 1675.58 63.421 Q1679.76 67.4314 1687.17 67.4314 Q1691.46 67.4314 1695.47 66.3781 Q1699.52 65.3249 1703.49 63.2184 L1703.49 70.267 Q1699.48 71.9684 1695.27 72.8596 Q1691.06 73.7508 1686.72 73.7508 Q1675.87 73.7508 1669.51 67.4314 Q1663.19 61.1119 1663.19 50.3365 Q1663.19 39.1965 1669.18 32.6746 Q1675.22 26.1121 1685.43 26.1121 Q1694.58 26.1121 1699.89 32.0264 Q1705.24 37.9003 1705.24 48.0275 M1697.78 45.84 Q1697.7 39.7232 1694.34 36.0774 Q1691.02 32.4315 1685.51 32.4315 Q1679.27 32.4315 1675.5 35.9558 Q1671.77 39.4801 1671.21 45.8805 L1697.78 45.84 Z" fill="#000000" fill-rule="evenodd" fill-opacity="1" /><path clip-path="url(#clip1000)" d="M 0 0 M1741.98 28.5427 L1741.98 35.5912 Q1738.82 33.9709 1735.41 33.1607 Q1732.01 32.3505 1728.37 32.3505 Q1722.82 32.3505 1720.02 34.0519 Q1717.27 35.7533 1717.27 39.156 Q1717.27 41.7486 1719.25 43.2475 Q1721.24 44.7058 1727.23 46.0426 L1729.78 46.6097 Q1737.72 48.3111 1741.05 51.4303 Q1744.41 54.509 1744.41 60.0587 Q1744.41 66.3781 1739.38 70.0644 Q1734.4 73.7508 1725.65 73.7508 Q1722.01 73.7508 1718.04 73.0216 Q1714.11 72.3329 1709.73 70.9151 L1709.73 63.2184 Q1713.86 65.3654 1717.87 66.4591 Q1721.88 67.5124 1725.81 67.5124 Q1731.08 67.5124 1733.92 65.73 Q1736.75 63.9071 1736.75 60.6258 Q1736.75 57.5877 1734.69 55.9673 Q1732.66 54.3469 1725.73 52.8481 L1723.14 52.2405 Q1716.21 50.7821 1713.13 47.7845 Q1710.06 44.7463 1710.06 39.4801 Q1710.06 33.0797 1714.59 29.5959 Q1719.13 26.1121 1727.47 26.1121 Q1731.61 26.1121 1735.25 26.7198 Q1738.9 27.3274 1741.98 28.5427 Z" fill="#000000" fill-rule="evenodd" fill-opacity="1" /><path clip-path="url(#clip1000)" d="M 0 0 M1803.47 17.6457 Q1794.56 17.6457 1789.29 24.2892 Q1784.07 30.9327 1784.07 42.3968 Q1784.07 53.8203 1789.29 60.4638 Q1794.56 67.1073 1803.47 67.1073 Q1812.38 67.1073 1817.57 60.4638 Q1822.79 53.8203 1822.79 42.3968 Q1822.79 30.9327 1817.57 24.2892 Q1812.38 17.6457 1803.47 17.6457 M1814.93 71.4823 L1825.71 83.2704 L1815.83 83.2704 L1806.87 73.5887 Q1805.54 73.6697 1804.81 73.7103 Q1804.12 73.7508 1803.47 73.7508 Q1790.71 73.7508 1783.05 65.2439 Q1775.44 56.6965 1775.44 42.3968 Q1775.44 28.0566 1783.05 19.5497 Q1790.71 11.0023 1803.47 11.0023 Q1816.19 11.0023 1823.81 19.5497 Q1831.42 28.0566 1831.42 42.3968 Q1831.42 52.9291 1827.17 60.4233 Q1822.95 67.9175 1814.93 71.4823 Z" fill="#000000" fill-rule="evenodd" fill-opacity="1" /><path clip-path="url(#clip1000)" d="M 0 0 M1837.74 68.12 L1846 68.12 L1846 43.369 L1836.97 45.0299 L1836.97 40.3308 L1846.29 38.7509 L1851.84 38.7509 L1851.84 68.12 L1860.14 68.12 L1860.14 72.576 L1837.74 72.576 L1837.74 68.12 Z" fill="#000000" fill-rule="evenodd" fill-opacity="1" /><path clip-path="url(#clip1000)" d="M 0 0 M1894.66 12.096 L1932.9 12.096 L1932.9 18.9825 L1902.84 18.9825 L1902.84 36.8875 L1931.64 36.8875 L1931.64 43.7741 L1902.84 43.7741 L1902.84 65.6895 L1933.63 65.6895 L1933.63 72.576 L1894.66 72.576 L1894.66 12.096 Z" fill="#000000" fill-rule="evenodd" fill-opacity="1" /><path clip-path="url(#clip1000)" d="M 0 0 M1967.73 34.1734 Q1966.48 33.4443 1964.98 33.1202 Q1963.52 32.7556 1961.74 32.7556 Q1955.42 32.7556 1952.02 36.8875 Q1948.65 40.9789 1948.65 48.6757 L1948.65 72.576 L1941.16 72.576 L1941.16 27.2059 L1948.65 27.2059 L1948.65 34.2544 Q1951 30.1225 1954.77 28.1376 Q1958.54 26.1121 1963.93 26.1121 Q1964.7 26.1121 1965.63 26.2337 Q1966.56 26.3147 1967.69 26.5172 L1967.73 34.1734 Z" fill="#000000" fill-rule="evenodd" fill-opacity="1" /><path clip-path="url(#clip1000)" d="M 0 0 M2000.38 34.1734 Q1999.13 33.4443 1997.63 33.1202 Q1996.17 32.7556 1994.39 32.7556 Q1988.07 32.7556 1984.67 36.8875 Q1981.3 40.9789 1981.3 48.6757 L1981.3 72.576 L1973.81 72.576 L1973.81 27.2059 L1981.3 27.2059 L1981.3 34.2544 Q1983.65 30.1225 1987.42 28.1376 Q1991.19 26.1121 1996.58 26.1121 Q1997.35 26.1121 1998.28 26.2337 Q1999.21 26.3147 2000.34 26.5172 L2000.38 34.1734 Z" fill="#000000" fill-rule="evenodd" fill-opacity="1" /><path clip-path="url(#clip1000)" d="M 0 0 M2023.96 32.4315 Q2017.97 32.4315 2014.48 37.1306 Q2011 41.7891 2011 49.9314 Q2011 58.0738 2014.44 62.7728 Q2017.92 67.4314 2023.96 67.4314 Q2029.92 67.4314 2033.4 62.7323 Q2036.88 58.0333 2036.88 49.9314 Q2036.88 41.8701 2033.4 37.1711 Q2029.92 32.4315 2023.96 32.4315 M2023.96 26.1121 Q2033.68 26.1121 2039.23 32.4315 Q2044.78 38.7509 2044.78 49.9314 Q2044.78 61.0714 2039.23 67.4314 Q2033.68 73.7508 2023.96 73.7508 Q2014.2 73.7508 2008.65 67.4314 Q2003.14 61.0714 2003.14 49.9314 Q2003.14 38.7509 2008.65 32.4315 Q2014.2 26.1121 2023.96 26.1121 Z" fill="#000000" fill-rule="evenodd" fill-opacity="1" /><path clip-path="url(#clip1000)" d="M 0 0 M2078.89 34.1734 Q2077.64 33.4443 2076.14 33.1202 Q2074.68 32.7556 2072.9 32.7556 Q2066.58 32.7556 2063.17 36.8875 Q2059.81 40.9789 2059.81 48.6757 L2059.81 72.576 L2052.32 72.576 L2052.32 27.2059 L2059.81 27.2059 L2059.81 34.2544 Q2062.16 30.1225 2065.93 28.1376 Q2069.7 26.1121 2075.08 26.1121 Q2075.85 26.1121 2076.78 26.2337 Q2077.72 26.3147 2078.85 26.5172 L2078.89 34.1734 Z" fill="#000000" fill-rule="evenodd" fill-opacity="1" /><path clip-path="url(#clip1000)" d="M 0 0 M1347.64 2298.26 L1387.84 2298.26 L1387.84 2303.67 L1370.97 2303.67 L1370.97 2345.78 L1364.51 2345.78 L1364.51 2303.67 L1347.64 2303.67 L1347.64 2298.26 Z" fill="#000000" fill-rule="evenodd" fill-opacity="1" /><path clip-path="url(#clip1000)" d="M 0 0 M1391.98 2310.14 L1397.84 2310.14 L1397.84 2345.78 L1391.98 2345.78 L1391.98 2310.14 M1391.98 2296.26 L1397.84 2296.26 L1397.84 2303.67 L1391.98 2303.67 L1391.98 2296.26 Z" fill="#000000" fill-rule="evenodd" fill-opacity="1" /><path clip-path="url(#clip1000)" d="M 0 0 M1431.73 2316.98 Q1433.93 2313.03 1436.99 2311.15 Q1440.04 2309.28 1444.18 2309.28 Q1449.75 2309.28 1452.77 2313.19 Q1455.8 2317.07 1455.8 2324.27 L1455.8 2345.78 L1449.91 2345.78 L1449.91 2324.46 Q1449.91 2319.33 1448.09 2316.85 Q1446.28 2314.37 1442.56 2314.37 Q1438 2314.37 1435.36 2317.39 Q1432.72 2320.42 1432.72 2325.64 L1432.72 2345.78 L1426.83 2345.78 L1426.83 2324.46 Q1426.83 2319.3 1425.02 2316.85 Q1423.2 2314.37 1419.42 2314.37 Q1414.93 2314.37 1412.29 2317.42 Q1409.65 2320.45 1409.65 2325.64 L1409.65 2345.78 L1403.76 2345.78 L1403.76 2310.14 L1409.65 2310.14 L1409.65 2315.67 Q1411.65 2312.4 1414.45 2310.84 Q1417.25 2309.28 1421.1 2309.28 Q1424.99 2309.28 1427.69 2311.25 Q1430.43 2313.22 1431.73 2316.98 Z" fill="#000000" fill-rule="evenodd" fill-opacity="1" /><path clip-path="url(#clip1000)" d="M 0 0 M1492.43 2326.5 L1492.43 2329.36 L1465.5 2329.36 Q1465.89 2335.41 1469.13 2338.59 Q1472.41 2341.74 1478.24 2341.74 Q1481.61 2341.74 1484.76 2340.91 Q1487.94 2340.09 1491.06 2338.43 L1491.06 2343.97 Q1487.91 2345.31 1484.6 2346.01 Q1481.29 2346.71 1477.89 2346.71 Q1469.36 2346.71 1464.36 2341.74 Q1459.39 2336.78 1459.39 2328.31 Q1459.39 2319.56 1464.1 2314.43 Q1468.85 2309.28 1476.87 2309.28 Q1484.06 2309.28 1488.23 2313.92 Q1492.43 2318.54 1492.43 2326.5 M1486.57 2324.78 Q1486.51 2319.97 1483.87 2317.11 Q1481.26 2314.24 1476.93 2314.24 Q1472.03 2314.24 1469.07 2317.01 Q1466.14 2319.78 1465.7 2324.81 L1486.57 2324.78 Z" fill="#000000" fill-rule="evenodd" fill-opacity="1" /><path clip-path="url(#clip1000)" d="M 0 0 M1533.36 2296.32 Q1529.1 2303.64 1527.03 2310.8 Q1524.96 2317.97 1524.96 2325.32 Q1524.96 2332.67 1527.03 2339.9 Q1529.13 2347.09 1533.36 2354.38 L1528.27 2354.38 Q1523.5 2346.9 1521.11 2339.67 Q1518.75 2332.45 1518.75 2325.32 Q1518.75 2318.22 1521.11 2311.03 Q1523.46 2303.83 1528.27 2296.32 L1533.36 2296.32 Z" fill="#000000" fill-rule="evenodd" fill-opacity="1" /><path clip-path="url(#clip1000)" d="M 0 0 M1562.23 2311.19 L1562.23 2316.72 Q1559.75 2315.45 1557.08 2314.81 Q1554.4 2314.18 1551.54 2314.18 Q1547.18 2314.18 1544.98 2315.51 Q1542.82 2316.85 1542.82 2319.53 Q1542.82 2321.56 1544.38 2322.74 Q1545.94 2323.89 1550.65 2324.94 L1552.65 2325.38 Q1558.89 2326.72 1561.5 2329.17 Q1564.14 2331.59 1564.14 2335.95 Q1564.14 2340.91 1560.19 2343.81 Q1556.28 2346.71 1549.4 2346.71 Q1546.54 2346.71 1543.42 2346.13 Q1540.33 2345.59 1536.9 2344.48 L1536.9 2338.43 Q1540.14 2340.12 1543.29 2340.98 Q1546.44 2341.81 1549.53 2341.81 Q1553.67 2341.81 1555.9 2340.4 Q1558.13 2338.97 1558.13 2336.39 Q1558.13 2334.01 1556.5 2332.73 Q1554.91 2331.46 1549.47 2330.28 L1547.43 2329.81 Q1541.99 2328.66 1539.57 2326.3 Q1537.15 2323.92 1537.15 2319.78 Q1537.15 2314.75 1540.72 2312.01 Q1544.28 2309.28 1550.84 2309.28 Q1554.08 2309.28 1556.95 2309.75 Q1559.81 2310.23 1562.23 2311.19 Z" fill="#000000" fill-rule="evenodd" fill-opacity="1" /><path clip-path="url(#clip1000)" d="M 0 0 M1569.36 2296.32 L1574.45 2296.32 Q1579.23 2303.83 1581.58 2311.03 Q1583.97 2318.22 1583.97 2325.32 Q1583.97 2332.45 1581.58 2339.67 Q1579.23 2346.9 1574.45 2354.38 L1569.36 2354.38 Q1573.59 2347.09 1575.66 2339.9 Q1577.76 2332.67 1577.76 2325.32 Q1577.76 2317.97 1575.66 2310.8 Q1573.59 2303.64 1569.36 2296.32 Z" fill="#000000" fill-rule="evenodd" fill-opacity="1" /><path clip-path="url(#clip1000)" d="M 0 0 M38.4242 1345.18 L38.4242 1315.14 L43.835 1315.14 L43.835 1338.75 L57.9032 1338.75 L57.9032 1316.12 L63.3141 1316.12 L63.3141 1338.75 L80.5333 1338.75 L80.5333 1314.56 L85.9442 1314.56 L85.9442 1345.18 L38.4242 1345.18 Z" fill="#000000" fill-rule="evenodd" fill-opacity="1" /><path clip-path="url(#clip1000)" d="M 0 0 M55.7707 1287.76 Q55.1978 1288.75 54.9432 1289.93 Q54.6567 1291.07 54.6567 1292.47 Q54.6567 1297.44 57.9032 1300.11 Q61.1179 1302.75 67.1653 1302.75 L85.9442 1302.75 L85.9442 1308.64 L50.2962 1308.64 L50.2962 1302.75 L55.8344 1302.75 Q52.5879 1300.91 51.0283 1297.95 Q49.4368 1294.99 49.4368 1290.75 Q49.4368 1290.15 49.5323 1289.42 Q49.596 1288.69 49.7551 1287.79 L55.7707 1287.76 Z" fill="#000000" fill-rule="evenodd" fill-opacity="1" /><path clip-path="url(#clip1000)" d="M 0 0 M55.7707 1262.11 Q55.1978 1263.1 54.9432 1264.27 Q54.6567 1265.42 54.6567 1266.82 Q54.6567 1271.78 57.9032 1274.46 Q61.1179 1277.1 67.1653 1277.1 L85.9442 1277.1 L85.9442 1282.99 L50.2962 1282.99 L50.2962 1277.1 L55.8344 1277.1 Q52.5879 1275.25 51.0283 1272.29 Q49.4368 1269.33 49.4368 1265.1 Q49.4368 1264.5 49.5323 1263.76 Q49.596 1263.03 49.7551 1262.14 L55.7707 1262.11 Z" fill="#000000" fill-rule="evenodd" fill-opacity="1" /><path clip-path="url(#clip1000)" d="M 0 0 M54.4021 1243.58 Q54.4021 1248.3 58.0942 1251.03 Q61.7545 1253.77 68.152 1253.77 Q74.5495 1253.77 78.2417 1251.06 Q81.9019 1248.33 81.9019 1243.58 Q81.9019 1238.91 78.2098 1236.17 Q74.5177 1233.43 68.152 1233.43 Q61.8181 1233.43 58.126 1236.17 Q54.4021 1238.91 54.4021 1243.58 M49.4368 1243.58 Q49.4368 1235.95 54.4021 1231.59 Q59.3673 1227.22 68.152 1227.22 Q76.9049 1227.22 81.9019 1231.59 Q86.8672 1235.95 86.8672 1243.58 Q86.8672 1251.26 81.9019 1255.62 Q76.9049 1259.94 68.152 1259.94 Q59.3673 1259.94 54.4021 1255.62 Q49.4368 1251.26 49.4368 1243.58 Z" fill="#000000" fill-rule="evenodd" fill-opacity="1" /><path clip-path="url(#clip1000)" d="M 0 0 M55.7707 1200.43 Q55.1978 1201.41 54.9432 1202.59 Q54.6567 1203.74 54.6567 1205.14 Q54.6567 1210.1 57.9032 1212.77 Q61.1179 1215.42 67.1653 1215.42 L85.9442 1215.42 L85.9442 1221.3 L50.2962 1221.3 L50.2962 1215.42 L55.8344 1215.42 Q52.5879 1213.57 51.0283 1210.61 Q49.4368 1207.65 49.4368 1203.42 Q49.4368 1202.81 49.5323 1202.08 Q49.596 1201.35 49.7551 1200.46 L55.7707 1200.43 Z" fill="#000000" fill-rule="evenodd" fill-opacity="1" /><path clip-path="url(#clip1000)" d="M 0 0 M42.7847 1154.02 Q42.7847 1161.02 48.0045 1165.16 Q53.2244 1169.27 62.2319 1169.27 Q71.2075 1169.27 76.4274 1165.16 Q81.6473 1161.02 81.6473 1154.02 Q81.6473 1147.02 76.4274 1142.94 Q71.2075 1138.84 62.2319 1138.84 Q53.2244 1138.84 48.0045 1142.94 Q42.7847 1147.02 42.7847 1154.02 M85.0848 1145.01 L94.3469 1136.55 L94.3469 1144.31 L86.7399 1151.35 Q86.8035 1152.4 86.8354 1152.97 Q86.8672 1153.51 86.8672 1154.02 Q86.8672 1164.05 80.1832 1170.06 Q73.4674 1176.04 62.2319 1176.04 Q50.9646 1176.04 44.2806 1170.06 Q37.5648 1164.05 37.5648 1154.02 Q37.5648 1144.03 44.2806 1138.04 Q50.9646 1132.06 62.2319 1132.06 Q70.5073 1132.06 76.3956 1135.4 Q82.2839 1138.71 85.0848 1145.01 Z" fill="#000000" fill-rule="evenodd" fill-opacity="1" /><path clip-path="url(#clip1000)" d="M 0 0 M82.443 1127.09 L82.443 1120.6 L62.9958 1120.6 L64.3008 1127.7 L60.6086 1127.7 L59.3673 1120.38 L59.3673 1116.02 L82.443 1116.02 L82.443 1109.49 L85.9442 1109.49 L85.9442 1127.09 L82.443 1127.09 Z" fill="#000000" fill-rule="evenodd" fill-opacity="1" /><path clip-path="url(#clip1000)" d="M 0 0 M36.4826 1068.56 Q43.8032 1072.82 50.9646 1074.89 Q58.126 1076.96 65.4784 1076.96 Q72.8308 1076.96 80.0559 1074.89 Q87.2491 1072.79 94.5379 1068.56 L94.5379 1073.65 Q87.0582 1078.43 79.8331 1080.81 Q72.608 1083.17 65.4784 1083.17 Q58.3806 1083.17 51.1874 1080.81 Q43.9942 1078.46 36.4826 1073.65 L36.4826 1068.56 Z" fill="#000000" fill-rule="evenodd" fill-opacity="1" /><path clip-path="url(#clip1000)" d="M 0 0 M57.1393 1034.66 Q53.1926 1032.47 51.3147 1029.41 Q49.4368 1026.35 49.4368 1022.22 Q49.4368 1016.65 53.3517 1013.62 Q57.2348 1010.6 64.4281 1010.6 L85.9442 1010.6 L85.9442 1016.49 L64.619 1016.49 Q59.4946 1016.49 57.012 1018.3 Q54.5294 1020.12 54.5294 1023.84 Q54.5294 1028.39 57.5531 1031.03 Q60.5768 1033.68 65.7967 1033.68 L85.9442 1033.68 L85.9442 1039.56 L64.619 1039.56 Q59.4628 1039.56 57.012 1041.38 Q54.5294 1043.19 54.5294 1046.98 Q54.5294 1051.47 57.5849 1054.11 Q60.6086 1056.75 65.7967 1056.75 L85.9442 1056.75 L85.9442 1062.64 L50.2962 1062.64 L50.2962 1056.75 L55.8344 1056.75 Q52.556 1054.75 50.9964 1051.95 Q49.4368 1049.14 49.4368 1045.29 Q49.4368 1041.41 51.4102 1038.7 Q53.3836 1035.97 57.1393 1034.66 Z" fill="#000000" fill-rule="evenodd" fill-opacity="1" /><path clip-path="url(#clip1000)" d="M 0 0 M36.4826 1005.38 L36.4826 1000.29 Q43.9942 995.513 51.1874 993.158 Q58.3806 990.771 65.4784 990.771 Q72.608 990.771 79.8331 993.158 Q87.0582 995.513 94.5379 1000.29 L94.5379 1005.38 Q87.2491 1001.15 80.0559 999.078 Q72.8308 996.977 65.4784 996.977 Q58.126 996.977 50.9646 999.078 Q43.8032 1001.15 36.4826 1005.38 Z" fill="#000000" fill-rule="evenodd" fill-opacity="1" /><polyline clip-path="url(#clip1002)" style="stroke:#009af9; stroke-width:16; stroke-opacity:1; fill:none" points="
  361.434,191.079 383.521,191.079 405.609,228.804 427.696,288.074 449.784,363.903 471.871,445.512 493.959,521 516.046,580.398 538.134,617.34 560.221,629.444 
  582.309,617.951 604.396,586.956 626.483,541.965 648.571,488.825 670.658,432.883 692.746,378.572 714.833,329.172 736.921,286.83 759.008,252.632 781.096,226.82 
  803.183,208.946 825.271,198.122 847.358,193.149 869.445,192.721 891.533,195.502 913.62,200.257 935.708,205.88 957.795,211.463 979.883,216.293 1001.97,219.865 
  1024.06,221.881 1046.15,222.22 1068.23,220.975 1090.32,219.905 1112.41,218.096 1134.49,214.839 1156.58,211.593 1178.67,208.466 1200.76,205.531 1222.84,202.858 
  1244.93,200.485 1267.02,198.44 1289.11,196.732 1311.19,195.354 1333.28,194.288 1355.37,193.505 1377.46,192.971 1399.54,192.647 1421.63,192.489 1443.72,192.458 
  1465.81,192.514 1487.89,192.622 1509.98,192.752 1532.07,192.877 1554.16,192.979 1576.24,193.043 1598.33,193.061 1620.42,193.029 1642.51,192.95 1664.59,192.826 
  1686.68,192.667 1708.77,192.481 1730.86,192.279 1752.94,192.071 1775.03,191.868 1797.12,191.678 1819.21,191.508 1841.29,191.365 1863.38,191.25 1885.47,191.166 
  1907.56,191.111 1929.64,191.084 1951.73,191.08 1973.82,191.095 1995.91,191.123 2017.99,191.16 2040.08,191.199 2062.17,191.238 2084.26,191.272 2106.34,191.3 
  2128.43,191.319 2150.52,191.33 2172.61,191.333 2194.69,191.33 2216.78,191.323 2238.87,191.313 2260.96,191.304 2283.04,191.298 2305.13,191.295 2327.22,191.299 
  2349.3,191.308 2371.39,191.324 2393.48,191.345 2415.57,191.37 2437.65,191.397 2459.74,191.425 2481.83,191.452 2503.92,191.475 2526,191.492 2548.09,191.503 
  2570.18,191.506 
  "/>
<polyline clip-path="url(#clip1002)" style="stroke:#e26f46; stroke-width:16; stroke-opacity:1; fill:none" points="
  361.434,191.079 383.521,191.079 405.609,194.35 427.696,190.802 449.784,246.358 471.871,359.411 493.959,505.137 516.046,654.959 538.134,782.625 560.221,869.401 
  582.309,906.878 604.396,895.648 626.483,842.877 648.571,759.594 670.658,658.214 692.746,550.692 714.833,447.395 736.921,356.319 759.008,283.019 781.096,230.513 
  803.183,199.748 825.271,189.727 847.358,198.101 869.445,221.293 891.533,255.029 913.62,294.452 935.708,334.515 957.795,370.232 979.883,396.856 1001.97,410.521 
  1024.06,408.108 1046.15,388.642 1068.23,352.856 1090.32,330.566 1112.41,308.04 1134.49,275.772 1156.58,251.861 1178.67,234.318 1200.76,221.575 1222.84,212.403 
  1244.93,205.855 1267.02,201.208 1289.11,197.93 1311.19,195.627 1333.28,194.02 1355.37,192.908 1377.46,192.154 1399.54,191.659 1421.63,191.358 1443.72,191.201 
  1465.81,191.154 1487.89,191.189 1509.98,191.284 1532.07,191.422 1554.16,191.586 1576.24,191.762 1598.33,191.939 1620.42,192.108 1642.51,192.261 1664.59,192.392 
  1686.68,192.5 1708.77,192.582 1730.86,192.639 1752.94,192.673 1775.03,192.686 1797.12,192.68 1819.21,192.66 1841.29,192.628 1863.38,192.587 1885.47,192.54 
  1907.56,192.488 1929.64,192.434 1951.73,192.377 1973.82,192.319 1995.91,192.259 2017.99,192.199 2040.08,192.137 2062.17,192.075 2084.26,192.012 2106.34,191.95 
  2128.43,191.888 2150.52,191.829 2172.61,191.772 2194.69,191.721 2216.78,191.675 2238.87,191.638 2260.96,191.611 2283.04,191.596 2305.13,191.597 2327.22,191.614 
  2349.3,191.651 2371.39,191.71 2393.48,191.793 2415.57,191.9 2437.65,192.03 2459.74,192.178 2481.83,192.338 2503.92,192.497 2526,192.639 2548.09,192.744 
  2570.18,192.785 
  "/>
<polyline clip-path="url(#clip1002)" style="stroke:#3da44d; stroke-width:16; stroke-opacity:1; fill:none" points="
  361.434,191.079 383.521,191.079 405.609,611.197 427.696,1137.8 449.784,1602.73 471.871,1933.34 493.959,2108.22 516.046,2146.22 538.134,2074.16 560.221,1921.89 
  582.309,1717.34 604.396,1485.46 626.483,1246.6 648.571,1016.39 670.658,806.094 692.746,623.252 714.833,472.254 736.921,354.941 759.008,271.033 781.096,218.651 
  803.183,194.578 825.271,194.718 847.358,214.251 869.445,248.017 891.533,290.636 913.62,336.76 935.708,381.275 957.795,419.325 979.883,446.824 1001.97,460.079 
  1024.06,457.009 1046.15,436.095 1068.23,398.947 1090.32,376.118 1112.41,350.48 1134.49,312.916 1156.58,283.994 1178.67,261.789 1200.76,244.845 1222.84,231.955 
  1244.93,222.209 1267.02,214.873 1289.11,209.401 1311.19,205.36 1333.28,202.425 1355.37,200.339 1377.46,198.905 1399.54,197.965 1421.63,197.391 1443.72,197.08 
  1465.81,196.949 1487.89,196.927 1509.98,196.959 1532.07,197.001 1554.16,197.019 1576.24,196.989 1598.33,196.895 1620.42,196.73 1642.51,196.494 1664.59,196.191 
  1686.68,195.83 1708.77,195.424 1730.86,194.989 1752.94,194.538 1775.03,194.089 1797.12,193.653 1819.21,193.245 1841.29,192.873 1863.38,192.544 1885.47,192.262 
  1907.56,192.029 1929.64,191.843 1951.73,191.701 1973.82,191.597 1995.91,191.527 2017.99,191.483 2040.08,191.459 2062.17,191.45 2084.26,191.452 2106.34,191.46 
  2128.43,191.474 2150.52,191.493 2172.61,191.518 2194.69,191.552 2216.78,191.599 2238.87,191.663 2260.96,191.75 2283.04,191.864 2305.13,192.011 2327.22,192.193 
  2349.3,192.413 2371.39,192.672 2393.48,192.967 2415.57,193.295 2437.65,193.646 2459.74,194.008 2481.83,194.364 2503.92,194.691 2526,194.964 2548.09,195.153 
  2570.18,195.223 
  "/>
<polyline clip-path="url(#clip1002)" style="stroke:#c271d2; stroke-width:16; stroke-opacity:1; fill:none" points="
  361.434,191.079 383.521,191.079 405.609,350.014 427.696,443.774 449.784,454.908 471.871,417.881 493.959,365.896 516.046,323.04 538.134,299.92 560.221,296.434 
  582.309,306.254 604.396,321.102 626.483,333.451 648.571,338.014 670.658,332.318 692.746,316.643 714.833,293.454 736.921,266.61 759.008,240.641 781.096,219.985 
  803.183,208.542 825.271,209.057 847.358,223.041 869.445,250.331 891.533,289.244 913.62,336.495 935.708,387.203 957.795,435.779 979.883,474.967 1001.97,499.053 
  1024.06,500.388 1046.15,477.292 1068.23,426.153 1090.32,391.097 1112.41,360.698 1134.49,316.431 1156.58,284.053 1178.67,260.649 1200.76,243.676 1222.84,231.481 
  1244.93,222.654 1267.02,216.291 1289.11,211.65 1311.19,208.26 1333.28,205.747 1355.37,203.871 1377.46,202.446 1399.54,201.351 1421.63,200.489 1443.72,199.796 
  1465.81,199.221 1487.89,198.729 1509.98,198.291 1532.07,197.886 1554.16,197.501 1576.24,197.125 1598.33,196.753 1620.42,196.382 1642.51,196.014 1664.59,195.651 
  1686.68,195.297 1708.77,194.959 1730.86,194.64 1752.94,194.347 1775.03,194.083 1797.12,193.851 1819.21,193.654 1841.29,193.49 1863.38,193.359 1885.47,193.258 
  1907.56,193.183 1929.64,193.129 1951.73,193.093 1973.82,193.069 1995.91,193.052 2017.99,193.04 2040.08,193.028 2062.17,193.017 2084.26,193.004 2106.34,192.991 
  2128.43,192.98 2150.52,192.973 2172.61,192.974 2194.69,192.988 2216.78,193.02 2238.87,193.078 2260.96,193.166 2283.04,193.293 2305.13,193.465 2327.22,193.689 
  2349.3,193.971 2371.39,194.315 2393.48,194.723 2415.57,195.193 2437.65,195.716 2459.74,196.277 2481.83,196.849 2503.92,197.397 2526,197.869 2548.09,198.209 
  2570.18,198.341 
  "/>
<polyline clip-path="url(#clip1002)" style="stroke:#ac8d18; stroke-width:16; stroke-opacity:1; fill:none" points="
  361.434,191.079 383.521,191.079 405.609,232.951 427.696,289.375 449.784,346.968 471.871,399.099 493.959,441.223 516.046,470.653 538.134,486.087 560.221,487.664 
  582.309,476.782 604.396,455.828 626.483,427.627 648.571,395.099 670.658,360.918 692.746,327.361 714.833,296.178 736.921,268.591 759.008,245.301 781.096,226.585 
  803.183,212.348 825.271,202.254 847.358,195.768 869.445,192.274 891.533,191.096 913.62,191.594 935.708,193.154 957.795,195.259 979.883,197.469 1001.97,199.448 
  1024.06,200.963 1046.15,201.871 1068.23,202.142 1090.32,202.129 1112.41,201.729 1134.49,200.913 1156.58,199.944 1178.67,198.864 1200.76,197.721 1222.84,196.572 
  1244.93,195.468 1267.02,194.458 1289.11,193.579 1311.19,192.858 1333.28,192.308 1355.37,191.931 1377.46,191.72 1399.54,191.657 1421.63,191.718 1443.72,191.877 
  1465.81,192.103 1487.89,192.367 1509.98,192.642 1532.07,192.903 1554.16,193.131 1576.24,193.31 1598.33,193.432 1620.42,193.491 1642.51,193.488 1664.59,193.427 
  1686.68,193.314 1708.77,193.161 1730.86,192.978 1752.94,192.776 1775.03,192.568 1797.12,192.365 1819.21,192.174 1841.29,192.003 1863.38,191.857 1885.47,191.739 
  1907.56,191.649 1929.64,191.585 1951.73,191.544 1973.82,191.522 1995.91,191.513 2017.99,191.514 2040.08,191.517 2062.17,191.52 2084.26,191.518 2106.34,191.509 
  2128.43,191.49 2150.52,191.463 2172.61,191.428 2194.69,191.386 2216.78,191.341 2238.87,191.294 2260.96,191.251 2283.04,191.212 2305.13,191.182 2327.22,191.163 
  2349.3,191.155 2371.39,191.159 2393.48,191.176 2415.57,191.203 2437.65,191.238 2459.74,191.278 2481.83,191.32 2503.92,191.36 2526,191.392 2548.09,191.415 
  2570.18,191.423 
  "/>
<polyline clip-path="url(#clip1002)" style="stroke:#00a9ad; stroke-width:16; stroke-opacity:1; fill:none" points="
  361.434,191.079 383.521,191.079 405.609,283.799 427.696,403.642 449.784,511.422 471.871,589.332 493.959,631.152 516.046,638.525 538.134,617.119 560.221,574.853 
  582.309,520.073 604.396,460.296 626.483,401.428 648.571,347.596 670.658,301.283 692.746,263.623 714.833,234.745 736.921,214.093 759.008,200.71 781.096,193.428 
  803.183,191.025 825.271,192.308 847.358,196.175 869.445,201.636 891.533,207.828 913.62,214.012 935.708,219.568 957.795,223.983 979.883,226.863 1001.97,227.914 
  1024.06,226.984 1046.15,224.052 1068.23,219.326 1090.32,216.423 1112.41,213.024 1134.49,208.041 1156.58,204.193 1178.67,201.205 1200.76,198.872 1222.84,197.036 
  1244.93,195.586 1267.02,194.44 1289.11,193.54 1311.19,192.848 1333.28,192.333 1355.37,191.971 1377.46,191.743 1399.54,191.626 1421.63,191.602 1443.72,191.649 
  1465.81,191.747 1487.89,191.874 1509.98,192.012 1532.07,192.144 1554.16,192.255 1576.24,192.336 1598.33,192.378 1620.42,192.38 1642.51,192.342 1664.59,192.268 
  1686.68,192.164 1708.77,192.039 1730.86,191.901 1752.94,191.761 1775.03,191.628 1797.12,191.508 1819.21,191.409 1841.29,191.335 1863.38,191.288 1885.47,191.269 
  1907.56,191.275 1929.64,191.303 1951.73,191.349 1973.82,191.406 1995.91,191.469 2017.99,191.533 2040.08,191.591 2062.17,191.638 2084.26,191.672 2106.34,191.69 
  2128.43,191.691 2150.52,191.676 2172.61,191.644 2194.69,191.6 2216.78,191.545 2238.87,191.484 2260.96,191.42 2283.04,191.355 2305.13,191.295 2327.22,191.24 
  2349.3,191.194 2371.39,191.156 2393.48,191.128 2415.57,191.109 2437.65,191.099 2459.74,191.095 2481.83,191.095 2503.92,191.099 2526,191.103 2548.09,191.107 
  2570.18,191.108 
  "/>
<polyline clip-path="url(#clip1002)" style="stroke:#ed5d92; stroke-width:16; stroke-opacity:1; fill:none" points="
  361.434,191.079 383.521,191.079 405.609,211.685 427.696,237.191 449.784,258.082 471.871,270.656 493.959,274.716 516.046,271.81 538.134,263.999 560.221,253.346 
  582.309,241.602 604.396,230.089 626.483,219.699 648.571,210.941 670.658,204.029 692.746,198.953 714.833,195.554 736.921,193.588 759.008,192.771 781.096,192.817 
  803.183,193.459 825.271,194.461 847.358,195.624 869.445,196.785 891.533,197.815 913.62,198.611 935.708,199.092 957.795,199.2 979.883,198.896 1001.97,198.165 
  1024.06,197.03 1046.15,195.562 1068.23,193.916 1090.32,193.141 1112.41,192.354 1134.49,191.592 1156.58,191.319 1178.67,191.317 1200.76,191.432 1222.84,191.566 
  1244.93,191.663 1267.02,191.701 1289.11,191.682 1311.19,191.619 1333.28,191.536 1355.37,191.453 1377.46,191.39 1399.54,191.363 1421.63,191.378 1443.72,191.438 
  1465.81,191.536 1487.89,191.664 1509.98,191.81 1532.07,191.96 1554.16,192.1 1576.24,192.218 1598.33,192.305 1620.42,192.356 1642.51,192.366 1664.59,192.338 
  1686.68,192.275 1708.77,192.183 1730.86,192.071 1752.94,191.948 1775.03,191.822 1797.12,191.704 1819.21,191.599 1841.29,191.515 1863.38,191.455 1885.47,191.42 
  1907.56,191.411 1929.64,191.425 1951.73,191.458 1973.82,191.505 1995.91,191.561 2017.99,191.619 2040.08,191.674 2062.17,191.721 2084.26,191.756 2106.34,191.774 
  2128.43,191.776 2150.52,191.759 2172.61,191.726 2194.69,191.677 2216.78,191.616 2238.87,191.547 2260.96,191.472 2283.04,191.397 2305.13,191.325 2327.22,191.259 
  2349.3,191.202 2371.39,191.156 2393.48,191.122 2415.57,191.1 2437.65,191.089 2459.74,191.088 2481.83,191.093 2503.92,191.103 2526,191.113 2548.09,191.121 
  2570.18,191.125 
  "/>
<polyline clip-path="url(#clip1002)" style="stroke:#c68125; stroke-width:16; stroke-opacity:1; fill:none" points="
  361.434,191.079 383.521,191.079 405.609,405.323 427.696,626.481 449.784,791.248 471.871,898.887 493.959,953.018 516.046,962.39 538.134,935.283 560.221,880.615 
  582.309,806.942 604.396,722.34 626.483,633.821 648.571,547.135 670.658,466.666 692.746,395.443 714.833,335.302 736.921,287.008 759.008,250.534 781.096,225.183 
  803.183,209.867 825.271,203.162 847.358,203.531 869.445,209.292 891.533,218.763 913.62,230.199 935.708,241.859 957.795,252.018 979.883,258.964 1001.97,261.262 
  1024.06,257.646 1046.15,247.856 1068.23,232.393 1090.32,223.554 1112.41,214.168 1134.49,203.205 1156.58,197.158 1178.67,194.05 1200.76,192.589 1222.84,191.937 
  1244.93,191.632 1267.02,191.441 1289.11,191.29 1311.19,191.189 1333.28,191.182 1355.37,191.319 1377.46,191.636 1399.54,192.145 1421.63,192.834 1443.72,193.67 
  1465.81,194.607 1487.89,195.587 1509.98,196.552 1532.07,197.447 1554.16,198.223 1576.24,198.843 1598.33,199.282 1620.42,199.526 1642.51,199.575 1664.59,199.436 
  1686.68,199.129 1708.77,198.679 1730.86,198.115 1752.94,197.469 1775.03,196.774 1797.12,196.059 1819.21,195.354 1841.29,194.681 1863.38,194.06 1885.47,193.505 
  1907.56,193.023 1929.64,192.619 1951.73,192.291 1973.82,192.034 1995.91,191.841 2017.99,191.701 2040.08,191.603 2062.17,191.537 2084.26,191.491 2106.34,191.457 
  2128.43,191.427 2150.52,191.397 2172.61,191.364 2194.69,191.329 2216.78,191.296 2238.87,191.271 2260.96,191.261 2283.04,191.277 2305.13,191.328 2327.22,191.426 
  2349.3,191.58 2371.39,191.797 2393.48,192.079 2415.57,192.427 2437.65,192.831 2459.74,193.275 2481.83,193.734 2503.92,194.175 2526,194.554 2548.09,194.824 
  2570.18,194.929 
  "/>
<polyline clip-path="url(#clip1002)" style="stroke:#00a98d; stroke-width:16; stroke-opacity:1; fill:none" points="
  361.434,191.079 383.521,191.079 405.609,200.033 427.696,212.978 449.784,226.465 471.871,237.51 493.959,244.567 516.046,247.287 538.134,246.105 560.221,241.889 
  582.309,235.656 604.396,228.375 626.483,220.856 648.571,213.71 670.658,207.349 692.746,202.011 714.833,197.794 736.921,194.69 759.008,192.619 781.096,191.456 
  803.183,191.053 825.271,191.254 847.358,191.907 869.445,192.87 891.533,194.016 913.62,195.234 935.708,196.43 957.795,197.524 979.883,198.45 1001.97,199.156 
  1024.06,199.602 1046.15,199.761 1068.23,199.625 1090.32,199.457 1112.41,199.119 1134.49,198.491 1156.58,197.833 1178.67,197.155 1200.76,196.473 1222.84,195.801 
  1244.93,195.154 1267.02,194.547 1289.11,193.992 1311.19,193.499 1333.28,193.076 1355.37,192.725 1377.46,192.446 1399.54,192.235 1421.63,192.086 1443.72,191.988 
  1465.81,191.931 1487.89,191.902 1509.98,191.89 1532.07,191.884 1554.16,191.874 1576.24,191.853 1598.33,191.818 1620.42,191.764 1642.51,191.694 1664.59,191.61 
  1686.68,191.515 1708.77,191.417 1730.86,191.322 1752.94,191.235 1775.03,191.163 1797.12,191.111 1819.21,191.083 1841.29,191.079 1863.38,191.101 1885.47,191.147 
  1907.56,191.214 1929.64,191.298 1951.73,191.394 1973.82,191.496 1995.91,191.6 2017.99,191.698 2040.08,191.788 2062.17,191.864 2084.26,191.923 2106.34,191.965 
  2128.43,191.989 2150.52,191.994 2172.61,191.984 2194.69,191.959 2216.78,191.922 2238.87,191.878 2260.96,191.829 2283.04,191.777 2305.13,191.727 2327.22,191.678 
  2349.3,191.635 2371.39,191.597 2393.48,191.564 2415.57,191.538 2437.65,191.517 2459.74,191.501 2481.83,191.489 2503.92,191.481 2526,191.476 2548.09,191.473 
  2570.18,191.472 
  "/>
<polyline clip-path="url(#clip1002)" style="stroke:#8e971d; stroke-width:16; stroke-opacity:1; fill:none" points="
  361.434,191.079 383.521,191.079 405.609,662.862 427.696,920.632 449.784,972.764 471.871,912.721 493.959,794.121 516.046,655.291 538.134,521.341 560.221,406.186 
  582.309,315.829 604.396,251.294 626.483,210.95 648.571,191.866 670.658,190.705 692.746,204.107 714.833,228.969 736.921,262.461 759.008,302.073 781.096,345.54 
  803.183,390.807 825.271,435.973 847.358,479.208 869.445,518.762 891.533,552.813 913.62,579.631 935.708,597.302 957.795,604.196 979.883,598.473 1001.97,579.088 
  1024.06,544.925 1046.15,496.698 1068.23,435.648 1090.32,400.995 1112.41,366.757 1134.49,317.806 1156.58,282.027 1178.67,256.169 1200.76,237.648 1222.84,224.513 
  1244.93,215.251 1267.02,208.764 1289.11,204.234 1311.19,201.089 1333.28,198.915 1355.37,197.428 1377.46,196.427 1399.54,195.771 1421.63,195.361 1443.72,195.122 
  1465.81,194.998 1487.89,194.947 1509.98,194.934 1532.07,194.931 1554.16,194.919 1576.24,194.884 1598.33,194.815 1620.42,194.71 1642.51,194.569 1664.59,194.396 
  1686.68,194.198 1708.77,193.985 1730.86,193.764 1752.94,193.548 1775.03,193.343 1797.12,193.159 1819.21,193 1841.29,192.871 1863.38,192.773 1885.47,192.705 
  1907.56,192.665 1929.64,192.65 1951.73,192.654 1973.82,192.672 1995.91,192.7 2017.99,192.733 2040.08,192.767 2062.17,192.798 2084.26,192.827 2106.34,192.852 
  2128.43,192.876 2150.52,192.9 2172.61,192.928 2194.69,192.966 2216.78,193.019 2238.87,193.092 2260.96,193.191 2283.04,193.322 2305.13,193.491 2327.22,193.701 
  2349.3,193.956 2371.39,194.255 2393.48,194.6 2415.57,194.983 2437.65,195.398 2459.74,195.829 2481.83,196.259 2503.92,196.66 2526,197 2548.09,197.24 
  2570.18,197.33 
  "/>
<polyline clip-path="url(#clip1002)" style="stroke:#00a8cb; stroke-width:16; stroke-opacity:1; fill:none" points="
  361.434,191.079 383.521,191.079 405.609,251.792 427.696,375.528 449.784,518.463 471.871,645.06 493.959,739.079 516.046,798.752 538.134,828.309 560.221,836.379 
  582.309,831.577 604.396,821.195 626.483,810.143 648.571,801.271 670.658,795.595 692.746,792.771 714.833,791.543 736.921,790.127 759.008,786.715 781.096,779.818 
  803.183,768.451 825.271,752.217 847.358,731.229 869.445,706.031 891.533,677.422 913.62,646.355 935.708,613.787 957.795,580.602 979.883,547.566 1001.97,515.253 
  1024.06,484.11 1046.15,454.387 1068.23,426.576 1090.32,407.397 1112.41,392.607 1134.49,374.691 1156.58,357.992 1178.67,342.699 1200.76,328.702 1222.84,315.94 
  1244.93,304.284 1267.02,293.668 1289.11,283.979 1311.19,275.156 1333.28,267.11 1355.37,259.79 1377.46,253.124 1399.54,247.071 1421.63,241.573 1443.72,236.592 
  1465.81,232.081 1487.89,228.007 1509.98,224.328 1532.07,221.014 1554.16,218.03 1576.24,215.346 1598.33,212.934 1620.42,210.768 1642.51,208.823 1664.59,207.077 
  1686.68,205.509 1708.77,204.101 1730.86,202.837 1752.94,201.702 1775.03,200.681 1797.12,199.763 1819.21,198.937 1841.29,198.195 1863.38,197.526 1885.47,196.923 
  1907.56,196.38 1929.64,195.891 1951.73,195.449 1973.82,195.051 1995.91,194.691 2017.99,194.365 2040.08,194.071 2062.17,193.804 2084.26,193.562 2106.34,193.342 
  2128.43,193.142 2150.52,192.959 2172.61,192.792 2194.69,192.64 2216.78,192.5 2238.87,192.372 2260.96,192.255 2283.04,192.147 2305.13,192.048 2327.22,191.958 
  2349.3,191.875 2371.39,191.799 2393.48,191.73 2415.57,191.668 2437.65,191.612 2459.74,191.562 2481.83,191.519 2503.92,191.481 2526,191.45 2548.09,191.425 
  2570.18,191.414 
  "/>
<path clip-path="url(#clip1000)" d="
M2732.44 988.312 L3184.76 988.312 L3184.76 262.552 L2732.44 262.552  Z
  " fill="#ffffff" fill-rule="evenodd" fill-opacity="1"/>
<polyline clip-path="url(#clip1000)" style="stroke:#000000; stroke-width:4; stroke-opacity:1; fill:none" points="
  2732.44,988.312 3184.76,988.312 3184.76,262.552 2732.44,262.552 2732.44,988.312 
  "/>
<polyline clip-path="url(#clip1000)" style="stroke:#009af9; stroke-width:16; stroke-opacity:1; fill:none" points="
  2764.44,323.032 2956.44,323.032 
  "/>
<path clip-path="url(#clip1000)" d="M 0 0 M2988.44 299.272 L2994.87 299.272 L2994.87 341.381 L3018.01 341.381 L3018.01 346.792 L2988.44 346.792 L2988.44 299.272 Z" fill="#000000" fill-rule="evenodd" fill-opacity="1" /><path clip-path="url(#clip1000)" d="M 0 0 M3024.15 311.144 L3030.01 311.144 L3030.01 346.792 L3024.15 346.792 L3024.15 311.144 M3024.15 297.267 L3030.01 297.267 L3030.01 304.683 L3024.15 304.683 L3024.15 297.267 Z" fill="#000000" fill-rule="evenodd" fill-opacity="1" /><path clip-path="url(#clip1000)" d="M 0 0 M3054.2 297.267 L3054.2 302.137 L3048.6 302.137 Q3045.45 302.137 3044.21 303.41 Q3043 304.683 3043 307.993 L3043 311.144 L3052.64 311.144 L3052.64 315.696 L3043 315.696 L3043 346.792 L3037.11 346.792 L3037.11 315.696 L3031.51 315.696 L3031.51 311.144 L3037.11 311.144 L3037.11 308.662 Q3037.11 302.71 3039.88 300.004 Q3042.65 297.267 3048.66 297.267 L3054.2 297.267 Z" fill="#000000" fill-rule="evenodd" fill-opacity="1" /><path clip-path="url(#clip1000)" d="M 0 0 M3064.99 301.023 L3064.99 311.144 L3077.05 311.144 L3077.05 315.696 L3064.99 315.696 L3064.99 335.047 Q3064.99 339.408 3066.17 340.649 Q3067.38 341.891 3071.04 341.891 L3077.05 341.891 L3077.05 346.792 L3071.04 346.792 Q3064.26 346.792 3061.68 344.278 Q3059.1 341.731 3059.1 335.047 L3059.1 315.696 L3054.8 315.696 L3054.8 311.144 L3059.1 311.144 L3059.1 301.023 L3064.99 301.023 Z" fill="#000000" fill-rule="evenodd" fill-opacity="1" /><path clip-path="url(#clip1000)" d="M 0 0 M3105.86 341.381 L3116.36 341.381 L3116.36 305.129 L3104.93 307.42 L3104.93 301.564 L3116.3 299.272 L3122.73 299.272 L3122.73 341.381 L3133.23 341.381 L3133.23 346.792 L3105.86 346.792 L3105.86 341.381 Z" fill="#000000" fill-rule="evenodd" fill-opacity="1" /><polyline clip-path="url(#clip1000)" style="stroke:#e26f46; stroke-width:16; stroke-opacity:1; fill:none" points="
  2764.44,383.512 2956.44,383.512 
  "/>
<path clip-path="url(#clip1000)" d="M 0 0 M2988.44 359.752 L2994.87 359.752 L2994.87 401.861 L3018.01 401.861 L3018.01 407.272 L2988.44 407.272 L2988.44 359.752 Z" fill="#000000" fill-rule="evenodd" fill-opacity="1" /><path clip-path="url(#clip1000)" d="M 0 0 M3024.15 371.624 L3030.01 371.624 L3030.01 407.272 L3024.15 407.272 L3024.15 371.624 M3024.15 357.747 L3030.01 357.747 L3030.01 365.163 L3024.15 365.163 L3024.15 357.747 Z" fill="#000000" fill-rule="evenodd" fill-opacity="1" /><path clip-path="url(#clip1000)" d="M 0 0 M3054.2 357.747 L3054.2 362.617 L3048.6 362.617 Q3045.45 362.617 3044.21 363.89 Q3043 365.163 3043 368.473 L3043 371.624 L3052.64 371.624 L3052.64 376.176 L3043 376.176 L3043 407.272 L3037.11 407.272 L3037.11 376.176 L3031.51 376.176 L3031.51 371.624 L3037.11 371.624 L3037.11 369.142 Q3037.11 363.19 3039.88 360.484 Q3042.65 357.747 3048.66 357.747 L3054.2 357.747 Z" fill="#000000" fill-rule="evenodd" fill-opacity="1" /><path clip-path="url(#clip1000)" d="M 0 0 M3064.99 361.503 L3064.99 371.624 L3077.05 371.624 L3077.05 376.176 L3064.99 376.176 L3064.99 395.527 Q3064.99 399.888 3066.17 401.129 Q3067.38 402.371 3071.04 402.371 L3077.05 402.371 L3077.05 407.272 L3071.04 407.272 Q3064.26 407.272 3061.68 404.758 Q3059.1 402.211 3059.1 395.527 L3059.1 376.176 L3054.8 376.176 L3054.8 371.624 L3059.1 371.624 L3059.1 361.503 L3064.99 361.503 Z" fill="#000000" fill-rule="evenodd" fill-opacity="1" /><path clip-path="url(#clip1000)" d="M 0 0 M3110.28 401.861 L3132.72 401.861 L3132.72 407.272 L3102.55 407.272 L3102.55 401.861 Q3106.21 398.074 3112.51 391.708 Q3118.84 385.31 3120.47 383.464 Q3123.55 379.995 3124.76 377.608 Q3126 375.189 3126 372.865 Q3126 369.078 3123.33 366.691 Q3120.69 364.304 3116.42 364.304 Q3113.4 364.304 3110.03 365.354 Q3106.68 366.404 3102.87 368.537 L3102.87 362.044 Q3106.75 360.484 3110.12 359.688 Q3113.5 358.893 3116.3 358.893 Q3123.68 358.893 3128.07 362.585 Q3132.47 366.277 3132.47 372.452 Q3132.47 375.38 3131.35 378.022 Q3130.27 380.632 3127.37 384.196 Q3126.58 385.119 3122.31 389.544 Q3118.05 393.936 3110.28 401.861 Z" fill="#000000" fill-rule="evenodd" fill-opacity="1" /><polyline clip-path="url(#clip1000)" style="stroke:#3da44d; stroke-width:16; stroke-opacity:1; fill:none" points="
  2764.44,443.992 2956.44,443.992 
  "/>
<path clip-path="url(#clip1000)" d="M 0 0 M2988.44 420.232 L2994.87 420.232 L2994.87 462.341 L3018.01 462.341 L3018.01 467.752 L2988.44 467.752 L2988.44 420.232 Z" fill="#000000" fill-rule="evenodd" fill-opacity="1" /><path clip-path="url(#clip1000)" d="M 0 0 M3024.15 432.104 L3030.01 432.104 L3030.01 467.752 L3024.15 467.752 L3024.15 432.104 M3024.15 418.227 L3030.01 418.227 L3030.01 425.643 L3024.15 425.643 L3024.15 418.227 Z" fill="#000000" fill-rule="evenodd" fill-opacity="1" /><path clip-path="url(#clip1000)" d="M 0 0 M3054.2 418.227 L3054.2 423.097 L3048.6 423.097 Q3045.45 423.097 3044.21 424.37 Q3043 425.643 3043 428.953 L3043 432.104 L3052.64 432.104 L3052.64 436.656 L3043 436.656 L3043 467.752 L3037.11 467.752 L3037.11 436.656 L3031.51 436.656 L3031.51 432.104 L3037.11 432.104 L3037.11 429.622 Q3037.11 423.67 3039.88 420.964 Q3042.65 418.227 3048.66 418.227 L3054.2 418.227 Z" fill="#000000" fill-rule="evenodd" fill-opacity="1" /><path clip-path="url(#clip1000)" d="M 0 0 M3064.99 421.983 L3064.99 432.104 L3077.05 432.104 L3077.05 436.656 L3064.99 436.656 L3064.99 456.007 Q3064.99 460.368 3066.17 461.609 Q3067.38 462.851 3071.04 462.851 L3077.05 462.851 L3077.05 467.752 L3071.04 467.752 Q3064.26 467.752 3061.68 465.238 Q3059.1 462.691 3059.1 456.007 L3059.1 436.656 L3054.8 436.656 L3054.8 432.104 L3059.1 432.104 L3059.1 421.983 L3064.99 421.983 Z" fill="#000000" fill-rule="evenodd" fill-opacity="1" /><path clip-path="url(#clip1000)" d="M 0 0 M3124.22 442.13 Q3128.84 443.117 3131.42 446.236 Q3134.03 449.355 3134.03 453.939 Q3134.03 460.973 3129.19 464.824 Q3124.35 468.675 3115.44 468.675 Q3112.45 468.675 3109.26 468.07 Q3106.11 467.497 3102.74 466.32 L3102.74 460.113 Q3105.41 461.673 3108.59 462.469 Q3111.78 463.264 3115.25 463.264 Q3121.29 463.264 3124.45 460.877 Q3127.63 458.49 3127.63 453.939 Q3127.63 449.737 3124.67 447.382 Q3121.74 444.995 3116.49 444.995 L3110.95 444.995 L3110.95 439.711 L3116.74 439.711 Q3121.49 439.711 3124 437.833 Q3126.51 435.924 3126.51 432.359 Q3126.51 428.699 3123.9 426.757 Q3121.33 424.784 3116.49 424.784 Q3113.85 424.784 3110.82 425.357 Q3107.8 425.929 3104.17 427.139 L3104.17 421.41 Q3107.83 420.391 3111.01 419.882 Q3114.23 419.373 3117.06 419.373 Q3124.38 419.373 3128.65 422.715 Q3132.91 426.025 3132.91 431.69 Q3132.91 435.637 3130.65 438.374 Q3128.39 441.08 3124.22 442.13 Z" fill="#000000" fill-rule="evenodd" fill-opacity="1" /><polyline clip-path="url(#clip1000)" style="stroke:#c271d2; stroke-width:16; stroke-opacity:1; fill:none" points="
  2764.44,504.472 2956.44,504.472 
  "/>
<path clip-path="url(#clip1000)" d="M 0 0 M2988.44 480.712 L2994.87 480.712 L2994.87 522.821 L3018.01 522.821 L3018.01 528.232 L2988.44 528.232 L2988.44 480.712 Z" fill="#000000" fill-rule="evenodd" fill-opacity="1" /><path clip-path="url(#clip1000)" d="M 0 0 M3024.15 492.584 L3030.01 492.584 L3030.01 528.232 L3024.15 528.232 L3024.15 492.584 M3024.15 478.707 L3030.01 478.707 L3030.01 486.123 L3024.15 486.123 L3024.15 478.707 Z" fill="#000000" fill-rule="evenodd" fill-opacity="1" /><path clip-path="url(#clip1000)" d="M 0 0 M3054.2 478.707 L3054.2 483.577 L3048.6 483.577 Q3045.45 483.577 3044.21 484.85 Q3043 486.123 3043 489.433 L3043 492.584 L3052.64 492.584 L3052.64 497.136 L3043 497.136 L3043 528.232 L3037.11 528.232 L3037.11 497.136 L3031.51 497.136 L3031.51 492.584 L3037.11 492.584 L3037.11 490.102 Q3037.11 484.15 3039.88 481.444 Q3042.65 478.707 3048.66 478.707 L3054.2 478.707 Z" fill="#000000" fill-rule="evenodd" fill-opacity="1" /><path clip-path="url(#clip1000)" d="M 0 0 M3064.99 482.463 L3064.99 492.584 L3077.05 492.584 L3077.05 497.136 L3064.99 497.136 L3064.99 516.487 Q3064.99 520.848 3066.17 522.089 Q3067.38 523.331 3071.04 523.331 L3077.05 523.331 L3077.05 528.232 L3071.04 528.232 Q3064.26 528.232 3061.68 525.718 Q3059.1 523.171 3059.1 516.487 L3059.1 497.136 L3054.8 497.136 L3054.8 492.584 L3059.1 492.584 L3059.1 482.463 L3064.99 482.463 Z" fill="#000000" fill-rule="evenodd" fill-opacity="1" /><path clip-path="url(#clip1000)" d="M 0 0 M3122.41 486.314 L3106.18 511.681 L3122.41 511.681 L3122.41 486.314 M3120.72 480.712 L3128.81 480.712 L3128.81 511.681 L3135.59 511.681 L3135.59 517.028 L3128.81 517.028 L3128.81 528.232 L3122.41 528.232 L3122.41 517.028 L3100.96 517.028 L3100.96 510.822 L3120.72 480.712 Z" fill="#000000" fill-rule="evenodd" fill-opacity="1" /><polyline clip-path="url(#clip1000)" style="stroke:#ac8d18; stroke-width:16; stroke-opacity:1; fill:none" points="
  2764.44,564.952 2956.44,564.952 
  "/>
<path clip-path="url(#clip1000)" d="M 0 0 M2988.44 541.192 L2994.87 541.192 L2994.87 583.301 L3018.01 583.301 L3018.01 588.712 L2988.44 588.712 L2988.44 541.192 Z" fill="#000000" fill-rule="evenodd" fill-opacity="1" /><path clip-path="url(#clip1000)" d="M 0 0 M3024.15 553.064 L3030.01 553.064 L3030.01 588.712 L3024.15 588.712 L3024.15 553.064 M3024.15 539.187 L3030.01 539.187 L3030.01 546.603 L3024.15 546.603 L3024.15 539.187 Z" fill="#000000" fill-rule="evenodd" fill-opacity="1" /><path clip-path="url(#clip1000)" d="M 0 0 M3054.2 539.187 L3054.2 544.057 L3048.6 544.057 Q3045.45 544.057 3044.21 545.33 Q3043 546.603 3043 549.913 L3043 553.064 L3052.64 553.064 L3052.64 557.616 L3043 557.616 L3043 588.712 L3037.11 588.712 L3037.11 557.616 L3031.51 557.616 L3031.51 553.064 L3037.11 553.064 L3037.11 550.582 Q3037.11 544.63 3039.88 541.924 Q3042.65 539.187 3048.66 539.187 L3054.2 539.187 Z" fill="#000000" fill-rule="evenodd" fill-opacity="1" /><path clip-path="url(#clip1000)" d="M 0 0 M3064.99 542.943 L3064.99 553.064 L3077.05 553.064 L3077.05 557.616 L3064.99 557.616 L3064.99 576.967 Q3064.99 581.328 3066.17 582.569 Q3067.38 583.811 3071.04 583.811 L3077.05 583.811 L3077.05 588.712 L3071.04 588.712 Q3064.26 588.712 3061.68 586.198 Q3059.1 583.651 3059.1 576.967 L3059.1 557.616 L3054.8 557.616 L3054.8 553.064 L3059.1 553.064 L3059.1 542.943 L3064.99 542.943 Z" fill="#000000" fill-rule="evenodd" fill-opacity="1" /><path clip-path="url(#clip1000)" d="M 0 0 M3104.81 541.192 L3130.05 541.192 L3130.05 546.603 L3110.7 546.603 L3110.7 558.252 Q3112.1 557.775 3113.5 557.552 Q3114.9 557.297 3116.3 557.297 Q3124.25 557.297 3128.9 561.658 Q3133.55 566.018 3133.55 573.466 Q3133.55 581.137 3128.77 585.402 Q3124 589.635 3115.31 589.635 Q3112.32 589.635 3109.2 589.126 Q3106.11 588.617 3102.8 587.598 L3102.8 581.137 Q3105.67 582.697 3108.72 583.46 Q3111.78 584.224 3115.18 584.224 Q3120.69 584.224 3123.9 581.328 Q3127.12 578.432 3127.12 573.466 Q3127.12 568.501 3123.9 565.605 Q3120.69 562.708 3115.18 562.708 Q3112.6 562.708 3110.03 563.281 Q3107.48 563.854 3104.81 565.064 L3104.81 541.192 Z" fill="#000000" fill-rule="evenodd" fill-opacity="1" /><polyline clip-path="url(#clip1000)" style="stroke:#00a9ad; stroke-width:16; stroke-opacity:1; fill:none" points="
  2764.44,625.432 2956.44,625.432 
  "/>
<path clip-path="url(#clip1000)" d="M 0 0 M2988.44 601.672 L2994.87 601.672 L2994.87 643.781 L3018.01 643.781 L3018.01 649.192 L2988.44 649.192 L2988.44 601.672 Z" fill="#000000" fill-rule="evenodd" fill-opacity="1" /><path clip-path="url(#clip1000)" d="M 0 0 M3024.15 613.544 L3030.01 613.544 L3030.01 649.192 L3024.15 649.192 L3024.15 613.544 M3024.15 599.667 L3030.01 599.667 L3030.01 607.083 L3024.15 607.083 L3024.15 599.667 Z" fill="#000000" fill-rule="evenodd" fill-opacity="1" /><path clip-path="url(#clip1000)" d="M 0 0 M3054.2 599.667 L3054.2 604.537 L3048.6 604.537 Q3045.45 604.537 3044.21 605.81 Q3043 607.083 3043 610.393 L3043 613.544 L3052.64 613.544 L3052.64 618.096 L3043 618.096 L3043 649.192 L3037.11 649.192 L3037.11 618.096 L3031.51 618.096 L3031.51 613.544 L3037.11 613.544 L3037.11 611.062 Q3037.11 605.11 3039.88 602.404 Q3042.65 599.667 3048.66 599.667 L3054.2 599.667 Z" fill="#000000" fill-rule="evenodd" fill-opacity="1" /><path clip-path="url(#clip1000)" d="M 0 0 M3064.99 603.423 L3064.99 613.544 L3077.05 613.544 L3077.05 618.096 L3064.99 618.096 L3064.99 637.447 Q3064.99 641.808 3066.17 643.049 Q3067.38 644.291 3071.04 644.291 L3077.05 644.291 L3077.05 649.192 L3071.04 649.192 Q3064.26 649.192 3061.68 646.678 Q3059.1 644.131 3059.1 637.447 L3059.1 618.096 L3054.8 618.096 L3054.8 613.544 L3059.1 613.544 L3059.1 603.423 L3064.99 603.423 Z" fill="#000000" fill-rule="evenodd" fill-opacity="1" /><path clip-path="url(#clip1000)" d="M 0 0 M3119.29 622.87 Q3114.96 622.87 3112.41 625.83 Q3109.9 628.79 3109.9 633.946 Q3109.9 639.071 3112.41 642.063 Q3114.96 645.023 3119.29 645.023 Q3123.62 645.023 3126.13 642.063 Q3128.68 639.071 3128.68 633.946 Q3128.68 628.79 3126.13 625.83 Q3123.62 622.87 3119.29 622.87 M3132.05 602.722 L3132.05 608.579 Q3129.63 607.433 3127.15 606.828 Q3124.7 606.224 3122.28 606.224 Q3115.92 606.224 3112.54 610.52 Q3109.2 614.817 3108.72 623.506 Q3110.6 620.737 3113.43 619.273 Q3116.27 617.777 3119.67 617.777 Q3126.83 617.777 3130.97 622.138 Q3135.14 626.467 3135.14 633.946 Q3135.14 641.267 3130.81 645.691 Q3126.48 650.115 3119.29 650.115 Q3111.05 650.115 3106.68 643.813 Q3102.32 637.479 3102.32 625.48 Q3102.32 614.213 3107.67 607.529 Q3113.02 600.813 3122.03 600.813 Q3124.45 600.813 3126.9 601.29 Q3129.38 601.768 3132.05 602.722 Z" fill="#000000" fill-rule="evenodd" fill-opacity="1" /><polyline clip-path="url(#clip1000)" style="stroke:#ed5d92; stroke-width:16; stroke-opacity:1; fill:none" points="
  2764.44,685.912 2956.44,685.912 
  "/>
<path clip-path="url(#clip1000)" d="M 0 0 M2988.44 662.152 L2994.87 662.152 L2994.87 704.261 L3018.01 704.261 L3018.01 709.672 L2988.44 709.672 L2988.44 662.152 Z" fill="#000000" fill-rule="evenodd" fill-opacity="1" /><path clip-path="url(#clip1000)" d="M 0 0 M3024.15 674.024 L3030.01 674.024 L3030.01 709.672 L3024.15 709.672 L3024.15 674.024 M3024.15 660.147 L3030.01 660.147 L3030.01 667.563 L3024.15 667.563 L3024.15 660.147 Z" fill="#000000" fill-rule="evenodd" fill-opacity="1" /><path clip-path="url(#clip1000)" d="M 0 0 M3054.2 660.147 L3054.2 665.017 L3048.6 665.017 Q3045.45 665.017 3044.21 666.29 Q3043 667.563 3043 670.873 L3043 674.024 L3052.64 674.024 L3052.64 678.576 L3043 678.576 L3043 709.672 L3037.11 709.672 L3037.11 678.576 L3031.51 678.576 L3031.51 674.024 L3037.11 674.024 L3037.11 671.542 Q3037.11 665.59 3039.88 662.884 Q3042.65 660.147 3048.66 660.147 L3054.2 660.147 Z" fill="#000000" fill-rule="evenodd" fill-opacity="1" /><path clip-path="url(#clip1000)" d="M 0 0 M3064.99 663.903 L3064.99 674.024 L3077.05 674.024 L3077.05 678.576 L3064.99 678.576 L3064.99 697.927 Q3064.99 702.288 3066.17 703.529 Q3067.38 704.771 3071.04 704.771 L3077.05 704.771 L3077.05 709.672 L3071.04 709.672 Q3064.26 709.672 3061.68 707.158 Q3059.1 704.611 3059.1 697.927 L3059.1 678.576 L3054.8 678.576 L3054.8 674.024 L3059.1 674.024 L3059.1 663.903 L3064.99 663.903 Z" fill="#000000" fill-rule="evenodd" fill-opacity="1" /><path clip-path="url(#clip1000)" d="M 0 0 M3103.12 662.152 L3133.68 662.152 L3133.68 664.889 L3116.42 709.672 L3109.71 709.672 L3125.94 667.563 L3103.12 667.563 L3103.12 662.152 Z" fill="#000000" fill-rule="evenodd" fill-opacity="1" /><polyline clip-path="url(#clip1000)" style="stroke:#c68125; stroke-width:16; stroke-opacity:1; fill:none" points="
  2764.44,746.392 2956.44,746.392 
  "/>
<path clip-path="url(#clip1000)" d="M 0 0 M2988.44 722.632 L2994.87 722.632 L2994.87 764.741 L3018.01 764.741 L3018.01 770.152 L2988.44 770.152 L2988.44 722.632 Z" fill="#000000" fill-rule="evenodd" fill-opacity="1" /><path clip-path="url(#clip1000)" d="M 0 0 M3024.15 734.504 L3030.01 734.504 L3030.01 770.152 L3024.15 770.152 L3024.15 734.504 M3024.15 720.627 L3030.01 720.627 L3030.01 728.043 L3024.15 728.043 L3024.15 720.627 Z" fill="#000000" fill-rule="evenodd" fill-opacity="1" /><path clip-path="url(#clip1000)" d="M 0 0 M3054.2 720.627 L3054.2 725.497 L3048.6 725.497 Q3045.45 725.497 3044.21 726.77 Q3043 728.043 3043 731.353 L3043 734.504 L3052.64 734.504 L3052.64 739.056 L3043 739.056 L3043 770.152 L3037.11 770.152 L3037.11 739.056 L3031.51 739.056 L3031.51 734.504 L3037.11 734.504 L3037.11 732.022 Q3037.11 726.07 3039.88 723.364 Q3042.65 720.627 3048.66 720.627 L3054.2 720.627 Z" fill="#000000" fill-rule="evenodd" fill-opacity="1" /><path clip-path="url(#clip1000)" d="M 0 0 M3064.99 724.383 L3064.99 734.504 L3077.05 734.504 L3077.05 739.056 L3064.99 739.056 L3064.99 758.407 Q3064.99 762.768 3066.17 764.009 Q3067.38 765.251 3071.04 765.251 L3077.05 765.251 L3077.05 770.152 L3071.04 770.152 Q3064.26 770.152 3061.68 767.638 Q3059.1 765.091 3059.1 758.407 L3059.1 739.056 L3054.8 739.056 L3054.8 734.504 L3059.1 734.504 L3059.1 724.383 L3064.99 724.383 Z" fill="#000000" fill-rule="evenodd" fill-opacity="1" /><path clip-path="url(#clip1000)" d="M 0 0 M3118.49 747.586 Q3113.91 747.586 3111.27 750.036 Q3108.66 752.487 3108.66 756.784 Q3108.66 761.081 3111.27 763.532 Q3113.91 765.983 3118.49 765.983 Q3123.08 765.983 3125.72 763.532 Q3128.36 761.049 3128.36 756.784 Q3128.36 752.487 3125.72 750.036 Q3123.11 747.586 3118.49 747.586 M3112.06 744.848 Q3107.93 743.83 3105.6 740.997 Q3103.31 738.164 3103.31 734.09 Q3103.31 728.393 3107.35 725.083 Q3111.43 721.773 3118.49 721.773 Q3125.59 721.773 3129.63 725.083 Q3133.68 728.393 3133.68 734.09 Q3133.68 738.164 3131.35 740.997 Q3129.06 743.83 3124.95 744.848 Q3129.6 745.931 3132.18 749.082 Q3134.79 752.233 3134.79 756.784 Q3134.79 763.691 3130.56 767.383 Q3126.35 771.075 3118.49 771.075 Q3110.63 771.075 3106.4 767.383 Q3102.2 763.691 3102.2 756.784 Q3102.2 752.233 3104.81 749.082 Q3107.42 745.931 3112.06 744.848 M3109.71 734.695 Q3109.71 738.387 3112 740.456 Q3114.32 742.525 3118.49 742.525 Q3122.63 742.525 3124.95 740.456 Q3127.31 738.387 3127.31 734.695 Q3127.31 731.003 3124.95 728.934 Q3122.63 726.865 3118.49 726.865 Q3114.32 726.865 3112 728.934 Q3109.71 731.003 3109.71 734.695 Z" fill="#000000" fill-rule="evenodd" fill-opacity="1" /><polyline clip-path="url(#clip1000)" style="stroke:#00a98d; stroke-width:16; stroke-opacity:1; fill:none" points="
  2764.44,806.872 2956.44,806.872 
  "/>
<path clip-path="url(#clip1000)" d="M 0 0 M2988.44 783.112 L2994.87 783.112 L2994.87 825.221 L3018.01 825.221 L3018.01 830.632 L2988.44 830.632 L2988.44 783.112 Z" fill="#000000" fill-rule="evenodd" fill-opacity="1" /><path clip-path="url(#clip1000)" d="M 0 0 M3024.15 794.984 L3030.01 794.984 L3030.01 830.632 L3024.15 830.632 L3024.15 794.984 M3024.15 781.107 L3030.01 781.107 L3030.01 788.523 L3024.15 788.523 L3024.15 781.107 Z" fill="#000000" fill-rule="evenodd" fill-opacity="1" /><path clip-path="url(#clip1000)" d="M 0 0 M3054.2 781.107 L3054.2 785.977 L3048.6 785.977 Q3045.45 785.977 3044.21 787.25 Q3043 788.523 3043 791.833 L3043 794.984 L3052.64 794.984 L3052.64 799.536 L3043 799.536 L3043 830.632 L3037.11 830.632 L3037.11 799.536 L3031.51 799.536 L3031.51 794.984 L3037.11 794.984 L3037.11 792.502 Q3037.11 786.55 3039.88 783.844 Q3042.65 781.107 3048.66 781.107 L3054.2 781.107 Z" fill="#000000" fill-rule="evenodd" fill-opacity="1" /><path clip-path="url(#clip1000)" d="M 0 0 M3064.99 784.863 L3064.99 794.984 L3077.05 794.984 L3077.05 799.536 L3064.99 799.536 L3064.99 818.887 Q3064.99 823.248 3066.17 824.489 Q3067.38 825.731 3071.04 825.731 L3077.05 825.731 L3077.05 830.632 L3071.04 830.632 Q3064.26 830.632 3061.68 828.118 Q3059.1 825.571 3059.1 818.887 L3059.1 799.536 L3054.8 799.536 L3054.8 794.984 L3059.1 794.984 L3059.1 784.863 L3064.99 784.863 Z" fill="#000000" fill-rule="evenodd" fill-opacity="1" /><path clip-path="url(#clip1000)" d="M 0 0 M3104.93 829.645 L3104.93 823.789 Q3107.35 824.935 3109.84 825.54 Q3112.32 826.144 3114.71 826.144 Q3121.07 826.144 3124.41 821.879 Q3127.79 817.582 3128.26 808.861 Q3126.42 811.599 3123.59 813.063 Q3120.75 814.527 3117.32 814.527 Q3110.19 814.527 3106.02 810.23 Q3101.88 805.901 3101.88 798.422 Q3101.88 791.101 3106.21 786.677 Q3110.54 782.253 3117.73 782.253 Q3125.97 782.253 3130.3 788.587 Q3134.66 794.889 3134.66 806.92 Q3134.66 818.155 3129.31 824.871 Q3124 831.555 3114.99 831.555 Q3112.57 831.555 3110.09 831.078 Q3107.61 830.6 3104.93 829.645 M3117.73 809.498 Q3122.06 809.498 3124.57 806.538 Q3127.12 803.578 3127.12 798.422 Q3127.12 793.297 3124.57 790.337 Q3122.06 787.345 3117.73 787.345 Q3113.4 787.345 3110.85 790.337 Q3108.34 793.297 3108.34 798.422 Q3108.34 803.578 3110.85 806.538 Q3113.4 809.498 3117.73 809.498 Z" fill="#000000" fill-rule="evenodd" fill-opacity="1" /><polyline clip-path="url(#clip1000)" style="stroke:#8e971d; stroke-width:16; stroke-opacity:1; fill:none" points="
  2764.44,867.352 2956.44,867.352 
  "/>
<path clip-path="url(#clip1000)" d="M 0 0 M2988.44 843.592 L2994.87 843.592 L2994.87 885.701 L3018.01 885.701 L3018.01 891.112 L2988.44 891.112 L2988.44 843.592 Z" fill="#000000" fill-rule="evenodd" fill-opacity="1" /><path clip-path="url(#clip1000)" d="M 0 0 M3024.15 855.464 L3030.01 855.464 L3030.01 891.112 L3024.15 891.112 L3024.15 855.464 M3024.15 841.587 L3030.01 841.587 L3030.01 849.003 L3024.15 849.003 L3024.15 841.587 Z" fill="#000000" fill-rule="evenodd" fill-opacity="1" /><path clip-path="url(#clip1000)" d="M 0 0 M3054.2 841.587 L3054.2 846.457 L3048.6 846.457 Q3045.45 846.457 3044.21 847.73 Q3043 849.003 3043 852.313 L3043 855.464 L3052.64 855.464 L3052.64 860.016 L3043 860.016 L3043 891.112 L3037.11 891.112 L3037.11 860.016 L3031.51 860.016 L3031.51 855.464 L3037.11 855.464 L3037.11 852.982 Q3037.11 847.03 3039.88 844.324 Q3042.65 841.587 3048.66 841.587 L3054.2 841.587 Z" fill="#000000" fill-rule="evenodd" fill-opacity="1" /><path clip-path="url(#clip1000)" d="M 0 0 M3064.99 845.343 L3064.99 855.464 L3077.05 855.464 L3077.05 860.016 L3064.99 860.016 L3064.99 879.367 Q3064.99 883.728 3066.17 884.969 Q3067.38 886.211 3071.04 886.211 L3077.05 886.211 L3077.05 891.112 L3071.04 891.112 Q3064.26 891.112 3061.68 888.598 Q3059.1 886.051 3059.1 879.367 L3059.1 860.016 L3054.8 860.016 L3054.8 855.464 L3059.1 855.464 L3059.1 845.343 L3064.99 845.343 Z" fill="#000000" fill-rule="evenodd" fill-opacity="1" /><path clip-path="url(#clip1000)" d="M 0 0 M3105.86 885.701 L3116.36 885.701 L3116.36 849.449 L3104.93 851.74 L3104.93 845.884 L3116.3 843.592 L3122.73 843.592 L3122.73 885.701 L3133.23 885.701 L3133.23 891.112 L3105.86 891.112 L3105.86 885.701 Z" fill="#000000" fill-rule="evenodd" fill-opacity="1" /><path clip-path="url(#clip1000)" d="M 0 0 M3153.95 847.825 Q3148.98 847.825 3146.47 852.727 Q3143.99 857.597 3143.99 867.4 Q3143.99 877.171 3146.47 882.073 Q3148.98 886.943 3153.95 886.943 Q3158.95 886.943 3161.43 882.073 Q3163.94 877.171 3163.94 867.4 Q3163.94 857.597 3161.43 852.727 Q3158.95 847.825 3153.95 847.825 M3153.95 842.733 Q3161.94 842.733 3166.14 849.067 Q3170.37 855.369 3170.37 867.4 Q3170.37 879.399 3166.14 885.733 Q3161.94 892.035 3153.95 892.035 Q3145.96 892.035 3141.73 885.733 Q3137.53 879.399 3137.53 867.4 Q3137.53 855.369 3141.73 849.067 Q3145.96 842.733 3153.95 842.733 Z" fill="#000000" fill-rule="evenodd" fill-opacity="1" /><polyline clip-path="url(#clip1000)" style="stroke:#00a8cb; stroke-width:16; stroke-opacity:1; fill:none" points="
  2764.44,927.832 2956.44,927.832 
  "/>
<path clip-path="url(#clip1000)" d="M 0 0 M2988.44 904.072 L2994.87 904.072 L2994.87 946.181 L3018.01 946.181 L3018.01 951.592 L2988.44 951.592 L2988.44 904.072 Z" fill="#000000" fill-rule="evenodd" fill-opacity="1" /><path clip-path="url(#clip1000)" d="M 0 0 M3036.82 920.05 Q3032.11 920.05 3029.37 923.742 Q3026.64 927.402 3026.64 933.8 Q3026.64 940.198 3029.34 943.89 Q3032.08 947.55 3036.82 947.55 Q3041.5 947.55 3044.24 943.858 Q3046.97 940.166 3046.97 933.8 Q3046.97 927.466 3044.24 923.774 Q3041.5 920.05 3036.82 920.05 M3036.82 915.085 Q3044.46 915.085 3048.82 920.05 Q3053.18 925.015 3053.18 933.8 Q3053.18 942.553 3048.82 947.55 Q3044.46 952.515 3036.82 952.515 Q3029.15 952.515 3024.79 947.55 Q3020.46 942.553 3020.46 933.8 Q3020.46 925.015 3024.79 920.05 Q3029.15 915.085 3036.82 915.085 Z" fill="#000000" fill-rule="evenodd" fill-opacity="1" /><path clip-path="url(#clip1000)" d="M 0 0 M3075.52 933.673 Q3068.43 933.673 3065.69 935.296 Q3062.95 936.919 3062.95 940.834 Q3062.95 943.953 3064.99 945.799 Q3067.06 947.614 3070.59 947.614 Q3075.46 947.614 3078.39 944.176 Q3081.35 940.707 3081.35 934.978 L3081.35 933.673 L3075.52 933.673 M3087.21 931.254 L3087.21 951.592 L3081.35 951.592 L3081.35 946.181 Q3079.34 949.428 3076.35 950.987 Q3073.36 952.515 3069.03 952.515 Q3063.56 952.515 3060.31 949.46 Q3057.1 946.372 3057.1 941.216 Q3057.1 935.2 3061.11 932.145 Q3065.15 929.089 3073.14 929.089 L3081.35 929.089 L3081.35 928.516 Q3081.35 924.474 3078.68 922.278 Q3076.03 920.05 3071.23 920.05 Q3068.17 920.05 3065.28 920.782 Q3062.38 921.514 3059.71 922.978 L3059.71 917.567 Q3062.92 916.326 3065.94 915.721 Q3068.97 915.085 3071.83 915.085 Q3079.57 915.085 3083.39 919.095 Q3087.21 923.106 3087.21 931.254 Z" fill="#000000" fill-rule="evenodd" fill-opacity="1" /><path clip-path="url(#clip1000)" d="M 0 0 M3116.81 921.355 L3116.81 902.067 L3122.66 902.067 L3122.66 951.592 L3116.81 951.592 L3116.81 946.245 Q3114.96 949.428 3112.13 950.987 Q3109.33 952.515 3105.38 952.515 Q3098.92 952.515 3094.84 947.359 Q3090.8 942.203 3090.8 933.8 Q3090.8 925.397 3094.84 920.241 Q3098.92 915.085 3105.38 915.085 Q3109.33 915.085 3112.13 916.644 Q3114.96 918.172 3116.81 921.355 M3096.85 933.8 Q3096.85 940.261 3099.49 943.953 Q3102.17 947.614 3106.81 947.614 Q3111.46 947.614 3114.13 943.953 Q3116.81 940.261 3116.81 933.8 Q3116.81 927.339 3114.13 923.679 Q3111.46 919.986 3106.81 919.986 Q3102.17 919.986 3099.49 923.679 Q3096.85 927.339 3096.85 933.8 Z" fill="#000000" fill-rule="evenodd" fill-opacity="1" /></svg>
