<?xml version="1.0" encoding="utf-8"?>
<svg xmlns="http://www.w3.org/2000/svg" xmlns:xlink="http://www.w3.org/1999/xlink" width="800" height="600" viewBox="0 0 3200 2400">
<defs>
  <clipPath id="clip0100">
    <rect x="0" y="0" width="3200" height="2400"/>
  </clipPath>
</defs>
<path clip-path="url(#clip0100)" d="
M0 2400 L3200 2400 L3200 0 L0 0  Z
  " fill="#ffffff" fill-rule="evenodd" fill-opacity="1"/>
<defs>
  <clipPath id="clip0101">
    <rect x="640" y="0" width="2241" height="2241"/>
  </clipPath>
</defs>
<path clip-path="url(#clip0100)" d="
M225.723 2223.18 L2636.44 2223.18 L2636.44 123.472 L225.723 123.472  Z
  " fill="#ffffff" fill-rule="evenodd" fill-opacity="1"/>
<defs>
  <clipPath id="clip0102">
    <rect x="225" y="123" width="2412" height="2101"/>
  </clipPath>
</defs>
<polyline clip-path="url(#clip0102)" style="stroke:#000000; stroke-width:2; stroke-opacity:0.1; fill:none" points="
  293.951,2223.18 293.951,123.472 
  "/>
<polyline clip-path="url(#clip0102)" style="stroke:#000000; stroke-width:2; stroke-opacity:0.1; fill:none" points="
  748.803,2223.18 748.803,123.472 
  "/>
<polyline clip-path="url(#clip0102)" style="stroke:#000000; stroke-width:2; stroke-opacity:0.1; fill:none" points="
  1203.66,2223.18 1203.66,123.472 
  "/>
<polyline clip-path="url(#clip0102)" style="stroke:#000000; stroke-width:2; stroke-opacity:0.1; fill:none" points="
  1658.51,2223.18 1658.51,123.472 
  "/>
<polyline clip-path="url(#clip0102)" style="stroke:#000000; stroke-width:2; stroke-opacity:0.1; fill:none" points="
  2113.36,2223.18 2113.36,123.472 
  "/>
<polyline clip-path="url(#clip0102)" style="stroke:#000000; stroke-width:2; stroke-opacity:0.1; fill:none" points="
  2568.21,2223.18 2568.21,123.472 
  "/>
<polyline clip-path="url(#clip0102)" style="stroke:#000000; stroke-width:2; stroke-opacity:0.1; fill:none" points="
  225.723,2022.28 2636.44,2022.28 
  "/>
<polyline clip-path="url(#clip0102)" style="stroke:#000000; stroke-width:2; stroke-opacity:0.1; fill:none" points="
  225.723,1641.91 2636.44,1641.91 
  "/>
<polyline clip-path="url(#clip0102)" style="stroke:#000000; stroke-width:2; stroke-opacity:0.1; fill:none" points="
  225.723,1261.54 2636.44,1261.54 
  "/>
<polyline clip-path="url(#clip0102)" style="stroke:#000000; stroke-width:2; stroke-opacity:0.1; fill:none" points="
  225.723,881.169 2636.44,881.169 
  "/>
<polyline clip-path="url(#clip0102)" style="stroke:#000000; stroke-width:2; stroke-opacity:0.1; fill:none" points="
  225.723,500.798 2636.44,500.798 
  "/>
<polyline clip-path="url(#clip0100)" style="stroke:#000000; stroke-width:4; stroke-opacity:1; fill:none" points="
  225.723,2223.18 2636.44,2223.18 
  "/>
<polyline clip-path="url(#clip0100)" style="stroke:#000000; stroke-width:4; stroke-opacity:1; fill:none" points="
  225.723,2223.18 225.723,123.472 
  "/>
<polyline clip-path="url(#clip0100)" style="stroke:#000000; stroke-width:4; stroke-opacity:1; fill:none" points="
  293.951,2223.18 293.951,2197.98 
  "/>
<polyline clip-path="url(#clip0100)" style="stroke:#000000; stroke-width:4; stroke-opacity:1; fill:none" points="
  748.803,2223.18 748.803,2197.98 
  "/>
<polyline clip-path="url(#clip0100)" style="stroke:#000000; stroke-width:4; stroke-opacity:1; fill:none" points="
  1203.66,2223.18 1203.66,2197.98 
  "/>
<polyline clip-path="url(#clip0100)" style="stroke:#000000; stroke-width:4; stroke-opacity:1; fill:none" points="
  1658.51,2223.18 1658.51,2197.98 
  "/>
<polyline clip-path="url(#clip0100)" style="stroke:#000000; stroke-width:4; stroke-opacity:1; fill:none" points="
  2113.36,2223.18 2113.36,2197.98 
  "/>
<polyline clip-path="url(#clip0100)" style="stroke:#000000; stroke-width:4; stroke-opacity:1; fill:none" points="
  2568.21,2223.18 2568.21,2197.98 
  "/>
<polyline clip-path="url(#clip0100)" style="stroke:#000000; stroke-width:4; stroke-opacity:1; fill:none" points="
  225.723,2022.28 254.651,2022.28 
  "/>
<polyline clip-path="url(#clip0100)" style="stroke:#000000; stroke-width:4; stroke-opacity:1; fill:none" points="
  225.723,1641.91 254.651,1641.91 
  "/>
<polyline clip-path="url(#clip0100)" style="stroke:#000000; stroke-width:4; stroke-opacity:1; fill:none" points="
  225.723,1261.54 254.651,1261.54 
  "/>
<polyline clip-path="url(#clip0100)" style="stroke:#000000; stroke-width:4; stroke-opacity:1; fill:none" points="
  225.723,881.169 254.651,881.169 
  "/>
<polyline clip-path="url(#clip0100)" style="stroke:#000000; stroke-width:4; stroke-opacity:1; fill:none" points="
  225.723,500.798 254.651,500.798 
  "/>
<path clip-path="url(#clip0100)" d="M 0 0 M293.951 2249.17 Q290.34 2249.17 288.511 2252.74 Q286.705 2256.28 286.705 2263.41 Q286.705 2270.51 288.511 2274.08 Q290.34 2277.62 293.951 2277.62 Q297.585 2277.62 299.39 2274.08 Q301.219 2270.51 301.219 2263.41 Q301.219 2256.28 299.39 2252.74 Q297.585 2249.17 293.951 2249.17 M293.951 2245.47 Q299.761 2245.47 302.816 2250.07 Q305.895 2254.66 305.895 2263.41 Q305.895 2272.13 302.816 2276.74 Q299.761 2281.32 293.951 2281.32 Q288.14 2281.32 285.062 2276.74 Q282.006 2272.13 282.006 2263.41 Q282.006 2254.66 285.062 2250.07 Q288.14 2245.47 293.951 2245.47 Z" fill="#000000" fill-rule="evenodd" fill-opacity="1" /><path clip-path="url(#clip0100)" d="M 0 0 M739.185 2276.72 L746.824 2276.72 L746.824 2250.35 L738.514 2252.02 L738.514 2247.76 L746.778 2246.09 L751.454 2246.09 L751.454 2276.72 L759.093 2276.72 L759.093 2280.65 L739.185 2280.65 L739.185 2276.72 Z" fill="#000000" fill-rule="evenodd" fill-opacity="1" /><path clip-path="url(#clip0100)" d="M 0 0 M1198.31 2276.72 L1214.63 2276.72 L1214.63 2280.65 L1192.68 2280.65 L1192.68 2276.72 Q1195.35 2273.96 1199.93 2269.33 Q1204.54 2264.68 1205.72 2263.34 Q1207.96 2260.81 1208.84 2259.08 Q1209.74 2257.32 1209.74 2255.63 Q1209.74 2252.87 1207.8 2251.14 Q1205.88 2249.4 1202.78 2249.4 Q1200.58 2249.4 1198.12 2250.17 Q1195.69 2250.93 1192.92 2252.48 L1192.92 2247.76 Q1195.74 2246.62 1198.19 2246.05 Q1200.65 2245.47 1202.68 2245.47 Q1208.05 2245.47 1211.25 2248.15 Q1214.44 2250.84 1214.44 2255.33 Q1214.44 2257.46 1213.63 2259.38 Q1212.85 2261.28 1210.74 2263.87 Q1210.16 2264.54 1207.06 2267.76 Q1203.96 2270.95 1198.31 2276.72 Z" fill="#000000" fill-rule="evenodd" fill-opacity="1" /><path clip-path="url(#clip0100)" d="M 0 0 M1662.76 2262.02 Q1666.11 2262.74 1667.99 2265 Q1669.89 2267.27 1669.89 2270.61 Q1669.89 2275.72 1666.37 2278.52 Q1662.85 2281.32 1656.37 2281.32 Q1654.19 2281.32 1651.88 2280.88 Q1649.59 2280.47 1647.13 2279.61 L1647.13 2275.1 Q1649.08 2276.23 1651.39 2276.81 Q1653.71 2277.39 1656.23 2277.39 Q1660.63 2277.39 1662.92 2275.65 Q1665.23 2273.92 1665.23 2270.61 Q1665.23 2267.55 1663.08 2265.84 Q1660.95 2264.1 1657.13 2264.1 L1653.1 2264.1 L1653.1 2260.26 L1657.32 2260.26 Q1660.77 2260.26 1662.59 2258.89 Q1664.42 2257.5 1664.42 2254.91 Q1664.42 2252.25 1662.52 2250.84 Q1660.65 2249.4 1657.13 2249.4 Q1655.21 2249.4 1653.01 2249.82 Q1650.81 2250.24 1648.17 2251.11 L1648.17 2246.95 Q1650.84 2246.21 1653.15 2245.84 Q1655.49 2245.47 1657.55 2245.47 Q1662.87 2245.47 1665.97 2247.9 Q1669.08 2250.3 1669.08 2254.43 Q1669.08 2257.3 1667.43 2259.29 Q1665.79 2261.25 1662.76 2262.02 Z" fill="#000000" fill-rule="evenodd" fill-opacity="1" /><path clip-path="url(#clip0100)" d="M 0 0 M2116.37 2250.17 L2104.56 2268.61 L2116.37 2268.61 L2116.37 2250.17 M2115.14 2246.09 L2121.02 2246.09 L2121.02 2268.61 L2125.95 2268.61 L2125.95 2272.5 L2121.02 2272.5 L2121.02 2280.65 L2116.37 2280.65 L2116.37 2272.5 L2100.77 2272.5 L2100.77 2267.99 L2115.14 2246.09 Z" fill="#000000" fill-rule="evenodd" fill-opacity="1" /><path clip-path="url(#clip0100)" d="M 0 0 M2558.49 2246.09 L2576.85 2246.09 L2576.85 2250.03 L2562.77 2250.03 L2562.77 2258.5 Q2563.79 2258.15 2564.81 2257.99 Q2565.83 2257.8 2566.85 2257.8 Q2572.64 2257.8 2576.01 2260.98 Q2579.39 2264.15 2579.39 2269.56 Q2579.39 2275.14 2575.92 2278.24 Q2572.45 2281.32 2566.13 2281.32 Q2563.95 2281.32 2561.69 2280.95 Q2559.44 2280.58 2557.03 2279.84 L2557.03 2275.14 Q2559.12 2276.28 2561.34 2276.83 Q2563.56 2277.39 2566.04 2277.39 Q2570.04 2277.39 2572.38 2275.28 Q2574.72 2273.18 2574.72 2269.56 Q2574.72 2265.95 2572.38 2263.85 Q2570.04 2261.74 2566.04 2261.74 Q2564.16 2261.74 2562.29 2262.16 Q2560.44 2262.57 2558.49 2263.45 L2558.49 2246.09 Z" fill="#000000" fill-rule="evenodd" fill-opacity="1" /><path clip-path="url(#clip0100)" d="M 0 0 M118.492 2024.68 L130.968 2024.68 L130.968 2028.47 L118.492 2028.47 L118.492 2024.68 Z" fill="#000000" fill-rule="evenodd" fill-opacity="1" /><path clip-path="url(#clip0100)" d="M 0 0 M136.848 2035.63 L144.487 2035.63 L144.487 2009.26 L136.177 2010.93 L136.177 2006.67 L144.441 2005 L149.116 2005 L149.116 2035.63 L156.755 2035.63 L156.755 2039.56 L136.848 2039.56 L136.848 2035.63 Z" fill="#000000" fill-rule="evenodd" fill-opacity="1" /><path clip-path="url(#clip0100)" d="M 0 0 M161.825 2033.68 L166.709 2033.68 L166.709 2039.56 L161.825 2039.56 L161.825 2033.68 Z" fill="#000000" fill-rule="evenodd" fill-opacity="1" /><path clip-path="url(#clip0100)" d="M 0 0 M181.778 2008.08 Q178.167 2008.08 176.339 2011.64 Q174.533 2015.19 174.533 2022.32 Q174.533 2029.42 176.339 2032.99 Q178.167 2036.53 181.778 2036.53 Q185.413 2036.53 187.218 2032.99 Q189.047 2029.42 189.047 2022.32 Q189.047 2015.19 187.218 2011.64 Q185.413 2008.08 181.778 2008.08 M181.778 2004.38 Q187.588 2004.38 190.644 2008.98 Q193.723 2013.57 193.723 2022.32 Q193.723 2031.04 190.644 2035.65 Q187.588 2040.23 181.778 2040.23 Q175.968 2040.23 172.889 2035.65 Q169.834 2031.04 169.834 2022.32 Q169.834 2013.57 172.889 2008.98 Q175.968 2004.38 181.778 2004.38 Z" fill="#000000" fill-rule="evenodd" fill-opacity="1" /><path clip-path="url(#clip0100)" d="M 0 0 M118.26 1644.31 L130.737 1644.31 L130.737 1648.1 L118.26 1648.1 L118.26 1644.31 Z" fill="#000000" fill-rule="evenodd" fill-opacity="1" /><path clip-path="url(#clip0100)" d="M 0 0 M145.806 1627.71 Q142.195 1627.71 140.367 1631.27 Q138.561 1634.82 138.561 1641.95 Q138.561 1649.05 140.367 1652.62 Q142.195 1656.16 145.806 1656.16 Q149.441 1656.16 151.246 1652.62 Q153.075 1649.05 153.075 1641.95 Q153.075 1634.82 151.246 1631.27 Q149.441 1627.71 145.806 1627.71 M145.806 1624.01 Q151.616 1624.01 154.672 1628.61 Q157.751 1633.2 157.751 1641.95 Q157.751 1650.67 154.672 1655.28 Q151.616 1659.86 145.806 1659.86 Q139.996 1659.86 136.917 1655.28 Q133.862 1650.67 133.862 1641.95 Q133.862 1633.2 136.917 1628.61 Q139.996 1624.01 145.806 1624.01 Z" fill="#000000" fill-rule="evenodd" fill-opacity="1" /><path clip-path="url(#clip0100)" d="M 0 0 M162.82 1653.31 L167.704 1653.31 L167.704 1659.19 L162.82 1659.19 L162.82 1653.31 Z" fill="#000000" fill-rule="evenodd" fill-opacity="1" /><path clip-path="url(#clip0100)" d="M 0 0 M172.82 1624.63 L191.176 1624.63 L191.176 1628.57 L177.102 1628.57 L177.102 1637.04 Q178.121 1636.69 179.139 1636.53 Q180.158 1636.34 181.176 1636.34 Q186.963 1636.34 190.343 1639.51 Q193.723 1642.69 193.723 1648.1 Q193.723 1653.68 190.251 1656.78 Q186.778 1659.86 180.459 1659.86 Q178.283 1659.86 176.014 1659.49 Q173.769 1659.12 171.362 1658.38 L171.362 1653.68 Q173.445 1654.82 175.667 1655.37 Q177.889 1655.93 180.366 1655.93 Q184.371 1655.93 186.709 1653.82 Q189.047 1651.71 189.047 1648.1 Q189.047 1644.49 186.709 1642.38 Q184.371 1640.28 180.366 1640.28 Q178.491 1640.28 176.616 1640.7 Q174.764 1641.11 172.82 1641.99 L172.82 1624.63 Z" fill="#000000" fill-rule="evenodd" fill-opacity="1" /><path clip-path="url(#clip0100)" d="M 0 0 M144.811 1247.34 Q141.2 1247.34 139.371 1250.9 Q137.566 1254.44 137.566 1261.57 Q137.566 1268.68 139.371 1272.25 Q141.2 1275.79 144.811 1275.79 Q148.445 1275.79 150.251 1272.25 Q152.079 1268.68 152.079 1261.57 Q152.079 1254.44 150.251 1250.9 Q148.445 1247.34 144.811 1247.34 M144.811 1243.63 Q150.621 1243.63 153.677 1248.24 Q156.755 1252.82 156.755 1261.57 Q156.755 1270.3 153.677 1274.91 Q150.621 1279.49 144.811 1279.49 Q139.001 1279.49 135.922 1274.91 Q132.867 1270.3 132.867 1261.57 Q132.867 1252.82 135.922 1248.24 Q139.001 1243.63 144.811 1243.63 Z" fill="#000000" fill-rule="evenodd" fill-opacity="1" /><path clip-path="url(#clip0100)" d="M 0 0 M161.825 1272.94 L166.709 1272.94 L166.709 1278.82 L161.825 1278.82 L161.825 1272.94 Z" fill="#000000" fill-rule="evenodd" fill-opacity="1" /><path clip-path="url(#clip0100)" d="M 0 0 M181.778 1247.34 Q178.167 1247.34 176.339 1250.9 Q174.533 1254.44 174.533 1261.57 Q174.533 1268.68 176.339 1272.25 Q178.167 1275.79 181.778 1275.79 Q185.413 1275.79 187.218 1272.25 Q189.047 1268.68 189.047 1261.57 Q189.047 1254.44 187.218 1250.9 Q185.413 1247.34 181.778 1247.34 M181.778 1243.63 Q187.588 1243.63 190.644 1248.24 Q193.723 1252.82 193.723 1261.57 Q193.723 1270.3 190.644 1274.91 Q187.588 1279.49 181.778 1279.49 Q175.968 1279.49 172.889 1274.91 Q169.834 1270.3 169.834 1261.57 Q169.834 1252.82 172.889 1248.24 Q175.968 1243.63 181.778 1243.63 Z" fill="#000000" fill-rule="evenodd" fill-opacity="1" /><path clip-path="url(#clip0100)" d="M 0 0 M145.806 866.967 Q142.195 866.967 140.367 870.532 Q138.561 874.074 138.561 881.203 Q138.561 888.31 140.367 891.875 Q142.195 895.416 145.806 895.416 Q149.441 895.416 151.246 891.875 Q153.075 888.31 153.075 881.203 Q153.075 874.074 151.246 870.532 Q149.441 866.967 145.806 866.967 M145.806 863.264 Q151.616 863.264 154.672 867.87 Q157.751 872.454 157.751 881.203 Q157.751 889.93 154.672 894.537 Q151.616 899.12 145.806 899.12 Q139.996 899.12 136.917 894.537 Q133.862 889.93 133.862 881.203 Q133.862 872.454 136.917 867.87 Q139.996 863.264 145.806 863.264 Z" fill="#000000" fill-rule="evenodd" fill-opacity="1" /><path clip-path="url(#clip0100)" d="M 0 0 M162.82 892.569 L167.704 892.569 L167.704 898.449 L162.82 898.449 L162.82 892.569 Z" fill="#000000" fill-rule="evenodd" fill-opacity="1" /><path clip-path="url(#clip0100)" d="M 0 0 M172.82 863.889 L191.176 863.889 L191.176 867.824 L177.102 867.824 L177.102 876.296 Q178.121 875.949 179.139 875.787 Q180.158 875.602 181.176 875.602 Q186.963 875.602 190.343 878.773 Q193.723 881.944 193.723 887.361 Q193.723 892.94 190.251 896.041 Q186.778 899.12 180.459 899.12 Q178.283 899.12 176.014 898.75 Q173.769 898.379 171.362 897.639 L171.362 892.94 Q173.445 894.074 175.667 894.629 Q177.889 895.185 180.366 895.185 Q184.371 895.185 186.709 893.078 Q189.047 890.972 189.047 887.361 Q189.047 883.75 186.709 881.643 Q184.371 879.537 180.366 879.537 Q178.491 879.537 176.616 879.953 Q174.764 880.37 172.82 881.25 L172.82 863.889 Z" fill="#000000" fill-rule="evenodd" fill-opacity="1" /><path clip-path="url(#clip0100)" d="M 0 0 M136.848 514.143 L144.487 514.143 L144.487 487.777 L136.177 489.444 L136.177 485.185 L144.441 483.518 L149.116 483.518 L149.116 514.143 L156.755 514.143 L156.755 518.078 L136.848 518.078 L136.848 514.143 Z" fill="#000000" fill-rule="evenodd" fill-opacity="1" /><path clip-path="url(#clip0100)" d="M 0 0 M161.825 512.198 L166.709 512.198 L166.709 518.078 L161.825 518.078 L161.825 512.198 Z" fill="#000000" fill-rule="evenodd" fill-opacity="1" /><path clip-path="url(#clip0100)" d="M 0 0 M181.778 486.597 Q178.167 486.597 176.339 490.161 Q174.533 493.703 174.533 500.833 Q174.533 507.939 176.339 511.504 Q178.167 515.046 181.778 515.046 Q185.413 515.046 187.218 511.504 Q189.047 507.939 189.047 500.833 Q189.047 493.703 187.218 490.161 Q185.413 486.597 181.778 486.597 M181.778 482.893 Q187.588 482.893 190.644 487.499 Q193.723 492.083 193.723 500.833 Q193.723 509.559 190.644 514.166 Q187.588 518.749 181.778 518.749 Q175.968 518.749 172.889 514.166 Q169.834 509.559 169.834 500.833 Q169.834 492.083 172.889 487.499 Q175.968 482.893 181.778 482.893 Z" fill="#000000" fill-rule="evenodd" fill-opacity="1" /><path clip-path="url(#clip0100)" d="M 0 0 M893.142 45.1919 L893.142 72.576 L885.689 72.576 L885.689 45.4349 Q885.689 38.994 883.177 35.7938 Q880.666 32.5936 875.643 32.5936 Q869.607 32.5936 866.123 36.4419 Q862.639 40.2903 862.639 46.9338 L862.639 72.576 L855.145 72.576 L855.145 9.54393 L862.639 9.54393 L862.639 34.2544 Q865.313 30.163 868.918 28.1376 Q872.564 26.1121 877.303 26.1121 Q885.122 26.1121 889.132 30.9732 Q893.142 35.7938 893.142 45.1919 Z" fill="#000000" fill-rule="evenodd" fill-opacity="1" /><path clip-path="url(#clip0100)" d="M 0 0 M918.542 32.4315 Q912.546 32.4315 909.062 37.1306 Q905.579 41.7891 905.579 49.9314 Q905.579 58.0738 909.022 62.7728 Q912.506 67.4314 918.542 67.4314 Q924.496 67.4314 927.98 62.7323 Q931.464 58.0333 931.464 49.9314 Q931.464 41.8701 927.98 37.1711 Q924.496 32.4315 918.542 32.4315 M918.542 26.1121 Q928.264 26.1121 933.814 32.4315 Q939.363 38.7509 939.363 49.9314 Q939.363 61.0714 933.814 67.4314 Q928.264 73.7508 918.542 73.7508 Q908.779 73.7508 903.229 67.4314 Q897.72 61.0714 897.72 49.9314 Q897.72 38.7509 903.229 32.4315 Q908.779 26.1121 918.542 26.1121 Z" fill="#000000" fill-rule="evenodd" fill-opacity="1" /><path clip-path="url(#clip0100)" d="M 0 0 M941.834 27.2059 L949.734 27.2059 L963.912 65.2844 L978.09 27.2059 L985.989 27.2059 L968.975 72.576 L958.848 72.576 L941.834 27.2059 Z" fill="#000000" fill-rule="evenodd" fill-opacity="1" /><path clip-path="url(#clip0100)" d="M 0 0 M1032.62 48.0275 L1032.62 51.6733 L998.344 51.6733 Q998.831 59.3701 1002.96 63.421 Q1007.13 67.4314 1014.55 67.4314 Q1018.84 67.4314 1022.85 66.3781 Q1026.9 65.3249 1030.87 63.2184 L1030.87 70.267 Q1026.86 71.9684 1022.65 72.8596 Q1018.44 73.7508 1014.1 73.7508 Q1003.25 73.7508 996.886 67.4314 Q990.567 61.1119 990.567 50.3365 Q990.567 39.1965 996.562 32.6746 Q1002.6 26.1121 1012.81 26.1121 Q1021.96 26.1121 1027.27 32.0264 Q1032.62 37.9003 1032.62 48.0275 M1025.16 45.84 Q1025.08 39.7232 1021.72 36.0774 Q1018.4 32.4315 1012.89 32.4315 Q1006.65 32.4315 1002.88 35.9558 Q999.155 39.4801 998.587 45.8805 L1025.16 45.84 Z" fill="#000000" fill-rule="evenodd" fill-opacity="1" /><path clip-path="url(#clip0100)" d="M 0 0 M1066.72 34.1734 Q1065.47 33.4443 1063.97 33.1202 Q1062.51 32.7556 1060.73 32.7556 Q1054.41 32.7556 1051.01 36.8875 Q1047.64 40.9789 1047.64 48.6757 L1047.64 72.576 L1040.15 72.576 L1040.15 27.2059 L1047.64 27.2059 L1047.64 34.2544 Q1049.99 30.1225 1053.76 28.1376 Q1057.53 26.1121 1062.92 26.1121 Q1063.69 26.1121 1064.62 26.2337 Q1065.55 26.3147 1066.68 26.5172 L1066.72 34.1734 Z" fill="#000000" fill-rule="evenodd" fill-opacity="1" /><path clip-path="url(#clip0100)" d="M 0 0 M1065.47 46.5287 L1087.3 46.5287 L1087.3 53.1722 L1065.47 53.1722 L1065.47 46.5287 Z" fill="#000000" fill-rule="evenodd" fill-opacity="1" /><path clip-path="url(#clip0100)" d="M 0 0 M1097.59 65.6895 L1110.96 65.6895 L1110.96 19.5497 L1096.42 22.4663 L1096.42 15.0127 L1110.88 12.096 L1119.06 12.096 L1119.06 65.6895 L1132.43 65.6895 L1132.43 72.576 L1097.59 72.576 L1097.59 65.6895 Z" fill="#000000" fill-rule="evenodd" fill-opacity="1" /><path clip-path="url(#clip0100)" d="M 0 0 M1158.8 17.4837 Q1152.48 17.4837 1149.28 23.7221 Q1146.12 29.92 1146.12 42.3968 Q1146.12 54.833 1149.28 61.0714 Q1152.48 67.2693 1158.8 67.2693 Q1165.16 67.2693 1168.32 61.0714 Q1171.52 54.833 1171.52 42.3968 Q1171.52 29.92 1168.32 23.7221 Q1165.16 17.4837 1158.8 17.4837 M1158.8 11.0023 Q1168.97 11.0023 1174.32 19.0636 Q1179.7 27.0843 1179.7 42.3968 Q1179.7 57.6687 1174.32 65.73 Q1168.97 73.7508 1158.8 73.7508 Q1148.63 73.7508 1143.25 65.73 Q1137.9 57.6687 1137.9 42.3968 Q1137.9 27.0843 1143.25 19.0636 Q1148.63 11.0023 1158.8 11.0023 Z" fill="#000000" fill-rule="evenodd" fill-opacity="1" /><path clip-path="url(#clip0100)" d="M 0 0 M1210.13 46.5287 L1231.96 46.5287 L1231.96 53.1722 L1210.13 53.1722 L1210.13 46.5287 Z" fill="#000000" fill-rule="evenodd" fill-opacity="1" /><path clip-path="url(#clip0100)" d="M 0 0 M1286.69 20.1573 L1275.59 50.2555 L1297.83 50.2555 L1286.69 20.1573 M1282.07 12.096 L1291.35 12.096 L1314.4 72.576 L1305.89 72.576 L1300.38 57.061 L1273.12 57.061 L1267.61 72.576 L1258.98 72.576 L1282.07 12.096 Z" fill="#000000" fill-rule="evenodd" fill-opacity="1" /><path clip-path="url(#clip0100)" d="M 0 0 M1352.07 49.3643 Q1352.07 41.2625 1348.71 36.8065 Q1345.39 32.3505 1339.35 32.3505 Q1333.35 32.3505 1329.99 36.8065 Q1326.67 41.2625 1326.67 49.3643 Q1326.67 57.4256 1329.99 61.8816 Q1333.35 66.3376 1339.35 66.3376 Q1345.39 66.3376 1348.71 61.8816 Q1352.07 57.4256 1352.07 49.3643 M1359.52 66.9452 Q1359.52 78.5308 1354.38 84.1616 Q1349.23 89.8329 1338.62 89.8329 Q1334.69 89.8329 1331.21 89.2252 Q1327.72 88.6581 1324.44 87.4428 L1324.44 80.1917 Q1327.72 81.9741 1330.92 82.8248 Q1334.12 83.6755 1337.45 83.6755 Q1344.78 83.6755 1348.42 79.8271 Q1352.07 76.0193 1352.07 68.282 L1352.07 64.5957 Q1349.76 68.6061 1346.16 70.5911 Q1342.55 72.576 1337.53 72.576 Q1329.18 72.576 1324.08 66.2161 Q1318.97 59.8562 1318.97 49.3643 Q1318.97 38.832 1324.08 32.472 Q1329.18 26.1121 1337.53 26.1121 Q1342.55 26.1121 1346.16 28.0971 Q1349.76 30.082 1352.07 34.0924 L1352.07 27.2059 L1359.52 27.2059 L1359.52 66.9452 Z" fill="#000000" fill-rule="evenodd" fill-opacity="1" /><path clip-path="url(#clip0100)" d="M 0 0 M1406.15 48.0275 L1406.15 51.6733 L1371.88 51.6733 Q1372.36 59.3701 1376.5 63.421 Q1380.67 67.4314 1388.08 67.4314 Q1392.38 67.4314 1396.39 66.3781 Q1400.44 65.3249 1404.41 63.2184 L1404.41 70.267 Q1400.4 71.9684 1396.18 72.8596 Q1391.97 73.7508 1387.64 73.7508 Q1376.78 73.7508 1370.42 67.4314 Q1364.1 61.1119 1364.1 50.3365 Q1364.1 39.1965 1370.1 32.6746 Q1376.13 26.1121 1386.34 26.1121 Q1395.5 26.1121 1400.8 32.0264 Q1406.15 37.9003 1406.15 48.0275 M1398.7 45.84 Q1398.61 39.7232 1395.25 36.0774 Q1391.93 32.4315 1386.42 32.4315 Q1380.18 32.4315 1376.42 35.9558 Q1372.69 39.4801 1372.12 45.8805 L1398.7 45.84 Z" fill="#000000" fill-rule="evenodd" fill-opacity="1" /><path clip-path="url(#clip0100)" d="M 0 0 M1451.68 45.1919 L1451.68 72.576 L1444.23 72.576 L1444.23 45.4349 Q1444.23 38.994 1441.72 35.7938 Q1439.2 32.5936 1434.18 32.5936 Q1428.15 32.5936 1424.66 36.4419 Q1421.18 40.2903 1421.18 46.9338 L1421.18 72.576 L1413.68 72.576 L1413.68 27.2059 L1421.18 27.2059 L1421.18 34.2544 Q1423.85 30.163 1427.46 28.1376 Q1431.1 26.1121 1435.84 26.1121 Q1443.66 26.1121 1447.67 30.9732 Q1451.68 35.7938 1451.68 45.1919 Z" fill="#000000" fill-rule="evenodd" fill-opacity="1" /><path clip-path="url(#clip0100)" d="M 0 0 M1466.87 14.324 L1466.87 27.2059 L1482.22 27.2059 L1482.22 32.9987 L1466.87 32.9987 L1466.87 57.6282 Q1466.87 63.1779 1468.37 64.7578 Q1469.91 66.3376 1474.57 66.3376 L1482.22 66.3376 L1482.22 72.576 L1474.57 72.576 Q1465.94 72.576 1462.66 69.3758 Q1459.38 66.1351 1459.38 57.6282 L1459.38 32.9987 L1453.91 32.9987 L1453.91 27.2059 L1459.38 27.2059 L1459.38 14.324 L1466.87 14.324 Z" fill="#000000" fill-rule="evenodd" fill-opacity="1" /><path clip-path="url(#clip0100)" d="M 0 0 M1552.99 14.0809 L1552.99 22.0612 Q1548.34 19.8332 1544.2 18.7395 Q1540.07 17.6457 1536.22 17.6457 Q1529.54 17.6457 1525.89 20.2383 Q1522.29 22.8309 1522.29 27.611 Q1522.29 31.6214 1524.68 33.6873 Q1527.11 35.7128 1533.83 36.9686 L1538.78 37.9813 Q1547.93 39.7232 1552.27 44.1387 Q1556.64 48.5136 1556.64 55.8863 Q1556.64 64.6767 1550.73 69.2137 Q1544.85 73.7508 1533.47 73.7508 Q1529.17 73.7508 1524.31 72.7785 Q1519.49 71.8063 1514.31 69.9024 L1514.31 61.4765 Q1519.29 64.2716 1524.07 65.6895 Q1528.85 67.1073 1533.47 67.1073 Q1540.48 67.1073 1544.28 64.3527 Q1548.09 61.598 1548.09 56.4939 Q1548.09 52.0379 1545.34 49.5264 Q1542.62 47.0148 1536.39 45.759 L1531.4 44.7868 Q1522.25 42.9639 1518.16 39.075 Q1514.07 35.1862 1514.07 28.2591 Q1514.07 20.2383 1519.7 15.6203 Q1525.37 11.0023 1535.29 11.0023 Q1539.55 11.0023 1543.96 11.7719 Q1548.38 12.5416 1552.99 14.0809 Z" fill="#000000" fill-rule="evenodd" fill-opacity="1" /><path clip-path="url(#clip0100)" d="M 0 0 M1571.83 14.324 L1571.83 27.2059 L1587.18 27.2059 L1587.18 32.9987 L1571.83 32.9987 L1571.83 57.6282 Q1571.83 63.1779 1573.33 64.7578 Q1574.87 66.3376 1579.53 66.3376 L1587.18 66.3376 L1587.18 72.576 L1579.53 72.576 Q1570.9 72.576 1567.62 69.3758 Q1564.34 66.1351 1564.34 57.6282 L1564.34 32.9987 L1558.87 32.9987 L1558.87 27.2059 L1564.34 27.2059 L1564.34 14.324 L1571.83 14.324 Z" fill="#000000" fill-rule="evenodd" fill-opacity="1" /><path clip-path="url(#clip0100)" d="M 0 0 M1615.62 49.7694 Q1606.59 49.7694 1603.1 51.8354 Q1599.62 53.9013 1599.62 58.8839 Q1599.62 62.8538 1602.21 65.2034 Q1604.85 67.5124 1609.34 67.5124 Q1615.54 67.5124 1619.27 63.1374 Q1623.03 58.7219 1623.03 51.4303 L1623.03 49.7694 L1615.62 49.7694 M1630.49 46.6907 L1630.49 72.576 L1623.03 72.576 L1623.03 65.6895 Q1620.48 69.8214 1616.67 71.8063 Q1612.87 73.7508 1607.36 73.7508 Q1600.39 73.7508 1596.26 69.8619 Q1592.17 65.9325 1592.17 59.3701 Q1592.17 51.7138 1597.27 47.825 Q1602.42 43.9361 1612.58 43.9361 L1623.03 43.9361 L1623.03 43.2069 Q1623.03 38.0623 1619.63 35.2672 Q1616.27 32.4315 1610.15 32.4315 Q1606.26 32.4315 1602.58 33.3632 Q1598.89 34.295 1595.49 36.1584 L1595.49 29.2718 Q1599.58 27.692 1603.43 26.9223 Q1607.28 26.1121 1610.92 26.1121 Q1620.77 26.1121 1625.63 31.2163 Q1630.49 36.3204 1630.49 46.6907 Z" fill="#000000" fill-rule="evenodd" fill-opacity="1" /><path clip-path="url(#clip0100)" d="M 0 0 M1645.68 14.324 L1645.68 27.2059 L1661.03 27.2059 L1661.03 32.9987 L1645.68 32.9987 L1645.68 57.6282 Q1645.68 63.1779 1647.18 64.7578 Q1648.72 66.3376 1653.38 66.3376 L1661.03 66.3376 L1661.03 72.576 L1653.38 72.576 Q1644.75 72.576 1641.47 69.3758 Q1638.18 66.1351 1638.18 57.6282 L1638.18 32.9987 L1632.72 32.9987 L1632.72 27.2059 L1638.18 27.2059 L1638.18 14.324 L1645.68 14.324 Z" fill="#000000" fill-rule="evenodd" fill-opacity="1" /><path clip-path="url(#clip0100)" d="M 0 0 M1707.66 48.0275 L1707.66 51.6733 L1673.39 51.6733 Q1673.87 59.3701 1678.01 63.421 Q1682.18 67.4314 1689.59 67.4314 Q1693.88 67.4314 1697.9 66.3781 Q1701.95 65.3249 1705.92 63.2184 L1705.92 70.267 Q1701.91 71.9684 1697.69 72.8596 Q1693.48 73.7508 1689.15 73.7508 Q1678.29 73.7508 1671.93 67.4314 Q1665.61 61.1119 1665.61 50.3365 Q1665.61 39.1965 1671.6 32.6746 Q1677.64 26.1121 1687.85 26.1121 Q1697 26.1121 1702.31 32.0264 Q1707.66 37.9003 1707.66 48.0275 M1700.2 45.84 Q1700.12 39.7232 1696.76 36.0774 Q1693.44 32.4315 1687.93 32.4315 Q1681.69 32.4315 1677.92 35.9558 Q1674.2 39.4801 1673.63 45.8805 L1700.2 45.84 Z" fill="#000000" fill-rule="evenodd" fill-opacity="1" /><path clip-path="url(#clip0100)" d="M 0 0 M1739.25 12.096 L1748.05 12.096 L1763.07 34.5785 L1778.18 12.096 L1786.97 12.096 L1767.53 41.141 L1788.27 72.576 L1779.48 72.576 L1762.47 46.8528 L1745.33 72.576 L1736.5 72.576 L1758.09 40.2903 L1739.25 12.096 Z" fill="#000000" fill-rule="evenodd" fill-opacity="1" /><path clip-path="url(#clip0100)" d="M 0 0 M1822.78 12.096 L1861.02 12.096 L1861.02 18.9825 L1830.97 18.9825 L1830.97 36.8875 L1859.77 36.8875 L1859.77 43.7741 L1830.97 43.7741 L1830.97 65.6895 L1861.75 65.6895 L1861.75 72.576 L1822.78 72.576 L1822.78 12.096 Z" fill="#000000" fill-rule="evenodd" fill-opacity="1" /><path clip-path="url(#clip0100)" d="M 0 0 M1895.86 34.1734 Q1894.61 33.4443 1893.11 33.1202 Q1891.65 32.7556 1889.87 32.7556 Q1883.55 32.7556 1880.15 36.8875 Q1876.78 40.9789 1876.78 48.6757 L1876.78 72.576 L1869.29 72.576 L1869.29 27.2059 L1876.78 27.2059 L1876.78 34.2544 Q1879.13 30.1225 1882.9 28.1376 Q1886.67 26.1121 1892.05 26.1121 Q1892.82 26.1121 1893.76 26.2337 Q1894.69 26.3147 1895.82 26.5172 L1895.86 34.1734 Z" fill="#000000" fill-rule="evenodd" fill-opacity="1" /><path clip-path="url(#clip0100)" d="M 0 0 M1928.51 34.1734 Q1927.26 33.4443 1925.76 33.1202 Q1924.3 32.7556 1922.52 32.7556 Q1916.2 32.7556 1912.8 36.8875 Q1909.43 40.9789 1909.43 48.6757 L1909.43 72.576 L1901.94 72.576 L1901.94 27.2059 L1909.43 27.2059 L1909.43 34.2544 Q1911.78 30.1225 1915.55 28.1376 Q1919.32 26.1121 1924.71 26.1121 Q1925.47 26.1121 1926.41 26.2337 Q1927.34 26.3147 1928.47 26.5172 L1928.51 34.1734 Z" fill="#000000" fill-rule="evenodd" fill-opacity="1" /><path clip-path="url(#clip0100)" d="M 0 0 M1952.09 32.4315 Q1946.09 32.4315 1942.61 37.1306 Q1939.13 41.7891 1939.13 49.9314 Q1939.13 58.0738 1942.57 62.7728 Q1946.05 67.4314 1952.09 67.4314 Q1958.04 67.4314 1961.53 62.7323 Q1965.01 58.0333 1965.01 49.9314 Q1965.01 41.8701 1961.53 37.1711 Q1958.04 32.4315 1952.09 32.4315 M1952.09 26.1121 Q1961.81 26.1121 1967.36 32.4315 Q1972.91 38.7509 1972.91 49.9314 Q1972.91 61.0714 1967.36 67.4314 Q1961.81 73.7508 1952.09 73.7508 Q1942.33 73.7508 1936.78 67.4314 Q1931.27 61.0714 1931.27 49.9314 Q1931.27 38.7509 1936.78 32.4315 Q1942.33 26.1121 1952.09 26.1121 Z" fill="#000000" fill-rule="evenodd" fill-opacity="1" /><path clip-path="url(#clip0100)" d="M 0 0 M2007.02 34.1734 Q2005.76 33.4443 2004.26 33.1202 Q2002.81 32.7556 2001.02 32.7556 Q1994.7 32.7556 1991.3 36.8875 Q1987.94 40.9789 1987.94 48.6757 L1987.94 72.576 L1980.45 72.576 L1980.45 27.2059 L1987.94 27.2059 L1987.94 34.2544 Q1990.29 30.1225 1994.06 28.1376 Q1997.82 26.1121 2003.21 26.1121 Q2003.98 26.1121 2004.91 26.2337 Q2005.84 26.3147 2006.98 26.5172 L2007.02 34.1734 Z" fill="#000000" fill-rule="evenodd" fill-opacity="1" /><path clip-path="url(#clip0100)" d="M 0 0 M1312.92 2316.52 L1353.12 2316.52 L1353.12 2321.93 L1336.25 2321.93 L1336.25 2364.04 L1329.79 2364.04 L1329.79 2321.93 L1312.92 2321.93 L1312.92 2316.52 Z" fill="#000000" fill-rule="evenodd" fill-opacity="1" /><path clip-path="url(#clip0100)" d="M 0 0 M1357.26 2328.4 L1363.11 2328.4 L1363.11 2364.04 L1357.26 2364.04 L1357.26 2328.4 M1357.26 2314.52 L1363.11 2314.52 L1363.11 2321.93 L1357.26 2321.93 L1357.26 2314.52 Z" fill="#000000" fill-rule="evenodd" fill-opacity="1" /><path clip-path="url(#clip0100)" d="M 0 0 M1397.01 2335.24 Q1399.21 2331.29 1402.26 2329.41 Q1405.32 2327.54 1409.45 2327.54 Q1415.02 2327.54 1418.05 2331.45 Q1421.07 2335.33 1421.07 2342.53 L1421.07 2364.04 L1415.18 2364.04 L1415.18 2342.72 Q1415.18 2337.59 1413.37 2335.11 Q1411.56 2332.63 1407.83 2332.63 Q1403.28 2332.63 1400.64 2335.65 Q1398 2338.68 1398 2343.9 L1398 2364.04 L1392.11 2364.04 L1392.11 2342.72 Q1392.11 2337.56 1390.29 2335.11 Q1388.48 2332.63 1384.69 2332.63 Q1380.2 2332.63 1377.56 2335.68 Q1374.92 2338.71 1374.92 2343.9 L1374.92 2364.04 L1369.03 2364.04 L1369.03 2328.4 L1374.92 2328.4 L1374.92 2333.93 Q1376.93 2330.66 1379.73 2329.1 Q1382.53 2327.54 1386.38 2327.54 Q1390.26 2327.54 1392.97 2329.51 Q1395.7 2331.48 1397.01 2335.24 Z" fill="#000000" fill-rule="evenodd" fill-opacity="1" /><path clip-path="url(#clip0100)" d="M 0 0 M1457.71 2344.76 L1457.71 2347.62 L1430.78 2347.62 Q1431.16 2353.67 1434.41 2356.85 Q1437.69 2360 1443.51 2360 Q1446.89 2360 1450.04 2359.17 Q1453.22 2358.35 1456.34 2356.69 L1456.34 2362.23 Q1453.19 2363.57 1449.88 2364.27 Q1446.57 2364.97 1443.16 2364.97 Q1434.63 2364.97 1429.63 2360 Q1424.67 2355.04 1424.67 2346.57 Q1424.67 2337.82 1429.38 2332.69 Q1434.12 2327.54 1442.14 2327.54 Q1449.34 2327.54 1453.51 2332.18 Q1457.71 2336.8 1457.71 2344.76 M1451.85 2343.04 Q1451.79 2338.23 1449.14 2335.37 Q1446.54 2332.5 1442.21 2332.5 Q1437.3 2332.5 1434.34 2335.27 Q1431.42 2338.04 1430.97 2343.07 L1451.85 2343.04 Z" fill="#000000" fill-rule="evenodd" fill-opacity="1" /><path clip-path="url(#clip0100)" d="M 0 0 M1498.64 2314.58 Q1494.37 2321.9 1492.3 2329.06 Q1490.24 2336.23 1490.24 2343.58 Q1490.24 2350.93 1492.3 2358.16 Q1494.41 2365.35 1498.64 2372.64 L1493.55 2372.64 Q1488.77 2365.16 1486.38 2357.93 Q1484.03 2350.71 1484.03 2343.58 Q1484.03 2336.48 1486.38 2329.29 Q1488.74 2322.09 1493.55 2314.58 L1498.64 2314.58 Z" fill="#000000" fill-rule="evenodd" fill-opacity="1" /><path clip-path="url(#clip0100)" d="M 0 0 M1527.51 2329.45 L1527.51 2334.98 Q1525.02 2333.71 1522.35 2333.07 Q1519.68 2332.44 1516.81 2332.44 Q1512.45 2332.44 1510.26 2333.77 Q1508.09 2335.11 1508.09 2337.79 Q1508.09 2339.82 1509.65 2341 Q1511.21 2342.15 1515.92 2343.2 L1517.93 2343.64 Q1524.16 2344.98 1526.77 2347.43 Q1529.42 2349.85 1529.42 2354.21 Q1529.42 2359.17 1525.47 2362.07 Q1521.55 2364.97 1514.68 2364.97 Q1511.82 2364.97 1508.7 2364.39 Q1505.61 2363.85 1502.17 2362.74 L1502.17 2356.69 Q1505.42 2358.38 1508.57 2359.24 Q1511.72 2360.07 1514.81 2360.07 Q1518.94 2360.07 1521.17 2358.66 Q1523.4 2357.23 1523.4 2354.65 Q1523.4 2352.27 1521.78 2350.99 Q1520.19 2349.72 1514.74 2348.54 L1512.71 2348.07 Q1507.26 2346.92 1504.84 2344.56 Q1502.43 2342.18 1502.43 2338.04 Q1502.43 2333.01 1505.99 2330.27 Q1509.56 2327.54 1516.11 2327.54 Q1519.36 2327.54 1522.22 2328.01 Q1525.09 2328.49 1527.51 2329.45 Z" fill="#000000" fill-rule="evenodd" fill-opacity="1" /><path clip-path="url(#clip0100)" d="M 0 0 M1534.64 2314.58 L1539.73 2314.58 Q1544.5 2322.09 1546.86 2329.29 Q1549.25 2336.48 1549.25 2343.58 Q1549.25 2350.71 1546.86 2357.93 Q1544.5 2365.16 1539.73 2372.64 L1534.64 2372.64 Q1538.87 2365.35 1540.94 2358.16 Q1543.04 2350.93 1543.04 2343.58 Q1543.04 2336.23 1540.94 2329.06 Q1538.87 2321.9 1534.64 2314.58 Z" fill="#000000" fill-rule="evenodd" fill-opacity="1" /><path clip-path="url(#clip0100)" d="M 0 0 M24.4842 1336.73 L24.4842 1306.69 L29.895 1306.69 L29.895 1330.3 L43.9632 1330.3 L43.9632 1307.67 L49.3741 1307.67 L49.3741 1330.3 L66.5933 1330.3 L66.5933 1306.11 L72.0042 1306.11 L72.0042 1336.73 L24.4842 1336.73 Z" fill="#000000" fill-rule="evenodd" fill-opacity="1" /><path clip-path="url(#clip0100)" d="M 0 0 M41.8307 1279.31 Q41.2578 1280.3 41.0032 1281.48 Q40.7167 1282.63 40.7167 1284.03 Q40.7167 1288.99 43.9632 1291.66 Q47.1779 1294.31 53.2253 1294.31 L72.0042 1294.31 L72.0042 1300.19 L36.3562 1300.19 L36.3562 1294.31 L41.8944 1294.31 Q38.6479 1292.46 37.0883 1289.5 Q35.4968 1286.54 35.4968 1282.31 Q35.4968 1281.7 35.5923 1280.97 Q35.656 1280.24 35.8151 1279.35 L41.8307 1279.31 Z" fill="#000000" fill-rule="evenodd" fill-opacity="1" /><path clip-path="url(#clip0100)" d="M 0 0 M41.8307 1253.66 Q41.2578 1254.65 41.0032 1255.83 Q40.7167 1256.97 40.7167 1258.37 Q40.7167 1263.34 43.9632 1266.01 Q47.1779 1268.65 53.2253 1268.65 L72.0042 1268.65 L72.0042 1274.54 L36.3562 1274.54 L36.3562 1268.65 L41.8944 1268.65 Q38.6479 1266.81 37.0883 1263.85 Q35.4968 1260.89 35.4968 1256.65 Q35.4968 1256.05 35.5923 1255.32 Q35.656 1254.58 35.8151 1253.69 L41.8307 1253.66 Z" fill="#000000" fill-rule="evenodd" fill-opacity="1" /><path clip-path="url(#clip0100)" d="M 0 0 M40.4621 1235.14 Q40.4621 1239.85 44.1542 1242.58 Q47.8145 1245.32 54.212 1245.32 Q60.6095 1245.32 64.3017 1242.62 Q67.9619 1239.88 67.9619 1235.14 Q67.9619 1230.46 64.2698 1227.72 Q60.5777 1224.98 54.212 1224.98 Q47.8781 1224.98 44.186 1227.72 Q40.4621 1230.46 40.4621 1235.14 M35.4968 1235.14 Q35.4968 1227.5 40.4621 1223.14 Q45.4273 1218.78 54.212 1218.78 Q62.9649 1218.78 67.9619 1223.14 Q72.9272 1227.5 72.9272 1235.14 Q72.9272 1242.81 67.9619 1247.17 Q62.9649 1251.5 54.212 1251.5 Q45.4273 1251.5 40.4621 1247.17 Q35.4968 1242.81 35.4968 1235.14 Z" fill="#000000" fill-rule="evenodd" fill-opacity="1" /><path clip-path="url(#clip0100)" d="M 0 0 M41.8307 1191.98 Q41.2578 1192.96 41.0032 1194.14 Q40.7167 1195.29 40.7167 1196.69 Q40.7167 1201.65 43.9632 1204.33 Q47.1779 1206.97 53.2253 1206.97 L72.0042 1206.97 L72.0042 1212.86 L36.3562 1212.86 L36.3562 1206.97 L41.8944 1206.97 Q38.6479 1205.12 37.0883 1202.16 Q35.4968 1199.2 35.4968 1194.97 Q35.4968 1194.36 35.5923 1193.63 Q35.656 1192.9 35.8151 1192.01 L41.8307 1191.98 Z" fill="#000000" fill-rule="evenodd" fill-opacity="1" /><path clip-path="url(#clip0100)" d="M 0 0 M24.4842 1167.15 L24.4842 1160.24 L42.149 1148.44 L24.4842 1136.56 L24.4842 1129.66 L47.3052 1144.93 L72.0042 1128.64 L72.0042 1135.55 L51.793 1148.91 L72.0042 1162.38 L72.0042 1169.32 L46.6368 1152.35 L24.4842 1167.15 Z" fill="#000000" fill-rule="evenodd" fill-opacity="1" /><path clip-path="url(#clip0100)" d="M 0 0 M22.5426 1087.71 Q29.8632 1091.97 37.0246 1094.04 Q44.186 1096.11 51.5384 1096.11 Q58.8908 1096.11 66.1159 1094.04 Q73.3091 1091.94 80.5979 1087.71 L80.5979 1092.8 Q73.1182 1097.57 65.8931 1099.96 Q58.668 1102.32 51.5384 1102.32 Q44.4406 1102.32 37.2474 1099.96 Q30.0542 1097.61 22.5426 1092.8 L22.5426 1087.71 Z" fill="#000000" fill-rule="evenodd" fill-opacity="1" /><path clip-path="url(#clip0100)" d="M 0 0 M43.1993 1053.81 Q39.2526 1051.61 37.3747 1048.56 Q35.4968 1045.5 35.4968 1041.36 Q35.4968 1035.79 39.4117 1032.77 Q43.2948 1029.75 50.4881 1029.75 L72.0042 1029.75 L72.0042 1035.64 L50.679 1035.64 Q45.5546 1035.64 43.072 1037.45 Q40.5894 1039.26 40.5894 1042.99 Q40.5894 1047.54 43.6131 1050.18 Q46.6368 1052.82 51.8567 1052.82 L72.0042 1052.82 L72.0042 1058.71 L50.679 1058.71 Q45.5228 1058.71 43.072 1060.53 Q40.5894 1062.34 40.5894 1066.13 Q40.5894 1070.62 43.6449 1073.26 Q46.6686 1075.9 51.8567 1075.9 L72.0042 1075.9 L72.0042 1081.79 L36.3562 1081.79 L36.3562 1075.9 L41.8944 1075.9 Q38.616 1073.89 37.0564 1071.09 Q35.4968 1068.29 35.4968 1064.44 Q35.4968 1060.56 37.4702 1057.85 Q39.4436 1055.11 43.1993 1053.81 Z" fill="#000000" fill-rule="evenodd" fill-opacity="1" /><path clip-path="url(#clip0100)" d="M 0 0 M22.5426 1024.53 L22.5426 1019.44 Q30.0542 1014.66 37.2474 1012.31 Q44.4406 1009.92 51.5384 1009.92 Q58.668 1009.92 65.8931 1012.31 Q73.1182 1014.66 80.5979 1019.44 L80.5979 1024.53 Q73.3091 1020.29 66.1159 1018.23 Q58.8908 1016.12 51.5384 1016.12 Q44.186 1016.12 37.0246 1018.23 Q29.8632 1020.29 22.5426 1024.53 Z" fill="#000000" fill-rule="evenodd" fill-opacity="1" /><polyline clip-path="url(#clip0102)" style="stroke:#009af9; stroke-width:16; stroke-opacity:1; fill:none" points="
  293.951,1194.43 316.693,1194.21 339.436,1193.62 362.179,1192.75 384.921,1191.58 407.664,1190.2 430.406,1188.75 453.149,1187.39 475.892,1186.29 498.634,1185.57 
  521.377,1185.32 544.12,1185.6 566.862,1186.43 589.605,1187.77 612.347,1189.61 635.09,1191.88 657.833,1194.51 680.575,1197.46 703.318,1200.64 726.061,1203.98 
  748.803,1207.43 771.546,1210.92 794.289,1214.39 817.031,1217.8 839.774,1221.09 862.516,1224.24 885.259,1227.2 908.002,1229.96 930.744,1232.5 953.487,1234.8 
  976.23,1236.86 998.972,1238.69 1021.71,1240.3 1044.46,1241.73 1067.2,1242.98 1089.94,1244.01 1112.69,1244.87 1135.43,1245.59 1158.17,1246.18 1180.91,1246.68 
  1203.66,1247.09 1226.4,1247.43 1249.14,1247.73 1271.88,1247.99 1294.63,1248.24 1317.37,1248.49 1340.11,1248.74 1362.85,1249 1385.6,1249.29 1408.34,1249.6 
  1431.08,1249.95 1453.82,1250.33 1476.57,1250.75 1499.31,1251.2 1522.05,1251.69 1544.8,1252.22 1567.54,1252.77 1590.28,1253.36 1613.02,1253.96 1635.77,1254.58 
  1658.51,1255.21 1681.25,1255.85 1703.99,1256.49 1726.74,1257.12 1749.48,1257.75 1772.22,1258.35 1794.96,1258.93 1817.71,1259.48 1840.45,1260.01 1863.19,1260.5 
  1885.93,1260.94 1908.68,1261.35 1931.42,1261.72 1954.16,1262.04 1976.91,1262.32 1999.65,1262.55 2022.39,1262.74 2045.13,1262.88 2067.88,1262.99 2090.62,1263.05 
  2113.36,1263.09 2136.1,1263.08 2158.85,1263.05 2181.59,1263 2204.33,1262.92 2227.07,1262.82 2249.82,1262.71 2272.56,1262.6 2295.3,1262.47 2318.04,1262.34 
  2340.79,1262.21 2363.53,1262.09 2386.27,1261.97 2409.02,1261.87 2431.76,1261.77 2454.5,1261.68 2477.24,1261.61 2499.99,1261.56 2522.73,1261.52 2545.47,1261.49 
  2568.21,1261.48 
  "/>
<polyline clip-path="url(#clip0102)" style="stroke:#e26f46; stroke-width:16; stroke-opacity:1; fill:none" points="
  293.951,182.898 316.693,187.057 339.436,198.197 362.179,213.577 384.921,231.893 407.664,252.148 430.406,273.739 453.149,296.346 475.892,319.809 498.634,344.044 
  521.377,369.032 544.12,394.804 566.862,421.395 589.605,448.805 612.347,476.997 635.09,505.884 657.833,535.339 680.575,565.201 703.318,595.29 726.061,625.406 
  748.803,655.351 771.546,684.924 794.289,713.931 817.031,742.188 839.774,769.524 862.516,795.788 885.259,820.846 908.002,844.591 930.744,866.936 953.487,887.831 
  976.23,907.251 998.972,925.218 1021.71,941.809 1044.46,957.331 1067.2,971.777 1089.94,985.023 1112.69,997.343 1135.43,1008.86 1158.17,1019.67 1180.91,1029.86 
  1203.66,1039.51 1226.4,1048.69 1249.14,1057.45 1271.88,1065.84 1294.63,1073.91 1317.37,1081.68 1340.11,1089.19 1362.85,1096.47 1385.6,1103.52 1408.34,1110.36 
  1431.08,1117.02 1453.82,1123.49 1476.57,1129.79 1499.31,1135.92 1522.05,1141.88 1544.8,1147.67 1567.54,1153.3 1590.28,1158.77 1613.02,1164.06 1635.77,1169.2 
  1658.51,1174.16 1681.25,1178.95 1703.99,1183.57 1726.74,1188.03 1749.48,1192.31 1772.22,1196.41 1794.96,1200.35 1817.71,1204.12 1840.45,1207.71 1863.19,1211.15 
  1885.93,1214.42 1908.68,1217.52 1931.42,1220.48 1954.16,1223.28 1976.91,1225.94 1999.65,1228.46 2022.39,1230.84 2045.13,1233.1 2067.88,1235.24 2090.62,1237.26 
  2113.36,1239.17 2136.1,1240.98 2158.85,1242.69 2181.59,1244.32 2204.33,1245.85 2227.07,1247.3 2249.82,1248.67 2272.56,1249.97 2295.3,1251.18 2318.04,1252.32 
  2340.79,1253.39 2363.53,1254.37 2386.27,1255.28 2409.02,1256.1 2431.76,1256.83 2454.5,1257.46 2477.24,1257.99 2499.99,1258.42 2522.73,1258.74 2545.47,1258.94 
  2568.21,1259.03 
  "/>
<polyline clip-path="url(#clip0102)" style="stroke:#3da44d; stroke-width:16; stroke-opacity:1; fill:none" points="
  293.951,2163.75 316.693,2162.86 339.436,2160.15 362.179,2154.56 384.921,2145.89 407.664,2134.16 430.406,2119.51 453.149,2102.27 475.892,2082.74 498.634,2061.19 
  521.377,2037.88 544.12,2013.08 566.862,1987.07 589.605,1960.1 612.347,1932.45 635.09,1904.35 657.833,1876.04 680.575,1847.73 703.318,1819.63 726.061,1791.9 
  748.803,1764.71 771.546,1738.21 794.289,1712.52 817.031,1687.77 839.774,1664.05 862.516,1641.45 885.259,1620.02 908.002,1599.84 930.744,1580.92 953.487,1563.29 
  976.23,1546.91 998.972,1531.77 1021.71,1517.77 1044.46,1504.61 1067.2,1492.34 1089.94,1481.11 1112.69,1470.68 1135.43,1460.93 1158.17,1451.78 1180.91,1443.15 
  1203.66,1434.98 1226.4,1427.22 1249.14,1419.82 1271.88,1412.74 1294.63,1405.97 1317.37,1399.48 1340.11,1393.25 1362.85,1387.27 1385.6,1381.53 1408.34,1376.02 
  1431.08,1370.73 1453.82,1365.67 1476.57,1360.82 1499.31,1356.18 1522.05,1351.74 1544.8,1347.51 1567.54,1343.47 1590.28,1339.63 1613.02,1335.97 1635.77,1332.48 
  1658.51,1329.16 1681.25,1326.01 1703.99,1323 1726.74,1320.14 1749.48,1317.4 1772.22,1314.79 1794.96,1312.29 1817.71,1309.9 1840.45,1307.6 1863.19,1305.38 
  1885.93,1303.24 1908.68,1301.16 1931.42,1299.15 1954.16,1297.19 1976.91,1295.29 1999.65,1293.42 2022.39,1291.6 2045.13,1289.81 2067.88,1288.06 2090.62,1286.34 
  2113.36,1284.65 2136.1,1283 2158.85,1281.38 2181.59,1279.79 2204.33,1278.25 2227.07,1276.75 2249.82,1275.3 2272.56,1273.9 2295.3,1272.56 2318.04,1271.29 
  2340.79,1270.08 2363.53,1268.96 2386.27,1267.92 2409.02,1266.98 2431.76,1266.14 2454.5,1265.41 2477.24,1264.8 2499.99,1264.31 2522.73,1263.94 2545.47,1263.72 
  2568.21,1263.62 
  "/>
<polyline clip-path="url(#clip0102)" style="stroke:#c271d2; stroke-width:16; stroke-opacity:1; fill:none" points="
  293.951,1791.42 316.693,1791.58 339.436,1792.06 362.179,1792.57 384.921,1792.72 407.664,1792.13 430.406,1790.47 453.149,1787.51 475.892,1783.13 498.634,1777.27 
  521.377,1769.96 544.12,1761.25 566.862,1751.21 589.605,1739.95 612.347,1727.57 635.09,1714.22 657.833,1700.02 680.575,1685.12 703.318,1669.66 726.061,1653.79 
  748.803,1637.67 771.546,1621.44 794.289,1605.25 817.031,1589.24 839.774,1573.53 862.516,1558.23 885.259,1543.47 908.002,1529.31 930.744,1515.85 953.487,1503.11 
  976.23,1491.15 998.972,1479.95 1021.71,1469.49 1044.46,1459.56 1067.2,1450.2 1089.94,1441.51 1112.69,1433.31 1135.43,1425.55 1158.17,1418.16 1180.91,1411.11 
  1203.66,1404.37 1226.4,1397.91 1249.14,1391.7 1271.88,1385.75 1294.63,1380.03 1317.37,1374.53 1340.11,1369.25 1362.85,1364.19 1385.6,1359.33 1408.34,1354.68 
  1431.08,1350.23 1453.82,1345.98 1476.57,1341.93 1499.31,1338.07 1522.05,1334.4 1544.8,1330.91 1567.54,1327.59 1590.28,1324.45 1613.02,1321.47 1635.77,1318.64 
  1658.51,1315.97 1681.25,1313.42 1703.99,1311.01 1726.74,1308.72 1749.48,1306.54 1772.22,1304.46 1794.96,1302.48 1817.71,1300.57 1840.45,1298.75 1863.19,1296.98 
  1885.93,1295.28 1908.68,1293.63 1931.42,1292.03 1954.16,1290.47 1976.91,1288.94 1999.65,1287.44 2022.39,1285.97 2045.13,1284.53 2067.88,1283.11 2090.62,1281.72 
  2113.36,1280.34 2136.1,1279 2158.85,1277.67 2181.59,1276.38 2204.33,1275.11 2227.07,1273.88 2249.82,1272.69 2272.56,1271.54 2295.3,1270.44 2318.04,1269.39 
  2340.79,1268.41 2363.53,1267.48 2386.27,1266.63 2409.02,1265.86 2431.76,1265.17 2454.5,1264.58 2477.24,1264.08 2499.99,1263.68 2522.73,1263.38 2545.47,1263.2 
  2568.21,1263.12 
  "/>
<polyline clip-path="url(#clip0102)" style="stroke:#ac8d18; stroke-width:16; stroke-opacity:1; fill:none" points="
  293.951,1339.78 316.693,1339.89 339.436,1340.19 362.179,1340.51 384.921,1340.82 407.664,1341.06 430.406,1341.21 453.149,1341.19 475.892,1340.98 498.634,1340.53 
  521.377,1339.82 544.12,1338.84 566.862,1337.59 589.605,1336.1 612.347,1334.38 635.09,1332.46 657.833,1330.36 680.575,1328.12 703.318,1325.75 726.061,1323.3 
  748.803,1320.78 771.546,1318.22 794.289,1315.64 817.031,1313.07 839.774,1310.53 862.516,1308.02 885.259,1305.58 908.002,1303.2 930.744,1300.91 953.487,1298.7 
  976.23,1296.59 998.972,1294.58 1021.71,1292.65 1044.46,1290.81 1067.2,1289.04 1089.94,1287.37 1112.69,1285.76 1135.43,1284.22 1158.17,1282.75 1180.91,1281.33 
  1203.66,1279.97 1226.4,1278.67 1249.14,1277.44 1271.88,1276.26 1294.63,1275.15 1317.37,1274.11 1340.11,1273.14 1362.85,1272.24 1385.6,1271.41 1408.34,1270.66 
  1431.08,1269.98 1453.82,1269.37 1476.57,1268.83 1499.31,1268.37 1522.05,1267.97 1544.8,1267.64 1567.54,1267.37 1590.28,1267.16 1613.02,1266.99 1635.77,1266.88 
  1658.51,1266.8 1681.25,1266.75 1703.99,1266.74 1726.74,1266.74 1749.48,1266.76 1772.22,1266.79 1794.96,1266.82 1817.71,1266.85 1840.45,1266.87 1863.19,1266.88 
  1885.93,1266.88 1908.68,1266.86 1931.42,1266.81 1954.16,1266.75 1976.91,1266.66 1999.65,1266.55 2022.39,1266.41 2045.13,1266.24 2067.88,1266.06 2090.62,1265.85 
  2113.36,1265.62 2136.1,1265.37 2158.85,1265.11 2181.59,1264.84 2204.33,1264.56 2227.07,1264.28 2249.82,1263.99 2272.56,1263.71 2295.3,1263.44 2318.04,1263.17 
  2340.79,1262.91 2363.53,1262.68 2386.27,1262.46 2409.02,1262.26 2431.76,1262.08 2454.5,1261.93 2477.24,1261.8 2499.99,1261.7 2522.73,1261.63 2545.47,1261.59 
  2568.21,1261.57 
  "/>
<polyline clip-path="url(#clip0102)" style="stroke:#00a9ad; stroke-width:16; stroke-opacity:1; fill:none" points="
  293.951,1516.69 316.693,1517.15 339.436,1518.22 362.179,1519.07 384.921,1519.27 407.664,1518.62 430.406,1517.01 453.149,1514.39 475.892,1510.74 498.634,1506.1 
  521.377,1500.53 544.12,1494.13 566.862,1487.01 589.605,1479.3 612.347,1471.12 635.09,1462.59 657.833,1453.82 680.575,1444.91 703.318,1435.95 726.061,1427.03 
  748.803,1418.21 771.546,1409.56 794.289,1401.14 817.031,1392.99 839.774,1385.16 862.516,1377.68 885.259,1370.57 908.002,1363.87 930.744,1357.58 953.487,1351.7 
  976.23,1346.25 998.972,1341.19 1021.71,1336.51 1044.46,1332.14 1067.2,1328.08 1089.94,1324.35 1112.69,1320.89 1135.43,1317.65 1158.17,1314.62 1180.91,1311.76 
  1203.66,1309.07 1226.4,1306.51 1249.14,1304.08 1271.88,1301.78 1294.63,1299.6 1317.37,1297.52 1340.11,1295.55 1362.85,1293.69 1385.6,1291.94 1408.34,1290.28 
  1431.08,1288.73 1453.82,1287.27 1476.57,1285.92 1499.31,1284.66 1522.05,1283.49 1544.8,1282.41 1567.54,1281.41 1590.28,1280.5 1613.02,1279.66 1635.77,1278.89 
  1658.51,1278.19 1681.25,1277.54 1703.99,1276.94 1726.74,1276.39 1749.48,1275.88 1772.22,1275.4 1794.96,1274.94 1817.71,1274.5 1840.45,1274.08 1863.19,1273.66 
  1885.93,1273.25 1908.68,1272.84 1931.42,1272.43 1954.16,1272.01 1976.91,1271.58 1999.65,1271.14 2022.39,1270.69 2045.13,1270.23 2067.88,1269.76 2090.62,1269.27 
  2113.36,1268.78 2136.1,1268.29 2158.85,1267.79 2181.59,1267.29 2204.33,1266.79 2227.07,1266.3 2249.82,1265.81 2272.56,1265.34 2295.3,1264.89 2318.04,1264.45 
  2340.79,1264.04 2363.53,1263.65 2386.27,1263.3 2409.02,1262.98 2431.76,1262.69 2454.5,1262.45 2477.24,1262.24 2499.99,1262.08 2522.73,1261.97 2545.47,1261.89 
  2568.21,1261.86 
  "/>
<polyline clip-path="url(#clip0102)" style="stroke:#ed5d92; stroke-width:16; stroke-opacity:1; fill:none" points="
  293.951,1384.84 316.693,1384.99 339.436,1385.29 362.179,1385.39 384.921,1385.11 407.664,1384.39 430.406,1383.19 453.149,1381.52 475.892,1379.4 498.634,1376.86 
  521.377,1373.95 544.12,1370.71 566.862,1367.21 589.605,1363.47 612.347,1359.56 635.09,1355.51 657.833,1351.37 680.575,1347.18 703.318,1342.98 726.061,1338.8 
  748.803,1334.66 771.546,1330.61 794.289,1326.65 817.031,1322.82 839.774,1319.12 862.516,1315.58 885.259,1312.21 908.002,1309 930.744,1305.98 953.487,1303.14 
  976.23,1300.47 998.972,1297.98 1021.71,1295.64 1044.46,1293.44 1067.2,1291.36 1089.94,1289.43 1112.69,1287.61 1135.43,1285.89 1158.17,1284.26 1180.91,1282.72 
  1203.66,1281.24 1226.4,1279.84 1249.14,1278.52 1271.88,1277.26 1294.63,1276.07 1317.37,1274.95 1340.11,1273.91 1362.85,1272.94 1385.6,1272.05 1408.34,1271.24 
  1431.08,1270.5 1453.82,1269.83 1476.57,1269.24 1499.31,1268.73 1522.05,1268.28 1544.8,1267.9 1567.54,1267.59 1590.28,1267.33 1613.02,1267.13 1635.77,1266.97 
  1658.51,1266.86 1681.25,1266.79 1703.99,1266.74 1726.74,1266.72 1749.48,1266.72 1772.22,1266.72 1794.96,1266.74 1817.71,1266.75 1840.45,1266.76 1863.19,1266.76 
  1885.93,1266.75 1908.68,1266.72 1931.42,1266.68 1954.16,1266.61 1976.91,1266.52 1999.65,1266.4 2022.39,1266.26 2045.13,1266.1 2067.88,1265.91 2090.62,1265.71 
  2113.36,1265.48 2136.1,1265.24 2158.85,1264.99 2181.59,1264.72 2204.33,1264.45 2227.07,1264.17 2249.82,1263.89 2272.56,1263.62 2295.3,1263.35 2318.04,1263.09 
  2340.79,1262.84 2363.53,1262.61 2386.27,1262.39 2409.02,1262.2 2431.76,1262.03 2454.5,1261.88 2477.24,1261.76 2499.99,1261.67 2522.73,1261.6 2545.47,1261.56 
  2568.21,1261.54 
  "/>
<polyline clip-path="url(#clip0102)" style="stroke:#c68125; stroke-width:16; stroke-opacity:1; fill:none" points="
  293.951,1289.49 316.693,1289.53 339.436,1289.62 362.179,1289.76 384.921,1289.96 407.664,1290.23 430.406,1290.54 453.149,1290.9 475.892,1291.27 498.634,1291.62 
  521.377,1291.92 544.12,1292.16 566.862,1292.3 589.605,1292.34 612.347,1292.28 635.09,1292.1 657.833,1291.82 680.575,1291.44 703.318,1290.98 726.061,1290.46 
  748.803,1289.88 771.546,1289.25 794.289,1288.6 817.031,1287.92 839.774,1287.22 862.516,1286.51 885.259,1285.79 908.002,1285.05 930.744,1284.31 953.487,1283.55 
  976.23,1282.79 998.972,1282.02 1021.71,1281.25 1044.46,1280.47 1067.2,1279.67 1089.94,1278.81 1112.69,1277.92 1135.43,1276.99 1158.17,1276.03 1180.91,1275.05 
  1203.66,1274.07 1226.4,1273.09 1249.14,1272.13 1271.88,1271.19 1294.63,1270.28 1317.37,1269.42 1340.11,1268.61 1362.85,1267.85 1385.6,1267.15 1408.34,1266.53 
  1431.08,1265.97 1453.82,1265.48 1476.57,1265.06 1499.31,1264.72 1522.05,1264.44 1544.8,1264.23 1567.54,1264.08 1590.28,1263.98 1613.02,1263.94 1635.77,1263.95 
  1658.51,1264 1681.25,1264.08 1703.99,1264.18 1726.74,1264.31 1749.48,1264.45 1772.22,1264.6 1794.96,1264.75 1817.71,1264.9 1840.45,1265.04 1863.19,1265.16 
  1885.93,1265.27 1908.68,1265.35 1931.42,1265.41 1954.16,1265.44 1976.91,1265.44 1999.65,1265.42 2022.39,1265.37 2045.13,1265.29 2067.88,1265.18 2090.62,1265.04 
  2113.36,1264.88 2136.1,1264.71 2158.85,1264.51 2181.59,1264.3 2204.33,1264.08 2227.07,1263.85 2249.82,1263.61 2272.56,1263.37 2295.3,1263.14 2318.04,1262.91 
  2340.79,1262.7 2363.53,1262.49 2386.27,1262.3 2409.02,1262.13 2431.76,1261.97 2454.5,1261.84 2477.24,1261.73 2499.99,1261.65 2522.73,1261.58 2545.47,1261.54 
  2568.21,1261.53 
  "/>
<polyline clip-path="url(#clip0102)" style="stroke:#00a98d; stroke-width:16; stroke-opacity:1; fill:none" points="
  293.951,1269.97 316.693,1269.97 339.436,1269.95 362.179,1269.89 384.921,1269.75 407.664,1269.51 430.406,1269.13 453.149,1268.64 475.892,1268.05 498.634,1267.38 
  521.377,1266.67 544.12,1265.95 566.862,1265.23 589.605,1264.54 612.347,1263.89 635.09,1263.3 657.833,1262.76 680.575,1262.28 703.318,1261.85 726.061,1261.47 
  748.803,1261.14 771.546,1260.84 794.289,1260.56 817.031,1260.31 839.774,1260.07 862.516,1259.84 885.259,1259.62 908.002,1259.39 930.744,1259.17 953.487,1258.93 
  976.23,1258.69 998.972,1258.44 1021.71,1258.17 1044.46,1257.9 1067.2,1257.61 1089.94,1257.32 1112.69,1257.02 1135.43,1256.72 1158.17,1256.41 1180.91,1256.12 
  1203.66,1255.83 1226.4,1255.56 1249.14,1255.31 1271.88,1255.08 1294.63,1254.89 1317.37,1254.73 1340.11,1254.61 1362.85,1254.53 1385.6,1254.5 1408.34,1254.51 
  1431.08,1254.58 1453.82,1254.69 1476.57,1254.85 1499.31,1255.06 1522.05,1255.32 1544.8,1255.61 1567.54,1255.95 1590.28,1256.32 1613.02,1256.72 1635.77,1257.14 
  1658.51,1257.58 1681.25,1258.04 1703.99,1258.5 1726.74,1258.97 1749.48,1259.43 1772.22,1259.88 1794.96,1260.32 1817.71,1260.74 1840.45,1261.14 1863.19,1261.5 
  1885.93,1261.84 1908.68,1262.15 1931.42,1262.42 1954.16,1262.65 1976.91,1262.85 1999.65,1263 2022.39,1263.12 2045.13,1263.21 2067.88,1263.26 2090.62,1263.27 
  2113.36,1263.26 2136.1,1263.22 2158.85,1263.15 2181.59,1263.06 2204.33,1262.96 2227.07,1262.84 2249.82,1262.71 2272.56,1262.58 2295.3,1262.44 2318.04,1262.3 
  2340.79,1262.16 2363.53,1262.03 2386.27,1261.91 2409.02,1261.8 2431.76,1261.7 2454.5,1261.62 2477.24,1261.55 2499.99,1261.49 2522.73,1261.45 2545.47,1261.43 
  2568.21,1261.42 
  "/>
<polyline clip-path="url(#clip0102)" style="stroke:#8e971d; stroke-width:16; stroke-opacity:1; fill:none" points="
  293.951,2057.43 316.693,2055.79 339.436,2050.44 362.179,2039.52 384.921,2024.18 407.664,2005.76 430.406,1985.06 453.149,1962.71 475.892,1939.18 498.634,1914.86 
  521.377,1890.05 544.12,1864.97 566.862,1839.83 589.605,1814.78 612.347,1789.95 635.09,1765.46 657.833,1741.39 680.575,1717.83 703.318,1694.83 726.061,1672.47 
  748.803,1650.81 771.546,1629.9 794.289,1609.81 817.031,1590.58 839.774,1572.25 862.516,1554.88 885.259,1538.48 908.002,1523.09 930.744,1508.71 953.487,1495.34 
  976.23,1482.97 998.972,1471.54 1021.71,1460.98 1044.46,1451.1 1067.2,1441.9 1089.94,1433.47 1112.69,1425.62 1135.43,1418.27 1158.17,1411.35 1180.91,1404.79 
  1203.66,1398.54 1226.4,1392.58 1249.14,1386.87 1271.88,1381.38 1294.63,1376.1 1317.37,1371.03 1340.11,1366.13 1362.85,1361.42 1385.6,1356.89 1408.34,1352.54 
  1431.08,1348.35 1453.82,1344.34 1476.57,1340.5 1499.31,1336.83 1522.05,1333.32 1544.8,1329.98 1567.54,1326.79 1590.28,1323.76 1613.02,1320.88 1635.77,1318.15 
  1658.51,1315.55 1681.25,1313.07 1703.99,1310.72 1726.74,1308.49 1749.48,1306.36 1772.22,1304.32 1794.96,1302.38 1817.71,1300.51 1840.45,1298.72 1863.19,1296.99 
  1885.93,1295.32 1908.68,1293.69 1931.42,1292.11 1954.16,1290.57 1976.91,1289.07 1999.65,1287.59 2022.39,1286.14 2045.13,1284.71 2067.88,1283.3 2090.62,1281.92 
  2113.36,1280.55 2136.1,1279.21 2158.85,1277.89 2181.59,1276.6 2204.33,1275.34 2227.07,1274.11 2249.82,1272.91 2272.56,1271.76 2295.3,1270.65 2318.04,1269.6 
  2340.79,1268.6 2363.53,1267.67 2386.27,1266.81 2409.02,1266.02 2431.76,1265.32 2454.5,1264.72 2477.24,1264.21 2499.99,1263.8 2522.73,1263.5 2545.47,1263.31 
  2568.21,1263.23 
  "/>
<polyline clip-path="url(#clip0102)" style="stroke:#00a8cb; stroke-width:16; stroke-opacity:1; fill:none" points="
  293.951,1261.54 316.693,1266.19 339.436,1278.07 362.179,1292.65 384.921,1306.59 407.664,1318.45 430.406,1327.63 453.149,1334.01 475.892,1337.77 498.634,1339.15 
  521.377,1338.52 544.12,1336.29 566.862,1332.88 589.605,1328.67 612.347,1323.97 635.09,1319.04 657.833,1314.06 680.575,1309.18 703.318,1304.5 726.061,1300.09 
  748.803,1296 771.546,1292.27 794.289,1288.89 817.031,1285.87 839.774,1283.19 862.516,1280.83 885.259,1278.76 908.002,1276.95 930.744,1275.37 953.487,1273.99 
  976.23,1272.79 998.972,1271.74 1021.71,1270.81 1044.46,1269.87 1067.2,1269.02 1089.94,1268.42 1112.69,1268 1135.43,1267.74 1158.17,1267.64 1180.91,1267.7 
  1203.66,1267.91 1226.4,1268.26 1249.14,1268.75 1271.88,1269.36 1294.63,1270.09 1317.37,1270.92 1340.11,1271.83 1362.85,1272.82 1385.6,1273.86 1408.34,1274.94 
  1431.08,1276.04 1453.82,1277.12 1476.57,1278.19 1499.31,1279.2 1522.05,1280.15 1544.8,1281.02 1567.54,1281.77 1590.28,1282.41 1613.02,1282.91 1635.77,1283.26 
  1658.51,1283.44 1681.25,1283.46 1703.99,1283.31 1726.74,1282.98 1749.48,1282.48 1772.22,1281.81 1794.96,1280.97 1817.71,1279.99 1840.45,1278.86 1863.19,1277.6 
  1885.93,1276.24 1908.68,1274.79 1931.42,1273.26 1954.16,1271.68 1976.91,1270.08 1999.65,1268.46 2022.39,1266.87 2045.13,1265.3 2067.88,1263.79 2090.62,1262.36 
  2113.36,1261.02 2136.1,1259.78 2158.85,1258.67 2181.59,1257.69 2204.33,1256.86 2227.07,1256.17 2249.82,1255.65 2272.56,1255.27 2295.3,1255.06 2318.04,1255 
  2340.79,1255.09 2363.53,1255.32 2386.27,1255.69 2409.02,1256.17 2431.76,1256.77 2454.5,1257.46 2477.24,1258.23 2499.99,1259.06 2522.73,1259.95 2545.47,1260.86 
  2568.21,1261.8 
  "/>
<path clip-path="url(#clip0100)" d="
M2732.44 980.752 L3184.76 980.752 L3184.76 254.992 L2732.44 254.992  Z
  " fill="#ffffff" fill-rule="evenodd" fill-opacity="1"/>
<polyline clip-path="url(#clip0100)" style="stroke:#000000; stroke-width:4; stroke-opacity:1; fill:none" points="
  2732.44,980.752 3184.76,980.752 3184.76,254.992 2732.44,254.992 2732.44,980.752 
  "/>
<polyline clip-path="url(#clip0100)" style="stroke:#009af9; stroke-width:16; stroke-opacity:1; fill:none" points="
  2764.44,315.472 2956.44,315.472 
  "/>
<path clip-path="url(#clip0100)" d="M 0 0 M2988.44 291.712 L2994.87 291.712 L2994.87 333.821 L3018.01 333.821 L3018.01 339.232 L2988.44 339.232 L2988.44 291.712 Z" fill="#000000" fill-rule="evenodd" fill-opacity="1" /><path clip-path="url(#clip0100)" d="M 0 0 M3024.15 303.584 L3030.01 303.584 L3030.01 339.232 L3024.15 339.232 L3024.15 303.584 M3024.15 289.707 L3030.01 289.707 L3030.01 297.123 L3024.15 297.123 L3024.15 289.707 Z" fill="#000000" fill-rule="evenodd" fill-opacity="1" /><path clip-path="url(#clip0100)" d="M 0 0 M3054.2 289.707 L3054.2 294.577 L3048.6 294.577 Q3045.45 294.577 3044.21 295.85 Q3043 297.123 3043 300.433 L3043 303.584 L3052.64 303.584 L3052.64 308.136 L3043 308.136 L3043 339.232 L3037.11 339.232 L3037.11 308.136 L3031.51 308.136 L3031.51 303.584 L3037.11 303.584 L3037.11 301.102 Q3037.11 295.15 3039.88 292.444 Q3042.65 289.707 3048.66 289.707 L3054.2 289.707 Z" fill="#000000" fill-rule="evenodd" fill-opacity="1" /><path clip-path="url(#clip0100)" d="M 0 0 M3064.99 293.463 L3064.99 303.584 L3077.05 303.584 L3077.05 308.136 L3064.99 308.136 L3064.99 327.487 Q3064.99 331.848 3066.17 333.089 Q3067.38 334.331 3071.04 334.331 L3077.05 334.331 L3077.05 339.232 L3071.04 339.232 Q3064.26 339.232 3061.68 336.718 Q3059.1 334.171 3059.1 327.487 L3059.1 308.136 L3054.8 308.136 L3054.8 303.584 L3059.1 303.584 L3059.1 293.463 L3064.99 293.463 Z" fill="#000000" fill-rule="evenodd" fill-opacity="1" /><path clip-path="url(#clip0100)" d="M 0 0 M3105.86 333.821 L3116.36 333.821 L3116.36 297.569 L3104.93 299.86 L3104.93 294.004 L3116.3 291.712 L3122.73 291.712 L3122.73 333.821 L3133.23 333.821 L3133.23 339.232 L3105.86 339.232 L3105.86 333.821 Z" fill="#000000" fill-rule="evenodd" fill-opacity="1" /><polyline clip-path="url(#clip0100)" style="stroke:#e26f46; stroke-width:16; stroke-opacity:1; fill:none" points="
  2764.44,375.952 2956.44,375.952 
  "/>
<path clip-path="url(#clip0100)" d="M 0 0 M2988.44 352.192 L2994.87 352.192 L2994.87 394.301 L3018.01 394.301 L3018.01 399.712 L2988.44 399.712 L2988.44 352.192 Z" fill="#000000" fill-rule="evenodd" fill-opacity="1" /><path clip-path="url(#clip0100)" d="M 0 0 M3024.15 364.064 L3030.01 364.064 L3030.01 399.712 L3024.15 399.712 L3024.15 364.064 M3024.15 350.187 L3030.01 350.187 L3030.01 357.603 L3024.15 357.603 L3024.15 350.187 Z" fill="#000000" fill-rule="evenodd" fill-opacity="1" /><path clip-path="url(#clip0100)" d="M 0 0 M3054.2 350.187 L3054.2 355.057 L3048.6 355.057 Q3045.45 355.057 3044.21 356.33 Q3043 357.603 3043 360.913 L3043 364.064 L3052.64 364.064 L3052.64 368.616 L3043 368.616 L3043 399.712 L3037.11 399.712 L3037.11 368.616 L3031.51 368.616 L3031.51 364.064 L3037.11 364.064 L3037.11 361.582 Q3037.11 355.63 3039.88 352.924 Q3042.65 350.187 3048.66 350.187 L3054.2 350.187 Z" fill="#000000" fill-rule="evenodd" fill-opacity="1" /><path clip-path="url(#clip0100)" d="M 0 0 M3064.99 353.943 L3064.99 364.064 L3077.05 364.064 L3077.05 368.616 L3064.99 368.616 L3064.99 387.967 Q3064.99 392.328 3066.17 393.569 Q3067.38 394.811 3071.04 394.811 L3077.05 394.811 L3077.05 399.712 L3071.04 399.712 Q3064.26 399.712 3061.68 397.198 Q3059.1 394.651 3059.1 387.967 L3059.1 368.616 L3054.8 368.616 L3054.8 364.064 L3059.1 364.064 L3059.1 353.943 L3064.99 353.943 Z" fill="#000000" fill-rule="evenodd" fill-opacity="1" /><path clip-path="url(#clip0100)" d="M 0 0 M3110.28 394.301 L3132.72 394.301 L3132.72 399.712 L3102.55 399.712 L3102.55 394.301 Q3106.21 390.514 3112.51 384.148 Q3118.84 377.75 3120.47 375.904 Q3123.55 372.435 3124.76 370.048 Q3126 367.629 3126 365.305 Q3126 361.518 3123.33 359.131 Q3120.69 356.744 3116.42 356.744 Q3113.4 356.744 3110.03 357.794 Q3106.68 358.844 3102.87 360.977 L3102.87 354.484 Q3106.75 352.924 3110.12 352.128 Q3113.5 351.333 3116.3 351.333 Q3123.68 351.333 3128.07 355.025 Q3132.47 358.717 3132.47 364.892 Q3132.47 367.82 3131.35 370.462 Q3130.27 373.072 3127.37 376.636 Q3126.58 377.559 3122.31 381.984 Q3118.05 386.376 3110.28 394.301 Z" fill="#000000" fill-rule="evenodd" fill-opacity="1" /><polyline clip-path="url(#clip0100)" style="stroke:#3da44d; stroke-width:16; stroke-opacity:1; fill:none" points="
  2764.44,436.432 2956.44,436.432 
  "/>
<path clip-path="url(#clip0100)" d="M 0 0 M2988.44 412.672 L2994.87 412.672 L2994.87 454.781 L3018.01 454.781 L3018.01 460.192 L2988.44 460.192 L2988.44 412.672 Z" fill="#000000" fill-rule="evenodd" fill-opacity="1" /><path clip-path="url(#clip0100)" d="M 0 0 M3024.15 424.544 L3030.01 424.544 L3030.01 460.192 L3024.15 460.192 L3024.15 424.544 M3024.15 410.667 L3030.01 410.667 L3030.01 418.083 L3024.15 418.083 L3024.15 410.667 Z" fill="#000000" fill-rule="evenodd" fill-opacity="1" /><path clip-path="url(#clip0100)" d="M 0 0 M3054.2 410.667 L3054.2 415.537 L3048.6 415.537 Q3045.45 415.537 3044.21 416.81 Q3043 418.083 3043 421.393 L3043 424.544 L3052.64 424.544 L3052.64 429.096 L3043 429.096 L3043 460.192 L3037.11 460.192 L3037.11 429.096 L3031.51 429.096 L3031.51 424.544 L3037.11 424.544 L3037.11 422.062 Q3037.11 416.11 3039.88 413.404 Q3042.65 410.667 3048.66 410.667 L3054.2 410.667 Z" fill="#000000" fill-rule="evenodd" fill-opacity="1" /><path clip-path="url(#clip0100)" d="M 0 0 M3064.99 414.423 L3064.99 424.544 L3077.05 424.544 L3077.05 429.096 L3064.99 429.096 L3064.99 448.447 Q3064.99 452.808 3066.17 454.049 Q3067.38 455.291 3071.04 455.291 L3077.05 455.291 L3077.05 460.192 L3071.04 460.192 Q3064.26 460.192 3061.68 457.678 Q3059.1 455.131 3059.1 448.447 L3059.1 429.096 L3054.8 429.096 L3054.8 424.544 L3059.1 424.544 L3059.1 414.423 L3064.99 414.423 Z" fill="#000000" fill-rule="evenodd" fill-opacity="1" /><path clip-path="url(#clip0100)" d="M 0 0 M3124.22 434.57 Q3128.84 435.557 3131.42 438.676 Q3134.03 441.795 3134.03 446.379 Q3134.03 453.413 3129.19 457.264 Q3124.35 461.115 3115.44 461.115 Q3112.45 461.115 3109.26 460.51 Q3106.11 459.937 3102.74 458.76 L3102.74 452.553 Q3105.41 454.113 3108.59 454.909 Q3111.78 455.704 3115.25 455.704 Q3121.29 455.704 3124.45 453.317 Q3127.63 450.93 3127.63 446.379 Q3127.63 442.177 3124.67 439.822 Q3121.74 437.435 3116.49 437.435 L3110.95 437.435 L3110.95 432.151 L3116.74 432.151 Q3121.49 432.151 3124 430.273 Q3126.51 428.364 3126.51 424.799 Q3126.51 421.139 3123.9 419.197 Q3121.33 417.224 3116.49 417.224 Q3113.85 417.224 3110.82 417.797 Q3107.8 418.369 3104.17 419.579 L3104.17 413.85 Q3107.83 412.831 3111.01 412.322 Q3114.23 411.813 3117.06 411.813 Q3124.38 411.813 3128.65 415.155 Q3132.91 418.465 3132.91 424.13 Q3132.91 428.077 3130.65 430.814 Q3128.39 433.52 3124.22 434.57 Z" fill="#000000" fill-rule="evenodd" fill-opacity="1" /><polyline clip-path="url(#clip0100)" style="stroke:#c271d2; stroke-width:16; stroke-opacity:1; fill:none" points="
  2764.44,496.912 2956.44,496.912 
  "/>
<path clip-path="url(#clip0100)" d="M 0 0 M2988.44 473.152 L2994.87 473.152 L2994.87 515.261 L3018.01 515.261 L3018.01 520.672 L2988.44 520.672 L2988.44 473.152 Z" fill="#000000" fill-rule="evenodd" fill-opacity="1" /><path clip-path="url(#clip0100)" d="M 0 0 M3024.15 485.024 L3030.01 485.024 L3030.01 520.672 L3024.15 520.672 L3024.15 485.024 M3024.15 471.147 L3030.01 471.147 L3030.01 478.563 L3024.15 478.563 L3024.15 471.147 Z" fill="#000000" fill-rule="evenodd" fill-opacity="1" /><path clip-path="url(#clip0100)" d="M 0 0 M3054.2 471.147 L3054.2 476.017 L3048.6 476.017 Q3045.45 476.017 3044.21 477.29 Q3043 478.563 3043 481.873 L3043 485.024 L3052.64 485.024 L3052.64 489.576 L3043 489.576 L3043 520.672 L3037.11 520.672 L3037.11 489.576 L3031.51 489.576 L3031.51 485.024 L3037.11 485.024 L3037.11 482.542 Q3037.11 476.59 3039.88 473.884 Q3042.65 471.147 3048.66 471.147 L3054.2 471.147 Z" fill="#000000" fill-rule="evenodd" fill-opacity="1" /><path clip-path="url(#clip0100)" d="M 0 0 M3064.99 474.903 L3064.99 485.024 L3077.05 485.024 L3077.05 489.576 L3064.99 489.576 L3064.99 508.927 Q3064.99 513.288 3066.17 514.529 Q3067.38 515.771 3071.04 515.771 L3077.05 515.771 L3077.05 520.672 L3071.04 520.672 Q3064.26 520.672 3061.68 518.158 Q3059.1 515.611 3059.1 508.927 L3059.1 489.576 L3054.8 489.576 L3054.8 485.024 L3059.1 485.024 L3059.1 474.903 L3064.99 474.903 Z" fill="#000000" fill-rule="evenodd" fill-opacity="1" /><path clip-path="url(#clip0100)" d="M 0 0 M3122.41 478.754 L3106.18 504.121 L3122.41 504.121 L3122.41 478.754 M3120.72 473.152 L3128.81 473.152 L3128.81 504.121 L3135.59 504.121 L3135.59 509.468 L3128.81 509.468 L3128.81 520.672 L3122.41 520.672 L3122.41 509.468 L3100.96 509.468 L3100.96 503.262 L3120.72 473.152 Z" fill="#000000" fill-rule="evenodd" fill-opacity="1" /><polyline clip-path="url(#clip0100)" style="stroke:#ac8d18; stroke-width:16; stroke-opacity:1; fill:none" points="
  2764.44,557.392 2956.44,557.392 
  "/>
<path clip-path="url(#clip0100)" d="M 0 0 M2988.44 533.632 L2994.87 533.632 L2994.87 575.741 L3018.01 575.741 L3018.01 581.152 L2988.44 581.152 L2988.44 533.632 Z" fill="#000000" fill-rule="evenodd" fill-opacity="1" /><path clip-path="url(#clip0100)" d="M 0 0 M3024.15 545.504 L3030.01 545.504 L3030.01 581.152 L3024.15 581.152 L3024.15 545.504 M3024.15 531.627 L3030.01 531.627 L3030.01 539.043 L3024.15 539.043 L3024.15 531.627 Z" fill="#000000" fill-rule="evenodd" fill-opacity="1" /><path clip-path="url(#clip0100)" d="M 0 0 M3054.2 531.627 L3054.2 536.497 L3048.6 536.497 Q3045.45 536.497 3044.21 537.77 Q3043 539.043 3043 542.353 L3043 545.504 L3052.64 545.504 L3052.64 550.056 L3043 550.056 L3043 581.152 L3037.11 581.152 L3037.11 550.056 L3031.51 550.056 L3031.51 545.504 L3037.11 545.504 L3037.11 543.022 Q3037.11 537.07 3039.88 534.364 Q3042.65 531.627 3048.66 531.627 L3054.2 531.627 Z" fill="#000000" fill-rule="evenodd" fill-opacity="1" /><path clip-path="url(#clip0100)" d="M 0 0 M3064.99 535.383 L3064.99 545.504 L3077.05 545.504 L3077.05 550.056 L3064.99 550.056 L3064.99 569.407 Q3064.99 573.768 3066.17 575.009 Q3067.38 576.251 3071.04 576.251 L3077.05 576.251 L3077.05 581.152 L3071.04 581.152 Q3064.26 581.152 3061.68 578.638 Q3059.1 576.091 3059.1 569.407 L3059.1 550.056 L3054.8 550.056 L3054.8 545.504 L3059.1 545.504 L3059.1 535.383 L3064.99 535.383 Z" fill="#000000" fill-rule="evenodd" fill-opacity="1" /><path clip-path="url(#clip0100)" d="M 0 0 M3104.81 533.632 L3130.05 533.632 L3130.05 539.043 L3110.7 539.043 L3110.7 550.692 Q3112.1 550.215 3113.5 549.992 Q3114.9 549.737 3116.3 549.737 Q3124.25 549.737 3128.9 554.098 Q3133.55 558.458 3133.55 565.906 Q3133.55 573.577 3128.77 577.842 Q3124 582.075 3115.31 582.075 Q3112.32 582.075 3109.2 581.566 Q3106.11 581.057 3102.8 580.038 L3102.8 573.577 Q3105.67 575.137 3108.72 575.9 Q3111.78 576.664 3115.18 576.664 Q3120.69 576.664 3123.9 573.768 Q3127.12 570.872 3127.12 565.906 Q3127.12 560.941 3123.9 558.045 Q3120.69 555.148 3115.18 555.148 Q3112.6 555.148 3110.03 555.721 Q3107.48 556.294 3104.81 557.504 L3104.81 533.632 Z" fill="#000000" fill-rule="evenodd" fill-opacity="1" /><polyline clip-path="url(#clip0100)" style="stroke:#00a9ad; stroke-width:16; stroke-opacity:1; fill:none" points="
  2764.44,617.872 2956.44,617.872 
  "/>
<path clip-path="url(#clip0100)" d="M 0 0 M2988.44 594.112 L2994.87 594.112 L2994.87 636.221 L3018.01 636.221 L3018.01 641.632 L2988.44 641.632 L2988.44 594.112 Z" fill="#000000" fill-rule="evenodd" fill-opacity="1" /><path clip-path="url(#clip0100)" d="M 0 0 M3024.15 605.984 L3030.01 605.984 L3030.01 641.632 L3024.15 641.632 L3024.15 605.984 M3024.15 592.107 L3030.01 592.107 L3030.01 599.523 L3024.15 599.523 L3024.15 592.107 Z" fill="#000000" fill-rule="evenodd" fill-opacity="1" /><path clip-path="url(#clip0100)" d="M 0 0 M3054.2 592.107 L3054.2 596.977 L3048.6 596.977 Q3045.45 596.977 3044.21 598.25 Q3043 599.523 3043 602.833 L3043 605.984 L3052.64 605.984 L3052.64 610.536 L3043 610.536 L3043 641.632 L3037.11 641.632 L3037.11 610.536 L3031.51 610.536 L3031.51 605.984 L3037.11 605.984 L3037.11 603.502 Q3037.11 597.55 3039.88 594.844 Q3042.65 592.107 3048.66 592.107 L3054.2 592.107 Z" fill="#000000" fill-rule="evenodd" fill-opacity="1" /><path clip-path="url(#clip0100)" d="M 0 0 M3064.99 595.863 L3064.99 605.984 L3077.05 605.984 L3077.05 610.536 L3064.99 610.536 L3064.99 629.887 Q3064.99 634.248 3066.17 635.489 Q3067.38 636.731 3071.04 636.731 L3077.05 636.731 L3077.05 641.632 L3071.04 641.632 Q3064.26 641.632 3061.68 639.118 Q3059.1 636.571 3059.1 629.887 L3059.1 610.536 L3054.8 610.536 L3054.8 605.984 L3059.1 605.984 L3059.1 595.863 L3064.99 595.863 Z" fill="#000000" fill-rule="evenodd" fill-opacity="1" /><path clip-path="url(#clip0100)" d="M 0 0 M3119.29 615.31 Q3114.96 615.31 3112.41 618.27 Q3109.9 621.23 3109.9 626.386 Q3109.9 631.511 3112.41 634.503 Q3114.96 637.463 3119.29 637.463 Q3123.62 637.463 3126.13 634.503 Q3128.68 631.511 3128.68 626.386 Q3128.68 621.23 3126.13 618.27 Q3123.62 615.31 3119.29 615.31 M3132.05 595.162 L3132.05 601.019 Q3129.63 599.873 3127.15 599.268 Q3124.7 598.664 3122.28 598.664 Q3115.92 598.664 3112.54 602.96 Q3109.2 607.257 3108.72 615.946 Q3110.6 613.177 3113.43 611.713 Q3116.27 610.217 3119.67 610.217 Q3126.83 610.217 3130.97 614.578 Q3135.14 618.907 3135.14 626.386 Q3135.14 633.707 3130.81 638.131 Q3126.48 642.555 3119.29 642.555 Q3111.05 642.555 3106.68 636.253 Q3102.32 629.919 3102.32 617.92 Q3102.32 606.653 3107.67 599.969 Q3113.02 593.253 3122.03 593.253 Q3124.45 593.253 3126.9 593.73 Q3129.38 594.208 3132.05 595.162 Z" fill="#000000" fill-rule="evenodd" fill-opacity="1" /><polyline clip-path="url(#clip0100)" style="stroke:#ed5d92; stroke-width:16; stroke-opacity:1; fill:none" points="
  2764.44,678.352 2956.44,678.352 
  "/>
<path clip-path="url(#clip0100)" d="M 0 0 M2988.44 654.592 L2994.87 654.592 L2994.87 696.701 L3018.01 696.701 L3018.01 702.112 L2988.44 702.112 L2988.44 654.592 Z" fill="#000000" fill-rule="evenodd" fill-opacity="1" /><path clip-path="url(#clip0100)" d="M 0 0 M3024.15 666.464 L3030.01 666.464 L3030.01 702.112 L3024.15 702.112 L3024.15 666.464 M3024.15 652.587 L3030.01 652.587 L3030.01 660.003 L3024.15 660.003 L3024.15 652.587 Z" fill="#000000" fill-rule="evenodd" fill-opacity="1" /><path clip-path="url(#clip0100)" d="M 0 0 M3054.2 652.587 L3054.2 657.457 L3048.6 657.457 Q3045.45 657.457 3044.21 658.73 Q3043 660.003 3043 663.313 L3043 666.464 L3052.64 666.464 L3052.64 671.016 L3043 671.016 L3043 702.112 L3037.11 702.112 L3037.11 671.016 L3031.51 671.016 L3031.51 666.464 L3037.11 666.464 L3037.11 663.982 Q3037.11 658.03 3039.88 655.324 Q3042.65 652.587 3048.66 652.587 L3054.2 652.587 Z" fill="#000000" fill-rule="evenodd" fill-opacity="1" /><path clip-path="url(#clip0100)" d="M 0 0 M3064.99 656.343 L3064.99 666.464 L3077.05 666.464 L3077.05 671.016 L3064.99 671.016 L3064.99 690.367 Q3064.99 694.728 3066.17 695.969 Q3067.38 697.211 3071.04 697.211 L3077.05 697.211 L3077.05 702.112 L3071.04 702.112 Q3064.26 702.112 3061.68 699.598 Q3059.1 697.051 3059.1 690.367 L3059.1 671.016 L3054.8 671.016 L3054.8 666.464 L3059.1 666.464 L3059.1 656.343 L3064.99 656.343 Z" fill="#000000" fill-rule="evenodd" fill-opacity="1" /><path clip-path="url(#clip0100)" d="M 0 0 M3103.12 654.592 L3133.68 654.592 L3133.68 657.329 L3116.42 702.112 L3109.71 702.112 L3125.94 660.003 L3103.12 660.003 L3103.12 654.592 Z" fill="#000000" fill-rule="evenodd" fill-opacity="1" /><polyline clip-path="url(#clip0100)" style="stroke:#c68125; stroke-width:16; stroke-opacity:1; fill:none" points="
  2764.44,738.832 2956.44,738.832 
  "/>
<path clip-path="url(#clip0100)" d="M 0 0 M2988.44 715.072 L2994.87 715.072 L2994.87 757.181 L3018.01 757.181 L3018.01 762.592 L2988.44 762.592 L2988.44 715.072 Z" fill="#000000" fill-rule="evenodd" fill-opacity="1" /><path clip-path="url(#clip0100)" d="M 0 0 M3024.15 726.944 L3030.01 726.944 L3030.01 762.592 L3024.15 762.592 L3024.15 726.944 M3024.15 713.067 L3030.01 713.067 L3030.01 720.483 L3024.15 720.483 L3024.15 713.067 Z" fill="#000000" fill-rule="evenodd" fill-opacity="1" /><path clip-path="url(#clip0100)" d="M 0 0 M3054.2 713.067 L3054.2 717.937 L3048.6 717.937 Q3045.45 717.937 3044.21 719.21 Q3043 720.483 3043 723.793 L3043 726.944 L3052.64 726.944 L3052.64 731.496 L3043 731.496 L3043 762.592 L3037.11 762.592 L3037.11 731.496 L3031.51 731.496 L3031.51 726.944 L3037.11 726.944 L3037.11 724.462 Q3037.11 718.51 3039.88 715.804 Q3042.65 713.067 3048.66 713.067 L3054.2 713.067 Z" fill="#000000" fill-rule="evenodd" fill-opacity="1" /><path clip-path="url(#clip0100)" d="M 0 0 M3064.99 716.823 L3064.99 726.944 L3077.05 726.944 L3077.05 731.496 L3064.99 731.496 L3064.99 750.847 Q3064.99 755.208 3066.17 756.449 Q3067.38 757.691 3071.04 757.691 L3077.05 757.691 L3077.05 762.592 L3071.04 762.592 Q3064.26 762.592 3061.68 760.078 Q3059.1 757.531 3059.1 750.847 L3059.1 731.496 L3054.8 731.496 L3054.8 726.944 L3059.1 726.944 L3059.1 716.823 L3064.99 716.823 Z" fill="#000000" fill-rule="evenodd" fill-opacity="1" /><path clip-path="url(#clip0100)" d="M 0 0 M3118.49 740.026 Q3113.91 740.026 3111.27 742.476 Q3108.66 744.927 3108.66 749.224 Q3108.66 753.521 3111.27 755.972 Q3113.91 758.423 3118.49 758.423 Q3123.08 758.423 3125.72 755.972 Q3128.36 753.489 3128.36 749.224 Q3128.36 744.927 3125.72 742.476 Q3123.11 740.026 3118.49 740.026 M3112.06 737.288 Q3107.93 736.27 3105.6 733.437 Q3103.31 730.604 3103.31 726.53 Q3103.31 720.833 3107.35 717.523 Q3111.43 714.213 3118.49 714.213 Q3125.59 714.213 3129.63 717.523 Q3133.68 720.833 3133.68 726.53 Q3133.68 730.604 3131.35 733.437 Q3129.06 736.27 3124.95 737.288 Q3129.6 738.371 3132.18 741.522 Q3134.79 744.673 3134.79 749.224 Q3134.79 756.131 3130.56 759.823 Q3126.35 763.515 3118.49 763.515 Q3110.63 763.515 3106.4 759.823 Q3102.2 756.131 3102.2 749.224 Q3102.2 744.673 3104.81 741.522 Q3107.42 738.371 3112.06 737.288 M3109.71 727.135 Q3109.71 730.827 3112 732.896 Q3114.32 734.965 3118.49 734.965 Q3122.63 734.965 3124.95 732.896 Q3127.31 730.827 3127.31 727.135 Q3127.31 723.443 3124.95 721.374 Q3122.63 719.305 3118.49 719.305 Q3114.32 719.305 3112 721.374 Q3109.71 723.443 3109.71 727.135 Z" fill="#000000" fill-rule="evenodd" fill-opacity="1" /><polyline clip-path="url(#clip0100)" style="stroke:#00a98d; stroke-width:16; stroke-opacity:1; fill:none" points="
  2764.44,799.312 2956.44,799.312 
  "/>
<path clip-path="url(#clip0100)" d="M 0 0 M2988.44 775.552 L2994.87 775.552 L2994.87 817.661 L3018.01 817.661 L3018.01 823.072 L2988.44 823.072 L2988.44 775.552 Z" fill="#000000" fill-rule="evenodd" fill-opacity="1" /><path clip-path="url(#clip0100)" d="M 0 0 M3024.15 787.424 L3030.01 787.424 L3030.01 823.072 L3024.15 823.072 L3024.15 787.424 M3024.15 773.547 L3030.01 773.547 L3030.01 780.963 L3024.15 780.963 L3024.15 773.547 Z" fill="#000000" fill-rule="evenodd" fill-opacity="1" /><path clip-path="url(#clip0100)" d="M 0 0 M3054.2 773.547 L3054.2 778.417 L3048.6 778.417 Q3045.45 778.417 3044.21 779.69 Q3043 780.963 3043 784.273 L3043 787.424 L3052.64 787.424 L3052.64 791.976 L3043 791.976 L3043 823.072 L3037.11 823.072 L3037.11 791.976 L3031.51 791.976 L3031.51 787.424 L3037.11 787.424 L3037.11 784.942 Q3037.11 778.99 3039.88 776.284 Q3042.65 773.547 3048.66 773.547 L3054.2 773.547 Z" fill="#000000" fill-rule="evenodd" fill-opacity="1" /><path clip-path="url(#clip0100)" d="M 0 0 M3064.99 777.303 L3064.99 787.424 L3077.05 787.424 L3077.05 791.976 L3064.99 791.976 L3064.99 811.327 Q3064.99 815.688 3066.17 816.929 Q3067.38 818.171 3071.04 818.171 L3077.05 818.171 L3077.05 823.072 L3071.04 823.072 Q3064.26 823.072 3061.68 820.558 Q3059.1 818.011 3059.1 811.327 L3059.1 791.976 L3054.8 791.976 L3054.8 787.424 L3059.1 787.424 L3059.1 777.303 L3064.99 777.303 Z" fill="#000000" fill-rule="evenodd" fill-opacity="1" /><path clip-path="url(#clip0100)" d="M 0 0 M3104.93 822.085 L3104.93 816.229 Q3107.35 817.375 3109.84 817.98 Q3112.32 818.584 3114.71 818.584 Q3121.07 818.584 3124.41 814.319 Q3127.79 810.022 3128.26 801.301 Q3126.42 804.039 3123.59 805.503 Q3120.75 806.967 3117.32 806.967 Q3110.19 806.967 3106.02 802.67 Q3101.88 798.341 3101.88 790.862 Q3101.88 783.541 3106.21 779.117 Q3110.54 774.693 3117.73 774.693 Q3125.97 774.693 3130.3 781.027 Q3134.66 787.329 3134.66 799.36 Q3134.66 810.595 3129.31 817.311 Q3124 823.995 3114.99 823.995 Q3112.57 823.995 3110.09 823.518 Q3107.61 823.04 3104.93 822.085 M3117.73 801.938 Q3122.06 801.938 3124.57 798.978 Q3127.12 796.018 3127.12 790.862 Q3127.12 785.737 3124.57 782.777 Q3122.06 779.785 3117.73 779.785 Q3113.4 779.785 3110.85 782.777 Q3108.34 785.737 3108.34 790.862 Q3108.34 796.018 3110.85 798.978 Q3113.4 801.938 3117.73 801.938 Z" fill="#000000" fill-rule="evenodd" fill-opacity="1" /><polyline clip-path="url(#clip0100)" style="stroke:#8e971d; stroke-width:16; stroke-opacity:1; fill:none" points="
  2764.44,859.792 2956.44,859.792 
  "/>
<path clip-path="url(#clip0100)" d="M 0 0 M2988.44 836.032 L2994.87 836.032 L2994.87 878.141 L3018.01 878.141 L3018.01 883.552 L2988.44 883.552 L2988.44 836.032 Z" fill="#000000" fill-rule="evenodd" fill-opacity="1" /><path clip-path="url(#clip0100)" d="M 0 0 M3024.15 847.904 L3030.01 847.904 L3030.01 883.552 L3024.15 883.552 L3024.15 847.904 M3024.15 834.027 L3030.01 834.027 L3030.01 841.443 L3024.15 841.443 L3024.15 834.027 Z" fill="#000000" fill-rule="evenodd" fill-opacity="1" /><path clip-path="url(#clip0100)" d="M 0 0 M3054.2 834.027 L3054.2 838.897 L3048.6 838.897 Q3045.45 838.897 3044.21 840.17 Q3043 841.443 3043 844.753 L3043 847.904 L3052.64 847.904 L3052.64 852.456 L3043 852.456 L3043 883.552 L3037.11 883.552 L3037.11 852.456 L3031.51 852.456 L3031.51 847.904 L3037.11 847.904 L3037.11 845.422 Q3037.11 839.47 3039.88 836.764 Q3042.65 834.027 3048.66 834.027 L3054.2 834.027 Z" fill="#000000" fill-rule="evenodd" fill-opacity="1" /><path clip-path="url(#clip0100)" d="M 0 0 M3064.99 837.783 L3064.99 847.904 L3077.05 847.904 L3077.05 852.456 L3064.99 852.456 L3064.99 871.807 Q3064.99 876.168 3066.17 877.409 Q3067.38 878.651 3071.04 878.651 L3077.05 878.651 L3077.05 883.552 L3071.04 883.552 Q3064.26 883.552 3061.68 881.038 Q3059.1 878.491 3059.1 871.807 L3059.1 852.456 L3054.8 852.456 L3054.8 847.904 L3059.1 847.904 L3059.1 837.783 L3064.99 837.783 Z" fill="#000000" fill-rule="evenodd" fill-opacity="1" /><path clip-path="url(#clip0100)" d="M 0 0 M3105.86 878.141 L3116.36 878.141 L3116.36 841.889 L3104.93 844.18 L3104.93 838.324 L3116.3 836.032 L3122.73 836.032 L3122.73 878.141 L3133.23 878.141 L3133.23 883.552 L3105.86 883.552 L3105.86 878.141 Z" fill="#000000" fill-rule="evenodd" fill-opacity="1" /><path clip-path="url(#clip0100)" d="M 0 0 M3153.95 840.265 Q3148.98 840.265 3146.47 845.167 Q3143.99 850.037 3143.99 859.84 Q3143.99 869.611 3146.47 874.513 Q3148.98 879.383 3153.95 879.383 Q3158.95 879.383 3161.43 874.513 Q3163.94 869.611 3163.94 859.84 Q3163.94 850.037 3161.43 845.167 Q3158.95 840.265 3153.95 840.265 M3153.95 835.173 Q3161.94 835.173 3166.14 841.507 Q3170.37 847.809 3170.37 859.84 Q3170.37 871.839 3166.14 878.173 Q3161.94 884.475 3153.95 884.475 Q3145.96 884.475 3141.73 878.173 Q3137.53 871.839 3137.53 859.84 Q3137.53 847.809 3141.73 841.507 Q3145.96 835.173 3153.95 835.173 Z" fill="#000000" fill-rule="evenodd" fill-opacity="1" /><polyline clip-path="url(#clip0100)" style="stroke:#00a8cb; stroke-width:16; stroke-opacity:1; fill:none" points="
  2764.44,920.272 2956.44,920.272 
  "/>
<path clip-path="url(#clip0100)" d="M 0 0 M2988.44 896.512 L2994.87 896.512 L2994.87 938.621 L3018.01 938.621 L3018.01 944.032 L2988.44 944.032 L2988.44 896.512 Z" fill="#000000" fill-rule="evenodd" fill-opacity="1" /><path clip-path="url(#clip0100)" d="M 0 0 M3036.82 912.49 Q3032.11 912.49 3029.37 916.182 Q3026.64 919.842 3026.64 926.24 Q3026.64 932.638 3029.34 936.33 Q3032.08 939.99 3036.82 939.99 Q3041.5 939.99 3044.24 936.298 Q3046.97 932.606 3046.97 926.24 Q3046.97 919.906 3044.24 916.214 Q3041.5 912.49 3036.82 912.49 M3036.82 907.525 Q3044.46 907.525 3048.82 912.49 Q3053.18 917.455 3053.18 926.24 Q3053.18 934.993 3048.82 939.99 Q3044.46 944.955 3036.82 944.955 Q3029.15 944.955 3024.79 939.99 Q3020.46 934.993 3020.46 926.24 Q3020.46 917.455 3024.79 912.49 Q3029.15 907.525 3036.82 907.525 Z" fill="#000000" fill-rule="evenodd" fill-opacity="1" /><path clip-path="url(#clip0100)" d="M 0 0 M3075.52 926.113 Q3068.43 926.113 3065.69 927.736 Q3062.95 929.359 3062.95 933.274 Q3062.95 936.393 3064.99 938.239 Q3067.06 940.054 3070.59 940.054 Q3075.46 940.054 3078.39 936.616 Q3081.35 933.147 3081.35 927.418 L3081.35 926.113 L3075.52 926.113 M3087.21 923.694 L3087.21 944.032 L3081.35 944.032 L3081.35 938.621 Q3079.34 941.868 3076.35 943.427 Q3073.36 944.955 3069.03 944.955 Q3063.56 944.955 3060.31 941.9 Q3057.1 938.812 3057.1 933.656 Q3057.1 927.64 3061.11 924.585 Q3065.15 921.529 3073.14 921.529 L3081.35 921.529 L3081.35 920.956 Q3081.35 916.914 3078.68 914.718 Q3076.03 912.49 3071.23 912.49 Q3068.17 912.49 3065.28 913.222 Q3062.38 913.954 3059.71 915.418 L3059.71 910.007 Q3062.92 908.766 3065.94 908.161 Q3068.97 907.525 3071.83 907.525 Q3079.57 907.525 3083.39 911.535 Q3087.21 915.546 3087.21 923.694 Z" fill="#000000" fill-rule="evenodd" fill-opacity="1" /><path clip-path="url(#clip0100)" d="M 0 0 M3116.81 913.795 L3116.81 894.507 L3122.66 894.507 L3122.66 944.032 L3116.81 944.032 L3116.81 938.685 Q3114.96 941.868 3112.13 943.427 Q3109.33 944.955 3105.38 944.955 Q3098.92 944.955 3094.84 939.799 Q3090.8 934.643 3090.8 926.24 Q3090.8 917.837 3094.84 912.681 Q3098.92 907.525 3105.38 907.525 Q3109.33 907.525 3112.13 909.084 Q3114.96 910.612 3116.81 913.795 M3096.85 926.24 Q3096.85 932.701 3099.49 936.393 Q3102.17 940.054 3106.81 940.054 Q3111.46 940.054 3114.13 936.393 Q3116.81 932.701 3116.81 926.24 Q3116.81 919.779 3114.13 916.119 Q3111.46 912.426 3106.81 912.426 Q3102.17 912.426 3099.49 916.119 Q3096.85 919.779 3096.85 926.24 Z" fill="#000000" fill-rule="evenodd" fill-opacity="1" /></svg>
