<?xml version="1.0" encoding="utf-8"?>
<svg xmlns="http://www.w3.org/2000/svg" xmlns:xlink="http://www.w3.org/1999/xlink" width="800" height="600" viewBox="0 0 3200 2400">
<defs>
  <clipPath id="clip2800">
    <rect x="0" y="0" width="3200" height="2400"/>
  </clipPath>
</defs>
<path clip-path="url(#clip2800)" d="
M0 2400 L3200 2400 L3200 0 L0 0  Z
  " fill="#ffffff" fill-rule="evenodd" fill-opacity="1"/>
<defs>
  <clipPath id="clip2801">
    <rect x="640" y="0" width="2241" height="2241"/>
  </clipPath>
</defs>
<path clip-path="url(#clip2800)" d="
M239.663 2204.92 L2636.44 2204.92 L2636.44 131.032 L239.663 131.032  Z
  " fill="#ffffff" fill-rule="evenodd" fill-opacity="1"/>
<defs>
  <clipPath id="clip2802">
    <rect x="239" y="131" width="2398" height="2075"/>
  </clipPath>
</defs>
<polyline clip-path="url(#clip2802)" style="stroke:#000000; stroke-width:2; stroke-opacity:0.1; fill:none" points="
  307.496,2204.92 307.496,131.032 
  "/>
<polyline clip-path="url(#clip2802)" style="stroke:#000000; stroke-width:2; stroke-opacity:0.1; fill:none" points="
  759.719,2204.92 759.719,131.032 
  "/>
<polyline clip-path="url(#clip2802)" style="stroke:#000000; stroke-width:2; stroke-opacity:0.1; fill:none" points="
  1211.94,2204.92 1211.94,131.032 
  "/>
<polyline clip-path="url(#clip2802)" style="stroke:#000000; stroke-width:2; stroke-opacity:0.1; fill:none" points="
  1664.16,2204.92 1664.16,131.032 
  "/>
<polyline clip-path="url(#clip2802)" style="stroke:#000000; stroke-width:2; stroke-opacity:0.1; fill:none" points="
  2116.39,2204.92 2116.39,131.032 
  "/>
<polyline clip-path="url(#clip2802)" style="stroke:#000000; stroke-width:2; stroke-opacity:0.1; fill:none" points="
  2568.61,2204.92 2568.61,131.032 
  "/>
<polyline clip-path="url(#clip2802)" style="stroke:#000000; stroke-width:2; stroke-opacity:0.1; fill:none" points="
  239.663,2202.81 2636.44,2202.81 
  "/>
<polyline clip-path="url(#clip2802)" style="stroke:#000000; stroke-width:2; stroke-opacity:0.1; fill:none" points="
  239.663,1727.06 2636.44,1727.06 
  "/>
<polyline clip-path="url(#clip2802)" style="stroke:#000000; stroke-width:2; stroke-opacity:0.1; fill:none" points="
  239.663,1251.31 2636.44,1251.31 
  "/>
<polyline clip-path="url(#clip2802)" style="stroke:#000000; stroke-width:2; stroke-opacity:0.1; fill:none" points="
  239.663,775.567 2636.44,775.567 
  "/>
<polyline clip-path="url(#clip2802)" style="stroke:#000000; stroke-width:2; stroke-opacity:0.1; fill:none" points="
  239.663,299.818 2636.44,299.818 
  "/>
<polyline clip-path="url(#clip2800)" style="stroke:#000000; stroke-width:4; stroke-opacity:1; fill:none" points="
  239.663,2204.92 2636.44,2204.92 
  "/>
<polyline clip-path="url(#clip2800)" style="stroke:#000000; stroke-width:4; stroke-opacity:1; fill:none" points="
  239.663,2204.92 239.663,131.032 
  "/>
<polyline clip-path="url(#clip2800)" style="stroke:#000000; stroke-width:4; stroke-opacity:1; fill:none" points="
  307.496,2204.92 307.496,2180.03 
  "/>
<polyline clip-path="url(#clip2800)" style="stroke:#000000; stroke-width:4; stroke-opacity:1; fill:none" points="
  759.719,2204.92 759.719,2180.03 
  "/>
<polyline clip-path="url(#clip2800)" style="stroke:#000000; stroke-width:4; stroke-opacity:1; fill:none" points="
  1211.94,2204.92 1211.94,2180.03 
  "/>
<polyline clip-path="url(#clip2800)" style="stroke:#000000; stroke-width:4; stroke-opacity:1; fill:none" points="
  1664.16,2204.92 1664.16,2180.03 
  "/>
<polyline clip-path="url(#clip2800)" style="stroke:#000000; stroke-width:4; stroke-opacity:1; fill:none" points="
  2116.39,2204.92 2116.39,2180.03 
  "/>
<polyline clip-path="url(#clip2800)" style="stroke:#000000; stroke-width:4; stroke-opacity:1; fill:none" points="
  2568.61,2204.92 2568.61,2180.03 
  "/>
<polyline clip-path="url(#clip2800)" style="stroke:#000000; stroke-width:4; stroke-opacity:1; fill:none" points="
  239.663,2202.81 268.424,2202.81 
  "/>
<polyline clip-path="url(#clip2800)" style="stroke:#000000; stroke-width:4; stroke-opacity:1; fill:none" points="
  239.663,1727.06 268.424,1727.06 
  "/>
<polyline clip-path="url(#clip2800)" style="stroke:#000000; stroke-width:4; stroke-opacity:1; fill:none" points="
  239.663,1251.31 268.424,1251.31 
  "/>
<polyline clip-path="url(#clip2800)" style="stroke:#000000; stroke-width:4; stroke-opacity:1; fill:none" points="
  239.663,775.567 268.424,775.567 
  "/>
<polyline clip-path="url(#clip2800)" style="stroke:#000000; stroke-width:4; stroke-opacity:1; fill:none" points="
  239.663,299.818 268.424,299.818 
  "/>
<path clip-path="url(#clip2800)" d="M 0 0 M307.496 2230.91 Q303.885 2230.91 302.056 2234.48 Q300.251 2238.02 300.251 2245.15 Q300.251 2252.25 302.056 2255.82 Q303.885 2259.36 307.496 2259.36 Q311.13 2259.36 312.936 2255.82 Q314.765 2252.25 314.765 2245.15 Q314.765 2238.02 312.936 2234.48 Q311.13 2230.91 307.496 2230.91 M307.496 2227.21 Q313.306 2227.21 316.362 2231.81 Q319.44 2236.4 319.44 2245.15 Q319.44 2253.87 316.362 2258.48 Q313.306 2263.06 307.496 2263.06 Q301.686 2263.06 298.607 2258.48 Q295.552 2253.87 295.552 2245.15 Q295.552 2236.4 298.607 2231.81 Q301.686 2227.21 307.496 2227.21 Z" fill="#000000" fill-rule="evenodd" fill-opacity="1" /><path clip-path="url(#clip2800)" d="M 0 0 M750.101 2258.46 L757.739 2258.46 L757.739 2232.09 L749.429 2233.76 L749.429 2229.5 L757.693 2227.83 L762.369 2227.83 L762.369 2258.46 L770.008 2258.46 L770.008 2262.39 L750.101 2262.39 L750.101 2258.46 Z" fill="#000000" fill-rule="evenodd" fill-opacity="1" /><path clip-path="url(#clip2800)" d="M 0 0 M1206.59 2258.46 L1222.91 2258.46 L1222.91 2262.39 L1200.97 2262.39 L1200.97 2258.46 Q1203.63 2255.7 1208.21 2251.07 Q1212.82 2246.42 1214 2245.08 Q1216.25 2242.55 1217.13 2240.82 Q1218.03 2239.06 1218.03 2237.37 Q1218.03 2234.61 1216.08 2232.88 Q1214.16 2231.14 1211.06 2231.14 Q1208.86 2231.14 1206.41 2231.91 Q1203.98 2232.67 1201.2 2234.22 L1201.2 2229.5 Q1204.02 2228.36 1206.48 2227.79 Q1208.93 2227.21 1210.97 2227.21 Q1216.34 2227.21 1219.53 2229.89 Q1222.73 2232.58 1222.73 2237.07 Q1222.73 2239.2 1221.92 2241.12 Q1221.13 2243.02 1219.02 2245.61 Q1218.45 2246.28 1215.34 2249.5 Q1212.24 2252.69 1206.59 2258.46 Z" fill="#000000" fill-rule="evenodd" fill-opacity="1" /><path clip-path="url(#clip2800)" d="M 0 0 M1668.41 2243.76 Q1671.77 2244.48 1673.64 2246.74 Q1675.54 2249.01 1675.54 2252.35 Q1675.54 2257.46 1672.02 2260.26 Q1668.5 2263.06 1662.02 2263.06 Q1659.85 2263.06 1657.53 2262.62 Q1655.24 2262.21 1652.79 2261.35 L1652.79 2256.84 Q1654.73 2257.97 1657.05 2258.55 Q1659.36 2259.13 1661.88 2259.13 Q1666.28 2259.13 1668.57 2257.39 Q1670.89 2255.66 1670.89 2252.35 Q1670.89 2249.29 1668.74 2247.58 Q1666.61 2245.84 1662.79 2245.84 L1658.76 2245.84 L1658.76 2242 L1662.97 2242 Q1666.42 2242 1668.25 2240.63 Q1670.08 2239.24 1670.08 2236.65 Q1670.08 2233.99 1668.18 2232.58 Q1666.3 2231.14 1662.79 2231.14 Q1660.86 2231.14 1658.67 2231.56 Q1656.47 2231.98 1653.83 2232.85 L1653.83 2228.69 Q1656.49 2227.95 1658.8 2227.58 Q1661.14 2227.21 1663.2 2227.21 Q1668.53 2227.21 1671.63 2229.64 Q1674.73 2232.04 1674.73 2236.17 Q1674.73 2239.04 1673.09 2241.03 Q1671.44 2242.99 1668.41 2243.76 Z" fill="#000000" fill-rule="evenodd" fill-opacity="1" /><path clip-path="url(#clip2800)" d="M 0 0 M2119.4 2231.91 L2107.59 2250.35 L2119.4 2250.35 L2119.4 2231.91 M2118.17 2227.83 L2124.05 2227.83 L2124.05 2250.35 L2128.98 2250.35 L2128.98 2254.24 L2124.05 2254.24 L2124.05 2262.39 L2119.4 2262.39 L2119.4 2254.24 L2103.79 2254.24 L2103.79 2249.73 L2118.17 2227.83 Z" fill="#000000" fill-rule="evenodd" fill-opacity="1" /><path clip-path="url(#clip2800)" d="M 0 0 M2558.89 2227.83 L2577.24 2227.83 L2577.24 2231.77 L2563.17 2231.77 L2563.17 2240.24 Q2564.19 2239.89 2565.21 2239.73 Q2566.22 2239.54 2567.24 2239.54 Q2573.03 2239.54 2576.41 2242.72 Q2579.79 2245.89 2579.79 2251.3 Q2579.79 2256.88 2576.32 2259.98 Q2572.84 2263.06 2566.53 2263.06 Q2564.35 2263.06 2562.08 2262.69 Q2559.84 2262.32 2557.43 2261.58 L2557.43 2256.88 Q2559.51 2258.02 2561.73 2258.57 Q2563.96 2259.13 2566.43 2259.13 Q2570.44 2259.13 2572.78 2257.02 Q2575.11 2254.92 2575.11 2251.3 Q2575.11 2247.69 2572.78 2245.59 Q2570.44 2243.48 2566.43 2243.48 Q2564.56 2243.48 2562.68 2243.9 Q2560.83 2244.31 2558.89 2245.19 L2558.89 2227.83 Z" fill="#000000" fill-rule="evenodd" fill-opacity="1" /><path clip-path="url(#clip2800)" d="M 0 0 M132.432 2205.21 L144.908 2205.21 L144.908 2209 L132.432 2209 L132.432 2205.21 Z" fill="#000000" fill-rule="evenodd" fill-opacity="1" /><path clip-path="url(#clip2800)" d="M 0 0 M150.788 2216.16 L158.427 2216.16 L158.427 2189.79 L150.117 2191.46 L150.117 2187.2 L158.381 2185.53 L163.056 2185.53 L163.056 2216.16 L170.695 2216.16 L170.695 2220.09 L150.788 2220.09 L150.788 2216.16 Z" fill="#000000" fill-rule="evenodd" fill-opacity="1" /><path clip-path="url(#clip2800)" d="M 0 0 M175.765 2214.21 L180.649 2214.21 L180.649 2220.09 L175.765 2220.09 L175.765 2214.21 Z" fill="#000000" fill-rule="evenodd" fill-opacity="1" /><path clip-path="url(#clip2800)" d="M 0 0 M195.718 2188.61 Q192.107 2188.61 190.279 2192.17 Q188.473 2195.72 188.473 2202.85 Q188.473 2209.95 190.279 2213.52 Q192.107 2217.06 195.718 2217.06 Q199.353 2217.06 201.158 2213.52 Q202.987 2209.95 202.987 2202.85 Q202.987 2195.72 201.158 2192.17 Q199.353 2188.61 195.718 2188.61 M195.718 2184.91 Q201.528 2184.91 204.584 2189.51 Q207.663 2194.1 207.663 2202.85 Q207.663 2211.57 204.584 2216.18 Q201.528 2220.76 195.718 2220.76 Q189.908 2220.76 186.829 2216.18 Q183.774 2211.57 183.774 2202.85 Q183.774 2194.1 186.829 2189.51 Q189.908 2184.91 195.718 2184.91 Z" fill="#000000" fill-rule="evenodd" fill-opacity="1" /><path clip-path="url(#clip2800)" d="M 0 0 M132.2 1729.46 L144.677 1729.46 L144.677 1733.26 L132.2 1733.26 L132.2 1729.46 Z" fill="#000000" fill-rule="evenodd" fill-opacity="1" /><path clip-path="url(#clip2800)" d="M 0 0 M159.746 1712.86 Q156.135 1712.86 154.307 1716.43 Q152.501 1719.97 152.501 1727.1 Q152.501 1734.2 154.307 1737.77 Q156.135 1741.31 159.746 1741.31 Q163.381 1741.31 165.186 1737.77 Q167.015 1734.2 167.015 1727.1 Q167.015 1719.97 165.186 1716.43 Q163.381 1712.86 159.746 1712.86 M159.746 1709.16 Q165.556 1709.16 168.612 1713.76 Q171.691 1718.35 171.691 1727.1 Q171.691 1735.82 168.612 1740.43 Q165.556 1745.01 159.746 1745.01 Q153.936 1745.01 150.857 1740.43 Q147.802 1735.82 147.802 1727.1 Q147.802 1718.35 150.857 1713.76 Q153.936 1709.16 159.746 1709.16 Z" fill="#000000" fill-rule="evenodd" fill-opacity="1" /><path clip-path="url(#clip2800)" d="M 0 0 M176.76 1738.46 L181.644 1738.46 L181.644 1744.34 L176.76 1744.34 L176.76 1738.46 Z" fill="#000000" fill-rule="evenodd" fill-opacity="1" /><path clip-path="url(#clip2800)" d="M 0 0 M186.76 1709.78 L205.116 1709.78 L205.116 1713.72 L191.042 1713.72 L191.042 1722.19 Q192.061 1721.84 193.079 1721.68 Q194.098 1721.5 195.116 1721.5 Q200.903 1721.5 204.283 1724.67 Q207.663 1727.84 207.663 1733.26 Q207.663 1738.83 204.191 1741.94 Q200.718 1745.01 194.399 1745.01 Q192.223 1745.01 189.954 1744.64 Q187.709 1744.27 185.302 1743.53 L185.302 1738.83 Q187.385 1739.97 189.607 1740.52 Q191.829 1741.08 194.306 1741.08 Q198.311 1741.08 200.649 1738.97 Q202.987 1736.87 202.987 1733.26 Q202.987 1729.64 200.649 1727.54 Q198.311 1725.43 194.306 1725.43 Q192.431 1725.43 190.556 1725.85 Q188.704 1726.26 186.76 1727.14 L186.76 1709.78 Z" fill="#000000" fill-rule="evenodd" fill-opacity="1" /><path clip-path="url(#clip2800)" d="M 0 0 M158.751 1237.11 Q155.14 1237.11 153.311 1240.68 Q151.506 1244.22 151.506 1251.35 Q151.506 1258.46 153.311 1262.02 Q155.14 1265.56 158.751 1265.56 Q162.385 1265.56 164.191 1262.02 Q166.019 1258.46 166.019 1251.35 Q166.019 1244.22 164.191 1240.68 Q162.385 1237.11 158.751 1237.11 M158.751 1233.41 Q164.561 1233.41 167.617 1238.02 Q170.695 1242.6 170.695 1251.35 Q170.695 1260.08 167.617 1264.68 Q164.561 1269.27 158.751 1269.27 Q152.941 1269.27 149.862 1264.68 Q146.807 1260.08 146.807 1251.35 Q146.807 1242.6 149.862 1238.02 Q152.941 1233.41 158.751 1233.41 Z" fill="#000000" fill-rule="evenodd" fill-opacity="1" /><path clip-path="url(#clip2800)" d="M 0 0 M175.765 1262.72 L180.649 1262.72 L180.649 1268.59 L175.765 1268.59 L175.765 1262.72 Z" fill="#000000" fill-rule="evenodd" fill-opacity="1" /><path clip-path="url(#clip2800)" d="M 0 0 M195.718 1237.11 Q192.107 1237.11 190.279 1240.68 Q188.473 1244.22 188.473 1251.35 Q188.473 1258.46 190.279 1262.02 Q192.107 1265.56 195.718 1265.56 Q199.353 1265.56 201.158 1262.02 Q202.987 1258.46 202.987 1251.35 Q202.987 1244.22 201.158 1240.68 Q199.353 1237.11 195.718 1237.11 M195.718 1233.41 Q201.528 1233.41 204.584 1238.02 Q207.663 1242.6 207.663 1251.35 Q207.663 1260.08 204.584 1264.68 Q201.528 1269.27 195.718 1269.27 Q189.908 1269.27 186.829 1264.68 Q183.774 1260.08 183.774 1251.35 Q183.774 1242.6 186.829 1238.02 Q189.908 1233.41 195.718 1233.41 Z" fill="#000000" fill-rule="evenodd" fill-opacity="1" /><path clip-path="url(#clip2800)" d="M 0 0 M159.746 761.365 Q156.135 761.365 154.307 764.93 Q152.501 768.472 152.501 775.601 Q152.501 782.708 154.307 786.272 Q156.135 789.814 159.746 789.814 Q163.381 789.814 165.186 786.272 Q167.015 782.708 167.015 775.601 Q167.015 768.472 165.186 764.93 Q163.381 761.365 159.746 761.365 M159.746 757.662 Q165.556 757.662 168.612 762.268 Q171.691 766.851 171.691 775.601 Q171.691 784.328 168.612 788.934 Q165.556 793.518 159.746 793.518 Q153.936 793.518 150.857 788.934 Q147.802 784.328 147.802 775.601 Q147.802 766.851 150.857 762.268 Q153.936 757.662 159.746 757.662 Z" fill="#000000" fill-rule="evenodd" fill-opacity="1" /><path clip-path="url(#clip2800)" d="M 0 0 M176.76 786.967 L181.644 786.967 L181.644 792.847 L176.76 792.847 L176.76 786.967 Z" fill="#000000" fill-rule="evenodd" fill-opacity="1" /><path clip-path="url(#clip2800)" d="M 0 0 M186.76 758.287 L205.116 758.287 L205.116 762.222 L191.042 762.222 L191.042 770.694 Q192.061 770.347 193.079 770.185 Q194.098 769.999 195.116 769.999 Q200.903 769.999 204.283 773.171 Q207.663 776.342 207.663 781.759 Q207.663 787.337 204.191 790.439 Q200.718 793.518 194.399 793.518 Q192.223 793.518 189.954 793.147 Q187.709 792.777 185.302 792.036 L185.302 787.337 Q187.385 788.472 189.607 789.027 Q191.829 789.583 194.306 789.583 Q198.311 789.583 200.649 787.476 Q202.987 785.37 202.987 781.759 Q202.987 778.148 200.649 776.041 Q198.311 773.935 194.306 773.935 Q192.431 773.935 190.556 774.351 Q188.704 774.768 186.76 775.648 L186.76 758.287 Z" fill="#000000" fill-rule="evenodd" fill-opacity="1" /><path clip-path="url(#clip2800)" d="M 0 0 M150.788 313.163 L158.427 313.163 L158.427 286.797 L150.117 288.464 L150.117 284.205 L158.381 282.538 L163.056 282.538 L163.056 313.163 L170.695 313.163 L170.695 317.098 L150.788 317.098 L150.788 313.163 Z" fill="#000000" fill-rule="evenodd" fill-opacity="1" /><path clip-path="url(#clip2800)" d="M 0 0 M175.765 311.219 L180.649 311.219 L180.649 317.098 L175.765 317.098 L175.765 311.219 Z" fill="#000000" fill-rule="evenodd" fill-opacity="1" /><path clip-path="url(#clip2800)" d="M 0 0 M195.718 285.617 Q192.107 285.617 190.279 289.182 Q188.473 292.723 188.473 299.853 Q188.473 306.959 190.279 310.524 Q192.107 314.066 195.718 314.066 Q199.353 314.066 201.158 310.524 Q202.987 306.959 202.987 299.853 Q202.987 292.723 201.158 289.182 Q199.353 285.617 195.718 285.617 M195.718 281.913 Q201.528 281.913 204.584 286.52 Q207.663 291.103 207.663 299.853 Q207.663 308.58 204.584 313.186 Q201.528 317.769 195.718 317.769 Q189.908 317.769 186.829 313.186 Q183.774 308.58 183.774 299.853 Q183.774 291.103 186.829 286.52 Q189.908 281.913 195.718 281.913 Z" fill="#000000" fill-rule="evenodd" fill-opacity="1" /><path clip-path="url(#clip2800)" d="M 0 0 M1004 45.1919 L1004 72.576 L996.544 72.576 L996.544 45.4349 Q996.544 38.994 994.033 35.7938 Q991.521 32.5936 986.498 32.5936 Q980.462 32.5936 976.978 36.4419 Q973.495 40.2903 973.495 46.9338 L973.495 72.576 L966 72.576 L966 9.54393 L973.495 9.54393 L973.495 34.2544 Q976.168 30.163 979.773 28.1376 Q983.419 26.1121 988.159 26.1121 Q995.977 26.1121 999.987 30.9732 Q1004 35.7938 1004 45.1919 Z" fill="#000000" fill-rule="evenodd" fill-opacity="1" /><path clip-path="url(#clip2800)" d="M 0 0 M1029.4 32.4315 Q1023.4 32.4315 1019.92 37.1306 Q1016.43 41.7891 1016.43 49.9314 Q1016.43 58.0738 1019.88 62.7728 Q1023.36 67.4314 1029.4 67.4314 Q1035.35 67.4314 1038.84 62.7323 Q1042.32 58.0333 1042.32 49.9314 Q1042.32 41.8701 1038.84 37.1711 Q1035.35 32.4315 1029.4 32.4315 M1029.4 26.1121 Q1039.12 26.1121 1044.67 32.4315 Q1050.22 38.7509 1050.22 49.9314 Q1050.22 61.0714 1044.67 67.4314 Q1039.12 73.7508 1029.4 73.7508 Q1019.63 73.7508 1014.08 67.4314 Q1008.58 61.0714 1008.58 49.9314 Q1008.58 38.7509 1014.08 32.4315 Q1019.63 26.1121 1029.4 26.1121 Z" fill="#000000" fill-rule="evenodd" fill-opacity="1" /><path clip-path="url(#clip2800)" d="M 0 0 M1052.69 27.2059 L1060.59 27.2059 L1074.77 65.2844 L1088.95 27.2059 L1096.84 27.2059 L1079.83 72.576 L1069.7 72.576 L1052.69 27.2059 Z" fill="#000000" fill-rule="evenodd" fill-opacity="1" /><path clip-path="url(#clip2800)" d="M 0 0 M1143.47 48.0275 L1143.47 51.6733 L1109.2 51.6733 Q1109.69 59.3701 1113.82 63.421 Q1117.99 67.4314 1125.4 67.4314 Q1129.7 67.4314 1133.71 66.3781 Q1137.76 65.3249 1141.73 63.2184 L1141.73 70.267 Q1137.72 71.9684 1133.51 72.8596 Q1129.29 73.7508 1124.96 73.7508 Q1114.1 73.7508 1107.74 67.4314 Q1101.42 61.1119 1101.42 50.3365 Q1101.42 39.1965 1107.42 32.6746 Q1113.45 26.1121 1123.66 26.1121 Q1132.82 26.1121 1138.12 32.0264 Q1143.47 37.9003 1143.47 48.0275 M1136.02 45.84 Q1135.94 39.7232 1132.57 36.0774 Q1129.25 32.4315 1123.74 32.4315 Q1117.5 32.4315 1113.74 35.9558 Q1110.01 39.4801 1109.44 45.8805 L1136.02 45.84 Z" fill="#000000" fill-rule="evenodd" fill-opacity="1" /><path clip-path="url(#clip2800)" d="M 0 0 M1177.58 34.1734 Q1176.32 33.4443 1174.82 33.1202 Q1173.37 32.7556 1171.58 32.7556 Q1165.26 32.7556 1161.86 36.8875 Q1158.5 40.9789 1158.5 48.6757 L1158.5 72.576 L1151.01 72.576 L1151.01 27.2059 L1158.5 27.2059 L1158.5 34.2544 Q1160.85 30.1225 1164.62 28.1376 Q1168.38 26.1121 1173.77 26.1121 Q1174.54 26.1121 1175.47 26.2337 Q1176.4 26.3147 1177.54 26.5172 L1177.58 34.1734 Z" fill="#000000" fill-rule="evenodd" fill-opacity="1" /><path clip-path="url(#clip2800)" d="M 0 0 M1176.32 46.5287 L1198.16 46.5287 L1198.16 53.1722 L1176.32 53.1722 L1176.32 46.5287 Z" fill="#000000" fill-rule="evenodd" fill-opacity="1" /><path clip-path="url(#clip2800)" d="M 0 0 M1208.45 65.6895 L1221.81 65.6895 L1221.81 19.5497 L1207.27 22.4663 L1207.27 15.0127 L1221.73 12.096 L1229.92 12.096 L1229.92 65.6895 L1243.28 65.6895 L1243.28 72.576 L1208.45 72.576 L1208.45 65.6895 Z" fill="#000000" fill-rule="evenodd" fill-opacity="1" /><path clip-path="url(#clip2800)" d="M 0 0 M1269.66 17.4837 Q1263.34 17.4837 1260.14 23.7221 Q1256.98 29.92 1256.98 42.3968 Q1256.98 54.833 1260.14 61.0714 Q1263.34 67.2693 1269.66 67.2693 Q1276.02 67.2693 1279.18 61.0714 Q1282.38 54.833 1282.38 42.3968 Q1282.38 29.92 1279.18 23.7221 Q1276.02 17.4837 1269.66 17.4837 M1269.66 11.0023 Q1279.82 11.0023 1285.17 19.0636 Q1290.56 27.0843 1290.56 42.3968 Q1290.56 57.6687 1285.17 65.73 Q1279.82 73.7508 1269.66 73.7508 Q1259.49 73.7508 1254.1 65.73 Q1248.75 57.6687 1248.75 42.3968 Q1248.75 27.0843 1254.1 19.0636 Q1259.49 11.0023 1269.66 11.0023 Z" fill="#000000" fill-rule="evenodd" fill-opacity="1" /><path clip-path="url(#clip2800)" d="M 0 0 M1320.98 46.5287 L1342.82 46.5287 L1342.82 53.1722 L1320.98 53.1722 L1320.98 46.5287 Z" fill="#000000" fill-rule="evenodd" fill-opacity="1" /><path clip-path="url(#clip2800)" d="M 0 0 M1397.54 20.1573 L1386.44 50.2555 L1408.68 50.2555 L1397.54 20.1573 M1392.93 12.096 L1402.2 12.096 L1425.25 72.576 L1416.74 72.576 L1411.24 57.061 L1383.97 57.061 L1378.46 72.576 L1369.84 72.576 L1392.93 12.096 Z" fill="#000000" fill-rule="evenodd" fill-opacity="1" /><path clip-path="url(#clip2800)" d="M 0 0 M1462.92 49.3643 Q1462.92 41.2625 1459.56 36.8065 Q1456.24 32.3505 1450.2 32.3505 Q1444.21 32.3505 1440.85 36.8065 Q1437.53 41.2625 1437.53 49.3643 Q1437.53 57.4256 1440.85 61.8816 Q1444.21 66.3376 1450.2 66.3376 Q1456.24 66.3376 1459.56 61.8816 Q1462.92 57.4256 1462.92 49.3643 M1470.38 66.9452 Q1470.38 78.5308 1465.23 84.1616 Q1460.09 89.8329 1449.48 89.8329 Q1445.55 89.8329 1442.06 89.2252 Q1438.58 88.6581 1435.3 87.4428 L1435.3 80.1917 Q1438.58 81.9741 1441.78 82.8248 Q1444.98 83.6755 1448.3 83.6755 Q1455.63 83.6755 1459.28 79.8271 Q1462.92 76.0193 1462.92 68.282 L1462.92 64.5957 Q1460.62 68.6061 1457.01 70.5911 Q1453.41 72.576 1448.38 72.576 Q1440.04 72.576 1434.93 66.2161 Q1429.83 59.8562 1429.83 49.3643 Q1429.83 38.832 1434.93 32.472 Q1440.04 26.1121 1448.38 26.1121 Q1453.41 26.1121 1457.01 28.0971 Q1460.62 30.082 1462.92 34.0924 L1462.92 27.2059 L1470.38 27.2059 L1470.38 66.9452 Z" fill="#000000" fill-rule="evenodd" fill-opacity="1" /><path clip-path="url(#clip2800)" d="M 0 0 M1517 48.0275 L1517 51.6733 L1482.73 51.6733 Q1483.22 59.3701 1487.35 63.421 Q1491.52 67.4314 1498.94 67.4314 Q1503.23 67.4314 1507.24 66.3781 Q1511.29 65.3249 1515.26 63.2184 L1515.26 70.267 Q1511.25 71.9684 1507.04 72.8596 Q1502.83 73.7508 1498.49 73.7508 Q1487.64 73.7508 1481.28 67.4314 Q1474.96 61.1119 1474.96 50.3365 Q1474.96 39.1965 1480.95 32.6746 Q1486.99 26.1121 1497.2 26.1121 Q1506.35 26.1121 1511.66 32.0264 Q1517 37.9003 1517 48.0275 M1509.55 45.84 Q1509.47 39.7232 1506.11 36.0774 Q1502.79 32.4315 1497.28 32.4315 Q1491.04 32.4315 1487.27 35.9558 Q1483.54 39.4801 1482.98 45.8805 L1509.55 45.84 Z" fill="#000000" fill-rule="evenodd" fill-opacity="1" /><path clip-path="url(#clip2800)" d="M 0 0 M1562.54 45.1919 L1562.54 72.576 L1555.08 72.576 L1555.08 45.4349 Q1555.08 38.994 1552.57 35.7938 Q1550.06 32.5936 1545.04 32.5936 Q1539 32.5936 1535.52 36.4419 Q1532.03 40.2903 1532.03 46.9338 L1532.03 72.576 L1524.54 72.576 L1524.54 27.2059 L1532.03 27.2059 L1532.03 34.2544 Q1534.71 30.163 1538.31 28.1376 Q1541.96 26.1121 1546.7 26.1121 Q1554.52 26.1121 1558.53 30.9732 Q1562.54 35.7938 1562.54 45.1919 Z" fill="#000000" fill-rule="evenodd" fill-opacity="1" /><path clip-path="url(#clip2800)" d="M 0 0 M1577.73 14.324 L1577.73 27.2059 L1593.08 27.2059 L1593.08 32.9987 L1577.73 32.9987 L1577.73 57.6282 Q1577.73 63.1779 1579.23 64.7578 Q1580.77 66.3376 1585.42 66.3376 L1593.08 66.3376 L1593.08 72.576 L1585.42 72.576 Q1576.8 72.576 1573.51 69.3758 Q1570.23 66.1351 1570.23 57.6282 L1570.23 32.9987 L1564.76 32.9987 L1564.76 27.2059 L1570.23 27.2059 L1570.23 14.324 L1577.73 14.324 Z" fill="#000000" fill-rule="evenodd" fill-opacity="1" /><path clip-path="url(#clip2800)" d="M 0 0 M1643.19 72.576 L1620.1 12.096 L1628.65 12.096 L1647.81 63.0159 L1667.01 12.096 L1675.52 12.096 L1652.47 72.576 L1643.19 72.576 Z" fill="#000000" fill-rule="evenodd" fill-opacity="1" /><path clip-path="url(#clip2800)" d="M 0 0 M1715.7 48.0275 L1715.7 51.6733 L1681.43 51.6733 Q1681.92 59.3701 1686.05 63.421 Q1690.22 67.4314 1697.63 67.4314 Q1701.93 67.4314 1705.94 66.3781 Q1709.99 65.3249 1713.96 63.2184 L1713.96 70.267 Q1709.95 71.9684 1705.74 72.8596 Q1701.52 73.7508 1697.19 73.7508 Q1686.33 73.7508 1679.97 67.4314 Q1673.65 61.1119 1673.65 50.3365 Q1673.65 39.1965 1679.65 32.6746 Q1685.68 26.1121 1695.89 26.1121 Q1705.05 26.1121 1710.35 32.0264 Q1715.7 37.9003 1715.7 48.0275 M1708.25 45.84 Q1708.17 39.7232 1704.8 36.0774 Q1701.48 32.4315 1695.97 32.4315 Q1689.73 32.4315 1685.97 35.9558 Q1682.24 39.4801 1681.67 45.8805 L1708.25 45.84 Z" fill="#000000" fill-rule="evenodd" fill-opacity="1" /><path clip-path="url(#clip2800)" d="M 0 0 M1723.52 9.54393 L1730.97 9.54393 L1730.97 72.576 L1723.52 72.576 L1723.52 9.54393 Z" fill="#000000" fill-rule="evenodd" fill-opacity="1" /><path clip-path="url(#clip2800)" d="M 0 0 M1756.37 32.4315 Q1750.38 32.4315 1746.89 37.1306 Q1743.41 41.7891 1743.41 49.9314 Q1743.41 58.0738 1746.85 62.7728 Q1750.34 67.4314 1756.37 67.4314 Q1762.33 67.4314 1765.81 62.7323 Q1769.29 58.0333 1769.29 49.9314 Q1769.29 41.8701 1765.81 37.1711 Q1762.33 32.4315 1756.37 32.4315 M1756.37 26.1121 Q1766.09 26.1121 1771.64 32.4315 Q1777.19 38.7509 1777.19 49.9314 Q1777.19 61.0714 1771.64 67.4314 Q1766.09 73.7508 1756.37 73.7508 Q1746.61 73.7508 1741.06 67.4314 Q1735.55 61.0714 1735.55 49.9314 Q1735.55 38.7509 1741.06 32.4315 Q1746.61 26.1121 1756.37 26.1121 Z" fill="#000000" fill-rule="evenodd" fill-opacity="1" /><path clip-path="url(#clip2800)" d="M 0 0 M1817.66 28.9478 L1817.66 35.9153 Q1814.5 34.1734 1811.3 33.3227 Q1808.14 32.4315 1804.9 32.4315 Q1797.65 32.4315 1793.64 37.0496 Q1789.63 41.6271 1789.63 49.9314 Q1789.63 58.2358 1793.64 62.8538 Q1797.65 67.4314 1804.9 67.4314 Q1808.14 67.4314 1811.3 66.5807 Q1814.5 65.6895 1817.66 63.9476 L1817.66 70.8341 Q1814.54 72.2924 1811.18 73.0216 Q1807.86 73.7508 1804.09 73.7508 Q1793.84 73.7508 1787.81 67.3098 Q1781.77 60.8689 1781.77 49.9314 Q1781.77 38.832 1787.85 32.472 Q1793.96 26.1121 1804.58 26.1121 Q1808.02 26.1121 1811.3 26.8413 Q1814.58 27.5299 1817.66 28.9478 Z" fill="#000000" fill-rule="evenodd" fill-opacity="1" /><path clip-path="url(#clip2800)" d="M 0 0 M1825.48 27.2059 L1832.93 27.2059 L1832.93 72.576 L1825.48 72.576 L1825.48 27.2059 M1825.48 9.54393 L1832.93 9.54393 L1832.93 18.9825 L1825.48 18.9825 L1825.48 9.54393 Z" fill="#000000" fill-rule="evenodd" fill-opacity="1" /><path clip-path="url(#clip2800)" d="M 0 0 M1848.13 14.324 L1848.13 27.2059 L1863.48 27.2059 L1863.48 32.9987 L1848.13 32.9987 L1848.13 57.6282 Q1848.13 63.1779 1849.62 64.7578 Q1851.16 66.3376 1855.82 66.3376 L1863.48 66.3376 L1863.48 72.576 L1855.82 72.576 Q1847.19 72.576 1843.91 69.3758 Q1840.63 66.1351 1840.63 57.6282 L1840.63 32.9987 L1835.16 32.9987 L1835.16 27.2059 L1840.63 27.2059 L1840.63 14.324 L1848.13 14.324 Z" fill="#000000" fill-rule="evenodd" fill-opacity="1" /><path clip-path="url(#clip2800)" d="M 0 0 M1890.17 76.7889 Q1887.01 84.8907 1884.02 87.3618 Q1881.02 89.8329 1876 89.8329 L1870.04 89.8329 L1870.04 83.5945 L1874.42 83.5945 Q1877.49 83.5945 1879.2 82.1361 Q1880.9 80.6778 1882.96 75.2496 L1884.3 71.8468 L1865.95 27.2059 L1873.85 27.2059 L1888.03 62.6918 L1902.2 27.2059 L1910.1 27.2059 L1890.17 76.7889 Z" fill="#000000" fill-rule="evenodd" fill-opacity="1" /><path clip-path="url(#clip2800)" d="M 0 0 M1319.89 2298.26 L1360.09 2298.26 L1360.09 2303.67 L1343.22 2303.67 L1343.22 2345.78 L1336.76 2345.78 L1336.76 2303.67 L1319.89 2303.67 L1319.89 2298.26 Z" fill="#000000" fill-rule="evenodd" fill-opacity="1" /><path clip-path="url(#clip2800)" d="M 0 0 M1364.23 2310.14 L1370.08 2310.14 L1370.08 2345.78 L1364.23 2345.78 L1364.23 2310.14 M1364.23 2296.26 L1370.08 2296.26 L1370.08 2303.67 L1364.23 2303.67 L1364.23 2296.26 Z" fill="#000000" fill-rule="evenodd" fill-opacity="1" /><path clip-path="url(#clip2800)" d="M 0 0 M1403.98 2316.98 Q1406.18 2313.03 1409.23 2311.15 Q1412.29 2309.28 1416.42 2309.28 Q1421.99 2309.28 1425.02 2313.19 Q1428.04 2317.07 1428.04 2324.27 L1428.04 2345.78 L1422.15 2345.78 L1422.15 2324.46 Q1422.15 2319.33 1420.34 2316.85 Q1418.53 2314.37 1414.8 2314.37 Q1410.25 2314.37 1407.61 2317.39 Q1404.97 2320.42 1404.97 2325.64 L1404.97 2345.78 L1399.08 2345.78 L1399.08 2324.46 Q1399.08 2319.3 1397.26 2316.85 Q1395.45 2314.37 1391.66 2314.37 Q1387.17 2314.37 1384.53 2317.42 Q1381.89 2320.45 1381.89 2325.64 L1381.89 2345.78 L1376 2345.78 L1376 2310.14 L1381.89 2310.14 L1381.89 2315.67 Q1383.9 2312.4 1386.7 2310.84 Q1389.5 2309.28 1393.35 2309.28 Q1397.23 2309.28 1399.94 2311.25 Q1402.67 2313.22 1403.98 2316.98 Z" fill="#000000" fill-rule="evenodd" fill-opacity="1" /><path clip-path="url(#clip2800)" d="M 0 0 M1464.68 2326.5 L1464.68 2329.36 L1437.75 2329.36 Q1438.13 2335.41 1441.38 2338.59 Q1444.66 2341.74 1450.48 2341.74 Q1453.86 2341.74 1457.01 2340.91 Q1460.19 2340.09 1463.31 2338.43 L1463.31 2343.97 Q1460.16 2345.31 1456.85 2346.01 Q1453.54 2346.71 1450.13 2346.71 Q1441.6 2346.71 1436.6 2341.74 Q1431.64 2336.78 1431.64 2328.31 Q1431.64 2319.56 1436.35 2314.43 Q1441.09 2309.28 1449.11 2309.28 Q1456.31 2309.28 1460.48 2313.92 Q1464.68 2318.54 1464.68 2326.5 M1458.82 2324.78 Q1458.76 2319.97 1456.11 2317.11 Q1453.51 2314.24 1449.18 2314.24 Q1444.27 2314.24 1441.31 2317.01 Q1438.39 2319.78 1437.94 2324.81 L1458.82 2324.78 Z" fill="#000000" fill-rule="evenodd" fill-opacity="1" /><path clip-path="url(#clip2800)" d="M 0 0 M1505.61 2296.32 Q1501.34 2303.64 1499.27 2310.8 Q1497.21 2317.97 1497.21 2325.32 Q1497.21 2332.67 1499.27 2339.9 Q1501.38 2347.09 1505.61 2354.38 L1500.52 2354.38 Q1495.74 2346.9 1493.35 2339.67 Q1491 2332.45 1491 2325.32 Q1491 2318.22 1493.35 2311.03 Q1495.71 2303.83 1500.52 2296.32 L1505.61 2296.32 Z" fill="#000000" fill-rule="evenodd" fill-opacity="1" /><path clip-path="url(#clip2800)" d="M 0 0 M1534.48 2311.19 L1534.48 2316.72 Q1531.99 2315.45 1529.32 2314.81 Q1526.65 2314.18 1523.78 2314.18 Q1519.42 2314.18 1517.23 2315.51 Q1515.06 2316.85 1515.06 2319.53 Q1515.06 2321.56 1516.62 2322.74 Q1518.18 2323.89 1522.89 2324.94 L1524.9 2325.38 Q1531.13 2326.72 1533.74 2329.17 Q1536.39 2331.59 1536.39 2335.95 Q1536.39 2340.91 1532.44 2343.81 Q1528.52 2346.71 1521.65 2346.71 Q1518.79 2346.71 1515.67 2346.13 Q1512.58 2345.59 1509.14 2344.48 L1509.14 2338.43 Q1512.39 2340.12 1515.54 2340.98 Q1518.69 2341.81 1521.78 2341.81 Q1525.91 2341.81 1528.14 2340.4 Q1530.37 2338.97 1530.37 2336.39 Q1530.37 2334.01 1528.75 2332.73 Q1527.16 2331.46 1521.71 2330.28 L1519.68 2329.81 Q1514.23 2328.66 1511.81 2326.3 Q1509.4 2323.92 1509.4 2319.78 Q1509.4 2314.75 1512.96 2312.01 Q1516.53 2309.28 1523.08 2309.28 Q1526.33 2309.28 1529.19 2309.75 Q1532.06 2310.23 1534.48 2311.19 Z" fill="#000000" fill-rule="evenodd" fill-opacity="1" /><path clip-path="url(#clip2800)" d="M 0 0 M1541.61 2296.32 L1546.7 2296.32 Q1551.47 2303.83 1553.83 2311.03 Q1556.22 2318.22 1556.22 2325.32 Q1556.22 2332.45 1553.83 2339.67 Q1551.47 2346.9 1546.7 2354.38 L1541.61 2354.38 Q1545.84 2347.09 1547.91 2339.9 Q1550.01 2332.67 1550.01 2325.32 Q1550.01 2317.97 1547.91 2310.8 Q1545.84 2303.64 1541.61 2296.32 Z" fill="#000000" fill-rule="evenodd" fill-opacity="1" /><path clip-path="url(#clip2800)" d="M 0 0 M42.7847 1277.4 Q42.7847 1284.4 48.0045 1288.54 Q53.2244 1292.65 62.2319 1292.65 Q71.2075 1292.65 76.4274 1288.54 Q81.6473 1284.4 81.6473 1277.4 Q81.6473 1270.4 76.4274 1266.33 Q71.2075 1262.22 62.2319 1262.22 Q53.2244 1262.22 48.0045 1266.33 Q42.7847 1270.4 42.7847 1277.4 M85.0848 1268.4 L94.3469 1259.93 L94.3469 1267.69 L86.7399 1274.73 Q86.8035 1275.78 86.8354 1276.35 Q86.8672 1276.89 86.8672 1277.4 Q86.8672 1287.43 80.1832 1293.44 Q73.4674 1299.43 62.2319 1299.43 Q50.9646 1299.43 44.2806 1293.44 Q37.5648 1287.43 37.5648 1277.4 Q37.5648 1267.41 44.2806 1261.42 Q50.9646 1255.44 62.2319 1255.44 Q70.5073 1255.44 76.3956 1258.78 Q82.2839 1262.09 85.0848 1268.4 Z" fill="#000000" fill-rule="evenodd" fill-opacity="1" /><path clip-path="url(#clip2800)" d="M 0 0 M36.419 1274.73 L36.419 1268.87 L43.835 1268.87 L43.835 1274.73 L36.419 1274.73 M49.4368 1271.74 L49.4368 1271.74 Z" fill="#000000" fill-rule="evenodd" fill-opacity="1" /><path clip-path="url(#clip2800)" d="M 0 0 M82.443 1263.91 L82.443 1257.41 L62.9958 1257.41 L64.3008 1264.51 L60.6086 1264.51 L59.3673 1257.19 L59.3673 1252.83 L82.443 1252.83 L82.443 1246.31 L85.9442 1246.31 L85.9442 1263.91 L82.443 1263.91 Z" fill="#000000" fill-rule="evenodd" fill-opacity="1" /><path clip-path="url(#clip2800)" d="M 0 0 M36.4826 1205.37 Q43.8032 1209.64 50.9646 1211.71 Q58.126 1213.78 65.4784 1213.78 Q72.8308 1213.78 80.0559 1211.71 Q87.2491 1209.61 94.5379 1205.37 L94.5379 1210.47 Q87.0582 1215.24 79.8331 1217.63 Q72.608 1219.98 65.4784 1219.98 Q58.3806 1219.98 51.1874 1217.63 Q43.9942 1215.27 36.4826 1210.47 L36.4826 1205.37 Z" fill="#000000" fill-rule="evenodd" fill-opacity="1" /><path clip-path="url(#clip2800)" d="M 0 0 M55.7707 1178.57 Q55.1978 1179.56 54.9432 1180.74 Q54.6567 1181.89 54.6567 1183.29 Q54.6567 1188.25 57.9032 1190.92 Q61.1179 1193.57 67.1653 1193.57 L85.9442 1193.57 L85.9442 1199.45 L50.2962 1199.45 L50.2962 1193.57 L55.8344 1193.57 Q52.5879 1191.72 51.0283 1188.76 Q49.4368 1185.8 49.4368 1181.57 Q49.4368 1180.96 49.5323 1180.23 Q49.596 1179.5 49.7551 1178.61 L55.7707 1178.57 Z" fill="#000000" fill-rule="evenodd" fill-opacity="1" /><path clip-path="url(#clip2800)" d="M 0 0 M68.0247 1156.23 Q68.0247 1163.33 69.6479 1166.07 Q71.2712 1168.8 75.1861 1168.8 Q78.3053 1168.8 80.1514 1166.77 Q81.9656 1164.7 81.9656 1161.16 Q81.9656 1156.29 78.5281 1153.37 Q75.0588 1150.41 69.3297 1150.41 L68.0247 1150.41 L68.0247 1156.23 M65.6057 1144.55 L85.9442 1144.55 L85.9442 1150.41 L80.5333 1150.41 Q83.7798 1152.41 85.3394 1155.4 Q86.8672 1158.4 86.8672 1162.72 Q86.8672 1168.2 83.8116 1171.45 Q80.7243 1174.66 75.5681 1174.66 Q69.5525 1174.66 66.4969 1170.65 Q63.4414 1166.61 63.4414 1158.62 L63.4414 1150.41 L62.8685 1150.41 Q58.8262 1150.41 56.6301 1153.08 Q54.4021 1155.72 54.4021 1160.53 Q54.4021 1163.58 55.1341 1166.48 Q55.8662 1169.38 57.3303 1172.05 L51.9195 1172.05 Q50.6781 1168.84 50.0734 1165.81 Q49.4368 1162.79 49.4368 1159.92 Q49.4368 1152.19 53.4472 1148.37 Q57.4576 1144.55 65.6057 1144.55 Z" fill="#000000" fill-rule="evenodd" fill-opacity="1" /><path clip-path="url(#clip2800)" d="M 0 0 M55.7071 1114.95 L36.419 1114.95 L36.419 1109.09 L85.9442 1109.09 L85.9442 1114.95 L80.597 1114.95 Q83.7798 1116.8 85.3394 1119.63 Q86.8672 1122.43 86.8672 1126.38 Q86.8672 1132.84 81.711 1136.91 Q76.5547 1140.95 68.152 1140.95 Q59.7493 1140.95 54.5931 1136.91 Q49.4368 1132.84 49.4368 1126.38 Q49.4368 1122.43 50.9964 1119.63 Q52.5242 1116.8 55.7071 1114.95 M68.152 1134.91 Q74.6132 1134.91 78.3053 1132.26 Q81.9656 1129.59 81.9656 1124.94 Q81.9656 1120.3 78.3053 1117.62 Q74.6132 1114.95 68.152 1114.95 Q61.6908 1114.95 58.0305 1117.62 Q54.3384 1120.3 54.3384 1124.94 Q54.3384 1129.59 58.0305 1132.26 Q61.6908 1134.91 68.152 1134.91 Z" fill="#000000" fill-rule="evenodd" fill-opacity="1" /><path clip-path="url(#clip2800)" d="M 0 0 M38.4242 1092.54 L38.4242 1087.13 L91.9916 1103.68 L91.9916 1109.09 L38.4242 1092.54 Z" fill="#000000" fill-rule="evenodd" fill-opacity="1" /><path clip-path="url(#clip2800)" d="M 0 0 M51.3465 1058.26 L56.8847 1058.26 Q55.6116 1060.75 54.975 1063.42 Q54.3384 1066.09 54.3384 1068.96 Q54.3384 1073.32 55.6752 1075.51 Q57.012 1077.68 59.6856 1077.68 Q61.7226 1077.68 62.9003 1076.12 Q64.0461 1074.56 65.0965 1069.85 L65.5421 1067.84 Q66.8789 1061.61 69.3297 1059 Q71.7486 1056.35 76.1091 1056.35 Q81.0744 1056.35 83.9708 1060.3 Q86.8672 1064.21 86.8672 1071.09 Q86.8672 1073.95 86.2943 1077.07 Q85.7532 1080.16 84.6392 1083.6 L78.5918 1083.6 Q80.2787 1080.35 81.138 1077.2 Q81.9656 1074.05 81.9656 1070.96 Q81.9656 1066.82 80.5651 1064.6 Q79.1329 1062.37 76.5547 1062.37 Q74.1676 1062.37 72.8945 1063.99 Q71.6213 1065.58 70.4437 1071.03 L69.9662 1073.06 Q68.8204 1078.51 66.4651 1080.92 Q64.078 1083.34 59.9402 1083.34 Q54.9113 1083.34 52.1741 1079.78 Q49.4368 1076.21 49.4368 1069.66 Q49.4368 1066.41 49.9143 1063.55 Q50.3917 1060.68 51.3465 1058.26 Z" fill="#000000" fill-rule="evenodd" fill-opacity="1" /><path clip-path="url(#clip2800)" d="M 0 0 M36.4826 1051.13 L36.4826 1046.04 Q43.9942 1041.27 51.1874 1038.91 Q58.3806 1036.52 65.4784 1036.52 Q72.608 1036.52 79.8331 1038.91 Q87.0582 1041.27 94.5379 1046.04 L94.5379 1051.13 Q87.2491 1046.9 80.0559 1044.83 Q72.8308 1042.73 65.4784 1042.73 Q58.126 1042.73 50.9646 1044.83 Q43.8032 1046.9 36.4826 1051.13 Z" fill="#000000" fill-rule="evenodd" fill-opacity="1" /><polyline clip-path="url(#clip2802)" style="stroke:#009af9; stroke-width:16; stroke-opacity:1; fill:none" points="
  307.496,1251.31 330.107,982.148 352.718,1030.59 375.329,1047.26 397.941,1070.85 420.552,1102.73 443.163,1139.47 465.774,1178.62 488.385,1216.88 510.996,1253.21 
  533.607,1285.17 556.218,1312.35 578.83,1334.08 601.441,1350.78 624.052,1362.61 646.663,1370.14 669.274,1373.84 691.885,1374.23 714.496,1371.91 737.107,1367.19 
  759.719,1360.78 782.33,1352.68 804.941,1343.76 827.552,1333.66 850.163,1323.49 872.774,1312.41 895.385,1301.91 917.996,1290.6 940.608,1280.43 963.219,1269.38 
  985.83,1259.95 1008.44,1249.55 1031.05,1241.46 1053.66,1249.66 1076.27,1232.06 1098.89,1229.2 1121.5,1227.52 1144.11,1225.68 1166.72,1224.63 1189.33,1223.7 
  1211.94,1223.32 1234.55,1223.2 1257.16,1223.47 1279.77,1224.03 1302.39,1224.88 1325,1225.98 1347.61,1227.31 1370.22,1228.83 1392.83,1230.51 1415.44,1232.32 
  1438.05,1234.22 1460.66,1236.21 1483.27,1238.22 1505.89,1240.26 1528.5,1242.28 1551.11,1244.27 1573.72,1246.2 1596.33,1248.05 1618.94,1249.81 1641.55,1251.46 
  1664.16,1252.98 1686.77,1254.35 1709.39,1255.57 1732,1256.63 1754.61,1257.52 1777.22,1258.24 1799.83,1258.78 1822.44,1259.15 1845.05,1259.35 1867.66,1259.39 
  1890.27,1259.27 1912.89,1259.01 1935.5,1258.61 1958.11,1258.1 1980.72,1257.48 2003.33,1256.78 2025.94,1256 2048.55,1255.19 2071.16,1254.33 2093.77,1253.47 
  2116.39,1252.61 2139,1251.78 2161.61,1250.98 2184.22,1250.24 2206.83,1249.55 2229.44,1248.95 2252.05,1248.44 2274.66,1248.02 2297.27,1247.7 2319.89,1247.48 
  2342.5,1247.38 2365.11,1247.36 2387.72,1247.48 2410.33,1247.65 2432.94,1247.98 2455.55,1248.31 2478.16,1248.83 2500.78,1249.31 2523.39,1249.98 2546,1250.56 
  2568.61,1251.31 
  "/>
<polyline clip-path="url(#clip2802)" style="stroke:#e26f46; stroke-width:16; stroke-opacity:1; fill:none" points="
  307.496,1251.31 330.107,1412.33 352.718,1205.37 375.329,1141.59 397.941,1122.94 420.552,1123.63 443.163,1134.27 465.774,1151.65 488.385,1173.74 510.996,1197.68 
  533.607,1221.46 556.218,1243.83 578.83,1263.97 601.441,1281.48 624.052,1296.24 646.663,1308.23 669.274,1317.55 691.885,1324.4 714.496,1328.87 737.107,1331.37 
  759.719,1331.77 782.33,1330.69 804.941,1327.67 827.552,1323.65 850.163,1317.74 872.774,1311.29 895.385,1302.84 917.996,1294.34 940.608,1283.62 963.219,1273.39 
  985.83,1260.58 1008.44,1248.95 1031.05,1234.64 1053.66,1249.02 1076.27,1227.8 1098.89,1227.56 1121.5,1227.13 1144.11,1226.89 1166.72,1226.56 1189.33,1226.44 
  1211.94,1226.36 1234.55,1226.48 1257.16,1226.73 1279.77,1227.19 1302.39,1227.82 1325,1228.64 1347.61,1229.66 1370.22,1230.83 1392.83,1232.19 1415.44,1233.66 
  1438.05,1235.28 1460.66,1236.97 1483.27,1238.75 1505.89,1240.55 1528.5,1242.39 1551.11,1244.2 1573.72,1245.99 1596.33,1247.7 1618.94,1249.35 1641.55,1250.89 
  1664.16,1252.32 1686.77,1253.62 1709.39,1254.77 1732,1255.77 1754.61,1256.62 1777.22,1257.3 1799.83,1257.82 1822.44,1258.17 1845.05,1258.37 1867.66,1258.42 
  1890.27,1258.32 1912.89,1258.09 1935.5,1257.74 1958.11,1257.28 1980.72,1256.72 2003.33,1256.09 2025.94,1255.39 2048.55,1254.66 2071.16,1253.89 2093.77,1253.13 
  2116.39,1252.36 2139,1251.64 2161.61,1250.93 2184.22,1250.3 2206.83,1249.72 2229.44,1249.23 2252.05,1248.81 2274.66,1248.5 2297.27,1248.27 2319.89,1248.15 
  2342.5,1248.12 2365.11,1248.18 2387.72,1248.33 2410.33,1248.56 2432.94,1248.86 2455.55,1249.21 2478.16,1249.61 2500.78,1250.03 2523.39,1250.49 2546,1250.92 
  2568.61,1251.31 
  "/>
<polyline clip-path="url(#clip2802)" style="stroke:#3da44d; stroke-width:16; stroke-opacity:1; fill:none" points="
  307.496,1251.31 330.107,552.762 352.718,724.157 375.329,874.606 397.941,991.587 420.552,1096.17 443.163,1175.74 465.774,1240.08 488.385,1290.73 510.996,1331.73 
  533.607,1363.98 556.218,1389.21 578.83,1408.43 601.441,1422.73 624.052,1432.72 646.663,1438.97 669.274,1441.85 691.885,1441.62 714.496,1438.63 737.107,1432.82 
  759.719,1424.85 782.33,1414.18 804.941,1402.08 827.552,1387.22 850.163,1371.82 872.774,1353.35 895.385,1335.44 917.996,1313.74 940.608,1293.97 963.219,1269.1 
  985.83,1247.95 1008.44,1219.75 1031.05,1198.12 1053.66,1244.13 1076.27,1183.69 1098.89,1188.04 1121.5,1191.45 1144.11,1195.43 1166.72,1198.81 1189.33,1202.52 
  1211.94,1205.83 1234.55,1209.29 1257.16,1212.46 1279.77,1215.68 1302.39,1218.67 1325,1221.64 1347.61,1224.42 1370.22,1227.14 1392.83,1229.71 1415.44,1232.19 
  1438.05,1234.54 1460.66,1236.79 1483.27,1238.94 1505.89,1240.99 1528.5,1242.93 1551.11,1244.78 1573.72,1246.53 1596.33,1248.17 1618.94,1249.71 1641.55,1251.13 
  1664.16,1252.44 1686.77,1253.62 1709.39,1254.67 1732,1255.59 1754.61,1256.35 1777.22,1256.98 1799.83,1257.45 1822.44,1257.78 1845.05,1257.95 1867.66,1257.99 
  1890.27,1257.88 1912.89,1257.65 1935.5,1257.3 1958.11,1256.86 1980.72,1256.31 2003.33,1255.71 2025.94,1255.03 2048.55,1254.34 2071.16,1253.61 2093.77,1252.9 
  2116.39,1252.18 2139,1251.52 2161.61,1250.89 2184.22,1250.34 2206.83,1249.84 2229.44,1249.45 2252.05,1249.12 2274.66,1248.91 2297.27,1248.77 2319.89,1248.75 
  2342.5,1248.79 2365.11,1248.94 2387.72,1249.13 2410.33,1249.41 2432.94,1249.7 2455.55,1250.06 2478.16,1250.38 2500.78,1250.73 2523.39,1250.98 2546,1251.25 
  2568.61,1251.31 
  "/>
<polyline clip-path="url(#clip2802)" style="stroke:#c271d2; stroke-width:16; stroke-opacity:1; fill:none" points="
  307.496,1251.31 330.107,2067.6 352.718,1622.91 375.329,1329.9 397.941,1158.78 420.552,1046.17 443.163,985.283 465.774,962.199 488.385,967.809 510.996,993.007 
  533.607,1030.46 556.218,1075.15 578.83,1123.22 601.441,1172.12 624.052,1219.4 646.663,1263.54 669.274,1303.39 691.885,1338.43 714.496,1368.02 737.107,1392.37 
  759.719,1410.32 782.33,1423.66 804.941,1429.03 827.552,1431.62 850.163,1423.21 872.774,1415.58 895.385,1391.45 917.996,1374.43 940.608,1331.45 963.219,1306.41 
  985.83,1239.98 1008.44,1209.04 1031.05,1115.58 1053.66,1236.04 1076.27,1133.23 1098.89,1144.66 1121.5,1166.79 1144.11,1176.9 1166.72,1192.17 1189.33,1200.38 
  1211.94,1210.55 1234.55,1216.61 1257.16,1223.14 1279.77,1227.27 1302.39,1231.32 1325,1233.96 1347.61,1236.4 1370.22,1238.03 1392.83,1239.52 1415.44,1240.57 
  1438.05,1241.55 1460.66,1242.32 1483.27,1243.09 1505.89,1243.77 1528.5,1244.48 1551.11,1245.16 1573.72,1245.89 1596.33,1246.59 1618.94,1247.31 1641.55,1248 
  1664.16,1248.68 1686.77,1249.31 1709.39,1249.9 1732,1250.43 1754.61,1250.88 1777.22,1251.26 1799.83,1251.55 1822.44,1251.76 1845.05,1251.88 1867.66,1251.94 
  1890.27,1251.92 1912.89,1251.85 1935.5,1251.71 1958.11,1251.57 1980.72,1251.38 2003.33,1251.22 2025.94,1251.04 2048.55,1250.94 2071.16,1250.85 2093.77,1250.86 
  2116.39,1250.92 2139,1251.11 2161.61,1251.36 2184.22,1251.77 2206.83,1252.24 2229.44,1252.87 2252.05,1253.56 2274.66,1254.37 2297.27,1255.21 2319.89,1256.12 
  2342.5,1256.99 2365.11,1257.85 2387.72,1258.58 2410.33,1259.18 2432.94,1259.5 2455.55,1259.57 2478.16,1259.13 2500.78,1258.34 2523.39,1256.71 2546,1254.69 
  2568.61,1251.31 
  "/>
<polyline clip-path="url(#clip2802)" style="stroke:#ac8d18; stroke-width:16; stroke-opacity:1; fill:none" points="
  307.496,1251.31 330.107,893.901 352.718,975.276 375.329,1038.18 397.941,1084.61 420.552,1125.67 443.163,1162.26 465.774,1196.9 488.385,1228.77 510.996,1258.38 
  533.607,1284.21 556.218,1306.51 578.83,1324.63 601.441,1338.96 624.052,1349.44 646.663,1356.46 669.274,1360.3 691.885,1361.31 714.496,1360 737.107,1356.51 
  759.719,1351.57 782.33,1344.97 804.941,1337.74 827.552,1329.2 850.163,1320.82 872.774,1311.3 895.385,1302.67 917.996,1292.92 940.608,1284.75 963.219,1275.38 
  985.83,1268.18 1008.44,1259.7 1031.05,1254.03 1053.66,1251.04 1076.27,1244.91 1098.89,1241.18 1121.5,1238.52 1144.11,1235.71 1166.72,1233.68 1189.33,1231.79 
  1211.94,1230.48 1234.55,1229.48 1257.16,1228.93 1279.77,1228.73 1302.39,1228.88 1325,1229.37 1347.61,1230.13 1370.22,1231.17 1392.83,1232.42 1415.44,1233.87 
  1438.05,1235.47 1460.66,1237.2 1483.27,1239.02 1505.89,1240.89 1528.5,1242.79 1551.11,1244.7 1573.72,1246.57 1596.33,1248.39 1618.94,1250.13 1641.55,1251.77 
  1664.16,1253.3 1686.77,1254.7 1709.39,1255.95 1732,1257.04 1754.61,1257.96 1777.22,1258.72 1799.83,1259.3 1822.44,1259.7 1845.05,1259.93 1867.66,1259.99 
  1890.27,1259.89 1912.89,1259.64 1935.5,1259.25 1958.11,1258.73 1980.72,1258.09 2003.33,1257.38 2025.94,1256.56 2048.55,1255.71 2071.16,1254.8 2093.77,1253.88 
  2116.39,1252.93 2139,1252.03 2161.61,1251.12 2184.22,1250.29 2206.83,1249.49 2229.44,1248.79 2252.05,1248.14 2274.66,1247.61 2297.27,1247.16 2319.89,1246.84 
  2342.5,1246.62 2365.11,1246.53 2387.72,1246.55 2410.33,1246.7 2432.94,1246.98 2455.55,1247.37 2478.16,1247.91 2500.78,1248.54 2523.39,1249.35 2546,1250.23 
  2568.61,1251.31 
  "/>
<polyline clip-path="url(#clip2802)" style="stroke:#00a9ad; stroke-width:16; stroke-opacity:1; fill:none" points="
  307.496,1251.31 330.107,871.276 352.718,961.415 375.329,1043.97 397.941,1111.22 420.552,1169.07 443.163,1216.82 465.774,1256.82 488.385,1289.02 510.996,1314.17 
  533.607,1332.47 556.218,1344.98 578.83,1352.44 601.441,1355.93 624.052,1356.15 646.663,1353.98 669.274,1349.93 691.885,1344.65 714.496,1338.4 737.107,1331.63 
  759.719,1324.43 782.33,1317.09 804.941,1309.61 827.552,1302.14 850.163,1294.67 872.774,1287.23 895.385,1279.83 917.996,1272.39 940.608,1265.03 963.219,1257.47 
  985.83,1250.02 1008.44,1242.2 1031.05,1234.75 1053.66,1248.93 1076.27,1228.11 1098.89,1228.7 1121.5,1229.21 1144.11,1229.66 1166.72,1230.08 1189.33,1230.48 
  1211.94,1230.88 1234.55,1231.32 1257.16,1231.8 1279.77,1232.36 1302.39,1233 1325,1233.74 1347.61,1234.58 1370.22,1235.54 1392.83,1236.61 1415.44,1237.78 
  1438.05,1239.06 1460.66,1240.42 1483.27,1241.86 1505.89,1243.35 1528.5,1244.88 1551.11,1246.42 1573.72,1247.95 1596.33,1249.46 1618.94,1250.91 1641.55,1252.3 
  1664.16,1253.59 1686.77,1254.78 1709.39,1255.85 1732,1256.78 1754.61,1257.57 1777.22,1258.21 1799.83,1258.69 1822.44,1259.01 1845.05,1259.18 1867.66,1259.2 
  1890.27,1259.08 1912.89,1258.82 1935.5,1258.44 1958.11,1257.95 1980.72,1257.36 2003.33,1256.7 2025.94,1255.97 2048.55,1255.2 2071.16,1254.4 2093.77,1253.6 
  2116.39,1252.79 2139,1252.02 2161.61,1251.28 2184.22,1250.6 2206.83,1249.97 2229.44,1249.44 2252.05,1248.98 2274.66,1248.61 2297.27,1248.35 2319.89,1248.17 
  2342.5,1248.11 2365.11,1248.11 2387.72,1248.25 2410.33,1248.42 2432.94,1248.73 2455.55,1249.03 2478.16,1249.47 2500.78,1249.86 2523.39,1250.39 2546,1250.8 
  2568.61,1251.31 
  "/>
<polyline clip-path="url(#clip2802)" style="stroke:#ed5d92; stroke-width:16; stroke-opacity:1; fill:none" points="
  307.496,1251.31 330.107,1428.05 352.718,1382.01 375.329,1338.3 397.941,1301.59 420.552,1271.58 443.163,1248.3 465.774,1230.31 488.385,1216.93 510.996,1207.42 
  533.607,1201.2 556.218,1197.72 578.83,1196.46 601.441,1196.99 624.052,1198.94 646.663,1201.97 669.274,1205.76 691.885,1210.09 714.496,1214.72 737.107,1219.51 
  759.719,1224.32 782.33,1229.08 804.941,1233.75 827.552,1238.32 850.163,1242.81 872.774,1247.29 895.385,1251.83 917.996,1256.55 940.608,1261.54 963.219,1266.97 
  985.83,1272.91 1008.44,1279.61 1031.05,1286.88 1053.66,1255.72 1076.27,1288.57 1098.89,1281.91 1121.5,1275.71 1144.11,1269.84 1166.72,1264.44 1189.33,1259.52 
  1211.94,1255.11 1234.55,1251.26 1257.16,1247.93 1279.77,1245.17 1302.39,1242.92 1325,1241.21 1347.61,1239.98 1370.22,1239.22 1392.83,1238.89 1415.44,1238.95 
  1438.05,1239.36 1460.66,1240.07 1483.27,1241.03 1505.89,1242.21 1528.5,1243.56 1551.11,1245.03 1573.72,1246.58 1596.33,1248.17 1618.94,1249.76 1641.55,1251.32 
  1664.16,1252.81 1686.77,1254.2 1709.39,1255.48 1732,1256.62 1754.61,1257.61 1777.22,1258.44 1799.83,1259.09 1822.44,1259.57 1845.05,1259.87 1867.66,1260 
  1890.27,1259.96 1912.89,1259.77 1935.5,1259.42 1958.11,1258.94 1980.72,1258.35 2003.33,1257.65 2025.94,1256.86 2048.55,1256.01 2071.16,1255.1 2093.77,1254.17 
  2116.39,1253.22 2139,1252.28 2161.61,1251.37 2184.22,1250.49 2206.83,1249.67 2229.44,1248.9 2252.05,1248.24 2274.66,1247.64 2297.27,1247.17 2319.89,1246.77 
  2342.5,1246.54 2365.11,1246.36 2387.72,1246.39 2410.33,1246.45 2432.94,1246.77 2455.55,1247.08 2478.16,1247.71 2500.78,1248.27 2523.39,1249.23 2546,1250.05 
  2568.61,1251.31 
  "/>
<polyline clip-path="url(#clip2802)" style="stroke:#c68125; stroke-width:16; stroke-opacity:1; fill:none" points="
  307.496,1251.31 330.107,2146.22 352.718,1830.49 375.329,1596.62 397.941,1464.5 420.552,1364.88 443.163,1293.34 465.774,1235.47 488.385,1189.62 510.996,1152.27 
  533.607,1123.01 556.218,1100.55 578.83,1084.31 601.441,1073.37 624.052,1067.22 646.663,1064.9 669.274,1066.13 691.885,1069.84 714.496,1076.16 737.107,1083.82 
  759.719,1093.56 782.33,1103.8 804.941,1116.17 827.552,1128.53 850.163,1143.74 872.774,1158.68 895.385,1177.95 917.996,1196.66 940.608,1222.19 963.219,1246.38 
  985.83,1281.17 1008.44,1312.67 1031.05,1359.25 1053.66,1266.29 1076.27,1371.68 1098.89,1349.88 1121.5,1326.19 1144.11,1308.34 1166.72,1290.26 1189.33,1276.48 
  1211.94,1263.52 1234.55,1253.74 1257.16,1245.2 1279.77,1239.02 1302.39,1234.12 1325,1230.93 1347.61,1228.85 1370.22,1227.99 1392.83,1227.99 1415.44,1228.81 
  1438.05,1230.23 1460.66,1232.15 1483.27,1234.44 1505.89,1236.99 1528.5,1239.72 1551.11,1242.52 1573.72,1245.34 1596.33,1248.11 1618.94,1250.8 1641.55,1253.33 
  1664.16,1255.69 1686.77,1257.84 1709.39,1259.77 1732,1261.45 1754.61,1262.89 1777.22,1264.04 1799.83,1264.95 1822.44,1265.57 1845.05,1265.94 1867.66,1266.05 
  1890.27,1265.92 1912.89,1265.55 1935.5,1264.96 1958.11,1264.17 1980.72,1263.2 2003.33,1262.05 2025.94,1260.77 2048.55,1259.35 2071.16,1257.84 2093.77,1256.23 
  2116.39,1254.57 2139,1252.86 2161.61,1251.15 2184.22,1249.43 2206.83,1247.75 2229.44,1246.09 2252.05,1244.55 2274.66,1243.06 2297.27,1241.76 2319.89,1240.55 
  2342.5,1239.61 2365.11,1238.82 2387.72,1238.4 2410.33,1238.18 2432.94,1238.49 2455.55,1239.02 2478.16,1240.3 2500.78,1241.8 2523.39,1244.37 2546,1247.09 
  2568.61,1251.31 
  "/>
<polyline clip-path="url(#clip2802)" style="stroke:#00a98d; stroke-width:16; stroke-opacity:1; fill:none" points="
  307.496,1251.31 330.107,1077.07 352.718,1111.01 375.329,1138.51 397.941,1169.35 420.552,1199.15 443.163,1225.79 465.774,1248.54 488.385,1267.19 510.996,1281.8 
  533.607,1292.7 556.218,1300.33 578.83,1305.22 601.441,1307.87 624.052,1308.69 646.663,1308.12 669.274,1306.42 691.885,1303.96 714.496,1300.88 737.107,1297.45 
  759.719,1293.72 782.33,1289.91 804.941,1285.98 827.552,1282.12 850.163,1278.2 872.774,1274.41 895.385,1270.56 917.996,1266.83 940.608,1263 963.219,1259.25 
  985.83,1255.35 1008.44,1251.48 1031.05,1247.52 1053.66,1250.57 1076.27,1243.08 1098.89,1242.37 1121.5,1241.53 1144.11,1240.78 1166.72,1239.93 1189.33,1239.21 
  1211.94,1238.47 1234.55,1237.89 1257.16,1237.38 1279.77,1237.05 1302.39,1236.84 1325,1236.83 1347.61,1236.99 1370.22,1237.35 1392.83,1237.89 1415.44,1238.62 
  1438.05,1239.51 1460.66,1240.55 1483.27,1241.72 1505.89,1243.01 1528.5,1244.38 1551.11,1245.8 1573.72,1247.25 1596.33,1248.7 1618.94,1250.13 1641.55,1251.5 
  1664.16,1252.8 1686.77,1254 1709.39,1255.09 1732,1256.05 1754.61,1256.87 1777.22,1257.54 1799.83,1258.06 1822.44,1258.41 1845.05,1258.62 1867.66,1258.67 
  1890.27,1258.58 1912.89,1258.36 1935.5,1258.01 1958.11,1257.56 1980.72,1257.01 2003.33,1256.39 2025.94,1255.7 2048.55,1254.97 2071.16,1254.22 2093.77,1253.46 
  2116.39,1252.72 2139,1251.99 2161.61,1251.31 2184.22,1250.68 2206.83,1250.13 2229.44,1249.64 2252.05,1249.26 2274.66,1248.93 2297.27,1248.75 2319.89,1248.6 
  2342.5,1248.62 2365.11,1248.63 2387.72,1248.83 2410.33,1248.98 2432.94,1249.34 2455.55,1249.56 2478.16,1250.03 2500.78,1250.27 2523.39,1250.77 2546,1250.96 
  2568.61,1251.31 
  "/>
<polyline clip-path="url(#clip2802)" style="stroke:#8e971d; stroke-width:16; stroke-opacity:1; fill:none" points="
  307.496,1251.31 330.107,189.727 352.718,809.026 375.329,1137.51 397.941,1283.84 420.552,1368.86 443.163,1418.2 465.774,1443.43 488.385,1452.78 510.996,1452.33 
  533.607,1446.02 556.218,1436.84 578.83,1425.99 601.441,1414.87 624.052,1403.44 646.663,1392.67 669.274,1381.83 691.885,1371.86 714.496,1361.56 737.107,1352.1 
  759.719,1341.85 782.33,1332.35 804.941,1321.41 827.552,1311.13 850.163,1298.51 872.774,1286.5 895.385,1270.93 917.996,1256.14 940.608,1236.08 963.219,1217.41 
  985.83,1191.08 1008.44,1167.56 1031.05,1133.79 1053.66,1237.35 1076.27,1131.5 1098.89,1145.35 1121.5,1160.34 1144.11,1171.95 1166.72,1183.81 1189.33,1193.21 
  1211.94,1202.24 1234.55,1209.49 1257.16,1216.14 1279.77,1221.52 1302.39,1226.29 1325,1230.18 1347.61,1233.55 1370.22,1236.34 1392.83,1238.74 1415.44,1240.77 
  1438.05,1242.54 1460.66,1244.08 1483.27,1245.47 1505.89,1246.71 1528.5,1247.86 1551.11,1248.92 1573.72,1249.91 1596.33,1250.84 1618.94,1251.7 1641.55,1252.5 
  1664.16,1253.22 1686.77,1253.87 1709.39,1254.44 1732,1254.91 1754.61,1255.29 1777.22,1255.57 1799.83,1255.75 1822.44,1255.83 1845.05,1255.8 1867.66,1255.69 
  1890.27,1255.49 1912.89,1255.22 1935.5,1254.87 1958.11,1254.48 1980.72,1254.05 2003.33,1253.6 2025.94,1253.13 2048.55,1252.69 2071.16,1252.26 2093.77,1251.89 
  2116.39,1251.56 2139,1251.31 2161.61,1251.14 2184.22,1251.05 2206.83,1251.07 2229.44,1251.17 2252.05,1251.39 2274.66,1251.67 2297.27,1252.07 2319.89,1252.48 
  2342.5,1253 2365.11,1253.45 2387.72,1253.99 2410.33,1254.36 2432.94,1254.75 2455.55,1254.86 2478.16,1254.9 2500.78,1254.55 2523.39,1253.98 2546,1252.92 
  2568.61,1251.31 
  "/>
<polyline clip-path="url(#clip2802)" style="stroke:#00a8cb; stroke-width:16; stroke-opacity:1; fill:none" points="
  307.496,1251.31 330.107,905.543 352.718,850.321 375.329,875.657 397.941,938.427 420.552,1016.82 443.163,1089.67 465.774,1163.62 488.385,1227.18 510.996,1283.97 
  533.607,1328.42 556.218,1365.58 578.83,1391.99 601.441,1412.26 624.052,1423.25 646.663,1429.54 669.274,1428.52 691.885,1424.86 714.496,1416.26 737.107,1406.42 
  759.719,1393.8 782.33,1380.63 804.941,1366.68 827.552,1352.24 850.163,1338.86 872.774,1324.47 895.385,1312.79 917.996,1299.09 940.608,1289.59 963.219,1276.65 
  985.83,1269.23 1008.44,1256.9 1031.05,1253.74 1053.66,1293.59 1076.27,1259.61 1098.89,1250.33 1121.5,1249.45 1144.11,1243.53 1166.72,1243.26 1189.33,1238.75 
  1211.94,1238.83 1234.55,1235.47 1257.16,1235.82 1279.77,1233.38 1302.39,1233.97 1325,1232.26 1347.61,1233.04 1370.22,1231.93 1392.83,1232.87 1415.44,1232.23 
  1438.05,1233.28 1460.66,1233.01 1483.27,1234.14 1505.89,1234.14 1528.5,1235.3 1551.11,1235.51 1573.72,1236.67 1596.33,1237.01 1618.94,1238.14 1641.55,1238.57 
  1664.16,1239.65 1686.77,1240.12 1709.39,1241.13 1732,1241.61 1754.61,1242.54 1777.22,1243 1799.83,1243.85 1822.44,1244.27 1845.05,1245.03 1867.66,1245.4 
  1890.27,1246.06 1912.89,1246.37 1935.5,1246.95 1958.11,1247.19 1980.72,1247.68 2003.33,1247.85 2025.94,1248.27 2048.55,1248.37 2071.16,1248.72 2093.77,1248.74 
  2116.39,1249.04 2139,1248.99 2161.61,1249.23 2184.22,1249.12 2206.83,1249.33 2229.44,1249.15 2252.05,1249.34 2274.66,1249.09 2297.27,1249.28 2319.89,1248.97 
  2342.5,1249.17 2365.11,1248.81 2387.72,1249.02 2410.33,1248.61 2432.94,1248.86 2455.55,1248.39 2478.16,1248.68 2500.78,1248.16 2523.39,1248.52 2546,1248.06 
  2568.61,1250.95 
  "/>
<path clip-path="url(#clip2800)" d="
M2732.44 988.312 L3184.76 988.312 L3184.76 262.552 L2732.44 262.552  Z
  " fill="#ffffff" fill-rule="evenodd" fill-opacity="1"/>
<polyline clip-path="url(#clip2800)" style="stroke:#000000; stroke-width:4; stroke-opacity:1; fill:none" points="
  2732.44,988.312 3184.76,988.312 3184.76,262.552 2732.44,262.552 2732.44,988.312 
  "/>
<polyline clip-path="url(#clip2800)" style="stroke:#009af9; stroke-width:16; stroke-opacity:1; fill:none" points="
  2764.44,323.032 2956.44,323.032 
  "/>
<path clip-path="url(#clip2800)" d="M 0 0 M2988.44 299.272 L2994.87 299.272 L2994.87 341.381 L3018.01 341.381 L3018.01 346.792 L2988.44 346.792 L2988.44 299.272 Z" fill="#000000" fill-rule="evenodd" fill-opacity="1" /><path clip-path="url(#clip2800)" d="M 0 0 M3024.15 311.144 L3030.01 311.144 L3030.01 346.792 L3024.15 346.792 L3024.15 311.144 M3024.15 297.267 L3030.01 297.267 L3030.01 304.683 L3024.15 304.683 L3024.15 297.267 Z" fill="#000000" fill-rule="evenodd" fill-opacity="1" /><path clip-path="url(#clip2800)" d="M 0 0 M3054.2 297.267 L3054.2 302.137 L3048.6 302.137 Q3045.45 302.137 3044.21 303.41 Q3043 304.683 3043 307.993 L3043 311.144 L3052.64 311.144 L3052.64 315.696 L3043 315.696 L3043 346.792 L3037.11 346.792 L3037.11 315.696 L3031.51 315.696 L3031.51 311.144 L3037.11 311.144 L3037.11 308.662 Q3037.11 302.71 3039.88 300.004 Q3042.65 297.267 3048.66 297.267 L3054.2 297.267 Z" fill="#000000" fill-rule="evenodd" fill-opacity="1" /><path clip-path="url(#clip2800)" d="M 0 0 M3064.99 301.023 L3064.99 311.144 L3077.05 311.144 L3077.05 315.696 L3064.99 315.696 L3064.99 335.047 Q3064.99 339.408 3066.17 340.649 Q3067.38 341.891 3071.04 341.891 L3077.05 341.891 L3077.05 346.792 L3071.04 346.792 Q3064.26 346.792 3061.68 344.278 Q3059.1 341.731 3059.1 335.047 L3059.1 315.696 L3054.8 315.696 L3054.8 311.144 L3059.1 311.144 L3059.1 301.023 L3064.99 301.023 Z" fill="#000000" fill-rule="evenodd" fill-opacity="1" /><path clip-path="url(#clip2800)" d="M 0 0 M3105.86 341.381 L3116.36 341.381 L3116.36 305.129 L3104.93 307.42 L3104.93 301.564 L3116.3 299.272 L3122.73 299.272 L3122.73 341.381 L3133.23 341.381 L3133.23 346.792 L3105.86 346.792 L3105.86 341.381 Z" fill="#000000" fill-rule="evenodd" fill-opacity="1" /><polyline clip-path="url(#clip2800)" style="stroke:#e26f46; stroke-width:16; stroke-opacity:1; fill:none" points="
  2764.44,383.512 2956.44,383.512 
  "/>
<path clip-path="url(#clip2800)" d="M 0 0 M2988.44 359.752 L2994.87 359.752 L2994.87 401.861 L3018.01 401.861 L3018.01 407.272 L2988.44 407.272 L2988.44 359.752 Z" fill="#000000" fill-rule="evenodd" fill-opacity="1" /><path clip-path="url(#clip2800)" d="M 0 0 M3024.15 371.624 L3030.01 371.624 L3030.01 407.272 L3024.15 407.272 L3024.15 371.624 M3024.15 357.747 L3030.01 357.747 L3030.01 365.163 L3024.15 365.163 L3024.15 357.747 Z" fill="#000000" fill-rule="evenodd" fill-opacity="1" /><path clip-path="url(#clip2800)" d="M 0 0 M3054.2 357.747 L3054.2 362.617 L3048.6 362.617 Q3045.45 362.617 3044.21 363.89 Q3043 365.163 3043 368.473 L3043 371.624 L3052.64 371.624 L3052.64 376.176 L3043 376.176 L3043 407.272 L3037.11 407.272 L3037.11 376.176 L3031.51 376.176 L3031.51 371.624 L3037.11 371.624 L3037.11 369.142 Q3037.11 363.19 3039.88 360.484 Q3042.65 357.747 3048.66 357.747 L3054.2 357.747 Z" fill="#000000" fill-rule="evenodd" fill-opacity="1" /><path clip-path="url(#clip2800)" d="M 0 0 M3064.99 361.503 L3064.99 371.624 L3077.05 371.624 L3077.05 376.176 L3064.99 376.176 L3064.99 395.527 Q3064.99 399.888 3066.17 401.129 Q3067.38 402.371 3071.04 402.371 L3077.05 402.371 L3077.05 407.272 L3071.04 407.272 Q3064.26 407.272 3061.68 404.758 Q3059.1 402.211 3059.1 395.527 L3059.1 376.176 L3054.8 376.176 L3054.8 371.624 L3059.1 371.624 L3059.1 361.503 L3064.99 361.503 Z" fill="#000000" fill-rule="evenodd" fill-opacity="1" /><path clip-path="url(#clip2800)" d="M 0 0 M3110.28 401.861 L3132.72 401.861 L3132.72 407.272 L3102.55 407.272 L3102.55 401.861 Q3106.21 398.074 3112.51 391.708 Q3118.84 385.31 3120.47 383.464 Q3123.55 379.995 3124.76 377.608 Q3126 375.189 3126 372.865 Q3126 369.078 3123.33 366.691 Q3120.69 364.304 3116.42 364.304 Q3113.4 364.304 3110.03 365.354 Q3106.68 366.404 3102.87 368.537 L3102.87 362.044 Q3106.75 360.484 3110.12 359.688 Q3113.5 358.893 3116.3 358.893 Q3123.68 358.893 3128.07 362.585 Q3132.47 366.277 3132.47 372.452 Q3132.47 375.38 3131.35 378.022 Q3130.27 380.632 3127.37 384.196 Q3126.58 385.119 3122.31 389.544 Q3118.05 393.936 3110.28 401.861 Z" fill="#000000" fill-rule="evenodd" fill-opacity="1" /><polyline clip-path="url(#clip2800)" style="stroke:#3da44d; stroke-width:16; stroke-opacity:1; fill:none" points="
  2764.44,443.992 2956.44,443.992 
  "/>
<path clip-path="url(#clip2800)" d="M 0 0 M2988.44 420.232 L2994.87 420.232 L2994.87 462.341 L3018.01 462.341 L3018.01 467.752 L2988.44 467.752 L2988.44 420.232 Z" fill="#000000" fill-rule="evenodd" fill-opacity="1" /><path clip-path="url(#clip2800)" d="M 0 0 M3024.15 432.104 L3030.01 432.104 L3030.01 467.752 L3024.15 467.752 L3024.15 432.104 M3024.15 418.227 L3030.01 418.227 L3030.01 425.643 L3024.15 425.643 L3024.15 418.227 Z" fill="#000000" fill-rule="evenodd" fill-opacity="1" /><path clip-path="url(#clip2800)" d="M 0 0 M3054.2 418.227 L3054.2 423.097 L3048.6 423.097 Q3045.45 423.097 3044.21 424.37 Q3043 425.643 3043 428.953 L3043 432.104 L3052.64 432.104 L3052.64 436.656 L3043 436.656 L3043 467.752 L3037.11 467.752 L3037.11 436.656 L3031.51 436.656 L3031.51 432.104 L3037.11 432.104 L3037.11 429.622 Q3037.11 423.67 3039.88 420.964 Q3042.65 418.227 3048.66 418.227 L3054.2 418.227 Z" fill="#000000" fill-rule="evenodd" fill-opacity="1" /><path clip-path="url(#clip2800)" d="M 0 0 M3064.99 421.983 L3064.99 432.104 L3077.05 432.104 L3077.05 436.656 L3064.99 436.656 L3064.99 456.007 Q3064.99 460.368 3066.17 461.609 Q3067.38 462.851 3071.04 462.851 L3077.05 462.851 L3077.05 467.752 L3071.04 467.752 Q3064.26 467.752 3061.68 465.238 Q3059.1 462.691 3059.1 456.007 L3059.1 436.656 L3054.8 436.656 L3054.8 432.104 L3059.1 432.104 L3059.1 421.983 L3064.99 421.983 Z" fill="#000000" fill-rule="evenodd" fill-opacity="1" /><path clip-path="url(#clip2800)" d="M 0 0 M3124.22 442.13 Q3128.84 443.117 3131.42 446.236 Q3134.03 449.355 3134.03 453.939 Q3134.03 460.973 3129.19 464.824 Q3124.35 468.675 3115.44 468.675 Q3112.45 468.675 3109.26 468.07 Q3106.11 467.497 3102.74 466.32 L3102.74 460.113 Q3105.41 461.673 3108.59 462.469 Q3111.78 463.264 3115.25 463.264 Q3121.29 463.264 3124.45 460.877 Q3127.63 458.49 3127.63 453.939 Q3127.63 449.737 3124.67 447.382 Q3121.74 444.995 3116.49 444.995 L3110.95 444.995 L3110.95 439.711 L3116.74 439.711 Q3121.49 439.711 3124 437.833 Q3126.51 435.924 3126.51 432.359 Q3126.51 428.699 3123.9 426.757 Q3121.33 424.784 3116.49 424.784 Q3113.85 424.784 3110.82 425.357 Q3107.8 425.929 3104.17 427.139 L3104.17 421.41 Q3107.83 420.391 3111.01 419.882 Q3114.23 419.373 3117.06 419.373 Q3124.38 419.373 3128.65 422.715 Q3132.91 426.025 3132.91 431.69 Q3132.91 435.637 3130.65 438.374 Q3128.39 441.08 3124.22 442.13 Z" fill="#000000" fill-rule="evenodd" fill-opacity="1" /><polyline clip-path="url(#clip2800)" style="stroke:#c271d2; stroke-width:16; stroke-opacity:1; fill:none" points="
  2764.44,504.472 2956.44,504.472 
  "/>
<path clip-path="url(#clip2800)" d="M 0 0 M2988.44 480.712 L2994.87 480.712 L2994.87 522.821 L3018.01 522.821 L3018.01 528.232 L2988.44 528.232 L2988.44 480.712 Z" fill="#000000" fill-rule="evenodd" fill-opacity="1" /><path clip-path="url(#clip2800)" d="M 0 0 M3024.15 492.584 L3030.01 492.584 L3030.01 528.232 L3024.15 528.232 L3024.15 492.584 M3024.15 478.707 L3030.01 478.707 L3030.01 486.123 L3024.15 486.123 L3024.15 478.707 Z" fill="#000000" fill-rule="evenodd" fill-opacity="1" /><path clip-path="url(#clip2800)" d="M 0 0 M3054.2 478.707 L3054.2 483.577 L3048.6 483.577 Q3045.45 483.577 3044.21 484.85 Q3043 486.123 3043 489.433 L3043 492.584 L3052.64 492.584 L3052.64 497.136 L3043 497.136 L3043 528.232 L3037.11 528.232 L3037.11 497.136 L3031.51 497.136 L3031.51 492.584 L3037.11 492.584 L3037.11 490.102 Q3037.11 484.15 3039.88 481.444 Q3042.65 478.707 3048.66 478.707 L3054.2 478.707 Z" fill="#000000" fill-rule="evenodd" fill-opacity="1" /><path clip-path="url(#clip2800)" d="M 0 0 M3064.99 482.463 L3064.99 492.584 L3077.05 492.584 L3077.05 497.136 L3064.99 497.136 L3064.99 516.487 Q3064.99 520.848 3066.17 522.089 Q3067.38 523.331 3071.04 523.331 L3077.05 523.331 L3077.05 528.232 L3071.04 528.232 Q3064.26 528.232 3061.68 525.718 Q3059.1 523.171 3059.1 516.487 L3059.1 497.136 L3054.8 497.136 L3054.8 492.584 L3059.1 492.584 L3059.1 482.463 L3064.99 482.463 Z" fill="#000000" fill-rule="evenodd" fill-opacity="1" /><path clip-path="url(#clip2800)" d="M 0 0 M3122.41 486.314 L3106.18 511.681 L3122.41 511.681 L3122.41 486.314 M3120.72 480.712 L3128.81 480.712 L3128.81 511.681 L3135.59 511.681 L3135.59 517.028 L3128.81 517.028 L3128.81 528.232 L3122.41 528.232 L3122.41 517.028 L3100.96 517.028 L3100.96 510.822 L3120.72 480.712 Z" fill="#000000" fill-rule="evenodd" fill-opacity="1" /><polyline clip-path="url(#clip2800)" style="stroke:#ac8d18; stroke-width:16; stroke-opacity:1; fill:none" points="
  2764.44,564.952 2956.44,564.952 
  "/>
<path clip-path="url(#clip2800)" d="M 0 0 M2988.44 541.192 L2994.87 541.192 L2994.87 583.301 L3018.01 583.301 L3018.01 588.712 L2988.44 588.712 L2988.44 541.192 Z" fill="#000000" fill-rule="evenodd" fill-opacity="1" /><path clip-path="url(#clip2800)" d="M 0 0 M3024.15 553.064 L3030.01 553.064 L3030.01 588.712 L3024.15 588.712 L3024.15 553.064 M3024.15 539.187 L3030.01 539.187 L3030.01 546.603 L3024.15 546.603 L3024.15 539.187 Z" fill="#000000" fill-rule="evenodd" fill-opacity="1" /><path clip-path="url(#clip2800)" d="M 0 0 M3054.2 539.187 L3054.2 544.057 L3048.6 544.057 Q3045.45 544.057 3044.21 545.33 Q3043 546.603 3043 549.913 L3043 553.064 L3052.64 553.064 L3052.64 557.616 L3043 557.616 L3043 588.712 L3037.11 588.712 L3037.11 557.616 L3031.51 557.616 L3031.51 553.064 L3037.11 553.064 L3037.11 550.582 Q3037.11 544.63 3039.88 541.924 Q3042.65 539.187 3048.66 539.187 L3054.2 539.187 Z" fill="#000000" fill-rule="evenodd" fill-opacity="1" /><path clip-path="url(#clip2800)" d="M 0 0 M3064.99 542.943 L3064.99 553.064 L3077.05 553.064 L3077.05 557.616 L3064.99 557.616 L3064.99 576.967 Q3064.99 581.328 3066.17 582.569 Q3067.38 583.811 3071.04 583.811 L3077.05 583.811 L3077.05 588.712 L3071.04 588.712 Q3064.26 588.712 3061.68 586.198 Q3059.1 583.651 3059.1 576.967 L3059.1 557.616 L3054.8 557.616 L3054.8 553.064 L3059.1 553.064 L3059.1 542.943 L3064.99 542.943 Z" fill="#000000" fill-rule="evenodd" fill-opacity="1" /><path clip-path="url(#clip2800)" d="M 0 0 M3104.81 541.192 L3130.05 541.192 L3130.05 546.603 L3110.7 546.603 L3110.7 558.252 Q3112.1 557.775 3113.5 557.552 Q3114.9 557.297 3116.3 557.297 Q3124.25 557.297 3128.9 561.658 Q3133.55 566.018 3133.55 573.466 Q3133.55 581.137 3128.77 585.402 Q3124 589.635 3115.31 589.635 Q3112.32 589.635 3109.2 589.126 Q3106.11 588.617 3102.8 587.598 L3102.8 581.137 Q3105.67 582.697 3108.72 583.46 Q3111.78 584.224 3115.18 584.224 Q3120.69 584.224 3123.9 581.328 Q3127.12 578.432 3127.12 573.466 Q3127.12 568.501 3123.9 565.605 Q3120.69 562.708 3115.18 562.708 Q3112.6 562.708 3110.03 563.281 Q3107.48 563.854 3104.81 565.064 L3104.81 541.192 Z" fill="#000000" fill-rule="evenodd" fill-opacity="1" /><polyline clip-path="url(#clip2800)" style="stroke:#00a9ad; stroke-width:16; stroke-opacity:1; fill:none" points="
  2764.44,625.432 2956.44,625.432 
  "/>
<path clip-path="url(#clip2800)" d="M 0 0 M2988.44 601.672 L2994.87 601.672 L2994.87 643.781 L3018.01 643.781 L3018.01 649.192 L2988.44 649.192 L2988.44 601.672 Z" fill="#000000" fill-rule="evenodd" fill-opacity="1" /><path clip-path="url(#clip2800)" d="M 0 0 M3024.15 613.544 L3030.01 613.544 L3030.01 649.192 L3024.15 649.192 L3024.15 613.544 M3024.15 599.667 L3030.01 599.667 L3030.01 607.083 L3024.15 607.083 L3024.15 599.667 Z" fill="#000000" fill-rule="evenodd" fill-opacity="1" /><path clip-path="url(#clip2800)" d="M 0 0 M3054.2 599.667 L3054.2 604.537 L3048.6 604.537 Q3045.45 604.537 3044.21 605.81 Q3043 607.083 3043 610.393 L3043 613.544 L3052.64 613.544 L3052.64 618.096 L3043 618.096 L3043 649.192 L3037.11 649.192 L3037.11 618.096 L3031.51 618.096 L3031.51 613.544 L3037.11 613.544 L3037.11 611.062 Q3037.11 605.11 3039.88 602.404 Q3042.65 599.667 3048.66 599.667 L3054.2 599.667 Z" fill="#000000" fill-rule="evenodd" fill-opacity="1" /><path clip-path="url(#clip2800)" d="M 0 0 M3064.99 603.423 L3064.99 613.544 L3077.05 613.544 L3077.05 618.096 L3064.99 618.096 L3064.99 637.447 Q3064.99 641.808 3066.17 643.049 Q3067.38 644.291 3071.04 644.291 L3077.05 644.291 L3077.05 649.192 L3071.04 649.192 Q3064.26 649.192 3061.68 646.678 Q3059.1 644.131 3059.1 637.447 L3059.1 618.096 L3054.8 618.096 L3054.8 613.544 L3059.1 613.544 L3059.1 603.423 L3064.99 603.423 Z" fill="#000000" fill-rule="evenodd" fill-opacity="1" /><path clip-path="url(#clip2800)" d="M 0 0 M3119.29 622.87 Q3114.96 622.87 3112.41 625.83 Q3109.9 628.79 3109.9 633.946 Q3109.9 639.071 3112.41 642.063 Q3114.96 645.023 3119.29 645.023 Q3123.62 645.023 3126.13 642.063 Q3128.68 639.071 3128.68 633.946 Q3128.68 628.79 3126.13 625.83 Q3123.62 622.87 3119.29 622.87 M3132.05 602.722 L3132.05 608.579 Q3129.63 607.433 3127.15 606.828 Q3124.7 606.224 3122.28 606.224 Q3115.92 606.224 3112.54 610.52 Q3109.2 614.817 3108.72 623.506 Q3110.6 620.737 3113.43 619.273 Q3116.27 617.777 3119.67 617.777 Q3126.83 617.777 3130.97 622.138 Q3135.14 626.467 3135.14 633.946 Q3135.14 641.267 3130.81 645.691 Q3126.48 650.115 3119.29 650.115 Q3111.05 650.115 3106.68 643.813 Q3102.32 637.479 3102.32 625.48 Q3102.32 614.213 3107.67 607.529 Q3113.02 600.813 3122.03 600.813 Q3124.45 600.813 3126.9 601.29 Q3129.38 601.768 3132.05 602.722 Z" fill="#000000" fill-rule="evenodd" fill-opacity="1" /><polyline clip-path="url(#clip2800)" style="stroke:#ed5d92; stroke-width:16; stroke-opacity:1; fill:none" points="
  2764.44,685.912 2956.44,685.912 
  "/>
<path clip-path="url(#clip2800)" d="M 0 0 M2988.44 662.152 L2994.87 662.152 L2994.87 704.261 L3018.01 704.261 L3018.01 709.672 L2988.44 709.672 L2988.44 662.152 Z" fill="#000000" fill-rule="evenodd" fill-opacity="1" /><path clip-path="url(#clip2800)" d="M 0 0 M3024.15 674.024 L3030.01 674.024 L3030.01 709.672 L3024.15 709.672 L3024.15 674.024 M3024.15 660.147 L3030.01 660.147 L3030.01 667.563 L3024.15 667.563 L3024.15 660.147 Z" fill="#000000" fill-rule="evenodd" fill-opacity="1" /><path clip-path="url(#clip2800)" d="M 0 0 M3054.2 660.147 L3054.2 665.017 L3048.6 665.017 Q3045.45 665.017 3044.21 666.29 Q3043 667.563 3043 670.873 L3043 674.024 L3052.64 674.024 L3052.64 678.576 L3043 678.576 L3043 709.672 L3037.11 709.672 L3037.11 678.576 L3031.51 678.576 L3031.51 674.024 L3037.11 674.024 L3037.11 671.542 Q3037.11 665.59 3039.88 662.884 Q3042.65 660.147 3048.66 660.147 L3054.2 660.147 Z" fill="#000000" fill-rule="evenodd" fill-opacity="1" /><path clip-path="url(#clip2800)" d="M 0 0 M3064.99 663.903 L3064.99 674.024 L3077.05 674.024 L3077.05 678.576 L3064.99 678.576 L3064.99 697.927 Q3064.99 702.288 3066.17 703.529 Q3067.38 704.771 3071.04 704.771 L3077.05 704.771 L3077.05 709.672 L3071.04 709.672 Q3064.26 709.672 3061.68 707.158 Q3059.1 704.611 3059.1 697.927 L3059.1 678.576 L3054.8 678.576 L3054.8 674.024 L3059.1 674.024 L3059.1 663.903 L3064.99 663.903 Z" fill="#000000" fill-rule="evenodd" fill-opacity="1" /><path clip-path="url(#clip2800)" d="M 0 0 M3103.12 662.152 L3133.68 662.152 L3133.68 664.889 L3116.42 709.672 L3109.71 709.672 L3125.94 667.563 L3103.12 667.563 L3103.12 662.152 Z" fill="#000000" fill-rule="evenodd" fill-opacity="1" /><polyline clip-path="url(#clip2800)" style="stroke:#c68125; stroke-width:16; stroke-opacity:1; fill:none" points="
  2764.44,746.392 2956.44,746.392 
  "/>
<path clip-path="url(#clip2800)" d="M 0 0 M2988.44 722.632 L2994.87 722.632 L2994.87 764.741 L3018.01 764.741 L3018.01 770.152 L2988.44 770.152 L2988.44 722.632 Z" fill="#000000" fill-rule="evenodd" fill-opacity="1" /><path clip-path="url(#clip2800)" d="M 0 0 M3024.15 734.504 L3030.01 734.504 L3030.01 770.152 L3024.15 770.152 L3024.15 734.504 M3024.15 720.627 L3030.01 720.627 L3030.01 728.043 L3024.15 728.043 L3024.15 720.627 Z" fill="#000000" fill-rule="evenodd" fill-opacity="1" /><path clip-path="url(#clip2800)" d="M 0 0 M3054.2 720.627 L3054.2 725.497 L3048.6 725.497 Q3045.45 725.497 3044.21 726.77 Q3043 728.043 3043 731.353 L3043 734.504 L3052.64 734.504 L3052.64 739.056 L3043 739.056 L3043 770.152 L3037.11 770.152 L3037.11 739.056 L3031.51 739.056 L3031.51 734.504 L3037.11 734.504 L3037.11 732.022 Q3037.11 726.07 3039.88 723.364 Q3042.65 720.627 3048.66 720.627 L3054.2 720.627 Z" fill="#000000" fill-rule="evenodd" fill-opacity="1" /><path clip-path="url(#clip2800)" d="M 0 0 M3064.99 724.383 L3064.99 734.504 L3077.05 734.504 L3077.05 739.056 L3064.99 739.056 L3064.99 758.407 Q3064.99 762.768 3066.17 764.009 Q3067.38 765.251 3071.04 765.251 L3077.05 765.251 L3077.05 770.152 L3071.04 770.152 Q3064.26 770.152 3061.68 767.638 Q3059.1 765.091 3059.1 758.407 L3059.1 739.056 L3054.8 739.056 L3054.8 734.504 L3059.1 734.504 L3059.1 724.383 L3064.99 724.383 Z" fill="#000000" fill-rule="evenodd" fill-opacity="1" /><path clip-path="url(#clip2800)" d="M 0 0 M3118.49 747.586 Q3113.91 747.586 3111.27 750.036 Q3108.66 752.487 3108.66 756.784 Q3108.66 761.081 3111.27 763.532 Q3113.91 765.983 3118.49 765.983 Q3123.08 765.983 3125.72 763.532 Q3128.36 761.049 3128.36 756.784 Q3128.36 752.487 3125.72 750.036 Q3123.11 747.586 3118.49 747.586 M3112.06 744.848 Q3107.93 743.83 3105.6 740.997 Q3103.31 738.164 3103.31 734.09 Q3103.31 728.393 3107.35 725.083 Q3111.43 721.773 3118.49 721.773 Q3125.59 721.773 3129.63 725.083 Q3133.68 728.393 3133.68 734.09 Q3133.68 738.164 3131.35 740.997 Q3129.06 743.83 3124.95 744.848 Q3129.6 745.931 3132.18 749.082 Q3134.79 752.233 3134.79 756.784 Q3134.79 763.691 3130.56 767.383 Q3126.35 771.075 3118.49 771.075 Q3110.63 771.075 3106.4 767.383 Q3102.2 763.691 3102.2 756.784 Q3102.2 752.233 3104.81 749.082 Q3107.42 745.931 3112.06 744.848 M3109.71 734.695 Q3109.71 738.387 3112 740.456 Q3114.32 742.525 3118.49 742.525 Q3122.63 742.525 3124.95 740.456 Q3127.31 738.387 3127.31 734.695 Q3127.31 731.003 3124.95 728.934 Q3122.63 726.865 3118.49 726.865 Q3114.32 726.865 3112 728.934 Q3109.71 731.003 3109.71 734.695 Z" fill="#000000" fill-rule="evenodd" fill-opacity="1" /><polyline clip-path="url(#clip2800)" style="stroke:#00a98d; stroke-width:16; stroke-opacity:1; fill:none" points="
  2764.44,806.872 2956.44,806.872 
  "/>
<path clip-path="url(#clip2800)" d="M 0 0 M2988.44 783.112 L2994.87 783.112 L2994.87 825.221 L3018.01 825.221 L3018.01 830.632 L2988.44 830.632 L2988.44 783.112 Z" fill="#000000" fill-rule="evenodd" fill-opacity="1" /><path clip-path="url(#clip2800)" d="M 0 0 M3024.15 794.984 L3030.01 794.984 L3030.01 830.632 L3024.15 830.632 L3024.15 794.984 M3024.15 781.107 L3030.01 781.107 L3030.01 788.523 L3024.15 788.523 L3024.15 781.107 Z" fill="#000000" fill-rule="evenodd" fill-opacity="1" /><path clip-path="url(#clip2800)" d="M 0 0 M3054.2 781.107 L3054.2 785.977 L3048.6 785.977 Q3045.45 785.977 3044.21 787.25 Q3043 788.523 3043 791.833 L3043 794.984 L3052.64 794.984 L3052.64 799.536 L3043 799.536 L3043 830.632 L3037.11 830.632 L3037.11 799.536 L3031.51 799.536 L3031.51 794.984 L3037.11 794.984 L3037.11 792.502 Q3037.11 786.55 3039.88 783.844 Q3042.65 781.107 3048.66 781.107 L3054.2 781.107 Z" fill="#000000" fill-rule="evenodd" fill-opacity="1" /><path clip-path="url(#clip2800)" d="M 0 0 M3064.99 784.863 L3064.99 794.984 L3077.05 794.984 L3077.05 799.536 L3064.99 799.536 L3064.99 818.887 Q3064.99 823.248 3066.17 824.489 Q3067.38 825.731 3071.04 825.731 L3077.05 825.731 L3077.05 830.632 L3071.04 830.632 Q3064.26 830.632 3061.68 828.118 Q3059.1 825.571 3059.1 818.887 L3059.1 799.536 L3054.8 799.536 L3054.8 794.984 L3059.1 794.984 L3059.1 784.863 L3064.99 784.863 Z" fill="#000000" fill-rule="evenodd" fill-opacity="1" /><path clip-path="url(#clip2800)" d="M 0 0 M3104.93 829.645 L3104.93 823.789 Q3107.35 824.935 3109.84 825.54 Q3112.32 826.144 3114.71 826.144 Q3121.07 826.144 3124.41 821.879 Q3127.79 817.582 3128.26 808.861 Q3126.42 811.599 3123.59 813.063 Q3120.75 814.527 3117.32 814.527 Q3110.19 814.527 3106.02 810.23 Q3101.88 805.901 3101.88 798.422 Q3101.88 791.101 3106.21 786.677 Q3110.54 782.253 3117.73 782.253 Q3125.97 782.253 3130.3 788.587 Q3134.66 794.889 3134.66 806.92 Q3134.66 818.155 3129.31 824.871 Q3124 831.555 3114.99 831.555 Q3112.57 831.555 3110.09 831.078 Q3107.61 830.6 3104.93 829.645 M3117.73 809.498 Q3122.06 809.498 3124.57 806.538 Q3127.12 803.578 3127.12 798.422 Q3127.12 793.297 3124.57 790.337 Q3122.06 787.345 3117.73 787.345 Q3113.4 787.345 3110.85 790.337 Q3108.34 793.297 3108.34 798.422 Q3108.34 803.578 3110.85 806.538 Q3113.4 809.498 3117.73 809.498 Z" fill="#000000" fill-rule="evenodd" fill-opacity="1" /><polyline clip-path="url(#clip2800)" style="stroke:#8e971d; stroke-width:16; stroke-opacity:1; fill:none" points="
  2764.44,867.352 2956.44,867.352 
  "/>
<path clip-path="url(#clip2800)" d="M 0 0 M2988.44 843.592 L2994.87 843.592 L2994.87 885.701 L3018.01 885.701 L3018.01 891.112 L2988.44 891.112 L2988.44 843.592 Z" fill="#000000" fill-rule="evenodd" fill-opacity="1" /><path clip-path="url(#clip2800)" d="M 0 0 M3024.15 855.464 L3030.01 855.464 L3030.01 891.112 L3024.15 891.112 L3024.15 855.464 M3024.15 841.587 L3030.01 841.587 L3030.01 849.003 L3024.15 849.003 L3024.15 841.587 Z" fill="#000000" fill-rule="evenodd" fill-opacity="1" /><path clip-path="url(#clip2800)" d="M 0 0 M3054.2 841.587 L3054.2 846.457 L3048.6 846.457 Q3045.45 846.457 3044.21 847.73 Q3043 849.003 3043 852.313 L3043 855.464 L3052.64 855.464 L3052.64 860.016 L3043 860.016 L3043 891.112 L3037.11 891.112 L3037.11 860.016 L3031.51 860.016 L3031.51 855.464 L3037.11 855.464 L3037.11 852.982 Q3037.11 847.03 3039.88 844.324 Q3042.65 841.587 3048.66 841.587 L3054.2 841.587 Z" fill="#000000" fill-rule="evenodd" fill-opacity="1" /><path clip-path="url(#clip2800)" d="M 0 0 M3064.99 845.343 L3064.99 855.464 L3077.05 855.464 L3077.05 860.016 L3064.99 860.016 L3064.99 879.367 Q3064.99 883.728 3066.17 884.969 Q3067.38 886.211 3071.04 886.211 L3077.05 886.211 L3077.05 891.112 L3071.04 891.112 Q3064.26 891.112 3061.68 888.598 Q3059.1 886.051 3059.1 879.367 L3059.1 860.016 L3054.8 860.016 L3054.8 855.464 L3059.1 855.464 L3059.1 845.343 L3064.99 845.343 Z" fill="#000000" fill-rule="evenodd" fill-opacity="1" /><path clip-path="url(#clip2800)" d="M 0 0 M3105.86 885.701 L3116.36 885.701 L3116.36 849.449 L3104.93 851.74 L3104.93 845.884 L3116.3 843.592 L3122.73 843.592 L3122.73 885.701 L3133.23 885.701 L3133.23 891.112 L3105.86 891.112 L3105.86 885.701 Z" fill="#000000" fill-rule="evenodd" fill-opacity="1" /><path clip-path="url(#clip2800)" d="M 0 0 M3153.95 847.825 Q3148.98 847.825 3146.47 852.727 Q3143.99 857.597 3143.99 867.4 Q3143.99 877.171 3146.47 882.073 Q3148.98 886.943 3153.95 886.943 Q3158.95 886.943 3161.43 882.073 Q3163.94 877.171 3163.94 867.4 Q3163.94 857.597 3161.43 852.727 Q3158.95 847.825 3153.95 847.825 M3153.95 842.733 Q3161.94 842.733 3166.14 849.067 Q3170.37 855.369 3170.37 867.4 Q3170.37 879.399 3166.14 885.733 Q3161.94 892.035 3153.95 892.035 Q3145.96 892.035 3141.73 885.733 Q3137.53 879.399 3137.53 867.4 Q3137.53 855.369 3141.73 849.067 Q3145.96 842.733 3153.95 842.733 Z" fill="#000000" fill-rule="evenodd" fill-opacity="1" /><polyline clip-path="url(#clip2800)" style="stroke:#00a8cb; stroke-width:16; stroke-opacity:1; fill:none" points="
  2764.44,927.832 2956.44,927.832 
  "/>
<path clip-path="url(#clip2800)" d="M 0 0 M2988.44 904.072 L2994.87 904.072 L2994.87 946.181 L3018.01 946.181 L3018.01 951.592 L2988.44 951.592 L2988.44 904.072 Z" fill="#000000" fill-rule="evenodd" fill-opacity="1" /><path clip-path="url(#clip2800)" d="M 0 0 M3036.82 920.05 Q3032.11 920.05 3029.37 923.742 Q3026.64 927.402 3026.64 933.8 Q3026.64 940.198 3029.34 943.89 Q3032.08 947.55 3036.82 947.55 Q3041.5 947.55 3044.24 943.858 Q3046.97 940.166 3046.97 933.8 Q3046.97 927.466 3044.24 923.774 Q3041.5 920.05 3036.82 920.05 M3036.82 915.085 Q3044.46 915.085 3048.82 920.05 Q3053.18 925.015 3053.18 933.8 Q3053.18 942.553 3048.82 947.55 Q3044.46 952.515 3036.82 952.515 Q3029.15 952.515 3024.79 947.55 Q3020.46 942.553 3020.46 933.8 Q3020.46 925.015 3024.79 920.05 Q3029.15 915.085 3036.82 915.085 Z" fill="#000000" fill-rule="evenodd" fill-opacity="1" /><path clip-path="url(#clip2800)" d="M 0 0 M3075.52 933.673 Q3068.43 933.673 3065.69 935.296 Q3062.95 936.919 3062.95 940.834 Q3062.95 943.953 3064.99 945.799 Q3067.06 947.614 3070.59 947.614 Q3075.46 947.614 3078.39 944.176 Q3081.35 940.707 3081.35 934.978 L3081.35 933.673 L3075.52 933.673 M3087.21 931.254 L3087.21 951.592 L3081.35 951.592 L3081.35 946.181 Q3079.34 949.428 3076.35 950.987 Q3073.36 952.515 3069.03 952.515 Q3063.56 952.515 3060.31 949.46 Q3057.1 946.372 3057.1 941.216 Q3057.1 935.2 3061.11 932.145 Q3065.15 929.089 3073.14 929.089 L3081.35 929.089 L3081.35 928.516 Q3081.35 924.474 3078.68 922.278 Q3076.03 920.05 3071.23 920.05 Q3068.17 920.05 3065.28 920.782 Q3062.38 921.514 3059.71 922.978 L3059.71 917.567 Q3062.92 916.326 3065.94 915.721 Q3068.97 915.085 3071.83 915.085 Q3079.57 915.085 3083.39 919.095 Q3087.21 923.106 3087.21 931.254 Z" fill="#000000" fill-rule="evenodd" fill-opacity="1" /><path clip-path="url(#clip2800)" d="M 0 0 M3116.81 921.355 L3116.81 902.067 L3122.66 902.067 L3122.66 951.592 L3116.81 951.592 L3116.81 946.245 Q3114.96 949.428 3112.13 950.987 Q3109.33 952.515 3105.38 952.515 Q3098.92 952.515 3094.84 947.359 Q3090.8 942.203 3090.8 933.8 Q3090.8 925.397 3094.84 920.241 Q3098.92 915.085 3105.38 915.085 Q3109.33 915.085 3112.13 916.644 Q3114.96 918.172 3116.81 921.355 M3096.85 933.8 Q3096.85 940.261 3099.49 943.953 Q3102.17 947.614 3106.81 947.614 Q3111.46 947.614 3114.13 943.953 Q3116.81 940.261 3116.81 933.8 Q3116.81 927.339 3114.13 923.679 Q3111.46 919.986 3106.81 919.986 Q3102.17 919.986 3099.49 923.679 Q3096.85 927.339 3096.85 933.8 Z" fill="#000000" fill-rule="evenodd" fill-opacity="1" /></svg>
