<?xml version="1.0" encoding="utf-8"?>
<svg xmlns="http://www.w3.org/2000/svg" xmlns:xlink="http://www.w3.org/1999/xlink" width="800" height="600" viewBox="0 0 3200 2400">
<defs>
  <clipPath id="clip2200">
    <rect x="0" y="0" width="3200" height="2400"/>
  </clipPath>
</defs>
<path clip-path="url(#clip2200)" d="
M0 2400 L3200 2400 L3200 0 L0 0  Z
  " fill="#ffffff" fill-rule="evenodd" fill-opacity="1"/>
<defs>
  <clipPath id="clip2201">
    <rect x="640" y="0" width="2241" height="2241"/>
  </clipPath>
</defs>
<path clip-path="url(#clip2200)" d="
M240.82 2204.92 L2636.44 2204.92 L2636.44 131.032 L240.82 131.032  Z
  " fill="#ffffff" fill-rule="evenodd" fill-opacity="1"/>
<defs>
  <clipPath id="clip2202">
    <rect x="240" y="131" width="2397" height="2075"/>
  </clipPath>
</defs>
<polyline clip-path="url(#clip2202)" style="stroke:#000000; stroke-width:2; stroke-opacity:0.1; fill:none" points="
  308.621,2204.92 308.621,131.032 
  "/>
<polyline clip-path="url(#clip2202)" style="stroke:#000000; stroke-width:2; stroke-opacity:0.1; fill:none" points="
  760.625,2204.92 760.625,131.032 
  "/>
<polyline clip-path="url(#clip2202)" style="stroke:#000000; stroke-width:2; stroke-opacity:0.1; fill:none" points="
  1212.63,2204.92 1212.63,131.032 
  "/>
<polyline clip-path="url(#clip2202)" style="stroke:#000000; stroke-width:2; stroke-opacity:0.1; fill:none" points="
  1664.63,2204.92 1664.63,131.032 
  "/>
<polyline clip-path="url(#clip2202)" style="stroke:#000000; stroke-width:2; stroke-opacity:0.1; fill:none" points="
  2116.64,2204.92 2116.64,131.032 
  "/>
<polyline clip-path="url(#clip2202)" style="stroke:#000000; stroke-width:2; stroke-opacity:0.1; fill:none" points="
  2568.64,2204.92 2568.64,131.032 
  "/>
<polyline clip-path="url(#clip2202)" style="stroke:#000000; stroke-width:2; stroke-opacity:0.1; fill:none" points="
  240.82,1925.54 2636.44,1925.54 
  "/>
<polyline clip-path="url(#clip2202)" style="stroke:#000000; stroke-width:2; stroke-opacity:0.1; fill:none" points="
  240.82,1560.12 2636.44,1560.12 
  "/>
<polyline clip-path="url(#clip2202)" style="stroke:#000000; stroke-width:2; stroke-opacity:0.1; fill:none" points="
  240.82,1194.7 2636.44,1194.7 
  "/>
<polyline clip-path="url(#clip2202)" style="stroke:#000000; stroke-width:2; stroke-opacity:0.1; fill:none" points="
  240.82,829.284 2636.44,829.284 
  "/>
<polyline clip-path="url(#clip2202)" style="stroke:#000000; stroke-width:2; stroke-opacity:0.1; fill:none" points="
  240.82,463.864 2636.44,463.864 
  "/>
<polyline clip-path="url(#clip2200)" style="stroke:#000000; stroke-width:4; stroke-opacity:1; fill:none" points="
  240.82,2204.92 2636.44,2204.92 
  "/>
<polyline clip-path="url(#clip2200)" style="stroke:#000000; stroke-width:4; stroke-opacity:1; fill:none" points="
  240.82,2204.92 240.82,131.032 
  "/>
<polyline clip-path="url(#clip2200)" style="stroke:#000000; stroke-width:4; stroke-opacity:1; fill:none" points="
  308.621,2204.92 308.621,2180.03 
  "/>
<polyline clip-path="url(#clip2200)" style="stroke:#000000; stroke-width:4; stroke-opacity:1; fill:none" points="
  760.625,2204.92 760.625,2180.03 
  "/>
<polyline clip-path="url(#clip2200)" style="stroke:#000000; stroke-width:4; stroke-opacity:1; fill:none" points="
  1212.63,2204.92 1212.63,2180.03 
  "/>
<polyline clip-path="url(#clip2200)" style="stroke:#000000; stroke-width:4; stroke-opacity:1; fill:none" points="
  1664.63,2204.92 1664.63,2180.03 
  "/>
<polyline clip-path="url(#clip2200)" style="stroke:#000000; stroke-width:4; stroke-opacity:1; fill:none" points="
  2116.64,2204.92 2116.64,2180.03 
  "/>
<polyline clip-path="url(#clip2200)" style="stroke:#000000; stroke-width:4; stroke-opacity:1; fill:none" points="
  2568.64,2204.92 2568.64,2180.03 
  "/>
<polyline clip-path="url(#clip2200)" style="stroke:#000000; stroke-width:4; stroke-opacity:1; fill:none" points="
  240.82,1925.54 269.568,1925.54 
  "/>
<polyline clip-path="url(#clip2200)" style="stroke:#000000; stroke-width:4; stroke-opacity:1; fill:none" points="
  240.82,1560.12 269.568,1560.12 
  "/>
<polyline clip-path="url(#clip2200)" style="stroke:#000000; stroke-width:4; stroke-opacity:1; fill:none" points="
  240.82,1194.7 269.568,1194.7 
  "/>
<polyline clip-path="url(#clip2200)" style="stroke:#000000; stroke-width:4; stroke-opacity:1; fill:none" points="
  240.82,829.284 269.568,829.284 
  "/>
<polyline clip-path="url(#clip2200)" style="stroke:#000000; stroke-width:4; stroke-opacity:1; fill:none" points="
  240.82,463.864 269.568,463.864 
  "/>
<path clip-path="url(#clip2200)" d="M 0 0 M308.621 2230.91 Q305.01 2230.91 303.181 2234.48 Q301.375 2238.02 301.375 2245.15 Q301.375 2252.25 303.181 2255.82 Q305.01 2259.36 308.621 2259.36 Q312.255 2259.36 314.061 2255.82 Q315.889 2252.25 315.889 2245.15 Q315.889 2238.02 314.061 2234.48 Q312.255 2230.91 308.621 2230.91 M308.621 2227.21 Q314.431 2227.21 317.486 2231.81 Q320.565 2236.4 320.565 2245.15 Q320.565 2253.87 317.486 2258.48 Q314.431 2263.06 308.621 2263.06 Q302.811 2263.06 299.732 2258.48 Q296.676 2253.87 296.676 2245.15 Q296.676 2236.4 299.732 2231.81 Q302.811 2227.21 308.621 2227.21 Z" fill="#000000" fill-rule="evenodd" fill-opacity="1" /><path clip-path="url(#clip2200)" d="M 0 0 M751.007 2258.46 L758.646 2258.46 L758.646 2232.09 L750.336 2233.76 L750.336 2229.5 L758.599 2227.83 L763.275 2227.83 L763.275 2258.46 L770.914 2258.46 L770.914 2262.39 L751.007 2262.39 L751.007 2258.46 Z" fill="#000000" fill-rule="evenodd" fill-opacity="1" /><path clip-path="url(#clip2200)" d="M 0 0 M1207.28 2258.46 L1223.6 2258.46 L1223.6 2262.39 L1201.66 2262.39 L1201.66 2258.46 Q1204.32 2255.7 1208.9 2251.07 Q1213.51 2246.42 1214.69 2245.08 Q1216.93 2242.55 1217.81 2240.82 Q1218.72 2239.06 1218.72 2237.37 Q1218.72 2234.61 1216.77 2232.88 Q1214.85 2231.14 1211.75 2231.14 Q1209.55 2231.14 1207.1 2231.91 Q1204.67 2232.67 1201.89 2234.22 L1201.89 2229.5 Q1204.71 2228.36 1207.17 2227.79 Q1209.62 2227.21 1211.66 2227.21 Q1217.03 2227.21 1220.22 2229.89 Q1223.42 2232.58 1223.42 2237.07 Q1223.42 2239.2 1222.61 2241.12 Q1221.82 2243.02 1219.71 2245.61 Q1219.13 2246.28 1216.03 2249.5 Q1212.93 2252.69 1207.28 2258.46 Z" fill="#000000" fill-rule="evenodd" fill-opacity="1" /><path clip-path="url(#clip2200)" d="M 0 0 M1668.88 2243.76 Q1672.24 2244.48 1674.11 2246.74 Q1676.01 2249.01 1676.01 2252.35 Q1676.01 2257.46 1672.49 2260.26 Q1668.97 2263.06 1662.49 2263.06 Q1660.32 2263.06 1658 2262.62 Q1655.71 2262.21 1653.26 2261.35 L1653.26 2256.84 Q1655.2 2257.97 1657.51 2258.55 Q1659.83 2259.13 1662.35 2259.13 Q1666.75 2259.13 1669.04 2257.39 Q1671.36 2255.66 1671.36 2252.35 Q1671.36 2249.29 1669.2 2247.58 Q1667.08 2245.84 1663.26 2245.84 L1659.23 2245.84 L1659.23 2242 L1663.44 2242 Q1666.89 2242 1668.72 2240.63 Q1670.55 2239.24 1670.55 2236.65 Q1670.55 2233.99 1668.65 2232.58 Q1666.77 2231.14 1663.26 2231.14 Q1661.33 2231.14 1659.14 2231.56 Q1656.94 2231.98 1654.3 2232.85 L1654.3 2228.69 Q1656.96 2227.95 1659.27 2227.58 Q1661.61 2227.21 1663.67 2227.21 Q1669 2227.21 1672.1 2229.64 Q1675.2 2232.04 1675.2 2236.17 Q1675.2 2239.04 1673.56 2241.03 Q1671.91 2242.99 1668.88 2243.76 Z" fill="#000000" fill-rule="evenodd" fill-opacity="1" /><path clip-path="url(#clip2200)" d="M 0 0 M2119.65 2231.91 L2107.84 2250.35 L2119.65 2250.35 L2119.65 2231.91 M2118.42 2227.83 L2124.3 2227.83 L2124.3 2250.35 L2129.23 2250.35 L2129.23 2254.24 L2124.3 2254.24 L2124.3 2262.39 L2119.65 2262.39 L2119.65 2254.24 L2104.04 2254.24 L2104.04 2249.73 L2118.42 2227.83 Z" fill="#000000" fill-rule="evenodd" fill-opacity="1" /><path clip-path="url(#clip2200)" d="M 0 0 M2558.92 2227.83 L2577.28 2227.83 L2577.28 2231.77 L2563.2 2231.77 L2563.2 2240.24 Q2564.22 2239.89 2565.24 2239.73 Q2566.26 2239.54 2567.28 2239.54 Q2573.06 2239.54 2576.44 2242.72 Q2579.82 2245.89 2579.82 2251.3 Q2579.82 2256.88 2576.35 2259.98 Q2572.88 2263.06 2566.56 2263.06 Q2564.38 2263.06 2562.11 2262.69 Q2559.87 2262.32 2557.46 2261.58 L2557.46 2256.88 Q2559.54 2258.02 2561.77 2258.57 Q2563.99 2259.13 2566.47 2259.13 Q2570.47 2259.13 2572.81 2257.02 Q2575.15 2254.92 2575.15 2251.3 Q2575.15 2247.69 2572.81 2245.59 Q2570.47 2243.48 2566.47 2243.48 Q2564.59 2243.48 2562.72 2243.9 Q2560.86 2244.31 2558.92 2245.19 L2558.92 2227.83 Z" fill="#000000" fill-rule="evenodd" fill-opacity="1" /><path clip-path="url(#clip2200)" d="M 0 0 M132.2 1927.94 L144.677 1927.94 L144.677 1931.73 L132.2 1931.73 L132.2 1927.94 Z" fill="#000000" fill-rule="evenodd" fill-opacity="1" /><path clip-path="url(#clip2200)" d="M 0 0 M159.746 1911.34 Q156.135 1911.34 154.307 1914.91 Q152.501 1918.45 152.501 1925.58 Q152.501 1932.68 154.307 1936.25 Q156.135 1939.79 159.746 1939.79 Q163.381 1939.79 165.186 1936.25 Q167.015 1932.68 167.015 1925.58 Q167.015 1918.45 165.186 1914.91 Q163.381 1911.34 159.746 1911.34 M159.746 1907.64 Q165.556 1907.64 168.612 1912.24 Q171.691 1916.83 171.691 1925.58 Q171.691 1934.3 168.612 1938.91 Q165.556 1943.49 159.746 1943.49 Q153.936 1943.49 150.857 1938.91 Q147.802 1934.3 147.802 1925.58 Q147.802 1916.83 150.857 1912.24 Q153.936 1907.64 159.746 1907.64 Z" fill="#000000" fill-rule="evenodd" fill-opacity="1" /><path clip-path="url(#clip2200)" d="M 0 0 M176.76 1936.94 L181.644 1936.94 L181.644 1942.82 L176.76 1942.82 L176.76 1936.94 Z" fill="#000000" fill-rule="evenodd" fill-opacity="1" /><path clip-path="url(#clip2200)" d="M 0 0 M197.292 1923.68 Q194.144 1923.68 192.292 1925.83 Q190.464 1927.98 190.464 1931.73 Q190.464 1935.46 192.292 1937.64 Q194.144 1939.79 197.292 1939.79 Q200.441 1939.79 202.269 1937.64 Q204.121 1935.46 204.121 1931.73 Q204.121 1927.98 202.269 1925.83 Q200.441 1923.68 197.292 1923.68 M206.575 1909.03 L206.575 1913.29 Q204.816 1912.45 203.01 1912.01 Q201.228 1911.57 199.468 1911.57 Q194.839 1911.57 192.385 1914.7 Q189.954 1917.82 189.607 1924.14 Q190.973 1922.13 193.033 1921.06 Q195.093 1919.98 197.57 1919.98 Q202.778 1919.98 205.788 1923.15 Q208.82 1926.29 208.82 1931.73 Q208.82 1937.06 205.672 1940.28 Q202.524 1943.49 197.292 1943.49 Q191.297 1943.49 188.126 1938.91 Q184.955 1934.3 184.955 1925.58 Q184.955 1917.38 188.843 1912.52 Q192.732 1907.64 199.283 1907.64 Q201.042 1907.64 202.825 1907.98 Q204.63 1908.33 206.575 1909.03 Z" fill="#000000" fill-rule="evenodd" fill-opacity="1" /><path clip-path="url(#clip2200)" d="M 0 0 M133.01 1562.52 L145.487 1562.52 L145.487 1566.31 L133.01 1566.31 L133.01 1562.52 Z" fill="#000000" fill-rule="evenodd" fill-opacity="1" /><path clip-path="url(#clip2200)" d="M 0 0 M160.556 1545.92 Q156.945 1545.92 155.117 1549.49 Q153.311 1553.03 153.311 1560.16 Q153.311 1567.26 155.117 1570.83 Q156.945 1574.37 160.556 1574.37 Q164.191 1574.37 165.996 1570.83 Q167.825 1567.26 167.825 1560.16 Q167.825 1553.03 165.996 1549.49 Q164.191 1545.92 160.556 1545.92 M160.556 1542.22 Q166.367 1542.22 169.422 1546.82 Q172.501 1551.41 172.501 1560.16 Q172.501 1568.88 169.422 1573.49 Q166.367 1578.07 160.556 1578.07 Q154.746 1578.07 151.668 1573.49 Q148.612 1568.88 148.612 1560.16 Q148.612 1551.41 151.668 1546.82 Q154.746 1542.22 160.556 1542.22 Z" fill="#000000" fill-rule="evenodd" fill-opacity="1" /><path clip-path="url(#clip2200)" d="M 0 0 M177.57 1571.52 L182.455 1571.52 L182.455 1577.4 L177.57 1577.4 L177.57 1571.52 Z" fill="#000000" fill-rule="evenodd" fill-opacity="1" /><path clip-path="url(#clip2200)" d="M 0 0 M201.691 1558.77 Q205.047 1559.49 206.922 1561.75 Q208.82 1564.02 208.82 1567.36 Q208.82 1572.47 205.302 1575.27 Q201.783 1578.07 195.302 1578.07 Q193.126 1578.07 190.811 1577.63 Q188.519 1577.22 186.066 1576.36 L186.066 1571.85 Q188.01 1572.98 190.325 1573.56 Q192.64 1574.14 195.163 1574.14 Q199.561 1574.14 201.853 1572.4 Q204.167 1570.67 204.167 1567.36 Q204.167 1564.3 202.015 1562.59 Q199.885 1560.85 196.066 1560.85 L192.038 1560.85 L192.038 1557.01 L196.251 1557.01 Q199.7 1557.01 201.528 1555.64 Q203.357 1554.25 203.357 1551.66 Q203.357 1549 201.459 1547.59 Q199.584 1546.15 196.066 1546.15 Q194.144 1546.15 191.945 1546.57 Q189.746 1546.99 187.107 1547.87 L187.107 1543.7 Q189.769 1542.96 192.084 1542.59 Q194.422 1542.22 196.482 1542.22 Q201.806 1542.22 204.908 1544.65 Q208.01 1547.06 208.01 1551.18 Q208.01 1554.05 206.366 1556.04 Q204.723 1558 201.691 1558.77 Z" fill="#000000" fill-rule="evenodd" fill-opacity="1" /><path clip-path="url(#clip2200)" d="M 0 0 M159.908 1180.5 Q156.297 1180.5 154.469 1184.07 Q152.663 1187.61 152.663 1194.74 Q152.663 1201.84 154.469 1205.41 Q156.297 1208.95 159.908 1208.95 Q163.543 1208.95 165.348 1205.41 Q167.177 1201.84 167.177 1194.74 Q167.177 1187.61 165.348 1184.07 Q163.543 1180.5 159.908 1180.5 M159.908 1176.8 Q165.718 1176.8 168.774 1181.4 Q171.853 1185.99 171.853 1194.74 Q171.853 1203.46 168.774 1208.07 Q165.718 1212.65 159.908 1212.65 Q154.098 1212.65 151.02 1208.07 Q147.964 1203.46 147.964 1194.74 Q147.964 1185.99 151.02 1181.4 Q154.098 1176.8 159.908 1176.8 Z" fill="#000000" fill-rule="evenodd" fill-opacity="1" /><path clip-path="url(#clip2200)" d="M 0 0 M176.922 1206.1 L181.806 1206.1 L181.806 1211.98 L176.922 1211.98 L176.922 1206.1 Z" fill="#000000" fill-rule="evenodd" fill-opacity="1" /><path clip-path="url(#clip2200)" d="M 0 0 M196.876 1180.5 Q193.265 1180.5 191.436 1184.07 Q189.63 1187.61 189.63 1194.74 Q189.63 1201.84 191.436 1205.41 Q193.265 1208.95 196.876 1208.95 Q200.51 1208.95 202.316 1205.41 Q204.144 1201.84 204.144 1194.74 Q204.144 1187.61 202.316 1184.07 Q200.51 1180.5 196.876 1180.5 M196.876 1176.8 Q202.686 1176.8 205.741 1181.4 Q208.82 1185.99 208.82 1194.74 Q208.82 1203.46 205.741 1208.07 Q202.686 1212.65 196.876 1212.65 Q191.066 1212.65 187.987 1208.07 Q184.931 1203.46 184.931 1194.74 Q184.931 1185.99 187.987 1181.4 Q191.066 1176.8 196.876 1176.8 Z" fill="#000000" fill-rule="evenodd" fill-opacity="1" /><path clip-path="url(#clip2200)" d="M 0 0 M160.556 815.082 Q156.945 815.082 155.117 818.647 Q153.311 822.189 153.311 829.318 Q153.311 836.425 155.117 839.99 Q156.945 843.531 160.556 843.531 Q164.191 843.531 165.996 839.99 Q167.825 836.425 167.825 829.318 Q167.825 822.189 165.996 818.647 Q164.191 815.082 160.556 815.082 M160.556 811.379 Q166.367 811.379 169.422 815.985 Q172.501 820.568 172.501 829.318 Q172.501 838.045 169.422 842.652 Q166.367 847.235 160.556 847.235 Q154.746 847.235 151.668 842.652 Q148.612 838.045 148.612 829.318 Q148.612 820.568 151.668 815.985 Q154.746 811.379 160.556 811.379 Z" fill="#000000" fill-rule="evenodd" fill-opacity="1" /><path clip-path="url(#clip2200)" d="M 0 0 M177.57 840.684 L182.455 840.684 L182.455 846.564 L177.57 846.564 L177.57 840.684 Z" fill="#000000" fill-rule="evenodd" fill-opacity="1" /><path clip-path="url(#clip2200)" d="M 0 0 M201.691 827.929 Q205.047 828.647 206.922 830.916 Q208.82 833.184 208.82 836.517 Q208.82 841.633 205.302 844.434 Q201.783 847.235 195.302 847.235 Q193.126 847.235 190.811 846.795 Q188.519 846.378 186.066 845.522 L186.066 841.008 Q188.01 842.142 190.325 842.721 Q192.64 843.3 195.163 843.3 Q199.561 843.3 201.853 841.564 Q204.167 839.828 204.167 836.517 Q204.167 833.462 202.015 831.749 Q199.885 830.013 196.066 830.013 L192.038 830.013 L192.038 826.17 L196.251 826.17 Q199.7 826.17 201.528 824.804 Q203.357 823.416 203.357 820.823 Q203.357 818.161 201.459 816.749 Q199.584 815.314 196.066 815.314 Q194.144 815.314 191.945 815.73 Q189.746 816.147 187.107 817.027 L187.107 812.86 Q189.769 812.119 192.084 811.749 Q194.422 811.379 196.482 811.379 Q201.806 811.379 204.908 813.809 Q208.01 816.217 208.01 820.337 Q208.01 823.207 206.366 825.198 Q204.723 827.166 201.691 827.929 Z" fill="#000000" fill-rule="evenodd" fill-opacity="1" /><path clip-path="url(#clip2200)" d="M 0 0 M159.746 449.663 Q156.135 449.663 154.307 453.228 Q152.501 456.769 152.501 463.899 Q152.501 471.005 154.307 474.57 Q156.135 478.112 159.746 478.112 Q163.381 478.112 165.186 474.57 Q167.015 471.005 167.015 463.899 Q167.015 456.769 165.186 453.228 Q163.381 449.663 159.746 449.663 M159.746 445.959 Q165.556 445.959 168.612 450.566 Q171.691 455.149 171.691 463.899 Q171.691 472.626 168.612 477.232 Q165.556 481.815 159.746 481.815 Q153.936 481.815 150.857 477.232 Q147.802 472.626 147.802 463.899 Q147.802 455.149 150.857 450.566 Q153.936 445.959 159.746 445.959 Z" fill="#000000" fill-rule="evenodd" fill-opacity="1" /><path clip-path="url(#clip2200)" d="M 0 0 M176.76 475.264 L181.644 475.264 L181.644 481.144 L176.76 481.144 L176.76 475.264 Z" fill="#000000" fill-rule="evenodd" fill-opacity="1" /><path clip-path="url(#clip2200)" d="M 0 0 M197.292 462.001 Q194.144 462.001 192.292 464.153 Q190.464 466.306 190.464 470.056 Q190.464 473.783 192.292 475.959 Q194.144 478.112 197.292 478.112 Q200.441 478.112 202.269 475.959 Q204.121 473.783 204.121 470.056 Q204.121 466.306 202.269 464.153 Q200.441 462.001 197.292 462.001 M206.575 447.348 L206.575 451.607 Q204.816 450.774 203.01 450.334 Q201.228 449.894 199.468 449.894 Q194.839 449.894 192.385 453.019 Q189.954 456.144 189.607 462.464 Q190.973 460.45 193.033 459.385 Q195.093 458.297 197.57 458.297 Q202.778 458.297 205.788 461.468 Q208.82 464.616 208.82 470.056 Q208.82 475.38 205.672 478.598 Q202.524 481.815 197.292 481.815 Q191.297 481.815 188.126 477.232 Q184.955 472.626 184.955 463.899 Q184.955 455.704 188.843 450.843 Q192.732 445.959 199.283 445.959 Q201.042 445.959 202.825 446.306 Q204.63 446.653 206.575 447.348 Z" fill="#000000" fill-rule="evenodd" fill-opacity="1" /><path clip-path="url(#clip2200)" d="M 0 0 M1004.58 45.1919 L1004.58 72.576 L997.123 72.576 L997.123 45.4349 Q997.123 38.994 994.611 35.7938 Q992.1 32.5936 987.077 32.5936 Q981.041 32.5936 977.557 36.4419 Q974.073 40.2903 974.073 46.9338 L974.073 72.576 L966.579 72.576 L966.579 9.54393 L974.073 9.54393 L974.073 34.2544 Q976.747 30.163 980.352 28.1376 Q983.998 26.1121 988.738 26.1121 Q996.556 26.1121 1000.57 30.9732 Q1004.58 35.7938 1004.58 45.1919 Z" fill="#000000" fill-rule="evenodd" fill-opacity="1" /><path clip-path="url(#clip2200)" d="M 0 0 M1029.98 32.4315 Q1023.98 32.4315 1020.5 37.1306 Q1017.01 41.7891 1017.01 49.9314 Q1017.01 58.0738 1020.46 62.7728 Q1023.94 67.4314 1029.98 67.4314 Q1035.93 67.4314 1039.41 62.7323 Q1042.9 58.0333 1042.9 49.9314 Q1042.9 41.8701 1039.41 37.1711 Q1035.93 32.4315 1029.98 32.4315 M1029.98 26.1121 Q1039.7 26.1121 1045.25 32.4315 Q1050.8 38.7509 1050.8 49.9314 Q1050.8 61.0714 1045.25 67.4314 Q1039.7 73.7508 1029.98 73.7508 Q1020.21 73.7508 1014.66 67.4314 Q1009.15 61.0714 1009.15 49.9314 Q1009.15 38.7509 1014.66 32.4315 Q1020.21 26.1121 1029.98 26.1121 Z" fill="#000000" fill-rule="evenodd" fill-opacity="1" /><path clip-path="url(#clip2200)" d="M 0 0 M1053.27 27.2059 L1061.17 27.2059 L1075.35 65.2844 L1089.52 27.2059 L1097.42 27.2059 L1080.41 72.576 L1070.28 72.576 L1053.27 27.2059 Z" fill="#000000" fill-rule="evenodd" fill-opacity="1" /><path clip-path="url(#clip2200)" d="M 0 0 M1144.05 48.0275 L1144.05 51.6733 L1109.78 51.6733 Q1110.26 59.3701 1114.4 63.421 Q1118.57 67.4314 1125.98 67.4314 Q1130.28 67.4314 1134.29 66.3781 Q1138.34 65.3249 1142.31 63.2184 L1142.31 70.267 Q1138.3 71.9684 1134.08 72.8596 Q1129.87 73.7508 1125.54 73.7508 Q1114.68 73.7508 1108.32 67.4314 Q1102 61.1119 1102 50.3365 Q1102 39.1965 1108 32.6746 Q1114.03 26.1121 1124.24 26.1121 Q1133.4 26.1121 1138.7 32.0264 Q1144.05 37.9003 1144.05 48.0275 M1136.6 45.84 Q1136.51 39.7232 1133.15 36.0774 Q1129.83 32.4315 1124.32 32.4315 Q1118.08 32.4315 1114.32 35.9558 Q1110.59 39.4801 1110.02 45.8805 L1136.6 45.84 Z" fill="#000000" fill-rule="evenodd" fill-opacity="1" /><path clip-path="url(#clip2200)" d="M 0 0 M1178.16 34.1734 Q1176.9 33.4443 1175.4 33.1202 Q1173.94 32.7556 1172.16 32.7556 Q1165.84 32.7556 1162.44 36.8875 Q1159.08 40.9789 1159.08 48.6757 L1159.08 72.576 L1151.58 72.576 L1151.58 27.2059 L1159.08 27.2059 L1159.08 34.2544 Q1161.43 30.1225 1165.19 28.1376 Q1168.96 26.1121 1174.35 26.1121 Q1175.12 26.1121 1176.05 26.2337 Q1176.98 26.3147 1178.12 26.5172 L1178.16 34.1734 Z" fill="#000000" fill-rule="evenodd" fill-opacity="1" /><path clip-path="url(#clip2200)" d="M 0 0 M1176.9 46.5287 L1198.74 46.5287 L1198.74 53.1722 L1176.9 53.1722 L1176.9 46.5287 Z" fill="#000000" fill-rule="evenodd" fill-opacity="1" /><path clip-path="url(#clip2200)" d="M 0 0 M1209.03 65.6895 L1222.39 65.6895 L1222.39 19.5497 L1207.85 22.4663 L1207.85 15.0127 L1222.31 12.096 L1230.5 12.096 L1230.5 65.6895 L1243.86 65.6895 L1243.86 72.576 L1209.03 72.576 L1209.03 65.6895 Z" fill="#000000" fill-rule="evenodd" fill-opacity="1" /><path clip-path="url(#clip2200)" d="M 0 0 M1270.23 17.4837 Q1263.92 17.4837 1260.72 23.7221 Q1257.56 29.92 1257.56 42.3968 Q1257.56 54.833 1260.72 61.0714 Q1263.92 67.2693 1270.23 67.2693 Q1276.59 67.2693 1279.75 61.0714 Q1282.95 54.833 1282.95 42.3968 Q1282.95 29.92 1279.75 23.7221 Q1276.59 17.4837 1270.23 17.4837 M1270.23 11.0023 Q1280.4 11.0023 1285.75 19.0636 Q1291.14 27.0843 1291.14 42.3968 Q1291.14 57.6687 1285.75 65.73 Q1280.4 73.7508 1270.23 73.7508 Q1260.07 73.7508 1254.68 65.73 Q1249.33 57.6687 1249.33 42.3968 Q1249.33 27.0843 1254.68 19.0636 Q1260.07 11.0023 1270.23 11.0023 Z" fill="#000000" fill-rule="evenodd" fill-opacity="1" /><path clip-path="url(#clip2200)" d="M 0 0 M1321.56 46.5287 L1343.39 46.5287 L1343.39 53.1722 L1321.56 53.1722 L1321.56 46.5287 Z" fill="#000000" fill-rule="evenodd" fill-opacity="1" /><path clip-path="url(#clip2200)" d="M 0 0 M1398.12 20.1573 L1387.02 50.2555 L1409.26 50.2555 L1398.12 20.1573 M1393.5 12.096 L1402.78 12.096 L1425.83 72.576 L1417.32 72.576 L1411.81 57.061 L1384.55 57.061 L1379.04 72.576 L1370.41 72.576 L1393.5 12.096 Z" fill="#000000" fill-rule="evenodd" fill-opacity="1" /><path clip-path="url(#clip2200)" d="M 0 0 M1463.5 49.3643 Q1463.5 41.2625 1460.14 36.8065 Q1456.82 32.3505 1450.78 32.3505 Q1444.79 32.3505 1441.43 36.8065 Q1438.1 41.2625 1438.1 49.3643 Q1438.1 57.4256 1441.43 61.8816 Q1444.79 66.3376 1450.78 66.3376 Q1456.82 66.3376 1460.14 61.8816 Q1463.5 57.4256 1463.5 49.3643 M1470.96 66.9452 Q1470.96 78.5308 1465.81 84.1616 Q1460.67 89.8329 1450.05 89.8329 Q1446.13 89.8329 1442.64 89.2252 Q1439.16 88.6581 1435.88 87.4428 L1435.88 80.1917 Q1439.16 81.9741 1442.36 82.8248 Q1445.56 83.6755 1448.88 83.6755 Q1456.21 83.6755 1459.86 79.8271 Q1463.5 76.0193 1463.5 68.282 L1463.5 64.5957 Q1461.19 68.6061 1457.59 70.5911 Q1453.98 72.576 1448.96 72.576 Q1440.62 72.576 1435.51 66.2161 Q1430.41 59.8562 1430.41 49.3643 Q1430.41 38.832 1435.51 32.472 Q1440.62 26.1121 1448.96 26.1121 Q1453.98 26.1121 1457.59 28.0971 Q1461.19 30.082 1463.5 34.0924 L1463.5 27.2059 L1470.96 27.2059 L1470.96 66.9452 Z" fill="#000000" fill-rule="evenodd" fill-opacity="1" /><path clip-path="url(#clip2200)" d="M 0 0 M1517.58 48.0275 L1517.58 51.6733 L1483.31 51.6733 Q1483.8 59.3701 1487.93 63.421 Q1492.1 67.4314 1499.52 67.4314 Q1503.81 67.4314 1507.82 66.3781 Q1511.87 65.3249 1515.84 63.2184 L1515.84 70.267 Q1511.83 71.9684 1507.62 72.8596 Q1503.4 73.7508 1499.07 73.7508 Q1488.21 73.7508 1481.85 67.4314 Q1475.53 61.1119 1475.53 50.3365 Q1475.53 39.1965 1481.53 32.6746 Q1487.57 26.1121 1497.77 26.1121 Q1506.93 26.1121 1512.24 32.0264 Q1517.58 37.9003 1517.58 48.0275 M1510.13 45.84 Q1510.05 39.7232 1506.69 36.0774 Q1503.36 32.4315 1497.86 32.4315 Q1491.62 32.4315 1487.85 35.9558 Q1484.12 39.4801 1483.56 45.8805 L1510.13 45.84 Z" fill="#000000" fill-rule="evenodd" fill-opacity="1" /><path clip-path="url(#clip2200)" d="M 0 0 M1563.12 45.1919 L1563.12 72.576 L1555.66 72.576 L1555.66 45.4349 Q1555.66 38.994 1553.15 35.7938 Q1550.64 32.5936 1545.62 32.5936 Q1539.58 32.5936 1536.1 36.4419 Q1532.61 40.2903 1532.61 46.9338 L1532.61 72.576 L1525.12 72.576 L1525.12 27.2059 L1532.61 27.2059 L1532.61 34.2544 Q1535.29 30.163 1538.89 28.1376 Q1542.54 26.1121 1547.28 26.1121 Q1555.09 26.1121 1559.1 30.9732 Q1563.12 35.7938 1563.12 45.1919 Z" fill="#000000" fill-rule="evenodd" fill-opacity="1" /><path clip-path="url(#clip2200)" d="M 0 0 M1578.31 14.324 L1578.31 27.2059 L1593.66 27.2059 L1593.66 32.9987 L1578.31 32.9987 L1578.31 57.6282 Q1578.31 63.1779 1579.8 64.7578 Q1581.34 66.3376 1586 66.3376 L1593.66 66.3376 L1593.66 72.576 L1586 72.576 Q1577.37 72.576 1574.09 69.3758 Q1570.81 66.1351 1570.81 57.6282 L1570.81 32.9987 L1565.34 32.9987 L1565.34 27.2059 L1570.81 27.2059 L1570.81 14.324 L1578.31 14.324 Z" fill="#000000" fill-rule="evenodd" fill-opacity="1" /><path clip-path="url(#clip2200)" d="M 0 0 M1643.77 72.576 L1620.68 12.096 L1629.23 12.096 L1648.39 63.0159 L1667.59 12.096 L1676.09 12.096 L1653.05 72.576 L1643.77 72.576 Z" fill="#000000" fill-rule="evenodd" fill-opacity="1" /><path clip-path="url(#clip2200)" d="M 0 0 M1716.28 48.0275 L1716.28 51.6733 L1682.01 51.6733 Q1682.5 59.3701 1686.63 63.421 Q1690.8 67.4314 1698.21 67.4314 Q1702.51 67.4314 1706.52 66.3781 Q1710.57 65.3249 1714.54 63.2184 L1714.54 70.267 Q1710.53 71.9684 1706.31 72.8596 Q1702.1 73.7508 1697.77 73.7508 Q1686.91 73.7508 1680.55 67.4314 Q1674.23 61.1119 1674.23 50.3365 Q1674.23 39.1965 1680.23 32.6746 Q1686.26 26.1121 1696.47 26.1121 Q1705.63 26.1121 1710.93 32.0264 Q1716.28 37.9003 1716.28 48.0275 M1708.83 45.84 Q1708.75 39.7232 1705.38 36.0774 Q1702.06 32.4315 1696.55 32.4315 Q1690.31 32.4315 1686.55 35.9558 Q1682.82 39.4801 1682.25 45.8805 L1708.83 45.84 Z" fill="#000000" fill-rule="evenodd" fill-opacity="1" /><path clip-path="url(#clip2200)" d="M 0 0 M1724.1 9.54393 L1731.55 9.54393 L1731.55 72.576 L1724.1 72.576 L1724.1 9.54393 Z" fill="#000000" fill-rule="evenodd" fill-opacity="1" /><path clip-path="url(#clip2200)" d="M 0 0 M1756.95 32.4315 Q1750.96 32.4315 1747.47 37.1306 Q1743.99 41.7891 1743.99 49.9314 Q1743.99 58.0738 1747.43 62.7728 Q1750.92 67.4314 1756.95 67.4314 Q1762.91 67.4314 1766.39 62.7323 Q1769.87 58.0333 1769.87 49.9314 Q1769.87 41.8701 1766.39 37.1711 Q1762.91 32.4315 1756.95 32.4315 M1756.95 26.1121 Q1766.67 26.1121 1772.22 32.4315 Q1777.77 38.7509 1777.77 49.9314 Q1777.77 61.0714 1772.22 67.4314 Q1766.67 73.7508 1756.95 73.7508 Q1747.19 73.7508 1741.64 67.4314 Q1736.13 61.0714 1736.13 49.9314 Q1736.13 38.7509 1741.64 32.4315 Q1747.19 26.1121 1756.95 26.1121 Z" fill="#000000" fill-rule="evenodd" fill-opacity="1" /><path clip-path="url(#clip2200)" d="M 0 0 M1818.24 28.9478 L1818.24 35.9153 Q1815.08 34.1734 1811.88 33.3227 Q1808.72 32.4315 1805.48 32.4315 Q1798.23 32.4315 1794.22 37.0496 Q1790.21 41.6271 1790.21 49.9314 Q1790.21 58.2358 1794.22 62.8538 Q1798.23 67.4314 1805.48 67.4314 Q1808.72 67.4314 1811.88 66.5807 Q1815.08 65.6895 1818.24 63.9476 L1818.24 70.8341 Q1815.12 72.2924 1811.76 73.0216 Q1808.44 73.7508 1804.67 73.7508 Q1794.42 73.7508 1788.39 67.3098 Q1782.35 60.8689 1782.35 49.9314 Q1782.35 38.832 1788.43 32.472 Q1794.54 26.1121 1805.16 26.1121 Q1808.6 26.1121 1811.88 26.8413 Q1815.16 27.5299 1818.24 28.9478 Z" fill="#000000" fill-rule="evenodd" fill-opacity="1" /><path clip-path="url(#clip2200)" d="M 0 0 M1826.06 27.2059 L1833.51 27.2059 L1833.51 72.576 L1826.06 72.576 L1826.06 27.2059 M1826.06 9.54393 L1833.51 9.54393 L1833.51 18.9825 L1826.06 18.9825 L1826.06 9.54393 Z" fill="#000000" fill-rule="evenodd" fill-opacity="1" /><path clip-path="url(#clip2200)" d="M 0 0 M1848.7 14.324 L1848.7 27.2059 L1864.06 27.2059 L1864.06 32.9987 L1848.7 32.9987 L1848.7 57.6282 Q1848.7 63.1779 1850.2 64.7578 Q1851.74 66.3376 1856.4 66.3376 L1864.06 66.3376 L1864.06 72.576 L1856.4 72.576 Q1847.77 72.576 1844.49 69.3758 Q1841.21 66.1351 1841.21 57.6282 L1841.21 32.9987 L1835.74 32.9987 L1835.74 27.2059 L1841.21 27.2059 L1841.21 14.324 L1848.7 14.324 Z" fill="#000000" fill-rule="evenodd" fill-opacity="1" /><path clip-path="url(#clip2200)" d="M 0 0 M1890.75 76.7889 Q1887.59 84.8907 1884.6 87.3618 Q1881.6 89.8329 1876.57 89.8329 L1870.62 89.8329 L1870.62 83.5945 L1874.99 83.5945 Q1878.07 83.5945 1879.77 82.1361 Q1881.48 80.6778 1883.54 75.2496 L1884.88 71.8468 L1866.53 27.2059 L1874.43 27.2059 L1888.61 62.6918 L1902.78 27.2059 L1910.68 27.2059 L1890.75 76.7889 Z" fill="#000000" fill-rule="evenodd" fill-opacity="1" /><path clip-path="url(#clip2200)" d="M 0 0 M1320.47 2298.26 L1360.67 2298.26 L1360.67 2303.67 L1343.8 2303.67 L1343.8 2345.78 L1337.34 2345.78 L1337.34 2303.67 L1320.47 2303.67 L1320.47 2298.26 Z" fill="#000000" fill-rule="evenodd" fill-opacity="1" /><path clip-path="url(#clip2200)" d="M 0 0 M1364.8 2310.14 L1370.66 2310.14 L1370.66 2345.78 L1364.8 2345.78 L1364.8 2310.14 M1364.8 2296.26 L1370.66 2296.26 L1370.66 2303.67 L1364.8 2303.67 L1364.8 2296.26 Z" fill="#000000" fill-rule="evenodd" fill-opacity="1" /><path clip-path="url(#clip2200)" d="M 0 0 M1404.56 2316.98 Q1406.75 2313.03 1409.81 2311.15 Q1412.87 2309.28 1417 2309.28 Q1422.57 2309.28 1425.6 2313.19 Q1428.62 2317.07 1428.62 2324.27 L1428.62 2345.78 L1422.73 2345.78 L1422.73 2324.46 Q1422.73 2319.33 1420.92 2316.85 Q1419.1 2314.37 1415.38 2314.37 Q1410.83 2314.37 1408.19 2317.39 Q1405.55 2320.42 1405.55 2325.64 L1405.55 2345.78 L1399.66 2345.78 L1399.66 2324.46 Q1399.66 2319.3 1397.84 2316.85 Q1396.03 2314.37 1392.24 2314.37 Q1387.75 2314.37 1385.11 2317.42 Q1382.47 2320.45 1382.47 2325.64 L1382.47 2345.78 L1376.58 2345.78 L1376.58 2310.14 L1382.47 2310.14 L1382.47 2315.67 Q1384.47 2312.4 1387.28 2310.84 Q1390.08 2309.28 1393.93 2309.28 Q1397.81 2309.28 1400.52 2311.25 Q1403.25 2313.22 1404.56 2316.98 Z" fill="#000000" fill-rule="evenodd" fill-opacity="1" /><path clip-path="url(#clip2200)" d="M 0 0 M1465.26 2326.5 L1465.26 2329.36 L1438.33 2329.36 Q1438.71 2335.41 1441.96 2338.59 Q1445.24 2341.74 1451.06 2341.74 Q1454.43 2341.74 1457.58 2340.91 Q1460.77 2340.09 1463.89 2338.43 L1463.89 2343.97 Q1460.74 2345.31 1457.43 2346.01 Q1454.12 2346.71 1450.71 2346.71 Q1442.18 2346.71 1437.18 2341.74 Q1432.22 2336.78 1432.22 2328.31 Q1432.22 2319.56 1436.93 2314.43 Q1441.67 2309.28 1449.69 2309.28 Q1456.88 2309.28 1461.05 2313.92 Q1465.26 2318.54 1465.26 2326.5 M1459.4 2324.78 Q1459.34 2319.97 1456.69 2317.11 Q1454.08 2314.24 1449.76 2314.24 Q1444.85 2314.24 1441.89 2317.01 Q1438.97 2319.78 1438.52 2324.81 L1459.4 2324.78 Z" fill="#000000" fill-rule="evenodd" fill-opacity="1" /><path clip-path="url(#clip2200)" d="M 0 0 M1506.19 2296.32 Q1501.92 2303.64 1499.85 2310.8 Q1497.78 2317.97 1497.78 2325.32 Q1497.78 2332.67 1499.85 2339.9 Q1501.95 2347.09 1506.19 2354.38 L1501.09 2354.38 Q1496.32 2346.9 1493.93 2339.67 Q1491.58 2332.45 1491.58 2325.32 Q1491.58 2318.22 1493.93 2311.03 Q1496.29 2303.83 1501.09 2296.32 L1506.19 2296.32 Z" fill="#000000" fill-rule="evenodd" fill-opacity="1" /><path clip-path="url(#clip2200)" d="M 0 0 M1535.06 2311.19 L1535.06 2316.72 Q1532.57 2315.45 1529.9 2314.81 Q1527.23 2314.18 1524.36 2314.18 Q1520 2314.18 1517.8 2315.51 Q1515.64 2316.85 1515.64 2319.53 Q1515.64 2321.56 1517.2 2322.74 Q1518.76 2323.89 1523.47 2324.94 L1525.48 2325.38 Q1531.71 2326.72 1534.32 2329.17 Q1536.97 2331.59 1536.97 2335.95 Q1536.97 2340.91 1533.02 2343.81 Q1529.1 2346.71 1522.23 2346.71 Q1519.36 2346.71 1516.24 2346.13 Q1513.16 2345.59 1509.72 2344.48 L1509.72 2338.43 Q1512.97 2340.12 1516.12 2340.98 Q1519.27 2341.81 1522.36 2341.81 Q1526.49 2341.81 1528.72 2340.4 Q1530.95 2338.97 1530.95 2336.39 Q1530.95 2334.01 1529.33 2332.73 Q1527.73 2331.46 1522.29 2330.28 L1520.26 2329.81 Q1514.81 2328.66 1512.39 2326.3 Q1509.97 2323.92 1509.97 2319.78 Q1509.97 2314.75 1513.54 2312.01 Q1517.1 2309.28 1523.66 2309.28 Q1526.91 2309.28 1529.77 2309.75 Q1532.64 2310.23 1535.06 2311.19 Z" fill="#000000" fill-rule="evenodd" fill-opacity="1" /><path clip-path="url(#clip2200)" d="M 0 0 M1542.19 2296.32 L1547.28 2296.32 Q1552.05 2303.83 1554.41 2311.03 Q1556.79 2318.22 1556.79 2325.32 Q1556.79 2332.45 1554.41 2339.67 Q1552.05 2346.9 1547.28 2354.38 L1542.19 2354.38 Q1546.42 2347.09 1548.49 2339.9 Q1550.59 2332.67 1550.59 2325.32 Q1550.59 2317.97 1548.49 2310.8 Q1546.42 2303.64 1542.19 2296.32 Z" fill="#000000" fill-rule="evenodd" fill-opacity="1" /><path clip-path="url(#clip2200)" d="M 0 0 M38.4242 1267.03 L38.4242 1260.12 L57.9669 1246.94 L38.4242 1233.86 L38.4242 1226.95 L63.3141 1243.76 L85.9442 1243.76 L85.9442 1250.22 L63.3141 1250.22 L38.4242 1267.03 Z" fill="#000000" fill-rule="evenodd" fill-opacity="1" /><path clip-path="url(#clip2200)" d="M 0 0 M36.419 1246.24 L36.419 1240.39 L43.835 1240.39 L43.835 1246.24 L36.419 1246.24 M49.4368 1243.25 L49.4368 1243.25 Z" fill="#000000" fill-rule="evenodd" fill-opacity="1" /><path clip-path="url(#clip2200)" d="M 0 0 M36.4826 1199.45 Q43.8032 1203.72 50.9646 1205.79 Q58.126 1207.86 65.4784 1207.86 Q72.8308 1207.86 80.0559 1205.79 Q87.2491 1203.69 94.5379 1199.45 L94.5379 1204.55 Q87.0582 1209.32 79.8331 1211.71 Q72.608 1214.06 65.4784 1214.06 Q58.3806 1214.06 51.1874 1211.71 Q43.9942 1209.35 36.4826 1204.55 L36.4826 1199.45 Z" fill="#000000" fill-rule="evenodd" fill-opacity="1" /><path clip-path="url(#clip2200)" d="M 0 0 M57.1393 1165.56 Q53.1926 1163.36 51.3147 1160.31 Q49.4368 1157.25 49.4368 1153.11 Q49.4368 1147.54 53.3517 1144.52 Q57.2348 1141.49 64.4281 1141.49 L85.9442 1141.49 L85.9442 1147.38 L64.619 1147.38 Q59.4946 1147.38 57.012 1149.2 Q54.5294 1151.01 54.5294 1154.74 Q54.5294 1159.29 57.5531 1161.93 Q60.5768 1164.57 65.7967 1164.57 L85.9442 1164.57 L85.9442 1170.46 L64.619 1170.46 Q59.4628 1170.46 57.012 1172.27 Q54.5294 1174.09 54.5294 1177.87 Q54.5294 1182.36 57.5849 1185 Q60.6086 1187.65 65.7967 1187.65 L85.9442 1187.65 L85.9442 1193.53 L50.2962 1193.53 L50.2962 1187.65 L55.8344 1187.65 Q52.556 1185.64 50.9964 1182.84 Q49.4368 1180.04 49.4368 1176.19 Q49.4368 1172.3 51.4102 1169.6 Q53.3836 1166.86 57.1393 1165.56 Z" fill="#000000" fill-rule="evenodd" fill-opacity="1" /><path clip-path="url(#clip2200)" d="M 0 0 M38.4242 1124.94 L38.4242 1119.53 L91.9916 1136.08 L91.9916 1141.49 L38.4242 1124.94 Z" fill="#000000" fill-rule="evenodd" fill-opacity="1" /><path clip-path="url(#clip2200)" d="M 0 0 M51.3465 1090.66 L56.8847 1090.66 Q55.6116 1093.15 54.975 1095.82 Q54.3384 1098.49 54.3384 1101.36 Q54.3384 1105.72 55.6752 1107.92 Q57.012 1110.08 59.6856 1110.08 Q61.7226 1110.08 62.9003 1108.52 Q64.0461 1106.96 65.0965 1102.25 L65.5421 1100.24 Q66.8789 1094.01 69.3297 1091.4 Q71.7486 1088.75 76.1091 1088.75 Q81.0744 1088.75 83.9708 1092.7 Q86.8672 1096.62 86.8672 1103.49 Q86.8672 1106.36 86.2943 1109.48 Q85.7532 1112.56 84.6392 1116 L78.5918 1116 Q80.2787 1112.75 81.138 1109.6 Q81.9656 1106.45 81.9656 1103.36 Q81.9656 1099.23 80.5651 1097 Q79.1329 1094.77 76.5547 1094.77 Q74.1676 1094.77 72.8945 1096.39 Q71.6213 1097.99 70.4437 1103.43 L69.9662 1105.46 Q68.8204 1110.91 66.4651 1113.33 Q64.078 1115.75 59.9402 1115.75 Q54.9113 1115.75 52.1741 1112.18 Q49.4368 1108.62 49.4368 1102.06 Q49.4368 1098.81 49.9143 1095.95 Q50.3917 1093.08 51.3465 1090.66 Z" fill="#000000" fill-rule="evenodd" fill-opacity="1" /><path clip-path="url(#clip2200)" d="M 0 0 M36.4826 1083.53 L36.4826 1078.44 Q43.9942 1073.67 51.1874 1071.31 Q58.3806 1068.93 65.4784 1068.93 Q72.608 1068.93 79.8331 1071.31 Q87.0582 1073.67 94.5379 1078.44 L94.5379 1083.53 Q87.2491 1079.3 80.0559 1077.23 Q72.8308 1075.13 65.4784 1075.13 Q58.126 1075.13 50.9646 1077.23 Q43.8032 1079.3 36.4826 1083.53 Z" fill="#000000" fill-rule="evenodd" fill-opacity="1" /><polyline clip-path="url(#clip2202)" style="stroke:#009af9; stroke-width:16; stroke-opacity:1; fill:none" points="
  308.621,1194.7 331.221,1187.9 353.821,1185.02 376.421,1177.9 399.022,1171.42 421.622,1168.59 444.222,1170.28 466.822,1177.26 489.422,1188.45 512.023,1203.85 
  534.623,1221.28 557.223,1239.85 579.823,1257.89 602.423,1274.99 625.024,1290.13 647.624,1303.29 670.224,1313.86 692.824,1322.09 715.424,1327.63 738.025,1330.86 
  760.625,1331.6 783.225,1330.22 805.825,1326.79 828.425,1321.5 851.026,1314.77 873.626,1306.42 896.226,1297.41 918.826,1286.87 941.426,1276.67 964.027,1264.84 
  986.627,1254.5 1009.23,1242.29 1031.83,1233.21 1054.43,1225.55 1077.03,1215.16 1099.63,1205.05 1122.23,1198.01 1144.83,1190.11 1167.43,1184.25 1190.03,1178.23 
  1212.63,1173.67 1235.23,1169.4 1257.83,1166.22 1280.43,1163.55 1303.03,1161.73 1325.63,1160.5 1348.23,1159.96 1370.83,1159.99 1393.43,1160.57 1416.03,1161.66 
  1438.63,1163.19 1461.23,1165.11 1483.83,1167.35 1506.43,1169.88 1529.03,1172.6 1551.63,1175.48 1574.23,1178.45 1596.83,1181.46 1619.43,1184.44 1642.03,1187.37 
  1664.63,1190.17 1687.23,1192.83 1709.83,1195.29 1732.43,1197.53 1755.03,1199.53 1777.63,1201.25 1800.23,1202.71 1822.83,1203.87 1845.43,1204.75 1868.03,1205.34 
  1890.64,1205.65 1913.24,1205.7 1935.84,1205.51 1958.44,1205.09 1981.04,1204.48 2003.64,1203.69 2026.24,1202.76 2048.84,1201.71 2071.44,1200.58 2094.04,1199.41 
  2116.64,1198.2 2139.24,1197.02 2161.84,1195.85 2184.44,1194.77 2207.04,1193.74 2229.64,1192.85 2252.24,1192.05 2274.84,1191.41 2297.44,1190.88 2320.04,1190.54 
  2342.64,1190.31 2365.24,1190.27 2387.84,1190.33 2410.44,1190.58 2433.04,1190.9 2455.64,1191.37 2478.24,1191.89 2500.84,1192.52 2523.44,1193.16 2546.04,1193.85 
  2568.64,1194.49 
  "/>
<polyline clip-path="url(#clip2202)" style="stroke:#e26f46; stroke-width:16; stroke-opacity:1; fill:none" points="
  308.621,1194.7 331.221,1246.25 353.821,1275.87 376.421,1298.44 399.022,1314.62 421.622,1325.51 444.222,1333.19 466.822,1339.15 489.422,1344.21 512.023,1349 
  534.623,1354.46 557.223,1360.93 579.823,1368.34 602.423,1376.16 625.024,1384.09 647.624,1391.34 670.224,1397.74 692.824,1402.56 715.424,1405.93 738.025,1407.29 
  760.625,1406.92 783.225,1404.47 805.825,1400.23 828.425,1394.14 851.026,1386.3 873.626,1377.12 896.226,1366.28 918.826,1354.88 941.426,1341.89 964.027,1329.33 
  986.627,1315.27 1009.23,1302.84 1031.83,1289.58 1054.43,1283.51 1077.03,1268.15 1099.63,1258.13 1122.23,1247.8 1144.83,1239.63 1167.43,1231.38 1190.03,1224.77 
  1212.63,1218.42 1235.23,1213.35 1257.83,1208.71 1280.43,1205.09 1303.03,1201.98 1325.63,1199.69 1348.23,1197.93 1370.83,1196.82 1393.43,1196.2 1416.03,1196.09 
  1438.63,1196.39 1461.23,1197.08 1483.83,1198.1 1506.43,1199.37 1529.03,1200.88 1551.63,1202.53 1574.23,1204.3 1596.83,1206.13 1619.43,1207.97 1642.03,1209.77 
  1664.63,1211.51 1687.23,1213.12 1709.83,1214.59 1732.43,1215.88 1755.03,1216.97 1777.63,1217.84 1800.23,1218.49 1822.83,1218.88 1845.43,1219.04 1868.03,1218.95 
  1890.64,1218.63 1913.24,1218.08 1935.84,1217.32 1958.44,1216.37 1981.04,1215.26 2003.64,1214 2026.24,1212.62 2048.84,1211.16 2071.44,1209.63 2094.04,1208.07 
  2116.64,1206.51 2139.24,1204.97 2161.84,1203.47 2184.44,1202.04 2207.04,1200.7 2229.64,1199.46 2252.24,1198.35 2274.84,1197.36 2297.44,1196.5 2320.04,1195.79 
  2342.64,1195.21 2365.24,1194.77 2387.84,1194.45 2410.44,1194.23 2433.04,1194.13 2455.64,1194.1 2478.24,1194.15 2500.84,1194.23 2523.44,1194.37 2546.04,1194.47 
  2568.64,1194.6 
  "/>
<polyline clip-path="url(#clip2202)" style="stroke:#3da44d; stroke-width:16; stroke-opacity:1; fill:none" points="
  308.621,1194.7 331.221,1230.35 353.821,1283.88 376.421,1352.11 399.022,1420.5 421.622,1491.93 444.222,1556.23 466.822,1614.34 489.422,1664.9 512.023,1709.29 
  534.623,1746.82 557.223,1777.36 579.823,1800.75 602.423,1817.04 625.024,1826.59 647.624,1829.71 670.224,1826.99 692.824,1818.93 715.424,1806.14 738.025,1789.2 
  760.625,1768.69 783.225,1745.08 805.825,1719.07 828.425,1690.68 851.026,1661.15 873.626,1629.57 896.226,1598.37 918.826,1565.02 941.426,1533.96 964.027,1500.27 
  986.627,1471.26 1009.23,1439.13 1031.83,1415.25 1054.43,1396.71 1077.03,1369.74 1099.63,1345.44 1122.23,1328.1 1144.83,1310.11 1167.43,1296.4 1190.03,1283.02 
  1212.63,1272.48 1235.23,1262.75 1257.83,1254.97 1280.43,1248.12 1303.03,1242.67 1325.63,1238.1 1348.23,1234.57 1370.83,1231.81 1393.43,1229.82 1416.03,1228.44 
  1438.63,1227.63 1461.23,1227.29 1483.83,1227.33 1506.43,1227.7 1529.03,1228.32 1551.63,1229.11 1574.23,1230.03 1596.83,1231.02 1619.43,1232.01 1642.03,1232.97 
  1664.63,1233.85 1687.23,1234.62 1709.83,1235.23 1732.43,1235.67 1755.03,1235.92 1777.63,1235.95 1800.23,1235.77 1822.83,1235.35 1845.43,1234.72 1868.03,1233.86 
  1890.64,1232.8 1913.24,1231.53 1935.84,1230.09 1958.44,1228.49 1981.04,1226.77 2003.64,1224.92 2026.24,1223 2048.84,1221.01 2071.44,1219 2094.04,1216.98 
  2116.64,1214.98 2139.24,1213.03 2161.84,1211.14 2184.44,1209.34 2207.04,1207.64 2229.64,1206.05 2252.24,1204.58 2274.84,1203.24 2297.44,1202.04 2320.04,1200.96 
  2342.64,1200.02 2365.24,1199.17 2387.84,1198.46 2410.44,1197.82 2433.04,1197.28 2455.64,1196.77 2478.24,1196.35 2500.84,1195.91 2523.44,1195.53 2546.04,1195.08 
  2568.64,1194.7 
  "/>
<polyline clip-path="url(#clip2202)" style="stroke:#c271d2; stroke-width:16; stroke-opacity:1; fill:none" points="
  308.621,1194.7 331.221,1179.38 353.821,1119.76 376.421,1062.46 399.022,1026.82 421.622,1008.72 444.222,1011.42 466.822,1031.57 489.422,1067.24 512.023,1115.05 
  534.623,1172.3 557.223,1236.36 579.823,1304.98 602.423,1375.99 625.024,1447.59 647.624,1517.82 670.224,1585.63 692.824,1648.76 715.424,1707.07 738.025,1758.01 
  760.625,1802.44 783.225,1838.03 805.825,1865.85 828.425,1885.02 851.026,1895.08 873.626,1898.8 896.226,1891.37 918.826,1882.47 941.426,1859.3 964.027,1842.22 
  986.627,1807.02 1009.23,1787.3 1031.83,1748.71 1054.43,1742.66 1077.03,1703.83 1099.63,1689.97 1122.23,1665.72 1144.83,1652.28 1167.43,1633.27 1190.03,1620.08 
  1212.63,1604.15 1235.23,1591.43 1257.83,1577.4 1280.43,1565.22 1303.03,1552.44 1325.63,1540.83 1348.23,1529 1370.83,1517.98 1393.43,1506.97 1416.03,1496.57 
  1438.63,1486.32 1461.23,1476.56 1483.83,1467.02 1506.43,1457.91 1529.03,1449.04 1551.63,1440.54 1574.23,1432.29 1596.83,1424.35 1619.43,1416.65 1642.03,1409.21 
  1664.63,1401.97 1687.23,1394.95 1709.83,1388.1 1732.43,1381.43 1755.03,1374.89 1777.63,1368.5 1800.23,1362.23 1822.83,1356.08 1845.43,1350.03 1868.03,1344.08 
  1890.64,1338.23 1913.24,1332.49 1935.84,1326.85 1958.44,1321.31 1981.04,1315.89 2003.64,1310.58 2026.24,1305.4 2048.84,1300.35 2071.44,1295.43 2094.04,1290.65 
  2116.64,1286 2139.24,1281.49 2161.84,1277.1 2184.44,1272.84 2207.04,1268.67 2229.64,1264.61 2252.24,1260.58 2274.84,1256.63 2297.44,1252.65 2320.04,1248.71 
  2342.64,1244.63 2365.24,1240.56 2387.84,1236.25 2410.44,1231.93 2433.04,1227.24 2455.64,1222.58 2478.24,1217.42 2500.84,1212.38 2523.44,1206.74 2546.04,1201.42 
  2568.64,1195.7 
  "/>
<polyline clip-path="url(#clip2202)" style="stroke:#ac8d18; stroke-width:16; stroke-opacity:1; fill:none" points="
  308.621,1194.7 331.221,1189.68 353.821,1195.1 376.421,1205.09 399.022,1214.01 421.622,1223.64 444.222,1233.54 466.822,1244.87 489.422,1257.04 512.023,1270.54 
  534.623,1283.92 557.223,1297.11 579.823,1308.93 602.423,1319.37 625.024,1327.71 647.624,1334.03 670.224,1337.96 692.824,1339.76 715.424,1339.31 738.025,1337.03 
  760.625,1332.83 783.225,1327.17 805.825,1320.05 828.425,1311.81 851.026,1302.63 873.626,1292.59 896.226,1282.24 918.826,1271.13 941.426,1260.45 964.027,1248.9 
  986.627,1238.68 1009.23,1227.31 1031.83,1218.48 1054.43,1210.04 1077.03,1200.7 1099.63,1191.17 1122.23,1184.24 1144.83,1176.74 1167.43,1171.06 1190.03,1165.37 
  1212.63,1161.02 1235.23,1157.02 1257.83,1154.05 1280.43,1151.61 1303.03,1149.98 1325.63,1148.96 1348.23,1148.61 1370.83,1148.84 1393.43,1149.61 1416.03,1150.89 
  1438.63,1152.6 1461.23,1154.71 1483.83,1157.14 1506.43,1159.86 1529.03,1162.78 1551.63,1165.87 1574.23,1169.04 1596.83,1172.26 1619.43,1175.45 1642.03,1178.59 
  1664.63,1181.61 1687.23,1184.48 1709.83,1187.16 1732.43,1189.61 1755.03,1191.82 1777.63,1193.76 1800.23,1195.42 1822.83,1196.77 1845.43,1197.84 1868.03,1198.61 
  1890.64,1199.11 1913.24,1199.32 1935.84,1199.29 1958.44,1199.02 1981.04,1198.55 2003.64,1197.89 2026.24,1197.08 2048.84,1196.15 2071.44,1195.14 2094.04,1194.06 
  2116.64,1192.97 2139.24,1191.88 2161.84,1190.82 2184.44,1189.83 2207.04,1188.94 2229.64,1188.15 2252.24,1187.5 2274.84,1186.99 2297.44,1186.66 2320.04,1186.48 
  2342.64,1186.49 2365.24,1186.66 2387.84,1187.03 2410.44,1187.53 2433.04,1188.24 2455.64,1189.01 2478.24,1190 2500.84,1190.97 2523.44,1192.15 2546.04,1193.2 
  2568.64,1194.4 
  "/>
<polyline clip-path="url(#clip2202)" style="stroke:#00a9ad; stroke-width:16; stroke-opacity:1; fill:none" points="
  308.621,1194.7 331.221,1179.57 353.821,1181.58 376.421,1197.77 399.022,1219.79 421.622,1246.56 444.222,1274.63 466.822,1303.31 489.422,1330.78 512.023,1356.04 
  534.623,1377.62 557.223,1395.04 579.823,1408.04 602.423,1416.79 625.024,1421.74 647.624,1423.27 670.224,1422.08 692.824,1418.47 715.424,1413.09 738.025,1406.05 
  760.625,1397.86 783.225,1388.48 805.825,1378.36 828.425,1367.32 851.026,1355.84 873.626,1343.67 896.226,1331.33 918.826,1318.54 941.426,1305.93 964.027,1293.1 
  986.627,1280.9 1009.23,1268.76 1031.83,1258.05 1054.43,1249.04 1077.03,1238.13 1099.63,1228.54 1122.23,1220.41 1144.83,1213.03 1167.43,1206.7 1190.03,1201.15 
  1212.63,1196.47 1235.23,1192.54 1257.83,1189.36 1280.43,1186.87 1303.03,1185.03 1325.63,1183.81 1348.23,1183.14 1370.83,1182.99 1393.43,1183.31 1416.03,1184.04 
  1438.63,1185.14 1461.23,1186.56 1483.83,1188.25 1506.43,1190.14 1529.03,1192.2 1551.63,1194.37 1574.23,1196.61 1596.83,1198.85 1619.43,1201.07 1642.03,1203.22 
  1664.63,1205.26 1687.23,1207.16 1709.83,1208.88 1732.43,1210.4 1755.03,1211.71 1777.63,1212.77 1800.23,1213.59 1822.83,1214.16 1845.43,1214.48 1868.03,1214.54 
  1890.64,1214.36 1913.24,1213.95 1935.84,1213.33 1958.44,1212.51 1981.04,1211.53 2003.64,1210.39 2026.24,1209.14 2048.84,1207.8 2071.44,1206.39 2094.04,1204.96 
  2116.64,1203.51 2139.24,1202.08 2161.84,1200.7 2184.44,1199.39 2207.04,1198.16 2229.64,1197.05 2252.24,1196.05 2274.84,1195.2 2297.44,1194.46 2320.04,1193.89 
  2342.64,1193.43 2365.24,1193.15 2387.84,1192.96 2410.44,1192.93 2433.04,1192.96 2455.64,1193.14 2478.24,1193.34 2500.84,1193.65 2523.44,1193.93 2546.04,1194.29 
  2568.64,1194.56 
  "/>
<polyline clip-path="url(#clip2202)" style="stroke:#ed5d92; stroke-width:16; stroke-opacity:1; fill:none" points="
  308.621,1194.7 331.221,1206.34 353.821,1205.42 376.421,1197.87 399.022,1187.57 421.622,1175.49 444.222,1162.74 466.822,1149.34 489.422,1135.78 512.023,1122.33 
  534.623,1109.39 557.223,1097.27 579.823,1086.25 602.423,1076.5 625.024,1068.16 647.624,1061.31 670.224,1055.97 692.824,1052.09 715.424,1049.63 738.025,1048.45 
  760.625,1048.52 783.225,1049.64 805.825,1051.78 828.425,1054.72 851.026,1058.43 873.626,1062.67 896.226,1067.42 918.826,1072.42 941.426,1077.62 964.027,1082.82 
  986.627,1087.82 1009.23,1092.5 1031.83,1096.42 1054.43,1099.31 1077.03,1103.03 1099.63,1105.76 1122.23,1107.67 1144.83,1109.14 1167.43,1110.16 1190.03,1111.03 
  1212.63,1111.7 1235.23,1112.45 1257.83,1113.21 1280.43,1114.2 1303.03,1115.34 1325.63,1116.78 1348.23,1118.47 1370.83,1120.49 1393.43,1122.78 1416.03,1125.4 
  1438.63,1128.27 1461.23,1131.41 1483.83,1134.76 1506.43,1138.31 1529.03,1141.99 1551.63,1145.77 1574.23,1149.61 1596.83,1153.45 1619.43,1157.26 1642.03,1160.99 
  1664.63,1164.59 1687.23,1168.04 1709.83,1171.29 1732.43,1174.31 1755.03,1177.08 1777.63,1179.58 1800.23,1181.8 1822.83,1183.72 1845.43,1185.34 1868.03,1186.66 
  1890.64,1187.68 1913.24,1188.43 1935.84,1188.92 1958.44,1189.15 1981.04,1189.17 2003.64,1188.99 2026.24,1188.64 2048.84,1188.17 2071.44,1187.58 2094.04,1186.93 
  2116.64,1186.22 2139.24,1185.53 2161.84,1184.83 2184.44,1184.22 2207.04,1183.66 2229.64,1183.23 2252.24,1182.89 2274.84,1182.73 2297.44,1182.68 2320.04,1182.86 
  2342.64,1183.15 2365.24,1183.68 2387.84,1184.31 2410.44,1185.19 2433.04,1186.15 2455.64,1187.34 2478.24,1188.57 2500.84,1189.98 2523.44,1191.4 2546.04,1192.93 
  2568.64,1194.34 
  "/>
<polyline clip-path="url(#clip2202)" style="stroke:#c68125; stroke-width:16; stroke-opacity:1; fill:none" points="
  308.621,1194.7 331.221,1268.16 353.821,1210.25 376.421,1091.89 399.022,966.576 421.622,843.52 444.222,734.855 466.822,635.288 489.422,546.681 512.023,467.491 
  534.623,398.909 557.223,340.325 579.823,291.841 602.423,253.19 625.024,223.963 647.624,204.092 670.224,192.736 692.824,189.727 715.424,193.921 738.025,205.162 
  760.625,222.232 783.225,244.931 805.825,272.211 828.425,303.637 851.026,338.622 873.626,376.172 896.226,416.501 918.826,457.62 941.426,500.898 964.027,542.896 
  986.627,586.317 1009.23,626.034 1031.83,665.153 1054.43,695.677 1077.03,727.343 1099.63,751.484 1122.23,772.344 1144.83,789.832 1167.43,804.694 1190.03,817.745 
  1212.63,828.915 1235.23,839.189 1257.83,848.336 1280.43,857.153 1303.03,865.454 1325.63,873.779 1348.23,882.015 1370.83,890.477 1393.43,899.104 1416.03,908.044 
  1438.63,917.258 1461.23,926.784 1483.83,936.581 1506.43,946.621 1529.03,956.854 1551.63,967.215 1574.23,977.646 1596.83,988.065 1619.43,998.41 1642.03,1008.6 
  1664.63,1018.57 1687.23,1028.25 1709.83,1037.59 1732.43,1046.52 1755.03,1055.02 1777.63,1063.03 1800.23,1070.53 1822.83,1077.5 1845.43,1083.93 1868.03,1089.82 
  1890.64,1095.17 1913.24,1100 1935.84,1104.33 1958.44,1108.18 1981.04,1111.59 2003.64,1114.6 2026.24,1117.24 2048.84,1119.58 2071.44,1121.64 2094.04,1123.51 
  2116.64,1125.2 2139.24,1126.8 2161.84,1128.34 2184.44,1129.9 2207.04,1131.5 2229.64,1133.24 2252.24,1135.11 2274.84,1137.22 2297.44,1139.55 2320.04,1142.19 
  2342.64,1145.14 2365.24,1148.44 2387.84,1152.12 2410.44,1156.15 2433.04,1160.62 2455.64,1165.37 2478.24,1170.6 2500.84,1175.95 2523.44,1181.8 2546.04,1187.51 
  2568.64,1193.49 
  "/>
<polyline clip-path="url(#clip2202)" style="stroke:#00a98d; stroke-width:16; stroke-opacity:1; fill:none" points="
  308.621,1194.7 331.221,1193.08 353.821,1195.41 376.421,1199.31 399.022,1206.06 421.622,1214.78 444.222,1224.33 466.822,1234.3 489.422,1243.89 512.023,1252.81 
  534.623,1260.76 557.223,1267.69 579.823,1273.62 602.423,1278.57 625.024,1282.57 647.624,1285.66 670.224,1287.85 692.824,1289.12 715.424,1289.52 738.025,1288.97 
  760.625,1287.55 783.225,1285.22 805.825,1282.07 828.425,1278.12 851.026,1273.46 873.626,1268.19 896.226,1262.33 918.826,1256.11 941.426,1249.45 964.027,1242.73 
  986.627,1235.73 1009.23,1229.01 1031.83,1222.32 1054.43,1216.48 1077.03,1210.16 1099.63,1204.69 1122.23,1199.48 1144.83,1195.04 1167.43,1190.86 1190.03,1187.43 
  1212.63,1184.32 1235.23,1181.9 1257.83,1179.87 1280.43,1178.46 1303.03,1177.45 1325.63,1177 1348.23,1176.93 1370.83,1177.35 1393.43,1178.12 1416.03,1179.28 
  1438.63,1180.73 1461.23,1182.48 1483.83,1184.45 1506.43,1186.61 1529.03,1188.9 1551.63,1191.29 1574.23,1193.73 1596.83,1196.17 1619.43,1198.56 1642.03,1200.88 
  1664.63,1203.09 1687.23,1205.14 1709.83,1207.01 1732.43,1208.69 1755.03,1210.13 1777.63,1211.34 1800.23,1212.3 1822.83,1213.01 1845.43,1213.46 1868.03,1213.66 
  1890.64,1213.61 1913.24,1213.34 1935.84,1212.85 1958.44,1212.17 1981.04,1211.31 2003.64,1210.31 2026.24,1209.18 2048.84,1207.97 2071.44,1206.67 2094.04,1205.36 
  2116.64,1204.01 2139.24,1202.71 2161.84,1201.4 2184.44,1200.21 2207.04,1199.04 2229.64,1198.03 2252.24,1197.05 2274.84,1196.28 2297.44,1195.54 2320.04,1195.03 
  2342.64,1194.52 2365.24,1194.27 2387.84,1193.99 2410.44,1193.97 2433.04,1193.85 2455.64,1194.01 2478.24,1194 2500.84,1194.28 2523.44,1194.3 2546.04,1194.62 
  2568.64,1194.59 
  "/>
<polyline clip-path="url(#clip2202)" style="stroke:#8e971d; stroke-width:16; stroke-opacity:1; fill:none" points="
  308.621,1194.7 331.221,1309.32 353.821,1500.16 376.421,1684.45 399.022,1816.35 421.622,1914.66 444.222,1984.98 466.822,2031.69 489.422,2060.46 512.023,2075.82 
  534.623,2081.23 557.223,2079.09 579.823,2071.29 602.423,2059.19 625.024,2043.79 647.624,2026.07 670.224,2006.36 692.824,1985.21 715.424,1962.28 738.025,1938.18 
  760.625,1912.02 783.225,1884.96 805.825,1855.42 828.425,1825.53 851.026,1792.71 873.626,1760.54 896.226,1724.97 918.826,1691.64 941.426,1654.48 964.027,1621.71 
  986.627,1584.96 1009.23,1555.27 1031.83,1523.17 1054.43,1506.06 1077.03,1472.89 1099.63,1451.54 1122.23,1429.95 1144.83,1413.98 1167.43,1398.36 1190.03,1386.29 
  1212.63,1374.93 1235.23,1365.87 1257.83,1357.56 1280.43,1350.76 1303.03,1344.62 1325.63,1339.48 1348.23,1334.87 1370.83,1330.94 1393.43,1327.42 1416.03,1324.35 
  1438.63,1321.58 1461.23,1319.11 1483.83,1316.84 1506.43,1314.76 1529.03,1312.79 1551.63,1310.93 1574.23,1309.11 1596.83,1307.32 1619.43,1305.52 1642.03,1303.7 
  1664.63,1301.81 1687.23,1299.86 1709.83,1297.81 1732.43,1295.66 1755.03,1293.4 1777.63,1291.03 1800.23,1288.53 1822.83,1285.92 1845.43,1283.19 1868.03,1280.35 
  1890.64,1277.41 1913.24,1274.39 1935.84,1271.3 1958.44,1268.15 1981.04,1264.96 2003.64,1261.77 2026.24,1258.56 2048.84,1255.39 2071.44,1252.23 2094.04,1249.15 
  2116.64,1246.11 2139.24,1243.18 2161.84,1240.29 2184.44,1237.55 2207.04,1234.85 2229.64,1232.31 2252.24,1229.78 2274.84,1227.41 2297.44,1225.01 2320.04,1222.78 
  2342.64,1220.43 2365.24,1218.26 2387.84,1215.88 2410.44,1213.69 2433.04,1211.18 2455.64,1208.9 2478.24,1206.18 2500.84,1203.76 2523.44,1200.78 2546.04,1198.24 
  2568.64,1195.16 
  "/>
<polyline clip-path="url(#clip2202)" style="stroke:#00a8cb; stroke-width:16; stroke-opacity:1; fill:none" points="
  308.621,1194.7 331.221,1680.69 353.821,1928.58 376.421,2085.46 399.022,2146.22 421.622,2143.19 444.222,2094.68 466.822,2007.41 489.422,1893.52 512.023,1764.4 
  534.623,1630.47 557.223,1497.9 579.823,1371.2 602.423,1252.28 625.024,1144.21 647.624,1047.58 670.224,964.804 692.824,893.787 715.424,836.418 738.025,789.141 
  760.625,754.135 783.225,727.016 805.825,710.442 828.425,699.551 851.026,697.491 873.626,699.194 896.226,708.175 918.826,719.419 941.426,736.562 964.027,754.941 
  986.627,777.965 1009.23,801.8 1031.83,829.681 1054.43,859.006 1077.03,889.342 1099.63,919.11 1122.23,949.205 1144.83,978.993 1167.43,1008.03 1190.03,1036.66 
  1212.63,1063.95 1235.23,1090.64 1257.83,1115.68 1280.43,1139.89 1303.03,1162.32 1325.63,1183.72 1348.23,1203.28 1370.83,1221.64 1393.43,1238.18 1416.03,1253.36 
  1438.63,1266.74 1461.23,1278.65 1483.83,1288.77 1506.43,1297.36 1529.03,1304.18 1551.63,1309.41 1574.23,1312.94 1596.83,1314.88 1619.43,1315.19 1642.03,1313.98 
  1664.63,1311.25 1687.23,1307.13 1709.83,1301.67 1732.43,1294.99 1755.03,1287.19 1777.63,1278.41 1800.23,1268.8 1822.83,1258.47 1845.43,1247.63 1868.03,1236.39 
  1890.64,1224.96 1913.24,1213.45 1935.84,1202.11 1958.44,1190.99 1981.04,1180.37 2003.64,1170.27 2026.24,1160.96 2048.84,1152.43 2071.44,1144.92 2094.04,1138.4 
  2116.64,1133.08 2139.24,1128.9 2161.84,1126 2184.44,1124.34 2207.04,1123.95 2229.64,1124.84 2252.24,1126.9 2274.84,1130.21 2297.44,1134.49 2320.04,1139.97 
  2342.64,1146.14 2365.24,1153.41 2387.84,1160.98 2410.44,1169.57 2433.04,1178.01 2455.64,1187.37 2478.24,1196.1 2500.84,1205.63 2523.44,1214.05 2546.04,1223.1 
  2568.64,1230.34 
  "/>
<path clip-path="url(#clip2200)" d="
M2732.44 988.312 L3184.76 988.312 L3184.76 262.552 L2732.44 262.552  Z
  " fill="#ffffff" fill-rule="evenodd" fill-opacity="1"/>
<polyline clip-path="url(#clip2200)" style="stroke:#000000; stroke-width:4; stroke-opacity:1; fill:none" points="
  2732.44,988.312 3184.76,988.312 3184.76,262.552 2732.44,262.552 2732.44,988.312 
  "/>
<polyline clip-path="url(#clip2200)" style="stroke:#009af9; stroke-width:16; stroke-opacity:1; fill:none" points="
  2764.44,323.032 2956.44,323.032 
  "/>
<path clip-path="url(#clip2200)" d="M 0 0 M2988.44 299.272 L2994.87 299.272 L2994.87 341.381 L3018.01 341.381 L3018.01 346.792 L2988.44 346.792 L2988.44 299.272 Z" fill="#000000" fill-rule="evenodd" fill-opacity="1" /><path clip-path="url(#clip2200)" d="M 0 0 M3024.15 311.144 L3030.01 311.144 L3030.01 346.792 L3024.15 346.792 L3024.15 311.144 M3024.15 297.267 L3030.01 297.267 L3030.01 304.683 L3024.15 304.683 L3024.15 297.267 Z" fill="#000000" fill-rule="evenodd" fill-opacity="1" /><path clip-path="url(#clip2200)" d="M 0 0 M3054.2 297.267 L3054.2 302.137 L3048.6 302.137 Q3045.45 302.137 3044.21 303.41 Q3043 304.683 3043 307.993 L3043 311.144 L3052.64 311.144 L3052.64 315.696 L3043 315.696 L3043 346.792 L3037.11 346.792 L3037.11 315.696 L3031.51 315.696 L3031.51 311.144 L3037.11 311.144 L3037.11 308.662 Q3037.11 302.71 3039.88 300.004 Q3042.65 297.267 3048.66 297.267 L3054.2 297.267 Z" fill="#000000" fill-rule="evenodd" fill-opacity="1" /><path clip-path="url(#clip2200)" d="M 0 0 M3064.99 301.023 L3064.99 311.144 L3077.05 311.144 L3077.05 315.696 L3064.99 315.696 L3064.99 335.047 Q3064.99 339.408 3066.17 340.649 Q3067.38 341.891 3071.04 341.891 L3077.05 341.891 L3077.05 346.792 L3071.04 346.792 Q3064.26 346.792 3061.68 344.278 Q3059.1 341.731 3059.1 335.047 L3059.1 315.696 L3054.8 315.696 L3054.8 311.144 L3059.1 311.144 L3059.1 301.023 L3064.99 301.023 Z" fill="#000000" fill-rule="evenodd" fill-opacity="1" /><path clip-path="url(#clip2200)" d="M 0 0 M3105.86 341.381 L3116.36 341.381 L3116.36 305.129 L3104.93 307.42 L3104.93 301.564 L3116.3 299.272 L3122.73 299.272 L3122.73 341.381 L3133.23 341.381 L3133.23 346.792 L3105.86 346.792 L3105.86 341.381 Z" fill="#000000" fill-rule="evenodd" fill-opacity="1" /><polyline clip-path="url(#clip2200)" style="stroke:#e26f46; stroke-width:16; stroke-opacity:1; fill:none" points="
  2764.44,383.512 2956.44,383.512 
  "/>
<path clip-path="url(#clip2200)" d="M 0 0 M2988.44 359.752 L2994.87 359.752 L2994.87 401.861 L3018.01 401.861 L3018.01 407.272 L2988.44 407.272 L2988.44 359.752 Z" fill="#000000" fill-rule="evenodd" fill-opacity="1" /><path clip-path="url(#clip2200)" d="M 0 0 M3024.15 371.624 L3030.01 371.624 L3030.01 407.272 L3024.15 407.272 L3024.15 371.624 M3024.15 357.747 L3030.01 357.747 L3030.01 365.163 L3024.15 365.163 L3024.15 357.747 Z" fill="#000000" fill-rule="evenodd" fill-opacity="1" /><path clip-path="url(#clip2200)" d="M 0 0 M3054.2 357.747 L3054.2 362.617 L3048.6 362.617 Q3045.45 362.617 3044.21 363.89 Q3043 365.163 3043 368.473 L3043 371.624 L3052.64 371.624 L3052.64 376.176 L3043 376.176 L3043 407.272 L3037.11 407.272 L3037.11 376.176 L3031.51 376.176 L3031.51 371.624 L3037.11 371.624 L3037.11 369.142 Q3037.11 363.19 3039.88 360.484 Q3042.65 357.747 3048.66 357.747 L3054.2 357.747 Z" fill="#000000" fill-rule="evenodd" fill-opacity="1" /><path clip-path="url(#clip2200)" d="M 0 0 M3064.99 361.503 L3064.99 371.624 L3077.05 371.624 L3077.05 376.176 L3064.99 376.176 L3064.99 395.527 Q3064.99 399.888 3066.17 401.129 Q3067.38 402.371 3071.04 402.371 L3077.05 402.371 L3077.05 407.272 L3071.04 407.272 Q3064.26 407.272 3061.68 404.758 Q3059.1 402.211 3059.1 395.527 L3059.1 376.176 L3054.8 376.176 L3054.8 371.624 L3059.1 371.624 L3059.1 361.503 L3064.99 361.503 Z" fill="#000000" fill-rule="evenodd" fill-opacity="1" /><path clip-path="url(#clip2200)" d="M 0 0 M3110.28 401.861 L3132.72 401.861 L3132.72 407.272 L3102.55 407.272 L3102.55 401.861 Q3106.21 398.074 3112.51 391.708 Q3118.84 385.31 3120.47 383.464 Q3123.55 379.995 3124.76 377.608 Q3126 375.189 3126 372.865 Q3126 369.078 3123.33 366.691 Q3120.69 364.304 3116.42 364.304 Q3113.4 364.304 3110.03 365.354 Q3106.68 366.404 3102.87 368.537 L3102.87 362.044 Q3106.75 360.484 3110.12 359.688 Q3113.5 358.893 3116.3 358.893 Q3123.68 358.893 3128.07 362.585 Q3132.47 366.277 3132.47 372.452 Q3132.47 375.38 3131.35 378.022 Q3130.27 380.632 3127.37 384.196 Q3126.58 385.119 3122.31 389.544 Q3118.05 393.936 3110.28 401.861 Z" fill="#000000" fill-rule="evenodd" fill-opacity="1" /><polyline clip-path="url(#clip2200)" style="stroke:#3da44d; stroke-width:16; stroke-opacity:1; fill:none" points="
  2764.44,443.992 2956.44,443.992 
  "/>
<path clip-path="url(#clip2200)" d="M 0 0 M2988.44 420.232 L2994.87 420.232 L2994.87 462.341 L3018.01 462.341 L3018.01 467.752 L2988.44 467.752 L2988.44 420.232 Z" fill="#000000" fill-rule="evenodd" fill-opacity="1" /><path clip-path="url(#clip2200)" d="M 0 0 M3024.15 432.104 L3030.01 432.104 L3030.01 467.752 L3024.15 467.752 L3024.15 432.104 M3024.15 418.227 L3030.01 418.227 L3030.01 425.643 L3024.15 425.643 L3024.15 418.227 Z" fill="#000000" fill-rule="evenodd" fill-opacity="1" /><path clip-path="url(#clip2200)" d="M 0 0 M3054.2 418.227 L3054.2 423.097 L3048.6 423.097 Q3045.45 423.097 3044.21 424.37 Q3043 425.643 3043 428.953 L3043 432.104 L3052.64 432.104 L3052.64 436.656 L3043 436.656 L3043 467.752 L3037.11 467.752 L3037.11 436.656 L3031.51 436.656 L3031.51 432.104 L3037.11 432.104 L3037.11 429.622 Q3037.11 423.67 3039.88 420.964 Q3042.65 418.227 3048.66 418.227 L3054.2 418.227 Z" fill="#000000" fill-rule="evenodd" fill-opacity="1" /><path clip-path="url(#clip2200)" d="M 0 0 M3064.99 421.983 L3064.99 432.104 L3077.05 432.104 L3077.05 436.656 L3064.99 436.656 L3064.99 456.007 Q3064.99 460.368 3066.17 461.609 Q3067.38 462.851 3071.04 462.851 L3077.05 462.851 L3077.05 467.752 L3071.04 467.752 Q3064.26 467.752 3061.68 465.238 Q3059.1 462.691 3059.1 456.007 L3059.1 436.656 L3054.8 436.656 L3054.8 432.104 L3059.1 432.104 L3059.1 421.983 L3064.99 421.983 Z" fill="#000000" fill-rule="evenodd" fill-opacity="1" /><path clip-path="url(#clip2200)" d="M 0 0 M3124.22 442.13 Q3128.84 443.117 3131.42 446.236 Q3134.03 449.355 3134.03 453.939 Q3134.03 460.973 3129.19 464.824 Q3124.35 468.675 3115.44 468.675 Q3112.45 468.675 3109.26 468.07 Q3106.11 467.497 3102.74 466.32 L3102.74 460.113 Q3105.41 461.673 3108.59 462.469 Q3111.78 463.264 3115.25 463.264 Q3121.29 463.264 3124.45 460.877 Q3127.63 458.49 3127.63 453.939 Q3127.63 449.737 3124.67 447.382 Q3121.74 444.995 3116.49 444.995 L3110.95 444.995 L3110.95 439.711 L3116.74 439.711 Q3121.49 439.711 3124 437.833 Q3126.51 435.924 3126.51 432.359 Q3126.51 428.699 3123.9 426.757 Q3121.33 424.784 3116.49 424.784 Q3113.85 424.784 3110.82 425.357 Q3107.8 425.929 3104.17 427.139 L3104.17 421.41 Q3107.83 420.391 3111.01 419.882 Q3114.23 419.373 3117.06 419.373 Q3124.38 419.373 3128.65 422.715 Q3132.91 426.025 3132.91 431.69 Q3132.91 435.637 3130.65 438.374 Q3128.39 441.08 3124.22 442.13 Z" fill="#000000" fill-rule="evenodd" fill-opacity="1" /><polyline clip-path="url(#clip2200)" style="stroke:#c271d2; stroke-width:16; stroke-opacity:1; fill:none" points="
  2764.44,504.472 2956.44,504.472 
  "/>
<path clip-path="url(#clip2200)" d="M 0 0 M2988.44 480.712 L2994.87 480.712 L2994.87 522.821 L3018.01 522.821 L3018.01 528.232 L2988.44 528.232 L2988.44 480.712 Z" fill="#000000" fill-rule="evenodd" fill-opacity="1" /><path clip-path="url(#clip2200)" d="M 0 0 M3024.15 492.584 L3030.01 492.584 L3030.01 528.232 L3024.15 528.232 L3024.15 492.584 M3024.15 478.707 L3030.01 478.707 L3030.01 486.123 L3024.15 486.123 L3024.15 478.707 Z" fill="#000000" fill-rule="evenodd" fill-opacity="1" /><path clip-path="url(#clip2200)" d="M 0 0 M3054.2 478.707 L3054.2 483.577 L3048.6 483.577 Q3045.45 483.577 3044.21 484.85 Q3043 486.123 3043 489.433 L3043 492.584 L3052.64 492.584 L3052.64 497.136 L3043 497.136 L3043 528.232 L3037.11 528.232 L3037.11 497.136 L3031.51 497.136 L3031.51 492.584 L3037.11 492.584 L3037.11 490.102 Q3037.11 484.15 3039.88 481.444 Q3042.65 478.707 3048.66 478.707 L3054.2 478.707 Z" fill="#000000" fill-rule="evenodd" fill-opacity="1" /><path clip-path="url(#clip2200)" d="M 0 0 M3064.99 482.463 L3064.99 492.584 L3077.05 492.584 L3077.05 497.136 L3064.99 497.136 L3064.99 516.487 Q3064.99 520.848 3066.17 522.089 Q3067.38 523.331 3071.04 523.331 L3077.05 523.331 L3077.05 528.232 L3071.04 528.232 Q3064.26 528.232 3061.68 525.718 Q3059.1 523.171 3059.1 516.487 L3059.1 497.136 L3054.8 497.136 L3054.8 492.584 L3059.1 492.584 L3059.1 482.463 L3064.99 482.463 Z" fill="#000000" fill-rule="evenodd" fill-opacity="1" /><path clip-path="url(#clip2200)" d="M 0 0 M3122.41 486.314 L3106.18 511.681 L3122.41 511.681 L3122.41 486.314 M3120.72 480.712 L3128.81 480.712 L3128.81 511.681 L3135.59 511.681 L3135.59 517.028 L3128.81 517.028 L3128.81 528.232 L3122.41 528.232 L3122.41 517.028 L3100.96 517.028 L3100.96 510.822 L3120.72 480.712 Z" fill="#000000" fill-rule="evenodd" fill-opacity="1" /><polyline clip-path="url(#clip2200)" style="stroke:#ac8d18; stroke-width:16; stroke-opacity:1; fill:none" points="
  2764.44,564.952 2956.44,564.952 
  "/>
<path clip-path="url(#clip2200)" d="M 0 0 M2988.44 541.192 L2994.87 541.192 L2994.87 583.301 L3018.01 583.301 L3018.01 588.712 L2988.44 588.712 L2988.44 541.192 Z" fill="#000000" fill-rule="evenodd" fill-opacity="1" /><path clip-path="url(#clip2200)" d="M 0 0 M3024.15 553.064 L3030.01 553.064 L3030.01 588.712 L3024.15 588.712 L3024.15 553.064 M3024.15 539.187 L3030.01 539.187 L3030.01 546.603 L3024.15 546.603 L3024.15 539.187 Z" fill="#000000" fill-rule="evenodd" fill-opacity="1" /><path clip-path="url(#clip2200)" d="M 0 0 M3054.2 539.187 L3054.2 544.057 L3048.6 544.057 Q3045.45 544.057 3044.21 545.33 Q3043 546.603 3043 549.913 L3043 553.064 L3052.64 553.064 L3052.64 557.616 L3043 557.616 L3043 588.712 L3037.11 588.712 L3037.11 557.616 L3031.51 557.616 L3031.51 553.064 L3037.11 553.064 L3037.11 550.582 Q3037.11 544.63 3039.88 541.924 Q3042.65 539.187 3048.66 539.187 L3054.2 539.187 Z" fill="#000000" fill-rule="evenodd" fill-opacity="1" /><path clip-path="url(#clip2200)" d="M 0 0 M3064.99 542.943 L3064.99 553.064 L3077.05 553.064 L3077.05 557.616 L3064.99 557.616 L3064.99 576.967 Q3064.99 581.328 3066.17 582.569 Q3067.38 583.811 3071.04 583.811 L3077.05 583.811 L3077.05 588.712 L3071.04 588.712 Q3064.26 588.712 3061.68 586.198 Q3059.1 583.651 3059.1 576.967 L3059.1 557.616 L3054.8 557.616 L3054.8 553.064 L3059.1 553.064 L3059.1 542.943 L3064.99 542.943 Z" fill="#000000" fill-rule="evenodd" fill-opacity="1" /><path clip-path="url(#clip2200)" d="M 0 0 M3104.81 541.192 L3130.05 541.192 L3130.05 546.603 L3110.7 546.603 L3110.7 558.252 Q3112.1 557.775 3113.5 557.552 Q3114.9 557.297 3116.3 557.297 Q3124.25 557.297 3128.9 561.658 Q3133.55 566.018 3133.55 573.466 Q3133.55 581.137 3128.77 585.402 Q3124 589.635 3115.31 589.635 Q3112.32 589.635 3109.2 589.126 Q3106.11 588.617 3102.8 587.598 L3102.8 581.137 Q3105.67 582.697 3108.72 583.46 Q3111.78 584.224 3115.18 584.224 Q3120.69 584.224 3123.9 581.328 Q3127.12 578.432 3127.12 573.466 Q3127.12 568.501 3123.9 565.605 Q3120.69 562.708 3115.18 562.708 Q3112.6 562.708 3110.03 563.281 Q3107.48 563.854 3104.81 565.064 L3104.81 541.192 Z" fill="#000000" fill-rule="evenodd" fill-opacity="1" /><polyline clip-path="url(#clip2200)" style="stroke:#00a9ad; stroke-width:16; stroke-opacity:1; fill:none" points="
  2764.44,625.432 2956.44,625.432 
  "/>
<path clip-path="url(#clip2200)" d="M 0 0 M2988.44 601.672 L2994.87 601.672 L2994.87 643.781 L3018.01 643.781 L3018.01 649.192 L2988.44 649.192 L2988.44 601.672 Z" fill="#000000" fill-rule="evenodd" fill-opacity="1" /><path clip-path="url(#clip2200)" d="M 0 0 M3024.15 613.544 L3030.01 613.544 L3030.01 649.192 L3024.15 649.192 L3024.15 613.544 M3024.15 599.667 L3030.01 599.667 L3030.01 607.083 L3024.15 607.083 L3024.15 599.667 Z" fill="#000000" fill-rule="evenodd" fill-opacity="1" /><path clip-path="url(#clip2200)" d="M 0 0 M3054.2 599.667 L3054.2 604.537 L3048.6 604.537 Q3045.45 604.537 3044.21 605.81 Q3043 607.083 3043 610.393 L3043 613.544 L3052.64 613.544 L3052.64 618.096 L3043 618.096 L3043 649.192 L3037.11 649.192 L3037.11 618.096 L3031.51 618.096 L3031.51 613.544 L3037.11 613.544 L3037.11 611.062 Q3037.11 605.11 3039.88 602.404 Q3042.65 599.667 3048.66 599.667 L3054.2 599.667 Z" fill="#000000" fill-rule="evenodd" fill-opacity="1" /><path clip-path="url(#clip2200)" d="M 0 0 M3064.99 603.423 L3064.99 613.544 L3077.05 613.544 L3077.05 618.096 L3064.99 618.096 L3064.99 637.447 Q3064.99 641.808 3066.17 643.049 Q3067.38 644.291 3071.04 644.291 L3077.05 644.291 L3077.05 649.192 L3071.04 649.192 Q3064.26 649.192 3061.68 646.678 Q3059.1 644.131 3059.1 637.447 L3059.1 618.096 L3054.8 618.096 L3054.8 613.544 L3059.1 613.544 L3059.1 603.423 L3064.99 603.423 Z" fill="#000000" fill-rule="evenodd" fill-opacity="1" /><path clip-path="url(#clip2200)" d="M 0 0 M3119.29 622.87 Q3114.96 622.87 3112.41 625.83 Q3109.9 628.79 3109.9 633.946 Q3109.9 639.071 3112.41 642.063 Q3114.96 645.023 3119.29 645.023 Q3123.62 645.023 3126.13 642.063 Q3128.68 639.071 3128.68 633.946 Q3128.68 628.79 3126.13 625.83 Q3123.62 622.87 3119.29 622.87 M3132.05 602.722 L3132.05 608.579 Q3129.63 607.433 3127.15 606.828 Q3124.7 606.224 3122.28 606.224 Q3115.92 606.224 3112.54 610.52 Q3109.2 614.817 3108.72 623.506 Q3110.6 620.737 3113.43 619.273 Q3116.27 617.777 3119.67 617.777 Q3126.83 617.777 3130.97 622.138 Q3135.14 626.467 3135.14 633.946 Q3135.14 641.267 3130.81 645.691 Q3126.48 650.115 3119.29 650.115 Q3111.05 650.115 3106.68 643.813 Q3102.32 637.479 3102.32 625.48 Q3102.32 614.213 3107.67 607.529 Q3113.02 600.813 3122.03 600.813 Q3124.45 600.813 3126.9 601.29 Q3129.38 601.768 3132.05 602.722 Z" fill="#000000" fill-rule="evenodd" fill-opacity="1" /><polyline clip-path="url(#clip2200)" style="stroke:#ed5d92; stroke-width:16; stroke-opacity:1; fill:none" points="
  2764.44,685.912 2956.44,685.912 
  "/>
<path clip-path="url(#clip2200)" d="M 0 0 M2988.44 662.152 L2994.87 662.152 L2994.87 704.261 L3018.01 704.261 L3018.01 709.672 L2988.44 709.672 L2988.44 662.152 Z" fill="#000000" fill-rule="evenodd" fill-opacity="1" /><path clip-path="url(#clip2200)" d="M 0 0 M3024.15 674.024 L3030.01 674.024 L3030.01 709.672 L3024.15 709.672 L3024.15 674.024 M3024.15 660.147 L3030.01 660.147 L3030.01 667.563 L3024.15 667.563 L3024.15 660.147 Z" fill="#000000" fill-rule="evenodd" fill-opacity="1" /><path clip-path="url(#clip2200)" d="M 0 0 M3054.2 660.147 L3054.2 665.017 L3048.6 665.017 Q3045.45 665.017 3044.21 666.29 Q3043 667.563 3043 670.873 L3043 674.024 L3052.64 674.024 L3052.64 678.576 L3043 678.576 L3043 709.672 L3037.11 709.672 L3037.11 678.576 L3031.51 678.576 L3031.51 674.024 L3037.11 674.024 L3037.11 671.542 Q3037.11 665.59 3039.88 662.884 Q3042.65 660.147 3048.66 660.147 L3054.2 660.147 Z" fill="#000000" fill-rule="evenodd" fill-opacity="1" /><path clip-path="url(#clip2200)" d="M 0 0 M3064.99 663.903 L3064.99 674.024 L3077.05 674.024 L3077.05 678.576 L3064.99 678.576 L3064.99 697.927 Q3064.99 702.288 3066.17 703.529 Q3067.38 704.771 3071.04 704.771 L3077.05 704.771 L3077.05 709.672 L3071.04 709.672 Q3064.26 709.672 3061.68 707.158 Q3059.1 704.611 3059.1 697.927 L3059.1 678.576 L3054.8 678.576 L3054.8 674.024 L3059.1 674.024 L3059.1 663.903 L3064.99 663.903 Z" fill="#000000" fill-rule="evenodd" fill-opacity="1" /><path clip-path="url(#clip2200)" d="M 0 0 M3103.12 662.152 L3133.68 662.152 L3133.68 664.889 L3116.42 709.672 L3109.71 709.672 L3125.94 667.563 L3103.12 667.563 L3103.12 662.152 Z" fill="#000000" fill-rule="evenodd" fill-opacity="1" /><polyline clip-path="url(#clip2200)" style="stroke:#c68125; stroke-width:16; stroke-opacity:1; fill:none" points="
  2764.44,746.392 2956.44,746.392 
  "/>
<path clip-path="url(#clip2200)" d="M 0 0 M2988.44 722.632 L2994.87 722.632 L2994.87 764.741 L3018.01 764.741 L3018.01 770.152 L2988.44 770.152 L2988.44 722.632 Z" fill="#000000" fill-rule="evenodd" fill-opacity="1" /><path clip-path="url(#clip2200)" d="M 0 0 M3024.15 734.504 L3030.01 734.504 L3030.01 770.152 L3024.15 770.152 L3024.15 734.504 M3024.15 720.627 L3030.01 720.627 L3030.01 728.043 L3024.15 728.043 L3024.15 720.627 Z" fill="#000000" fill-rule="evenodd" fill-opacity="1" /><path clip-path="url(#clip2200)" d="M 0 0 M3054.2 720.627 L3054.2 725.497 L3048.6 725.497 Q3045.45 725.497 3044.21 726.77 Q3043 728.043 3043 731.353 L3043 734.504 L3052.64 734.504 L3052.64 739.056 L3043 739.056 L3043 770.152 L3037.11 770.152 L3037.11 739.056 L3031.51 739.056 L3031.51 734.504 L3037.11 734.504 L3037.11 732.022 Q3037.11 726.07 3039.88 723.364 Q3042.65 720.627 3048.66 720.627 L3054.2 720.627 Z" fill="#000000" fill-rule="evenodd" fill-opacity="1" /><path clip-path="url(#clip2200)" d="M 0 0 M3064.99 724.383 L3064.99 734.504 L3077.05 734.504 L3077.05 739.056 L3064.99 739.056 L3064.99 758.407 Q3064.99 762.768 3066.17 764.009 Q3067.38 765.251 3071.04 765.251 L3077.05 765.251 L3077.05 770.152 L3071.04 770.152 Q3064.26 770.152 3061.68 767.638 Q3059.1 765.091 3059.1 758.407 L3059.1 739.056 L3054.8 739.056 L3054.8 734.504 L3059.1 734.504 L3059.1 724.383 L3064.99 724.383 Z" fill="#000000" fill-rule="evenodd" fill-opacity="1" /><path clip-path="url(#clip2200)" d="M 0 0 M3118.49 747.586 Q3113.91 747.586 3111.27 750.036 Q3108.66 752.487 3108.66 756.784 Q3108.66 761.081 3111.27 763.532 Q3113.91 765.983 3118.49 765.983 Q3123.08 765.983 3125.72 763.532 Q3128.36 761.049 3128.36 756.784 Q3128.36 752.487 3125.72 750.036 Q3123.11 747.586 3118.49 747.586 M3112.06 744.848 Q3107.93 743.83 3105.6 740.997 Q3103.31 738.164 3103.31 734.09 Q3103.31 728.393 3107.35 725.083 Q3111.43 721.773 3118.49 721.773 Q3125.59 721.773 3129.63 725.083 Q3133.68 728.393 3133.68 734.09 Q3133.68 738.164 3131.35 740.997 Q3129.06 743.83 3124.95 744.848 Q3129.6 745.931 3132.18 749.082 Q3134.79 752.233 3134.79 756.784 Q3134.79 763.691 3130.56 767.383 Q3126.35 771.075 3118.49 771.075 Q3110.63 771.075 3106.4 767.383 Q3102.2 763.691 3102.2 756.784 Q3102.2 752.233 3104.81 749.082 Q3107.42 745.931 3112.06 744.848 M3109.71 734.695 Q3109.71 738.387 3112 740.456 Q3114.32 742.525 3118.49 742.525 Q3122.63 742.525 3124.95 740.456 Q3127.31 738.387 3127.31 734.695 Q3127.31 731.003 3124.95 728.934 Q3122.63 726.865 3118.49 726.865 Q3114.32 726.865 3112 728.934 Q3109.71 731.003 3109.71 734.695 Z" fill="#000000" fill-rule="evenodd" fill-opacity="1" /><polyline clip-path="url(#clip2200)" style="stroke:#00a98d; stroke-width:16; stroke-opacity:1; fill:none" points="
  2764.44,806.872 2956.44,806.872 
  "/>
<path clip-path="url(#clip2200)" d="M 0 0 M2988.44 783.112 L2994.87 783.112 L2994.87 825.221 L3018.01 825.221 L3018.01 830.632 L2988.44 830.632 L2988.44 783.112 Z" fill="#000000" fill-rule="evenodd" fill-opacity="1" /><path clip-path="url(#clip2200)" d="M 0 0 M3024.15 794.984 L3030.01 794.984 L3030.01 830.632 L3024.15 830.632 L3024.15 794.984 M3024.15 781.107 L3030.01 781.107 L3030.01 788.523 L3024.15 788.523 L3024.15 781.107 Z" fill="#000000" fill-rule="evenodd" fill-opacity="1" /><path clip-path="url(#clip2200)" d="M 0 0 M3054.2 781.107 L3054.2 785.977 L3048.6 785.977 Q3045.45 785.977 3044.21 787.25 Q3043 788.523 3043 791.833 L3043 794.984 L3052.64 794.984 L3052.64 799.536 L3043 799.536 L3043 830.632 L3037.11 830.632 L3037.11 799.536 L3031.51 799.536 L3031.51 794.984 L3037.11 794.984 L3037.11 792.502 Q3037.11 786.55 3039.88 783.844 Q3042.65 781.107 3048.66 781.107 L3054.2 781.107 Z" fill="#000000" fill-rule="evenodd" fill-opacity="1" /><path clip-path="url(#clip2200)" d="M 0 0 M3064.99 784.863 L3064.99 794.984 L3077.05 794.984 L3077.05 799.536 L3064.99 799.536 L3064.99 818.887 Q3064.99 823.248 3066.17 824.489 Q3067.38 825.731 3071.04 825.731 L3077.05 825.731 L3077.05 830.632 L3071.04 830.632 Q3064.26 830.632 3061.68 828.118 Q3059.1 825.571 3059.1 818.887 L3059.1 799.536 L3054.8 799.536 L3054.8 794.984 L3059.1 794.984 L3059.1 784.863 L3064.99 784.863 Z" fill="#000000" fill-rule="evenodd" fill-opacity="1" /><path clip-path="url(#clip2200)" d="M 0 0 M3104.93 829.645 L3104.93 823.789 Q3107.35 824.935 3109.84 825.54 Q3112.32 826.144 3114.71 826.144 Q3121.07 826.144 3124.41 821.879 Q3127.79 817.582 3128.26 808.861 Q3126.42 811.599 3123.59 813.063 Q3120.75 814.527 3117.32 814.527 Q3110.19 814.527 3106.02 810.23 Q3101.88 805.901 3101.88 798.422 Q3101.88 791.101 3106.21 786.677 Q3110.54 782.253 3117.73 782.253 Q3125.97 782.253 3130.3 788.587 Q3134.66 794.889 3134.66 806.92 Q3134.66 818.155 3129.31 824.871 Q3124 831.555 3114.99 831.555 Q3112.57 831.555 3110.09 831.078 Q3107.61 830.6 3104.93 829.645 M3117.73 809.498 Q3122.06 809.498 3124.57 806.538 Q3127.12 803.578 3127.12 798.422 Q3127.12 793.297 3124.57 790.337 Q3122.06 787.345 3117.73 787.345 Q3113.4 787.345 3110.85 790.337 Q3108.34 793.297 3108.34 798.422 Q3108.34 803.578 3110.85 806.538 Q3113.4 809.498 3117.73 809.498 Z" fill="#000000" fill-rule="evenodd" fill-opacity="1" /><polyline clip-path="url(#clip2200)" style="stroke:#8e971d; stroke-width:16; stroke-opacity:1; fill:none" points="
  2764.44,867.352 2956.44,867.352 
  "/>
<path clip-path="url(#clip2200)" d="M 0 0 M2988.44 843.592 L2994.87 843.592 L2994.87 885.701 L3018.01 885.701 L3018.01 891.112 L2988.44 891.112 L2988.44 843.592 Z" fill="#000000" fill-rule="evenodd" fill-opacity="1" /><path clip-path="url(#clip2200)" d="M 0 0 M3024.15 855.464 L3030.01 855.464 L3030.01 891.112 L3024.15 891.112 L3024.15 855.464 M3024.15 841.587 L3030.01 841.587 L3030.01 849.003 L3024.15 849.003 L3024.15 841.587 Z" fill="#000000" fill-rule="evenodd" fill-opacity="1" /><path clip-path="url(#clip2200)" d="M 0 0 M3054.2 841.587 L3054.2 846.457 L3048.6 846.457 Q3045.45 846.457 3044.21 847.73 Q3043 849.003 3043 852.313 L3043 855.464 L3052.64 855.464 L3052.64 860.016 L3043 860.016 L3043 891.112 L3037.11 891.112 L3037.11 860.016 L3031.51 860.016 L3031.51 855.464 L3037.11 855.464 L3037.11 852.982 Q3037.11 847.03 3039.88 844.324 Q3042.65 841.587 3048.66 841.587 L3054.2 841.587 Z" fill="#000000" fill-rule="evenodd" fill-opacity="1" /><path clip-path="url(#clip2200)" d="M 0 0 M3064.99 845.343 L3064.99 855.464 L3077.05 855.464 L3077.05 860.016 L3064.99 860.016 L3064.99 879.367 Q3064.99 883.728 3066.17 884.969 Q3067.38 886.211 3071.04 886.211 L3077.05 886.211 L3077.05 891.112 L3071.04 891.112 Q3064.26 891.112 3061.68 888.598 Q3059.1 886.051 3059.1 879.367 L3059.1 860.016 L3054.8 860.016 L3054.8 855.464 L3059.1 855.464 L3059.1 845.343 L3064.99 845.343 Z" fill="#000000" fill-rule="evenodd" fill-opacity="1" /><path clip-path="url(#clip2200)" d="M 0 0 M3105.86 885.701 L3116.36 885.701 L3116.36 849.449 L3104.93 851.74 L3104.93 845.884 L3116.3 843.592 L3122.73 843.592 L3122.73 885.701 L3133.23 885.701 L3133.23 891.112 L3105.86 891.112 L3105.86 885.701 Z" fill="#000000" fill-rule="evenodd" fill-opacity="1" /><path clip-path="url(#clip2200)" d="M 0 0 M3153.95 847.825 Q3148.98 847.825 3146.47 852.727 Q3143.99 857.597 3143.99 867.4 Q3143.99 877.171 3146.47 882.073 Q3148.98 886.943 3153.95 886.943 Q3158.95 886.943 3161.43 882.073 Q3163.94 877.171 3163.94 867.4 Q3163.94 857.597 3161.43 852.727 Q3158.95 847.825 3153.95 847.825 M3153.95 842.733 Q3161.94 842.733 3166.14 849.067 Q3170.37 855.369 3170.37 867.4 Q3170.37 879.399 3166.14 885.733 Q3161.94 892.035 3153.95 892.035 Q3145.96 892.035 3141.73 885.733 Q3137.53 879.399 3137.53 867.4 Q3137.53 855.369 3141.73 849.067 Q3145.96 842.733 3153.95 842.733 Z" fill="#000000" fill-rule="evenodd" fill-opacity="1" /><polyline clip-path="url(#clip2200)" style="stroke:#00a8cb; stroke-width:16; stroke-opacity:1; fill:none" points="
  2764.44,927.832 2956.44,927.832 
  "/>
<path clip-path="url(#clip2200)" d="M 0 0 M2988.44 904.072 L2994.87 904.072 L2994.87 946.181 L3018.01 946.181 L3018.01 951.592 L2988.44 951.592 L2988.44 904.072 Z" fill="#000000" fill-rule="evenodd" fill-opacity="1" /><path clip-path="url(#clip2200)" d="M 0 0 M3036.82 920.05 Q3032.11 920.05 3029.37 923.742 Q3026.64 927.402 3026.64 933.8 Q3026.64 940.198 3029.34 943.89 Q3032.08 947.55 3036.82 947.55 Q3041.5 947.55 3044.24 943.858 Q3046.97 940.166 3046.97 933.8 Q3046.97 927.466 3044.24 923.774 Q3041.5 920.05 3036.82 920.05 M3036.82 915.085 Q3044.46 915.085 3048.82 920.05 Q3053.18 925.015 3053.18 933.8 Q3053.18 942.553 3048.82 947.55 Q3044.46 952.515 3036.82 952.515 Q3029.15 952.515 3024.79 947.55 Q3020.46 942.553 3020.46 933.8 Q3020.46 925.015 3024.79 920.05 Q3029.15 915.085 3036.82 915.085 Z" fill="#000000" fill-rule="evenodd" fill-opacity="1" /><path clip-path="url(#clip2200)" d="M 0 0 M3075.52 933.673 Q3068.43 933.673 3065.69 935.296 Q3062.95 936.919 3062.95 940.834 Q3062.95 943.953 3064.99 945.799 Q3067.06 947.614 3070.59 947.614 Q3075.46 947.614 3078.39 944.176 Q3081.35 940.707 3081.35 934.978 L3081.35 933.673 L3075.52 933.673 M3087.21 931.254 L3087.21 951.592 L3081.35 951.592 L3081.35 946.181 Q3079.34 949.428 3076.35 950.987 Q3073.36 952.515 3069.03 952.515 Q3063.56 952.515 3060.31 949.46 Q3057.1 946.372 3057.1 941.216 Q3057.1 935.2 3061.11 932.145 Q3065.15 929.089 3073.14 929.089 L3081.35 929.089 L3081.35 928.516 Q3081.35 924.474 3078.68 922.278 Q3076.03 920.05 3071.23 920.05 Q3068.17 920.05 3065.28 920.782 Q3062.38 921.514 3059.71 922.978 L3059.71 917.567 Q3062.92 916.326 3065.94 915.721 Q3068.97 915.085 3071.83 915.085 Q3079.57 915.085 3083.39 919.095 Q3087.21 923.106 3087.21 931.254 Z" fill="#000000" fill-rule="evenodd" fill-opacity="1" /><path clip-path="url(#clip2200)" d="M 0 0 M3116.81 921.355 L3116.81 902.067 L3122.66 902.067 L3122.66 951.592 L3116.81 951.592 L3116.81 946.245 Q3114.96 949.428 3112.13 950.987 Q3109.33 952.515 3105.38 952.515 Q3098.92 952.515 3094.84 947.359 Q3090.8 942.203 3090.8 933.8 Q3090.8 925.397 3094.84 920.241 Q3098.92 915.085 3105.38 915.085 Q3109.33 915.085 3112.13 916.644 Q3114.96 918.172 3116.81 921.355 M3096.85 933.8 Q3096.85 940.261 3099.49 943.953 Q3102.17 947.614 3106.81 947.614 Q3111.46 947.614 3114.13 943.953 Q3116.81 940.261 3116.81 933.8 Q3116.81 927.339 3114.13 923.679 Q3111.46 919.986 3106.81 919.986 Q3102.17 919.986 3099.49 923.679 Q3096.85 927.339 3096.85 933.8 Z" fill="#000000" fill-rule="evenodd" fill-opacity="1" /></svg>
