<?xml version="1.0" encoding="utf-8"?>
<svg xmlns="http://www.w3.org/2000/svg" xmlns:xlink="http://www.w3.org/1999/xlink" width="800" height="600" viewBox="0 0 3200 2400">
<defs>
  <clipPath id="clip1600">
    <rect x="0" y="0" width="3200" height="2400"/>
  </clipPath>
</defs>
<path clip-path="url(#clip1600)" d="
M0 2400 L3200 2400 L3200 0 L0 0  Z
  " fill="#ffffff" fill-rule="evenodd" fill-opacity="1"/>
<defs>
  <clipPath id="clip1601">
    <rect x="640" y="0" width="2241" height="2241"/>
  </clipPath>
</defs>
<path clip-path="url(#clip1600)" d="
M268.158 2204.92 L2636.44 2204.92 L2636.44 131.032 L268.158 131.032  Z
  " fill="#ffffff" fill-rule="evenodd" fill-opacity="1"/>
<defs>
  <clipPath id="clip1602">
    <rect x="268" y="131" width="2369" height="2075"/>
  </clipPath>
</defs>
<polyline clip-path="url(#clip1602)" style="stroke:#000000; stroke-width:2; stroke-opacity:0.1; fill:none" points="
  335.185,2204.92 335.185,131.032 
  "/>
<polyline clip-path="url(#clip1602)" style="stroke:#000000; stroke-width:2; stroke-opacity:0.1; fill:none" points="
  782.031,2204.92 782.031,131.032 
  "/>
<polyline clip-path="url(#clip1602)" style="stroke:#000000; stroke-width:2; stroke-opacity:0.1; fill:none" points="
  1228.88,2204.92 1228.88,131.032 
  "/>
<polyline clip-path="url(#clip1602)" style="stroke:#000000; stroke-width:2; stroke-opacity:0.1; fill:none" points="
  1675.72,2204.92 1675.72,131.032 
  "/>
<polyline clip-path="url(#clip1602)" style="stroke:#000000; stroke-width:2; stroke-opacity:0.1; fill:none" points="
  2122.57,2204.92 2122.57,131.032 
  "/>
<polyline clip-path="url(#clip1602)" style="stroke:#000000; stroke-width:2; stroke-opacity:0.1; fill:none" points="
  2569.41,2204.92 2569.41,131.032 
  "/>
<polyline clip-path="url(#clip1602)" style="stroke:#000000; stroke-width:2; stroke-opacity:0.1; fill:none" points="
  268.158,1947.17 2636.44,1947.17 
  "/>
<polyline clip-path="url(#clip1602)" style="stroke:#000000; stroke-width:2; stroke-opacity:0.1; fill:none" points="
  268.158,1634.96 2636.44,1634.96 
  "/>
<polyline clip-path="url(#clip1602)" style="stroke:#000000; stroke-width:2; stroke-opacity:0.1; fill:none" points="
  268.158,1322.74 2636.44,1322.74 
  "/>
<polyline clip-path="url(#clip1602)" style="stroke:#000000; stroke-width:2; stroke-opacity:0.1; fill:none" points="
  268.158,1010.53 2636.44,1010.53 
  "/>
<polyline clip-path="url(#clip1602)" style="stroke:#000000; stroke-width:2; stroke-opacity:0.1; fill:none" points="
  268.158,698.311 2636.44,698.311 
  "/>
<polyline clip-path="url(#clip1602)" style="stroke:#000000; stroke-width:2; stroke-opacity:0.1; fill:none" points="
  268.158,386.095 2636.44,386.095 
  "/>
<polyline clip-path="url(#clip1600)" style="stroke:#000000; stroke-width:4; stroke-opacity:1; fill:none" points="
  268.158,2204.92 2636.44,2204.92 
  "/>
<polyline clip-path="url(#clip1600)" style="stroke:#000000; stroke-width:4; stroke-opacity:1; fill:none" points="
  268.158,2204.92 268.158,131.032 
  "/>
<polyline clip-path="url(#clip1600)" style="stroke:#000000; stroke-width:4; stroke-opacity:1; fill:none" points="
  335.185,2204.92 335.185,2180.03 
  "/>
<polyline clip-path="url(#clip1600)" style="stroke:#000000; stroke-width:4; stroke-opacity:1; fill:none" points="
  782.031,2204.92 782.031,2180.03 
  "/>
<polyline clip-path="url(#clip1600)" style="stroke:#000000; stroke-width:4; stroke-opacity:1; fill:none" points="
  1228.88,2204.92 1228.88,2180.03 
  "/>
<polyline clip-path="url(#clip1600)" style="stroke:#000000; stroke-width:4; stroke-opacity:1; fill:none" points="
  1675.72,2204.92 1675.72,2180.03 
  "/>
<polyline clip-path="url(#clip1600)" style="stroke:#000000; stroke-width:4; stroke-opacity:1; fill:none" points="
  2122.57,2204.92 2122.57,2180.03 
  "/>
<polyline clip-path="url(#clip1600)" style="stroke:#000000; stroke-width:4; stroke-opacity:1; fill:none" points="
  2569.41,2204.92 2569.41,2180.03 
  "/>
<polyline clip-path="url(#clip1600)" style="stroke:#000000; stroke-width:4; stroke-opacity:1; fill:none" points="
  268.158,1947.17 296.577,1947.17 
  "/>
<polyline clip-path="url(#clip1600)" style="stroke:#000000; stroke-width:4; stroke-opacity:1; fill:none" points="
  268.158,1634.96 296.577,1634.96 
  "/>
<polyline clip-path="url(#clip1600)" style="stroke:#000000; stroke-width:4; stroke-opacity:1; fill:none" points="
  268.158,1322.74 296.577,1322.74 
  "/>
<polyline clip-path="url(#clip1600)" style="stroke:#000000; stroke-width:4; stroke-opacity:1; fill:none" points="
  268.158,1010.53 296.577,1010.53 
  "/>
<polyline clip-path="url(#clip1600)" style="stroke:#000000; stroke-width:4; stroke-opacity:1; fill:none" points="
  268.158,698.311 296.577,698.311 
  "/>
<polyline clip-path="url(#clip1600)" style="stroke:#000000; stroke-width:4; stroke-opacity:1; fill:none" points="
  268.158,386.095 296.577,386.095 
  "/>
<path clip-path="url(#clip1600)" d="M 0 0 M335.185 2230.91 Q331.574 2230.91 329.745 2234.48 Q327.94 2238.02 327.94 2245.15 Q327.94 2252.25 329.745 2255.82 Q331.574 2259.36 335.185 2259.36 Q338.819 2259.36 340.625 2255.82 Q342.453 2252.25 342.453 2245.15 Q342.453 2238.02 340.625 2234.48 Q338.819 2230.91 335.185 2230.91 M335.185 2227.21 Q340.995 2227.21 344.051 2231.81 Q347.129 2236.4 347.129 2245.15 Q347.129 2253.87 344.051 2258.48 Q340.995 2263.06 335.185 2263.06 Q329.375 2263.06 326.296 2258.48 Q323.24 2253.87 323.24 2245.15 Q323.24 2236.4 326.296 2231.81 Q329.375 2227.21 335.185 2227.21 Z" fill="#000000" fill-rule="evenodd" fill-opacity="1" /><path clip-path="url(#clip1600)" d="M 0 0 M772.413 2258.46 L780.052 2258.46 L780.052 2232.09 L771.742 2233.76 L771.742 2229.5 L780.005 2227.83 L784.681 2227.83 L784.681 2258.46 L792.32 2258.46 L792.32 2262.39 L772.413 2262.39 L772.413 2258.46 Z" fill="#000000" fill-rule="evenodd" fill-opacity="1" /><path clip-path="url(#clip1600)" d="M 0 0 M1223.53 2258.46 L1239.85 2258.46 L1239.85 2262.39 L1217.9 2262.39 L1217.9 2258.46 Q1220.57 2255.7 1225.15 2251.07 Q1229.76 2246.42 1230.94 2245.08 Q1233.18 2242.55 1234.06 2240.82 Q1234.96 2239.06 1234.96 2237.37 Q1234.96 2234.61 1233.02 2232.88 Q1231.1 2231.14 1228 2231.14 Q1225.8 2231.14 1223.34 2231.91 Q1220.91 2232.67 1218.14 2234.22 L1218.14 2229.5 Q1220.96 2228.36 1223.41 2227.79 Q1225.87 2227.21 1227.9 2227.21 Q1233.27 2227.21 1236.47 2229.89 Q1239.66 2232.58 1239.66 2237.07 Q1239.66 2239.2 1238.85 2241.12 Q1238.07 2243.02 1235.96 2245.61 Q1235.38 2246.28 1232.28 2249.5 Q1229.18 2252.69 1223.53 2258.46 Z" fill="#000000" fill-rule="evenodd" fill-opacity="1" /><path clip-path="url(#clip1600)" d="M 0 0 M1679.97 2243.76 Q1683.33 2244.48 1685.2 2246.74 Q1687.1 2249.01 1687.1 2252.35 Q1687.1 2257.46 1683.58 2260.26 Q1680.06 2263.06 1673.58 2263.06 Q1671.41 2263.06 1669.09 2262.62 Q1666.8 2262.21 1664.35 2261.35 L1664.35 2256.84 Q1666.29 2257.97 1668.6 2258.55 Q1670.92 2259.13 1673.44 2259.13 Q1677.84 2259.13 1680.13 2257.39 Q1682.45 2255.66 1682.45 2252.35 Q1682.45 2249.29 1680.29 2247.58 Q1678.16 2245.84 1674.35 2245.84 L1670.32 2245.84 L1670.32 2242 L1674.53 2242 Q1677.98 2242 1679.81 2240.63 Q1681.64 2239.24 1681.64 2236.65 Q1681.64 2233.99 1679.74 2232.58 Q1677.86 2231.14 1674.35 2231.14 Q1672.42 2231.14 1670.23 2231.56 Q1668.03 2231.98 1665.39 2232.85 L1665.39 2228.69 Q1668.05 2227.95 1670.36 2227.58 Q1672.7 2227.21 1674.76 2227.21 Q1680.09 2227.21 1683.19 2229.64 Q1686.29 2232.04 1686.29 2236.17 Q1686.29 2239.04 1684.65 2241.03 Q1683 2242.99 1679.97 2243.76 Z" fill="#000000" fill-rule="evenodd" fill-opacity="1" /><path clip-path="url(#clip1600)" d="M 0 0 M2125.58 2231.91 L2113.77 2250.35 L2125.58 2250.35 L2125.58 2231.91 M2124.35 2227.83 L2130.23 2227.83 L2130.23 2250.35 L2135.16 2250.35 L2135.16 2254.24 L2130.23 2254.24 L2130.23 2262.39 L2125.58 2262.39 L2125.58 2254.24 L2109.98 2254.24 L2109.98 2249.73 L2124.35 2227.83 Z" fill="#000000" fill-rule="evenodd" fill-opacity="1" /><path clip-path="url(#clip1600)" d="M 0 0 M2559.69 2227.83 L2578.05 2227.83 L2578.05 2231.77 L2563.98 2231.77 L2563.98 2240.24 Q2564.99 2239.89 2566.01 2239.73 Q2567.03 2239.54 2568.05 2239.54 Q2573.84 2239.54 2577.22 2242.72 Q2580.6 2245.89 2580.6 2251.3 Q2580.6 2256.88 2577.12 2259.98 Q2573.65 2263.06 2567.33 2263.06 Q2565.16 2263.06 2562.89 2262.69 Q2560.64 2262.32 2558.23 2261.58 L2558.23 2256.88 Q2560.32 2258.02 2562.54 2258.57 Q2564.76 2259.13 2567.24 2259.13 Q2571.24 2259.13 2573.58 2257.02 Q2575.92 2254.92 2575.92 2251.3 Q2575.92 2247.69 2573.58 2245.59 Q2571.24 2243.48 2567.24 2243.48 Q2565.36 2243.48 2563.49 2243.9 Q2561.64 2244.31 2559.69 2245.19 L2559.69 2227.83 Z" fill="#000000" fill-rule="evenodd" fill-opacity="1" /><path clip-path="url(#clip1600)" d="M 0 0 M132.2 1949.57 L144.677 1949.57 L144.677 1953.37 L132.2 1953.37 L132.2 1949.57 Z" fill="#000000" fill-rule="evenodd" fill-opacity="1" /><path clip-path="url(#clip1600)" d="M 0 0 M159.746 1932.97 Q156.135 1932.97 154.307 1936.54 Q152.501 1940.08 152.501 1947.21 Q152.501 1954.32 154.307 1957.88 Q156.135 1961.42 159.746 1961.42 Q163.381 1961.42 165.186 1957.88 Q167.015 1954.32 167.015 1947.21 Q167.015 1940.08 165.186 1936.54 Q163.381 1932.97 159.746 1932.97 M159.746 1929.27 Q165.556 1929.27 168.612 1933.88 Q171.691 1938.46 171.691 1947.21 Q171.691 1955.94 168.612 1960.54 Q165.556 1965.13 159.746 1965.13 Q153.936 1965.13 150.857 1960.54 Q147.802 1955.94 147.802 1947.21 Q147.802 1938.46 150.857 1933.88 Q153.936 1929.27 159.746 1929.27 Z" fill="#000000" fill-rule="evenodd" fill-opacity="1" /><path clip-path="url(#clip1600)" d="M 0 0 M176.76 1958.57 L181.644 1958.57 L181.644 1964.45 L176.76 1964.45 L176.76 1958.57 Z" fill="#000000" fill-rule="evenodd" fill-opacity="1" /><path clip-path="url(#clip1600)" d="M 0 0 M196.714 1932.97 Q193.103 1932.97 191.274 1936.54 Q189.468 1940.08 189.468 1947.21 Q189.468 1954.32 191.274 1957.88 Q193.103 1961.42 196.714 1961.42 Q200.348 1961.42 202.153 1957.88 Q203.982 1954.32 203.982 1947.21 Q203.982 1940.08 202.153 1936.54 Q200.348 1932.97 196.714 1932.97 M196.714 1929.27 Q202.524 1929.27 205.579 1933.88 Q208.658 1938.46 208.658 1947.21 Q208.658 1955.94 205.579 1960.54 Q202.524 1965.13 196.714 1965.13 Q190.904 1965.13 187.825 1960.54 Q184.769 1955.94 184.769 1947.21 Q184.769 1938.46 187.825 1933.88 Q190.904 1929.27 196.714 1929.27 Z" fill="#000000" fill-rule="evenodd" fill-opacity="1" /><path clip-path="url(#clip1600)" d="M 0 0 M226.575 1933.97 L214.769 1952.42 L226.575 1952.42 L226.575 1933.97 M225.348 1929.89 L231.227 1929.89 L231.227 1952.42 L236.158 1952.42 L236.158 1956.31 L231.227 1956.31 L231.227 1964.45 L226.575 1964.45 L226.575 1956.31 L210.973 1956.31 L210.973 1951.79 L225.348 1929.89 Z" fill="#000000" fill-rule="evenodd" fill-opacity="1" /><path clip-path="url(#clip1600)" d="M 0 0 M134.283 1637.35 L146.76 1637.35 L146.76 1641.15 L134.283 1641.15 L134.283 1637.35 Z" fill="#000000" fill-rule="evenodd" fill-opacity="1" /><path clip-path="url(#clip1600)" d="M 0 0 M161.83 1620.76 Q158.219 1620.76 156.39 1624.32 Q154.584 1627.86 154.584 1634.99 Q154.584 1642.1 156.39 1645.66 Q158.219 1649.21 161.83 1649.21 Q165.464 1649.21 167.269 1645.66 Q169.098 1642.1 169.098 1634.99 Q169.098 1627.86 167.269 1624.32 Q165.464 1620.76 161.83 1620.76 M161.83 1617.05 Q167.64 1617.05 170.695 1621.66 Q173.774 1626.24 173.774 1634.99 Q173.774 1643.72 170.695 1648.33 Q167.64 1652.91 161.83 1652.91 Q156.019 1652.91 152.941 1648.33 Q149.885 1643.72 149.885 1634.99 Q149.885 1626.24 152.941 1621.66 Q156.019 1617.05 161.83 1617.05 Z" fill="#000000" fill-rule="evenodd" fill-opacity="1" /><path clip-path="url(#clip1600)" d="M 0 0 M178.843 1646.36 L183.728 1646.36 L183.728 1652.24 L178.843 1652.24 L178.843 1646.36 Z" fill="#000000" fill-rule="evenodd" fill-opacity="1" /><path clip-path="url(#clip1600)" d="M 0 0 M198.797 1620.76 Q195.186 1620.76 193.357 1624.32 Q191.552 1627.86 191.552 1634.99 Q191.552 1642.1 193.357 1645.66 Q195.186 1649.21 198.797 1649.21 Q202.431 1649.21 204.237 1645.66 Q206.066 1642.1 206.066 1634.99 Q206.066 1627.86 204.237 1624.32 Q202.431 1620.76 198.797 1620.76 M198.797 1617.05 Q204.607 1617.05 207.663 1621.66 Q210.741 1626.24 210.741 1634.99 Q210.741 1643.72 207.663 1648.33 Q204.607 1652.91 198.797 1652.91 Q192.987 1652.91 189.908 1648.33 Q186.853 1643.72 186.853 1634.99 Q186.853 1626.24 189.908 1621.66 Q192.987 1617.05 198.797 1617.05 Z" fill="#000000" fill-rule="evenodd" fill-opacity="1" /><path clip-path="url(#clip1600)" d="M 0 0 M219.839 1648.3 L236.158 1648.3 L236.158 1652.24 L214.214 1652.24 L214.214 1648.3 Q216.876 1645.55 221.459 1640.92 Q226.065 1636.27 227.246 1634.92 Q229.491 1632.4 230.371 1630.66 Q231.274 1628.91 231.274 1627.22 Q231.274 1624.46 229.329 1622.72 Q227.408 1620.99 224.306 1620.99 Q222.107 1620.99 219.653 1621.75 Q217.223 1622.52 214.445 1624.07 L214.445 1619.35 Q217.269 1618.21 219.723 1617.63 Q222.177 1617.05 224.214 1617.05 Q229.584 1617.05 232.778 1619.74 Q235.973 1622.42 235.973 1626.91 Q235.973 1629.04 235.163 1630.97 Q234.376 1632.86 232.269 1635.46 Q231.69 1636.13 228.589 1639.34 Q225.487 1642.54 219.839 1648.3 Z" fill="#000000" fill-rule="evenodd" fill-opacity="1" /><path clip-path="url(#clip1600)" d="M 0 0 M160.232 1308.54 Q156.621 1308.54 154.793 1312.11 Q152.987 1315.65 152.987 1322.78 Q152.987 1329.88 154.793 1333.45 Q156.621 1336.99 160.232 1336.99 Q163.867 1336.99 165.672 1333.45 Q167.501 1329.88 167.501 1322.78 Q167.501 1315.65 165.672 1312.11 Q163.867 1308.54 160.232 1308.54 M160.232 1304.84 Q166.043 1304.84 169.098 1309.44 Q172.177 1314.03 172.177 1322.78 Q172.177 1331.5 169.098 1336.11 Q166.043 1340.69 160.232 1340.69 Q154.422 1340.69 151.344 1336.11 Q148.288 1331.5 148.288 1322.78 Q148.288 1314.03 151.344 1309.44 Q154.422 1304.84 160.232 1304.84 Z" fill="#000000" fill-rule="evenodd" fill-opacity="1" /><path clip-path="url(#clip1600)" d="M 0 0 M177.246 1334.14 L182.13 1334.14 L182.13 1340.02 L177.246 1340.02 L177.246 1334.14 Z" fill="#000000" fill-rule="evenodd" fill-opacity="1" /><path clip-path="url(#clip1600)" d="M 0 0 M197.2 1308.54 Q193.589 1308.54 191.76 1312.11 Q189.954 1315.65 189.954 1322.78 Q189.954 1329.88 191.76 1333.45 Q193.589 1336.99 197.2 1336.99 Q200.834 1336.99 202.64 1333.45 Q204.468 1329.88 204.468 1322.78 Q204.468 1315.65 202.64 1312.11 Q200.834 1308.54 197.2 1308.54 M197.2 1304.84 Q203.01 1304.84 206.066 1309.44 Q209.144 1314.03 209.144 1322.78 Q209.144 1331.5 206.066 1336.11 Q203.01 1340.69 197.2 1340.69 Q191.39 1340.69 188.311 1336.11 Q185.255 1331.5 185.255 1322.78 Q185.255 1314.03 188.311 1309.44 Q191.39 1304.84 197.2 1304.84 Z" fill="#000000" fill-rule="evenodd" fill-opacity="1" /><path clip-path="url(#clip1600)" d="M 0 0 M224.214 1308.54 Q220.602 1308.54 218.774 1312.11 Q216.968 1315.65 216.968 1322.78 Q216.968 1329.88 218.774 1333.45 Q220.602 1336.99 224.214 1336.99 Q227.848 1336.99 229.653 1333.45 Q231.482 1329.88 231.482 1322.78 Q231.482 1315.65 229.653 1312.11 Q227.848 1308.54 224.214 1308.54 M224.214 1304.84 Q230.024 1304.84 233.079 1309.44 Q236.158 1314.03 236.158 1322.78 Q236.158 1331.5 233.079 1336.11 Q230.024 1340.69 224.214 1340.69 Q218.403 1340.69 215.325 1336.11 Q212.269 1331.5 212.269 1322.78 Q212.269 1314.03 215.325 1309.44 Q218.403 1304.84 224.214 1304.84 Z" fill="#000000" fill-rule="evenodd" fill-opacity="1" /><path clip-path="url(#clip1600)" d="M 0 0 M161.83 996.325 Q158.219 996.325 156.39 999.89 Q154.584 1003.43 154.584 1010.56 Q154.584 1017.67 156.39 1021.23 Q158.219 1024.77 161.83 1024.77 Q165.464 1024.77 167.269 1021.23 Q169.098 1017.67 169.098 1010.56 Q169.098 1003.43 167.269 999.89 Q165.464 996.325 161.83 996.325 M161.83 992.622 Q167.64 992.622 170.695 997.228 Q173.774 1001.81 173.774 1010.56 Q173.774 1019.29 170.695 1023.89 Q167.64 1028.48 161.83 1028.48 Q156.019 1028.48 152.941 1023.89 Q149.885 1019.29 149.885 1010.56 Q149.885 1001.81 152.941 997.228 Q156.019 992.622 161.83 992.622 Z" fill="#000000" fill-rule="evenodd" fill-opacity="1" /><path clip-path="url(#clip1600)" d="M 0 0 M178.843 1021.93 L183.728 1021.93 L183.728 1027.81 L178.843 1027.81 L178.843 1021.93 Z" fill="#000000" fill-rule="evenodd" fill-opacity="1" /><path clip-path="url(#clip1600)" d="M 0 0 M198.797 996.325 Q195.186 996.325 193.357 999.89 Q191.552 1003.43 191.552 1010.56 Q191.552 1017.67 193.357 1021.23 Q195.186 1024.77 198.797 1024.77 Q202.431 1024.77 204.237 1021.23 Q206.066 1017.67 206.066 1010.56 Q206.066 1003.43 204.237 999.89 Q202.431 996.325 198.797 996.325 M198.797 992.622 Q204.607 992.622 207.663 997.228 Q210.741 1001.81 210.741 1010.56 Q210.741 1019.29 207.663 1023.89 Q204.607 1028.48 198.797 1028.48 Q192.987 1028.48 189.908 1023.89 Q186.853 1019.29 186.853 1010.56 Q186.853 1001.81 189.908 997.228 Q192.987 992.622 198.797 992.622 Z" fill="#000000" fill-rule="evenodd" fill-opacity="1" /><path clip-path="url(#clip1600)" d="M 0 0 M219.839 1023.87 L236.158 1023.87 L236.158 1027.81 L214.214 1027.81 L214.214 1023.87 Q216.876 1021.12 221.459 1016.49 Q226.065 1011.83 227.246 1010.49 Q229.491 1007.97 230.371 1006.23 Q231.274 1004.47 231.274 1002.78 Q231.274 1000.03 229.329 998.293 Q227.408 996.557 224.306 996.557 Q222.107 996.557 219.653 997.321 Q217.223 998.085 214.445 999.636 L214.445 994.913 Q217.269 993.779 219.723 993.2 Q222.177 992.622 224.214 992.622 Q229.584 992.622 232.778 995.307 Q235.973 997.992 235.973 1002.48 Q235.973 1004.61 235.163 1006.53 Q234.376 1008.43 232.269 1011.02 Q231.69 1011.7 228.589 1014.91 Q225.487 1018.11 219.839 1023.87 Z" fill="#000000" fill-rule="evenodd" fill-opacity="1" /><path clip-path="url(#clip1600)" d="M 0 0 M159.746 684.11 Q156.135 684.11 154.307 687.674 Q152.501 691.216 152.501 698.346 Q152.501 705.452 154.307 709.017 Q156.135 712.558 159.746 712.558 Q163.381 712.558 165.186 709.017 Q167.015 705.452 167.015 698.346 Q167.015 691.216 165.186 687.674 Q163.381 684.11 159.746 684.11 M159.746 680.406 Q165.556 680.406 168.612 685.012 Q171.691 689.596 171.691 698.346 Q171.691 707.072 168.612 711.679 Q165.556 716.262 159.746 716.262 Q153.936 716.262 150.857 711.679 Q147.802 707.072 147.802 698.346 Q147.802 689.596 150.857 685.012 Q153.936 680.406 159.746 680.406 Z" fill="#000000" fill-rule="evenodd" fill-opacity="1" /><path clip-path="url(#clip1600)" d="M 0 0 M176.76 709.711 L181.644 709.711 L181.644 715.591 L176.76 715.591 L176.76 709.711 Z" fill="#000000" fill-rule="evenodd" fill-opacity="1" /><path clip-path="url(#clip1600)" d="M 0 0 M196.714 684.11 Q193.103 684.11 191.274 687.674 Q189.468 691.216 189.468 698.346 Q189.468 705.452 191.274 709.017 Q193.103 712.558 196.714 712.558 Q200.348 712.558 202.153 709.017 Q203.982 705.452 203.982 698.346 Q203.982 691.216 202.153 687.674 Q200.348 684.11 196.714 684.11 M196.714 680.406 Q202.524 680.406 205.579 685.012 Q208.658 689.596 208.658 698.346 Q208.658 707.072 205.579 711.679 Q202.524 716.262 196.714 716.262 Q190.904 716.262 187.825 711.679 Q184.769 707.072 184.769 698.346 Q184.769 689.596 187.825 685.012 Q190.904 680.406 196.714 680.406 Z" fill="#000000" fill-rule="evenodd" fill-opacity="1" /><path clip-path="url(#clip1600)" d="M 0 0 M226.575 685.105 L214.769 703.554 L226.575 703.554 L226.575 685.105 M225.348 681.031 L231.227 681.031 L231.227 703.554 L236.158 703.554 L236.158 707.443 L231.227 707.443 L231.227 715.591 L226.575 715.591 L226.575 707.443 L210.973 707.443 L210.973 702.929 L225.348 681.031 Z" fill="#000000" fill-rule="evenodd" fill-opacity="1" /><path clip-path="url(#clip1600)" d="M 0 0 M160.07 371.894 Q156.459 371.894 154.631 375.459 Q152.825 379 152.825 386.13 Q152.825 393.236 154.631 396.801 Q156.459 400.343 160.07 400.343 Q163.705 400.343 165.51 396.801 Q167.339 393.236 167.339 386.13 Q167.339 379 165.51 375.459 Q163.705 371.894 160.07 371.894 M160.07 368.19 Q165.881 368.19 168.936 372.797 Q172.015 377.38 172.015 386.13 Q172.015 394.857 168.936 399.463 Q165.881 404.046 160.07 404.046 Q154.26 404.046 151.182 399.463 Q148.126 394.857 148.126 386.13 Q148.126 377.38 151.182 372.797 Q154.26 368.19 160.07 368.19 Z" fill="#000000" fill-rule="evenodd" fill-opacity="1" /><path clip-path="url(#clip1600)" d="M 0 0 M177.084 397.495 L181.968 397.495 L181.968 403.375 L177.084 403.375 L177.084 397.495 Z" fill="#000000" fill-rule="evenodd" fill-opacity="1" /><path clip-path="url(#clip1600)" d="M 0 0 M197.038 371.894 Q193.427 371.894 191.598 375.459 Q189.792 379 189.792 386.13 Q189.792 393.236 191.598 396.801 Q193.427 400.343 197.038 400.343 Q200.672 400.343 202.478 396.801 Q204.306 393.236 204.306 386.13 Q204.306 379 202.478 375.459 Q200.672 371.894 197.038 371.894 M197.038 368.19 Q202.848 368.19 205.903 372.797 Q208.982 377.38 208.982 386.13 Q208.982 394.857 205.903 399.463 Q202.848 404.046 197.038 404.046 Q191.228 404.046 188.149 399.463 Q185.093 394.857 185.093 386.13 Q185.093 377.38 188.149 372.797 Q191.228 368.19 197.038 368.19 Z" fill="#000000" fill-rule="evenodd" fill-opacity="1" /><path clip-path="url(#clip1600)" d="M 0 0 M224.63 384.232 Q221.482 384.232 219.63 386.384 Q217.802 388.537 217.802 392.287 Q217.802 396.014 219.63 398.19 Q221.482 400.343 224.63 400.343 Q227.778 400.343 229.607 398.19 Q231.459 396.014 231.459 392.287 Q231.459 388.537 229.607 386.384 Q227.778 384.232 224.63 384.232 M233.913 369.579 L233.913 373.838 Q232.153 373.005 230.348 372.565 Q228.565 372.125 226.806 372.125 Q222.177 372.125 219.723 375.25 Q217.292 378.375 216.945 384.695 Q218.311 382.681 220.371 381.616 Q222.431 380.528 224.908 380.528 Q230.116 380.528 233.126 383.699 Q236.158 386.847 236.158 392.287 Q236.158 397.611 233.01 400.829 Q229.862 404.046 224.63 404.046 Q218.635 404.046 215.464 399.463 Q212.292 394.857 212.292 386.13 Q212.292 377.935 216.181 373.074 Q220.07 368.19 226.621 368.19 Q228.38 368.19 230.163 368.537 Q231.968 368.884 233.913 369.579 Z" fill="#000000" fill-rule="evenodd" fill-opacity="1" /><path clip-path="url(#clip1600)" d="M 0 0 M877.051 45.1919 L877.051 72.576 L869.598 72.576 L869.598 45.4349 Q869.598 38.994 867.086 35.7938 Q864.574 32.5936 859.551 32.5936 Q853.515 32.5936 850.032 36.4419 Q846.548 40.2903 846.548 46.9338 L846.548 72.576 L839.054 72.576 L839.054 9.54393 L846.548 9.54393 L846.548 34.2544 Q849.222 30.163 852.827 28.1376 Q856.473 26.1121 861.212 26.1121 Q869.03 26.1121 873.041 30.9732 Q877.051 35.7938 877.051 45.1919 Z" fill="#000000" fill-rule="evenodd" fill-opacity="1" /><path clip-path="url(#clip1600)" d="M 0 0 M902.45 32.4315 Q896.455 32.4315 892.971 37.1306 Q889.487 41.7891 889.487 49.9314 Q889.487 58.0738 892.931 62.7728 Q896.415 67.4314 902.45 67.4314 Q908.405 67.4314 911.889 62.7323 Q915.373 58.0333 915.373 49.9314 Q915.373 41.8701 911.889 37.1711 Q908.405 32.4315 902.45 32.4315 M902.45 26.1121 Q912.173 26.1121 917.722 32.4315 Q923.272 38.7509 923.272 49.9314 Q923.272 61.0714 917.722 67.4314 Q912.173 73.7508 902.45 73.7508 Q892.688 73.7508 887.138 67.4314 Q881.629 61.0714 881.629 49.9314 Q881.629 38.7509 887.138 32.4315 Q892.688 26.1121 902.45 26.1121 Z" fill="#000000" fill-rule="evenodd" fill-opacity="1" /><path clip-path="url(#clip1600)" d="M 0 0 M925.743 27.2059 L933.642 27.2059 L947.821 65.2844 L961.999 27.2059 L969.898 27.2059 L952.884 72.576 L942.757 72.576 L925.743 27.2059 Z" fill="#000000" fill-rule="evenodd" fill-opacity="1" /><path clip-path="url(#clip1600)" d="M 0 0 M1016.52 48.0275 L1016.52 51.6733 L982.253 51.6733 Q982.739 59.3701 986.871 63.421 Q991.044 67.4314 998.457 67.4314 Q1002.75 67.4314 1006.76 66.3781 Q1010.81 65.3249 1014.78 63.2184 L1014.78 70.267 Q1010.77 71.9684 1006.56 72.8596 Q1002.35 73.7508 998.011 73.7508 Q987.155 73.7508 980.795 67.4314 Q974.475 61.1119 974.475 50.3365 Q974.475 39.1965 980.471 32.6746 Q986.507 26.1121 996.715 26.1121 Q1005.87 26.1121 1011.18 32.0264 Q1016.52 37.9003 1016.52 48.0275 M1009.07 45.84 Q1008.99 39.7232 1005.63 36.0774 Q1002.31 32.4315 996.796 32.4315 Q990.558 32.4315 986.79 35.9558 Q983.063 39.4801 982.496 45.8805 L1009.07 45.84 Z" fill="#000000" fill-rule="evenodd" fill-opacity="1" /><path clip-path="url(#clip1600)" d="M 0 0 M1050.63 34.1734 Q1049.38 33.4443 1047.88 33.1202 Q1046.42 32.7556 1044.64 32.7556 Q1038.32 32.7556 1034.91 36.8875 Q1031.55 40.9789 1031.55 48.6757 L1031.55 72.576 L1024.06 72.576 L1024.06 27.2059 L1031.55 27.2059 L1031.55 34.2544 Q1033.9 30.1225 1037.67 28.1376 Q1041.44 26.1121 1046.82 26.1121 Q1047.59 26.1121 1048.53 26.2337 Q1049.46 26.3147 1050.59 26.5172 L1050.63 34.1734 Z" fill="#000000" fill-rule="evenodd" fill-opacity="1" /><path clip-path="url(#clip1600)" d="M 0 0 M1049.38 46.5287 L1071.21 46.5287 L1071.21 53.1722 L1049.38 53.1722 L1049.38 46.5287 Z" fill="#000000" fill-rule="evenodd" fill-opacity="1" /><path clip-path="url(#clip1600)" d="M 0 0 M1081.5 65.6895 L1094.87 65.6895 L1094.87 19.5497 L1080.33 22.4663 L1080.33 15.0127 L1094.79 12.096 L1102.97 12.096 L1102.97 65.6895 L1116.34 65.6895 L1116.34 72.576 L1081.5 72.576 L1081.5 65.6895 Z" fill="#000000" fill-rule="evenodd" fill-opacity="1" /><path clip-path="url(#clip1600)" d="M 0 0 M1142.71 17.4837 Q1136.39 17.4837 1133.19 23.7221 Q1130.03 29.92 1130.03 42.3968 Q1130.03 54.833 1133.19 61.0714 Q1136.39 67.2693 1142.71 67.2693 Q1149.07 67.2693 1152.23 61.0714 Q1155.43 54.833 1155.43 42.3968 Q1155.43 29.92 1152.23 23.7221 Q1149.07 17.4837 1142.71 17.4837 M1142.71 11.0023 Q1152.88 11.0023 1158.22 19.0636 Q1163.61 27.0843 1163.61 42.3968 Q1163.61 57.6687 1158.22 65.73 Q1152.88 73.7508 1142.71 73.7508 Q1132.54 73.7508 1127.15 65.73 Q1121.81 57.6687 1121.81 42.3968 Q1121.81 27.0843 1127.15 19.0636 Q1132.54 11.0023 1142.71 11.0023 Z" fill="#000000" fill-rule="evenodd" fill-opacity="1" /><path clip-path="url(#clip1600)" d="M 0 0 M1194.03 46.5287 L1215.87 46.5287 L1215.87 53.1722 L1194.03 53.1722 L1194.03 46.5287 Z" fill="#000000" fill-rule="evenodd" fill-opacity="1" /><path clip-path="url(#clip1600)" d="M 0 0 M1270.6 20.1573 L1259.5 50.2555 L1281.74 50.2555 L1270.6 20.1573 M1265.98 12.096 L1275.26 12.096 L1298.3 72.576 L1289.8 72.576 L1284.29 57.061 L1257.03 57.061 L1251.52 72.576 L1242.89 72.576 L1265.98 12.096 Z" fill="#000000" fill-rule="evenodd" fill-opacity="1" /><path clip-path="url(#clip1600)" d="M 0 0 M1335.98 49.3643 Q1335.98 41.2625 1332.62 36.8065 Q1329.29 32.3505 1323.26 32.3505 Q1317.26 32.3505 1313.9 36.8065 Q1310.58 41.2625 1310.58 49.3643 Q1310.58 57.4256 1313.9 61.8816 Q1317.26 66.3376 1323.26 66.3376 Q1329.29 66.3376 1332.62 61.8816 Q1335.98 57.4256 1335.98 49.3643 M1343.43 66.9452 Q1343.43 78.5308 1338.29 84.1616 Q1333.14 89.8329 1322.53 89.8329 Q1318.6 89.8329 1315.12 89.2252 Q1311.63 88.6581 1308.35 87.4428 L1308.35 80.1917 Q1311.63 81.9741 1314.83 82.8248 Q1318.03 83.6755 1321.35 83.6755 Q1328.69 83.6755 1332.33 79.8271 Q1335.98 76.0193 1335.98 68.282 L1335.98 64.5957 Q1333.67 68.6061 1330.06 70.5911 Q1326.46 72.576 1321.44 72.576 Q1313.09 72.576 1307.99 66.2161 Q1302.88 59.8562 1302.88 49.3643 Q1302.88 38.832 1307.99 32.472 Q1313.09 26.1121 1321.44 26.1121 Q1326.46 26.1121 1330.06 28.0971 Q1333.67 30.082 1335.98 34.0924 L1335.98 27.2059 L1343.43 27.2059 L1343.43 66.9452 Z" fill="#000000" fill-rule="evenodd" fill-opacity="1" /><path clip-path="url(#clip1600)" d="M 0 0 M1390.06 48.0275 L1390.06 51.6733 L1355.79 51.6733 Q1356.27 59.3701 1360.41 63.421 Q1364.58 67.4314 1371.99 67.4314 Q1376.28 67.4314 1380.3 66.3781 Q1384.35 65.3249 1388.32 63.2184 L1388.32 70.267 Q1384.31 71.9684 1380.09 72.8596 Q1375.88 73.7508 1371.55 73.7508 Q1360.69 73.7508 1354.33 67.4314 Q1348.01 61.1119 1348.01 50.3365 Q1348.01 39.1965 1354 32.6746 Q1360.04 26.1121 1370.25 26.1121 Q1379.4 26.1121 1384.71 32.0264 Q1390.06 37.9003 1390.06 48.0275 M1382.6 45.84 Q1382.52 39.7232 1379.16 36.0774 Q1375.84 32.4315 1370.33 32.4315 Q1364.09 32.4315 1360.32 35.9558 Q1356.6 39.4801 1356.03 45.8805 L1382.6 45.84 Z" fill="#000000" fill-rule="evenodd" fill-opacity="1" /><path clip-path="url(#clip1600)" d="M 0 0 M1435.59 45.1919 L1435.59 72.576 L1428.14 72.576 L1428.14 45.4349 Q1428.14 38.994 1425.62 35.7938 Q1423.11 32.5936 1418.09 32.5936 Q1412.05 32.5936 1408.57 36.4419 Q1405.09 40.2903 1405.09 46.9338 L1405.09 72.576 L1397.59 72.576 L1397.59 27.2059 L1405.09 27.2059 L1405.09 34.2544 Q1407.76 30.163 1411.37 28.1376 Q1415.01 26.1121 1419.75 26.1121 Q1427.57 26.1121 1431.58 30.9732 Q1435.59 35.7938 1435.59 45.1919 Z" fill="#000000" fill-rule="evenodd" fill-opacity="1" /><path clip-path="url(#clip1600)" d="M 0 0 M1450.78 14.324 L1450.78 27.2059 L1466.13 27.2059 L1466.13 32.9987 L1450.78 32.9987 L1450.78 57.6282 Q1450.78 63.1779 1452.28 64.7578 Q1453.82 66.3376 1458.48 66.3376 L1466.13 66.3376 L1466.13 72.576 L1458.48 72.576 Q1449.85 72.576 1446.57 69.3758 Q1443.29 66.1351 1443.29 57.6282 L1443.29 32.9987 L1437.82 32.9987 L1437.82 27.2059 L1443.29 27.2059 L1443.29 14.324 L1450.78 14.324 Z" fill="#000000" fill-rule="evenodd" fill-opacity="1" /><path clip-path="url(#clip1600)" d="M 0 0 M1536.9 14.0809 L1536.9 22.0612 Q1532.24 19.8332 1528.11 18.7395 Q1523.98 17.6457 1520.13 17.6457 Q1513.45 17.6457 1509.8 20.2383 Q1506.2 22.8309 1506.2 27.611 Q1506.2 31.6214 1508.59 33.6873 Q1511.02 35.7128 1517.74 36.9686 L1522.68 37.9813 Q1531.84 39.7232 1536.17 44.1387 Q1540.55 48.5136 1540.55 55.8863 Q1540.55 64.6767 1534.63 69.2137 Q1528.76 73.7508 1517.38 73.7508 Q1513.08 73.7508 1508.22 72.7785 Q1503.4 71.8063 1498.22 69.9024 L1498.22 61.4765 Q1503.2 64.2716 1507.98 65.6895 Q1512.76 67.1073 1517.38 67.1073 Q1524.39 67.1073 1528.19 64.3527 Q1532 61.598 1532 56.4939 Q1532 52.0379 1529.25 49.5264 Q1526.53 47.0148 1520.29 45.759 L1515.31 44.7868 Q1506.16 42.9639 1502.07 39.075 Q1497.97 35.1862 1497.97 28.2591 Q1497.97 20.2383 1503.6 15.6203 Q1509.28 11.0023 1519.2 11.0023 Q1523.45 11.0023 1527.87 11.7719 Q1532.28 12.5416 1536.9 14.0809 Z" fill="#000000" fill-rule="evenodd" fill-opacity="1" /><path clip-path="url(#clip1600)" d="M 0 0 M1555.74 14.324 L1555.74 27.2059 L1571.09 27.2059 L1571.09 32.9987 L1555.74 32.9987 L1555.74 57.6282 Q1555.74 63.1779 1557.24 64.7578 Q1558.78 66.3376 1563.44 66.3376 L1571.09 66.3376 L1571.09 72.576 L1563.44 72.576 Q1554.81 72.576 1551.53 69.3758 Q1548.25 66.1351 1548.25 57.6282 L1548.25 32.9987 L1542.78 32.9987 L1542.78 27.2059 L1548.25 27.2059 L1548.25 14.324 L1555.74 14.324 Z" fill="#000000" fill-rule="evenodd" fill-opacity="1" /><path clip-path="url(#clip1600)" d="M 0 0 M1599.53 49.7694 Q1590.5 49.7694 1587.01 51.8354 Q1583.53 53.9013 1583.53 58.8839 Q1583.53 62.8538 1586.12 65.2034 Q1588.75 67.5124 1593.25 67.5124 Q1599.45 67.5124 1603.18 63.1374 Q1606.94 58.7219 1606.94 51.4303 L1606.94 49.7694 L1599.53 49.7694 M1614.4 46.6907 L1614.4 72.576 L1606.94 72.576 L1606.94 65.6895 Q1604.39 69.8214 1600.58 71.8063 Q1596.78 73.7508 1591.27 73.7508 Q1584.3 73.7508 1580.17 69.8619 Q1576.08 65.9325 1576.08 59.3701 Q1576.08 51.7138 1581.18 47.825 Q1586.32 43.9361 1596.49 43.9361 L1606.94 43.9361 L1606.94 43.2069 Q1606.94 38.0623 1603.54 35.2672 Q1600.18 32.4315 1594.06 32.4315 Q1590.17 32.4315 1586.49 33.3632 Q1582.8 34.295 1579.4 36.1584 L1579.4 29.2718 Q1583.49 27.692 1587.34 26.9223 Q1591.19 26.1121 1594.83 26.1121 Q1604.67 26.1121 1609.54 31.2163 Q1614.4 36.3204 1614.4 46.6907 Z" fill="#000000" fill-rule="evenodd" fill-opacity="1" /><path clip-path="url(#clip1600)" d="M 0 0 M1629.59 14.324 L1629.59 27.2059 L1644.94 27.2059 L1644.94 32.9987 L1629.59 32.9987 L1629.59 57.6282 Q1629.59 63.1779 1631.09 64.7578 Q1632.63 66.3376 1637.28 66.3376 L1644.94 66.3376 L1644.94 72.576 L1637.28 72.576 Q1628.66 72.576 1625.37 69.3758 Q1622.09 66.1351 1622.09 57.6282 L1622.09 32.9987 L1616.62 32.9987 L1616.62 27.2059 L1622.09 27.2059 L1622.09 14.324 L1629.59 14.324 Z" fill="#000000" fill-rule="evenodd" fill-opacity="1" /><path clip-path="url(#clip1600)" d="M 0 0 M1691.57 48.0275 L1691.57 51.6733 L1657.3 51.6733 Q1657.78 59.3701 1661.91 63.421 Q1666.09 67.4314 1673.5 67.4314 Q1677.79 67.4314 1681.8 66.3781 Q1685.85 65.3249 1689.82 63.2184 L1689.82 70.267 Q1685.81 71.9684 1681.6 72.8596 Q1677.39 73.7508 1673.05 73.7508 Q1662.2 73.7508 1655.84 67.4314 Q1649.52 61.1119 1649.52 50.3365 Q1649.52 39.1965 1655.51 32.6746 Q1661.55 26.1121 1671.76 26.1121 Q1680.91 26.1121 1686.22 32.0264 Q1691.57 37.9003 1691.57 48.0275 M1684.11 45.84 Q1684.03 39.7232 1680.67 36.0774 Q1677.35 32.4315 1671.84 32.4315 Q1665.6 32.4315 1661.83 35.9558 Q1658.11 39.4801 1657.54 45.8805 L1684.11 45.84 Z" fill="#000000" fill-rule="evenodd" fill-opacity="1" /><path clip-path="url(#clip1600)" d="M 0 0 M1728.31 28.5427 L1728.31 35.5912 Q1725.15 33.9709 1721.75 33.1607 Q1718.34 32.3505 1714.7 32.3505 Q1709.15 32.3505 1706.35 34.0519 Q1703.6 35.7533 1703.6 39.156 Q1703.6 41.7486 1705.58 43.2475 Q1707.57 44.7058 1713.56 46.0426 L1716.12 46.6097 Q1724.05 48.3111 1727.38 51.4303 Q1730.74 54.509 1730.74 60.0587 Q1730.74 66.3781 1725.72 70.0644 Q1720.73 73.7508 1711.98 73.7508 Q1708.34 73.7508 1704.37 73.0216 Q1700.44 72.3329 1696.06 70.9151 L1696.06 63.2184 Q1700.19 65.3654 1704.21 66.4591 Q1708.22 67.5124 1712.15 67.5124 Q1717.41 67.5124 1720.25 65.73 Q1723.08 63.9071 1723.08 60.6258 Q1723.08 57.5877 1721.02 55.9673 Q1718.99 54.3469 1712.06 52.8481 L1709.47 52.2405 Q1702.54 50.7821 1699.47 47.7845 Q1696.39 44.7463 1696.39 39.4801 Q1696.39 33.0797 1700.92 29.5959 Q1705.46 26.1121 1713.81 26.1121 Q1717.94 26.1121 1721.58 26.7198 Q1725.23 27.3274 1728.31 28.5427 Z" fill="#000000" fill-rule="evenodd" fill-opacity="1" /><path clip-path="url(#clip1600)" d="M 0 0 M1789.8 17.6457 Q1780.89 17.6457 1775.62 24.2892 Q1770.4 30.9327 1770.4 42.3968 Q1770.4 53.8203 1775.62 60.4638 Q1780.89 67.1073 1789.8 67.1073 Q1798.71 67.1073 1803.9 60.4638 Q1809.12 53.8203 1809.12 42.3968 Q1809.12 30.9327 1803.9 24.2892 Q1798.71 17.6457 1789.8 17.6457 M1801.27 71.4823 L1812.04 83.2704 L1802.16 83.2704 L1793.2 73.5887 Q1791.87 73.6697 1791.14 73.7103 Q1790.45 73.7508 1789.8 73.7508 Q1777.04 73.7508 1769.38 65.2439 Q1761.77 56.6965 1761.77 42.3968 Q1761.77 28.0566 1769.38 19.5497 Q1777.04 11.0023 1789.8 11.0023 Q1802.52 11.0023 1810.14 19.5497 Q1817.75 28.0566 1817.75 42.3968 Q1817.75 52.9291 1813.5 60.4233 Q1809.29 67.9175 1801.27 71.4823 Z" fill="#000000" fill-rule="evenodd" fill-opacity="1" /><path clip-path="url(#clip1600)" d="M 0 0 M1838.98 54.2659 Q1842.71 54.9951 1844.73 57.2231 Q1846.8 59.4106 1846.8 62.7323 Q1846.8 67.7554 1842.95 70.4695 Q1839.1 73.1836 1831.93 73.1836 Q1829.62 73.1836 1827.07 72.738 Q1824.56 72.3329 1821.72 71.5228 L1821.72 66.6212 Q1823.83 67.7149 1826.22 68.2415 Q1828.65 68.7682 1831.36 68.7682 Q1835.78 68.7682 1838.21 67.1883 Q1840.64 65.5679 1840.64 62.7323 Q1840.64 59.7346 1838.37 58.1953 Q1836.14 56.6559 1831.77 56.6559 L1828.28 56.6559 L1828.28 52.281 L1832.09 52.281 Q1835.9 52.281 1837.84 51.0252 Q1839.83 49.7289 1839.83 47.2984 Q1839.83 44.9488 1837.8 43.7336 Q1835.78 42.4778 1831.93 42.4778 Q1830.31 42.4778 1828.24 42.8424 Q1826.18 43.2069 1822.9 44.1387 L1822.9 39.4801 Q1825.85 38.7915 1828.45 38.4269 Q1831.04 38.0623 1833.27 38.0623 Q1839.1 38.0623 1842.5 40.4523 Q1845.95 42.8424 1845.95 46.8528 Q1845.95 49.6479 1844.12 51.5923 Q1842.3 53.5368 1838.98 54.2659 Z" fill="#000000" fill-rule="evenodd" fill-opacity="1" /><path clip-path="url(#clip1600)" d="M 0 0 M1881.31 12.096 L1919.55 12.096 L1919.55 18.9825 L1889.49 18.9825 L1889.49 36.8875 L1918.3 36.8875 L1918.3 43.7741 L1889.49 43.7741 L1889.49 65.6895 L1920.28 65.6895 L1920.28 72.576 L1881.31 72.576 L1881.31 12.096 Z" fill="#000000" fill-rule="evenodd" fill-opacity="1" /><path clip-path="url(#clip1600)" d="M 0 0 M1954.39 34.1734 Q1953.13 33.4443 1951.63 33.1202 Q1950.18 32.7556 1948.39 32.7556 Q1942.07 32.7556 1938.67 36.8875 Q1935.31 40.9789 1935.31 48.6757 L1935.31 72.576 L1927.82 72.576 L1927.82 27.2059 L1935.31 27.2059 L1935.31 34.2544 Q1937.66 30.1225 1941.43 28.1376 Q1945.19 26.1121 1950.58 26.1121 Q1951.35 26.1121 1952.28 26.2337 Q1953.21 26.3147 1954.35 26.5172 L1954.39 34.1734 Z" fill="#000000" fill-rule="evenodd" fill-opacity="1" /><path clip-path="url(#clip1600)" d="M 0 0 M1987.04 34.1734 Q1985.78 33.4443 1984.28 33.1202 Q1982.83 32.7556 1981.04 32.7556 Q1974.72 32.7556 1971.32 36.8875 Q1967.96 40.9789 1967.96 48.6757 L1967.96 72.576 L1960.47 72.576 L1960.47 27.2059 L1967.96 27.2059 L1967.96 34.2544 Q1970.31 30.1225 1974.08 28.1376 Q1977.84 26.1121 1983.23 26.1121 Q1984 26.1121 1984.93 26.2337 Q1985.86 26.3147 1987 26.5172 L1987.04 34.1734 Z" fill="#000000" fill-rule="evenodd" fill-opacity="1" /><path clip-path="url(#clip1600)" d="M 0 0 M2010.62 32.4315 Q2004.62 32.4315 2001.14 37.1306 Q1997.65 41.7891 1997.65 49.9314 Q1997.65 58.0738 2001.1 62.7728 Q2004.58 67.4314 2010.62 67.4314 Q2016.57 67.4314 2020.05 62.7323 Q2023.54 58.0333 2023.54 49.9314 Q2023.54 41.8701 2020.05 37.1711 Q2016.57 32.4315 2010.62 32.4315 M2010.62 26.1121 Q2020.34 26.1121 2025.89 32.4315 Q2031.44 38.7509 2031.44 49.9314 Q2031.44 61.0714 2025.89 67.4314 Q2020.34 73.7508 2010.62 73.7508 Q2000.85 73.7508 1995.3 67.4314 Q1989.79 61.0714 1989.79 49.9314 Q1989.79 38.7509 1995.3 32.4315 Q2000.85 26.1121 2010.62 26.1121 Z" fill="#000000" fill-rule="evenodd" fill-opacity="1" /><path clip-path="url(#clip1600)" d="M 0 0 M2065.55 34.1734 Q2064.29 33.4443 2062.79 33.1202 Q2061.33 32.7556 2059.55 32.7556 Q2053.23 32.7556 2049.83 36.8875 Q2046.47 40.9789 2046.47 48.6757 L2046.47 72.576 L2038.97 72.576 L2038.97 27.2059 L2046.47 27.2059 L2046.47 34.2544 Q2048.82 30.1225 2052.58 28.1376 Q2056.35 26.1121 2061.74 26.1121 Q2062.51 26.1121 2063.44 26.2337 Q2064.37 26.3147 2065.51 26.5172 L2065.55 34.1734 Z" fill="#000000" fill-rule="evenodd" fill-opacity="1" /><path clip-path="url(#clip1600)" d="M 0 0 M1334.14 2298.26 L1374.34 2298.26 L1374.34 2303.67 L1357.47 2303.67 L1357.47 2345.78 L1351.01 2345.78 L1351.01 2303.67 L1334.14 2303.67 L1334.14 2298.26 Z" fill="#000000" fill-rule="evenodd" fill-opacity="1" /><path clip-path="url(#clip1600)" d="M 0 0 M1378.47 2310.14 L1384.33 2310.14 L1384.33 2345.78 L1378.47 2345.78 L1378.47 2310.14 M1378.47 2296.26 L1384.33 2296.26 L1384.33 2303.67 L1378.47 2303.67 L1378.47 2296.26 Z" fill="#000000" fill-rule="evenodd" fill-opacity="1" /><path clip-path="url(#clip1600)" d="M 0 0 M1418.23 2316.98 Q1420.42 2313.03 1423.48 2311.15 Q1426.53 2309.28 1430.67 2309.28 Q1436.24 2309.28 1439.27 2313.19 Q1442.29 2317.07 1442.29 2324.27 L1442.29 2345.78 L1436.4 2345.78 L1436.4 2324.46 Q1436.4 2319.33 1434.59 2316.85 Q1432.77 2314.37 1429.05 2314.37 Q1424.5 2314.37 1421.86 2317.39 Q1419.21 2320.42 1419.21 2325.64 L1419.21 2345.78 L1413.33 2345.78 L1413.33 2324.46 Q1413.33 2319.3 1411.51 2316.85 Q1409.7 2314.37 1405.91 2314.37 Q1401.42 2314.37 1398.78 2317.42 Q1396.14 2320.45 1396.14 2325.64 L1396.14 2345.78 L1390.25 2345.78 L1390.25 2310.14 L1396.14 2310.14 L1396.14 2315.67 Q1398.14 2312.4 1400.94 2310.84 Q1403.75 2309.28 1407.6 2309.28 Q1411.48 2309.28 1414.19 2311.25 Q1416.92 2313.22 1418.23 2316.98 Z" fill="#000000" fill-rule="evenodd" fill-opacity="1" /><path clip-path="url(#clip1600)" d="M 0 0 M1478.92 2326.5 L1478.92 2329.36 L1452 2329.36 Q1452.38 2335.41 1455.63 2338.59 Q1458.9 2341.74 1464.73 2341.74 Q1468.1 2341.74 1471.25 2340.91 Q1474.44 2340.09 1477.56 2338.43 L1477.56 2343.97 Q1474.4 2345.31 1471.09 2346.01 Q1467.78 2346.71 1464.38 2346.71 Q1455.85 2346.71 1450.85 2341.74 Q1445.89 2336.78 1445.89 2328.31 Q1445.89 2319.56 1450.6 2314.43 Q1455.34 2309.28 1463.36 2309.28 Q1470.55 2309.28 1474.72 2313.92 Q1478.92 2318.54 1478.92 2326.5 M1473.07 2324.78 Q1473 2319.97 1470.36 2317.11 Q1467.75 2314.24 1463.42 2314.24 Q1458.52 2314.24 1455.56 2317.01 Q1452.63 2319.78 1452.19 2324.81 L1473.07 2324.78 Z" fill="#000000" fill-rule="evenodd" fill-opacity="1" /><path clip-path="url(#clip1600)" d="M 0 0 M1519.86 2296.32 Q1515.59 2303.64 1513.52 2310.8 Q1511.45 2317.97 1511.45 2325.32 Q1511.45 2332.67 1513.52 2339.9 Q1515.62 2347.09 1519.86 2354.38 L1514.76 2354.38 Q1509.99 2346.9 1507.6 2339.67 Q1505.25 2332.45 1505.25 2325.32 Q1505.25 2318.22 1507.6 2311.03 Q1509.96 2303.83 1514.76 2296.32 L1519.86 2296.32 Z" fill="#000000" fill-rule="evenodd" fill-opacity="1" /><path clip-path="url(#clip1600)" d="M 0 0 M1548.72 2311.19 L1548.72 2316.72 Q1546.24 2315.45 1543.57 2314.81 Q1540.89 2314.18 1538.03 2314.18 Q1533.67 2314.18 1531.47 2315.51 Q1529.31 2316.85 1529.31 2319.53 Q1529.31 2321.56 1530.87 2322.74 Q1532.43 2323.89 1537.14 2324.94 L1539.14 2325.38 Q1545.38 2326.72 1547.99 2329.17 Q1550.63 2331.59 1550.63 2335.95 Q1550.63 2340.91 1546.69 2343.81 Q1542.77 2346.71 1535.9 2346.71 Q1533.03 2346.71 1529.91 2346.13 Q1526.83 2345.59 1523.39 2344.48 L1523.39 2338.43 Q1526.64 2340.12 1529.79 2340.98 Q1532.94 2341.81 1536.02 2341.81 Q1540.16 2341.81 1542.39 2340.4 Q1544.62 2338.97 1544.62 2336.39 Q1544.62 2334.01 1543 2332.73 Q1541.4 2331.46 1535.96 2330.28 L1533.92 2329.81 Q1528.48 2328.66 1526.06 2326.3 Q1523.64 2323.92 1523.64 2319.78 Q1523.64 2314.75 1527.21 2312.01 Q1530.77 2309.28 1537.33 2309.28 Q1540.58 2309.28 1543.44 2309.75 Q1546.31 2310.23 1548.72 2311.19 Z" fill="#000000" fill-rule="evenodd" fill-opacity="1" /><path clip-path="url(#clip1600)" d="M 0 0 M1555.85 2296.32 L1560.95 2296.32 Q1565.72 2303.83 1568.08 2311.03 Q1570.46 2318.22 1570.46 2325.32 Q1570.46 2332.45 1568.08 2339.67 Q1565.72 2346.9 1560.95 2354.38 L1555.85 2354.38 Q1560.09 2347.09 1562.16 2339.9 Q1564.26 2332.67 1564.26 2325.32 Q1564.26 2317.97 1562.16 2310.8 Q1560.09 2303.64 1555.85 2296.32 Z" fill="#000000" fill-rule="evenodd" fill-opacity="1" /><path clip-path="url(#clip1600)" d="M 0 0 M38.4242 1364.47 L38.4242 1334.42 L43.835 1334.42 L43.835 1358.04 L57.9032 1358.04 L57.9032 1335.41 L63.3141 1335.41 L63.3141 1358.04 L80.5333 1358.04 L80.5333 1333.85 L85.9442 1333.85 L85.9442 1364.47 L38.4242 1364.47 Z" fill="#000000" fill-rule="evenodd" fill-opacity="1" /><path clip-path="url(#clip1600)" d="M 0 0 M55.7707 1307.05 Q55.1978 1308.04 54.9432 1309.22 Q54.6567 1310.36 54.6567 1311.76 Q54.6567 1316.73 57.9032 1319.4 Q61.1179 1322.04 67.1653 1322.04 L85.9442 1322.04 L85.9442 1327.93 L50.2962 1327.93 L50.2962 1322.04 L55.8344 1322.04 Q52.5879 1320.2 51.0283 1317.24 Q49.4368 1314.28 49.4368 1310.04 Q49.4368 1309.44 49.5323 1308.71 Q49.596 1307.97 49.7551 1307.08 L55.7707 1307.05 Z" fill="#000000" fill-rule="evenodd" fill-opacity="1" /><path clip-path="url(#clip1600)" d="M 0 0 M55.7707 1281.4 Q55.1978 1282.38 54.9432 1283.56 Q54.6567 1284.71 54.6567 1286.11 Q54.6567 1291.07 57.9032 1293.75 Q61.1179 1296.39 67.1653 1296.39 L85.9442 1296.39 L85.9442 1302.28 L50.2962 1302.28 L50.2962 1296.39 L55.8344 1296.39 Q52.5879 1294.54 51.0283 1291.58 Q49.4368 1288.62 49.4368 1284.39 Q49.4368 1283.78 49.5323 1283.05 Q49.596 1282.32 49.7551 1281.43 L55.7707 1281.4 Z" fill="#000000" fill-rule="evenodd" fill-opacity="1" /><path clip-path="url(#clip1600)" d="M 0 0 M54.4021 1262.87 Q54.4021 1267.58 58.0942 1270.32 Q61.7545 1273.06 68.152 1273.06 Q74.5495 1273.06 78.2417 1270.35 Q81.9019 1267.62 81.9019 1262.87 Q81.9019 1258.19 78.2098 1255.46 Q74.5177 1252.72 68.152 1252.72 Q61.8181 1252.72 58.126 1255.46 Q54.4021 1258.19 54.4021 1262.87 M49.4368 1262.87 Q49.4368 1255.23 54.4021 1250.87 Q59.3673 1246.51 68.152 1246.51 Q76.9049 1246.51 81.9019 1250.87 Q86.8672 1255.23 86.8672 1262.87 Q86.8672 1270.54 81.9019 1274.9 Q76.9049 1279.23 68.152 1279.23 Q59.3673 1279.23 54.4021 1274.9 Q49.4368 1270.54 49.4368 1262.87 Z" fill="#000000" fill-rule="evenodd" fill-opacity="1" /><path clip-path="url(#clip1600)" d="M 0 0 M55.7707 1219.71 Q55.1978 1220.7 54.9432 1221.88 Q54.6567 1223.02 54.6567 1224.42 Q54.6567 1229.39 57.9032 1232.06 Q61.1179 1234.7 67.1653 1234.7 L85.9442 1234.7 L85.9442 1240.59 L50.2962 1240.59 L50.2962 1234.7 L55.8344 1234.7 Q52.5879 1232.86 51.0283 1229.9 Q49.4368 1226.94 49.4368 1222.71 Q49.4368 1222.1 49.5323 1221.37 Q49.596 1220.64 49.7551 1219.75 L55.7707 1219.71 Z" fill="#000000" fill-rule="evenodd" fill-opacity="1" /><path clip-path="url(#clip1600)" d="M 0 0 M42.7847 1173.31 Q42.7847 1180.31 48.0045 1184.45 Q53.2244 1188.55 62.2319 1188.55 Q71.2075 1188.55 76.4274 1184.45 Q81.6473 1180.31 81.6473 1173.31 Q81.6473 1166.3 76.4274 1162.23 Q71.2075 1158.13 62.2319 1158.13 Q53.2244 1158.13 48.0045 1162.23 Q42.7847 1166.3 42.7847 1173.31 M85.0848 1164.3 L94.3469 1155.83 L94.3469 1163.6 L86.7399 1170.63 Q86.8035 1171.68 86.8354 1172.26 Q86.8672 1172.8 86.8672 1173.31 Q86.8672 1183.33 80.1832 1189.35 Q73.4674 1195.33 62.2319 1195.33 Q50.9646 1195.33 44.2806 1189.35 Q37.5648 1183.33 37.5648 1173.31 Q37.5648 1163.31 44.2806 1157.33 Q50.9646 1151.35 62.2319 1151.35 Q70.5073 1151.35 76.3956 1154.69 Q82.2839 1158 85.0848 1164.3 Z" fill="#000000" fill-rule="evenodd" fill-opacity="1" /><path clip-path="url(#clip1600)" d="M 0 0 M71.5577 1134.67 Q72.1306 1131.74 73.8811 1130.15 Q75.5999 1128.52 78.2098 1128.52 Q82.1566 1128.52 84.2891 1131.55 Q86.4216 1134.57 86.4216 1140.21 Q86.4216 1142.02 86.0715 1144.03 Q85.7532 1146 85.1166 1148.23 L81.2654 1148.23 Q82.1247 1146.57 82.5385 1144.69 Q82.9523 1142.78 82.9523 1140.65 Q82.9523 1137.18 81.711 1135.27 Q80.4378 1133.36 78.2098 1133.36 Q75.8545 1133.36 74.645 1135.14 Q73.4355 1136.9 73.4355 1140.33 L73.4355 1143.07 L69.9981 1143.07 L69.9981 1140.08 Q69.9981 1137.09 69.0114 1135.56 Q67.9929 1134 66.0832 1134 Q64.2371 1134 63.2822 1135.59 Q62.2956 1137.18 62.2956 1140.21 Q62.2956 1141.48 62.582 1143.1 Q62.8685 1144.73 63.6005 1147.3 L59.9402 1147.3 Q59.3992 1144.98 59.1127 1142.94 Q58.8262 1140.91 58.8262 1139.16 Q58.8262 1134.57 60.7041 1131.9 Q62.582 1129.19 65.733 1129.19 Q67.9292 1129.19 69.457 1130.63 Q70.9847 1132.06 71.5577 1134.67 Z" fill="#000000" fill-rule="evenodd" fill-opacity="1" /><path clip-path="url(#clip1600)" d="M 0 0 M36.4826 1087.59 Q43.8032 1091.86 50.9646 1093.93 Q58.126 1096 65.4784 1096 Q72.8308 1096 80.0559 1093.93 Q87.2491 1091.83 94.5379 1087.59 L94.5379 1092.69 Q87.0582 1097.46 79.8331 1099.85 Q72.608 1102.2 65.4784 1102.2 Q58.3806 1102.2 51.1874 1099.85 Q43.9942 1097.49 36.4826 1092.69 L36.4826 1087.59 Z" fill="#000000" fill-rule="evenodd" fill-opacity="1" /><path clip-path="url(#clip1600)" d="M 0 0 M55.7707 1060.79 Q55.1978 1061.78 54.9432 1062.96 Q54.6567 1064.1 54.6567 1065.5 Q54.6567 1070.47 57.9032 1073.14 Q61.1179 1075.78 67.1653 1075.78 L85.9442 1075.78 L85.9442 1081.67 L50.2962 1081.67 L50.2962 1075.78 L55.8344 1075.78 Q52.5879 1073.94 51.0283 1070.98 Q49.4368 1068.02 49.4368 1063.79 Q49.4368 1063.18 49.5323 1062.45 Q49.596 1061.72 49.7551 1060.83 L55.7707 1060.79 Z" fill="#000000" fill-rule="evenodd" fill-opacity="1" /><path clip-path="url(#clip1600)" d="M 0 0 M68.0247 1038.45 Q68.0247 1045.55 69.6479 1048.28 Q71.2712 1051.02 75.1861 1051.02 Q78.3053 1051.02 80.1514 1048.99 Q81.9656 1046.92 81.9656 1043.38 Q81.9656 1038.51 78.5281 1035.59 Q75.0588 1032.63 69.3297 1032.63 L68.0247 1032.63 L68.0247 1038.45 M65.6057 1026.77 L85.9442 1026.77 L85.9442 1032.63 L80.5333 1032.63 Q83.7798 1034.63 85.3394 1037.62 Q86.8672 1040.61 86.8672 1044.94 Q86.8672 1050.42 83.8116 1053.66 Q80.7243 1056.88 75.5681 1056.88 Q69.5525 1056.88 66.4969 1052.87 Q63.4414 1048.83 63.4414 1040.84 L63.4414 1032.63 L62.8685 1032.63 Q58.8262 1032.63 56.6301 1035.3 Q54.4021 1037.94 54.4021 1042.75 Q54.4021 1045.8 55.1341 1048.7 Q55.8662 1051.59 57.3303 1054.27 L51.9195 1054.27 Q50.6781 1051.05 50.0734 1048.03 Q49.4368 1045.01 49.4368 1042.14 Q49.4368 1034.41 53.4472 1030.59 Q57.4576 1026.77 65.6057 1026.77 Z" fill="#000000" fill-rule="evenodd" fill-opacity="1" /><path clip-path="url(#clip1600)" d="M 0 0 M55.7071 997.168 L36.419 997.168 L36.419 991.312 L85.9442 991.312 L85.9442 997.168 L80.597 997.168 Q83.7798 999.014 85.3394 1001.85 Q86.8672 1004.65 86.8672 1008.59 Q86.8672 1015.06 81.711 1019.13 Q76.5547 1023.17 68.152 1023.17 Q59.7493 1023.17 54.5931 1019.13 Q49.4368 1015.06 49.4368 1008.59 Q49.4368 1004.65 50.9964 1001.85 Q52.5242 999.014 55.7071 997.168 M68.152 1017.12 Q74.6132 1017.12 78.3053 1014.48 Q81.9656 1011.81 81.9656 1007.16 Q81.9656 1002.52 78.3053 999.842 Q74.6132 997.168 68.152 997.168 Q61.6908 997.168 58.0305 999.842 Q54.3384 1002.52 54.3384 1007.16 Q54.3384 1011.81 58.0305 1014.48 Q61.6908 1017.12 68.152 1017.12 Z" fill="#000000" fill-rule="evenodd" fill-opacity="1" /><path clip-path="url(#clip1600)" d="M 0 0 M36.4826 986.092 L36.4826 980.999 Q43.9942 976.225 51.1874 973.87 Q58.3806 971.483 65.4784 971.483 Q72.608 971.483 79.8331 973.87 Q87.0582 976.225 94.5379 980.999 L94.5379 986.092 Q87.2491 981.859 80.0559 979.79 Q72.8308 977.689 65.4784 977.689 Q58.126 977.689 50.9646 979.79 Q43.8032 981.859 36.4826 986.092 Z" fill="#000000" fill-rule="evenodd" fill-opacity="1" /><polyline clip-path="url(#clip1602)" style="stroke:#009af9; stroke-width:16; stroke-opacity:1; fill:none" points="
  335.185,1322.74 357.527,1371.05 379.869,1458.61 402.212,1534.05 424.554,1602.14 446.896,1660.24 469.239,1706.18 491.581,1738.82 513.923,1758.08 536.266,1764.58 
  558.608,1759.54 580.95,1744.64 603.292,1721.69 625.635,1692.52 647.977,1658.84 670.319,1622.21 692.662,1584 715.004,1545.38 737.346,1507.32 759.689,1470.65 
  782.031,1435.98 804.373,1403.84 826.715,1374.59 849.058,1348.5 871.4,1325.74 893.742,1306.42 916.085,1290.56 938.427,1278.2 960.769,1269.27 983.112,1263.74 
  1005.45,1261.51 1027.8,1262.54 1050.14,1266.66 1072.48,1269.77 1094.82,1274.21 1117.17,1282.34 1139.51,1290.51 1161.85,1298.59 1184.19,1306.45 1206.53,1314.02 
  1228.88,1321.18 1251.22,1327.89 1273.56,1334.07 1295.9,1339.68 1318.25,1344.69 1340.59,1349.07 1362.93,1352.8 1385.27,1355.9 1407.62,1358.35 1429.96,1360.19 
  1452.3,1361.42 1474.64,1362.08 1496.98,1362.2 1519.33,1361.82 1541.67,1360.98 1564.01,1359.73 1586.35,1358.11 1608.7,1356.17 1631.04,1353.97 1653.38,1351.55 
  1675.72,1348.98 1698.07,1346.29 1720.41,1343.55 1742.75,1340.79 1765.09,1338.07 1787.43,1335.43 1809.78,1332.91 1832.12,1330.55 1854.46,1328.37 1876.8,1326.41 
  1899.15,1324.68 1921.49,1323.22 1943.83,1322.02 1966.17,1321.11 1988.52,1320.47 2010.86,1320.11 2033.2,1320.03 2055.54,1320.21 2077.88,1320.64 2100.23,1321.29 
  2122.57,1322.15 2144.91,1323.19 2167.25,1324.39 2189.6,1325.72 2211.94,1327.14 2234.28,1328.64 2256.62,1330.17 2278.96,1331.72 2301.31,1333.25 2323.65,1334.74 
  2345.99,1336.17 2368.33,1337.5 2390.68,1338.73 2413.02,1339.84 2435.36,1340.81 2457.7,1341.64 2480.05,1342.31 2502.39,1342.83 2524.73,1343.19 2547.07,1343.4 
  2569.41,1343.46 
  "/>
<polyline clip-path="url(#clip1602)" style="stroke:#e26f46; stroke-width:16; stroke-opacity:1; fill:none" points="
  335.185,1322.74 357.527,1264.02 379.869,1262.86 402.212,1405.7 424.554,1577.47 446.896,1741.38 469.239,1883.15 491.581,1996.6 513.923,2078.39 536.266,2127.73 
  558.608,2146.22 580.95,2136.79 603.292,2103.12 625.635,2049.21 647.977,1979.07 670.319,1896.54 692.662,1805.18 715.004,1708.16 737.346,1608.36 759.689,1508.21 
  782.031,1409.91 804.373,1315.31 826.715,1226.14 849.058,1143.84 871.4,1069.9 893.742,1005.55 916.085,952.255 938.427,911.216 960.769,884.036 983.112,872.011 
  1005.45,877.043 1027.8,900.578 1050.14,944.672 1072.48,975.919 1094.82,1007.5 1117.17,1060.84 1139.51,1107.52 1161.85,1147.99 1184.19,1182.86 1206.53,1212.55 
  1228.88,1237.62 1251.22,1258.48 1273.56,1275.63 1295.9,1289.47 1318.25,1300.41 1340.59,1308.8 1362.93,1315 1385.27,1319.31 1407.62,1322.02 1429.96,1323.36 
  1452.3,1323.59 1474.64,1322.91 1496.98,1321.49 1519.33,1319.51 1541.67,1317.11 1564.01,1314.41 1586.35,1311.53 1608.7,1308.57 1631.04,1305.61 1653.38,1302.71 
  1675.72,1299.94 1698.07,1297.36 1720.41,1294.99 1742.75,1292.88 1765.09,1291.04 1787.43,1289.5 1809.78,1288.28 1832.12,1287.36 1854.46,1286.76 1876.8,1286.47 
  1899.15,1286.48 1921.49,1286.78 1943.83,1287.34 1966.17,1288.14 1988.52,1289.15 2010.86,1290.35 2033.2,1291.68 2055.54,1293.12 2077.88,1294.61 2100.23,1296.12 
  2122.57,1297.6 2144.91,1298.99 2167.25,1300.25 2189.6,1301.32 2211.94,1302.17 2234.28,1302.75 2256.62,1303.03 2278.96,1302.97 2301.31,1302.55 2323.65,1301.75 
  2345.99,1300.59 2368.33,1299.07 2390.68,1297.23 2413.02,1295.11 2435.36,1292.8 2457.7,1290.37 2480.05,1287.97 2502.39,1285.73 2524.73,1283.84 2547.07,1282.5 
  2569.41,1281.97 
  "/>
<polyline clip-path="url(#clip1602)" style="stroke:#3da44d; stroke-width:16; stroke-opacity:1; fill:none" points="
  335.185,1322.74 357.527,1117.62 379.869,762.465 402.212,509.737 424.554,340.639 446.896,239.489 469.239,193.589 491.581,189.727 513.923,218.367 536.266,271.837 
  558.608,344.046 580.95,429.827 603.292,524.96 625.635,626.002 647.977,730.177 670.319,835.225 692.662,939.319 715.004,1040.95 737.346,1138.9 759.689,1232.14 
  782.031,1319.83 804.373,1401.2 826.715,1475.65 849.058,1542.52 871.4,1601.3 893.742,1651.26 916.085,1691.87 938.427,1722.2 960.769,1741.58 983.112,1748.73 
  1005.45,1742.81 1027.8,1722.08 1050.14,1685.66 1072.48,1661.14 1094.82,1634.2 1117.17,1589.68 1139.51,1551.7 1161.85,1519.5 1184.19,1492.66 1206.53,1470.51 
  1228.88,1452.58 1251.22,1438.28 1273.56,1427.11 1295.9,1418.57 1318.25,1412.23 1340.59,1407.65 1362.93,1404.47 1385.27,1402.34 1407.62,1400.99 1429.96,1400.15 
  1452.3,1399.61 1474.64,1399.19 1496.98,1398.75 1519.33,1398.15 1541.67,1397.33 1564.01,1396.21 1586.35,1394.76 1608.7,1392.95 1631.04,1390.79 1653.38,1388.28 
  1675.72,1385.45 1698.07,1382.35 1720.41,1379 1742.75,1375.46 1765.09,1371.79 1787.43,1368.04 1809.78,1364.26 1832.12,1360.52 1854.46,1356.87 1876.8,1353.36 
  1899.15,1350.04 1921.49,1346.95 1943.83,1344.14 1966.17,1341.64 1988.52,1339.48 2010.86,1337.68 2033.2,1336.26 2055.54,1335.25 2077.88,1334.63 2100.23,1334.44 
  2122.57,1334.66 2144.91,1335.29 2167.25,1336.33 2189.6,1337.77 2211.94,1339.59 2234.28,1341.78 2256.62,1344.31 2278.96,1347.17 2301.31,1350.31 2323.65,1353.7 
  2345.99,1357.31 2368.33,1361.06 2390.68,1364.91 2413.02,1368.77 2435.36,1372.56 2457.7,1376.18 2480.05,1379.51 2502.39,1382.41 2524.73,1384.73 2547.07,1386.28 
  2569.41,1386.85 
  "/>
<polyline clip-path="url(#clip1602)" style="stroke:#c271d2; stroke-width:16; stroke-opacity:1; fill:none" points="
  335.185,1322.74 357.527,1311.08 379.869,1276.1 402.212,1224.41 424.554,1167.15 446.896,1111.87 469.239,1063.64 491.581,1025.94 513.923,1000.61 536.266,988.242 
  558.608,988.54 580.95,1000.56 603.292,1023.07 625.635,1054.65 647.977,1093.8 670.319,1138.99 692.662,1188.69 715.004,1241.48 737.346,1295.95 759.689,1350.87 
  782.031,1404.97 804.373,1457.25 826.715,1506.55 849.058,1552.06 871.4,1592.63 893.742,1627.61 916.085,1655.74 938.427,1676.48 960.769,1688.31 983.112,1690.78 
  1005.45,1681.93 1027.8,1661.47 1050.14,1627.03 1072.48,1602.35 1094.82,1580.61 1117.17,1543.78 1139.51,1512.05 1161.85,1485.3 1184.19,1462.79 1206.53,1444.32 
  1228.88,1429.23 1251.22,1417.26 1273.56,1407.85 1295.9,1400.71 1318.25,1395.38 1340.59,1391.57 1362.93,1388.92 1385.27,1387.18 1407.62,1386.08 1429.96,1385.39 
  1452.3,1384.92 1474.64,1384.52 1496.98,1384.05 1519.33,1383.42 1541.67,1382.54 1564.01,1381.35 1586.35,1379.84 1608.7,1377.99 1631.04,1375.8 1653.38,1373.29 
  1675.72,1370.49 1698.07,1367.44 1720.41,1364.18 1742.75,1360.77 1765.09,1357.26 1787.43,1353.7 1809.78,1350.15 1832.12,1346.66 1854.46,1343.27 1876.8,1340.05 
  1899.15,1337.02 1921.49,1334.22 1943.83,1331.7 1966.17,1329.47 1988.52,1327.56 2010.86,1325.99 2033.2,1324.77 2055.54,1323.91 2077.88,1323.42 2100.23,1323.3 
  2122.57,1323.54 2144.91,1324.14 2167.25,1325.1 2189.6,1326.38 2211.94,1327.99 2234.28,1329.91 2256.62,1332.1 2278.96,1334.55 2301.31,1337.22 2323.65,1340.09 
  2345.99,1343.11 2368.33,1346.23 2390.68,1349.41 2413.02,1352.58 2435.36,1355.68 2457.7,1358.62 2480.05,1361.3 2502.39,1363.63 2524.73,1365.48 2547.07,1366.72 
  2569.41,1367.18 
  "/>
<polyline clip-path="url(#clip1602)" style="stroke:#ac8d18; stroke-width:16; stroke-opacity:1; fill:none" points="
  335.185,1322.74 357.527,1294.86 379.869,1247.23 402.212,1213.86 424.554,1190.99 446.896,1176.09 469.239,1167.79 491.581,1165.03 513.923,1166.94 536.266,1172.68 
  558.608,1181.4 580.95,1192.31 603.292,1204.66 625.635,1217.85 647.977,1231.36 670.319,1244.8 692.662,1257.87 715.004,1270.36 737.346,1282.14 759.689,1293.13 
  782.031,1303.29 804.373,1312.6 826.715,1321.06 849.058,1328.68 871.4,1335.44 893.742,1341.33 916.085,1346.29 938.427,1350.26 960.769,1353.13 983.112,1354.77 
  1005.45,1355.02 1027.8,1353.65 1050.14,1350.5 1072.48,1348.22 1094.82,1345.64 1117.17,1341.79 1139.51,1339.17 1161.85,1337.58 1184.19,1336.88 1206.53,1336.91 
  1228.88,1337.53 1251.22,1338.57 1273.56,1339.92 1295.9,1341.45 1318.25,1343.04 1340.59,1344.59 1362.93,1346.02 1385.27,1347.25 1407.62,1348.23 1429.96,1348.91 
  1452.3,1349.26 1474.64,1349.25 1496.98,1348.87 1519.33,1348.14 1541.67,1347.04 1564.01,1345.6 1586.35,1343.85 1608.7,1341.81 1631.04,1339.53 1653.38,1337.03 
  1675.72,1334.36 1698.07,1331.56 1720.41,1328.69 1742.75,1325.79 1765.09,1322.89 1787.43,1320.05 1809.78,1317.31 1832.12,1314.7 1854.46,1312.26 1876.8,1310.03 
  1899.15,1308.01 1921.49,1306.25 1943.83,1304.75 1966.17,1303.53 1988.52,1302.59 2010.86,1301.93 2033.2,1301.55 2055.54,1301.45 2077.88,1301.6 2100.23,1302 
  2122.57,1302.62 2144.91,1303.45 2167.25,1304.45 2189.6,1305.6 2211.94,1306.87 2234.28,1308.24 2256.62,1309.67 2278.96,1311.13 2301.31,1312.61 2323.65,1314.07 
  2345.99,1315.48 2368.33,1316.83 2390.68,1318.09 2413.02,1319.25 2435.36,1320.29 2457.7,1321.19 2480.05,1321.94 2502.39,1322.53 2524.73,1322.96 2547.07,1323.22 
  2569.41,1323.32 
  "/>
<polyline clip-path="url(#clip1602)" style="stroke:#00a9ad; stroke-width:16; stroke-opacity:1; fill:none" points="
  335.185,1322.74 357.527,1235.57 379.869,1082.79 402.212,971.252 424.554,895.248 446.896,848.615 469.239,826.466 491.581,824.364 513.923,838.481 536.266,865.231 
  558.608,901.314 580.95,943.778 603.292,990.127 625.635,1038.32 647.977,1086.73 670.319,1134.13 692.662,1179.6 715.004,1222.51 737.346,1262.42 759.689,1299.07 
  782.031,1332.29 804.373,1362.01 826.715,1388.2 849.058,1410.85 871.4,1429.95 893.742,1445.48 916.085,1457.37 938.427,1465.53 960.769,1469.81 983.112,1469.99 
  1005.45,1465.82 1027.8,1456.92 1050.14,1443.01 1072.48,1433.69 1094.82,1423.28 1117.17,1406.11 1139.51,1391.71 1161.85,1379.81 1184.19,1370.19 1206.53,1362.59 
  1228.88,1356.77 1251.22,1352.46 1273.56,1349.42 1295.9,1347.43 1318.25,1346.27 1340.59,1345.74 1362.93,1345.65 1385.27,1345.84 1407.62,1346.17 1429.96,1346.52 
  1452.3,1346.79 1474.64,1346.89 1496.98,1346.77 1519.33,1346.38 1541.67,1345.69 1564.01,1344.68 1586.35,1343.36 1608.7,1341.74 1631.04,1339.84 1653.38,1337.69 
  1675.72,1335.32 1698.07,1332.78 1720.41,1330.11 1742.75,1327.35 1765.09,1324.56 1787.43,1321.78 1809.78,1319.06 1832.12,1316.43 1854.46,1313.95 1876.8,1311.63 
  1899.15,1309.52 1921.49,1307.64 1943.83,1306.02 1966.17,1304.66 1988.52,1303.58 2010.86,1302.78 2033.2,1302.28 2055.54,1302.05 2077.88,1302.1 2100.23,1302.41 
  2122.57,1302.96 2144.91,1303.75 2167.25,1304.74 2189.6,1305.92 2211.94,1307.25 2234.28,1308.72 2256.62,1310.29 2278.96,1311.94 2301.31,1313.64 2323.65,1315.37 
  2345.99,1317.08 2368.33,1318.77 2390.68,1320.39 2413.02,1321.93 2435.36,1323.36 2457.7,1324.65 2480.05,1325.76 2502.39,1326.69 2524.73,1327.39 2547.07,1327.84 
  2569.41,1328.01 
  "/>
<polyline clip-path="url(#clip1602)" style="stroke:#ed5d92; stroke-width:16; stroke-opacity:1; fill:none" points="
  335.185,1322.74 357.527,1280.88 379.869,1207.92 402.212,1155.91 424.554,1122.5 446.896,1104.27 469.239,1097.9 491.581,1100.43 513.923,1109.53 536.266,1123.25 
  558.608,1140.04 580.95,1158.69 603.292,1178.27 625.635,1198.07 647.977,1217.57 670.319,1236.38 692.662,1254.24 715.004,1270.97 737.346,1286.46 759.689,1300.64 
  782.031,1313.51 804.373,1325.06 826.715,1335.29 849.058,1344.23 871.4,1351.86 893.742,1358.19 916.085,1363.17 938.427,1366.75 960.769,1368.82 983.112,1369.26 
  1005.45,1367.9 1027.8,1364.56 1050.14,1359.03 1072.48,1355.23 1094.82,1351.03 1117.17,1344.41 1139.51,1339.36 1161.85,1335.71 1184.19,1333.29 1206.53,1331.92 
  1228.88,1331.42 1251.22,1331.62 1273.56,1332.36 1295.9,1333.48 1318.25,1334.86 1340.59,1336.35 1362.93,1337.85 1385.27,1339.26 1407.62,1340.5 1429.96,1341.5 
  1452.3,1342.2 1474.64,1342.57 1496.98,1342.58 1519.33,1342.23 1541.67,1341.51 1564.01,1340.43 1586.35,1339.01 1608.7,1337.28 1631.04,1335.28 1653.38,1333.05 
  1675.72,1330.62 1698.07,1328.05 1720.41,1325.38 1742.75,1322.67 1765.09,1319.95 1787.43,1317.27 1809.78,1314.69 1832.12,1312.22 1854.46,1309.93 1876.8,1307.82 
  1899.15,1305.94 1921.49,1304.3 1943.83,1302.92 1966.17,1301.81 1988.52,1300.98 2010.86,1300.42 2033.2,1300.14 2055.54,1300.13 2077.88,1300.37 2100.23,1300.85 
  2122.57,1301.54 2144.91,1302.43 2167.25,1303.49 2189.6,1304.69 2211.94,1306.01 2234.28,1307.42 2256.62,1308.88 2278.96,1310.37 2301.31,1311.87 2323.65,1313.34 
  2345.99,1314.76 2368.33,1316.11 2390.68,1317.37 2413.02,1318.51 2435.36,1319.53 2457.7,1320.42 2480.05,1321.15 2502.39,1321.73 2524.73,1322.14 2547.07,1322.39 
  2569.41,1322.48 
  "/>
<polyline clip-path="url(#clip1602)" style="stroke:#c68125; stroke-width:16; stroke-opacity:1; fill:none" points="
  335.185,1322.74 357.527,1328.4 379.869,1336.13 402.212,1337.36 424.554,1334.17 446.896,1328.51 469.239,1321.37 491.581,1313.41 513.923,1305.01 536.266,1296.39 
  558.608,1287.69 580.95,1279 603.292,1270.37 625.635,1261.88 647.977,1253.59 670.319,1245.6 692.662,1238.03 715.004,1231.01 737.346,1224.69 759.689,1219.22 
  782.031,1214.74 804.373,1211.38 826.715,1209.22 849.058,1208.33 871.4,1208.74 893.742,1210.43 916.085,1213.35 938.427,1217.38 960.769,1222.38 983.112,1228.17 
  1005.45,1234.49 1027.8,1241.1 1050.14,1247.67 1072.48,1251.16 1094.82,1254.92 1117.17,1262.11 1139.51,1269.79 1161.85,1277.79 1184.19,1285.86 1206.53,1293.87 
  1228.88,1301.64 1251.22,1309.04 1273.56,1315.97 1295.9,1322.34 1318.25,1328.09 1340.59,1333.17 1362.93,1337.55 1385.27,1341.22 1407.62,1344.19 1429.96,1346.46 
  1452.3,1348.06 1474.64,1349.03 1496.98,1349.39 1519.33,1349.19 1541.67,1348.48 1564.01,1347.32 1586.35,1345.74 1608.7,1343.81 1631.04,1341.58 1653.38,1339.1 
  1675.72,1336.43 1698.07,1333.63 1720.41,1330.75 1742.75,1327.84 1765.09,1324.94 1787.43,1322.11 1809.78,1319.39 1832.12,1316.82 1854.46,1314.44 1876.8,1312.26 
  1899.15,1310.33 1921.49,1308.67 1943.83,1307.28 1966.17,1306.17 1988.52,1305.37 2010.86,1304.85 2033.2,1304.63 2055.54,1304.68 2077.88,1304.99 2100.23,1305.55 
  2122.57,1306.34 2144.91,1307.32 2167.25,1308.47 2189.6,1309.77 2211.94,1311.18 2234.28,1312.67 2256.62,1314.22 2278.96,1315.79 2301.31,1317.36 2323.65,1318.89 
  2345.99,1320.37 2368.33,1321.77 2390.68,1323.07 2413.02,1324.25 2435.36,1325.29 2457.7,1326.19 2480.05,1326.94 2502.39,1327.52 2524.73,1327.94 2547.07,1328.19 
  2569.41,1328.28 
  "/>
<polyline clip-path="url(#clip1602)" style="stroke:#00a98d; stroke-width:16; stroke-opacity:1; fill:none" points="
  335.185,1322.74 357.527,1319.5 379.869,1314.91 402.212,1313.56 424.554,1314.82 446.896,1318.15 469.239,1322.76 491.581,1327.85 513.923,1332.77 536.266,1337.06 
  558.608,1340.41 580.95,1342.71 603.292,1343.93 625.635,1344.16 647.977,1343.51 670.319,1342.14 692.662,1340.21 715.004,1337.85 737.346,1335.23 759.689,1332.46 
  782.031,1329.66 804.373,1326.92 826.715,1324.31 849.058,1321.91 871.4,1319.76 893.742,1317.88 916.085,1316.31 938.427,1315.05 960.769,1314.1 983.112,1313.45 
  1005.45,1313.06 1027.8,1312.92 1050.14,1312.96 1072.48,1313.04 1094.82,1313.54 1117.17,1314.81 1139.51,1316.64 1161.85,1318.92 1184.19,1321.57 1206.53,1324.5 
  1228.88,1327.6 1251.22,1330.79 1273.56,1333.98 1295.9,1337.09 1318.25,1340.04 1340.59,1342.77 1362.93,1345.21 1385.27,1347.32 1407.62,1349.06 1429.96,1350.38 
  1452.3,1351.29 1474.64,1351.76 1496.98,1351.79 1519.33,1351.4 1541.67,1350.6 1564.01,1349.42 1586.35,1347.89 1608.7,1346.06 1631.04,1343.96 1653.38,1341.64 
  1675.72,1339.15 1698.07,1336.54 1720.41,1333.87 1742.75,1331.17 1765.09,1328.5 1787.43,1325.91 1809.78,1323.43 1832.12,1321.1 1854.46,1318.96 1876.8,1317.03 
  1899.15,1315.34 1921.49,1313.9 1943.83,1312.74 1966.17,1311.84 1988.52,1311.23 2010.86,1310.9 2033.2,1310.83 2055.54,1311.02 2077.88,1311.45 2100.23,1312.11 
  2122.57,1312.97 2144.91,1314 2167.25,1315.19 2189.6,1316.49 2211.94,1317.89 2234.28,1319.35 2256.62,1320.85 2278.96,1322.35 2301.31,1323.82 2323.65,1325.25 
  2345.99,1326.6 2368.33,1327.87 2390.68,1329.02 2413.02,1330.05 2435.36,1330.94 2457.7,1331.68 2480.05,1332.28 2502.39,1332.73 2524.73,1333.04 2547.07,1333.21 
  2569.41,1333.27 
  "/>
<polyline clip-path="url(#clip1602)" style="stroke:#8e971d; stroke-width:16; stroke-opacity:1; fill:none" points="
  335.185,1322.74 357.527,1126.9 379.869,845.439 402.212,733.192 424.554,707.319 446.896,725.378 469.239,770.789 491.581,833.115 513.923,904.949 536.266,981.112 
  558.608,1058.08 580.95,1133.58 603.292,1206.17 625.635,1275.01 647.977,1339.61 670.319,1399.76 692.662,1455.39 715.004,1506.54 737.346,1553.23 759.689,1595.53 
  782.031,1633.44 804.373,1666.99 826.715,1696.07 849.058,1720.55 871.4,1740.17 893.742,1754.64 916.085,1763.43 938.427,1766.06 960.769,1761.69 983.112,1749.62 
  1005.45,1728.67 1027.8,1697.93 1050.14,1655.99 1072.48,1628.84 1094.82,1601.92 1117.17,1556.93 1139.51,1518.57 1161.85,1486.39 1184.19,1459.69 1206.53,1438 
  1228.88,1420.67 1251.22,1407.2 1273.56,1397.01 1295.9,1389.61 1318.25,1384.51 1340.59,1381.28 1362.93,1379.51 1385.27,1378.85 1407.62,1378.97 1429.96,1379.62 
  1452.3,1380.53 1474.64,1381.53 1496.98,1382.45 1519.33,1383.15 1541.67,1383.56 1564.01,1383.59 1586.35,1383.22 1608.7,1382.42 1631.04,1381.19 1653.38,1379.55 
  1675.72,1377.53 1698.07,1375.18 1720.41,1372.54 1742.75,1369.67 1765.09,1366.64 1787.43,1363.49 1809.78,1360.3 1832.12,1357.12 1854.46,1354.01 1876.8,1351.02 
  1899.15,1348.2 1921.49,1345.59 1943.83,1343.23 1966.17,1341.16 1988.52,1339.4 2010.86,1337.97 2033.2,1336.89 2055.54,1336.17 2077.88,1335.82 2100.23,1335.84 
  2122.57,1336.23 2144.91,1336.99 2167.25,1338.1 2189.6,1339.56 2211.94,1341.35 2234.28,1343.44 2256.62,1345.83 2278.96,1348.47 2301.31,1351.35 2323.65,1354.42 
  2345.99,1357.65 2368.33,1360.98 2390.68,1364.37 2413.02,1367.74 2435.36,1371.04 2457.7,1374.16 2480.05,1377.01 2502.39,1379.49 2524.73,1381.45 2547.07,1382.77 
  2569.41,1383.24 
  "/>
<polyline clip-path="url(#clip1602)" style="stroke:#00a8cb; stroke-width:16; stroke-opacity:1; fill:none" points="
  335.185,1322.74 357.527,1369.03 379.869,1460.25 402.212,1530.2 424.554,1564.17 446.896,1567.73 469.239,1547.13 491.581,1508.54 513.923,1457.2 536.266,1398.16 
  558.608,1336.03 580.95,1274.52 603.292,1216.42 625.635,1163.71 647.977,1117.65 670.319,1078.9 692.662,1047.63 715.004,1023.67 737.346,1006.53 759.689,995.585 
  782.031,990.032 804.373,989.075 826.715,991.89 849.058,997.739 871.4,1005.93 893.742,1015.9 916.085,1027.14 938.427,1039.29 960.769,1052.04 983.112,1065.2 
  1005.45,1078.62 1027.8,1092.21 1050.14,1105.6 1072.48,1111.86 1094.82,1115.32 1117.17,1122.97 1139.51,1130.67 1161.85,1138.23 1184.19,1145.67 1206.53,1152.96 
  1228.88,1160.13 1251.22,1167.16 1273.56,1174.07 1295.9,1180.82 1318.25,1187.43 1340.59,1193.87 1362.93,1200.14 1385.27,1206.21 1407.62,1212.09 1429.96,1217.75 
  1452.3,1223.18 1474.64,1228.38 1496.98,1233.34 1519.33,1238.05 1541.67,1242.53 1564.01,1246.75 1586.35,1250.74 1608.7,1254.49 1631.04,1258.02 1653.38,1261.33 
  1675.72,1264.42 1698.07,1267.32 1720.41,1270.03 1742.75,1272.56 1765.09,1274.93 1787.43,1277.14 1809.78,1279.21 1832.12,1281.16 1854.46,1282.98 1876.8,1284.7 
  1899.15,1286.32 1921.49,1287.86 1943.83,1289.32 1966.17,1290.71 1988.52,1292.05 2010.86,1293.34 2033.2,1294.58 2055.54,1295.79 2077.88,1296.98 2100.23,1298.14 
  2122.57,1299.28 2144.91,1300.42 2167.25,1301.54 2189.6,1302.66 2211.94,1303.78 2234.28,1304.9 2256.62,1306.01 2278.96,1307.14 2301.31,1308.26 2323.65,1309.38 
  2345.99,1310.51 2368.33,1311.63 2390.68,1312.75 2413.02,1313.87 2435.36,1314.98 2457.7,1316.08 2480.05,1317.17 2502.39,1318.24 2524.73,1319.3 2547.07,1320.32 
  2569.41,1320.91 
  "/>
<path clip-path="url(#clip1600)" d="
M2732.44 988.312 L3184.76 988.312 L3184.76 262.552 L2732.44 262.552  Z
  " fill="#ffffff" fill-rule="evenodd" fill-opacity="1"/>
<polyline clip-path="url(#clip1600)" style="stroke:#000000; stroke-width:4; stroke-opacity:1; fill:none" points="
  2732.44,988.312 3184.76,988.312 3184.76,262.552 2732.44,262.552 2732.44,988.312 
  "/>
<polyline clip-path="url(#clip1600)" style="stroke:#009af9; stroke-width:16; stroke-opacity:1; fill:none" points="
  2764.44,323.032 2956.44,323.032 
  "/>
<path clip-path="url(#clip1600)" d="M 0 0 M2988.44 299.272 L2994.87 299.272 L2994.87 341.381 L3018.01 341.381 L3018.01 346.792 L2988.44 346.792 L2988.44 299.272 Z" fill="#000000" fill-rule="evenodd" fill-opacity="1" /><path clip-path="url(#clip1600)" d="M 0 0 M3024.15 311.144 L3030.01 311.144 L3030.01 346.792 L3024.15 346.792 L3024.15 311.144 M3024.15 297.267 L3030.01 297.267 L3030.01 304.683 L3024.15 304.683 L3024.15 297.267 Z" fill="#000000" fill-rule="evenodd" fill-opacity="1" /><path clip-path="url(#clip1600)" d="M 0 0 M3054.2 297.267 L3054.2 302.137 L3048.6 302.137 Q3045.45 302.137 3044.21 303.41 Q3043 304.683 3043 307.993 L3043 311.144 L3052.64 311.144 L3052.64 315.696 L3043 315.696 L3043 346.792 L3037.11 346.792 L3037.11 315.696 L3031.51 315.696 L3031.51 311.144 L3037.11 311.144 L3037.11 308.662 Q3037.11 302.71 3039.88 300.004 Q3042.65 297.267 3048.66 297.267 L3054.2 297.267 Z" fill="#000000" fill-rule="evenodd" fill-opacity="1" /><path clip-path="url(#clip1600)" d="M 0 0 M3064.99 301.023 L3064.99 311.144 L3077.05 311.144 L3077.05 315.696 L3064.99 315.696 L3064.99 335.047 Q3064.99 339.408 3066.17 340.649 Q3067.38 341.891 3071.04 341.891 L3077.05 341.891 L3077.05 346.792 L3071.04 346.792 Q3064.26 346.792 3061.68 344.278 Q3059.1 341.731 3059.1 335.047 L3059.1 315.696 L3054.8 315.696 L3054.8 311.144 L3059.1 311.144 L3059.1 301.023 L3064.99 301.023 Z" fill="#000000" fill-rule="evenodd" fill-opacity="1" /><path clip-path="url(#clip1600)" d="M 0 0 M3105.86 341.381 L3116.36 341.381 L3116.36 305.129 L3104.93 307.42 L3104.93 301.564 L3116.3 299.272 L3122.73 299.272 L3122.73 341.381 L3133.23 341.381 L3133.23 346.792 L3105.86 346.792 L3105.86 341.381 Z" fill="#000000" fill-rule="evenodd" fill-opacity="1" /><polyline clip-path="url(#clip1600)" style="stroke:#e26f46; stroke-width:16; stroke-opacity:1; fill:none" points="
  2764.44,383.512 2956.44,383.512 
  "/>
<path clip-path="url(#clip1600)" d="M 0 0 M2988.44 359.752 L2994.87 359.752 L2994.87 401.861 L3018.01 401.861 L3018.01 407.272 L2988.44 407.272 L2988.44 359.752 Z" fill="#000000" fill-rule="evenodd" fill-opacity="1" /><path clip-path="url(#clip1600)" d="M 0 0 M3024.15 371.624 L3030.01 371.624 L3030.01 407.272 L3024.15 407.272 L3024.15 371.624 M3024.15 357.747 L3030.01 357.747 L3030.01 365.163 L3024.15 365.163 L3024.15 357.747 Z" fill="#000000" fill-rule="evenodd" fill-opacity="1" /><path clip-path="url(#clip1600)" d="M 0 0 M3054.2 357.747 L3054.2 362.617 L3048.6 362.617 Q3045.45 362.617 3044.21 363.89 Q3043 365.163 3043 368.473 L3043 371.624 L3052.64 371.624 L3052.64 376.176 L3043 376.176 L3043 407.272 L3037.11 407.272 L3037.11 376.176 L3031.51 376.176 L3031.51 371.624 L3037.11 371.624 L3037.11 369.142 Q3037.11 363.19 3039.88 360.484 Q3042.65 357.747 3048.66 357.747 L3054.2 357.747 Z" fill="#000000" fill-rule="evenodd" fill-opacity="1" /><path clip-path="url(#clip1600)" d="M 0 0 M3064.99 361.503 L3064.99 371.624 L3077.05 371.624 L3077.05 376.176 L3064.99 376.176 L3064.99 395.527 Q3064.99 399.888 3066.17 401.129 Q3067.38 402.371 3071.04 402.371 L3077.05 402.371 L3077.05 407.272 L3071.04 407.272 Q3064.26 407.272 3061.68 404.758 Q3059.1 402.211 3059.1 395.527 L3059.1 376.176 L3054.8 376.176 L3054.8 371.624 L3059.1 371.624 L3059.1 361.503 L3064.99 361.503 Z" fill="#000000" fill-rule="evenodd" fill-opacity="1" /><path clip-path="url(#clip1600)" d="M 0 0 M3110.28 401.861 L3132.72 401.861 L3132.72 407.272 L3102.55 407.272 L3102.55 401.861 Q3106.21 398.074 3112.51 391.708 Q3118.84 385.31 3120.47 383.464 Q3123.55 379.995 3124.76 377.608 Q3126 375.189 3126 372.865 Q3126 369.078 3123.33 366.691 Q3120.69 364.304 3116.42 364.304 Q3113.4 364.304 3110.03 365.354 Q3106.68 366.404 3102.87 368.537 L3102.87 362.044 Q3106.75 360.484 3110.12 359.688 Q3113.5 358.893 3116.3 358.893 Q3123.68 358.893 3128.07 362.585 Q3132.47 366.277 3132.47 372.452 Q3132.47 375.38 3131.35 378.022 Q3130.27 380.632 3127.37 384.196 Q3126.58 385.119 3122.31 389.544 Q3118.05 393.936 3110.28 401.861 Z" fill="#000000" fill-rule="evenodd" fill-opacity="1" /><polyline clip-path="url(#clip1600)" style="stroke:#3da44d; stroke-width:16; stroke-opacity:1; fill:none" points="
  2764.44,443.992 2956.44,443.992 
  "/>
<path clip-path="url(#clip1600)" d="M 0 0 M2988.44 420.232 L2994.87 420.232 L2994.87 462.341 L3018.01 462.341 L3018.01 467.752 L2988.44 467.752 L2988.44 420.232 Z" fill="#000000" fill-rule="evenodd" fill-opacity="1" /><path clip-path="url(#clip1600)" d="M 0 0 M3024.15 432.104 L3030.01 432.104 L3030.01 467.752 L3024.15 467.752 L3024.15 432.104 M3024.15 418.227 L3030.01 418.227 L3030.01 425.643 L3024.15 425.643 L3024.15 418.227 Z" fill="#000000" fill-rule="evenodd" fill-opacity="1" /><path clip-path="url(#clip1600)" d="M 0 0 M3054.2 418.227 L3054.2 423.097 L3048.6 423.097 Q3045.45 423.097 3044.21 424.37 Q3043 425.643 3043 428.953 L3043 432.104 L3052.64 432.104 L3052.64 436.656 L3043 436.656 L3043 467.752 L3037.11 467.752 L3037.11 436.656 L3031.51 436.656 L3031.51 432.104 L3037.11 432.104 L3037.11 429.622 Q3037.11 423.67 3039.88 420.964 Q3042.65 418.227 3048.66 418.227 L3054.2 418.227 Z" fill="#000000" fill-rule="evenodd" fill-opacity="1" /><path clip-path="url(#clip1600)" d="M 0 0 M3064.99 421.983 L3064.99 432.104 L3077.05 432.104 L3077.05 436.656 L3064.99 436.656 L3064.99 456.007 Q3064.99 460.368 3066.17 461.609 Q3067.38 462.851 3071.04 462.851 L3077.05 462.851 L3077.05 467.752 L3071.04 467.752 Q3064.26 467.752 3061.68 465.238 Q3059.1 462.691 3059.1 456.007 L3059.1 436.656 L3054.8 436.656 L3054.8 432.104 L3059.1 432.104 L3059.1 421.983 L3064.99 421.983 Z" fill="#000000" fill-rule="evenodd" fill-opacity="1" /><path clip-path="url(#clip1600)" d="M 0 0 M3124.22 442.13 Q3128.84 443.117 3131.42 446.236 Q3134.03 449.355 3134.03 453.939 Q3134.03 460.973 3129.19 464.824 Q3124.35 468.675 3115.44 468.675 Q3112.45 468.675 3109.26 468.07 Q3106.11 467.497 3102.74 466.32 L3102.74 460.113 Q3105.41 461.673 3108.59 462.469 Q3111.78 463.264 3115.25 463.264 Q3121.29 463.264 3124.45 460.877 Q3127.63 458.49 3127.63 453.939 Q3127.63 449.737 3124.67 447.382 Q3121.74 444.995 3116.49 444.995 L3110.95 444.995 L3110.95 439.711 L3116.74 439.711 Q3121.49 439.711 3124 437.833 Q3126.51 435.924 3126.51 432.359 Q3126.51 428.699 3123.9 426.757 Q3121.33 424.784 3116.49 424.784 Q3113.85 424.784 3110.82 425.357 Q3107.8 425.929 3104.17 427.139 L3104.17 421.41 Q3107.83 420.391 3111.01 419.882 Q3114.23 419.373 3117.06 419.373 Q3124.38 419.373 3128.65 422.715 Q3132.91 426.025 3132.91 431.69 Q3132.91 435.637 3130.65 438.374 Q3128.39 441.08 3124.22 442.13 Z" fill="#000000" fill-rule="evenodd" fill-opacity="1" /><polyline clip-path="url(#clip1600)" style="stroke:#c271d2; stroke-width:16; stroke-opacity:1; fill:none" points="
  2764.44,504.472 2956.44,504.472 
  "/>
<path clip-path="url(#clip1600)" d="M 0 0 M2988.44 480.712 L2994.87 480.712 L2994.87 522.821 L3018.01 522.821 L3018.01 528.232 L2988.44 528.232 L2988.44 480.712 Z" fill="#000000" fill-rule="evenodd" fill-opacity="1" /><path clip-path="url(#clip1600)" d="M 0 0 M3024.15 492.584 L3030.01 492.584 L3030.01 528.232 L3024.15 528.232 L3024.15 492.584 M3024.15 478.707 L3030.01 478.707 L3030.01 486.123 L3024.15 486.123 L3024.15 478.707 Z" fill="#000000" fill-rule="evenodd" fill-opacity="1" /><path clip-path="url(#clip1600)" d="M 0 0 M3054.2 478.707 L3054.2 483.577 L3048.6 483.577 Q3045.45 483.577 3044.21 484.85 Q3043 486.123 3043 489.433 L3043 492.584 L3052.64 492.584 L3052.64 497.136 L3043 497.136 L3043 528.232 L3037.11 528.232 L3037.11 497.136 L3031.51 497.136 L3031.51 492.584 L3037.11 492.584 L3037.11 490.102 Q3037.11 484.15 3039.88 481.444 Q3042.65 478.707 3048.66 478.707 L3054.2 478.707 Z" fill="#000000" fill-rule="evenodd" fill-opacity="1" /><path clip-path="url(#clip1600)" d="M 0 0 M3064.99 482.463 L3064.99 492.584 L3077.05 492.584 L3077.05 497.136 L3064.99 497.136 L3064.99 516.487 Q3064.99 520.848 3066.17 522.089 Q3067.38 523.331 3071.04 523.331 L3077.05 523.331 L3077.05 528.232 L3071.04 528.232 Q3064.26 528.232 3061.68 525.718 Q3059.1 523.171 3059.1 516.487 L3059.1 497.136 L3054.8 497.136 L3054.8 492.584 L3059.1 492.584 L3059.1 482.463 L3064.99 482.463 Z" fill="#000000" fill-rule="evenodd" fill-opacity="1" /><path clip-path="url(#clip1600)" d="M 0 0 M3122.41 486.314 L3106.18 511.681 L3122.41 511.681 L3122.41 486.314 M3120.72 480.712 L3128.81 480.712 L3128.81 511.681 L3135.59 511.681 L3135.59 517.028 L3128.81 517.028 L3128.81 528.232 L3122.41 528.232 L3122.41 517.028 L3100.96 517.028 L3100.96 510.822 L3120.72 480.712 Z" fill="#000000" fill-rule="evenodd" fill-opacity="1" /><polyline clip-path="url(#clip1600)" style="stroke:#ac8d18; stroke-width:16; stroke-opacity:1; fill:none" points="
  2764.44,564.952 2956.44,564.952 
  "/>
<path clip-path="url(#clip1600)" d="M 0 0 M2988.44 541.192 L2994.87 541.192 L2994.87 583.301 L3018.01 583.301 L3018.01 588.712 L2988.44 588.712 L2988.44 541.192 Z" fill="#000000" fill-rule="evenodd" fill-opacity="1" /><path clip-path="url(#clip1600)" d="M 0 0 M3024.15 553.064 L3030.01 553.064 L3030.01 588.712 L3024.15 588.712 L3024.15 553.064 M3024.15 539.187 L3030.01 539.187 L3030.01 546.603 L3024.15 546.603 L3024.15 539.187 Z" fill="#000000" fill-rule="evenodd" fill-opacity="1" /><path clip-path="url(#clip1600)" d="M 0 0 M3054.2 539.187 L3054.2 544.057 L3048.6 544.057 Q3045.45 544.057 3044.21 545.33 Q3043 546.603 3043 549.913 L3043 553.064 L3052.64 553.064 L3052.64 557.616 L3043 557.616 L3043 588.712 L3037.11 588.712 L3037.11 557.616 L3031.51 557.616 L3031.51 553.064 L3037.11 553.064 L3037.11 550.582 Q3037.11 544.63 3039.88 541.924 Q3042.65 539.187 3048.66 539.187 L3054.2 539.187 Z" fill="#000000" fill-rule="evenodd" fill-opacity="1" /><path clip-path="url(#clip1600)" d="M 0 0 M3064.99 542.943 L3064.99 553.064 L3077.05 553.064 L3077.05 557.616 L3064.99 557.616 L3064.99 576.967 Q3064.99 581.328 3066.17 582.569 Q3067.38 583.811 3071.04 583.811 L3077.05 583.811 L3077.05 588.712 L3071.04 588.712 Q3064.26 588.712 3061.68 586.198 Q3059.1 583.651 3059.1 576.967 L3059.1 557.616 L3054.8 557.616 L3054.8 553.064 L3059.1 553.064 L3059.1 542.943 L3064.99 542.943 Z" fill="#000000" fill-rule="evenodd" fill-opacity="1" /><path clip-path="url(#clip1600)" d="M 0 0 M3104.81 541.192 L3130.05 541.192 L3130.05 546.603 L3110.7 546.603 L3110.7 558.252 Q3112.1 557.775 3113.5 557.552 Q3114.9 557.297 3116.3 557.297 Q3124.25 557.297 3128.9 561.658 Q3133.55 566.018 3133.55 573.466 Q3133.55 581.137 3128.77 585.402 Q3124 589.635 3115.31 589.635 Q3112.32 589.635 3109.2 589.126 Q3106.11 588.617 3102.8 587.598 L3102.8 581.137 Q3105.67 582.697 3108.72 583.46 Q3111.78 584.224 3115.18 584.224 Q3120.69 584.224 3123.9 581.328 Q3127.12 578.432 3127.12 573.466 Q3127.12 568.501 3123.9 565.605 Q3120.69 562.708 3115.18 562.708 Q3112.6 562.708 3110.03 563.281 Q3107.48 563.854 3104.81 565.064 L3104.81 541.192 Z" fill="#000000" fill-rule="evenodd" fill-opacity="1" /><polyline clip-path="url(#clip1600)" style="stroke:#00a9ad; stroke-width:16; stroke-opacity:1; fill:none" points="
  2764.44,625.432 2956.44,625.432 
  "/>
<path clip-path="url(#clip1600)" d="M 0 0 M2988.44 601.672 L2994.87 601.672 L2994.87 643.781 L3018.01 643.781 L3018.01 649.192 L2988.44 649.192 L2988.44 601.672 Z" fill="#000000" fill-rule="evenodd" fill-opacity="1" /><path clip-path="url(#clip1600)" d="M 0 0 M3024.15 613.544 L3030.01 613.544 L3030.01 649.192 L3024.15 649.192 L3024.15 613.544 M3024.15 599.667 L3030.01 599.667 L3030.01 607.083 L3024.15 607.083 L3024.15 599.667 Z" fill="#000000" fill-rule="evenodd" fill-opacity="1" /><path clip-path="url(#clip1600)" d="M 0 0 M3054.2 599.667 L3054.2 604.537 L3048.6 604.537 Q3045.45 604.537 3044.21 605.81 Q3043 607.083 3043 610.393 L3043 613.544 L3052.64 613.544 L3052.64 618.096 L3043 618.096 L3043 649.192 L3037.11 649.192 L3037.11 618.096 L3031.51 618.096 L3031.51 613.544 L3037.11 613.544 L3037.11 611.062 Q3037.11 605.11 3039.88 602.404 Q3042.65 599.667 3048.66 599.667 L3054.2 599.667 Z" fill="#000000" fill-rule="evenodd" fill-opacity="1" /><path clip-path="url(#clip1600)" d="M 0 0 M3064.99 603.423 L3064.99 613.544 L3077.05 613.544 L3077.05 618.096 L3064.99 618.096 L3064.99 637.447 Q3064.99 641.808 3066.17 643.049 Q3067.38 644.291 3071.04 644.291 L3077.05 644.291 L3077.05 649.192 L3071.04 649.192 Q3064.26 649.192 3061.68 646.678 Q3059.1 644.131 3059.1 637.447 L3059.1 618.096 L3054.8 618.096 L3054.8 613.544 L3059.1 613.544 L3059.1 603.423 L3064.99 603.423 Z" fill="#000000" fill-rule="evenodd" fill-opacity="1" /><path clip-path="url(#clip1600)" d="M 0 0 M3119.29 622.87 Q3114.96 622.87 3112.41 625.83 Q3109.9 628.79 3109.9 633.946 Q3109.9 639.071 3112.41 642.063 Q3114.96 645.023 3119.29 645.023 Q3123.62 645.023 3126.13 642.063 Q3128.68 639.071 3128.68 633.946 Q3128.68 628.79 3126.13 625.83 Q3123.62 622.87 3119.29 622.87 M3132.05 602.722 L3132.05 608.579 Q3129.63 607.433 3127.15 606.828 Q3124.7 606.224 3122.28 606.224 Q3115.92 606.224 3112.54 610.52 Q3109.2 614.817 3108.72 623.506 Q3110.6 620.737 3113.43 619.273 Q3116.27 617.777 3119.67 617.777 Q3126.83 617.777 3130.97 622.138 Q3135.14 626.467 3135.14 633.946 Q3135.14 641.267 3130.81 645.691 Q3126.48 650.115 3119.29 650.115 Q3111.05 650.115 3106.68 643.813 Q3102.32 637.479 3102.32 625.48 Q3102.32 614.213 3107.67 607.529 Q3113.02 600.813 3122.03 600.813 Q3124.45 600.813 3126.9 601.29 Q3129.38 601.768 3132.05 602.722 Z" fill="#000000" fill-rule="evenodd" fill-opacity="1" /><polyline clip-path="url(#clip1600)" style="stroke:#ed5d92; stroke-width:16; stroke-opacity:1; fill:none" points="
  2764.44,685.912 2956.44,685.912 
  "/>
<path clip-path="url(#clip1600)" d="M 0 0 M2988.44 662.152 L2994.87 662.152 L2994.87 704.261 L3018.01 704.261 L3018.01 709.672 L2988.44 709.672 L2988.44 662.152 Z" fill="#000000" fill-rule="evenodd" fill-opacity="1" /><path clip-path="url(#clip1600)" d="M 0 0 M3024.15 674.024 L3030.01 674.024 L3030.01 709.672 L3024.15 709.672 L3024.15 674.024 M3024.15 660.147 L3030.01 660.147 L3030.01 667.563 L3024.15 667.563 L3024.15 660.147 Z" fill="#000000" fill-rule="evenodd" fill-opacity="1" /><path clip-path="url(#clip1600)" d="M 0 0 M3054.2 660.147 L3054.2 665.017 L3048.6 665.017 Q3045.45 665.017 3044.21 666.29 Q3043 667.563 3043 670.873 L3043 674.024 L3052.64 674.024 L3052.64 678.576 L3043 678.576 L3043 709.672 L3037.11 709.672 L3037.11 678.576 L3031.51 678.576 L3031.51 674.024 L3037.11 674.024 L3037.11 671.542 Q3037.11 665.59 3039.88 662.884 Q3042.65 660.147 3048.66 660.147 L3054.2 660.147 Z" fill="#000000" fill-rule="evenodd" fill-opacity="1" /><path clip-path="url(#clip1600)" d="M 0 0 M3064.99 663.903 L3064.99 674.024 L3077.05 674.024 L3077.05 678.576 L3064.99 678.576 L3064.99 697.927 Q3064.99 702.288 3066.17 703.529 Q3067.38 704.771 3071.04 704.771 L3077.05 704.771 L3077.05 709.672 L3071.04 709.672 Q3064.26 709.672 3061.68 707.158 Q3059.1 704.611 3059.1 697.927 L3059.1 678.576 L3054.8 678.576 L3054.8 674.024 L3059.1 674.024 L3059.1 663.903 L3064.99 663.903 Z" fill="#000000" fill-rule="evenodd" fill-opacity="1" /><path clip-path="url(#clip1600)" d="M 0 0 M3103.12 662.152 L3133.68 662.152 L3133.68 664.889 L3116.42 709.672 L3109.71 709.672 L3125.94 667.563 L3103.12 667.563 L3103.12 662.152 Z" fill="#000000" fill-rule="evenodd" fill-opacity="1" /><polyline clip-path="url(#clip1600)" style="stroke:#c68125; stroke-width:16; stroke-opacity:1; fill:none" points="
  2764.44,746.392 2956.44,746.392 
  "/>
<path clip-path="url(#clip1600)" d="M 0 0 M2988.44 722.632 L2994.87 722.632 L2994.87 764.741 L3018.01 764.741 L3018.01 770.152 L2988.44 770.152 L2988.44 722.632 Z" fill="#000000" fill-rule="evenodd" fill-opacity="1" /><path clip-path="url(#clip1600)" d="M 0 0 M3024.15 734.504 L3030.01 734.504 L3030.01 770.152 L3024.15 770.152 L3024.15 734.504 M3024.15 720.627 L3030.01 720.627 L3030.01 728.043 L3024.15 728.043 L3024.15 720.627 Z" fill="#000000" fill-rule="evenodd" fill-opacity="1" /><path clip-path="url(#clip1600)" d="M 0 0 M3054.2 720.627 L3054.2 725.497 L3048.6 725.497 Q3045.45 725.497 3044.21 726.77 Q3043 728.043 3043 731.353 L3043 734.504 L3052.64 734.504 L3052.64 739.056 L3043 739.056 L3043 770.152 L3037.11 770.152 L3037.11 739.056 L3031.51 739.056 L3031.51 734.504 L3037.11 734.504 L3037.11 732.022 Q3037.11 726.07 3039.88 723.364 Q3042.65 720.627 3048.66 720.627 L3054.2 720.627 Z" fill="#000000" fill-rule="evenodd" fill-opacity="1" /><path clip-path="url(#clip1600)" d="M 0 0 M3064.99 724.383 L3064.99 734.504 L3077.05 734.504 L3077.05 739.056 L3064.99 739.056 L3064.99 758.407 Q3064.99 762.768 3066.17 764.009 Q3067.38 765.251 3071.04 765.251 L3077.05 765.251 L3077.05 770.152 L3071.04 770.152 Q3064.26 770.152 3061.68 767.638 Q3059.1 765.091 3059.1 758.407 L3059.1 739.056 L3054.8 739.056 L3054.8 734.504 L3059.1 734.504 L3059.1 724.383 L3064.99 724.383 Z" fill="#000000" fill-rule="evenodd" fill-opacity="1" /><path clip-path="url(#clip1600)" d="M 0 0 M3118.49 747.586 Q3113.91 747.586 3111.27 750.036 Q3108.66 752.487 3108.66 756.784 Q3108.66 761.081 3111.27 763.532 Q3113.91 765.983 3118.49 765.983 Q3123.08 765.983 3125.72 763.532 Q3128.36 761.049 3128.36 756.784 Q3128.36 752.487 3125.72 750.036 Q3123.11 747.586 3118.49 747.586 M3112.06 744.848 Q3107.93 743.83 3105.6 740.997 Q3103.31 738.164 3103.31 734.09 Q3103.31 728.393 3107.35 725.083 Q3111.43 721.773 3118.49 721.773 Q3125.59 721.773 3129.63 725.083 Q3133.68 728.393 3133.68 734.09 Q3133.68 738.164 3131.35 740.997 Q3129.06 743.83 3124.95 744.848 Q3129.6 745.931 3132.18 749.082 Q3134.79 752.233 3134.79 756.784 Q3134.79 763.691 3130.56 767.383 Q3126.35 771.075 3118.49 771.075 Q3110.63 771.075 3106.4 767.383 Q3102.2 763.691 3102.2 756.784 Q3102.2 752.233 3104.81 749.082 Q3107.42 745.931 3112.06 744.848 M3109.71 734.695 Q3109.71 738.387 3112 740.456 Q3114.32 742.525 3118.49 742.525 Q3122.63 742.525 3124.95 740.456 Q3127.31 738.387 3127.31 734.695 Q3127.31 731.003 3124.95 728.934 Q3122.63 726.865 3118.49 726.865 Q3114.32 726.865 3112 728.934 Q3109.71 731.003 3109.71 734.695 Z" fill="#000000" fill-rule="evenodd" fill-opacity="1" /><polyline clip-path="url(#clip1600)" style="stroke:#00a98d; stroke-width:16; stroke-opacity:1; fill:none" points="
  2764.44,806.872 2956.44,806.872 
  "/>
<path clip-path="url(#clip1600)" d="M 0 0 M2988.44 783.112 L2994.87 783.112 L2994.87 825.221 L3018.01 825.221 L3018.01 830.632 L2988.44 830.632 L2988.44 783.112 Z" fill="#000000" fill-rule="evenodd" fill-opacity="1" /><path clip-path="url(#clip1600)" d="M 0 0 M3024.15 794.984 L3030.01 794.984 L3030.01 830.632 L3024.15 830.632 L3024.15 794.984 M3024.15 781.107 L3030.01 781.107 L3030.01 788.523 L3024.15 788.523 L3024.15 781.107 Z" fill="#000000" fill-rule="evenodd" fill-opacity="1" /><path clip-path="url(#clip1600)" d="M 0 0 M3054.2 781.107 L3054.2 785.977 L3048.6 785.977 Q3045.45 785.977 3044.21 787.25 Q3043 788.523 3043 791.833 L3043 794.984 L3052.64 794.984 L3052.64 799.536 L3043 799.536 L3043 830.632 L3037.11 830.632 L3037.11 799.536 L3031.51 799.536 L3031.51 794.984 L3037.11 794.984 L3037.11 792.502 Q3037.11 786.55 3039.88 783.844 Q3042.65 781.107 3048.66 781.107 L3054.2 781.107 Z" fill="#000000" fill-rule="evenodd" fill-opacity="1" /><path clip-path="url(#clip1600)" d="M 0 0 M3064.99 784.863 L3064.99 794.984 L3077.05 794.984 L3077.05 799.536 L3064.99 799.536 L3064.99 818.887 Q3064.99 823.248 3066.17 824.489 Q3067.38 825.731 3071.04 825.731 L3077.05 825.731 L3077.05 830.632 L3071.04 830.632 Q3064.26 830.632 3061.68 828.118 Q3059.1 825.571 3059.1 818.887 L3059.1 799.536 L3054.8 799.536 L3054.8 794.984 L3059.1 794.984 L3059.1 784.863 L3064.99 784.863 Z" fill="#000000" fill-rule="evenodd" fill-opacity="1" /><path clip-path="url(#clip1600)" d="M 0 0 M3104.93 829.645 L3104.93 823.789 Q3107.35 824.935 3109.84 825.54 Q3112.32 826.144 3114.71 826.144 Q3121.07 826.144 3124.41 821.879 Q3127.79 817.582 3128.26 808.861 Q3126.42 811.599 3123.59 813.063 Q3120.75 814.527 3117.32 814.527 Q3110.19 814.527 3106.02 810.23 Q3101.88 805.901 3101.88 798.422 Q3101.88 791.101 3106.21 786.677 Q3110.54 782.253 3117.73 782.253 Q3125.97 782.253 3130.3 788.587 Q3134.66 794.889 3134.66 806.92 Q3134.66 818.155 3129.31 824.871 Q3124 831.555 3114.99 831.555 Q3112.57 831.555 3110.09 831.078 Q3107.61 830.6 3104.93 829.645 M3117.73 809.498 Q3122.06 809.498 3124.57 806.538 Q3127.12 803.578 3127.12 798.422 Q3127.12 793.297 3124.57 790.337 Q3122.06 787.345 3117.73 787.345 Q3113.4 787.345 3110.85 790.337 Q3108.34 793.297 3108.34 798.422 Q3108.34 803.578 3110.85 806.538 Q3113.4 809.498 3117.73 809.498 Z" fill="#000000" fill-rule="evenodd" fill-opacity="1" /><polyline clip-path="url(#clip1600)" style="stroke:#8e971d; stroke-width:16; stroke-opacity:1; fill:none" points="
  2764.44,867.352 2956.44,867.352 
  "/>
<path clip-path="url(#clip1600)" d="M 0 0 M2988.44 843.592 L2994.87 843.592 L2994.87 885.701 L3018.01 885.701 L3018.01 891.112 L2988.44 891.112 L2988.44 843.592 Z" fill="#000000" fill-rule="evenodd" fill-opacity="1" /><path clip-path="url(#clip1600)" d="M 0 0 M3024.15 855.464 L3030.01 855.464 L3030.01 891.112 L3024.15 891.112 L3024.15 855.464 M3024.15 841.587 L3030.01 841.587 L3030.01 849.003 L3024.15 849.003 L3024.15 841.587 Z" fill="#000000" fill-rule="evenodd" fill-opacity="1" /><path clip-path="url(#clip1600)" d="M 0 0 M3054.2 841.587 L3054.2 846.457 L3048.6 846.457 Q3045.45 846.457 3044.21 847.73 Q3043 849.003 3043 852.313 L3043 855.464 L3052.64 855.464 L3052.64 860.016 L3043 860.016 L3043 891.112 L3037.11 891.112 L3037.11 860.016 L3031.51 860.016 L3031.51 855.464 L3037.11 855.464 L3037.11 852.982 Q3037.11 847.03 3039.88 844.324 Q3042.65 841.587 3048.66 841.587 L3054.2 841.587 Z" fill="#000000" fill-rule="evenodd" fill-opacity="1" /><path clip-path="url(#clip1600)" d="M 0 0 M3064.99 845.343 L3064.99 855.464 L3077.05 855.464 L3077.05 860.016 L3064.99 860.016 L3064.99 879.367 Q3064.99 883.728 3066.17 884.969 Q3067.38 886.211 3071.04 886.211 L3077.05 886.211 L3077.05 891.112 L3071.04 891.112 Q3064.26 891.112 3061.68 888.598 Q3059.1 886.051 3059.1 879.367 L3059.1 860.016 L3054.8 860.016 L3054.8 855.464 L3059.1 855.464 L3059.1 845.343 L3064.99 845.343 Z" fill="#000000" fill-rule="evenodd" fill-opacity="1" /><path clip-path="url(#clip1600)" d="M 0 0 M3105.86 885.701 L3116.36 885.701 L3116.36 849.449 L3104.93 851.74 L3104.93 845.884 L3116.3 843.592 L3122.73 843.592 L3122.73 885.701 L3133.23 885.701 L3133.23 891.112 L3105.86 891.112 L3105.86 885.701 Z" fill="#000000" fill-rule="evenodd" fill-opacity="1" /><path clip-path="url(#clip1600)" d="M 0 0 M3153.95 847.825 Q3148.98 847.825 3146.47 852.727 Q3143.99 857.597 3143.99 867.4 Q3143.99 877.171 3146.47 882.073 Q3148.98 886.943 3153.95 886.943 Q3158.95 886.943 3161.43 882.073 Q3163.94 877.171 3163.94 867.4 Q3163.94 857.597 3161.43 852.727 Q3158.95 847.825 3153.95 847.825 M3153.95 842.733 Q3161.94 842.733 3166.14 849.067 Q3170.37 855.369 3170.37 867.4 Q3170.37 879.399 3166.14 885.733 Q3161.94 892.035 3153.95 892.035 Q3145.96 892.035 3141.73 885.733 Q3137.53 879.399 3137.53 867.4 Q3137.53 855.369 3141.73 849.067 Q3145.96 842.733 3153.95 842.733 Z" fill="#000000" fill-rule="evenodd" fill-opacity="1" /><polyline clip-path="url(#clip1600)" style="stroke:#00a8cb; stroke-width:16; stroke-opacity:1; fill:none" points="
  2764.44,927.832 2956.44,927.832 
  "/>
<path clip-path="url(#clip1600)" d="M 0 0 M2988.44 904.072 L2994.87 904.072 L2994.87 946.181 L3018.01 946.181 L3018.01 951.592 L2988.44 951.592 L2988.44 904.072 Z" fill="#000000" fill-rule="evenodd" fill-opacity="1" /><path clip-path="url(#clip1600)" d="M 0 0 M3036.82 920.05 Q3032.11 920.05 3029.37 923.742 Q3026.64 927.402 3026.64 933.8 Q3026.64 940.198 3029.34 943.89 Q3032.08 947.55 3036.82 947.55 Q3041.5 947.55 3044.24 943.858 Q3046.97 940.166 3046.97 933.8 Q3046.97 927.466 3044.24 923.774 Q3041.5 920.05 3036.82 920.05 M3036.82 915.085 Q3044.46 915.085 3048.82 920.05 Q3053.18 925.015 3053.18 933.8 Q3053.18 942.553 3048.82 947.55 Q3044.46 952.515 3036.82 952.515 Q3029.15 952.515 3024.79 947.55 Q3020.46 942.553 3020.46 933.8 Q3020.46 925.015 3024.79 920.05 Q3029.15 915.085 3036.82 915.085 Z" fill="#000000" fill-rule="evenodd" fill-opacity="1" /><path clip-path="url(#clip1600)" d="M 0 0 M3075.52 933.673 Q3068.43 933.673 3065.69 935.296 Q3062.95 936.919 3062.95 940.834 Q3062.95 943.953 3064.99 945.799 Q3067.06 947.614 3070.59 947.614 Q3075.46 947.614 3078.39 944.176 Q3081.35 940.707 3081.35 934.978 L3081.35 933.673 L3075.52 933.673 M3087.21 931.254 L3087.21 951.592 L3081.35 951.592 L3081.35 946.181 Q3079.34 949.428 3076.35 950.987 Q3073.36 952.515 3069.03 952.515 Q3063.56 952.515 3060.31 949.46 Q3057.1 946.372 3057.1 941.216 Q3057.1 935.2 3061.11 932.145 Q3065.15 929.089 3073.14 929.089 L3081.35 929.089 L3081.35 928.516 Q3081.35 924.474 3078.68 922.278 Q3076.03 920.05 3071.23 920.05 Q3068.17 920.05 3065.28 920.782 Q3062.38 921.514 3059.71 922.978 L3059.71 917.567 Q3062.92 916.326 3065.94 915.721 Q3068.97 915.085 3071.83 915.085 Q3079.57 915.085 3083.39 919.095 Q3087.21 923.106 3087.21 931.254 Z" fill="#000000" fill-rule="evenodd" fill-opacity="1" /><path clip-path="url(#clip1600)" d="M 0 0 M3116.81 921.355 L3116.81 902.067 L3122.66 902.067 L3122.66 951.592 L3116.81 951.592 L3116.81 946.245 Q3114.96 949.428 3112.13 950.987 Q3109.33 952.515 3105.38 952.515 Q3098.92 952.515 3094.84 947.359 Q3090.8 942.203 3090.8 933.8 Q3090.8 925.397 3094.84 920.241 Q3098.92 915.085 3105.38 915.085 Q3109.33 915.085 3112.13 916.644 Q3114.96 918.172 3116.81 921.355 M3096.85 933.8 Q3096.85 940.261 3099.49 943.953 Q3102.17 947.614 3106.81 947.614 Q3111.46 947.614 3114.13 943.953 Q3116.81 940.261 3116.81 933.8 Q3116.81 927.339 3114.13 923.679 Q3111.46 919.986 3106.81 919.986 Q3102.17 919.986 3099.49 923.679 Q3096.85 927.339 3096.85 933.8 Z" fill="#000000" fill-rule="evenodd" fill-opacity="1" /></svg>
