<?xml version="1.0" encoding="utf-8"?>
<svg xmlns="http://www.w3.org/2000/svg" xmlns:xlink="http://www.w3.org/1999/xlink" width="800" height="600" viewBox="0 0 3200 2400">
<defs>
  <clipPath id="clip0400">
    <rect x="0" y="0" width="3200" height="2400"/>
  </clipPath>
</defs>
<path clip-path="url(#clip0400)" d="
M0 2400 L3200 2400 L3200 0 L0 0  Z
  " fill="#ffffff" fill-rule="evenodd" fill-opacity="1"/>
<defs>
  <clipPath id="clip0401">
    <rect x="640" y="0" width="2241" height="2241"/>
  </clipPath>
</defs>
<path clip-path="url(#clip0400)" d="
M239.663 2204.92 L2636.44 2204.92 L2636.44 131.032 L239.663 131.032  Z
  " fill="#ffffff" fill-rule="evenodd" fill-opacity="1"/>
<defs>
  <clipPath id="clip0402">
    <rect x="239" y="131" width="2398" height="2075"/>
  </clipPath>
</defs>
<polyline clip-path="url(#clip0402)" style="stroke:#000000; stroke-width:2; stroke-opacity:0.1; fill:none" points="
  307.496,2204.92 307.496,131.032 
  "/>
<polyline clip-path="url(#clip0402)" style="stroke:#000000; stroke-width:2; stroke-opacity:0.1; fill:none" points="
  759.719,2204.92 759.719,131.032 
  "/>
<polyline clip-path="url(#clip0402)" style="stroke:#000000; stroke-width:2; stroke-opacity:0.1; fill:none" points="
  1211.94,2204.92 1211.94,131.032 
  "/>
<polyline clip-path="url(#clip0402)" style="stroke:#000000; stroke-width:2; stroke-opacity:0.1; fill:none" points="
  1664.16,2204.92 1664.16,131.032 
  "/>
<polyline clip-path="url(#clip0402)" style="stroke:#000000; stroke-width:2; stroke-opacity:0.1; fill:none" points="
  2116.39,2204.92 2116.39,131.032 
  "/>
<polyline clip-path="url(#clip0402)" style="stroke:#000000; stroke-width:2; stroke-opacity:0.1; fill:none" points="
  2568.61,2204.92 2568.61,131.032 
  "/>
<polyline clip-path="url(#clip0402)" style="stroke:#000000; stroke-width:2; stroke-opacity:0.1; fill:none" points="
  239.663,1830.85 2636.44,1830.85 
  "/>
<polyline clip-path="url(#clip0402)" style="stroke:#000000; stroke-width:2; stroke-opacity:0.1; fill:none" points="
  239.663,1444.66 2636.44,1444.66 
  "/>
<polyline clip-path="url(#clip0402)" style="stroke:#000000; stroke-width:2; stroke-opacity:0.1; fill:none" points="
  239.663,1058.48 2636.44,1058.48 
  "/>
<polyline clip-path="url(#clip0402)" style="stroke:#000000; stroke-width:2; stroke-opacity:0.1; fill:none" points="
  239.663,672.295 2636.44,672.295 
  "/>
<polyline clip-path="url(#clip0402)" style="stroke:#000000; stroke-width:2; stroke-opacity:0.1; fill:none" points="
  239.663,286.112 2636.44,286.112 
  "/>
<polyline clip-path="url(#clip0400)" style="stroke:#000000; stroke-width:4; stroke-opacity:1; fill:none" points="
  239.663,2204.92 2636.44,2204.92 
  "/>
<polyline clip-path="url(#clip0400)" style="stroke:#000000; stroke-width:4; stroke-opacity:1; fill:none" points="
  239.663,2204.92 239.663,131.032 
  "/>
<polyline clip-path="url(#clip0400)" style="stroke:#000000; stroke-width:4; stroke-opacity:1; fill:none" points="
  307.496,2204.92 307.496,2180.03 
  "/>
<polyline clip-path="url(#clip0400)" style="stroke:#000000; stroke-width:4; stroke-opacity:1; fill:none" points="
  759.719,2204.92 759.719,2180.03 
  "/>
<polyline clip-path="url(#clip0400)" style="stroke:#000000; stroke-width:4; stroke-opacity:1; fill:none" points="
  1211.94,2204.92 1211.94,2180.03 
  "/>
<polyline clip-path="url(#clip0400)" style="stroke:#000000; stroke-width:4; stroke-opacity:1; fill:none" points="
  1664.16,2204.92 1664.16,2180.03 
  "/>
<polyline clip-path="url(#clip0400)" style="stroke:#000000; stroke-width:4; stroke-opacity:1; fill:none" points="
  2116.39,2204.92 2116.39,2180.03 
  "/>
<polyline clip-path="url(#clip0400)" style="stroke:#000000; stroke-width:4; stroke-opacity:1; fill:none" points="
  2568.61,2204.92 2568.61,2180.03 
  "/>
<polyline clip-path="url(#clip0400)" style="stroke:#000000; stroke-width:4; stroke-opacity:1; fill:none" points="
  239.663,1830.85 268.424,1830.85 
  "/>
<polyline clip-path="url(#clip0400)" style="stroke:#000000; stroke-width:4; stroke-opacity:1; fill:none" points="
  239.663,1444.66 268.424,1444.66 
  "/>
<polyline clip-path="url(#clip0400)" style="stroke:#000000; stroke-width:4; stroke-opacity:1; fill:none" points="
  239.663,1058.48 268.424,1058.48 
  "/>
<polyline clip-path="url(#clip0400)" style="stroke:#000000; stroke-width:4; stroke-opacity:1; fill:none" points="
  239.663,672.295 268.424,672.295 
  "/>
<polyline clip-path="url(#clip0400)" style="stroke:#000000; stroke-width:4; stroke-opacity:1; fill:none" points="
  239.663,286.112 268.424,286.112 
  "/>
<path clip-path="url(#clip0400)" d="M 0 0 M307.496 2230.91 Q303.885 2230.91 302.056 2234.48 Q300.251 2238.02 300.251 2245.15 Q300.251 2252.25 302.056 2255.82 Q303.885 2259.36 307.496 2259.36 Q311.13 2259.36 312.936 2255.82 Q314.765 2252.25 314.765 2245.15 Q314.765 2238.02 312.936 2234.48 Q311.13 2230.91 307.496 2230.91 M307.496 2227.21 Q313.306 2227.21 316.362 2231.81 Q319.44 2236.4 319.44 2245.15 Q319.44 2253.87 316.362 2258.48 Q313.306 2263.06 307.496 2263.06 Q301.686 2263.06 298.607 2258.48 Q295.552 2253.87 295.552 2245.15 Q295.552 2236.4 298.607 2231.81 Q301.686 2227.21 307.496 2227.21 Z" fill="#000000" fill-rule="evenodd" fill-opacity="1" /><path clip-path="url(#clip0400)" d="M 0 0 M750.101 2258.46 L757.739 2258.46 L757.739 2232.09 L749.429 2233.76 L749.429 2229.5 L757.693 2227.83 L762.369 2227.83 L762.369 2258.46 L770.008 2258.46 L770.008 2262.39 L750.101 2262.39 L750.101 2258.46 Z" fill="#000000" fill-rule="evenodd" fill-opacity="1" /><path clip-path="url(#clip0400)" d="M 0 0 M1206.59 2258.46 L1222.91 2258.46 L1222.91 2262.39 L1200.97 2262.39 L1200.97 2258.46 Q1203.63 2255.7 1208.21 2251.07 Q1212.82 2246.42 1214 2245.08 Q1216.25 2242.55 1217.13 2240.82 Q1218.03 2239.06 1218.03 2237.37 Q1218.03 2234.61 1216.08 2232.88 Q1214.16 2231.14 1211.06 2231.14 Q1208.86 2231.14 1206.41 2231.91 Q1203.98 2232.67 1201.2 2234.22 L1201.2 2229.5 Q1204.02 2228.36 1206.48 2227.79 Q1208.93 2227.21 1210.97 2227.21 Q1216.34 2227.21 1219.53 2229.89 Q1222.73 2232.58 1222.73 2237.07 Q1222.73 2239.2 1221.92 2241.12 Q1221.13 2243.02 1219.02 2245.61 Q1218.45 2246.28 1215.34 2249.5 Q1212.24 2252.69 1206.59 2258.46 Z" fill="#000000" fill-rule="evenodd" fill-opacity="1" /><path clip-path="url(#clip0400)" d="M 0 0 M1668.41 2243.76 Q1671.77 2244.48 1673.64 2246.74 Q1675.54 2249.01 1675.54 2252.35 Q1675.54 2257.46 1672.02 2260.26 Q1668.5 2263.06 1662.02 2263.06 Q1659.85 2263.06 1657.53 2262.62 Q1655.24 2262.21 1652.79 2261.35 L1652.79 2256.84 Q1654.73 2257.97 1657.05 2258.55 Q1659.36 2259.13 1661.88 2259.13 Q1666.28 2259.13 1668.57 2257.39 Q1670.89 2255.66 1670.89 2252.35 Q1670.89 2249.29 1668.74 2247.58 Q1666.61 2245.84 1662.79 2245.84 L1658.76 2245.84 L1658.76 2242 L1662.97 2242 Q1666.42 2242 1668.25 2240.63 Q1670.08 2239.24 1670.08 2236.65 Q1670.08 2233.99 1668.18 2232.58 Q1666.3 2231.14 1662.79 2231.14 Q1660.86 2231.14 1658.67 2231.56 Q1656.47 2231.98 1653.83 2232.85 L1653.83 2228.69 Q1656.49 2227.95 1658.8 2227.58 Q1661.14 2227.21 1663.2 2227.21 Q1668.53 2227.21 1671.63 2229.64 Q1674.73 2232.04 1674.73 2236.17 Q1674.73 2239.04 1673.09 2241.03 Q1671.44 2242.99 1668.41 2243.76 Z" fill="#000000" fill-rule="evenodd" fill-opacity="1" /><path clip-path="url(#clip0400)" d="M 0 0 M2119.4 2231.91 L2107.59 2250.35 L2119.4 2250.35 L2119.4 2231.91 M2118.17 2227.83 L2124.05 2227.83 L2124.05 2250.35 L2128.98 2250.35 L2128.98 2254.24 L2124.05 2254.24 L2124.05 2262.39 L2119.4 2262.39 L2119.4 2254.24 L2103.79 2254.24 L2103.79 2249.73 L2118.17 2227.83 Z" fill="#000000" fill-rule="evenodd" fill-opacity="1" /><path clip-path="url(#clip0400)" d="M 0 0 M2558.89 2227.83 L2577.24 2227.83 L2577.24 2231.77 L2563.17 2231.77 L2563.17 2240.24 Q2564.19 2239.89 2565.21 2239.73 Q2566.22 2239.54 2567.24 2239.54 Q2573.03 2239.54 2576.41 2242.72 Q2579.79 2245.89 2579.79 2251.3 Q2579.79 2256.88 2576.32 2259.98 Q2572.84 2263.06 2566.53 2263.06 Q2564.35 2263.06 2562.08 2262.69 Q2559.84 2262.32 2557.43 2261.58 L2557.43 2256.88 Q2559.51 2258.02 2561.73 2258.57 Q2563.96 2259.13 2566.43 2259.13 Q2570.44 2259.13 2572.78 2257.02 Q2575.11 2254.92 2575.11 2251.3 Q2575.11 2247.69 2572.78 2245.59 Q2570.44 2243.48 2566.43 2243.48 Q2564.56 2243.48 2562.68 2243.9 Q2560.83 2244.31 2558.89 2245.19 L2558.89 2227.83 Z" fill="#000000" fill-rule="evenodd" fill-opacity="1" /><path clip-path="url(#clip0400)" d="M 0 0 M132.432 1833.24 L144.908 1833.24 L144.908 1837.04 L132.432 1837.04 L132.432 1833.24 Z" fill="#000000" fill-rule="evenodd" fill-opacity="1" /><path clip-path="url(#clip0400)" d="M 0 0 M150.788 1844.19 L158.427 1844.19 L158.427 1817.82 L150.117 1819.49 L150.117 1815.23 L158.381 1813.57 L163.056 1813.57 L163.056 1844.19 L170.695 1844.19 L170.695 1848.13 L150.788 1848.13 L150.788 1844.19 Z" fill="#000000" fill-rule="evenodd" fill-opacity="1" /><path clip-path="url(#clip0400)" d="M 0 0 M175.765 1842.25 L180.649 1842.25 L180.649 1848.13 L175.765 1848.13 L175.765 1842.25 Z" fill="#000000" fill-rule="evenodd" fill-opacity="1" /><path clip-path="url(#clip0400)" d="M 0 0 M195.718 1816.64 Q192.107 1816.64 190.279 1820.21 Q188.473 1823.75 188.473 1830.88 Q188.473 1837.99 190.279 1841.55 Q192.107 1845.09 195.718 1845.09 Q199.353 1845.09 201.158 1841.55 Q202.987 1837.99 202.987 1830.88 Q202.987 1823.75 201.158 1820.21 Q199.353 1816.64 195.718 1816.64 M195.718 1812.94 Q201.528 1812.94 204.584 1817.55 Q207.663 1822.13 207.663 1830.88 Q207.663 1839.61 204.584 1844.21 Q201.528 1848.8 195.718 1848.8 Q189.908 1848.8 186.829 1844.21 Q183.774 1839.61 183.774 1830.88 Q183.774 1822.13 186.829 1817.55 Q189.908 1812.94 195.718 1812.94 Z" fill="#000000" fill-rule="evenodd" fill-opacity="1" /><path clip-path="url(#clip0400)" d="M 0 0 M132.2 1447.06 L144.677 1447.06 L144.677 1450.85 L132.2 1450.85 L132.2 1447.06 Z" fill="#000000" fill-rule="evenodd" fill-opacity="1" /><path clip-path="url(#clip0400)" d="M 0 0 M159.746 1430.46 Q156.135 1430.46 154.307 1434.03 Q152.501 1437.57 152.501 1444.7 Q152.501 1451.8 154.307 1455.37 Q156.135 1458.91 159.746 1458.91 Q163.381 1458.91 165.186 1455.37 Q167.015 1451.8 167.015 1444.7 Q167.015 1437.57 165.186 1434.03 Q163.381 1430.46 159.746 1430.46 M159.746 1426.76 Q165.556 1426.76 168.612 1431.36 Q171.691 1435.95 171.691 1444.7 Q171.691 1453.42 168.612 1458.03 Q165.556 1462.61 159.746 1462.61 Q153.936 1462.61 150.857 1458.03 Q147.802 1453.42 147.802 1444.7 Q147.802 1435.95 150.857 1431.36 Q153.936 1426.76 159.746 1426.76 Z" fill="#000000" fill-rule="evenodd" fill-opacity="1" /><path clip-path="url(#clip0400)" d="M 0 0 M176.76 1456.06 L181.644 1456.06 L181.644 1461.94 L176.76 1461.94 L176.76 1456.06 Z" fill="#000000" fill-rule="evenodd" fill-opacity="1" /><path clip-path="url(#clip0400)" d="M 0 0 M186.76 1427.38 L205.116 1427.38 L205.116 1431.32 L191.042 1431.32 L191.042 1439.79 Q192.061 1439.44 193.079 1439.28 Q194.098 1439.09 195.116 1439.09 Q200.903 1439.09 204.283 1442.27 Q207.663 1445.44 207.663 1450.85 Q207.663 1456.43 204.191 1459.53 Q200.718 1462.61 194.399 1462.61 Q192.223 1462.61 189.954 1462.24 Q187.709 1461.87 185.302 1461.13 L185.302 1456.43 Q187.385 1457.57 189.607 1458.12 Q191.829 1458.68 194.306 1458.68 Q198.311 1458.68 200.649 1456.57 Q202.987 1454.46 202.987 1450.85 Q202.987 1447.24 200.649 1445.14 Q198.311 1443.03 194.306 1443.03 Q192.431 1443.03 190.556 1443.45 Q188.704 1443.86 186.76 1444.74 L186.76 1427.38 Z" fill="#000000" fill-rule="evenodd" fill-opacity="1" /><path clip-path="url(#clip0400)" d="M 0 0 M158.751 1044.28 Q155.14 1044.28 153.311 1047.84 Q151.506 1051.38 151.506 1058.51 Q151.506 1065.62 153.311 1069.18 Q155.14 1072.73 158.751 1072.73 Q162.385 1072.73 164.191 1069.18 Q166.019 1065.62 166.019 1058.51 Q166.019 1051.38 164.191 1047.84 Q162.385 1044.28 158.751 1044.28 M158.751 1040.57 Q164.561 1040.57 167.617 1045.18 Q170.695 1049.76 170.695 1058.51 Q170.695 1067.24 167.617 1071.85 Q164.561 1076.43 158.751 1076.43 Q152.941 1076.43 149.862 1071.85 Q146.807 1067.24 146.807 1058.51 Q146.807 1049.76 149.862 1045.18 Q152.941 1040.57 158.751 1040.57 Z" fill="#000000" fill-rule="evenodd" fill-opacity="1" /><path clip-path="url(#clip0400)" d="M 0 0 M175.765 1069.88 L180.649 1069.88 L180.649 1075.76 L175.765 1075.76 L175.765 1069.88 Z" fill="#000000" fill-rule="evenodd" fill-opacity="1" /><path clip-path="url(#clip0400)" d="M 0 0 M195.718 1044.28 Q192.107 1044.28 190.279 1047.84 Q188.473 1051.38 188.473 1058.51 Q188.473 1065.62 190.279 1069.18 Q192.107 1072.73 195.718 1072.73 Q199.353 1072.73 201.158 1069.18 Q202.987 1065.62 202.987 1058.51 Q202.987 1051.38 201.158 1047.84 Q199.353 1044.28 195.718 1044.28 M195.718 1040.57 Q201.528 1040.57 204.584 1045.18 Q207.663 1049.76 207.663 1058.51 Q207.663 1067.24 204.584 1071.85 Q201.528 1076.43 195.718 1076.43 Q189.908 1076.43 186.829 1071.85 Q183.774 1067.24 183.774 1058.51 Q183.774 1049.76 186.829 1045.18 Q189.908 1040.57 195.718 1040.57 Z" fill="#000000" fill-rule="evenodd" fill-opacity="1" /><path clip-path="url(#clip0400)" d="M 0 0 M159.746 658.094 Q156.135 658.094 154.307 661.658 Q152.501 665.2 152.501 672.33 Q152.501 679.436 154.307 683.001 Q156.135 686.543 159.746 686.543 Q163.381 686.543 165.186 683.001 Q167.015 679.436 167.015 672.33 Q167.015 665.2 165.186 661.658 Q163.381 658.094 159.746 658.094 M159.746 654.39 Q165.556 654.39 168.612 658.996 Q171.691 663.58 171.691 672.33 Q171.691 681.056 168.612 685.663 Q165.556 690.246 159.746 690.246 Q153.936 690.246 150.857 685.663 Q147.802 681.056 147.802 672.33 Q147.802 663.58 150.857 658.996 Q153.936 654.39 159.746 654.39 Z" fill="#000000" fill-rule="evenodd" fill-opacity="1" /><path clip-path="url(#clip0400)" d="M 0 0 M176.76 683.695 L181.644 683.695 L181.644 689.575 L176.76 689.575 L176.76 683.695 Z" fill="#000000" fill-rule="evenodd" fill-opacity="1" /><path clip-path="url(#clip0400)" d="M 0 0 M186.76 655.015 L205.116 655.015 L205.116 658.95 L191.042 658.95 L191.042 667.422 Q192.061 667.075 193.079 666.913 Q194.098 666.728 195.116 666.728 Q200.903 666.728 204.283 669.899 Q207.663 673.07 207.663 678.487 Q207.663 684.066 204.191 687.168 Q200.718 690.246 194.399 690.246 Q192.223 690.246 189.954 689.876 Q187.709 689.505 185.302 688.765 L185.302 684.066 Q187.385 685.2 189.607 685.756 Q191.829 686.311 194.306 686.311 Q198.311 686.311 200.649 684.205 Q202.987 682.098 202.987 678.487 Q202.987 674.876 200.649 672.769 Q198.311 670.663 194.306 670.663 Q192.431 670.663 190.556 671.08 Q188.704 671.496 186.76 672.376 L186.76 655.015 Z" fill="#000000" fill-rule="evenodd" fill-opacity="1" /><path clip-path="url(#clip0400)" d="M 0 0 M150.788 299.456 L158.427 299.456 L158.427 273.091 L150.117 274.757 L150.117 270.498 L158.381 268.832 L163.056 268.832 L163.056 299.456 L170.695 299.456 L170.695 303.392 L150.788 303.392 L150.788 299.456 Z" fill="#000000" fill-rule="evenodd" fill-opacity="1" /><path clip-path="url(#clip0400)" d="M 0 0 M175.765 297.512 L180.649 297.512 L180.649 303.392 L175.765 303.392 L175.765 297.512 Z" fill="#000000" fill-rule="evenodd" fill-opacity="1" /><path clip-path="url(#clip0400)" d="M 0 0 M195.718 271.91 Q192.107 271.91 190.279 275.475 Q188.473 279.017 188.473 286.146 Q188.473 293.253 190.279 296.818 Q192.107 300.359 195.718 300.359 Q199.353 300.359 201.158 296.818 Q202.987 293.253 202.987 286.146 Q202.987 279.017 201.158 275.475 Q199.353 271.91 195.718 271.91 M195.718 268.207 Q201.528 268.207 204.584 272.813 Q207.663 277.396 207.663 286.146 Q207.663 294.873 204.584 299.48 Q201.528 304.063 195.718 304.063 Q189.908 304.063 186.829 299.48 Q183.774 294.873 183.774 286.146 Q183.774 277.396 186.829 272.813 Q189.908 268.207 195.718 268.207 Z" fill="#000000" fill-rule="evenodd" fill-opacity="1" /><path clip-path="url(#clip0400)" d="M 0 0 M882.228 45.1919 L882.228 72.576 L874.774 72.576 L874.774 45.4349 Q874.774 38.994 872.262 35.7938 Q869.751 32.5936 864.728 32.5936 Q858.692 32.5936 855.208 36.4419 Q851.724 40.2903 851.724 46.9338 L851.724 72.576 L844.23 72.576 L844.23 9.54393 L851.724 9.54393 L851.724 34.2544 Q854.398 30.163 858.003 28.1376 Q861.649 26.1121 866.389 26.1121 Q874.207 26.1121 878.217 30.9732 Q882.228 35.7938 882.228 45.1919 Z" fill="#000000" fill-rule="evenodd" fill-opacity="1" /><path clip-path="url(#clip0400)" d="M 0 0 M907.627 32.4315 Q901.632 32.4315 898.148 37.1306 Q894.664 41.7891 894.664 49.9314 Q894.664 58.0738 898.107 62.7728 Q901.591 67.4314 907.627 67.4314 Q913.582 67.4314 917.065 62.7323 Q920.549 58.0333 920.549 49.9314 Q920.549 41.8701 917.065 37.1711 Q913.582 32.4315 907.627 32.4315 M907.627 26.1121 Q917.349 26.1121 922.899 32.4315 Q928.449 38.7509 928.449 49.9314 Q928.449 61.0714 922.899 67.4314 Q917.349 73.7508 907.627 73.7508 Q897.864 73.7508 892.314 67.4314 Q886.805 61.0714 886.805 49.9314 Q886.805 38.7509 892.314 32.4315 Q897.864 26.1121 907.627 26.1121 Z" fill="#000000" fill-rule="evenodd" fill-opacity="1" /><path clip-path="url(#clip0400)" d="M 0 0 M930.92 27.2059 L938.819 27.2059 L952.997 65.2844 L967.175 27.2059 L975.074 27.2059 L958.061 72.576 L947.933 72.576 L930.92 27.2059 Z" fill="#000000" fill-rule="evenodd" fill-opacity="1" /><path clip-path="url(#clip0400)" d="M 0 0 M1021.7 48.0275 L1021.7 51.6733 L987.43 51.6733 Q987.916 59.3701 992.048 63.421 Q996.22 67.4314 1003.63 67.4314 Q1007.93 67.4314 1011.94 66.3781 Q1015.99 65.3249 1019.96 63.2184 L1019.96 70.267 Q1015.95 71.9684 1011.74 72.8596 Q1007.52 73.7508 1003.19 73.7508 Q992.331 73.7508 985.971 67.4314 Q979.652 61.1119 979.652 50.3365 Q979.652 39.1965 985.647 32.6746 Q991.683 26.1121 1001.89 26.1121 Q1011.05 26.1121 1016.35 32.0264 Q1021.7 37.9003 1021.7 48.0275 M1014.25 45.84 Q1014.17 39.7232 1010.8 36.0774 Q1007.48 32.4315 1001.97 32.4315 Q995.734 32.4315 991.967 35.9558 Q988.24 39.4801 987.673 45.8805 L1014.25 45.84 Z" fill="#000000" fill-rule="evenodd" fill-opacity="1" /><path clip-path="url(#clip0400)" d="M 0 0 M1055.81 34.1734 Q1054.55 33.4443 1053.05 33.1202 Q1051.6 32.7556 1049.81 32.7556 Q1043.49 32.7556 1040.09 36.8875 Q1036.73 40.9789 1036.73 48.6757 L1036.73 72.576 L1029.24 72.576 L1029.24 27.2059 L1036.73 27.2059 L1036.73 34.2544 Q1039.08 30.1225 1042.85 28.1376 Q1046.61 26.1121 1052 26.1121 Q1052.77 26.1121 1053.7 26.2337 Q1054.63 26.3147 1055.77 26.5172 L1055.81 34.1734 Z" fill="#000000" fill-rule="evenodd" fill-opacity="1" /><path clip-path="url(#clip0400)" d="M 0 0 M1054.55 46.5287 L1076.39 46.5287 L1076.39 53.1722 L1054.55 53.1722 L1054.55 46.5287 Z" fill="#000000" fill-rule="evenodd" fill-opacity="1" /><path clip-path="url(#clip0400)" d="M 0 0 M1086.68 65.6895 L1100.04 65.6895 L1100.04 19.5497 L1085.5 22.4663 L1085.5 15.0127 L1099.96 12.096 L1108.15 12.096 L1108.15 65.6895 L1121.51 65.6895 L1121.51 72.576 L1086.68 72.576 L1086.68 65.6895 Z" fill="#000000" fill-rule="evenodd" fill-opacity="1" /><path clip-path="url(#clip0400)" d="M 0 0 M1147.89 17.4837 Q1141.57 17.4837 1138.37 23.7221 Q1135.21 29.92 1135.21 42.3968 Q1135.21 54.833 1138.37 61.0714 Q1141.57 67.2693 1147.89 67.2693 Q1154.25 67.2693 1157.41 61.0714 Q1160.61 54.833 1160.61 42.3968 Q1160.61 29.92 1157.41 23.7221 Q1154.25 17.4837 1147.89 17.4837 M1147.89 11.0023 Q1158.05 11.0023 1163.4 19.0636 Q1168.79 27.0843 1168.79 42.3968 Q1168.79 57.6687 1163.4 65.73 Q1158.05 73.7508 1147.89 73.7508 Q1137.72 73.7508 1132.33 65.73 Q1126.98 57.6687 1126.98 42.3968 Q1126.98 27.0843 1132.33 19.0636 Q1137.72 11.0023 1147.89 11.0023 Z" fill="#000000" fill-rule="evenodd" fill-opacity="1" /><path clip-path="url(#clip0400)" d="M 0 0 M1199.21 46.5287 L1221.05 46.5287 L1221.05 53.1722 L1199.21 53.1722 L1199.21 46.5287 Z" fill="#000000" fill-rule="evenodd" fill-opacity="1" /><path clip-path="url(#clip0400)" d="M 0 0 M1275.77 20.1573 L1264.67 50.2555 L1286.91 50.2555 L1275.77 20.1573 M1271.16 12.096 L1280.43 12.096 L1303.48 72.576 L1294.97 72.576 L1289.47 57.061 L1262.2 57.061 L1256.69 72.576 L1248.06 72.576 L1271.16 12.096 Z" fill="#000000" fill-rule="evenodd" fill-opacity="1" /><path clip-path="url(#clip0400)" d="M 0 0 M1341.15 49.3643 Q1341.15 41.2625 1337.79 36.8065 Q1334.47 32.3505 1328.43 32.3505 Q1322.44 32.3505 1319.08 36.8065 Q1315.76 41.2625 1315.76 49.3643 Q1315.76 57.4256 1319.08 61.8816 Q1322.44 66.3376 1328.43 66.3376 Q1334.47 66.3376 1337.79 61.8816 Q1341.15 57.4256 1341.15 49.3643 M1348.61 66.9452 Q1348.61 78.5308 1343.46 84.1616 Q1338.32 89.8329 1327.71 89.8329 Q1323.78 89.8329 1320.29 89.2252 Q1316.81 88.6581 1313.53 87.4428 L1313.53 80.1917 Q1316.81 81.9741 1320.01 82.8248 Q1323.21 83.6755 1326.53 83.6755 Q1333.86 83.6755 1337.51 79.8271 Q1341.15 76.0193 1341.15 68.282 L1341.15 64.5957 Q1338.85 68.6061 1335.24 70.5911 Q1331.64 72.576 1326.61 72.576 Q1318.27 72.576 1313.16 66.2161 Q1308.06 59.8562 1308.06 49.3643 Q1308.06 38.832 1313.16 32.472 Q1318.27 26.1121 1326.61 26.1121 Q1331.64 26.1121 1335.24 28.0971 Q1338.85 30.082 1341.15 34.0924 L1341.15 27.2059 L1348.61 27.2059 L1348.61 66.9452 Z" fill="#000000" fill-rule="evenodd" fill-opacity="1" /><path clip-path="url(#clip0400)" d="M 0 0 M1395.23 48.0275 L1395.23 51.6733 L1360.96 51.6733 Q1361.45 59.3701 1365.58 63.421 Q1369.75 67.4314 1377.17 67.4314 Q1381.46 67.4314 1385.47 66.3781 Q1389.52 65.3249 1393.49 63.2184 L1393.49 70.267 Q1389.48 71.9684 1385.27 72.8596 Q1381.06 73.7508 1376.72 73.7508 Q1365.87 73.7508 1359.51 67.4314 Q1353.19 61.1119 1353.19 50.3365 Q1353.19 39.1965 1359.18 32.6746 Q1365.22 26.1121 1375.43 26.1121 Q1384.58 26.1121 1389.89 32.0264 Q1395.23 37.9003 1395.23 48.0275 M1387.78 45.84 Q1387.7 39.7232 1384.34 36.0774 Q1381.02 32.4315 1375.51 32.4315 Q1369.27 32.4315 1365.5 35.9558 Q1361.77 39.4801 1361.21 45.8805 L1387.78 45.84 Z" fill="#000000" fill-rule="evenodd" fill-opacity="1" /><path clip-path="url(#clip0400)" d="M 0 0 M1440.77 45.1919 L1440.77 72.576 L1433.31 72.576 L1433.31 45.4349 Q1433.31 38.994 1430.8 35.7938 Q1428.29 32.5936 1423.27 32.5936 Q1417.23 32.5936 1413.75 36.4419 Q1410.26 40.2903 1410.26 46.9338 L1410.26 72.576 L1402.77 72.576 L1402.77 27.2059 L1410.26 27.2059 L1410.26 34.2544 Q1412.94 30.163 1416.54 28.1376 Q1420.19 26.1121 1424.93 26.1121 Q1432.75 26.1121 1436.76 30.9732 Q1440.77 35.7938 1440.77 45.1919 Z" fill="#000000" fill-rule="evenodd" fill-opacity="1" /><path clip-path="url(#clip0400)" d="M 0 0 M1455.96 14.324 L1455.96 27.2059 L1471.31 27.2059 L1471.31 32.9987 L1455.96 32.9987 L1455.96 57.6282 Q1455.96 63.1779 1457.46 64.7578 Q1459 66.3376 1463.65 66.3376 L1471.31 66.3376 L1471.31 72.576 L1463.65 72.576 Q1455.03 72.576 1451.74 69.3758 Q1448.46 66.1351 1448.46 57.6282 L1448.46 32.9987 L1442.99 32.9987 L1442.99 27.2059 L1448.46 27.2059 L1448.46 14.324 L1455.96 14.324 Z" fill="#000000" fill-rule="evenodd" fill-opacity="1" /><path clip-path="url(#clip0400)" d="M 0 0 M1542.08 14.0809 L1542.08 22.0612 Q1537.42 19.8332 1533.29 18.7395 Q1529.16 17.6457 1525.31 17.6457 Q1518.62 17.6457 1514.98 20.2383 Q1511.37 22.8309 1511.37 27.611 Q1511.37 31.6214 1513.76 33.6873 Q1516.19 35.7128 1522.92 36.9686 L1527.86 37.9813 Q1537.02 39.7232 1541.35 44.1387 Q1545.73 48.5136 1545.73 55.8863 Q1545.73 64.6767 1539.81 69.2137 Q1533.94 73.7508 1522.55 73.7508 Q1518.26 73.7508 1513.4 72.7785 Q1508.58 71.8063 1503.39 69.9024 L1503.39 61.4765 Q1508.38 64.2716 1513.16 65.6895 Q1517.94 67.1073 1522.55 67.1073 Q1529.56 67.1073 1533.37 64.3527 Q1537.18 61.598 1537.18 56.4939 Q1537.18 52.0379 1534.42 49.5264 Q1531.71 47.0148 1525.47 45.759 L1520.49 44.7868 Q1511.33 42.9639 1507.24 39.075 Q1503.15 35.1862 1503.15 28.2591 Q1503.15 20.2383 1508.78 15.6203 Q1514.45 11.0023 1524.38 11.0023 Q1528.63 11.0023 1533.05 11.7719 Q1537.46 12.5416 1542.08 14.0809 Z" fill="#000000" fill-rule="evenodd" fill-opacity="1" /><path clip-path="url(#clip0400)" d="M 0 0 M1560.92 14.324 L1560.92 27.2059 L1576.27 27.2059 L1576.27 32.9987 L1560.92 32.9987 L1560.92 57.6282 Q1560.92 63.1779 1562.42 64.7578 Q1563.95 66.3376 1568.61 66.3376 L1576.27 66.3376 L1576.27 72.576 L1568.61 72.576 Q1559.98 72.576 1556.7 69.3758 Q1553.42 66.1351 1553.42 57.6282 L1553.42 32.9987 L1547.95 32.9987 L1547.95 27.2059 L1553.42 27.2059 L1553.42 14.324 L1560.92 14.324 Z" fill="#000000" fill-rule="evenodd" fill-opacity="1" /><path clip-path="url(#clip0400)" d="M 0 0 M1604.71 49.7694 Q1595.67 49.7694 1592.19 51.8354 Q1588.71 53.9013 1588.71 58.8839 Q1588.71 62.8538 1591.3 65.2034 Q1593.93 67.5124 1598.43 67.5124 Q1604.63 67.5124 1608.35 63.1374 Q1612.12 58.7219 1612.12 51.4303 L1612.12 49.7694 L1604.71 49.7694 M1619.57 46.6907 L1619.57 72.576 L1612.12 72.576 L1612.12 65.6895 Q1609.57 69.8214 1605.76 71.8063 Q1601.95 73.7508 1596.44 73.7508 Q1589.48 73.7508 1585.34 69.8619 Q1581.25 65.9325 1581.25 59.3701 Q1581.25 51.7138 1586.36 47.825 Q1591.5 43.9361 1601.67 43.9361 L1612.12 43.9361 L1612.12 43.2069 Q1612.12 38.0623 1608.72 35.2672 Q1605.35 32.4315 1599.24 32.4315 Q1595.35 32.4315 1591.66 33.3632 Q1587.98 34.295 1584.57 36.1584 L1584.57 29.2718 Q1588.66 27.692 1592.51 26.9223 Q1596.36 26.1121 1600.01 26.1121 Q1609.85 26.1121 1614.71 31.2163 Q1619.57 36.3204 1619.57 46.6907 Z" fill="#000000" fill-rule="evenodd" fill-opacity="1" /><path clip-path="url(#clip0400)" d="M 0 0 M1634.76 14.324 L1634.76 27.2059 L1650.12 27.2059 L1650.12 32.9987 L1634.76 32.9987 L1634.76 57.6282 Q1634.76 63.1779 1636.26 64.7578 Q1637.8 66.3376 1642.46 66.3376 L1650.12 66.3376 L1650.12 72.576 L1642.46 72.576 Q1633.83 72.576 1630.55 69.3758 Q1627.27 66.1351 1627.27 57.6282 L1627.27 32.9987 L1621.8 32.9987 L1621.8 27.2059 L1627.27 27.2059 L1627.27 14.324 L1634.76 14.324 Z" fill="#000000" fill-rule="evenodd" fill-opacity="1" /><path clip-path="url(#clip0400)" d="M 0 0 M1696.74 48.0275 L1696.74 51.6733 L1662.47 51.6733 Q1662.96 59.3701 1667.09 63.421 Q1671.26 67.4314 1678.68 67.4314 Q1682.97 67.4314 1686.98 66.3781 Q1691.03 65.3249 1695 63.2184 L1695 70.267 Q1690.99 71.9684 1686.78 72.8596 Q1682.56 73.7508 1678.23 73.7508 Q1667.37 73.7508 1661.01 67.4314 Q1654.69 61.1119 1654.69 50.3365 Q1654.69 39.1965 1660.69 32.6746 Q1666.73 26.1121 1676.93 26.1121 Q1686.09 26.1121 1691.4 32.0264 Q1696.74 37.9003 1696.74 48.0275 M1689.29 45.84 Q1689.21 39.7232 1685.85 36.0774 Q1682.52 32.4315 1677.02 32.4315 Q1670.78 32.4315 1667.01 35.9558 Q1663.28 39.4801 1662.72 45.8805 L1689.29 45.84 Z" fill="#000000" fill-rule="evenodd" fill-opacity="1" /><path clip-path="url(#clip0400)" d="M 0 0 M1733.48 28.5427 L1733.48 35.5912 Q1730.32 33.9709 1726.92 33.1607 Q1723.52 32.3505 1719.87 32.3505 Q1714.32 32.3505 1711.53 34.0519 Q1708.77 35.7533 1708.77 39.156 Q1708.77 41.7486 1710.76 43.2475 Q1712.74 44.7058 1718.74 46.0426 L1721.29 46.6097 Q1729.23 48.3111 1732.55 51.4303 Q1735.92 54.509 1735.92 60.0587 Q1735.92 66.3781 1730.89 70.0644 Q1725.91 73.7508 1717.16 73.7508 Q1713.51 73.7508 1709.54 73.0216 Q1705.61 72.3329 1701.24 70.9151 L1701.24 63.2184 Q1705.37 65.3654 1709.38 66.4591 Q1713.39 67.5124 1717.32 67.5124 Q1722.59 67.5124 1725.42 65.73 Q1728.26 63.9071 1728.26 60.6258 Q1728.26 57.5877 1726.19 55.9673 Q1724.17 54.3469 1717.24 52.8481 L1714.65 52.2405 Q1707.72 50.7821 1704.64 47.7845 Q1701.56 44.7463 1701.56 39.4801 Q1701.56 33.0797 1706.1 29.5959 Q1710.64 26.1121 1718.98 26.1121 Q1723.11 26.1121 1726.76 26.7198 Q1730.41 27.3274 1733.48 28.5427 Z" fill="#000000" fill-rule="evenodd" fill-opacity="1" /><path clip-path="url(#clip0400)" d="M 0 0 M1762.12 12.096 L1770.92 12.096 L1787.69 36.9686 L1804.34 12.096 L1813.13 12.096 L1791.74 43.7741 L1791.74 72.576 L1783.51 72.576 L1783.51 43.7741 L1762.12 12.096 Z" fill="#000000" fill-rule="evenodd" fill-opacity="1" /><path clip-path="url(#clip0400)" d="M 0 0 M1847.64 12.096 L1885.88 12.096 L1885.88 18.9825 L1855.82 18.9825 L1855.82 36.8875 L1884.62 36.8875 L1884.62 43.7741 L1855.82 43.7741 L1855.82 65.6895 L1886.61 65.6895 L1886.61 72.576 L1847.64 72.576 L1847.64 12.096 Z" fill="#000000" fill-rule="evenodd" fill-opacity="1" /><path clip-path="url(#clip0400)" d="M 0 0 M1920.72 34.1734 Q1919.46 33.4443 1917.96 33.1202 Q1916.5 32.7556 1914.72 32.7556 Q1908.4 32.7556 1905 36.8875 Q1901.64 40.9789 1901.64 48.6757 L1901.64 72.576 L1894.14 72.576 L1894.14 27.2059 L1901.64 27.2059 L1901.64 34.2544 Q1903.99 30.1225 1907.75 28.1376 Q1911.52 26.1121 1916.91 26.1121 Q1917.68 26.1121 1918.61 26.2337 Q1919.54 26.3147 1920.68 26.5172 L1920.72 34.1734 Z" fill="#000000" fill-rule="evenodd" fill-opacity="1" /><path clip-path="url(#clip0400)" d="M 0 0 M1953.37 34.1734 Q1952.11 33.4443 1950.61 33.1202 Q1949.15 32.7556 1947.37 32.7556 Q1941.05 32.7556 1937.65 36.8875 Q1934.29 40.9789 1934.29 48.6757 L1934.29 72.576 L1926.79 72.576 L1926.79 27.2059 L1934.29 27.2059 L1934.29 34.2544 Q1936.64 30.1225 1940.4 28.1376 Q1944.17 26.1121 1949.56 26.1121 Q1950.33 26.1121 1951.26 26.2337 Q1952.19 26.3147 1953.33 26.5172 L1953.37 34.1734 Z" fill="#000000" fill-rule="evenodd" fill-opacity="1" /><path clip-path="url(#clip0400)" d="M 0 0 M1976.94 32.4315 Q1970.95 32.4315 1967.46 37.1306 Q1963.98 41.7891 1963.98 49.9314 Q1963.98 58.0738 1967.42 62.7728 Q1970.91 67.4314 1976.94 67.4314 Q1982.9 67.4314 1986.38 62.7323 Q1989.87 58.0333 1989.87 49.9314 Q1989.87 41.8701 1986.38 37.1711 Q1982.9 32.4315 1976.94 32.4315 M1976.94 26.1121 Q1986.67 26.1121 1992.22 32.4315 Q1997.77 38.7509 1997.77 49.9314 Q1997.77 61.0714 1992.22 67.4314 Q1986.67 73.7508 1976.94 73.7508 Q1967.18 73.7508 1961.63 67.4314 Q1956.12 61.0714 1956.12 49.9314 Q1956.12 38.7509 1961.63 32.4315 Q1967.18 26.1121 1976.94 26.1121 Z" fill="#000000" fill-rule="evenodd" fill-opacity="1" /><path clip-path="url(#clip0400)" d="M 0 0 M2031.87 34.1734 Q2030.62 33.4443 2029.12 33.1202 Q2027.66 32.7556 2025.88 32.7556 Q2019.56 32.7556 2016.16 36.8875 Q2012.79 40.9789 2012.79 48.6757 L2012.79 72.576 L2005.3 72.576 L2005.3 27.2059 L2012.79 27.2059 L2012.79 34.2544 Q2015.14 30.1225 2018.91 28.1376 Q2022.68 26.1121 2028.07 26.1121 Q2028.84 26.1121 2029.77 26.2337 Q2030.7 26.3147 2031.83 26.5172 L2031.87 34.1734 Z" fill="#000000" fill-rule="evenodd" fill-opacity="1" /><path clip-path="url(#clip0400)" d="M 0 0 M1319.89 2298.26 L1360.09 2298.26 L1360.09 2303.67 L1343.22 2303.67 L1343.22 2345.78 L1336.76 2345.78 L1336.76 2303.67 L1319.89 2303.67 L1319.89 2298.26 Z" fill="#000000" fill-rule="evenodd" fill-opacity="1" /><path clip-path="url(#clip0400)" d="M 0 0 M1364.23 2310.14 L1370.08 2310.14 L1370.08 2345.78 L1364.23 2345.78 L1364.23 2310.14 M1364.23 2296.26 L1370.08 2296.26 L1370.08 2303.67 L1364.23 2303.67 L1364.23 2296.26 Z" fill="#000000" fill-rule="evenodd" fill-opacity="1" /><path clip-path="url(#clip0400)" d="M 0 0 M1403.98 2316.98 Q1406.18 2313.03 1409.23 2311.15 Q1412.29 2309.28 1416.42 2309.28 Q1421.99 2309.28 1425.02 2313.19 Q1428.04 2317.07 1428.04 2324.27 L1428.04 2345.78 L1422.15 2345.78 L1422.15 2324.46 Q1422.15 2319.33 1420.34 2316.85 Q1418.53 2314.37 1414.8 2314.37 Q1410.25 2314.37 1407.61 2317.39 Q1404.97 2320.42 1404.97 2325.64 L1404.97 2345.78 L1399.08 2345.78 L1399.08 2324.46 Q1399.08 2319.3 1397.26 2316.85 Q1395.45 2314.37 1391.66 2314.37 Q1387.17 2314.37 1384.53 2317.42 Q1381.89 2320.45 1381.89 2325.64 L1381.89 2345.78 L1376 2345.78 L1376 2310.14 L1381.89 2310.14 L1381.89 2315.67 Q1383.9 2312.4 1386.7 2310.84 Q1389.5 2309.28 1393.35 2309.28 Q1397.23 2309.28 1399.94 2311.25 Q1402.67 2313.22 1403.98 2316.98 Z" fill="#000000" fill-rule="evenodd" fill-opacity="1" /><path clip-path="url(#clip0400)" d="M 0 0 M1464.68 2326.5 L1464.68 2329.36 L1437.75 2329.36 Q1438.13 2335.41 1441.38 2338.59 Q1444.66 2341.74 1450.48 2341.74 Q1453.86 2341.74 1457.01 2340.91 Q1460.19 2340.09 1463.31 2338.43 L1463.31 2343.97 Q1460.16 2345.31 1456.85 2346.01 Q1453.54 2346.71 1450.13 2346.71 Q1441.6 2346.71 1436.6 2341.74 Q1431.64 2336.78 1431.64 2328.31 Q1431.64 2319.56 1436.35 2314.43 Q1441.09 2309.28 1449.11 2309.28 Q1456.31 2309.28 1460.48 2313.92 Q1464.68 2318.54 1464.68 2326.5 M1458.82 2324.78 Q1458.76 2319.97 1456.11 2317.11 Q1453.51 2314.24 1449.18 2314.24 Q1444.27 2314.24 1441.31 2317.01 Q1438.39 2319.78 1437.94 2324.81 L1458.82 2324.78 Z" fill="#000000" fill-rule="evenodd" fill-opacity="1" /><path clip-path="url(#clip0400)" d="M 0 0 M1505.61 2296.32 Q1501.34 2303.64 1499.27 2310.8 Q1497.21 2317.97 1497.21 2325.32 Q1497.21 2332.67 1499.27 2339.9 Q1501.38 2347.09 1505.61 2354.38 L1500.52 2354.38 Q1495.74 2346.9 1493.35 2339.67 Q1491 2332.45 1491 2325.32 Q1491 2318.22 1493.35 2311.03 Q1495.71 2303.83 1500.52 2296.32 L1505.61 2296.32 Z" fill="#000000" fill-rule="evenodd" fill-opacity="1" /><path clip-path="url(#clip0400)" d="M 0 0 M1534.48 2311.19 L1534.48 2316.72 Q1531.99 2315.45 1529.32 2314.81 Q1526.65 2314.18 1523.78 2314.18 Q1519.42 2314.18 1517.23 2315.51 Q1515.06 2316.85 1515.06 2319.53 Q1515.06 2321.56 1516.62 2322.74 Q1518.18 2323.89 1522.89 2324.94 L1524.9 2325.38 Q1531.13 2326.72 1533.74 2329.17 Q1536.39 2331.59 1536.39 2335.95 Q1536.39 2340.91 1532.44 2343.81 Q1528.52 2346.71 1521.65 2346.71 Q1518.79 2346.71 1515.67 2346.13 Q1512.58 2345.59 1509.14 2344.48 L1509.14 2338.43 Q1512.39 2340.12 1515.54 2340.98 Q1518.69 2341.81 1521.78 2341.81 Q1525.91 2341.81 1528.14 2340.4 Q1530.37 2338.97 1530.37 2336.39 Q1530.37 2334.01 1528.75 2332.73 Q1527.16 2331.46 1521.71 2330.28 L1519.68 2329.81 Q1514.23 2328.66 1511.81 2326.3 Q1509.4 2323.92 1509.4 2319.78 Q1509.4 2314.75 1512.96 2312.01 Q1516.53 2309.28 1523.08 2309.28 Q1526.33 2309.28 1529.19 2309.75 Q1532.06 2310.23 1534.48 2311.19 Z" fill="#000000" fill-rule="evenodd" fill-opacity="1" /><path clip-path="url(#clip0400)" d="M 0 0 M1541.61 2296.32 L1546.7 2296.32 Q1551.47 2303.83 1553.83 2311.03 Q1556.22 2318.22 1556.22 2325.32 Q1556.22 2332.45 1553.83 2339.67 Q1551.47 2346.9 1546.7 2354.38 L1541.61 2354.38 Q1545.84 2347.09 1547.91 2339.9 Q1550.01 2332.67 1550.01 2325.32 Q1550.01 2317.97 1547.91 2310.8 Q1545.84 2303.64 1541.61 2296.32 Z" fill="#000000" fill-rule="evenodd" fill-opacity="1" /><path clip-path="url(#clip0400)" d="M 0 0 M38.4242 1330.05 L38.4242 1300 L43.835 1300 L43.835 1323.62 L57.9032 1323.62 L57.9032 1300.99 L63.3141 1300.99 L63.3141 1323.62 L80.5333 1323.62 L80.5333 1299.43 L85.9442 1299.43 L85.9442 1330.05 L38.4242 1330.05 Z" fill="#000000" fill-rule="evenodd" fill-opacity="1" /><path clip-path="url(#clip0400)" d="M 0 0 M55.7707 1272.63 Q55.1978 1273.61 54.9432 1274.79 Q54.6567 1275.94 54.6567 1277.34 Q54.6567 1282.3 57.9032 1284.98 Q61.1179 1287.62 67.1653 1287.62 L85.9442 1287.62 L85.9442 1293.51 L50.2962 1293.51 L50.2962 1287.62 L55.8344 1287.62 Q52.5879 1285.77 51.0283 1282.81 Q49.4368 1279.85 49.4368 1275.62 Q49.4368 1275.02 49.5323 1274.28 Q49.596 1273.55 49.7551 1272.66 L55.7707 1272.63 Z" fill="#000000" fill-rule="evenodd" fill-opacity="1" /><path clip-path="url(#clip0400)" d="M 0 0 M55.7707 1246.97 Q55.1978 1247.96 54.9432 1249.14 Q54.6567 1250.28 54.6567 1251.69 Q54.6567 1256.65 57.9032 1259.32 Q61.1179 1261.97 67.1653 1261.97 L85.9442 1261.97 L85.9442 1267.85 L50.2962 1267.85 L50.2962 1261.97 L55.8344 1261.97 Q52.5879 1260.12 51.0283 1257.16 Q49.4368 1254.2 49.4368 1249.97 Q49.4368 1249.36 49.5323 1248.63 Q49.596 1247.9 49.7551 1247.01 L55.7707 1246.97 Z" fill="#000000" fill-rule="evenodd" fill-opacity="1" /><path clip-path="url(#clip0400)" d="M 0 0 M54.4021 1228.45 Q54.4021 1233.16 58.0942 1235.9 Q61.7545 1238.64 68.152 1238.64 Q74.5495 1238.64 78.2417 1235.93 Q81.9019 1233.19 81.9019 1228.45 Q81.9019 1223.77 78.2098 1221.03 Q74.5177 1218.3 68.152 1218.3 Q61.8181 1218.3 58.126 1221.03 Q54.4021 1223.77 54.4021 1228.45 M49.4368 1228.45 Q49.4368 1220.81 54.4021 1216.45 Q59.3673 1212.09 68.152 1212.09 Q76.9049 1212.09 81.9019 1216.45 Q86.8672 1220.81 86.8672 1228.45 Q86.8672 1236.12 81.9019 1240.48 Q76.9049 1244.81 68.152 1244.81 Q59.3673 1244.81 54.4021 1240.48 Q49.4368 1236.12 49.4368 1228.45 Z" fill="#000000" fill-rule="evenodd" fill-opacity="1" /><path clip-path="url(#clip0400)" d="M 0 0 M55.7707 1185.29 Q55.1978 1186.28 54.9432 1187.46 Q54.6567 1188.6 54.6567 1190 Q54.6567 1194.97 57.9032 1197.64 Q61.1179 1200.28 67.1653 1200.28 L85.9442 1200.28 L85.9442 1206.17 L50.2962 1206.17 L50.2962 1200.28 L55.8344 1200.28 Q52.5879 1198.44 51.0283 1195.48 Q49.4368 1192.52 49.4368 1188.28 Q49.4368 1187.68 49.5323 1186.95 Q49.596 1186.21 49.7551 1185.32 L55.7707 1185.29 Z" fill="#000000" fill-rule="evenodd" fill-opacity="1" /><path clip-path="url(#clip0400)" d="M 0 0 M38.4242 1164.7 L38.4242 1157.79 L57.9669 1144.61 L38.4242 1131.53 L38.4242 1124.63 L63.3141 1141.43 L85.9442 1141.43 L85.9442 1147.89 L63.3141 1147.89 L38.4242 1164.7 Z" fill="#000000" fill-rule="evenodd" fill-opacity="1" /><path clip-path="url(#clip0400)" d="M 0 0 M36.4826 1083.69 Q43.8032 1087.96 50.9646 1090.03 Q58.126 1092.1 65.4784 1092.1 Q72.8308 1092.1 80.0559 1090.03 Q87.2491 1087.93 94.5379 1083.69 L94.5379 1088.79 Q87.0582 1093.56 79.8331 1095.95 Q72.608 1098.3 65.4784 1098.3 Q58.3806 1098.3 51.1874 1095.95 Q43.9942 1093.59 36.4826 1088.79 L36.4826 1083.69 Z" fill="#000000" fill-rule="evenodd" fill-opacity="1" /><path clip-path="url(#clip0400)" d="M 0 0 M57.1393 1049.8 Q53.1926 1047.6 51.3147 1044.54 Q49.4368 1041.49 49.4368 1037.35 Q49.4368 1031.78 53.3517 1028.76 Q57.2348 1025.73 64.4281 1025.73 L85.9442 1025.73 L85.9442 1031.62 L64.619 1031.62 Q59.4946 1031.62 57.012 1033.44 Q54.5294 1035.25 54.5294 1038.97 Q54.5294 1043.53 57.5531 1046.17 Q60.5768 1048.81 65.7967 1048.81 L85.9442 1048.81 L85.9442 1054.7 L64.619 1054.7 Q59.4628 1054.7 57.012 1056.51 Q54.5294 1058.33 54.5294 1062.11 Q54.5294 1066.6 57.5849 1069.24 Q60.6086 1071.89 65.7967 1071.89 L85.9442 1071.89 L85.9442 1077.77 L50.2962 1077.77 L50.2962 1071.89 L55.8344 1071.89 Q52.556 1069.88 50.9964 1067.08 Q49.4368 1064.28 49.4368 1060.43 Q49.4368 1056.54 51.4102 1053.84 Q53.3836 1051.1 57.1393 1049.8 Z" fill="#000000" fill-rule="evenodd" fill-opacity="1" /><path clip-path="url(#clip0400)" d="M 0 0 M36.4826 1020.51 L36.4826 1015.42 Q43.9942 1010.65 51.1874 1008.29 Q58.3806 1005.91 65.4784 1005.91 Q72.608 1005.91 79.8331 1008.29 Q87.0582 1010.65 94.5379 1015.42 L94.5379 1020.51 Q87.2491 1016.28 80.0559 1014.21 Q72.8308 1012.11 65.4784 1012.11 Q58.126 1012.11 50.9646 1014.21 Q43.8032 1016.28 36.4826 1020.51 Z" fill="#000000" fill-rule="evenodd" fill-opacity="1" /><polyline clip-path="url(#clip0402)" style="stroke:#009af9; stroke-width:16; stroke-opacity:1; fill:none" points="
  307.496,1005.11 330.107,1005 352.718,1004.72 375.329,1004.31 397.941,1003.68 420.552,1002.9 443.163,1002.09 465.774,1001.42 488.385,1001.04 510.996,1001.09 
  533.607,1001.66 556.218,1002.8 578.83,1004.53 601.441,1006.82 624.052,1009.63 646.663,1012.88 669.274,1016.51 691.885,1020.44 714.496,1024.59 737.107,1028.88 
  759.719,1033.23 782.33,1037.57 804.941,1041.83 827.552,1045.94 850.163,1049.87 872.774,1053.56 895.385,1056.97 917.996,1060.06 940.608,1062.83 963.219,1065.24 
  985.83,1067.3 1008.44,1069 1031.05,1070.37 1053.66,1071.46 1076.27,1072.27 1098.89,1072.75 1121.5,1072.96 1144.11,1072.93 1166.72,1072.69 1189.33,1072.26 
  1211.94,1071.65 1234.55,1070.91 1257.16,1070.05 1279.77,1069.1 1302.39,1068.08 1325,1067.01 1347.61,1065.91 1370.22,1064.8 1392.83,1063.71 1415.44,1062.64 
  1438.05,1061.61 1460.66,1060.64 1483.27,1059.73 1505.89,1058.9 1528.5,1058.16 1551.11,1057.5 1573.72,1056.94 1596.33,1056.47 1618.94,1056.1 1641.55,1055.82 
  1664.16,1055.63 1686.77,1055.53 1709.39,1055.51 1732,1055.57 1754.61,1055.69 1777.22,1055.88 1799.83,1056.11 1822.44,1056.38 1845.05,1056.69 1867.66,1057.02 
  1890.27,1057.36 1912.89,1057.71 1935.5,1058.06 1958.11,1058.4 1980.72,1058.72 2003.33,1059.02 2025.94,1059.29 2048.55,1059.53 2071.16,1059.74 2093.77,1059.9 
  2116.39,1060.03 2139,1060.13 2161.61,1060.18 2184.22,1060.2 2206.83,1060.18 2229.44,1060.14 2252.05,1060.07 2274.66,1059.97 2297.27,1059.86 2319.89,1059.73 
  2342.5,1059.59 2365.11,1059.45 2387.72,1059.31 2410.33,1059.18 2432.94,1059.05 2455.55,1058.93 2478.16,1058.84 2500.78,1058.76 2523.39,1058.7 2546,1058.66 
  2568.61,1058.64 
  "/>
<polyline clip-path="url(#clip0402)" style="stroke:#e26f46; stroke-width:16; stroke-opacity:1; fill:none" points="
  307.496,863.975 330.107,864.793 352.718,866.953 375.329,869.849 397.941,873.357 420.552,877.298 443.163,881.54 465.774,886.002 488.385,890.643 510.996,895.444 
  533.607,900.413 556.218,905.574 578.83,910.959 601.441,916.589 624.052,922.472 646.663,928.599 669.274,934.944 691.885,941.469 714.496,948.125 737.107,954.856 
  759.719,961.604 782.33,968.307 804.941,974.904 827.552,981.336 850.163,987.547 872.774,993.486 895.385,999.107 917.996,1004.37 940.608,1009.25 963.219,1013.72 
  985.83,1017.77 1008.44,1021.39 1031.05,1024.61 1053.66,1027.51 1076.27,1030.08 1098.89,1032.24 1121.5,1034.08 1144.11,1035.63 1166.72,1036.92 1189.33,1037.97 
  1211.94,1038.81 1234.55,1039.48 1257.16,1039.99 1279.77,1040.37 1302.39,1040.64 1325,1040.83 1347.61,1040.96 1370.22,1041.04 1392.83,1041.09 1415.44,1041.13 
  1438.05,1041.18 1460.66,1041.24 1483.27,1041.33 1505.89,1041.45 1528.5,1041.62 1551.11,1041.85 1573.72,1042.12 1596.33,1042.45 1618.94,1042.85 1641.55,1043.29 
  1664.16,1043.8 1686.77,1044.36 1709.39,1044.97 1732,1045.62 1754.61,1046.31 1777.22,1047.03 1799.83,1047.78 1822.44,1048.54 1845.05,1049.31 1867.66,1050.08 
  1890.27,1050.85 1912.89,1051.6 1935.5,1052.33 1958.11,1053.03 1980.72,1053.71 2003.33,1054.34 2025.94,1054.93 2048.55,1055.47 2071.16,1055.97 2093.77,1056.42 
  2116.39,1056.82 2139,1057.17 2161.61,1057.47 2184.22,1057.73 2206.83,1057.94 2229.44,1058.11 2252.05,1058.24 2274.66,1058.34 2297.27,1058.41 2319.89,1058.45 
  2342.5,1058.48 2365.11,1058.48 2387.72,1058.48 2410.33,1058.47 2432.94,1058.45 2455.55,1058.43 2478.16,1058.41 2500.78,1058.4 2523.39,1058.38 2546,1058.37 
  2568.61,1058.37 
  "/>
<polyline clip-path="url(#clip0402)" style="stroke:#3da44d; stroke-width:16; stroke-opacity:1; fill:none" points="
  307.496,534.087 330.107,534.652 352.718,536.4 375.329,540.143 397.941,546.114 420.552,554.333 443.163,564.738 465.774,577.104 488.385,591.208 510.996,606.829 
  533.607,623.755 556.218,641.766 578.83,660.635 601.441,680.135 624.052,700.046 646.663,720.157 669.274,740.274 691.885,760.22 714.496,779.833 737.107,798.974 
  759.719,817.52 782.33,835.365 804.941,852.421 827.552,868.614 850.163,883.884 872.774,898.185 895.385,911.487 917.996,923.764 940.608,935.014 963.219,945.237 
  985.83,954.46 1008.44,962.71 1031.05,970.069 1053.66,976.753 1076.27,982.723 1098.89,987.864 1121.5,992.352 1144.11,996.277 1166.72,999.704 1189.33,1002.7 
  1211.94,1005.32 1234.55,1007.62 1257.16,1009.64 1279.77,1011.44 1302.39,1013.03 1325,1014.47 1347.61,1015.79 1370.22,1017 1392.83,1018.14 1415.44,1019.23 
  1438.05,1020.28 1460.66,1021.31 1483.27,1022.34 1505.89,1023.38 1528.5,1024.44 1551.11,1025.51 1573.72,1026.62 1596.33,1027.75 1618.94,1028.92 1641.55,1030.12 
  1664.16,1031.35 1686.77,1032.6 1709.39,1033.88 1732,1035.17 1754.61,1036.47 1777.22,1037.78 1799.83,1039.09 1822.44,1040.39 1845.05,1041.67 1867.66,1042.92 
  1890.27,1044.15 1912.89,1045.34 1935.5,1046.48 1958.11,1047.58 1980.72,1048.63 2003.33,1049.62 2025.94,1050.54 2048.55,1051.41 2071.16,1052.21 2093.77,1052.95 
  2116.39,1053.63 2139,1054.24 2161.61,1054.79 2184.22,1055.28 2206.83,1055.72 2229.44,1056.1 2252.05,1056.44 2274.66,1056.73 2297.27,1056.98 2319.89,1057.19 
  2342.5,1057.37 2365.11,1057.53 2387.72,1057.66 2410.33,1057.77 2432.94,1057.86 2455.55,1057.93 2478.16,1057.99 2500.78,1058.03 2523.39,1058.06 2546,1058.08 
  2568.61,1058.09 
  "/>
<polyline clip-path="url(#clip0402)" style="stroke:#c271d2; stroke-width:16; stroke-opacity:1; fill:none" points="
  307.496,309.047 330.107,308.804 352.718,307.725 375.329,304.576 397.941,299.838 420.552,294.194 443.163,288.274 465.774,282.698 488.385,278.005 510.996,274.641 
  533.607,272.952 556.218,273.199 578.83,275.564 601.441,280.156 624.052,287.022 646.663,296.15 669.274,307.477 691.885,320.889 714.496,336.236 737.107,353.321 
  759.719,371.926 782.33,391.8 804.941,412.686 827.552,434.313 850.163,456.409 872.774,478.714 895.385,500.966 917.996,522.944 940.608,544.419 963.219,565.236 
  985.83,585.225 1008.44,604.324 1031.05,622.488 1053.66,639.949 1076.27,656.702 1098.89,672.605 1121.5,687.891 1144.11,702.595 1166.72,716.779 1189.33,730.462 
  1211.94,743.68 1234.55,756.45 1257.16,768.795 1279.77,780.727 1302.39,792.263 1325,803.414 1347.61,814.194 1370.22,824.613 1392.83,834.682 1415.44,844.413 
  1438.05,853.817 1460.66,862.904 1483.27,871.686 1505.89,880.172 1528.5,888.373 1551.11,896.299 1573.72,903.96 1596.33,911.365 1618.94,918.522 1641.55,925.439 
  1664.16,932.123 1686.77,938.582 1709.39,944.821 1732,950.846 1754.61,956.661 1777.22,962.272 1799.83,967.682 1822.44,972.896 1845.05,977.915 1867.66,982.745 
  1890.27,987.388 1912.89,991.847 1935.5,996.125 1958.11,1000.23 1980.72,1004.15 2003.33,1007.91 2025.94,1011.5 2048.55,1014.93 2071.16,1018.2 2093.77,1021.32 
  2116.39,1024.28 2139,1027.11 2161.61,1029.79 2184.22,1032.33 2206.83,1034.74 2229.44,1037.02 2252.05,1039.17 2274.66,1041.2 2297.27,1043.1 2319.89,1044.87 
  2342.5,1046.52 2365.11,1048.04 2387.72,1049.43 2410.33,1050.68 2432.94,1051.78 2455.55,1052.74 2478.16,1053.55 2500.78,1054.19 2523.39,1054.66 2546,1054.96 
  2568.61,1055.08 
  "/>
<polyline clip-path="url(#clip0402)" style="stroke:#ac8d18; stroke-width:16; stroke-opacity:1; fill:none" points="
  307.496,1003.13 330.107,1003.05 352.718,1002.9 375.329,1003.02 397.941,1003.47 420.552,1004.22 443.163,1005.29 465.774,1006.71 488.385,1008.5 510.996,1010.7 
  533.607,1013.33 556.218,1016.39 578.83,1019.84 601.441,1023.65 624.052,1027.75 646.663,1032.09 669.274,1036.6 691.885,1041.19 714.496,1045.8 737.107,1050.37 
  759.719,1054.83 782.33,1059.14 804.941,1063.24 827.552,1067.1 850.163,1070.67 872.774,1073.95 895.385,1076.89 917.996,1079.5 940.608,1081.75 963.219,1083.65 
  985.83,1085.21 1008.44,1086.42 1031.05,1087.31 1053.66,1087.93 1076.27,1088.26 1098.89,1088.3 1121.5,1088.07 1144.11,1087.61 1166.72,1086.95 1189.33,1086.1 
  1211.94,1085.1 1234.55,1083.96 1257.16,1082.71 1279.77,1081.38 1302.39,1079.98 1325,1078.54 1347.61,1077.08 1370.22,1075.62 1392.83,1074.17 1415.44,1072.76 
  1438.05,1071.39 1460.66,1070.09 1483.27,1068.85 1505.89,1067.7 1528.5,1066.64 1551.11,1065.68 1573.72,1064.82 1596.33,1064.05 1618.94,1063.39 1641.55,1062.83 
  1664.16,1062.37 1686.77,1062 1709.39,1061.72 1732,1061.52 1754.61,1061.4 1777.22,1061.34 1799.83,1061.34 1822.44,1061.38 1845.05,1061.47 1867.66,1061.58 
  1890.27,1061.72 1912.89,1061.86 1935.5,1062.01 1958.11,1062.15 1980.72,1062.29 2003.33,1062.4 2025.94,1062.49 2048.55,1062.55 2071.16,1062.58 2093.77,1062.58 
  2116.39,1062.54 2139,1062.47 2161.61,1062.36 2184.22,1062.22 2206.83,1062.05 2229.44,1061.86 2252.05,1061.64 2274.66,1061.4 2297.27,1061.15 2319.89,1060.89 
  2342.5,1060.63 2365.11,1060.37 2387.72,1060.12 2410.33,1059.88 2432.94,1059.66 2455.55,1059.47 2478.16,1059.3 2500.78,1059.17 2523.39,1059.07 2546,1059 
  2568.61,1058.98 
  "/>
<polyline clip-path="url(#clip0402)" style="stroke:#00a9ad; stroke-width:16; stroke-opacity:1; fill:none" points="
  307.496,903.208 330.107,902.968 352.718,902.436 375.329,902.209 397.941,902.611 420.552,903.801 443.163,905.875 465.774,908.86 488.385,912.746 510.996,917.475 
  533.607,922.953 556.218,929.054 578.83,935.638 601.441,942.568 624.052,949.715 646.663,956.963 669.274,964.214 691.885,971.387 714.496,978.416 737.107,985.245 
  759.719,991.831 782.33,998.136 804.941,1004.13 827.552,1009.79 850.163,1015.09 872.774,1020.01 895.385,1024.54 917.996,1028.67 940.608,1032.4 963.219,1035.72 
  985.83,1038.65 1008.44,1041.18 1031.05,1043.36 1053.66,1045.22 1076.27,1046.76 1098.89,1047.98 1121.5,1048.91 1144.11,1049.6 1166.72,1050.08 1189.33,1050.36 
  1211.94,1050.49 1234.55,1050.47 1257.16,1050.35 1279.77,1050.14 1302.39,1049.85 1325,1049.52 1347.61,1049.16 1370.22,1048.79 1392.83,1048.42 1415.44,1048.07 
  1438.05,1047.74 1460.66,1047.46 1483.27,1047.23 1505.89,1047.05 1528.5,1046.94 1551.11,1046.89 1573.72,1046.91 1596.33,1047.01 1618.94,1047.18 1641.55,1047.41 
  1664.16,1047.72 1686.77,1048.08 1709.39,1048.51 1732,1048.98 1754.61,1049.5 1777.22,1050.06 1799.83,1050.65 1822.44,1051.26 1845.05,1051.88 1867.66,1052.51 
  1890.27,1053.14 1912.89,1053.76 1935.5,1054.36 1958.11,1054.94 1980.72,1055.49 2003.33,1056.01 2025.94,1056.48 2048.55,1056.92 2071.16,1057.32 2093.77,1057.66 
  2116.39,1057.97 2139,1058.22 2161.61,1058.43 2184.22,1058.6 2206.83,1058.73 2229.44,1058.82 2252.05,1058.88 2274.66,1058.91 2297.27,1058.91 2319.89,1058.89 
  2342.5,1058.86 2365.11,1058.81 2387.72,1058.76 2410.33,1058.7 2432.94,1058.65 2455.55,1058.59 2478.16,1058.55 2500.78,1058.51 2523.39,1058.48 2546,1058.46 
  2568.61,1058.45 
  "/>
<polyline clip-path="url(#clip0402)" style="stroke:#ed5d92; stroke-width:16; stroke-opacity:1; fill:none" points="
  307.496,1230.19 330.107,1230.38 352.718,1230.77 375.329,1231.03 397.941,1231 420.552,1230.6 443.163,1229.8 465.774,1228.58 488.385,1226.93 510.996,1224.85 
  533.607,1222.35 556.218,1219.45 578.83,1216.18 601.441,1212.58 624.052,1208.69 646.663,1204.55 669.274,1200.23 691.885,1195.76 714.496,1191.19 737.107,1186.56 
  759.719,1181.92 782.33,1177.29 804.941,1172.72 827.552,1168.23 850.163,1163.84 872.774,1159.59 895.385,1155.47 917.996,1151.51 940.608,1147.72 963.219,1144.09 
  985.83,1140.62 1008.44,1137.31 1031.05,1134.14 1053.66,1131.07 1076.27,1128.11 1098.89,1125.25 1121.5,1122.47 1144.11,1119.73 1166.72,1117.04 1189.33,1114.38 
  1211.94,1111.73 1234.55,1109.11 1257.16,1106.52 1279.77,1103.95 1302.39,1101.41 1325,1098.92 1347.61,1096.47 1370.22,1094.09 1392.83,1091.77 1415.44,1089.53 
  1438.05,1087.37 1460.66,1085.31 1483.27,1083.36 1505.89,1081.51 1528.5,1079.78 1551.11,1078.17 1573.72,1076.68 1596.33,1075.31 1618.94,1074.06 1641.55,1072.93 
  1664.16,1071.92 1686.77,1071.02 1709.39,1070.23 1732,1069.54 1754.61,1068.94 1777.22,1068.42 1799.83,1067.98 1822.44,1067.6 1845.05,1067.28 1867.66,1067.01 
  1890.27,1066.77 1912.89,1066.56 1935.5,1066.38 1958.11,1066.2 1980.72,1066.02 2003.33,1065.85 2025.94,1065.66 2048.55,1065.46 2071.16,1065.25 2093.77,1065.01 
  2116.39,1064.75 2139,1064.47 2161.61,1064.17 2184.22,1063.85 2206.83,1063.51 2229.44,1063.15 2252.05,1062.78 2274.66,1062.4 2297.27,1062.02 2319.89,1061.64 
  2342.5,1061.27 2365.11,1060.91 2387.72,1060.57 2410.33,1060.25 2432.94,1059.96 2455.55,1059.71 2478.16,1059.49 2500.78,1059.32 2523.39,1059.19 2546,1059.11 
  2568.61,1059.08 
  "/>
<polyline clip-path="url(#clip0402)" style="stroke:#c68125; stroke-width:16; stroke-opacity:1; fill:none" points="
  307.496,2143.26 330.107,2144.43 352.718,2146.22 375.329,2145.08 397.941,2139.92 420.552,2130.78 443.163,2117.93 465.774,2101.77 488.385,2082.61 510.996,2060.79 
  533.607,2036.62 556.218,2010.43 578.83,1982.54 601.441,1953.27 624.052,1922.92 646.663,1891.8 669.274,1860.18 691.885,1828.33 714.496,1796.51 737.107,1764.93 
  759.719,1733.8 782.33,1703.3 804.941,1673.59 827.552,1644.82 850.163,1617.11 872.774,1590.54 895.385,1565.22 917.996,1541.19 940.608,1518.49 963.219,1497.16 
  985.83,1477.18 1008.44,1458.53 1031.05,1441.14 1053.66,1424.86 1076.27,1409.54 1098.89,1395.14 1121.5,1381.44 1144.11,1368.34 1166.72,1355.76 1189.33,1343.61 
  1211.94,1331.84 1234.55,1320.41 1257.16,1309.29 1279.77,1298.45 1302.39,1287.88 1325,1277.57 1347.61,1267.52 1370.22,1257.74 1392.83,1248.23 1415.44,1238.99 
  1438.05,1230.05 1460.66,1221.4 1483.27,1213.06 1505.89,1205.03 1528.5,1197.33 1551.11,1189.95 1573.72,1182.9 1596.33,1176.18 1618.94,1169.8 1641.55,1163.74 
  1664.16,1158 1686.77,1152.57 1709.39,1147.44 1732,1142.61 1754.61,1138.05 1777.22,1133.75 1799.83,1129.7 1822.44,1125.88 1845.05,1122.27 1867.66,1118.85 
  1890.27,1115.62 1912.89,1112.54 1935.5,1109.61 1958.11,1106.81 1980.72,1104.13 2003.33,1101.54 2025.94,1099.05 2048.55,1096.63 2071.16,1094.28 2093.77,1092 
  2116.39,1089.77 2139,1087.59 2161.61,1085.46 2184.22,1083.39 2206.83,1081.36 2229.44,1079.38 2252.05,1077.46 2274.66,1075.6 2297.27,1073.81 2319.89,1072.1 
  2342.5,1070.48 2365.11,1068.96 2387.72,1067.55 2410.33,1066.26 2432.94,1065.11 2455.55,1064.1 2478.16,1063.25 2500.78,1062.57 2523.39,1062.06 2546,1061.74 
  2568.61,1061.61 
  "/>
<polyline clip-path="url(#clip0402)" style="stroke:#00a98d; stroke-width:16; stroke-opacity:1; fill:none" points="
  307.496,991.749 330.107,991.723 352.718,991.682 375.329,991.751 397.941,991.99 420.552,992.48 443.163,993.266 465.774,994.367 488.385,995.781 510.996,997.492 
  533.607,999.473 556.218,1001.69 578.83,1004.11 601.441,1006.71 624.052,1009.44 646.663,1012.29 669.274,1015.22 691.885,1018.21 714.496,1021.22 737.107,1024.22 
  759.719,1027.2 782.33,1030.12 804.941,1032.94 827.552,1035.66 850.163,1038.23 872.774,1040.65 895.385,1042.89 917.996,1044.94 940.608,1046.79 963.219,1048.42 
  985.83,1049.83 1008.44,1051.02 1031.05,1052 1053.66,1052.79 1076.27,1053.37 1098.89,1053.77 1121.5,1054.01 1144.11,1054.08 1166.72,1054.02 1189.33,1053.84 
  1211.94,1053.56 1234.55,1053.19 1257.16,1052.75 1279.77,1052.25 1302.39,1051.72 1325,1051.16 1347.61,1050.59 1370.22,1050.03 1392.83,1049.49 1415.44,1048.98 
  1438.05,1048.51 1460.66,1048.1 1483.27,1047.74 1505.89,1047.45 1528.5,1047.23 1551.11,1047.08 1573.72,1047.01 1596.33,1047.02 1618.94,1047.1 1641.55,1047.26 
  1664.16,1047.49 1686.77,1047.79 1709.39,1048.15 1732,1048.57 1754.61,1049.04 1777.22,1049.55 1799.83,1050.1 1822.44,1050.67 1845.05,1051.26 1867.66,1051.86 
  1890.27,1052.46 1912.89,1053.06 1935.5,1053.64 1958.11,1054.21 1980.72,1054.75 2003.33,1055.26 2025.94,1055.74 2048.55,1056.18 2071.16,1056.58 2093.77,1056.94 
  2116.39,1057.25 2139,1057.53 2161.61,1057.76 2184.22,1057.95 2206.83,1058.11 2229.44,1058.23 2252.05,1058.32 2274.66,1058.38 2297.27,1058.42 2319.89,1058.43 
  2342.5,1058.44 2365.11,1058.43 2387.72,1058.41 2410.33,1058.38 2432.94,1058.36 2455.55,1058.33 2478.16,1058.31 2500.78,1058.29 2523.39,1058.28 2546,1058.27 
  2568.61,1058.27 
  "/>
<polyline clip-path="url(#clip0402)" style="stroke:#8e971d; stroke-width:16; stroke-opacity:1; fill:none" points="
  307.496,189.727 330.107,191.544 352.718,197.501 375.329,209.883 397.941,227.459 420.552,248.731 443.163,272.701 465.774,298.538 488.385,325.577 510.996,353.315 
  533.607,381.381 556.218,409.495 578.83,437.447 601.441,465.081 624.052,492.276 646.663,518.943 669.274,545.015 691.885,570.437 714.496,595.159 737.107,619.133 
  759.719,642.31 782.33,664.641 804.941,686.074 827.552,706.562 850.163,726.055 872.774,744.514 895.385,761.898 917.996,778.185 940.608,793.352 963.219,807.406 
  985.83,820.352 1008.44,832.241 1031.05,843.142 1053.66,853.266 1076.27,862.606 1098.89,871.06 1121.5,878.832 1144.11,886.016 1166.72,892.7 1189.33,898.949 
  1211.94,904.828 1234.55,910.386 1257.16,915.67 1279.77,920.716 1302.39,925.558 1325,930.223 1347.61,934.735 1370.22,939.112 1392.83,943.371 1415.44,947.527 
  1438.05,951.591 1460.66,955.572 1483.27,959.478 1505.89,963.316 1528.5,967.09 1551.11,970.804 1573.72,974.459 1596.33,978.058 1618.94,981.6 1641.55,985.085 
  1664.16,988.511 1686.77,991.876 1709.39,995.179 1732,998.414 1754.61,1001.58 1777.22,1004.67 1799.83,1007.69 1822.44,1010.62 1845.05,1013.47 1867.66,1016.23 
  1890.27,1018.9 1912.89,1021.48 1935.5,1023.96 1958.11,1026.34 1980.72,1028.61 2003.33,1030.79 2025.94,1032.87 2048.55,1034.84 2071.16,1036.71 2093.77,1038.49 
  2116.39,1040.17 2139,1041.75 2161.61,1043.24 2184.22,1044.64 2206.83,1045.96 2229.44,1047.19 2252.05,1048.34 2274.66,1049.41 2297.27,1050.41 2319.89,1051.34 
  2342.5,1052.19 2365.11,1052.97 2387.72,1053.68 2410.33,1054.32 2432.94,1054.88 2455.55,1055.37 2478.16,1055.77 2500.78,1056.1 2523.39,1056.34 2546,1056.49 
  2568.61,1056.56 
  "/>
<polyline clip-path="url(#clip0402)" style="stroke:#00a8cb; stroke-width:16; stroke-opacity:1; fill:none" points="
  307.496,1058.48 330.107,1066.18 352.718,1085.5 375.329,1111.25 397.941,1140.49 420.552,1170.66 443.163,1200.02 465.774,1227.23 488.385,1251.24 510.996,1271.39 
  533.607,1287.35 556.218,1299.08 578.83,1306.69 601.441,1310.39 624.052,1310.48 646.663,1307.32 669.274,1301.3 691.885,1292.85 714.496,1282.35 737.107,1270.19 
  759.719,1256.72 782.33,1242.27 804.941,1227.12 827.552,1211.54 850.163,1195.75 872.774,1179.96 895.385,1164.33 917.996,1149.03 940.608,1134.18 963.219,1119.89 
  985.83,1106.27 1008.44,1093.38 1031.05,1081.33 1053.66,1070.19 1076.27,1059.98 1098.89,1050.73 1121.5,1042.44 1144.11,1035.1 1166.72,1028.7 1189.33,1023.21 
  1211.94,1018.62 1234.55,1014.88 1257.16,1011.97 1279.77,1009.84 1302.39,1008.45 1325,1007.76 1347.61,1007.72 1370.22,1008.28 1392.83,1009.4 1415.44,1011.03 
  1438.05,1013.1 1460.66,1015.59 1483.27,1018.42 1505.89,1021.55 1528.5,1024.92 1551.11,1028.49 1573.72,1032.19 1596.33,1035.98 1618.94,1039.81 1641.55,1043.63 
  1664.16,1047.38 1686.77,1051.02 1709.39,1054.51 1732,1057.81 1754.61,1060.87 1777.22,1063.67 1799.83,1066.18 1822.44,1068.38 1845.05,1070.23 1867.66,1071.73 
  1890.27,1072.88 1912.89,1073.65 1935.5,1074.07 1958.11,1074.12 1980.72,1073.84 2003.33,1073.22 2025.94,1072.29 2048.55,1071.08 2071.16,1069.61 2093.77,1067.92 
  2116.39,1066.04 2139,1064.01 2161.61,1061.87 2184.22,1059.66 2206.83,1057.41 2229.44,1055.17 2252.05,1052.98 2274.66,1050.87 2297.27,1048.89 2319.89,1047.06 
  2342.5,1045.41 2365.11,1043.98 2387.72,1042.78 2410.33,1041.85 2432.94,1041.18 2455.55,1040.8 2478.16,1040.7 2500.78,1040.9 2523.39,1041.38 2546,1042.14 
  2568.61,1043.16 
  "/>
<path clip-path="url(#clip0400)" d="
M2732.44 988.312 L3184.76 988.312 L3184.76 262.552 L2732.44 262.552  Z
  " fill="#ffffff" fill-rule="evenodd" fill-opacity="1"/>
<polyline clip-path="url(#clip0400)" style="stroke:#000000; stroke-width:4; stroke-opacity:1; fill:none" points="
  2732.44,988.312 3184.76,988.312 3184.76,262.552 2732.44,262.552 2732.44,988.312 
  "/>
<polyline clip-path="url(#clip0400)" style="stroke:#009af9; stroke-width:16; stroke-opacity:1; fill:none" points="
  2764.44,323.032 2956.44,323.032 
  "/>
<path clip-path="url(#clip0400)" d="M 0 0 M2988.44 299.272 L2994.87 299.272 L2994.87 341.381 L3018.01 341.381 L3018.01 346.792 L2988.44 346.792 L2988.44 299.272 Z" fill="#000000" fill-rule="evenodd" fill-opacity="1" /><path clip-path="url(#clip0400)" d="M 0 0 M3024.15 311.144 L3030.01 311.144 L3030.01 346.792 L3024.15 346.792 L3024.15 311.144 M3024.15 297.267 L3030.01 297.267 L3030.01 304.683 L3024.15 304.683 L3024.15 297.267 Z" fill="#000000" fill-rule="evenodd" fill-opacity="1" /><path clip-path="url(#clip0400)" d="M 0 0 M3054.2 297.267 L3054.2 302.137 L3048.6 302.137 Q3045.45 302.137 3044.21 303.41 Q3043 304.683 3043 307.993 L3043 311.144 L3052.64 311.144 L3052.64 315.696 L3043 315.696 L3043 346.792 L3037.11 346.792 L3037.11 315.696 L3031.51 315.696 L3031.51 311.144 L3037.11 311.144 L3037.11 308.662 Q3037.11 302.71 3039.88 300.004 Q3042.65 297.267 3048.66 297.267 L3054.2 297.267 Z" fill="#000000" fill-rule="evenodd" fill-opacity="1" /><path clip-path="url(#clip0400)" d="M 0 0 M3064.99 301.023 L3064.99 311.144 L3077.05 311.144 L3077.05 315.696 L3064.99 315.696 L3064.99 335.047 Q3064.99 339.408 3066.17 340.649 Q3067.38 341.891 3071.04 341.891 L3077.05 341.891 L3077.05 346.792 L3071.04 346.792 Q3064.26 346.792 3061.68 344.278 Q3059.1 341.731 3059.1 335.047 L3059.1 315.696 L3054.8 315.696 L3054.8 311.144 L3059.1 311.144 L3059.1 301.023 L3064.99 301.023 Z" fill="#000000" fill-rule="evenodd" fill-opacity="1" /><path clip-path="url(#clip0400)" d="M 0 0 M3105.86 341.381 L3116.36 341.381 L3116.36 305.129 L3104.93 307.42 L3104.93 301.564 L3116.3 299.272 L3122.73 299.272 L3122.73 341.381 L3133.23 341.381 L3133.23 346.792 L3105.86 346.792 L3105.86 341.381 Z" fill="#000000" fill-rule="evenodd" fill-opacity="1" /><polyline clip-path="url(#clip0400)" style="stroke:#e26f46; stroke-width:16; stroke-opacity:1; fill:none" points="
  2764.44,383.512 2956.44,383.512 
  "/>
<path clip-path="url(#clip0400)" d="M 0 0 M2988.44 359.752 L2994.87 359.752 L2994.87 401.861 L3018.01 401.861 L3018.01 407.272 L2988.44 407.272 L2988.44 359.752 Z" fill="#000000" fill-rule="evenodd" fill-opacity="1" /><path clip-path="url(#clip0400)" d="M 0 0 M3024.15 371.624 L3030.01 371.624 L3030.01 407.272 L3024.15 407.272 L3024.15 371.624 M3024.15 357.747 L3030.01 357.747 L3030.01 365.163 L3024.15 365.163 L3024.15 357.747 Z" fill="#000000" fill-rule="evenodd" fill-opacity="1" /><path clip-path="url(#clip0400)" d="M 0 0 M3054.2 357.747 L3054.2 362.617 L3048.6 362.617 Q3045.45 362.617 3044.21 363.89 Q3043 365.163 3043 368.473 L3043 371.624 L3052.64 371.624 L3052.64 376.176 L3043 376.176 L3043 407.272 L3037.11 407.272 L3037.11 376.176 L3031.51 376.176 L3031.51 371.624 L3037.11 371.624 L3037.11 369.142 Q3037.11 363.19 3039.88 360.484 Q3042.65 357.747 3048.66 357.747 L3054.2 357.747 Z" fill="#000000" fill-rule="evenodd" fill-opacity="1" /><path clip-path="url(#clip0400)" d="M 0 0 M3064.99 361.503 L3064.99 371.624 L3077.05 371.624 L3077.05 376.176 L3064.99 376.176 L3064.99 395.527 Q3064.99 399.888 3066.17 401.129 Q3067.38 402.371 3071.04 402.371 L3077.05 402.371 L3077.05 407.272 L3071.04 407.272 Q3064.26 407.272 3061.68 404.758 Q3059.1 402.211 3059.1 395.527 L3059.1 376.176 L3054.8 376.176 L3054.8 371.624 L3059.1 371.624 L3059.1 361.503 L3064.99 361.503 Z" fill="#000000" fill-rule="evenodd" fill-opacity="1" /><path clip-path="url(#clip0400)" d="M 0 0 M3110.28 401.861 L3132.72 401.861 L3132.72 407.272 L3102.55 407.272 L3102.55 401.861 Q3106.21 398.074 3112.51 391.708 Q3118.84 385.31 3120.47 383.464 Q3123.55 379.995 3124.76 377.608 Q3126 375.189 3126 372.865 Q3126 369.078 3123.33 366.691 Q3120.69 364.304 3116.42 364.304 Q3113.4 364.304 3110.03 365.354 Q3106.68 366.404 3102.87 368.537 L3102.87 362.044 Q3106.75 360.484 3110.12 359.688 Q3113.5 358.893 3116.3 358.893 Q3123.68 358.893 3128.07 362.585 Q3132.47 366.277 3132.47 372.452 Q3132.47 375.38 3131.35 378.022 Q3130.27 380.632 3127.37 384.196 Q3126.58 385.119 3122.31 389.544 Q3118.05 393.936 3110.28 401.861 Z" fill="#000000" fill-rule="evenodd" fill-opacity="1" /><polyline clip-path="url(#clip0400)" style="stroke:#3da44d; stroke-width:16; stroke-opacity:1; fill:none" points="
  2764.44,443.992 2956.44,443.992 
  "/>
<path clip-path="url(#clip0400)" d="M 0 0 M2988.44 420.232 L2994.87 420.232 L2994.87 462.341 L3018.01 462.341 L3018.01 467.752 L2988.44 467.752 L2988.44 420.232 Z" fill="#000000" fill-rule="evenodd" fill-opacity="1" /><path clip-path="url(#clip0400)" d="M 0 0 M3024.15 432.104 L3030.01 432.104 L3030.01 467.752 L3024.15 467.752 L3024.15 432.104 M3024.15 418.227 L3030.01 418.227 L3030.01 425.643 L3024.15 425.643 L3024.15 418.227 Z" fill="#000000" fill-rule="evenodd" fill-opacity="1" /><path clip-path="url(#clip0400)" d="M 0 0 M3054.2 418.227 L3054.2 423.097 L3048.6 423.097 Q3045.45 423.097 3044.21 424.37 Q3043 425.643 3043 428.953 L3043 432.104 L3052.64 432.104 L3052.64 436.656 L3043 436.656 L3043 467.752 L3037.11 467.752 L3037.11 436.656 L3031.51 436.656 L3031.51 432.104 L3037.11 432.104 L3037.11 429.622 Q3037.11 423.67 3039.88 420.964 Q3042.65 418.227 3048.66 418.227 L3054.2 418.227 Z" fill="#000000" fill-rule="evenodd" fill-opacity="1" /><path clip-path="url(#clip0400)" d="M 0 0 M3064.99 421.983 L3064.99 432.104 L3077.05 432.104 L3077.05 436.656 L3064.99 436.656 L3064.99 456.007 Q3064.99 460.368 3066.17 461.609 Q3067.38 462.851 3071.04 462.851 L3077.05 462.851 L3077.05 467.752 L3071.04 467.752 Q3064.26 467.752 3061.68 465.238 Q3059.1 462.691 3059.1 456.007 L3059.1 436.656 L3054.8 436.656 L3054.8 432.104 L3059.1 432.104 L3059.1 421.983 L3064.99 421.983 Z" fill="#000000" fill-rule="evenodd" fill-opacity="1" /><path clip-path="url(#clip0400)" d="M 0 0 M3124.22 442.13 Q3128.84 443.117 3131.42 446.236 Q3134.03 449.355 3134.03 453.939 Q3134.03 460.973 3129.19 464.824 Q3124.35 468.675 3115.44 468.675 Q3112.45 468.675 3109.26 468.07 Q3106.11 467.497 3102.74 466.32 L3102.74 460.113 Q3105.41 461.673 3108.59 462.469 Q3111.78 463.264 3115.25 463.264 Q3121.29 463.264 3124.45 460.877 Q3127.63 458.49 3127.63 453.939 Q3127.63 449.737 3124.67 447.382 Q3121.74 444.995 3116.49 444.995 L3110.95 444.995 L3110.95 439.711 L3116.74 439.711 Q3121.49 439.711 3124 437.833 Q3126.51 435.924 3126.51 432.359 Q3126.51 428.699 3123.9 426.757 Q3121.33 424.784 3116.49 424.784 Q3113.85 424.784 3110.82 425.357 Q3107.8 425.929 3104.17 427.139 L3104.17 421.41 Q3107.83 420.391 3111.01 419.882 Q3114.23 419.373 3117.06 419.373 Q3124.38 419.373 3128.65 422.715 Q3132.91 426.025 3132.91 431.69 Q3132.91 435.637 3130.65 438.374 Q3128.39 441.08 3124.22 442.13 Z" fill="#000000" fill-rule="evenodd" fill-opacity="1" /><polyline clip-path="url(#clip0400)" style="stroke:#c271d2; stroke-width:16; stroke-opacity:1; fill:none" points="
  2764.44,504.472 2956.44,504.472 
  "/>
<path clip-path="url(#clip0400)" d="M 0 0 M2988.44 480.712 L2994.87 480.712 L2994.87 522.821 L3018.01 522.821 L3018.01 528.232 L2988.44 528.232 L2988.44 480.712 Z" fill="#000000" fill-rule="evenodd" fill-opacity="1" /><path clip-path="url(#clip0400)" d="M 0 0 M3024.15 492.584 L3030.01 492.584 L3030.01 528.232 L3024.15 528.232 L3024.15 492.584 M3024.15 478.707 L3030.01 478.707 L3030.01 486.123 L3024.15 486.123 L3024.15 478.707 Z" fill="#000000" fill-rule="evenodd" fill-opacity="1" /><path clip-path="url(#clip0400)" d="M 0 0 M3054.2 478.707 L3054.2 483.577 L3048.6 483.577 Q3045.45 483.577 3044.21 484.85 Q3043 486.123 3043 489.433 L3043 492.584 L3052.64 492.584 L3052.64 497.136 L3043 497.136 L3043 528.232 L3037.11 528.232 L3037.11 497.136 L3031.51 497.136 L3031.51 492.584 L3037.11 492.584 L3037.11 490.102 Q3037.11 484.15 3039.88 481.444 Q3042.65 478.707 3048.66 478.707 L3054.2 478.707 Z" fill="#000000" fill-rule="evenodd" fill-opacity="1" /><path clip-path="url(#clip0400)" d="M 0 0 M3064.99 482.463 L3064.99 492.584 L3077.05 492.584 L3077.05 497.136 L3064.99 497.136 L3064.99 516.487 Q3064.99 520.848 3066.17 522.089 Q3067.38 523.331 3071.04 523.331 L3077.05 523.331 L3077.05 528.232 L3071.04 528.232 Q3064.26 528.232 3061.68 525.718 Q3059.1 523.171 3059.1 516.487 L3059.1 497.136 L3054.8 497.136 L3054.8 492.584 L3059.1 492.584 L3059.1 482.463 L3064.99 482.463 Z" fill="#000000" fill-rule="evenodd" fill-opacity="1" /><path clip-path="url(#clip0400)" d="M 0 0 M3122.41 486.314 L3106.18 511.681 L3122.41 511.681 L3122.41 486.314 M3120.72 480.712 L3128.81 480.712 L3128.81 511.681 L3135.59 511.681 L3135.59 517.028 L3128.81 517.028 L3128.81 528.232 L3122.41 528.232 L3122.41 517.028 L3100.96 517.028 L3100.96 510.822 L3120.72 480.712 Z" fill="#000000" fill-rule="evenodd" fill-opacity="1" /><polyline clip-path="url(#clip0400)" style="stroke:#ac8d18; stroke-width:16; stroke-opacity:1; fill:none" points="
  2764.44,564.952 2956.44,564.952 
  "/>
<path clip-path="url(#clip0400)" d="M 0 0 M2988.44 541.192 L2994.87 541.192 L2994.87 583.301 L3018.01 583.301 L3018.01 588.712 L2988.44 588.712 L2988.44 541.192 Z" fill="#000000" fill-rule="evenodd" fill-opacity="1" /><path clip-path="url(#clip0400)" d="M 0 0 M3024.15 553.064 L3030.01 553.064 L3030.01 588.712 L3024.15 588.712 L3024.15 553.064 M3024.15 539.187 L3030.01 539.187 L3030.01 546.603 L3024.15 546.603 L3024.15 539.187 Z" fill="#000000" fill-rule="evenodd" fill-opacity="1" /><path clip-path="url(#clip0400)" d="M 0 0 M3054.2 539.187 L3054.2 544.057 L3048.6 544.057 Q3045.45 544.057 3044.21 545.33 Q3043 546.603 3043 549.913 L3043 553.064 L3052.64 553.064 L3052.64 557.616 L3043 557.616 L3043 588.712 L3037.11 588.712 L3037.11 557.616 L3031.51 557.616 L3031.51 553.064 L3037.11 553.064 L3037.11 550.582 Q3037.11 544.63 3039.88 541.924 Q3042.65 539.187 3048.66 539.187 L3054.2 539.187 Z" fill="#000000" fill-rule="evenodd" fill-opacity="1" /><path clip-path="url(#clip0400)" d="M 0 0 M3064.99 542.943 L3064.99 553.064 L3077.05 553.064 L3077.05 557.616 L3064.99 557.616 L3064.99 576.967 Q3064.99 581.328 3066.17 582.569 Q3067.38 583.811 3071.04 583.811 L3077.05 583.811 L3077.05 588.712 L3071.04 588.712 Q3064.26 588.712 3061.68 586.198 Q3059.1 583.651 3059.1 576.967 L3059.1 557.616 L3054.8 557.616 L3054.8 553.064 L3059.1 553.064 L3059.1 542.943 L3064.99 542.943 Z" fill="#000000" fill-rule="evenodd" fill-opacity="1" /><path clip-path="url(#clip0400)" d="M 0 0 M3104.81 541.192 L3130.05 541.192 L3130.05 546.603 L3110.7 546.603 L3110.7 558.252 Q3112.1 557.775 3113.5 557.552 Q3114.9 557.297 3116.3 557.297 Q3124.25 557.297 3128.9 561.658 Q3133.55 566.018 3133.55 573.466 Q3133.55 581.137 3128.77 585.402 Q3124 589.635 3115.31 589.635 Q3112.32 589.635 3109.2 589.126 Q3106.11 588.617 3102.8 587.598 L3102.8 581.137 Q3105.67 582.697 3108.72 583.46 Q3111.78 584.224 3115.18 584.224 Q3120.69 584.224 3123.9 581.328 Q3127.12 578.432 3127.12 573.466 Q3127.12 568.501 3123.9 565.605 Q3120.69 562.708 3115.18 562.708 Q3112.6 562.708 3110.03 563.281 Q3107.48 563.854 3104.81 565.064 L3104.81 541.192 Z" fill="#000000" fill-rule="evenodd" fill-opacity="1" /><polyline clip-path="url(#clip0400)" style="stroke:#00a9ad; stroke-width:16; stroke-opacity:1; fill:none" points="
  2764.44,625.432 2956.44,625.432 
  "/>
<path clip-path="url(#clip0400)" d="M 0 0 M2988.44 601.672 L2994.87 601.672 L2994.87 643.781 L3018.01 643.781 L3018.01 649.192 L2988.44 649.192 L2988.44 601.672 Z" fill="#000000" fill-rule="evenodd" fill-opacity="1" /><path clip-path="url(#clip0400)" d="M 0 0 M3024.15 613.544 L3030.01 613.544 L3030.01 649.192 L3024.15 649.192 L3024.15 613.544 M3024.15 599.667 L3030.01 599.667 L3030.01 607.083 L3024.15 607.083 L3024.15 599.667 Z" fill="#000000" fill-rule="evenodd" fill-opacity="1" /><path clip-path="url(#clip0400)" d="M 0 0 M3054.2 599.667 L3054.2 604.537 L3048.6 604.537 Q3045.45 604.537 3044.21 605.81 Q3043 607.083 3043 610.393 L3043 613.544 L3052.64 613.544 L3052.64 618.096 L3043 618.096 L3043 649.192 L3037.11 649.192 L3037.11 618.096 L3031.51 618.096 L3031.51 613.544 L3037.11 613.544 L3037.11 611.062 Q3037.11 605.11 3039.88 602.404 Q3042.65 599.667 3048.66 599.667 L3054.2 599.667 Z" fill="#000000" fill-rule="evenodd" fill-opacity="1" /><path clip-path="url(#clip0400)" d="M 0 0 M3064.99 603.423 L3064.99 613.544 L3077.05 613.544 L3077.05 618.096 L3064.99 618.096 L3064.99 637.447 Q3064.99 641.808 3066.17 643.049 Q3067.38 644.291 3071.04 644.291 L3077.05 644.291 L3077.05 649.192 L3071.04 649.192 Q3064.26 649.192 3061.68 646.678 Q3059.1 644.131 3059.1 637.447 L3059.1 618.096 L3054.8 618.096 L3054.8 613.544 L3059.1 613.544 L3059.1 603.423 L3064.99 603.423 Z" fill="#000000" fill-rule="evenodd" fill-opacity="1" /><path clip-path="url(#clip0400)" d="M 0 0 M3119.29 622.87 Q3114.96 622.87 3112.41 625.83 Q3109.9 628.79 3109.9 633.946 Q3109.9 639.071 3112.41 642.063 Q3114.96 645.023 3119.29 645.023 Q3123.62 645.023 3126.13 642.063 Q3128.68 639.071 3128.68 633.946 Q3128.68 628.79 3126.13 625.83 Q3123.62 622.87 3119.29 622.87 M3132.05 602.722 L3132.05 608.579 Q3129.63 607.433 3127.15 606.828 Q3124.7 606.224 3122.28 606.224 Q3115.92 606.224 3112.54 610.52 Q3109.2 614.817 3108.72 623.506 Q3110.6 620.737 3113.43 619.273 Q3116.27 617.777 3119.67 617.777 Q3126.83 617.777 3130.97 622.138 Q3135.14 626.467 3135.14 633.946 Q3135.14 641.267 3130.81 645.691 Q3126.48 650.115 3119.29 650.115 Q3111.05 650.115 3106.68 643.813 Q3102.32 637.479 3102.32 625.48 Q3102.32 614.213 3107.67 607.529 Q3113.02 600.813 3122.03 600.813 Q3124.45 600.813 3126.9 601.29 Q3129.38 601.768 3132.05 602.722 Z" fill="#000000" fill-rule="evenodd" fill-opacity="1" /><polyline clip-path="url(#clip0400)" style="stroke:#ed5d92; stroke-width:16; stroke-opacity:1; fill:none" points="
  2764.44,685.912 2956.44,685.912 
  "/>
<path clip-path="url(#clip0400)" d="M 0 0 M2988.44 662.152 L2994.87 662.152 L2994.87 704.261 L3018.01 704.261 L3018.01 709.672 L2988.44 709.672 L2988.44 662.152 Z" fill="#000000" fill-rule="evenodd" fill-opacity="1" /><path clip-path="url(#clip0400)" d="M 0 0 M3024.15 674.024 L3030.01 674.024 L3030.01 709.672 L3024.15 709.672 L3024.15 674.024 M3024.15 660.147 L3030.01 660.147 L3030.01 667.563 L3024.15 667.563 L3024.15 660.147 Z" fill="#000000" fill-rule="evenodd" fill-opacity="1" /><path clip-path="url(#clip0400)" d="M 0 0 M3054.2 660.147 L3054.2 665.017 L3048.6 665.017 Q3045.45 665.017 3044.21 666.29 Q3043 667.563 3043 670.873 L3043 674.024 L3052.64 674.024 L3052.64 678.576 L3043 678.576 L3043 709.672 L3037.11 709.672 L3037.11 678.576 L3031.51 678.576 L3031.51 674.024 L3037.11 674.024 L3037.11 671.542 Q3037.11 665.59 3039.88 662.884 Q3042.65 660.147 3048.66 660.147 L3054.2 660.147 Z" fill="#000000" fill-rule="evenodd" fill-opacity="1" /><path clip-path="url(#clip0400)" d="M 0 0 M3064.99 663.903 L3064.99 674.024 L3077.05 674.024 L3077.05 678.576 L3064.99 678.576 L3064.99 697.927 Q3064.99 702.288 3066.17 703.529 Q3067.38 704.771 3071.04 704.771 L3077.05 704.771 L3077.05 709.672 L3071.04 709.672 Q3064.26 709.672 3061.68 707.158 Q3059.1 704.611 3059.1 697.927 L3059.1 678.576 L3054.8 678.576 L3054.8 674.024 L3059.1 674.024 L3059.1 663.903 L3064.99 663.903 Z" fill="#000000" fill-rule="evenodd" fill-opacity="1" /><path clip-path="url(#clip0400)" d="M 0 0 M3103.12 662.152 L3133.68 662.152 L3133.68 664.889 L3116.42 709.672 L3109.71 709.672 L3125.94 667.563 L3103.12 667.563 L3103.12 662.152 Z" fill="#000000" fill-rule="evenodd" fill-opacity="1" /><polyline clip-path="url(#clip0400)" style="stroke:#c68125; stroke-width:16; stroke-opacity:1; fill:none" points="
  2764.44,746.392 2956.44,746.392 
  "/>
<path clip-path="url(#clip0400)" d="M 0 0 M2988.44 722.632 L2994.87 722.632 L2994.87 764.741 L3018.01 764.741 L3018.01 770.152 L2988.44 770.152 L2988.44 722.632 Z" fill="#000000" fill-rule="evenodd" fill-opacity="1" /><path clip-path="url(#clip0400)" d="M 0 0 M3024.15 734.504 L3030.01 734.504 L3030.01 770.152 L3024.15 770.152 L3024.15 734.504 M3024.15 720.627 L3030.01 720.627 L3030.01 728.043 L3024.15 728.043 L3024.15 720.627 Z" fill="#000000" fill-rule="evenodd" fill-opacity="1" /><path clip-path="url(#clip0400)" d="M 0 0 M3054.2 720.627 L3054.2 725.497 L3048.6 725.497 Q3045.45 725.497 3044.21 726.77 Q3043 728.043 3043 731.353 L3043 734.504 L3052.64 734.504 L3052.64 739.056 L3043 739.056 L3043 770.152 L3037.11 770.152 L3037.11 739.056 L3031.51 739.056 L3031.51 734.504 L3037.11 734.504 L3037.11 732.022 Q3037.11 726.07 3039.88 723.364 Q3042.65 720.627 3048.66 720.627 L3054.2 720.627 Z" fill="#000000" fill-rule="evenodd" fill-opacity="1" /><path clip-path="url(#clip0400)" d="M 0 0 M3064.99 724.383 L3064.99 734.504 L3077.05 734.504 L3077.05 739.056 L3064.99 739.056 L3064.99 758.407 Q3064.99 762.768 3066.17 764.009 Q3067.38 765.251 3071.04 765.251 L3077.05 765.251 L3077.05 770.152 L3071.04 770.152 Q3064.26 770.152 3061.68 767.638 Q3059.1 765.091 3059.1 758.407 L3059.1 739.056 L3054.8 739.056 L3054.8 734.504 L3059.1 734.504 L3059.1 724.383 L3064.99 724.383 Z" fill="#000000" fill-rule="evenodd" fill-opacity="1" /><path clip-path="url(#clip0400)" d="M 0 0 M3118.49 747.586 Q3113.91 747.586 3111.27 750.036 Q3108.66 752.487 3108.66 756.784 Q3108.66 761.081 3111.27 763.532 Q3113.91 765.983 3118.49 765.983 Q3123.08 765.983 3125.72 763.532 Q3128.36 761.049 3128.36 756.784 Q3128.36 752.487 3125.72 750.036 Q3123.11 747.586 3118.49 747.586 M3112.06 744.848 Q3107.93 743.83 3105.6 740.997 Q3103.31 738.164 3103.31 734.09 Q3103.31 728.393 3107.35 725.083 Q3111.43 721.773 3118.49 721.773 Q3125.59 721.773 3129.63 725.083 Q3133.68 728.393 3133.68 734.09 Q3133.68 738.164 3131.35 740.997 Q3129.06 743.83 3124.95 744.848 Q3129.6 745.931 3132.18 749.082 Q3134.79 752.233 3134.79 756.784 Q3134.79 763.691 3130.56 767.383 Q3126.35 771.075 3118.49 771.075 Q3110.63 771.075 3106.4 767.383 Q3102.2 763.691 3102.2 756.784 Q3102.2 752.233 3104.81 749.082 Q3107.42 745.931 3112.06 744.848 M3109.71 734.695 Q3109.71 738.387 3112 740.456 Q3114.32 742.525 3118.49 742.525 Q3122.63 742.525 3124.95 740.456 Q3127.31 738.387 3127.31 734.695 Q3127.31 731.003 3124.95 728.934 Q3122.63 726.865 3118.49 726.865 Q3114.32 726.865 3112 728.934 Q3109.71 731.003 3109.71 734.695 Z" fill="#000000" fill-rule="evenodd" fill-opacity="1" /><polyline clip-path="url(#clip0400)" style="stroke:#00a98d; stroke-width:16; stroke-opacity:1; fill:none" points="
  2764.44,806.872 2956.44,806.872 
  "/>
<path clip-path="url(#clip0400)" d="M 0 0 M2988.44 783.112 L2994.87 783.112 L2994.87 825.221 L3018.01 825.221 L3018.01 830.632 L2988.44 830.632 L2988.44 783.112 Z" fill="#000000" fill-rule="evenodd" fill-opacity="1" /><path clip-path="url(#clip0400)" d="M 0 0 M3024.15 794.984 L3030.01 794.984 L3030.01 830.632 L3024.15 830.632 L3024.15 794.984 M3024.15 781.107 L3030.01 781.107 L3030.01 788.523 L3024.15 788.523 L3024.15 781.107 Z" fill="#000000" fill-rule="evenodd" fill-opacity="1" /><path clip-path="url(#clip0400)" d="M 0 0 M3054.2 781.107 L3054.2 785.977 L3048.6 785.977 Q3045.45 785.977 3044.21 787.25 Q3043 788.523 3043 791.833 L3043 794.984 L3052.64 794.984 L3052.64 799.536 L3043 799.536 L3043 830.632 L3037.11 830.632 L3037.11 799.536 L3031.51 799.536 L3031.51 794.984 L3037.11 794.984 L3037.11 792.502 Q3037.11 786.55 3039.88 783.844 Q3042.65 781.107 3048.66 781.107 L3054.2 781.107 Z" fill="#000000" fill-rule="evenodd" fill-opacity="1" /><path clip-path="url(#clip0400)" d="M 0 0 M3064.99 784.863 L3064.99 794.984 L3077.05 794.984 L3077.05 799.536 L3064.99 799.536 L3064.99 818.887 Q3064.99 823.248 3066.17 824.489 Q3067.38 825.731 3071.04 825.731 L3077.05 825.731 L3077.05 830.632 L3071.04 830.632 Q3064.26 830.632 3061.68 828.118 Q3059.1 825.571 3059.1 818.887 L3059.1 799.536 L3054.8 799.536 L3054.8 794.984 L3059.1 794.984 L3059.1 784.863 L3064.99 784.863 Z" fill="#000000" fill-rule="evenodd" fill-opacity="1" /><path clip-path="url(#clip0400)" d="M 0 0 M3104.93 829.645 L3104.93 823.789 Q3107.35 824.935 3109.84 825.54 Q3112.32 826.144 3114.71 826.144 Q3121.07 826.144 3124.41 821.879 Q3127.79 817.582 3128.26 808.861 Q3126.42 811.599 3123.59 813.063 Q3120.75 814.527 3117.32 814.527 Q3110.19 814.527 3106.02 810.23 Q3101.88 805.901 3101.88 798.422 Q3101.88 791.101 3106.21 786.677 Q3110.54 782.253 3117.73 782.253 Q3125.97 782.253 3130.3 788.587 Q3134.66 794.889 3134.66 806.92 Q3134.66 818.155 3129.31 824.871 Q3124 831.555 3114.99 831.555 Q3112.57 831.555 3110.09 831.078 Q3107.61 830.6 3104.93 829.645 M3117.73 809.498 Q3122.06 809.498 3124.57 806.538 Q3127.12 803.578 3127.12 798.422 Q3127.12 793.297 3124.57 790.337 Q3122.06 787.345 3117.73 787.345 Q3113.4 787.345 3110.85 790.337 Q3108.34 793.297 3108.34 798.422 Q3108.34 803.578 3110.85 806.538 Q3113.4 809.498 3117.73 809.498 Z" fill="#000000" fill-rule="evenodd" fill-opacity="1" /><polyline clip-path="url(#clip0400)" style="stroke:#8e971d; stroke-width:16; stroke-opacity:1; fill:none" points="
  2764.44,867.352 2956.44,867.352 
  "/>
<path clip-path="url(#clip0400)" d="M 0 0 M2988.44 843.592 L2994.87 843.592 L2994.87 885.701 L3018.01 885.701 L3018.01 891.112 L2988.44 891.112 L2988.44 843.592 Z" fill="#000000" fill-rule="evenodd" fill-opacity="1" /><path clip-path="url(#clip0400)" d="M 0 0 M3024.15 855.464 L3030.01 855.464 L3030.01 891.112 L3024.15 891.112 L3024.15 855.464 M3024.15 841.587 L3030.01 841.587 L3030.01 849.003 L3024.15 849.003 L3024.15 841.587 Z" fill="#000000" fill-rule="evenodd" fill-opacity="1" /><path clip-path="url(#clip0400)" d="M 0 0 M3054.2 841.587 L3054.2 846.457 L3048.6 846.457 Q3045.45 846.457 3044.21 847.73 Q3043 849.003 3043 852.313 L3043 855.464 L3052.64 855.464 L3052.64 860.016 L3043 860.016 L3043 891.112 L3037.11 891.112 L3037.11 860.016 L3031.51 860.016 L3031.51 855.464 L3037.11 855.464 L3037.11 852.982 Q3037.11 847.03 3039.88 844.324 Q3042.65 841.587 3048.66 841.587 L3054.2 841.587 Z" fill="#000000" fill-rule="evenodd" fill-opacity="1" /><path clip-path="url(#clip0400)" d="M 0 0 M3064.99 845.343 L3064.99 855.464 L3077.05 855.464 L3077.05 860.016 L3064.99 860.016 L3064.99 879.367 Q3064.99 883.728 3066.17 884.969 Q3067.38 886.211 3071.04 886.211 L3077.05 886.211 L3077.05 891.112 L3071.04 891.112 Q3064.26 891.112 3061.68 888.598 Q3059.1 886.051 3059.1 879.367 L3059.1 860.016 L3054.8 860.016 L3054.8 855.464 L3059.1 855.464 L3059.1 845.343 L3064.99 845.343 Z" fill="#000000" fill-rule="evenodd" fill-opacity="1" /><path clip-path="url(#clip0400)" d="M 0 0 M3105.86 885.701 L3116.36 885.701 L3116.36 849.449 L3104.93 851.74 L3104.93 845.884 L3116.3 843.592 L3122.73 843.592 L3122.73 885.701 L3133.23 885.701 L3133.23 891.112 L3105.86 891.112 L3105.86 885.701 Z" fill="#000000" fill-rule="evenodd" fill-opacity="1" /><path clip-path="url(#clip0400)" d="M 0 0 M3153.95 847.825 Q3148.98 847.825 3146.47 852.727 Q3143.99 857.597 3143.99 867.4 Q3143.99 877.171 3146.47 882.073 Q3148.98 886.943 3153.95 886.943 Q3158.95 886.943 3161.43 882.073 Q3163.94 877.171 3163.94 867.4 Q3163.94 857.597 3161.43 852.727 Q3158.95 847.825 3153.95 847.825 M3153.95 842.733 Q3161.94 842.733 3166.14 849.067 Q3170.37 855.369 3170.37 867.4 Q3170.37 879.399 3166.14 885.733 Q3161.94 892.035 3153.95 892.035 Q3145.96 892.035 3141.73 885.733 Q3137.53 879.399 3137.53 867.4 Q3137.53 855.369 3141.73 849.067 Q3145.96 842.733 3153.95 842.733 Z" fill="#000000" fill-rule="evenodd" fill-opacity="1" /><polyline clip-path="url(#clip0400)" style="stroke:#00a8cb; stroke-width:16; stroke-opacity:1; fill:none" points="
  2764.44,927.832 2956.44,927.832 
  "/>
<path clip-path="url(#clip0400)" d="M 0 0 M2988.44 904.072 L2994.87 904.072 L2994.87 946.181 L3018.01 946.181 L3018.01 951.592 L2988.44 951.592 L2988.44 904.072 Z" fill="#000000" fill-rule="evenodd" fill-opacity="1" /><path clip-path="url(#clip0400)" d="M 0 0 M3036.82 920.05 Q3032.11 920.05 3029.37 923.742 Q3026.64 927.402 3026.64 933.8 Q3026.64 940.198 3029.34 943.89 Q3032.08 947.55 3036.82 947.55 Q3041.5 947.55 3044.24 943.858 Q3046.97 940.166 3046.97 933.8 Q3046.97 927.466 3044.24 923.774 Q3041.5 920.05 3036.82 920.05 M3036.82 915.085 Q3044.46 915.085 3048.82 920.05 Q3053.18 925.015 3053.18 933.8 Q3053.18 942.553 3048.82 947.55 Q3044.46 952.515 3036.82 952.515 Q3029.15 952.515 3024.79 947.55 Q3020.46 942.553 3020.46 933.8 Q3020.46 925.015 3024.79 920.05 Q3029.15 915.085 3036.82 915.085 Z" fill="#000000" fill-rule="evenodd" fill-opacity="1" /><path clip-path="url(#clip0400)" d="M 0 0 M3075.52 933.673 Q3068.43 933.673 3065.69 935.296 Q3062.95 936.919 3062.95 940.834 Q3062.95 943.953 3064.99 945.799 Q3067.06 947.614 3070.59 947.614 Q3075.46 947.614 3078.39 944.176 Q3081.35 940.707 3081.35 934.978 L3081.35 933.673 L3075.52 933.673 M3087.21 931.254 L3087.21 951.592 L3081.35 951.592 L3081.35 946.181 Q3079.34 949.428 3076.35 950.987 Q3073.36 952.515 3069.03 952.515 Q3063.56 952.515 3060.31 949.46 Q3057.1 946.372 3057.1 941.216 Q3057.1 935.2 3061.11 932.145 Q3065.15 929.089 3073.14 929.089 L3081.35 929.089 L3081.35 928.516 Q3081.35 924.474 3078.68 922.278 Q3076.03 920.05 3071.23 920.05 Q3068.17 920.05 3065.28 920.782 Q3062.38 921.514 3059.71 922.978 L3059.71 917.567 Q3062.92 916.326 3065.94 915.721 Q3068.97 915.085 3071.83 915.085 Q3079.57 915.085 3083.39 919.095 Q3087.21 923.106 3087.21 931.254 Z" fill="#000000" fill-rule="evenodd" fill-opacity="1" /><path clip-path="url(#clip0400)" d="M 0 0 M3116.81 921.355 L3116.81 902.067 L3122.66 902.067 L3122.66 951.592 L3116.81 951.592 L3116.81 946.245 Q3114.96 949.428 3112.13 950.987 Q3109.33 952.515 3105.38 952.515 Q3098.92 952.515 3094.84 947.359 Q3090.8 942.203 3090.8 933.8 Q3090.8 925.397 3094.84 920.241 Q3098.92 915.085 3105.38 915.085 Q3109.33 915.085 3112.13 916.644 Q3114.96 918.172 3116.81 921.355 M3096.85 933.8 Q3096.85 940.261 3099.49 943.953 Q3102.17 947.614 3106.81 947.614 Q3111.46 947.614 3114.13 943.953 Q3116.81 940.261 3116.81 933.8 Q3116.81 927.339 3114.13 923.679 Q3111.46 919.986 3106.81 919.986 Q3102.17 919.986 3099.49 923.679 Q3096.85 927.339 3096.85 933.8 Z" fill="#000000" fill-rule="evenodd" fill-opacity="1" /></svg>
