<?xml version="1.0" encoding="utf-8"?>
<svg xmlns="http://www.w3.org/2000/svg" xmlns:xlink="http://www.w3.org/1999/xlink" width="800" height="600" viewBox="0 0 3200 2400">
<defs>
  <clipPath id="clip1900">
    <rect x="0" y="0" width="3200" height="2400"/>
  </clipPath>
</defs>
<path clip-path="url(#clip1900)" d="
M0 2400 L3200 2400 L3200 0 L0 0  Z
  " fill="#ffffff" fill-rule="evenodd" fill-opacity="1"/>
<defs>
  <clipPath id="clip1901">
    <rect x="640" y="0" width="2241" height="2241"/>
  </clipPath>
</defs>
<path clip-path="url(#clip1900)" d="
M240.82 2204.92 L2636.44 2204.92 L2636.44 131.032 L240.82 131.032  Z
  " fill="#ffffff" fill-rule="evenodd" fill-opacity="1"/>
<defs>
  <clipPath id="clip1902">
    <rect x="240" y="131" width="2397" height="2075"/>
  </clipPath>
</defs>
<polyline clip-path="url(#clip1902)" style="stroke:#000000; stroke-width:2; stroke-opacity:0.1; fill:none" points="
  308.621,2204.92 308.621,131.032 
  "/>
<polyline clip-path="url(#clip1902)" style="stroke:#000000; stroke-width:2; stroke-opacity:0.1; fill:none" points="
  760.625,2204.92 760.625,131.032 
  "/>
<polyline clip-path="url(#clip1902)" style="stroke:#000000; stroke-width:2; stroke-opacity:0.1; fill:none" points="
  1212.63,2204.92 1212.63,131.032 
  "/>
<polyline clip-path="url(#clip1902)" style="stroke:#000000; stroke-width:2; stroke-opacity:0.1; fill:none" points="
  1664.63,2204.92 1664.63,131.032 
  "/>
<polyline clip-path="url(#clip1902)" style="stroke:#000000; stroke-width:2; stroke-opacity:0.1; fill:none" points="
  2116.64,2204.92 2116.64,131.032 
  "/>
<polyline clip-path="url(#clip1902)" style="stroke:#000000; stroke-width:2; stroke-opacity:0.1; fill:none" points="
  2568.64,2204.92 2568.64,131.032 
  "/>
<polyline clip-path="url(#clip1902)" style="stroke:#000000; stroke-width:2; stroke-opacity:0.1; fill:none" points="
  240.82,1902.21 2636.44,1902.21 
  "/>
<polyline clip-path="url(#clip1902)" style="stroke:#000000; stroke-width:2; stroke-opacity:0.1; fill:none" points="
  240.82,1520.11 2636.44,1520.11 
  "/>
<polyline clip-path="url(#clip1902)" style="stroke:#000000; stroke-width:2; stroke-opacity:0.1; fill:none" points="
  240.82,1138 2636.44,1138 
  "/>
<polyline clip-path="url(#clip1902)" style="stroke:#000000; stroke-width:2; stroke-opacity:0.1; fill:none" points="
  240.82,755.897 2636.44,755.897 
  "/>
<polyline clip-path="url(#clip1902)" style="stroke:#000000; stroke-width:2; stroke-opacity:0.1; fill:none" points="
  240.82,373.792 2636.44,373.792 
  "/>
<polyline clip-path="url(#clip1900)" style="stroke:#000000; stroke-width:4; stroke-opacity:1; fill:none" points="
  240.82,2204.92 2636.44,2204.92 
  "/>
<polyline clip-path="url(#clip1900)" style="stroke:#000000; stroke-width:4; stroke-opacity:1; fill:none" points="
  240.82,2204.92 240.82,131.032 
  "/>
<polyline clip-path="url(#clip1900)" style="stroke:#000000; stroke-width:4; stroke-opacity:1; fill:none" points="
  308.621,2204.92 308.621,2180.03 
  "/>
<polyline clip-path="url(#clip1900)" style="stroke:#000000; stroke-width:4; stroke-opacity:1; fill:none" points="
  760.625,2204.92 760.625,2180.03 
  "/>
<polyline clip-path="url(#clip1900)" style="stroke:#000000; stroke-width:4; stroke-opacity:1; fill:none" points="
  1212.63,2204.92 1212.63,2180.03 
  "/>
<polyline clip-path="url(#clip1900)" style="stroke:#000000; stroke-width:4; stroke-opacity:1; fill:none" points="
  1664.63,2204.92 1664.63,2180.03 
  "/>
<polyline clip-path="url(#clip1900)" style="stroke:#000000; stroke-width:4; stroke-opacity:1; fill:none" points="
  2116.64,2204.92 2116.64,2180.03 
  "/>
<polyline clip-path="url(#clip1900)" style="stroke:#000000; stroke-width:4; stroke-opacity:1; fill:none" points="
  2568.64,2204.92 2568.64,2180.03 
  "/>
<polyline clip-path="url(#clip1900)" style="stroke:#000000; stroke-width:4; stroke-opacity:1; fill:none" points="
  240.82,1902.21 269.568,1902.21 
  "/>
<polyline clip-path="url(#clip1900)" style="stroke:#000000; stroke-width:4; stroke-opacity:1; fill:none" points="
  240.82,1520.11 269.568,1520.11 
  "/>
<polyline clip-path="url(#clip1900)" style="stroke:#000000; stroke-width:4; stroke-opacity:1; fill:none" points="
  240.82,1138 269.568,1138 
  "/>
<polyline clip-path="url(#clip1900)" style="stroke:#000000; stroke-width:4; stroke-opacity:1; fill:none" points="
  240.82,755.897 269.568,755.897 
  "/>
<polyline clip-path="url(#clip1900)" style="stroke:#000000; stroke-width:4; stroke-opacity:1; fill:none" points="
  240.82,373.792 269.568,373.792 
  "/>
<path clip-path="url(#clip1900)" d="M 0 0 M308.621 2230.91 Q305.01 2230.91 303.181 2234.48 Q301.375 2238.02 301.375 2245.15 Q301.375 2252.25 303.181 2255.82 Q305.01 2259.36 308.621 2259.36 Q312.255 2259.36 314.061 2255.82 Q315.889 2252.25 315.889 2245.15 Q315.889 2238.02 314.061 2234.48 Q312.255 2230.91 308.621 2230.91 M308.621 2227.21 Q314.431 2227.21 317.486 2231.81 Q320.565 2236.4 320.565 2245.15 Q320.565 2253.87 317.486 2258.48 Q314.431 2263.06 308.621 2263.06 Q302.811 2263.06 299.732 2258.48 Q296.676 2253.87 296.676 2245.15 Q296.676 2236.4 299.732 2231.81 Q302.811 2227.21 308.621 2227.21 Z" fill="#000000" fill-rule="evenodd" fill-opacity="1" /><path clip-path="url(#clip1900)" d="M 0 0 M751.007 2258.46 L758.646 2258.46 L758.646 2232.09 L750.336 2233.76 L750.336 2229.5 L758.599 2227.83 L763.275 2227.83 L763.275 2258.46 L770.914 2258.46 L770.914 2262.39 L751.007 2262.39 L751.007 2258.46 Z" fill="#000000" fill-rule="evenodd" fill-opacity="1" /><path clip-path="url(#clip1900)" d="M 0 0 M1207.28 2258.46 L1223.6 2258.46 L1223.6 2262.39 L1201.66 2262.39 L1201.66 2258.46 Q1204.32 2255.7 1208.9 2251.07 Q1213.51 2246.42 1214.69 2245.08 Q1216.93 2242.55 1217.81 2240.82 Q1218.72 2239.06 1218.72 2237.37 Q1218.72 2234.61 1216.77 2232.88 Q1214.85 2231.14 1211.75 2231.14 Q1209.55 2231.14 1207.1 2231.91 Q1204.67 2232.67 1201.89 2234.22 L1201.89 2229.5 Q1204.71 2228.36 1207.17 2227.79 Q1209.62 2227.21 1211.66 2227.21 Q1217.03 2227.21 1220.22 2229.89 Q1223.42 2232.58 1223.42 2237.07 Q1223.42 2239.2 1222.61 2241.12 Q1221.82 2243.02 1219.71 2245.61 Q1219.13 2246.28 1216.03 2249.5 Q1212.93 2252.69 1207.28 2258.46 Z" fill="#000000" fill-rule="evenodd" fill-opacity="1" /><path clip-path="url(#clip1900)" d="M 0 0 M1668.88 2243.76 Q1672.24 2244.48 1674.11 2246.74 Q1676.01 2249.01 1676.01 2252.35 Q1676.01 2257.46 1672.49 2260.26 Q1668.97 2263.06 1662.49 2263.06 Q1660.32 2263.06 1658 2262.62 Q1655.71 2262.21 1653.26 2261.35 L1653.26 2256.84 Q1655.2 2257.97 1657.51 2258.55 Q1659.83 2259.13 1662.35 2259.13 Q1666.75 2259.13 1669.04 2257.39 Q1671.36 2255.66 1671.36 2252.35 Q1671.36 2249.29 1669.2 2247.58 Q1667.08 2245.84 1663.26 2245.84 L1659.23 2245.84 L1659.23 2242 L1663.44 2242 Q1666.89 2242 1668.72 2240.63 Q1670.55 2239.24 1670.55 2236.65 Q1670.55 2233.99 1668.65 2232.58 Q1666.77 2231.14 1663.26 2231.14 Q1661.33 2231.14 1659.14 2231.56 Q1656.94 2231.98 1654.3 2232.85 L1654.3 2228.69 Q1656.96 2227.95 1659.27 2227.58 Q1661.61 2227.21 1663.67 2227.21 Q1669 2227.21 1672.1 2229.64 Q1675.2 2232.04 1675.2 2236.17 Q1675.2 2239.04 1673.56 2241.03 Q1671.91 2242.99 1668.88 2243.76 Z" fill="#000000" fill-rule="evenodd" fill-opacity="1" /><path clip-path="url(#clip1900)" d="M 0 0 M2119.65 2231.91 L2107.84 2250.35 L2119.65 2250.35 L2119.65 2231.91 M2118.42 2227.83 L2124.3 2227.83 L2124.3 2250.35 L2129.23 2250.35 L2129.23 2254.24 L2124.3 2254.24 L2124.3 2262.39 L2119.65 2262.39 L2119.65 2254.24 L2104.04 2254.24 L2104.04 2249.73 L2118.42 2227.83 Z" fill="#000000" fill-rule="evenodd" fill-opacity="1" /><path clip-path="url(#clip1900)" d="M 0 0 M2558.92 2227.83 L2577.28 2227.83 L2577.28 2231.77 L2563.2 2231.77 L2563.2 2240.24 Q2564.22 2239.89 2565.24 2239.73 Q2566.26 2239.54 2567.28 2239.54 Q2573.06 2239.54 2576.44 2242.72 Q2579.82 2245.89 2579.82 2251.3 Q2579.82 2256.88 2576.35 2259.98 Q2572.88 2263.06 2566.56 2263.06 Q2564.38 2263.06 2562.11 2262.69 Q2559.87 2262.32 2557.46 2261.58 L2557.46 2256.88 Q2559.54 2258.02 2561.77 2258.57 Q2563.99 2259.13 2566.47 2259.13 Q2570.47 2259.13 2572.81 2257.02 Q2575.15 2254.92 2575.15 2251.3 Q2575.15 2247.69 2572.81 2245.59 Q2570.47 2243.48 2566.47 2243.48 Q2564.59 2243.48 2562.72 2243.9 Q2560.86 2244.31 2558.92 2245.19 L2558.92 2227.83 Z" fill="#000000" fill-rule="evenodd" fill-opacity="1" /><path clip-path="url(#clip1900)" d="M 0 0 M132.2 1904.61 L144.677 1904.61 L144.677 1908.4 L132.2 1908.4 L132.2 1904.61 Z" fill="#000000" fill-rule="evenodd" fill-opacity="1" /><path clip-path="url(#clip1900)" d="M 0 0 M159.746 1888.01 Q156.135 1888.01 154.307 1891.58 Q152.501 1895.12 152.501 1902.25 Q152.501 1909.35 154.307 1912.92 Q156.135 1916.46 159.746 1916.46 Q163.381 1916.46 165.186 1912.92 Q167.015 1909.35 167.015 1902.25 Q167.015 1895.12 165.186 1891.58 Q163.381 1888.01 159.746 1888.01 M159.746 1884.31 Q165.556 1884.31 168.612 1888.91 Q171.691 1893.5 171.691 1902.25 Q171.691 1910.97 168.612 1915.58 Q165.556 1920.16 159.746 1920.16 Q153.936 1920.16 150.857 1915.58 Q147.802 1910.97 147.802 1902.25 Q147.802 1893.5 150.857 1888.91 Q153.936 1884.31 159.746 1884.31 Z" fill="#000000" fill-rule="evenodd" fill-opacity="1" /><path clip-path="url(#clip1900)" d="M 0 0 M176.76 1913.61 L181.644 1913.61 L181.644 1919.49 L176.76 1919.49 L176.76 1913.61 Z" fill="#000000" fill-rule="evenodd" fill-opacity="1" /><path clip-path="url(#clip1900)" d="M 0 0 M197.292 1900.35 Q194.144 1900.35 192.292 1902.5 Q190.464 1904.65 190.464 1908.4 Q190.464 1912.13 192.292 1914.31 Q194.144 1916.46 197.292 1916.46 Q200.441 1916.46 202.269 1914.31 Q204.121 1912.13 204.121 1908.4 Q204.121 1904.65 202.269 1902.5 Q200.441 1900.35 197.292 1900.35 M206.575 1885.7 L206.575 1889.96 Q204.816 1889.12 203.01 1888.68 Q201.228 1888.24 199.468 1888.24 Q194.839 1888.24 192.385 1891.37 Q189.954 1894.49 189.607 1900.81 Q190.973 1898.8 193.033 1897.73 Q195.093 1896.64 197.57 1896.64 Q202.778 1896.64 205.788 1899.82 Q208.82 1902.96 208.82 1908.4 Q208.82 1913.73 205.672 1916.95 Q202.524 1920.16 197.292 1920.16 Q191.297 1920.16 188.126 1915.58 Q184.955 1910.97 184.955 1902.25 Q184.955 1894.05 188.843 1889.19 Q192.732 1884.31 199.283 1884.31 Q201.042 1884.31 202.825 1884.65 Q204.63 1885 206.575 1885.7 Z" fill="#000000" fill-rule="evenodd" fill-opacity="1" /><path clip-path="url(#clip1900)" d="M 0 0 M133.01 1522.5 L145.487 1522.5 L145.487 1526.3 L133.01 1526.3 L133.01 1522.5 Z" fill="#000000" fill-rule="evenodd" fill-opacity="1" /><path clip-path="url(#clip1900)" d="M 0 0 M160.556 1505.91 Q156.945 1505.91 155.117 1509.47 Q153.311 1513.01 153.311 1520.14 Q153.311 1527.25 155.117 1530.81 Q156.945 1534.35 160.556 1534.35 Q164.191 1534.35 165.996 1530.81 Q167.825 1527.25 167.825 1520.14 Q167.825 1513.01 165.996 1509.47 Q164.191 1505.91 160.556 1505.91 M160.556 1502.2 Q166.367 1502.2 169.422 1506.81 Q172.501 1511.39 172.501 1520.14 Q172.501 1528.87 169.422 1533.48 Q166.367 1538.06 160.556 1538.06 Q154.746 1538.06 151.668 1533.48 Q148.612 1528.87 148.612 1520.14 Q148.612 1511.39 151.668 1506.81 Q154.746 1502.2 160.556 1502.2 Z" fill="#000000" fill-rule="evenodd" fill-opacity="1" /><path clip-path="url(#clip1900)" d="M 0 0 M177.57 1531.51 L182.455 1531.51 L182.455 1537.39 L177.57 1537.39 L177.57 1531.51 Z" fill="#000000" fill-rule="evenodd" fill-opacity="1" /><path clip-path="url(#clip1900)" d="M 0 0 M201.691 1518.75 Q205.047 1519.47 206.922 1521.74 Q208.82 1524.01 208.82 1527.34 Q208.82 1532.46 205.302 1535.26 Q201.783 1538.06 195.302 1538.06 Q193.126 1538.06 190.811 1537.62 Q188.519 1537.2 186.066 1536.35 L186.066 1531.83 Q188.01 1532.97 190.325 1533.54 Q192.64 1534.12 195.163 1534.12 Q199.561 1534.12 201.853 1532.39 Q204.167 1530.65 204.167 1527.34 Q204.167 1524.29 202.015 1522.57 Q199.885 1520.84 196.066 1520.84 L192.038 1520.84 L192.038 1516.99 L196.251 1516.99 Q199.7 1516.99 201.528 1515.63 Q203.357 1514.24 203.357 1511.65 Q203.357 1508.98 201.459 1507.57 Q199.584 1506.14 196.066 1506.14 Q194.144 1506.14 191.945 1506.55 Q189.746 1506.97 187.107 1507.85 L187.107 1503.68 Q189.769 1502.94 192.084 1502.57 Q194.422 1502.2 196.482 1502.2 Q201.806 1502.2 204.908 1504.63 Q208.01 1507.04 208.01 1511.16 Q208.01 1514.03 206.366 1516.02 Q204.723 1517.99 201.691 1518.75 Z" fill="#000000" fill-rule="evenodd" fill-opacity="1" /><path clip-path="url(#clip1900)" d="M 0 0 M159.908 1123.8 Q156.297 1123.8 154.469 1127.37 Q152.663 1130.91 152.663 1138.04 Q152.663 1145.14 154.469 1148.71 Q156.297 1152.25 159.908 1152.25 Q163.543 1152.25 165.348 1148.71 Q167.177 1145.14 167.177 1138.04 Q167.177 1130.91 165.348 1127.37 Q163.543 1123.8 159.908 1123.8 M159.908 1120.1 Q165.718 1120.1 168.774 1124.7 Q171.853 1129.29 171.853 1138.04 Q171.853 1146.76 168.774 1151.37 Q165.718 1155.95 159.908 1155.95 Q154.098 1155.95 151.02 1151.37 Q147.964 1146.76 147.964 1138.04 Q147.964 1129.29 151.02 1124.7 Q154.098 1120.1 159.908 1120.1 Z" fill="#000000" fill-rule="evenodd" fill-opacity="1" /><path clip-path="url(#clip1900)" d="M 0 0 M176.922 1149.4 L181.806 1149.4 L181.806 1155.28 L176.922 1155.28 L176.922 1149.4 Z" fill="#000000" fill-rule="evenodd" fill-opacity="1" /><path clip-path="url(#clip1900)" d="M 0 0 M196.876 1123.8 Q193.265 1123.8 191.436 1127.37 Q189.63 1130.91 189.63 1138.04 Q189.63 1145.14 191.436 1148.71 Q193.265 1152.25 196.876 1152.25 Q200.51 1152.25 202.316 1148.71 Q204.144 1145.14 204.144 1138.04 Q204.144 1130.91 202.316 1127.37 Q200.51 1123.8 196.876 1123.8 M196.876 1120.1 Q202.686 1120.1 205.741 1124.7 Q208.82 1129.29 208.82 1138.04 Q208.82 1146.76 205.741 1151.37 Q202.686 1155.95 196.876 1155.95 Q191.066 1155.95 187.987 1151.37 Q184.931 1146.76 184.931 1138.04 Q184.931 1129.29 187.987 1124.7 Q191.066 1120.1 196.876 1120.1 Z" fill="#000000" fill-rule="evenodd" fill-opacity="1" /><path clip-path="url(#clip1900)" d="M 0 0 M160.556 741.696 Q156.945 741.696 155.117 745.261 Q153.311 748.802 153.311 755.932 Q153.311 763.038 155.117 766.603 Q156.945 770.145 160.556 770.145 Q164.191 770.145 165.996 766.603 Q167.825 763.038 167.825 755.932 Q167.825 748.802 165.996 745.261 Q164.191 741.696 160.556 741.696 M160.556 737.992 Q166.367 737.992 169.422 742.599 Q172.501 747.182 172.501 755.932 Q172.501 764.659 169.422 769.265 Q166.367 773.849 160.556 773.849 Q154.746 773.849 151.668 769.265 Q148.612 764.659 148.612 755.932 Q148.612 747.182 151.668 742.599 Q154.746 737.992 160.556 737.992 Z" fill="#000000" fill-rule="evenodd" fill-opacity="1" /><path clip-path="url(#clip1900)" d="M 0 0 M177.57 767.298 L182.455 767.298 L182.455 773.177 L177.57 773.177 L177.57 767.298 Z" fill="#000000" fill-rule="evenodd" fill-opacity="1" /><path clip-path="url(#clip1900)" d="M 0 0 M201.691 754.543 Q205.047 755.261 206.922 757.529 Q208.82 759.798 208.82 763.131 Q208.82 768.247 205.302 771.048 Q201.783 773.849 195.302 773.849 Q193.126 773.849 190.811 773.409 Q188.519 772.992 186.066 772.136 L186.066 767.622 Q188.01 768.756 190.325 769.335 Q192.64 769.913 195.163 769.913 Q199.561 769.913 201.853 768.177 Q204.167 766.441 204.167 763.131 Q204.167 760.075 202.015 758.363 Q199.885 756.626 196.066 756.626 L192.038 756.626 L192.038 752.784 L196.251 752.784 Q199.7 752.784 201.528 751.418 Q203.357 750.029 203.357 747.437 Q203.357 744.775 201.459 743.363 Q199.584 741.927 196.066 741.927 Q194.144 741.927 191.945 742.344 Q189.746 742.761 187.107 743.64 L187.107 739.474 Q189.769 738.733 192.084 738.363 Q194.422 737.992 196.482 737.992 Q201.806 737.992 204.908 740.423 Q208.01 742.83 208.01 746.951 Q208.01 749.821 206.366 751.812 Q204.723 753.779 201.691 754.543 Z" fill="#000000" fill-rule="evenodd" fill-opacity="1" /><path clip-path="url(#clip1900)" d="M 0 0 M159.746 359.591 Q156.135 359.591 154.307 363.156 Q152.501 366.698 152.501 373.827 Q152.501 380.934 154.307 384.498 Q156.135 388.04 159.746 388.04 Q163.381 388.04 165.186 384.498 Q167.015 380.934 167.015 373.827 Q167.015 366.698 165.186 363.156 Q163.381 359.591 159.746 359.591 M159.746 355.887 Q165.556 355.887 168.612 360.494 Q171.691 365.077 171.691 373.827 Q171.691 382.554 168.612 387.16 Q165.556 391.744 159.746 391.744 Q153.936 391.744 150.857 387.16 Q147.802 382.554 147.802 373.827 Q147.802 365.077 150.857 360.494 Q153.936 355.887 159.746 355.887 Z" fill="#000000" fill-rule="evenodd" fill-opacity="1" /><path clip-path="url(#clip1900)" d="M 0 0 M176.76 385.193 L181.644 385.193 L181.644 391.072 L176.76 391.072 L176.76 385.193 Z" fill="#000000" fill-rule="evenodd" fill-opacity="1" /><path clip-path="url(#clip1900)" d="M 0 0 M197.292 371.929 Q194.144 371.929 192.292 374.082 Q190.464 376.234 190.464 379.984 Q190.464 383.711 192.292 385.887 Q194.144 388.04 197.292 388.04 Q200.441 388.04 202.269 385.887 Q204.121 383.711 204.121 379.984 Q204.121 376.234 202.269 374.082 Q200.441 371.929 197.292 371.929 M206.575 357.276 L206.575 361.535 Q204.816 360.702 203.01 360.262 Q201.228 359.823 199.468 359.823 Q194.839 359.823 192.385 362.948 Q189.954 366.073 189.607 372.392 Q190.973 370.378 193.033 369.313 Q195.093 368.225 197.57 368.225 Q202.778 368.225 205.788 371.397 Q208.82 374.545 208.82 379.984 Q208.82 385.309 205.672 388.526 Q202.524 391.744 197.292 391.744 Q191.297 391.744 188.126 387.16 Q184.955 382.554 184.955 373.827 Q184.955 365.633 188.843 360.772 Q192.732 355.887 199.283 355.887 Q201.042 355.887 202.825 356.235 Q204.63 356.582 206.575 357.276 Z" fill="#000000" fill-rule="evenodd" fill-opacity="1" /><path clip-path="url(#clip1900)" d="M 0 0 M1004.58 45.1919 L1004.58 72.576 L997.123 72.576 L997.123 45.4349 Q997.123 38.994 994.611 35.7938 Q992.1 32.5936 987.077 32.5936 Q981.041 32.5936 977.557 36.4419 Q974.073 40.2903 974.073 46.9338 L974.073 72.576 L966.579 72.576 L966.579 9.54393 L974.073 9.54393 L974.073 34.2544 Q976.747 30.163 980.352 28.1376 Q983.998 26.1121 988.738 26.1121 Q996.556 26.1121 1000.57 30.9732 Q1004.58 35.7938 1004.58 45.1919 Z" fill="#000000" fill-rule="evenodd" fill-opacity="1" /><path clip-path="url(#clip1900)" d="M 0 0 M1029.98 32.4315 Q1023.98 32.4315 1020.5 37.1306 Q1017.01 41.7891 1017.01 49.9314 Q1017.01 58.0738 1020.46 62.7728 Q1023.94 67.4314 1029.98 67.4314 Q1035.93 67.4314 1039.41 62.7323 Q1042.9 58.0333 1042.9 49.9314 Q1042.9 41.8701 1039.41 37.1711 Q1035.93 32.4315 1029.98 32.4315 M1029.98 26.1121 Q1039.7 26.1121 1045.25 32.4315 Q1050.8 38.7509 1050.8 49.9314 Q1050.8 61.0714 1045.25 67.4314 Q1039.7 73.7508 1029.98 73.7508 Q1020.21 73.7508 1014.66 67.4314 Q1009.15 61.0714 1009.15 49.9314 Q1009.15 38.7509 1014.66 32.4315 Q1020.21 26.1121 1029.98 26.1121 Z" fill="#000000" fill-rule="evenodd" fill-opacity="1" /><path clip-path="url(#clip1900)" d="M 0 0 M1053.27 27.2059 L1061.17 27.2059 L1075.35 65.2844 L1089.52 27.2059 L1097.42 27.2059 L1080.41 72.576 L1070.28 72.576 L1053.27 27.2059 Z" fill="#000000" fill-rule="evenodd" fill-opacity="1" /><path clip-path="url(#clip1900)" d="M 0 0 M1144.05 48.0275 L1144.05 51.6733 L1109.78 51.6733 Q1110.26 59.3701 1114.4 63.421 Q1118.57 67.4314 1125.98 67.4314 Q1130.28 67.4314 1134.29 66.3781 Q1138.34 65.3249 1142.31 63.2184 L1142.31 70.267 Q1138.3 71.9684 1134.08 72.8596 Q1129.87 73.7508 1125.54 73.7508 Q1114.68 73.7508 1108.32 67.4314 Q1102 61.1119 1102 50.3365 Q1102 39.1965 1108 32.6746 Q1114.03 26.1121 1124.24 26.1121 Q1133.4 26.1121 1138.7 32.0264 Q1144.05 37.9003 1144.05 48.0275 M1136.6 45.84 Q1136.51 39.7232 1133.15 36.0774 Q1129.83 32.4315 1124.32 32.4315 Q1118.08 32.4315 1114.32 35.9558 Q1110.59 39.4801 1110.02 45.8805 L1136.6 45.84 Z" fill="#000000" fill-rule="evenodd" fill-opacity="1" /><path clip-path="url(#clip1900)" d="M 0 0 M1178.16 34.1734 Q1176.9 33.4443 1175.4 33.1202 Q1173.94 32.7556 1172.16 32.7556 Q1165.84 32.7556 1162.44 36.8875 Q1159.08 40.9789 1159.08 48.6757 L1159.08 72.576 L1151.58 72.576 L1151.58 27.2059 L1159.08 27.2059 L1159.08 34.2544 Q1161.43 30.1225 1165.19 28.1376 Q1168.96 26.1121 1174.35 26.1121 Q1175.12 26.1121 1176.05 26.2337 Q1176.98 26.3147 1178.12 26.5172 L1178.16 34.1734 Z" fill="#000000" fill-rule="evenodd" fill-opacity="1" /><path clip-path="url(#clip1900)" d="M 0 0 M1176.9 46.5287 L1198.74 46.5287 L1198.74 53.1722 L1176.9 53.1722 L1176.9 46.5287 Z" fill="#000000" fill-rule="evenodd" fill-opacity="1" /><path clip-path="url(#clip1900)" d="M 0 0 M1209.03 65.6895 L1222.39 65.6895 L1222.39 19.5497 L1207.85 22.4663 L1207.85 15.0127 L1222.31 12.096 L1230.5 12.096 L1230.5 65.6895 L1243.86 65.6895 L1243.86 72.576 L1209.03 72.576 L1209.03 65.6895 Z" fill="#000000" fill-rule="evenodd" fill-opacity="1" /><path clip-path="url(#clip1900)" d="M 0 0 M1270.23 17.4837 Q1263.92 17.4837 1260.72 23.7221 Q1257.56 29.92 1257.56 42.3968 Q1257.56 54.833 1260.72 61.0714 Q1263.92 67.2693 1270.23 67.2693 Q1276.59 67.2693 1279.75 61.0714 Q1282.95 54.833 1282.95 42.3968 Q1282.95 29.92 1279.75 23.7221 Q1276.59 17.4837 1270.23 17.4837 M1270.23 11.0023 Q1280.4 11.0023 1285.75 19.0636 Q1291.14 27.0843 1291.14 42.3968 Q1291.14 57.6687 1285.75 65.73 Q1280.4 73.7508 1270.23 73.7508 Q1260.07 73.7508 1254.68 65.73 Q1249.33 57.6687 1249.33 42.3968 Q1249.33 27.0843 1254.68 19.0636 Q1260.07 11.0023 1270.23 11.0023 Z" fill="#000000" fill-rule="evenodd" fill-opacity="1" /><path clip-path="url(#clip1900)" d="M 0 0 M1321.56 46.5287 L1343.39 46.5287 L1343.39 53.1722 L1321.56 53.1722 L1321.56 46.5287 Z" fill="#000000" fill-rule="evenodd" fill-opacity="1" /><path clip-path="url(#clip1900)" d="M 0 0 M1398.12 20.1573 L1387.02 50.2555 L1409.26 50.2555 L1398.12 20.1573 M1393.5 12.096 L1402.78 12.096 L1425.83 72.576 L1417.32 72.576 L1411.81 57.061 L1384.55 57.061 L1379.04 72.576 L1370.41 72.576 L1393.5 12.096 Z" fill="#000000" fill-rule="evenodd" fill-opacity="1" /><path clip-path="url(#clip1900)" d="M 0 0 M1463.5 49.3643 Q1463.5 41.2625 1460.14 36.8065 Q1456.82 32.3505 1450.78 32.3505 Q1444.79 32.3505 1441.43 36.8065 Q1438.1 41.2625 1438.1 49.3643 Q1438.1 57.4256 1441.43 61.8816 Q1444.79 66.3376 1450.78 66.3376 Q1456.82 66.3376 1460.14 61.8816 Q1463.5 57.4256 1463.5 49.3643 M1470.96 66.9452 Q1470.96 78.5308 1465.81 84.1616 Q1460.67 89.8329 1450.05 89.8329 Q1446.13 89.8329 1442.64 89.2252 Q1439.16 88.6581 1435.88 87.4428 L1435.88 80.1917 Q1439.16 81.9741 1442.36 82.8248 Q1445.56 83.6755 1448.88 83.6755 Q1456.21 83.6755 1459.86 79.8271 Q1463.5 76.0193 1463.5 68.282 L1463.5 64.5957 Q1461.19 68.6061 1457.59 70.5911 Q1453.98 72.576 1448.96 72.576 Q1440.62 72.576 1435.51 66.2161 Q1430.41 59.8562 1430.41 49.3643 Q1430.41 38.832 1435.51 32.472 Q1440.62 26.1121 1448.96 26.1121 Q1453.98 26.1121 1457.59 28.0971 Q1461.19 30.082 1463.5 34.0924 L1463.5 27.2059 L1470.96 27.2059 L1470.96 66.9452 Z" fill="#000000" fill-rule="evenodd" fill-opacity="1" /><path clip-path="url(#clip1900)" d="M 0 0 M1517.58 48.0275 L1517.58 51.6733 L1483.31 51.6733 Q1483.8 59.3701 1487.93 63.421 Q1492.1 67.4314 1499.52 67.4314 Q1503.81 67.4314 1507.82 66.3781 Q1511.87 65.3249 1515.84 63.2184 L1515.84 70.267 Q1511.83 71.9684 1507.62 72.8596 Q1503.4 73.7508 1499.07 73.7508 Q1488.21 73.7508 1481.85 67.4314 Q1475.53 61.1119 1475.53 50.3365 Q1475.53 39.1965 1481.53 32.6746 Q1487.57 26.1121 1497.77 26.1121 Q1506.93 26.1121 1512.24 32.0264 Q1517.58 37.9003 1517.58 48.0275 M1510.13 45.84 Q1510.05 39.7232 1506.69 36.0774 Q1503.36 32.4315 1497.86 32.4315 Q1491.62 32.4315 1487.85 35.9558 Q1484.12 39.4801 1483.56 45.8805 L1510.13 45.84 Z" fill="#000000" fill-rule="evenodd" fill-opacity="1" /><path clip-path="url(#clip1900)" d="M 0 0 M1563.12 45.1919 L1563.12 72.576 L1555.66 72.576 L1555.66 45.4349 Q1555.66 38.994 1553.15 35.7938 Q1550.64 32.5936 1545.62 32.5936 Q1539.58 32.5936 1536.1 36.4419 Q1532.61 40.2903 1532.61 46.9338 L1532.61 72.576 L1525.12 72.576 L1525.12 27.2059 L1532.61 27.2059 L1532.61 34.2544 Q1535.29 30.163 1538.89 28.1376 Q1542.54 26.1121 1547.28 26.1121 Q1555.09 26.1121 1559.1 30.9732 Q1563.12 35.7938 1563.12 45.1919 Z" fill="#000000" fill-rule="evenodd" fill-opacity="1" /><path clip-path="url(#clip1900)" d="M 0 0 M1578.31 14.324 L1578.31 27.2059 L1593.66 27.2059 L1593.66 32.9987 L1578.31 32.9987 L1578.31 57.6282 Q1578.31 63.1779 1579.8 64.7578 Q1581.34 66.3376 1586 66.3376 L1593.66 66.3376 L1593.66 72.576 L1586 72.576 Q1577.37 72.576 1574.09 69.3758 Q1570.81 66.1351 1570.81 57.6282 L1570.81 32.9987 L1565.34 32.9987 L1565.34 27.2059 L1570.81 27.2059 L1570.81 14.324 L1578.31 14.324 Z" fill="#000000" fill-rule="evenodd" fill-opacity="1" /><path clip-path="url(#clip1900)" d="M 0 0 M1643.77 72.576 L1620.68 12.096 L1629.23 12.096 L1648.39 63.0159 L1667.59 12.096 L1676.09 12.096 L1653.05 72.576 L1643.77 72.576 Z" fill="#000000" fill-rule="evenodd" fill-opacity="1" /><path clip-path="url(#clip1900)" d="M 0 0 M1716.28 48.0275 L1716.28 51.6733 L1682.01 51.6733 Q1682.5 59.3701 1686.63 63.421 Q1690.8 67.4314 1698.21 67.4314 Q1702.51 67.4314 1706.52 66.3781 Q1710.57 65.3249 1714.54 63.2184 L1714.54 70.267 Q1710.53 71.9684 1706.31 72.8596 Q1702.1 73.7508 1697.77 73.7508 Q1686.91 73.7508 1680.55 67.4314 Q1674.23 61.1119 1674.23 50.3365 Q1674.23 39.1965 1680.23 32.6746 Q1686.26 26.1121 1696.47 26.1121 Q1705.63 26.1121 1710.93 32.0264 Q1716.28 37.9003 1716.28 48.0275 M1708.83 45.84 Q1708.75 39.7232 1705.38 36.0774 Q1702.06 32.4315 1696.55 32.4315 Q1690.31 32.4315 1686.55 35.9558 Q1682.82 39.4801 1682.25 45.8805 L1708.83 45.84 Z" fill="#000000" fill-rule="evenodd" fill-opacity="1" /><path clip-path="url(#clip1900)" d="M 0 0 M1724.1 9.54393 L1731.55 9.54393 L1731.55 72.576 L1724.1 72.576 L1724.1 9.54393 Z" fill="#000000" fill-rule="evenodd" fill-opacity="1" /><path clip-path="url(#clip1900)" d="M 0 0 M1756.95 32.4315 Q1750.96 32.4315 1747.47 37.1306 Q1743.99 41.7891 1743.99 49.9314 Q1743.99 58.0738 1747.43 62.7728 Q1750.92 67.4314 1756.95 67.4314 Q1762.91 67.4314 1766.39 62.7323 Q1769.87 58.0333 1769.87 49.9314 Q1769.87 41.8701 1766.39 37.1711 Q1762.91 32.4315 1756.95 32.4315 M1756.95 26.1121 Q1766.67 26.1121 1772.22 32.4315 Q1777.77 38.7509 1777.77 49.9314 Q1777.77 61.0714 1772.22 67.4314 Q1766.67 73.7508 1756.95 73.7508 Q1747.19 73.7508 1741.64 67.4314 Q1736.13 61.0714 1736.13 49.9314 Q1736.13 38.7509 1741.64 32.4315 Q1747.19 26.1121 1756.95 26.1121 Z" fill="#000000" fill-rule="evenodd" fill-opacity="1" /><path clip-path="url(#clip1900)" d="M 0 0 M1818.24 28.9478 L1818.24 35.9153 Q1815.08 34.1734 1811.88 33.3227 Q1808.72 32.4315 1805.48 32.4315 Q1798.23 32.4315 1794.22 37.0496 Q1790.21 41.6271 1790.21 49.9314 Q1790.21 58.2358 1794.22 62.8538 Q1798.23 67.4314 1805.48 67.4314 Q1808.72 67.4314 1811.88 66.5807 Q1815.08 65.6895 1818.24 63.9476 L1818.24 70.8341 Q1815.12 72.2924 1811.76 73.0216 Q1808.44 73.7508 1804.67 73.7508 Q1794.42 73.7508 1788.39 67.3098 Q1782.35 60.8689 1782.35 49.9314 Q1782.35 38.832 1788.43 32.472 Q1794.54 26.1121 1805.16 26.1121 Q1808.6 26.1121 1811.88 26.8413 Q1815.16 27.5299 1818.24 28.9478 Z" fill="#000000" fill-rule="evenodd" fill-opacity="1" /><path clip-path="url(#clip1900)" d="M 0 0 M1826.06 27.2059 L1833.51 27.2059 L1833.51 72.576 L1826.06 72.576 L1826.06 27.2059 M1826.06 9.54393 L1833.51 9.54393 L1833.51 18.9825 L1826.06 18.9825 L1826.06 9.54393 Z" fill="#000000" fill-rule="evenodd" fill-opacity="1" /><path clip-path="url(#clip1900)" d="M 0 0 M1848.7 14.324 L1848.7 27.2059 L1864.06 27.2059 L1864.06 32.9987 L1848.7 32.9987 L1848.7 57.6282 Q1848.7 63.1779 1850.2 64.7578 Q1851.74 66.3376 1856.4 66.3376 L1864.06 66.3376 L1864.06 72.576 L1856.4 72.576 Q1847.77 72.576 1844.49 69.3758 Q1841.21 66.1351 1841.21 57.6282 L1841.21 32.9987 L1835.74 32.9987 L1835.74 27.2059 L1841.21 27.2059 L1841.21 14.324 L1848.7 14.324 Z" fill="#000000" fill-rule="evenodd" fill-opacity="1" /><path clip-path="url(#clip1900)" d="M 0 0 M1890.75 76.7889 Q1887.59 84.8907 1884.6 87.3618 Q1881.6 89.8329 1876.57 89.8329 L1870.62 89.8329 L1870.62 83.5945 L1874.99 83.5945 Q1878.07 83.5945 1879.77 82.1361 Q1881.48 80.6778 1883.54 75.2496 L1884.88 71.8468 L1866.53 27.2059 L1874.43 27.2059 L1888.61 62.6918 L1902.78 27.2059 L1910.68 27.2059 L1890.75 76.7889 Z" fill="#000000" fill-rule="evenodd" fill-opacity="1" /><path clip-path="url(#clip1900)" d="M 0 0 M1320.47 2298.26 L1360.67 2298.26 L1360.67 2303.67 L1343.8 2303.67 L1343.8 2345.78 L1337.34 2345.78 L1337.34 2303.67 L1320.47 2303.67 L1320.47 2298.26 Z" fill="#000000" fill-rule="evenodd" fill-opacity="1" /><path clip-path="url(#clip1900)" d="M 0 0 M1364.8 2310.14 L1370.66 2310.14 L1370.66 2345.78 L1364.8 2345.78 L1364.8 2310.14 M1364.8 2296.26 L1370.66 2296.26 L1370.66 2303.67 L1364.8 2303.67 L1364.8 2296.26 Z" fill="#000000" fill-rule="evenodd" fill-opacity="1" /><path clip-path="url(#clip1900)" d="M 0 0 M1404.56 2316.98 Q1406.75 2313.03 1409.81 2311.15 Q1412.87 2309.28 1417 2309.28 Q1422.57 2309.28 1425.6 2313.19 Q1428.62 2317.07 1428.62 2324.27 L1428.62 2345.78 L1422.73 2345.78 L1422.73 2324.46 Q1422.73 2319.33 1420.92 2316.85 Q1419.1 2314.37 1415.38 2314.37 Q1410.83 2314.37 1408.19 2317.39 Q1405.55 2320.42 1405.55 2325.64 L1405.55 2345.78 L1399.66 2345.78 L1399.66 2324.46 Q1399.66 2319.3 1397.84 2316.85 Q1396.03 2314.37 1392.24 2314.37 Q1387.75 2314.37 1385.11 2317.42 Q1382.47 2320.45 1382.47 2325.64 L1382.47 2345.78 L1376.58 2345.78 L1376.58 2310.14 L1382.47 2310.14 L1382.47 2315.67 Q1384.47 2312.4 1387.28 2310.84 Q1390.08 2309.28 1393.93 2309.28 Q1397.81 2309.28 1400.52 2311.25 Q1403.25 2313.22 1404.56 2316.98 Z" fill="#000000" fill-rule="evenodd" fill-opacity="1" /><path clip-path="url(#clip1900)" d="M 0 0 M1465.26 2326.5 L1465.26 2329.36 L1438.33 2329.36 Q1438.71 2335.41 1441.96 2338.59 Q1445.24 2341.74 1451.06 2341.74 Q1454.43 2341.74 1457.58 2340.91 Q1460.77 2340.09 1463.89 2338.43 L1463.89 2343.97 Q1460.74 2345.31 1457.43 2346.01 Q1454.12 2346.71 1450.71 2346.71 Q1442.18 2346.71 1437.18 2341.74 Q1432.22 2336.78 1432.22 2328.31 Q1432.22 2319.56 1436.93 2314.43 Q1441.67 2309.28 1449.69 2309.28 Q1456.88 2309.28 1461.05 2313.92 Q1465.26 2318.54 1465.26 2326.5 M1459.4 2324.78 Q1459.34 2319.97 1456.69 2317.11 Q1454.08 2314.24 1449.76 2314.24 Q1444.85 2314.24 1441.89 2317.01 Q1438.97 2319.78 1438.52 2324.81 L1459.4 2324.78 Z" fill="#000000" fill-rule="evenodd" fill-opacity="1" /><path clip-path="url(#clip1900)" d="M 0 0 M1506.19 2296.32 Q1501.92 2303.64 1499.85 2310.8 Q1497.78 2317.97 1497.78 2325.32 Q1497.78 2332.67 1499.85 2339.9 Q1501.95 2347.09 1506.19 2354.38 L1501.09 2354.38 Q1496.32 2346.9 1493.93 2339.67 Q1491.58 2332.45 1491.58 2325.32 Q1491.58 2318.22 1493.93 2311.03 Q1496.29 2303.83 1501.09 2296.32 L1506.19 2296.32 Z" fill="#000000" fill-rule="evenodd" fill-opacity="1" /><path clip-path="url(#clip1900)" d="M 0 0 M1535.06 2311.19 L1535.06 2316.72 Q1532.57 2315.45 1529.9 2314.81 Q1527.23 2314.18 1524.36 2314.18 Q1520 2314.18 1517.8 2315.51 Q1515.64 2316.85 1515.64 2319.53 Q1515.64 2321.56 1517.2 2322.74 Q1518.76 2323.89 1523.47 2324.94 L1525.48 2325.38 Q1531.71 2326.72 1534.32 2329.17 Q1536.97 2331.59 1536.97 2335.95 Q1536.97 2340.91 1533.02 2343.81 Q1529.1 2346.71 1522.23 2346.71 Q1519.36 2346.71 1516.24 2346.13 Q1513.16 2345.59 1509.72 2344.48 L1509.72 2338.43 Q1512.97 2340.12 1516.12 2340.98 Q1519.27 2341.81 1522.36 2341.81 Q1526.49 2341.81 1528.72 2340.4 Q1530.95 2338.97 1530.95 2336.39 Q1530.95 2334.01 1529.33 2332.73 Q1527.73 2331.46 1522.29 2330.28 L1520.26 2329.81 Q1514.81 2328.66 1512.39 2326.3 Q1509.97 2323.92 1509.97 2319.78 Q1509.97 2314.75 1513.54 2312.01 Q1517.1 2309.28 1523.66 2309.28 Q1526.91 2309.28 1529.77 2309.75 Q1532.64 2310.23 1535.06 2311.19 Z" fill="#000000" fill-rule="evenodd" fill-opacity="1" /><path clip-path="url(#clip1900)" d="M 0 0 M1542.19 2296.32 L1547.28 2296.32 Q1552.05 2303.83 1554.41 2311.03 Q1556.79 2318.22 1556.79 2325.32 Q1556.79 2332.45 1554.41 2339.67 Q1552.05 2346.9 1547.28 2354.38 L1542.19 2354.38 Q1546.42 2347.09 1548.49 2339.9 Q1550.59 2332.67 1550.59 2325.32 Q1550.59 2317.97 1548.49 2310.8 Q1546.42 2303.64 1542.19 2296.32 Z" fill="#000000" fill-rule="evenodd" fill-opacity="1" /><path clip-path="url(#clip1900)" d="M 0 0 M38.4242 1265.16 L38.4242 1258.26 L56.089 1246.45 L38.4242 1234.58 L38.4242 1227.67 L61.2452 1242.95 L85.9442 1226.65 L85.9442 1233.56 L65.733 1246.93 L85.9442 1260.39 L85.9442 1267.33 L60.5768 1250.36 L38.4242 1265.16 Z" fill="#000000" fill-rule="evenodd" fill-opacity="1" /><path clip-path="url(#clip1900)" d="M 0 0 M36.419 1245.94 L36.419 1240.08 L43.835 1240.08 L43.835 1245.94 L36.419 1245.94 M49.4368 1242.95 L49.4368 1242.95 Z" fill="#000000" fill-rule="evenodd" fill-opacity="1" /><path clip-path="url(#clip1900)" d="M 0 0 M36.4826 1199.15 Q43.8032 1203.42 50.9646 1205.49 Q58.126 1207.55 65.4784 1207.55 Q72.8308 1207.55 80.0559 1205.49 Q87.2491 1203.39 94.5379 1199.15 L94.5379 1204.24 Q87.0582 1209.02 79.8331 1211.41 Q72.608 1213.76 65.4784 1213.76 Q58.3806 1213.76 51.1874 1211.41 Q43.9942 1209.05 36.4826 1204.24 L36.4826 1199.15 Z" fill="#000000" fill-rule="evenodd" fill-opacity="1" /><path clip-path="url(#clip1900)" d="M 0 0 M57.1393 1165.25 Q53.1926 1163.06 51.3147 1160 Q49.4368 1156.95 49.4368 1152.81 Q49.4368 1147.24 53.3517 1144.22 Q57.2348 1141.19 64.4281 1141.19 L85.9442 1141.19 L85.9442 1147.08 L64.619 1147.08 Q59.4946 1147.08 57.012 1148.89 Q54.5294 1150.71 54.5294 1154.43 Q54.5294 1158.98 57.5531 1161.63 Q60.5768 1164.27 65.7967 1164.27 L85.9442 1164.27 L85.9442 1170.16 L64.619 1170.16 Q59.4628 1170.16 57.012 1171.97 Q54.5294 1173.78 54.5294 1177.57 Q54.5294 1182.06 57.5849 1184.7 Q60.6086 1187.34 65.7967 1187.34 L85.9442 1187.34 L85.9442 1193.23 L50.2962 1193.23 L50.2962 1187.34 L55.8344 1187.34 Q52.556 1185.34 50.9964 1182.54 Q49.4368 1179.74 49.4368 1175.89 Q49.4368 1172 51.4102 1169.3 Q53.3836 1166.56 57.1393 1165.25 Z" fill="#000000" fill-rule="evenodd" fill-opacity="1" /><path clip-path="url(#clip1900)" d="M 0 0 M38.4242 1124.64 L38.4242 1119.23 L91.9916 1135.78 L91.9916 1141.19 L38.4242 1124.64 Z" fill="#000000" fill-rule="evenodd" fill-opacity="1" /><path clip-path="url(#clip1900)" d="M 0 0 M51.3465 1090.36 L56.8847 1090.36 Q55.6116 1092.84 54.975 1095.52 Q54.3384 1098.19 54.3384 1101.06 Q54.3384 1105.42 55.6752 1107.61 Q57.012 1109.78 59.6856 1109.78 Q61.7226 1109.78 62.9003 1108.22 Q64.0461 1106.66 65.0965 1101.95 L65.5421 1099.94 Q66.8789 1093.7 69.3297 1091.09 Q71.7486 1088.45 76.1091 1088.45 Q81.0744 1088.45 83.9708 1092.4 Q86.8672 1096.31 86.8672 1103.19 Q86.8672 1106.05 86.2943 1109.17 Q85.7532 1112.26 84.6392 1115.7 L78.5918 1115.7 Q80.2787 1112.45 81.138 1109.3 Q81.9656 1106.15 81.9656 1103.06 Q81.9656 1098.92 80.5651 1096.7 Q79.1329 1094.47 76.5547 1094.47 Q74.1676 1094.47 72.8945 1096.09 Q71.6213 1097.68 70.4437 1103.13 L69.9662 1105.16 Q68.8204 1110.61 66.4651 1113.02 Q64.078 1115.44 59.9402 1115.44 Q54.9113 1115.44 52.1741 1111.88 Q49.4368 1108.31 49.4368 1101.76 Q49.4368 1098.51 49.9143 1095.65 Q50.3917 1092.78 51.3465 1090.36 Z" fill="#000000" fill-rule="evenodd" fill-opacity="1" /><path clip-path="url(#clip1900)" d="M 0 0 M36.4826 1083.23 L36.4826 1078.14 Q43.9942 1073.37 51.1874 1071.01 Q58.3806 1068.62 65.4784 1068.62 Q72.608 1068.62 79.8331 1071.01 Q87.0582 1073.37 94.5379 1078.14 L94.5379 1083.23 Q87.2491 1079 80.0559 1076.93 Q72.8308 1074.83 65.4784 1074.83 Q58.126 1074.83 50.9646 1076.93 Q43.8032 1079 36.4826 1083.23 Z" fill="#000000" fill-rule="evenodd" fill-opacity="1" /><polyline clip-path="url(#clip1902)" style="stroke:#009af9; stroke-width:16; stroke-opacity:1; fill:none" points="
  308.621,1138 331.221,1123.54 353.821,1114.56 376.421,1103.45 399.022,1094.21 421.622,1089.53 444.222,1089.98 466.822,1096.06 489.422,1106.57 512.023,1121.32 
  534.623,1138.21 557.223,1156.36 579.823,1174.17 602.423,1191.23 625.024,1206.57 647.624,1220.15 670.224,1231.38 692.824,1240.5 715.424,1247.15 738.025,1251.74 
  760.625,1254.04 783.225,1254.51 805.825,1253.07 828.425,1250.11 851.026,1245.74 873.626,1240.18 896.226,1233.81 918.826,1226.49 941.426,1219.09 964.027,1210.89 
  986.627,1203.38 1009.23,1195.22 1031.83,1188.7 1054.43,1183.35 1077.03,1176.03 1099.63,1169.51 1122.23,1164.55 1144.83,1159.86 1167.43,1156.21 1190.03,1153.04 
  1212.63,1150.62 1235.23,1148.75 1257.83,1147.43 1280.43,1146.63 1303.03,1146.24 1325.63,1146.26 1348.23,1146.59 1370.83,1147.22 1393.43,1148.06 1416.03,1149.08 
  1438.63,1150.2 1461.23,1151.41 1483.83,1152.64 1506.43,1153.85 1529.03,1155.01 1551.63,1156.09 1574.23,1157.05 1596.83,1157.86 1619.43,1158.52 1642.03,1158.99 
  1664.63,1159.29 1687.23,1159.38 1709.83,1159.29 1732.43,1158.99 1755.03,1158.51 1777.63,1157.85 1800.23,1157.02 1822.83,1156.03 1845.43,1154.92 1868.03,1153.68 
  1890.64,1152.36 1913.24,1150.95 1935.84,1149.5 1958.44,1148.01 1981.04,1146.52 2003.64,1145.04 2026.24,1143.6 2048.84,1142.2 2071.44,1140.88 2094.04,1139.64 
  2116.64,1138.5 2139.24,1137.46 2161.84,1136.55 2184.44,1135.76 2207.04,1135.11 2229.64,1134.56 2252.24,1134.18 2274.84,1133.89 2297.44,1133.77 2320.04,1133.7 
  2342.64,1133.82 2365.24,1133.95 2387.84,1134.26 2410.44,1134.53 2433.04,1135 2455.64,1135.36 2478.24,1135.94 2500.84,1136.32 2523.44,1136.97 2546.04,1137.32 
  2568.64,1137.94 
  "/>
<polyline clip-path="url(#clip1902)" style="stroke:#e26f46; stroke-width:16; stroke-opacity:1; fill:none" points="
  308.621,1138 331.221,1416.52 353.821,1595.87 376.421,1715.34 399.022,1793.5 421.622,1845.05 444.222,1882.18 466.822,1912.25 489.422,1938.52 512.023,1962.85 
  534.623,1987.93 557.223,2014.45 579.823,2041.91 602.423,2068.61 625.024,2093.62 647.624,2114.65 670.224,2131.31 692.824,2141.69 715.424,2146.22 738.025,2143.63 
  760.625,2134.7 783.225,2118.9 805.825,2096.85 828.425,2069.02 851.026,2035.33 873.626,1997.7 896.226,1954.72 918.826,1910.35 941.426,1861.26 964.027,1813.93 
  986.627,1762.88 1009.23,1717.33 1031.83,1671.37 1054.43,1645.48 1077.03,1598.65 1099.63,1566.67 1122.23,1536.67 1144.83,1512.15 1167.43,1489.52 1190.03,1470.45 
  1212.63,1453.25 1235.23,1438.43 1257.83,1425.2 1280.43,1413.57 1303.03,1403.2 1325.63,1393.89 1348.23,1385.49 1370.83,1377.79 1393.43,1370.71 1416.03,1364.07 
  1438.63,1357.81 1461.23,1351.81 1483.83,1346.02 1506.43,1340.35 1529.03,1334.78 1551.63,1329.24 1574.23,1323.71 1596.83,1318.17 1619.43,1312.6 1642.03,1306.99 
  1664.63,1301.34 1687.23,1295.65 1709.83,1289.92 1732.43,1284.18 1755.03,1278.43 1777.63,1272.69 1800.23,1266.97 1822.83,1261.3 1845.43,1255.7 1868.03,1250.19 
  1890.64,1244.79 1913.24,1239.53 1935.84,1234.4 1958.44,1229.45 1981.04,1224.68 2003.64,1220.1 2026.24,1215.73 2048.84,1211.56 2071.44,1207.61 2094.04,1203.87 
  2116.64,1200.33 2139.24,1196.99 2161.84,1193.83 2184.44,1190.83 2207.04,1187.98 2229.64,1185.26 2252.24,1182.61 2274.84,1180.04 2297.44,1177.48 2320.04,1174.93 
  2342.64,1172.31 2365.24,1169.65 2387.84,1166.84 2410.44,1163.95 2433.04,1160.82 2455.64,1157.61 2478.24,1154.09 2500.84,1150.53 2523.44,1146.61 2546.04,1142.8 
  2568.64,1138.79 
  "/>
<polyline clip-path="url(#clip1902)" style="stroke:#3da44d; stroke-width:16; stroke-opacity:1; fill:none" points="
  308.621,1138 331.221,1078.16 353.821,994.94 376.421,892.887 399.022,793.447 421.622,691.506 444.222,600.97 466.822,519.554 489.422,448.509 512.023,385.503 
  534.623,331.374 557.223,286.154 579.823,250.016 602.423,222.749 625.024,203.925 647.624,193.119 670.224,189.727 692.824,193.201 715.424,202.956 738.025,218.419 
  760.625,238.99 783.225,264.322 805.825,293.464 828.425,326.72 851.026,362.195 873.626,401.499 896.226,440.933 918.826,484.308 941.426,525.03 964.027,570.123 
  986.627,609.006 1009.23,652.413 1031.83,684.457 1054.43,709.09 1077.03,745.049 1099.63,776.69 1122.23,799.326 1144.83,822.187 1167.43,839.873 1190.03,857.006 
  1212.63,870.978 1235.23,884.244 1257.83,895.573 1280.43,906.32 1303.03,915.891 1325.63,925.065 1348.23,933.538 1370.83,941.77 1393.43,949.587 1416.03,957.258 
  1438.63,964.673 1461.23,971.978 1483.83,979.096 1506.43,986.094 1529.03,992.918 1551.63,999.584 1574.23,1006.05 1596.83,1012.31 1619.43,1018.34 1642.03,1024.11 
  1664.63,1029.61 1687.23,1034.8 1709.83,1039.7 1732.43,1044.27 1755.03,1048.53 1777.63,1052.45 1800.23,1056.06 1822.83,1059.34 1845.43,1062.33 1868.03,1065.02 
  1890.64,1067.44 1913.24,1069.6 1935.84,1071.54 1958.44,1073.27 1981.04,1074.83 2003.64,1076.24 2026.24,1077.53 2048.84,1078.72 2071.44,1079.86 2094.04,1080.96 
  2116.64,1082.07 2139.24,1083.2 2161.84,1084.4 2184.44,1085.67 2207.04,1087.06 2229.64,1088.58 2252.24,1090.28 2274.84,1092.13 2297.44,1094.23 2320.04,1096.49 
  2342.64,1099.07 2365.24,1101.79 2387.84,1104.9 2410.44,1108.1 2433.04,1111.77 2455.64,1115.42 2478.24,1119.64 2500.84,1123.65 2523.44,1128.3 2546.04,1132.51 
  2568.64,1137.17 
  "/>
<polyline clip-path="url(#clip1902)" style="stroke:#c271d2; stroke-width:16; stroke-opacity:1; fill:none" points="
  308.621,1138 331.221,1149.2 353.821,1156.98 376.421,1150.82 399.022,1132.56 421.622,1101.63 444.222,1061.33 466.822,1015.04 489.422,966.476 512.023,917.222 
  534.623,869.349 557.223,823.685 579.823,781.064 602.423,742.052 625.024,707.074 647.624,676.563 670.224,650.53 692.824,629.516 715.424,613.292 738.025,602.253 
  760.625,596.27 783.225,594.877 805.825,598.993 828.425,606.101 851.026,619.667 873.626,633.413 896.226,655.336 918.826,673.253 941.426,701.92 964.027,721.091 
  986.627,753.987 1009.23,771.281 1031.83,803.001 1054.43,807.969 1077.03,840.722 1099.63,852.59 1122.23,872.432 1144.83,882.768 1167.43,897.11 1190.03,906.302 
  1212.63,917.336 1235.23,925.564 1257.83,934.68 1280.43,942.235 1303.03,950.276 1325.63,957.419 1348.23,964.868 1370.83,971.767 1393.43,978.866 1416.03,985.593 
  1438.63,992.431 1461.23,998.977 1483.83,1005.55 1506.43,1011.85 1529.03,1018.09 1551.63,1024.07 1574.23,1029.9 1596.83,1035.45 1619.43,1040.8 1642.03,1045.84 
  1664.63,1050.62 1687.23,1055.09 1709.83,1059.27 1732.43,1063.13 1755.03,1066.69 1777.63,1069.93 1800.23,1072.88 1822.83,1075.53 1845.43,1077.91 1868.03,1080.02 
  1890.64,1081.89 1913.24,1083.53 1935.84,1084.98 1958.44,1086.25 1981.04,1087.37 2003.64,1088.36 2026.24,1089.26 2048.84,1090.1 2071.44,1090.88 2094.04,1091.66 
  2116.64,1092.45 2139.24,1093.28 2161.84,1094.17 2184.44,1095.15 2207.04,1096.23 2229.64,1097.45 2252.24,1098.8 2274.84,1100.33 2297.44,1102.03 2320.04,1103.92 
  2342.64,1106.02 2365.24,1108.3 2387.84,1110.85 2410.44,1113.53 2433.04,1116.52 2455.64,1119.57 2478.24,1122.99 2500.84,1126.34 2523.44,1130.08 2546.04,1133.58 
  2568.64,1137.33 
  "/>
<polyline clip-path="url(#clip1902)" style="stroke:#ac8d18; stroke-width:16; stroke-opacity:1; fill:none" points="
  308.621,1138 331.221,1145.44 353.821,1148.07 376.421,1147.86 399.022,1147.06 421.622,1144.49 444.222,1140.31 466.822,1134.31 489.422,1127.01 512.023,1118.57 
  534.623,1109.75 557.223,1100.8 579.823,1092.27 602.423,1084.25 625.024,1077.04 647.624,1070.66 670.224,1065.27 692.824,1060.8 715.424,1057.32 738.025,1054.7 
  760.625,1052.98 783.225,1052.04 805.825,1051.86 828.425,1052.37 851.026,1053.46 873.626,1055.16 896.226,1057.24 918.826,1059.88 941.426,1062.6 964.027,1065.87 
  986.627,1068.84 1009.23,1072.31 1031.83,1074.97 1054.43,1077.39 1077.03,1080.35 1099.63,1083.15 1122.23,1085.31 1144.83,1087.57 1167.43,1089.52 1190.03,1091.59 
  1212.63,1093.52 1235.23,1095.59 1257.83,1097.62 1280.43,1099.8 1303.03,1101.98 1325.63,1104.3 1348.23,1106.63 1370.83,1109.06 1393.43,1111.5 1416.03,1113.99 
  1438.63,1116.44 1461.23,1118.9 1483.83,1121.29 1506.43,1123.61 1529.03,1125.83 1551.63,1127.93 1574.23,1129.88 1596.83,1131.67 1619.43,1133.29 1642.03,1134.71 
  1664.63,1135.94 1687.23,1136.96 1709.83,1137.77 1732.43,1138.38 1755.03,1138.78 1777.63,1139 1800.23,1139.02 1822.83,1138.88 1845.43,1138.58 1868.03,1138.14 
  1890.64,1137.58 1913.24,1136.93 1935.84,1136.19 1958.44,1135.41 1981.04,1134.59 2003.64,1133.76 2026.24,1132.93 2048.84,1132.14 2071.44,1131.37 2094.04,1130.69 
  2116.64,1130.06 2139.24,1129.55 2161.84,1129.1 2184.44,1128.8 2207.04,1128.57 2229.64,1128.5 2252.24,1128.49 2274.84,1128.66 2297.44,1128.89 2320.04,1129.29 
  2342.64,1129.73 2365.24,1130.33 2387.84,1130.95 2410.44,1131.72 2433.04,1132.47 2455.64,1133.37 2478.24,1134.21 2500.84,1135.17 2523.44,1136.05 2546.04,1137.03 
  2568.64,1137.86 
  "/>
<polyline clip-path="url(#clip1902)" style="stroke:#00a9ad; stroke-width:16; stroke-opacity:1; fill:none" points="
  308.621,1138 331.221,1168.53 353.821,1172.32 376.421,1155.41 399.022,1130.57 421.622,1099.72 444.222,1066.94 466.822,1032.83 489.422,999.124 512.023,966.789 
  534.623,937.382 557.223,911.493 579.823,889.648 602.423,871.905 625.024,858.182 647.624,848.339 670.224,842.002 692.824,838.939 715.424,838.701 738.025,841.086 
  760.625,845.676 783.225,852.325 805.825,860.646 828.425,870.549 851.026,881.637 873.626,893.888 896.226,906.818 918.826,920.51 941.426,934.296 964.027,948.433 
  986.627,961.943 1009.23,975.276 1031.83,986.805 1054.43,996.023 1077.03,1007.78 1099.63,1017.68 1122.23,1025.8 1144.83,1033.1 1167.43,1039.34 1190.03,1045 
  1212.63,1049.99 1235.23,1054.61 1257.83,1058.83 1280.43,1062.85 1303.03,1066.64 1325.63,1070.33 1348.23,1073.9 1370.83,1077.42 1393.43,1080.87 1416.03,1084.29 
  1438.63,1087.65 1461.23,1090.95 1483.83,1094.18 1506.43,1097.33 1529.03,1100.37 1551.63,1103.28 1574.23,1106.05 1596.83,1108.66 1619.43,1111.09 1642.03,1113.33 
  1664.63,1115.36 1687.23,1117.18 1709.83,1118.79 1732.43,1120.17 1755.03,1121.33 1777.63,1122.29 1800.23,1123.04 1822.83,1123.59 1845.43,1123.96 1868.03,1124.18 
  1890.64,1124.24 1913.24,1124.18 1935.84,1124.01 1958.44,1123.77 1981.04,1123.45 2003.64,1123.11 2026.24,1122.74 2048.84,1122.38 2071.44,1122.03 2094.04,1121.74 
  2116.64,1121.49 2139.24,1121.34 2161.84,1121.24 2184.44,1121.28 2207.04,1121.38 2229.64,1121.65 2252.24,1121.98 2274.84,1122.5 2297.44,1123.07 2320.04,1123.84 
  2342.64,1124.65 2365.24,1125.65 2387.84,1126.68 2410.44,1127.9 2433.04,1129.11 2455.64,1130.5 2478.24,1131.86 2500.84,1133.36 2523.44,1134.8 2546.04,1136.35 
  2568.64,1137.75 
  "/>
<polyline clip-path="url(#clip1902)" style="stroke:#ed5d92; stroke-width:16; stroke-opacity:1; fill:none" points="
  308.621,1138 331.221,1147.83 353.821,1145.03 376.421,1134.73 399.022,1121 421.622,1105.41 444.222,1089.71 466.822,1074.26 489.422,1059.81 512.023,1046.64 
  534.623,1035.07 557.223,1025.11 579.823,1016.77 602.423,1010.01 625.024,1004.77 647.624,1001.01 670.224,998.611 692.824,997.525 715.424,997.598 738.025,998.784 
  760.625,1000.9 783.225,1003.91 805.825,1007.62 828.425,1012.02 851.026,1016.88 873.626,1022.25 896.226,1027.86 918.826,1033.8 941.426,1039.73 964.027,1045.8 
  986.627,1051.58 1009.23,1057.26 1031.83,1062.17 1054.43,1065.91 1077.03,1071.04 1099.63,1075.26 1122.23,1078.76 1144.83,1081.96 1167.43,1084.76 1190.03,1087.43 
  1212.63,1089.89 1235.23,1092.32 1257.83,1094.67 1280.43,1097.06 1303.03,1099.44 1325.63,1101.88 1348.23,1104.35 1370.83,1106.86 1393.43,1109.39 1416.03,1111.95 
  1438.63,1114.49 1461.23,1117.02 1483.83,1119.49 1506.43,1121.89 1529.03,1124.2 1551.63,1126.38 1574.23,1128.43 1596.83,1130.32 1619.43,1132.03 1642.03,1133.55 
  1664.63,1134.87 1687.23,1135.99 1709.83,1136.9 1732.43,1137.59 1755.03,1138.09 1777.63,1138.38 1800.23,1138.49 1822.83,1138.42 1845.43,1138.19 1868.03,1137.82 
  1890.64,1137.32 1913.24,1136.73 1935.84,1136.05 1958.44,1135.31 1981.04,1134.53 2003.64,1133.74 2026.24,1132.94 2048.84,1132.19 2071.44,1131.45 2094.04,1130.8 
  2116.64,1130.19 2139.24,1129.7 2161.84,1129.27 2184.44,1128.98 2207.04,1128.77 2229.64,1128.71 2252.24,1128.72 2274.84,1128.9 2297.44,1129.13 2320.04,1129.53 
  2342.64,1129.96 2365.24,1130.56 2387.84,1131.17 2410.44,1131.93 2433.04,1132.66 2455.64,1133.53 2478.24,1134.35 2500.84,1135.29 2523.44,1136.13 2546.04,1137.08 
  2568.64,1137.86 
  "/>
<polyline clip-path="url(#clip1902)" style="stroke:#c68125; stroke-width:16; stroke-opacity:1; fill:none" points="
  308.621,1138 331.221,1140.8 353.821,1142.15 376.421,1143.99 399.022,1145.89 421.622,1147.86 444.222,1149.36 466.822,1150.14 489.422,1150.04 512.023,1148.99 
  534.623,1147.04 557.223,1144.34 579.823,1141.07 602.423,1137.48 625.024,1133.76 647.624,1130.17 670.224,1126.81 692.824,1123.91 715.424,1121.37 738.025,1119.41 
  760.625,1117.72 783.225,1116.61 805.825,1115.54 828.425,1115.03 851.026,1114.26 873.626,1114.09 896.226,1113.39 918.826,1113.41 941.426,1112.67 964.027,1112.86 
  986.627,1112.12 1009.23,1112.53 1031.83,1111.91 1054.43,1112 1077.03,1110.07 1099.63,1108.99 1122.23,1107.29 1144.83,1106.52 1167.43,1105.58 1190.03,1105.31 
  1212.63,1105.16 1235.23,1105.52 1257.83,1106.13 1280.43,1107.12 1303.03,1108.39 1325.63,1109.94 1348.23,1111.73 1370.83,1113.71 1393.43,1115.87 1416.03,1118.12 
  1438.63,1120.48 1461.23,1122.85 1483.83,1125.23 1506.43,1127.55 1529.03,1129.81 1551.63,1131.94 1574.23,1133.95 1596.83,1135.78 1619.43,1137.44 1642.03,1138.89 
  1664.63,1140.13 1687.23,1141.15 1709.83,1141.95 1732.43,1142.52 1755.03,1142.88 1777.63,1143.03 1800.23,1142.98 1822.83,1142.75 1845.43,1142.36 1868.03,1141.82 
  1890.64,1141.15 1913.24,1140.38 1935.84,1139.52 1958.44,1138.61 1981.04,1137.66 2003.64,1136.7 2026.24,1135.74 2048.84,1134.82 2071.44,1133.93 2094.04,1133.12 
  2116.64,1132.37 2139.24,1131.73 2161.84,1131.17 2184.44,1130.74 2207.04,1130.4 2229.64,1130.21 2252.24,1130.11 2274.84,1130.16 2297.44,1130.29 2320.04,1130.56 
  2342.64,1130.91 2365.24,1131.38 2387.84,1131.91 2410.44,1132.54 2433.04,1133.21 2455.64,1133.95 2478.24,1134.71 2500.84,1135.51 2523.44,1136.31 2546.04,1137.11 
  2568.64,1137.88 
  "/>
<polyline clip-path="url(#clip1902)" style="stroke:#00a98d; stroke-width:16; stroke-opacity:1; fill:none" points="
  308.621,1138 331.221,1137.77 353.821,1136.74 376.421,1134.85 399.022,1131.61 421.622,1127.62 444.222,1123.45 466.822,1119.79 489.422,1116.86 512.023,1114.89 
  534.623,1113.88 557.223,1113.78 579.823,1114.43 602.423,1115.65 625.024,1117.26 647.624,1119.08 670.224,1120.98 692.824,1122.82 715.424,1124.54 738.025,1126.06 
  760.625,1127.35 783.225,1128.4 805.825,1129.21 828.425,1129.82 851.026,1130.19 873.626,1130.42 896.226,1130.45 918.826,1130.42 941.426,1130.22 964.027,1130.01 
  986.627,1129.69 1009.23,1129.39 1031.83,1128.99 1054.43,1128.5 1077.03,1128.28 1099.63,1128.08 1122.23,1127.91 1144.83,1127.88 1167.43,1127.97 1190.03,1128.23 
  1212.63,1128.65 1235.23,1129.24 1257.83,1130.02 1280.43,1130.96 1303.03,1132.08 1325.63,1133.32 1348.23,1134.71 1370.83,1136.18 1393.43,1137.75 1416.03,1139.35 
  1438.63,1140.99 1461.23,1142.62 1483.83,1144.23 1506.43,1145.76 1529.03,1147.22 1551.63,1148.57 1574.23,1149.79 1596.83,1150.86 1619.43,1151.77 1642.03,1152.49 
  1664.63,1153.04 1687.23,1153.39 1709.83,1153.56 1732.43,1153.53 1755.03,1153.31 1777.63,1152.92 1800.23,1152.36 1822.83,1151.65 1845.43,1150.8 1868.03,1149.84 
  1890.64,1148.77 1913.24,1147.62 1935.84,1146.41 1958.44,1145.17 1981.04,1143.91 2003.64,1142.65 2026.24,1141.42 2048.84,1140.23 2071.44,1139.09 2094.04,1138.04 
  2116.64,1137.07 2139.24,1136.2 2161.84,1135.44 2184.44,1134.8 2207.04,1134.27 2229.64,1133.87 2252.24,1133.58 2274.84,1133.41 2297.44,1133.36 2320.04,1133.41 
  2342.64,1133.57 2365.24,1133.79 2387.84,1134.12 2410.44,1134.48 2433.04,1134.94 2455.64,1135.38 2478.24,1135.91 2500.84,1136.38 2523.44,1136.95 2546.04,1137.39 
  2568.64,1137.94 
  "/>
<polyline clip-path="url(#clip1902)" style="stroke:#8e971d; stroke-width:16; stroke-opacity:1; fill:none" points="
  308.621,1138 331.221,1028.03 353.821,850.409 376.421,682.366 399.022,565.285 421.622,478.085 444.222,413.587 466.822,367.539 489.422,335.567 512.023,314.571 
  534.623,302.249 557.223,297.078 579.823,297.678 602.423,303.115 625.024,312.554 647.624,325.228 670.224,340.769 692.824,358.61 715.424,378.943 738.025,401.042 
  760.625,425.637 783.225,451.458 805.825,479.952 828.425,508.906 851.026,540.799 873.626,572.02 896.226,606.496 918.826,638.699 941.426,674.445 964.027,705.829 
  986.627,740.774 1009.23,768.836 1031.83,798.761 1054.43,814.319 1077.03,845.052 1099.63,864.667 1122.23,884.066 1144.83,898.491 1167.43,912.399 1190.03,923.37 
  1212.63,933.717 1235.23,942.354 1257.83,950.512 1280.43,957.7 1303.03,964.611 1325.63,970.99 1348.23,977.255 1370.83,983.236 1393.43,989.198 1416.03,995 
  1438.63,1000.81 1461.23,1006.51 1483.83,1012.21 1506.43,1017.79 1529.03,1023.32 1551.63,1028.69 1574.23,1033.96 1596.83,1039.04 1619.43,1043.95 1642.03,1048.63 
  1664.63,1053.1 1687.23,1057.29 1709.83,1061.24 1732.43,1064.89 1755.03,1068.28 1777.63,1071.37 1800.23,1074.19 1822.83,1076.73 1845.43,1079.01 1868.03,1081.03 
  1890.64,1082.82 1913.24,1084.39 1935.84,1085.76 1958.44,1086.96 1981.04,1088.02 2003.64,1088.95 2026.24,1089.79 2048.84,1090.55 2071.44,1091.28 2094.04,1091.98 
  2116.64,1092.71 2139.24,1093.46 2161.84,1094.3 2184.44,1095.2 2207.04,1096.23 2229.64,1097.36 2252.24,1098.69 2274.84,1100.13 2297.44,1101.82 2320.04,1103.62 
  2342.64,1105.74 2365.24,1107.94 2387.84,1110.53 2410.44,1113.14 2433.04,1116.22 2455.64,1119.2 2478.24,1122.74 2500.84,1126.02 2523.44,1129.93 2546.04,1133.35 
  2568.64,1137.32 
  "/>
<polyline clip-path="url(#clip1902)" style="stroke:#00a8cb; stroke-width:16; stroke-opacity:1; fill:none" points="
  308.621,1138 331.221,1449.57 353.821,1620.65 376.421,1632.33 399.022,1577.18 421.622,1492.38 444.222,1396.96 466.822,1305.67 489.422,1220.88 512.023,1147.13 
  534.623,1086.62 557.223,1040.47 579.823,1007.58 602.423,986.615 625.024,975.119 647.624,971.065 670.224,972.113 692.824,977.487 715.424,985.378 738.025,995.771 
  760.625,1006.89 783.225,1019.22 805.825,1030.95 828.425,1043.07 851.026,1053.69 873.626,1064.35 896.226,1073.03 918.826,1081.78 941.426,1088.38 964.027,1095.32 
  986.627,1100.12 1009.23,1105.49 1031.83,1108.06 1054.43,1105.04 1077.03,1114.29 1099.63,1121.24 1122.23,1126.29 1144.83,1132.25 1167.43,1137.1 1190.03,1142.54 
  1212.63,1147.14 1235.23,1152.01 1257.83,1156.18 1280.43,1160.35 1303.03,1163.86 1325.63,1167.13 1348.23,1169.72 1370.83,1171.89 1393.43,1173.36 1416.03,1174.26 
  1438.63,1174.42 1461.23,1173.94 1483.83,1172.73 1506.43,1170.85 1529.03,1168.28 1551.63,1165.08 1574.23,1161.28 1596.83,1156.94 1619.43,1152.14 1642.03,1146.94 
  1664.63,1141.44 1687.23,1135.73 1709.83,1129.92 1732.43,1124.08 1755.03,1118.34 1777.63,1112.77 1800.23,1107.5 1822.83,1102.58 1845.43,1098.12 1868.03,1094.18 
  1890.64,1090.83 1913.24,1088.1 1935.84,1086.07 1958.44,1084.73 1981.04,1084.11 2003.64,1084.22 2026.24,1085.04 2048.84,1086.56 2071.44,1088.73 2094.04,1091.53 
  2116.64,1094.87 2139.24,1098.75 2161.84,1103 2184.44,1107.69 2207.04,1112.57 2229.64,1117.75 2252.24,1122.92 2274.84,1128.26 2297.44,1133.38 2320.04,1138.56 
  2342.64,1143.33 2365.24,1148.04 2387.84,1152.18 2410.44,1156.16 2433.04,1159.46 2455.64,1162.52 2478.24,1164.84 2500.84,1166.84 2523.44,1168.12 2546.04,1168.98 
  2568.64,1169.2 
  "/>
<path clip-path="url(#clip1900)" d="
M2732.44 988.312 L3184.76 988.312 L3184.76 262.552 L2732.44 262.552  Z
  " fill="#ffffff" fill-rule="evenodd" fill-opacity="1"/>
<polyline clip-path="url(#clip1900)" style="stroke:#000000; stroke-width:4; stroke-opacity:1; fill:none" points="
  2732.44,988.312 3184.76,988.312 3184.76,262.552 2732.44,262.552 2732.44,988.312 
  "/>
<polyline clip-path="url(#clip1900)" style="stroke:#009af9; stroke-width:16; stroke-opacity:1; fill:none" points="
  2764.44,323.032 2956.44,323.032 
  "/>
<path clip-path="url(#clip1900)" d="M 0 0 M2988.44 299.272 L2994.87 299.272 L2994.87 341.381 L3018.01 341.381 L3018.01 346.792 L2988.44 346.792 L2988.44 299.272 Z" fill="#000000" fill-rule="evenodd" fill-opacity="1" /><path clip-path="url(#clip1900)" d="M 0 0 M3024.15 311.144 L3030.01 311.144 L3030.01 346.792 L3024.15 346.792 L3024.15 311.144 M3024.15 297.267 L3030.01 297.267 L3030.01 304.683 L3024.15 304.683 L3024.15 297.267 Z" fill="#000000" fill-rule="evenodd" fill-opacity="1" /><path clip-path="url(#clip1900)" d="M 0 0 M3054.2 297.267 L3054.2 302.137 L3048.6 302.137 Q3045.45 302.137 3044.21 303.41 Q3043 304.683 3043 307.993 L3043 311.144 L3052.64 311.144 L3052.64 315.696 L3043 315.696 L3043 346.792 L3037.11 346.792 L3037.11 315.696 L3031.51 315.696 L3031.51 311.144 L3037.11 311.144 L3037.11 308.662 Q3037.11 302.71 3039.88 300.004 Q3042.65 297.267 3048.66 297.267 L3054.2 297.267 Z" fill="#000000" fill-rule="evenodd" fill-opacity="1" /><path clip-path="url(#clip1900)" d="M 0 0 M3064.99 301.023 L3064.99 311.144 L3077.05 311.144 L3077.05 315.696 L3064.99 315.696 L3064.99 335.047 Q3064.99 339.408 3066.17 340.649 Q3067.38 341.891 3071.04 341.891 L3077.05 341.891 L3077.05 346.792 L3071.04 346.792 Q3064.26 346.792 3061.68 344.278 Q3059.1 341.731 3059.1 335.047 L3059.1 315.696 L3054.8 315.696 L3054.8 311.144 L3059.1 311.144 L3059.1 301.023 L3064.99 301.023 Z" fill="#000000" fill-rule="evenodd" fill-opacity="1" /><path clip-path="url(#clip1900)" d="M 0 0 M3105.86 341.381 L3116.36 341.381 L3116.36 305.129 L3104.93 307.42 L3104.93 301.564 L3116.3 299.272 L3122.73 299.272 L3122.73 341.381 L3133.23 341.381 L3133.23 346.792 L3105.86 346.792 L3105.86 341.381 Z" fill="#000000" fill-rule="evenodd" fill-opacity="1" /><polyline clip-path="url(#clip1900)" style="stroke:#e26f46; stroke-width:16; stroke-opacity:1; fill:none" points="
  2764.44,383.512 2956.44,383.512 
  "/>
<path clip-path="url(#clip1900)" d="M 0 0 M2988.44 359.752 L2994.87 359.752 L2994.87 401.861 L3018.01 401.861 L3018.01 407.272 L2988.44 407.272 L2988.44 359.752 Z" fill="#000000" fill-rule="evenodd" fill-opacity="1" /><path clip-path="url(#clip1900)" d="M 0 0 M3024.15 371.624 L3030.01 371.624 L3030.01 407.272 L3024.15 407.272 L3024.15 371.624 M3024.15 357.747 L3030.01 357.747 L3030.01 365.163 L3024.15 365.163 L3024.15 357.747 Z" fill="#000000" fill-rule="evenodd" fill-opacity="1" /><path clip-path="url(#clip1900)" d="M 0 0 M3054.2 357.747 L3054.2 362.617 L3048.6 362.617 Q3045.45 362.617 3044.21 363.89 Q3043 365.163 3043 368.473 L3043 371.624 L3052.64 371.624 L3052.64 376.176 L3043 376.176 L3043 407.272 L3037.11 407.272 L3037.11 376.176 L3031.51 376.176 L3031.51 371.624 L3037.11 371.624 L3037.11 369.142 Q3037.11 363.19 3039.88 360.484 Q3042.65 357.747 3048.66 357.747 L3054.2 357.747 Z" fill="#000000" fill-rule="evenodd" fill-opacity="1" /><path clip-path="url(#clip1900)" d="M 0 0 M3064.99 361.503 L3064.99 371.624 L3077.05 371.624 L3077.05 376.176 L3064.99 376.176 L3064.99 395.527 Q3064.99 399.888 3066.17 401.129 Q3067.38 402.371 3071.04 402.371 L3077.05 402.371 L3077.05 407.272 L3071.04 407.272 Q3064.26 407.272 3061.68 404.758 Q3059.1 402.211 3059.1 395.527 L3059.1 376.176 L3054.8 376.176 L3054.8 371.624 L3059.1 371.624 L3059.1 361.503 L3064.99 361.503 Z" fill="#000000" fill-rule="evenodd" fill-opacity="1" /><path clip-path="url(#clip1900)" d="M 0 0 M3110.28 401.861 L3132.72 401.861 L3132.72 407.272 L3102.55 407.272 L3102.55 401.861 Q3106.21 398.074 3112.51 391.708 Q3118.84 385.31 3120.47 383.464 Q3123.55 379.995 3124.76 377.608 Q3126 375.189 3126 372.865 Q3126 369.078 3123.33 366.691 Q3120.69 364.304 3116.42 364.304 Q3113.4 364.304 3110.03 365.354 Q3106.68 366.404 3102.87 368.537 L3102.87 362.044 Q3106.75 360.484 3110.12 359.688 Q3113.5 358.893 3116.3 358.893 Q3123.68 358.893 3128.07 362.585 Q3132.47 366.277 3132.47 372.452 Q3132.47 375.38 3131.35 378.022 Q3130.27 380.632 3127.37 384.196 Q3126.58 385.119 3122.31 389.544 Q3118.05 393.936 3110.28 401.861 Z" fill="#000000" fill-rule="evenodd" fill-opacity="1" /><polyline clip-path="url(#clip1900)" style="stroke:#3da44d; stroke-width:16; stroke-opacity:1; fill:none" points="
  2764.44,443.992 2956.44,443.992 
  "/>
<path clip-path="url(#clip1900)" d="M 0 0 M2988.44 420.232 L2994.87 420.232 L2994.87 462.341 L3018.01 462.341 L3018.01 467.752 L2988.44 467.752 L2988.44 420.232 Z" fill="#000000" fill-rule="evenodd" fill-opacity="1" /><path clip-path="url(#clip1900)" d="M 0 0 M3024.15 432.104 L3030.01 432.104 L3030.01 467.752 L3024.15 467.752 L3024.15 432.104 M3024.15 418.227 L3030.01 418.227 L3030.01 425.643 L3024.15 425.643 L3024.15 418.227 Z" fill="#000000" fill-rule="evenodd" fill-opacity="1" /><path clip-path="url(#clip1900)" d="M 0 0 M3054.2 418.227 L3054.2 423.097 L3048.6 423.097 Q3045.45 423.097 3044.21 424.37 Q3043 425.643 3043 428.953 L3043 432.104 L3052.64 432.104 L3052.64 436.656 L3043 436.656 L3043 467.752 L3037.11 467.752 L3037.11 436.656 L3031.51 436.656 L3031.51 432.104 L3037.11 432.104 L3037.11 429.622 Q3037.11 423.67 3039.88 420.964 Q3042.65 418.227 3048.66 418.227 L3054.2 418.227 Z" fill="#000000" fill-rule="evenodd" fill-opacity="1" /><path clip-path="url(#clip1900)" d="M 0 0 M3064.99 421.983 L3064.99 432.104 L3077.05 432.104 L3077.05 436.656 L3064.99 436.656 L3064.99 456.007 Q3064.99 460.368 3066.17 461.609 Q3067.38 462.851 3071.04 462.851 L3077.05 462.851 L3077.05 467.752 L3071.04 467.752 Q3064.26 467.752 3061.68 465.238 Q3059.1 462.691 3059.1 456.007 L3059.1 436.656 L3054.8 436.656 L3054.8 432.104 L3059.1 432.104 L3059.1 421.983 L3064.99 421.983 Z" fill="#000000" fill-rule="evenodd" fill-opacity="1" /><path clip-path="url(#clip1900)" d="M 0 0 M3124.22 442.13 Q3128.84 443.117 3131.42 446.236 Q3134.03 449.355 3134.03 453.939 Q3134.03 460.973 3129.19 464.824 Q3124.35 468.675 3115.44 468.675 Q3112.45 468.675 3109.26 468.07 Q3106.11 467.497 3102.74 466.32 L3102.74 460.113 Q3105.41 461.673 3108.59 462.469 Q3111.78 463.264 3115.25 463.264 Q3121.29 463.264 3124.45 460.877 Q3127.63 458.49 3127.63 453.939 Q3127.63 449.737 3124.67 447.382 Q3121.74 444.995 3116.49 444.995 L3110.95 444.995 L3110.95 439.711 L3116.74 439.711 Q3121.49 439.711 3124 437.833 Q3126.51 435.924 3126.51 432.359 Q3126.51 428.699 3123.9 426.757 Q3121.33 424.784 3116.49 424.784 Q3113.85 424.784 3110.82 425.357 Q3107.8 425.929 3104.17 427.139 L3104.17 421.41 Q3107.83 420.391 3111.01 419.882 Q3114.23 419.373 3117.06 419.373 Q3124.38 419.373 3128.65 422.715 Q3132.91 426.025 3132.91 431.69 Q3132.91 435.637 3130.65 438.374 Q3128.39 441.08 3124.22 442.13 Z" fill="#000000" fill-rule="evenodd" fill-opacity="1" /><polyline clip-path="url(#clip1900)" style="stroke:#c271d2; stroke-width:16; stroke-opacity:1; fill:none" points="
  2764.44,504.472 2956.44,504.472 
  "/>
<path clip-path="url(#clip1900)" d="M 0 0 M2988.44 480.712 L2994.87 480.712 L2994.87 522.821 L3018.01 522.821 L3018.01 528.232 L2988.44 528.232 L2988.44 480.712 Z" fill="#000000" fill-rule="evenodd" fill-opacity="1" /><path clip-path="url(#clip1900)" d="M 0 0 M3024.15 492.584 L3030.01 492.584 L3030.01 528.232 L3024.15 528.232 L3024.15 492.584 M3024.15 478.707 L3030.01 478.707 L3030.01 486.123 L3024.15 486.123 L3024.15 478.707 Z" fill="#000000" fill-rule="evenodd" fill-opacity="1" /><path clip-path="url(#clip1900)" d="M 0 0 M3054.2 478.707 L3054.2 483.577 L3048.6 483.577 Q3045.45 483.577 3044.21 484.85 Q3043 486.123 3043 489.433 L3043 492.584 L3052.64 492.584 L3052.64 497.136 L3043 497.136 L3043 528.232 L3037.11 528.232 L3037.11 497.136 L3031.51 497.136 L3031.51 492.584 L3037.11 492.584 L3037.11 490.102 Q3037.11 484.15 3039.88 481.444 Q3042.65 478.707 3048.66 478.707 L3054.2 478.707 Z" fill="#000000" fill-rule="evenodd" fill-opacity="1" /><path clip-path="url(#clip1900)" d="M 0 0 M3064.99 482.463 L3064.99 492.584 L3077.05 492.584 L3077.05 497.136 L3064.99 497.136 L3064.99 516.487 Q3064.99 520.848 3066.17 522.089 Q3067.38 523.331 3071.04 523.331 L3077.05 523.331 L3077.05 528.232 L3071.04 528.232 Q3064.26 528.232 3061.68 525.718 Q3059.1 523.171 3059.1 516.487 L3059.1 497.136 L3054.8 497.136 L3054.8 492.584 L3059.1 492.584 L3059.1 482.463 L3064.99 482.463 Z" fill="#000000" fill-rule="evenodd" fill-opacity="1" /><path clip-path="url(#clip1900)" d="M 0 0 M3122.41 486.314 L3106.18 511.681 L3122.41 511.681 L3122.41 486.314 M3120.72 480.712 L3128.81 480.712 L3128.81 511.681 L3135.59 511.681 L3135.59 517.028 L3128.81 517.028 L3128.81 528.232 L3122.41 528.232 L3122.41 517.028 L3100.96 517.028 L3100.96 510.822 L3120.72 480.712 Z" fill="#000000" fill-rule="evenodd" fill-opacity="1" /><polyline clip-path="url(#clip1900)" style="stroke:#ac8d18; stroke-width:16; stroke-opacity:1; fill:none" points="
  2764.44,564.952 2956.44,564.952 
  "/>
<path clip-path="url(#clip1900)" d="M 0 0 M2988.44 541.192 L2994.87 541.192 L2994.87 583.301 L3018.01 583.301 L3018.01 588.712 L2988.44 588.712 L2988.44 541.192 Z" fill="#000000" fill-rule="evenodd" fill-opacity="1" /><path clip-path="url(#clip1900)" d="M 0 0 M3024.15 553.064 L3030.01 553.064 L3030.01 588.712 L3024.15 588.712 L3024.15 553.064 M3024.15 539.187 L3030.01 539.187 L3030.01 546.603 L3024.15 546.603 L3024.15 539.187 Z" fill="#000000" fill-rule="evenodd" fill-opacity="1" /><path clip-path="url(#clip1900)" d="M 0 0 M3054.2 539.187 L3054.2 544.057 L3048.6 544.057 Q3045.45 544.057 3044.21 545.33 Q3043 546.603 3043 549.913 L3043 553.064 L3052.64 553.064 L3052.64 557.616 L3043 557.616 L3043 588.712 L3037.11 588.712 L3037.11 557.616 L3031.51 557.616 L3031.51 553.064 L3037.11 553.064 L3037.11 550.582 Q3037.11 544.63 3039.88 541.924 Q3042.65 539.187 3048.66 539.187 L3054.2 539.187 Z" fill="#000000" fill-rule="evenodd" fill-opacity="1" /><path clip-path="url(#clip1900)" d="M 0 0 M3064.99 542.943 L3064.99 553.064 L3077.05 553.064 L3077.05 557.616 L3064.99 557.616 L3064.99 576.967 Q3064.99 581.328 3066.17 582.569 Q3067.38 583.811 3071.04 583.811 L3077.05 583.811 L3077.05 588.712 L3071.04 588.712 Q3064.26 588.712 3061.68 586.198 Q3059.1 583.651 3059.1 576.967 L3059.1 557.616 L3054.8 557.616 L3054.8 553.064 L3059.1 553.064 L3059.1 542.943 L3064.99 542.943 Z" fill="#000000" fill-rule="evenodd" fill-opacity="1" /><path clip-path="url(#clip1900)" d="M 0 0 M3104.81 541.192 L3130.05 541.192 L3130.05 546.603 L3110.7 546.603 L3110.7 558.252 Q3112.1 557.775 3113.5 557.552 Q3114.9 557.297 3116.3 557.297 Q3124.25 557.297 3128.9 561.658 Q3133.55 566.018 3133.55 573.466 Q3133.55 581.137 3128.77 585.402 Q3124 589.635 3115.31 589.635 Q3112.32 589.635 3109.2 589.126 Q3106.11 588.617 3102.8 587.598 L3102.8 581.137 Q3105.67 582.697 3108.72 583.46 Q3111.78 584.224 3115.18 584.224 Q3120.69 584.224 3123.9 581.328 Q3127.12 578.432 3127.12 573.466 Q3127.12 568.501 3123.9 565.605 Q3120.69 562.708 3115.18 562.708 Q3112.6 562.708 3110.03 563.281 Q3107.48 563.854 3104.81 565.064 L3104.81 541.192 Z" fill="#000000" fill-rule="evenodd" fill-opacity="1" /><polyline clip-path="url(#clip1900)" style="stroke:#00a9ad; stroke-width:16; stroke-opacity:1; fill:none" points="
  2764.44,625.432 2956.44,625.432 
  "/>
<path clip-path="url(#clip1900)" d="M 0 0 M2988.44 601.672 L2994.87 601.672 L2994.87 643.781 L3018.01 643.781 L3018.01 649.192 L2988.44 649.192 L2988.44 601.672 Z" fill="#000000" fill-rule="evenodd" fill-opacity="1" /><path clip-path="url(#clip1900)" d="M 0 0 M3024.15 613.544 L3030.01 613.544 L3030.01 649.192 L3024.15 649.192 L3024.15 613.544 M3024.15 599.667 L3030.01 599.667 L3030.01 607.083 L3024.15 607.083 L3024.15 599.667 Z" fill="#000000" fill-rule="evenodd" fill-opacity="1" /><path clip-path="url(#clip1900)" d="M 0 0 M3054.2 599.667 L3054.2 604.537 L3048.6 604.537 Q3045.45 604.537 3044.21 605.81 Q3043 607.083 3043 610.393 L3043 613.544 L3052.64 613.544 L3052.64 618.096 L3043 618.096 L3043 649.192 L3037.11 649.192 L3037.11 618.096 L3031.51 618.096 L3031.51 613.544 L3037.11 613.544 L3037.11 611.062 Q3037.11 605.11 3039.88 602.404 Q3042.65 599.667 3048.66 599.667 L3054.2 599.667 Z" fill="#000000" fill-rule="evenodd" fill-opacity="1" /><path clip-path="url(#clip1900)" d="M 0 0 M3064.99 603.423 L3064.99 613.544 L3077.05 613.544 L3077.05 618.096 L3064.99 618.096 L3064.99 637.447 Q3064.99 641.808 3066.17 643.049 Q3067.38 644.291 3071.04 644.291 L3077.05 644.291 L3077.05 649.192 L3071.04 649.192 Q3064.26 649.192 3061.68 646.678 Q3059.1 644.131 3059.1 637.447 L3059.1 618.096 L3054.8 618.096 L3054.8 613.544 L3059.1 613.544 L3059.1 603.423 L3064.99 603.423 Z" fill="#000000" fill-rule="evenodd" fill-opacity="1" /><path clip-path="url(#clip1900)" d="M 0 0 M3119.29 622.87 Q3114.96 622.87 3112.41 625.83 Q3109.9 628.79 3109.9 633.946 Q3109.9 639.071 3112.41 642.063 Q3114.96 645.023 3119.29 645.023 Q3123.62 645.023 3126.13 642.063 Q3128.68 639.071 3128.68 633.946 Q3128.68 628.79 3126.13 625.83 Q3123.62 622.87 3119.29 622.87 M3132.05 602.722 L3132.05 608.579 Q3129.63 607.433 3127.15 606.828 Q3124.7 606.224 3122.28 606.224 Q3115.92 606.224 3112.54 610.52 Q3109.2 614.817 3108.72 623.506 Q3110.6 620.737 3113.43 619.273 Q3116.27 617.777 3119.67 617.777 Q3126.83 617.777 3130.97 622.138 Q3135.14 626.467 3135.14 633.946 Q3135.14 641.267 3130.81 645.691 Q3126.48 650.115 3119.29 650.115 Q3111.05 650.115 3106.68 643.813 Q3102.32 637.479 3102.32 625.48 Q3102.32 614.213 3107.67 607.529 Q3113.02 600.813 3122.03 600.813 Q3124.45 600.813 3126.9 601.29 Q3129.38 601.768 3132.05 602.722 Z" fill="#000000" fill-rule="evenodd" fill-opacity="1" /><polyline clip-path="url(#clip1900)" style="stroke:#ed5d92; stroke-width:16; stroke-opacity:1; fill:none" points="
  2764.44,685.912 2956.44,685.912 
  "/>
<path clip-path="url(#clip1900)" d="M 0 0 M2988.44 662.152 L2994.87 662.152 L2994.87 704.261 L3018.01 704.261 L3018.01 709.672 L2988.44 709.672 L2988.44 662.152 Z" fill="#000000" fill-rule="evenodd" fill-opacity="1" /><path clip-path="url(#clip1900)" d="M 0 0 M3024.15 674.024 L3030.01 674.024 L3030.01 709.672 L3024.15 709.672 L3024.15 674.024 M3024.15 660.147 L3030.01 660.147 L3030.01 667.563 L3024.15 667.563 L3024.15 660.147 Z" fill="#000000" fill-rule="evenodd" fill-opacity="1" /><path clip-path="url(#clip1900)" d="M 0 0 M3054.2 660.147 L3054.2 665.017 L3048.6 665.017 Q3045.45 665.017 3044.21 666.29 Q3043 667.563 3043 670.873 L3043 674.024 L3052.64 674.024 L3052.64 678.576 L3043 678.576 L3043 709.672 L3037.11 709.672 L3037.11 678.576 L3031.51 678.576 L3031.51 674.024 L3037.11 674.024 L3037.11 671.542 Q3037.11 665.59 3039.88 662.884 Q3042.65 660.147 3048.66 660.147 L3054.2 660.147 Z" fill="#000000" fill-rule="evenodd" fill-opacity="1" /><path clip-path="url(#clip1900)" d="M 0 0 M3064.99 663.903 L3064.99 674.024 L3077.05 674.024 L3077.05 678.576 L3064.99 678.576 L3064.99 697.927 Q3064.99 702.288 3066.17 703.529 Q3067.38 704.771 3071.04 704.771 L3077.05 704.771 L3077.05 709.672 L3071.04 709.672 Q3064.26 709.672 3061.68 707.158 Q3059.1 704.611 3059.1 697.927 L3059.1 678.576 L3054.8 678.576 L3054.8 674.024 L3059.1 674.024 L3059.1 663.903 L3064.99 663.903 Z" fill="#000000" fill-rule="evenodd" fill-opacity="1" /><path clip-path="url(#clip1900)" d="M 0 0 M3103.12 662.152 L3133.68 662.152 L3133.68 664.889 L3116.42 709.672 L3109.71 709.672 L3125.94 667.563 L3103.12 667.563 L3103.12 662.152 Z" fill="#000000" fill-rule="evenodd" fill-opacity="1" /><polyline clip-path="url(#clip1900)" style="stroke:#c68125; stroke-width:16; stroke-opacity:1; fill:none" points="
  2764.44,746.392 2956.44,746.392 
  "/>
<path clip-path="url(#clip1900)" d="M 0 0 M2988.44 722.632 L2994.87 722.632 L2994.87 764.741 L3018.01 764.741 L3018.01 770.152 L2988.44 770.152 L2988.44 722.632 Z" fill="#000000" fill-rule="evenodd" fill-opacity="1" /><path clip-path="url(#clip1900)" d="M 0 0 M3024.15 734.504 L3030.01 734.504 L3030.01 770.152 L3024.15 770.152 L3024.15 734.504 M3024.15 720.627 L3030.01 720.627 L3030.01 728.043 L3024.15 728.043 L3024.15 720.627 Z" fill="#000000" fill-rule="evenodd" fill-opacity="1" /><path clip-path="url(#clip1900)" d="M 0 0 M3054.2 720.627 L3054.2 725.497 L3048.6 725.497 Q3045.45 725.497 3044.21 726.77 Q3043 728.043 3043 731.353 L3043 734.504 L3052.64 734.504 L3052.64 739.056 L3043 739.056 L3043 770.152 L3037.11 770.152 L3037.11 739.056 L3031.51 739.056 L3031.51 734.504 L3037.11 734.504 L3037.11 732.022 Q3037.11 726.07 3039.88 723.364 Q3042.65 720.627 3048.66 720.627 L3054.2 720.627 Z" fill="#000000" fill-rule="evenodd" fill-opacity="1" /><path clip-path="url(#clip1900)" d="M 0 0 M3064.99 724.383 L3064.99 734.504 L3077.05 734.504 L3077.05 739.056 L3064.99 739.056 L3064.99 758.407 Q3064.99 762.768 3066.17 764.009 Q3067.38 765.251 3071.04 765.251 L3077.05 765.251 L3077.05 770.152 L3071.04 770.152 Q3064.26 770.152 3061.68 767.638 Q3059.1 765.091 3059.1 758.407 L3059.1 739.056 L3054.8 739.056 L3054.8 734.504 L3059.1 734.504 L3059.1 724.383 L3064.99 724.383 Z" fill="#000000" fill-rule="evenodd" fill-opacity="1" /><path clip-path="url(#clip1900)" d="M 0 0 M3118.49 747.586 Q3113.91 747.586 3111.27 750.036 Q3108.66 752.487 3108.66 756.784 Q3108.66 761.081 3111.27 763.532 Q3113.91 765.983 3118.49 765.983 Q3123.08 765.983 3125.72 763.532 Q3128.36 761.049 3128.36 756.784 Q3128.36 752.487 3125.72 750.036 Q3123.11 747.586 3118.49 747.586 M3112.06 744.848 Q3107.93 743.83 3105.6 740.997 Q3103.31 738.164 3103.31 734.09 Q3103.31 728.393 3107.35 725.083 Q3111.43 721.773 3118.49 721.773 Q3125.59 721.773 3129.63 725.083 Q3133.68 728.393 3133.68 734.09 Q3133.68 738.164 3131.35 740.997 Q3129.06 743.83 3124.95 744.848 Q3129.6 745.931 3132.18 749.082 Q3134.79 752.233 3134.79 756.784 Q3134.79 763.691 3130.56 767.383 Q3126.35 771.075 3118.49 771.075 Q3110.63 771.075 3106.4 767.383 Q3102.2 763.691 3102.2 756.784 Q3102.2 752.233 3104.81 749.082 Q3107.42 745.931 3112.06 744.848 M3109.71 734.695 Q3109.71 738.387 3112 740.456 Q3114.32 742.525 3118.49 742.525 Q3122.63 742.525 3124.95 740.456 Q3127.31 738.387 3127.31 734.695 Q3127.31 731.003 3124.95 728.934 Q3122.63 726.865 3118.49 726.865 Q3114.32 726.865 3112 728.934 Q3109.71 731.003 3109.71 734.695 Z" fill="#000000" fill-rule="evenodd" fill-opacity="1" /><polyline clip-path="url(#clip1900)" style="stroke:#00a98d; stroke-width:16; stroke-opacity:1; fill:none" points="
  2764.44,806.872 2956.44,806.872 
  "/>
<path clip-path="url(#clip1900)" d="M 0 0 M2988.44 783.112 L2994.87 783.112 L2994.87 825.221 L3018.01 825.221 L3018.01 830.632 L2988.44 830.632 L2988.44 783.112 Z" fill="#000000" fill-rule="evenodd" fill-opacity="1" /><path clip-path="url(#clip1900)" d="M 0 0 M3024.15 794.984 L3030.01 794.984 L3030.01 830.632 L3024.15 830.632 L3024.15 794.984 M3024.15 781.107 L3030.01 781.107 L3030.01 788.523 L3024.15 788.523 L3024.15 781.107 Z" fill="#000000" fill-rule="evenodd" fill-opacity="1" /><path clip-path="url(#clip1900)" d="M 0 0 M3054.2 781.107 L3054.2 785.977 L3048.6 785.977 Q3045.45 785.977 3044.21 787.25 Q3043 788.523 3043 791.833 L3043 794.984 L3052.64 794.984 L3052.64 799.536 L3043 799.536 L3043 830.632 L3037.11 830.632 L3037.11 799.536 L3031.51 799.536 L3031.51 794.984 L3037.11 794.984 L3037.11 792.502 Q3037.11 786.55 3039.88 783.844 Q3042.65 781.107 3048.66 781.107 L3054.2 781.107 Z" fill="#000000" fill-rule="evenodd" fill-opacity="1" /><path clip-path="url(#clip1900)" d="M 0 0 M3064.99 784.863 L3064.99 794.984 L3077.05 794.984 L3077.05 799.536 L3064.99 799.536 L3064.99 818.887 Q3064.99 823.248 3066.17 824.489 Q3067.38 825.731 3071.04 825.731 L3077.05 825.731 L3077.05 830.632 L3071.04 830.632 Q3064.26 830.632 3061.68 828.118 Q3059.1 825.571 3059.1 818.887 L3059.1 799.536 L3054.8 799.536 L3054.8 794.984 L3059.1 794.984 L3059.1 784.863 L3064.99 784.863 Z" fill="#000000" fill-rule="evenodd" fill-opacity="1" /><path clip-path="url(#clip1900)" d="M 0 0 M3104.93 829.645 L3104.93 823.789 Q3107.35 824.935 3109.84 825.54 Q3112.32 826.144 3114.71 826.144 Q3121.07 826.144 3124.41 821.879 Q3127.79 817.582 3128.26 808.861 Q3126.42 811.599 3123.59 813.063 Q3120.75 814.527 3117.32 814.527 Q3110.19 814.527 3106.02 810.23 Q3101.88 805.901 3101.88 798.422 Q3101.88 791.101 3106.21 786.677 Q3110.54 782.253 3117.73 782.253 Q3125.97 782.253 3130.3 788.587 Q3134.66 794.889 3134.66 806.92 Q3134.66 818.155 3129.31 824.871 Q3124 831.555 3114.99 831.555 Q3112.57 831.555 3110.09 831.078 Q3107.61 830.6 3104.93 829.645 M3117.73 809.498 Q3122.06 809.498 3124.57 806.538 Q3127.12 803.578 3127.12 798.422 Q3127.12 793.297 3124.57 790.337 Q3122.06 787.345 3117.73 787.345 Q3113.4 787.345 3110.85 790.337 Q3108.34 793.297 3108.34 798.422 Q3108.34 803.578 3110.85 806.538 Q3113.4 809.498 3117.73 809.498 Z" fill="#000000" fill-rule="evenodd" fill-opacity="1" /><polyline clip-path="url(#clip1900)" style="stroke:#8e971d; stroke-width:16; stroke-opacity:1; fill:none" points="
  2764.44,867.352 2956.44,867.352 
  "/>
<path clip-path="url(#clip1900)" d="M 0 0 M2988.44 843.592 L2994.87 843.592 L2994.87 885.701 L3018.01 885.701 L3018.01 891.112 L2988.44 891.112 L2988.44 843.592 Z" fill="#000000" fill-rule="evenodd" fill-opacity="1" /><path clip-path="url(#clip1900)" d="M 0 0 M3024.15 855.464 L3030.01 855.464 L3030.01 891.112 L3024.15 891.112 L3024.15 855.464 M3024.15 841.587 L3030.01 841.587 L3030.01 849.003 L3024.15 849.003 L3024.15 841.587 Z" fill="#000000" fill-rule="evenodd" fill-opacity="1" /><path clip-path="url(#clip1900)" d="M 0 0 M3054.2 841.587 L3054.2 846.457 L3048.6 846.457 Q3045.45 846.457 3044.21 847.73 Q3043 849.003 3043 852.313 L3043 855.464 L3052.64 855.464 L3052.64 860.016 L3043 860.016 L3043 891.112 L3037.11 891.112 L3037.11 860.016 L3031.51 860.016 L3031.51 855.464 L3037.11 855.464 L3037.11 852.982 Q3037.11 847.03 3039.88 844.324 Q3042.65 841.587 3048.66 841.587 L3054.2 841.587 Z" fill="#000000" fill-rule="evenodd" fill-opacity="1" /><path clip-path="url(#clip1900)" d="M 0 0 M3064.99 845.343 L3064.99 855.464 L3077.05 855.464 L3077.05 860.016 L3064.99 860.016 L3064.99 879.367 Q3064.99 883.728 3066.17 884.969 Q3067.38 886.211 3071.04 886.211 L3077.05 886.211 L3077.05 891.112 L3071.04 891.112 Q3064.26 891.112 3061.68 888.598 Q3059.1 886.051 3059.1 879.367 L3059.1 860.016 L3054.8 860.016 L3054.8 855.464 L3059.1 855.464 L3059.1 845.343 L3064.99 845.343 Z" fill="#000000" fill-rule="evenodd" fill-opacity="1" /><path clip-path="url(#clip1900)" d="M 0 0 M3105.86 885.701 L3116.36 885.701 L3116.36 849.449 L3104.93 851.74 L3104.93 845.884 L3116.3 843.592 L3122.73 843.592 L3122.73 885.701 L3133.23 885.701 L3133.23 891.112 L3105.86 891.112 L3105.86 885.701 Z" fill="#000000" fill-rule="evenodd" fill-opacity="1" /><path clip-path="url(#clip1900)" d="M 0 0 M3153.95 847.825 Q3148.98 847.825 3146.47 852.727 Q3143.99 857.597 3143.99 867.4 Q3143.99 877.171 3146.47 882.073 Q3148.98 886.943 3153.95 886.943 Q3158.95 886.943 3161.43 882.073 Q3163.94 877.171 3163.94 867.4 Q3163.94 857.597 3161.43 852.727 Q3158.95 847.825 3153.95 847.825 M3153.95 842.733 Q3161.94 842.733 3166.14 849.067 Q3170.37 855.369 3170.37 867.4 Q3170.37 879.399 3166.14 885.733 Q3161.94 892.035 3153.95 892.035 Q3145.96 892.035 3141.73 885.733 Q3137.53 879.399 3137.53 867.4 Q3137.53 855.369 3141.73 849.067 Q3145.96 842.733 3153.95 842.733 Z" fill="#000000" fill-rule="evenodd" fill-opacity="1" /><polyline clip-path="url(#clip1900)" style="stroke:#00a8cb; stroke-width:16; stroke-opacity:1; fill:none" points="
  2764.44,927.832 2956.44,927.832 
  "/>
<path clip-path="url(#clip1900)" d="M 0 0 M2988.44 904.072 L2994.87 904.072 L2994.87 946.181 L3018.01 946.181 L3018.01 951.592 L2988.44 951.592 L2988.44 904.072 Z" fill="#000000" fill-rule="evenodd" fill-opacity="1" /><path clip-path="url(#clip1900)" d="M 0 0 M3036.82 920.05 Q3032.11 920.05 3029.37 923.742 Q3026.64 927.402 3026.64 933.8 Q3026.64 940.198 3029.34 943.89 Q3032.08 947.55 3036.82 947.55 Q3041.5 947.55 3044.24 943.858 Q3046.97 940.166 3046.97 933.8 Q3046.97 927.466 3044.24 923.774 Q3041.5 920.05 3036.82 920.05 M3036.82 915.085 Q3044.46 915.085 3048.82 920.05 Q3053.18 925.015 3053.18 933.8 Q3053.18 942.553 3048.82 947.55 Q3044.46 952.515 3036.82 952.515 Q3029.15 952.515 3024.79 947.55 Q3020.46 942.553 3020.46 933.8 Q3020.46 925.015 3024.79 920.05 Q3029.15 915.085 3036.82 915.085 Z" fill="#000000" fill-rule="evenodd" fill-opacity="1" /><path clip-path="url(#clip1900)" d="M 0 0 M3075.52 933.673 Q3068.43 933.673 3065.69 935.296 Q3062.95 936.919 3062.95 940.834 Q3062.95 943.953 3064.99 945.799 Q3067.06 947.614 3070.59 947.614 Q3075.46 947.614 3078.39 944.176 Q3081.35 940.707 3081.35 934.978 L3081.35 933.673 L3075.52 933.673 M3087.21 931.254 L3087.21 951.592 L3081.35 951.592 L3081.35 946.181 Q3079.34 949.428 3076.35 950.987 Q3073.36 952.515 3069.03 952.515 Q3063.56 952.515 3060.31 949.46 Q3057.1 946.372 3057.1 941.216 Q3057.1 935.2 3061.11 932.145 Q3065.15 929.089 3073.14 929.089 L3081.35 929.089 L3081.35 928.516 Q3081.35 924.474 3078.68 922.278 Q3076.03 920.05 3071.23 920.05 Q3068.17 920.05 3065.28 920.782 Q3062.38 921.514 3059.71 922.978 L3059.71 917.567 Q3062.92 916.326 3065.94 915.721 Q3068.97 915.085 3071.83 915.085 Q3079.57 915.085 3083.39 919.095 Q3087.21 923.106 3087.21 931.254 Z" fill="#000000" fill-rule="evenodd" fill-opacity="1" /><path clip-path="url(#clip1900)" d="M 0 0 M3116.81 921.355 L3116.81 902.067 L3122.66 902.067 L3122.66 951.592 L3116.81 951.592 L3116.81 946.245 Q3114.96 949.428 3112.13 950.987 Q3109.33 952.515 3105.38 952.515 Q3098.92 952.515 3094.84 947.359 Q3090.8 942.203 3090.8 933.8 Q3090.8 925.397 3094.84 920.241 Q3098.92 915.085 3105.38 915.085 Q3109.33 915.085 3112.13 916.644 Q3114.96 918.172 3116.81 921.355 M3096.85 933.8 Q3096.85 940.261 3099.49 943.953 Q3102.17 947.614 3106.81 947.614 Q3111.46 947.614 3114.13 943.953 Q3116.81 940.261 3116.81 933.8 Q3116.81 927.339 3114.13 923.679 Q3111.46 919.986 3106.81 919.986 Q3102.17 919.986 3099.49 923.679 Q3096.85 927.339 3096.85 933.8 Z" fill="#000000" fill-rule="evenodd" fill-opacity="1" /></svg>
