<?xml version="1.0" encoding="utf-8"?>
<svg xmlns="http://www.w3.org/2000/svg" xmlns:xlink="http://www.w3.org/1999/xlink" width="800" height="600" viewBox="0 0 3200 2400">
<defs>
  <clipPath id="clip3100">
    <rect x="0" y="0" width="3200" height="2400"/>
  </clipPath>
</defs>
<path clip-path="url(#clip3100)" d="
M0 2400 L3200 2400 L3200 0 L0 0  Z
  " fill="#ffffff" fill-rule="evenodd" fill-opacity="1"/>
<defs>
  <clipPath id="clip3101">
    <rect x="640" y="0" width="2241" height="2241"/>
  </clipPath>
</defs>
<path clip-path="url(#clip3100)" d="
M240.01 2204.92 L2636.44 2204.92 L2636.44 131.032 L240.01 131.032  Z
  " fill="#ffffff" fill-rule="evenodd" fill-opacity="1"/>
<defs>
  <clipPath id="clip3102">
    <rect x="240" y="131" width="2397" height="2075"/>
  </clipPath>
</defs>
<polyline clip-path="url(#clip3102)" style="stroke:#000000; stroke-width:2; stroke-opacity:0.1; fill:none" points="
  307.833,2204.92 307.833,131.032 
  "/>
<polyline clip-path="url(#clip3102)" style="stroke:#000000; stroke-width:2; stroke-opacity:0.1; fill:none" points="
  759.99,2204.92 759.99,131.032 
  "/>
<polyline clip-path="url(#clip3102)" style="stroke:#000000; stroke-width:2; stroke-opacity:0.1; fill:none" points="
  1212.15,2204.92 1212.15,131.032 
  "/>
<polyline clip-path="url(#clip3102)" style="stroke:#000000; stroke-width:2; stroke-opacity:0.1; fill:none" points="
  1664.3,2204.92 1664.3,131.032 
  "/>
<polyline clip-path="url(#clip3102)" style="stroke:#000000; stroke-width:2; stroke-opacity:0.1; fill:none" points="
  2116.46,2204.92 2116.46,131.032 
  "/>
<polyline clip-path="url(#clip3102)" style="stroke:#000000; stroke-width:2; stroke-opacity:0.1; fill:none" points="
  2568.62,2204.92 2568.62,131.032 
  "/>
<polyline clip-path="url(#clip3102)" style="stroke:#000000; stroke-width:2; stroke-opacity:0.1; fill:none" points="
  240.01,1958.62 2636.44,1958.62 
  "/>
<polyline clip-path="url(#clip3102)" style="stroke:#000000; stroke-width:2; stroke-opacity:0.1; fill:none" points="
  240.01,1565.88 2636.44,1565.88 
  "/>
<polyline clip-path="url(#clip3102)" style="stroke:#000000; stroke-width:2; stroke-opacity:0.1; fill:none" points="
  240.01,1173.13 2636.44,1173.13 
  "/>
<polyline clip-path="url(#clip3102)" style="stroke:#000000; stroke-width:2; stroke-opacity:0.1; fill:none" points="
  240.01,780.393 2636.44,780.393 
  "/>
<polyline clip-path="url(#clip3102)" style="stroke:#000000; stroke-width:2; stroke-opacity:0.1; fill:none" points="
  240.01,387.652 2636.44,387.652 
  "/>
<polyline clip-path="url(#clip3100)" style="stroke:#000000; stroke-width:4; stroke-opacity:1; fill:none" points="
  240.01,2204.92 2636.44,2204.92 
  "/>
<polyline clip-path="url(#clip3100)" style="stroke:#000000; stroke-width:4; stroke-opacity:1; fill:none" points="
  240.01,2204.92 240.01,131.032 
  "/>
<polyline clip-path="url(#clip3100)" style="stroke:#000000; stroke-width:4; stroke-opacity:1; fill:none" points="
  307.833,2204.92 307.833,2180.03 
  "/>
<polyline clip-path="url(#clip3100)" style="stroke:#000000; stroke-width:4; stroke-opacity:1; fill:none" points="
  759.99,2204.92 759.99,2180.03 
  "/>
<polyline clip-path="url(#clip3100)" style="stroke:#000000; stroke-width:4; stroke-opacity:1; fill:none" points="
  1212.15,2204.92 1212.15,2180.03 
  "/>
<polyline clip-path="url(#clip3100)" style="stroke:#000000; stroke-width:4; stroke-opacity:1; fill:none" points="
  1664.3,2204.92 1664.3,2180.03 
  "/>
<polyline clip-path="url(#clip3100)" style="stroke:#000000; stroke-width:4; stroke-opacity:1; fill:none" points="
  2116.46,2204.92 2116.46,2180.03 
  "/>
<polyline clip-path="url(#clip3100)" style="stroke:#000000; stroke-width:4; stroke-opacity:1; fill:none" points="
  2568.62,2204.92 2568.62,2180.03 
  "/>
<polyline clip-path="url(#clip3100)" style="stroke:#000000; stroke-width:4; stroke-opacity:1; fill:none" points="
  240.01,1958.62 268.767,1958.62 
  "/>
<polyline clip-path="url(#clip3100)" style="stroke:#000000; stroke-width:4; stroke-opacity:1; fill:none" points="
  240.01,1565.88 268.767,1565.88 
  "/>
<polyline clip-path="url(#clip3100)" style="stroke:#000000; stroke-width:4; stroke-opacity:1; fill:none" points="
  240.01,1173.13 268.767,1173.13 
  "/>
<polyline clip-path="url(#clip3100)" style="stroke:#000000; stroke-width:4; stroke-opacity:1; fill:none" points="
  240.01,780.393 268.767,780.393 
  "/>
<polyline clip-path="url(#clip3100)" style="stroke:#000000; stroke-width:4; stroke-opacity:1; fill:none" points="
  240.01,387.652 268.767,387.652 
  "/>
<path clip-path="url(#clip3100)" d="M 0 0 M307.833 2230.91 Q304.222 2230.91 302.394 2234.48 Q300.588 2238.02 300.588 2245.15 Q300.588 2252.25 302.394 2255.82 Q304.222 2259.36 307.833 2259.36 Q311.468 2259.36 313.273 2255.82 Q315.102 2252.25 315.102 2245.15 Q315.102 2238.02 313.273 2234.48 Q311.468 2230.91 307.833 2230.91 M307.833 2227.21 Q313.644 2227.21 316.699 2231.81 Q319.778 2236.4 319.778 2245.15 Q319.778 2253.87 316.699 2258.48 Q313.644 2263.06 307.833 2263.06 Q302.023 2263.06 298.945 2258.48 Q295.889 2253.87 295.889 2245.15 Q295.889 2236.4 298.945 2231.81 Q302.023 2227.21 307.833 2227.21 Z" fill="#000000" fill-rule="evenodd" fill-opacity="1" /><path clip-path="url(#clip3100)" d="M 0 0 M750.372 2258.46 L758.011 2258.46 L758.011 2232.09 L749.701 2233.76 L749.701 2229.5 L757.965 2227.83 L762.641 2227.83 L762.641 2258.46 L770.28 2258.46 L770.28 2262.39 L750.372 2262.39 L750.372 2258.46 Z" fill="#000000" fill-rule="evenodd" fill-opacity="1" /><path clip-path="url(#clip3100)" d="M 0 0 M1206.8 2258.46 L1223.12 2258.46 L1223.12 2262.39 L1201.18 2262.39 L1201.18 2258.46 Q1203.84 2255.7 1208.42 2251.07 Q1213.03 2246.42 1214.21 2245.08 Q1216.45 2242.55 1217.33 2240.82 Q1218.24 2239.06 1218.24 2237.37 Q1218.24 2234.61 1216.29 2232.88 Q1214.37 2231.14 1211.27 2231.14 Q1209.07 2231.14 1206.62 2231.91 Q1204.18 2232.67 1201.41 2234.22 L1201.41 2229.5 Q1204.23 2228.36 1206.68 2227.79 Q1209.14 2227.21 1211.18 2227.21 Q1216.55 2227.21 1219.74 2229.89 Q1222.93 2232.58 1222.93 2237.07 Q1222.93 2239.2 1222.12 2241.12 Q1221.34 2243.02 1219.23 2245.61 Q1218.65 2246.28 1215.55 2249.5 Q1212.45 2252.69 1206.8 2258.46 Z" fill="#000000" fill-rule="evenodd" fill-opacity="1" /><path clip-path="url(#clip3100)" d="M 0 0 M1668.55 2243.76 Q1671.91 2244.48 1673.78 2246.74 Q1675.68 2249.01 1675.68 2252.35 Q1675.68 2257.46 1672.16 2260.26 Q1668.64 2263.06 1662.16 2263.06 Q1659.99 2263.06 1657.67 2262.62 Q1655.38 2262.21 1652.93 2261.35 L1652.93 2256.84 Q1654.87 2257.97 1657.19 2258.55 Q1659.5 2259.13 1662.02 2259.13 Q1666.42 2259.13 1668.71 2257.39 Q1671.03 2255.66 1671.03 2252.35 Q1671.03 2249.29 1668.88 2247.58 Q1666.75 2245.84 1662.93 2245.84 L1658.9 2245.84 L1658.9 2242 L1663.11 2242 Q1666.56 2242 1668.39 2240.63 Q1670.22 2239.24 1670.22 2236.65 Q1670.22 2233.99 1668.32 2232.58 Q1666.45 2231.14 1662.93 2231.14 Q1661.01 2231.14 1658.81 2231.56 Q1656.61 2231.98 1653.97 2232.85 L1653.97 2228.69 Q1656.63 2227.95 1658.95 2227.58 Q1661.28 2227.21 1663.34 2227.21 Q1668.67 2227.21 1671.77 2229.64 Q1674.87 2232.04 1674.87 2236.17 Q1674.87 2239.04 1673.23 2241.03 Q1671.58 2242.99 1668.55 2243.76 Z" fill="#000000" fill-rule="evenodd" fill-opacity="1" /><path clip-path="url(#clip3100)" d="M 0 0 M2119.47 2231.91 L2107.67 2250.35 L2119.47 2250.35 L2119.47 2231.91 M2118.24 2227.83 L2124.12 2227.83 L2124.12 2250.35 L2129.05 2250.35 L2129.05 2254.24 L2124.12 2254.24 L2124.12 2262.39 L2119.47 2262.39 L2119.47 2254.24 L2103.87 2254.24 L2103.87 2249.73 L2118.24 2227.83 Z" fill="#000000" fill-rule="evenodd" fill-opacity="1" /><path clip-path="url(#clip3100)" d="M 0 0 M2558.9 2227.83 L2577.25 2227.83 L2577.25 2231.77 L2563.18 2231.77 L2563.18 2240.24 Q2564.2 2239.89 2565.22 2239.73 Q2566.23 2239.54 2567.25 2239.54 Q2573.04 2239.54 2576.42 2242.72 Q2579.8 2245.89 2579.8 2251.3 Q2579.8 2256.88 2576.33 2259.98 Q2572.85 2263.06 2566.53 2263.06 Q2564.36 2263.06 2562.09 2262.69 Q2559.85 2262.32 2557.44 2261.58 L2557.44 2256.88 Q2559.52 2258.02 2561.74 2258.57 Q2563.97 2259.13 2566.44 2259.13 Q2570.45 2259.13 2572.78 2257.02 Q2575.12 2254.92 2575.12 2251.3 Q2575.12 2247.69 2572.78 2245.59 Q2570.45 2243.48 2566.44 2243.48 Q2564.57 2243.48 2562.69 2243.9 Q2560.84 2244.31 2558.9 2245.19 L2558.9 2227.83 Z" fill="#000000" fill-rule="evenodd" fill-opacity="1" /><path clip-path="url(#clip3100)" d="M 0 0 M132.2 1961.01 L144.677 1961.01 L144.677 1964.81 L132.2 1964.81 L132.2 1961.01 Z" fill="#000000" fill-rule="evenodd" fill-opacity="1" /><path clip-path="url(#clip3100)" d="M 0 0 M159.746 1944.42 Q156.135 1944.42 154.307 1947.98 Q152.501 1951.52 152.501 1958.65 Q152.501 1965.76 154.307 1969.32 Q156.135 1972.86 159.746 1972.86 Q163.381 1972.86 165.186 1969.32 Q167.015 1965.76 167.015 1958.65 Q167.015 1951.52 165.186 1947.98 Q163.381 1944.42 159.746 1944.42 M159.746 1940.71 Q165.556 1940.71 168.612 1945.32 Q171.691 1949.9 171.691 1958.65 Q171.691 1967.38 168.612 1971.98 Q165.556 1976.57 159.746 1976.57 Q153.936 1976.57 150.857 1971.98 Q147.802 1967.38 147.802 1958.65 Q147.802 1949.9 150.857 1945.32 Q153.936 1940.71 159.746 1940.71 Z" fill="#000000" fill-rule="evenodd" fill-opacity="1" /><path clip-path="url(#clip3100)" d="M 0 0 M176.76 1970.02 L181.644 1970.02 L181.644 1975.9 L176.76 1975.9 L176.76 1970.02 Z" fill="#000000" fill-rule="evenodd" fill-opacity="1" /><path clip-path="url(#clip3100)" d="M 0 0 M200.88 1957.26 Q204.237 1957.98 206.112 1960.25 Q208.01 1962.52 208.01 1965.85 Q208.01 1970.97 204.491 1973.77 Q200.973 1976.57 194.491 1976.57 Q192.316 1976.57 190.001 1976.13 Q187.709 1975.71 185.255 1974.86 L185.255 1970.34 Q187.2 1971.48 189.515 1972.05 Q191.829 1972.63 194.353 1972.63 Q198.751 1972.63 201.042 1970.9 Q203.357 1969.16 203.357 1965.85 Q203.357 1962.8 201.204 1961.08 Q199.075 1959.35 195.255 1959.35 L191.228 1959.35 L191.228 1955.5 L195.441 1955.5 Q198.89 1955.5 200.718 1954.14 Q202.547 1952.75 202.547 1950.16 Q202.547 1947.49 200.649 1946.08 Q198.774 1944.65 195.255 1944.65 Q193.334 1944.65 191.135 1945.06 Q188.936 1945.48 186.297 1946.36 L186.297 1942.19 Q188.959 1941.45 191.274 1941.08 Q193.612 1940.71 195.672 1940.71 Q200.996 1940.71 204.098 1943.14 Q207.2 1945.55 207.2 1949.67 Q207.2 1952.54 205.556 1954.53 Q203.913 1956.5 200.88 1957.26 Z" fill="#000000" fill-rule="evenodd" fill-opacity="1" /><path clip-path="url(#clip3100)" d="M 0 0 M159.098 1551.67 Q155.487 1551.67 153.658 1555.24 Q151.853 1558.78 151.853 1565.91 Q151.853 1573.02 153.658 1576.58 Q155.487 1580.12 159.098 1580.12 Q162.732 1580.12 164.538 1576.58 Q166.367 1573.02 166.367 1565.91 Q166.367 1558.78 164.538 1555.24 Q162.732 1551.67 159.098 1551.67 M159.098 1547.97 Q164.908 1547.97 167.964 1552.58 Q171.043 1557.16 171.043 1565.91 Q171.043 1574.64 167.964 1579.24 Q164.908 1583.83 159.098 1583.83 Q153.288 1583.83 150.209 1579.24 Q147.154 1574.64 147.154 1565.91 Q147.154 1557.16 150.209 1552.58 Q153.288 1547.97 159.098 1547.97 Z" fill="#000000" fill-rule="evenodd" fill-opacity="1" /><path clip-path="url(#clip3100)" d="M 0 0 M176.112 1577.28 L180.996 1577.28 L180.996 1583.16 L176.112 1583.16 L176.112 1577.28 Z" fill="#000000" fill-rule="evenodd" fill-opacity="1" /><path clip-path="url(#clip3100)" d="M 0 0 M196.066 1551.67 Q192.454 1551.67 190.626 1555.24 Q188.82 1558.78 188.82 1565.91 Q188.82 1573.02 190.626 1576.58 Q192.454 1580.12 196.066 1580.12 Q199.7 1580.12 201.505 1576.58 Q203.334 1573.02 203.334 1565.91 Q203.334 1558.78 201.505 1555.24 Q199.7 1551.67 196.066 1551.67 M196.066 1547.97 Q201.876 1547.97 204.931 1552.58 Q208.01 1557.16 208.01 1565.91 Q208.01 1574.64 204.931 1579.24 Q201.876 1583.83 196.066 1583.83 Q190.255 1583.83 187.177 1579.24 Q184.121 1574.64 184.121 1565.91 Q184.121 1557.16 187.177 1552.58 Q190.255 1547.97 196.066 1547.97 Z" fill="#000000" fill-rule="evenodd" fill-opacity="1" /><path clip-path="url(#clip3100)" d="M 0 0 M159.746 1158.93 Q156.135 1158.93 154.307 1162.5 Q152.501 1166.04 152.501 1173.17 Q152.501 1180.28 154.307 1183.84 Q156.135 1187.38 159.746 1187.38 Q163.381 1187.38 165.186 1183.84 Q167.015 1180.28 167.015 1173.17 Q167.015 1166.04 165.186 1162.5 Q163.381 1158.93 159.746 1158.93 M159.746 1155.23 Q165.556 1155.23 168.612 1159.84 Q171.691 1164.42 171.691 1173.17 Q171.691 1181.9 168.612 1186.5 Q165.556 1191.09 159.746 1191.09 Q153.936 1191.09 150.857 1186.5 Q147.802 1181.9 147.802 1173.17 Q147.802 1164.42 150.857 1159.84 Q153.936 1155.23 159.746 1155.23 Z" fill="#000000" fill-rule="evenodd" fill-opacity="1" /><path clip-path="url(#clip3100)" d="M 0 0 M176.76 1184.53 L181.644 1184.53 L181.644 1190.41 L176.76 1190.41 L176.76 1184.53 Z" fill="#000000" fill-rule="evenodd" fill-opacity="1" /><path clip-path="url(#clip3100)" d="M 0 0 M200.88 1171.78 Q204.237 1172.5 206.112 1174.77 Q208.01 1177.03 208.01 1180.37 Q208.01 1185.48 204.491 1188.28 Q200.973 1191.09 194.491 1191.09 Q192.316 1191.09 190.001 1190.65 Q187.709 1190.23 185.255 1189.37 L185.255 1184.86 Q187.2 1185.99 189.515 1186.57 Q191.829 1187.15 194.353 1187.15 Q198.751 1187.15 201.042 1185.41 Q203.357 1183.68 203.357 1180.37 Q203.357 1177.31 201.204 1175.6 Q199.075 1173.86 195.255 1173.86 L191.228 1173.86 L191.228 1170.02 L195.441 1170.02 Q198.89 1170.02 200.718 1168.66 Q202.547 1167.27 202.547 1164.67 Q202.547 1162.01 200.649 1160.6 Q198.774 1159.16 195.255 1159.16 Q193.334 1159.16 191.135 1159.58 Q188.936 1160 186.297 1160.88 L186.297 1156.71 Q188.959 1155.97 191.274 1155.6 Q193.612 1155.23 195.672 1155.23 Q200.996 1155.23 204.098 1157.66 Q207.2 1160.07 207.2 1164.19 Q207.2 1167.06 205.556 1169.05 Q203.913 1171.02 200.88 1171.78 Z" fill="#000000" fill-rule="evenodd" fill-opacity="1" /><path clip-path="url(#clip3100)" d="M 0 0 M158.936 766.192 Q155.325 766.192 153.496 769.756 Q151.691 773.298 151.691 780.428 Q151.691 787.534 153.496 791.099 Q155.325 794.641 158.936 794.641 Q162.57 794.641 164.376 791.099 Q166.205 787.534 166.205 780.428 Q166.205 773.298 164.376 769.756 Q162.57 766.192 158.936 766.192 M158.936 762.488 Q164.746 762.488 167.802 767.094 Q170.881 771.678 170.881 780.428 Q170.881 789.154 167.802 793.761 Q164.746 798.344 158.936 798.344 Q153.126 798.344 150.047 793.761 Q146.992 789.154 146.992 780.428 Q146.992 771.678 150.047 767.094 Q153.126 762.488 158.936 762.488 Z" fill="#000000" fill-rule="evenodd" fill-opacity="1" /><path clip-path="url(#clip3100)" d="M 0 0 M175.95 791.793 L180.834 791.793 L180.834 797.673 L175.95 797.673 L175.95 791.793 Z" fill="#000000" fill-rule="evenodd" fill-opacity="1" /><path clip-path="url(#clip3100)" d="M 0 0 M196.482 778.529 Q193.334 778.529 191.482 780.682 Q189.654 782.835 189.654 786.585 Q189.654 790.312 191.482 792.488 Q193.334 794.641 196.482 794.641 Q199.63 794.641 201.459 792.488 Q203.311 790.312 203.311 786.585 Q203.311 782.835 201.459 780.682 Q199.63 778.529 196.482 778.529 M205.765 763.877 L205.765 768.136 Q204.005 767.303 202.2 766.863 Q200.417 766.423 198.658 766.423 Q194.029 766.423 191.575 769.548 Q189.144 772.673 188.797 778.992 Q190.163 776.979 192.223 775.914 Q194.283 774.826 196.76 774.826 Q201.968 774.826 204.978 777.997 Q208.01 781.145 208.01 786.585 Q208.01 791.909 204.862 795.127 Q201.714 798.344 196.482 798.344 Q190.487 798.344 187.316 793.761 Q184.144 789.154 184.144 780.428 Q184.144 772.233 188.033 767.372 Q191.922 762.488 198.473 762.488 Q200.232 762.488 202.015 762.835 Q203.82 763.182 205.765 763.877 Z" fill="#000000" fill-rule="evenodd" fill-opacity="1" /><path clip-path="url(#clip3100)" d="M 0 0 M159.283 373.45 Q155.672 373.45 153.844 377.015 Q152.038 380.557 152.038 387.686 Q152.038 394.793 153.844 398.357 Q155.672 401.899 159.283 401.899 Q162.918 401.899 164.723 398.357 Q166.552 394.793 166.552 387.686 Q166.552 380.557 164.723 377.015 Q162.918 373.45 159.283 373.45 M159.283 369.747 Q165.093 369.747 168.149 374.353 Q171.228 378.936 171.228 387.686 Q171.228 396.413 168.149 401.02 Q165.093 405.603 159.283 405.603 Q153.473 405.603 150.395 401.02 Q147.339 396.413 147.339 387.686 Q147.339 378.936 150.395 374.353 Q153.473 369.747 159.283 369.747 Z" fill="#000000" fill-rule="evenodd" fill-opacity="1" /><path clip-path="url(#clip3100)" d="M 0 0 M176.297 399.052 L181.181 399.052 L181.181 404.932 L176.297 404.932 L176.297 399.052 Z" fill="#000000" fill-rule="evenodd" fill-opacity="1" /><path clip-path="url(#clip3100)" d="M 0 0 M186.39 404.214 L186.39 399.955 Q188.149 400.788 189.954 401.228 Q191.76 401.668 193.496 401.668 Q198.126 401.668 200.556 398.566 Q203.01 395.441 203.357 389.098 Q202.015 391.089 199.954 392.154 Q197.894 393.219 195.394 393.219 Q190.209 393.219 187.177 390.094 Q184.167 386.946 184.167 381.506 Q184.167 376.182 187.316 372.964 Q190.464 369.747 195.695 369.747 Q201.691 369.747 204.839 374.353 Q208.01 378.936 208.01 387.686 Q208.01 395.858 204.121 400.742 Q200.255 405.603 193.704 405.603 Q191.945 405.603 190.14 405.256 Q188.334 404.908 186.39 404.214 M195.695 389.561 Q198.843 389.561 200.672 387.408 Q202.524 385.256 202.524 381.506 Q202.524 377.779 200.672 375.626 Q198.843 373.45 195.695 373.45 Q192.547 373.45 190.695 375.626 Q188.867 377.779 188.867 381.506 Q188.867 385.256 190.695 387.408 Q192.547 389.561 195.695 389.561 Z" fill="#000000" fill-rule="evenodd" fill-opacity="1" /><path clip-path="url(#clip3100)" d="M 0 0 M1004.17 45.1919 L1004.17 72.576 L996.718 72.576 L996.718 45.4349 Q996.718 38.994 994.206 35.7938 Q991.695 32.5936 986.672 32.5936 Q980.636 32.5936 977.152 36.4419 Q973.668 40.2903 973.668 46.9338 L973.668 72.576 L966.174 72.576 L966.174 9.54393 L973.668 9.54393 L973.668 34.2544 Q976.342 30.163 979.947 28.1376 Q983.593 26.1121 988.332 26.1121 Q996.151 26.1121 1000.16 30.9732 Q1004.17 35.7938 1004.17 45.1919 Z" fill="#000000" fill-rule="evenodd" fill-opacity="1" /><path clip-path="url(#clip3100)" d="M 0 0 M1029.57 32.4315 Q1023.58 32.4315 1020.09 37.1306 Q1016.61 41.7891 1016.61 49.9314 Q1016.61 58.0738 1020.05 62.7728 Q1023.53 67.4314 1029.57 67.4314 Q1035.53 67.4314 1039.01 62.7323 Q1042.49 58.0333 1042.49 49.9314 Q1042.49 41.8701 1039.01 37.1711 Q1035.53 32.4315 1029.57 32.4315 M1029.57 26.1121 Q1039.29 26.1121 1044.84 32.4315 Q1050.39 38.7509 1050.39 49.9314 Q1050.39 61.0714 1044.84 67.4314 Q1039.29 73.7508 1029.57 73.7508 Q1019.81 73.7508 1014.26 67.4314 Q1008.75 61.0714 1008.75 49.9314 Q1008.75 38.7509 1014.26 32.4315 Q1019.81 26.1121 1029.57 26.1121 Z" fill="#000000" fill-rule="evenodd" fill-opacity="1" /><path clip-path="url(#clip3100)" d="M 0 0 M1052.86 27.2059 L1060.76 27.2059 L1074.94 65.2844 L1089.12 27.2059 L1097.02 27.2059 L1080 72.576 L1069.88 72.576 L1052.86 27.2059 Z" fill="#000000" fill-rule="evenodd" fill-opacity="1" /><path clip-path="url(#clip3100)" d="M 0 0 M1143.64 48.0275 L1143.64 51.6733 L1109.37 51.6733 Q1109.86 59.3701 1113.99 63.421 Q1118.16 67.4314 1125.58 67.4314 Q1129.87 67.4314 1133.88 66.3781 Q1137.93 65.3249 1141.9 63.2184 L1141.9 70.267 Q1137.89 71.9684 1133.68 72.8596 Q1129.47 73.7508 1125.13 73.7508 Q1114.28 73.7508 1107.92 67.4314 Q1101.6 61.1119 1101.6 50.3365 Q1101.6 39.1965 1107.59 32.6746 Q1113.63 26.1121 1123.84 26.1121 Q1132.99 26.1121 1138.3 32.0264 Q1143.64 37.9003 1143.64 48.0275 M1136.19 45.84 Q1136.11 39.7232 1132.75 36.0774 Q1129.43 32.4315 1123.92 32.4315 Q1117.68 32.4315 1113.91 35.9558 Q1110.18 39.4801 1109.62 45.8805 L1136.19 45.84 Z" fill="#000000" fill-rule="evenodd" fill-opacity="1" /><path clip-path="url(#clip3100)" d="M 0 0 M1177.75 34.1734 Q1176.5 33.4443 1175 33.1202 Q1173.54 32.7556 1171.76 32.7556 Q1165.44 32.7556 1162.04 36.8875 Q1158.67 40.9789 1158.67 48.6757 L1158.67 72.576 L1151.18 72.576 L1151.18 27.2059 L1158.67 27.2059 L1158.67 34.2544 Q1161.02 30.1225 1164.79 28.1376 Q1168.56 26.1121 1173.94 26.1121 Q1174.71 26.1121 1175.65 26.2337 Q1176.58 26.3147 1177.71 26.5172 L1177.75 34.1734 Z" fill="#000000" fill-rule="evenodd" fill-opacity="1" /><path clip-path="url(#clip3100)" d="M 0 0 M1176.5 46.5287 L1198.33 46.5287 L1198.33 53.1722 L1176.5 53.1722 L1176.5 46.5287 Z" fill="#000000" fill-rule="evenodd" fill-opacity="1" /><path clip-path="url(#clip3100)" d="M 0 0 M1208.62 65.6895 L1221.99 65.6895 L1221.99 19.5497 L1207.45 22.4663 L1207.45 15.0127 L1221.91 12.096 L1230.09 12.096 L1230.09 65.6895 L1243.46 65.6895 L1243.46 72.576 L1208.62 72.576 L1208.62 65.6895 Z" fill="#000000" fill-rule="evenodd" fill-opacity="1" /><path clip-path="url(#clip3100)" d="M 0 0 M1269.83 17.4837 Q1263.51 17.4837 1260.31 23.7221 Q1257.15 29.92 1257.15 42.3968 Q1257.15 54.833 1260.31 61.0714 Q1263.51 67.2693 1269.83 67.2693 Q1276.19 67.2693 1279.35 61.0714 Q1282.55 54.833 1282.55 42.3968 Q1282.55 29.92 1279.35 23.7221 Q1276.19 17.4837 1269.83 17.4837 M1269.83 11.0023 Q1280 11.0023 1285.34 19.0636 Q1290.73 27.0843 1290.73 42.3968 Q1290.73 57.6687 1285.34 65.73 Q1280 73.7508 1269.83 73.7508 Q1259.66 73.7508 1254.27 65.73 Q1248.93 57.6687 1248.93 42.3968 Q1248.93 27.0843 1254.27 19.0636 Q1259.66 11.0023 1269.83 11.0023 Z" fill="#000000" fill-rule="evenodd" fill-opacity="1" /><path clip-path="url(#clip3100)" d="M 0 0 M1321.15 46.5287 L1342.99 46.5287 L1342.99 53.1722 L1321.15 53.1722 L1321.15 46.5287 Z" fill="#000000" fill-rule="evenodd" fill-opacity="1" /><path clip-path="url(#clip3100)" d="M 0 0 M1397.72 20.1573 L1386.62 50.2555 L1408.86 50.2555 L1397.72 20.1573 M1393.1 12.096 L1402.38 12.096 L1425.43 72.576 L1416.92 72.576 L1411.41 57.061 L1384.15 57.061 L1378.64 72.576 L1370.01 72.576 L1393.1 12.096 Z" fill="#000000" fill-rule="evenodd" fill-opacity="1" /><path clip-path="url(#clip3100)" d="M 0 0 M1463.1 49.3643 Q1463.1 41.2625 1459.74 36.8065 Q1456.41 32.3505 1450.38 32.3505 Q1444.38 32.3505 1441.02 36.8065 Q1437.7 41.2625 1437.7 49.3643 Q1437.7 57.4256 1441.02 61.8816 Q1444.38 66.3376 1450.38 66.3376 Q1456.41 66.3376 1459.74 61.8816 Q1463.1 57.4256 1463.1 49.3643 M1470.55 66.9452 Q1470.55 78.5308 1465.41 84.1616 Q1460.26 89.8329 1449.65 89.8329 Q1445.72 89.8329 1442.24 89.2252 Q1438.75 88.6581 1435.47 87.4428 L1435.47 80.1917 Q1438.75 81.9741 1441.95 82.8248 Q1445.15 83.6755 1448.47 83.6755 Q1455.81 83.6755 1459.45 79.8271 Q1463.1 76.0193 1463.1 68.282 L1463.1 64.5957 Q1460.79 68.6061 1457.18 70.5911 Q1453.58 72.576 1448.56 72.576 Q1440.21 72.576 1435.11 66.2161 Q1430 59.8562 1430 49.3643 Q1430 38.832 1435.11 32.472 Q1440.21 26.1121 1448.56 26.1121 Q1453.58 26.1121 1457.18 28.0971 Q1460.79 30.082 1463.1 34.0924 L1463.1 27.2059 L1470.55 27.2059 L1470.55 66.9452 Z" fill="#000000" fill-rule="evenodd" fill-opacity="1" /><path clip-path="url(#clip3100)" d="M 0 0 M1517.18 48.0275 L1517.18 51.6733 L1482.91 51.6733 Q1483.39 59.3701 1487.53 63.421 Q1491.7 67.4314 1499.11 67.4314 Q1503.4 67.4314 1507.42 66.3781 Q1511.47 65.3249 1515.44 63.2184 L1515.44 70.267 Q1511.43 71.9684 1507.21 72.8596 Q1503 73.7508 1498.67 73.7508 Q1487.81 73.7508 1481.45 67.4314 Q1475.13 61.1119 1475.13 50.3365 Q1475.13 39.1965 1481.12 32.6746 Q1487.16 26.1121 1497.37 26.1121 Q1506.52 26.1121 1511.83 32.0264 Q1517.18 37.9003 1517.18 48.0275 M1509.72 45.84 Q1509.64 39.7232 1506.28 36.0774 Q1502.96 32.4315 1497.45 32.4315 Q1491.21 32.4315 1487.44 35.9558 Q1483.72 39.4801 1483.15 45.8805 L1509.72 45.84 Z" fill="#000000" fill-rule="evenodd" fill-opacity="1" /><path clip-path="url(#clip3100)" d="M 0 0 M1562.71 45.1919 L1562.71 72.576 L1555.26 72.576 L1555.26 45.4349 Q1555.26 38.994 1552.74 35.7938 Q1550.23 32.5936 1545.21 32.5936 Q1539.17 32.5936 1535.69 36.4419 Q1532.21 40.2903 1532.21 46.9338 L1532.21 72.576 L1524.71 72.576 L1524.71 27.2059 L1532.21 27.2059 L1532.21 34.2544 Q1534.88 30.163 1538.49 28.1376 Q1542.13 26.1121 1546.87 26.1121 Q1554.69 26.1121 1558.7 30.9732 Q1562.71 35.7938 1562.71 45.1919 Z" fill="#000000" fill-rule="evenodd" fill-opacity="1" /><path clip-path="url(#clip3100)" d="M 0 0 M1577.9 14.324 L1577.9 27.2059 L1593.25 27.2059 L1593.25 32.9987 L1577.9 32.9987 L1577.9 57.6282 Q1577.9 63.1779 1579.4 64.7578 Q1580.94 66.3376 1585.6 66.3376 L1593.25 66.3376 L1593.25 72.576 L1585.6 72.576 Q1576.97 72.576 1573.69 69.3758 Q1570.41 66.1351 1570.41 57.6282 L1570.41 32.9987 L1564.94 32.9987 L1564.94 27.2059 L1570.41 27.2059 L1570.41 14.324 L1577.9 14.324 Z" fill="#000000" fill-rule="evenodd" fill-opacity="1" /><path clip-path="url(#clip3100)" d="M 0 0 M1643.36 72.576 L1620.27 12.096 L1628.82 12.096 L1647.98 63.0159 L1667.18 12.096 L1675.69 12.096 L1652.64 72.576 L1643.36 72.576 Z" fill="#000000" fill-rule="evenodd" fill-opacity="1" /><path clip-path="url(#clip3100)" d="M 0 0 M1715.87 48.0275 L1715.87 51.6733 L1681.6 51.6733 Q1682.09 59.3701 1686.22 63.421 Q1690.39 67.4314 1697.81 67.4314 Q1702.1 67.4314 1706.11 66.3781 Q1710.16 65.3249 1714.13 63.2184 L1714.13 70.267 Q1710.12 71.9684 1705.91 72.8596 Q1701.7 73.7508 1697.36 73.7508 Q1686.51 73.7508 1680.15 67.4314 Q1673.83 61.1119 1673.83 50.3365 Q1673.83 39.1965 1679.82 32.6746 Q1685.86 26.1121 1696.07 26.1121 Q1705.22 26.1121 1710.53 32.0264 Q1715.87 37.9003 1715.87 48.0275 M1708.42 45.84 Q1708.34 39.7232 1704.98 36.0774 Q1701.66 32.4315 1696.15 32.4315 Q1689.91 32.4315 1686.14 35.9558 Q1682.41 39.4801 1681.85 45.8805 L1708.42 45.84 Z" fill="#000000" fill-rule="evenodd" fill-opacity="1" /><path clip-path="url(#clip3100)" d="M 0 0 M1723.69 9.54393 L1731.15 9.54393 L1731.15 72.576 L1723.69 72.576 L1723.69 9.54393 Z" fill="#000000" fill-rule="evenodd" fill-opacity="1" /><path clip-path="url(#clip3100)" d="M 0 0 M1756.55 32.4315 Q1750.55 32.4315 1747.07 37.1306 Q1743.58 41.7891 1743.58 49.9314 Q1743.58 58.0738 1747.03 62.7728 Q1750.51 67.4314 1756.55 67.4314 Q1762.5 67.4314 1765.98 62.7323 Q1769.47 58.0333 1769.47 49.9314 Q1769.47 41.8701 1765.98 37.1711 Q1762.5 32.4315 1756.55 32.4315 M1756.55 26.1121 Q1766.27 26.1121 1771.82 32.4315 Q1777.37 38.7509 1777.37 49.9314 Q1777.37 61.0714 1771.82 67.4314 Q1766.27 73.7508 1756.55 73.7508 Q1746.78 73.7508 1741.23 67.4314 Q1735.72 61.0714 1735.72 49.9314 Q1735.72 38.7509 1741.23 32.4315 Q1746.78 26.1121 1756.55 26.1121 Z" fill="#000000" fill-rule="evenodd" fill-opacity="1" /><path clip-path="url(#clip3100)" d="M 0 0 M1817.84 28.9478 L1817.84 35.9153 Q1814.68 34.1734 1811.48 33.3227 Q1808.32 32.4315 1805.08 32.4315 Q1797.82 32.4315 1793.81 37.0496 Q1789.8 41.6271 1789.8 49.9314 Q1789.8 58.2358 1793.81 62.8538 Q1797.82 67.4314 1805.08 67.4314 Q1808.32 67.4314 1811.48 66.5807 Q1814.68 65.6895 1817.84 63.9476 L1817.84 70.8341 Q1814.72 72.2924 1811.35 73.0216 Q1808.03 73.7508 1804.27 73.7508 Q1794.02 73.7508 1787.98 67.3098 Q1781.95 60.8689 1781.95 49.9314 Q1781.95 38.832 1788.02 32.472 Q1794.14 26.1121 1804.75 26.1121 Q1808.19 26.1121 1811.48 26.8413 Q1814.76 27.5299 1817.84 28.9478 Z" fill="#000000" fill-rule="evenodd" fill-opacity="1" /><path clip-path="url(#clip3100)" d="M 0 0 M1825.65 27.2059 L1833.11 27.2059 L1833.11 72.576 L1825.65 72.576 L1825.65 27.2059 M1825.65 9.54393 L1833.11 9.54393 L1833.11 18.9825 L1825.65 18.9825 L1825.65 9.54393 Z" fill="#000000" fill-rule="evenodd" fill-opacity="1" /><path clip-path="url(#clip3100)" d="M 0 0 M1848.3 14.324 L1848.3 27.2059 L1863.65 27.2059 L1863.65 32.9987 L1848.3 32.9987 L1848.3 57.6282 Q1848.3 63.1779 1849.8 64.7578 Q1851.34 66.3376 1856 66.3376 L1863.65 66.3376 L1863.65 72.576 L1856 72.576 Q1847.37 72.576 1844.09 69.3758 Q1840.8 66.1351 1840.8 57.6282 L1840.8 32.9987 L1835.34 32.9987 L1835.34 27.2059 L1840.8 27.2059 L1840.8 14.324 L1848.3 14.324 Z" fill="#000000" fill-rule="evenodd" fill-opacity="1" /><path clip-path="url(#clip3100)" d="M 0 0 M1890.35 76.7889 Q1887.19 84.8907 1884.19 87.3618 Q1881.19 89.8329 1876.17 89.8329 L1870.21 89.8329 L1870.21 83.5945 L1874.59 83.5945 Q1877.67 83.5945 1879.37 82.1361 Q1881.07 80.6778 1883.14 75.2496 L1884.47 71.8468 L1866.12 27.2059 L1874.02 27.2059 L1888.2 62.6918 L1902.38 27.2059 L1910.28 27.2059 L1890.35 76.7889 Z" fill="#000000" fill-rule="evenodd" fill-opacity="1" /><path clip-path="url(#clip3100)" d="M 0 0 M1320.06 2298.26 L1360.26 2298.26 L1360.26 2303.67 L1343.39 2303.67 L1343.39 2345.78 L1336.93 2345.78 L1336.93 2303.67 L1320.06 2303.67 L1320.06 2298.26 Z" fill="#000000" fill-rule="evenodd" fill-opacity="1" /><path clip-path="url(#clip3100)" d="M 0 0 M1364.4 2310.14 L1370.26 2310.14 L1370.26 2345.78 L1364.4 2345.78 L1364.4 2310.14 M1364.4 2296.26 L1370.26 2296.26 L1370.26 2303.67 L1364.4 2303.67 L1364.4 2296.26 Z" fill="#000000" fill-rule="evenodd" fill-opacity="1" /><path clip-path="url(#clip3100)" d="M 0 0 M1404.15 2316.98 Q1406.35 2313.03 1409.41 2311.15 Q1412.46 2309.28 1416.6 2309.28 Q1422.17 2309.28 1425.19 2313.19 Q1428.22 2317.07 1428.22 2324.27 L1428.22 2345.78 L1422.33 2345.78 L1422.33 2324.46 Q1422.33 2319.33 1420.51 2316.85 Q1418.7 2314.37 1414.98 2314.37 Q1410.42 2314.37 1407.78 2317.39 Q1405.14 2320.42 1405.14 2325.64 L1405.14 2345.78 L1399.25 2345.78 L1399.25 2324.46 Q1399.25 2319.3 1397.44 2316.85 Q1395.62 2314.37 1391.84 2314.37 Q1387.35 2314.37 1384.71 2317.42 Q1382.06 2320.45 1382.06 2325.64 L1382.06 2345.78 L1376.18 2345.78 L1376.18 2310.14 L1382.06 2310.14 L1382.06 2315.67 Q1384.07 2312.4 1386.87 2310.84 Q1389.67 2309.28 1393.52 2309.28 Q1397.41 2309.28 1400.11 2311.25 Q1402.85 2313.22 1404.15 2316.98 Z" fill="#000000" fill-rule="evenodd" fill-opacity="1" /><path clip-path="url(#clip3100)" d="M 0 0 M1464.85 2326.5 L1464.85 2329.36 L1437.92 2329.36 Q1438.31 2335.41 1441.55 2338.59 Q1444.83 2341.74 1450.65 2341.74 Q1454.03 2341.74 1457.18 2340.91 Q1460.36 2340.09 1463.48 2338.43 L1463.48 2343.97 Q1460.33 2345.31 1457.02 2346.01 Q1453.71 2346.71 1450.3 2346.71 Q1441.77 2346.71 1436.78 2341.74 Q1431.81 2336.78 1431.81 2328.31 Q1431.81 2319.56 1436.52 2314.43 Q1441.27 2309.28 1449.29 2309.28 Q1456.48 2309.28 1460.65 2313.92 Q1464.85 2318.54 1464.85 2326.5 M1458.99 2324.78 Q1458.93 2319.97 1456.29 2317.11 Q1453.68 2314.24 1449.35 2314.24 Q1444.45 2314.24 1441.49 2317.01 Q1438.56 2319.78 1438.11 2324.81 L1458.99 2324.78 Z" fill="#000000" fill-rule="evenodd" fill-opacity="1" /><path clip-path="url(#clip3100)" d="M 0 0 M1505.78 2296.32 Q1501.52 2303.64 1499.45 2310.8 Q1497.38 2317.97 1497.38 2325.32 Q1497.38 2332.67 1499.45 2339.9 Q1501.55 2347.09 1505.78 2354.38 L1500.69 2354.38 Q1495.92 2346.9 1493.53 2339.67 Q1491.17 2332.45 1491.17 2325.32 Q1491.17 2318.22 1493.53 2311.03 Q1495.88 2303.83 1500.69 2296.32 L1505.78 2296.32 Z" fill="#000000" fill-rule="evenodd" fill-opacity="1" /><path clip-path="url(#clip3100)" d="M 0 0 M1534.65 2311.19 L1534.65 2316.72 Q1532.17 2315.45 1529.49 2314.81 Q1526.82 2314.18 1523.96 2314.18 Q1519.6 2314.18 1517.4 2315.51 Q1515.24 2316.85 1515.24 2319.53 Q1515.24 2321.56 1516.79 2322.74 Q1518.35 2323.89 1523.06 2324.94 L1525.07 2325.38 Q1531.31 2326.72 1533.92 2329.17 Q1536.56 2331.59 1536.56 2335.95 Q1536.56 2340.91 1532.61 2343.81 Q1528.7 2346.71 1521.82 2346.71 Q1518.96 2346.71 1515.84 2346.13 Q1512.75 2345.59 1509.31 2344.48 L1509.31 2338.43 Q1512.56 2340.12 1515.71 2340.98 Q1518.86 2341.81 1521.95 2341.81 Q1526.09 2341.81 1528.32 2340.4 Q1530.54 2338.97 1530.54 2336.39 Q1530.54 2334.01 1528.92 2332.73 Q1527.33 2331.46 1521.89 2330.28 L1519.85 2329.81 Q1514.41 2328.66 1511.99 2326.3 Q1509.57 2323.92 1509.57 2319.78 Q1509.57 2314.75 1513.13 2312.01 Q1516.7 2309.28 1523.26 2309.28 Q1526.5 2309.28 1529.37 2309.75 Q1532.23 2310.23 1534.65 2311.19 Z" fill="#000000" fill-rule="evenodd" fill-opacity="1" /><path clip-path="url(#clip3100)" d="M 0 0 M1541.78 2296.32 L1546.87 2296.32 Q1551.65 2303.83 1554 2311.03 Q1556.39 2318.22 1556.39 2325.32 Q1556.39 2332.45 1554 2339.67 Q1551.65 2346.9 1546.87 2354.38 L1541.78 2354.38 Q1546.01 2347.09 1548.08 2339.9 Q1550.18 2332.67 1550.18 2325.32 Q1550.18 2317.97 1548.08 2310.8 Q1546.01 2303.64 1541.78 2296.32 Z" fill="#000000" fill-rule="evenodd" fill-opacity="1" /><path clip-path="url(#clip3100)" d="M 0 0 M42.7847 1277.13 Q42.7847 1284.13 48.0045 1288.27 Q53.2244 1292.38 62.2319 1292.38 Q71.2075 1292.38 76.4274 1288.27 Q81.6473 1284.13 81.6473 1277.13 Q81.6473 1270.13 76.4274 1266.06 Q71.2075 1261.95 62.2319 1261.95 Q53.2244 1261.95 48.0045 1266.06 Q42.7847 1270.13 42.7847 1277.13 M85.0848 1268.12 L94.3469 1259.66 L94.3469 1267.42 L86.7399 1274.46 Q86.8035 1275.51 86.8354 1276.08 Q86.8672 1276.62 86.8672 1277.13 Q86.8672 1287.16 80.1832 1293.17 Q73.4674 1299.16 62.2319 1299.16 Q50.9646 1299.16 44.2806 1293.17 Q37.5648 1287.16 37.5648 1277.13 Q37.5648 1267.14 44.2806 1261.15 Q50.9646 1255.17 62.2319 1255.17 Q70.5073 1255.17 76.3956 1258.51 Q82.2839 1261.82 85.0848 1268.12 Z" fill="#000000" fill-rule="evenodd" fill-opacity="1" /><path clip-path="url(#clip3100)" d="M 0 0 M36.419 1274.46 L36.419 1268.6 L43.835 1268.6 L43.835 1274.46 L36.419 1274.46 M49.4368 1271.47 L49.4368 1271.47 Z" fill="#000000" fill-rule="evenodd" fill-opacity="1" /><path clip-path="url(#clip3100)" d="M 0 0 M82.3157 1260.07 L82.3157 1246.58 L85.9442 1246.58 L85.9442 1265.61 L82.443 1265.61 Q81.4563 1264.53 79.6739 1262.52 Q69.9662 1251.57 66.9744 1251.57 Q64.8737 1251.57 63.6005 1253.23 Q62.2956 1254.88 62.2956 1257.59 Q62.2956 1259.24 62.8685 1261.19 Q63.4096 1263.13 64.5236 1265.42 L60.6086 1265.42 Q59.7174 1262.97 59.2718 1260.87 Q58.8262 1258.74 58.8262 1256.92 Q58.8262 1252.31 60.9269 1249.54 Q63.0276 1246.77 66.4651 1246.77 Q70.8893 1246.77 79.9286 1257.3 Q81.4563 1259.09 82.3157 1260.07 Z" fill="#000000" fill-rule="evenodd" fill-opacity="1" /><path clip-path="url(#clip3100)" d="M 0 0 M36.4826 1205.65 Q43.8032 1209.91 50.9646 1211.98 Q58.126 1214.05 65.4784 1214.05 Q72.8308 1214.05 80.0559 1211.98 Q87.2491 1209.88 94.5379 1205.65 L94.5379 1210.74 Q87.0582 1215.51 79.8331 1217.9 Q72.608 1220.25 65.4784 1220.25 Q58.3806 1220.25 51.1874 1217.9 Q43.9942 1215.54 36.4826 1210.74 L36.4826 1205.65 Z" fill="#000000" fill-rule="evenodd" fill-opacity="1" /><path clip-path="url(#clip3100)" d="M 0 0 M55.7707 1178.85 Q55.1978 1179.83 54.9432 1181.01 Q54.6567 1182.16 54.6567 1183.56 Q54.6567 1188.52 57.9032 1191.19 Q61.1179 1193.84 67.1653 1193.84 L85.9442 1193.84 L85.9442 1199.72 L50.2962 1199.72 L50.2962 1193.84 L55.8344 1193.84 Q52.5879 1191.99 51.0283 1189.03 Q49.4368 1186.07 49.4368 1181.84 Q49.4368 1181.23 49.5323 1180.5 Q49.596 1179.77 49.7551 1178.88 L55.7707 1178.85 Z" fill="#000000" fill-rule="evenodd" fill-opacity="1" /><path clip-path="url(#clip3100)" d="M 0 0 M68.0247 1156.5 Q68.0247 1163.6 69.6479 1166.34 Q71.2712 1169.07 75.1861 1169.07 Q78.3053 1169.07 80.1514 1167.04 Q81.9656 1164.97 81.9656 1161.44 Q81.9656 1156.57 78.5281 1153.64 Q75.0588 1150.68 69.3297 1150.68 L68.0247 1150.68 L68.0247 1156.5 M65.6057 1144.82 L85.9442 1144.82 L85.9442 1150.68 L80.5333 1150.68 Q83.7798 1152.68 85.3394 1155.67 Q86.8672 1158.67 86.8672 1162.99 Q86.8672 1168.47 83.8116 1171.72 Q80.7243 1174.93 75.5681 1174.93 Q69.5525 1174.93 66.4969 1170.92 Q63.4414 1166.88 63.4414 1158.89 L63.4414 1150.68 L62.8685 1150.68 Q58.8262 1150.68 56.6301 1153.35 Q54.4021 1155.99 54.4021 1160.8 Q54.4021 1163.85 55.1341 1166.75 Q55.8662 1169.65 57.3303 1172.32 L51.9195 1172.32 Q50.6781 1169.11 50.0734 1166.08 Q49.4368 1163.06 49.4368 1160.19 Q49.4368 1152.46 53.4472 1148.64 Q57.4576 1144.82 65.6057 1144.82 Z" fill="#000000" fill-rule="evenodd" fill-opacity="1" /><path clip-path="url(#clip3100)" d="M 0 0 M55.7071 1115.22 L36.419 1115.22 L36.419 1109.36 L85.9442 1109.36 L85.9442 1115.22 L80.597 1115.22 Q83.7798 1117.07 85.3394 1119.9 Q86.8672 1122.7 86.8672 1126.65 Q86.8672 1133.11 81.711 1137.18 Q76.5547 1141.22 68.152 1141.22 Q59.7493 1141.22 54.5931 1137.18 Q49.4368 1133.11 49.4368 1126.65 Q49.4368 1122.7 50.9964 1119.9 Q52.5242 1117.07 55.7071 1115.22 M68.152 1135.18 Q74.6132 1135.18 78.3053 1132.53 Q81.9656 1129.86 81.9656 1125.21 Q81.9656 1120.57 78.3053 1117.89 Q74.6132 1115.22 68.152 1115.22 Q61.6908 1115.22 58.0305 1117.89 Q54.3384 1120.57 54.3384 1125.21 Q54.3384 1129.86 58.0305 1132.53 Q61.6908 1135.18 68.152 1135.18 Z" fill="#000000" fill-rule="evenodd" fill-opacity="1" /><path clip-path="url(#clip3100)" d="M 0 0 M38.4242 1092.81 L38.4242 1087.4 L91.9916 1103.95 L91.9916 1109.36 L38.4242 1092.81 Z" fill="#000000" fill-rule="evenodd" fill-opacity="1" /><path clip-path="url(#clip3100)" d="M 0 0 M51.3465 1058.53 L56.8847 1058.53 Q55.6116 1061.02 54.975 1063.69 Q54.3384 1066.36 54.3384 1069.23 Q54.3384 1073.59 55.6752 1075.78 Q57.012 1077.95 59.6856 1077.95 Q61.7226 1077.95 62.9003 1076.39 Q64.0461 1074.83 65.0965 1070.12 L65.5421 1068.11 Q66.8789 1061.88 69.3297 1059.27 Q71.7486 1056.62 76.1091 1056.62 Q81.0744 1056.62 83.9708 1060.57 Q86.8672 1064.49 86.8672 1071.36 Q86.8672 1074.23 86.2943 1077.34 Q85.7532 1080.43 84.6392 1083.87 L78.5918 1083.87 Q80.2787 1080.62 81.138 1077.47 Q81.9656 1074.32 81.9656 1071.23 Q81.9656 1067.1 80.5651 1064.87 Q79.1329 1062.64 76.5547 1062.64 Q74.1676 1062.64 72.8945 1064.26 Q71.6213 1065.85 70.4437 1071.3 L69.9662 1073.33 Q68.8204 1078.78 66.4651 1081.2 Q64.078 1083.61 59.9402 1083.61 Q54.9113 1083.61 52.1741 1080.05 Q49.4368 1076.48 49.4368 1069.93 Q49.4368 1066.68 49.9143 1063.82 Q50.3917 1060.95 51.3465 1058.53 Z" fill="#000000" fill-rule="evenodd" fill-opacity="1" /><path clip-path="url(#clip3100)" d="M 0 0 M36.4826 1051.4 L36.4826 1046.31 Q43.9942 1041.54 51.1874 1039.18 Q58.3806 1036.79 65.4784 1036.79 Q72.608 1036.79 79.8331 1039.18 Q87.0582 1041.54 94.5379 1046.31 L94.5379 1051.4 Q87.2491 1047.17 80.0559 1045.1 Q72.8308 1043 65.4784 1043 Q58.126 1043 50.9646 1045.1 Q43.8032 1047.17 36.4826 1051.4 Z" fill="#000000" fill-rule="evenodd" fill-opacity="1" /><polyline clip-path="url(#clip3102)" style="stroke:#009af9; stroke-width:16; stroke-opacity:1; fill:none" points="
  307.833,1565.88 330.441,1889.94 353.049,1829.29 375.657,1808.68 398.265,1779.99 420.873,1741.77 443.481,1698.33 466.088,1652.61 488.696,1608.44 511.304,1566.99 
  533.912,1530.95 556.52,1500.72 579.128,1476.92 601.736,1459 624.343,1446.69 646.951,1439.24 669.559,1436.07 692.167,1436.53 714.775,1439.89 737.383,1445.81 
  759.99,1453.41 782.598,1462.75 805.206,1472.76 827.814,1483.99 850.422,1495.05 873.03,1507.12 895.638,1518.29 918.245,1530.55 940.853,1541.26 963.461,1553.42 
  986.069,1563.36 1008.68,1575.32 1031.28,1584.1 1053.89,1568.49 1076.5,1593.05 1099.11,1593.27 1121.72,1593.28 1144.32,1592.63 1166.93,1591.89 1189.54,1590.59 
  1212.15,1589.25 1234.76,1587.49 1257.36,1585.72 1279.97,1583.67 1302.58,1581.65 1325.19,1579.47 1347.79,1577.34 1370.4,1575.16 1393.01,1573.06 1415.62,1570.99 
  1438.23,1569.03 1460.83,1567.15 1483.44,1565.4 1506.05,1563.79 1528.66,1562.32 1551.27,1561.01 1573.87,1559.87 1596.48,1558.89 1619.09,1558.09 1641.7,1557.46 
  1664.3,1557.01 1686.91,1556.73 1709.52,1556.61 1732.13,1556.66 1754.74,1556.85 1777.34,1557.19 1799.95,1557.65 1822.56,1558.23 1845.17,1558.92 1867.77,1559.68 
  1890.38,1560.52 1912.99,1561.4 1935.6,1562.33 1958.21,1563.27 1980.81,1564.22 2003.42,1565.14 2026.03,1566.05 2048.64,1566.9 2071.25,1567.71 2093.85,1568.43 
  2116.46,1569.1 2139.07,1569.65 2161.68,1570.14 2184.28,1570.51 2206.89,1570.81 2229.5,1570.97 2252.11,1571.08 2274.72,1571.05 2297.32,1570.98 2319.93,1570.77 
  2342.54,1570.54 2365.15,1570.18 2387.76,1569.83 2410.36,1569.35 2432.97,1568.93 2455.58,1568.36 2478.19,1567.91 2500.79,1567.31 2523.4,1566.88 2546.01,1566.27 
  2568.62,1565.88 
  "/>
<polyline clip-path="url(#clip3102)" style="stroke:#e26f46; stroke-width:16; stroke-opacity:1; fill:none" points="
  307.833,1565.88 330.441,1171.92 353.049,1952.03 375.657,2138.02 398.265,2146.22 420.873,2085.42 443.481,1997.99 466.088,1895.58 488.696,1785.52 511.304,1677.79 
  533.912,1578.24 556.52,1490.16 579.128,1415.35 601.736,1354.24 624.343,1306.46 646.951,1271.07 669.559,1247.29 692.167,1233.24 714.775,1228.69 737.383,1230.98 
  759.99,1241.21 782.598,1255.79 805.206,1277.64 827.814,1301.86 850.422,1333.68 873.03,1366.23 895.638,1407.8 918.245,1448.47 940.853,1500.81 963.461,1550.2 
  986.069,1615.31 1008.68,1674.4 1031.28,1753.3 1053.89,1588.16 1076.5,1755.55 1099.11,1734.18 1121.72,1710.83 1144.32,1692.51 1166.93,1673.23 1189.54,1657.74 
  1212.15,1642.21 1234.76,1629.54 1257.36,1617.33 1279.97,1607.28 1302.58,1597.91 1325.19,1590.2 1347.79,1583.2 1370.4,1577.48 1393.01,1572.44 1415.62,1568.39 
  1438.23,1564.93 1460.83,1562.24 1483.44,1560.04 1506.05,1558.43 1528.66,1557.22 1551.27,1556.45 1573.87,1556 1596.48,1555.87 1619.09,1555.99 1641.7,1556.33 
  1664.3,1556.86 1686.91,1557.53 1709.52,1558.34 1732.13,1559.23 1754.74,1560.2 1777.34,1561.22 1799.95,1562.28 1822.56,1563.33 1845.17,1564.39 1867.77,1565.41 
  1890.38,1566.4 1912.99,1567.32 1935.6,1568.18 1958.21,1568.93 1980.81,1569.61 2003.42,1570.14 2026.03,1570.56 2048.64,1570.82 2071.25,1570.96 2093.85,1570.91 
  2116.46,1570.73 2139.07,1570.35 2161.68,1569.84 2184.28,1569.14 2206.89,1568.32 2229.5,1567.33 2252.11,1566.27 2274.72,1565.08 2297.32,1563.86 2319.93,1562.58 
  2342.54,1561.37 2365.15,1560.19 2387.76,1559.2 2410.36,1558.35 2432.97,1557.87 2455.58,1557.62 2478.19,1558 2500.79,1558.7 2523.4,1560.38 2546.01,1562.38 
  2568.62,1565.88 
  "/>
<polyline clip-path="url(#clip3102)" style="stroke:#3da44d; stroke-width:16; stroke-opacity:1; fill:none" points="
  307.833,1565.88 330.441,189.727 353.049,558.102 375.657,875.463 398.265,1118.81 420.873,1331.91 443.481,1490.6 466.088,1615.06 488.696,1709.58 511.304,1782.28 
  533.912,1835.64 556.52,1873.43 579.128,1898.3 601.736,1912.89 624.343,1919.07 646.951,1918.5 669.559,1912.45 692.167,1901.79 714.775,1887.64 737.383,1870.04 
  759.99,1850.38 782.598,1827.64 805.206,1803.96 827.814,1776.79 850.422,1749.63 873.03,1717.7 895.638,1686.8 918.245,1648.72 940.853,1613.23 963.461,1566.6 
  986.069,1525.43 1008.68,1467.14 1031.28,1420.06 1053.89,1547.03 1076.5,1403.79 1099.11,1429.07 1121.72,1447.66 1144.32,1467.86 1166.93,1483.63 1189.54,1499.38 
  1212.15,1511.96 1234.76,1523.67 1257.36,1533.07 1279.97,1541.29 1302.58,1547.8 1325.19,1553.14 1347.79,1557.2 1370.4,1560.25 1393.01,1562.37 1415.62,1563.7 
  1438.23,1564.38 1460.83,1564.51 1483.44,1564.2 1506.05,1563.55 1528.66,1562.65 1551.27,1561.58 1573.87,1560.41 1596.48,1559.21 1619.09,1558.02 1641.7,1556.91 
  1664.3,1555.89 1686.91,1555.01 1709.52,1554.29 1732.13,1553.74 1754.74,1553.38 1777.34,1553.21 1799.95,1553.23 1822.56,1553.44 1845.17,1553.83 1867.77,1554.39 
  1890.38,1555.11 1912.99,1555.96 1935.6,1556.95 1958.21,1558.04 1980.81,1559.22 2003.42,1560.47 2026.03,1561.79 2048.64,1563.14 2071.25,1564.52 2093.85,1565.91 
  2116.46,1567.31 2139.07,1568.69 2161.68,1570.04 2184.28,1571.35 2206.89,1572.62 2229.5,1573.81 2252.11,1574.94 2274.72,1575.96 2297.32,1576.88 2319.93,1577.64 
  2342.54,1578.26 2365.15,1578.68 2387.76,1578.87 2410.36,1578.8 2432.97,1578.39 2455.58,1577.65 2478.19,1576.42 2500.79,1574.8 2523.4,1572.46 2546.01,1569.7 
  2568.62,1565.88 
  "/>
<polyline clip-path="url(#clip3102)" style="stroke:#c271d2; stroke-width:16; stroke-opacity:1; fill:none" points="
  307.833,1565.88 330.441,1487.66 353.049,1409.41 375.657,1375.45 398.265,1372.14 420.873,1388.6 443.481,1419.41 466.088,1459.12 488.696,1502.27 511.304,1546.02 
  533.912,1587.22 556.52,1624.72 579.128,1657.64 601.736,1685.71 624.343,1708.59 646.951,1726.36 669.559,1739.03 692.167,1747.15 714.775,1750.43 737.383,1750.22 
  759.99,1745.08 782.598,1738.02 805.206,1725.18 827.814,1712.59 850.422,1692.16 873.03,1675.01 895.638,1646.25 918.245,1625.29 940.853,1586.35 963.461,1562.33 
  986.069,1510.12 1008.68,1484.12 1031.28,1416 1053.89,1549.79 1076.5,1435.73 1099.11,1448.25 1121.72,1470.1 1144.32,1481.79 1166.93,1498.6 1189.54,1508.92 
  1212.15,1521.42 1234.76,1529.8 1257.36,1538.71 1279.97,1544.96 1302.58,1550.93 1325.19,1555.16 1347.79,1558.78 1370.4,1561.23 1393.01,1563.03 1415.62,1564.05 
  1438.23,1564.52 1460.83,1564.5 1483.44,1564.08 1506.05,1563.37 1528.66,1562.43 1551.27,1561.37 1573.87,1560.22 1596.48,1559.07 1619.09,1557.96 1641.7,1556.93 
  1664.3,1556.02 1686.91,1555.25 1709.52,1554.65 1732.13,1554.22 1754.74,1553.97 1777.34,1553.91 1799.95,1554.02 1822.56,1554.31 1845.17,1554.75 1867.77,1555.35 
  1890.38,1556.08 1912.99,1556.93 1935.6,1557.88 1958.21,1558.92 1980.81,1560.03 2003.42,1561.19 2026.03,1562.39 2048.64,1563.61 2071.25,1564.84 2093.85,1566.08 
  2116.46,1567.29 2139.07,1568.49 2161.68,1569.64 2184.28,1570.76 2206.89,1571.8 2229.5,1572.79 2252.11,1573.69 2274.72,1574.51 2297.32,1575.2 2319.93,1575.8 
  2342.54,1576.22 2365.15,1576.53 2387.76,1576.58 2410.36,1576.49 2432.97,1576.06 2455.58,1575.45 2478.19,1574.36 2500.79,1573.07 2523.4,1571.11 2546.01,1568.96 
  2568.62,1565.88 
  "/>
<polyline clip-path="url(#clip3102)" style="stroke:#ac8d18; stroke-width:16; stroke-opacity:1; fill:none" points="
  307.833,1565.88 330.441,1378.83 353.049,1433.34 375.657,1474.54 398.265,1503.73 420.873,1528 443.481,1548.01 466.088,1565.21 488.696,1579.38 511.304,1590.87 
  533.912,1599.45 556.52,1605.48 579.128,1609.21 601.736,1611.06 624.343,1611.4 646.951,1610.57 669.559,1608.93 692.167,1606.69 714.775,1604.15 737.383,1601.37 
  759.99,1598.58 782.598,1595.68 805.206,1592.9 827.814,1589.97 850.422,1587.19 873.03,1584.05 895.638,1581.04 918.245,1577.31 940.853,1573.77 963.461,1568.94 
  986.069,1564.54 1008.68,1558.01 1031.28,1552.6 1053.89,1563.87 1076.5,1550.56 1099.11,1555.39 1121.72,1558.77 1144.32,1562.28 1166.93,1564.8 1189.54,1567.12 
  1212.15,1568.75 1234.76,1570.02 1257.36,1570.79 1279.97,1571.18 1302.58,1571.22 1325.19,1570.93 1347.79,1570.4 1370.4,1569.62 1393.01,1568.69 1415.62,1567.61 
  1438.23,1566.45 1460.83,1565.23 1483.44,1564 1506.05,1562.78 1528.66,1561.61 1551.27,1560.5 1573.87,1559.49 1596.48,1558.59 1619.09,1557.81 1641.7,1557.17 
  1664.3,1556.68 1686.91,1556.34 1709.52,1556.15 1732.13,1556.11 1754.74,1556.23 1777.34,1556.48 1799.95,1556.87 1822.56,1557.38 1845.17,1558.01 1867.77,1558.73 
  1890.38,1559.53 1912.99,1560.39 1935.6,1561.3 1958.21,1562.24 1980.81,1563.2 2003.42,1564.15 2026.03,1565.08 2048.64,1565.98 2071.25,1566.82 2093.85,1567.61 
  2116.46,1568.32 2139.07,1568.96 2161.68,1569.5 2184.28,1569.97 2206.89,1570.31 2229.5,1570.6 2252.11,1570.74 2274.72,1570.85 2297.32,1570.8 2319.93,1570.74 
  2342.54,1570.5 2365.15,1570.3 2387.76,1569.91 2410.36,1569.6 2432.97,1569.09 2455.58,1568.7 2478.19,1568.08 2500.79,1567.66 2523.4,1566.97 2546.01,1566.53 
  2568.62,1565.88 
  "/>
<polyline clip-path="url(#clip3102)" style="stroke:#00a9ad; stroke-width:16; stroke-opacity:1; fill:none" points="
  307.833,1565.88 330.441,981.021 353.049,1125.66 375.657,1257.52 398.265,1364.03 420.873,1454.61 443.481,1528.4 466.088,1589.22 488.696,1637.33 511.304,1674.04 
  533.912,1699.98 556.52,1716.84 579.128,1726.03 601.736,1729.16 624.343,1727.5 646.951,1722.33 669.559,1714.56 692.167,1705.1 714.775,1694.45 737.383,1683.18 
  759.99,1671.48 782.598,1659.68 805.206,1647.79 827.814,1635.92 850.422,1623.99 873.03,1611.92 895.638,1599.65 918.245,1586.86 940.853,1573.63 963.461,1559.33 
  986.069,1544.4 1008.68,1527.69 1031.28,1510.67 1053.89,1558.57 1076.5,1503.35 1099.11,1513.2 1121.72,1521.91 1144.32,1530.03 1166.93,1537.19 1189.54,1543.57 
  1212.15,1549.07 1234.76,1553.76 1257.36,1557.64 1279.97,1560.76 1302.58,1563.19 1325.19,1564.96 1347.79,1566.17 1370.4,1566.86 1393.01,1567.11 1415.62,1566.99 
  1438.23,1566.56 1460.83,1565.89 1483.44,1565.04 1506.05,1564.07 1528.66,1563.03 1551.27,1561.97 1573.87,1560.93 1596.48,1559.95 1619.09,1559.05 1641.7,1558.26 
  1664.3,1557.6 1686.91,1557.09 1709.52,1556.74 1732.13,1556.54 1754.74,1556.5 1777.34,1556.61 1799.95,1556.87 1822.56,1557.27 1845.17,1557.8 1867.77,1558.44 
  1890.38,1559.17 1912.99,1559.98 1935.6,1560.86 1958.21,1561.78 1980.81,1562.73 2003.42,1563.69 2026.03,1564.64 2048.64,1565.59 2071.25,1566.48 2093.85,1567.35 
  2116.46,1568.14 2139.07,1568.88 2161.68,1569.52 2184.28,1570.12 2206.89,1570.59 2229.5,1571.01 2252.11,1571.29 2274.72,1571.54 2297.32,1571.62 2319.93,1571.69 
  2342.54,1571.57 2365.15,1571.48 2387.76,1571.16 2410.36,1570.92 2432.97,1570.39 2455.58,1569.99 2478.19,1569.26 2500.79,1568.7 2523.4,1567.74 2546.01,1567.02 
  2568.62,1565.88 
  "/>
<polyline clip-path="url(#clip3102)" style="stroke:#ed5d92; stroke-width:16; stroke-opacity:1; fill:none" points="
  307.833,1565.88 330.441,1285.02 353.049,1357.26 375.657,1425.51 398.265,1482.07 420.873,1527.38 443.481,1561.58 466.088,1587.2 488.696,1605.58 511.304,1618.21 
  533.912,1626.21 556.52,1630.68 579.128,1632.43 601.736,1632.17 624.343,1630.39 646.951,1627.57 669.559,1624 692.167,1619.98 714.775,1615.67 737.383,1611.27 
  759.99,1606.8 782.598,1602.4 805.206,1598.01 827.814,1593.68 850.422,1589.31 873.03,1584.89 895.638,1580.28 918.245,1575.44 940.853,1570.21 963.461,1564.49 
  986.069,1558.2 1008.68,1551.12 1031.28,1543.51 1053.89,1562.77 1076.5,1540.84 1099.11,1546.47 1121.72,1551.44 1144.32,1555.85 1166.93,1559.66 1189.54,1562.87 
  1212.15,1565.51 1234.76,1567.58 1257.36,1569.13 1279.97,1570.18 1302.58,1570.79 1325.19,1570.99 1347.79,1570.83 1370.4,1570.38 1393.01,1569.67 1415.62,1568.76 
  1438.23,1567.7 1460.83,1566.53 1483.44,1565.31 1506.05,1564.06 1528.66,1562.84 1551.27,1561.67 1573.87,1560.58 1596.48,1559.6 1619.09,1558.74 1641.7,1558.02 
  1664.3,1557.45 1686.91,1557.05 1709.52,1556.8 1732.13,1556.72 1754.74,1556.79 1777.34,1557.02 1799.95,1557.38 1822.56,1557.87 1845.17,1558.47 1867.77,1559.17 
  1890.38,1559.95 1912.99,1560.8 1935.6,1561.69 1958.21,1562.62 1980.81,1563.55 2003.42,1564.48 2026.03,1565.39 2048.64,1566.27 2071.25,1567.09 2093.85,1567.86 
  2116.46,1568.55 2139.07,1569.17 2161.68,1569.69 2184.28,1570.14 2206.89,1570.46 2229.5,1570.72 2252.11,1570.84 2274.72,1570.93 2297.32,1570.85 2319.93,1570.77 
  2342.54,1570.51 2365.15,1570.29 2387.76,1569.89 2410.36,1569.56 2432.97,1569.03 2455.58,1568.64 2478.19,1568.02 2500.79,1567.6 2523.4,1566.92 2546.01,1566.51 
  2568.62,1565.88 
  "/>
<polyline clip-path="url(#clip3102)" style="stroke:#c68125; stroke-width:16; stroke-opacity:1; fill:none" points="
  307.833,1565.88 330.441,1603.87 353.049,1579.7 375.657,1560.33 398.265,1550.05 420.873,1543.66 443.481,1540.16 466.088,1538.15 488.696,1537.14 511.304,1536.69 
  533.912,1536.58 556.52,1536.71 579.128,1537.02 601.736,1537.57 624.343,1538.38 646.951,1539.57 669.559,1541.18 692.167,1543.28 714.775,1545.87 737.383,1548.97 
  759.99,1552.51 782.598,1556.42 805.206,1560.62 827.814,1564.97 850.422,1569.34 873.03,1573.59 895.638,1577.56 918.245,1581.15 940.853,1584.07 963.461,1586.48 
  986.069,1587.71 1008.68,1588.5 1031.28,1587.45 1053.89,1567.87 1076.5,1589.22 1099.11,1590.97 1121.72,1592.5 1144.32,1592.99 1166.93,1593.05 1189.54,1592.47 
  1212.15,1591.43 1234.76,1590.01 1257.36,1588.23 1279.97,1586.25 1302.58,1584.03 1325.19,1581.75 1347.79,1579.36 1370.4,1576.99 1393.01,1574.62 1415.62,1572.34 
  1438.23,1570.12 1460.83,1568.05 1483.44,1566.1 1506.05,1564.31 1528.66,1562.67 1551.27,1561.22 1573.87,1559.94 1596.48,1558.84 1619.09,1557.93 1641.7,1557.21 
  1664.3,1556.67 1686.91,1556.3 1709.52,1556.12 1732.13,1556.1 1754.74,1556.25 1777.34,1556.54 1799.95,1556.98 1822.56,1557.54 1845.17,1558.22 1867.77,1558.99 
  1890.38,1559.84 1912.99,1560.75 1935.6,1561.7 1958.21,1562.68 1980.81,1563.67 2003.42,1564.65 2026.03,1565.6 2048.64,1566.51 2071.25,1567.36 2093.85,1568.15 
  2116.46,1568.86 2139.07,1569.48 2161.68,1570.01 2184.28,1570.44 2206.89,1570.76 2229.5,1571 2252.11,1571.12 2274.72,1571.16 2297.32,1571.08 2319.93,1570.95 
  2342.54,1570.69 2365.15,1570.42 2387.76,1570.01 2410.36,1569.63 2432.97,1569.11 2455.58,1568.66 2478.19,1568.07 2500.79,1567.58 2523.4,1566.95 2546.01,1566.46 
  2568.62,1565.88 
  "/>
<polyline clip-path="url(#clip3102)" style="stroke:#00a98d; stroke-width:16; stroke-opacity:1; fill:none" points="
  307.833,1565.88 330.441,1544.13 353.049,1556.79 375.657,1565.96 398.265,1574.21 420.873,1579.9 443.481,1582.76 466.088,1583.16 488.696,1581.64 511.304,1578.86 
  533.912,1575.39 556.52,1571.74 579.128,1568.22 601.736,1565.06 624.343,1562.37 646.951,1560.2 669.559,1558.56 692.167,1557.42 714.775,1556.73 737.383,1556.45 
  759.99,1556.5 782.598,1556.86 805.206,1557.43 827.814,1558.2 850.422,1559.09 873.03,1560.09 895.638,1561.12 918.245,1562.18 940.853,1563.19 963.461,1564.16 
  986.069,1565.01 1008.68,1565.77 1031.28,1566.31 1053.89,1565.96 1076.5,1569.15 1099.11,1571.13 1121.72,1572.86 1144.32,1574.22 1166.93,1575.31 1189.54,1576.05 
  1212.15,1576.5 1234.76,1576.65 1257.36,1576.51 1279.97,1576.11 1302.58,1575.45 1325.19,1574.6 1347.79,1573.55 1370.4,1572.35 1393.01,1571.03 1415.62,1569.63 
  1438.23,1568.18 1460.83,1566.72 1483.44,1565.26 1506.05,1563.86 1528.66,1562.53 1551.27,1561.31 1573.87,1560.2 1596.48,1559.24 1619.09,1558.42 1641.7,1557.77 
  1664.3,1557.29 1686.91,1556.97 1709.52,1556.82 1732.13,1556.84 1754.74,1557.01 1777.34,1557.33 1799.95,1557.78 1822.56,1558.35 1845.17,1559.03 1867.77,1559.79 
  1890.38,1560.62 1912.99,1561.5 1935.6,1562.42 1958.21,1563.35 1980.81,1564.29 2003.42,1565.21 2026.03,1566.1 2048.64,1566.94 2071.25,1567.72 2093.85,1568.43 
  2116.46,1569.07 2139.07,1569.62 2161.68,1570.08 2184.28,1570.43 2206.89,1570.7 2229.5,1570.86 2252.11,1570.92 2274.72,1570.89 2297.32,1570.77 2319.93,1570.56 
  2342.54,1570.28 2365.15,1569.94 2387.76,1569.54 2410.36,1569.1 2432.97,1568.62 2455.58,1568.13 2478.19,1567.64 2500.79,1567.14 2523.4,1566.68 2546.01,1566.23 
  2568.62,1565.88 
  "/>
<polyline clip-path="url(#clip3102)" style="stroke:#8e971d; stroke-width:16; stroke-opacity:1; fill:none" points="
  307.833,1565.88 330.441,252.018 353.049,990.102 375.657,1387.54 398.265,1570.36 420.873,1682.74 443.481,1754.07 466.088,1796.25 488.696,1817.77 511.304,1825.16 
  533.912,1823.07 556.52,1815.21 579.128,1803.5 601.736,1789.99 624.343,1775.07 646.951,1760.18 669.559,1744.76 692.167,1730.09 714.775,1714.88 737.383,1700.68 
  759.99,1685.51 782.598,1671.37 805.206,1655.5 827.814,1640.61 850.422,1622.83 873.03,1606.04 895.638,1584.72 918.245,1564.66 940.853,1537.76 963.461,1512.97 
  986.069,1478.12 1008.68,1447.34 1031.28,1402.88 1053.89,1546.69 1076.5,1404.41 1099.11,1425.49 1121.72,1448.9 1144.32,1466.92 1166.93,1485.74 1189.54,1500.53 
  1212.15,1514.98 1234.76,1526.43 1257.36,1536.94 1279.97,1545.2 1302.58,1552.33 1325.19,1557.77 1347.79,1562.12 1370.4,1565.22 1393.01,1567.39 1415.62,1568.67 
  1438.23,1569.24 1460.83,1569.21 1483.44,1568.69 1506.05,1567.81 1528.66,1566.65 1551.27,1565.33 1573.87,1563.9 1596.48,1562.46 1619.09,1561.04 1641.7,1559.71 
  1664.3,1558.5 1686.91,1557.46 1709.52,1556.59 1732.13,1555.93 1754.74,1555.46 1777.34,1555.2 1799.95,1555.14 1822.56,1555.28 1845.17,1555.6 1867.77,1556.09 
  1890.38,1556.73 1912.99,1557.52 1935.6,1558.42 1958.21,1559.42 1980.81,1560.51 2003.42,1561.65 2026.03,1562.85 2048.64,1564.08 2071.25,1565.33 2093.85,1566.57 
  2116.46,1567.81 2139.07,1569.02 2161.68,1570.2 2184.28,1571.33 2206.89,1572.41 2229.5,1573.4 2252.11,1574.34 2274.72,1575.15 2297.32,1575.89 2319.93,1576.46 
  2342.54,1576.93 2365.15,1577.18 2387.76,1577.29 2410.36,1577.11 2432.97,1576.72 2455.58,1575.98 2478.19,1574.92 2500.79,1573.44 2523.4,1571.49 2546.01,1569.07 
  2568.62,1565.88 
  "/>
<polyline clip-path="url(#clip3102)" style="stroke:#00a8cb; stroke-width:16; stroke-opacity:1; fill:none" points="
  307.833,1565.88 330.441,1876.94 353.049,1869.4 375.657,1741.38 398.265,1624.36 420.873,1526.68 443.481,1450.91 466.088,1396.13 488.696,1357.85 511.304,1339.47 
  533.912,1334.28 556.52,1342.54 579.128,1357.18 601.736,1379.7 624.343,1403.31 646.951,1430.99 669.559,1456.09 692.167,1482.91 714.775,1504.85 737.383,1527.37 
  759.99,1543.9 782.598,1560.9 805.206,1571.71 827.814,1583.53 850.422,1589.48 873.03,1597.27 895.638,1599.7 918.245,1604.82 940.853,1605.09 963.461,1608.7 
  986.069,1607.96 1008.68,1610.82 1031.28,1607.42 1053.89,1561.84 1076.5,1588.65 1099.11,1591.4 1121.72,1589.53 1144.32,1590.9 1166.93,1588.98 1189.54,1590.25 
  1212.15,1588.43 1234.76,1589.52 1257.36,1587.81 1279.97,1588.66 1302.58,1587.03 1325.19,1587.6 1347.79,1586.02 1370.4,1586.33 1393.01,1584.8 1415.62,1584.87 
  1438.23,1583.39 1460.83,1583.27 1483.44,1581.86 1506.05,1581.6 1528.66,1580.27 1551.27,1579.93 1573.87,1578.69 1596.48,1578.31 1619.09,1577.19 1641.7,1576.8 
  1664.3,1575.79 1686.91,1575.43 1709.52,1574.54 1732.13,1574.22 1754.74,1573.44 1777.34,1573.17 1799.95,1572.5 1822.56,1572.28 1845.17,1571.72 1867.77,1571.55 
  1890.38,1571.07 1912.99,1570.96 1935.6,1570.57 1958.21,1570.51 1980.81,1570.18 2003.42,1570.17 2026.03,1569.9 2048.64,1569.95 2071.25,1569.71 2093.85,1569.8 
  2116.46,1569.6 2139.07,1569.73 2161.68,1569.54 2184.28,1569.71 2206.89,1569.52 2229.5,1569.72 2252.11,1569.52 2274.72,1569.75 2297.32,1569.52 2319.93,1569.78 
  2342.54,1569.51 2365.15,1569.8 2387.76,1569.47 2410.36,1569.8 2432.97,1569.4 2455.58,1569.76 2478.19,1569.29 2500.79,1569.7 2523.4,1569.14 2546.01,1569.47 
  2568.62,1566.28 
  "/>
<path clip-path="url(#clip3100)" d="
M2732.44 988.312 L3184.76 988.312 L3184.76 262.552 L2732.44 262.552  Z
  " fill="#ffffff" fill-rule="evenodd" fill-opacity="1"/>
<polyline clip-path="url(#clip3100)" style="stroke:#000000; stroke-width:4; stroke-opacity:1; fill:none" points="
  2732.44,988.312 3184.76,988.312 3184.76,262.552 2732.44,262.552 2732.44,988.312 
  "/>
<polyline clip-path="url(#clip3100)" style="stroke:#009af9; stroke-width:16; stroke-opacity:1; fill:none" points="
  2764.44,323.032 2956.44,323.032 
  "/>
<path clip-path="url(#clip3100)" d="M 0 0 M2988.44 299.272 L2994.87 299.272 L2994.87 341.381 L3018.01 341.381 L3018.01 346.792 L2988.44 346.792 L2988.44 299.272 Z" fill="#000000" fill-rule="evenodd" fill-opacity="1" /><path clip-path="url(#clip3100)" d="M 0 0 M3024.15 311.144 L3030.01 311.144 L3030.01 346.792 L3024.15 346.792 L3024.15 311.144 M3024.15 297.267 L3030.01 297.267 L3030.01 304.683 L3024.15 304.683 L3024.15 297.267 Z" fill="#000000" fill-rule="evenodd" fill-opacity="1" /><path clip-path="url(#clip3100)" d="M 0 0 M3054.2 297.267 L3054.2 302.137 L3048.6 302.137 Q3045.45 302.137 3044.21 303.41 Q3043 304.683 3043 307.993 L3043 311.144 L3052.64 311.144 L3052.64 315.696 L3043 315.696 L3043 346.792 L3037.11 346.792 L3037.11 315.696 L3031.51 315.696 L3031.51 311.144 L3037.11 311.144 L3037.11 308.662 Q3037.11 302.71 3039.88 300.004 Q3042.65 297.267 3048.66 297.267 L3054.2 297.267 Z" fill="#000000" fill-rule="evenodd" fill-opacity="1" /><path clip-path="url(#clip3100)" d="M 0 0 M3064.99 301.023 L3064.99 311.144 L3077.05 311.144 L3077.05 315.696 L3064.99 315.696 L3064.99 335.047 Q3064.99 339.408 3066.17 340.649 Q3067.38 341.891 3071.04 341.891 L3077.05 341.891 L3077.05 346.792 L3071.04 346.792 Q3064.26 346.792 3061.68 344.278 Q3059.1 341.731 3059.1 335.047 L3059.1 315.696 L3054.8 315.696 L3054.8 311.144 L3059.1 311.144 L3059.1 301.023 L3064.99 301.023 Z" fill="#000000" fill-rule="evenodd" fill-opacity="1" /><path clip-path="url(#clip3100)" d="M 0 0 M3105.86 341.381 L3116.36 341.381 L3116.36 305.129 L3104.93 307.42 L3104.93 301.564 L3116.3 299.272 L3122.73 299.272 L3122.73 341.381 L3133.23 341.381 L3133.23 346.792 L3105.86 346.792 L3105.86 341.381 Z" fill="#000000" fill-rule="evenodd" fill-opacity="1" /><polyline clip-path="url(#clip3100)" style="stroke:#e26f46; stroke-width:16; stroke-opacity:1; fill:none" points="
  2764.44,383.512 2956.44,383.512 
  "/>
<path clip-path="url(#clip3100)" d="M 0 0 M2988.44 359.752 L2994.87 359.752 L2994.87 401.861 L3018.01 401.861 L3018.01 407.272 L2988.44 407.272 L2988.44 359.752 Z" fill="#000000" fill-rule="evenodd" fill-opacity="1" /><path clip-path="url(#clip3100)" d="M 0 0 M3024.15 371.624 L3030.01 371.624 L3030.01 407.272 L3024.15 407.272 L3024.15 371.624 M3024.15 357.747 L3030.01 357.747 L3030.01 365.163 L3024.15 365.163 L3024.15 357.747 Z" fill="#000000" fill-rule="evenodd" fill-opacity="1" /><path clip-path="url(#clip3100)" d="M 0 0 M3054.2 357.747 L3054.2 362.617 L3048.6 362.617 Q3045.45 362.617 3044.21 363.89 Q3043 365.163 3043 368.473 L3043 371.624 L3052.64 371.624 L3052.64 376.176 L3043 376.176 L3043 407.272 L3037.11 407.272 L3037.11 376.176 L3031.51 376.176 L3031.51 371.624 L3037.11 371.624 L3037.11 369.142 Q3037.11 363.19 3039.88 360.484 Q3042.65 357.747 3048.66 357.747 L3054.2 357.747 Z" fill="#000000" fill-rule="evenodd" fill-opacity="1" /><path clip-path="url(#clip3100)" d="M 0 0 M3064.99 361.503 L3064.99 371.624 L3077.05 371.624 L3077.05 376.176 L3064.99 376.176 L3064.99 395.527 Q3064.99 399.888 3066.17 401.129 Q3067.38 402.371 3071.04 402.371 L3077.05 402.371 L3077.05 407.272 L3071.04 407.272 Q3064.26 407.272 3061.68 404.758 Q3059.1 402.211 3059.1 395.527 L3059.1 376.176 L3054.8 376.176 L3054.8 371.624 L3059.1 371.624 L3059.1 361.503 L3064.99 361.503 Z" fill="#000000" fill-rule="evenodd" fill-opacity="1" /><path clip-path="url(#clip3100)" d="M 0 0 M3110.28 401.861 L3132.72 401.861 L3132.72 407.272 L3102.55 407.272 L3102.55 401.861 Q3106.21 398.074 3112.51 391.708 Q3118.84 385.31 3120.47 383.464 Q3123.55 379.995 3124.76 377.608 Q3126 375.189 3126 372.865 Q3126 369.078 3123.33 366.691 Q3120.69 364.304 3116.42 364.304 Q3113.4 364.304 3110.03 365.354 Q3106.68 366.404 3102.87 368.537 L3102.87 362.044 Q3106.75 360.484 3110.12 359.688 Q3113.5 358.893 3116.3 358.893 Q3123.68 358.893 3128.07 362.585 Q3132.47 366.277 3132.47 372.452 Q3132.47 375.38 3131.35 378.022 Q3130.27 380.632 3127.37 384.196 Q3126.58 385.119 3122.31 389.544 Q3118.05 393.936 3110.28 401.861 Z" fill="#000000" fill-rule="evenodd" fill-opacity="1" /><polyline clip-path="url(#clip3100)" style="stroke:#3da44d; stroke-width:16; stroke-opacity:1; fill:none" points="
  2764.44,443.992 2956.44,443.992 
  "/>
<path clip-path="url(#clip3100)" d="M 0 0 M2988.44 420.232 L2994.87 420.232 L2994.87 462.341 L3018.01 462.341 L3018.01 467.752 L2988.44 467.752 L2988.44 420.232 Z" fill="#000000" fill-rule="evenodd" fill-opacity="1" /><path clip-path="url(#clip3100)" d="M 0 0 M3024.15 432.104 L3030.01 432.104 L3030.01 467.752 L3024.15 467.752 L3024.15 432.104 M3024.15 418.227 L3030.01 418.227 L3030.01 425.643 L3024.15 425.643 L3024.15 418.227 Z" fill="#000000" fill-rule="evenodd" fill-opacity="1" /><path clip-path="url(#clip3100)" d="M 0 0 M3054.2 418.227 L3054.2 423.097 L3048.6 423.097 Q3045.45 423.097 3044.21 424.37 Q3043 425.643 3043 428.953 L3043 432.104 L3052.64 432.104 L3052.64 436.656 L3043 436.656 L3043 467.752 L3037.11 467.752 L3037.11 436.656 L3031.51 436.656 L3031.51 432.104 L3037.11 432.104 L3037.11 429.622 Q3037.11 423.67 3039.88 420.964 Q3042.65 418.227 3048.66 418.227 L3054.2 418.227 Z" fill="#000000" fill-rule="evenodd" fill-opacity="1" /><path clip-path="url(#clip3100)" d="M 0 0 M3064.99 421.983 L3064.99 432.104 L3077.05 432.104 L3077.05 436.656 L3064.99 436.656 L3064.99 456.007 Q3064.99 460.368 3066.17 461.609 Q3067.38 462.851 3071.04 462.851 L3077.05 462.851 L3077.05 467.752 L3071.04 467.752 Q3064.26 467.752 3061.68 465.238 Q3059.1 462.691 3059.1 456.007 L3059.1 436.656 L3054.8 436.656 L3054.8 432.104 L3059.1 432.104 L3059.1 421.983 L3064.99 421.983 Z" fill="#000000" fill-rule="evenodd" fill-opacity="1" /><path clip-path="url(#clip3100)" d="M 0 0 M3124.22 442.13 Q3128.84 443.117 3131.42 446.236 Q3134.03 449.355 3134.03 453.939 Q3134.03 460.973 3129.19 464.824 Q3124.35 468.675 3115.44 468.675 Q3112.45 468.675 3109.26 468.07 Q3106.11 467.497 3102.74 466.32 L3102.74 460.113 Q3105.41 461.673 3108.59 462.469 Q3111.78 463.264 3115.25 463.264 Q3121.29 463.264 3124.45 460.877 Q3127.63 458.49 3127.63 453.939 Q3127.63 449.737 3124.67 447.382 Q3121.74 444.995 3116.49 444.995 L3110.95 444.995 L3110.95 439.711 L3116.74 439.711 Q3121.49 439.711 3124 437.833 Q3126.51 435.924 3126.51 432.359 Q3126.51 428.699 3123.9 426.757 Q3121.33 424.784 3116.49 424.784 Q3113.85 424.784 3110.82 425.357 Q3107.8 425.929 3104.17 427.139 L3104.17 421.41 Q3107.83 420.391 3111.01 419.882 Q3114.23 419.373 3117.06 419.373 Q3124.38 419.373 3128.65 422.715 Q3132.91 426.025 3132.91 431.69 Q3132.91 435.637 3130.65 438.374 Q3128.39 441.08 3124.22 442.13 Z" fill="#000000" fill-rule="evenodd" fill-opacity="1" /><polyline clip-path="url(#clip3100)" style="stroke:#c271d2; stroke-width:16; stroke-opacity:1; fill:none" points="
  2764.44,504.472 2956.44,504.472 
  "/>
<path clip-path="url(#clip3100)" d="M 0 0 M2988.44 480.712 L2994.87 480.712 L2994.87 522.821 L3018.01 522.821 L3018.01 528.232 L2988.44 528.232 L2988.44 480.712 Z" fill="#000000" fill-rule="evenodd" fill-opacity="1" /><path clip-path="url(#clip3100)" d="M 0 0 M3024.15 492.584 L3030.01 492.584 L3030.01 528.232 L3024.15 528.232 L3024.15 492.584 M3024.15 478.707 L3030.01 478.707 L3030.01 486.123 L3024.15 486.123 L3024.15 478.707 Z" fill="#000000" fill-rule="evenodd" fill-opacity="1" /><path clip-path="url(#clip3100)" d="M 0 0 M3054.2 478.707 L3054.2 483.577 L3048.6 483.577 Q3045.45 483.577 3044.21 484.85 Q3043 486.123 3043 489.433 L3043 492.584 L3052.64 492.584 L3052.64 497.136 L3043 497.136 L3043 528.232 L3037.11 528.232 L3037.11 497.136 L3031.51 497.136 L3031.51 492.584 L3037.11 492.584 L3037.11 490.102 Q3037.11 484.15 3039.88 481.444 Q3042.65 478.707 3048.66 478.707 L3054.2 478.707 Z" fill="#000000" fill-rule="evenodd" fill-opacity="1" /><path clip-path="url(#clip3100)" d="M 0 0 M3064.99 482.463 L3064.99 492.584 L3077.05 492.584 L3077.05 497.136 L3064.99 497.136 L3064.99 516.487 Q3064.99 520.848 3066.17 522.089 Q3067.38 523.331 3071.04 523.331 L3077.05 523.331 L3077.05 528.232 L3071.04 528.232 Q3064.26 528.232 3061.68 525.718 Q3059.1 523.171 3059.1 516.487 L3059.1 497.136 L3054.8 497.136 L3054.8 492.584 L3059.1 492.584 L3059.1 482.463 L3064.99 482.463 Z" fill="#000000" fill-rule="evenodd" fill-opacity="1" /><path clip-path="url(#clip3100)" d="M 0 0 M3122.41 486.314 L3106.18 511.681 L3122.41 511.681 L3122.41 486.314 M3120.72 480.712 L3128.81 480.712 L3128.81 511.681 L3135.59 511.681 L3135.59 517.028 L3128.81 517.028 L3128.81 528.232 L3122.41 528.232 L3122.41 517.028 L3100.96 517.028 L3100.96 510.822 L3120.72 480.712 Z" fill="#000000" fill-rule="evenodd" fill-opacity="1" /><polyline clip-path="url(#clip3100)" style="stroke:#ac8d18; stroke-width:16; stroke-opacity:1; fill:none" points="
  2764.44,564.952 2956.44,564.952 
  "/>
<path clip-path="url(#clip3100)" d="M 0 0 M2988.44 541.192 L2994.87 541.192 L2994.87 583.301 L3018.01 583.301 L3018.01 588.712 L2988.44 588.712 L2988.44 541.192 Z" fill="#000000" fill-rule="evenodd" fill-opacity="1" /><path clip-path="url(#clip3100)" d="M 0 0 M3024.15 553.064 L3030.01 553.064 L3030.01 588.712 L3024.15 588.712 L3024.15 553.064 M3024.15 539.187 L3030.01 539.187 L3030.01 546.603 L3024.15 546.603 L3024.15 539.187 Z" fill="#000000" fill-rule="evenodd" fill-opacity="1" /><path clip-path="url(#clip3100)" d="M 0 0 M3054.2 539.187 L3054.2 544.057 L3048.6 544.057 Q3045.45 544.057 3044.21 545.33 Q3043 546.603 3043 549.913 L3043 553.064 L3052.64 553.064 L3052.64 557.616 L3043 557.616 L3043 588.712 L3037.11 588.712 L3037.11 557.616 L3031.51 557.616 L3031.51 553.064 L3037.11 553.064 L3037.11 550.582 Q3037.11 544.63 3039.88 541.924 Q3042.65 539.187 3048.66 539.187 L3054.2 539.187 Z" fill="#000000" fill-rule="evenodd" fill-opacity="1" /><path clip-path="url(#clip3100)" d="M 0 0 M3064.99 542.943 L3064.99 553.064 L3077.05 553.064 L3077.05 557.616 L3064.99 557.616 L3064.99 576.967 Q3064.99 581.328 3066.17 582.569 Q3067.38 583.811 3071.04 583.811 L3077.05 583.811 L3077.05 588.712 L3071.04 588.712 Q3064.26 588.712 3061.68 586.198 Q3059.1 583.651 3059.1 576.967 L3059.1 557.616 L3054.8 557.616 L3054.8 553.064 L3059.1 553.064 L3059.1 542.943 L3064.99 542.943 Z" fill="#000000" fill-rule="evenodd" fill-opacity="1" /><path clip-path="url(#clip3100)" d="M 0 0 M3104.81 541.192 L3130.05 541.192 L3130.05 546.603 L3110.7 546.603 L3110.7 558.252 Q3112.1 557.775 3113.5 557.552 Q3114.9 557.297 3116.3 557.297 Q3124.25 557.297 3128.9 561.658 Q3133.55 566.018 3133.55 573.466 Q3133.55 581.137 3128.77 585.402 Q3124 589.635 3115.31 589.635 Q3112.32 589.635 3109.2 589.126 Q3106.11 588.617 3102.8 587.598 L3102.8 581.137 Q3105.67 582.697 3108.72 583.46 Q3111.78 584.224 3115.18 584.224 Q3120.69 584.224 3123.9 581.328 Q3127.12 578.432 3127.12 573.466 Q3127.12 568.501 3123.9 565.605 Q3120.69 562.708 3115.18 562.708 Q3112.6 562.708 3110.03 563.281 Q3107.48 563.854 3104.81 565.064 L3104.81 541.192 Z" fill="#000000" fill-rule="evenodd" fill-opacity="1" /><polyline clip-path="url(#clip3100)" style="stroke:#00a9ad; stroke-width:16; stroke-opacity:1; fill:none" points="
  2764.44,625.432 2956.44,625.432 
  "/>
<path clip-path="url(#clip3100)" d="M 0 0 M2988.44 601.672 L2994.87 601.672 L2994.87 643.781 L3018.01 643.781 L3018.01 649.192 L2988.44 649.192 L2988.44 601.672 Z" fill="#000000" fill-rule="evenodd" fill-opacity="1" /><path clip-path="url(#clip3100)" d="M 0 0 M3024.15 613.544 L3030.01 613.544 L3030.01 649.192 L3024.15 649.192 L3024.15 613.544 M3024.15 599.667 L3030.01 599.667 L3030.01 607.083 L3024.15 607.083 L3024.15 599.667 Z" fill="#000000" fill-rule="evenodd" fill-opacity="1" /><path clip-path="url(#clip3100)" d="M 0 0 M3054.2 599.667 L3054.2 604.537 L3048.6 604.537 Q3045.45 604.537 3044.21 605.81 Q3043 607.083 3043 610.393 L3043 613.544 L3052.64 613.544 L3052.64 618.096 L3043 618.096 L3043 649.192 L3037.11 649.192 L3037.11 618.096 L3031.51 618.096 L3031.51 613.544 L3037.11 613.544 L3037.11 611.062 Q3037.11 605.11 3039.88 602.404 Q3042.65 599.667 3048.66 599.667 L3054.2 599.667 Z" fill="#000000" fill-rule="evenodd" fill-opacity="1" /><path clip-path="url(#clip3100)" d="M 0 0 M3064.99 603.423 L3064.99 613.544 L3077.05 613.544 L3077.05 618.096 L3064.99 618.096 L3064.99 637.447 Q3064.99 641.808 3066.17 643.049 Q3067.38 644.291 3071.04 644.291 L3077.05 644.291 L3077.05 649.192 L3071.04 649.192 Q3064.26 649.192 3061.68 646.678 Q3059.1 644.131 3059.1 637.447 L3059.1 618.096 L3054.8 618.096 L3054.8 613.544 L3059.1 613.544 L3059.1 603.423 L3064.99 603.423 Z" fill="#000000" fill-rule="evenodd" fill-opacity="1" /><path clip-path="url(#clip3100)" d="M 0 0 M3119.29 622.87 Q3114.96 622.87 3112.41 625.83 Q3109.9 628.79 3109.9 633.946 Q3109.9 639.071 3112.41 642.063 Q3114.96 645.023 3119.29 645.023 Q3123.62 645.023 3126.13 642.063 Q3128.68 639.071 3128.68 633.946 Q3128.68 628.79 3126.13 625.83 Q3123.62 622.87 3119.29 622.87 M3132.05 602.722 L3132.05 608.579 Q3129.63 607.433 3127.15 606.828 Q3124.7 606.224 3122.28 606.224 Q3115.92 606.224 3112.54 610.52 Q3109.2 614.817 3108.72 623.506 Q3110.6 620.737 3113.43 619.273 Q3116.27 617.777 3119.67 617.777 Q3126.83 617.777 3130.97 622.138 Q3135.14 626.467 3135.14 633.946 Q3135.14 641.267 3130.81 645.691 Q3126.48 650.115 3119.29 650.115 Q3111.05 650.115 3106.68 643.813 Q3102.32 637.479 3102.32 625.48 Q3102.32 614.213 3107.67 607.529 Q3113.02 600.813 3122.03 600.813 Q3124.45 600.813 3126.9 601.29 Q3129.38 601.768 3132.05 602.722 Z" fill="#000000" fill-rule="evenodd" fill-opacity="1" /><polyline clip-path="url(#clip3100)" style="stroke:#ed5d92; stroke-width:16; stroke-opacity:1; fill:none" points="
  2764.44,685.912 2956.44,685.912 
  "/>
<path clip-path="url(#clip3100)" d="M 0 0 M2988.44 662.152 L2994.87 662.152 L2994.87 704.261 L3018.01 704.261 L3018.01 709.672 L2988.44 709.672 L2988.44 662.152 Z" fill="#000000" fill-rule="evenodd" fill-opacity="1" /><path clip-path="url(#clip3100)" d="M 0 0 M3024.15 674.024 L3030.01 674.024 L3030.01 709.672 L3024.15 709.672 L3024.15 674.024 M3024.15 660.147 L3030.01 660.147 L3030.01 667.563 L3024.15 667.563 L3024.15 660.147 Z" fill="#000000" fill-rule="evenodd" fill-opacity="1" /><path clip-path="url(#clip3100)" d="M 0 0 M3054.2 660.147 L3054.2 665.017 L3048.6 665.017 Q3045.45 665.017 3044.21 666.29 Q3043 667.563 3043 670.873 L3043 674.024 L3052.64 674.024 L3052.64 678.576 L3043 678.576 L3043 709.672 L3037.11 709.672 L3037.11 678.576 L3031.51 678.576 L3031.51 674.024 L3037.11 674.024 L3037.11 671.542 Q3037.11 665.59 3039.88 662.884 Q3042.65 660.147 3048.66 660.147 L3054.2 660.147 Z" fill="#000000" fill-rule="evenodd" fill-opacity="1" /><path clip-path="url(#clip3100)" d="M 0 0 M3064.99 663.903 L3064.99 674.024 L3077.05 674.024 L3077.05 678.576 L3064.99 678.576 L3064.99 697.927 Q3064.99 702.288 3066.17 703.529 Q3067.38 704.771 3071.04 704.771 L3077.05 704.771 L3077.05 709.672 L3071.04 709.672 Q3064.26 709.672 3061.68 707.158 Q3059.1 704.611 3059.1 697.927 L3059.1 678.576 L3054.8 678.576 L3054.8 674.024 L3059.1 674.024 L3059.1 663.903 L3064.99 663.903 Z" fill="#000000" fill-rule="evenodd" fill-opacity="1" /><path clip-path="url(#clip3100)" d="M 0 0 M3103.12 662.152 L3133.68 662.152 L3133.68 664.889 L3116.42 709.672 L3109.71 709.672 L3125.94 667.563 L3103.12 667.563 L3103.12 662.152 Z" fill="#000000" fill-rule="evenodd" fill-opacity="1" /><polyline clip-path="url(#clip3100)" style="stroke:#c68125; stroke-width:16; stroke-opacity:1; fill:none" points="
  2764.44,746.392 2956.44,746.392 
  "/>
<path clip-path="url(#clip3100)" d="M 0 0 M2988.44 722.632 L2994.87 722.632 L2994.87 764.741 L3018.01 764.741 L3018.01 770.152 L2988.44 770.152 L2988.44 722.632 Z" fill="#000000" fill-rule="evenodd" fill-opacity="1" /><path clip-path="url(#clip3100)" d="M 0 0 M3024.15 734.504 L3030.01 734.504 L3030.01 770.152 L3024.15 770.152 L3024.15 734.504 M3024.15 720.627 L3030.01 720.627 L3030.01 728.043 L3024.15 728.043 L3024.15 720.627 Z" fill="#000000" fill-rule="evenodd" fill-opacity="1" /><path clip-path="url(#clip3100)" d="M 0 0 M3054.2 720.627 L3054.2 725.497 L3048.6 725.497 Q3045.45 725.497 3044.21 726.77 Q3043 728.043 3043 731.353 L3043 734.504 L3052.64 734.504 L3052.64 739.056 L3043 739.056 L3043 770.152 L3037.11 770.152 L3037.11 739.056 L3031.51 739.056 L3031.51 734.504 L3037.11 734.504 L3037.11 732.022 Q3037.11 726.07 3039.88 723.364 Q3042.65 720.627 3048.66 720.627 L3054.2 720.627 Z" fill="#000000" fill-rule="evenodd" fill-opacity="1" /><path clip-path="url(#clip3100)" d="M 0 0 M3064.99 724.383 L3064.99 734.504 L3077.05 734.504 L3077.05 739.056 L3064.99 739.056 L3064.99 758.407 Q3064.99 762.768 3066.17 764.009 Q3067.38 765.251 3071.04 765.251 L3077.05 765.251 L3077.05 770.152 L3071.04 770.152 Q3064.26 770.152 3061.68 767.638 Q3059.1 765.091 3059.1 758.407 L3059.1 739.056 L3054.8 739.056 L3054.8 734.504 L3059.1 734.504 L3059.1 724.383 L3064.99 724.383 Z" fill="#000000" fill-rule="evenodd" fill-opacity="1" /><path clip-path="url(#clip3100)" d="M 0 0 M3118.49 747.586 Q3113.91 747.586 3111.27 750.036 Q3108.66 752.487 3108.66 756.784 Q3108.66 761.081 3111.27 763.532 Q3113.91 765.983 3118.49 765.983 Q3123.08 765.983 3125.72 763.532 Q3128.36 761.049 3128.36 756.784 Q3128.36 752.487 3125.72 750.036 Q3123.11 747.586 3118.49 747.586 M3112.06 744.848 Q3107.93 743.83 3105.6 740.997 Q3103.31 738.164 3103.31 734.09 Q3103.31 728.393 3107.35 725.083 Q3111.43 721.773 3118.49 721.773 Q3125.59 721.773 3129.63 725.083 Q3133.68 728.393 3133.68 734.09 Q3133.68 738.164 3131.35 740.997 Q3129.06 743.83 3124.95 744.848 Q3129.6 745.931 3132.18 749.082 Q3134.79 752.233 3134.79 756.784 Q3134.79 763.691 3130.56 767.383 Q3126.35 771.075 3118.49 771.075 Q3110.63 771.075 3106.4 767.383 Q3102.2 763.691 3102.2 756.784 Q3102.2 752.233 3104.81 749.082 Q3107.42 745.931 3112.06 744.848 M3109.71 734.695 Q3109.71 738.387 3112 740.456 Q3114.32 742.525 3118.49 742.525 Q3122.63 742.525 3124.95 740.456 Q3127.31 738.387 3127.31 734.695 Q3127.31 731.003 3124.95 728.934 Q3122.63 726.865 3118.49 726.865 Q3114.32 726.865 3112 728.934 Q3109.71 731.003 3109.71 734.695 Z" fill="#000000" fill-rule="evenodd" fill-opacity="1" /><polyline clip-path="url(#clip3100)" style="stroke:#00a98d; stroke-width:16; stroke-opacity:1; fill:none" points="
  2764.44,806.872 2956.44,806.872 
  "/>
<path clip-path="url(#clip3100)" d="M 0 0 M2988.44 783.112 L2994.87 783.112 L2994.87 825.221 L3018.01 825.221 L3018.01 830.632 L2988.44 830.632 L2988.44 783.112 Z" fill="#000000" fill-rule="evenodd" fill-opacity="1" /><path clip-path="url(#clip3100)" d="M 0 0 M3024.15 794.984 L3030.01 794.984 L3030.01 830.632 L3024.15 830.632 L3024.15 794.984 M3024.15 781.107 L3030.01 781.107 L3030.01 788.523 L3024.15 788.523 L3024.15 781.107 Z" fill="#000000" fill-rule="evenodd" fill-opacity="1" /><path clip-path="url(#clip3100)" d="M 0 0 M3054.2 781.107 L3054.2 785.977 L3048.6 785.977 Q3045.45 785.977 3044.21 787.25 Q3043 788.523 3043 791.833 L3043 794.984 L3052.64 794.984 L3052.64 799.536 L3043 799.536 L3043 830.632 L3037.11 830.632 L3037.11 799.536 L3031.51 799.536 L3031.51 794.984 L3037.11 794.984 L3037.11 792.502 Q3037.11 786.55 3039.88 783.844 Q3042.65 781.107 3048.66 781.107 L3054.2 781.107 Z" fill="#000000" fill-rule="evenodd" fill-opacity="1" /><path clip-path="url(#clip3100)" d="M 0 0 M3064.99 784.863 L3064.99 794.984 L3077.05 794.984 L3077.05 799.536 L3064.99 799.536 L3064.99 818.887 Q3064.99 823.248 3066.17 824.489 Q3067.38 825.731 3071.04 825.731 L3077.05 825.731 L3077.05 830.632 L3071.04 830.632 Q3064.26 830.632 3061.68 828.118 Q3059.1 825.571 3059.1 818.887 L3059.1 799.536 L3054.8 799.536 L3054.8 794.984 L3059.1 794.984 L3059.1 784.863 L3064.99 784.863 Z" fill="#000000" fill-rule="evenodd" fill-opacity="1" /><path clip-path="url(#clip3100)" d="M 0 0 M3104.93 829.645 L3104.93 823.789 Q3107.35 824.935 3109.84 825.54 Q3112.32 826.144 3114.71 826.144 Q3121.07 826.144 3124.41 821.879 Q3127.79 817.582 3128.26 808.861 Q3126.42 811.599 3123.59 813.063 Q3120.75 814.527 3117.32 814.527 Q3110.19 814.527 3106.02 810.23 Q3101.88 805.901 3101.88 798.422 Q3101.88 791.101 3106.21 786.677 Q3110.54 782.253 3117.73 782.253 Q3125.97 782.253 3130.3 788.587 Q3134.66 794.889 3134.66 806.92 Q3134.66 818.155 3129.31 824.871 Q3124 831.555 3114.99 831.555 Q3112.57 831.555 3110.09 831.078 Q3107.61 830.6 3104.93 829.645 M3117.73 809.498 Q3122.06 809.498 3124.57 806.538 Q3127.12 803.578 3127.12 798.422 Q3127.12 793.297 3124.57 790.337 Q3122.06 787.345 3117.73 787.345 Q3113.4 787.345 3110.85 790.337 Q3108.34 793.297 3108.34 798.422 Q3108.34 803.578 3110.85 806.538 Q3113.4 809.498 3117.73 809.498 Z" fill="#000000" fill-rule="evenodd" fill-opacity="1" /><polyline clip-path="url(#clip3100)" style="stroke:#8e971d; stroke-width:16; stroke-opacity:1; fill:none" points="
  2764.44,867.352 2956.44,867.352 
  "/>
<path clip-path="url(#clip3100)" d="M 0 0 M2988.44 843.592 L2994.87 843.592 L2994.87 885.701 L3018.01 885.701 L3018.01 891.112 L2988.44 891.112 L2988.44 843.592 Z" fill="#000000" fill-rule="evenodd" fill-opacity="1" /><path clip-path="url(#clip3100)" d="M 0 0 M3024.15 855.464 L3030.01 855.464 L3030.01 891.112 L3024.15 891.112 L3024.15 855.464 M3024.15 841.587 L3030.01 841.587 L3030.01 849.003 L3024.15 849.003 L3024.15 841.587 Z" fill="#000000" fill-rule="evenodd" fill-opacity="1" /><path clip-path="url(#clip3100)" d="M 0 0 M3054.2 841.587 L3054.2 846.457 L3048.6 846.457 Q3045.45 846.457 3044.21 847.73 Q3043 849.003 3043 852.313 L3043 855.464 L3052.64 855.464 L3052.64 860.016 L3043 860.016 L3043 891.112 L3037.11 891.112 L3037.11 860.016 L3031.51 860.016 L3031.51 855.464 L3037.11 855.464 L3037.11 852.982 Q3037.11 847.03 3039.88 844.324 Q3042.65 841.587 3048.66 841.587 L3054.2 841.587 Z" fill="#000000" fill-rule="evenodd" fill-opacity="1" /><path clip-path="url(#clip3100)" d="M 0 0 M3064.99 845.343 L3064.99 855.464 L3077.05 855.464 L3077.05 860.016 L3064.99 860.016 L3064.99 879.367 Q3064.99 883.728 3066.17 884.969 Q3067.38 886.211 3071.04 886.211 L3077.05 886.211 L3077.05 891.112 L3071.04 891.112 Q3064.26 891.112 3061.68 888.598 Q3059.1 886.051 3059.1 879.367 L3059.1 860.016 L3054.8 860.016 L3054.8 855.464 L3059.1 855.464 L3059.1 845.343 L3064.99 845.343 Z" fill="#000000" fill-rule="evenodd" fill-opacity="1" /><path clip-path="url(#clip3100)" d="M 0 0 M3105.86 885.701 L3116.36 885.701 L3116.36 849.449 L3104.93 851.74 L3104.93 845.884 L3116.3 843.592 L3122.73 843.592 L3122.73 885.701 L3133.23 885.701 L3133.23 891.112 L3105.86 891.112 L3105.86 885.701 Z" fill="#000000" fill-rule="evenodd" fill-opacity="1" /><path clip-path="url(#clip3100)" d="M 0 0 M3153.95 847.825 Q3148.98 847.825 3146.47 852.727 Q3143.99 857.597 3143.99 867.4 Q3143.99 877.171 3146.47 882.073 Q3148.98 886.943 3153.95 886.943 Q3158.95 886.943 3161.43 882.073 Q3163.94 877.171 3163.94 867.4 Q3163.94 857.597 3161.43 852.727 Q3158.95 847.825 3153.95 847.825 M3153.95 842.733 Q3161.94 842.733 3166.14 849.067 Q3170.37 855.369 3170.37 867.4 Q3170.37 879.399 3166.14 885.733 Q3161.94 892.035 3153.95 892.035 Q3145.96 892.035 3141.73 885.733 Q3137.53 879.399 3137.53 867.4 Q3137.53 855.369 3141.73 849.067 Q3145.96 842.733 3153.95 842.733 Z" fill="#000000" fill-rule="evenodd" fill-opacity="1" /><polyline clip-path="url(#clip3100)" style="stroke:#00a8cb; stroke-width:16; stroke-opacity:1; fill:none" points="
  2764.44,927.832 2956.44,927.832 
  "/>
<path clip-path="url(#clip3100)" d="M 0 0 M2988.44 904.072 L2994.87 904.072 L2994.87 946.181 L3018.01 946.181 L3018.01 951.592 L2988.44 951.592 L2988.44 904.072 Z" fill="#000000" fill-rule="evenodd" fill-opacity="1" /><path clip-path="url(#clip3100)" d="M 0 0 M3036.82 920.05 Q3032.11 920.05 3029.37 923.742 Q3026.64 927.402 3026.64 933.8 Q3026.64 940.198 3029.34 943.89 Q3032.08 947.55 3036.82 947.55 Q3041.5 947.55 3044.24 943.858 Q3046.97 940.166 3046.97 933.8 Q3046.97 927.466 3044.24 923.774 Q3041.5 920.05 3036.82 920.05 M3036.82 915.085 Q3044.46 915.085 3048.82 920.05 Q3053.18 925.015 3053.18 933.8 Q3053.18 942.553 3048.82 947.55 Q3044.46 952.515 3036.82 952.515 Q3029.15 952.515 3024.79 947.55 Q3020.46 942.553 3020.46 933.8 Q3020.46 925.015 3024.79 920.05 Q3029.15 915.085 3036.82 915.085 Z" fill="#000000" fill-rule="evenodd" fill-opacity="1" /><path clip-path="url(#clip3100)" d="M 0 0 M3075.52 933.673 Q3068.43 933.673 3065.69 935.296 Q3062.95 936.919 3062.95 940.834 Q3062.95 943.953 3064.99 945.799 Q3067.06 947.614 3070.59 947.614 Q3075.46 947.614 3078.39 944.176 Q3081.35 940.707 3081.35 934.978 L3081.35 933.673 L3075.52 933.673 M3087.21 931.254 L3087.21 951.592 L3081.35 951.592 L3081.35 946.181 Q3079.34 949.428 3076.35 950.987 Q3073.36 952.515 3069.03 952.515 Q3063.56 952.515 3060.31 949.46 Q3057.1 946.372 3057.1 941.216 Q3057.1 935.2 3061.11 932.145 Q3065.15 929.089 3073.14 929.089 L3081.35 929.089 L3081.35 928.516 Q3081.35 924.474 3078.68 922.278 Q3076.03 920.05 3071.23 920.05 Q3068.17 920.05 3065.28 920.782 Q3062.38 921.514 3059.71 922.978 L3059.71 917.567 Q3062.92 916.326 3065.94 915.721 Q3068.97 915.085 3071.83 915.085 Q3079.57 915.085 3083.39 919.095 Q3087.21 923.106 3087.21 931.254 Z" fill="#000000" fill-rule="evenodd" fill-opacity="1" /><path clip-path="url(#clip3100)" d="M 0 0 M3116.81 921.355 L3116.81 902.067 L3122.66 902.067 L3122.66 951.592 L3116.81 951.592 L3116.81 946.245 Q3114.96 949.428 3112.13 950.987 Q3109.33 952.515 3105.38 952.515 Q3098.92 952.515 3094.84 947.359 Q3090.8 942.203 3090.8 933.8 Q3090.8 925.397 3094.84 920.241 Q3098.92 915.085 3105.38 915.085 Q3109.33 915.085 3112.13 916.644 Q3114.96 918.172 3116.81 921.355 M3096.85 933.8 Q3096.85 940.261 3099.49 943.953 Q3102.17 947.614 3106.81 947.614 Q3111.46 947.614 3114.13 943.953 Q3116.81 940.261 3116.81 933.8 Q3116.81 927.339 3114.13 923.679 Q3111.46 919.986 3106.81 919.986 Q3102.17 919.986 3099.49 923.679 Q3096.85 927.339 3096.85 933.8 Z" fill="#000000" fill-rule="evenodd" fill-opacity="1" /></svg>
