<?xml version="1.0" encoding="utf-8"?>
<svg xmlns="http://www.w3.org/2000/svg" xmlns:xlink="http://www.w3.org/1999/xlink" width="800" height="600" viewBox="0 0 3200 2400">
<defs>
  <clipPath id="clip3400">
    <rect x="0" y="0" width="3200" height="2400"/>
  </clipPath>
</defs>
<path clip-path="url(#clip3400)" d="
M0 2400 L3200 2400 L3200 0 L0 0  Z
  " fill="#ffffff" fill-rule="evenodd" fill-opacity="1"/>
<defs>
  <clipPath id="clip3401">
    <rect x="640" y="0" width="2241" height="2241"/>
  </clipPath>
</defs>
<path clip-path="url(#clip3400)" d="
M239.431 2204.92 L2636.44 2204.92 L2636.44 131.032 L239.431 131.032  Z
  " fill="#ffffff" fill-rule="evenodd" fill-opacity="1"/>
<defs>
  <clipPath id="clip3402">
    <rect x="239" y="131" width="2398" height="2075"/>
  </clipPath>
</defs>
<polyline clip-path="url(#clip3402)" style="stroke:#000000; stroke-width:2; stroke-opacity:0.1; fill:none" points="
  307.271,2204.92 307.271,131.032 
  "/>
<polyline clip-path="url(#clip3402)" style="stroke:#000000; stroke-width:2; stroke-opacity:0.1; fill:none" points="
  759.537,2204.92 759.537,131.032 
  "/>
<polyline clip-path="url(#clip3402)" style="stroke:#000000; stroke-width:2; stroke-opacity:0.1; fill:none" points="
  1211.8,2204.92 1211.8,131.032 
  "/>
<polyline clip-path="url(#clip3402)" style="stroke:#000000; stroke-width:2; stroke-opacity:0.1; fill:none" points="
  1664.07,2204.92 1664.07,131.032 
  "/>
<polyline clip-path="url(#clip3402)" style="stroke:#000000; stroke-width:2; stroke-opacity:0.1; fill:none" points="
  2116.34,2204.92 2116.34,131.032 
  "/>
<polyline clip-path="url(#clip3402)" style="stroke:#000000; stroke-width:2; stroke-opacity:0.1; fill:none" points="
  2568.6,2204.92 2568.6,131.032 
  "/>
<polyline clip-path="url(#clip3402)" style="stroke:#000000; stroke-width:2; stroke-opacity:0.1; fill:none" points="
  239.431,2104.1 2636.44,2104.1 
  "/>
<polyline clip-path="url(#clip3402)" style="stroke:#000000; stroke-width:2; stroke-opacity:0.1; fill:none" points="
  239.431,1461.83 2636.44,1461.83 
  "/>
<polyline clip-path="url(#clip3402)" style="stroke:#000000; stroke-width:2; stroke-opacity:0.1; fill:none" points="
  239.431,819.556 2636.44,819.556 
  "/>
<polyline clip-path="url(#clip3402)" style="stroke:#000000; stroke-width:2; stroke-opacity:0.1; fill:none" points="
  239.431,177.284 2636.44,177.284 
  "/>
<polyline clip-path="url(#clip3400)" style="stroke:#000000; stroke-width:4; stroke-opacity:1; fill:none" points="
  239.431,2204.92 2636.44,2204.92 
  "/>
<polyline clip-path="url(#clip3400)" style="stroke:#000000; stroke-width:4; stroke-opacity:1; fill:none" points="
  239.431,2204.92 239.431,131.032 
  "/>
<polyline clip-path="url(#clip3400)" style="stroke:#000000; stroke-width:4; stroke-opacity:1; fill:none" points="
  307.271,2204.92 307.271,2180.03 
  "/>
<polyline clip-path="url(#clip3400)" style="stroke:#000000; stroke-width:4; stroke-opacity:1; fill:none" points="
  759.537,2204.92 759.537,2180.03 
  "/>
<polyline clip-path="url(#clip3400)" style="stroke:#000000; stroke-width:4; stroke-opacity:1; fill:none" points="
  1211.8,2204.92 1211.8,2180.03 
  "/>
<polyline clip-path="url(#clip3400)" style="stroke:#000000; stroke-width:4; stroke-opacity:1; fill:none" points="
  1664.07,2204.92 1664.07,2180.03 
  "/>
<polyline clip-path="url(#clip3400)" style="stroke:#000000; stroke-width:4; stroke-opacity:1; fill:none" points="
  2116.34,2204.92 2116.34,2180.03 
  "/>
<polyline clip-path="url(#clip3400)" style="stroke:#000000; stroke-width:4; stroke-opacity:1; fill:none" points="
  2568.6,2204.92 2568.6,2180.03 
  "/>
<polyline clip-path="url(#clip3400)" style="stroke:#000000; stroke-width:4; stroke-opacity:1; fill:none" points="
  239.431,2104.1 268.195,2104.1 
  "/>
<polyline clip-path="url(#clip3400)" style="stroke:#000000; stroke-width:4; stroke-opacity:1; fill:none" points="
  239.431,1461.83 268.195,1461.83 
  "/>
<polyline clip-path="url(#clip3400)" style="stroke:#000000; stroke-width:4; stroke-opacity:1; fill:none" points="
  239.431,819.556 268.195,819.556 
  "/>
<polyline clip-path="url(#clip3400)" style="stroke:#000000; stroke-width:4; stroke-opacity:1; fill:none" points="
  239.431,177.284 268.195,177.284 
  "/>
<path clip-path="url(#clip3400)" d="M 0 0 M307.271 2230.91 Q303.66 2230.91 301.831 2234.48 Q300.026 2238.02 300.026 2245.15 Q300.026 2252.25 301.831 2255.82 Q303.66 2259.36 307.271 2259.36 Q310.905 2259.36 312.711 2255.82 Q314.54 2252.25 314.54 2245.15 Q314.54 2238.02 312.711 2234.48 Q310.905 2230.91 307.271 2230.91 M307.271 2227.21 Q313.081 2227.21 316.137 2231.81 Q319.216 2236.4 319.216 2245.15 Q319.216 2253.87 316.137 2258.48 Q313.081 2263.06 307.271 2263.06 Q301.461 2263.06 298.382 2258.48 Q295.327 2253.87 295.327 2245.15 Q295.327 2236.4 298.382 2231.81 Q301.461 2227.21 307.271 2227.21 Z" fill="#000000" fill-rule="evenodd" fill-opacity="1" /><path clip-path="url(#clip3400)" d="M 0 0 M749.919 2258.46 L757.558 2258.46 L757.558 2232.09 L749.248 2233.76 L749.248 2229.5 L757.512 2227.83 L762.188 2227.83 L762.188 2258.46 L769.827 2258.46 L769.827 2262.39 L749.919 2262.39 L749.919 2258.46 Z" fill="#000000" fill-rule="evenodd" fill-opacity="1" /><path clip-path="url(#clip3400)" d="M 0 0 M1206.46 2258.46 L1222.78 2258.46 L1222.78 2262.39 L1200.83 2262.39 L1200.83 2258.46 Q1203.49 2255.7 1208.08 2251.07 Q1212.68 2246.42 1213.86 2245.08 Q1216.11 2242.55 1216.99 2240.82 Q1217.89 2239.06 1217.89 2237.37 Q1217.89 2234.61 1215.95 2232.88 Q1214.03 2231.14 1210.92 2231.14 Q1208.72 2231.14 1206.27 2231.91 Q1203.84 2232.67 1201.06 2234.22 L1201.06 2229.5 Q1203.89 2228.36 1206.34 2227.79 Q1208.79 2227.21 1210.83 2227.21 Q1216.2 2227.21 1219.4 2229.89 Q1222.59 2232.58 1222.59 2237.07 Q1222.59 2239.2 1221.78 2241.12 Q1220.99 2243.02 1218.89 2245.61 Q1218.31 2246.28 1215.21 2249.5 Q1212.1 2252.69 1206.46 2258.46 Z" fill="#000000" fill-rule="evenodd" fill-opacity="1" /><path clip-path="url(#clip3400)" d="M 0 0 M1668.32 2243.76 Q1671.67 2244.48 1673.55 2246.74 Q1675.45 2249.01 1675.45 2252.35 Q1675.45 2257.46 1671.93 2260.26 Q1668.41 2263.06 1661.93 2263.06 Q1659.75 2263.06 1657.44 2262.62 Q1655.15 2262.21 1652.69 2261.35 L1652.69 2256.84 Q1654.64 2257.97 1656.95 2258.55 Q1659.27 2259.13 1661.79 2259.13 Q1666.19 2259.13 1668.48 2257.39 Q1670.79 2255.66 1670.79 2252.35 Q1670.79 2249.29 1668.64 2247.58 Q1666.51 2245.84 1662.69 2245.84 L1658.66 2245.84 L1658.66 2242 L1662.88 2242 Q1666.33 2242 1668.16 2240.63 Q1669.98 2239.24 1669.98 2236.65 Q1669.98 2233.99 1668.09 2232.58 Q1666.21 2231.14 1662.69 2231.14 Q1660.77 2231.14 1658.57 2231.56 Q1656.37 2231.98 1653.73 2232.85 L1653.73 2228.69 Q1656.4 2227.95 1658.71 2227.58 Q1661.05 2227.21 1663.11 2227.21 Q1668.43 2227.21 1671.53 2229.64 Q1674.64 2232.04 1674.64 2236.17 Q1674.64 2239.04 1672.99 2241.03 Q1671.35 2242.99 1668.32 2243.76 Z" fill="#000000" fill-rule="evenodd" fill-opacity="1" /><path clip-path="url(#clip3400)" d="M 0 0 M2119.34 2231.91 L2107.54 2250.35 L2119.34 2250.35 L2119.34 2231.91 M2118.12 2227.83 L2124 2227.83 L2124 2250.35 L2128.93 2250.35 L2128.93 2254.24 L2124 2254.24 L2124 2262.39 L2119.34 2262.39 L2119.34 2254.24 L2103.74 2254.24 L2103.74 2249.73 L2118.12 2227.83 Z" fill="#000000" fill-rule="evenodd" fill-opacity="1" /><path clip-path="url(#clip3400)" d="M 0 0 M2558.88 2227.83 L2577.24 2227.83 L2577.24 2231.77 L2563.16 2231.77 L2563.16 2240.24 Q2564.18 2239.89 2565.2 2239.73 Q2566.22 2239.54 2567.24 2239.54 Q2573.02 2239.54 2576.4 2242.72 Q2579.78 2245.89 2579.78 2251.3 Q2579.78 2256.88 2576.31 2259.98 Q2572.84 2263.06 2566.52 2263.06 Q2564.34 2263.06 2562.07 2262.69 Q2559.83 2262.32 2557.42 2261.58 L2557.42 2256.88 Q2559.5 2258.02 2561.73 2258.57 Q2563.95 2259.13 2566.43 2259.13 Q2570.43 2259.13 2572.77 2257.02 Q2575.11 2254.92 2575.11 2251.3 Q2575.11 2247.69 2572.77 2245.59 Q2570.43 2243.48 2566.43 2243.48 Q2564.55 2243.48 2562.68 2243.9 Q2560.82 2244.31 2558.88 2245.19 L2558.88 2227.83 Z" fill="#000000" fill-rule="evenodd" fill-opacity="1" /><path clip-path="url(#clip3400)" d="M 0 0 M132.2 2106.5 L144.677 2106.5 L144.677 2110.29 L132.2 2110.29 L132.2 2106.5 Z" fill="#000000" fill-rule="evenodd" fill-opacity="1" /><path clip-path="url(#clip3400)" d="M 0 0 M159.746 2089.9 Q156.135 2089.9 154.307 2093.47 Q152.501 2097.01 152.501 2104.14 Q152.501 2111.24 154.307 2114.81 Q156.135 2118.35 159.746 2118.35 Q163.381 2118.35 165.186 2114.81 Q167.015 2111.24 167.015 2104.14 Q167.015 2097.01 165.186 2093.47 Q163.381 2089.9 159.746 2089.9 M159.746 2086.2 Q165.556 2086.2 168.612 2090.8 Q171.691 2095.39 171.691 2104.14 Q171.691 2112.86 168.612 2117.47 Q165.556 2122.05 159.746 2122.05 Q153.936 2122.05 150.857 2117.47 Q147.802 2112.86 147.802 2104.14 Q147.802 2095.39 150.857 2090.8 Q153.936 2086.2 159.746 2086.2 Z" fill="#000000" fill-rule="evenodd" fill-opacity="1" /><path clip-path="url(#clip3400)" d="M 0 0 M176.76 2115.5 L181.644 2115.5 L181.644 2121.38 L176.76 2121.38 L176.76 2115.5 Z" fill="#000000" fill-rule="evenodd" fill-opacity="1" /><path clip-path="url(#clip3400)" d="M 0 0 M187.524 2117.45 L195.163 2117.45 L195.163 2091.08 L186.853 2092.75 L186.853 2088.49 L195.116 2086.82 L199.792 2086.82 L199.792 2117.45 L207.431 2117.45 L207.431 2121.38 L187.524 2121.38 L187.524 2117.45 Z" fill="#000000" fill-rule="evenodd" fill-opacity="1" /><path clip-path="url(#clip3400)" d="M 0 0 M158.519 1447.63 Q154.908 1447.63 153.08 1451.19 Q151.274 1454.73 151.274 1461.86 Q151.274 1468.97 153.08 1472.54 Q154.908 1476.08 158.519 1476.08 Q162.154 1476.08 163.959 1472.54 Q165.788 1468.97 165.788 1461.86 Q165.788 1454.73 163.959 1451.19 Q162.154 1447.63 158.519 1447.63 M158.519 1443.92 Q164.33 1443.92 167.385 1448.53 Q170.464 1453.11 170.464 1461.86 Q170.464 1470.59 167.385 1475.2 Q164.33 1479.78 158.519 1479.78 Q152.709 1479.78 149.631 1475.2 Q146.575 1470.59 146.575 1461.86 Q146.575 1453.11 149.631 1448.53 Q152.709 1443.92 158.519 1443.92 Z" fill="#000000" fill-rule="evenodd" fill-opacity="1" /><path clip-path="url(#clip3400)" d="M 0 0 M175.533 1473.23 L180.417 1473.23 L180.417 1479.11 L175.533 1479.11 L175.533 1473.23 Z" fill="#000000" fill-rule="evenodd" fill-opacity="1" /><path clip-path="url(#clip3400)" d="M 0 0 M195.487 1447.63 Q191.876 1447.63 190.047 1451.19 Q188.242 1454.73 188.242 1461.86 Q188.242 1468.97 190.047 1472.54 Q191.876 1476.08 195.487 1476.08 Q199.121 1476.08 200.927 1472.54 Q202.755 1468.97 202.755 1461.86 Q202.755 1454.73 200.927 1451.19 Q199.121 1447.63 195.487 1447.63 M195.487 1443.92 Q201.297 1443.92 204.353 1448.53 Q207.431 1453.11 207.431 1461.86 Q207.431 1470.59 204.353 1475.2 Q201.297 1479.78 195.487 1479.78 Q189.677 1479.78 186.598 1475.2 Q183.542 1470.59 183.542 1461.86 Q183.542 1453.11 186.598 1448.53 Q189.677 1443.92 195.487 1443.92 Z" fill="#000000" fill-rule="evenodd" fill-opacity="1" /><path clip-path="url(#clip3400)" d="M 0 0 M159.746 805.355 Q156.135 805.355 154.307 808.92 Q152.501 812.462 152.501 819.591 Q152.501 826.698 154.307 830.262 Q156.135 833.804 159.746 833.804 Q163.381 833.804 165.186 830.262 Q167.015 826.698 167.015 819.591 Q167.015 812.462 165.186 808.92 Q163.381 805.355 159.746 805.355 M159.746 801.651 Q165.556 801.651 168.612 806.258 Q171.691 810.841 171.691 819.591 Q171.691 828.318 168.612 832.924 Q165.556 837.508 159.746 837.508 Q153.936 837.508 150.857 832.924 Q147.802 828.318 147.802 819.591 Q147.802 810.841 150.857 806.258 Q153.936 801.651 159.746 801.651 Z" fill="#000000" fill-rule="evenodd" fill-opacity="1" /><path clip-path="url(#clip3400)" d="M 0 0 M176.76 830.957 L181.644 830.957 L181.644 836.836 L176.76 836.836 L176.76 830.957 Z" fill="#000000" fill-rule="evenodd" fill-opacity="1" /><path clip-path="url(#clip3400)" d="M 0 0 M187.524 832.901 L195.163 832.901 L195.163 806.536 L186.853 808.202 L186.853 803.943 L195.116 802.276 L199.792 802.276 L199.792 832.901 L207.431 832.901 L207.431 836.836 L187.524 836.836 L187.524 832.901 Z" fill="#000000" fill-rule="evenodd" fill-opacity="1" /><path clip-path="url(#clip3400)" d="M 0 0 M160.117 163.082 Q156.506 163.082 154.677 166.647 Q152.871 170.189 152.871 177.318 Q152.871 184.425 154.677 187.99 Q156.506 191.531 160.117 191.531 Q163.751 191.531 165.556 187.99 Q167.385 184.425 167.385 177.318 Q167.385 170.189 165.556 166.647 Q163.751 163.082 160.117 163.082 M160.117 159.379 Q165.927 159.379 168.982 163.985 Q172.061 168.568 172.061 177.318 Q172.061 186.045 168.982 190.652 Q165.927 195.235 160.117 195.235 Q154.307 195.235 151.228 190.652 Q148.172 186.045 148.172 177.318 Q148.172 168.568 151.228 163.985 Q154.307 159.379 160.117 159.379 Z" fill="#000000" fill-rule="evenodd" fill-opacity="1" /><path clip-path="url(#clip3400)" d="M 0 0 M177.13 188.684 L182.015 188.684 L182.015 194.564 L177.13 194.564 L177.13 188.684 Z" fill="#000000" fill-rule="evenodd" fill-opacity="1" /><path clip-path="url(#clip3400)" d="M 0 0 M191.112 190.628 L207.431 190.628 L207.431 194.564 L185.487 194.564 L185.487 190.628 Q188.149 187.874 192.732 183.244 Q197.339 178.591 198.519 177.249 Q200.765 174.726 201.644 172.99 Q202.547 171.23 202.547 169.541 Q202.547 166.786 200.603 165.05 Q198.681 163.314 195.579 163.314 Q193.38 163.314 190.927 164.078 Q188.496 164.842 185.718 166.392 L185.718 161.67 Q188.542 160.536 190.996 159.957 Q193.45 159.379 195.487 159.379 Q200.857 159.379 204.052 162.064 Q207.246 164.749 207.246 169.24 Q207.246 171.369 206.436 173.291 Q205.649 175.189 203.542 177.781 Q202.964 178.453 199.862 181.67 Q196.76 184.865 191.112 190.628 Z" fill="#000000" fill-rule="evenodd" fill-opacity="1" /><path clip-path="url(#clip3400)" d="M 0 0 M1003.88 45.1919 L1003.88 72.576 L996.428 72.576 L996.428 45.4349 Q996.428 38.994 993.917 35.7938 Q991.405 32.5936 986.382 32.5936 Q980.346 32.5936 976.863 36.4419 Q973.379 40.2903 973.379 46.9338 L973.379 72.576 L965.885 72.576 L965.885 9.54393 L973.379 9.54393 L973.379 34.2544 Q976.052 30.163 979.658 28.1376 Q983.304 26.1121 988.043 26.1121 Q995.861 26.1121 999.872 30.9732 Q1003.88 35.7938 1003.88 45.1919 Z" fill="#000000" fill-rule="evenodd" fill-opacity="1" /><path clip-path="url(#clip3400)" d="M 0 0 M1029.28 32.4315 Q1023.29 32.4315 1019.8 37.1306 Q1016.32 41.7891 1016.32 49.9314 Q1016.32 58.0738 1019.76 62.7728 Q1023.25 67.4314 1029.28 67.4314 Q1035.24 67.4314 1038.72 62.7323 Q1042.2 58.0333 1042.2 49.9314 Q1042.2 41.8701 1038.72 37.1711 Q1035.24 32.4315 1029.28 32.4315 M1029.28 26.1121 Q1039 26.1121 1044.55 32.4315 Q1050.1 38.7509 1050.1 49.9314 Q1050.1 61.0714 1044.55 67.4314 Q1039 73.7508 1029.28 73.7508 Q1019.52 73.7508 1013.97 67.4314 Q1008.46 61.0714 1008.46 49.9314 Q1008.46 38.7509 1013.97 32.4315 Q1019.52 26.1121 1029.28 26.1121 Z" fill="#000000" fill-rule="evenodd" fill-opacity="1" /><path clip-path="url(#clip3400)" d="M 0 0 M1052.57 27.2059 L1060.47 27.2059 L1074.65 65.2844 L1088.83 27.2059 L1096.73 27.2059 L1079.72 72.576 L1069.59 72.576 L1052.57 27.2059 Z" fill="#000000" fill-rule="evenodd" fill-opacity="1" /><path clip-path="url(#clip3400)" d="M 0 0 M1143.35 48.0275 L1143.35 51.6733 L1109.08 51.6733 Q1109.57 59.3701 1113.7 63.421 Q1117.87 67.4314 1125.29 67.4314 Q1129.58 67.4314 1133.59 66.3781 Q1137.64 65.3249 1141.61 63.2184 L1141.61 70.267 Q1137.6 71.9684 1133.39 72.8596 Q1129.18 73.7508 1124.84 73.7508 Q1113.99 73.7508 1107.63 67.4314 Q1101.31 61.1119 1101.31 50.3365 Q1101.31 39.1965 1107.3 32.6746 Q1113.34 26.1121 1123.55 26.1121 Q1132.7 26.1121 1138.01 32.0264 Q1143.35 37.9003 1143.35 48.0275 M1135.9 45.84 Q1135.82 39.7232 1132.46 36.0774 Q1129.14 32.4315 1123.63 32.4315 Q1117.39 32.4315 1113.62 35.9558 Q1109.89 39.4801 1109.33 45.8805 L1135.9 45.84 Z" fill="#000000" fill-rule="evenodd" fill-opacity="1" /><path clip-path="url(#clip3400)" d="M 0 0 M1177.46 34.1734 Q1176.21 33.4443 1174.71 33.1202 Q1173.25 32.7556 1171.47 32.7556 Q1165.15 32.7556 1161.75 36.8875 Q1158.38 40.9789 1158.38 48.6757 L1158.38 72.576 L1150.89 72.576 L1150.89 27.2059 L1158.38 27.2059 L1158.38 34.2544 Q1160.73 30.1225 1164.5 28.1376 Q1168.27 26.1121 1173.66 26.1121 Q1174.43 26.1121 1175.36 26.2337 Q1176.29 26.3147 1177.42 26.5172 L1177.46 34.1734 Z" fill="#000000" fill-rule="evenodd" fill-opacity="1" /><path clip-path="url(#clip3400)" d="M 0 0 M1176.21 46.5287 L1198.04 46.5287 L1198.04 53.1722 L1176.21 53.1722 L1176.21 46.5287 Z" fill="#000000" fill-rule="evenodd" fill-opacity="1" /><path clip-path="url(#clip3400)" d="M 0 0 M1208.33 65.6895 L1221.7 65.6895 L1221.7 19.5497 L1207.16 22.4663 L1207.16 15.0127 L1221.62 12.096 L1229.8 12.096 L1229.8 65.6895 L1243.17 65.6895 L1243.17 72.576 L1208.33 72.576 L1208.33 65.6895 Z" fill="#000000" fill-rule="evenodd" fill-opacity="1" /><path clip-path="url(#clip3400)" d="M 0 0 M1269.54 17.4837 Q1263.22 17.4837 1260.02 23.7221 Q1256.86 29.92 1256.86 42.3968 Q1256.86 54.833 1260.02 61.0714 Q1263.22 67.2693 1269.54 67.2693 Q1275.9 67.2693 1279.06 61.0714 Q1282.26 54.833 1282.26 42.3968 Q1282.26 29.92 1279.06 23.7221 Q1275.9 17.4837 1269.54 17.4837 M1269.54 11.0023 Q1279.71 11.0023 1285.06 19.0636 Q1290.44 27.0843 1290.44 42.3968 Q1290.44 57.6687 1285.06 65.73 Q1279.71 73.7508 1269.54 73.7508 Q1259.37 73.7508 1253.98 65.73 Q1248.64 57.6687 1248.64 42.3968 Q1248.64 27.0843 1253.98 19.0636 Q1259.37 11.0023 1269.54 11.0023 Z" fill="#000000" fill-rule="evenodd" fill-opacity="1" /><path clip-path="url(#clip3400)" d="M 0 0 M1320.87 46.5287 L1342.7 46.5287 L1342.7 53.1722 L1320.87 53.1722 L1320.87 46.5287 Z" fill="#000000" fill-rule="evenodd" fill-opacity="1" /><path clip-path="url(#clip3400)" d="M 0 0 M1397.43 20.1573 L1386.33 50.2555 L1408.57 50.2555 L1397.43 20.1573 M1392.81 12.096 L1402.09 12.096 L1425.14 72.576 L1416.63 72.576 L1411.12 57.061 L1383.86 57.061 L1378.35 72.576 L1369.72 72.576 L1392.81 12.096 Z" fill="#000000" fill-rule="evenodd" fill-opacity="1" /><path clip-path="url(#clip3400)" d="M 0 0 M1462.81 49.3643 Q1462.81 41.2625 1459.45 36.8065 Q1456.13 32.3505 1450.09 32.3505 Q1444.09 32.3505 1440.73 36.8065 Q1437.41 41.2625 1437.41 49.3643 Q1437.41 57.4256 1440.73 61.8816 Q1444.09 66.3376 1450.09 66.3376 Q1456.13 66.3376 1459.45 61.8816 Q1462.81 57.4256 1462.81 49.3643 M1470.26 66.9452 Q1470.26 78.5308 1465.12 84.1616 Q1459.97 89.8329 1449.36 89.8329 Q1445.43 89.8329 1441.95 89.2252 Q1438.46 88.6581 1435.18 87.4428 L1435.18 80.1917 Q1438.46 81.9741 1441.66 82.8248 Q1444.86 83.6755 1448.19 83.6755 Q1455.52 83.6755 1459.16 79.8271 Q1462.81 76.0193 1462.81 68.282 L1462.81 64.5957 Q1460.5 68.6061 1456.89 70.5911 Q1453.29 72.576 1448.27 72.576 Q1439.92 72.576 1434.82 66.2161 Q1429.71 59.8562 1429.71 49.3643 Q1429.71 38.832 1434.82 32.472 Q1439.92 26.1121 1448.27 26.1121 Q1453.29 26.1121 1456.89 28.0971 Q1460.5 30.082 1462.81 34.0924 L1462.81 27.2059 L1470.26 27.2059 L1470.26 66.9452 Z" fill="#000000" fill-rule="evenodd" fill-opacity="1" /><path clip-path="url(#clip3400)" d="M 0 0 M1516.89 48.0275 L1516.89 51.6733 L1482.62 51.6733 Q1483.1 59.3701 1487.24 63.421 Q1491.41 67.4314 1498.82 67.4314 Q1503.12 67.4314 1507.13 66.3781 Q1511.18 65.3249 1515.15 63.2184 L1515.15 70.267 Q1511.14 71.9684 1506.92 72.8596 Q1502.71 73.7508 1498.38 73.7508 Q1487.52 73.7508 1481.16 67.4314 Q1474.84 61.1119 1474.84 50.3365 Q1474.84 39.1965 1480.84 32.6746 Q1486.87 26.1121 1497.08 26.1121 Q1506.23 26.1121 1511.54 32.0264 Q1516.89 37.9003 1516.89 48.0275 M1509.43 45.84 Q1509.35 39.7232 1505.99 36.0774 Q1502.67 32.4315 1497.16 32.4315 Q1490.92 32.4315 1487.16 35.9558 Q1483.43 39.4801 1482.86 45.8805 L1509.43 45.84 Z" fill="#000000" fill-rule="evenodd" fill-opacity="1" /><path clip-path="url(#clip3400)" d="M 0 0 M1562.42 45.1919 L1562.42 72.576 L1554.97 72.576 L1554.97 45.4349 Q1554.97 38.994 1552.46 35.7938 Q1549.94 32.5936 1544.92 32.5936 Q1538.89 32.5936 1535.4 36.4419 Q1531.92 40.2903 1531.92 46.9338 L1531.92 72.576 L1524.42 72.576 L1524.42 27.2059 L1531.92 27.2059 L1531.92 34.2544 Q1534.59 30.163 1538.2 28.1376 Q1541.84 26.1121 1546.58 26.1121 Q1554.4 26.1121 1558.41 30.9732 Q1562.42 35.7938 1562.42 45.1919 Z" fill="#000000" fill-rule="evenodd" fill-opacity="1" /><path clip-path="url(#clip3400)" d="M 0 0 M1577.61 14.324 L1577.61 27.2059 L1592.96 27.2059 L1592.96 32.9987 L1577.61 32.9987 L1577.61 57.6282 Q1577.61 63.1779 1579.11 64.7578 Q1580.65 66.3376 1585.31 66.3376 L1592.96 66.3376 L1592.96 72.576 L1585.31 72.576 Q1576.68 72.576 1573.4 69.3758 Q1570.12 66.1351 1570.12 57.6282 L1570.12 32.9987 L1564.65 32.9987 L1564.65 27.2059 L1570.12 27.2059 L1570.12 14.324 L1577.61 14.324 Z" fill="#000000" fill-rule="evenodd" fill-opacity="1" /><path clip-path="url(#clip3400)" d="M 0 0 M1643.07 72.576 L1619.98 12.096 L1628.53 12.096 L1647.69 63.0159 L1666.89 12.096 L1675.4 12.096 L1652.35 72.576 L1643.07 72.576 Z" fill="#000000" fill-rule="evenodd" fill-opacity="1" /><path clip-path="url(#clip3400)" d="M 0 0 M1715.59 48.0275 L1715.59 51.6733 L1681.31 51.6733 Q1681.8 59.3701 1685.93 63.421 Q1690.11 67.4314 1697.52 67.4314 Q1701.81 67.4314 1705.82 66.3781 Q1709.87 65.3249 1713.84 63.2184 L1713.84 70.267 Q1709.83 71.9684 1705.62 72.8596 Q1701.41 73.7508 1697.07 73.7508 Q1686.22 73.7508 1679.86 67.4314 Q1673.54 61.1119 1673.54 50.3365 Q1673.54 39.1965 1679.53 32.6746 Q1685.57 26.1121 1695.78 26.1121 Q1704.93 26.1121 1710.24 32.0264 Q1715.59 37.9003 1715.59 48.0275 M1708.13 45.84 Q1708.05 39.7232 1704.69 36.0774 Q1701.37 32.4315 1695.86 32.4315 Q1689.62 32.4315 1685.85 35.9558 Q1682.13 39.4801 1681.56 45.8805 L1708.13 45.84 Z" fill="#000000" fill-rule="evenodd" fill-opacity="1" /><path clip-path="url(#clip3400)" d="M 0 0 M1723.4 9.54393 L1730.86 9.54393 L1730.86 72.576 L1723.4 72.576 L1723.4 9.54393 Z" fill="#000000" fill-rule="evenodd" fill-opacity="1" /><path clip-path="url(#clip3400)" d="M 0 0 M1756.26 32.4315 Q1750.26 32.4315 1746.78 37.1306 Q1743.29 41.7891 1743.29 49.9314 Q1743.29 58.0738 1746.74 62.7728 Q1750.22 67.4314 1756.26 67.4314 Q1762.21 67.4314 1765.7 62.7323 Q1769.18 58.0333 1769.18 49.9314 Q1769.18 41.8701 1765.7 37.1711 Q1762.21 32.4315 1756.26 32.4315 M1756.26 26.1121 Q1765.98 26.1121 1771.53 32.4315 Q1777.08 38.7509 1777.08 49.9314 Q1777.08 61.0714 1771.53 67.4314 Q1765.98 73.7508 1756.26 73.7508 Q1746.49 73.7508 1740.94 67.4314 Q1735.43 61.0714 1735.43 49.9314 Q1735.43 38.7509 1740.94 32.4315 Q1746.49 26.1121 1756.26 26.1121 Z" fill="#000000" fill-rule="evenodd" fill-opacity="1" /><path clip-path="url(#clip3400)" d="M 0 0 M1817.55 28.9478 L1817.55 35.9153 Q1814.39 34.1734 1811.19 33.3227 Q1808.03 32.4315 1804.79 32.4315 Q1797.54 32.4315 1793.52 37.0496 Q1789.51 41.6271 1789.51 49.9314 Q1789.51 58.2358 1793.52 62.8538 Q1797.54 67.4314 1804.79 67.4314 Q1808.03 67.4314 1811.19 66.5807 Q1814.39 65.6895 1817.55 63.9476 L1817.55 70.8341 Q1814.43 72.2924 1811.07 73.0216 Q1807.74 73.7508 1803.98 73.7508 Q1793.73 73.7508 1787.69 67.3098 Q1781.66 60.8689 1781.66 49.9314 Q1781.66 38.832 1787.73 32.472 Q1793.85 26.1121 1804.46 26.1121 Q1807.91 26.1121 1811.19 26.8413 Q1814.47 27.5299 1817.55 28.9478 Z" fill="#000000" fill-rule="evenodd" fill-opacity="1" /><path clip-path="url(#clip3400)" d="M 0 0 M1825.36 27.2059 L1832.82 27.2059 L1832.82 72.576 L1825.36 72.576 L1825.36 27.2059 M1825.36 9.54393 L1832.82 9.54393 L1832.82 18.9825 L1825.36 18.9825 L1825.36 9.54393 Z" fill="#000000" fill-rule="evenodd" fill-opacity="1" /><path clip-path="url(#clip3400)" d="M 0 0 M1848.01 14.324 L1848.01 27.2059 L1863.36 27.2059 L1863.36 32.9987 L1848.01 32.9987 L1848.01 57.6282 Q1848.01 63.1779 1849.51 64.7578 Q1851.05 66.3376 1855.71 66.3376 L1863.36 66.3376 L1863.36 72.576 L1855.71 72.576 Q1847.08 72.576 1843.8 69.3758 Q1840.52 66.1351 1840.52 57.6282 L1840.52 32.9987 L1835.05 32.9987 L1835.05 27.2059 L1840.52 27.2059 L1840.52 14.324 L1848.01 14.324 Z" fill="#000000" fill-rule="evenodd" fill-opacity="1" /><path clip-path="url(#clip3400)" d="M 0 0 M1890.06 76.7889 Q1886.9 84.8907 1883.9 87.3618 Q1880.9 89.8329 1875.88 89.8329 L1869.92 89.8329 L1869.92 83.5945 L1874.3 83.5945 Q1877.38 83.5945 1879.08 82.1361 Q1880.78 80.6778 1882.85 75.2496 L1884.18 71.8468 L1865.83 27.2059 L1873.73 27.2059 L1887.91 62.6918 L1902.09 27.2059 L1909.99 27.2059 L1890.06 76.7889 Z" fill="#000000" fill-rule="evenodd" fill-opacity="1" /><path clip-path="url(#clip3400)" d="M 0 0 M1319.77 2298.26 L1359.97 2298.26 L1359.97 2303.67 L1343.1 2303.67 L1343.1 2345.78 L1336.64 2345.78 L1336.64 2303.67 L1319.77 2303.67 L1319.77 2298.26 Z" fill="#000000" fill-rule="evenodd" fill-opacity="1" /><path clip-path="url(#clip3400)" d="M 0 0 M1364.11 2310.14 L1369.97 2310.14 L1369.97 2345.78 L1364.11 2345.78 L1364.11 2310.14 M1364.11 2296.26 L1369.97 2296.26 L1369.97 2303.67 L1364.11 2303.67 L1364.11 2296.26 Z" fill="#000000" fill-rule="evenodd" fill-opacity="1" /><path clip-path="url(#clip3400)" d="M 0 0 M1403.86 2316.98 Q1406.06 2313.03 1409.12 2311.15 Q1412.17 2309.28 1416.31 2309.28 Q1421.88 2309.28 1424.9 2313.19 Q1427.93 2317.07 1427.93 2324.27 L1427.93 2345.78 L1422.04 2345.78 L1422.04 2324.46 Q1422.04 2319.33 1420.22 2316.85 Q1418.41 2314.37 1414.69 2314.37 Q1410.13 2314.37 1407.49 2317.39 Q1404.85 2320.42 1404.85 2325.64 L1404.85 2345.78 L1398.96 2345.78 L1398.96 2324.46 Q1398.96 2319.3 1397.15 2316.85 Q1395.33 2314.37 1391.55 2314.37 Q1387.06 2314.37 1384.42 2317.42 Q1381.78 2320.45 1381.78 2325.64 L1381.78 2345.78 L1375.89 2345.78 L1375.89 2310.14 L1381.78 2310.14 L1381.78 2315.67 Q1383.78 2312.4 1386.58 2310.84 Q1389.38 2309.28 1393.23 2309.28 Q1397.12 2309.28 1399.82 2311.25 Q1402.56 2313.22 1403.86 2316.98 Z" fill="#000000" fill-rule="evenodd" fill-opacity="1" /><path clip-path="url(#clip3400)" d="M 0 0 M1464.56 2326.5 L1464.56 2329.36 L1437.63 2329.36 Q1438.02 2335.41 1441.26 2338.59 Q1444.54 2341.74 1450.37 2341.74 Q1453.74 2341.74 1456.89 2340.91 Q1460.07 2340.09 1463.19 2338.43 L1463.19 2343.97 Q1460.04 2345.31 1456.73 2346.01 Q1453.42 2346.71 1450.02 2346.71 Q1441.49 2346.71 1436.49 2341.74 Q1431.52 2336.78 1431.52 2328.31 Q1431.52 2319.56 1436.23 2314.43 Q1440.98 2309.28 1449 2309.28 Q1456.19 2309.28 1460.36 2313.92 Q1464.56 2318.54 1464.56 2326.5 M1458.7 2324.78 Q1458.64 2319.97 1456 2317.11 Q1453.39 2314.24 1449.06 2314.24 Q1444.16 2314.24 1441.2 2317.01 Q1438.27 2319.78 1437.83 2324.81 L1458.7 2324.78 Z" fill="#000000" fill-rule="evenodd" fill-opacity="1" /><path clip-path="url(#clip3400)" d="M 0 0 M1505.49 2296.32 Q1501.23 2303.64 1499.16 2310.8 Q1497.09 2317.97 1497.09 2325.32 Q1497.09 2332.67 1499.16 2339.9 Q1501.26 2347.09 1505.49 2354.38 L1500.4 2354.38 Q1495.63 2346.9 1493.24 2339.67 Q1490.88 2332.45 1490.88 2325.32 Q1490.88 2318.22 1493.24 2311.03 Q1495.59 2303.83 1500.4 2296.32 L1505.49 2296.32 Z" fill="#000000" fill-rule="evenodd" fill-opacity="1" /><path clip-path="url(#clip3400)" d="M 0 0 M1534.36 2311.19 L1534.36 2316.72 Q1531.88 2315.45 1529.2 2314.81 Q1526.53 2314.18 1523.67 2314.18 Q1519.31 2314.18 1517.11 2315.51 Q1514.95 2316.85 1514.95 2319.53 Q1514.95 2321.56 1516.51 2322.74 Q1518.06 2323.89 1522.78 2324.94 L1524.78 2325.38 Q1531.02 2326.72 1533.63 2329.17 Q1536.27 2331.59 1536.27 2335.95 Q1536.27 2340.91 1532.32 2343.81 Q1528.41 2346.71 1521.53 2346.71 Q1518.67 2346.71 1515.55 2346.13 Q1512.46 2345.59 1509.03 2344.48 L1509.03 2338.43 Q1512.27 2340.12 1515.42 2340.98 Q1518.57 2341.81 1521.66 2341.81 Q1525.8 2341.81 1528.03 2340.4 Q1530.26 2338.97 1530.26 2336.39 Q1530.26 2334.01 1528.63 2332.73 Q1527.04 2331.46 1521.6 2330.28 L1519.56 2329.81 Q1514.12 2328.66 1511.7 2326.3 Q1509.28 2323.92 1509.28 2319.78 Q1509.28 2314.75 1512.84 2312.01 Q1516.41 2309.28 1522.97 2309.28 Q1526.21 2309.28 1529.08 2309.75 Q1531.94 2310.23 1534.36 2311.19 Z" fill="#000000" fill-rule="evenodd" fill-opacity="1" /><path clip-path="url(#clip3400)" d="M 0 0 M1541.49 2296.32 L1546.58 2296.32 Q1551.36 2303.83 1553.71 2311.03 Q1556.1 2318.22 1556.1 2325.32 Q1556.1 2332.45 1553.71 2339.67 Q1551.36 2346.9 1546.58 2354.38 L1541.49 2354.38 Q1545.72 2347.09 1547.79 2339.9 Q1549.89 2332.67 1549.89 2325.32 Q1549.89 2317.97 1547.79 2310.8 Q1545.72 2303.64 1541.49 2296.32 Z" fill="#000000" fill-rule="evenodd" fill-opacity="1" /><path clip-path="url(#clip3400)" d="M 0 0 M42.7847 1277.53 Q42.7847 1284.53 48.0045 1288.67 Q53.2244 1292.78 62.2319 1292.78 Q71.2075 1292.78 76.4274 1288.67 Q81.6473 1284.53 81.6473 1277.53 Q81.6473 1270.53 76.4274 1266.45 Q71.2075 1262.35 62.2319 1262.35 Q53.2244 1262.35 48.0045 1266.45 Q42.7847 1270.53 42.7847 1277.53 M85.0848 1268.52 L94.3469 1260.06 L94.3469 1267.82 L86.7399 1274.86 Q86.8035 1275.91 86.8354 1276.48 Q86.8672 1277.02 86.8672 1277.53 Q86.8672 1287.56 80.1832 1293.57 Q73.4674 1299.56 62.2319 1299.56 Q50.9646 1299.56 44.2806 1293.57 Q37.5648 1287.56 37.5648 1277.53 Q37.5648 1267.54 44.2806 1261.55 Q50.9646 1255.57 62.2319 1255.57 Q70.5073 1255.57 76.3956 1258.91 Q82.2839 1262.22 85.0848 1268.52 Z" fill="#000000" fill-rule="evenodd" fill-opacity="1" /><path clip-path="url(#clip3400)" d="M 0 0 M36.419 1274.86 L36.419 1269 L43.835 1269 L43.835 1274.86 L36.419 1274.86 M49.4368 1271.86 L49.4368 1271.86 Z" fill="#000000" fill-rule="evenodd" fill-opacity="1" /><path clip-path="url(#clip3400)" d="M 0 0 M71.5577 1252.32 Q72.1306 1249.39 73.8811 1247.8 Q75.5999 1246.18 78.2098 1246.18 Q82.1566 1246.18 84.2891 1249.2 Q86.4216 1252.23 86.4216 1257.86 Q86.4216 1259.67 86.0715 1261.68 Q85.7532 1263.65 85.1166 1265.88 L81.2654 1265.88 Q82.1247 1264.23 82.5385 1262.35 Q82.9523 1260.44 82.9523 1258.31 Q82.9523 1254.84 81.711 1252.93 Q80.4378 1251.02 78.2098 1251.02 Q75.8545 1251.02 74.645 1252.8 Q73.4355 1254.55 73.4355 1257.99 L73.4355 1260.72 L69.9981 1260.72 L69.9981 1257.73 Q69.9981 1254.74 69.0114 1253.21 Q67.9929 1251.65 66.0832 1251.65 Q64.2371 1251.65 63.2822 1253.24 Q62.2956 1254.84 62.2956 1257.86 Q62.2956 1259.13 62.582 1260.76 Q62.8685 1262.38 63.6005 1264.96 L59.9402 1264.96 Q59.3992 1262.63 59.1127 1260.6 Q58.8262 1258.56 58.8262 1256.81 Q58.8262 1252.23 60.7041 1249.55 Q62.582 1246.85 65.733 1246.85 Q67.9292 1246.85 69.457 1248.28 Q70.9847 1249.71 71.5577 1252.32 Z" fill="#000000" fill-rule="evenodd" fill-opacity="1" /><path clip-path="url(#clip3400)" d="M 0 0 M36.4826 1205.25 Q43.8032 1209.51 50.9646 1211.58 Q58.126 1213.65 65.4784 1213.65 Q72.8308 1213.65 80.0559 1211.58 Q87.2491 1209.48 94.5379 1205.25 L94.5379 1210.34 Q87.0582 1215.11 79.8331 1217.5 Q72.608 1219.86 65.4784 1219.86 Q58.3806 1219.86 51.1874 1217.5 Q43.9942 1215.15 36.4826 1210.34 L36.4826 1205.25 Z" fill="#000000" fill-rule="evenodd" fill-opacity="1" /><path clip-path="url(#clip3400)" d="M 0 0 M55.7707 1178.45 Q55.1978 1179.43 54.9432 1180.61 Q54.6567 1181.76 54.6567 1183.16 Q54.6567 1188.12 57.9032 1190.8 Q61.1179 1193.44 67.1653 1193.44 L85.9442 1193.44 L85.9442 1199.33 L50.2962 1199.33 L50.2962 1193.44 L55.8344 1193.44 Q52.5879 1191.59 51.0283 1188.63 Q49.4368 1185.67 49.4368 1181.44 Q49.4368 1180.83 49.5323 1180.1 Q49.596 1179.37 49.7551 1178.48 L55.7707 1178.45 Z" fill="#000000" fill-rule="evenodd" fill-opacity="1" /><path clip-path="url(#clip3400)" d="M 0 0 M68.0247 1156.1 Q68.0247 1163.2 69.6479 1165.94 Q71.2712 1168.68 75.1861 1168.68 Q78.3053 1168.68 80.1514 1166.64 Q81.9656 1164.57 81.9656 1161.04 Q81.9656 1156.17 78.5281 1153.24 Q75.0588 1150.28 69.3297 1150.28 L68.0247 1150.28 L68.0247 1156.1 M65.6057 1144.42 L85.9442 1144.42 L85.9442 1150.28 L80.5333 1150.28 Q83.7798 1152.28 85.3394 1155.28 Q86.8672 1158.27 86.8672 1162.6 Q86.8672 1168.07 83.8116 1171.32 Q80.7243 1174.53 75.5681 1174.53 Q69.5525 1174.53 66.4969 1170.52 Q63.4414 1166.48 63.4414 1158.49 L63.4414 1150.28 L62.8685 1150.28 Q58.8262 1150.28 56.6301 1152.95 Q54.4021 1155.59 54.4021 1160.4 Q54.4021 1163.46 55.1341 1166.35 Q55.8662 1169.25 57.3303 1171.92 L51.9195 1171.92 Q50.6781 1168.71 50.0734 1165.68 Q49.4368 1162.66 49.4368 1159.8 Q49.4368 1152.06 53.4472 1148.24 Q57.4576 1144.42 65.6057 1144.42 Z" fill="#000000" fill-rule="evenodd" fill-opacity="1" /><path clip-path="url(#clip3400)" d="M 0 0 M55.7071 1114.82 L36.419 1114.82 L36.419 1108.97 L85.9442 1108.97 L85.9442 1114.82 L80.597 1114.82 Q83.7798 1116.67 85.3394 1119.5 Q86.8672 1122.3 86.8672 1126.25 Q86.8672 1132.71 81.711 1136.78 Q76.5547 1140.83 68.152 1140.83 Q59.7493 1140.83 54.5931 1136.78 Q49.4368 1132.71 49.4368 1126.25 Q49.4368 1122.3 50.9964 1119.5 Q52.5242 1116.67 55.7071 1114.82 M68.152 1134.78 Q74.6132 1134.78 78.3053 1132.14 Q81.9656 1129.46 81.9656 1124.82 Q81.9656 1120.17 78.3053 1117.5 Q74.6132 1114.82 68.152 1114.82 Q61.6908 1114.82 58.0305 1117.5 Q54.3384 1120.17 54.3384 1124.82 Q54.3384 1129.46 58.0305 1132.14 Q61.6908 1134.78 68.152 1134.78 Z" fill="#000000" fill-rule="evenodd" fill-opacity="1" /><path clip-path="url(#clip3400)" d="M 0 0 M38.4242 1092.42 L38.4242 1087 L91.9916 1103.56 L91.9916 1108.97 L38.4242 1092.42 Z" fill="#000000" fill-rule="evenodd" fill-opacity="1" /><path clip-path="url(#clip3400)" d="M 0 0 M51.3465 1058.14 L56.8847 1058.14 Q55.6116 1060.62 54.975 1063.29 Q54.3384 1065.97 54.3384 1068.83 Q54.3384 1073.19 55.6752 1075.39 Q57.012 1077.55 59.6856 1077.55 Q61.7226 1077.55 62.9003 1075.99 Q64.0461 1074.43 65.0965 1069.72 L65.5421 1067.72 Q66.8789 1061.48 69.3297 1058.87 Q71.7486 1056.23 76.1091 1056.23 Q81.0744 1056.23 83.9708 1060.17 Q86.8672 1064.09 86.8672 1070.96 Q86.8672 1073.83 86.2943 1076.95 Q85.7532 1080.03 84.6392 1083.47 L78.5918 1083.47 Q80.2787 1080.22 81.138 1077.07 Q81.9656 1073.92 81.9656 1070.84 Q81.9656 1066.7 80.5651 1064.47 Q79.1329 1062.24 76.5547 1062.24 Q74.1676 1062.24 72.8945 1063.86 Q71.6213 1065.46 70.4437 1070.9 L69.9662 1072.94 Q68.8204 1078.38 66.4651 1080.8 Q64.078 1083.22 59.9402 1083.22 Q54.9113 1083.22 52.1741 1079.65 Q49.4368 1076.09 49.4368 1069.53 Q49.4368 1066.28 49.9143 1063.42 Q50.3917 1060.55 51.3465 1058.14 Z" fill="#000000" fill-rule="evenodd" fill-opacity="1" /><path clip-path="url(#clip3400)" d="M 0 0 M36.4826 1051.01 L36.4826 1045.91 Q43.9942 1041.14 51.1874 1038.78 Q58.3806 1036.4 65.4784 1036.4 Q72.608 1036.4 79.8331 1038.78 Q87.0582 1041.14 94.5379 1045.91 L94.5379 1051.01 Q87.2491 1046.77 80.0559 1044.7 Q72.8308 1042.6 65.4784 1042.6 Q58.126 1042.6 50.9646 1044.7 Q43.8032 1046.77 36.4826 1051.01 Z" fill="#000000" fill-rule="evenodd" fill-opacity="1" /><polyline clip-path="url(#clip3402)" style="stroke:#009af9; stroke-width:16; stroke-opacity:1; fill:none" points="
  307.271,1461.83 329.884,1461.98 352.498,1462.01 375.111,1461.98 397.724,1461.98 420.338,1461.98 442.951,1461.98 465.564,1461.98 488.178,1461.99 510.791,1461.99 
  533.404,1462 556.018,1462 578.631,1462 601.244,1462 623.857,1462 646.471,1462 669.084,1461.99 691.697,1461.98 714.311,1461.98 736.924,1461.97 
  759.537,1461.96 782.151,1461.95 804.764,1461.95 827.377,1461.94 849.991,1461.93 872.604,1461.93 895.217,1461.92 917.83,1461.91 940.444,1461.91 963.057,1461.9 
  985.67,1461.9 1008.28,1461.89 1030.9,1461.89 1053.51,1461.84 1076.12,1461.88 1098.74,1461.88 1121.35,1461.88 1143.96,1461.88 1166.58,1461.87 1189.19,1461.87 
  1211.8,1461.87 1234.42,1461.87 1257.03,1461.86 1279.64,1461.86 1302.26,1461.86 1324.87,1461.86 1347.48,1461.86 1370.1,1461.85 1392.71,1461.85 1415.32,1461.85 
  1437.94,1461.85 1460.55,1461.85 1483.16,1461.85 1505.78,1461.85 1528.39,1461.85 1551,1461.84 1573.62,1461.84 1596.23,1461.84 1618.84,1461.84 1641.46,1461.84 
  1664.07,1461.84 1686.68,1461.84 1709.3,1461.84 1731.91,1461.84 1754.52,1461.84 1777.14,1461.84 1799.75,1461.84 1822.36,1461.84 1844.98,1461.83 1867.59,1461.83 
  1890.2,1461.83 1912.82,1461.83 1935.43,1461.83 1958.04,1461.83 1980.66,1461.83 2003.27,1461.83 2025.88,1461.83 2048.5,1461.83 2071.11,1461.83 2093.72,1461.83 
  2116.34,1461.83 2138.95,1461.83 2161.56,1461.83 2184.18,1461.83 2206.79,1461.83 2229.4,1461.83 2252.02,1461.83 2274.63,1461.83 2297.24,1461.83 2319.86,1461.83 
  2342.47,1461.83 2365.08,1461.83 2387.7,1461.83 2410.31,1461.83 2432.92,1461.83 2455.54,1461.83 2478.15,1461.83 2500.76,1461.83 2523.38,1461.83 2545.99,1461.83 
  2568.6,1461.83 
  "/>
<polyline clip-path="url(#clip3402)" style="stroke:#e26f46; stroke-width:16; stroke-opacity:1; fill:none" points="
  307.271,1461.83 329.884,1465.09 352.498,1467.75 375.111,1466.02 397.724,1465.35 420.338,1464.97 442.951,1464.67 465.564,1464.45 488.178,1464.26 510.791,1464.1 
  533.404,1463.96 556.018,1463.84 578.631,1463.72 601.244,1463.62 623.857,1463.52 646.471,1463.43 669.084,1463.34 691.697,1463.25 714.311,1463.17 736.924,1463.09 
  759.537,1463.02 782.151,1462.94 804.764,1462.88 827.377,1462.81 849.991,1462.74 872.604,1462.67 895.217,1462.61 917.83,1462.52 940.444,1462.45 963.057,1462.36 
  985.67,1462.28 1008.28,1462.18 1030.9,1462.15 1053.51,1461.86 1076.12,1462.03 1098.74,1462.02 1121.35,1461.99 1143.96,1461.96 1166.58,1461.94 1189.19,1461.91 
  1211.8,1461.9 1234.42,1461.88 1257.03,1461.87 1279.64,1461.87 1302.26,1461.86 1324.87,1461.85 1347.48,1461.85 1370.1,1461.85 1392.71,1461.85 1415.32,1461.85 
  1437.94,1461.85 1460.55,1461.85 1483.16,1461.85 1505.78,1461.85 1528.39,1461.85 1551,1461.85 1573.62,1461.85 1596.23,1461.85 1618.84,1461.85 1641.46,1461.85 
  1664.07,1461.85 1686.68,1461.85 1709.3,1461.85 1731.91,1461.85 1754.52,1461.84 1777.14,1461.84 1799.75,1461.84 1822.36,1461.84 1844.98,1461.84 1867.59,1461.84 
  1890.2,1461.84 1912.82,1461.84 1935.43,1461.84 1958.04,1461.84 1980.66,1461.84 2003.27,1461.83 2025.88,1461.83 2048.5,1461.83 2071.11,1461.83 2093.72,1461.83 
  2116.34,1461.83 2138.95,1461.83 2161.56,1461.83 2184.18,1461.83 2206.79,1461.83 2229.4,1461.83 2252.02,1461.83 2274.63,1461.83 2297.24,1461.83 2319.86,1461.83 
  2342.47,1461.83 2365.08,1461.83 2387.7,1461.83 2410.31,1461.83 2432.92,1461.83 2455.54,1461.83 2478.15,1461.83 2500.76,1461.83 2523.38,1461.83 2545.99,1461.83 
  2568.6,1461.83 
  "/>
<polyline clip-path="url(#clip3402)" style="stroke:#3da44d; stroke-width:16; stroke-opacity:1; fill:none" points="
  307.271,1461.83 329.884,1456.92 352.498,1456.56 375.111,1457.4 397.724,1458.09 420.338,1458.49 442.951,1458.85 465.564,1459.1 488.178,1459.31 510.791,1459.48 
  533.404,1459.63 556.018,1459.78 578.631,1459.93 601.244,1460.07 623.857,1460.22 646.471,1460.35 669.084,1460.49 691.697,1460.61 714.311,1460.72 736.924,1460.81 
  759.537,1460.9 782.151,1460.97 804.764,1461.03 827.377,1461.09 849.991,1461.14 872.604,1461.2 895.217,1461.25 917.83,1461.31 940.444,1461.38 963.057,1461.43 
  985.67,1461.51 1008.28,1461.54 1030.9,1461.59 1053.51,1461.81 1076.12,1461.69 1098.74,1461.68 1121.35,1461.73 1143.96,1461.75 1166.58,1461.79 1189.19,1461.8 
  1211.8,1461.82 1234.42,1461.83 1257.03,1461.84 1279.64,1461.85 1302.26,1461.85 1324.87,1461.85 1347.48,1461.85 1370.1,1461.85 1392.71,1461.85 1415.32,1461.85 
  1437.94,1461.84 1460.55,1461.84 1483.16,1461.84 1505.78,1461.84 1528.39,1461.83 1551,1461.83 1573.62,1461.83 1596.23,1461.83 1618.84,1461.83 1641.46,1461.83 
  1664.07,1461.83 1686.68,1461.83 1709.3,1461.83 1731.91,1461.83 1754.52,1461.83 1777.14,1461.83 1799.75,1461.83 1822.36,1461.83 1844.98,1461.83 1867.59,1461.83 
  1890.2,1461.83 1912.82,1461.83 1935.43,1461.83 1958.04,1461.83 1980.66,1461.83 2003.27,1461.83 2025.88,1461.83 2048.5,1461.83 2071.11,1461.83 2093.72,1461.83 
  2116.34,1461.83 2138.95,1461.83 2161.56,1461.83 2184.18,1461.83 2206.79,1461.83 2229.4,1461.83 2252.02,1461.83 2274.63,1461.83 2297.24,1461.83 2319.86,1461.83 
  2342.47,1461.83 2365.08,1461.83 2387.7,1461.83 2410.31,1461.83 2432.92,1461.83 2455.54,1461.83 2478.15,1461.83 2500.76,1461.83 2523.38,1461.83 2545.99,1461.83 
  2568.6,1461.83 
  "/>
<polyline clip-path="url(#clip3402)" style="stroke:#c271d2; stroke-width:16; stroke-opacity:1; fill:none" points="
  307.271,1461.83 329.884,1448.34 352.498,1445.32 375.111,1448.59 397.724,1450.94 420.338,1452.2 442.951,1453.23 465.564,1454.03 488.178,1454.74 510.791,1455.36 
  533.404,1455.94 556.018,1456.47 578.631,1456.96 601.244,1457.41 623.857,1457.83 646.471,1458.21 669.084,1458.55 691.697,1458.87 714.311,1459.14 736.924,1459.41 
  759.537,1459.62 782.151,1459.85 804.764,1460.01 827.377,1460.2 849.991,1460.32 872.604,1460.5 895.217,1460.59 917.83,1460.79 940.444,1460.86 963.057,1461.12 
  985.67,1461.17 1008.28,1461.56 1030.9,1461.49 1053.51,1461.82 1076.12,1461.74 1098.74,1461.75 1121.35,1461.76 1143.96,1461.76 1166.58,1461.77 1189.19,1461.78 
  1211.8,1461.79 1234.42,1461.8 1257.03,1461.8 1279.64,1461.81 1302.26,1461.81 1324.87,1461.82 1347.48,1461.82 1370.1,1461.82 1392.71,1461.82 1415.32,1461.82 
  1437.94,1461.82 1460.55,1461.82 1483.16,1461.82 1505.78,1461.82 1528.39,1461.82 1551,1461.81 1573.62,1461.81 1596.23,1461.81 1618.84,1461.81 1641.46,1461.81 
  1664.07,1461.81 1686.68,1461.81 1709.3,1461.81 1731.91,1461.82 1754.52,1461.82 1777.14,1461.82 1799.75,1461.82 1822.36,1461.82 1844.98,1461.82 1867.59,1461.82 
  1890.2,1461.82 1912.82,1461.82 1935.43,1461.82 1958.04,1461.82 1980.66,1461.83 2003.27,1461.83 2025.88,1461.83 2048.5,1461.83 2071.11,1461.83 2093.72,1461.83 
  2116.34,1461.83 2138.95,1461.83 2161.56,1461.83 2184.18,1461.83 2206.79,1461.83 2229.4,1461.83 2252.02,1461.83 2274.63,1461.83 2297.24,1461.83 2319.86,1461.83 
  2342.47,1461.83 2365.08,1461.83 2387.7,1461.83 2410.31,1461.83 2432.92,1461.83 2455.54,1461.83 2478.15,1461.83 2500.76,1461.83 2523.38,1461.83 2545.99,1461.83 
  2568.6,1461.83 
  "/>
<polyline clip-path="url(#clip3402)" style="stroke:#ac8d18; stroke-width:16; stroke-opacity:1; fill:none" points="
  307.271,1461.83 329.884,1460.99 352.498,1460.92 375.111,1461.09 397.724,1461.23 420.338,1461.31 442.951,1461.38 465.564,1461.43 488.178,1461.47 510.791,1461.51 
  533.404,1461.54 556.018,1461.57 578.631,1461.6 601.244,1461.63 623.857,1461.66 646.471,1461.68 669.084,1461.7 691.697,1461.72 714.311,1461.73 736.924,1461.74 
  759.537,1461.75 782.151,1461.76 804.764,1461.77 827.377,1461.77 849.991,1461.78 872.604,1461.79 895.217,1461.79 917.83,1461.8 940.444,1461.81 963.057,1461.81 
  985.67,1461.82 1008.28,1461.83 1030.9,1461.84 1053.51,1461.83 1076.12,1461.85 1098.74,1461.85 1121.35,1461.85 1143.96,1461.85 1166.58,1461.86 1189.19,1461.86 
  1211.8,1461.86 1234.42,1461.86 1257.03,1461.86 1279.64,1461.86 1302.26,1461.86 1324.87,1461.86 1347.48,1461.86 1370.1,1461.85 1392.71,1461.85 1415.32,1461.85 
  1437.94,1461.85 1460.55,1461.85 1483.16,1461.85 1505.78,1461.85 1528.39,1461.85 1551,1461.84 1573.62,1461.84 1596.23,1461.84 1618.84,1461.84 1641.46,1461.84 
  1664.07,1461.84 1686.68,1461.84 1709.3,1461.84 1731.91,1461.84 1754.52,1461.84 1777.14,1461.84 1799.75,1461.84 1822.36,1461.83 1844.98,1461.83 1867.59,1461.83 
  1890.2,1461.83 1912.82,1461.83 1935.43,1461.83 1958.04,1461.83 1980.66,1461.83 2003.27,1461.83 2025.88,1461.83 2048.5,1461.83 2071.11,1461.83 2093.72,1461.83 
  2116.34,1461.83 2138.95,1461.83 2161.56,1461.83 2184.18,1461.83 2206.79,1461.83 2229.4,1461.83 2252.02,1461.83 2274.63,1461.83 2297.24,1461.83 2319.86,1461.83 
  2342.47,1461.83 2365.08,1461.83 2387.7,1461.83 2410.31,1461.83 2432.92,1461.83 2455.54,1461.83 2478.15,1461.83 2500.76,1461.83 2523.38,1461.83 2545.99,1461.83 
  2568.6,1461.83 
  "/>
<polyline clip-path="url(#clip3402)" style="stroke:#00a9ad; stroke-width:16; stroke-opacity:1; fill:none" points="
  307.271,1461.83 329.884,1461.17 352.498,1461.16 375.111,1461.25 397.724,1461.33 420.338,1461.39 442.951,1461.43 465.564,1461.47 488.178,1461.49 510.791,1461.51 
  533.404,1461.53 556.018,1461.55 578.631,1461.56 601.244,1461.58 623.857,1461.59 646.471,1461.6 669.084,1461.62 691.697,1461.63 714.311,1461.64 736.924,1461.65 
  759.537,1461.66 782.151,1461.67 804.764,1461.68 827.377,1461.69 849.991,1461.7 872.604,1461.71 895.217,1461.72 917.83,1461.73 940.444,1461.74 963.057,1461.75 
  985.67,1461.76 1008.28,1461.77 1030.9,1461.78 1053.51,1461.82 1076.12,1461.8 1098.74,1461.8 1121.35,1461.81 1143.96,1461.82 1166.58,1461.83 1189.19,1461.83 
  1211.8,1461.84 1234.42,1461.84 1257.03,1461.84 1279.64,1461.84 1302.26,1461.84 1324.87,1461.85 1347.48,1461.85 1370.1,1461.84 1392.71,1461.84 1415.32,1461.84 
  1437.94,1461.84 1460.55,1461.84 1483.16,1461.84 1505.78,1461.84 1528.39,1461.84 1551,1461.84 1573.62,1461.84 1596.23,1461.84 1618.84,1461.84 1641.46,1461.83 
  1664.07,1461.83 1686.68,1461.83 1709.3,1461.83 1731.91,1461.83 1754.52,1461.83 1777.14,1461.83 1799.75,1461.83 1822.36,1461.83 1844.98,1461.83 1867.59,1461.83 
  1890.2,1461.83 1912.82,1461.83 1935.43,1461.83 1958.04,1461.83 1980.66,1461.83 2003.27,1461.83 2025.88,1461.83 2048.5,1461.83 2071.11,1461.83 2093.72,1461.83 
  2116.34,1461.83 2138.95,1461.83 2161.56,1461.83 2184.18,1461.83 2206.79,1461.83 2229.4,1461.83 2252.02,1461.83 2274.63,1461.83 2297.24,1461.83 2319.86,1461.83 
  2342.47,1461.83 2365.08,1461.83 2387.7,1461.83 2410.31,1461.83 2432.92,1461.83 2455.54,1461.83 2478.15,1461.83 2500.76,1461.83 2523.38,1461.83 2545.99,1461.83 
  2568.6,1461.83 
  "/>
<polyline clip-path="url(#clip3402)" style="stroke:#ed5d92; stroke-width:16; stroke-opacity:1; fill:none" points="
  307.271,1461.83 329.884,1461.67 352.498,1461.67 375.111,1461.69 397.724,1461.71 420.338,1461.72 442.951,1461.73 465.564,1461.74 488.178,1461.74 510.791,1461.75 
  533.404,1461.75 556.018,1461.75 578.631,1461.75 601.244,1461.75 623.857,1461.75 646.471,1461.75 669.084,1461.76 691.697,1461.76 714.311,1461.77 736.924,1461.77 
  759.537,1461.78 782.151,1461.78 804.764,1461.79 827.377,1461.79 849.991,1461.8 872.604,1461.81 895.217,1461.81 917.83,1461.82 940.444,1461.82 963.057,1461.83 
  985.67,1461.84 1008.28,1461.85 1030.9,1461.85 1053.51,1461.83 1076.12,1461.86 1098.74,1461.86 1121.35,1461.86 1143.96,1461.86 1166.58,1461.86 1189.19,1461.86 
  1211.8,1461.86 1234.42,1461.85 1257.03,1461.85 1279.64,1461.85 1302.26,1461.85 1324.87,1461.85 1347.48,1461.85 1370.1,1461.85 1392.71,1461.85 1415.32,1461.85 
  1437.94,1461.85 1460.55,1461.85 1483.16,1461.85 1505.78,1461.85 1528.39,1461.85 1551,1461.84 1573.62,1461.84 1596.23,1461.84 1618.84,1461.84 1641.46,1461.84 
  1664.07,1461.84 1686.68,1461.84 1709.3,1461.84 1731.91,1461.84 1754.52,1461.84 1777.14,1461.84 1799.75,1461.84 1822.36,1461.84 1844.98,1461.84 1867.59,1461.83 
  1890.2,1461.83 1912.82,1461.83 1935.43,1461.83 1958.04,1461.83 1980.66,1461.83 2003.27,1461.83 2025.88,1461.83 2048.5,1461.83 2071.11,1461.83 2093.72,1461.83 
  2116.34,1461.83 2138.95,1461.83 2161.56,1461.83 2184.18,1461.83 2206.79,1461.83 2229.4,1461.83 2252.02,1461.83 2274.63,1461.83 2297.24,1461.83 2319.86,1461.83 
  2342.47,1461.83 2365.08,1461.83 2387.7,1461.83 2410.31,1461.83 2432.92,1461.83 2455.54,1461.83 2478.15,1461.83 2500.76,1461.83 2523.38,1461.83 2545.99,1461.83 
  2568.6,1461.83 
  "/>
<polyline clip-path="url(#clip3402)" style="stroke:#c68125; stroke-width:16; stroke-opacity:1; fill:none" points="
  307.271,1461.83 329.884,1460.12 352.498,1460.19 375.111,1460.47 397.724,1460.81 420.338,1460.98 442.951,1461.11 465.564,1461.2 488.178,1461.27 510.791,1461.32 
  533.404,1461.36 556.018,1461.39 578.631,1461.41 601.244,1461.42 623.857,1461.43 646.471,1461.43 669.084,1461.44 691.697,1461.45 714.311,1461.46 736.924,1461.48 
  759.537,1461.5 782.151,1461.52 804.764,1461.54 827.377,1461.57 849.991,1461.6 872.604,1461.63 895.217,1461.66 917.83,1461.7 940.444,1461.74 963.057,1461.79 
  985.67,1461.83 1008.28,1461.92 1030.9,1461.98 1053.51,1461.84 1076.12,1462 1098.74,1462 1121.35,1461.98 1143.96,1461.95 1166.58,1461.93 1189.19,1461.92 
  1211.8,1461.91 1234.42,1461.9 1257.03,1461.89 1279.64,1461.89 1302.26,1461.89 1324.87,1461.88 1347.48,1461.88 1370.1,1461.88 1392.71,1461.88 1415.32,1461.88 
  1437.94,1461.88 1460.55,1461.88 1483.16,1461.87 1505.78,1461.87 1528.39,1461.87 1551,1461.87 1573.62,1461.87 1596.23,1461.86 1618.84,1461.86 1641.46,1461.86 
  1664.07,1461.86 1686.68,1461.86 1709.3,1461.85 1731.91,1461.85 1754.52,1461.85 1777.14,1461.85 1799.75,1461.85 1822.36,1461.84 1844.98,1461.84 1867.59,1461.84 
  1890.2,1461.84 1912.82,1461.84 1935.43,1461.84 1958.04,1461.84 1980.66,1461.84 2003.27,1461.84 2025.88,1461.84 2048.5,1461.84 2071.11,1461.84 2093.72,1461.83 
  2116.34,1461.83 2138.95,1461.83 2161.56,1461.83 2184.18,1461.83 2206.79,1461.83 2229.4,1461.83 2252.02,1461.83 2274.63,1461.83 2297.24,1461.83 2319.86,1461.83 
  2342.47,1461.83 2365.08,1461.83 2387.7,1461.83 2410.31,1461.83 2432.92,1461.83 2455.54,1461.83 2478.15,1461.83 2500.76,1461.83 2523.38,1461.83 2545.99,1461.83 
  2568.6,1461.83 
  "/>
<polyline clip-path="url(#clip3402)" style="stroke:#00a98d; stroke-width:16; stroke-opacity:1; fill:none" points="
  307.271,1461.83 329.884,1461.56 352.498,1461.53 375.111,1461.6 397.724,1461.64 420.338,1461.67 442.951,1461.7 465.564,1461.72 488.178,1461.74 510.791,1461.75 
  533.404,1461.77 556.018,1461.78 578.631,1461.79 601.244,1461.8 623.857,1461.81 646.471,1461.82 669.084,1461.83 691.697,1461.83 714.311,1461.84 736.924,1461.84 
  759.537,1461.84 782.151,1461.85 804.764,1461.85 827.377,1461.85 849.991,1461.85 872.604,1461.85 895.217,1461.85 917.83,1461.85 940.444,1461.85 963.057,1461.85 
  985.67,1461.85 1008.28,1461.85 1030.9,1461.85 1053.51,1461.83 1076.12,1461.85 1098.74,1461.85 1121.35,1461.85 1143.96,1461.85 1166.58,1461.85 1189.19,1461.85 
  1211.8,1461.85 1234.42,1461.85 1257.03,1461.85 1279.64,1461.85 1302.26,1461.85 1324.87,1461.85 1347.48,1461.85 1370.1,1461.85 1392.71,1461.85 1415.32,1461.85 
  1437.94,1461.84 1460.55,1461.84 1483.16,1461.84 1505.78,1461.84 1528.39,1461.84 1551,1461.84 1573.62,1461.84 1596.23,1461.84 1618.84,1461.84 1641.46,1461.84 
  1664.07,1461.84 1686.68,1461.84 1709.3,1461.84 1731.91,1461.84 1754.52,1461.84 1777.14,1461.84 1799.75,1461.83 1822.36,1461.83 1844.98,1461.83 1867.59,1461.83 
  1890.2,1461.83 1912.82,1461.83 1935.43,1461.83 1958.04,1461.83 1980.66,1461.83 2003.27,1461.83 2025.88,1461.83 2048.5,1461.83 2071.11,1461.83 2093.72,1461.83 
  2116.34,1461.83 2138.95,1461.83 2161.56,1461.83 2184.18,1461.83 2206.79,1461.83 2229.4,1461.83 2252.02,1461.83 2274.63,1461.83 2297.24,1461.83 2319.86,1461.83 
  2342.47,1461.83 2365.08,1461.83 2387.7,1461.83 2410.31,1461.83 2432.92,1461.83 2455.54,1461.83 2478.15,1461.83 2500.76,1461.83 2523.38,1461.83 2545.99,1461.83 
  2568.6,1461.83 
  "/>
<polyline clip-path="url(#clip3402)" style="stroke:#8e971d; stroke-width:16; stroke-opacity:1; fill:none" points="
  307.271,1461.83 329.884,1462.49 352.498,1463.75 375.111,1462.88 397.724,1462.36 420.338,1462.15 442.951,1462.01 465.564,1461.89 488.178,1461.78 510.791,1461.7 
  533.404,1461.63 556.018,1461.58 578.631,1461.55 601.244,1461.53 623.857,1461.52 646.471,1461.51 669.084,1461.51 691.697,1461.52 714.311,1461.52 736.924,1461.53 
  759.537,1461.54 782.151,1461.55 804.764,1461.55 827.377,1461.56 849.991,1461.57 872.604,1461.58 895.217,1461.59 917.83,1461.6 940.444,1461.61 963.057,1461.63 
  985.67,1461.64 1008.28,1461.66 1030.9,1461.67 1053.51,1461.81 1076.12,1461.71 1098.74,1461.72 1121.35,1461.74 1143.96,1461.76 1166.58,1461.77 1189.19,1461.79 
  1211.8,1461.8 1234.42,1461.81 1257.03,1461.81 1279.64,1461.82 1302.26,1461.82 1324.87,1461.82 1347.48,1461.83 1370.1,1461.83 1392.71,1461.83 1415.32,1461.83 
  1437.94,1461.82 1460.55,1461.82 1483.16,1461.82 1505.78,1461.82 1528.39,1461.82 1551,1461.82 1573.62,1461.82 1596.23,1461.82 1618.84,1461.82 1641.46,1461.82 
  1664.07,1461.82 1686.68,1461.82 1709.3,1461.82 1731.91,1461.82 1754.52,1461.82 1777.14,1461.82 1799.75,1461.82 1822.36,1461.82 1844.98,1461.82 1867.59,1461.82 
  1890.2,1461.83 1912.82,1461.83 1935.43,1461.83 1958.04,1461.83 1980.66,1461.83 2003.27,1461.83 2025.88,1461.83 2048.5,1461.83 2071.11,1461.83 2093.72,1461.83 
  2116.34,1461.83 2138.95,1461.83 2161.56,1461.83 2184.18,1461.83 2206.79,1461.83 2229.4,1461.83 2252.02,1461.83 2274.63,1461.83 2297.24,1461.83 2319.86,1461.83 
  2342.47,1461.83 2365.08,1461.83 2387.7,1461.83 2410.31,1461.83 2432.92,1461.83 2455.54,1461.83 2478.15,1461.83 2500.76,1461.83 2523.38,1461.83 2545.99,1461.83 
  2568.6,1461.83 
  "/>
<polyline clip-path="url(#clip3402)" style="stroke:#00a8cb; stroke-width:16; stroke-opacity:1; fill:none" points="
  307.271,1461.83 329.884,2031.37 352.498,2146.22 375.111,1790.82 397.724,1290.96 420.338,856.252 442.951,523.042 465.564,316.54 488.178,213.021 510.791,189.727 
  533.404,224.148 556.018,296.941 578.631,398.945 601.244,520.274 623.857,657.245 646.471,801.722 669.084,951.282 691.697,1099.71 714.311,1245.43 736.924,1382.49 
  759.537,1510.41 782.151,1623.48 804.764,1723.42 827.377,1804.95 849.991,1872.49 872.604,1920.98 895.217,1957.24 917.83,1976.06 940.444,1985.91 963.057,1981.18 
  985.67,1971.03 1008.28,1949.91 1030.9,1928.43 1053.51,1912.99 1076.12,1884.51 1098.74,1858.78 1121.35,1833.37 1143.96,1806.37 1166.58,1779.81 1189.19,1753.33 
  1211.8,1727.76 1234.42,1703.38 1257.03,1680.19 1279.64,1658.79 1302.26,1638.74 1324.87,1620.72 1347.48,1604.1 1370.1,1589.53 1392.71,1576.33 1415.32,1565.02 
  1437.94,1554.98 1460.55,1546.57 1483.16,1539.26 1505.78,1533.28 1528.39,1528.18 1551,1524.12 1573.62,1520.71 1596.23,1518.05 1618.84,1515.83 1641.46,1514.12 
  1664.07,1512.67 1686.68,1511.51 1709.3,1510.49 1731.91,1509.62 1754.52,1508.79 1777.14,1508.01 1799.75,1507.21 1822.36,1506.39 1844.98,1505.54 1867.59,1504.63 
  1890.2,1503.68 1912.82,1502.67 1935.43,1501.63 1958.04,1500.53 1980.66,1499.4 2003.27,1498.23 2025.88,1497.04 2048.5,1495.82 2071.11,1494.6 2093.72,1493.35 
  2116.34,1492.11 2138.95,1490.84 2161.56,1489.59 2184.18,1488.3 2206.79,1487.02 2229.4,1485.7 2252.02,1484.4 2274.63,1483.03 2297.24,1481.67 2319.86,1480.22 
  2342.47,1478.78 2365.08,1477.24 2387.7,1475.71 2410.31,1474.04 2432.92,1472.41 2455.54,1470.6 2478.15,1468.86 2500.76,1466.92 2523.38,1465.09 2545.99,1463.03 
  2568.6,1461.12 
  "/>
<path clip-path="url(#clip3400)" d="
M2732.44 988.312 L3184.76 988.312 L3184.76 262.552 L2732.44 262.552  Z
  " fill="#ffffff" fill-rule="evenodd" fill-opacity="1"/>
<polyline clip-path="url(#clip3400)" style="stroke:#000000; stroke-width:4; stroke-opacity:1; fill:none" points="
  2732.44,988.312 3184.76,988.312 3184.76,262.552 2732.44,262.552 2732.44,988.312 
  "/>
<polyline clip-path="url(#clip3400)" style="stroke:#009af9; stroke-width:16; stroke-opacity:1; fill:none" points="
  2764.44,323.032 2956.44,323.032 
  "/>
<path clip-path="url(#clip3400)" d="M 0 0 M2988.44 299.272 L2994.87 299.272 L2994.87 341.381 L3018.01 341.381 L3018.01 346.792 L2988.44 346.792 L2988.44 299.272 Z" fill="#000000" fill-rule="evenodd" fill-opacity="1" /><path clip-path="url(#clip3400)" d="M 0 0 M3024.15 311.144 L3030.01 311.144 L3030.01 346.792 L3024.15 346.792 L3024.15 311.144 M3024.15 297.267 L3030.01 297.267 L3030.01 304.683 L3024.15 304.683 L3024.15 297.267 Z" fill="#000000" fill-rule="evenodd" fill-opacity="1" /><path clip-path="url(#clip3400)" d="M 0 0 M3054.2 297.267 L3054.2 302.137 L3048.6 302.137 Q3045.45 302.137 3044.21 303.41 Q3043 304.683 3043 307.993 L3043 311.144 L3052.64 311.144 L3052.64 315.696 L3043 315.696 L3043 346.792 L3037.11 346.792 L3037.11 315.696 L3031.51 315.696 L3031.51 311.144 L3037.11 311.144 L3037.11 308.662 Q3037.11 302.71 3039.88 300.004 Q3042.65 297.267 3048.66 297.267 L3054.2 297.267 Z" fill="#000000" fill-rule="evenodd" fill-opacity="1" /><path clip-path="url(#clip3400)" d="M 0 0 M3064.99 301.023 L3064.99 311.144 L3077.05 311.144 L3077.05 315.696 L3064.99 315.696 L3064.99 335.047 Q3064.99 339.408 3066.17 340.649 Q3067.38 341.891 3071.04 341.891 L3077.05 341.891 L3077.05 346.792 L3071.04 346.792 Q3064.26 346.792 3061.68 344.278 Q3059.1 341.731 3059.1 335.047 L3059.1 315.696 L3054.8 315.696 L3054.8 311.144 L3059.1 311.144 L3059.1 301.023 L3064.99 301.023 Z" fill="#000000" fill-rule="evenodd" fill-opacity="1" /><path clip-path="url(#clip3400)" d="M 0 0 M3105.86 341.381 L3116.36 341.381 L3116.36 305.129 L3104.93 307.42 L3104.93 301.564 L3116.3 299.272 L3122.73 299.272 L3122.73 341.381 L3133.23 341.381 L3133.23 346.792 L3105.86 346.792 L3105.86 341.381 Z" fill="#000000" fill-rule="evenodd" fill-opacity="1" /><polyline clip-path="url(#clip3400)" style="stroke:#e26f46; stroke-width:16; stroke-opacity:1; fill:none" points="
  2764.44,383.512 2956.44,383.512 
  "/>
<path clip-path="url(#clip3400)" d="M 0 0 M2988.44 359.752 L2994.87 359.752 L2994.87 401.861 L3018.01 401.861 L3018.01 407.272 L2988.44 407.272 L2988.44 359.752 Z" fill="#000000" fill-rule="evenodd" fill-opacity="1" /><path clip-path="url(#clip3400)" d="M 0 0 M3024.15 371.624 L3030.01 371.624 L3030.01 407.272 L3024.15 407.272 L3024.15 371.624 M3024.15 357.747 L3030.01 357.747 L3030.01 365.163 L3024.15 365.163 L3024.15 357.747 Z" fill="#000000" fill-rule="evenodd" fill-opacity="1" /><path clip-path="url(#clip3400)" d="M 0 0 M3054.2 357.747 L3054.2 362.617 L3048.6 362.617 Q3045.45 362.617 3044.21 363.89 Q3043 365.163 3043 368.473 L3043 371.624 L3052.64 371.624 L3052.64 376.176 L3043 376.176 L3043 407.272 L3037.11 407.272 L3037.11 376.176 L3031.51 376.176 L3031.51 371.624 L3037.11 371.624 L3037.11 369.142 Q3037.11 363.19 3039.88 360.484 Q3042.65 357.747 3048.66 357.747 L3054.2 357.747 Z" fill="#000000" fill-rule="evenodd" fill-opacity="1" /><path clip-path="url(#clip3400)" d="M 0 0 M3064.99 361.503 L3064.99 371.624 L3077.05 371.624 L3077.05 376.176 L3064.99 376.176 L3064.99 395.527 Q3064.99 399.888 3066.17 401.129 Q3067.38 402.371 3071.04 402.371 L3077.05 402.371 L3077.05 407.272 L3071.04 407.272 Q3064.26 407.272 3061.68 404.758 Q3059.1 402.211 3059.1 395.527 L3059.1 376.176 L3054.8 376.176 L3054.8 371.624 L3059.1 371.624 L3059.1 361.503 L3064.99 361.503 Z" fill="#000000" fill-rule="evenodd" fill-opacity="1" /><path clip-path="url(#clip3400)" d="M 0 0 M3110.28 401.861 L3132.72 401.861 L3132.72 407.272 L3102.55 407.272 L3102.55 401.861 Q3106.21 398.074 3112.51 391.708 Q3118.84 385.31 3120.47 383.464 Q3123.55 379.995 3124.76 377.608 Q3126 375.189 3126 372.865 Q3126 369.078 3123.33 366.691 Q3120.69 364.304 3116.42 364.304 Q3113.4 364.304 3110.03 365.354 Q3106.68 366.404 3102.87 368.537 L3102.87 362.044 Q3106.75 360.484 3110.12 359.688 Q3113.5 358.893 3116.3 358.893 Q3123.68 358.893 3128.07 362.585 Q3132.47 366.277 3132.47 372.452 Q3132.47 375.38 3131.35 378.022 Q3130.27 380.632 3127.37 384.196 Q3126.58 385.119 3122.31 389.544 Q3118.05 393.936 3110.28 401.861 Z" fill="#000000" fill-rule="evenodd" fill-opacity="1" /><polyline clip-path="url(#clip3400)" style="stroke:#3da44d; stroke-width:16; stroke-opacity:1; fill:none" points="
  2764.44,443.992 2956.44,443.992 
  "/>
<path clip-path="url(#clip3400)" d="M 0 0 M2988.44 420.232 L2994.87 420.232 L2994.87 462.341 L3018.01 462.341 L3018.01 467.752 L2988.44 467.752 L2988.44 420.232 Z" fill="#000000" fill-rule="evenodd" fill-opacity="1" /><path clip-path="url(#clip3400)" d="M 0 0 M3024.15 432.104 L3030.01 432.104 L3030.01 467.752 L3024.15 467.752 L3024.15 432.104 M3024.15 418.227 L3030.01 418.227 L3030.01 425.643 L3024.15 425.643 L3024.15 418.227 Z" fill="#000000" fill-rule="evenodd" fill-opacity="1" /><path clip-path="url(#clip3400)" d="M 0 0 M3054.2 418.227 L3054.2 423.097 L3048.6 423.097 Q3045.45 423.097 3044.21 424.37 Q3043 425.643 3043 428.953 L3043 432.104 L3052.64 432.104 L3052.64 436.656 L3043 436.656 L3043 467.752 L3037.11 467.752 L3037.11 436.656 L3031.51 436.656 L3031.51 432.104 L3037.11 432.104 L3037.11 429.622 Q3037.11 423.67 3039.88 420.964 Q3042.65 418.227 3048.66 418.227 L3054.2 418.227 Z" fill="#000000" fill-rule="evenodd" fill-opacity="1" /><path clip-path="url(#clip3400)" d="M 0 0 M3064.99 421.983 L3064.99 432.104 L3077.05 432.104 L3077.05 436.656 L3064.99 436.656 L3064.99 456.007 Q3064.99 460.368 3066.17 461.609 Q3067.38 462.851 3071.04 462.851 L3077.05 462.851 L3077.05 467.752 L3071.04 467.752 Q3064.26 467.752 3061.68 465.238 Q3059.1 462.691 3059.1 456.007 L3059.1 436.656 L3054.8 436.656 L3054.8 432.104 L3059.1 432.104 L3059.1 421.983 L3064.99 421.983 Z" fill="#000000" fill-rule="evenodd" fill-opacity="1" /><path clip-path="url(#clip3400)" d="M 0 0 M3124.22 442.13 Q3128.84 443.117 3131.42 446.236 Q3134.03 449.355 3134.03 453.939 Q3134.03 460.973 3129.19 464.824 Q3124.35 468.675 3115.44 468.675 Q3112.45 468.675 3109.26 468.07 Q3106.11 467.497 3102.74 466.32 L3102.74 460.113 Q3105.41 461.673 3108.59 462.469 Q3111.78 463.264 3115.25 463.264 Q3121.29 463.264 3124.45 460.877 Q3127.63 458.49 3127.63 453.939 Q3127.63 449.737 3124.67 447.382 Q3121.74 444.995 3116.49 444.995 L3110.95 444.995 L3110.95 439.711 L3116.74 439.711 Q3121.49 439.711 3124 437.833 Q3126.51 435.924 3126.51 432.359 Q3126.51 428.699 3123.9 426.757 Q3121.33 424.784 3116.49 424.784 Q3113.85 424.784 3110.82 425.357 Q3107.8 425.929 3104.17 427.139 L3104.17 421.41 Q3107.83 420.391 3111.01 419.882 Q3114.23 419.373 3117.06 419.373 Q3124.38 419.373 3128.65 422.715 Q3132.91 426.025 3132.91 431.69 Q3132.91 435.637 3130.65 438.374 Q3128.39 441.08 3124.22 442.13 Z" fill="#000000" fill-rule="evenodd" fill-opacity="1" /><polyline clip-path="url(#clip3400)" style="stroke:#c271d2; stroke-width:16; stroke-opacity:1; fill:none" points="
  2764.44,504.472 2956.44,504.472 
  "/>
<path clip-path="url(#clip3400)" d="M 0 0 M2988.44 480.712 L2994.87 480.712 L2994.87 522.821 L3018.01 522.821 L3018.01 528.232 L2988.44 528.232 L2988.44 480.712 Z" fill="#000000" fill-rule="evenodd" fill-opacity="1" /><path clip-path="url(#clip3400)" d="M 0 0 M3024.15 492.584 L3030.01 492.584 L3030.01 528.232 L3024.15 528.232 L3024.15 492.584 M3024.15 478.707 L3030.01 478.707 L3030.01 486.123 L3024.15 486.123 L3024.15 478.707 Z" fill="#000000" fill-rule="evenodd" fill-opacity="1" /><path clip-path="url(#clip3400)" d="M 0 0 M3054.2 478.707 L3054.2 483.577 L3048.6 483.577 Q3045.45 483.577 3044.21 484.85 Q3043 486.123 3043 489.433 L3043 492.584 L3052.64 492.584 L3052.64 497.136 L3043 497.136 L3043 528.232 L3037.11 528.232 L3037.11 497.136 L3031.51 497.136 L3031.51 492.584 L3037.11 492.584 L3037.11 490.102 Q3037.11 484.15 3039.88 481.444 Q3042.65 478.707 3048.66 478.707 L3054.2 478.707 Z" fill="#000000" fill-rule="evenodd" fill-opacity="1" /><path clip-path="url(#clip3400)" d="M 0 0 M3064.99 482.463 L3064.99 492.584 L3077.05 492.584 L3077.05 497.136 L3064.99 497.136 L3064.99 516.487 Q3064.99 520.848 3066.17 522.089 Q3067.38 523.331 3071.04 523.331 L3077.05 523.331 L3077.05 528.232 L3071.04 528.232 Q3064.26 528.232 3061.68 525.718 Q3059.1 523.171 3059.1 516.487 L3059.1 497.136 L3054.8 497.136 L3054.8 492.584 L3059.1 492.584 L3059.1 482.463 L3064.99 482.463 Z" fill="#000000" fill-rule="evenodd" fill-opacity="1" /><path clip-path="url(#clip3400)" d="M 0 0 M3122.41 486.314 L3106.18 511.681 L3122.41 511.681 L3122.41 486.314 M3120.72 480.712 L3128.81 480.712 L3128.81 511.681 L3135.59 511.681 L3135.59 517.028 L3128.81 517.028 L3128.81 528.232 L3122.41 528.232 L3122.41 517.028 L3100.96 517.028 L3100.96 510.822 L3120.72 480.712 Z" fill="#000000" fill-rule="evenodd" fill-opacity="1" /><polyline clip-path="url(#clip3400)" style="stroke:#ac8d18; stroke-width:16; stroke-opacity:1; fill:none" points="
  2764.44,564.952 2956.44,564.952 
  "/>
<path clip-path="url(#clip3400)" d="M 0 0 M2988.44 541.192 L2994.87 541.192 L2994.87 583.301 L3018.01 583.301 L3018.01 588.712 L2988.44 588.712 L2988.44 541.192 Z" fill="#000000" fill-rule="evenodd" fill-opacity="1" /><path clip-path="url(#clip3400)" d="M 0 0 M3024.15 553.064 L3030.01 553.064 L3030.01 588.712 L3024.15 588.712 L3024.15 553.064 M3024.15 539.187 L3030.01 539.187 L3030.01 546.603 L3024.15 546.603 L3024.15 539.187 Z" fill="#000000" fill-rule="evenodd" fill-opacity="1" /><path clip-path="url(#clip3400)" d="M 0 0 M3054.2 539.187 L3054.2 544.057 L3048.6 544.057 Q3045.45 544.057 3044.21 545.33 Q3043 546.603 3043 549.913 L3043 553.064 L3052.64 553.064 L3052.64 557.616 L3043 557.616 L3043 588.712 L3037.11 588.712 L3037.11 557.616 L3031.51 557.616 L3031.51 553.064 L3037.11 553.064 L3037.11 550.582 Q3037.11 544.63 3039.88 541.924 Q3042.65 539.187 3048.66 539.187 L3054.2 539.187 Z" fill="#000000" fill-rule="evenodd" fill-opacity="1" /><path clip-path="url(#clip3400)" d="M 0 0 M3064.99 542.943 L3064.99 553.064 L3077.05 553.064 L3077.05 557.616 L3064.99 557.616 L3064.99 576.967 Q3064.99 581.328 3066.17 582.569 Q3067.38 583.811 3071.04 583.811 L3077.05 583.811 L3077.05 588.712 L3071.04 588.712 Q3064.26 588.712 3061.68 586.198 Q3059.1 583.651 3059.1 576.967 L3059.1 557.616 L3054.8 557.616 L3054.8 553.064 L3059.1 553.064 L3059.1 542.943 L3064.99 542.943 Z" fill="#000000" fill-rule="evenodd" fill-opacity="1" /><path clip-path="url(#clip3400)" d="M 0 0 M3104.81 541.192 L3130.05 541.192 L3130.05 546.603 L3110.7 546.603 L3110.7 558.252 Q3112.1 557.775 3113.5 557.552 Q3114.9 557.297 3116.3 557.297 Q3124.25 557.297 3128.9 561.658 Q3133.55 566.018 3133.55 573.466 Q3133.55 581.137 3128.77 585.402 Q3124 589.635 3115.31 589.635 Q3112.32 589.635 3109.2 589.126 Q3106.11 588.617 3102.8 587.598 L3102.8 581.137 Q3105.67 582.697 3108.72 583.46 Q3111.78 584.224 3115.18 584.224 Q3120.69 584.224 3123.9 581.328 Q3127.12 578.432 3127.12 573.466 Q3127.12 568.501 3123.9 565.605 Q3120.69 562.708 3115.18 562.708 Q3112.6 562.708 3110.03 563.281 Q3107.48 563.854 3104.81 565.064 L3104.81 541.192 Z" fill="#000000" fill-rule="evenodd" fill-opacity="1" /><polyline clip-path="url(#clip3400)" style="stroke:#00a9ad; stroke-width:16; stroke-opacity:1; fill:none" points="
  2764.44,625.432 2956.44,625.432 
  "/>
<path clip-path="url(#clip3400)" d="M 0 0 M2988.44 601.672 L2994.87 601.672 L2994.87 643.781 L3018.01 643.781 L3018.01 649.192 L2988.44 649.192 L2988.44 601.672 Z" fill="#000000" fill-rule="evenodd" fill-opacity="1" /><path clip-path="url(#clip3400)" d="M 0 0 M3024.15 613.544 L3030.01 613.544 L3030.01 649.192 L3024.15 649.192 L3024.15 613.544 M3024.15 599.667 L3030.01 599.667 L3030.01 607.083 L3024.15 607.083 L3024.15 599.667 Z" fill="#000000" fill-rule="evenodd" fill-opacity="1" /><path clip-path="url(#clip3400)" d="M 0 0 M3054.2 599.667 L3054.2 604.537 L3048.6 604.537 Q3045.45 604.537 3044.21 605.81 Q3043 607.083 3043 610.393 L3043 613.544 L3052.64 613.544 L3052.64 618.096 L3043 618.096 L3043 649.192 L3037.11 649.192 L3037.11 618.096 L3031.51 618.096 L3031.51 613.544 L3037.11 613.544 L3037.11 611.062 Q3037.11 605.11 3039.88 602.404 Q3042.65 599.667 3048.66 599.667 L3054.2 599.667 Z" fill="#000000" fill-rule="evenodd" fill-opacity="1" /><path clip-path="url(#clip3400)" d="M 0 0 M3064.99 603.423 L3064.99 613.544 L3077.05 613.544 L3077.05 618.096 L3064.99 618.096 L3064.99 637.447 Q3064.99 641.808 3066.17 643.049 Q3067.38 644.291 3071.04 644.291 L3077.05 644.291 L3077.05 649.192 L3071.04 649.192 Q3064.26 649.192 3061.68 646.678 Q3059.1 644.131 3059.1 637.447 L3059.1 618.096 L3054.8 618.096 L3054.8 613.544 L3059.1 613.544 L3059.1 603.423 L3064.99 603.423 Z" fill="#000000" fill-rule="evenodd" fill-opacity="1" /><path clip-path="url(#clip3400)" d="M 0 0 M3119.29 622.87 Q3114.96 622.87 3112.41 625.83 Q3109.9 628.79 3109.9 633.946 Q3109.9 639.071 3112.41 642.063 Q3114.96 645.023 3119.29 645.023 Q3123.62 645.023 3126.13 642.063 Q3128.68 639.071 3128.68 633.946 Q3128.68 628.79 3126.13 625.83 Q3123.62 622.87 3119.29 622.87 M3132.05 602.722 L3132.05 608.579 Q3129.63 607.433 3127.15 606.828 Q3124.7 606.224 3122.28 606.224 Q3115.92 606.224 3112.54 610.52 Q3109.2 614.817 3108.72 623.506 Q3110.6 620.737 3113.43 619.273 Q3116.27 617.777 3119.67 617.777 Q3126.83 617.777 3130.97 622.138 Q3135.14 626.467 3135.14 633.946 Q3135.14 641.267 3130.81 645.691 Q3126.48 650.115 3119.29 650.115 Q3111.05 650.115 3106.68 643.813 Q3102.32 637.479 3102.32 625.48 Q3102.32 614.213 3107.67 607.529 Q3113.02 600.813 3122.03 600.813 Q3124.45 600.813 3126.9 601.29 Q3129.38 601.768 3132.05 602.722 Z" fill="#000000" fill-rule="evenodd" fill-opacity="1" /><polyline clip-path="url(#clip3400)" style="stroke:#ed5d92; stroke-width:16; stroke-opacity:1; fill:none" points="
  2764.44,685.912 2956.44,685.912 
  "/>
<path clip-path="url(#clip3400)" d="M 0 0 M2988.44 662.152 L2994.87 662.152 L2994.87 704.261 L3018.01 704.261 L3018.01 709.672 L2988.44 709.672 L2988.44 662.152 Z" fill="#000000" fill-rule="evenodd" fill-opacity="1" /><path clip-path="url(#clip3400)" d="M 0 0 M3024.15 674.024 L3030.01 674.024 L3030.01 709.672 L3024.15 709.672 L3024.15 674.024 M3024.15 660.147 L3030.01 660.147 L3030.01 667.563 L3024.15 667.563 L3024.15 660.147 Z" fill="#000000" fill-rule="evenodd" fill-opacity="1" /><path clip-path="url(#clip3400)" d="M 0 0 M3054.2 660.147 L3054.2 665.017 L3048.6 665.017 Q3045.45 665.017 3044.21 666.29 Q3043 667.563 3043 670.873 L3043 674.024 L3052.64 674.024 L3052.64 678.576 L3043 678.576 L3043 709.672 L3037.11 709.672 L3037.11 678.576 L3031.51 678.576 L3031.51 674.024 L3037.11 674.024 L3037.11 671.542 Q3037.11 665.59 3039.88 662.884 Q3042.65 660.147 3048.66 660.147 L3054.2 660.147 Z" fill="#000000" fill-rule="evenodd" fill-opacity="1" /><path clip-path="url(#clip3400)" d="M 0 0 M3064.99 663.903 L3064.99 674.024 L3077.05 674.024 L3077.05 678.576 L3064.99 678.576 L3064.99 697.927 Q3064.99 702.288 3066.17 703.529 Q3067.38 704.771 3071.04 704.771 L3077.05 704.771 L3077.05 709.672 L3071.04 709.672 Q3064.26 709.672 3061.68 707.158 Q3059.1 704.611 3059.1 697.927 L3059.1 678.576 L3054.8 678.576 L3054.8 674.024 L3059.1 674.024 L3059.1 663.903 L3064.99 663.903 Z" fill="#000000" fill-rule="evenodd" fill-opacity="1" /><path clip-path="url(#clip3400)" d="M 0 0 M3103.12 662.152 L3133.68 662.152 L3133.68 664.889 L3116.42 709.672 L3109.71 709.672 L3125.94 667.563 L3103.12 667.563 L3103.12 662.152 Z" fill="#000000" fill-rule="evenodd" fill-opacity="1" /><polyline clip-path="url(#clip3400)" style="stroke:#c68125; stroke-width:16; stroke-opacity:1; fill:none" points="
  2764.44,746.392 2956.44,746.392 
  "/>
<path clip-path="url(#clip3400)" d="M 0 0 M2988.44 722.632 L2994.87 722.632 L2994.87 764.741 L3018.01 764.741 L3018.01 770.152 L2988.44 770.152 L2988.44 722.632 Z" fill="#000000" fill-rule="evenodd" fill-opacity="1" /><path clip-path="url(#clip3400)" d="M 0 0 M3024.15 734.504 L3030.01 734.504 L3030.01 770.152 L3024.15 770.152 L3024.15 734.504 M3024.15 720.627 L3030.01 720.627 L3030.01 728.043 L3024.15 728.043 L3024.15 720.627 Z" fill="#000000" fill-rule="evenodd" fill-opacity="1" /><path clip-path="url(#clip3400)" d="M 0 0 M3054.2 720.627 L3054.2 725.497 L3048.6 725.497 Q3045.45 725.497 3044.21 726.77 Q3043 728.043 3043 731.353 L3043 734.504 L3052.64 734.504 L3052.64 739.056 L3043 739.056 L3043 770.152 L3037.11 770.152 L3037.11 739.056 L3031.51 739.056 L3031.51 734.504 L3037.11 734.504 L3037.11 732.022 Q3037.11 726.07 3039.88 723.364 Q3042.65 720.627 3048.66 720.627 L3054.2 720.627 Z" fill="#000000" fill-rule="evenodd" fill-opacity="1" /><path clip-path="url(#clip3400)" d="M 0 0 M3064.99 724.383 L3064.99 734.504 L3077.05 734.504 L3077.05 739.056 L3064.99 739.056 L3064.99 758.407 Q3064.99 762.768 3066.17 764.009 Q3067.38 765.251 3071.04 765.251 L3077.05 765.251 L3077.05 770.152 L3071.04 770.152 Q3064.26 770.152 3061.68 767.638 Q3059.1 765.091 3059.1 758.407 L3059.1 739.056 L3054.8 739.056 L3054.8 734.504 L3059.1 734.504 L3059.1 724.383 L3064.99 724.383 Z" fill="#000000" fill-rule="evenodd" fill-opacity="1" /><path clip-path="url(#clip3400)" d="M 0 0 M3118.49 747.586 Q3113.91 747.586 3111.27 750.036 Q3108.66 752.487 3108.66 756.784 Q3108.66 761.081 3111.27 763.532 Q3113.91 765.983 3118.49 765.983 Q3123.08 765.983 3125.72 763.532 Q3128.36 761.049 3128.36 756.784 Q3128.36 752.487 3125.72 750.036 Q3123.11 747.586 3118.49 747.586 M3112.06 744.848 Q3107.93 743.83 3105.6 740.997 Q3103.31 738.164 3103.31 734.09 Q3103.31 728.393 3107.35 725.083 Q3111.43 721.773 3118.49 721.773 Q3125.59 721.773 3129.63 725.083 Q3133.68 728.393 3133.68 734.09 Q3133.68 738.164 3131.35 740.997 Q3129.06 743.83 3124.95 744.848 Q3129.6 745.931 3132.18 749.082 Q3134.79 752.233 3134.79 756.784 Q3134.79 763.691 3130.56 767.383 Q3126.35 771.075 3118.49 771.075 Q3110.63 771.075 3106.4 767.383 Q3102.2 763.691 3102.2 756.784 Q3102.2 752.233 3104.81 749.082 Q3107.42 745.931 3112.06 744.848 M3109.71 734.695 Q3109.71 738.387 3112 740.456 Q3114.32 742.525 3118.49 742.525 Q3122.63 742.525 3124.95 740.456 Q3127.31 738.387 3127.31 734.695 Q3127.31 731.003 3124.95 728.934 Q3122.63 726.865 3118.49 726.865 Q3114.32 726.865 3112 728.934 Q3109.71 731.003 3109.71 734.695 Z" fill="#000000" fill-rule="evenodd" fill-opacity="1" /><polyline clip-path="url(#clip3400)" style="stroke:#00a98d; stroke-width:16; stroke-opacity:1; fill:none" points="
  2764.44,806.872 2956.44,806.872 
  "/>
<path clip-path="url(#clip3400)" d="M 0 0 M2988.44 783.112 L2994.87 783.112 L2994.87 825.221 L3018.01 825.221 L3018.01 830.632 L2988.44 830.632 L2988.44 783.112 Z" fill="#000000" fill-rule="evenodd" fill-opacity="1" /><path clip-path="url(#clip3400)" d="M 0 0 M3024.15 794.984 L3030.01 794.984 L3030.01 830.632 L3024.15 830.632 L3024.15 794.984 M3024.15 781.107 L3030.01 781.107 L3030.01 788.523 L3024.15 788.523 L3024.15 781.107 Z" fill="#000000" fill-rule="evenodd" fill-opacity="1" /><path clip-path="url(#clip3400)" d="M 0 0 M3054.2 781.107 L3054.2 785.977 L3048.6 785.977 Q3045.45 785.977 3044.21 787.25 Q3043 788.523 3043 791.833 L3043 794.984 L3052.64 794.984 L3052.64 799.536 L3043 799.536 L3043 830.632 L3037.11 830.632 L3037.11 799.536 L3031.51 799.536 L3031.51 794.984 L3037.11 794.984 L3037.11 792.502 Q3037.11 786.55 3039.88 783.844 Q3042.65 781.107 3048.66 781.107 L3054.2 781.107 Z" fill="#000000" fill-rule="evenodd" fill-opacity="1" /><path clip-path="url(#clip3400)" d="M 0 0 M3064.99 784.863 L3064.99 794.984 L3077.05 794.984 L3077.05 799.536 L3064.99 799.536 L3064.99 818.887 Q3064.99 823.248 3066.17 824.489 Q3067.38 825.731 3071.04 825.731 L3077.05 825.731 L3077.05 830.632 L3071.04 830.632 Q3064.26 830.632 3061.68 828.118 Q3059.1 825.571 3059.1 818.887 L3059.1 799.536 L3054.8 799.536 L3054.8 794.984 L3059.1 794.984 L3059.1 784.863 L3064.99 784.863 Z" fill="#000000" fill-rule="evenodd" fill-opacity="1" /><path clip-path="url(#clip3400)" d="M 0 0 M3104.93 829.645 L3104.93 823.789 Q3107.35 824.935 3109.84 825.54 Q3112.32 826.144 3114.71 826.144 Q3121.07 826.144 3124.41 821.879 Q3127.79 817.582 3128.26 808.861 Q3126.42 811.599 3123.59 813.063 Q3120.75 814.527 3117.32 814.527 Q3110.19 814.527 3106.02 810.23 Q3101.88 805.901 3101.88 798.422 Q3101.88 791.101 3106.21 786.677 Q3110.54 782.253 3117.73 782.253 Q3125.97 782.253 3130.3 788.587 Q3134.66 794.889 3134.66 806.92 Q3134.66 818.155 3129.31 824.871 Q3124 831.555 3114.99 831.555 Q3112.57 831.555 3110.09 831.078 Q3107.61 830.6 3104.93 829.645 M3117.73 809.498 Q3122.06 809.498 3124.57 806.538 Q3127.12 803.578 3127.12 798.422 Q3127.12 793.297 3124.57 790.337 Q3122.06 787.345 3117.73 787.345 Q3113.4 787.345 3110.85 790.337 Q3108.34 793.297 3108.34 798.422 Q3108.34 803.578 3110.85 806.538 Q3113.4 809.498 3117.73 809.498 Z" fill="#000000" fill-rule="evenodd" fill-opacity="1" /><polyline clip-path="url(#clip3400)" style="stroke:#8e971d; stroke-width:16; stroke-opacity:1; fill:none" points="
  2764.44,867.352 2956.44,867.352 
  "/>
<path clip-path="url(#clip3400)" d="M 0 0 M2988.44 843.592 L2994.87 843.592 L2994.87 885.701 L3018.01 885.701 L3018.01 891.112 L2988.44 891.112 L2988.44 843.592 Z" fill="#000000" fill-rule="evenodd" fill-opacity="1" /><path clip-path="url(#clip3400)" d="M 0 0 M3024.15 855.464 L3030.01 855.464 L3030.01 891.112 L3024.15 891.112 L3024.15 855.464 M3024.15 841.587 L3030.01 841.587 L3030.01 849.003 L3024.15 849.003 L3024.15 841.587 Z" fill="#000000" fill-rule="evenodd" fill-opacity="1" /><path clip-path="url(#clip3400)" d="M 0 0 M3054.2 841.587 L3054.2 846.457 L3048.6 846.457 Q3045.45 846.457 3044.21 847.73 Q3043 849.003 3043 852.313 L3043 855.464 L3052.64 855.464 L3052.64 860.016 L3043 860.016 L3043 891.112 L3037.11 891.112 L3037.11 860.016 L3031.51 860.016 L3031.51 855.464 L3037.11 855.464 L3037.11 852.982 Q3037.11 847.03 3039.88 844.324 Q3042.65 841.587 3048.66 841.587 L3054.2 841.587 Z" fill="#000000" fill-rule="evenodd" fill-opacity="1" /><path clip-path="url(#clip3400)" d="M 0 0 M3064.99 845.343 L3064.99 855.464 L3077.05 855.464 L3077.05 860.016 L3064.99 860.016 L3064.99 879.367 Q3064.99 883.728 3066.17 884.969 Q3067.38 886.211 3071.04 886.211 L3077.05 886.211 L3077.05 891.112 L3071.04 891.112 Q3064.26 891.112 3061.68 888.598 Q3059.1 886.051 3059.1 879.367 L3059.1 860.016 L3054.8 860.016 L3054.8 855.464 L3059.1 855.464 L3059.1 845.343 L3064.99 845.343 Z" fill="#000000" fill-rule="evenodd" fill-opacity="1" /><path clip-path="url(#clip3400)" d="M 0 0 M3105.86 885.701 L3116.36 885.701 L3116.36 849.449 L3104.93 851.74 L3104.93 845.884 L3116.3 843.592 L3122.73 843.592 L3122.73 885.701 L3133.23 885.701 L3133.23 891.112 L3105.86 891.112 L3105.86 885.701 Z" fill="#000000" fill-rule="evenodd" fill-opacity="1" /><path clip-path="url(#clip3400)" d="M 0 0 M3153.95 847.825 Q3148.98 847.825 3146.47 852.727 Q3143.99 857.597 3143.99 867.4 Q3143.99 877.171 3146.47 882.073 Q3148.98 886.943 3153.95 886.943 Q3158.95 886.943 3161.43 882.073 Q3163.94 877.171 3163.94 867.4 Q3163.94 857.597 3161.43 852.727 Q3158.95 847.825 3153.95 847.825 M3153.95 842.733 Q3161.94 842.733 3166.14 849.067 Q3170.37 855.369 3170.37 867.4 Q3170.37 879.399 3166.14 885.733 Q3161.94 892.035 3153.95 892.035 Q3145.96 892.035 3141.73 885.733 Q3137.53 879.399 3137.53 867.4 Q3137.53 855.369 3141.73 849.067 Q3145.96 842.733 3153.95 842.733 Z" fill="#000000" fill-rule="evenodd" fill-opacity="1" /><polyline clip-path="url(#clip3400)" style="stroke:#00a8cb; stroke-width:16; stroke-opacity:1; fill:none" points="
  2764.44,927.832 2956.44,927.832 
  "/>
<path clip-path="url(#clip3400)" d="M 0 0 M2988.44 904.072 L2994.87 904.072 L2994.87 946.181 L3018.01 946.181 L3018.01 951.592 L2988.44 951.592 L2988.44 904.072 Z" fill="#000000" fill-rule="evenodd" fill-opacity="1" /><path clip-path="url(#clip3400)" d="M 0 0 M3036.82 920.05 Q3032.11 920.05 3029.37 923.742 Q3026.64 927.402 3026.64 933.8 Q3026.64 940.198 3029.34 943.89 Q3032.08 947.55 3036.82 947.55 Q3041.5 947.55 3044.24 943.858 Q3046.97 940.166 3046.97 933.8 Q3046.97 927.466 3044.24 923.774 Q3041.5 920.05 3036.82 920.05 M3036.82 915.085 Q3044.46 915.085 3048.82 920.05 Q3053.18 925.015 3053.18 933.8 Q3053.18 942.553 3048.82 947.55 Q3044.46 952.515 3036.82 952.515 Q3029.15 952.515 3024.79 947.55 Q3020.46 942.553 3020.46 933.8 Q3020.46 925.015 3024.79 920.05 Q3029.15 915.085 3036.82 915.085 Z" fill="#000000" fill-rule="evenodd" fill-opacity="1" /><path clip-path="url(#clip3400)" d="M 0 0 M3075.52 933.673 Q3068.43 933.673 3065.69 935.296 Q3062.95 936.919 3062.95 940.834 Q3062.95 943.953 3064.99 945.799 Q3067.06 947.614 3070.59 947.614 Q3075.46 947.614 3078.39 944.176 Q3081.35 940.707 3081.35 934.978 L3081.35 933.673 L3075.52 933.673 M3087.21 931.254 L3087.21 951.592 L3081.35 951.592 L3081.35 946.181 Q3079.34 949.428 3076.35 950.987 Q3073.36 952.515 3069.03 952.515 Q3063.56 952.515 3060.31 949.46 Q3057.1 946.372 3057.1 941.216 Q3057.1 935.2 3061.11 932.145 Q3065.15 929.089 3073.14 929.089 L3081.35 929.089 L3081.35 928.516 Q3081.35 924.474 3078.68 922.278 Q3076.03 920.05 3071.23 920.05 Q3068.17 920.05 3065.28 920.782 Q3062.38 921.514 3059.71 922.978 L3059.71 917.567 Q3062.92 916.326 3065.94 915.721 Q3068.97 915.085 3071.83 915.085 Q3079.57 915.085 3083.39 919.095 Q3087.21 923.106 3087.21 931.254 Z" fill="#000000" fill-rule="evenodd" fill-opacity="1" /><path clip-path="url(#clip3400)" d="M 0 0 M3116.81 921.355 L3116.81 902.067 L3122.66 902.067 L3122.66 951.592 L3116.81 951.592 L3116.81 946.245 Q3114.96 949.428 3112.13 950.987 Q3109.33 952.515 3105.38 952.515 Q3098.92 952.515 3094.84 947.359 Q3090.8 942.203 3090.8 933.8 Q3090.8 925.397 3094.84 920.241 Q3098.92 915.085 3105.38 915.085 Q3109.33 915.085 3112.13 916.644 Q3114.96 918.172 3116.81 921.355 M3096.85 933.8 Q3096.85 940.261 3099.49 943.953 Q3102.17 947.614 3106.81 947.614 Q3111.46 947.614 3114.13 943.953 Q3116.81 940.261 3116.81 933.8 Q3116.81 927.339 3114.13 923.679 Q3111.46 919.986 3106.81 919.986 Q3102.17 919.986 3099.49 923.679 Q3096.85 927.339 3096.85 933.8 Z" fill="#000000" fill-rule="evenodd" fill-opacity="1" /></svg>
